  0
SECTION
  2
HEADER
  9
$ACADVER
  1
AC1015
  9
$ACADMAINTVER
 70
6
  9
$DWGCODEPAGE
  3
ANSI_1252
  9
$INSBASE
 10
0.0
 20
0.0
 30
0.0
  9
$EXTMIN
 10
1e+20
 20
1e+20
 30
1e+20
  9
$EXTMAX
 10
-1e+20
 20
-1e+20
 30
-1e+20
  9
$LIMMIN
 10
0.0
 20
0.0
  9
$LIMMAX
 10
420.0
 20
297.0
  9
$ORTHOMODE
 70
0
  9
$REGENMODE
 70
1
  9
$FILLMODE
 70
1
  9
$QTEXTMODE
 70
0
  9
$MIRRTEXT
 70
1
  9
$LTSCALE
 40
1.0
  9
$ATTMODE
 70
1
  9
$TEXTSIZE
 40
2.5
  9
$TRACEWID
 40
1.0
  9
$TEXTSTYLE
  7
Standard
  9
$CLAYER
  8
0
  9
$CELTYPE
  6
ByLayer
  9
$CECOLOR
 62
256
  9
$CELTSCALE
 40
1.0
  9
$DISPSILH
 70
0
  9
$DIMSCALE
 40
1.0
  9
$DIMASZ
 40
2.5
  9
$DIMEXO
 40
0.625
  9
$DIMDLI
 40
3.75
  9
$DIMRND
 40
0.0
  9
$DIMDLE
 40
0.0
  9
$DIMEXE
 40
1.25
  9
$DIMTP
 40
0.0
  9
$DIMTM
 40
0.0
  9
$DIMTXT
 40
2.5
  9
$DIMCEN
 40
2.5
  9
$DIMTSZ
 40
0.0
  9
$DIMTOL
 70
0
  9
$DIMLIM
 70
0
  9
$DIMTIH
 70
0
  9
$DIMTOH
 70
0
  9
$DIMSE1
 70
0
  9
$DIMSE2
 70
0
  9
$DIMTAD
 70
1
  9
$DIMZIN
 70
8
  9
$DIMBLK
  1

  9
$DIMASO
 70
1
  9
$DIMSHO
 70
1
  9
$DIMPOST
  1

  9
$DIMAPOST
  1

  9
$DIMALT
 70
0
  9
$DIMALTD
 70
3
  9
$DIMALTF
 40
0.03937007874
  9
$DIMLFAC
 40
1.0
  9
$DIMTOFL
 70
1
  9
$DIMTVP
 40
0.0
  9
$DIMTIX
 70
0
  9
$DIMSOXD
 70
0
  9
$DIMSAH
 70
0
  9
$DIMBLK1
  1

  9
$DIMBLK2
  1

  9
$DIMSTYLE
  2
ISO-25
  9
$DIMCLRD
 70
0
  9
$DIMCLRE
 70
0
  9
$DIMCLRT
 70
0
  9
$DIMTFAC
 40
1.0
  9
$DIMGAP
 40
0.625
  9
$DIMJUST
 70
0
  9
$DIMSD1
 70
0
  9
$DIMSD2
 70
0
  9
$DIMTOLJ
 70
0
  9
$DIMTZIN
 70
8
  9
$DIMALTZ
 70
0
  9
$DIMALTTZ
 70
0
  9
$DIMUPT
 70
0
  9
$DIMDEC
 70
2
  9
$DIMTDEC
 70
2
  9
$DIMALTU
 70
2
  9
$DIMALTTD
 70
3
  9
$DIMTXSTY
  7
Standard
  9
$DIMAUNIT
 70
0
  9
$DIMADEC
 70
0
  9
$DIMALTRND
 40
0.0
  9
$DIMAZIN
 70
0
  9
$DIMDSEP
 70
44
  9
$DIMATFIT
 70
3
  9
$DIMFRAC
 70
0
  9
$DIMLDRBLK
  1

  9
$DIMLUNIT
 70
2
  9
$DIMLWD
 70
-2
  9
$DIMLWE
 70
-2
  9
$DIMTMOVE
 70
0
  9
$LUNITS
 70
2
  9
$LUPREC
 70
4
  9
$SKETCHINC
 40
1.0
  9
$FILLETRAD
 40
10.0
  9
$AUNITS
 70
0
  9
$AUPREC
 70
2
  9
$MENU
  1
.
  9
$ELEVATION
 40
0.0
  9
$PELEVATION
 40
0.0
  9
$THICKNESS
 40
0.0
  9
$LIMCHECK
 70
0
  9
$CHAMFERA
 40
0.0
  9
$CHAMFERB
 40
0.0
  9
$CHAMFERC
 40
0.0
  9
$CHAMFERD
 40
0.0
  9
$SKPOLY
 70
0
  9
$TDCREATE
 40
2461071.418090278
  9
$TDUCREATE
 40
2458532.153996898
  9
$TDUPDATE
 40
2461071.418090278
  9
$TDUUPDATE
 40
2458532.1544311
  9
$TDINDWG
 40
0.0
  9
$TDUSRTIMER
 40
0.0
  9
$USRTIMER
 70
1
  9
$ANGBASE
 50
0.0
  9
$ANGDIR
 70
0
  9
$PDMODE
 70
0
  9
$PDSIZE
 40
0.0
  9
$PLINEWID
 40
0.0
  9
$SPLFRAME
 70
0
  9
$SPLINETYPE
 70
6
  9
$SPLINESEGS
 70
8
  9
$HANDSEED
  5
33
  9
$SURFTAB1
 70
6
  9
$SURFTAB2
 70
6
  9
$SURFTYPE
 70
6
  9
$SURFU
 70
6
  9
$SURFV
 70
6
  9
$UCSBASE
  2

  9
$UCSNAME
  2

  9
$UCSORG
 10
0.0
 20
0.0
 30
0.0
  9
$UCSXDIR
 10
1.0
 20
0.0
 30
0.0
  9
$UCSYDIR
 10
0.0
 20
1.0
 30
0.0
  9
$UCSORTHOREF
  2

  9
$UCSORTHOVIEW
 70
0
  9
$UCSORGTOP
 10
0.0
 20
0.0
 30
0.0
  9
$UCSORGBOTTOM
 10
0.0
 20
0.0
 30
0.0
  9
$UCSORGLEFT
 10
0.0
 20
0.0
 30
0.0
  9
$UCSORGRIGHT
 10
0.0
 20
0.0
 30
0.0
  9
$UCSORGFRONT
 10
0.0
 20
0.0
 30
0.0
  9
$UCSORGBACK
 10
0.0
 20
0.0
 30
0.0
  9
$PUCSBASE
  2

  9
$PUCSNAME
  2

  9
$PUCSORG
 10
0.0
 20
0.0
 30
0.0
  9
$PUCSXDIR
 10
1.0
 20
0.0
 30
0.0
  9
$PUCSYDIR
 10
0.0
 20
1.0
 30
0.0
  9
$PUCSORTHOREF
  2

  9
$PUCSORTHOVIEW
 70
0
  9
$PUCSORGTOP
 10
0.0
 20
0.0
 30
0.0
  9
$PUCSORGBOTTOM
 10
0.0
 20
0.0
 30
0.0
  9
$PUCSORGLEFT
 10
0.0
 20
0.0
 30
0.0
  9
$PUCSORGRIGHT
 10
0.0
 20
0.0
 30
0.0
  9
$PUCSORGFRONT
 10
0.0
 20
0.0
 30
0.0
  9
$PUCSORGBACK
 10
0.0
 20
0.0
 30
0.0
  9
$USERI1
 70
0
  9
$USERI2
 70
0
  9
$USERI3
 70
0
  9
$USERI4
 70
0
  9
$USERI5
 70
0
  9
$USERR1
 40
0.0
  9
$USERR2
 40
0.0
  9
$USERR3
 40
0.0
  9
$USERR4
 40
0.0
  9
$USERR5
 40
0.0
  9
$WORLDVIEW
 70
1
  9
$SHADEDGE
 70
3
  9
$SHADEDIF
 70
70
  9
$TILEMODE
 70
1
  9
$MAXACTVP
 70
64
  9
$PINSBASE
 10
0.0
 20
0.0
 30
0.0
  9
$PLIMCHECK
 70
0
  9
$PEXTMIN
 10
1e+20
 20
1e+20
 30
1e+20
  9
$PEXTMAX
 10
-1e+20
 20
-1e+20
 30
-1e+20
  9
$PLIMMIN
 10
0.0
 20
0.0
  9
$PLIMMAX
 10
420.0
 20
297.0
  9
$UNITMODE
 70
0
  9
$VISRETAIN
 70
1
  9
$PLINEGEN
 70
0
  9
$PSLTSCALE
 70
1
  9
$TREEDEPTH
 70
3020
  9
$CMLSTYLE
  2
Standard
  9
$CMLJUST
 70
0
  9
$CMLSCALE
 40
20.0
  9
$PROXYGRAPHICS
 70
1
  9
$MEASUREMENT
 70
1
  9
$CELWEIGHT
370
-1
  9
$ENDCAPS
280
0
  9
$JOINSTYLE
280
0
  9
$LWDISPLAY
290
0
  9
$INSUNITS
 70
6
  9
$HYPERLINKBASE
  1

  9
$STYLESHEET
  1

  9
$XEDIT
290
1
  9
$CEPSNTYPE
380
0
  9
$PSTYLEMODE
290
1
  9
$FINGERPRINTGUID
  2
{E974DDE5-919E-4F95-813E-95960B3D1FD1}
  9
$VERSIONGUID
  2
{502DFE11-E761-4345-8C2A-1D414EBE8A4D}
  9
$EXTNAMES
290
1
  9
$PSVPSCALE
 40
0.0
  9
$OLESTARTUP
290
0
  0
ENDSEC
  0
SECTION
  2
CLASSES
  0
CLASS
  1
ACDBDICTIONARYWDFLT
  2
AcDbDictionaryWithDefault
  3
ObjectDBX Classes
 90
0
280
0
281
0
  0
CLASS
  1
SUN
  2
AcDbSun
  3
SCENEOE
 90
1153
280
0
281
0
  0
CLASS
  1
VISUALSTYLE
  2
AcDbVisualStyle
  3
ObjectDBX Classes
 90
4095
280
0
281
0
  0
CLASS
  1
MATERIAL
  2
AcDbMaterial
  3
ObjectDBX Classes
 90
1153
280
0
281
0
  0
CLASS
  1
SCALE
  2
AcDbScale
  3
ObjectDBX Classes
 90
1153
280
0
281
0
  0
CLASS
  1
TABLESTYLE
  2
AcDbTableStyle
  3
ObjectDBX Classes
 90
4095
280
0
281
0
  0
CLASS
  1
MLEADERSTYLE
  2
AcDbMLeaderStyle
  3
ACDB_MLEADERSTYLE_CLASS
 90
4095
280
0
281
0
  0
CLASS
  1
DICTIONARYVAR
  2
AcDbDictionaryVar
  3
ObjectDBX Classes
 90
0
280
0
281
0
  0
CLASS
  1
CELLSTYLEMAP
  2
AcDbCellStyleMap
  3
ObjectDBX Classes
 90
1152
280
0
281
0
  0
CLASS
  1
MENTALRAYRENDERSETTINGS
  2
AcDbMentalRayRenderSettings
  3
SCENEOE
 90
1024
280
0
281
0
  0
CLASS
  1
ACDBDETAILVIEWSTYLE
  2
AcDbDetailViewStyle
  3
ObjectDBX Classes
 90
1025
280
0
281
0
  0
CLASS
  1
ACDBSECTIONVIEWSTYLE
  2
AcDbSectionViewStyle
  3
ObjectDBX Classes
 90
1025
280
0
281
0
  0
CLASS
  1
RASTERVARIABLES
  2
AcDbRasterVariables
  3
ISM
 90
0
280
0
281
0
  0
CLASS
  1
ACDBPLACEHOLDER
  2
AcDbPlaceHolder
  3
ObjectDBX Classes
 90
0
280
0
281
0
  0
CLASS
  1
LAYOUT
  2
AcDbLayout
  3
ObjectDBX Classes
 90
0
280
0
281
0
  0
ENDSEC
  0
SECTION
  2
TABLES
  0
TABLE
  2
VPORT
  5
8
330
0
100
AcDbSymbolTable
 70
1
  0
VPORT
  5
23
330
8
100
AcDbSymbolTableRecord
100
AcDbViewportTableRecord
  2
*Active
 70
0
 10
0.0
 20
0.0
 11
1.0
 21
1.0
 12
0.0
 22
0.0
 13
0.0
 23
0.0
 14
0.5
 24
0.5
 15
0.5
 25
0.5
 16
0.0
 26
0.0
 36
1.0
 17
0.0
 27
0.0
 37
0.0
 40
1000.0
 41
1.34
 42
50.0
 43
0.0
 44
0.0
 50
0.0
 51
0.0
 71
0
 72
1000
 73
1
 74
3
 75
0
 76
0
 77
0
 78
0
281
0
 65
0
146
0.0
  0
ENDTAB
  0
TABLE
  2
LTYPE
  5
2
330
0
100
AcDbSymbolTable
 70
3
  0
LTYPE
  5
24
330
2
100
AcDbSymbolTableRecord
100
AcDbLinetypeTableRecord
  2
ByBlock
 70
0
  3

 72
65
 73
0
 40
0.0
  0
LTYPE
  5
25
330
2
100
AcDbSymbolTableRecord
100
AcDbLinetypeTableRecord
  2
ByLayer
 70
0
  3

 72
65
 73
0
 40
0.0
  0
LTYPE
  5
26
330
2
100
AcDbSymbolTableRecord
100
AcDbLinetypeTableRecord
  2
Continuous
 70
0
  3

 72
65
 73
0
 40
0.0
  0
ENDTAB
  0
TABLE
  2
LAYER
  5
1
330
0
100
AcDbSymbolTable
 70
2
  0
LAYER
  5
27
330
1
100
AcDbSymbolTableRecord
100
AcDbLayerTableRecord
  2
0
 70
0
 62
7
  6
Continuous
370
-3
390
13
  0
LAYER
  5
28
330
1
100
AcDbSymbolTableRecord
100
AcDbLayerTableRecord
  2
Defpoints
 70
0
 62
7
  6
Continuous
290
0
370
-3
390
13
  0
ENDTAB
  0
TABLE
  2
STYLE
  5
5
330
0
100
AcDbSymbolTable
 70
1
  0
STYLE
  5
29
330
5
100
AcDbSymbolTableRecord
100
AcDbTextStyleTableRecord
  2
Standard
 70
0
 40
0.0
 41
1.0
 50
0.0
 71
0
 42
2.5
  3
txt
  4

  0
ENDTAB
  0
TABLE
  2
VIEW
  5
7
330
0
100
AcDbSymbolTable
 70
0
  0
ENDTAB
  0
TABLE
  2
UCS
  5
6
330
0
100
AcDbSymbolTable
 70
0
  0
ENDTAB
  0
TABLE
  2
APPID
  5
3
330
0
100
AcDbSymbolTable
 70
3
  0
APPID
  5
2A
330
3
100
AcDbSymbolTableRecord
100
AcDbRegAppTableRecord
  2
ACAD
 70
0
  0
APPID
  5
30
330
3
100
AcDbSymbolTableRecord
100
AcDbRegAppTableRecord
  2
HATCHBACKGROUNDCOLOR
 70
0
  0
APPID
  5
31
330
3
100
AcDbSymbolTableRecord
100
AcDbRegAppTableRecord
  2
EZDXF
 70
0
  0
ENDTAB
  0
TABLE
  2
DIMSTYLE
  5
4
330
0
100
AcDbSymbolTable
 70
1
100
AcDbDimStyleTable
  0
DIMSTYLE
105
2B
330
4
100
AcDbSymbolTableRecord
100
AcDbDimStyleTableRecord
  2
Standard
 70
0
  3

  4

 40
1.0
 41
2.5
 42
0.625
 43
3.75
 44
1.25
 45
0.0
 46
0.0
 47
0.0
 48
0.0
140
2.5
141
2.5
142
0.0
143
0.03937007874
144
1.0
145
0.0
146
1.0
147
0.625
148
0.0
 71
0
 72
0
 73
0
 74
0
 75
0
 76
0
 77
1
 78
8
 79
3
170
0
171
3
172
1
173
0
174
0
175
0
176
0
177
0
178
0
179
2
271
2
272
2
273
2
274
3
275
0
276
0
277
2
278
44
279
0
280
0
281
0
282
0
283
0
284
8
285
0
286
0
288
0
289
3
371
-2
372
-2
  0
ENDTAB
  0
TABLE
  2
BLOCK_RECORD
  5
9
330
0
100
AcDbSymbolTable
 70
2
  0
BLOCK_RECORD
  5
17
330
9
100
AcDbSymbolTableRecord
100
AcDbBlockTableRecord
  2
*Model_Space
340
1A
  0
BLOCK_RECORD
  5
1B
330
9
100
AcDbSymbolTableRecord
100
AcDbBlockTableRecord
  2
*Paper_Space
340
1E
  0
ENDTAB
  0
ENDSEC
  0
SECTION
  2
BLOCKS
  0
BLOCK
  5
18
330
17
100
AcDbEntity
  8
0
100
AcDbBlockBegin
  2
*Model_Space
 70
0
 10
0.0
 20
0.0
 30
0.0
  3
*Model_Space
  1

  0
ENDBLK
  5
19
330
17
100
AcDbEntity
  8
0
100
AcDbBlockEnd
  0
BLOCK
  5
1C
330
1B
100
AcDbEntity
  8
0
100
AcDbBlockBegin
  2
*Paper_Space
 70
0
 10
0.0
 20
0.0
 30
0.0
  3
*Paper_Space
  1

  0
ENDBLK
  5
1D
330
1B
100
AcDbEntity
  8
0
100
AcDbBlockEnd
  0
ENDSEC
  0
SECTION
  2
ENTITIES
  0
LWPOLYLINE
  5
2F
330
17
100
AcDbEntity
  8
0
100
AcDbPolyline
 90
3601
 70
1
 10
249.5404150720203
 20
0.0
 10
249.54052129755038
 20
-0.22467202768924208
 10
249.54019699308975
 20
-0.7192391518804507
 10
249.53932584146293
 20
-1.2138056162030657
 10
249.53932584146293
 20
-1.2138056162030657
 10
249.53791261566613
 20
-1.708370827860789
 10
249.53593609879675
 20
-2.202934106483588
 10
249.5333685573864
 20
-2.6974946671621134
 10
249.5301822575108
 20
-3.1920516255428244
 10
249.52634945641043
 20
-3.686603993081709
 10
249.52184242252238
 20
-4.18115067250344
 10
249.51663343098411
 20
-4.67569045314723
 10
249.51069475328157
 20
-5.170222006201988
 10
249.50399899130943
 20
-5.664743884729027
 10
249.4965336759234
 20
-6.1592547451582895
 10
249.48830710744008
 20
-6.653753528598688
 10
249.4793291000073
 20
-7.148239241094339
 10
249.46960946716706
 20
-7.6427109333412595
 10
249.4591580095493
 20
-8.137167699829892
 10
249.447984546091
 20
-8.63160867889692
 10
249.43609889145705
 20
-9.126033051718466
 10
249.4235108536561
 20
-9.620440041635753
 10
249.41023023380006
 20
-10.114828913522034
 10
249.39626682957868
 20
-10.609198973257623
 10
249.38163045330535
 20
-11.103549567677122
 10
249.36633076939484
 20
-11.597880078971183
 10
249.35037204437543
 20
-12.092189752837978
 10
249.33375140925625
 20
-12.586477612995369
 10
249.316465533971
 20
-13.080742655605984
 10
249.29851107843763
 20
-13.574983862892278
 10
249.27988470161648
 20
-14.06920020333913
 10
249.26058305561298
 20
-14.563390631375004
 10
249.24060280025407
 20
-15.057554087845812
 10
249.21994060509752
 20
-15.551689500074714
 10
249.19859313261676
 20
-16.045795781112336
 10
249.17655704547047
 20
-16.539871829937493
 10
249.15382899431344
 20
-17.033916530808963
 10
249.1304057100639
 20
-17.527928757533502
 10
249.10628606645662
 20
-18.021907475008373
 10
249.08147187690273
 20
-18.51585179044916
 10
249.05596515529584
 20
-19.00976082877819
 10
249.0297679297987
 20
-19.503633723954955
 10
249.00288222947168
 20
-19.997469618312568
 10
248.97531007703427
 20
-20.491267662128312
 10
248.9470534911647
 20
-20.985027013686558
 10
248.91811448454553
 20
-21.478746839109096
 10
248.88849509042691
 20
-21.97242631390038
 10
248.8581973289238
 20
-22.466064620972364
 10
248.82722321936768
 20
-22.95966095131234
 10
248.79557472974216
 20
-23.453214500680456
 10
248.7632522180512
 20
-23.94672436690562
 10
248.73025382170945
 20
-24.44018950085594
 10
248.6965775175629
 20
-24.933608834578173
 10
248.66222127680325
 20
-25.426981291084104
 10
248.62718307374217
 20
-25.920305784904613
 10
248.5914608965472
 20
-26.413581222859886
 10
248.55505272442056
 20
-26.906806502419336
 10
248.51795653731057
 20
-27.39998051233956
 10
248.48017030038847
 20
-27.893102131431963
 10
248.4416920103166
 20
-28.38617023206446
 10
248.40251965013397
 20
-28.879183676729983
 10
248.36265121399666
 20
-29.37214131992947
 10
248.32208551769398
 20
-29.86504207509923
 10
248.2808228009606
 20
-30.357884969338535
 10
248.2388634466844
 20
-30.85066904255306
 10
248.19620783036265
 20
-31.343393335294138
 10
248.15285632514684
 20
-31.8360568891478
 10
248.10880929445707
 20
-32.32865874604688
 10
248.06406712725868
 20
-32.82119795142584
 10
248.01863019837506
 20
-33.31367355070715
 10
247.97249888244113
 20
-33.80608459051225
 10
247.92567354229345
 20
-34.29843011754219
 10
247.87815455928148
 20
-34.79070918143595
 10
247.82994231193038
 20
-35.28292083279135
 10
247.78103693096526
 20
-35.77506409871023
 10
247.7314376372595
 20
-36.267137914736225
 10
247.68114344012085
 20
-36.75914119110734
 10
247.63015336679632
 20
-37.25107283525746
 10
247.57846643383974
 20
-37.74293174889875
 10
247.52608165833027
 20
-38.23471682913147
 10
247.47299804343493
 20
-38.726426966861744
 10
247.41921462004177
 20
-39.218061051268975
 10
247.36473040878576
 20
-39.70961796575199
 10
247.3095444291945
 20
-40.20109658887107
 10
247.2536556937167
 20
-40.6924957936393
 10
247.19706322249658
 20
-41.18381444916572
 10
247.13976602069263
 20
-41.67505141803636
 10
247.08176261272297
 20
-42.16620550114161
 10
247.02305110150408
 20
-42.65727544208726
 10
246.9636295625746
 20
-43.1482599723086
 10
246.90349610216163
 20
-43.639157817988355
 10
246.84264881197103
 20
-44.12996769460455
 10
246.781085784665
 20
-44.62068830873686
 10
246.71880510302705
 20
-45.11131835664951
 10
246.65580486685067
 20
-45.60185652765033
 10
246.59208317788006
 20
-46.0923015022084
 10
246.52763813329182
 20
-46.582651951065785
 10
246.46246782749904
 20
-47.072906535402836
 10
246.39657035154593
 20
-47.56306390669275
 10
246.32994391370545
 20
-48.053122723097694
 10
246.2625878733146
 20
-48.5430817923788
 10
246.19450237372868
 20
-49.032940027484614
 10
246.12568755882367
 20
-49.522696341386165
 10
246.05614359768225
 20
-50.012349650596214
 10
245.985870650979
 20
-50.50189887050308
 10
245.91486887643944
 20
-50.99134291609536
 10
245.84313842457436
 20
-51.48068070130381
 10
245.770679450312
 20
-51.96991114067069
 10
245.69749212096056
 20
-52.45903315057384
 10
245.62357659395872
 20
-52.94804564593346
 10
245.5489330264503
 20
-53.43694754159899
 10
245.47356155926963
 20
-53.925737749857674
 10
245.39746236423406
 20
-54.41441518770399
 10
245.3206355276307
 20
-54.902978758698495
 10
245.24308105367618
 20
-55.391427353003266
 10
245.1647989317054
 20
-55.87975985762453
 10
245.0857891650237
 20
-56.36797516098244
 10
245.00605176026335
 20
-56.85607215126267
 10
244.92558671757337
 20
-57.34404971480799
 10
244.84439403398846
 20
-57.831906736623054
 10
244.76247369980487
 20
-58.31964209973021
 10
244.67982572941227
 20
-58.807254690358725
 10
244.5964501238329
 20
-59.29474339168498
 10
244.51234688432606
 20
-59.78210708607919
 10
244.42751599904787
 20
-60.269344652765234
 10
244.34195747944133
 20
-60.7564549741309
 10
244.25567099902807
 20
-61.2434368717548
 10
244.16865513724105
 20
-61.7302889693016
 10
244.08090824427316
 20
-62.217009841707686
 10
243.99242867407088
 20
-62.703598055994824
 10
243.90321479647764
 20
-63.19005217349539
 10
243.81326497225115
 20
-63.676370745295074
 10
243.72257756363064
 20
-64.16255231410018
 10
243.63115091755026
 20
-64.64859541103637
 10
243.53898341581578
 20
-65.13449856504299
 10
243.44607342590893
 20
-65.62026029365755
 10
243.3524193166893
 20
-66.10587910590048
 10
243.25801944888525
 20
-66.59135350038608
 10
243.16287219756478
 20
-67.07668196963651
 10
243.06697594847267
 20
-67.56186299942574
 10
242.9703293363377
 20
-68.04689511635635
 10
242.8729314063171
 20
-68.53177692172336
 10
242.77478123343795
 20
-69.0165070170971
 10
242.67587791975274
 20
-69.50108400394485
 10
242.57622055373668
 20
-69.98550647543867
 10
242.4758082248581
 20
-70.46977301935162
 10
242.37464001005958
 20
-70.95388221520383
 10
242.27271501038948
 20
-71.4378326418782
 10
242.17003232263033
 20
-71.92162287174556
 10
242.06659104067796
 20
-72.40525147089893
 10
241.9623902530893
 20
-72.88871699857188
 10
241.85742905162297
 20
-73.37201800892862
 10
241.75170654512814
 20
-73.85515305411337
 10
241.64522183267184
 20
-74.33812067841578
 10
241.53797401185517
 20
-74.8209194200175
 10
241.42996215156114
 20
-75.30354780484332
 10
241.3211853524289
 20
-75.78600435999367
 10
241.21164269978834
 20
-76.26828760325263
 10
241.10133327958386
 20
-76.75039604658762
 10
240.99025616853615
 20
-77.23232819384984
 10
240.87841045769545
 20
-77.71408254615415
 10
240.7657952441352
 20
-78.19565760002055
 10
240.6524096186675
 20
-78.6770518444909
 10
240.53825267013224
 20
-79.1582637620665
 10
240.4233234806643
 20
-79.63929182752537
 10
240.3076211599347
 20
-80.1201345161023
 10
240.1911448044263
 20
-80.60079029378856
 10
240.073893512168
 20
-81.08125762079558
 10
239.9558663685131
 20
-81.56153494802909
 10
239.83706272797502
 20
-82.04162078682315
 10
239.7174827506393
 20
-82.52151384432167
 10
239.59712676209136
 20
-83.0012128683369
 10
239.47599508059812
 20
-83.48071660488685
 10
239.35408802781242
 20
-83.96002380085368
 10
239.23140593986872
 20
-84.43913320685355
 10
239.1079491418829
 20
-84.91804357075543
 10
238.98371795873973
 20
-85.39675364038494
 10
238.8587126975124
 20
-85.87526215890382
 10
238.73293370094873
 20
-86.35356787875733
 10
238.6063812937359
 20
-86.8316695477019
 10
238.47905580046066
 20
-87.30956591344007
 10
238.35095753451463
 20
-87.78725572062356
 10
238.22208682447382
 20
-88.26473771788875
 10
238.09244400157746
 20
-88.74201065456579
 10
237.9620294334697
 20
-89.21907328992876
 10
237.8308437540171
 20
-89.69592445664873
 10
237.69888769480016
 20
-90.17256301592056
 10
237.56616201120272
 20
-90.648987837598
 10
237.4326674443063
 20
-91.12519778967867
 10
237.2984047348522
 20
-91.60119174212204
 10
237.16337460837843
 20
-92.07696856260867
 10
237.0275778167476
 20
-92.55252712829497
 10
236.89101510264481
 20
-93.0278663158048
 10
236.7536872053216
 20
-93.50298500280813
 10
236.61559485581412
 20
-93.97788206658905
 10
236.4767387903708
 20
-94.45255638790714
 10
236.33711975702184
 20
-94.92700685297481
 10
236.19673849333074
 20
-95.40123234694833
 10
236.05559573553717
 20
-95.87523175655933
 10
235.91369212240167
 20
-96.3490039412335
 10
235.77102699062593
 20
-96.82254736931633
 10
235.62759857486182
 20
-97.29586017006703
 10
235.48340508086378
 20
-97.76894045267815
 10
235.3384447053029
 20
-98.24178631204832
 10
235.19271566548812
 20
-98.71439583782093
 10
235.04621618199639
 20
-99.18676710909352
 10
234.89894447248963
 20
-99.65889819244049
 10
234.75089875282436
 20
-100.13078714216307
 10
234.60207723907934
 20
-100.60243200084024
 10
234.45247817195232
 20
-101.07383080702014
 10
234.30209978259364
 20
-101.54498158443234
 10
234.1509403057807
 20
-102.01588234606588
 10
233.9989979637084
 20
-102.48653108887756
 10
233.846271012937
 20
-102.95692580888417
 10
233.6927577017629
 20
-103.42706448744197
 10
233.5384565022906
 20
-103.89694516743012
 10
233.38336735362935
 20
-104.3665663653888
 10
233.2274908053327
 20
-104.83592679758125
 10
233.07082741750423
 20
-105.30502518442779
 10
232.91337774086378
 20
-105.77386024388039
 10
232.75514232368903
 20
-106.24243069367526
 10
232.59612170228468
 20
-106.71073524805388
 10
232.43631644283548
 20
-107.17877263196989
 10
232.2757270951162
 20
-107.64654156542281
 10
232.11435420866425
 20
-108.1140407688916
 10
231.95219831921744
 20
-108.5812689586016
 10
231.78925998466423
 20
-109.0482248589627
 10
231.6255397585897
 20
-109.51490719346133
 10
231.46103818958207
 20
-109.98131468436382
 10
231.29575581935617
 20
-110.4474460519916
 10
231.12969319104073
 20
-110.91330001760751
 10
230.9628508443339
 20
-111.37887530168214
 10
230.79522883634755
 20
-111.84417045114743
 10
230.62682674575794
 20
-112.30918383744572
 10
230.45764411311382
 20
-112.77391381305331
 10
230.28768051637533
 20
-113.23835873880475
 10
230.11693551748
 20
-113.70251696450727
 10
229.9454086797508
 20
-114.1663868352072
 10
229.77309955694912
 20
-114.6299666870886
 10
229.60000771985264
 20
-115.09325485730105
 10
229.42613274400819
 20
-115.55624967947622
 10
229.25147419964898
 20
-116.01894947992251
 10
229.07603165452272
 20
-116.48135257861264
 10
228.89980467286753
 20
-116.9434572887312
 10
228.72279284461962
 20
-117.40526192782687
 10
228.54499574766268
 20
-117.86676480344477
 10
228.3664129619105
 20
-118.32796421843797
 10
228.18704405352915
 20
-118.78885846479297
 10
228.00688869373332
 20
-119.24944587001134
 10
227.82594716189212
 20
-119.70972499572599
 10
227.64422004206725
 20
-120.16969452237716
 10
227.46170791147443
 20
-120.62935312800434
 10
227.27841135547425
 20
-121.08869949416238
 10
227.09433096930545
 20
-121.54773230668712
 10
226.90946733853457
 20
-122.00645024788216
 10
226.72382104651268
 20
-122.46485199943814
 10
226.53739266420948
 20
-122.92293623825067
 10
226.35018279297822
 20
-123.38070165381642
 10
226.1621920176942
 20
-123.83814692921878
 10
225.97342092306812
 20
-124.29527074770358
 10
225.7838700801389
 20
-124.75207178704649
 10
225.59354008207177
 20
-125.20854873436552
 10
225.40243151786729
 20
-125.66470027528871
 10
225.21054497161214
 20
-126.1205250935834
 10
225.01788102054348
 20
-126.57602187027365
 10
224.82444022436803
 20
-127.03118927901517
 10
224.63022297840948
 20
-127.48602592323961
 10
224.4352295682755
 20
-127.94053035833294
 10
224.2394602792883
 20
-128.39470113785362
 10
224.04291537940318
 20
-128.84853680609285
 10
223.84559517347307
 20
-129.30203592154453
 10
223.64749994915303
 20
-129.7551970335558
 10
223.44862999481288
 20
-130.20801869001633
 10
223.24898558830134
 20
-130.66049943237545
 10
223.04856702412863
 20
-131.11263780758918
 10
222.8473745999652
 20
-131.56443236224283
 10
222.64540860751276
 20
-132.01588163846955
 10
222.4426693347502
 20
-132.46698417487653
 10
222.2391570662274
 20
-132.91773850661875
 10
222.03487210987566
 20
-133.3681431775287
 10
221.8298147610209
 20
-133.8181967239015
 10
221.6239853159417
 20
-134.26789768056145
 10
221.41738404061513
 20
-134.71724456644952
 10
221.21001068783286
 20
-135.16623566118415
 10
221.00186431890273
 20
-135.61486891835955
 10
220.79294395322893
 20
-136.06314226231822
 10
220.58324860396854
 20
-136.5110536043806
 10
220.37277729825811
 20
-136.95860085223745
 10
220.1615290744631
 20
-137.40578190871878
 10
219.94950296593376
 20
-137.852594664112
 10
219.7366980066545
 20
-138.29903699872932
 10
219.52311322523624
 20
-138.74510677995266
 10
219.30874768164298
 20
-139.19080187980026
 10
219.09360042455123
 20
-139.6361201545378
 10
218.87767050668907
 20
-140.0810594519367
 10
218.66095697005795
 20
-140.52561760401608
 10
218.44345888701866
 20
-140.96979244700526
 10
218.2251753265564
 20
-141.41358180496334
 10
218.00610535850424
 20
-141.8569834917491
 10
217.78624804898175
 20
-142.29999530867696
 10
217.56560250496258
 20
-142.7426150666486
 10
217.3441689441981
 20
-143.18484112253176
 10
217.1219489524598
 20
-143.6266725177134
 10
216.89894419959944
 20
-144.06810834188917
 10
216.67515633916264
 20
-144.50914768292637
 10
216.4505870545276
 20
-144.94978965025146
 10
216.22523800961852
 20
-145.39003334990485
 10
215.99911086581207
 20
-145.82987789303746
 10
215.77220726873676
 20
-146.26932238905775
 10
215.5445288827333
 20
-146.70836596336807
 10
215.31607736639796
 20
-147.14700774481528
 10
215.0868543705671
 20
-147.5852468645752
 10
214.85686153672853
 20
-148.02308245523446
 10
214.62610050547045
 20
-148.46051365515848
 10
214.39457293085218
 20
-148.89753961611638
 10
214.16228045263594
 20
-149.33415948863365
 10
213.92922470749883
 20
-149.77037242784098
 10
213.69540731205223
 20
-150.20617758431584
 10
213.46082991505955
 20
-150.64157413205572
 10
213.2254938344736
 20
-151.07656107225606
 10
212.98939938834062
 20
-151.51113686700788
 10
212.75254668363687
 20
-151.94529986066155
 10
212.51493584649853
 20
-152.37904840388995
 10
212.27656700518452
 20
-152.81238084447762
 10
212.03744028364648
 20
-153.24529552374545
 10
211.79755580224185
 20
-153.67779077686006
 10
211.5569136815611
 20
-154.10986493488838
 10
211.31551406351068
 20
-154.54151633657565
 10
211.07335707949065
 20
-154.97274331064287
 10
210.83044286285357
 20
-155.40354418266557
 10
210.5867715321196
 20
-155.83391726553234
 10
210.3423432405039
 20
-156.26386088744528
 10
210.09715812841677
 20
-156.69337336511182
 10
209.85121633738757
 20
-157.122453011551
 10
209.6045180006465
 20
-157.55109813063183
 10
209.35706326711485
 20
-157.97930703082557
 10
209.10885229220128
 20
-158.40707801999466
 10
208.85988523122379
 20
-158.8344094015847
 10
208.6101622929495
 20
-159.26129950589757
 10
208.35968371669145
 20
-159.68774667707325
 10
208.1084497669965
 20
-160.11374927024602
 10
207.85646069619816
 20
-160.53930562958774
 10
207.60371675814176
 20
-160.96441409630037
 10
207.35021819260413
 20
-161.38907299927317
 10
207.09596527002623
 20
-161.81328068173877
 10
206.84095825115767
 20
-162.23703547726802
 10
206.58519739624077
 20
-162.66033571517323
 10
206.328682957821
 20
-163.08317971608952
 10
206.07141520057172
 20
-163.5055658039385
 10
205.81339439827474
 20
-163.9274923041844
 10
205.55462081813212
 20
-164.3489575342509
 10
205.29509472599275
 20
-164.76995980662673
 10
205.03481638139152
 20
-165.19049742572838
 10
204.7737860716793
 20
-165.6105687090292
 10
204.51200407158916
 20
-166.03017196208322
 10
204.2494706578275
 20
-166.4493054874827
 10
203.98618613926877
 20
-166.86796760384092
 10
203.7221511809535
 20
-167.2861568506613
 10
203.4573665852539
 20
-167.70387185306978
 10
203.1918331523275
 20
-168.12111123442259
 10
202.92555167391265
 20
-168.5378736122859
 10
202.65852294991785
 20
-168.95415760897032
 10
202.39074779000018
 20
-169.3699618526338
 10
202.12222699488467
 20
-169.78528496528185
 10
201.8529613630186
 20
-170.2001255669617
 10
201.58295168284252
 20
-170.61448227066566
 10
201.31219877074946
 20
-171.02835370706242
 10
201.0407034282161
 20
-171.44173849662496
 10
200.76846645693706
 20
-171.85463525941543
 10
200.49548864495688
 20
-172.26704260586934
 10
200.2217708047743
 20
-172.67895916196574
 10
199.94731374239618
 20
-173.09038354883822
 10
199.6721182605108
 20
-173.50131438479863
 10
199.39618515425232
 20
-173.91175028241736
 10
199.1195152251923
 20
-174.32168985786373
 10
198.8421092869841
 20
-174.73113173479888
 10
198.56396815431535
 20
-175.14007453697081
 10
198.28509264971896
 20
-175.5485168928332
 10
198.00548358461722
 20
-175.95645742259742
 10
197.7251417998436
 20
-176.36389476599877
 10
197.44406812108008
 20
-176.77082755182357
 10
197.1622633743547
 20
-177.17725440845211
 10
196.87972837293194
 20
-177.58317395469732
 10
196.59646395263533
 20
-177.98858482433872
 10
196.31247094470297
 20
-178.39348564732518
 10
196.02775017667474
 20
-178.7978750503161
 10
195.7423024693189
 20
-179.20175165443197
 10
195.45612864826052
 20
-179.60511408340366
 10
195.1692295522791
 20
-180.00796096953496
 10
194.88160601063572
 20
-180.41029093761688
 10
194.59325885173854
 20
-180.81210261100478
 10
194.30418889137624
 20
-181.21339460308914
 10
194.01439697601157
 20
-181.61416554846218
 10
193.72388393684426
 20
-182.0144140699073
 10
193.4326506055875
 20
-182.41413878968027
 10
193.14069771502182
 20
-182.81333825668747
 10
192.8480257142161
 20
-183.21201080979273
 10
192.55463498351622
 20
-183.61015473312233
 10
192.26052590090046
 20
-184.00776830427608
 10
191.96569883968021
 20
-184.4048497925294
 10
191.67015417878565
 20
-184.80139746639202
 10
191.37389231288446
 20
-185.19740960121425
 10
191.07691362872757
 20
-185.5928844615568
 10
190.7792185142626
 20
-185.987820307904
 10
190.48080734614737
 20
-186.38221538715754
 10
190.18168053397739
 20
-186.7760679660699
 10
189.88183847392636
 20
-187.16937629624698
 10
189.58128156462553
 20
-187.56213862607265
 10
189.28001019490716
 20
-187.95435319124954
 10
188.97802477617748
 20
-188.34601823960458
 10
188.67532571927322
 20
-188.7371320134097
 10
188.37191343307154
 20
-189.12769274823034
 10
188.0677883225089
 20
-189.51769867128664
 10
187.76295079821858
 20
-189.90714800888907
 10
187.45740128762392
 20
-190.29603899519196
 10
187.15114036486708
 20
-190.68436997491008
 10
186.8441690393751
 20
-191.0721396332947
 10
186.5364883826715
 20
-191.4593467046905
 10
186.22809949671318
 20
-191.84598994808954
 10
185.91900346737108
 20
-192.23206811025707
 10
185.6092013802824
 20
-192.61757993823457
 10
185.29869430880063
 20
-193.00252416958125
 10
184.98748334561967
 20
-193.3868995578206
 10
184.6755695803294
 20
-193.77070485444207
 10
184.36295409771202
 20
-194.15393880744332
 10
184.04963797585017
 20
-194.53660015968563
 10
183.73562229563683
 20
-194.9186876566041
 10
183.42090815137263
 20
-195.30020005498776
 10
183.1054966271222
 20
-195.6811361035553
 10
182.78938880574134
 20
-196.06149455029384
 10
182.4725857566558
 20
-196.44127413220642
 10
182.15508857892488
 20
-196.820473611208
 10
181.83689835604275
 20
-197.19909173651035
 10
181.51801617138494
 20
-197.57712725741365
 10
181.19844309618014
 20
-197.95457891308192
 10
180.87818019588042
 20
-198.33144543777013
 10
180.55722832804955
 20
-198.70772538835016
 10
180.23558824856838
 20
-199.083417232666
 10
179.91326070740584
 20
-199.4585194304259
 10
179.59024645974904
 20
-199.83303044267785
 10
179.2665462747337
 20
-200.2069487394169
 10
178.94216091337532
 20
-200.58027278055042
 10
178.61709113683057
 20
-200.953001022937
 10
178.2913376957325
 20
-201.32513191098673
 10
177.96490137056603
 20
-201.69666391198086
 10
177.63778292856964
 20
-202.06759547843
 10
177.30998313860965
 20
-202.43792506099823
 10
176.98150275899297
 20
-202.80765109762999
 10
176.65234257028712
 20
-203.1767720426477
 10
176.32250335031114
 20
-203.54528634463878
 10
175.9919858747335
 20
-203.91319244689777
 10
175.66079091407192
 20
-204.280488784627
 10
175.3289192454141
 20
-204.64717379542483
 10
174.9963716589574
 20
-205.013245925291
 10
174.66314893764192
 20
-205.37870361019122
 10
174.3292518647365
 20
-205.74354528283283
 10
173.99468130543352
 20
-206.10776944761847
 10
173.65943840438004
 20
-206.47137486377162
 10
173.32352433501984
 20
-206.83436031716312
 10
172.98694027063075
 20
-207.19672459379836
 10
172.64968737196986
 20
-207.5584664682531
 10
172.31176682096475
 20
-207.91958473502126
 10
171.97317979392952
 20
-208.28007818365646
 10
171.6339274635852
 20
-208.63994560056253
 10
171.29401099533683
 20
-208.9991857653784
 10
170.95343156041864
 20
-209.35779746333554
 10
170.61219033978432
 20
-209.71577948905264
 10
170.27028850577645
 20
-210.07313062911345
 10
169.92772722854005
 20
-210.42984966806281
 10
169.58450766897653
 20
-210.78593538154058
 10
169.2406310127748
 20
-211.1413865690756
 10
168.8960984320858
 20
-211.49620201722266
 10
168.55091109904316
 20
-211.8503805124972
 10
168.2050701731479
 20
-212.20392082898815
 10
167.85857683636095
 20
-212.55682176262297
 10
167.51143226369578
 20
-212.9090821025158
 10
167.16363762719178
 20
-213.26070063475558
 10
166.8151940618891
 20
-213.61167610851595
 10
166.46610264600528
 20
-213.9620072157662
 10
166.11636445765407
 20
-214.3116926471573
 10
165.76598056784619
 20
-214.6607310849516
 10
165.41495204559666
 20
-215.00912120800845
 10
165.06327995342187
 20
-215.35686168714787
 10
164.71096537705384
 20
-215.7039512152062
 10
164.35800939035303
 20
-216.05038847162157
 10
164.0044130679403
 20
-216.39617213511193
 10
163.650177472259
 20
-216.74130087034678
 10
163.29530369032486
 20
-217.08577336560424
 10
162.93979280134627
 20
-217.4295882996565
 10
162.58364588317855
 20
-217.7727443482912
 10
162.22686400647248
 20
-218.1152401781379
 10
161.86944825193805
 20
-218.45707446457075
 10
161.51139970705597
 20
-218.7982458884034
 10
161.15271945323119
 20
-219.1387531224216
 10
160.7934085695617
 20
-219.4785948352148
 10
160.4334681309214
 20
-219.8177696890475
 10
160.072899233308
 20
-220.1562763667833
 10
159.7117029619934
 20
-220.49411353814227
 10
159.34988039350785
 20
-220.83127986158843
 10
158.98743256120352
 20
-221.16777394704047
 10
158.6243605187067
 20
-221.50359442376399
 10
158.26066531039095
 20
-221.83873990863285
 10
157.8963479803306
 20
-222.1732090156612
 10
157.53140956520022
 20
-222.5070003481681
 10
157.16585111405527
 20
-222.8401125203201
 10
156.79967368081242
 20
-223.17254414903235
 10
156.4328783145467
 20
-223.5042938432664
 10
156.06546606168962
 20
-223.83536020632096
 10
155.69743796727838
 20
-224.16574183711444
 10
155.3287950950991
 20
-224.4954373526636
 10
154.95953849963226
 20
-224.82444535687435
 10
154.58966923677283
 20
-225.15276445239013
 10
154.21918834997737
 20
-225.48039322486753
 10
153.8480969113476
 20
-225.80733028937286
 10
153.47639598180967
 20
-226.13357424548
 10
153.10408662317738
 20
-226.45912369079258
 10
152.7311698895386
 20
-226.7839772109976
 10
152.3576468499923
 20
-227.1081334058832
 10
151.98351857621307
 20
-227.43159087519362
 10
151.60878614623806
 20
-227.7543482230205
 10
151.2334507741681
 20
-228.0764042090417
 10
150.85751377748016
 20
-228.39775771249106
 10
150.48097649034816
 20
-228.71840763226558
 10
150.10384023725143
 20
-229.0383528561022
 10
149.72610634229514
 20
-229.35759227138269
 10
149.34777611621348
 20
-229.6761247496332
 10
148.9688508971859
 20
-229.99394919495165
 10
148.58933200941763
 20
-230.31106449493316
 10
148.20922077708073
 20
-230.6274695371076
 10
147.82851851436763
 20
-230.94316319689392
 10
147.44722655137548
 20
-231.2581443687311
 10
147.06534621633952
 20
-231.57241194478763
 10
146.68287883344536
 20
-231.88596481221506
 10
146.2998257213545
 20
-232.1988018512154
 10
145.91618820162242
 20
-232.51092194524733
 10
145.53196760695675
 20
-232.82232399127076
 10
145.14716526179697
 20
-233.13300687588045
 10
144.7617824894427
 20
-233.44296948395882
 10
144.3758206032986
 20
-233.75221068766834
 10
143.98928094071672
 20
-234.06072938866006
 10
143.60216482663785
 20
-234.36852447280484
 10
143.21447360619624
 20
-234.67559485107813
 10
142.82620871464863
 20
-234.98193954850942
 10
142.43737163650042
 20
-235.28755765388092
 10
142.04796385087613
 20
-235.59244825097147
 10
141.65798683313997
 20
-235.89661042049698
 10
141.26744205163206
 20
-236.20004323580145
 10
140.87633097940548
 20
-236.50274577786357
 10
140.48465509682745
 20
-236.80471713878399
 10
140.09241587635466
 20
-237.10595640209723
 10
139.69961478767414
 20
-237.40646264929612
 10
139.30625329268068
 20
-237.7062349531437
 10
138.91233287302686
 20
-238.0052724138291
 10
138.51785499839508
 20
-238.30357411741818
 10
138.1228211377971
 20
-238.60113915056587
 10
137.72723274848295
 20
-238.89796658567988
 10
137.33109130725464
 20
-239.1940555225753
 10
136.9343982832252
 20
-239.48940505231215
 10
136.53715514281177
 20
-239.7840142637312
 10
136.13936334485345
 20
-240.07788223674308
 10
135.74102435547385
 20
-240.37100806235418
 10
135.34213964532788
 20
-240.6633908390815
 10
134.94271067777748
 20
-240.95502965683264
 10
134.5427388083832
 20
-241.24592345840531
 10
134.14222516841775
 20
-241.53607087649752
 10
133.74117087998584
 20
-241.82547052693212
 10
133.33957705726837
 20
-242.11412101008136
 10
132.9374448165455
 20
-242.40202092458915
 10
132.53477526448168
 20
-242.68916885087128
 10
132.13156953243677
 20
-242.97556339915627
 10
131.7278287442005
 20
-243.26120316437854
 10
131.32355402477037
 20
-243.54608673835534
 10
130.91874649363035
 20
-243.83021270012392
 10
130.5134072832614
 20
-244.11357964221563
 10
130.10753753042493
 20
-244.3961861583855
 10
129.70113836934397
 20
-244.678030833777
 10
129.29421093277435
 20
-244.95911224630385
 10
128.88675635493763
 20
-245.23942897077302
 10
128.47877578602018
 20
-245.51897960002267
 10
128.0702703699786
 20
-245.79776271269702
 10
127.6612412532825
 20
-246.07577688584533
 10
127.25168957254971
 20
-246.35302067658293
 10
126.8416164918145
 20
-246.6294926770744
 10
126.43102316528807
 20
-246.90519145967218
 10
126.01991075136016
 20
-247.1801155974894
 10
125.60828053357642
 20
-247.45426384615877
 10
125.1961340386467
 20
-247.7276353245051
 10
124.78347281482333
 20
-248.0002291850851
 10
124.37029840592024
 20
-248.27204457524468
 10
123.95661235045007
 20
-248.54308063564517
 10
123.5424161882506
 20
-248.81333651025906
 10
123.1277114687898
 20
-249.08281135920242
 10
122.71249973345537
 20
-249.3515043316048
 10
122.2967825220879
 20
-249.6194145754919
 10
121.88056136490839
 20
-249.88654122511892
 10
121.46383781267829
 20
-250.15288344792387
 10
121.0466134045502
 20
-250.41844039456763
 10
120.62888967914887
 20
-250.68321121605553
 10
120.21066816537054
 20
-250.94719504909466
 10
119.79195040748463
 20
-251.21039105577276
 10
119.37273794523196
 20
-251.4727983921867
 10
118.95303231525341
 20
-251.73441621057256
 10
118.53283504812397
 20
-251.99524365439248
 10
118.11214767914129
 20
-252.25527987559994
 10
117.69097174970167
 20
-252.51452403701657
 10
117.26930879467335
 20
-252.7729752918801
 10
116.84716034641097
 20
-253.0306327901885
 10
116.42452788159217
 20
-253.28749559102286
 10
116.00141271643128
 20
-253.54356248795483
 10
115.57781612011057
 20
-253.79883219279688
 10
115.15373936385375
 20
-254.05330341586028
 10
114.7291837108526
 20
-254.30697484901756
 10
114.3041504453724
 20
-254.5598452143223
 10
113.8786408462435
 20
-254.81191321980725
 10
113.45265619316253
 20
-255.0631775698736
 10
113.02619776135926
 20
-255.3136369561032
 10
112.59926683704893
 20
-255.56329008345097
 10
112.17186471123152
 20
-255.81213565985178
 10
111.7439926725682
 20
-256.0601723839624
 10
111.31565200876095
 20
-256.3073989473397
 10
110.88684400858797
 20
-256.5538140378243
 10
110.45756997564865
 20
-256.799416363527
 10
110.02783120806248
 20
-257.04420461754415
 10
109.59762900639038
 20
-257.28817749161345
 10
109.16696466272923
 20
-257.5313336567134
 10
108.7358394935648
 20
-257.7736718211666
 10
108.30425480701852
 20
-258.0151906728028
 10
107.8722119137259
 20
-258.25588889805863
 10
107.4397121193694
 20
-258.4957651684373
 10
107.00675675628837
 20
-258.73481819752857
 10
106.57334741006441
 20
-258.9730471542296
 10
106.1394858994142
 20
-259.210451633697
 10
105.70517404551524
 20
-259.447031241754
 10
105.27041366896265
 20
-259.68278558942166
 10
104.83520659644283
 20
-259.91771430535124
 10
104.39955464554369
 20
-260.1518170078179
 10
103.96345963026079
 20
-260.3850933147198
 10
103.52692335451883
 20
-260.61754283129784
 10
103.08994763769797
 20
-260.8491651980405
 10
102.65253428703585
 20
-261.0799600389894
 10
102.2146851071952
 20
-261.30992697954235
 10
101.77640189205003
 20
-261.539065630664
 10
101.33768644733033
 20
-261.767375632086
 10
100.89854057210908
 20
-261.9948566170839
 10
100.45896606080616
 20
-262.22150821614173
 10
100.018964700216
 20
-262.44733005101097
 10
99.57853827975491
 20
-262.6723217545363
 10
99.13768859131379
 20
-262.89648297055294
 10
98.69641741917503
 20
-263.11981333409994
 10
98.25472654305527
 20
-263.3423124771951
 10
97.81261773638867
 20
-263.5639800252591
 10
97.37009278389162
 20
-263.78481563216707
 10
96.92715340677755
 20
-264.0048188300535
 10
96.48380111387945
 20
-264.22398872586956
 10
96.04003735355131
 20
-264.4423243020617
 10
95.5958635923936
 20
-264.659824574846
 10
95.1512812911217
 20
-264.8764885453526
 10
94.70629191088402
 20
-265.09231521229293
 10
94.26089690828313
 20
-265.3073035615317
 10
93.81509774938732
 20
-265.5214525949857
 10
93.36889590321049
 20
-265.73476131731746
 10
92.92229283642374
 20
-265.9472287248242
 10
92.47529001417517
 20
-266.15885380694465
 10
92.02788890250699
 20
-266.3696355512004
 10
91.5800909790318
 20
-266.57957296595134
 10
91.13189771631075
 20
-266.7886650451636
 10
90.68331058833029
 20
-266.9969107820085
 10
90.23433106162837
 20
-267.20430914955375
 10
89.78496062270952
 20
-267.41085916002754
 10
89.33520075039587
 20
-267.6165598051629
 10
88.88505292513219
 20
-267.82141007615144
 10
88.43451862248358
 20
-268.0254089492021
 10
87.9835993301432
 20
-268.2285554229792
 10
87.53229653622763
 20
-268.4308484929634
 10
87.08061173003235
 20
-268.6322871530364
 10
86.62854643752284
 20
-268.83287047540335
 10
86.17610222170208
 20
-269.03259761288916
 10
85.72328065420703
 20
-269.2314677359852
 10
85.27008330199071
 20
-269.4294800027091
 10
84.81651173163375
 20
-269.6266335681862
 10
84.36256750468
 20
-269.82292757371516
 10
83.90825219804289
 20
-270.01836119393647
 10
83.45356738148585
 20
-270.2129335849
 10
82.99851462552938
 20
-270.4066439021622
 10
82.54309549430762
 20
-270.59949128381714
 10
82.08731156561547
 20
-270.7914748977128
 10
81.63116441392862
 20
-270.98259390157335
 10
81.17465561302024
 20
-271.17284744898075
 10
80.71778673300786
 20
-271.3622346820816
 10
80.26055934997278
 20
-271.55075475463093
 10
79.80297504441238
 20
-271.7384068284831
 10
79.3450353937087
 20
-271.9251900552567
 10
78.88674197424113
 20
-272.1111035812351
 10
78.42809636089626
 20
-272.29614654596344
 10
77.9691001404703
 20
-272.4803181155138
 10
77.50975489431386
 20
-272.66361743956725
 10
77.05006220482576
 20
-272.84604366732646
 10
76.59002368212334
 20
-273.0275960151195
 10
76.12964112901658
 20
-273.20827418819323
 10
75.66891639670393
 20
-273.38807802170436
 10
75.20785133321831
 20
-273.56700735085826
 10
74.74644777882061
 20
-273.74506199885144
 10
74.28470757850013
 20
-273.92224180910995
 10
73.82263257526216
 20
-274.0985466281367
 10
73.3602246065451
 20
-274.2739762960385
 10
72.8974855045124
 20
-274.4485306470245
 10
72.4344170988576
 20
-274.62220951665665
 10
71.97102122439475
 20
-274.79501276220583
 10
71.50729970810389
 20
-274.9669402281588
 10
71.04325437407792
 20
-275.13799175921054
 10
70.57888703708096
 20
-275.3081671825583
 10
70.11419952377278
 20
-275.47746636572435
 10
69.64919365082594
 20
-275.64588915706645
 10
69.18387123236216
 20
-275.8134354058322
 10
68.71823407442626
 20
-275.9801049466196
 10
68.2522839897469
 20
-276.1458976404534
 10
67.78602278679827
 20
-276.310813344478
 10
67.31945226960312
 20
-276.4748519111948
 10
66.85257423644106
 20
-276.6380131845235
 10
66.38539048249712
 20
-276.80029700710776
 10
65.9179026916587
 20
-276.9617029066052
 10
65.45011240004933
 20
-277.122229982189
 10
64.98202113541682
 20
-277.2818773023795
 10
64.51363042361045
 20
-277.4406439232442
 10
64.04494180360157
 20
-277.598528932702
 10
63.57595681031346
 20
-277.75553140002864
 10
63.10667698075725
 20
-277.91165039373516
 10
62.63710384813256
 20
-278.06688496359914
 10
62.16723895866652
 20
-278.22123419145123
 10
61.69708385682678
 20
-278.3746971467196
 10
61.22664008823439
 20
-278.52727289499296
 10
60.75590919696406
 20
-278.6789604894517
 10
60.284892733868276
 20
-278.8297589965086
 10
59.813592254354596
 20
-278.97966748918657
 10
59.3420093130609
 20
-279.1286850303865
 10
58.870145465263484
 20
-279.2768106770119
 10
58.39800226700592
 20
-279.4240434801362
 10
57.92558128496169
 20
-279.57038251670787
 10
57.45288408318975
 20
-279.7158268471928
 10
56.97991222816738
 20
-279.86037553148975
 10
56.5066672826614
 20
-280.00402760860743
 10
56.03315082396945
 20
-280.1467821566062
 10
55.55936445761433
 20
-280.2886383396336
 10
55.085309926020535
 20
-280.4295957755179
 10
54.61098900334169
 20
-280.56965419193415
 10
54.13640346839627
 20
-280.7088133373489
 10
53.661555098864966
 20
-280.84707296167875
 10
53.18644566883238
 20
-280.98443280771863
 10
52.71107694886418
 20
-281.1208926110707
 10
52.235450708570745
 20
-281.2564521088317
 10
51.75956872201169
 20
-281.39111105872587
 10
51.28343275792132
 20
-281.52486920485666
 10
50.807044583414246
 20
-281.65772629044983
 10
50.33040595935702
 20
-281.78968204096776
 10
49.85351865632993
 20
-281.92073622164594
 10
49.37638443796906
 20
-282.05088857761547
 10
48.8990050666768
 20
-282.18013885422147
 10
48.42138229927438
 20
-282.3084867807044
 10
47.94351789878285
 20
-282.43593211385104
 10
47.46541362541207
 20
-282.56247460478124
 10
46.987071236793156
 20
-282.68811399953506
 10
46.50849248683394
 20
-282.8128500343763
 10
46.02967913049264
 20
-282.9366824538584
 10
45.55063292504386
 20
-283.0596110160161
 10
45.0713556236142
 20
-283.18163546731836
 10
44.591848977300465
 20
-283.30275555054254
 10
44.11211473335719
 20
-283.422970997277
 10
43.63215464630438
 20
-283.5422815722491
 10
43.151970465139684
 20
-283.6606870225059
 10
42.67156393794085
 20
-283.7781870954939
 10
42.19093680739813
 20
-283.89478152049713
 10
41.710090823619986
 20
-284.0104700612254
 10
41.229027732752336
 20
-284.1252524692807
 10
40.74774927934354
 20
-284.23912849357737
 10
40.26625720428429
 20
-284.3520978713298
 10
39.78455325108919
 20
-284.4641603545643
 10
39.30263916407492
 20
-284.5753157027333
 10
38.820516684504135
 20
-284.6855636660191
 10
38.33818755161335
 20
-284.7949039893762
 10
37.855653502776185
 20
-284.90333641293387
 10
37.37291628062719
 20
-285.0108607038169
 10
36.889977623396746
 20
-285.1174766132868
 10
36.406839268597246
 20
-285.22318389284703
 10
35.92350294857593
 20
-285.327982273555
 10
35.43997040378559
 20
-285.43187152703274
 10
34.95624336989879
 20
-285.5348514064426
 10
34.47232358164109
 20
-285.63692166378837
 10
33.988212744512985
 20
-285.73808191413195
 10
33.503912506072425
 20
-285.8383314919669
 10
33.01942450638864
 20
-285.93766968658264
 10
32.53475038596958
 20
-286.03609577910504
 10
32.04989178579541
 20
-286.1336090421962
 10
31.564850349282363
 20
-286.2302087494599
 10
31.079627725942423
 20
-286.3258941940649
 10
30.59422556457004
 20
-286.4206646545834
 10
30.108645515838802
 20
-286.5145194076584
 10
29.622889229184437
 20
-286.607457711463
 10
29.13695836386163
 20
-286.6994788633355
 10
28.650854577346568
 20
-286.7905821395509
 10
28.164579529346923
 20
-286.8807668158526
 10
27.67813487877498
 20
-286.9700321507569
 10
27.191522292042425
 20
-287.05837743045976
 10
26.70474343665872
 20
-287.145801934431
 10
26.217799981499024
 20
-287.2323049364635
 10
25.730693596021695
 20
-287.31788569978266
 10
25.243425953585014
 20
-287.4025434955566
 10
24.75599873228624
 20
-287.48627760816277
 10
24.268413610552155
 20
-287.5690873097405
 10
23.78067226868186
 20
-287.6509718686238
 10
23.292776405184444
 20
-287.7319306477959
 10
22.804727854338374
 20
-287.81196382638956
 10
22.31652850135253
 20
-287.8910719140254
 10
21.82818022722464
 20
-287.96925542300744
 10
21.339684905553167
 20
-288.04651484801263
 10
20.8510444109183
 20
-288.1228507187779
 10
20.362260611494364
 20
-288.19826355391746
 10
19.87333537050509
 20
-288.2727538696427
 10
19.384270544985505
 20
-288.34632217110936
 10
18.89506798970939
 20
-288.41896897811864
 10
18.405729556239493
 20
-288.4906948193604
 10
17.916257090256124
 20
-288.56150021422303
 10
17.42665243235053
 20
-288.63138567754015
 10
16.936917417956806
 20
-288.7003517186035
 10
16.44705388215666
 20
-288.76839887539313
 10
15.957063653336533
 20
-288.8355276697642
 10
15.466948555599346
 20
-288.9017386240798
 10
14.976710406072359
 20
-288.96703224067136
 10
14.486351022958766
 20
-289.0314090619487
 10
13.99587221779797
 20
-289.09486961290463
 10
13.505275797734416
 20
-289.1574144175096
 10
13.01456356397992
 20
-289.2190439861027
 10
12.5237373092051
 20
-289.2797587929951
 10
12.032798728682629
 20
-289.3395585439025
 10
11.541749450006545
 20
-289.39844237756773
 10
11.050591102053993
 20
-289.4564094121236
 10
10.559325317538008
 20
-289.5134587654399
 10
10.067953735419943
 20
-289.5695895762661
 10
9.576477996732132
 20
-289.6248009683383
 10
9.084899746227906
 20
-289.67909206400316
 10
8.593220630415233
 20
-289.7324619656692
 10
8.101442304193476
 20
-289.78490981662884
 10
7.6095664240029395
 20
-289.83643473864885
 10
7.117594650199364
 20
-289.8870358530891
 10
6.625528645459257
 20
-289.93671226474527
 10
6.133370079148531
 20
-289.98546310457925
 10
5.641120624112897
 20
-290.03328749877903
 10
5.148781956618642
 20
-290.0801845674253
 10
4.656355756094933
 20
-290.1261534209037
 10
4.163843706672188
 20
-290.17119317566346
 10
3.6712474979952194
 20
-290.2153029638367
 10
3.1785688226274895
 20
-290.2584819048029
 10
2.685809377040919
 20
-290.30072911519716
 10
2.1929708607052136
 20
-290.342043697381
 10
1.7000549825154756
 20
-290.38242481682033
 10
1.2070635012744526
 20
-290.42187221550034
 10
0.7139982223769279
 20
-290.4603862216646
 10
0.22086094910774623
 20
-290.4979671705167
 10
-0.27234651554290656
 20
-290.53461542945786
 10
-0.7656223721455098
 20
-290.57033135638073
 10
-1.2589648243304448
 20
-290.6051153052174
 10
-1.7523720792110435
 20
-290.63896761880915
 10
-2.245842345753977
 20
-290.6718886517615
 10
-2.7393738349370302
 20
-290.7038787693681
 10
-3.2329647611620063
 20
-290.73493832609194
 10
-3.7266133417500575
 20
-290.76506767191546
 10
-4.220317797108913
 20
-290.7942671483532
 10
-4.714076348427821
 20
-290.82253712760905
 10
-5.207887220573723
 20
-290.84987796425804
 10
-5.701748640982343
 20
-290.8762900128392
 10
-6.1956588406491
 20
-290.9017736078293
 10
-6.689616051098055
 20
-290.92632912152015
 10
-7.183618507235335
 20
-290.9499569103163
 10
-7.677664446564982
 20
-290.97265732836723
 10
-8.171752109631525
 20
-290.9944307163492
 10
-8.665879738588488
 20
-291.01527743263955
 10
-9.160045577956534
 20
-291.0351978377475
 10
-9.654247878926045
 20
-291.0541921813822
 10
-10.148484900306121
 20
-291.0722605543576
 10
-10.642754902279869
 20
-291.0894030329598
 10
-11.137056145011886
 20
-291.10561971793805
 10
-11.631386890049143
 20
-291.12091069477196
 10
-12.125745399723911
 20
-291.1352760491089
 10
-12.620129937713692
 20
-291.14871584489174
 10
-13.1145387672217
 20
-291.1612301897917
 10
-13.608970152833626
 20
-291.1728191700686
 10
-14.103422359858357
 20
-291.1834828719621
 10
-14.597893654586507
 20
-291.1932213667833
 10
-15.092382303489298
 20
-291.2020347491374
 10
-15.586886573782
 20
-291.20992311258215
 10
-16.081404733472432
 20
-291.2168865438349
 10
-16.57593505129126
 20
-291.2229251214726
 10
-17.07047579649675
 20
-291.2280389269062
 10
-17.56502523875652
 20
-291.23222806089916
 10
-18.059581648497534
 20
-291.2354926105456
 10
-18.554143296714024
 20
-291.23783266158364
 10
-19.048708454967056
 20
-291.2392482821456
 10
-19.543275395197856
 20
-291.2397395801059
 10
-20.03784238996818
 20
-291.2393066397351
 10
-20.53240771207298
 20
-291.2379494653233
 10
-21.02696963384898
 20
-291.2356679594355
 10
-21.521526427201223
 20
-291.23246204833515
 10
-22.01607636353357
 20
-291.22833165224944
 10
-22.510617713679025
 20
-291.2232766859489
 10
-23.0051487477735
 20
-291.2172970542393
 10
-23.499667735403932
 20
-291.210392669431
 10
-23.99417294577433
 20
-291.20256345815534
 10
-24.488662647327942
 20
-291.19380933482836
 10
-24.98313510779995
 20
-291.1841302107103
 10
-25.47758859395356
 20
-291.17352598423054
 10
-25.972021372594423
 20
-291.16199658852844
 10
-26.466431709475078
 20
-291.1495419377649
 10
-26.96081786962826
 20
-291.13616194605373
 10
-27.455178116802635
 20
-291.121856509188
 10
-27.949510714895847
 20
-291.10662555575965
 10
-28.4438139267755
 20
-291.0904690035159
 10
-28.938086014411777
 20
-291.07338676645816
 10
-29.432325238535025
 20
-291.05537874714724
 10
-29.92652985944286
 20
-291.036444860429
 10
-30.420698136989248
 20
-291.01658503088163
 10
-30.91482833163404
 20
-290.9957992158234
 10
-31.408918720623873
 20
-290.9740877681615
 10
-31.902967592214285
 20
-290.951451248845
 10
-32.396973238936226
 20
-290.9278902514033
 10
-32.89093395536113
 20
-290.9034053519864
 10
-33.38484803882985
 20
-290.87799712679873
 10
-33.878713788374085
 20
-290.8516661325331
 10
-34.37252950767276
 20
-290.82441296262306
 10
-34.866293502385325
 20
-290.79623819565694
 10
-35.3600040807387
 20
-290.7671424078073
 10
-35.85365955285088
 20
-290.7371261625472
 10
-36.34725823241861
 20
-290.70619003930767
 10
-36.840798436175405
 20
-290.67433462321975
 10
-37.334278482912815
 20
-290.6415604900388
 10
-37.82769669361196
 20
-290.6078682095782
 10
-38.32105139146376
 20
-290.57325834700805
 10
-38.81434090404834
 20
-290.5377314935718
 10
-39.30756356039326
 20
-290.5012882242399
 10
-39.80071769203229
 20
-290.4639291137309
 10
-40.2938016313553
 20
-290.425654715747
 10
-40.78681371631871
 20
-290.38646562419746
 10
-41.27975228586537
 20
-290.3463624131789
 10
-41.77261566335671
 20
-290.30534544107303
 10
-42.265402128848784
 20
-290.26341454258693
 10
-42.758109956020725
 20
-290.2205694985382
 10
-43.25073741665633
 20
-290.1768100913062
 10
-43.74328277978883
 20
-290.13213609554896
 10
-44.235744311659516
 20
-290.08654727875853
 10
-44.728120276313916
 20
-290.0400434084171
 10
-45.22040893771588
 20
-289.99262427394774
 10
-45.71260855632985
 20
-289.94428965036826
 10
-46.20471739039238
 20
-289.89503931242047
 10
-46.69673369382378
 20
-289.8448730145026
 10
-47.188655722596174
 20
-289.7937905534732
 10
-47.68048172833031
 20
-289.74179170505994
 10
-48.17220996039449
 20
-289.68887624522506
 10
-48.663838664192575
 20
-289.6350439348534
 10
-49.1553660854483
 20
-289.58029455932893
 10
-49.64679046737153
 20
-289.52462790189793
 10
-50.13811005015443
 20
-289.468043739692
 10
-50.629323070661535
 20
-289.4105418417711
 10
-51.12042776375964
 20
-289.352121981046
 10
-51.611422364142626
 20
-289.29278394913945
 10
-52.1023051123214
 20
-289.23252760376334
 10
-52.59307433427081
 20
-289.1713535036549
 10
-53.083728402120755
 20
-289.1092625578632
 10
-53.574265697353304
 20
-289.0462557174921
 10
-54.064684602951004
 20
-288.9823339130022
 10
-54.55498350588563
 20
-288.91749807448866
 10
-55.045160794906685
 20
-288.8517491154527
 10
-55.53521486627412
 20
-288.78508797592974
 10
-56.02514411950753
 20
-288.71751559017423
 10
-56.51494695728767
 20
-288.6490328864767
 10
-57.00462178483732
 20
-288.5796407833227
 10
-57.49416701205414
 20
-288.5093402048988
 10
-57.983581054868246
 20
-288.43813209010403
 10
-58.47286233126371
 20
-288.36601736489155
 10
-58.962009262621685
 20
-288.2929969521246
 10
-59.45102027188127
 20
-288.21907175978265
 10
-59.939893791062396
 20
-288.1442427308108
 10
-60.42862825303671
 20
-288.06851078831465
 10
-60.9172220943318
 20
-287.99187685461027
 10
-61.40567375238601
 20
-287.91434183417306
 10
-61.89398167291484
 20
-287.8359066603595
 10
-62.382144301073346
 20
-287.7565722397281
 10
-62.87016002938043
 20
-287.6763391370657
 10
-63.35802719997283
 20
-287.59520760375057
 10
-63.84574415461058
 20
-287.5131778896844
 10
-64.33330923697417
 20
-287.4302502568951
 10
-64.82072078875557
 20
-287.3464249563689
 10
-65.30797715089814
 20
-287.26170223583773
 10
-65.79507666215
 20
-287.1760823318881
 10
-66.28201766676383
 20
-287.0895655137263
 10
-66.76879850567501
 20
-287.00215203272217
 10
-67.25541751959061
 20
-286.91384214035287
 10
-67.74187304570853
 20
-286.82463607050386
 10
-68.22816342677012
 20
-286.73453408907073
 10
-68.71428700334491
 20
-286.643536451419
 10
-69.20024211506423
 20
-286.5516434095117
 10
-69.68602709918154
 20
-286.4588552046637
 10
-70.17164029470656
 20
-286.36517208948743
 10
-70.6570800422813
 20
-286.2705943267972
 10
-71.14234468021067
 20
-286.1751221691366
 10
-71.62743254565906
 20
-286.0787558653492
 10
-72.1123419734419
 20
-285.9814956548589
 10
-72.59707130751313
 20
-285.88334182469106
 10
-73.08161892282772
 20
-285.7842948145912
 10
-73.5659832153893
 20
-285.68435516355737
 10
-74.0501625787987
 20
-285.58352339357054
 10
-74.53415541462188
 20
-285.4818000595532
 10
-75.01796012307034
 20
-285.37918570421544
 10
-75.50157510479599
 20
-285.27568086701064
 10
-75.98499875907999
 20
-285.1712860760143
 10
-76.4682294888709
 20
-285.06600187151486
 10
-76.95126570004999
 20
-284.95982880222186
 10
-77.43410579736181
 20
-284.852767406694
 10
-77.91674818556274
 20
-284.7448182189636
 10
-78.39919126848808
 20
-284.6359817646757
 10
-78.88143345748269
 20
-284.52625859840873
 10
-79.36347316108093
 20
-284.4156492577406
 10
-79.84530878871738
 20
-284.30415427999213
 10
-80.32693874639192
 20
-284.19177418380525
 10
-80.80836144893134
 20
-284.07850952186936
 10
-81.28957530894888
 20
-283.9643608332559
 10
-81.77057873929027
 20
-283.84932865421536
 10
-82.2513701508077
 20
-283.7334135091593
 10
-82.73194795906461
 20
-283.6166159386762
 10
-83.21231058451164
 20
-283.4989364997237
 10
-83.69245644671541
 20
-283.3803757418211
 10
-84.17238396489775
 20
-283.2609342095618
 10
-84.65209155738256
 20
-283.1406124406671
 10
-85.13157765018865
 20
-283.0194110001785
 10
-85.6108406661148
 20
-282.8973304367845
 10
-86.08987902872177
 20
-282.7743712989583
 10
-86.56869115746318
 20
-282.6505341162694
 10
-87.04727548160446
 20
-282.52581945336544
 10
-87.52563042742347
 20
-282.40022786015595
 10
-88.00375442134634
 20
-282.2737598842261
 10
-88.48164588730793
 20
-282.1464160611121
 10
-88.95930325377937
 20
-282.01819694088346
 10
-89.43672495150858
 20
-281.8891030793465
 10
-89.9139094094942
 20
-281.7591350231671
 10
-90.39085505596698
 20
-281.62829331381545
 10
-90.86756031809932
 20
-281.4965784867674
 10
-91.34402363092413
 20
-281.3639911036975
 10
-91.82024342572116
 20
-281.2305317103325
 10
-92.2962181384879
 20
-281.09620086698567
 10
-92.77194626432392
 20
-280.9609993395008
 10
-93.24742636001601
 20
-280.82492810294934
 10
-93.72265698232465
 20
-280.68798812152
 10
-94.19763669031158
 20
-280.5501803569373
 10
-94.67236404242288
 20
-280.4115057586166
 10
-95.14683760415521
 20
-280.27196529011275
 10
-95.62105594550872
 20
-280.1315599200983
 10
-96.09501763668425
 20
-279.99029060784505
 10
-96.56872124914746
 20
-279.848158307116
 10
-97.04216535526305
 20
-279.7051639651699
 10
-97.51534853798869
 20
-279.5613085547857
 10
-97.98826937828491
 20
-279.4165930324635
 10
-98.4609264597405
 20
-279.2710183539632
 10
-98.93331836285395
 20
-279.12458545595416
 10
-99.40544368143334
 20
-278.97729530907895
 10
-99.87730100742216
 20
-278.82914886871544
 10
-100.34888893469333
 20
-278.68014708747563
 10
-100.8202060559494
 20
-278.5302909055923
 10
-101.29125097093089
 20
-278.37958127692514
 10
-101.7620222787112
 20
-278.2280191446858
 10
-102.23251843464952
 20
-278.0756050005114
 10
-102.70273773108532
 20
-277.92233883568514
 10
-103.17267844707348
 20
-277.76822061031544
 10
-103.64233886713016
 20
-277.61325031098545
 10
-104.11171726780516
 20
-277.4574279097175
 10
-104.58081192265084
 20
-277.3007533793131
 10
-105.04962109601965
 20
-277.143226675034
 10
-105.51814306093219
 20
-276.9848477878827
 10
-105.98637608248652
 20
-276.82561669501115
 10
-106.45431842213712
 20
-276.6655333726702
 10
-106.92196833427742
 20
-276.5045977864213
 10
-107.38932407527041
 20
-276.3428099175545
 10
-107.85638390032902
 20
-276.1801697537787
 10
-108.32314605867245
 20
-276.01667727532765
 10
-108.7896087947223
 20
-275.85233245865686
 10
-109.25577034779467
 20
-275.6871352757734
 10
-109.72162896321758
 20
-275.5210857255406
 10
-110.18718287784705
 20
-275.35418379272176
 10
-110.65243032543081
 20
-275.1864294632999
 10
-111.11736953658657
 20
-275.01782272448304
 10
-111.5819990011542
 20
-274.84836428349473
 10
-112.04631752624339
 20
-274.67805571062627
 10
-112.51032394502268
 20
-274.5068986300216
 10
-112.97401709238268
 20
-274.3348946528181
 10
-113.43739581409295
 20
-274.1620454019939
 10
-113.90045896411485
 20
-273.98835250490725
 10
-114.36320539892934
 20
-273.8138175781943
 10
-114.82563397908103
 20
-273.63844223212413
 10
-115.28774356822466
 20
-273.4622280682929
 10
-115.74953304575128
 20
-273.28517671270464
 10
-116.21100129080489
 20
-273.1072897737766
 10
-116.67214718809319
 20
-272.9285688577637
 10
-117.13296962106865
 20
-272.74901555137086
 10
-117.5934674912726
 20
-272.5686314715276
 10
-118.05363970074649
 20
-272.3874182200531
 10
-118.51348515603718
 20
-272.20537739414306
 10
-118.97300276478396
 20
-272.02251057794535
 10
-119.4321914449091
 20
-271.83881936581395
 10
-119.89105012240346
 20
-271.6543053565629
 10
-120.34957770249886
 20
-271.4689700821618
 10
-120.80777273998153
 20
-271.28281419804375
 10
-121.26563350530846
 20
-271.0958376619935
 10
-121.72315826849287
 20
-270.90804044044745
 10
-122.18034528981967
 20
-270.71942248591154
 10
-122.63719282603103
 20
-270.5299837522674
 10
-123.09369912322116
 20
-270.33972417781985
 10
-123.54986243704842
 20
-270.148643733907
 10
-124.00568101459605
 20
-269.9567423811736
 10
-124.4611530983885
 20
-269.76402007939265
 10
-124.91627692295448
 20
-269.5704767795159
 10
-125.37105072422204
 20
-269.3761124459002
 10
-125.8254727378307
 20
-269.18092705214343
 10
-126.2795411920317
 20
-268.98492056454285
 10
-126.73325430987147
 20
-268.7880929473735
 10
-127.18661030723926
 20
-268.59044415856
 10
-127.63960740842207
 20
-268.39197418534076
 10
-128.0922438273664
 20
-268.19268300118017
 10
-128.5445177744391
 20
-267.9925705814363
 10
-128.99642744908033
 20
-267.7916368869201
 10
-129.44797112297817
 20
-267.5898820501973
 10
-129.89914736093576
 20
-267.38730686432655
 10
-130.34995481744951
 20
-267.1839123195662
 10
-130.80039214430064
 20
-266.9796993955822
 10
-131.25045799954165
 20
-266.77466908139405
 10
-131.70015104710322
 20
-266.56882237432876
 10
-132.14946994828333
 20
-266.36216026137373
 10
-132.59841336451294
 20
-266.1546837254193
 10
-133.04697995441515
 20
-265.9463937390565
 10
-133.49516839150792
 20
-265.73729130269624
 10
-133.94297734351036
 20
-265.5273773998896
 10
-134.3904054796877
 20
-265.3166530133115
 10
-134.83745146329835
 20
-265.1051191088689
 10
-135.28411397258373
 20
-264.8927766801619
 10
-135.73039168284205
 20
-264.67962671042164
 10
-136.17628326930605
 20
-264.4656701787467
 10
-136.62178740410894
 20
-264.2509080539414
 10
-137.0669027651653
 20
-264.0353413130727
 10
-137.51162803658139
 20
-263.81897094213315
 10
-137.95596189918135
 20
-263.60179791652706
 10
-138.39990303204928
 20
-263.38382320445487
 10
-138.8434501072385
 20
-263.1650477563672
 10
-139.28660181214576
 20
-262.9454725504236
 10
-139.72935682775716
 20
-262.7250985482843
 10
-140.1717138364736
 20
-262.5039267111164
 10
-140.61367151440822
 20
-262.28195798432444
 10
-141.0552285525864
 20
-262.0591933398546
 10
-141.49638363930404
 20
-261.83563374088925
 10
-141.93713546242748
 20
-261.6112801465688
 10
-142.37748270664173
 20
-261.386133506737
 10
-142.81742406180015
 20
-261.1601947783861
 10
-143.25695822473128
 20
-260.9334649290154
 10
-143.69608388845765
 20
-260.705944915664
 10
-144.1347997460122
 20
-260.47763569247246
 10
-144.57310448560514
 20
-260.24853820154414
 10
-145.01099681237233
 20
-260.0186534145656
 10
-145.44847542418856
 20
-259.7879822864101
 10
-145.8855390200923
 20
-259.55652577140233
 10
-146.32218629252074
 20
-259.3242848087765
 10
-146.75841593284832
 20
-259.09126033335167
 10
-147.19422646755348
 20
-258.8574529702636
 10
-147.62961632335384
 20
-258.62286316099653
 10
-148.06458391940242
 20
-258.3874913370976
 10
-148.4991276763458
 20
-258.1513379370776
 10
-148.93324601965176
 20
-257.91440341240093
 10
-149.36693736741302
 20
-257.6766882050553
 10
-149.8002001347838
 20
-257.438192755855
 10
-150.23303272809665
 20
-257.1989174938918
 10
-150.66543356890105
 20
-256.958862880047
 10
-151.09740106782115
 20
-256.71802935959045
 10
-151.52893363359883
 20
-256.4764173786739
 10
-151.96002966517946
 20
-256.23402737032075
 10
-152.3906875729292
 20
-255.99085979225976
 10
-152.82090576232773
 20
-255.74691509775658
 10
-153.25068263452172
 20
-255.50219373674014
 10
-153.68001658434684
 20
-255.2566961524655
 10
-154.10890600738637
 20
-255.0104227939852
 10
-154.53734930509444
 20
-254.76337412494607
 10
-154.96534487358116
 20
-254.5155506040157
 10
-155.39289139258497
 20
-254.26695318165875
 10
-155.8199880741685
 20
-254.01758371862397
 10
-156.2466342151617
 20
-253.76744420739172
 10
-156.67282910910194
 20
-253.51653662025583
 10
-157.09857205601
 20
-253.26486292622403
 10
-157.52386235465747
 20
-253.01242507805722
 10
-157.94869932252703
 20
-252.75922504600254
 10
-158.37308228176414
 20
-252.50526479398872
 10
-158.79701055778867
 20
-252.25054627742418
 10
-159.22048347826674
 20
-251.99507144164266
 10
-159.64350037815706
 20
-251.7388422303992
 10
-160.06606060812973
 20
-251.48186059969495
 10
-160.48816351813687
 20
-251.22412849064958
 10
-160.90980846387896
 20
-250.96564784030778
 10
-161.33099479690392
 20
-250.7064205656315
 10
-161.75172189554974
 20
-250.44644861385615
 10
-162.17198913342958
 20
-250.18573391116757
 10
-162.59179588993788
 20
-249.92427837992085
 10
-163.0111415419295
 20
-249.66208392540855
 10
-163.43002512916405
 20
-249.3991519035836
 10
-163.84844479242486
 20
-249.13548223722978
 10
-164.26639852275022
 20
-248.87107462259536
 10
-164.68388430122675
 20
-248.60592875340006
 10
-165.10090010286933
 20
-248.3400443270722
 10
-165.51744390746754
 20
-248.07342106171092
 10
-165.93351368133725
 20
-247.80605866746265
 10
-166.34910738463796
 20
-247.53795685811605
 10
-166.76422296012575
 20
-247.26911533381661
 10
-167.1788583667859
 20
-246.999533833086
 10
-167.59301154643993
 20
-246.72921208114283
 10
-168.00668043473905
 20
-246.45814980702227
 10
-168.41986295382063
 20
-246.18634673248798
 10
-168.83255703041485
 20
-245.9138025996639
 10
-169.24476058599564
 20
-245.64051715593706
 10
-169.65647153191665
 20
-245.36649014669206
 10
-170.0676877701115
 20
-245.09172131651707
 10
-170.478407194901
 20
-244.816210412043
 10
-170.88862770988368
 20
-244.5399572070649
 10
-171.29834772517037
 20
-244.26296223709772
 10
-171.70756686041412
 20
-243.98522782444246
 10
-172.11628490414816
 20
-243.70675652314011
 10
-172.5245016753387
 20
-243.4275509126491
 10
-172.93221699286374
 20
-243.1476135529396
 10
-173.33943068393353
 20
-242.8669469970167
 10
-173.74614257805766
 20
-242.58555378230596
 10
-174.15235252219057
 20
-242.30343645266632
 10
-174.55806037552006
 20
-242.02059755076195
 10
-174.96326600098976
 20
-241.73703960594952
 10
-175.36796926766633
 20
-241.45276513784245
 10
-175.7721700491918
 20
-241.16777665425406
 10
-176.17586824365102
 20
-240.88207667939344
 10
-176.579063748349
 20
-240.59566771807434
 10
-176.98175646896829
 20
-240.3085522688437
 10
-177.38394630914482
 20
-240.0207328095084
 10
-177.7856331998719
 20
-239.7322118383352
 10
-178.18681707298285
 20
-239.44299183690651
 10
-178.58749783366332
 20
-239.15307523244934
 10
-178.9876744301508
 20
-238.86246311815933
 10
-179.3873447356241
 20
-238.57115510929523
 10
-179.78650656344206
 20
-238.27915075303744
 10
-180.18515771407561
 20
-237.98644959362537
 10
-180.58329597856994
 20
-237.6930511772451
 10
-180.98091913509924
 20
-237.39895504748887
 10
-181.37802497237826
 20
-237.10416077703178
 10
-181.77461126202087
 20
-236.80866793021647
 10
-182.17067576847668
 20
-236.51247607661315
 10
-182.56621623880142
 20
-236.2155847774697
 10
-182.96123043120153
 20
-235.9179936238383
 10
-183.3557160908865
 20
-235.61970220430055
 10
-183.74967095386566
 20
-235.32071011015807
 10
-184.14309274319214
 20
-235.0210169306162
 10
-184.53597917994793
 20
-234.72062226731606
 10
-184.92832798571558
 20
-234.41952573747614
 10
-185.32013686845585
 20
-234.11772695545943
 10
-185.7114035278191
 20
-233.81522553984476
 10
-186.10212591706647
 20
-233.51202145069416
 10
-186.4923034492143
 20
-233.20811653331157
 10
-186.88193601231075
 20
-232.903513231536
 10
-187.27102350282425
 20
-232.59821398377355
 10
-187.6595658156955
 20
-232.29222121042554
 10
-188.0475628696011
 20
-231.9855373460665
 10
-188.43501458807842
 20
-231.67816481539174
 10
-188.82192089915736
 20
-231.37010603287382
 10
-189.20828173359408
 20
-231.06136340069182
 10
-189.59409703177835
 20
-230.75193931749135
 10
-189.97936675242812
 20
-230.44183618918007
 10
-190.3640908538212
 20
-230.13105640555193
 10
-190.74826930118155
 20
-229.8196023496098
 10
-191.13190205540025
 20
-229.50747638379957
 10
-191.51498910902836
 20
-229.19468089432
 10
-191.89753044929702
 20
-228.88121824560088
 10
-192.27952607047553
 20
-228.56709079563055
 10
-192.660975965048
 20
-228.25230088534462
 10
-193.0418801101277
 20
-227.93685082247404
 10
-193.42223773792384
 20
-227.6207420044654
 10
-193.80204736329344
 20
-227.30397496349943
 10
-194.1813074663171
 20
-226.98655019454918
 10
-194.56001652440992
 20
-226.66846819424208
 10
-194.93817302598845
 20
-226.3497294770711
 10
-195.31577544845217
 20
-226.03033454916073
 10
-195.69282226691521
 20
-225.71028391873554
 10
-196.06931194154066
 20
-225.38957808130277
 10
-196.44524295503555
 20
-225.06821756372165
 10
-196.82061377614824
 20
-224.746202881237
 10
-197.19542287091372
 20
-224.42353455078128
 10
-197.56966869513272
 20
-224.10021308231967
 10
-197.9433497129846
 20
-223.7762390004596
 10
-198.31646438903962
 20
-223.45161283509572
 10
-198.68901118037158
 20
-223.1263351123576
 10
-199.0609885386576
 20
-222.80040635713362
 10
-199.43239490943662
 20
-222.4738270923116
 10
-199.80322876375615
 20
-222.1465978746821
 10
-200.17348879389735
 20
-221.8187195154308
 10
-200.54317392186312
 20
-221.49019308640362
 10
-200.91228306784296
 20
-221.16101965676734
 10
-201.28081517424764
 20
-220.83120031988878
 10
-201.64876917536807
 20
-220.50073615919888
 10
-202.01614400403793
 20
-220.16962825576033
 10
-202.38293858630948
 20
-219.8378776824483
 10
-202.74915185580184
 20
-219.50548551988837
 10
-203.11478275265364
 20
-219.17245285518842
 10
-203.4798302105593
 20
-218.83878076768238
 10
-203.8442931612762
 20
-218.50447033398723
 10
-204.20817052928464
 20
-218.16952262227227
 10
-204.5714612604096
 20
-217.8339387233553
 10
-204.93416428898712
 20
-217.4977197149629
 10
-205.29627854947867
 20
-217.1608666744405
 10
-205.65780296544713
 20
-216.82338066698168
 10
-206.01873647966596
 20
-216.48526277794593
 10
-206.37907804123208
 20
-216.14651409884053
 10
-206.73882686397292
 20
-215.80713600107444
 10
-207.0979824273116
 20
-215.4671301332432
 10
-207.45654423006224
 20
-215.12649815798923
 10
-207.81451178447693
 20
-214.78524174550526
 10
-208.17188459833545
 20
-214.44336255468562
 10
-208.5286621819591
 20
-214.1008622405892
 10
-208.8848440377449
 20
-213.75774244363265
 10
-209.24042969674204
 20
-213.41400482758849
 10
-209.59541868023317
 20
-213.06965103961974
 10
-209.94981051277915
 20
-212.72468272391475
 10
-210.30360471236781
 20
-212.37910151164039
 10
-210.65680081555828
 20
-212.0329090467549
 10
-211.0093983607439
 20
-211.6861069687649
 10
-211.3613968852086
 20
-211.3386969098035
 10
-211.7127959245921
 20
-210.99068049418818
 10
-212.06359501764797
 20
-210.64205934330505
 10
-212.41379372015913
 20
-210.29283508956098
 10
-212.76339150574827
 20
-209.9430092771707
 10
-213.1123871140386
 20
-209.5925827142769
 10
-213.4607788546292
 20
-209.2415557843317
 10
-213.8085650562163
 20
-208.8899288964165
 10
-214.15574403088576
 20
-208.53770244974703
 10
-214.50231408681074
 20
-208.18487684637157
 10
-214.8482735198146
 20
-207.8314524829664
 10
-215.19362063420678
 20
-207.4774297713005
 10
-215.5383537331667
 20
-207.12280912872941
 10
-215.8824711108345
 20
-206.76759097053312
 10
-216.22597105426294
 20
-206.41177571191787
 10
-216.56885184332606
 20
-206.05536376801956
 10
-216.91111177269758
 20
-205.69835557502367
 10
-217.25274912274546
 20
-205.34075156213245
 10
-217.5937621704398
 20
-204.98255216213568
 10
-217.93414917639382
 20
-204.62375779916732
 10
-218.27390842198753
 20
-204.2643689239809
 10
-218.61303817587213
 20
-203.90438598207342
 10
-218.9515370730922
 20
-203.54380976947277
 10
-219.2894050569629
 20
-203.1826423093586
 10
-219.62664237574194
 20
-202.82088589982345
 10
-219.9632492912429
 20
-202.4585428390387
 10
-220.29922606455847
 20
-202.09561541198568
 10
-220.63457296119387
 20
-201.73210589534418
 10
-220.96929024436704
 20
-201.36801655141352
 10
-221.3033782070114
 20
-201.00334965755806
 10
-221.63683713553567
 20
-200.63810747284774
 10
-221.9696673224806
 20
-200.27229224979706
 10
-222.3018690551061
 20
-199.90590622407393
 10
-222.6334426459202
 20
-199.53895164225634
 10
-222.96438840880467
 20
-199.17143074011463
 10
-223.29470666005255
 20
-198.80334574365114
 10
-223.6243977157544
 20
-198.43469886686213
 10
-223.95346190079448
 20
-198.065492319877
 10
-224.2818995572563
 20
-197.69572831640383
 10
-224.60971094193366
 20
-197.32540898299175
 10
-224.9368950257888
 20
-196.9545353013757
 10
-225.26344973897596
 20
-196.5831073386095
 10
-225.58937300565447
 20
-196.21112516666562
 10
-225.9146627304367
 20
-195.83858885066226
 10
-226.23931681254828
 20
-195.4654984614146
 10
-226.56333313568396
 20
-195.0918540666911
 10
-226.8867095936366
 20
-194.71765575351304
 10
-227.20944407448806
 20
-194.34290361437405
 10
-227.53153445623119
 20
-193.96759774352498
 10
-227.8529786069361
 20
-193.591738237234
 10
-228.17377438829746
 20
-193.21532519690604
 10
-228.4939196732053
 20
-192.83835874403334
 10
-228.8134123189518
 20
-192.4608389973541
 10
-229.13225017774343
 20
-192.08276608189254
 10
-229.4504310823054
 20
-191.70414011691582
 10
-229.76795288811945
 20
-191.32496125149547
 10
-230.08481344322945
 20
-190.94522963897637
 10
-230.40101151202487
 20
-190.56494620468862
 10
-230.71654751198483
 20
-190.1841132463877
 10
-231.03142205164303
 20
-189.8027332076374
 10
-231.34563575163034
 20
-189.42080852827374
 10
-231.65918923268643
 20
-189.03834163457606
 10
-231.97208311961106
 20
-188.6553349426286
 10
-232.2843180369838
 20
-188.27179085493
 10
-232.5958946385157
 20
-187.88771178430832
 10
-232.90681357186486
 20
-187.50310012525364
 10
-233.21707549118577
 20
-187.1179582642399
 10
-233.52668104456964
 20
-186.73228856970442
 10
-233.8356309084678
 20
-186.34609341976088
 10
-234.14392575889556
 20
-185.9593751790242
 10
-234.45156627508294
 20
-185.57213620164424
 10
-234.7585531355029
 20
-185.1843788282599
 10
-235.06488702966845
 20
-184.79610539542907
 10
-235.37056866238936
 20
-184.40731823895032
 10
-235.67559807279454
 20
-184.0180191606303
 10
-235.97997344209526
 20
-183.6282085041072
 10
-236.28369261178838
 20
-183.2378863562476
 10
-236.58675344529516
 20
-182.8470528314475
 10
-236.88915378661474
 20
-182.45570803941112
 10
-237.1908914745224
 20
-182.06385209629113
 10
-237.4919643315098
 20
-181.67148511625754
 10
-237.79237019247904
 20
-181.2786072335842
 10
-238.09210688528708
 20
-180.8852185876527
 10
-238.3911722281875
 20
-180.49131932107383
 10
-238.68956402908094
 20
-180.0969095792206
 10
-238.98728009094387
 20
-179.7019895144214
 10
-239.2843182275329
 20
-179.30655929776762
 10
-239.5806762372229
 20
-178.91061909939194
 10
-239.87635191352518
 20
-178.51416909647543
 10
-240.1713430297141
 20
-178.11720946187341
 10
-240.4656473845399
 20
-177.71974039814802
 10
-240.7592632692257
 20
-177.32176248147388
 10
-241.05219061091677
 20
-176.9232774973198
 10
-241.3444296586978
 20
-176.52428746077388
 10
-241.63598067810517
 20
-176.12479439001154
 10
-241.9268439431825
 20
-175.72480030039705
 10
-242.21701972554956
 20
-175.32430719655238
 10
-242.50650829775708
 20
-174.92331707489765
 10
-242.79530993043505
 20
-174.5218319216718
 10
-243.083424920566
 20
-174.11985373327312
 10
-243.3708535564187
 20
-173.71738449100326
 10
-243.65759613026515
 20
-173.3144261702953
 10
-243.94365292488308
 20
-172.91098073119284
 10
-244.2290242511564
 20
-172.50705014506946
 10
-244.5137104156335
 20
-172.10263637155276
 10
-244.79771172596494
 20
-171.6977413624687
 10
-245.08102848600853
 20
-171.2923670584913
 10
-245.36366100963264
 20
-170.88651539886303
 10
-245.64560934139843
 20
-170.48018812769516
 10
-245.92687252439933
 20
-170.07338629030252
 10
-246.20744938041213
 20
-169.66611078056394
 10
-246.48733871837456
 20
-169.25836248640212
 10
-246.7665393735856
 20
-168.8501423166969
 10
-247.045050165512
 20
-168.44145117226228
 10
-247.32286991235895
 20
-168.03228995591545
 10
-247.59999741936954
 20
-167.6226595645927
 10
-247.87643150938192
 20
-167.2125609100677
 10
-248.1521710013996
 20
-166.80199490436812
 10
-248.42721470867616
 20
-166.3909624585449
 10
-248.701561437623
 20
-165.97946448201648
 10
-248.97520999395164
 20
-165.56750188672484
 10
-249.248159198011
 20
-165.15507559727484
 10
-249.52040785826736
 20
-164.74218653330314
 10
-249.79195478201834
 20
-164.32883561664698
 10
-250.06279876044846
 20
-163.91502376159784
 10
-250.3329387948189
 20
-163.5007520224502
 10
-250.60237425809615
 20
-163.086021696591
 10
-250.87110457337832
 20
-162.6708341127858
 10
-251.13912915451976
 20
-162.25519059240017
 10
-251.406447428713
 20
-161.83909246401655
 10
-251.67305882740482
 20
-161.42254105749245
 10
-251.93896277579168
 20
-161.00553769724544
 10
-252.20415869594478
 20
-160.5880837043337
 10
-252.46864600461242
 20
-160.17018039512655
 10
-252.73242414138386
 20
-159.7518290991115
 10
-252.99549253330196
 20
-159.33303113645994
 10
-253.25785060783167
 20
-158.9137878262997
 10
-253.51949777880625
 20
-158.49410047798358
 10
-253.78043348588454
 20
-158.07397041572924
 10
-254.04065716033264
 20
-157.6533989572104
 10
-254.30016823115736
 20
-157.2323874174428
 10
-254.55896613840505
 20
-156.81093711699373
 10
-254.8170508083361
 20
-156.38904967244684
 10
-255.07442269149303
 20
-155.9667270153817
 10
-255.33108225852547
 20
-155.54397108135055
 10
-255.58702998278014
 20
-155.12078379921584
 10
-255.84226632916403
 20
-154.69716708449673
 10
-256.0967917956537
 20
-154.27312286439783
 10
-256.35060686885913
 20
-153.84865305098725
 10
-256.6037120392233
 20
-153.42375955042826
 10
-256.8561077893184
 20
-152.99844425607492
 10
-257.10779462377485
 20
-152.5727090662876
 10
-257.3587730491091
 20
-152.14655587239324
 10
-257.60904357047013
 20
-151.71998655682853
 10
-257.8586066911931
 20
-151.29300299295934
 10
-258.1074629175458
 20
-150.86560704792566
 10
-258.3556127762835
 20
-150.43780059283714
 10
-258.6030567861012
 20
-150.00958548614307
 10
-258.8497948942905
 20
-149.58096324977743
 10
-259.0958251806107
 20
-149.15193433058667
 10
-259.34114537845045
 20
-148.7224989855599
 10
-259.5857532024267
 20
-148.29265747148708
 10
-259.82964636137217
 20
-147.86241005250488
 10
-260.0728225496783
 20
-147.43175699526532
 10
-260.3152794688274
 20
-147.00069858116822
 10
-260.55701482050193
 20
-146.56923510241762
 10
-260.7980262944774
 20
-146.13736685526194
 10
-261.0383115726307
 20
-145.70509414233757
 10
-261.27786832493086
 20
-145.27241727052507
 10
-261.51669424114516
 20
-144.83933656851966
 10
-261.75478699282377
 20
-144.40585236576197
 10
-261.99214424709845
 20
-143.97196500015963
 10
-262.2287636527389
 20
-143.5376748105408
 10
-262.4646428788063
 20
-143.1029821577836
 10
-262.69977975180626
 20
-142.6678874986032
 10
-262.9341740754583
 20
-142.23239236337722
 10
-263.1678269378271
 20
-141.7964989681935
 10
-263.40073945882006
 20
-141.36020953455574
 10
-263.63291277591463
 20
-140.92352628156036
 10
-263.86434802158357
 20
-140.48645141387235
 10
-264.09504633241016
 20
-140.04898712667338
 10
-264.32500883481754
 20
-139.61113559822954
 10
-264.5542366920802
 20
-139.17289901463565
 10
-264.7827310555679
 20
-138.73427954416272
 10
-265.0104930811417
 20
-138.29527934596848
 10
-265.23752391769756
 20
-137.85590056423078
 10
-265.46382473549255
 20
-137.41614534285927
 10
-265.68939670905405
 20
-136.97601581661436
 10
-265.91424101130525
 20
-136.53551410815922
 10
-266.13835881435097
 20
-136.09464232856408
 10
-266.3617512766595
 20
-135.6534025709178
 10
-266.5844187780629
 20
-135.21179652502587
 10
-266.8063605056988
 20
-134.7698252754659
 10
-267.0275755514886
 20
-134.327489860447
 10
-267.24806299160974
 20
-133.8847913122596
 10
-267.46782193092884
 20
-133.44173067944288
 10
-267.6868514619267
 20
-132.99830900624275
 10
-267.9051506750893
 20
-132.55452733784884
 10
-268.12271865173426
 20
-132.11038671691446
 10
-268.3395544822093
 20
-131.66588819251263
 10
-268.55565726428745
 20
-131.22103281927616
 10
-268.7710260871716
 20
-130.77582164960265
 10
-268.98566003750443
 20
-130.33025573663795
 10
-269.1995581911959
 20
-129.8843361304
 10
-269.4127196515187
 20
-129.43806389604563
 10
-269.6251435065554
 20
-128.9914400934063
 10
-269.83682884037603
 20
-128.54446578243144
 10
-270.047773917909
 20
-128.0971416391703
 10
-270.2579752199363
 20
-127.64946750878664
 10
-270.46742896988707
 20
-127.20144313385643
 10
-270.67613137829034
 20
-126.7530682704429
 10
-270.88407864021065
 20
-126.30434268705298
 10
-271.0912669450082
 20
-125.85526616931186
 10
-271.2976924886486
 20
-125.40583852567856
 10
-271.50335144794093
 20
-124.9560595756441
 10
-271.70823999114174
 20
-124.50592915476184
 10
-271.9123542612096
 20
-124.05544710718465
 10
-272.1156904283583
 20
-123.6046133095973
 10
-272.3182446371792
 20
-123.15342764726302
 10
-272.5200130244653
 20
-122.70189002225936
 10
-272.7209917073928
 20
-122.2500003483345
 10
-272.92117681264244
 20
-121.79775856399289
 10
-273.12056446087956
 20
-121.34516462559394
 10
-273.3191508437776
 20
-120.89221854114261
 10
-273.5169358481856
 20
-120.43892194989634
 10
-273.7139244248554
 20
-119.98527868784802
 10
-273.9101219265432
 20
-119.53129273014125
 10
-274.1055337067671
 20
-119.076968015277
 10
-274.30016513334374
 20
-118.62230845131687
 10
-274.49402157242326
 20
-118.16731790938296
 10
-274.6871084326657
 20
-117.71200024278282
 10
-274.8794311249208
 20
-117.25635927002845
 10
-275.0709950704169
 20
-116.80039877866153
 10
-275.2618056943501
 20
-116.34412252289144
 10
-275.45186844212475
 20
-115.88753423070482
 10
-275.64118878038323
 20
-115.43063760450183
 10
-275.82977217809935
 20
-114.97343631351477
 10
-276.0176241134667
 20
-114.51593399700599
 10
-276.20475006425494
 20
-114.05813426064105
 10
-276.3911555456759
 20
-113.6000406922532
 10
-276.57684396012115
 20
-113.14165599172837
 10
-276.7618123635586
 20
-112.68298027822664
 10
-276.94605660182435
 20
-112.22401319816714
 10
-277.1295725339025
 20
-111.76475442355257
 10
-277.3123560079831
 20
-111.30520364239273
 10
-277.4944028606183
 20
-110.84536055852095
 10
-277.6757089150838
 20
-110.38522489110403
 10
-277.85626998870504
 20
-109.92479637768027
 10
-278.03608190823775
 20
-109.46407478025468
 10
-278.2151404825201
 20
-109.0030598746591
 10
-278.393441513741
 20
-108.54175145511878
 10
-278.5709807803643
 20
-108.08014932780851
 10
-278.7477540879879
 20
-107.61825333054438
 10
-278.9237572202375
 20
-107.15606331392384
 10
-279.0989859539318
 20
-106.6935791473102
 10
-279.27343614064284
 20
-106.23080074964155
 10
-279.4471061611163
 20
-105.76772900881818
 10
-279.6199971861989
 20
-105.3043658608789
 10
-279.7921105259904
 20
-104.84071328409827
 10
-279.96344749086484
 20
-104.37677324656188
 10
-280.13400938584005
 20
-103.9125477041729
 10
-280.3037975459639
 20
-103.44803861366991
 10
-280.472813294437
 20
-102.98324791721852
 10
-280.641057957519
 20
-102.518177547971
 10
-280.8085328502808
 20
-102.05282942498832
 10
-280.97523931524773
 20
-101.58720546720814
 10
-281.1411786911722
 20
-101.12130758215825
 10
-281.30635231570983
 20
-100.65513766700559
 10
-281.47076152187446
 20
-100.18869760737803
 10
-281.63440764927736
 20
-99.72198928140209
 10
-281.79729205385473
 20
-99.25501456309043
 10
-281.95941599125996
 20
-98.78777528186818
 10
-282.1207793571492
 20
-98.32027278875552
 10
-282.2813809907963
 20
-97.85250807003337
 10
-282.441219738165
 20
-97.38448211825592
 10
-282.6002944267502
 20
-96.91619592366759
 10
-282.7586038829021
 20
-96.44765048021237
 10
-282.9161469203122
 20
-95.97884678168943
 10
-283.07292236822053
 20
-95.50978583127352
 10
-283.2289290560875
 20
-95.0404686362962
 10
-283.3841658059466
 20
-94.5708962057294
 10
-283.5386314342071
 20
-94.10106955084545
 10
-283.6923247520582
 20
-93.63098968540831
 10
-283.8452445919845
 20
-93.16065763431763
 10
-283.9973897721352
 20
-92.69007442193727
 10
-284.14875910975803
 20
-92.2192410765359
 10
-284.2993514054588
 20
-91.74815862528055
 10
-284.4491655192698
 20
-91.27682811851685
 10
-284.598200528078
 20
-90.8052506790749
 10
-284.7464556071904
 20
-90.33342746355535
 10
-284.8939299227222
 20
-89.86135962797684
 10
-285.0406226480377
 20
-89.38904833295574
 10
-285.18653296583994
 20
-88.91649474429265
 10
-285.33166004854996
 20
-88.4437000268893
 10
-285.4760030659844
 20
-87.97066534718323
 10
-285.61956117419066
 20
-87.49739186980337
 10
-285.76233355975666
 20
-87.02388077101728
 10
-285.9043193919677
 20
-86.55013322417253
 10
-286.0455178393607
 20
-86.07615040477137
 10
-286.18592805654004
 20
-85.6019334865953
 10
-286.325549218497
 20
-85.12748365190637
 10
-286.46438049685815
 20
-84.65280208434365
 10
-286.6024210573095
 20
-84.17788996821633
 10
-286.7396701580111
 20
-83.7027485169382
 10
-286.8761277661916
 20
-83.22737914936545
 10
-287.01179417711904
 20
-82.75178337616003
 10
-287.1466696759849
 20
-82.27596270148803
 10
-287.28075454897424
 20
-81.79991862624199
 10
-287.41404906572166
 20
-81.32365264316016
 10
-287.546553530872
 20
-80.84716625129191
 10
-287.6782682343643
 20
-80.37046094201284
 10
-287.80919346604736
 20
-79.89353820317908
 10
-287.93932950620393
 20
-79.41639951657292
 10
-288.0686766487075
 20
-78.9390463642665
 10
-288.1972351938759
 20
-78.46148022660496
 10
-288.32500543473327
 20
-77.98370257850777
 10
-288.4519876617122
 20
-77.50571489080153
 10
-288.5781821574595
 20
-77.0275186288982
 10
-288.70358923217617
 20
-76.54911526211653
 10
-288.82820919630933
 20
-76.07050625637953
 10
-288.95204244737823
 20
-75.5916930967054
 10
-289.07508940080896
 20
-75.1126772688806
 10
-289.1973504986118
 20
-74.63346026154512
 10
-289.3188261769294
 20
-74.15404355779349
 10
-289.4395168692156
 20
-73.67442863604536
 10
-289.55942300256606
 20
-73.19461696917719
 10
-289.67854500909453
 20
-72.71461002741421
 10
-289.79688333625455
 20
-72.23440928084696
 10
-289.91443842157446
 20
-71.75401619315761
 10
-290.0312107032005
 20
-71.27343222428286
 10
-290.1472006028635
 20
-70.79265882633374
 10
-290.26240857876377
 20
-70.31169745638528
 10
-290.37683507196755
 20
-69.83054956347907
 10
-290.49048052434296
 20
-69.34921659301334
 10
-290.60334536369857
 20
-68.86769998328607
 10
-290.71542967107604
 20
-68.38600108830514
 10
-290.82673284548514
 20
-67.90412110252547
 10
-290.93725420313797
 20
-67.42206120294865
 10
-291.0469930553954
 20
-66.93982256748399
 10
-291.1559487080807
 20
-66.45740637484361
 10
-291.26412048997554
 20
-65.97481381096178
 10
-291.3715077155763
 20
-65.49204606055252
 10
-291.4781096989834
 20
-65.0091043102935
 10
-291.58392573827484
 20
-64.5259897454294
 10
-291.6889551596838
 20
-64.04270355947911
 10
-291.79319727893204
 20
-63.5592469456981
 10
-291.8966514086745
 20
-63.07562109876626
 10
-291.9993168527236
 20
-62.591827213597384
 10
-292.10119292167286
 20
-62.10786648869943
 10
-292.2022789371503
 20
-61.62374012701296
 10
-292.30257422834427
 20
-61.13944933510914
 10
-292.4020782701582
 20
-60.65499535153254
 10
-292.5007905957121
 20
-60.1703794280446
 10
-292.59871077125086
 20
-59.68560282412975
 10
-292.69583834558256
 20
-59.20066679664
 10
-292.7921728672105
 20
-58.715572603337215
 10
-292.88771387161427
 20
-58.23032150041584
 10
-292.98246091358413
 20
-57.744914748902836
 10
-293.0764135465636
 20
-57.25935361052638
 10
-293.1695713178911
 20
-56.773639346825654
 10
-293.26193376908054
 20
-56.28777321926709
 10
-293.3535004394159
 20
-55.8017564899753
 10
-293.44427088845737
 20
-55.31559042594631
 10
-293.5342446624725
 20
-54.82927629270048
 10
-293.62342130747584
 20
-54.34281535678852
 10
-293.7118003534024
 20
-53.856208882935405
 10
-293.7993816300433
 20
-53.36945819090688
 10
-293.88616556721706
 20
-52.88256470711705
 10
-293.97215267938714
 20
-52.39552986959907
 10
-294.0573434722184
 20
-51.90835511107971
 10
-294.14173846261656
 20
-51.42104186252724
 10
-294.22533817645393
 20
-50.9335915526886
 10
-294.3081431314384
 20
-50.446005605139085
 10
-294.3901538436003
 20
-49.95828543945251
 10
-294.4713708183709
 20
-49.47043246976404
 10
-294.5517945916916
 20
-48.98244811161068
 10
-294.63142568400195
 20
-48.494333774233425
 10
-294.71026461634625
 20
-48.006090863308
 10
-294.7883118966335
 20
-47.51772077877997
 10
-294.865568055974
 20
-47.029224920703165
 10
-294.94203362181725
 20
-46.54060468488648
 10
-295.01770902800564
 20
-46.05186144906587
 10
-295.09259371057874
 20
-45.562996435123665
 10
-295.1666864878449
 20
-45.0740107730012
 10
-295.23998618505584
 20
-44.584905598572256
 10
-295.31249161458334
 20
-44.09568205067286
 10
-295.3842015878742
 20
-43.606341272959064
 10
-295.4551148974299
 20
-43.11688441133017
 10
-295.52523037037616
 20
-42.62731262172543
 10
-295.5945468161871
 20
-42.13762706248835
 10
-295.66306304297575
 20
-41.64782889679152
 10
-295.730777847239
 20
-41.157919291248774
 10
-295.79769003861907
 20
-40.66789941938488
 10
-295.8637984309768
 20
-40.17777046034103
 10
-295.92910182969547
 20
-39.687533597168425
 10
-295.99359903600424
 20
-39.197190017479436
 10
-296.0572888441457
 20
-38.70674091312415
 10
-296.1201707075086
 20
-38.216187565406116
 10
-296.18224563738875
 20
-37.72553145470158
 10
-296.24351488661154
 20
-37.234774085738806
 10
-296.3039796942876
 20
-36.74391695446773
 10
-296.363641326788
 20
-36.252961553152616
 10
-296.42250104422243
 20
-35.76190936618486
 10
-296.4805601039183
 20
-35.27076187057418
 10
-296.5378197566226
 20
-34.77952053556103
 10
-296.5942812580653
 20
-34.28818682402253
 10
-296.64994587941896
 20
-33.796762193633356
 10
-296.70481488155514
 20
-33.305248093918706
 10
-296.7588895257593
 20
-32.81364596753581
 10
-296.81217105647073
 20
-32.32195724844368
 10
-296.8646607548453
 20
-31.830183367741114
 10
-296.9163598843712
 20
-31.338325747725108
 10
-296.9672695326904
 20
-30.846385785769872
 10
-297.01738882455595
 20
-30.354364673624485
 10
-297.06671568661824
 20
-29.86226348623992
 10
-297.1152480277475
 20
-29.370083306282126
 10
-297.1629837486862
 20
-28.87782522522736
 10
-297.2099207442418
 20
-28.385490343662376
 10
-297.2560569032223
 20
-27.893079771352074
 10
-297.3013901367854
 20
-27.400594629901036
 10
-297.34591834101195
 20
-26.90803604924735
 10
-297.38963941100343
 20
-26.415405169050572
 10
-297.43255122464143
 20
-25.922703137326227
 10
-297.4746516889025
 20
-25.429931114535293
 10
-297.5159386990312
 20
-24.93709026998508
 10
-297.5564101469848
 20
-24.44418178264169
 10
-297.59606391515695
 20
-23.951206840688513
 10
-297.63489789460334
 20
-23.458166643051403
 10
-297.67291102764364
 20
-22.965062479349836
 10
-297.7101051221877
 20
-22.471895860237762
 10
-297.74648247874774
 20
-21.978668323352682
 10
-297.78204538452485
 20
-21.48538139338998
 10
-297.8167961616765
 20
-20.992036585628757
 10
-297.85073711588126
 20
-20.49863540219881
 10
-297.88387055385743
 20
-20.005179333434228
 10
-297.9161987704486
 20
-19.511669857081174
 10
-297.94772408111317
 20
-19.018108440495265
 10
-297.97844880104117
 20
-18.524496539244126
 10
-298.0083752401114
 20
-18.030835596857344
 10
-298.0375057032484
 20
-17.537127044941492
 10
-298.0658424938447
 20
-17.04337230346524
 10
-298.0933879362267
 20
-16.54957278205513
 10
-298.12014434189643
 20
-16.05572987807495
 10
-298.1461138348382
 20
-15.561844967685438
 10
-298.17129594554183
 20
-15.067919284713122
 10
-298.1956883644222
 20
-14.573953973594582
 10
-298.21928872528605
 20
-14.079950186819872
 10
-298.2420946594602
 20
-13.585909087876383
 10
-298.2641037876013
 20
-13.09183185094532
 10
-298.2853137405286
 20
-12.597719661904666
 10
-298.3057221562194
 20
-12.10357371816288
 10
-298.32532666334504
 20
-11.609395228000402
 10
-298.3441248874909
 20
-11.115185410916895
 10
-298.3621144428866
 20
-10.620945497398125
 10
-298.3792929733374
 20
-10.12667673044247
 10
-298.39565810629824
 20
-9.632380363873473
 10
-298.41120746915414
 20
-9.138057663014353
 10
-298.4259386750235
 20
-8.643709904319016
 10
-298.4398493626833
 20
-8.149338376621012
 10
-298.4529382185099
 20
-7.654944407669864
 10
-298.46520672466704
 20
-7.16052940110866
 10
-298.47665681809343
 20
-6.666094763778477
 10
-298.48729043739996
 20
-6.171641892780248
 10
-298.4971095395323
 20
-5.677172175817618
 10
-298.50611606941624
 20
-5.182686990552068
 10
-298.51431197223565
 20
-4.688187704932044
 10
-298.5216991752266
 20
-4.193675676970113
 10
-298.52827964134116
 20
-3.6991522555940755
 10
-298.534055316779
 20
-3.204618779822947
 10
-298.53902814696085
 20
-2.7100765790827603
 10
-298.54320006642666
 20
-2.215526973173071
 10
-298.5465730231333
 20
-1.7209712725327355
 10
-298.54914896981916
 20
-1.2264107781267446
 10
-298.5509298509106
 20
-0.7318467814065657
 10
-298.551917476189
 20
-0.2372805642243539
 10
-298.55211181467115
 20
0.25728660072650533
 10
-298.5515115112687
 20
0.751853439342424
 10
-298.5501151643344
 20
1.2464186708853402
 10
-298.5479213721282
 20
1.740981007837983
 10
-298.5449287178296
 20
2.235539155774676
 10
-298.54113581100984
 20
2.7300918135712493
 10
-298.53654125362334
 20
3.2246376732511384
 10
-298.5311436441067
 20
3.7191754199504063
 10
-298.5249415732738
 20
4.213703731810195
 10
-298.51793363674636
 20
4.708221280078493
 10
-298.51011844466973
 20
5.202726729285729
 10
-298.5014945965617
 20
5.697218736882204
 10
-298.4920606919178
 20
6.191695953335543
 10
-298.48181531304965
 20
6.686157021739069
 10
-298.47075708082286
 20
7.180600578936371
 10
-298.45888517408173
 20
7.675025268438983
 10
-298.4462002230162
 20
8.169429766692842
 10
-298.432703070781
 20
8.663812758787227
 10
-298.418394577374
 20
9.158172934279419
 10
-298.4032756045537
 20
9.652508986841987
 10
-298.3873470068752
 20
10.146819613969354
 10
-298.37060963404747
 20
10.641103516986595
 10
-298.3530643304155
 20
11.135359400976144
 10
-298.3347119639723
 20
11.629585975823721
 10
-298.31555338806294
 20
12.123781954881924
 10
-298.2955894556518
 20
12.617946055425225
 10
-298.2748210032241
 20
13.112076997944618
 10
-298.2532488962896
 20
13.606173508025508
 10
-298.2308739891968
 20
14.10023431471646
 10
-298.2076971330818
 20
14.59425815080734
 10
-298.18371914876656
 20
15.088243751459611
 10
-298.15894061578604
 20
15.58218984339016
 10
-298.133361962978
 20
16.07609514807125
 10
-298.10698360674746
 20
16.569958388091216
 10
-298.0798059624083
 20
17.06377828767239
 10
-298.0518294311175
 20
17.55755357190205
 10
-298.0230544474016
 20
18.05128296941647
 10
-297.993481428795
 20
18.54496520960017
 10
-297.96311079308106
 20
19.03859902351435
 10
-297.9319429455868
 20
19.53218314307682
 10
-297.89997831134997
 20
20.025716303055596
 10
-297.867217314732
 20
20.51919723985257
 10
-297.83366037438003
 20
21.01262469113935
 10
-297.79930790366933
 20
21.50599739583176
 10
-297.7641603139385
 20
21.999314094268822
 10
-297.7282180306501
 20
22.49257352937864
 10
-297.6914804894856
 20
22.98577437169093
 10
-297.65394514179025
 20
23.47891513768316
 10
-297.61560918109285
 20
23.9719943109806
 10
-297.57646983357364
 20
24.465010363559546
 10
-297.53652431198174
 20
24.957961752173176
 10
-297.49576982778865
 20
25.450846919185945
 10
-297.45420358282246
 20
25.94366429178103
 10
-297.4118227907879
 20
26.43641228367647
 10
-297.3686246738847
 20
26.92908929485493
 10
-297.3246064462779
 20
27.421693710068332
 10
-297.279765320274
 20
27.91422389926827
 10
-297.2340984984356
 20
28.40667821677723
 10
-297.1876032146288
 20
28.89905500504038
 10
-297.1402766876825
 20
29.39135259032326
 10
-297.0921161379135
 20
29.883569284140588
 10
-297.0431189537911
 20
30.375703399886397
 10
-296.9932867931535
 20
30.86775367009613
 10
-296.9426255938281
 20
31.359719274952415
 10
-296.89114147687513
 20
31.851599443299392
 10
-296.83884055481326
 20
32.34339343339175
 10
-296.7857289393101
 20
32.835100533453456
 10
-296.73181275736374
 20
33.326720063254065
 10
-296.67709812105346
 20
33.81825137063492
 10
-296.6215911396355
 20
34.30969383255884
 10
-296.56529790188796
 20
34.801046852843825
 10
-296.50822452770933
 20
35.29230986783347
 10
-296.45037711740764
 20
35.783482340429245
 10
-296.3917617668635
 20
36.27456376155206
 10
-296.33238455801154
 20
36.76555364875005
 10
-296.272251581672
 20
37.25645154869788
 10
-296.21136891670244
 20
37.74725703447023
 10
-296.1497393222899
 20
38.23796928881334
 10
-296.0873578343718
 20
38.72858652521082
 10
-296.02421838439335
 20
39.219106791604695
 10
-295.9603149318202
 20
39.70952811029518
 10
-295.89564142493253
 20
40.19984847268456
 10
-295.8301918152708
 20
40.690065840849414
 10
-295.76396004297914
 20
41.180178145297944
 10
-295.6969400780662
 20
41.67018329026893
 10
-295.6291258868888
 20
42.16007914902793
 10
-295.5605114366654
 20
42.64986356418878
 10
-295.4910906913496
 20
43.13953434684451
 10
-295.42085762433464
 20
43.62908927808622
 10
-295.34980622855016
 20
44.118526110263524
 10
-295.2779304914894
 20
44.607842563171396
 10
-295.2052244061873
 20
45.0970363253498
 10
-295.13168294297174
 20
45.58610520044599
 10
-295.0573074846374
 20
46.07504794055567
 10
-294.9821019169546
 20
46.5638636880693
 10
-294.9060701294846
 20
47.05255160509366
 10
-294.8292159973021
 20
47.54111087052274
 10
-294.7515434091993
 20
48.029540684349286
 10
-294.67305625364276
 20
48.5178402654422
 10
-294.59375840870837
 20
49.006008849828795
 10
-294.5136537448943
 20
49.49404569100003
 10
-294.4327461237606
 20
49.98195005954755
 10
-294.35103942782933
 20
50.469721248055244
 10
-294.2685375215339
 20
50.95735856456475
 10
-294.18524426558184
 20
51.444861334822164
 10
-294.10116350119216
 20
51.93222889944683
 10
-294.01629909437725
 20
52.41946062145038
 10
-293.93065489450123
 20
52.906555879053776
 10
-293.844233518481
 20
53.39351384929495
 10
-293.75703430514596
 20
53.88033313406415
 10
-293.6690560631685
 20
54.36701223529471
 10
-293.5802976131954
 20
54.85354965009397
 10
-293.4907577676889
 20
55.3399438670809
 10
-293.40043533901303
 20
55.826193367796364
 10
-293.30932912742986
 20
56.31229662440673
 10
-293.21743796669494
 20
56.79825210822595
 10
-293.12476067550153
 20
57.28405828066363
 10
-293.0312960742529
 20
57.76971359630262
 10
-292.9370429723507
 20
58.255216500397495
 10
-292.84200020088207
 20
58.740565435179235
 10
-292.74616659139315
 20
59.2257588357896
 10
-292.64954097174876
 20
59.71079512942035
 10
-292.5521221662588
 20
60.195672735271984
 10
-292.4539090203682
 20
60.68039006950536
 10
-292.3549006701557
 20
61.164945600461536
 10
-292.255096425696
 20
61.64933782650185
 10
-292.15449560133015
 20
62.133565241951565
 10
-292.0530974949247
 20
62.61762633274657
 10
-291.95090143738344
 20
63.101519586766464
 10
-291.84790674648264
 20
63.58524348422606
 10
-291.7441127390757
 20
64.06879650016569
 10
-291.6395187228333
 20
64.55217710262455
 10
-291.53412401720396
 20
65.03538375712368
 10
-291.42792795017107
 20
65.51841492602807
 10
-291.3209298417815
 20
66.00126906492767
 10
-291.2131290102492
 20
66.48394462391475
 10
-291.1045247641574
 20
66.96644004577296
 10
-290.9951164424351
 20
67.44875377497405
 10
-290.88490336902066
 20
67.93088424751016
 10
-290.77388506260627
 20
68.41282993916771
 10
-290.66206251097344
 20
68.8945896626888
 10
-290.5494374104479
 20
69.37616239985334
 10
-290.4360114544722
 20
69.85754713906937
 10
-290.32178633065325
 20
70.33874287463308
 10
-290.2067637182789
 20
70.81974860607188
 10
-290.09094529747733
 20
71.30056334027476
 10
-289.97433276323795
 20
71.7811860949036
 10
-289.85692779733193
 20
72.26161589162884
 10
-289.7387320799433
 20
72.74185175887553
 10
-289.6197472714391
 20
73.22189272726668
 10
-289.49997506670314
 20
73.7017378430504
 10
-289.37941714108746
 20
74.18138615476157
 10
-289.2580751679294
 20
74.66083671748784
 10
-289.1359508077039
 20
75.1400885900756
 10
-289.01304573389376
 20
75.61914084166368
 10
-288.88936131791996
 20
76.09799247026187
 10
-288.7648973765787
 20
76.57664207502013
 10
-288.63965323210647
 20
77.0550881231504
 10
-288.513628201481
 20
77.53332907519246
 10
-288.38682162725047
 20
78.01136339314391
 10
-288.25923283895304
 20
78.48918953031831
 10
-288.130861167372
 20
78.96680593504836
 10
-288.0017059292469
 20
79.44421104651684
 10
-287.8717664703023
 20
79.9214033063566
 10
-287.74104212832117
 20
80.39838114872403
 10
-287.60953223952305
 20
80.87514300196402
 10
-287.4772361333337
 20
81.3516872871093
 10
-287.3441531470991
 20
81.828012421911
 10
-287.2102826317051
 20
82.30411682246557
 10
-287.07562392954634
 20
82.77999889704785
 10
-286.94017638393774
 20
83.25565704869327
 10
-286.80393967137235
 20
83.7310897705083
 10
-286.6669144862754
 20
84.20629584531345
 10
-286.52910167870914
 20
84.68127410273034
 10
-286.3905020982064
 20
85.15602337477391
 10
-286.25111658140503
 20
85.63054249219373
 10
-286.1109459831206
 20
86.1048302935629
 10
-285.96999115720183
 20
86.57888561972649
 10
-285.82825295090583
 20
87.05270731209474
 10
-285.68573220562195
 20
87.52629421279792
 10
-285.54242975963666
 20
87.99964516546527
 10
-285.398346471366
 20
88.47275902228559
 10
-285.2534831855391
 20
88.94563463379298
 10
-285.10784074621574
 20
89.41827085275888
 10
-284.96141998029753
 20
89.89066652905461
 10
-284.81422174524846
 20
90.36282052440842
 10
-284.66624688367943
 20
90.83473169839559
 10
-284.5174957214624
 20
91.30639874982911
 10
-284.3679672375038
 20
91.77781994995226
 10
-284.217660208401
 20
92.24899349781508
 10
-284.06657342059503
 20
92.71991758672357
 10
-283.9147056541378
 20
93.19059039902794
 10
-283.7620556886526
 20
93.66101010794807
 10
-283.6086222959661
 20
94.13117487510318
 10
-283.45440427885336
 20
94.60108286313634
 10
-283.2994004270362
 20
95.07073222138465
 10
-283.14360953284705
 20
95.54012109091308
 10
-282.9870303771102
 20
96.00924759975625
 10
-282.82966176749454
 20
96.47810987566609
 10
-282.6715025088981
 20
96.94670603627611
 10
-282.5125514048823
 20
97.41503418951135
 10
-282.35280725486695
 20
97.88309243255291
 10
-282.19226886420864
 20
98.3508788552079
 10
-282.03093542391906
 20
98.81839167115272
 10
-281.8688082909036
 20
99.28562983849321
 10
-281.7058896194677
 20
99.75259259828819
 10
-281.5421815441507
 20
100.2192791942638
 10
-281.37768623370846
 20
100.685688891707
 10
-281.2124058356843
 20
101.15182095808012
 10
-281.0463424948206
 20
101.6176746693945
 10
-280.8794983417764
 20
102.08324930612694
 10
-280.7118755198309
 20
102.54854416272441
 10
-280.54347617198374
 20
103.01355854303563
 10
-280.3743024311849
 20
103.47829175674264
 10
-280.2043564230126
 20
103.94274312023828
 10
-280.03364026474065
 20
104.40691195621392
 10
-279.86215609365354
 20
104.87079760406918
 10
-279.6899060299704
 20
105.33439940628803
 10
-279.5168921905871
 20
105.79771671341919
 10
-279.34311658901277
 20
106.2607488464162
 10
-279.1685795886625
 20
106.72349451217777
 10
-278.99328000601
 20
107.18595183101239
 10
-278.8172166009202
 20
107.6481188923265
 10
-278.64038812745156
 20
108.10999377354426
 10
-278.4627933508967
 20
108.57157454655425
 10
-278.284431049356
 20
109.03285927836731
 10
-278.1052999949094
 20
109.49384602383311
 10
-277.92539896093507
 20
109.9545328283872
 10
-277.74472671196094
 20
110.41491772400056
 10
-277.563282046159
 20
110.87499874582812
 10
-277.3810637491518
 20
111.33477391411314
 10
-277.19807061016013
 20
111.79424124044405
 10
-277.0143014088912
 20
112.25339872246148
 10
-276.82975495019787
 20
112.7122443576643
 10
-276.6444300395817
 20
113.17077613366374
 10
-276.45832548347516
 20
113.62899202823297
 10
-276.27144087236775
 20
114.08689032919065
 10
-276.0837777862958
 20
114.54447013448889
 10
-275.8953381301488
 20
115.0017306819667
 10
-275.7061237942047
 20
115.45867121153978
 10
-275.51613666609256
 20
115.91529097004383
 10
-275.32537861349954
 20
116.37158920396341
 10
-275.13385153518516
 20
116.82756518071223
 10
-274.9415573112879
 20
117.28321816792435
 10
-274.74849781835286
 20
117.73854743965288
 10
-274.554674919708
 20
118.19355227223127
 10
-274.36009048895824
 20
118.64823195421846
 10
-274.1647464013659
 20
119.1025857827913
 10
-273.9686445216418
 20
119.5566130584756
 10
-273.77178670783053
 20
120.01031308673383
 10
-273.57417480803053
 20
120.46368517646981
 10
-273.3758106917191
 20
120.91672865367936
 10
-273.1766960735879
 20
121.36944278405659
 10
-272.9768311974937
 20
121.821826190181
 10
-272.77621540440987
 20
122.27387709242457
 10
-272.5748480515073
 20
122.72559371116978
 10
-272.3727284899263
 20
123.17697425694733
 10
-272.16985607039373
 20
123.62801693286082
 10
-271.96623013828787
 20
124.07871993229463
 10
-271.76185004802113
 20
124.529081445347
 10
-271.5567151681048
 20
124.97909966118677
 10
-271.35082486023185
 20
125.42877275854417
 10
-271.14417848768136
 20
125.87809890946046
 10
-270.9367754028854
 20
126.327076273495
 10
-270.72861499278537
 20
126.77570301865266
 10
-270.51969663101414
 20
127.22397729934397
 10
-270.310019694343
 20
127.67189726391507
 10
-270.0995835504367
 20
128.11946104885013
 10
-269.88838759116635
 20
128.5666667943867
 10
-269.67643169643327
 20
129.01351286490296
 10
-269.46371688160747
 20
129.45999816106925
 10
-269.250244318551
 20
129.90612166084819
 10
-269.03601517667363
 20
130.35188234449734
 10
-268.821030642833
 20
130.79727920416946
 10
-268.6052918902922
 20
131.2423112290122
 10
-268.38880009090366
 20
131.68697741096878
 10
-268.1715563986643
 20
132.1312767367007
 10
-267.95356199787983
 20
132.57520821110313
 10
-267.7348180572247
 20
133.0187708349222
 10
-267.51532574274114
 20
133.46196361103011
 10
-267.29508620920916
 20
133.90478554010426
 10
-267.07410062176183
 20
134.34723563132096
 10
-266.8523701496357
 20
134.78931289932484
 10
-266.6298959528008
 20
135.23101635752136
 10
-266.40667918647733
 20
135.67234502026878
 10
-266.1827209796582
 20
136.11329789189426
 10
-265.95802215826
 20
136.5538738252355
 10
-265.732583237968
 20
136.99407151557074
 10
-265.50640472418587
 20
137.4338896521317
 10
-265.2794871087654
 20
137.873326916298
 10
-265.0518309086093
 20
138.3123820014839
 10
-264.8234366337308
 20
138.75105359673117
 10
-264.59430479126223
 20
139.18934038870847
 10
-264.3644358813838
 20
139.62724105953376
 10
-264.13383040974867
 20
140.0647542932342
 10
-263.90248889474253
 20
140.50187877964234
 10
-263.67041184540346
 20
140.93861320275516
 10
-263.43759977038997
 20
141.37495624541057
 10
-263.20405316434693
 20
141.81090658195012
 10
-262.96977255418824
 20
142.24646290298463
 10
-262.7347584510433
 20
142.68162388973275
 10
-262.499011366595
 20
143.11638822270064
 10
-262.26253176862707
 20
143.55075455743813
 10
-262.0253199748704
 20
143.9847214661286
 10
-261.7873762499091
 20
144.4182874894943
 10
-261.548700853703
 20
144.8514511630035
 10
-261.3092940421015
 20
145.28421101708093
 10
-261.0691560702304
 20
145.71656557891413
 10
-260.8282872131724
 20
146.1485133839746
 10
-260.5866877350805
 20
146.5800529588879
 10
-260.34435790122035
 20
147.01118282805885
 10
-260.1012979621944
 20
147.44190150474344
 10
-259.85750820007735
 20
147.87220751703305
 10
-259.61298888492075
 20
148.30209938339928
 10
-259.3677402866867
 20
148.73157561935733
 10
-259.12176266722133
 20
149.16063473281798
 10
-258.87505630064413
 20
149.58927523572987
 10
-258.6276214684258
 20
150.01749564133496
 10
-258.37945844642877
 20
150.44529445668573
 10
-258.1305677576965
 20
150.87267032989746
 10
-257.8809505190923
 20
151.29962225483732
 10
-257.63060796082436
 20
151.7261492945562
 10
-257.3795412976722
 20
152.15225050650608
 10
-257.1277517430954
 20
152.57792495072792
 10
-256.8752404958253
 20
153.00317168186336
 10
-256.62200877659717
 20
153.42798977091735
 10
-256.36805779830786
 20
153.85237828762297
 10
-256.1133887689898
 20
154.27633630214
 10
-255.85800288828096
 20
154.69986288287066
 10
-255.60190135869104
 20
155.12295710318693
 10
-255.3450853938171
 20
155.54561804647372
 10
-255.08755619604256
 20
155.96784479262607
 10
-254.8293149655791
 20
156.38963642346542
 10
-254.57036288672685
 20
156.8109920142581
 10
-254.31070117346027
 20
157.23191066169784
 10
-254.05033101081384
 20
157.65239144790328
 10
-253.7892530165969
 20
158.0724331053421
 10
-253.5274669855441
 20
158.49203385228483
 10
-253.26497266911497
 20
158.91119187327533
 10
-253.00176982143805
 20
159.32990534753077
 10
-252.73785819417745
 20
159.74817244566765
 10
-252.47323753703054
 20
160.16599132992044
 10
-252.20790760116418
 20
160.58336015624914
 10
-251.9418681591396
 20
161.0002770870304
 10
-251.67511897509874
 20
161.41674027211445
 10
-251.40765981643858
 20
161.83274785618613
 10
-251.1394904384136
 20
162.24829796878328
 10
-250.87061062935112
 20
162.66338875341967
 10
-250.6010201679457
 20
163.078018340109
 10
-250.33071883517644
 20
163.4921848529712
 10
-250.05970640633828
 20
163.90588640496307
 10
-249.7879826713069
 20
164.3191211110924
 10
-249.51554744420923
 20
164.73188709491401
 10
-249.24240122590717
 20
165.14418292786482
 10
-248.96854548181523
 20
165.5560078202651
 10
-248.69398173963637
 20
165.96736102880544
 10
-248.41871154902412
 20
166.3782418302188
 10
-248.14273644357112
 20
166.78864949596576
 10
-247.8660579544585
 20
167.19858330126436
 10
-247.58867759723546
 20
167.60804251609912
 10
-247.3105969082264
 20
168.01702642984316
 10
-247.03181741446704
 20
168.42553433096325
 10
-246.7523406372633
 20
168.83356550936298
 10
-246.4721680883548
 20
169.24111925367987
 10
-246.1913012818331
 20
169.64819485940797
 10
-245.90974174063626
 20
170.05479163344813
 10
-245.62749097585896
 20
170.4609088798201
 10
-245.34455049496825
 20
170.86654590527243
 10
-245.06092178976584
 20
171.2717020108001
 10
-244.77660637476416
 20
171.67637651847136
 10
-244.49160531720102
 20
172.0805684400875
 10
-244.20591886962885
 20
172.4842762129625
 10
-243.91954718464976
 20
172.88749819914088
 10
-243.63249043459118
 20
173.29023276957193
 10
-243.3447487927653
 20
173.6924782908851
 10
-243.05632242995225
 20
174.09423312281794
 10
-242.7672115141406
 20
174.49549561794524
 10
-242.4774162153519
 20
174.8962641250897
 10
-242.18693672257305
 20
175.29653700160165
 10
-241.8957732164781
 20
175.69631259365144
 10
-241.6039258803099
 20
176.09558924403993
 10
-241.311394884661
 20
176.49436528098292
 10
-241.0181804325468
 20
176.8926390511483
 10
-240.72428271591932
 20
177.29040888782458
 10
-240.4297019286954
 20
177.68767312041436
 10
-240.13443825827693
 20
178.08443006806863
 10
-239.8384919067679
 20
178.48067805542604
 10
-239.54186321475098
 20
178.8764155055976
 10
-239.2445529423528
 20
179.2716411529444
 10
-238.94656193214453
 20
179.66635379301093
 10
-238.6478910208728
 20
180.06055221657962
 10
-238.348541067285
 20
180.4542352307612
 10
-238.04851291761963
 20
180.84740163289976
 10
-237.74780741825026
 20
181.2400502200745
 10
-237.4464254023689
 20
181.63217977884065
 10
-237.14436772746714
 20
182.02378911398148
 10
-236.8416352429118
 20
182.41487702369048
 10
-236.538228795708
 20
182.80544230391448
 10
-236.23414922558067
 20
183.19548374446524
 10
-235.92939737908895
 20
183.5850001399622
 10
-235.6239741121507
 20
183.9739902918905
 10
-235.3178802725725
 20
184.3624529949235
 10
-235.0111167067084
 20
184.75038704206239
 10
-234.70368425050847
 20
185.13779121748337
 10
-234.39558375669702
 20
185.52466431805226
 10
-234.08681592537104
 20
185.91100501809765
 10
-233.77738135470526
 20
186.2968119083932
 10
-233.4672806301252
 20
186.6820835666803
 10
-233.15651435753418
 20
187.06681858434493
 10
-232.8450831406074
 20
187.45101554822733
 10
-232.53298758032736
 20
187.83467304017677
 10
-232.2202282731737
 20
188.21778963549602
 10
-231.906805819079
 20
188.60036390936313
 10
-231.5927208329157
 20
188.98239444630187
 10
-231.27797392128628
 20
189.36387982118006
 10
-230.96256569207713
 20
189.7448186069718
 10
-230.64649673971346
 20
190.1252093624589
 10
-230.3297676906142
 20
190.5050506699714
 10
-230.01237915739372
 20
190.88434109741542
 10
-229.69433175423052
 20
191.26307921096222
 10
-229.3756260869091
 20
191.64126356662453
 10
-229.05626277735487
 20
192.01889273087102
 10
-228.7362425173194
 20
192.39596532642332
 10
-228.4155663206554
 20
192.77248024787227
 10
-228.09423529546626
 20
193.1484364706756
 10
-227.77225054686815
 20
193.5238329689367
 10
-227.4496131970292
 20
193.89866873263003
 10
-227.12632435640967
 20
194.27294274296483
 10
-226.80238513481362
 20
194.6466539817924
 10
-226.47779662740933
 20
195.01980141941203
 10
-226.15255995548043
 20
195.39238404996212
 10
-225.82667622812693
 20
195.76440085821608
 10
-225.5001465525584
 20
196.13585082844068
 10
-225.17297202695937
 20
196.5067329380542
 10
-224.84515375895757
 20
196.87704617386254
 10
-224.51669286060465
 20
197.24678952771865
 10
-224.18759043657917
 20
197.61596198605366
 10
-223.85784758808143
 20
197.9845625332397
 10
-223.52746540928447
 20
198.35259014833628
 10
-223.19644501541828
 20
198.72004383031162
 10
-222.86478756737299
 20
199.08692262059063
 10
-222.53249436136468
 20
199.45322568488663
 10
-222.19956669949565
 20
199.81895219704464
 10
-221.8660059045024
 20
200.18410135263363
 10
-221.53181329076858
 20
200.54867234265902
 10
-221.19699016876032
 20
200.91266435751044
 10
-220.86153784091817
 20
201.27607658311211
 10
-220.52545761384795
 20
201.63890821210327
 10
-220.18875080211842
 20
202.00115844745645
 10
-219.85141871095215
 20
202.36282648642108
 10
-219.5134626429408
 20
202.7239115266797
 10
-219.17488388868156
 20
203.08441275750354
 10
-218.8356837627534
 20
203.44432939351833
 10
-218.49586356505927
 20
203.8036606384792
 10
-218.15542459416247
 20
204.16240569771225
 10
-217.81436813677445
 20
204.52056376806954
 10
-217.47269549535235
 20
204.87813406415145
 10
-217.13040794047797
 20
205.23511577284395
 10
-216.78750609910014
 20
205.5915074640558
 10
-216.44398995851049
 20
205.94730708650937
 10
-216.0998594846541
 20
206.30251255793948
 10
-215.75511466149237
 20
206.65712180296148
 10
-215.4097554688475
 20
207.01113273160698
 10
-215.0637818915399
 20
207.36454324807144
 10
-214.71719390541574
 20
207.71735123693367
 10
-214.36999152013883
 20
208.06955460512654
 10
-214.0221747363269
 20
208.42115123991073
 10
-213.6737435599619
 20
208.7721390229228
 10
-213.3246979931241
 20
209.12251582087885
 10
-212.97503805697698
 20
209.47227950839581
 10
-212.6247637791092
 20
209.8214279554707
 10
-212.27387518764908
 20
210.16995902151865
 10
-211.9223723123449
 20
210.51787055633716
 10
-211.57025518656297
 20
210.8651604020209
 10
-211.21752386609722
 20
211.21182641206568
 10
-210.86417844346846
 20
211.55786646622775
 10
-210.5102199232827
 20
211.90327936828686
 10
-210.15565018207826
 20
212.24806481710038
 10
-209.80047115439808
 20
212.59222257968827
 10
-209.44468475971235
 20
212.93575241649575
 10
-209.08829291208247
 20
213.27865409123305
 10
-208.73129751348534
 20
213.6209273638497
 10
-208.37370047103934
 20
213.96257200841862
 10
-208.015503692302
 20
214.30358780833376
 10
-207.6567090741809
 20
214.64397454465993
 10
-207.29731850653755
 20
214.9837319997988
 10
-206.93733386906362
 20
215.32285995408427
 10
-206.576757056881
 20
215.6613582129686
 10
-206.21558994940642
 20
215.99922657401146
 10
-205.8538344216339
 20
216.33646483876376
 10
-205.4914923325789
 20
216.67307280027154
 10
-205.12856555772305
 20
217.0090502779346
 10
-204.76505596091843
 20
217.3443970873648
 10
-204.40096539041673
 20
217.67911303588014
 10
-204.03629505945213
 20
218.0131972457822
 10
-203.6710451636153
 20
218.3466477263142
 10
-203.30521581579669
 20
218.6794623855962
 10
-202.93880712729208
 20
219.01163911858234
 10
-202.57181921305468
 20
219.3431758126997
 10
-202.20425218546376
 20
219.67407034084346
 10
-201.8361061842951
 20
220.00432059462767
 10
-201.4673813432032
 20
220.33392444722534
 10
-201.09807780160284
 20
220.6628797664373
 10
-200.7281956941242
 20
220.9911844027552
 10
-200.35773517951796
 20
221.31883622184358
 10
-199.9866964178722
 20
221.64583307896513
 10
-199.6150795723009
 20
221.97217282077605
 10
-199.24288480631537
 20
222.29785328220132
 10
-198.87011229312174
 20
222.62287229697316
 10
-198.496762222201
 20
222.9472277052391
 10
-198.12283478145585
 20
223.2709173330684
 10
-197.74833016439356
 20
223.5939390005919
 10
-197.37324889525075
 20
223.91629090059544
 10
-196.9975929247756
 20
224.23797288327958
 10
-196.62136455027849
 20
224.55898521420943
 10
-196.24456606247355
 20
224.87932816516746
 10
-195.86719973624537
 20
225.19900200319833
 10
-195.4892678542112
 20
225.51800701832005
 10
-195.11077269120875
 20
225.83634350532049
 10
-194.73171651125037
 20
226.15401176003854
 10
-194.3521015672627
 20
226.47101207892328
 10
-193.97193010539138
 20
226.78734476406675
 10
-193.5912043781149
 20
227.103010139006
 10
-193.2099266222987
 20
227.41800852234806
 10
-192.82809906795822
 20
227.732340238193
 10
-192.4457239257095
 20
228.04600560075136
 10
-192.0628034241168
 20
228.35900495980133
 10
-191.67933977281947
 20
228.67133865583406
 10
-191.29533517420714
 20
228.9830070341337
 10
-190.91079181582668
 20
229.2940104353218
 10
-190.52571177703635
 20
229.60434907919574
 10
-190.14009595584213
 20
229.91402172633565
 10
-189.7539445449245
 20
230.22302625311275
 10
-189.3672577301732
 20
230.53136051459725
 10
-188.9800357013325
 20
230.83902235763819
 10
-188.59227866932292
 20
231.14600964268143
 10
-188.20398684218986
 20
231.4523202135243
 10
-187.81516043435886
 20
231.75795190884423
 10
-187.42579965518217
 20
232.06290254751264
 10
-187.03590474251766
 20
232.36716997138015
 10
-186.64547593137144
 20
232.67075200534524
 10
-186.25451346234595
 20
232.9736464680074
 10
-185.86301757577294
 20
233.27585116397964
 10
-185.47098852719623
 20
233.57736390385656
 10
-185.0784265831092
 20
233.87818249878586
 10
-184.68533201137194
 20
234.17830474794886
 10
-184.29170508436928
 20
234.47772844254703
 10
-183.8975460764107
 20
234.7764513622527
 10
-183.50285529375805
 20
235.0744713148854
 10
-183.10763345394875
 20
235.3717866414337
 10
-182.7118819101647
 20
235.66839652276073
 10
-182.31560205768056
 20
235.96430019739282
 10
-181.91879530950573
 20
236.25949692971545
 10
-181.52146307113568
 20
236.55398597629696
 10
-181.12360674497305
 20
236.8477665916839
 10
-180.7252277264018
 20
237.14083802298615
 10
-180.32632741533166
 20
237.4331995254825
 10
-179.9269072173136
 20
237.7248503642516
 10
-179.52696853048755
 20
238.01578979635607
 10
-179.12651275031794
 20
238.30601707719543
 10
-178.72554126398754
 20
238.5955314526505
 10
-178.32405547706833
 20
238.88433219602118
 10
-177.9220567835512
 20
239.17241856659416
 10
-177.51954657640508
 20
239.4597898241693
 10
-177.11652623816093
 20
239.74644521576607
 10
-176.71299716668457
 20
240.0323840117799
 10
-176.30896075451042
 20
240.3176054770582
 10
-175.90441838339316
 20
240.60210886300362
 10
-175.4993712947579
 20
240.88589322233923
 10
-175.09382061540128
 20
241.16895744304728
 10
-174.6877674772863
 20
241.45130041808474
 10
-174.2812130068861
 20
241.73292103005016
 10
-173.87415833082875
 20
242.01381815918407
 10
-173.46660456840831
 20
242.29399067237895
 10
-173.05855286052946
 20
242.5734374652728
 10
-172.6500043386348
 20
242.85215741715635
 10
-172.24096013546395
 20
243.13014940649683
 10
-171.83142137646377
 20
243.40741229821148
 10
-171.42138920264884
 20
243.68394497734786
 10
-171.01086475378864
 20
243.95974632439567
 10
-170.59984916799522
 20
244.23481521457035
 10
-170.18834358028587
 20
244.50915051553068
 10
-169.77634912908601
 20
244.78275109703463
 10
-169.36386696379606
 20
245.05561584244165
 10
-168.9508982282313
 20
245.32774362377003
 10
-168.53744406722222
 20
245.599133311548
 10
-168.12350562230506
 20
245.86978376816276
 10
-167.70908414077715
 20
246.1396940152392
 10
-167.2941809259381
 20
246.40886315934765
 10
-166.8787972830596
 20
246.67729030971472
 10
-166.46293450971504
 20
246.94497456320778
 10
-166.04659391578474
 20
247.211915035325
 10
-165.62977681037148
 20
247.4781108400111
 10
-165.21248449925116
 20
247.74356108558408
 10
-164.79471828451386
 20
248.00826487402736
 10
-164.37647946887157
 20
248.27222130769104
 10
-163.9577693659516
 20
248.5354295056601
 10
-163.53858928227
 20
248.79788857523766
 10
-163.11894052457075
 20
249.05959762345395
 10
-162.6988243888584
 20
249.32055573936734
 10
-162.27824219338245
 20
249.5807620470859
 10
-161.85719524566096
 20
249.8402156528242
 10
-161.4356848534796
 20
250.09891566247802
 10
-161.01371231786013
 20
250.35686117006827
 10
-160.59127895051773
 20
250.61405128620905
 10
-160.1683860701937
 20
250.87048513234978
 10
-159.74503512110962
 20
251.12616203714086
 10
-159.32122766528818
 20
251.3810815267708
 10
-158.89696526677926
 20
251.63524313495068
 10
-158.4722494996422
 20
251.88864641642
 10
-158.0470819286518
 20
252.14129091478546
 10
-157.62146411683173
 20
252.39317617498514
 10
-157.19539761545994
 20
252.64430172627985
 10
-156.7688839935791
 20
252.89466713224468
 10
-156.3419248095093
 20
253.1442719425918
 10
-155.91452161928123
 20
253.39311570735
 10
-155.4866759709697
 20
253.64119796700885
 10
-155.05838941923224
 20
253.88851827751503
 10
-154.62966351907752
 20
254.1350761996688
 10
-154.20049981959798
 20
254.38087128820365
 10
-153.77089986557672
 20
254.6259030944401
 10
-153.34086519760334
 20
254.8701711663556
 10
-152.91039736730465
 20
255.1136750754443
 10
-152.47949791688936
 20
255.3564143807724
 10
-152.04816837343628
 20
255.59838861846833
 10
-151.61640986407937
 20
255.8395966120933
 10
-151.18422309597867
 20
256.0800364254623
 10
-150.7516087514089
 20
256.31970606274655
 10
-150.31856751808766
 20
256.5586035223514
 10
-149.88510008443362
 20
256.79672678815433
 10
-149.45120715250428
 20
257.0340738529393
 10
-149.01688943380472
 20
257.27064271088045
 10
-148.58214764210945
 20
257.5064313443402
 10
-148.14698249555744
 20
257.74143772752205
 10
-147.711394715937
 20
257.9756598249833
 10
-147.2753850448773
 20
258.2090956217528
 10
-146.8389542231456
 20
258.44174308488016
 10
-146.40210299840533
 20
258.673600177705
 10
-145.96483211650795
 20
258.9046648432833
 10
-145.52714234676594
 20
259.1349350521058
 10
-145.08903445899685
 20
259.36440875879623
 10
-144.65050922903055
 20
259.5930839123582
 10
-144.21156743458118
 20
259.82095844811346
 10
-143.77220986673592
 20
260.04803030967
 10
-143.33243753879634
 20
260.27429785549714
 10
-142.8922523043237
 20
260.49976107259937
 10
-142.45165621980118
 20
260.7244203555616
 10
-142.0106513315794
 20
260.94827609453904
 10
-141.56923969355464
 20
261.17132871010153
 10
-141.12742334565897
 20
261.3935786109297
 10
-140.68520432167313
 20
261.6150262090466
 10
-140.24258464124713
 20
261.83567190372025
 10
-139.79956633245897
 20
262.05551612661134
 10
-139.35615141203738
 20
262.27455930225204
 10
-138.9123418890928
 20
262.49280185535605
 10
-138.46813976188156
 20
262.7102442040728
 10
-138.0235470273347
 20
262.92688677931136
 10
-137.57856568058978
 20
263.1427300239299
 10
-137.133197706014
 20
263.35777437425975
 10
-136.68744508024443
 20
263.5720202661662
 10
-136.24130976933586
 20
263.785468128944
 10
-135.79479374662296
 20
263.9981184226194
 10
-135.34789897169296
 20
264.20997159408853
 10
-134.90062738724708
 20
264.42102807004096
 10
-134.45298049027434
 20
264.6312873428481
 10
-134.0049592194705
 20
264.84074771352897
 10
-133.55656447536683
 20
265.0494073868053
 10
-133.10779716301406
 20
265.25726456127086
 10
-132.65865818910632
 20
265.4643174229978
 10
-132.20914847083756
 20
265.67056416460167
 10
-131.75926893587283
 20
265.8760029853459
 10
-131.3090205136625
 20
266.08063207213894
 10
-130.85840413847623
 20
266.2844496059685
 10
-130.40742074641574
 20
266.48745375513454
 10
-129.9560712930232
 20
266.68964271432
 10
-129.50435673291923
 20
266.8910146594741
 10
-129.0522780271418
 20
267.09156776392285
 10
-128.59983613617106
 20
267.29130018249305
 10
-128.1470320395364
 20
267.4902100957745
 10
-127.69386671933862
 20
267.68829567300156
 10
-127.24034116274514
 20
267.8855550775038
 10
-126.786456359533
 20
268.0819864608724
 10
-126.33221330988063
 20
268.2775879808117
 10
-125.87761305610465
 20
268.47235787548505
 10
-125.42265700292484
 20
268.6662952167119
 10
-124.96734678999957
 20
268.85939962553556
 10
-124.51168405461512
 20
269.05167072145645
 10
-124.05567044562943
 20
269.24310815562393
 10
-123.59930760308933
 20
269.4337115626611
 10
-123.14259716545035
 20
269.62348057759857
 10
-122.68554076303964
 20
269.81241481996807
 10
-122.22814003618873
 20
270.0005139375506
 10
-121.77039662025464
 20
270.1877775703468
 10
-121.31231214744899
 20
270.374205354813
 10
-120.85388824468251
 20
270.5597969183748
 10
-120.39512654071922
 20
270.7445518969475
 10
-119.93602866746194
 20
270.9284699382996
 10
-119.476596251075
 20
271.111550679993
 10
-119.01683091515457
 20
271.2937937570658
 10
-118.5567342773038
 20
271.4751987931903
 10
-118.0963079660688
 20
271.6557654436168
 10
-117.6355536017792
 20
271.83549334670073
 10
-117.17447280333123
 20
272.01438214095157
 10
-116.71306719951392
 20
272.1924314943349
 10
-116.25133862160928
 20
272.3696416068619
 10
-115.7892890139312
 20
272.5460129873465
 10
-115.32692031538745
 20
272.72154614831123
 10
-114.86423445571693
 20
272.896241595967
 10
-114.40123336179735
 20
273.0700998467583
 10
-113.93791895932348
 20
273.2431214320176
 10
-113.47429316419264
 20
273.41530687498977
 10
-113.01035788571618
 20
273.58665669916985
 10
-112.54611502275029
 20
273.75717141764557
 10
-112.08156648039254
 20
273.92685157849365
 10
-111.6167141515255
 20
274.0956977146915
 10
-111.1515599232824
 20
274.263710361497
 10
-110.68610567160832
 20
274.4308900412128
 10
-110.22035327604978
 20
274.5972373041982
 10
-109.75430460811037
 20
274.7627526966752
 10
-109.28796153193731
 20
274.9274367624291
 10
-108.82132590297392
 20
275.09129003874875
 10
-108.35439957302543
 20
275.2543130706851
 10
-107.88718439275335
 20
275.4165064183341
 10
-107.41968199757223
 20
275.57787003603426
 10
-106.951893431484
 20
275.7384021631074
 10
-106.48381963568299
 20
275.8981007160962
 10
-106.01546157113975
 20
276.05696364212486
 10
-105.5468202009779
 20
276.2149888673846
 10
-105.07789649665875
 20
276.37217431497976
 10
-104.60869143300594
 20
276.52851788986476
 10
-104.1392060017878
 20
276.6840175193923
 10
-103.66944120141143
 20
276.8386711226008
 10
-103.19939803723973
 20
276.9924766108994
 10
-102.72907752051297
 20
277.14543188448584
 10
-102.25848067287397
 20
277.29753484602924
 10
-101.78760852950677
 20
277.4487834105214
 10
-101.31646213058099
 20
277.5991754787545
 10
-100.84504252458822
 20
277.74870894742514
 10
-100.37335076405773
 20
277.897381695297
 10
-99.9013879217836
 20
278.04519163460606
 10
-99.42915507362312
 20
278.19213665666837
 10
-98.95665330449738
 20
278.33821465061453
 10
-98.48388370594088
 20
278.4834234952989
 10
-98.01084756010484
 20
278.62776166267633
 10
-97.53754645043892
 20
278.77122859761204
 10
-97.06398198818066
 20
278.91382383569413
 10
-96.59015578184703
 20
279.0555469038207
 10
-96.11606944120874
 20
279.1963973332345
 10
-95.64172458062046
 20
279.3363746709461
 10
-95.16712281061889
 20
279.47547845146556
 10
-94.69226574113202
 20
279.61370820734777
 10
-94.21715497745734
 20
279.7510634551287
 10
-93.74179213536621
 20
279.8875437474884
 10
-93.26617882499846
 20
280.0231486177624
 10
-92.79031665643731
 20
280.15787759897984
 10
-92.31420723533286
 20
280.2917302081615
 10
-91.83785217475891
 20
280.424705988302
 10
-91.36125308618335
 20
280.5568044765642
 10
-90.8844115796634
 20
280.68802520470274
 10
-90.40732926286033
 20
280.8183676952034
 10
-89.93000774518593
 20
280.9478314762105
 10
-89.45244864013054
 20
281.07641609034926
 10
-88.97465355802362
 20
281.2041210680341
 10
-88.4966241352541
 20
281.3309460373291
 10
-88.01836217617011
 20
281.45689126556346
 10
-87.53986955936955
 20
281.5819573194407
 10
-87.06114815340352
 20
281.7061447495049
 10
-86.58219982158418
 20
281.82945410812425
 10
-86.10302641794586
 20
281.9518859335415
 10
-85.62362979823466
 20
282.07344079267926
 10
-85.14401181132834
 20
282.194119247893
 10
-84.66417429965249
 20
282.3139218582954
 10
-84.18411909822174
 20
282.43284917561937
 10
-83.70384803842734
 20
282.5509017592157
 10
-83.22336295003407
 20
282.6680801844525
 10
-82.74266565469871
 20
282.78438501632525
 10
-82.26175796842722
 20
282.8998168191324
 10
-81.78064169863195
 20
283.01437614392796
 10
-81.29931865598081
 20
283.1280635781868
 10
-80.81779064151472
 20
283.24087969194363
 10
-80.33605945114462
 20
283.3528250563635
 10
-79.85412687203447
 20
283.463900227884
 10
-79.3719946924741
 20
283.57410579082756
 10
-78.88966467703418
 20
283.68344224845464
 10
-78.40713834511257
 20
283.7919090342772
 10
-77.92441703949531
 20
283.8995047850133
 10
-77.44150210574232
 20
284.0062281239468
 10
-76.95839489802944
 20
284.11207768703724
 10
-76.47509677347382
 20
284.2170520972321
 10
-75.99160909427756
 20
284.32114997382087
 10
-75.50793322528624
 20
284.42436992073766
 10
-75.02407054443296
 20
284.52671057538146
 10
-74.54002243132145
 20
284.62817055541535
 10
-74.05579027126416
 20
284.72874847729713
 10
-73.57137545198259
 20
284.828442940055
 10
-73.08677937274146
 20
284.92725256943436
 10
-72.60200343713868
 20
285.0251759832169
 10
-72.11704905364672
 20
285.12221179351945
 10
-71.63191763477265
 20
285.2183586021608
 10
-71.14661060034668
 20
285.3136150169483
 10
-70.66112937888842
 20
285.4079796589628
 10
-70.17547540255904
 20
285.5014511367706
 10
-69.68965010908425
 20
285.5940280558693
 10
-69.20365494145074
 20
285.68570901685155
 10
-68.71749144859079
 20
285.77649315514304
 10
-68.23116131214314
 20
285.8663803064398
 10
-67.74466622320239
 20
285.9553703624075
 10
-67.25800786880112
 20
286.0434631983735
 10
-66.77118794006415
 20
286.1306587181069
 10
-66.28420812572428
 20
286.2169568184877
 10
-65.79707011261567
 20
286.3023573917974
 10
-65.30977558489559
 20
286.3868603208856
 10
-64.82232622704224
 20
286.47046549609666
 10
-64.33472372489922
 20
286.5531728217579
 10
-63.84696976128865
 20
286.63498219056703
 10
-63.359066017632834
 20
286.71589349265
 10
-62.87101417225051
 20
286.7959066048344
 10
-62.382815908233674
 20
286.8750214386523
 10
-61.894472904654705
 20
286.95323788702956
 10
-61.405986839682896
 20
287.03055584292207
 10
-60.91735938795377
 20
287.1069751822115
 10
-60.42859222796618
 20
287.1824958107398
 10
-59.939687035966855
 20
287.2571176257109
 10
-59.45064548670394
 20
287.3308405200913
 10
-58.961469248842114
 20
287.40366435126066
 10
-58.472159951152804
 20
287.47558870883284
 10
-57.98271920014781
 20
287.54661302309734
 10
-57.493148602181954
 20
287.616736710378
 10
-57.003449765019894
 20
287.68595918323405
 10
-56.51362429681681
 20
287.7542798427073
 10
-56.02367381222235
 20
287.8216981220718
 10
-55.533599925280804
 20
287.8882134363216
 10
-55.04340425201105
 20
287.9538252001573
 10
-54.55308840807324
 20
288.01853281003173
 10
-54.062654015464815
 20
288.08233569456297
 10
-53.57210269671611
 20
288.1452332711497
 10
-53.08143607594614
 20
288.2072249534777
 10
-52.59065577798648
 20
288.2683101439521
 10
-52.09976343126168
 20
288.3284882564586
 10
-51.60876066748713
 20
288.3877587145305
 10
-51.11764911920652
 20
288.4461209311071
 10
-50.626430420639394
 20
288.5035743148649
 10
-50.135106207158685
 20
288.56011826513884
 10
-49.643678119886765
 20
288.6157522119247
 10
-49.15214780010263
 20
288.6704755677006
 10
-48.66051689624939
 20
288.7242877901514
 10
-48.16878709497628
 20
288.7771886736343
 10
-47.67696010453472
 20
288.8291782151059
 10
-47.1850376309205
 20
288.88025639952355
 10
-46.69302137892899
 20
288.93042320904647
 10
-46.200913051315176
 20
288.97967861406113
 10
-45.70871435141419
 20
289.0280225988084
 10
-45.216426982449164
 20
289.0754551553543
 10
-44.72405264583502
 20
289.1219762659719
 10
-44.231593041736765
 20
289.16758590805165
 10
-43.73904986894442
 20
289.2122840520141
 10
-43.246424828085395
 20
289.2560706968614
 10
-42.753719617467254
 20
289.2989458248346
 10
-42.260935934665866
 20
289.34090941814515
 10
-41.768075474927784
 20
289.3819614393665
 10
-41.275139935942896
 20
289.4221018881953
 10
-40.78213101336182
 20
289.46133074873796
 10
-40.28905040200678
 20
289.4996480030079
 10
-39.7958997951069
 20
289.53705362027813
 10
-39.302680886552594
 20
289.5735475861353
 10
-38.80939536997291
 20
289.6091298913233
 10
-38.3160449380427
 20
289.64380052223
 10
-37.822631285028194
 20
289.67755949709334
 10
-37.32915610537961
 20
289.7104068479177
 10
-36.83562109443929
 20
289.7423426331341
 10
-36.342027945610404
 20
289.7733668954771
 10
-35.84837835147342
 20
289.8034796778825
 10
-35.35467400261358
 20
289.83268100313876
 10
-34.86091659120111
 20
289.86097093362855
 10
-34.36710780751956
 20
289.88834951410774
 10
-33.87324934101425
 20
289.9148167882299
 10
-33.37934287971162
 20
289.94037278645726
 10
-32.885390111909906
 20
289.96501755784726
 10
-32.39139272531078
 20
289.98875115476454
 10
-31.897352406485076
 20
290.01157362145284
 10
-31.403270841043646
 20
290.03348499590163
 10
-30.909149713887867
 20
290.0544853137626
 10
-30.414990710286446
 20
290.0745746348728
 10
-29.920795514194488
 20
290.093753003951
 10
-29.426565808950517
 20
290.11202046581855
 10
-28.93230327657801
 20
290.1293770443209
 10
-28.438009600019583
 20
290.14582280499053
 10
-27.943686459257364
 20
290.1613577405063
 10
-27.449335523240308
 20
290.1759814783473
 10
-26.954958457986965
 20
290.18969347790534
 10
-26.460556932768785
 20
290.2024932186431
 10
-25.966132619488434
 20
290.2143801803349
 10
-25.471687192514466
 20
290.22535383498695
 10
-24.97722232877967
 20
290.23541364691624
 10
-24.48273970800371
 20
290.24455908056524
 10
-23.988241013041257
 20
290.25278962140936
 10
-23.493727929209264
 20
290.2601047403633
 10
-22.999202144606794
 20
290.26650390764905
 10
-22.504665349936893
 20
290.27198657298516
 10
-22.01011923923888
 20
290.2765522279912
 10
-21.515565509104416
 20
290.280200342893
 10
-21.021005858995636
 20
290.2829303878089
 10
-20.526441991222658
 20
290.2847418174752
 10
-20.031875611139654
 20
290.2856341106598
 10
-19.537308426966142
 20
290.2856067438142
 10
-19.042742149840677
 20
290.28465918689443
 10
-18.54817849390869
 20
290.2827909016239
 10
-18.053619176345023
 20
290.2800013527152
 10
-17.559065916335573
 20
290.2762901321724
 10
-17.064520426993962
 20
290.2716577186523
 10
-16.569984413997673
 20
290.2661050360675
 10
-16.075459578184
 20
290.2596329935636
 10
-15.580947614822962
 20
290.25224254081405
 10
-15.086450214349872
 20
290.24393460713014
 10
-14.591969062174288
 20
290.23471012208563
 10
-14.09750583903127
 20
290.2245699997552
 10
-13.603062220194602
 20
290.2135151798825
 10
-13.108639875995436
 20
290.2015465985151
 10
-12.614240471939848
 20
290.188665185809
 10
-12.119865668862223
 20
290.17487186328697
 10
-11.625517122625418
 20
290.1601675568687
 10
-11.131196483687917
 20
290.14455320962395
 10
-10.636905398002687
 20
290.1280297515635
 10
-10.142645506754867
 20
290.11059811079457
 10
-9.648418446952329
 20
290.09225919898006
 10
-9.15422584944399
 20
290.07301396536434
 10
-8.66006934099771
 20
290.0528633391097
 10
-8.165950543641877
 20
290.03180824905945
 10
-7.671871075440161
 20
290.0098496072415
 10
-7.177832556709303
 20
289.986988179376
 10
-6.683836672489674
 20
289.96322330969866
 10
-6.189885146263546
 20
289.93855364847497
 10
-5.695979710157948
 20
289.91297783138964
 10
-5.202122103888779
 20
289.88649450192077
 10
-4.708314074384846
 20
289.859102317255
 10
-4.214557377173579
 20
289.8307999229254
 10
-3.720853775998298
 20
289.8015859615044
 10
-3.2272050434558044
 20
289.77145906340576
 10
-2.7336129581656596
 20
289.740417893406
 10
-2.2400793079368646
 20
289.708461098106
 10
-1.7466058887240101
 20
289.6755873245648
 10
-1.2531945058947962
 20
289.6417952022941
 10
-0.7598469708388589
 20
289.6070833937775
 10
-0.26656510381942866
 20
289.57145055166137
 10
0.22664926640297495
 20
289.5348953256184
 10
0.7197943019500196
 20
289.4974163550065
 10
1.2128681574754945
 20
289.4590122916245
 10
1.7058689801693088
 20
289.41968179871
 10
2.1987949080819145
 20
289.3794235298336
 10
2.691644070560236
 20
289.3382361356098
 10
3.1844145907364005
 20
289.29611829336704
 10
3.677104679042731
 20
289.25306977241576
 10
4.169712650883623
 20
289.2090915449574
 10
4.662236832419136
 20
289.1641846506009
 10
5.154675553017451
 20
289.1183501095513
 10
5.647027150258482
 20
289.07158897699827
 10
6.139289965489474
 20
289.02390229440834
 10
6.631462344710635
 20
288.9752910999017
 10
7.123542637573506
 20
288.9257564189903
 10
7.615529200006405
 20
288.8752992911434
 10
8.10742039357212
 20
288.82392076271486
 10
8.599214583667436
 20
288.7716218696343
 10
9.09091013988358
 20
288.7184036418765
 10
9.582505435867894
 20
288.66426710280103
 10
10.073998853042855
 20
288.6092133028164
 10
10.56538877574508
 20
288.55324327498613
 10
11.056673592979212
 20
288.49635805155424
 10
11.547851695967736
 20
288.43855864356567
 10
12.038921485123959
 20
288.37984610049415
 10
12.52988136343081
 20
288.3202214532875
 10
13.020729738250546
 20
288.2596857305152
 10
13.511465019745064
 20
288.1982399461125
 10
14.002085612309926
 20
288.13588503338656
 10
14.49258983659193
 20
288.07262124511243
 10
14.982975974856615
 20
288.0084485382282
 10
15.47324230685419
 20
287.943366861953
 10
15.96338711069935
 20
287.87737616491785
 10
16.45340866604718
 20
287.810476418457
 10
16.943305249113273
 20
287.7426675794907
 10
17.43307513456863
 20
287.6739496050609
 10
17.922716592532346
 20
287.6043224314237
 10
18.412227897604474
 20
287.53378603785546
 10
18.901607319833783
 20
287.4623403825407
 10
19.39085312769104
 20
287.38998542402186
 10
19.87996358579829
 20
287.3167211062708
 10
20.368936960606167
 20
287.24254739690156
 10
20.85777151674719
 20
287.1674642622856
 10
21.346465516229408
 20
287.0914716625775
 10
21.83501721812567
 20
287.01456955028704
 10
22.32342488020884
 20
286.9367578810753
 10
22.811686761601415
 20
286.85803662999706
 10
23.299801117616482
 20
286.77840575911137
 10
23.78776620165332
 20
286.69786522976295
 10
24.27558026284252
 20
286.6164149887192
 10
24.763241576694895
 20
286.5340551501292
 10
25.250748444658726
 20
286.45078598580335
 10
25.73809917035254
 20
286.36660778071547
 10
26.22529205453703
 20
286.2815208037638
 10
26.712325402481472
 20
286.1955253502374
 10
27.199197518577197
 20
286.10862171050144
 10
27.685906706144696
 20
286.0208101692891
 10
28.172451266695894
 20
285.9320910020532
 10
28.658829502666745
 20
285.84246449033446
 10
29.14503971920259
 20
285.7519309310687
 10
29.631080219038203
 20
285.66049060881596
 10
30.116949304241732
 20
285.56814380561383
 10
30.602645273938084
 20
285.4748907894103
 10
31.088166433838925
 20
285.38073186374544
 10
31.573511085808885
 20
285.2856673130852
 10
32.05867753144646
 20
285.1896974218869
 10
32.54366406860005
 20
285.09282245730935
 10
33.02846900084617
 20
284.9950427168979
 10
33.51309062973134
 20
284.8963584893361
 10
33.997527255631816
 20
284.79677005910463
 10
34.48177717636779
 20
284.6962777001268
 10
34.96583869505744
 20
284.59488171370305
 10
35.44971014081291
 20
284.49258252538664
 10
35.933389850606815
 20
284.38938059564373
 10
36.41687616117127
 20
284.2852763810814
 10
36.900167407627784
 20
284.18027032837625
 10
37.38326193241143
 20
284.0743629153386
 10
37.86615807470864
 20
283.96755460207913
 10
38.34885417420599
 20
283.8598458485835
 10
38.831348566874944
 20
283.75123709614167
 10
39.313639596836516
 20
283.6417288202656
 10
39.79572560579975
 20
283.53132148337613
 10
40.27760493526638
 20
283.4200155449542
 10
40.75927592437304
 20
283.3078114524957
 10
41.24073691591268
 20
283.19470966762685
 10
41.7219862547567
 20
283.08071065893193
 10
42.20302228392236
 20
282.9658148853889
 10
42.68384334551605
 20
282.8500228006924
 10
43.16444778050442
 20
282.73333485261657
 10
43.6448339367211
 20
282.61575151590796
 10
44.12500015840837
 20
282.4972732490549
 10
44.604944790063946
 20
282.3779005104282
 10
45.08466617164994
 20
282.25763373929044
 10
45.56416266573934
 20
282.13647346378696
 10
46.04343265294982
 20
282.0144202803417
 10
46.52247451658146
 20
281.8914747917902
 10
47.0012866376056
 20
281.76763758793504
 10
47.47986740253817
 20
281.6429092761753
 10
47.958215199849654
 20
281.5172904672845
 10
48.43632841687082
 20
281.3907817637074
 10
48.91420544022586
 20
281.26338376154877
 10
49.391844656788095
 20
281.1350970544023
 10
49.869244460665904
 20
281.0059222592586
 10
50.3464032429272
 20
280.8758599780989
 10
50.82331939552229
 20
280.74491081278035
 10
51.299991305548794
 20
280.6130753444142
 10
51.77641737220508
 20
280.48035419481164
 10
52.25259599010713
 20
280.3467479658615
 10
52.72852555456776
 20
280.2122572588871
 10
53.20420445770038
 20
280.07688266108164
 10
53.67963109831486
 20
279.94062478048573
 10
54.15480387603847
 20
279.80348422500776
 10
54.629721189247526
 20
279.6654615953954
 10
55.104381434851476
 20
279.5265574847984
 10
55.57878298829031
 20
279.38677241133166
 10
56.05292407810731
 20
279.24610639731225
 10
56.52680286258042
 20
279.10455923884194
 10
57.00041749553198
 20
278.96213073117
 10
57.47376612134738
 20
278.81882065242803
 10
57.94684689219983
 20
278.6746288206265
 10
58.41965795028521
 20
278.5295550347559
 10
58.89219743380101
 20
278.3835990948056
 10
59.36446347208731
 20
278.2367607862505
 10
59.836454198389276
 20
278.08903992130877
 10
60.308167740538224
 20
277.9404363086734
 10
60.779602220637905
 20
277.7909497527641
 10
61.25075575383371
 20
277.6405800501301
 10
61.72162645315332
 20
277.4893270048272
 10
62.19221243232395
 20
277.33719043698454
 10
62.66251179720432
 20
277.1841701561595
 10
63.13252264872598
 20
277.03026597073017
 10
63.602243079313475
 20
276.875477677216
 10
64.07167118857826
 20
276.7198051079455
 10
64.54080506600442
 20
276.5632480783374
 10
65.00964279696974
 20
276.40580640538894
 10
65.47818245694738
 20
276.24747989066424
 10
65.94642220975214
 20
276.08826860930026
 10
66.41436051048768
 20
275.92817349690193
 10
66.88199588202669
 20
275.7671956795128
 10
67.34932684678107
 20
275.60533627174635
 10
67.8163519339121
 20
275.4425963977872
 10
68.28306967936221
 20
275.2789771912379
 10
68.74947861855058
 20
275.1144797742129
 10
69.21557728853573
 20
274.94910526379135
 10
69.68136422621983
 20
274.7828547671645
 10
70.14683798208833
 20
274.61572942013623
 10
70.61199710364049
 20
274.447730340535
 10
71.07684014131566
 20
274.2788586450667
 10
71.54136564174796
 20
274.1091154309448
 10
72.00557216696642
 20
273.93850182858256
 10
72.46945827693989
 20
273.76701895357104
 10
72.93302253359616
 20
273.5946679179162
 10
73.3962634971667
 20
273.4214498204254
 10
73.8591797363368
 20
273.24736577400614
 10
74.32176982456309
 20
273.072416895597
 10
74.78403233477941
 20
272.8966042921972
 10
75.24596584042588
 20
272.71992906383514
 10
75.70756891614992
 20
272.54239230562786
 10
76.16884009008572
 20
272.36399498464516
 10
76.6297777149876
 20
272.18473761113995
 10
77.09038011165431
 20
272.00462061535893
 10
77.55064559199454
 20
271.8236444081956
 10
78.01057248216087
 20
271.64180944013174
 10
78.47015909994286
 20
271.45911614351263
 10
78.92940376178585
 20
271.2755649506136
 10
79.38830477757917
 20
271.09115628075386
 10
79.84686046412094
 20
270.90589057396414
 10
80.3050691372299
 20
270.71976827110706
 10
80.76292910880707
 20
270.53278980676134
 10
81.2204386866339
 20
270.3449556089503
 10
81.67759617775317
 20
270.1562661075336
 10
82.13439989592901
 20
269.96672175217964
 10
82.59084814833513
 20
269.77632298005705
 10
83.04693924056595
 20
269.58507022815763
 10
83.50267146952012
 20
269.3929639165067
 10
83.95804314683534
 20
269.2000045038538
 10
84.41305257478102
 20
269.0061924302563
 10
84.86769805437214
 20
268.8115281365424
 10
85.32197787893841
 20
268.61601204944674
 10
85.77589035092817
 20
268.4196446207745
 10
86.22943376148336
 20
268.2224262799456
 10
86.68260638123589
 20
268.02435741344226
 10
87.13540647315244
 20
267.8254383950346
 10
87.58783230082325
 20
267.6256696048775
 10
88.03988213233411
 20
267.4250514381158
 10
88.49155422879848
 20
267.2235842789401
 10
88.94284684826667
 20
267.0212685096114
 10
89.39375824117614
 20
266.8181045005131
 10
89.84428667075531
 20
266.61409265546047
 10
90.29443039038635
 20
266.4092333613109
 10
90.74418765149167
 20
266.20352700565286
 10
91.1935566958593
 20
265.9969739602077
 10
91.64253577691218
 20
265.78957462721263
 10
92.09112314175152
 20
265.5813294001516
 10
92.53931703385291
 20
265.3722386698066
 10
92.98711568974454
 20
265.1623028173222
 10
93.43451734922421
 20
264.9515222361354
 10
93.88152025420743
 20
264.73989732933126
 10
94.32812264006967
 20
264.5274284913175
 10
94.77432273804001
 20
264.31411611309767
 10
95.2201187739145
 20
264.09996057975036
 10
95.66550898443917
 20
263.8849623045009
 10
96.11049168316767
 20
263.6691218637921
 10
96.55506544811226
 20
263.4524403795258
 10
96.99922890125704
 20
263.23491905856883
 10
97.44298068419427
 20
263.01655914148927
 10
97.88631943393058
 20
262.7973618529486
 10
98.32924378919205
 20
262.57732841475774
 10
98.77175238520472
 20
262.3564600355374
 10
99.21384386783419
 20
262.13475793915603
 10
99.65551688722131
 20
261.9122233518003
 10
100.09677009207405
 20
261.6888574906903
 10
100.53760213047022
 20
261.46466156586956
 10
100.978011651939
 20
261.2396367844533
 10
101.41799731936084
 20
261.0137843738391
 10
101.85755779096299
 20
260.78710554643055
 10
102.29669172727337
 20
260.55960151338195
 10
102.73539778088886
 20
260.3312734650305
 10
103.17367462702803
 20
260.1021226296816
 10
103.61152093297132
 20
259.8721502147183
 10
104.04893536818703
 20
259.64135742623984
 10
104.48591659707073
 20
259.40974545542633
 10
104.92246329744823
 20
259.17731551357343
 10
105.35857414829476
 20
258.9440688087387
 10
105.79424778523483
 20
258.71000646309744
 10
106.22948263794153
 20
258.47512921316553
 10
106.6642770765051
 20
258.2394376865869
 10
107.0986294784187
 20
258.00293252719666
 10
107.53253821374408
 20
257.7656143676697
 10
107.96600165041319
 20
257.5274838394336
 10
108.39901814752213
 20
257.2885415606227
 10
108.83158608131038
 20
257.04878818320566
 10
109.26370381724253
 20
256.80822434223944
 10
109.69536971960518
 20
256.5668506734276
 10
110.12658214295608
 20
256.32466779795453
 10
110.55733945538643
 20
256.0816763640222
 10
110.98764001987635
 20
255.83787701346
 10
111.41748219590737
 20
255.59327038475683
 10
111.84686433644329
 20
255.3478571079032
 10
112.27578479805223
 20
255.10163782223682
 10
112.7042419421847
 20
254.85461317849624
 10
113.13223412336647
 20
254.60678381828734
 10
113.55975969292761
 20
254.3581503807281
 10
113.98681699554723
 20
254.10871349665425
 10
114.41340439111433
 20
253.85847382604118
 10
114.83952022905875
 20
253.6074320139539
 10
115.26516290502343
 20
253.35558878658625
 10
115.69033103000339
 20
253.1029452346502
 10
116.11502330137222
 20
252.84950259119464
 10
116.53923841170398
 20
252.59526207690882
 10
116.96297505387737
 20
252.34022490886892
 10
117.38623191621473
 20
252.0843922925968
 10
117.80900769641754
 20
251.82776544523213
 10
118.23130109777557
 20
251.57034558909544
 10
118.65311082023925
 20
251.3121339370384
 10
119.07443556258995
 20
251.05313169618077
 10
119.49527402228544
 20
250.79334006779547
 10
119.91562491297952
 20
250.5327602756484
 10
120.33548694127096
 20
250.27139352826987
 10
120.75485881535609
 20
250.0092410330957
 10
121.17373923396987
 20
249.7463039789274
 10
121.59212691869678
 20
249.482583587486
 10
122.01002058305978
 20
249.2180810640059
 10
122.42741894137961
 20
248.95279761150192
 10
122.84432070194399
 20
248.6867344201479
 10
123.26072458507936
 20
248.41989269570058
 10
123.67662931376466
 20
248.15227364462632
 10
124.09203360802091
 20
247.883878465447
 10
124.50693617677696
 20
247.6147083363792
 10
124.92133570461442
 20
247.34476439534134
 10
125.33523088501803
 20
247.0740477914176
 10
125.74862040457518
 20
246.80255966062686
 10
126.16150295087053
 20
246.53030113817064
 10
126.57387720093806
 20
246.25727334105008
 10
126.98574185664513
 20
245.9834774215753
 10
127.39709560903833
 20
245.70891451336064
 10
127.80793715022465
 20
245.43358574942027
 10
128.21826516480579
 20
245.15749224949212
 10
128.6280783517589
 20
244.88063515264108
 10
129.03737540993015
 20
244.6030155955575
 10
129.44615503547095
 20
244.32463470885298
 10
129.85441592073903
 20
244.0454936156115
 10
130.26215676088145
 20
243.76559344111692
 10
130.6693762624508
 20
243.484935325312
 10
131.07607312530743
 20
243.20352039642736
 10
131.48224604931917
 20
242.9213497808517
 10
131.8878937253108
 20
242.63842459023618
 10
132.2930148672936
 20
242.35474596774492
 10
132.6976081785156
 20
242.07031503925631
 10
133.10167235971082
 20
241.78513292538653
 10
133.50520605196587
 20
241.4992006610003
 10
133.9082078727369
 20
241.21251924714548
 10
134.31067643514234
 20
240.92508967861716
 10
134.71261034921721
 20
240.63691294584302
 10
135.11400821936698
 20
240.34799003148615
 10
135.5148686539957
 20
240.0583219239145
 10
135.91519027018992
 20
239.7679096235664
 10
136.31497167784647
 20
239.4767541209944
 10
136.7142114851924
 20
239.18485640462254
 10
137.11290829224032
 20
238.89221745192285
 10
137.5110607199078
 20
238.598838269095
 10
137.90866737773402
 20
238.30471984699048
 10
138.30572687513626
 20
238.00986317656285
 10
138.70223781083655
 20
237.7142692347427
 10
139.09819880196207
 20
237.4179390235568
 10
139.4936084599811
 20
237.1208735376923
 10
139.88846539368703
 20
236.8230737686349
 10
140.28276820518641
 20
236.52454069946785
 10
140.6765155026416
 20
236.2252753217885
 10
141.069705900924
 20
235.925278636449
 10
141.46233800785217
 20
235.62455163546818
 10
141.85441040221278
 20
235.32309527366104
 10
142.2459215993705
 20
235.02091042467097
 10
142.63687012612633
 20
234.7179979788298
 10
143.0272544974223
 20
234.4143588129884
 10
143.4170732272813
 20
234.10999380479913
 10
143.80632481717316
 20
233.8049038179205
 10
144.19500778895264
 20
233.49908974412554
 10
144.58312065572142
 20
233.1925524659788
 10
144.97066192776387
 20
232.88529286453405
 10
145.35763010695217
 20
232.57731181238944
 10
145.74402370287692
 20
232.26861019404282
 10
146.1298412291306
 20
231.95918890108697
 10
146.51508119216075
 20
231.64904881830293
 10
146.89974209421405
 20
231.33819082746987
 10
147.28382243239406
 20
231.02661580630172
 10
147.66732072076414
 20
230.71432465567
 10
148.05023546184844
 20
230.40131826441663
 10
148.43256515718306
 20
230.08759752244796
 10
148.8143082943637
 20
229.77316330507992
 10
149.19546338473876
 20
229.45801651885716
 10
149.57602892789308
 20
229.14215805830167
 10
149.95600341098037
 20
228.82558880537565
 10
150.33538514162208
 20
228.50830942999727
 10
150.7141722985041
 20
228.19032045339773
 10
151.09236305459228
 20
227.8716223967037
 10
151.46995557376147
 20
227.5522157770472
 10
151.84694801155172
 20
227.2321011086137
 10
152.22333851921456
 20
226.91127890752225
 10
152.59912525919196
 20
226.58974970994294
 10
152.97430638051378
 20
226.2675140432048
 10
153.34888002818147
 20
225.94457243691335
 10
153.72284432994817
 20
225.6209254077601
 10
154.0961974379397
 20
225.29657350767312
 10
154.46893748646764
 20
224.97151727494966
 10
154.8410626061845
 20
224.64575725075292
 10
155.21257091344506
 20
224.3192939670618
 10
155.5834605381088
 20
223.99212797839215
 10
155.95372960399519
 20
223.66425983944097
 10
156.32337622723145
 20
223.33569010331942
 10
156.6923985141261
 20
223.0064193192895
 10
157.06079457109084
 20
222.676448043999
 10
157.42856251213928
 20
222.34577684975739
 10
157.7957004390637
 20
222.01440630241333
 10
158.16220646851076
 20
221.68233699140922
 10
158.5280793942026
 20
221.34957025724634
 10
158.8933188868649
 20
221.01610839983175
 10
159.25792466275186
 20
220.6819537563207
 10
159.6218964450062
 20
220.34710865846037
 10
159.9852339516329
 20
220.01157541963317
 10
160.34793692811857
 20
219.67535637026788
 10
160.7100051209271
 20
219.33845382902095
 10
161.07143827996492
 20
219.00087010558045
 10
161.43223615438896
 20
218.66260749630348
 10
161.79239850638658
 20
218.32366829902003
 10
162.15192511298176
 20
217.98405481485136
 10
162.5108157495966
 20
217.64376933078458
 10
162.86907019524008
 20
217.30281412532318
 10
163.22668822765144
 20
216.9611914634885
 10
163.58366965312456
 20
216.61890362807497
 10
163.94001427135325
 20
216.27595288278792
 10
164.2957218879072
 20
215.93234148542706
 10
164.65079230096146
 20
215.58807167427224
 10
165.0052253387891
 20
215.24314570683487
 10
165.35902082612915
 20
214.89756582507476
 10
165.71217859128927
 20
214.551334262856
 10
166.06469841613622
 20
214.20445319527485
 10
166.41657914239784
 20
213.85692383497363
 10
166.76781868070665
 20
213.50874645445387
 10
167.1184148906886
 20
213.15992128489077
 10
167.46836562219434
 20
212.81044855820517
 10
167.81766871649344
 20
212.46032850839205
 10
168.16632202769216
 20
212.10956139285162
 10
168.51432339312964
 20
211.7581474628482
 10
168.86167064464257
 20
211.40608697484151
 10
169.20836159344262
 20
211.05338017570102
 10
169.5543940749652
 20
210.70002734686085
 10
169.89976590522454
 20
210.34602876131538
 10
170.2444748943239
 20
209.9913846970266
 10
170.58851883660162
 20
209.6360954274543
 10
170.9318955363524
 20
209.28016124654627
 10
171.27460279313203
 20
208.92358245441133
 10
171.61663839580783
 20
208.5663593516546
 10
171.95800012257354
 20
208.2084922395402
 10
172.29868574665414
 20
207.84998142553727
 10
172.63869305190553
 20
207.49082723808922
 10
172.97801980650206
 20
207.1310300015989
 10
173.3166637732388
 20
206.77059004633
 10
173.65462288483266
 20
206.409507872333
 10
173.99189649578776
 20
206.04778531417617
 10
174.328484568027
 20
205.68542476499746
 10
174.66438707281463
 20
205.32242861417626
 10
174.99960397653882
 20
204.95879923425392
 10
175.3341352696884
 20
204.59453900772658
 10
175.66798094758258
 20
204.22965030918974
 10
176.00114100680727
 20
203.86413550216145
 10
176.33361544389447
 20
203.49799693801398
 10
176.6654042636331
 20
203.1312369636332
 10
176.99650749082534
 20
202.76385793198935
 10
177.326925146021
 20
202.39586218020818
 10
177.6566572544661
 20
202.02725203777393
 10
177.98570383405269
 20
201.65802981586964
 10
178.31406493764223
 20
201.28819784515278
 10
178.64174060840912
 20
200.91775843588246
 10
178.96873089497475
 20
200.54671389153518
 10
179.29503583897082
 20
200.1750664979448
 10
179.62065550808177
 20
199.80281855241074
 10
179.94558997073358
 20
199.42997234138102
 10
180.26983929652272
 20
199.05653014095108
 10
180.59340354284905
 20
198.6824942054247
 10
180.9162821894253
 20
198.30786628051243
 10
181.23847382057264
 20
197.932647337403
 10
181.55997693232672
 20
197.5568382748439
 10
181.880790016574
 20
197.1804399920787
 10
182.20091155347725
 20
196.80345338247875
 10
182.52034004748344
 20
196.42587936413534
 10
182.8390739869682
 20
196.04771884551133
 10
183.15711185841573
 20
195.6689727375814
 10
183.4744521329193
 20
195.28964194257568
 10
183.79109330360754
 20
194.90972738535183
 10
184.10703385442312
 20
194.52922998716812
 10
184.42227226440787
 20
194.14815066935864
 10
184.73680700256486
 20
193.7664903491759
 10
185.05063654393595
 20
193.3842499531208
 10
185.36375937059424
 20
193.0014304176435
 10
185.6761739543333
 20
192.6180326749574
 10
185.98787876237685
 20
192.23405765781354
 10
186.29887225165598
 20
191.84950629494963
 10
186.60915290270435
 20
191.46437953849457
 10
186.91871918028497
 20
191.0786783320587
 10
187.22756954905228
 20
190.69240362347526
 10
187.53570257476872
 20
190.30555644538157
 10
187.84311704218624
 20
189.9181380076151
 10
188.14981174449213
 20
189.53014952808994
 10
188.4557854712711
 20
189.14159222322425
 10
188.76103700218994
 20
188.75246730306517
 10
189.0655651257507
 20
188.36277598607077
 10
189.3693686369298
 20
187.97251949715812
 10
189.6724463215979
 20
187.5816990555616
 10
189.97479696109198
 20
187.19031587850085
 10
190.2764193292611
 20
186.79837117898975
 10
190.5773122228307
 20
186.4058661891983
 10
190.8774744238977
 20
186.012802131532
 10
191.17690471360578
 20
185.61918022924806
 10
191.47560185658253
 20
185.2250016947026
 10
191.7735646456933
 20
184.8302677633288
 10
192.07079186108524
 20
184.43497966249225
 10
192.36728228007038
 20
184.03913861907608
 10
192.66303466890915
 20
183.64274585341803
 10
192.9580478055702
 20
183.24580259636093
 10
193.25232047191446
 20
182.84831008331918
 10
193.5458514417744
 20
182.4502695454596
 10
193.83863975791294
 20
182.0516824130977
 10
194.13068521617825
 20
181.65255066713362
 10
194.42198776738326
 20
181.25287639455064
 10
194.71254735340315
 20
180.85266166761647
 10
195.00236392026025
 20
180.45190855353465
 10
195.2914374017054
 20
180.050619102669
 10
195.57976776695835
 20
179.64879538299638
 10
195.86735497535213
 20
179.24643944733563
 10
196.1541989888563
 20
178.84355334247118
 10
196.44029976264815
 20
178.44013910252318
 10
196.7256572699203
 20
178.0361987666224
 10
197.01027149093576
 20
177.6317343710452
 10
197.2941424026056
 20
177.22674794191684
 10
197.57726998051993
 20
176.82124149674505
 10
197.85965420087177
 20
176.41521704585907
 10
198.14129506384594
 20
176.00867660864878
 10
198.4221925603054
 20
175.60162219037133
 10
198.70234668444647
 20
175.19405579104085
 10
198.98175741693174
 20
174.78597939393018
 10
199.26042477444048
 20
174.37739499955958
 10
199.5383487513091
 20
173.96830458571068
 10
199.81552892301352
 20
173.55870983958772
 10
200.0919642961722
 20
173.14861206089392
 10
200.36765385407625
 20
172.7380125342765
 10
200.64259658171713
 20
172.32691254632886
 10
200.91679145713076
 20
171.91531337984173
 10
201.19023745266838
 20
171.50321631474011
 10
201.4629335383963
 20
171.09062263041469
 10
201.73487870360574
 20
170.67753361990194
 10
202.00607192475084
 20
170.2639505686656
 10
202.27651217788488
 20
169.84987476287816
 10
202.5461984214175
 20
169.43530747825702
 10
202.81512964716092
 20
169.02025001329997
 10
203.083304830561
 20
168.6047036568277
 10
203.350722946037
 20
168.18866969803548
 10
203.61738295629954
 20
167.7721494197084
 10
203.88328383954376
 20
167.35514411567846
 10
204.14842457558197
 20
166.93765508185692
 10
204.4128041371698
 20
166.51968361074682
 10
204.6764214913882
 20
166.10123099242426
 10
204.93927560453358
 20
165.68229851767342
 10
205.201365671322
 20
165.2628876211296
 10
205.46269126620584
 20
164.84299997330686
 10
205.72325200861548
 20
164.4226372692691
 10
205.98304750253078
 20
164.00180119089802
 10
206.24207738722995
 20
163.58049343826914
 10
206.5003412882209
 20
163.15871569926463
 10
206.75783883181793
 20
162.73646965866104
 10
207.0145696348584
 20
162.31375699192148
 10
207.2705333309958
 20
161.89057938123273
 10
207.52572955836646
 20
161.46693850791988
 10
207.7801579496439
 20
161.0428360464741
 10
208.0338181340018
 20
160.6182736658378
 10
208.2867097389322
 20
160.19325303055666
 10
208.53883241468625
 20
159.76777581530132
 10
208.79018579977497
 20
159.34184368430462
 10
209.04076953408892
 20
158.91545829923922
 10
209.2905832417755
 20
158.48862130923968
 10
209.53962658134506
 20
158.06133438027425
 10
209.78789919775411
 20
157.63359916700966
 10
210.0354007297608
 20
157.20541731725584
 10
210.28213062642587
 20
156.77679036649715
 10
210.52808815075647
 20
156.34771974171503
 10
210.77327255885982
 20
155.91820686547973
 10
211.01768309967431
 20
155.48825315590284
 10
211.26131901742176
 20
155.05786002812587
 10
211.50417955249205
 20
154.62702889489202
 10
211.74626396756022
 20
154.19576118124124
 10
211.98757151186828
 20
153.76405830434234
 10
212.2281014347098
 20
153.33192168116096
 10
212.46785296847733
 20
152.8993527191003
 10
212.70682537800752
 20
152.4663528433939
 10
212.94501791413836
 20
152.03292347127964
 10
213.1824298262794
 20
151.59906601904015
 10
213.41906035319303
 20
151.16478189703022
 10
213.6549087471241
 20
150.7300725228793
 10
213.88997426526402
 20
150.2949393167542
 10
214.12425615699618
 20
149.8593836944722
 10
214.3577536674205
 20
149.4234070694894
 10
214.5904660358591
 20
148.9870108521829
 10
214.82239272851223
 20
148.5501965733089
 10
215.05353392323917
 20
148.11296613832437
 10
215.2838899630771
 20
147.67532153333312
 10
215.51346117827893
 20
147.23726473027986
 10
215.74224793275803
 20
146.7987977113417
 10
215.97025058196903
 20
146.35992244676981
 10
216.19746948239708
 20
145.92064089995466
 10
216.42390498401545
 20
145.48095502358896
 10
216.64955745065978
 20
145.04086677023636
 10
216.87442725697034
 20
144.6003780906731
 10
217.09851477187473
 20
144.1594909254506
 10
217.321820364013
 20
143.71820720775955
 10
217.54434439623589
 20
143.27652886072886
 10
217.76608726133318
 20
142.83445781542335
 10
217.98704933968315
 20
142.39199598947206
 10
218.20723101437542
 20
141.94914529476142
 10
218.42663265594723
 20
141.50590762992985
 10
218.6452546647668
 20
141.0622849013922
 10
218.8630974339072
 20
140.61827900490442
 10
219.08016090074312
 20
140.17389160686557
 10
219.29644381398978
 20
139.72912379160593
 10
219.5119447394966
 20
139.28397655862565
 10
219.7266622514639
 20
138.83845091643624
 10
219.9405949124411
 20
138.39254787289497
 10
220.15374128056905
 20
137.94626843878453
 10
220.36609990052705
 20
137.49961362356558
 10
220.5776693450056
 20
137.05258445510327
 10
220.78844816860158
 20
136.60518195769137
 10
220.99843492399327
 20
136.1574071598218
 10
221.20762814746658
 20
135.70926108745886
 10
221.41602639819314
 20
135.26074478242603
 10
221.6236282274784
 20
134.81185928797177
 10
221.83043218062937
 20
134.36260564971167
 10
222.0364367932706
 20
133.91298491400707
 10
222.24164060414432
 20
133.4629981338977
 10
222.44604216426117
 20
133.0126463732094
 10
222.64964001205033
 20
132.56193069522465
 10
222.852432702848
 20
132.11085217605466
 10
223.05441934506368
 20
131.65941214425632
 10
223.2555997233584
 20
131.20761223124836
 10
223.45597363985996
 20
130.75545407345132
 10
223.65554089761866
 20
130.30293930486826
 10
223.8543012870376
 20
129.85006955115955
 10
224.05225462099804
 20
129.39684644510152
 10
224.24940071062227
 20
128.9432716158816
 10
224.445739362379
 20
128.48934668788667
 10
224.64127037664906
 20
128.03507328016647
 10
224.83599355615675
 20
127.58045301012721
 10
225.02990872180152
 20
127.12548750026858
 10
225.22301568303322
 20
126.67017836548219
 10
225.41531424980084
 20
126.21452721823142
 10
225.60680421419755
 20
125.75853566088307
 10
225.79748540648694
 20
125.302205309273
 10
225.98735763867217
 20
124.84553776893092
 10
226.17642072332868
 20
124.3885346430677
 10
226.36467446112957
 20
123.93119752747324
 10
226.5521188333964
 20
123.4735280894011
 10
226.73875482618075
 20
123.01552840191196
 10
226.924583806583
 20
122.55720068303292
 10
227.10960714171097
 20
122.09854713881862
 10
227.29382620102615
 20
121.63956996438779
 10
227.47724237972844
 20
121.18027135329943
 10
227.65985706405505
 20
120.7206534836206
 10
227.8416716445683
 20
120.26071852334735
 10
228.02268749869415
 20
119.800468623593
 10
228.20290604139043
 20
119.33990593858114
 10
228.3823286769413
 20
118.87903260662857
 10
228.560956812176
 20
118.41785075544985
 10
228.73879184729043
 20
117.95636249867891
 10
228.91583519899393
 20
117.49456994486498
 10
229.0920882934128
 20
117.032475194695
 10
229.26755255203045
 20
116.57008033565106
 10
229.44222939612723
 20
116.10738744381345
 10
229.6161202419695
 20
115.64439858213449
 10
229.78922603370012
 20
115.1811156261989
 10
229.96154634058882
 20
114.71753993205532
 10
230.13308050289376
 20
114.25367277056174
 10
230.30382784547717
 20
113.7895154078831
 10
230.47378772037348
 20
113.32506912119635
 10
230.64295947065074
 20
112.8603351853005
 10
230.8113424360564
 20
112.39531487477018
 10
230.97893594782394
 20
111.93000946212638
 10
231.14573934372538
 20
111.46442022330321
 10
231.31175197327516
 20
110.99854843945032
 10
231.4769731757711
 20
110.53239538906902
 10
231.64140228894962
 20
110.0659623511587
 10
231.80503863624025
 20
109.5992506007893
 10
231.96788157374792
 20
109.13226142558868
 10
232.12993044039104
 20
108.66499610819331
 10
232.29118457500502
 20
108.19745593230655
 10
232.45164330316578
 20
107.7296421782026
 10
232.6113059210952
 20
107.26155611736301
 10
232.7701715687104
 20
106.79319896960264
 10
232.92823934992305
 20
106.32457194484763
 10
233.08550836123507
 20
105.85567625302562
 10
233.24197769803195
 20
105.3865131062406
 10
233.3976464733127
 20
104.91708372498111
 10
233.55251378649467
 20
104.44738932770879
 10
233.7065787359067
 20
103.9774311350724
 10
233.85984040062448
 20
103.50721036402554
 10
234.01229789429948
 20
103.03672824540593
 10
234.16395031275746
 20
102.56598600677991
 10
234.31479675011173
 20
102.0949848777743
 10
234.46483628828352
 20
101.62372608676124
 10
234.61406802277378
 20
101.15221086911815
 10
234.7624910524284
 20
100.68044046390011
 10
234.91010446738883
 20
100.20841611004784
 10
235.05690735784233
 20
99.73613904920292
 10
235.2028999335589
 20
99.26361087118798
 10
235.34808498038254
 20
98.79083395352245
 10
235.4924656252236
 20
98.31781075999525
 10
235.63604500138104
 20
97.84454373654205
 10
235.77882623300945
 20
97.37103530667201
 10
235.92081247786203
 20
96.89728788447351
 10
236.0620068905287
 20
96.42330386353277
 10
236.2024126280006
 20
95.94908561876395
 10
236.3420328446735
 20
95.47463550506015
 10
236.4808707062521
 20
94.99995586152225
 10
236.6189293958903
 20
94.5250490132804
 10
236.75621209142773
 20
94.04991726492365
 10
236.892721974409
 20
93.57456290327153
 10
237.02846221631205
 20
93.09898819356518
 10
237.16343602584982
 20
92.62319539306763
 10
237.29764659861902
 20
92.14718673672922
 10
237.4310960340299
 20
91.6709641343522
 10
237.5637829288803
 20
91.19452850750899
 10
237.69570520503456
 20
90.71788059615284
 10
237.82686078100912
 20
90.24102114831616
 10
237.957247567028
 20
89.76395091879547
 10
238.08686346540517
 20
89.2866706693464
 10
238.21570637396735
 20
88.80918116967796
 10
238.3437742081593
 20
88.33148320341044
 10
238.471064868409
 20
87.85357755926968
 10
238.59757625284698
 20
87.37546503458879
 10
238.72330624079808
 20
86.89714643100675
 10
238.84825274077323
 20
86.41862256713782
 10
238.97241364608888
 20
85.93989426685759
 10
239.0957868463243
 20
85.46096236238836
 10
239.2183702196849
 20
84.98182769240113
 10
239.34016205281787
 20
84.5024912085447
 10
239.46116463381384
 20
84.02295487892096
 10
239.58138253910118
 20
83.54322123201291
 10
239.7008203772007
 20
83.06329277875768
 10
239.81948275112094
 20
82.58317200321717
 10
239.93737430040588
 20
82.10286137314361
 10
240.05449965447656
 20
81.62236332855342
 10
240.17086344859763
 20
81.14168028588503
 10
240.2864703111923
 20
80.66081463513406
 10
240.4013248960924
 20
80.17976874779444
 10
240.5154318598688
 20
79.69854497150739
 10
240.6287958589424
 20
79.2171456295797
 10
240.74142154909447
 20
78.73557302108077
 10
240.853313589893
 20
78.25382942208049
 10
240.96447666086922
 20
77.77191708954855
 10
241.0749142107156
 20
77.28983797529034
 10
241.18462646834067
 20
76.80759328081825
 10
241.29361312309652
 20
76.32518408325042
 10
241.4018738941714
 20
75.84261146669647
 10
241.509408488219
 20
75.35987651263079
 10
241.61621661070777
 20
74.87698030249622
 10
241.72229795862592
 20
74.39392391612748
 10
241.82765223829122
 20
73.91070843569112
 10
241.93227916400252
 20
73.42733494533135
 10
242.03617844203643
 20
72.94380452769023
 10
242.13934977710042
 20
72.46011826534493
 10
242.24179286249156
 20
71.97627723876005
 10
242.3435074202481
 20
71.49228253478434
 10
242.4444931622399
 20
71.00813523834991
 10
242.54474992146922
 20
70.52383645971652
 10
242.64427764685257
 20
70.03938733270219
 10
242.74307631202294
 20
69.55478899535076
 10
242.84114588938178
 20
69.0700425845102
 10
242.93848634637854
 20
68.58514923511969
 10
243.03509764579854
 20
68.10011008030358
 10
243.1309797482747
 20
67.61492625191809
 10
243.22613263393723
 20
67.12959888480363
 10
243.32055627101076
 20
66.64412911055891
 10
243.41425062789426
 20
66.15851805996303
 10
243.50721565820166
 20
65.67276686013358
 10
243.5994513435865
 20
65.18687664274665
 10
243.69095765494484
 20
64.7008485365511
 10
243.7817343390473
 20
64.21468362770277
 10
243.8717801688642
 20
63.72838282228805
 10
243.96109366131316
 20
63.24194698405636
 10
244.0496733416579
 20
62.75537698424775
 10
244.13751772491355
 20
62.268673698196366
 10
244.22462532352748
 20
61.781838006787446
 10
244.31099463523557
 20
61.2948707943416
 10
244.396624187135
 20
60.807772956456546
 10
244.48151248924236
 20
60.320545391729205
 10
244.56565805042618
 20
59.83318900463969
 10
244.64905936688385
 20
59.34570470360606
 10
244.73171495104634
 20
58.85809340597423
 10
244.81362331435025
 20
58.370356035023775
 10
244.89478303139143
 20
57.882493530614994
 10
244.97519508154787
 20
57.39450723416079
 10
245.05486340612697
 20
56.90639896549044
 10
245.13379215359208
 20
56.418170558645635
 10
245.21198546317305
 20
55.92982382597839
 10
245.28944747760704
 20
55.441360560383345
 10
245.36618232876563
 20
54.95278253317433
 10
245.44219417766968
 20
54.464091500508424
 10
245.51748717918647
 20
53.975289197904075
 10
245.59206548841516
 20
53.48637734139978
 10
245.6659332559769
 20
52.997357626991246
 10
245.73909464025093
 20
52.50823173263178
 10
245.8115538132701
 20
52.01900131918768
 10
245.8833149193815
 20
51.52966802444384
 10
245.9543801771203
 20
51.04023318829637
 10
246.02474831860164
 20
50.550697638839814
 10
246.09441774249154
 20
50.06106216145751
 10
246.16338683080156
 20
49.571327545550595
 10
246.23165396463662
 20
49.08149458685416
 10
246.29921751411766
 20
48.591564086074335
 10
246.3660758624671
 20
48.10153685225223
 10
246.43222739457258
 20
47.61141370114676
 10
246.49767048834428
 20
47.12119545408521
 10
246.56240351764578
 20
46.630882938421756
 10
246.62642484920835
 20
46.14047698716921
 10
246.689732872145
 20
45.6499784428638
 10
246.7523260588767
 20
45.15938816516055
 10
246.81420452247596
 20
44.66870722653778
 10
246.87536973175168
 20
44.17793686765389
 10
246.93582322096813
 20
43.68707833016962
 10
246.99556651938136
 20
43.19613284778838
 10
247.05460115368442
 20
42.70510164661055
 10
247.11292864537307
 20
42.21398594487472
 10
247.17055051876545
 20
41.722786953956486
 10
247.2274683134169
 20
41.2315058798083
 10
247.2836835593219
 20
40.74014392005797
 10
247.33919778716637
 20
40.248702265262146
 10
247.39401251270485
 20
39.75718209719155
 10
247.44812928284568
 20
39.265584594010924
 10
247.50154912875985
 20
38.77391087088696
 10
247.5542707425015
 20
38.282161787332925
 10
247.60629212562685
 20
37.790338134782004
 10
247.65761128909136
 20
37.298440713821975
 10
247.70822624872238
 20
36.80647033369858
 10
247.7581350121177
 20
36.31442781097141
 10
247.8073355837948
 20
35.82231397011731
 10
247.85582595768187
 20
35.33012964282955
 10
247.90360415324767
 20
34.837875671608565
 10
247.95066817508777
 20
34.34555290575835
 10
247.99701602719074
 20
33.85316220285233
 10
248.04264570092863
 20
33.36070442765812
 10
248.08755522093517
 20
32.86818045640138
 10
248.13174376236307
 20
32.37559127652022
 10
248.17521247682453
 20
31.882938053278952
 10
248.2179627064478
 20
31.390221963067987
 10
248.25999579258743
 20
30.897444175899697
 10
248.30131309490673
 20
30.40460585702288
 10
248.34191596187893
 20
29.911708164404455
 10
248.3818057422894
 20
29.418752249750405
 10
248.42098377041157
 20
28.925739257368004
 10
248.45945140863282
 20
28.432670327583107
 10
248.4972100081286
 20
27.93954659357483
 10
248.5342609184793
 20
27.446369182196772
 10
248.57060548146922
 20
26.953139213557296
 10
248.60624525226794
 20
26.45985781697159
 10
248.64118369377783
 20
25.966526249654887
 10
248.67542528610701
 20
25.473145824531493
 10
248.7089745203026
 20
24.979717835906445
 10
248.7418358764444
 20
24.486243558084887
 10
248.77401386515635
 20
23.99272424827273
 10
248.80551298356457
 20
23.499161143723416
 10
248.8363377301936
 20
23.005555462895078
 10
248.86649259487572
 20
22.511908404968775
 10
248.89598208315192
 20
22.018221151489907
 10
248.92481070244375
 20
21.52449486560045
 10
248.95298295551112
 20
21.03073069180315
 10
248.98050280391195
 20
20.536929726436913
 10
249.00736974011505
 20
20.043092807093668
 10
249.0335810680074
 20
19.549220656471647
 10
249.0591340633047
 20
19.05531400637745
 10
249.08402600098438
 20
18.56137359931803
 10
249.1082541428376
 20
18.067400187957492
 10
249.13181577203147
 20
17.573394536861247
 10
249.15470816467004
 20
17.07935742110731
 10
249.17692859346812
 20
16.58528962653981
 10
249.19847432465554
 20
16.09119194970624
 10
249.21934262665968
 20
15.597065198305195
 10
249.23953078383968
 20
15.102910191772477
 10
249.25903773608738
 20
14.608727825459868
 10
249.27786685123064
 20
14.114519167851475
 10
249.29602221090624
 20
13.620285299917391
 10
249.31350792722128
 20
13.126027286852766
 10
249.33032809895707
 20
12.631746176517527
 10
249.3464868249824
 20
12.137443000071862
 10
249.3619881964527
 20
11.643118771848433
 10
249.37683631461456
 20
11.148774490038155
 10
249.3910352865119
 20
10.654411136609585
 10
249.40458921241455
 20
10.160029677052748
 10
249.41750219085054
 20
9.665631060655208
 10
249.4297778898664
 20
9.171216210164523
 10
249.44141580015773
 20
8.67678593609842
 10
249.4524129860324
 20
8.182340996335785
 10
249.46276648260624
 20
7.687882159475352
 10
249.4724733140625
 20
7.193410205418697
 10
249.4815305207958
 20
6.6989259259841845
 10
249.48993514148964
 20
6.2044301245568425
 10
249.4976842102073
 20
5.709923616115009
 10
249.50477475673398
 20
5.215407227319422
 10
249.5112038080835
 20
4.720881796618749
 10
249.51696877815985
 20
4.226348178672472
 10
249.52207422739323
 20
3.7318073111301
 10
249.5265312090936
 20
3.237260173011488
 10
249.53035100084696
 20
2.742707701680219
 10
249.53354490388074
 20
2.248150791037087
 10
249.5361242118922
 20
1.753590292001006
 10
249.53810021664282
 20
1.2590270133586334
 10
249.53948420434116
 20
0.7644617225516347
 10
249.5402874648798
 20
0.26989514649019464
 10
249.5404150720203
 20
0.0
  0
ENDSEC
  0
SECTION
  2
OBJECTS
  0
DICTIONARY
  5
A
330
0
100
AcDbDictionary
281
1
  3
ACAD_COLOR
350
B
  3
ACAD_GROUP
350
C
  3
ACAD_LAYOUT
350
D
  3
ACAD_MATERIAL
350
E
  3
ACAD_MLEADERSTYLE
350
F
  3
ACAD_MLINESTYLE
350
10
  3
ACAD_PLOTSETTINGS
350
11
  3
ACAD_PLOTSTYLENAME
350
12
  3
ACAD_SCALELIST
350
14
  3
ACAD_TABLESTYLE
350
15
  3
ACAD_VISUALSTYLE
350
16
  3
EZDXF_META
350
2D
  0
DICTIONARY
  5
B
330
A
100
AcDbDictionary
281
1
  0
DICTIONARY
  5
C
330
A
100
AcDbDictionary
281
1
  0
DICTIONARY
  5
D
330
A
100
AcDbDictionary
281
1
  3
Model
350
1A
  3
Layout1
350
1E
  0
DICTIONARY
  5
E
330
A
100
AcDbDictionary
281
1
  3
ByBlock
350
1F
  3
ByLayer
350
20
  3
Global
350
21
  0
DICTIONARY
  5
F
330
A
100
AcDbDictionary
281
1
  3
Standard
350
2C
  0
DICTIONARY
  5
10
330
A
100
AcDbDictionary
281
1
  3
Standard
350
22
  0
DICTIONARY
  5
11
330
A
100
AcDbDictionary
281
1
  0
ACDBDICTIONARYWDFLT
  5
12
330
A
100
AcDbDictionary
281
1
  3
Normal
350
13
100
AcDbDictionaryWithDefault
340
13
  0
ACDBPLACEHOLDER
  5
13
330
12
  0
DICTIONARY
  5
14
330
A
100
AcDbDictionary
281
1
  0
DICTIONARY
  5
15
330
A
100
AcDbDictionary
281
1
  0
DICTIONARY
  5
16
330
A
100
AcDbDictionary
281
1
  0
LAYOUT
  5
1A
330
D
100
AcDbPlotSettings
  1

  4
A3
  6

 40
7.5
 41
20.0
 42
7.5
 43
20.0
 44
420.0
 45
297.0
 46
0.0
 47
0.0
 48
0.0
 49
0.0
140
0.0
141
0.0
142
1.0
143
1.0
 70
1024
 72
1
 73
0
 74
5
  7

 75
16
 76
0
 77
2
 78
300
147
1.0
148
0.0
149
0.0
100
AcDbLayout
  1
Model
 70
1
 71
0
 10
0.0
 20
0.0
 11
420.0
 21
297.0
 12
0.0
 22
0.0
 32
0.0
 14
1e+20
 24
1e+20
 34
1e+20
 15
-1e+20
 25
-1e+20
 35
-1e+20
146
0.0
 13
0.0
 23
0.0
 33
0.0
 16
1.0
 26
0.0
 36
0.0
 17
0.0
 27
1.0
 37
0.0
 76
1
330
17
  0
LAYOUT
  5
1E
330
D
100
AcDbPlotSettings
  1

  4
A3
  6

 40
7.5
 41
20.0
 42
7.5
 43
20.0
 44
420.0
 45
297.0
 46
0.0
 47
0.0
 48
0.0
 49
0.0
140
0.0
141
0.0
142
1.0
143
1.0
 70
0
 72
1
 73
0
 74
5
  7

 75
16
 76
0
 77
2
 78
300
147
1.0
148
0.0
149
0.0
100
AcDbLayout
  1
Layout1
 70
1
 71
1
 10
0.0
 20
0.0
 11
420.0
 21
297.0
 12
0.0
 22
0.0
 32
0.0
 14
1e+20
 24
1e+20
 34
1e+20
 15
-1e+20
 25
-1e+20
 35
-1e+20
146
0.0
 13
0.0
 23
0.0
 33
0.0
 16
1.0
 26
0.0
 36
0.0
 17
0.0
 27
1.0
 37
0.0
 76
1
330
1B
  0
MATERIAL
  5
1F
102
{ACAD_REACTORS
330
E
102
}
330
E
100
AcDbMaterial
  1
ByBlock
  2

 70
0
 40
1.0
 71
1
 41
1.0
 91
-1023410177
 42
1.0
 72
1
  3

 73
1
 74
1
 75
1
 44
0.5
 73
0
 45
1.0
 46
1.0
 77
1
  4

 78
1
 79
1
170
1
 48
1.0
171
1
  6

172
1
173
1
174
1
140
1.0
141
1.0
175
1
  7

176
1
177
1
178
1
143
1.0
179
1
  8

270
1
271
1
272
1
145
1.0
146
1.0
273
1
  9

274
1
275
1
276
1
 42
1.0
 72
1
  3

 73
1
 74
1
 75
1
 94
63
  0
MATERIAL
  5
20
102
{ACAD_REACTORS
330
E
102
}
330
E
100
AcDbMaterial
  1
ByLayer
  2

 70
0
 40
1.0
 71
1
 41
1.0
 91
-1023410177
 42
1.0
 72
1
  3

 73
1
 74
1
 75
1
 44
0.5
 73
0
 45
1.0
 46
1.0
 77
1
  4

 78
1
 79
1
170
1
 48
1.0
171
1
  6

172
1
173
1
174
1
140
1.0
141
1.0
175
1
  7

176
1
177
1
178
1
143
1.0
179
1
  8

270
1
271
1
272
1
145
1.0
146
1.0
273
1
  9

274
1
275
1
276
1
 42
1.0
 72
1
  3

 73
1
 74
1
 75
1
 94
63
  0
MATERIAL
  5
21
102
{ACAD_REACTORS
330
E
102
}
330
E
100
AcDbMaterial
  1
Global
  2

 70
0
 40
1.0
 71
1
 41
1.0
 91
-1023410177
 42
1.0
 72
1
  3

 73
1
 74
1
 75
1
 44
0.5
 73
0
 45
1.0
 46
1.0
 77
1
  4

 78
1
 79
1
170
1
 48
1.0
171
1
  6

172
1
173
1
174
1
140
1.0
141
1.0
175
1
  7

176
1
177
1
178
1
143
1.0
179
1
  8

270
1
271
1
272
1
145
1.0
146
1.0
273
1
  9

274
1
275
1
276
1
 42
1.0
 72
1
  3

 73
1
 74
1
 75
1
 94
63
  0
MLINESTYLE
  5
22
102
{ACAD_REACTORS
330
10
102
}
330
10
100
AcDbMlineStyle
  2
Standard
 70
0
  3

 62
256
 51
90.0
 52
90.0
 71
2
 49
0.5
 62
256
  6
BYLAYER
 49
-0.5
 62
256
  6
BYLAYER
  0
MLEADERSTYLE
  5
2C
102
{ACAD_REACTORS
330
F
102
}
330
F
100
AcDbMLeaderStyle
179
2
170
2
171
1
172
0
 90
2
 40
0.0
 41
0.0
173
1
 91
-1056964608
 92
-2
290
1
 42
2.0
291
1
 43
8.0
  3
Standard
 44
4.0
300

342
29
174
1
175
1
176
0
178
1
 93
-1056964608
 45
4.0
292
0
297
0
 46
4.0
 94
-1056964608
 47
1.0
 49
1.0
140
1.0
294
1
141
0.0
177
0
142
1.0
295
0
296
0
143
3.75
271
0
272
9
273
9
  0
DICTIONARY
  5
2D
330
A
100
AcDbDictionary
280
1
281
1
  3
CREATED_BY_EZDXF
350
2E
  3
WRITTEN_BY_EZDXF
350
32
  0
DICTIONARYVAR
  5
2E
330
2D
100
DictionaryVariables
280
0
  1
1.4.3 @ 2026-01-30T02:02:03.329924+00:00
  0
DICTIONARYVAR
  5
32
330
2D
100
DictionaryVariables
280
0
  1
1.4.3 @ 2026-01-30T02:02:03.345700+00:00
  0
ENDSEC
  0
EOF
