  0
SECTION
  2
HEADER
  9
$ACADVER
  1
AC1015
  9
$ACADMAINTVER
 70
6
  9
$DWGCODEPAGE
  3
ANSI_1252
  9
$INSBASE
 10
0.0
 20
0.0
 30
0.0
  9
$EXTMIN
 10
1e+20
 20
1e+20
 30
1e+20
  9
$EXTMAX
 10
-1e+20
 20
-1e+20
 30
-1e+20
  9
$LIMMIN
 10
0.0
 20
0.0
  9
$LIMMAX
 10
420.0
 20
297.0
  9
$ORTHOMODE
 70
0
  9
$REGENMODE
 70
1
  9
$FILLMODE
 70
1
  9
$QTEXTMODE
 70
0
  9
$MIRRTEXT
 70
1
  9
$LTSCALE
 40
1.0
  9
$ATTMODE
 70
1
  9
$TEXTSIZE
 40
2.5
  9
$TRACEWID
 40
1.0
  9
$TEXTSTYLE
  7
Standard
  9
$CLAYER
  8
0
  9
$CELTYPE
  6
ByLayer
  9
$CECOLOR
 62
256
  9
$CELTSCALE
 40
1.0
  9
$DISPSILH
 70
0
  9
$DIMSCALE
 40
1.0
  9
$DIMASZ
 40
2.5
  9
$DIMEXO
 40
0.625
  9
$DIMDLI
 40
3.75
  9
$DIMRND
 40
0.0
  9
$DIMDLE
 40
0.0
  9
$DIMEXE
 40
1.25
  9
$DIMTP
 40
0.0
  9
$DIMTM
 40
0.0
  9
$DIMTXT
 40
2.5
  9
$DIMCEN
 40
2.5
  9
$DIMTSZ
 40
0.0
  9
$DIMTOL
 70
0
  9
$DIMLIM
 70
0
  9
$DIMTIH
 70
0
  9
$DIMTOH
 70
0
  9
$DIMSE1
 70
0
  9
$DIMSE2
 70
0
  9
$DIMTAD
 70
1
  9
$DIMZIN
 70
8
  9
$DIMBLK
  1

  9
$DIMASO
 70
1
  9
$DIMSHO
 70
1
  9
$DIMPOST
  1

  9
$DIMAPOST
  1

  9
$DIMALT
 70
0
  9
$DIMALTD
 70
3
  9
$DIMALTF
 40
0.03937007874
  9
$DIMLFAC
 40
1.0
  9
$DIMTOFL
 70
1
  9
$DIMTVP
 40
0.0
  9
$DIMTIX
 70
0
  9
$DIMSOXD
 70
0
  9
$DIMSAH
 70
0
  9
$DIMBLK1
  1

  9
$DIMBLK2
  1

  9
$DIMSTYLE
  2
ISO-25
  9
$DIMCLRD
 70
0
  9
$DIMCLRE
 70
0
  9
$DIMCLRT
 70
0
  9
$DIMTFAC
 40
1.0
  9
$DIMGAP
 40
0.625
  9
$DIMJUST
 70
0
  9
$DIMSD1
 70
0
  9
$DIMSD2
 70
0
  9
$DIMTOLJ
 70
0
  9
$DIMTZIN
 70
8
  9
$DIMALTZ
 70
0
  9
$DIMALTTZ
 70
0
  9
$DIMUPT
 70
0
  9
$DIMDEC
 70
2
  9
$DIMTDEC
 70
2
  9
$DIMALTU
 70
2
  9
$DIMALTTD
 70
3
  9
$DIMTXSTY
  7
Standard
  9
$DIMAUNIT
 70
0
  9
$DIMADEC
 70
0
  9
$DIMALTRND
 40
0.0
  9
$DIMAZIN
 70
0
  9
$DIMDSEP
 70
44
  9
$DIMATFIT
 70
3
  9
$DIMFRAC
 70
0
  9
$DIMLDRBLK
  1

  9
$DIMLUNIT
 70
2
  9
$DIMLWD
 70
-2
  9
$DIMLWE
 70
-2
  9
$DIMTMOVE
 70
0
  9
$LUNITS
 70
2
  9
$LUPREC
 70
4
  9
$SKETCHINC
 40
1.0
  9
$FILLETRAD
 40
10.0
  9
$AUNITS
 70
0
  9
$AUPREC
 70
2
  9
$MENU
  1
.
  9
$ELEVATION
 40
0.0
  9
$PELEVATION
 40
0.0
  9
$THICKNESS
 40
0.0
  9
$LIMCHECK
 70
0
  9
$CHAMFERA
 40
0.0
  9
$CHAMFERB
 40
0.0
  9
$CHAMFERC
 40
0.0
  9
$CHAMFERD
 40
0.0
  9
$SKPOLY
 70
0
  9
$TDCREATE
 40
2461028.5596180554
  9
$TDUCREATE
 40
2458532.153996898
  9
$TDUPDATE
 40
2461028.5596180554
  9
$TDUUPDATE
 40
2458532.1544311
  9
$TDINDWG
 40
0.0
  9
$TDUSRTIMER
 40
0.0
  9
$USRTIMER
 70
1
  9
$ANGBASE
 50
0.0
  9
$ANGDIR
 70
0
  9
$PDMODE
 70
0
  9
$PDSIZE
 40
0.0
  9
$PLINEWID
 40
0.0
  9
$SPLFRAME
 70
0
  9
$SPLINETYPE
 70
6
  9
$SPLINESEGS
 70
8
  9
$HANDSEED
  5
5D2
  9
$SURFTAB1
 70
6
  9
$SURFTAB2
 70
6
  9
$SURFTYPE
 70
6
  9
$SURFU
 70
6
  9
$SURFV
 70
6
  9
$UCSBASE
  2

  9
$UCSNAME
  2

  9
$UCSORG
 10
0.0
 20
0.0
 30
0.0
  9
$UCSXDIR
 10
1.0
 20
0.0
 30
0.0
  9
$UCSYDIR
 10
0.0
 20
1.0
 30
0.0
  9
$UCSORTHOREF
  2

  9
$UCSORTHOVIEW
 70
0
  9
$UCSORGTOP
 10
0.0
 20
0.0
 30
0.0
  9
$UCSORGBOTTOM
 10
0.0
 20
0.0
 30
0.0
  9
$UCSORGLEFT
 10
0.0
 20
0.0
 30
0.0
  9
$UCSORGRIGHT
 10
0.0
 20
0.0
 30
0.0
  9
$UCSORGFRONT
 10
0.0
 20
0.0
 30
0.0
  9
$UCSORGBACK
 10
0.0
 20
0.0
 30
0.0
  9
$PUCSBASE
  2

  9
$PUCSNAME
  2

  9
$PUCSORG
 10
0.0
 20
0.0
 30
0.0
  9
$PUCSXDIR
 10
1.0
 20
0.0
 30
0.0
  9
$PUCSYDIR
 10
0.0
 20
1.0
 30
0.0
  9
$PUCSORTHOREF
  2

  9
$PUCSORTHOVIEW
 70
0
  9
$PUCSORGTOP
 10
0.0
 20
0.0
 30
0.0
  9
$PUCSORGBOTTOM
 10
0.0
 20
0.0
 30
0.0
  9
$PUCSORGLEFT
 10
0.0
 20
0.0
 30
0.0
  9
$PUCSORGRIGHT
 10
0.0
 20
0.0
 30
0.0
  9
$PUCSORGFRONT
 10
0.0
 20
0.0
 30
0.0
  9
$PUCSORGBACK
 10
0.0
 20
0.0
 30
0.0
  9
$USERI1
 70
0
  9
$USERI2
 70
0
  9
$USERI3
 70
0
  9
$USERI4
 70
0
  9
$USERI5
 70
0
  9
$USERR1
 40
0.0
  9
$USERR2
 40
0.0
  9
$USERR3
 40
0.0
  9
$USERR4
 40
0.0
  9
$USERR5
 40
0.0
  9
$WORLDVIEW
 70
1
  9
$SHADEDGE
 70
3
  9
$SHADEDIF
 70
70
  9
$TILEMODE
 70
1
  9
$MAXACTVP
 70
64
  9
$PINSBASE
 10
0.0
 20
0.0
 30
0.0
  9
$PLIMCHECK
 70
0
  9
$PEXTMIN
 10
1e+20
 20
1e+20
 30
1e+20
  9
$PEXTMAX
 10
-1e+20
 20
-1e+20
 30
-1e+20
  9
$PLIMMIN
 10
0.0
 20
0.0
  9
$PLIMMAX
 10
420.0
 20
297.0
  9
$UNITMODE
 70
0
  9
$VISRETAIN
 70
1
  9
$PLINEGEN
 70
0
  9
$PSLTSCALE
 70
1
  9
$TREEDEPTH
 70
3020
  9
$CMLSTYLE
  2
Standard
  9
$CMLJUST
 70
0
  9
$CMLSCALE
 40
20.0
  9
$PROXYGRAPHICS
 70
1
  9
$MEASUREMENT
 70
1
  9
$CELWEIGHT
370
-1
  9
$ENDCAPS
280
0
  9
$JOINSTYLE
280
0
  9
$LWDISPLAY
290
0
  9
$INSUNITS
 70
6
  9
$HYPERLINKBASE
  1

  9
$STYLESHEET
  1

  9
$XEDIT
290
1
  9
$CEPSNTYPE
380
0
  9
$PSTYLEMODE
290
1
  9
$FINGERPRINTGUID
  2
{895C94BC-1895-4376-946B-EF22AAE3F299}
  9
$VERSIONGUID
  2
{0EE3B8E8-10F5-49A7-A758-DFDA0F3968C4}
  9
$EXTNAMES
290
1
  9
$PSVPSCALE
 40
0.0
  9
$OLESTARTUP
290
0
  0
ENDSEC
  0
SECTION
  2
CLASSES
  0
CLASS
  1
ACDBDICTIONARYWDFLT
  2
AcDbDictionaryWithDefault
  3
ObjectDBX Classes
 90
0
280
0
281
0
  0
CLASS
  1
SUN
  2
AcDbSun
  3
SCENEOE
 90
1153
280
0
281
0
  0
CLASS
  1
VISUALSTYLE
  2
AcDbVisualStyle
  3
ObjectDBX Classes
 90
4095
280
0
281
0
  0
CLASS
  1
MATERIAL
  2
AcDbMaterial
  3
ObjectDBX Classes
 90
1153
280
0
281
0
  0
CLASS
  1
SCALE
  2
AcDbScale
  3
ObjectDBX Classes
 90
1153
280
0
281
0
  0
CLASS
  1
TABLESTYLE
  2
AcDbTableStyle
  3
ObjectDBX Classes
 90
4095
280
0
281
0
  0
CLASS
  1
MLEADERSTYLE
  2
AcDbMLeaderStyle
  3
ACDB_MLEADERSTYLE_CLASS
 90
4095
280
0
281
0
  0
CLASS
  1
DICTIONARYVAR
  2
AcDbDictionaryVar
  3
ObjectDBX Classes
 90
0
280
0
281
0
  0
CLASS
  1
CELLSTYLEMAP
  2
AcDbCellStyleMap
  3
ObjectDBX Classes
 90
1152
280
0
281
0
  0
CLASS
  1
MENTALRAYRENDERSETTINGS
  2
AcDbMentalRayRenderSettings
  3
SCENEOE
 90
1024
280
0
281
0
  0
CLASS
  1
ACDBDETAILVIEWSTYLE
  2
AcDbDetailViewStyle
  3
ObjectDBX Classes
 90
1025
280
0
281
0
  0
CLASS
  1
ACDBSECTIONVIEWSTYLE
  2
AcDbSectionViewStyle
  3
ObjectDBX Classes
 90
1025
280
0
281
0
  0
CLASS
  1
RASTERVARIABLES
  2
AcDbRasterVariables
  3
ISM
 90
0
280
0
281
0
  0
CLASS
  1
ACDBPLACEHOLDER
  2
AcDbPlaceHolder
  3
ObjectDBX Classes
 90
0
280
0
281
0
  0
CLASS
  1
LAYOUT
  2
AcDbLayout
  3
ObjectDBX Classes
 90
0
280
0
281
0
  0
ENDSEC
  0
SECTION
  2
TABLES
  0
TABLE
  2
VPORT
  5
8
330
0
100
AcDbSymbolTable
 70
1
  0
VPORT
  5
23
330
8
100
AcDbSymbolTableRecord
100
AcDbViewportTableRecord
  2
*Active
 70
0
 10
0.0
 20
0.0
 11
1.0
 21
1.0
 12
0.0
 22
0.0
 13
0.0
 23
0.0
 14
0.5
 24
0.5
 15
0.5
 25
0.5
 16
0.0
 26
0.0
 36
1.0
 17
0.0
 27
0.0
 37
0.0
 40
1000.0
 41
1.34
 42
50.0
 43
0.0
 44
0.0
 50
0.0
 51
0.0
 71
0
 72
1000
 73
1
 74
3
 75
0
 76
0
 77
0
 78
0
281
0
 65
0
146
0.0
  0
ENDTAB
  0
TABLE
  2
LTYPE
  5
2
330
0
100
AcDbSymbolTable
 70
3
  0
LTYPE
  5
24
330
2
100
AcDbSymbolTableRecord
100
AcDbLinetypeTableRecord
  2
ByBlock
 70
0
  3

 72
65
 73
0
 40
0.0
  0
LTYPE
  5
25
330
2
100
AcDbSymbolTableRecord
100
AcDbLinetypeTableRecord
  2
ByLayer
 70
0
  3

 72
65
 73
0
 40
0.0
  0
LTYPE
  5
26
330
2
100
AcDbSymbolTableRecord
100
AcDbLinetypeTableRecord
  2
Continuous
 70
0
  3

 72
65
 73
0
 40
0.0
  0
ENDTAB
  0
TABLE
  2
LAYER
  5
1
330
0
100
AcDbSymbolTable
 70
2
  0
LAYER
  5
27
330
1
100
AcDbSymbolTableRecord
100
AcDbLayerTableRecord
  2
0
 70
0
 62
7
  6
Continuous
370
-3
390
13
  0
LAYER
  5
28
330
1
100
AcDbSymbolTableRecord
100
AcDbLayerTableRecord
  2
Defpoints
 70
0
 62
7
  6
Continuous
290
0
370
-3
390
13
  0
ENDTAB
  0
TABLE
  2
STYLE
  5
5
330
0
100
AcDbSymbolTable
 70
1
  0
STYLE
  5
29
330
5
100
AcDbSymbolTableRecord
100
AcDbTextStyleTableRecord
  2
Standard
 70
0
 40
0.0
 41
1.0
 50
0.0
 71
0
 42
2.5
  3
txt
  4

  0
ENDTAB
  0
TABLE
  2
VIEW
  5
7
330
0
100
AcDbSymbolTable
 70
0
  0
ENDTAB
  0
TABLE
  2
UCS
  5
6
330
0
100
AcDbSymbolTable
 70
0
  0
ENDTAB
  0
TABLE
  2
APPID
  5
3
330
0
100
AcDbSymbolTable
 70
3
  0
APPID
  5
2A
330
3
100
AcDbSymbolTableRecord
100
AcDbRegAppTableRecord
  2
ACAD
 70
0
  0
APPID
  5
5CF
330
3
100
AcDbSymbolTableRecord
100
AcDbRegAppTableRecord
  2
HATCHBACKGROUNDCOLOR
 70
0
  0
APPID
  5
5D0
330
3
100
AcDbSymbolTableRecord
100
AcDbRegAppTableRecord
  2
EZDXF
 70
0
  0
ENDTAB
  0
TABLE
  2
DIMSTYLE
  5
4
330
0
100
AcDbSymbolTable
 70
1
100
AcDbDimStyleTable
  0
DIMSTYLE
105
2B
330
4
100
AcDbSymbolTableRecord
100
AcDbDimStyleTableRecord
  2
Standard
 70
0
  3

  4

 40
1.0
 41
2.5
 42
0.625
 43
3.75
 44
1.25
 45
0.0
 46
0.0
 47
0.0
 48
0.0
140
2.5
141
2.5
142
0.0
143
0.03937007874
144
1.0
145
0.0
146
1.0
147
0.625
148
0.0
 71
0
 72
0
 73
0
 74
0
 75
0
 76
0
 77
1
 78
8
 79
3
170
0
171
3
172
1
173
0
174
0
175
0
176
0
177
0
178
0
179
2
271
2
272
2
273
2
274
3
275
0
276
0
277
2
278
44
279
0
280
0
281
0
282
0
283
0
284
8
285
0
286
0
288
0
289
3
371
-2
372
-2
  0
ENDTAB
  0
TABLE
  2
BLOCK_RECORD
  5
9
330
0
100
AcDbSymbolTable
 70
2
  0
BLOCK_RECORD
  5
17
330
9
100
AcDbSymbolTableRecord
100
AcDbBlockTableRecord
  2
*Model_Space
340
1A
  0
BLOCK_RECORD
  5
1B
330
9
100
AcDbSymbolTableRecord
100
AcDbBlockTableRecord
  2
*Paper_Space
340
1E
  0
ENDTAB
  0
ENDSEC
  0
SECTION
  2
BLOCKS
  0
BLOCK
  5
18
330
17
100
AcDbEntity
  8
0
100
AcDbBlockBegin
  2
*Model_Space
 70
0
 10
0.0
 20
0.0
 30
0.0
  3
*Model_Space
  1

  0
ENDBLK
  5
19
330
17
100
AcDbEntity
  8
0
100
AcDbBlockEnd
  0
BLOCK
  5
1C
330
1B
100
AcDbEntity
  8
0
100
AcDbBlockBegin
  2
*Paper_Space
 70
0
 10
0.0
 20
0.0
 30
0.0
  3
*Paper_Space
  1

  0
ENDBLK
  5
1D
330
1B
100
AcDbEntity
  8
0
100
AcDbBlockEnd
  0
ENDSEC
  0
SECTION
  2
ENTITIES
  0
POINT
  5
2F
330
17
100
AcDbEntity
  8
0
100
AcDbPoint
 10
275.0
 20
74.89763477408938
 30
0.0
  0
POINT
  5
30
330
17
100
AcDbEntity
  8
0
100
AcDbPoint
 10
274.75
 20
74.89763477408938
 30
0.0
  0
POINT
  5
31
330
17
100
AcDbEntity
  8
0
100
AcDbPoint
 10
274.5
 20
74.61999802981163
 30
0.0
  0
POINT
  5
32
330
17
100
AcDbEntity
  8
0
100
AcDbPoint
 10
274.25
 20
75.21171067756543
 30
0.0
  0
POINT
  5
33
330
17
100
AcDbEntity
  8
0
100
AcDbPoint
 10
274.0
 20
74.93054959328084
 30
0.0
  0
POINT
  5
34
330
17
100
AcDbEntity
  8
0
100
AcDbPoint
 10
273.75
 20
74.65093204464442
 30
0.0
  0
POINT
  5
35
330
17
100
AcDbEntity
  8
0
100
AcDbPoint
 10
273.5
 20
75.24109665556891
 30
0.0
  0
POINT
  5
36
330
17
100
AcDbEntity
  8
0
100
AcDbPoint
 10
273.25
 20
74.66850810380869
 30
0.0
  0
POINT
  5
37
330
17
100
AcDbEntity
  8
0
100
AcDbPoint
 10
273.0
 20
74.96586745475086
 30
0.0
  0
POINT
  5
38
330
17
100
AcDbEntity
  8
0
100
AcDbPoint
 10
272.75
 20
75.26494086164683
 30
0.0
  0
POINT
  5
39
330
17
100
AcDbEntity
  8
0
100
AcDbPoint
 10
272.5
 20
74.69029945792134
 30
0.0
  0
POINT
  5
3A
330
17
100
AcDbEntity
  8
0
100
AcDbPoint
 10
272.25
 20
74.98592588027849
 30
0.0
  0
POINT
  5
3B
330
17
100
AcDbEntity
  8
0
100
AcDbPoint
 10
272.0
 20
74.70177331767546
 30
0.0
  0
POINT
  5
3C
330
17
100
AcDbEntity
  8
0
100
AcDbPoint
 10
271.75
 20
75.28810870354432
 30
0.0
  0
POINT
  5
3D
330
17
100
AcDbEntity
  8
0
100
AcDbPoint
 10
271.5
 20
74.71080052940738
 30
0.0
  0
POINT
  5
3E
330
17
100
AcDbEntity
  8
0
100
AcDbPoint
 10
271.25
 20
75.2959910210876
 30
0.0
  0
POINT
  5
3F
330
17
100
AcDbEntity
  8
0
100
AcDbPoint
 10
271.0
 20
74.71738890124627
 30
0.0
  0
POINT
  5
40
330
17
100
AcDbEntity
  8
0
100
AcDbPoint
 10
270.75
 20
75.00945973511213
 30
0.0
  0
POINT
  5
41
330
17
100
AcDbEntity
  8
0
100
AcDbPoint
 10
270.5
 20
75.01123312098119
 30
0.0
  0
POINT
  5
42
330
17
100
AcDbEntity
  8
0
100
AcDbPoint
 10
270.25
 20
74.72268363835455
 30
0.0
  0
POINT
  5
43
330
17
100
AcDbEntity
  8
0
100
AcDbPoint
 10
270.0
 20
75.30489998692211
 30
0.0
  0
POINT
  5
44
330
17
100
AcDbEntity
  8
0
100
AcDbPoint
 10
269.75
 20
74.7231549328787
 30
0.0
  0
POINT
  5
45
330
17
100
AcDbEntity
  8
0
100
AcDbPoint
 10
269.5
 20
75.3041443245086
 30
0.0
  0
POINT
  5
46
330
17
100
AcDbEntity
  8
0
100
AcDbPoint
 10
269.25
 20
74.72118659738105
 30
0.0
  0
POINT
  5
47
330
17
100
AcDbEntity
  8
0
100
AcDbPoint
 10
269.0
 20
75.00897697217123
 30
0.0
  0
POINT
  5
48
330
17
100
AcDbEntity
  8
0
100
AcDbPoint
 10
268.75
 20
75.00645157835183
 30
0.0
  0
POINT
  5
49
330
17
100
AcDbEntity
  8
0
100
AcDbPoint
 10
268.5
 20
75.00331348563671
 30
0.0
  0
POINT
  5
4A
330
17
100
AcDbEntity
  8
0
100
AcDbPoint
 10
268.25
 20
74.99956273749424
 30
0.0
  0
POINT
  5
4B
330
17
100
AcDbEntity
  8
0
100
AcDbPoint
 10
268.0
 20
74.70557096037751
 30
0.0
  0
POINT
  5
4C
330
17
100
AcDbEntity
  8
0
100
AcDbPoint
 10
267.75
 20
75.28207379411275
 30
0.0
  0
POINT
  5
4D
330
17
100
AcDbEntity
  8
0
100
AcDbPoint
 10
267.5
 20
74.98462588056078
 30
0.0
  0
POINT
  5
4E
330
17
100
AcDbEntity
  8
0
100
AcDbPoint
 10
267.25
 20
74.97842521230743
 30
0.0
  0
POINT
  5
4F
330
17
100
AcDbEntity
  8
0
100
AcDbPoint
 10
267.0
 20
74.97161228672675
 30
0.0
  0
POINT
  5
50
330
17
100
AcDbEntity
  8
0
100
AcDbPoint
 10
266.75
 20
74.96418721204348
 30
0.0
  0
POINT
  5
51
330
17
100
AcDbEntity
  8
0
100
AcDbPoint
 10
266.5
 20
74.95615010238222
 30
0.0
  0
POINT
  5
52
330
17
100
AcDbEntity
  8
0
100
AcDbPoint
 10
266.25
 20
74.94750109025055
 30
0.0
  0
POINT
  5
53
330
17
100
AcDbEntity
  8
0
100
AcDbPoint
 10
266.0
 20
74.9382403048027
 30
0.0
  0
POINT
  5
54
330
17
100
AcDbEntity
  8
0
100
AcDbPoint
 10
265.75
 20
75.21993209367602
 30
0.0
  0
POINT
  5
55
330
17
100
AcDbEntity
  8
0
100
AcDbPoint
 10
265.5
 20
74.917892237026
 30
0.0
  0
POINT
  5
56
330
17
100
AcDbEntity
  8
0
100
AcDbPoint
 10
265.25
 20
74.90680633781146
 30
0.0
  0
POINT
  5
57
330
17
100
AcDbEntity
  8
0
100
AcDbPoint
 10
265.0
 20
74.8951093189366
 30
0.0
  0
POINT
  5
58
330
17
100
AcDbEntity
  8
0
100
AcDbPoint
 10
264.75
 20
75.17414849554908
 30
0.0
  0
POINT
  5
59
330
17
100
AcDbEntity
  8
0
100
AcDbPoint
 10
264.5
 20
74.86989054944384
 30
0.0
  0
POINT
  5
5A
330
17
100
AcDbEntity
  8
0
100
AcDbPoint
 10
264.25
 20
74.85637057516392
 30
0.0
  0
POINT
  5
5B
330
17
100
AcDbEntity
  8
0
100
AcDbPoint
 10
264.0
 20
75.13339429510144
 30
0.0
  0
POINT
  5
5C
330
17
100
AcDbEntity
  8
0
100
AcDbPoint
 10
263.75
 20
75.11859185371337
 30
0.0
  0
POINT
  5
5D
330
17
100
AcDbEntity
  8
0
100
AcDbPoint
 10
263.5
 20
74.81217406492853
 30
0.0
  0
POINT
  5
5E
330
17
100
AcDbEntity
  8
0
100
AcDbPoint
 10
263.25
 20
74.79623268556847
 30
0.0
  0
POINT
  5
5F
330
17
100
AcDbEntity
  8
0
100
AcDbPoint
 10
263.0
 20
75.07053844816987
 30
0.0
  0
POINT
  5
60
330
17
100
AcDbEntity
  8
0
100
AcDbPoint
 10
262.75
 20
75.05330469537674
 30
0.0
  0
POINT
  5
61
330
17
100
AcDbEntity
  8
0
100
AcDbPoint
 10
262.5
 20
75.0354684037544
 30
0.0
  0
POINT
  5
62
330
17
100
AcDbEntity
  8
0
100
AcDbPoint
 10
262.25
 20
74.72642543926186
 30
0.0
  0
POINT
  5
63
330
17
100
AcDbEntity
  8
0
100
AcDbPoint
 10
262.0
 20
75.29076428256403
 30
0.0
  0
POINT
  5
64
330
17
100
AcDbEntity
  8
0
100
AcDbPoint
 10
261.75
 20
74.68791568831371
 30
0.0
  0
POINT
  5
65
330
17
100
AcDbEntity
  8
0
100
AcDbPoint
 10
261.5
 20
74.95808640267913
 30
0.0
  0
POINT
  5
66
330
17
100
AcDbEntity
  8
0
100
AcDbPoint
 10
261.25
 20
74.93723247801944
 30
0.0
  0
POINT
  5
67
330
17
100
AcDbEntity
  8
0
100
AcDbPoint
 10
261.0
 20
74.915777817543
 30
0.0
  0
POINT
  5
68
330
17
100
AcDbEntity
  8
0
100
AcDbPoint
 10
260.75
 20
75.18600955067194
 30
0.0
  0
POINT
  5
69
330
17
100
AcDbEntity
  8
0
100
AcDbPoint
 10
260.5
 20
74.58115879888894
 30
0.0
  0
POINT
  5
6A
330
17
100
AcDbEntity
  8
0
100
AcDbPoint
 10
260.25
 20
75.13989034685801
 30
0.0
  0
POINT
  5
6B
330
17
100
AcDbEntity
  8
0
100
AcDbPoint
 10
260.0
 20
74.82397517984472
 30
0.0
  0
POINT
  5
6C
330
17
100
AcDbEntity
  8
0
100
AcDbPoint
 10
259.75
 20
75.09137057798972
 30
0.0
  0
POINT
  5
6D
330
17
100
AcDbEntity
  8
0
100
AcDbPoint
 10
259.5
 20
74.77449578001628
 30
0.0
  0
POINT
  5
6E
330
17
100
AcDbEntity
  8
0
100
AcDbPoint
 10
259.25
 20
74.74886430594518
 30
0.0
  0
POINT
  5
6F
330
17
100
AcDbEntity
  8
0
100
AcDbPoint
 10
259.0
 20
75.01410898022232
 30
0.0
  0
POINT
  5
70
330
17
100
AcDbEntity
  8
0
100
AcDbPoint
 10
258.75
 20
74.98716236409831
 30
0.0
  0
POINT
  5
71
330
17
100
AcDbEntity
  8
0
100
AcDbPoint
 10
258.5
 20
74.95962506266004
 30
0.0
  0
POINT
  5
72
330
17
100
AcDbEntity
  8
0
100
AcDbPoint
 10
258.25
 20
74.64041183980731
 30
0.0
  0
POINT
  5
73
330
17
100
AcDbEntity
  8
0
100
AcDbPoint
 10
258.0
 20
75.19600092463001
 30
0.0
  0
POINT
  5
74
330
17
100
AcDbEntity
  8
0
100
AcDbPoint
 10
257.75
 20
74.58265121491658
 30
0.0
  0
POINT
  5
75
330
17
100
AcDbEntity
  8
0
100
AcDbPoint
 10
257.5
 20
74.84356064595657
 30
0.0
  0
POINT
  5
76
330
17
100
AcDbEntity
  8
0
100
AcDbPoint
 10
257.25
 20
75.10586973422781
 30
0.0
  0
POINT
  5
77
330
17
100
AcDbEntity
  8
0
100
AcDbPoint
 10
257.0
 20
74.78199289543048
 30
0.0
  0
POINT
  5
78
330
17
100
AcDbEntity
  8
0
100
AcDbPoint
 10
256.75
 20
74.75033303262549
 30
0.0
  0
POINT
  5
79
330
17
100
AcDbEntity
  8
0
100
AcDbPoint
 10
256.5
 20
74.7180860940548
 30
0.0
  0
POINT
  5
7A
330
17
100
AcDbEntity
  8
0
100
AcDbPoint
 10
256.25
 20
74.97744911220374
 30
0.0
  0
POINT
  5
7B
330
17
100
AcDbEntity
  8
0
100
AcDbPoint
 10
256.0
 20
74.94387897189591
 30
0.0
  0
POINT
  5
7C
330
17
100
AcDbEntity
  8
0
100
AcDbPoint
 10
255.75
 20
74.61785046785994
 30
0.0
  0
POINT
  5
7D
330
17
100
AcDbEntity
  8
0
100
AcDbPoint
 10
255.5
 20
74.8749931827843
 30
0.0
  0
POINT
  5
7E
330
17
100
AcDbEntity
  8
0
100
AcDbPoint
 10
255.25
 20
74.83967754390726
 30
0.0
  0
POINT
  5
7F
330
17
100
AcDbEntity
  8
0
100
AcDbPoint
 10
255.0
 20
74.80378419779078
 30
0.0
  0
POINT
  5
80
330
17
100
AcDbEntity
  8
0
100
AcDbPoint
 10
254.75
 20
74.76731368274432
 30
0.0
  0
POINT
  5
81
330
17
100
AcDbEntity
  8
0
100
AcDbPoint
 10
254.5
 20
74.73026653846216
 30
0.0
  0
POINT
  5
82
330
17
100
AcDbEntity
  8
0
100
AcDbPoint
 10
254.25
 20
74.98578650338537
 30
0.0
  0
POINT
  5
83
330
17
100
AcDbEntity
  8
0
100
AcDbPoint
 10
254.0
 20
74.3637713912408
 30
0.0
  0
POINT
  5
84
330
17
100
AcDbEntity
  8
0
100
AcDbPoint
 10
253.75
 20
75.20354492325318
 30
0.0
  0
POINT
  5
85
330
17
100
AcDbEntity
  8
0
100
AcDbPoint
 10
253.5
 20
74.57634657482582
 30
0.0
  0
POINT
  5
86
330
17
100
AcDbEntity
  8
0
100
AcDbPoint
 10
253.25
 20
63.9863927558897
 30
0.0
  0
POINT
  5
87
330
17
100
AcDbEntity
  8
0
100
AcDbPoint
 10
253.0
 20
112.46040927208234
 30
0.0
  0
POINT
  5
88
330
17
100
AcDbEntity
  8
0
100
AcDbPoint
 10
252.75
 20
63.91565205159859
 30
0.0
  0
POINT
  5
89
330
17
100
AcDbEntity
  8
0
100
AcDbPoint
 10
252.5
 20
74.99927720754573
 30
0.0
  0
POINT
  5
8A
330
17
100
AcDbEntity
  8
0
100
AcDbPoint
 10
252.25
 20
74.37116674515849
 30
0.0
  0
POINT
  5
8B
330
17
100
AcDbEntity
  8
0
100
AcDbPoint
 10
252.0
 20
74.91358629188345
 30
0.0
  0
POINT
  5
8C
330
17
100
AcDbEntity
  8
0
100
AcDbPoint
 10
251.75
 20
74.86989625011984
 30
0.0
  0
POINT
  5
8D
330
17
100
AcDbEntity
  8
0
100
AcDbPoint
 10
251.5
 20
74.53233823968124
 30
0.0
  0
POINT
  5
8E
330
17
100
AcDbEntity
  8
0
100
AcDbPoint
 10
251.25
 20
74.78083630642386
 30
0.0
  0
POINT
  5
8F
330
17
100
AcDbEntity
  8
0
100
AcDbPoint
 10
251.0
 20
74.44258034587561
 30
0.0
  0
POINT
  5
90
330
17
100
AcDbEntity
  8
0
100
AcDbPoint
 10
250.75
 20
74.68953599147979
 30
0.0
  0
POINT
  5
91
330
17
100
AcDbEntity
  8
0
100
AcDbPoint
 10
250.5
 20
74.93781595824656
 30
0.0
  0
POINT
  5
92
330
17
100
AcDbEntity
  8
0
100
AcDbPoint
 10
250.25
 20
74.59601922485798
 30
0.0
  0
POINT
  5
93
330
17
100
AcDbEntity
  8
0
100
AcDbPoint
 10
250.0
 20
74.54843567742304
 30
0.0
  0
POINT
  5
94
330
17
100
AcDbEntity
  8
0
100
AcDbPoint
 10
249.75
 20
74.50029990189779
 30
0.0
  0
POINT
  5
95
330
17
100
AcDbEntity
  8
0
100
AcDbPoint
 10
249.5
 20
75.04167377281577
 30
0.0
  0
POINT
  5
96
330
17
100
AcDbEntity
  8
0
100
AcDbPoint
 10
249.25
 20
74.40239155584499
 30
0.0
  0
POINT
  5
97
330
17
100
AcDbEntity
  8
0
100
AcDbPoint
 10
249.0
 20
74.35262161984902
 30
0.0
  0
POINT
  5
98
330
17
100
AcDbEntity
  8
0
100
AcDbPoint
 10
248.75
 20
74.89095472516313
 30
0.0
  0
POINT
  5
99
330
17
100
AcDbEntity
  8
0
100
AcDbPoint
 10
248.5
 20
74.83962910228483
 30
0.0
  0
POINT
  5
9A
330
17
100
AcDbEntity
  8
0
100
AcDbPoint
 10
248.25
 20
74.20006777385859
 30
0.0
  0
POINT
  5
9B
330
17
100
AcDbEntity
  8
0
100
AcDbPoint
 10
248.0
 20
74.73534707860695
 30
0.0
  0
POINT
  5
9C
330
17
100
AcDbEntity
  8
0
100
AcDbPoint
 10
247.75
 20
74.68239921920741
 30
0.0
  0
POINT
  5
9D
330
17
100
AcDbEntity
  8
0
100
AcDbPoint
 10
247.5
 20
74.6289181944666
 30
0.0
  0
POINT
  5
9E
330
17
100
AcDbEntity
  8
0
100
AcDbPoint
 10
247.25
 20
74.57490473646179
 30
0.0
  0
POINT
  5
9F
330
17
100
AcDbEntity
  8
0
100
AcDbPoint
 10
247.0
 20
74.52035958859021
 30
0.0
  0
POINT
  5
A0
330
17
100
AcDbEntity
  8
0
100
AcDbPoint
 10
246.75
 20
74.46528350118076
 30
0.0
  0
POINT
  5
A1
330
17
100
AcDbEntity
  8
0
100
AcDbPoint
 10
246.5
 20
74.70525853296452
 30
0.0
  0
POINT
  5
A2
330
17
100
AcDbEntity
  8
0
100
AcDbPoint
 10
246.25
 20
74.35355286539792
 30
0.0
  0
POINT
  5
A3
330
17
100
AcDbEntity
  8
0
100
AcDbPoint
 10
246.0
 20
74.8893614325026
 30
0.0
  0
POINT
  5
A4
330
17
100
AcDbEntity
  8
0
100
AcDbPoint
 10
245.75
 20
74.23973632813137
 30
0.0
  0
POINT
  5
A5
330
17
100
AcDbEntity
  8
0
100
AcDbPoint
 10
245.5
 20
74.77343391037546
 30
0.0
  0
POINT
  5
A6
330
17
100
AcDbEntity
  8
0
100
AcDbPoint
 10
245.25
 20
74.41809806193484
 30
0.0
  0
POINT
  5
A7
330
17
100
AcDbEntity
  8
0
100
AcDbPoint
 10
245.0
 20
74.65543218227401
 30
0.0
  0
POINT
  5
A8
330
17
100
AcDbEntity
  8
0
100
AcDbPoint
 10
244.75
 20
133.92819581576776
 30
0.0
  0
POINT
  5
A9
330
17
100
AcDbEntity
  8
0
100
AcDbPoint
 10
244.5
 20
18.128926971099325
 30
0.0
  0
POINT
  5
AA
330
17
100
AcDbEntity
  8
0
100
AcDbPoint
 10
244.25
 20
134.38116156346578
 30
0.0
  0
POINT
  5
AB
330
17
100
AcDbEntity
  8
0
100
AcDbPoint
 10
244.0
 20
74.71084543479952
 30
0.0
  0
POINT
  5
AC
330
17
100
AcDbEntity
  8
0
100
AcDbPoint
 10
243.75
 20
74.35148078164761
 30
0.0
  0
POINT
  5
AD
330
17
100
AcDbEntity
  8
0
100
AcDbPoint
 10
243.5
 20
74.28917107900294
 30
0.0
  0
POINT
  5
AE
330
17
100
AcDbEntity
  8
0
100
AcDbPoint
 10
243.25
 20
74.82213653222321
 30
0.0
  0
POINT
  5
AF
330
17
100
AcDbEntity
  8
0
100
AcDbPoint
 10
243.0
 20
74.45946845905145
 30
0.0
  0
POINT
  5
B0
330
17
100
AcDbEntity
  8
0
100
AcDbPoint
 10
242.75
 20
74.39537627657285
 30
0.0
  0
POINT
  5
B1
330
17
100
AcDbEntity
  8
0
100
AcDbPoint
 10
242.5
 20
74.92957671426892
 30
0.0
  0
POINT
  5
B2
330
17
100
AcDbEntity
  8
0
100
AcDbPoint
 10
242.25
 20
74.26573087321457
 30
0.0
  0
POINT
  5
B3
330
17
100
AcDbEntity
  8
0
100
AcDbPoint
 10
242.0
 20
74.49775513221249
 30
0.0
  0
POINT
  5
B4
330
17
100
AcDbEntity
  8
0
100
AcDbPoint
 10
241.75
 20
74.43140398032452
 30
0.0
  0
POINT
  5
B5
330
17
100
AcDbEntity
  8
0
100
AcDbPoint
 10
241.5
 20
74.6639380206283
 30
0.0
  0
POINT
  5
B6
330
17
100
AcDbEntity
  8
0
100
AcDbPoint
 10
241.25
 20
74.59632059919117
 30
0.0
  0
POINT
  5
B7
330
17
100
AcDbEntity
  8
0
100
AcDbPoint
 10
241.0
 20
74.5282224901388
 30
0.0
  0
POINT
  5
B8
330
17
100
AcDbEntity
  8
0
100
AcDbPoint
 10
240.75
 20
74.45964452521426
 30
0.0
  0
POINT
  5
B9
330
17
100
AcDbEntity
  8
0
100
AcDbPoint
 10
240.5
 20
74.69112439182577
 30
0.0
  0
POINT
  5
BA
330
17
100
AcDbEntity
  8
0
100
AcDbPoint
 10
240.25
 20
74.32107401584383
 30
0.0
  0
POINT
  5
BB
330
17
100
AcDbEntity
  8
0
100
AcDbPoint
 10
240.0
 20
74.85329768998305
 30
0.0
  0
POINT
  5
BC
330
17
100
AcDbEntity
  8
0
100
AcDbPoint
 10
239.75
 20
74.48020981674325
 30
0.0
  0
POINT
  5
BD
330
17
100
AcDbEntity
  8
0
100
AcDbPoint
 10
239.5
 20
74.40896850203112
 30
0.0
  0
POINT
  5
BE
330
17
100
AcDbEntity
  8
0
100
AcDbPoint
 10
239.25
 20
74.63861108863678
 30
0.0
  0
POINT
  5
BF
330
17
100
AcDbEntity
  8
0
100
AcDbPoint
 10
239.0
 20
74.56612923312126
 30
0.0
  0
POINT
  5
C0
330
17
100
AcDbEntity
  8
0
100
AcDbPoint
 10
238.75
 20
74.79633092971383
 30
0.0
  0
POINT
  5
C1
330
17
100
AcDbEntity
  8
0
100
AcDbPoint
 10
238.5
 20
74.4198129664747
 30
0.0
  0
POINT
  5
C2
330
17
100
AcDbEntity
  8
0
100
AcDbPoint
 10
238.25
 20
74.6484348754034
 30
0.0
  0
POINT
  5
C3
330
17
100
AcDbEntity
  8
0
100
AcDbPoint
 10
238.0
 20
74.5738159832967
 30
0.0
  0
POINT
  5
C4
330
17
100
AcDbEntity
  8
0
100
AcDbPoint
 10
237.75
 20
74.80301239132345
 30
0.0
  0
POINT
  5
C5
330
17
100
AcDbEntity
  8
0
100
AcDbPoint
 10
237.5
 20
74.42325808198127
 30
0.0
  0
POINT
  5
C6
330
17
100
AcDbEntity
  8
0
100
AcDbPoint
 10
237.25
 20
74.95694945719988
 30
0.0
  0
POINT
  5
C7
330
17
100
AcDbEntity
  8
0
100
AcDbPoint
 10
237.0
 20
74.57418995290118
 30
0.0
  0
POINT
  5
C8
330
17
100
AcDbEntity
  8
0
100
AcDbPoint
 10
236.75
 20
74.4970367589655
 30
0.0
  0
POINT
  5
C9
330
17
100
AcDbEntity
  8
0
100
AcDbPoint
 10
236.5
 20
74.72446837267225
 30
0.0
  0
POINT
  5
CA
330
17
100
AcDbEntity
  8
0
100
AcDbPoint
 10
236.25
 20
74.95330440043878
 30
0.0
  0
POINT
  5
CB
330
17
100
AcDbEntity
  8
0
100
AcDbPoint
 10
236.0
 20
74.56737492041145
 30
0.0
  0
POINT
  5
CC
330
17
100
AcDbEntity
  8
0
100
AcDbPoint
 10
235.75
 20
74.79464796676581
 30
0.0
  0
POINT
  5
CD
330
17
100
AcDbEntity
  8
0
100
AcDbPoint
 10
235.5
 20
74.71469592481971
 30
0.0
  0
POINT
  5
CE
330
17
100
AcDbEntity
  8
0
100
AcDbPoint
 10
235.25
 20
74.94261283801369
 30
0.0
  0
POINT
  5
CF
330
17
100
AcDbEntity
  8
0
100
AcDbPoint
 10
235.0
 20
74.55356570504811
 30
0.0
  0
POINT
  5
D0
330
17
100
AcDbEntity
  8
0
100
AcDbPoint
 10
234.75
 20
75.09004591588125
 30
0.0
  0
POINT
  5
D1
330
17
100
AcDbEntity
  8
0
100
AcDbPoint
 10
234.5
 20
74.6980170715222
 30
0.0
  0
POINT
  5
D2
330
17
100
AcDbEntity
  8
0
100
AcDbPoint
 10
234.25
 20
74.92505286791683
 30
0.0
  0
POINT
  5
D3
330
17
100
AcDbEntity
  8
0
100
AcDbPoint
 10
234.0
 20
74.8419635721744
 30
0.0
  0
POINT
  5
D4
330
17
100
AcDbEntity
  8
0
100
AcDbPoint
 10
233.75
 20
75.06970034064219
 30
0.0
  0
POINT
  5
D5
330
17
100
AcDbEntity
  8
0
100
AcDbPoint
 10
233.5
 20
74.98548221150153
 30
0.0
  0
POINT
  5
D6
330
17
100
AcDbEntity
  8
0
100
AcDbPoint
 10
233.25
 20
74.90086809499651
 30
0.0
  0
POINT
  5
D7
330
17
100
AcDbEntity
  8
0
100
AcDbPoint
 10
233.0
 20
74.81585876281859
 30
0.0
  0
POINT
  5
D8
330
17
100
AcDbEntity
  8
0
100
AcDbPoint
 10
232.75
 20
75.04279036153261
 30
0.0
  0
POINT
  5
D9
330
17
100
AcDbEntity
  8
0
100
AcDbPoint
 10
232.5
 20
75.27125166016249
 30
0.0
  0
POINT
  5
DA
330
17
100
AcDbEntity
  8
0
100
AcDbPoint
 10
232.25
 20
75.18442450561737
 30
0.0
  0
POINT
  5
DB
330
17
100
AcDbEntity
  8
0
100
AcDbPoint
 10
232.0
 20
80.86711421939245
 30
0.0
  0
POINT
  5
DC
330
17
100
AcDbEntity
  8
0
100
AcDbPoint
 10
231.75
 20
65.40450619784328
 30
0.0
  0
POINT
  5
DD
330
17
100
AcDbEntity
  8
0
100
AcDbPoint
 10
231.5
 20
81.41039620247696
 30
0.0
  0
POINT
  5
DE
330
17
100
AcDbEntity
  8
0
100
AcDbPoint
 10
231.25
 20
75.14871642375833
 30
0.0
  0
POINT
  5
DF
330
17
100
AcDbEntity
  8
0
100
AcDbPoint
 10
230.99999999999997
 20
75.37730302395171
 30
0.0
  0
POINT
  5
E0
330
17
100
AcDbEntity
  8
0
100
AcDbPoint
 10
230.75
 20
75.28758861798502
 30
0.0
  0
POINT
  5
E1
330
17
100
AcDbEntity
  8
0
100
AcDbPoint
 10
230.5
 20
75.51705562590676
 30
0.0
  0
POINT
  5
E2
330
17
100
AcDbEntity
  8
0
100
AcDbPoint
 10
230.25
 20
75.10714925663991
 30
0.0
  0
POINT
  5
E3
330
17
100
AcDbEntity
  8
0
100
AcDbPoint
 10
230.0
 20
75.33512775715204
 30
0.0
  0
POINT
  5
E4
330
17
100
AcDbEntity
  8
0
100
AcDbPoint
 10
229.74999999999997
 20
75.88861328404076
 30
0.0
  0
POINT
  5
E5
330
17
100
AcDbEntity
  8
0
100
AcDbPoint
 10
229.5
 20
75.15200070236219
 30
0.0
  0
POINT
  5
E6
330
17
100
AcDbEntity
  8
0
100
AcDbPoint
 10
229.25
 20
75.70323687771496
 30
0.0
  0
POINT
  5
E7
330
17
100
AcDbEntity
  8
0
100
AcDbPoint
 10
228.99999999999997
 20
75.61011295569503
 30
0.0
  0
POINT
  5
E8
330
17
100
AcDbEntity
  8
0
100
AcDbPoint
 10
228.75
 20
75.51665439232148
 30
0.0
  0
POINT
  5
E9
330
17
100
AcDbEntity
  8
0
100
AcDbPoint
 10
228.5
 20
76.07500546126907
 30
0.0
  0
POINT
  5
EA
330
17
100
AcDbEntity
  8
0
100
AcDbPoint
 10
228.25
 20
75.32890580728066
 30
0.0
  0
POINT
  5
EB
330
17
100
AcDbEntity
  8
0
100
AcDbPoint
 10
228.0
 20
76.21455097374076
 30
0.0
  0
POINT
  5
EC
330
17
100
AcDbEntity
  8
0
100
AcDbPoint
 10
227.75
 20
75.7897333674116
 30
0.0
  0
POINT
  5
ED
330
17
100
AcDbEntity
  8
0
100
AcDbPoint
 10
227.5
 20
75.6940366543618
 30
0.0
  0
POINT
  5
EE
330
17
100
AcDbEntity
  8
0
100
AcDbPoint
 10
227.25
 20
76.25756112991247
 30
0.0
  0
POINT
  5
EF
330
17
100
AcDbEntity
  8
0
100
AcDbPoint
 10
226.99999999999997
 20
75.82982910144518
 30
0.0
  0
POINT
  5
F0
330
17
100
AcDbEntity
  8
0
100
AcDbPoint
 10
226.75
 20
76.39661905401124
 30
0.0
  0
POINT
  5
F1
330
17
100
AcDbEntity
  8
0
100
AcDbPoint
 10
226.49999999999997
 20
75.96588463967753
 30
0.0
  0
POINT
  5
F2
330
17
100
AcDbEntity
  8
0
100
AcDbPoint
 10
226.25
 20
76.20057660546087
 30
0.0
  0
POINT
  5
F3
330
17
100
AcDbEntity
  8
0
100
AcDbPoint
 10
226.0
 20
76.43721282771303
 30
0.0
  0
POINT
  5
F4
330
17
100
AcDbEntity
  8
0
100
AcDbPoint
 10
225.74999999999997
 20
76.33822846024476
 30
0.0
  0
POINT
  5
F5
330
17
100
AcDbEntity
  8
0
100
AcDbPoint
 10
225.5
 20
76.23896046915081
 30
0.0
  0
POINT
  5
F6
330
17
100
AcDbEntity
  8
0
100
AcDbPoint
 10
225.24999999999997
 20
76.81604235784866
 30
0.0
  0
POINT
  5
F7
330
17
100
AcDbEntity
  8
0
100
AcDbPoint
 10
225.0
 20
76.37624306209511
 30
0.0
  0
POINT
  5
F8
330
17
100
AcDbEntity
  8
0
100
AcDbPoint
 10
224.75
 20
76.6148899302595
 30
0.0
  0
POINT
  5
F9
330
17
100
AcDbEntity
  8
0
100
AcDbPoint
 10
224.5
 20
76.85562761039336
 30
0.0
  0
POINT
  5
FA
330
17
100
AcDbEntity
  8
0
100
AcDbPoint
 10
224.25
 20
77.09851400030661
 30
0.0
  0
POINT
  5
FB
330
17
100
AcDbEntity
  8
0
100
AcDbPoint
 10
224.0
 20
76.31174328814427
 30
0.0
  0
POINT
  5
FC
330
17
100
AcDbEntity
  8
0
100
AcDbPoint
 10
223.75
 20
77.59048292059042
 30
0.0
  0
POINT
  5
FD
330
17
100
AcDbEntity
  8
0
100
AcDbPoint
 10
223.5
 20
76.79188382100025
 30
0.0
  0
POINT
  5
FE
330
17
100
AcDbEntity
  8
0
100
AcDbPoint
 10
223.24999999999997
 20
77.0350392368894
 30
0.0
  0
POINT
  5
FF
330
17
100
AcDbEntity
  8
0
100
AcDbPoint
 10
223.0
 20
65.42601812886737
 30
0.0
  0
POINT
  5
100
330
17
100
AcDbEntity
  8
0
100
AcDbPoint
 10
222.75
 20
121.93070135151021
 30
0.0
  0
POINT
  5
101
330
17
100
AcDbEntity
  8
0
100
AcDbPoint
 10
222.5
 20
65.49390657669166
 30
0.0
  0
POINT
  5
102
330
17
100
AcDbEntity
  8
0
100
AcDbPoint
 10
222.25
 20
77.31968324613766
 30
0.0
  0
POINT
  5
103
330
17
100
AcDbEntity
  8
0
100
AcDbPoint
 10
221.99999999999997
 20
77.56855079383558
 30
0.0
  0
POINT
  5
104
330
17
100
AcDbEntity
  8
0
100
AcDbPoint
 10
221.75
 20
77.8198497997273
 30
0.0
  0
POINT
  5
105
330
17
100
AcDbEntity
  8
0
100
AcDbPoint
 10
221.5
 20
78.07364749393815
 30
0.0
  0
POINT
  5
106
330
17
100
AcDbEntity
  8
0
100
AcDbPoint
 10
221.25
 20
77.6089567272967
 30
0.0
  0
POINT
  5
107
330
17
100
AcDbEntity
  8
0
100
AcDbPoint
 10
221.0
 20
78.22339884985286
 30
0.0
  0
POINT
  5
108
330
17
100
AcDbEntity
  8
0
100
AcDbPoint
 10
220.74999999999997
 20
77.75554045058269
 30
0.0
  0
POINT
  5
109
330
17
100
AcDbEntity
  8
0
100
AcDbPoint
 10
220.5
 20
78.74246814284686
 30
0.0
  0
POINT
  5
10A
330
17
100
AcDbEntity
  8
0
100
AcDbPoint
 10
220.25
 20
77.90375910266569
 30
0.0
  0
POINT
  5
10B
330
17
100
AcDbEntity
  8
0
100
AcDbPoint
 10
219.99999999999997
 20
78.89819350962313
 30
0.0
  0
POINT
  5
10C
330
17
100
AcDbEntity
  8
0
100
AcDbPoint
 10
219.75
 20
78.42032276401657
 30
0.0
  0
POINT
  5
10D
330
17
100
AcDbEntity
  8
0
100
AcDbPoint
 10
219.5
 20
78.68253387832083
 30
0.0
  0
POINT
  5
10E
330
17
100
AcDbEntity
  8
0
100
AcDbPoint
 10
219.25
 20
78.57456091047813
 30
0.0
  0
POINT
  5
10F
330
17
100
AcDbEntity
  8
0
100
AcDbPoint
 10
219.0
 20
79.21531403595135
 30
0.0
  0
POINT
  5
110
330
17
100
AcDbEntity
  8
0
100
AcDbPoint
 10
218.74999999999997
 20
79.10677538142794
 30
0.0
  0
POINT
  5
111
330
17
100
AcDbEntity
  8
0
100
AcDbPoint
 10
218.5
 20
78.9980890250188
 30
0.0
  0
POINT
  5
112
330
17
100
AcDbEntity
  8
0
100
AcDbPoint
 10
218.25
 20
79.6505053994214
 30
0.0
  0
POINT
  5
113
330
17
100
AcDbEntity
  8
0
100
AcDbPoint
 10
218.0
 20
79.15922834458678
 30
0.0
  0
POINT
  5
114
330
17
100
AcDbEntity
  8
0
100
AcDbPoint
 10
217.75
 20
79.81729124477958
 30
0.0
  0
POINT
  5
115
330
17
100
AcDbEntity
  8
0
100
AcDbPoint
 10
217.5
 20
79.70780595894404
 30
0.0
  0
POINT
  5
116
330
17
100
AcDbEntity
  8
0
100
AcDbPoint
 10
217.25
 20
79.59819933772317
 30
0.0
  0
POINT
  5
117
330
17
100
AcDbEntity
  8
0
100
AcDbPoint
 10
217.0
 20
80.26883195516159
 30
0.0
  0
POINT
  5
118
330
17
100
AcDbEntity
  8
0
100
AcDbPoint
 10
216.75
 20
80.15891350413106
 30
0.0
  0
POINT
  5
119
330
17
100
AcDbEntity
  8
0
100
AcDbPoint
 10
216.5
 20
80.44423237122665
 30
0.0
  0
POINT
  5
11A
330
17
100
AcDbEntity
  8
0
100
AcDbPoint
 10
216.25
 20
80.33410093479928
 30
0.0
  0
POINT
  5
11B
330
17
100
AcDbEntity
  8
0
100
AcDbPoint
 10
215.99999999999997
 20
80.62253950922107
 30
0.0
  0
POINT
  5
11C
330
17
100
AcDbEntity
  8
0
100
AcDbPoint
 10
215.75
 20
80.9145923014289
 30
0.0
  0
POINT
  5
11D
330
17
100
AcDbEntity
  8
0
100
AcDbPoint
 10
215.5
 20
80.8042346348609
 30
0.0
  0
POINT
  5
11E
330
17
100
AcDbEntity
  8
0
100
AcDbPoint
 10
215.25
 20
81.09964004666418
 30
0.0
  0
POINT
  5
11F
330
17
100
AcDbEntity
  8
0
100
AcDbPoint
 10
215.0
 20
80.98918546412776
 30
0.0
  0
POINT
  5
120
330
17
100
AcDbEntity
  8
0
100
AcDbPoint
 10
214.75
 20
81.70163875688387
 30
0.0
  0
POINT
  5
121
330
17
100
AcDbEntity
  8
0
100
AcDbPoint
 10
214.5
 20
81.5912297816912
 30
0.0
  0
POINT
  5
122
330
17
100
AcDbEntity
  8
0
100
AcDbPoint
 10
214.24999999999997
 20
81.89808177185931
 30
0.0
  0
POINT
  5
123
330
17
100
AcDbEntity
  8
0
100
AcDbPoint
 10
214.0
 20
81.78770140130011
 30
0.0
  0
POINT
  5
124
330
17
100
AcDbEntity
  8
0
100
AcDbPoint
 10
213.75
 20
82.09841681558552
 30
0.0
  0
POINT
  5
125
330
17
100
AcDbEntity
  8
0
100
AcDbPoint
 10
213.5
 20
82.4133906580259
 30
0.0
  0
POINT
  5
126
330
17
100
AcDbEntity
  8
0
100
AcDbPoint
 10
213.25
 20
82.30322945193524
 30
0.0
  0
POINT
  5
127
330
17
100
AcDbEntity
  8
0
100
AcDbPoint
 10
213.0
 20
83.05616305907077
 30
0.0
  0
POINT
  5
128
330
17
100
AcDbEntity
  8
0
100
AcDbPoint
 10
212.75
 20
82.51276686262715
 30
0.0
  0
POINT
  5
129
330
17
100
AcDbEntity
  8
0
100
AcDbPoint
 10
212.5
 20
83.27422201321473
 30
0.0
  0
POINT
  5
12A
330
17
100
AcDbEntity
  8
0
100
AcDbPoint
 10
212.25
 20
83.16470510868204
 30
0.0
  0
POINT
  5
12B
330
17
100
AcDbEntity
  8
0
100
AcDbPoint
 10
212.0
 20
83.05519726433593
 30
0.0
  0
POINT
  5
12C
330
17
100
AcDbEntity
  8
0
100
AcDbPoint
 10
211.75
 20
84.28657353954046
 30
0.0
  0
POINT
  5
12D
330
17
100
AcDbEntity
  8
0
100
AcDbPoint
 10
211.49999999999997
 20
83.72641176366612
 30
0.0
  0
POINT
  5
12E
330
17
100
AcDbEntity
  8
0
100
AcDbPoint
 10
211.25
 20
83.61757383810162
 30
0.0
  0
POINT
  5
12F
330
17
100
AcDbEntity
  8
0
100
AcDbPoint
 10
211.0
 20
84.87769886172407
 30
0.0
  0
POINT
  5
130
330
17
100
AcDbEntity
  8
0
100
AcDbPoint
 10
210.75
 20
83.85268750527898
 30
0.0
  0
POINT
  5
131
330
17
100
AcDbEntity
  8
0
100
AcDbPoint
 10
210.5
 20
85.12766027941782
 30
0.0
  0
POINT
  5
132
330
17
100
AcDbEntity
  8
0
100
AcDbPoint
 10
210.25
 20
85.0206027369271
 30
0.0
  0
POINT
  5
133
330
17
100
AcDbEntity
  8
0
100
AcDbPoint
 10
210.0
 20
84.91361565550251
 30
0.0
  0
POINT
  5
134
330
17
100
AcDbEntity
  8
0
100
AcDbPoint
 10
209.75
 20
85.27787352548033
 30
0.0
  0
POINT
  5
135
330
17
100
AcDbEntity
  8
0
100
AcDbPoint
 10
209.5
 20
85.64793810433257
 30
0.0
  0
POINT
  5
136
330
17
100
AcDbEntity
  8
0
100
AcDbPoint
 10
209.25
 20
86.0239767158292
 30
0.0
  0
POINT
  5
137
330
17
100
AcDbEntity
  8
0
100
AcDbPoint
 10
209.0
 20
85.9189099249126
 30
0.0
  0
POINT
  5
138
330
17
100
AcDbEntity
  8
0
100
AcDbPoint
 10
208.75
 20
85.81394599781724
 30
0.0
  0
POINT
  5
139
330
17
100
AcDbEntity
  8
0
100
AcDbPoint
 10
208.5
 20
87.18775795609152
 30
0.0
  0
POINT
  5
13A
330
17
100
AcDbEntity
  8
0
100
AcDbPoint
 10
208.25
 20
86.58636218678498
 30
0.0
  0
POINT
  5
13B
330
17
100
AcDbEntity
  8
0
100
AcDbPoint
 10
208.0
 20
86.98170013942904
 30
0.0
  0
POINT
  5
13C
330
17
100
AcDbEntity
  8
0
100
AcDbPoint
 10
207.74999999999997
 20
87.38375484929574
 30
0.0
  0
POINT
  5
13D
330
17
100
AcDbEntity
  8
0
100
AcDbPoint
 10
207.5
 20
87.282129197379
 30
0.0
  0
POINT
  5
13E
330
17
100
AcDbEntity
  8
0
100
AcDbPoint
 10
207.25
 20
87.69136551090625
 30
0.0
  0
POINT
  5
13F
330
17
100
AcDbEntity
  8
0
100
AcDbPoint
 10
207.0
 20
88.10773052426087
 30
0.0
  0
POINT
  5
140
330
17
100
AcDbEntity
  8
0
100
AcDbPoint
 10
206.75
 20
88.00821215318794
 30
0.0
  0
POINT
  5
141
330
17
100
AcDbEntity
  8
0
100
AcDbPoint
 10
206.49999999999997
 20
88.96195616026684
 30
0.0
  0
POINT
  5
142
330
17
100
AcDbEntity
  8
0
100
AcDbPoint
 10
206.25
 20
88.86464011084047
 30
0.0
  0
POINT
  5
143
330
17
100
AcDbEntity
  8
0
100
AcDbPoint
 10
206.0
 20
88.76752009243725
 30
0.0
  0
POINT
  5
144
330
17
100
AcDbEntity
  8
0
100
AcDbPoint
 10
205.74999999999997
 20
89.2074230026184
 30
0.0
  0
POINT
  5
145
330
17
100
AcDbEntity
  8
0
100
AcDbPoint
 10
205.5
 20
90.20572310353957
 30
0.0
  0
POINT
  5
146
330
17
100
AcDbEntity
  8
0
100
AcDbPoint
 10
205.24999999999997
 20
89.56172431360314
 30
0.0
  0
POINT
  5
147
330
17
100
AcDbEntity
  8
0
100
AcDbPoint
 10
205.0
 20
90.0185410886609
 30
0.0
  0
POINT
  5
148
330
17
100
AcDbEntity
  8
0
100
AcDbPoint
 10
204.75
 20
90.48391689525347
 30
0.0
  0
POINT
  5
149
330
17
100
AcDbEntity
  8
0
100
AcDbPoint
 10
204.5
 20
90.39249916120947
 30
0.0
  0
POINT
  5
14A
330
17
100
AcDbEntity
  8
0
100
AcDbPoint
 10
204.25
 20
91.44051798054983
 30
0.0
  0
POINT
  5
14B
330
17
100
AcDbEntity
  8
0
100
AcDbPoint
 10
204.0
 20
91.35218326687992
 30
0.0
  0
POINT
  5
14C
330
17
100
AcDbEntity
  8
0
100
AcDbPoint
 10
203.75
 20
91.84556672113209
 30
0.0
  0
POINT
  5
14D
330
17
100
AcDbEntity
  8
0
100
AcDbPoint
 10
203.5
 20
91.17721513463758
 30
0.0
  0
POINT
  5
14E
330
17
100
AcDbEntity
  8
0
100
AcDbPoint
 10
203.25
 20
92.85976792797531
 30
0.0
  0
POINT
  5
14F
330
17
100
AcDbEntity
  8
0
100
AcDbPoint
 10
203.0
 20
91.58815870596102
 30
0.0
  0
POINT
  5
150
330
17
100
AcDbEntity
  8
0
100
AcDbPoint
 10
202.74999999999997
 20
93.29922055842998
 30
0.0
  0
POINT
  5
151
330
17
100
AcDbEntity
  8
0
100
AcDbPoint
 10
202.49999999999997
 20
93.21865084651694
 30
0.0
  0
POINT
  5
152
330
17
100
AcDbEntity
  8
0
100
AcDbPoint
 10
202.25
 20
93.75446990234587
 30
0.0
  0
POINT
  5
153
330
17
100
AcDbEntity
  8
0
100
AcDbPoint
 10
201.99999999999997
 20
93.05948568275893
 30
0.0
  0
POINT
  5
154
330
17
100
AcDbEntity
  8
0
100
AcDbPoint
 10
201.75
 20
94.22316378359328
 30
0.0
  0
POINT
  5
155
330
17
100
AcDbEntity
  8
0
100
AcDbPoint
 10
201.5
 20
94.14744205542817
 30
0.0
  0
POINT
  5
156
330
17
100
AcDbEntity
  8
0
100
AcDbPoint
 10
201.25
 20
94.70790851321931
 30
0.0
  0
POINT
  5
157
330
17
100
AcDbEntity
  8
0
100
AcDbPoint
 10
201.0
 20
94.63479641060458
 30
0.0
  0
POINT
  5
158
330
17
100
AcDbEntity
  8
0
100
AcDbPoint
 10
200.75
 20
95.86348518376492
 30
0.0
  0
POINT
  5
159
330
17
100
AcDbEntity
  8
0
100
AcDbPoint
 10
200.5
 20
95.13904128936407
 30
0.0
  0
POINT
  5
15A
330
17
100
AcDbEntity
  8
0
100
AcDbPoint
 10
200.25
 20
96.39241852211931
 30
0.0
  0
POINT
  5
15B
330
17
100
AcDbEntity
  8
0
100
AcDbPoint
 10
199.99999999999997
 20
95.6597934651261
 30
0.0
  0
POINT
  5
15C
330
17
100
AcDbEntity
  8
0
100
AcDbPoint
 10
199.75
 20
96.93879501654501
 30
0.0
  0
POINT
  5
15D
330
17
100
AcDbEntity
  8
0
100
AcDbPoint
 10
199.49999999999997
 20
96.87659691115093
 30
0.0
  0
POINT
  5
15E
330
17
100
AcDbEntity
  8
0
100
AcDbPoint
 10
199.25
 20
96.81483600684513
 30
0.0
  0
POINT
  5
15F
330
17
100
AcDbEntity
  8
0
100
AcDbPoint
 10
199.0
 20
98.14523985630952
 30
0.0
  0
POINT
  5
160
330
17
100
AcDbEntity
  8
0
100
AcDbPoint
 10
198.75
 20
97.38714998422378
 30
0.0
  0
POINT
  5
161
330
17
100
AcDbEntity
  8
0
100
AcDbPoint
 10
198.5
 20
98.74615248582884
 30
0.0
  0
POINT
  5
162
330
17
100
AcDbEntity
  8
0
100
AcDbPoint
 10
198.25
 20
97.97874402063175
 30
0.0
  0
POINT
  5
163
330
17
100
AcDbEntity
  8
0
100
AcDbPoint
 10
197.99999999999997
 20
99.36746692548915
 30
0.0
  0
POINT
  5
164
330
17
100
AcDbEntity
  8
0
100
AcDbPoint
 10
197.75
 20
98.59040350467127
 30
0.0
  0
POINT
  5
165
330
17
100
AcDbEntity
  8
0
100
AcDbPoint
 10
197.5
 20
100.01002307032208
 30
0.0
  0
POINT
  5
166
330
17
100
AcDbEntity
  8
0
100
AcDbPoint
 10
197.25
 20
99.96524578457039
 30
0.0
  0
POINT
  5
167
330
17
100
AcDbEntity
  8
0
100
AcDbPoint
 10
197.0
 20
99.92098813866714
 30
0.0
  0
POINT
  5
168
330
17
100
AcDbEntity
  8
0
100
AcDbPoint
 10
196.75
 20
100.63400067634913
 30
0.0
  0
POINT
  5
169
330
17
100
AcDbEntity
  8
0
100
AcDbPoint
 10
196.5
 20
101.3638784056187
 30
0.0
  0
POINT
  5
16A
330
17
100
AcDbEntity
  8
0
100
AcDbPoint
 10
196.24999999999997
 20
42.45740234403785
 30
0.0
  0
POINT
  5
16B
330
17
100
AcDbEntity
  8
0
100
AcDbPoint
 10
196.0
 20
57.04271292380577
 30
0.0
  0
POINT
  5
16C
330
17
100
AcDbEntity
  8
0
100
AcDbPoint
 10
195.75
 20
42.51786022994911
 30
0.0
  0
POINT
  5
16D
330
17
100
AcDbEntity
  8
0
100
AcDbPoint
 10
195.5
 20
102.01219809027118
 30
0.0
  0
POINT
  5
16E
330
17
100
AcDbEntity
  8
0
100
AcDbPoint
 10
195.25
 20
102.78506959320453
 30
0.0
  0
POINT
  5
16F
330
17
100
AcDbEntity
  8
0
100
AcDbPoint
 10
195.0
 20
102.75827066525264
 30
0.0
  0
POINT
  5
170
330
17
100
AcDbEntity
  8
0
100
AcDbPoint
 10
194.75
 20
103.55276133402786
 30
0.0
  0
POINT
  5
171
330
17
100
AcDbEntity
  8
0
100
AcDbPoint
 10
194.5
 20
103.53080908813962
 30
0.0
  0
POINT
  5
172
330
17
100
AcDbEntity
  8
0
100
AcDbPoint
 10
194.24999999999997
 20
103.50945714584675
 30
0.0
  0
POINT
  5
173
330
17
100
AcDbEntity
  8
0
100
AcDbPoint
 10
194.0
 20
105.1836929254147
 30
0.0
  0
POINT
  5
174
330
17
100
AcDbEntity
  8
0
100
AcDbPoint
 10
193.74999999999997
 20
104.31464216542194
 30
0.0
  0
POINT
  5
175
330
17
100
AcDbEntity
  8
0
100
AcDbPoint
 10
193.5
 20
104.29897464578181
 30
0.0
  0
POINT
  5
176
330
17
100
AcDbEntity
  8
0
100
AcDbPoint
 10
193.25
 20
106.9119992226163
 30
0.0
  0
POINT
  5
177
330
17
100
AcDbEntity
  8
0
100
AcDbPoint
 10
193.0
 20
104.27436192022606
 30
0.0
  0
POINT
  5
178
330
17
100
AcDbEntity
  8
0
100
AcDbPoint
 10
192.75
 20
108.83551579567158
 30
0.0
  0
POINT
  5
179
330
17
100
AcDbEntity
  8
0
100
AcDbPoint
 10
192.5
 20
102.39342168957369
 30
0.0
  0
POINT
  5
17A
330
17
100
AcDbEntity
  8
0
100
AcDbPoint
 10
192.25
 20
108.84155072593869
 30
0.0
  0
POINT
  5
17B
330
17
100
AcDbEntity
  8
0
100
AcDbPoint
 10
192.0
 20
106.90277881577396
 30
0.0
  0
POINT
  5
17C
330
17
100
AcDbEntity
  8
0
100
AcDbPoint
 10
191.75
 20
107.82674157008734
 30
0.0
  0
POINT
  5
17D
330
17
100
AcDbEntity
  8
0
100
AcDbPoint
 10
191.5
 20
106.90825254103255
 30
0.0
  0
POINT
  5
17E
330
17
100
AcDbEntity
  8
0
100
AcDbPoint
 10
191.25
 20
49.45063928218525
 30
0.0
  0
POINT
  5
17F
330
17
100
AcDbEntity
  8
0
100
AcDbPoint
 10
191.0
 20
14.705018231447097
 30
0.0
  0
POINT
  5
180
330
17
100
AcDbEntity
  8
0
100
AcDbPoint
 10
190.75
 20
53.57718490727369
 30
0.0
  0
POINT
  5
181
330
17
100
AcDbEntity
  8
0
100
AcDbPoint
 10
190.49999999999997
 20
159.55759627720101
 30
0.0
  0
POINT
  5
182
330
17
100
AcDbEntity
  8
0
100
AcDbPoint
 10
190.25
 20
94.6013238051225
 30
0.0
  0
POINT
  5
183
330
17
100
AcDbEntity
  8
0
100
AcDbPoint
 10
190.0
 20
108.85575171635136
 30
0.0
  0
POINT
  5
184
330
17
100
AcDbEntity
  8
0
100
AcDbPoint
 10
189.74999999999997
 20
110.85086348494471
 30
0.0
  0
POINT
  5
185
330
17
100
AcDbEntity
  8
0
100
AcDbPoint
 10
189.5
 20
109.87673234277644
 30
0.0
  0
POINT
  5
186
330
17
100
AcDbEntity
  8
0
100
AcDbPoint
 10
189.24999999999997
 20
110.9048048913814
 30
0.0
  0
POINT
  5
187
330
17
100
AcDbEntity
  8
0
100
AcDbPoint
 10
189.0
 20
109.9251003298756
 30
0.0
  0
POINT
  5
188
330
17
100
AcDbEntity
  8
0
100
AcDbPoint
 10
188.75
 20
111.99238940764612
 30
0.0
  0
POINT
  5
189
330
17
100
AcDbEntity
  8
0
100
AcDbPoint
 10
188.49999999999997
 20
110.99371087970839
 30
0.0
  0
POINT
  5
18A
330
17
100
AcDbEntity
  8
0
100
AcDbPoint
 10
188.25
 20
112.06297868933243
 30
0.0
  0
POINT
  5
18B
330
17
100
AcDbEntity
  8
0
100
AcDbPoint
 10
188.0
 20
112.1002862907113
 30
0.0
  0
POINT
  5
18C
330
17
100
AcDbEntity
  8
0
100
AcDbPoint
 10
187.75
 20
113.20391381087178
 30
0.0
  0
POINT
  5
18D
330
17
100
AcDbEntity
  8
0
100
AcDbPoint
 10
187.5
 20
111.12933180365883
 30
0.0
  0
POINT
  5
18E
330
17
100
AcDbEntity
  8
0
100
AcDbPoint
 10
187.24999999999997
 20
114.38375439054423
 30
0.0
  0
POINT
  5
18F
330
17
100
AcDbEntity
  8
0
100
AcDbPoint
 10
187.0
 20
112.2600771521013
 30
0.0
  0
POINT
  5
190
330
17
100
AcDbEntity
  8
0
100
AcDbPoint
 10
186.75
 20
113.3819694076102
 30
0.0
  0
POINT
  5
191
330
17
100
AcDbEntity
  8
0
100
AcDbPoint
 10
186.49999999999997
 20
113.42911560046905
 30
0.0
  0
POINT
  5
192
330
17
100
AcDbEntity
  8
0
100
AcDbPoint
 10
186.25
 20
114.5875670061607
 30
0.0
  0
POINT
  5
193
330
17
100
AcDbEntity
  8
0
100
AcDbPoint
 10
186.0
 20
114.6422345031276
 30
0.0
  0
POINT
  5
194
330
17
100
AcDbEntity
  8
0
100
AcDbPoint
 10
185.75
 20
113.57839364479065
 30
0.0
  0
POINT
  5
195
330
17
100
AcDbEntity
  8
0
100
AcDbPoint
 10
185.5
 20
115.89699423738449
 30
0.0
  0
POINT
  5
196
330
17
100
AcDbEntity
  8
0
100
AcDbPoint
 10
185.25
 20
113.68226120426766
 30
0.0
  0
POINT
  5
197
330
17
100
AcDbEntity
  8
0
100
AcDbPoint
 10
185.0
 20
116.01931121781332
 30
0.0
  0
POINT
  5
198
330
17
100
AcDbEntity
  8
0
100
AcDbPoint
 10
184.75
 20
114.92449531770866
 30
0.0
  0
POINT
  5
199
330
17
100
AcDbEntity
  8
0
100
AcDbPoint
 10
184.49999999999997
 20
116.14611236098915
 30
0.0
  0
POINT
  5
19A
330
17
100
AcDbEntity
  8
0
100
AcDbPoint
 10
184.25
 20
116.21143346847566
 30
0.0
  0
POINT
  5
19B
330
17
100
AcDbEntity
  8
0
100
AcDbPoint
 10
183.99999999999997
 20
115.10482931490708
 30
0.0
  0
POINT
  5
19C
330
17
100
AcDbEntity
  8
0
100
AcDbPoint
 10
183.75
 20
117.54271977406836
 30
0.0
  0
POINT
  5
19D
330
17
100
AcDbEntity
  8
0
100
AcDbPoint
 10
183.5
 20
115.22905089261255
 30
0.0
  0
POINT
  5
19E
330
17
100
AcDbEntity
  8
0
100
AcDbPoint
 10
183.25
 20
117.68637333507091
 30
0.0
  0
POINT
  5
19F
330
17
100
AcDbEntity
  8
0
100
AcDbPoint
 10
183.0
 20
116.54576406432335
 30
0.0
  0
POINT
  5
1A0
330
17
100
AcDbEntity
  8
0
100
AcDbPoint
 10
182.74999999999997
 20
116.61408055279645
 30
0.0
  0
POINT
  5
1A1
330
17
100
AcDbEntity
  8
0
100
AcDbPoint
 10
182.5
 20
117.90766986047349
 30
0.0
  0
POINT
  5
1A2
330
17
100
AcDbEntity
  8
0
100
AcDbPoint
 10
182.25
 20
116.75419136726252
 30
0.0
  0
POINT
  5
1A3
330
17
100
AcDbEntity
  8
0
100
AcDbPoint
 10
182.0
 20
118.05814294468392
 30
0.0
  0
POINT
  5
1A4
330
17
100
AcDbEntity
  8
0
100
AcDbPoint
 10
181.75
 20
118.13509169067662
 30
0.0
  0
POINT
  5
1A5
330
17
100
AcDbEntity
  8
0
100
AcDbPoint
 10
181.5
 20
116.96849768584192
 30
0.0
  0
POINT
  5
1A6
330
17
100
AcDbEntity
  8
0
100
AcDbPoint
 10
181.25
 20
118.28792682697629
 30
0.0
  0
POINT
  5
1A7
330
17
100
AcDbEntity
  8
0
100
AcDbPoint
 10
181.0
 20
118.36596971291512
 30
0.0
  0
POINT
  5
1A8
330
17
100
AcDbEntity
  8
0
100
AcDbPoint
 10
180.75
 20
117.1860884811778
 30
0.0
  0
POINT
  5
1A9
330
17
100
AcDbEntity
  8
0
100
AcDbPoint
 10
180.5
 20
119.81136413522712
 30
0.0
  0
POINT
  5
1AA
330
17
100
AcDbEntity
  8
0
100
AcDbPoint
 10
180.24999999999997
 20
117.33414528341018
 30
0.0
  0
POINT
  5
1AB
330
17
100
AcDbEntity
  8
0
100
AcDbPoint
 10
180.0
 20
118.6790883970735
 30
0.0
  0
POINT
  5
1AC
330
17
100
AcDbEntity
  8
0
100
AcDbPoint
 10
179.75000000000003
 20
120.06407072677437
 30
0.0
  0
POINT
  5
1AD
330
17
100
AcDbEntity
  8
0
100
AcDbPoint
 10
179.5
 20
117.55825033412498
 30
0.0
  0
POINT
  5
1AE
330
17
100
AcDbEntity
  8
0
100
AcDbPoint
 10
179.25000000000003
 20
118.91830444529528
 30
0.0
  0
POINT
  5
1AF
330
17
100
AcDbEntity
  8
0
100
AcDbPoint
 10
179.0
 20
118.99846154910048
 30
0.0
  0
POINT
  5
1B0
330
17
100
AcDbEntity
  8
0
100
AcDbPoint
 10
178.75
 20
119.07879641244014
 30
0.0
  0
POINT
  5
1B1
330
17
100
AcDbEntity
  8
0
100
AcDbPoint
 10
178.50000000000003
 20
117.85801556486102
 30
0.0
  0
POINT
  5
1B2
330
17
100
AcDbEntity
  8
0
100
AcDbPoint
 10
178.25
 20
120.57306278197977
 30
0.0
  0
POINT
  5
1B3
330
17
100
AcDbEntity
  8
0
100
AcDbPoint
 10
178.00000000000003
 20
118.0098698575478
 30
0.0
  0
POINT
  5
1B4
330
17
100
AcDbEntity
  8
0
100
AcDbPoint
 10
177.75
 20
119.39942849098605
 30
0.0
  0
POINT
  5
1B5
330
17
100
AcDbEntity
  8
0
100
AcDbPoint
 10
177.5
 20
119.48035254460277
 30
0.0
  0
POINT
  5
1B6
330
17
100
AcDbEntity
  8
0
100
AcDbPoint
 10
177.25000000000003
 20
119.56133232086756
 30
0.0
  0
POINT
  5
1B7
330
17
100
AcDbEntity
  8
0
100
AcDbPoint
 10
177.0
 20
118.31269908735969
 30
0.0
  0
POINT
  5
1B8
330
17
100
AcDbEntity
  8
0
100
AcDbPoint
 10
176.75
 20
119.72134161687882
 30
0.0
  0
POINT
  5
1B9
330
17
100
AcDbEntity
  8
0
100
AcDbPoint
 10
176.5
 20
118.4633897094832
 30
0.0
  0
POINT
  5
1BA
330
17
100
AcDbEntity
  8
0
100
AcDbPoint
 10
176.25
 20
118.5377623349049
 30
0.0
  0
POINT
  5
1BB
330
17
100
AcDbEntity
  8
0
100
AcDbPoint
 10
176.00000000000003
 20
119.96030360882884
 30
0.0
  0
POINT
  5
1BC
330
17
100
AcDbEntity
  8
0
100
AcDbPoint
 10
175.75
 20
118.68835198258157
 30
0.0
  0
POINT
  5
1BD
330
17
100
AcDbEntity
  8
0
100
AcDbPoint
 10
175.5
 20
120.12000387600885
 30
0.0
  0
POINT
  5
1BE
330
17
100
AcDbEntity
  8
0
100
AcDbPoint
 10
175.25000000000003
 20
117.50718916021185
 30
0.0
  0
POINT
  5
1BF
330
17
100
AcDbEntity
  8
0
100
AcDbPoint
 10
175.0
 20
118.91084353014284
 30
0.0
  0
POINT
  5
1C0
330
17
100
AcDbEntity
  8
0
100
AcDbPoint
 10
174.75000000000003
 20
118.98479031284432
 30
0.0
  0
POINT
  5
1C1
330
17
100
AcDbEntity
  8
0
100
AcDbPoint
 10
174.5
 20
119.0585956826731
 30
0.0
  0
POINT
  5
1C2
330
17
100
AcDbEntity
  8
0
100
AcDbPoint
 10
174.25
 20
119.13223907363097
 30
0.0
  0
POINT
  5
1C3
330
17
100
AcDbEntity
  8
0
100
AcDbPoint
 10
174.00000000000003
 20
116.53010992779167
 30
0.0
  0
POINT
  5
1C4
330
17
100
AcDbEntity
  8
0
100
AcDbPoint
 10
173.75
 20
120.66406168286242
 30
0.0
  0
POINT
  5
1C5
330
17
100
AcDbEntity
  8
0
100
AcDbPoint
 10
173.50000000000003
 20
116.65806915901842
 30
0.0
  0
POINT
  5
1C6
330
17
100
AcDbEntity
  8
0
100
AcDbPoint
 10
173.25
 20
119.41938459408858
 30
0.0
  0
POINT
  5
1C7
330
17
100
AcDbEntity
  8
0
100
AcDbPoint
 10
173.0
 20
116.78360782005565
 30
0.0
  0
POINT
  5
1C8
330
17
100
AcDbEntity
  8
0
100
AcDbPoint
 10
172.75000000000003
 20
118.18692820214021
 30
0.0
  0
POINT
  5
1C9
330
17
100
AcDbEntity
  8
0
100
AcDbPoint
 10
172.5
 20
118.25307258994049
 30
0.0
  0
POINT
  5
1CA
330
17
100
AcDbEntity
  8
0
100
AcDbPoint
 10
172.25
 20
116.968625051605
 30
0.0
  0
POINT
  5
1CB
330
17
100
AcDbEntity
  8
0
100
AcDbPoint
 10
172.0
 20
117.02872488413823
 30
0.0
  0
POINT
  5
1CC
330
17
100
AcDbEntity
  8
0
100
AcDbPoint
 10
171.75
 20
118.44646520304711
 30
0.0
  0
POINT
  5
1CD
330
17
100
AcDbEntity
  8
0
100
AcDbPoint
 10
171.50000000000003
 20
115.81892137154742
 30
0.0
  0
POINT
  5
1CE
330
17
100
AcDbEntity
  8
0
100
AcDbPoint
 10
171.25
 20
117.20736086697909
 30
0.0
  0
POINT
  5
1CF
330
17
100
AcDbEntity
  8
0
100
AcDbPoint
 10
171.0
 20
117.266288305517
 30
0.0
  0
POINT
  5
1D0
330
17
100
AcDbEntity
  8
0
100
AcDbPoint
 10
170.75000000000003
 20
115.9835139688583
 30
0.0
  0
POINT
  5
1D1
330
17
100
AcDbEntity
  8
0
100
AcDbPoint
 10
170.5
 20
116.03678681372062
 30
0.0
  0
POINT
  5
1D2
330
17
100
AcDbEntity
  8
0
100
AcDbPoint
 10
170.25000000000003
 20
116.08974060083665
 30
0.0
  0
POINT
  5
1D3
330
17
100
AcDbEntity
  8
0
100
AcDbPoint
 10
169.99999999999997
 20
114.8215018975302
 30
0.0
  0
POINT
  5
1D4
330
17
100
AcDbEntity
  8
0
100
AcDbPoint
 10
169.75
 20
117.54812966989039
 30
0.0
  0
POINT
  5
1D5
330
17
100
AcDbEntity
  8
0
100
AcDbPoint
 10
169.50000000000003
 20
113.62196153905631
 30
0.0
  0
POINT
  5
1D6
330
17
100
AcDbEntity
  8
0
100
AcDbPoint
 10
169.25
 20
114.96491613761278
 30
0.0
  0
POINT
  5
1D7
330
17
100
AcDbEntity
  8
0
100
AcDbPoint
 10
169.00000000000003
 20
116.34502023418108
 30
0.0
  0
POINT
  5
1D8
330
17
100
AcDbEntity
  8
0
100
AcDbPoint
 10
168.75
 20
113.75305437401735
 30
0.0
  0
POINT
  5
1D9
330
17
100
AcDbEntity
  8
0
100
AcDbPoint
 10
168.5
 20
113.7948332287622
 30
0.0
  0
POINT
  5
1DA
330
17
100
AcDbEntity
  8
0
100
AcDbPoint
 10
168.25000000000003
 20
113.83627998816021
 30
0.0
  0
POINT
  5
1DB
330
17
100
AcDbEntity
  8
0
100
AcDbPoint
 10
168.0
 20
113.877381672492
 30
0.0
  0
POINT
  5
1DC
330
17
100
AcDbEntity
  8
0
100
AcDbPoint
 10
167.75
 20
113.9181254045405
 30
0.0
  0
POINT
  5
1DD
330
17
100
AcDbEntity
  8
0
100
AcDbPoint
 10
167.5
 20
112.66823687686794
 30
0.0
  0
POINT
  5
1DE
330
17
100
AcDbEntity
  8
0
100
AcDbPoint
 10
167.25
 20
112.70448953531226
 30
0.0
  0
POINT
  5
1DF
330
17
100
AcDbEntity
  8
0
100
AcDbPoint
 10
167.00000000000003
 20
112.74040120448112
 30
0.0
  0
POINT
  5
1E0
330
17
100
AcDbEntity
  8
0
100
AcDbPoint
 10
166.75
 20
112.77596043184482
 30
0.0
  0
POINT
  5
1E1
330
17
100
AcDbEntity
  8
0
100
AcDbPoint
 10
166.5
 20
110.29749103921422
 30
0.0
  0
POINT
  5
1E2
330
17
100
AcDbEntity
  8
0
100
AcDbPoint
 10
166.25
 20
112.84381727248717
 30
0.0
  0
POINT
  5
1E3
330
17
100
AcDbEntity
  8
0
100
AcDbPoint
 10
166.0
 20
110.35565015515459
 30
0.0
  0
POINT
  5
1E4
330
17
100
AcDbEntity
  8
0
100
AcDbPoint
 10
165.75000000000003
 20
110.38328716006609
 30
0.0
  0
POINT
  5
1E5
330
17
100
AcDbEntity
  8
0
100
AcDbPoint
 10
165.49999999999997
 20
111.66187896526192
 30
0.0
  0
POINT
  5
1E6
330
17
100
AcDbEntity
  8
0
100
AcDbPoint
 10
165.25
 20
109.21308582428347
 30
0.0
  0
POINT
  5
1E7
330
17
100
AcDbEntity
  8
0
100
AcDbPoint
 10
165.00000000000003
 20
110.4643697049447
 30
0.0
  0
POINT
  5
1E8
330
17
100
AcDbEntity
  8
0
100
AcDbPoint
 10
164.75
 20
109.26139950898036
 30
0.0
  0
POINT
  5
1E9
330
17
100
AcDbEntity
  8
0
100
AcDbPoint
 10
164.50000000000003
 20
109.28467946380782
 30
0.0
  0
POINT
  5
1EA
330
17
100
AcDbEntity
  8
0
100
AcDbPoint
 10
164.25
 20
108.10183438626206
 30
0.0
  0
POINT
  5
1EB
330
17
100
AcDbEntity
  8
0
100
AcDbPoint
 10
164.0
 20
108.12196787786282
 30
0.0
  0
POINT
  5
1EC
330
17
100
AcDbEntity
  8
0
100
AcDbPoint
 10
163.75
 20
108.1418417292588
 30
0.0
  0
POINT
  5
1ED
330
17
100
AcDbEntity
  8
0
100
AcDbPoint
 10
163.5
 20
106.97711325794694
 30
0.0
  0
POINT
  5
1EE
330
17
100
AcDbEntity
  8
0
100
AcDbPoint
 10
163.25
 20
108.1800020840864
 30
0.0
  0
POINT
  5
1EF
330
17
100
AcDbEntity
  8
0
100
AcDbPoint
 10
163.0
 20
105.85005400379282
 30
0.0
  0
POINT
  5
1F0
330
17
100
AcDbEntity
  8
0
100
AcDbPoint
 10
162.75
 20
107.02747863623827
 30
0.0
  0
POINT
  5
1F1
330
17
100
AcDbEntity
  8
0
100
AcDbPoint
 10
162.50000000000003
 20
105.87937814311908
 30
0.0
  0
POINT
  5
1F2
330
17
100
AcDbEntity
  8
0
100
AcDbPoint
 10
162.25
 20
105.89338012644609
 30
0.0
  0
POINT
  5
1F3
330
17
100
AcDbEntity
  8
0
100
AcDbPoint
 10
162.0
 20
103.64773871853406
 30
0.0
  0
POINT
  5
1F4
330
17
100
AcDbEntity
  8
0
100
AcDbPoint
 10
161.75000000000003
 20
105.91943356473364
 30
0.0
  0
POINT
  5
1F5
330
17
100
AcDbEntity
  8
0
100
AcDbPoint
 10
161.5
 20
104.78846703471066
 30
0.0
  0
POINT
  5
1F6
330
17
100
AcDbEntity
  8
0
100
AcDbPoint
 10
161.25000000000003
 20
102.5815418682043
 30
0.0
  0
POINT
  5
1F7
330
17
100
AcDbEntity
  8
0
100
AcDbPoint
 10
161.0
 20
103.68767508434696
 30
0.0
  0
POINT
  5
1F8
330
17
100
AcDbEntity
  8
0
100
AcDbPoint
 10
160.75
 20
103.69697557001389
 30
0.0
  0
POINT
  5
1F9
330
17
100
AcDbEntity
  8
0
100
AcDbPoint
 10
160.5
 20
102.6057999165335
 30
0.0
  0
POINT
  5
1FA
330
17
100
AcDbEntity
  8
0
100
AcDbPoint
 10
160.25
 20
101.53513631165647
 30
0.0
  0
POINT
  5
1FB
330
17
100
AcDbEntity
  8
0
100
AcDbPoint
 10
160.00000000000003
 20
102.62010310543862
 30
0.0
  0
POINT
  5
1FC
330
17
100
AcDbEntity
  8
0
100
AcDbPoint
 10
159.75
 20
100.48998119139297
 30
0.0
  0
POINT
  5
1FD
330
17
100
AcDbEntity
  8
0
100
AcDbPoint
 10
159.50000000000003
 20
100.49443898812814
 30
0.0
  0
POINT
  5
1FE
330
17
100
AcDbEntity
  8
0
100
AcDbPoint
 10
159.25
 20
101.55783501889474
 30
0.0
  0
POINT
  5
1FF
330
17
100
AcDbEntity
  8
0
100
AcDbPoint
 10
159.0
 20
99.46567410714636
 30
0.0
  0
POINT
  5
200
330
17
100
AcDbEntity
  8
0
100
AcDbPoint
 10
158.75
 20
99.4687696201876
 30
0.0
  0
POINT
  5
201
330
17
100
AcDbEntity
  8
0
100
AcDbPoint
 10
158.5
 20
99.47181458121888
 30
0.0
  0
POINT
  5
202
330
17
100
AcDbEntity
  8
0
100
AcDbPoint
 10
158.25000000000003
 20
98.45614162960376
 30
0.0
  0
POINT
  5
203
330
17
100
AcDbEntity
  8
0
100
AcDbPoint
 10
158.00000000000003
 20
98.458075594631
 30
0.0
  0
POINT
  5
204
330
17
100
AcDbEntity
  8
0
100
AcDbPoint
 10
157.75
 20
97.46079754778638
 30
0.0
  0
POINT
  5
205
330
17
100
AcDbEntity
  8
0
100
AcDbPoint
 10
157.50000000000003
 20
97.46176307371262
 30
0.0
  0
POINT
  5
206
330
17
100
AcDbEntity
  8
0
100
AcDbPoint
 10
157.25
 20
96.48256908788211
 30
0.0
  0
POINT
  5
207
330
17
100
AcDbEntity
  8
0
100
AcDbPoint
 10
157.0
 20
96.48269756000316
 30
0.0
  0
POINT
  5
208
330
17
100
AcDbEntity
  8
0
100
AcDbPoint
 10
156.75
 20
96.48283759719446
 30
0.0
  0
POINT
  5
209
330
17
100
AcDbEntity
  8
0
100
AcDbPoint
 10
156.5
 20
95.52097448426399
 30
0.0
  0
POINT
  5
20A
330
17
100
AcDbEntity
  8
0
100
AcDbPoint
 10
156.25
 20
94.57699169200663
 30
0.0
  0
POINT
  5
20B
330
17
100
AcDbEntity
  8
0
100
AcDbPoint
 10
156.00000000000003
 20
94.5757995360634
 30
0.0
  0
POINT
  5
20C
330
17
100
AcDbEntity
  8
0
100
AcDbPoint
 10
155.74999999999997
 20
94.57465349572477
 30
0.0
  0
POINT
  5
20D
330
17
100
AcDbEntity
  8
0
100
AcDbPoint
 10
155.50000000000003
 20
93.64749373744449
 30
0.0
  0
POINT
  5
20E
330
17
100
AcDbEntity
  8
0
100
AcDbPoint
 10
155.25
 20
92.73744307602072
 30
0.0
  0
POINT
  5
20F
330
17
100
AcDbEntity
  8
0
100
AcDbPoint
 10
155.0
 20
93.64405903731121
 30
0.0
  0
POINT
  5
210
330
17
100
AcDbEntity
  8
0
100
AcDbPoint
 10
154.75000000000003
 20
91.84197940252727
 30
0.0
  0
POINT
  5
211
330
17
100
AcDbEntity
  8
0
100
AcDbPoint
 10
154.49999999999997
 20
91.83954890521771
 30
0.0
  0
POINT
  5
212
330
17
100
AcDbEntity
  8
0
100
AcDbPoint
 10
154.25000000000003
 20
91.83720468241236
 30
0.0
  0
POINT
  5
213
330
17
100
AcDbEntity
  8
0
100
AcDbPoint
 10
154.0
 20
90.95964066560163
 30
0.0
  0
POINT
  5
214
330
17
100
AcDbEntity
  8
0
100
AcDbPoint
 10
153.75
 20
90.95705849951162
 30
0.0
  0
POINT
  5
215
330
17
100
AcDbEntity
  8
0
100
AcDbPoint
 10
153.50000000000003
 20
89.25225026718479
 30
0.0
  0
POINT
  5
216
330
17
100
AcDbEntity
  8
0
100
AcDbPoint
 10
153.25
 20
90.09245669847029
 30
0.0
  0
POINT
  5
217
330
17
100
AcDbEntity
  8
0
100
AcDbPoint
 10
153.00000000000003
 20
89.24631878191335
 30
0.0
  0
POINT
  5
218
330
17
100
AcDbEntity
  8
0
100
AcDbPoint
 10
152.75000000000003
 20
88.41545022625762
 30
0.0
  0
POINT
  5
219
330
17
100
AcDbEntity
  8
0
100
AcDbPoint
 10
152.5
 20
88.41240257984755
 30
0.0
  0
POINT
  5
21A
330
17
100
AcDbEntity
  8
0
100
AcDbPoint
 10
152.25000000000003
 20
88.40947505322683
 30
0.0
  0
POINT
  5
21B
330
17
100
AcDbEntity
  8
0
100
AcDbPoint
 10
152.0
 20
87.59346284655638
 30
0.0
  0
POINT
  5
21C
330
17
100
AcDbEntity
  8
0
100
AcDbPoint
 10
151.75000000000003
 20
86.00795117524261
 30
0.0
  0
POINT
  5
21D
330
17
100
AcDbEntity
  8
0
100
AcDbPoint
 10
151.5
 20
87.58748702936191
 30
0.0
  0
POINT
  5
21E
330
17
100
AcDbEntity
  8
0
100
AcDbPoint
 10
151.25
 20
86.001778227253
 30
0.0
  0
POINT
  5
21F
330
17
100
AcDbEntity
  8
0
100
AcDbPoint
 10
151.00000000000003
 20
85.22846691565293
 30
0.0
  0
POINT
  5
220
330
17
100
AcDbEntity
  8
0
100
AcDbPoint
 10
150.75
 20
85.99585659884079
 30
0.0
  0
POINT
  5
221
330
17
100
AcDbEntity
  8
0
100
AcDbPoint
 10
150.50000000000003
 20
84.46581482904638
 30
0.0
  0
POINT
  5
222
330
17
100
AcDbEntity
  8
0
100
AcDbPoint
 10
150.25
 20
84.46290284409008
 30
0.0
  0
POINT
  5
223
330
17
100
AcDbEntity
  8
0
100
AcDbPoint
 10
149.99999999999997
 20
83.71649555689532
 30
0.0
  0
POINT
  5
224
330
17
100
AcDbEntity
  8
0
100
AcDbPoint
 10
149.75000000000003
 20
84.45740997719533
 30
0.0
  0
POINT
  5
225
330
17
100
AcDbEntity
  8
0
100
AcDbPoint
 10
149.5
 20
82.98037831299975
 30
0.0
  0
POINT
  5
226
330
17
100
AcDbEntity
  8
0
100
AcDbPoint
 10
149.25000000000003
 20
82.25959144063226
 30
0.0
  0
POINT
  5
227
330
17
100
AcDbEntity
  8
0
100
AcDbPoint
 10
149.00000000000003
 20
82.97521172898682
 30
0.0
  0
POINT
  5
228
330
17
100
AcDbEntity
  8
0
100
AcDbPoint
 10
148.75
 20
82.25459871037565
 30
0.0
  0
POINT
  5
229
330
17
100
AcDbEntity
  8
0
100
AcDbPoint
 10
148.50000000000003
 20
80.85236311524
 30
0.0
  0
POINT
  5
22A
330
17
100
AcDbEntity
  8
0
100
AcDbPoint
 10
148.25000000000003
 20
81.54398807317779
 30
0.0
  0
POINT
  5
22B
330
17
100
AcDbEntity
  8
0
100
AcDbPoint
 10
148.0
 20
80.84782387025469
 30
0.0
  0
POINT
  5
22C
330
17
100
AcDbEntity
  8
0
100
AcDbPoint
 10
147.75000000000003
 20
80.84572918027825
 30
0.0
  0
POINT
  5
22D
330
17
100
AcDbEntity
  8
0
100
AcDbPoint
 10
147.5
 20
79.49047934338401
 30
0.0
  0
POINT
  5
22E
330
17
100
AcDbEntity
  8
0
100
AcDbPoint
 10
147.25000000000003
 20
80.15946495958545
 30
0.0
  0
POINT
  5
22F
330
17
100
AcDbEntity
  8
0
100
AcDbPoint
 10
147.00000000000003
 20
79.48670577585558
 30
0.0
  0
POINT
  5
230
330
17
100
AcDbEntity
  8
0
100
AcDbPoint
 10
146.75
 20
78.17615451486668
 30
0.0
  0
POINT
  5
231
330
17
100
AcDbEntity
  8
0
100
AcDbPoint
 10
146.50000000000003
 20
79.48331918432439
 30
0.0
  0
POINT
  5
232
330
17
100
AcDbEntity
  8
0
100
AcDbPoint
 10
146.25
 20
77.5345215403777
 30
0.0
  0
POINT
  5
233
330
17
100
AcDbEntity
  8
0
100
AcDbPoint
 10
146.00000000000003
 20
78.17144047350126
 30
0.0
  0
POINT
  5
234
330
17
100
AcDbEntity
  8
0
100
AcDbPoint
 10
145.75000000000003
 20
77.53164569180457
 30
0.0
  0
POINT
  5
235
330
17
100
AcDbEntity
  8
0
100
AcDbPoint
 10
145.49999999999997
 20
77.53035615510782
 30
0.0
  0
POINT
  5
236
330
17
100
AcDbEntity
  8
0
100
AcDbPoint
 10
145.25
 20
76.90106385199162
 30
0.0
  0
POINT
  5
237
330
17
100
AcDbEntity
  8
0
100
AcDbPoint
 10
145.0
 20
76.28193244736337
 30
0.0
  0
POINT
  5
238
330
17
100
AcDbEntity
  8
0
100
AcDbPoint
 10
144.75
 20
76.28088536553034
 30
0.0
  0
POINT
  5
239
330
17
100
AcDbEntity
  8
0
100
AcDbPoint
 10
144.50000000000003
 20
75.67175507427515
 30
0.0
  0
POINT
  5
23A
330
17
100
AcDbEntity
  8
0
100
AcDbPoint
 10
144.24999999999997
 20
75.67086159002324
 30
0.0
  0
POINT
  5
23B
330
17
100
AcDbEntity
  8
0
100
AcDbPoint
 10
144.00000000000003
 20
75.67004933842802
 30
0.0
  0
POINT
  5
23C
330
17
100
AcDbEntity
  8
0
100
AcDbPoint
 10
143.75000000000003
 20
74.48159120465749
 30
0.0
  0
POINT
  5
23D
330
17
100
AcDbEntity
  8
0
100
AcDbPoint
 10
143.49999999999997
 20
75.07007115086893
 30
0.0
  0
POINT
  5
23E
330
17
100
AcDbEntity
  8
0
100
AcDbPoint
 10
143.25
 20
74.48029594403897
 30
0.0
  0
POINT
  5
23F
330
17
100
AcDbEntity
  8
0
100
AcDbPoint
 10
143.0
 20
74.47974725892935
 30
0.0
  0
POINT
  5
240
330
17
100
AcDbEntity
  8
0
100
AcDbPoint
 10
142.75000000000003
 20
73.32823283974409
 30
0.0
  0
POINT
  5
241
330
17
100
AcDbEntity
  8
0
100
AcDbPoint
 10
142.5
 20
73.89881907331524
 30
0.0
  0
POINT
  5
242
330
17
100
AcDbEntity
  8
0
100
AcDbPoint
 10
142.24999999999997
 20
73.32739733326675
 30
0.0
  0
POINT
  5
243
330
17
100
AcDbEntity
  8
0
100
AcDbPoint
 10
142.00000000000003
 20
73.32705393144718
 30
0.0
  0
POINT
  5
244
330
17
100
AcDbEntity
  8
0
100
AcDbPoint
 10
141.75
 20
72.76447920244088
 30
0.0
  0
POINT
  5
245
330
17
100
AcDbEntity
  8
0
100
AcDbPoint
 10
141.5
 20
73.32649808438606
 30
0.0
  0
POINT
  5
246
330
17
100
AcDbEntity
  8
0
100
AcDbPoint
 10
141.25000000000003
 20
71.66492829479387
 30
0.0
  0
POINT
  5
247
330
17
100
AcDbEntity
  8
0
100
AcDbPoint
 10
141.0
 20
72.76381210881362
 30
0.0
  0
POINT
  5
248
330
17
100
AcDbEntity
  8
0
100
AcDbPoint
 10
140.75000000000003
 20
72.20993554183241
 30
0.0
  0
POINT
  5
249
330
17
100
AcDbEntity
  8
0
100
AcDbPoint
 10
140.5
 20
71.66445030208244
 30
0.0
  0
POINT
  5
24A
330
17
100
AcDbEntity
  8
0
100
AcDbPoint
 10
140.25
 20
71.6643420900892
 30
0.0
  0
POINT
  5
24B
330
17
100
AcDbEntity
  8
0
100
AcDbPoint
 10
140.0
 20
71.66425355310487
 30
0.0
  0
POINT
  5
24C
330
17
100
AcDbEntity
  8
0
100
AcDbPoint
 10
139.74999999999997
 20
71.66418469023526
 30
0.0
  0
POINT
  5
24D
330
17
100
AcDbEntity
  8
0
100
AcDbPoint
 10
139.5
 20
71.1269526787284
 30
0.0
  0
POINT
  5
24E
330
17
100
AcDbEntity
  8
0
100
AcDbPoint
 10
139.25000000000003
 20
71.12691298817478
 30
0.0
  0
POINT
  5
24F
330
17
100
AcDbEntity
  8
0
100
AcDbPoint
 10
138.99999999999997
 20
71.12688322407439
 30
0.0
  0
POINT
  5
250
330
17
100
AcDbEntity
  8
0
100
AcDbPoint
 10
138.75
 20
71.12686337797729
 30
0.0
  0
POINT
  5
251
330
17
100
AcDbEntity
  8
0
100
AcDbPoint
 10
138.49999999999997
 20
70.59766394198695
 30
0.0
  0
POINT
  5
252
330
17
100
AcDbEntity
  8
0
100
AcDbPoint
 10
138.25
 20
71.12684345694134
 30
0.0
  0
POINT
  5
253
330
17
100
AcDbEntity
  8
0
100
AcDbPoint
 10
138.0
 20
70.59765397908653
 30
0.0
  0
POINT
  5
254
330
17
100
AcDbEntity
  8
0
100
AcDbPoint
 10
137.75
 20
70.59765397921
 30
0.0
  0
POINT
  5
255
330
17
100
AcDbEntity
  8
0
100
AcDbPoint
 10
137.50000000000003
 20
70.5976539785836
 30
0.0
  0
POINT
  5
256
330
17
100
AcDbEntity
  8
0
100
AcDbPoint
 10
137.25
 20
70.5976539797169
 30
0.0
  0
POINT
  5
257
330
17
100
AcDbEntity
  8
0
100
AcDbPoint
 10
137.0
 20
70.59765397790406
 30
0.0
  0
POINT
  5
258
330
17
100
AcDbEntity
  8
0
100
AcDbPoint
 10
136.75000000000003
 20
70.59765397988446
 30
0.0
  0
POINT
  5
259
330
17
100
AcDbEntity
  8
0
100
AcDbPoint
 10
136.5
 20
70.59765397862587
 30
0.0
  0
POINT
  5
25A
330
17
100
AcDbEntity
  8
0
100
AcDbPoint
 10
136.25000000000003
 20
70.5976539794437
 30
0.0
  0
POINT
  5
25B
330
17
100
AcDbEntity
  8
0
100
AcDbPoint
 10
136.0
 20
70.59765397864844
 30
0.0
  0
POINT
  5
25C
330
17
100
AcDbEntity
  8
0
100
AcDbPoint
 10
135.75
 20
70.59765397933161
 30
0.0
  0
POINT
  5
25D
330
17
100
AcDbEntity
  8
0
100
AcDbPoint
 10
135.5
 20
70.59765397801624
 30
0.0
  0
POINT
  5
25E
330
17
100
AcDbEntity
  8
0
100
AcDbPoint
 10
135.24999999999997
 20
70.59765398021113
 30
0.0
  0
POINT
  5
25F
330
17
100
AcDbEntity
  8
0
100
AcDbPoint
 10
135.00000000000003
 20
70.59765397806405
 30
0.0
  0
POINT
  5
260
330
17
100
AcDbEntity
  8
0
100
AcDbPoint
 10
134.75000000000003
 20
70.59765397968337
 30
0.0
  0
POINT
  5
261
330
17
100
AcDbEntity
  8
0
100
AcDbPoint
 10
134.5
 20
70.59765397907182
 30
0.0
  0
POINT
  5
262
330
17
100
AcDbEntity
  8
0
100
AcDbPoint
 10
134.25000000000003
 20
70.59765397854457
 30
0.0
  0
POINT
  5
263
330
17
100
AcDbEntity
  8
0
100
AcDbPoint
 10
133.99999999999997
 20
70.59765397913239
 30
0.0
  0
POINT
  5
264
330
17
100
AcDbEntity
  8
0
100
AcDbPoint
 10
133.75
 20
70.59765397925355
 30
0.0
  0
POINT
  5
265
330
17
100
AcDbEntity
  8
0
100
AcDbPoint
 10
133.50000000000003
 20
70.59765397859134
 30
0.0
  0
POINT
  5
266
330
17
100
AcDbEntity
  8
0
100
AcDbPoint
 10
133.25
 20
70.59765397957466
 30
0.0
  0
POINT
  5
267
330
17
100
AcDbEntity
  8
0
100
AcDbPoint
 10
133.0
 20
70.59765397905103
 30
0.0
  0
POINT
  5
268
330
17
100
AcDbEntity
  8
0
100
AcDbPoint
 10
132.75
 20
70.59765397826021
 30
0.0
  0
POINT
  5
269
330
17
100
AcDbEntity
  8
0
100
AcDbPoint
 10
132.50000000000003
 20
70.5976539795461
 30
0.0
  0
POINT
  5
26A
330
17
100
AcDbEntity
  8
0
100
AcDbPoint
 10
132.25000000000003
 20
70.59765397864365
 30
0.0
  0
POINT
  5
26B
330
17
100
AcDbEntity
  8
0
100
AcDbPoint
 10
131.99999999999997
 20
70.59765397947088
 30
0.0
  0
POINT
  5
26C
330
17
100
AcDbEntity
  8
0
100
AcDbPoint
 10
131.75
 20
70.59765397821181
 30
0.0
  0
POINT
  5
26D
330
17
100
AcDbEntity
  8
0
100
AcDbPoint
 10
131.5
 20
70.59765397982419
 30
0.0
  0
POINT
  5
26E
330
17
100
AcDbEntity
  8
0
100
AcDbPoint
 10
131.24999999999997
 20
70.597653979172
 30
0.0
  0
POINT
  5
26F
330
17
100
AcDbEntity
  8
0
100
AcDbPoint
 10
131.00000000000003
 20
70.59765397813175
 30
0.0
  0
POINT
  5
270
330
17
100
AcDbEntity
  8
0
100
AcDbPoint
 10
130.75
 20
70.59765397947734
 30
0.0
  0
POINT
  5
271
330
17
100
AcDbEntity
  8
0
100
AcDbPoint
 10
130.50000000000003
 20
70.59765397872319
 30
0.0
  0
POINT
  5
272
330
17
100
AcDbEntity
  8
0
100
AcDbPoint
 10
130.25000000000003
 20
70.59765397941996
 30
0.0
  0
POINT
  5
273
330
17
100
AcDbEntity
  8
0
100
AcDbPoint
 10
129.99999999999997
 20
70.59765397929682
 30
0.0
  0
POINT
  5
274
330
17
100
AcDbEntity
  8
0
100
AcDbPoint
 10
129.75000000000003
 20
70.59765397849606
 30
0.0
  0
POINT
  5
275
330
17
100
AcDbEntity
  8
0
100
AcDbPoint
 10
129.5
 20
70.59765397924474
 30
0.0
  0
POINT
  5
276
330
17
100
AcDbEntity
  8
0
100
AcDbPoint
 10
129.25000000000003
 20
70.59765397858267
 30
0.0
  0
POINT
  5
277
330
17
100
AcDbEntity
  8
0
100
AcDbPoint
 10
129.00000000000003
 20
70.59765397965967
 30
0.0
  0
POINT
  5
278
330
17
100
AcDbEntity
  8
0
100
AcDbPoint
 10
128.75
 20
70.59765397800658
 30
0.0
  0
POINT
  5
279
330
17
100
AcDbEntity
  8
0
100
AcDbPoint
 10
128.50000000000003
 20
70.59765397998613
 30
0.0
  0
POINT
  5
27A
330
17
100
AcDbEntity
  8
0
100
AcDbPoint
 10
128.25
 20
70.5976539787165
 30
0.0
  0
POINT
  5
27B
330
17
100
AcDbEntity
  8
0
100
AcDbPoint
 10
128.0
 20
70.59765397880874
 30
0.0
  0
POINT
  5
27C
330
17
100
AcDbEntity
  8
0
100
AcDbPoint
 10
127.75000000000001
 20
70.5976539788609
 30
0.0
  0
POINT
  5
27D
330
17
100
AcDbEntity
  8
0
100
AcDbPoint
 10
127.50000000000001
 20
70.59765397934335
 30
0.0
  0
POINT
  5
27E
330
17
100
AcDbEntity
  8
0
100
AcDbPoint
 10
127.25000000000003
 20
70.59765397914772
 30
0.0
  0
POINT
  5
27F
330
17
100
AcDbEntity
  8
0
100
AcDbPoint
 10
126.99999999999999
 20
70.59765397847097
 30
0.0
  0
POINT
  5
280
330
17
100
AcDbEntity
  8
0
100
AcDbPoint
 10
126.75
 20
70.5976539795609
 30
0.0
  0
POINT
  5
281
330
17
100
AcDbEntity
  8
0
100
AcDbPoint
 10
126.5
 20
70.59765397872982
 30
0.0
  0
POINT
  5
282
330
17
100
AcDbEntity
  8
0
100
AcDbPoint
 10
126.25000000000001
 20
70.59765397928683
 30
0.0
  0
POINT
  5
283
330
17
100
AcDbEntity
  8
0
100
AcDbPoint
 10
126.0
 20
70.5976539789551
 30
0.0
  0
POINT
  5
284
330
17
100
AcDbEntity
  8
0
100
AcDbPoint
 10
125.75000000000001
 20
70.59765397890976
 30
0.0
  0
POINT
  5
285
330
17
100
AcDbEntity
  8
0
100
AcDbPoint
 10
125.49999999999999
 20
70.59765397884591
 30
0.0
  0
POINT
  5
286
330
17
100
AcDbEntity
  8
0
100
AcDbPoint
 10
125.25000000000001
 20
70.59765397919438
 30
0.0
  0
POINT
  5
287
330
17
100
AcDbEntity
  8
0
100
AcDbPoint
 10
124.99999999999999
 20
70.5976539787902
 30
0.0
  0
POINT
  5
288
330
17
100
AcDbEntity
  8
0
100
AcDbPoint
 10
124.75
 20
70.5976539793065
 30
0.0
  0
POINT
  5
289
330
17
100
AcDbEntity
  8
0
100
AcDbPoint
 10
124.49999999999999
 20
70.59765397875125
 30
0.0
  0
POINT
  5
28A
330
17
100
AcDbEntity
  8
0
100
AcDbPoint
 10
124.25
 20
70.59765397887128
 30
0.0
  0
POINT
  5
28B
330
17
100
AcDbEntity
  8
0
100
AcDbPoint
 10
124.00000000000003
 20
70.5976539790243
 30
0.0
  0
POINT
  5
28C
330
17
100
AcDbEntity
  8
0
100
AcDbPoint
 10
123.75000000000001
 20
70.59765397968273
 30
0.0
  0
POINT
  5
28D
330
17
100
AcDbEntity
  8
0
100
AcDbPoint
 10
123.50000000000003
 20
70.59765397853418
 30
0.0
  0
POINT
  5
28E
330
17
100
AcDbEntity
  8
0
100
AcDbPoint
 10
123.25000000000001
 20
70.5976539790459
 30
0.0
  0
POINT
  5
28F
330
17
100
AcDbEntity
  8
0
100
AcDbPoint
 10
123.00000000000001
 20
70.59765397894809
 30
0.0
  0
POINT
  5
290
330
17
100
AcDbEntity
  8
0
100
AcDbPoint
 10
122.75000000000003
 20
70.5976539791952
 30
0.0
  0
POINT
  5
291
330
17
100
AcDbEntity
  8
0
100
AcDbPoint
 10
122.50000000000001
 20
70.59765397874673
 30
0.0
  0
POINT
  5
292
330
17
100
AcDbEntity
  8
0
100
AcDbPoint
 10
122.25
 20
70.59765397886206
 30
0.0
  0
POINT
  5
293
330
17
100
AcDbEntity
  8
0
100
AcDbPoint
 10
122.0
 20
70.59765397976952
 30
0.0
  0
POINT
  5
294
330
17
100
AcDbEntity
  8
0
100
AcDbPoint
 10
121.74999999999999
 20
70.59765397848442
 30
0.0
  0
POINT
  5
295
330
17
100
AcDbEntity
  8
0
100
AcDbPoint
 10
121.50000000000003
 20
70.59765397880926
 30
0.0
  0
POINT
  5
296
330
17
100
AcDbEntity
  8
0
100
AcDbPoint
 10
121.25000000000001
 20
70.59765397911157
 30
0.0
  0
POINT
  5
297
330
17
100
AcDbEntity
  8
0
100
AcDbPoint
 10
121.0
 20
70.59765397939465
 30
0.0
  0
POINT
  5
298
330
17
100
AcDbEntity
  8
0
100
AcDbPoint
 10
120.75000000000001
 20
70.5976539786161
 30
0.0
  0
POINT
  5
299
330
17
100
AcDbEntity
  8
0
100
AcDbPoint
 10
120.50000000000001
 20
70.5976539792394
 30
0.0
  0
POINT
  5
29A
330
17
100
AcDbEntity
  8
0
100
AcDbPoint
 10
120.25000000000003
 20
70.59765397900945
 30
0.0
  0
POINT
  5
29B
330
17
100
AcDbEntity
  8
0
100
AcDbPoint
 10
119.99999999999999
 20
70.59765397849931
 30
0.0
  0
POINT
  5
29C
330
17
100
AcDbEntity
  8
0
100
AcDbPoint
 10
119.75
 20
70.59765397964323
 30
0.0
  0
POINT
  5
29D
330
17
100
AcDbEntity
  8
0
100
AcDbPoint
 10
119.50000000000003
 20
70.59765397893723
 30
0.0
  0
POINT
  5
29E
330
17
100
AcDbEntity
  8
0
100
AcDbPoint
 10
119.24999999999999
 20
70.59765397873754
 30
0.0
  0
POINT
  5
29F
330
17
100
AcDbEntity
  8
0
100
AcDbPoint
 10
119.00000000000003
 20
70.597653979283
 30
0.0
  0
POINT
  5
2A0
330
17
100
AcDbEntity
  8
0
100
AcDbPoint
 10
118.74999999999999
 20
70.59765397898141
 30
0.0
  0
POINT
  5
2A1
330
17
100
AcDbEntity
  8
0
100
AcDbPoint
 10
118.50000000000001
 20
70.59765397923321
 30
0.0
  0
POINT
  5
2A2
330
17
100
AcDbEntity
  8
0
100
AcDbPoint
 10
118.25
 20
70.59765397859361
 30
0.0
  0
POINT
  5
2A3
330
17
100
AcDbEntity
  8
0
100
AcDbPoint
 10
117.99999999999999
 20
70.59765397888943
 30
0.0
  0
POINT
  5
2A4
330
17
100
AcDbEntity
  8
0
100
AcDbPoint
 10
117.74999999999997
 20
70.59765397945026
 30
0.0
  0
POINT
  5
2A5
330
17
100
AcDbEntity
  8
0
100
AcDbPoint
 10
117.5
 20
70.59765397847092
 30
0.0
  0
POINT
  5
2A6
330
17
100
AcDbEntity
  8
0
100
AcDbPoint
 10
117.25000000000001
 20
70.59765397932172
 30
0.0
  0
POINT
  5
2A7
330
17
100
AcDbEntity
  8
0
100
AcDbPoint
 10
117.00000000000003
 20
70.5976539787803
 30
0.0
  0
POINT
  5
2A8
330
17
100
AcDbEntity
  8
0
100
AcDbPoint
 10
116.75000000000001
 20
70.5976539792487
 30
0.0
  0
POINT
  5
2A9
330
17
100
AcDbEntity
  8
0
100
AcDbPoint
 10
116.49999999999999
 20
70.59765397895991
 30
0.0
  0
POINT
  5
2AA
330
17
100
AcDbEntity
  8
0
100
AcDbPoint
 10
116.25000000000001
 20
70.59765397867038
 30
0.0
  0
POINT
  5
2AB
330
17
100
AcDbEntity
  8
0
100
AcDbPoint
 10
116.00000000000001
 20
70.59765397900472
 30
0.0
  0
POINT
  5
2AC
330
17
100
AcDbEntity
  8
0
100
AcDbPoint
 10
115.75000000000003
 20
70.59765398037709
 30
0.0
  0
POINT
  5
2AD
330
17
100
AcDbEntity
  8
0
100
AcDbPoint
 10
115.50000000000001
 20
70.59765397733482
 30
0.0
  0
POINT
  5
2AE
330
17
100
AcDbEntity
  8
0
100
AcDbPoint
 10
115.25
 20
70.59765397986318
 30
0.0
  0
POINT
  5
2AF
330
17
100
AcDbEntity
  8
0
100
AcDbPoint
 10
115.00000000000003
 20
70.59765397879447
 30
0.0
  0
POINT
  5
2B0
330
17
100
AcDbEntity
  8
0
100
AcDbPoint
 10
114.74999999999999
 20
70.59765397866155
 30
0.0
  0
POINT
  5
2B1
330
17
100
AcDbEntity
  8
0
100
AcDbPoint
 10
114.50000000000001
 20
70.5976539798911
 30
0.0
  0
POINT
  5
2B2
330
17
100
AcDbEntity
  8
0
100
AcDbPoint
 10
114.25
 20
70.59765397912778
 30
0.0
  0
POINT
  5
2B3
330
17
100
AcDbEntity
  8
0
100
AcDbPoint
 10
114.0
 20
70.59765397763613
 30
0.0
  0
POINT
  5
2B4
330
17
100
AcDbEntity
  8
0
100
AcDbPoint
 10
113.75000000000001
 20
70.5976539798377
 30
0.0
  0
POINT
  5
2B5
330
17
100
AcDbEntity
  8
0
100
AcDbPoint
 10
113.5
 20
70.5976539785929
 30
0.0
  0
POINT
  5
2B6
330
17
100
AcDbEntity
  8
0
100
AcDbPoint
 10
113.24999999999999
 20
70.59765397919018
 30
0.0
  0
POINT
  5
2B7
330
17
100
AcDbEntity
  8
0
100
AcDbPoint
 10
113.0
 20
70.59765397922543
 30
0.0
  0
POINT
  5
2B8
330
17
100
AcDbEntity
  8
0
100
AcDbPoint
 10
112.75
 20
70.59765397902005
 30
0.0
  0
POINT
  5
2B9
330
17
100
AcDbEntity
  8
0
100
AcDbPoint
 10
112.50000000000001
 20
70.5976539787604
 30
0.0
  0
POINT
  5
2BA
330
17
100
AcDbEntity
  8
0
100
AcDbPoint
 10
112.25
 20
70.59765397927863
 30
0.0
  0
POINT
  5
2BB
330
17
100
AcDbEntity
  8
0
100
AcDbPoint
 10
111.99999999999999
 20
70.59765397900343
 30
0.0
  0
POINT
  5
2BC
330
17
100
AcDbEntity
  8
0
100
AcDbPoint
 10
111.75000000000001
 20
70.59765397901263
 30
0.0
  0
POINT
  5
2BD
330
17
100
AcDbEntity
  8
0
100
AcDbPoint
 10
111.5
 20
70.59765397939377
 30
0.0
  0
POINT
  5
2BE
330
17
100
AcDbEntity
  8
0
100
AcDbPoint
 10
111.25000000000001
 20
70.59765397869565
 30
0.0
  0
POINT
  5
2BF
330
17
100
AcDbEntity
  8
0
100
AcDbPoint
 10
111.0
 20
70.59765397814431
 30
0.0
  0
POINT
  5
2C0
330
17
100
AcDbEntity
  8
0
100
AcDbPoint
 10
110.75
 20
70.59765398007184
 30
0.0
  0
POINT
  5
2C1
330
17
100
AcDbEntity
  8
0
100
AcDbPoint
 10
110.50000000000001
 20
70.59765397880444
 30
0.0
  0
POINT
  5
2C2
330
17
100
AcDbEntity
  8
0
100
AcDbPoint
 10
110.25
 20
70.59765397846998
 30
0.0
  0
POINT
  5
2C3
330
17
100
AcDbEntity
  8
0
100
AcDbPoint
 10
110.00000000000001
 20
70.5976539789994
 30
0.0
  0
POINT
  5
2C4
330
17
100
AcDbEntity
  8
0
100
AcDbPoint
 10
109.75
 20
70.59765397910876
 30
0.0
  0
POINT
  5
2C5
330
17
100
AcDbEntity
  8
0
100
AcDbPoint
 10
109.5
 20
70.59765398000751
 30
0.0
  0
POINT
  5
2C6
330
17
100
AcDbEntity
  8
0
100
AcDbPoint
 10
109.25000000000001
 20
70.59765397856651
 30
0.0
  0
POINT
  5
2C7
330
17
100
AcDbEntity
  8
0
100
AcDbPoint
 10
109.0
 20
70.59765397837327
 30
0.0
  0
POINT
  5
2C8
330
17
100
AcDbEntity
  8
0
100
AcDbPoint
 10
108.74999999999999
 20
70.59765397930838
 30
0.0
  0
POINT
  5
2C9
330
17
100
AcDbEntity
  8
0
100
AcDbPoint
 10
108.5
 20
70.59765397891368
 30
0.0
  0
POINT
  5
2CA
330
17
100
AcDbEntity
  8
0
100
AcDbPoint
 10
108.25
 20
70.59765397916931
 30
0.0
  0
POINT
  5
2CB
330
17
100
AcDbEntity
  8
0
100
AcDbPoint
 10
108.00000000000001
 20
70.59765397901977
 30
0.0
  0
POINT
  5
2CC
330
17
100
AcDbEntity
  8
0
100
AcDbPoint
 10
107.75
 20
70.59765397929758
 30
0.0
  0
POINT
  5
2CD
330
17
100
AcDbEntity
  8
0
100
AcDbPoint
 10
107.49999999999999
 20
70.59765397780245
 30
0.0
  0
POINT
  5
2CE
330
17
100
AcDbEntity
  8
0
100
AcDbPoint
 10
107.25000000000001
 20
70.59765398142822
 30
0.0
  0
POINT
  5
2CF
330
17
100
AcDbEntity
  8
0
100
AcDbPoint
 10
107.0
 20
70.59765397673642
 30
0.0
  0
POINT
  5
2D0
330
17
100
AcDbEntity
  8
0
100
AcDbPoint
 10
106.75000000000001
 20
70.59765397993284
 30
0.0
  0
POINT
  5
2D1
330
17
100
AcDbEntity
  8
0
100
AcDbPoint
 10
106.5
 20
70.59765397851064
 30
0.0
  0
POINT
  5
2D2
330
17
100
AcDbEntity
  8
0
100
AcDbPoint
 10
106.25
 20
70.59765397966197
 30
0.0
  0
POINT
  5
2D3
330
17
100
AcDbEntity
  8
0
100
AcDbPoint
 10
106.00000000000001
 20
70.59765397917579
 30
0.0
  0
POINT
  5
2D4
330
17
100
AcDbEntity
  8
0
100
AcDbPoint
 10
105.75
 20
70.59765397723477
 30
0.0
  0
POINT
  5
2D5
330
17
100
AcDbEntity
  8
0
100
AcDbPoint
 10
105.50000000000001
 20
70.59765398092044
 30
0.0
  0
POINT
  5
2D6
330
17
100
AcDbEntity
  8
0
100
AcDbPoint
 10
105.25
 20
70.59765397862513
 30
0.0
  0
POINT
  5
2D7
330
17
100
AcDbEntity
  8
0
100
AcDbPoint
 10
105.0
 20
70.5976539785847
 30
0.0
  0
POINT
  5
2D8
330
17
100
AcDbEntity
  8
0
100
AcDbPoint
 10
104.75000000000001
 20
70.59765397910425
 30
0.0
  0
POINT
  5
2D9
330
17
100
AcDbEntity
  8
0
100
AcDbPoint
 10
104.5
 20
70.5976539794578
 30
0.0
  0
POINT
  5
2DA
330
17
100
AcDbEntity
  8
0
100
AcDbPoint
 10
104.24999999999999
 20
70.59765397809655
 30
0.0
  0
POINT
  5
2DB
330
17
100
AcDbEntity
  8
0
100
AcDbPoint
 10
104.0
 20
70.59765397957295
 30
0.0
  0
POINT
  5
2DC
330
17
100
AcDbEntity
  8
0
100
AcDbPoint
 10
103.75
 20
70.5976539795987
 30
0.0
  0
POINT
  5
2DD
330
17
100
AcDbEntity
  8
0
100
AcDbPoint
 10
103.50000000000001
 20
70.59765397791789
 30
0.0
  0
POINT
  5
2DE
330
17
100
AcDbEntity
  8
0
100
AcDbPoint
 10
103.25
 20
70.59765397954673
 30
0.0
  0
POINT
  5
2DF
330
17
100
AcDbEntity
  8
0
100
AcDbPoint
 10
102.99999999999999
 20
70.5976539784184
 30
0.0
  0
POINT
  5
2E0
330
17
100
AcDbEntity
  8
0
100
AcDbPoint
 10
102.75000000000001
 20
70.59765398024219
 30
0.0
  0
POINT
  5
2E1
330
17
100
AcDbEntity
  8
0
100
AcDbPoint
 10
102.5
 20
70.59765397857566
 30
0.0
  0
POINT
  5
2E2
330
17
100
AcDbEntity
  8
0
100
AcDbPoint
 10
102.25000000000001
 20
70.59765397803967
 30
0.0
  0
POINT
  5
2E3
330
17
100
AcDbEntity
  8
0
100
AcDbPoint
 10
102.0
 20
70.59765397945625
 30
0.0
  0
POINT
  5
2E4
330
17
100
AcDbEntity
  8
0
100
AcDbPoint
 10
101.75
 20
70.5976539794837
 30
0.0
  0
POINT
  5
2E5
330
17
100
AcDbEntity
  8
0
100
AcDbPoint
 10
101.50000000000001
 20
70.59765397951055
 30
0.0
  0
POINT
  5
2E6
330
17
100
AcDbEntity
  8
0
100
AcDbPoint
 10
101.25
 20
70.59765397786998
 30
0.0
  0
POINT
  5
2E7
330
17
100
AcDbEntity
  8
0
100
AcDbPoint
 10
101.00000000000001
 20
70.59765397901391
 30
0.0
  0
POINT
  5
2E8
330
17
100
AcDbEntity
  8
0
100
AcDbPoint
 10
100.75
 20
70.59765398061441
 30
0.0
  0
POINT
  5
2E9
330
17
100
AcDbEntity
  8
0
100
AcDbPoint
 10
100.5
 20
70.59765397709216
 30
0.0
  0
POINT
  5
2EA
330
17
100
AcDbEntity
  8
0
100
AcDbPoint
 10
100.25000000000001
 20
70.59765397960571
 30
0.0
  0
POINT
  5
2EB
330
17
100
AcDbEntity
  8
0
100
AcDbPoint
 10
100.0
 20
70.59765397960913
 30
0.0
  0
POINT
  5
2EC
330
17
100
AcDbEntity
  8
0
100
AcDbPoint
 10
99.74999999999999
 20
70.59765397825714
 30
0.0
  0
POINT
  5
2ED
330
17
100
AcDbEntity
  8
0
100
AcDbPoint
 10
99.5
 20
70.59765397952481
 30
0.0
  0
POINT
  5
2EE
330
17
100
AcDbEntity
  8
0
100
AcDbPoint
 10
99.25
 20
70.5976539774704
 30
0.0
  0
POINT
  5
2EF
330
17
100
AcDbEntity
  8
0
100
AcDbPoint
 10
99.00000000000001
 20
70.59765398040945
 30
0.0
  0
POINT
  5
2F0
330
17
100
AcDbEntity
  8
0
100
AcDbPoint
 10
98.75
 20
70.59765397971763
 30
0.0
  0
POINT
  5
2F1
330
17
100
AcDbEntity
  8
0
100
AcDbPoint
 10
98.49999999999999
 20
70.59765397754259
 30
0.0
  0
POINT
  5
2F2
330
17
100
AcDbEntity
  8
0
100
AcDbPoint
 10
98.25000000000001
 20
70.5976539802709
 30
0.0
  0
POINT
  5
2F3
330
17
100
AcDbEntity
  8
0
100
AcDbPoint
 10
98.0
 20
70.59765397822238
 30
0.0
  0
POINT
  5
2F4
330
17
100
AcDbEntity
  8
0
100
AcDbPoint
 10
97.75000000000001
 20
70.59765398031043
 30
0.0
  0
POINT
  5
2F5
330
17
100
AcDbEntity
  8
0
100
AcDbPoint
 10
97.5
 20
70.5976539773516
 30
0.0
  0
POINT
  5
2F6
330
17
100
AcDbEntity
  8
0
100
AcDbPoint
 10
97.25
 20
70.59765397941155
 30
0.0
  0
POINT
  5
2F7
330
17
100
AcDbEntity
  8
0
100
AcDbPoint
 10
97.00000000000001
 20
70.59765397877273
 30
0.0
  0
POINT
  5
2F8
330
17
100
AcDbEntity
  8
0
100
AcDbPoint
 10
96.75
 20
70.59765397942444
 30
0.0
  0
POINT
  5
2F9
330
17
100
AcDbEntity
  8
0
100
AcDbPoint
 10
96.50000000000001
 20
70.59765397945172
 30
0.0
  0
POINT
  5
2FA
330
17
100
AcDbEntity
  8
0
100
AcDbPoint
 10
96.25
 20
70.59765397832432
 30
0.0
  0
POINT
  5
2FB
330
17
100
AcDbEntity
  8
0
100
AcDbPoint
 10
96.0
 20
70.59765397887354
 30
0.0
  0
POINT
  5
2FC
330
17
100
AcDbEntity
  8
0
100
AcDbPoint
 10
95.75000000000001
 20
70.59765397963085
 30
0.0
  0
POINT
  5
2FD
330
17
100
AcDbEntity
  8
0
100
AcDbPoint
 10
95.5
 20
70.59765397846486
 30
0.0
  0
POINT
  5
2FE
330
17
100
AcDbEntity
  8
0
100
AcDbPoint
 10
95.24999999999999
 20
70.59765397921568
 30
0.0
  0
POINT
  5
2FF
330
17
100
AcDbEntity
  8
0
100
AcDbPoint
 10
95.0
 20
70.59765397922875
 30
0.0
  0
POINT
  5
300
330
17
100
AcDbEntity
  8
0
100
AcDbPoint
 10
94.75
 20
70.59765397890713
 30
0.0
  0
POINT
  5
301
330
17
100
AcDbEntity
  8
0
100
AcDbPoint
 10
94.50000000000001
 20
70.59765397805303
 30
0.0
  0
POINT
  5
302
330
17
100
AcDbEntity
  8
0
100
AcDbPoint
 10
94.25
 20
70.5976539802302
 30
0.0
  0
POINT
  5
303
330
17
100
AcDbEntity
  8
0
100
AcDbPoint
 10
93.99999999999999
 20
70.59765397949982
 30
0.0
  0
POINT
  5
304
330
17
100
AcDbEntity
  8
0
100
AcDbPoint
 10
93.75000000000001
 20
70.59765397766066
 30
0.0
  0
POINT
  5
305
330
17
100
AcDbEntity
  8
0
100
AcDbPoint
 10
93.5
 20
70.59765397998493
 30
0.0
  0
POINT
  5
306
330
17
100
AcDbEntity
  8
0
100
AcDbPoint
 10
93.25000000000001
 20
70.59765397833701
 30
0.0
  0
POINT
  5
307
330
17
100
AcDbEntity
  8
0
100
AcDbPoint
 10
93.0
 20
70.59765397898346
 30
0.0
  0
POINT
  5
308
330
17
100
AcDbEntity
  8
0
100
AcDbPoint
 10
92.75
 20
70.5976539798663
 30
0.0
  0
POINT
  5
309
330
17
100
AcDbEntity
  8
0
100
AcDbPoint
 10
92.50000000000001
 20
70.5976539777327
 30
0.0
  0
POINT
  5
30A
330
17
100
AcDbEntity
  8
0
100
AcDbPoint
 10
92.25
 20
70.59765397994961
 30
0.0
  0
POINT
  5
30B
330
17
100
AcDbEntity
  8
0
100
AcDbPoint
 10
92.00000000000001
 20
70.59765397804303
 30
0.0
  0
POINT
  5
30C
330
17
100
AcDbEntity
  8
0
100
AcDbPoint
 10
91.75
 20
70.59765398043278
 30
0.0
  0
POINT
  5
30D
330
17
100
AcDbEntity
  8
0
100
AcDbPoint
 10
91.5
 20
70.59765397788003
 30
0.0
  0
POINT
  5
30E
330
17
100
AcDbEntity
  8
0
100
AcDbPoint
 10
91.25000000000001
 20
70.59765397866447
 30
0.0
  0
POINT
  5
30F
330
17
100
AcDbEntity
  8
0
100
AcDbPoint
 10
91.0
 20
70.59765398111952
 30
0.0
  0
POINT
  5
310
330
17
100
AcDbEntity
  8
0
100
AcDbPoint
 10
90.74999999999999
 20
70.59765397669423
 30
0.0
  0
POINT
  5
311
330
17
100
AcDbEntity
  8
0
100
AcDbPoint
 10
90.5
 20
70.59765398105073
 30
0.0
  0
POINT
  5
312
330
17
100
AcDbEntity
  8
0
100
AcDbPoint
 10
90.25
 20
70.59765397660367
 30
0.0
  0
POINT
  5
313
330
17
100
AcDbEntity
  8
0
100
AcDbPoint
 10
90.00000000000001
 20
70.5976539808652
 30
0.0
  0
POINT
  5
314
330
17
100
AcDbEntity
  8
0
100
AcDbPoint
 10
89.75
 20
70.59765397884301
 30
0.0
  0
POINT
  5
315
330
17
100
AcDbEntity
  8
0
100
AcDbPoint
 10
89.49999999999999
 20
70.59765397806527
 30
0.0
  0
POINT
  5
316
330
17
100
AcDbEntity
  8
0
100
AcDbPoint
 10
89.25000000000001
 20
70.59765397968067
 30
0.0
  0
POINT
  5
317
330
17
100
AcDbEntity
  8
0
100
AcDbPoint
 10
89.0
 20
70.59765397958729
 30
0.0
  0
POINT
  5
318
330
17
100
AcDbEntity
  8
0
100
AcDbPoint
 10
88.75000000000001
 20
70.59765397799195
 30
0.0
  0
POINT
  5
319
330
17
100
AcDbEntity
  8
0
100
AcDbPoint
 10
88.5
 20
70.59765397933889
 30
0.0
  0
POINT
  5
31A
330
17
100
AcDbEntity
  8
0
100
AcDbPoint
 10
88.25
 20
70.59765397888019
 30
0.0
  0
POINT
  5
31B
330
17
100
AcDbEntity
  8
0
100
AcDbPoint
 10
88.00000000000001
 20
70.59765397890816
 30
0.0
  0
POINT
  5
31C
330
17
100
AcDbEntity
  8
0
100
AcDbPoint
 10
87.75
 20
70.59765397981101
 30
0.0
  0
POINT
  5
31D
330
17
100
AcDbEntity
  8
0
100
AcDbPoint
 10
87.50000000000001
 20
70.5976539778894
 30
0.0
  0
POINT
  5
31E
330
17
100
AcDbEntity
  8
0
100
AcDbPoint
 10
87.25
 20
70.59765397978308
 30
0.0
  0
POINT
  5
31F
330
17
100
AcDbEntity
  8
0
100
AcDbPoint
 10
87.0
 20
70.59765397888876
 30
0.0
  0
POINT
  5
320
330
17
100
AcDbEntity
  8
0
100
AcDbPoint
 10
86.75000000000001
 20
70.59765397928467
 30
0.0
  0
POINT
  5
321
330
17
100
AcDbEntity
  8
0
100
AcDbPoint
 10
86.5
 20
70.59765397837951
 30
0.0
  0
POINT
  5
322
330
17
100
AcDbEntity
  8
0
100
AcDbPoint
 10
86.24999999999999
 20
70.59765397991279
 30
0.0
  0
POINT
  5
323
330
17
100
AcDbEntity
  8
0
100
AcDbPoint
 10
86.0
 20
70.59765397800403
 30
0.0
  0
POINT
  5
324
330
17
100
AcDbEntity
  8
0
100
AcDbPoint
 10
85.75
 20
70.59765397861747
 30
0.0
  0
POINT
  5
325
330
17
100
AcDbEntity
  8
0
100
AcDbPoint
 10
85.50000000000001
 20
70.59765397905453
 30
0.0
  0
POINT
  5
326
330
17
100
AcDbEntity
  8
0
100
AcDbPoint
 10
85.25
 20
70.59765398026306
 30
0.0
  0
POINT
  5
327
330
17
100
AcDbEntity
  8
0
100
AcDbPoint
 10
84.99999999999999
 20
70.59765397848061
 30
0.0
  0
POINT
  5
328
330
17
100
AcDbEntity
  8
0
100
AcDbPoint
 10
84.75000000000001
 20
70.59765397921974
 30
0.0
  0
POINT
  5
329
330
17
100
AcDbEntity
  8
0
100
AcDbPoint
 10
84.5
 20
70.59765397904394
 30
0.0
  0
POINT
  5
32A
330
17
100
AcDbEntity
  8
0
100
AcDbPoint
 10
84.25000000000001
 20
70.59765397773035
 30
0.0
  0
POINT
  5
32B
330
17
100
AcDbEntity
  8
0
100
AcDbPoint
 10
84.0
 20
70.59765398019019
 30
0.0
  0
POINT
  5
32C
330
17
100
AcDbEntity
  8
0
100
AcDbPoint
 10
83.75
 20
70.59765397962232
 30
0.0
  0
POINT
  5
32D
330
17
100
AcDbEntity
  8
0
100
AcDbPoint
 10
83.50000000000001
 20
70.59765397760123
 30
0.0
  0
POINT
  5
32E
330
17
100
AcDbEntity
  8
0
100
AcDbPoint
 10
83.25
 20
70.59765398000398
 30
0.0
  0
POINT
  5
32F
330
17
100
AcDbEntity
  8
0
100
AcDbPoint
 10
82.99999999999999
 20
70.59765397801031
 30
0.0
  0
POINT
  5
330
330
17
100
AcDbEntity
  8
0
100
AcDbPoint
 10
82.75
 20
70.59765398012806
 30
0.0
  0
POINT
  5
331
330
17
100
AcDbEntity
  8
0
100
AcDbPoint
 10
82.5
 20
70.59765397790086
 30
0.0
  0
POINT
  5
332
330
17
100
AcDbEntity
  8
0
100
AcDbPoint
 10
82.25000000000001
 20
70.59765398001117
 30
0.0
  0
POINT
  5
333
330
17
100
AcDbEntity
  8
0
100
AcDbPoint
 10
82.0
 20
70.59765397873461
 30
0.0
  0
POINT
  5
334
330
17
100
AcDbEntity
  8
0
100
AcDbPoint
 10
81.74999999999999
 20
70.5976539787935
 30
0.0
  0
POINT
  5
335
330
17
100
AcDbEntity
  8
0
100
AcDbPoint
 10
81.5
 20
70.59765397899065
 30
0.0
  0
POINT
  5
336
330
17
100
AcDbEntity
  8
0
100
AcDbPoint
 10
81.25
 20
70.59765397880264
 30
0.0
  0
POINT
  5
337
330
17
100
AcDbEntity
  8
0
100
AcDbPoint
 10
81.00000000000001
 20
70.59765398009641
 30
0.0
  0
POINT
  5
338
330
17
100
AcDbEntity
  8
0
100
AcDbPoint
 10
80.75
 20
70.59765397801951
 30
0.0
  0
POINT
  5
339
330
17
100
AcDbEntity
  8
0
100
AcDbPoint
 10
80.49999999999999
 20
70.59765397875917
 30
0.0
  0
POINT
  5
33A
330
17
100
AcDbEntity
  8
0
100
AcDbPoint
 10
80.25000000000001
 20
70.5976539804473
 30
0.0
  0
POINT
  5
33B
330
17
100
AcDbEntity
  8
0
100
AcDbPoint
 10
80.0
 20
70.59765397715347
 30
0.0
  0
POINT
  5
33C
330
17
100
AcDbEntity
  8
0
100
AcDbPoint
 10
79.75000000000001
 20
70.59765397940424
 30
0.0
  0
POINT
  5
33D
330
17
100
AcDbEntity
  8
0
100
AcDbPoint
 10
79.5
 20
70.59765398046078
 30
0.0
  0
POINT
  5
33E
330
17
100
AcDbEntity
  8
0
100
AcDbPoint
 10
79.25
 20
70.59765397744687
 30
0.0
  0
POINT
  5
33F
330
17
100
AcDbEntity
  8
0
100
AcDbPoint
 10
79.00000000000001
 20
70.59765398028131
 30
0.0
  0
POINT
  5
340
330
17
100
AcDbEntity
  8
0
100
AcDbPoint
 10
78.75
 20
70.597653978353
 30
0.0
  0
POINT
  5
341
330
17
100
AcDbEntity
  8
0
100
AcDbPoint
 10
78.49999999999999
 20
70.59765397806747
 30
0.0
  0
POINT
  5
342
330
17
100
AcDbEntity
  8
0
100
AcDbPoint
 10
78.25
 20
70.59765398015853
 30
0.0
  0
POINT
  5
343
330
17
100
AcDbEntity
  8
0
100
AcDbPoint
 10
78.0
 20
70.59765397842907
 30
0.0
  0
POINT
  5
344
330
17
100
AcDbEntity
  8
0
100
AcDbPoint
 10
77.75000000000001
 20
70.59765398007143
 30
0.0
  0
POINT
  5
345
330
17
100
AcDbEntity
  8
0
100
AcDbPoint
 10
77.5
 20
70.59765397837866
 30
0.0
  0
POINT
  5
346
330
17
100
AcDbEntity
  8
0
100
AcDbPoint
 10
77.24999999999999
 20
70.59765397868361
 30
0.0
  0
POINT
  5
347
330
17
100
AcDbEntity
  8
0
100
AcDbPoint
 10
77.0
 20
70.59765397848246
 30
0.0
  0
POINT
  5
348
330
17
100
AcDbEntity
  8
0
100
AcDbPoint
 10
76.75
 20
70.59765398135616
 30
0.0
  0
POINT
  5
349
330
17
100
AcDbEntity
  8
0
100
AcDbPoint
 10
76.50000000000001
 20
70.59765397643672
 30
0.0
  0
POINT
  5
34A
330
17
100
AcDbEntity
  8
0
100
AcDbPoint
 10
76.25
 20
70.59765397997602
 30
0.0
  0
POINT
  5
34B
330
17
100
AcDbEntity
  8
0
100
AcDbPoint
 10
75.99999999999999
 20
70.59765397957295
 30
0.0
  0
POINT
  5
34C
330
17
100
AcDbEntity
  8
0
100
AcDbPoint
 10
75.75000000000001
 20
70.59765397814327
 30
0.0
  0
POINT
  5
34D
330
17
100
AcDbEntity
  8
0
100
AcDbPoint
 10
75.5
 20
70.59765397970611
 30
0.0
  0
POINT
  5
34E
330
17
100
AcDbEntity
  8
0
100
AcDbPoint
 10
75.25000000000001
 20
70.5976539784675
 30
0.0
  0
POINT
  5
34F
330
17
100
AcDbEntity
  8
0
100
AcDbPoint
 10
75.0
 20
70.59765397897554
 30
0.0
  0
POINT
  5
350
330
17
100
AcDbEntity
  8
0
100
AcDbPoint
 10
74.75
 20
70.59765397879745
 30
0.0
  0
POINT
  5
351
330
17
100
AcDbEntity
  8
0
100
AcDbPoint
 10
74.50000000000001
 20
70.5976539797102
 30
0.0
  0
POINT
  5
352
330
17
100
AcDbEntity
  8
0
100
AcDbPoint
 10
74.25
 20
70.597653978942
 30
0.0
  0
POINT
  5
353
330
17
100
AcDbEntity
  8
0
100
AcDbPoint
 10
73.99999999999999
 20
70.59765397850961
 30
0.0
  0
POINT
  5
354
330
17
100
AcDbEntity
  8
0
100
AcDbPoint
 10
73.75
 20
70.59765397955752
 30
0.0
  0
POINT
  5
355
330
17
100
AcDbEntity
  8
0
100
AcDbPoint
 10
73.5
 20
70.59765397879359
 30
0.0
  0
POINT
  5
356
330
17
100
AcDbEntity
  8
0
100
AcDbPoint
 10
73.25000000000001
 20
70.59765397875753
 30
0.0
  0
POINT
  5
357
330
17
100
AcDbEntity
  8
0
100
AcDbPoint
 10
73.0
 20
70.59765397916297
 30
0.0
  0
POINT
  5
358
330
17
100
AcDbEntity
  8
0
100
AcDbPoint
 10
72.74999999999999
 20
70.59765397923415
 30
0.0
  0
POINT
  5
359
330
17
100
AcDbEntity
  8
0
100
AcDbPoint
 10
72.5
 20
70.59765397851531
 30
0.0
  0
POINT
  5
35A
330
17
100
AcDbEntity
  8
0
100
AcDbPoint
 10
72.25
 20
70.59765397954615
 30
0.0
  0
POINT
  5
35B
330
17
100
AcDbEntity
  8
0
100
AcDbPoint
 10
72.00000000000001
 20
70.59765397911461
 30
0.0
  0
POINT
  5
35C
330
17
100
AcDbEntity
  8
0
100
AcDbPoint
 10
71.75000000000001
 20
70.59765397817468
 30
0.0
  0
POINT
  5
35D
330
17
100
AcDbEntity
  8
0
100
AcDbPoint
 10
71.49999999999999
 20
70.59765398027095
 30
0.0
  0
POINT
  5
35E
330
17
100
AcDbEntity
  8
0
100
AcDbPoint
 10
71.25000000000001
 20
70.5976539779555
 30
0.0
  0
POINT
  5
35F
330
17
100
AcDbEntity
  8
0
100
AcDbPoint
 10
71.0
 20
70.59765397846641
 30
0.0
  0
POINT
  5
360
330
17
100
AcDbEntity
  8
0
100
AcDbPoint
 10
70.75000000000001
 20
70.59765397967391
 30
0.0
  0
POINT
  5
361
330
17
100
AcDbEntity
  8
0
100
AcDbPoint
 10
70.5
 20
70.59765397939074
 30
0.0
  0
POINT
  5
362
330
17
100
AcDbEntity
  8
0
100
AcDbPoint
 10
70.25
 20
70.59765397936187
 30
0.0
  0
POINT
  5
363
330
17
100
AcDbEntity
  8
0
100
AcDbPoint
 10
70.00000000000001
 20
70.59765397791746
 30
0.0
  0
POINT
  5
364
330
17
100
AcDbEntity
  8
0
100
AcDbPoint
 10
69.75
 20
70.59765397942758
 30
0.0
  0
POINT
  5
365
330
17
100
AcDbEntity
  8
0
100
AcDbPoint
 10
69.49999999999999
 20
70.59765397937177
 30
0.0
  0
POINT
  5
366
330
17
100
AcDbEntity
  8
0
100
AcDbPoint
 10
69.25
 20
70.59765397874119
 30
0.0
  0
POINT
  5
367
330
17
100
AcDbEntity
  8
0
100
AcDbPoint
 10
69.0
 20
70.59765397892929
 30
0.0
  0
POINT
  5
368
330
17
100
AcDbEntity
  8
0
100
AcDbPoint
 10
68.75000000000001
 20
70.59765397921618
 30
0.0
  0
POINT
  5
369
330
17
100
AcDbEntity
  8
0
100
AcDbPoint
 10
68.5
 20
70.59765397885423
 30
0.0
  0
POINT
  5
36A
330
17
100
AcDbEntity
  8
0
100
AcDbPoint
 10
68.24999999999999
 20
70.59765397949649
 30
0.0
  0
POINT
  5
36B
330
17
100
AcDbEntity
  8
0
100
AcDbPoint
 10
68.00000000000001
 20
70.59765397858976
 30
0.0
  0
POINT
  5
36C
330
17
100
AcDbEntity
  8
0
100
AcDbPoint
 10
67.75
 20
70.59765397849613
 30
0.0
  0
POINT
  5
36D
330
17
100
AcDbEntity
  8
0
100
AcDbPoint
 10
67.50000000000001
 20
70.5976539792131
 30
0.0
  0
POINT
  5
36E
330
17
100
AcDbEntity
  8
0
100
AcDbPoint
 10
67.25
 20
70.5976539792827
 30
0.0
  0
POINT
  5
36F
330
17
100
AcDbEntity
  8
0
100
AcDbPoint
 10
66.99999999999999
 20
70.59765397922693
 30
0.0
  0
POINT
  5
370
330
17
100
AcDbEntity
  8
0
100
AcDbPoint
 10
66.75000000000001
 20
70.59765397904286
 30
0.0
  0
POINT
  5
371
330
17
100
AcDbEntity
  8
0
100
AcDbPoint
 10
66.5
 20
70.59765397874854
 30
0.0
  0
POINT
  5
372
330
17
100
AcDbEntity
  8
0
100
AcDbPoint
 10
66.25000000000001
 20
70.59765397891596
 30
0.0
  0
POINT
  5
373
330
17
100
AcDbEntity
  8
0
100
AcDbPoint
 10
66.0
 20
70.59765397938698
 30
0.0
  0
POINT
  5
374
330
17
100
AcDbEntity
  8
0
100
AcDbPoint
 10
65.75
 20
70.5976539787254
 30
0.0
  0
POINT
  5
375
330
17
100
AcDbEntity
  8
0
100
AcDbPoint
 10
65.50000000000003
 20
70.59765397879858
 30
0.0
  0
POINT
  5
376
330
17
100
AcDbEntity
  8
0
100
AcDbPoint
 10
65.25
 20
70.5976539791673
 30
0.0
  0
POINT
  5
377
330
17
100
AcDbEntity
  8
0
100
AcDbPoint
 10
64.99999999999999
 20
70.5976539788726
 30
0.0
  0
POINT
  5
378
330
17
100
AcDbEntity
  8
0
100
AcDbPoint
 10
64.75
 20
70.59765397918946
 30
0.0
  0
POINT
  5
379
330
17
100
AcDbEntity
  8
0
100
AcDbPoint
 10
64.5
 20
70.5976539796215
 30
0.0
  0
POINT
  5
37A
330
17
100
AcDbEntity
  8
0
100
AcDbPoint
 10
64.25000000000001
 20
70.5976539781603
 30
0.0
  0
POINT
  5
37B
330
17
100
AcDbEntity
  8
0
100
AcDbPoint
 10
64.0
 20
70.59765397893835
 30
0.0
  0
POINT
  5
37C
330
17
100
AcDbEntity
  8
0
100
AcDbPoint
 10
63.74999999999999
 20
70.59765397967527
 30
0.0
  0
POINT
  5
37D
330
17
100
AcDbEntity
  8
0
100
AcDbPoint
 10
63.50000000000001
 20
70.59765397829192
 30
0.0
  0
POINT
  5
37E
330
17
100
AcDbEntity
  8
0
100
AcDbPoint
 10
63.25
 20
70.59765397965477
 30
0.0
  0
POINT
  5
37F
330
17
100
AcDbEntity
  8
0
100
AcDbPoint
 10
63.000000000000014
 20
70.59765397855072
 30
0.0
  0
POINT
  5
380
330
17
100
AcDbEntity
  8
0
100
AcDbPoint
 10
62.75
 20
70.59765397864405
 30
0.0
  0
POINT
  5
381
330
17
100
AcDbEntity
  8
0
100
AcDbPoint
 10
62.49999999999999
 20
70.59765398031352
 30
0.0
  0
POINT
  5
382
330
17
100
AcDbEntity
  8
0
100
AcDbPoint
 10
62.25000000000001
 20
70.5976539784435
 30
0.0
  0
POINT
  5
383
330
17
100
AcDbEntity
  8
0
100
AcDbPoint
 10
62.0
 20
70.5976539783349
 30
0.0
  0
POINT
  5
384
330
17
100
AcDbEntity
  8
0
100
AcDbPoint
 10
61.75000000000003
 20
70.5976539795245
 30
0.0
  0
POINT
  5
385
330
17
100
AcDbEntity
  8
0
100
AcDbPoint
 10
61.50000000000001
 20
70.5976539793621
 30
0.0
  0
POINT
  5
386
330
17
100
AcDbEntity
  8
0
100
AcDbPoint
 10
61.24999999999999
 20
70.59765397807801
 30
0.0
  0
POINT
  5
387
330
17
100
AcDbEntity
  8
0
100
AcDbPoint
 10
61.00000000000001
 20
70.59765397975201
 30
0.0
  0
POINT
  5
388
330
17
100
AcDbEntity
  8
0
100
AcDbPoint
 10
60.75
 20
70.59765397899146
 30
0.0
  0
POINT
  5
389
330
17
100
AcDbEntity
  8
0
100
AcDbPoint
 10
60.49999999999999
 20
70.59765397861159
 30
0.0
  0
POINT
  5
38A
330
17
100
AcDbEntity
  8
0
100
AcDbPoint
 10
60.25000000000001
 20
70.59765397964323
 30
0.0
  0
POINT
  5
38B
330
17
100
AcDbEntity
  8
0
100
AcDbPoint
 10
59.99999999999999
 20
70.59765397820401
 30
0.0
  0
POINT
  5
38C
330
17
100
AcDbEntity
  8
0
100
AcDbPoint
 10
59.75000000000002
 20
70.59765397960003
 30
0.0
  0
POINT
  5
38D
330
17
100
AcDbEntity
  8
0
100
AcDbPoint
 10
59.5
 20
70.5976539789441
 30
0.0
  0
POINT
  5
38E
330
17
100
AcDbEntity
  8
0
100
AcDbPoint
 10
59.24999999999999
 20
70.5976539786161
 30
0.0
  0
POINT
  5
38F
330
17
100
AcDbEntity
  8
0
100
AcDbPoint
 10
59.00000000000001
 20
70.59765397920103
 30
0.0
  0
POINT
  5
390
330
17
100
AcDbEntity
  8
0
100
AcDbPoint
 10
58.75
 20
70.59765397884199
 30
0.0
  0
POINT
  5
391
330
17
100
AcDbEntity
  8
0
100
AcDbPoint
 10
58.500000000000014
 20
70.59765397961189
 30
0.0
  0
POINT
  5
392
330
17
100
AcDbEntity
  8
0
100
AcDbPoint
 10
58.25
 20
70.59765397866012
 30
0.0
  0
POINT
  5
393
330
17
100
AcDbEntity
  8
0
100
AcDbPoint
 10
57.99999999999999
 20
70.59765397905663
 30
0.0
  0
POINT
  5
394
330
17
100
AcDbEntity
  8
0
100
AcDbPoint
 10
57.75000000000001
 20
70.59765397854451
 30
0.0
  0
POINT
  5
395
330
17
100
AcDbEntity
  8
0
100
AcDbPoint
 10
57.5
 20
70.59765397970948
 30
0.0
  0
POINT
  5
396
330
17
100
AcDbEntity
  8
0
100
AcDbPoint
 10
57.25000000000002
 20
70.5976539782993
 30
0.0
  0
POINT
  5
397
330
17
100
AcDbEntity
  8
0
100
AcDbPoint
 10
57.00000000000001
 20
70.59765397960066
 30
0.0
  0
POINT
  5
398
330
17
100
AcDbEntity
  8
0
100
AcDbPoint
 10
56.749999999999986
 20
70.59765397895232
 30
0.0
  0
POINT
  5
399
330
17
100
AcDbEntity
  8
0
100
AcDbPoint
 10
56.50000000000001
 20
70.59765397862513
 30
0.0
  0
POINT
  5
39A
330
17
100
AcDbEntity
  8
0
100
AcDbPoint
 10
56.25
 20
70.59765397927251
 30
0.0
  0
POINT
  5
39B
330
17
100
AcDbEntity
  8
0
100
AcDbPoint
 10
55.99999999999999
 20
70.59765397892315
 30
0.0
  0
POINT
  5
39C
330
17
100
AcDbEntity
  8
0
100
AcDbPoint
 10
55.75000000000001
 20
70.59765397939209
 30
0.0
  0
POINT
  5
39D
330
17
100
AcDbEntity
  8
0
100
AcDbPoint
 10
55.49999999999999
 20
70.59765397861023
 30
0.0
  0
POINT
  5
39E
330
17
100
AcDbEntity
  8
0
100
AcDbPoint
 10
55.250000000000014
 20
70.59765397886272
 30
0.0
  0
POINT
  5
39F
330
17
100
AcDbEntity
  8
0
100
AcDbPoint
 10
55.0
 20
70.59765397956006
 30
0.0
  0
POINT
  5
3A0
330
17
100
AcDbEntity
  8
0
100
AcDbPoint
 10
54.74999999999999
 20
70.5976539787099
 30
0.0
  0
POINT
  5
3A1
330
17
100
AcDbEntity
  8
0
100
AcDbPoint
 10
54.50000000000001
 20
70.59765397902015
 30
0.0
  0
POINT
  5
3A2
330
17
100
AcDbEntity
  8
0
100
AcDbPoint
 10
54.25
 20
70.59765397854905
 30
0.0
  0
POINT
  5
3A3
330
17
100
AcDbEntity
  8
0
100
AcDbPoint
 10
54.00000000000002
 20
70.59765397942199
 30
0.0
  0
POINT
  5
3A4
330
17
100
AcDbEntity
  8
0
100
AcDbPoint
 10
53.74999999999999
 20
70.5976539790958
 30
0.0
  0
POINT
  5
3A5
330
17
100
AcDbEntity
  8
0
100
AcDbPoint
 10
53.49999999999999
 20
70.59765397962694
 30
0.0
  0
POINT
  5
3A6
330
17
100
AcDbEntity
  8
0
100
AcDbPoint
 10
53.250000000000014
 20
70.5976539777667
 30
0.0
  0
POINT
  5
3A7
330
17
100
AcDbEntity
  8
0
100
AcDbPoint
 10
53.0
 20
70.59765397935573
 30
0.0
  0
POINT
  5
3A8
330
17
100
AcDbEntity
  8
0
100
AcDbPoint
 10
52.750000000000014
 20
70.59765397924139
 30
0.0
  0
POINT
  5
3A9
330
17
100
AcDbEntity
  8
0
100
AcDbPoint
 10
52.50000000000001
 20
70.5976539792598
 30
0.0
  0
POINT
  5
3AA
330
17
100
AcDbEntity
  8
0
100
AcDbPoint
 10
52.25
 20
70.59765397846567
 30
0.0
  0
POINT
  5
3AB
330
17
100
AcDbEntity
  8
0
100
AcDbPoint
 10
52.00000000000001
 20
70.59765397930607
 30
0.0
  0
POINT
  5
3AC
330
17
100
AcDbEntity
  8
0
100
AcDbPoint
 10
51.75
 20
70.59765397913976
 30
0.0
  0
POINT
  5
3AD
330
17
100
AcDbEntity
  8
0
100
AcDbPoint
 10
51.49999999999999
 20
70.59765397864625
 30
0.0
  0
POINT
  5
3AE
330
17
100
AcDbEntity
  8
0
100
AcDbPoint
 10
51.25000000000001
 20
70.59765397916829
 30
0.0
  0
POINT
  5
3AF
330
17
100
AcDbEntity
  8
0
100
AcDbPoint
 10
50.99999999999999
 20
70.59765397860274
 30
0.0
  0
POINT
  5
3B0
330
17
100
AcDbEntity
  8
0
100
AcDbPoint
 10
50.750000000000014
 20
70.59765398023688
 30
0.0
  0
POINT
  5
3B1
330
17
100
AcDbEntity
  8
0
100
AcDbPoint
 10
50.5
 20
70.59765397801327
 30
0.0
  0
POINT
  5
3B2
330
17
100
AcDbEntity
  8
0
100
AcDbPoint
 10
50.24999999999999
 20
70.59765397954972
 30
0.0
  0
POINT
  5
3B3
330
17
100
AcDbEntity
  8
0
100
AcDbPoint
 10
50.00000000000001
 20
70.59765397881742
 30
0.0
  0
POINT
  5
3B4
330
17
100
AcDbEntity
  8
0
100
AcDbPoint
 10
49.75
 20
70.59765397848976
 30
0.0
  0
POINT
  5
3B5
330
17
100
AcDbEntity
  8
0
100
AcDbPoint
 10
49.50000000000002
 20
70.59765397924185
 30
0.0
  0
POINT
  5
3B6
330
17
100
AcDbEntity
  8
0
100
AcDbPoint
 10
49.25000000000001
 20
70.5976539793199
 30
0.0
  0
POINT
  5
3B7
330
17
100
AcDbEntity
  8
0
100
AcDbPoint
 10
48.99999999999999
 20
70.59765397894114
 30
0.0
  0
POINT
  5
3B8
330
17
100
AcDbEntity
  8
0
100
AcDbPoint
 10
48.75000000000001
 20
70.59765397836597
 30
0.0
  0
POINT
  5
3B9
330
17
100
AcDbEntity
  8
0
100
AcDbPoint
 10
48.49999999999999
 20
70.59765397991615
 30
0.0
  0
POINT
  5
3BA
330
17
100
AcDbEntity
  8
0
100
AcDbPoint
 10
48.25000000000001
 20
70.59765397858914
 30
0.0
  0
POINT
  5
3BB
330
17
100
AcDbEntity
  8
0
100
AcDbPoint
 10
48.00000000000001
 20
70.59765397903128
 30
0.0
  0
POINT
  5
3BC
330
17
100
AcDbEntity
  8
0
100
AcDbPoint
 10
47.74999999999999
 20
70.59765397898548
 30
0.0
  0
POINT
  5
3BD
330
17
100
AcDbEntity
  8
0
100
AcDbPoint
 10
47.50000000000001
 20
70.59765397883453
 30
0.0
  0
POINT
  5
3BE
330
17
100
AcDbEntity
  8
0
100
AcDbPoint
 10
47.25
 20
70.59765397966163
 30
0.0
  0
POINT
  5
3BF
330
17
100
AcDbEntity
  8
0
100
AcDbPoint
 10
46.99999999999999
 20
70.5976539782703
 30
0.0
  0
POINT
  5
3C0
330
17
100
AcDbEntity
  8
0
100
AcDbPoint
 10
46.75000000000001
 20
70.59765397957466
 30
0.0
  0
POINT
  5
3C1
330
17
100
AcDbEntity
  8
0
100
AcDbPoint
 10
46.49999999999999
 20
70.59765397862587
 30
0.0
  0
POINT
  5
3C2
330
17
100
AcDbEntity
  8
0
100
AcDbPoint
 10
46.250000000000014
 20
70.5976539794437
 30
0.0
  0
POINT
  5
3C3
330
17
100
AcDbEntity
  8
0
100
AcDbPoint
 10
45.99999999999999
 20
70.59765397866916
 30
0.0
  0
POINT
  5
3C4
330
17
100
AcDbEntity
  8
0
100
AcDbPoint
 10
45.75000000000001
 20
71.12684345726392
 30
0.0
  0
POINT
  5
3C5
330
17
100
AcDbEntity
  8
0
100
AcDbPoint
 10
45.49999999999997
 20
70.59766394154494
 30
0.0
  0
POINT
  5
3C6
330
17
100
AcDbEntity
  8
0
100
AcDbPoint
 10
45.25
 20
71.12686337816889
 30
0.0
  0
POINT
  5
3C7
330
17
100
AcDbEntity
  8
0
100
AcDbPoint
 10
45.00000000000001
 20
71.12688322408823
 30
0.0
  0
POINT
  5
3C8
330
17
100
AcDbEntity
  8
0
100
AcDbPoint
 10
44.74999999999998
 20
71.12691298835232
 30
0.0
  0
POINT
  5
3C9
330
17
100
AcDbEntity
  8
0
100
AcDbPoint
 10
44.49999999999999
 20
71.12695267852622
 30
0.0
  0
POINT
  5
3CA
330
17
100
AcDbEntity
  8
0
100
AcDbPoint
 10
44.25000000000001
 20
71.66418469007874
 30
0.0
  0
POINT
  5
3CB
330
17
100
AcDbEntity
  8
0
100
AcDbPoint
 10
44.00000000000002
 20
71.66425355335541
 30
0.0
  0
POINT
  5
3CC
330
17
100
AcDbEntity
  8
0
100
AcDbPoint
 10
43.749999999999986
 20
71.66434208997813
 30
0.0
  0
POINT
  5
3CD
330
17
100
AcDbEntity
  8
0
100
AcDbPoint
 10
43.50000000000001
 20
71.66445030278629
 30
0.0
  0
POINT
  5
3CE
330
17
100
AcDbEntity
  8
0
100
AcDbPoint
 10
43.25000000000003
 20
72.20993554070893
 30
0.0
  0
POINT
  5
3CF
330
17
100
AcDbEntity
  8
0
100
AcDbPoint
 10
42.999999999999986
 20
72.7638121087226
 30
0.0
  0
POINT
  5
3D0
330
17
100
AcDbEntity
  8
0
100
AcDbPoint
 10
42.75
 20
71.6649282959736
 30
0.0
  0
POINT
  5
3D1
330
17
100
AcDbEntity
  8
0
100
AcDbPoint
 10
42.500000000000014
 20
73.32649808430659
 30
0.0
  0
POINT
  5
3D2
330
17
100
AcDbEntity
  8
0
100
AcDbPoint
 10
42.24999999999998
 20
72.76447920191754
 30
0.0
  0
POINT
  5
3D3
330
17
100
AcDbEntity
  8
0
100
AcDbPoint
 10
41.99999999999999
 20
73.32705393123382
 30
0.0
  0
POINT
  5
3D4
330
17
100
AcDbEntity
  8
0
100
AcDbPoint
 10
41.750000000000014
 20
73.32739733272234
 30
0.0
  0
POINT
  5
3D5
330
17
100
AcDbEntity
  8
0
100
AcDbPoint
 10
41.50000000000002
 20
73.8988190747054
 30
0.0
  0
POINT
  5
3D6
330
17
100
AcDbEntity
  8
0
100
AcDbPoint
 10
41.249999999999986
 20
73.32823283910926
 30
0.0
  0
POINT
  5
3D7
330
17
100
AcDbEntity
  8
0
100
AcDbPoint
 10
41.00000000000001
 20
74.47974725839704
 30
0.0
  0
POINT
  5
3D8
330
17
100
AcDbEntity
  8
0
100
AcDbPoint
 10
40.75000000000002
 20
74.48029594480877
 30
0.0
  0
POINT
  5
3D9
330
17
100
AcDbEntity
  8
0
100
AcDbPoint
 10
40.49999999999998
 20
74.48090972320381
 30
0.0
  0
POINT
  5
3DA
330
17
100
AcDbEntity
  8
0
100
AcDbPoint
 10
40.25
 20
30.9713571182859
 30
0.0
  0
POINT
  5
3DB
330
17
100
AcDbEntity
  8
0
100
AcDbPoint
 10
40.00000000000002
 20
40.45880087676652
 30
0.0
  0
POINT
  5
3DC
330
17
100
AcDbEntity
  8
0
100
AcDbPoint
 10
39.749999999999986
 20
30.973212808530032
 30
0.0
  0
POINT
  5
3DD
330
17
100
AcDbEntity
  8
0
100
AcDbPoint
 10
39.5
 20
76.27990716024361
 30
0.0
  0
POINT
  5
3DE
330
17
100
AcDbEntity
  8
0
100
AcDbPoint
 10
39.25000000000002
 20
76.28086549575522
 30
0.0
  0
POINT
  5
3DF
330
17
100
AcDbEntity
  8
0
100
AcDbPoint
 10
38.999999999999986
 20
76.28191257487227
 30
0.0
  0
POINT
  5
3E0
330
17
100
AcDbEntity
  8
0
100
AcDbPoint
 10
38.74999999999999
 20
76.90104401152706
 30
0.0
  0
POINT
  5
3E1
330
17
100
AcDbEntity
  8
0
100
AcDbPoint
 10
38.50000000000001
 20
76.90225498165127
 30
0.0
  0
POINT
  5
3E2
330
17
100
AcDbEntity
  8
0
100
AcDbPoint
 10
38.25000000000003
 20
78.17004862315946
 30
0.0
  0
POINT
  5
3E3
330
17
100
AcDbEntity
  8
0
100
AcDbPoint
 10
37.99999999999999
 20
76.90494750092672
 30
0.0
  0
POINT
  5
3E4
330
17
100
AcDbEntity
  8
0
100
AcDbPoint
 10
37.75000000000001
 20
78.82189527035474
 30
0.0
  0
POINT
  5
3E5
330
17
100
AcDbEntity
  8
0
100
AcDbPoint
 10
37.50000000000003
 20
78.17445448183895
 30
0.0
  0
POINT
  5
3E6
330
17
100
AcDbEntity
  8
0
100
AcDbPoint
 10
37.25
 20
79.4849181795488
 30
0.0
  0
POINT
  5
3E7
330
17
100
AcDbEntity
  8
0
100
AcDbPoint
 10
37.0
 20
78.82683222426103
 30
0.0
  0
POINT
  5
3E8
330
17
100
AcDbEntity
  8
0
100
AcDbPoint
 10
36.750000000000014
 20
79.48849506516063
 30
0.0
  0
POINT
  5
3E9
330
17
100
AcDbEntity
  8
0
100
AcDbPoint
 10
36.49999999999998
 20
80.16134427599901
 30
0.0
  0
POINT
  5
3EA
330
17
100
AcDbEntity
  8
0
100
AcDbPoint
 10
36.25
 20
80.16336417721126
 30
0.0
  0
POINT
  5
3EB
330
17
100
AcDbEntity
  8
0
100
AcDbPoint
 10
36.000000000000014
 20
80.84777355278472
 30
0.0
  0
POINT
  5
3EC
330
17
100
AcDbEntity
  8
0
100
AcDbPoint
 10
35.74999999999998
 20
80.84998097825651
 30
0.0
  0
POINT
  5
3ED
330
17
100
AcDbEntity
  8
0
100
AcDbPoint
 10
35.5
 20
81.5462270367783
 30
0.0
  0
POINT
  5
3EE
330
17
100
AcDbEntity
  8
0
100
AcDbPoint
 10
35.25000000000001
 20
81.54861695120869
 30
0.0
  0
POINT
  5
3EF
330
17
100
AcDbEntity
  8
0
100
AcDbPoint
 10
35.00000000000002
 20
82.25698093904748
 30
0.0
  0
POINT
  5
3F0
330
17
100
AcDbEntity
  8
0
100
AcDbPoint
 10
34.749999999999986
 20
82.97766506566451
 30
0.0
  0
POINT
  5
3F1
330
17
100
AcDbEntity
  8
0
100
AcDbPoint
 10
34.50000000000001
 20
82.98026410708579
 30
0.0
  0
POINT
  5
3F2
330
17
100
AcDbEntity
  8
0
100
AcDbPoint
 10
34.25000000000002
 20
82.98299816722495
 30
0.0
  0
POINT
  5
3F3
330
17
100
AcDbEntity
  8
0
100
AcDbPoint
 10
33.99999999999999
 20
83.71646444171243
 30
0.0
  0
POINT
  5
3F4
330
17
100
AcDbEntity
  8
0
100
AcDbPoint
 10
33.75
 20
84.46285323453588
 30
0.0
  0
POINT
  5
3F5
330
17
100
AcDbEntity
  8
0
100
AcDbPoint
 10
33.500000000000014
 20
84.4657343920302
 30
0.0
  0
POINT
  5
3F6
330
17
100
AcDbEntity
  8
0
100
AcDbPoint
 10
33.24999999999998
 20
84.46875134467456
 30
0.0
  0
POINT
  5
3F7
330
17
100
AcDbEntity
  8
0
100
AcDbPoint
 10
33.0
 20
85.99876102296929
 30
0.0
  0
POINT
  5
3F8
330
17
100
AcDbEntity
  8
0
100
AcDbPoint
 10
32.750000000000014
 20
85.23153833002121
 30
0.0
  0
POINT
  5
3F9
330
17
100
AcDbEntity
  8
0
100
AcDbPoint
 10
32.500000000000036
 20
86.00487356373884
 30
0.0
  0
POINT
  5
3FA
330
17
100
AcDbEntity
  8
0
100
AcDbPoint
 10
32.25
 20
86.79208280493702
 30
0.0
  0
POINT
  5
3FB
330
17
100
AcDbEntity
  8
0
100
AcDbPoint
 10
32.00000000000001
 20
86.79521036230132
 30
0.0
  0
POINT
  5
3FC
330
17
100
AcDbEntity
  8
0
100
AcDbPoint
 10
31.75000000000002
 20
87.59664486575406
 30
0.0
  0
POINT
  5
3FD
330
17
100
AcDbEntity
  8
0
100
AcDbPoint
 10
31.499999999999993
 20
87.59978941828342
 30
0.0
  0
POINT
  5
3FE
330
17
100
AcDbEntity
  8
0
100
AcDbPoint
 10
31.250000000000004
 20
87.6030597351431
 30
0.0
  0
POINT
  5
3FF
330
17
100
AcDbEntity
  8
0
100
AcDbPoint
 10
31.000000000000018
 20
89.24677074773042
 30
0.0
  0
POINT
  5
400
330
17
100
AcDbEntity
  8
0
100
AcDbPoint
 10
30.74999999999999
 20
88.42211250982396
 30
0.0
  0
POINT
  5
401
330
17
100
AcDbEntity
  8
0
100
AcDbPoint
 10
30.5
 20
89.25288810296618
 30
0.0
  0
POINT
  5
402
330
17
100
AcDbEntity
  8
0
100
AcDbPoint
 10
30.25000000000002
 20
90.09889370961008
 30
0.0
  0
POINT
  5
403
330
17
100
AcDbEntity
  8
0
100
AcDbPoint
 10
29.999999999999986
 20
89.2591627011764
 30
0.0
  0
POINT
  5
404
330
17
100
AcDbEntity
  8
0
100
AcDbPoint
 10
29.749999999999993
 20
90.96347733394234
 30
0.0
  0
POINT
  5
405
330
17
100
AcDbEntity
  8
0
100
AcDbPoint
 10
29.50000000000001
 20
90.96619880097906
 30
0.0
  0
POINT
  5
406
330
17
100
AcDbEntity
  8
0
100
AcDbPoint
 10
29.250000000000025
 20
91.84352345337308
 30
0.0
  0
POINT
  5
407
330
17
100
AcDbEntity
  8
0
100
AcDbPoint
 10
28.999999999999996
 20
90.97174874534535
 30
0.0
  0
POINT
  5
408
330
17
100
AcDbEntity
  8
0
100
AcDbPoint
 10
28.750000000000007
 20
91.84873862799788
 30
0.0
  0
POINT
  5
409
330
17
100
AcDbEntity
  8
0
100
AcDbPoint
 10
28.50000000000002
 20
92.74200414189038
 30
0.0
  0
POINT
  5
40A
330
17
100
AcDbEntity
  8
0
100
AcDbPoint
 10
28.249999999999986
 20
92.74420703914221
 30
0.0
  0
POINT
  5
40B
330
17
100
AcDbEntity
  8
0
100
AcDbPoint
 10
28.000000000000004
 20
93.653896267844
 30
0.0
  0
POINT
  5
40C
330
17
100
AcDbEntity
  8
0
100
AcDbPoint
 10
27.750000000000014
 20
92.74860884842751
 30
0.0
  0
POINT
  5
40D
330
17
100
AcDbEntity
  8
0
100
AcDbPoint
 10
27.499999999999982
 20
94.58235871268546
 30
0.0
  0
POINT
  5
40E
330
17
100
AcDbEntity
  8
0
100
AcDbPoint
 10
27.25
 20
93.65939418848605
 30
0.0
  0
POINT
  5
40F
330
17
100
AcDbEntity
  8
0
100
AcDbPoint
 10
27.000000000000014
 20
95.52739286302483
 30
0.0
  0
POINT
  5
410
330
17
100
AcDbEntity
  8
0
100
AcDbPoint
 10
26.749999999999975
 20
94.5862396311787
 30
0.0
  0
POINT
  5
411
330
17
100
AcDbEntity
  8
0
100
AcDbPoint
 10
26.499999999999996
 20
95.52896754319909
 30
0.0
  0
POINT
  5
412
330
17
100
AcDbEntity
  8
0
100
AcDbPoint
 10
26.250000000000004
 20
95.52965490044481
 30
0.0
  0
POINT
  5
413
330
17
100
AcDbEntity
  8
0
100
AcDbPoint
 10
26.000000000000025
 20
96.48964821796206
 30
0.0
  0
POINT
  5
414
330
17
100
AcDbEntity
  8
0
100
AcDbPoint
 10
25.74999999999999
 20
96.48956520767179
 30
0.0
  0
POINT
  5
415
330
17
100
AcDbEntity
  8
0
100
AcDbPoint
 10
25.500000000000007
 20
97.46713161060345
 30
0.0
  0
POINT
  5
416
330
17
100
AcDbEntity
  8
0
100
AcDbPoint
 10
25.25000000000002
 20
96.4891028798913
 30
0.0
  0
POINT
  5
417
330
17
100
AcDbEntity
  8
0
100
AcDbPoint
 10
24.999999999999986
 20
97.46554839667795
 30
0.0
  0
POINT
  5
418
330
17
100
AcDbEntity
  8
0
100
AcDbPoint
 10
24.75
 20
98.46037343987564
 30
0.0
  0
POINT
  5
419
330
17
100
AcDbEntity
  8
0
100
AcDbPoint
 10
24.500000000000014
 20
98.45835172170078
 30
0.0
  0
POINT
  5
41A
330
17
100
AcDbEntity
  8
0
100
AcDbPoint
 10
24.24999999999998
 20
98.45630953942904
 30
0.0
  0
POINT
  5
41B
330
17
100
AcDbEntity
  8
0
100
AcDbPoint
 10
24.0
 20
98.4542488988
 30
0.0
  0
POINT
  5
41C
330
17
100
AcDbEntity
  8
0
100
AcDbPoint
 10
23.750000000000018
 20
99.46569496210125
 30
0.0
  0
POINT
  5
41D
330
17
100
AcDbEntity
  8
0
100
AcDbPoint
 10
23.500000000000032
 20
99.46240480899013
 30
0.0
  0
POINT
  5
41E
330
17
100
AcDbEntity
  8
0
100
AcDbPoint
 10
23.249999999999996
 20
100.49207871922238
 30
0.0
  0
POINT
  5
41F
330
17
100
AcDbEntity
  8
0
100
AcDbPoint
 10
23.00000000000001
 20
99.45524101832123
 30
0.0
  0
POINT
  5
420
330
17
100
AcDbEntity
  8
0
100
AcDbPoint
 10
22.750000000000025
 20
100.48316489803312
 30
0.0
  0
POINT
  5
421
330
17
100
AcDbEntity
  8
0
100
AcDbPoint
 10
22.499999999999986
 20
101.53039149207254
 30
0.0
  0
POINT
  5
422
330
17
100
AcDbEntity
  8
0
100
AcDbPoint
 10
22.250000000000007
 20
101.52408058831041
 30
0.0
  0
POINT
  5
423
330
17
100
AcDbEntity
  8
0
100
AcDbPoint
 10
22.000000000000018
 20
100.46757400210208
 30
0.0
  0
POINT
  5
424
330
17
100
AcDbEntity
  8
0
100
AcDbPoint
 10
21.74999999999999
 20
102.5830656945346
 30
0.0
  0
POINT
  5
425
330
17
100
AcDbEntity
  8
0
100
AcDbPoint
 10
21.5
 20
101.50466220301672
 30
0.0
  0
POINT
  5
426
330
17
100
AcDbEntity
  8
0
100
AcDbPoint
 10
21.250000000000014
 20
101.49804404003362
 30
0.0
  0
POINT
  5
427
330
17
100
AcDbEntity
  8
0
100
AcDbPoint
 10
20.999999999999975
 20
103.65028086975533
 30
0.0
  0
POINT
  5
428
330
17
100
AcDbEntity
  8
0
100
AcDbPoint
 10
20.74999999999999
 20
102.55037813943945
 30
0.0
  0
POINT
  5
429
330
17
100
AcDbEntity
  8
0
100
AcDbPoint
 10
20.500000000000007
 20
103.63028314100421
 30
0.0
  0
POINT
  5
42A
330
17
100
AcDbEntity
  8
0
100
AcDbPoint
 10
20.250000000000032
 20
103.61977629953562
 30
0.0
  0
POINT
  5
42B
330
17
100
AcDbEntity
  8
0
100
AcDbPoint
 10
19.99999999999999
 20
102.52314285301004
 30
0.0
  0
POINT
  5
42C
330
17
100
AcDbEntity
  8
0
100
AcDbPoint
 10
19.750000000000007
 20
104.70707376812005
 30
0.0
  0
POINT
  5
42D
330
17
100
AcDbEntity
  8
0
100
AcDbPoint
 10
19.500000000000025
 20
103.58756230791856
 30
0.0
  0
POINT
  5
42E
330
17
100
AcDbEntity
  8
0
100
AcDbPoint
 10
19.24999999999999
 20
104.68188655333284
 30
0.0
  0
POINT
  5
42F
330
17
100
AcDbEntity
  8
0
100
AcDbPoint
 10
19.000000000000004
 20
104.66872676197202
 30
0.0
  0
POINT
  5
430
330
17
100
AcDbEntity
  8
0
100
AcDbPoint
 10
18.750000000000018
 20
104.65543862070268
 30
0.0
  0
POINT
  5
431
330
17
100
AcDbEntity
  8
0
100
AcDbPoint
 10
18.499999999999982
 20
105.7667275155609
 30
0.0
  0
POINT
  5
432
330
17
100
AcDbEntity
  8
0
100
AcDbPoint
 10
18.25
 20
104.62771760053396
 30
0.0
  0
POINT
  5
433
330
17
100
AcDbEntity
  8
0
100
AcDbPoint
 10
18.000000000000014
 20
105.73570652910557
 30
0.0
  0
POINT
  5
434
330
17
100
AcDbEntity
  8
0
100
AcDbPoint
 10
17.74999999999998
 20
105.71957409219333
 30
0.0
  0
POINT
  5
435
330
17
100
AcDbEntity
  8
0
100
AcDbPoint
 10
17.499999999999993
 20
106.84593565252608
 30
0.0
  0
POINT
  5
436
330
17
100
AcDbEntity
  8
0
100
AcDbPoint
 10
17.25000000000001
 20
104.5692371304235
 30
0.0
  0
POINT
  5
437
330
17
100
AcDbEntity
  8
0
100
AcDbPoint
 10
17.000000000000025
 20
106.8096321472106
 30
0.0
  0
POINT
  5
438
330
17
100
AcDbEntity
  8
0
100
AcDbPoint
 10
16.74999999999999
 20
106.79035877730432
 30
0.0
  0
POINT
  5
439
330
17
100
AcDbEntity
  8
0
100
AcDbPoint
 10
16.500000000000004
 20
106.77093773876435
 30
0.0
  0
POINT
  5
43A
330
17
100
AcDbEntity
  8
0
100
AcDbPoint
 10
16.25000000000002
 20
106.7513759550477
 30
0.0
  0
POINT
  5
43B
330
17
100
AcDbEntity
  8
0
100
AcDbPoint
 10
15.999999999999988
 20
106.7316803784451
 30
0.0
  0
POINT
  5
43C
330
17
100
AcDbEntity
  8
0
100
AcDbPoint
 10
15.750000000000004
 20
107.86657266077412
 30
0.0
  0
POINT
  5
43D
330
17
100
AcDbEntity
  8
0
100
AcDbPoint
 10
15.50000000000002
 20
106.69094937834903
 30
0.0
  0
POINT
  5
43E
330
17
100
AcDbEntity
  8
0
100
AcDbPoint
 10
15.24999999999998
 20
107.82168947881877
 30
0.0
  0
POINT
  5
43F
330
17
100
AcDbEntity
  8
0
100
AcDbPoint
 10
14.999999999999998
 20
107.79853130556118
 30
0.0
  0
POINT
  5
440
330
17
100
AcDbEntity
  8
0
100
AcDbPoint
 10
14.75000000000001
 20
107.77524006572591
 30
0.0
  0
POINT
  5
441
330
17
100
AcDbEntity
  8
0
100
AcDbPoint
 10
14.499999999999979
 20
107.75182373182437
 30
0.0
  0
POINT
  5
442
330
17
100
AcDbEntity
  8
0
100
AcDbPoint
 10
14.249999999999991
 20
107.72829027767817
 30
0.0
  0
POINT
  5
443
330
17
100
AcDbEntity
  8
0
100
AcDbPoint
 10
14.000000000000009
 20
108.86989175530267
 30
0.0
  0
POINT
  5
444
330
17
100
AcDbEntity
  8
0
100
AcDbPoint
 10
13.750000000000025
 20
107.67982283648647
 30
0.0
  0
POINT
  5
445
330
17
100
AcDbEntity
  8
0
100
AcDbPoint
 10
13.49999999999999
 20
108.81679500307119
 30
0.0
  0
POINT
  5
446
330
17
100
AcDbEntity
  8
0
100
AcDbPoint
 10
13.250000000000002
 20
108.78950346633424
 30
0.0
  0
POINT
  5
447
330
17
100
AcDbEntity
  8
0
100
AcDbPoint
 10
13.00000000000002
 20
107.60583538111028
 30
0.0
  0
POINT
  5
448
330
17
100
AcDbEntity
  8
0
100
AcDbPoint
 10
12.749999999999988
 20
109.9147798139029
 30
0.0
  0
POINT
  5
449
330
17
100
AcDbEntity
  8
0
100
AcDbPoint
 10
12.5
 20
108.70699814112717
 30
0.0
  0
POINT
  5
44A
330
17
100
AcDbEntity
  8
0
100
AcDbPoint
 10
12.250000000000016
 20
108.67932146857619
 30
0.0
  0
POINT
  5
44B
330
17
100
AcDbEntity
  8
0
100
AcDbPoint
 10
11.99999999999998
 20
108.65157111962866
 30
0.0
  0
POINT
  5
44C
330
17
100
AcDbEntity
  8
0
100
AcDbPoint
 10
11.749999999999995
 20
108.62375618661235
 30
0.0
  0
POINT
  5
44D
330
17
100
AcDbEntity
  8
0
100
AcDbPoint
 10
11.50000000000001
 20
109.7626114057523
 30
0.0
  0
POINT
  5
44E
330
17
100
AcDbEntity
  8
0
100
AcDbPoint
 10
11.250000000000027
 20
109.7309213891563
 30
0.0
  0
POINT
  5
44F
330
17
100
AcDbEntity
  8
0
100
AcDbPoint
 10
10.999999999999991
 20
108.53754142498572
 30
0.0
  0
POINT
  5
450
330
17
100
AcDbEntity
  8
0
100
AcDbPoint
 10
10.750000000000007
 20
109.66864104727395
 30
0.0
  0
POINT
  5
451
330
17
100
AcDbEntity
  8
0
100
AcDbPoint
 10
10.500000000000021
 20
109.63678090963758
 30
0.0
  0
POINT
  5
452
330
17
100
AcDbEntity
  8
0
100
AcDbPoint
 10
10.249999999999988
 20
108.4509981517594
 30
0.0
  0
POINT
  5
453
330
17
100
AcDbEntity
  8
0
100
AcDbPoint
 10
10.000000000000002
 20
109.57428154960482
 30
0.0
  0
POINT
  5
454
330
17
100
AcDbEntity
  8
0
100
AcDbPoint
 10
9.75000000000002
 20
110.71559499935084
 30
0.0
  0
POINT
  5
455
330
17
100
AcDbEntity
  8
0
100
AcDbPoint
 10
9.499999999999984
 20
108.36307904518246
 30
0.0
  0
POINT
  5
456
330
17
100
AcDbEntity
  8
0
100
AcDbPoint
 10
9.249999999999998
 20
109.47845243311333
 30
0.0
  0
POINT
  5
457
330
17
100
AcDbEntity
  8
0
100
AcDbPoint
 10
9.000000000000012
 20
109.44651751472931
 30
0.0
  0
POINT
  5
458
330
17
100
AcDbEntity
  8
0
100
AcDbPoint
 10
8.749999999999979
 20
110.57672858070633
 30
0.0
  0
POINT
  5
459
330
17
100
AcDbEntity
  8
0
100
AcDbPoint
 10
8.499999999999995
 20
109.38133983567714
 30
0.0
  0
POINT
  5
45A
330
17
100
AcDbEntity
  8
0
100
AcDbPoint
 10
8.25000000000001
 20
108.21700610179592
 30
0.0
  0
POINT
  5
45B
330
17
100
AcDbEntity
  8
0
100
AcDbPoint
 10
8.000000000000025
 20
110.47274810431773
 30
0.0
  0
POINT
  5
45C
330
17
100
AcDbEntity
  8
0
100
AcDbPoint
 10
7.74999999999999
 20
110.43671067609274
 30
0.0
  0
POINT
  5
45D
330
17
100
AcDbEntity
  8
0
100
AcDbPoint
 10
7.500000000000006
 20
108.1286857042737
 30
0.0
  0
POINT
  5
45E
330
17
100
AcDbEntity
  8
0
100
AcDbPoint
 10
7.250000000000023
 20
110.36774670999783
 30
0.0
  0
POINT
  5
45F
330
17
100
AcDbEntity
  8
0
100
AcDbPoint
 10
6.999999999999986
 20
109.1898363073404
 30
0.0
  0
POINT
  5
460
330
17
100
AcDbEntity
  8
0
100
AcDbPoint
 10
6.750000000000001
 20
110.29761133997948
 30
0.0
  0
POINT
  5
461
330
17
100
AcDbEntity
  8
0
100
AcDbPoint
 10
6.500000000000017
 20
108.01269055715316
 30
0.0
  0
POINT
  5
462
330
17
100
AcDbEntity
  8
0
100
AcDbPoint
 10
6.249999999999981
 20
110.2293720117117
 30
0.0
  0
POINT
  5
463
330
17
100
AcDbEntity
  8
0
100
AcDbPoint
 10
5.999999999999997
 20
110.19390592792779
 30
0.0
  0
POINT
  5
464
330
17
100
AcDbEntity
  8
0
100
AcDbPoint
 10
5.750000000000012
 20
107.92664881360157
 30
0.0
  0
POINT
  5
465
330
17
100
AcDbEntity
  8
0
100
AcDbPoint
 10
5.499999999999978
 20
110.12642339013104
 30
0.0
  0
POINT
  5
466
330
17
100
AcDbEntity
  8
0
100
AcDbPoint
 10
5.249999999999993
 20
110.09135662647499
 30
0.0
  0
POINT
  5
467
330
17
100
AcDbEntity
  8
0
100
AcDbPoint
 10
5.000000000000009
 20
107.84200634357526
 30
0.0
  0
POINT
  5
468
330
17
100
AcDbEntity
  8
0
100
AcDbPoint
 10
4.750000000000024
 20
110.02481122310544
 30
0.0
  0
POINT
  5
469
330
17
100
AcDbEntity
  8
0
100
AcDbPoint
 10
4.4999999999999885
 20
108.87771478681765
 30
0.0
  0
POINT
  5
46A
330
17
100
AcDbEntity
  8
0
100
AcDbPoint
 10
4.250000000000004
 20
108.84787636256536
 30
0.0
  0
POINT
  5
46B
330
17
100
AcDbEntity
  8
0
100
AcDbPoint
 10
4.0000000000000195
 20
108.81824380956299
 30
0.0
  0
POINT
  5
46C
330
17
100
AcDbEntity
  8
0
100
AcDbPoint
 10
3.7499999999999845
 20
108.78882626564837
 30
0.0
  0
POINT
  5
46D
330
17
100
AcDbEntity
  8
0
100
AcDbPoint
 10
3.5
 20
108.75963280794785
 30
0.0
  0
POINT
  5
46E
330
17
100
AcDbEntity
  8
0
100
AcDbPoint
 10
3.250000000000015
 20
109.8282299281525
 30
0.0
  0
POINT
  5
46F
330
17
100
AcDbEntity
  8
0
100
AcDbPoint
 10
2.999999999999981
 20
107.62748456111812
 30
0.0
  0
POINT
  5
470
330
17
100
AcDbEntity
  8
0
100
AcDbPoint
 10
2.7499999999999964
 20
108.67349546151249
 30
0.0
  0
POINT
  5
471
330
17
100
AcDbEntity
  8
0
100
AcDbPoint
 10
2.5000000000000115
 20
108.6452878575137
 30
0.0
  0
POINT
  5
472
330
17
100
AcDbEntity
  8
0
100
AcDbPoint
 10
2.2500000000000266
 20
108.61734874342105
 30
0.0
  0
POINT
  5
473
330
17
100
AcDbEntity
  8
0
100
AcDbPoint
 10
1.9999999999999918
 20
108.58968680772296
 30
0.0
  0
POINT
  5
474
330
17
100
AcDbEntity
  8
0
100
AcDbPoint
 10
1.7500000000000073
 20
107.5038843676675
 30
0.0
  0
POINT
  5
475
330
17
100
AcDbEntity
  8
0
100
AcDbPoint
 10
1.5000000000000222
 20
108.53682159823461
 30
0.0
  0
POINT
  5
476
330
17
100
AcDbEntity
  8
0
100
AcDbPoint
 10
1.2499999999999878
 20
107.45739788073428
 30
0.0
  0
POINT
  5
477
330
17
100
AcDbEntity
  8
0
100
AcDbPoint
 10
1.000000000000003
 20
108.48517086833131
 30
0.0
  0
POINT
  5
478
330
17
100
AcDbEntity
  8
0
100
AcDbPoint
 10
0.750000000000019
 20
107.41216592890224
 30
0.0
  0
POINT
  5
479
330
17
100
AcDbEntity
  8
0
100
AcDbPoint
 10
0.49999999999998274
 20
108.43479956465248
 30
0.0
  0
POINT
  5
47A
330
17
100
AcDbEntity
  8
0
100
AcDbPoint
 10
0.24999999999999842
 20
106.34698563832194
 30
0.0
  0
POINT
  5
47B
330
17
100
AcDbEntity
  8
0
100
AcDbPoint
 10
1.3665061692535646e-14
 20
108.3873941074849
 30
0.0
  0
POINT
  5
47C
330
17
100
AcDbEntity
  8
0
100
AcDbPoint
 10
359.75
 20
107.32728198486897
 30
0.0
  0
POINT
  5
47D
330
17
100
AcDbEntity
  8
0
100
AcDbPoint
 10
359.5
 20
106.29438555785075
 30
0.0
  0
POINT
  5
47E
330
17
100
AcDbEntity
  8
0
100
AcDbPoint
 10
359.25
 20
108.31894457609398
 30
0.0
  0
POINT
  5
47F
330
17
100
AcDbEntity
  8
0
100
AcDbPoint
 10
359.0
 20
106.26113411625384
 30
0.0
  0
POINT
  5
480
330
17
100
AcDbEntity
  8
0
100
AcDbPoint
 10
358.75
 20
106.24662691986782
 30
0.0
  0
POINT
  5
481
330
17
100
AcDbEntity
  8
0
100
AcDbPoint
 10
358.5
 20
107.23446881952708
 30
0.0
  0
POINT
  5
482
330
17
100
AcDbEntity
  8
0
100
AcDbPoint
 10
358.25
 20
106.2172168586218
 30
0.0
  0
POINT
  5
483
330
17
100
AcDbEntity
  8
0
100
AcDbPoint
 10
358.0
 20
107.20036483070524
 30
0.0
  0
POINT
  5
484
330
17
100
AcDbEntity
  8
0
100
AcDbPoint
 10
357.75
 20
105.2139255992046
 30
0.0
  0
POINT
  5
485
330
17
100
AcDbEntity
  8
0
100
AcDbPoint
 10
357.5
 20
107.16949725076124
 30
0.0
  0
POINT
  5
486
330
17
100
AcDbEntity
  8
0
100
AcDbPoint
 10
357.25
 20
105.1945450529989
 30
0.0
  0
POINT
  5
487
330
17
100
AcDbEntity
  8
0
100
AcDbPoint
 10
357.0
 20
106.15467892253871
 30
0.0
  0
POINT
  5
488
330
17
100
AcDbEntity
  8
0
100
AcDbPoint
 10
356.75
 20
106.14342429229924
 30
0.0
  0
POINT
  5
489
330
17
100
AcDbEntity
  8
0
100
AcDbPoint
 10
356.5
 20
105.17015668519336
 30
0.0
  0
POINT
  5
48A
330
17
100
AcDbEntity
  8
0
100
AcDbPoint
 10
356.25
 20
105.1639143107315
 30
0.0
  0
POINT
  5
48B
330
17
100
AcDbEntity
  8
0
100
AcDbPoint
 10
356.0
 20
105.15810847702966
 30
0.0
  0
POINT
  5
48C
330
17
100
AcDbEntity
  8
0
100
AcDbPoint
 10
355.75
 20
105.15274421278757
 30
0.0
  0
POINT
  5
48D
330
17
100
AcDbEntity
  8
0
100
AcDbPoint
 10
355.5
 20
104.21253049193851
 30
0.0
  0
POINT
  5
48E
330
17
100
AcDbEntity
  8
0
100
AcDbPoint
 10
355.25
 20
106.09462026185251
 30
0.0
  0
POINT
  5
48F
330
17
100
AcDbEntity
  8
0
100
AcDbPoint
 10
355.0
 20
104.20895964599897
 30
0.0
  0
POINT
  5
490
330
17
100
AcDbEntity
  8
0
100
AcDbPoint
 10
354.75
 20
104.20936678761359
 30
0.0
  0
POINT
  5
491
330
17
100
AcDbEntity
  8
0
100
AcDbPoint
 10
354.5
 20
104.21023029564549
 30
0.0
  0
POINT
  5
492
330
17
100
AcDbEntity
  8
0
100
AcDbPoint
 10
354.25
 20
103.30443974354891
 30
0.0
  0
POINT
  5
493
330
17
100
AcDbEntity
  8
0
100
AcDbPoint
 10
354.0
 20
105.13566995387211
 30
0.0
  0
POINT
  5
494
330
17
100
AcDbEntity
  8
0
100
AcDbPoint
 10
353.75
 20
103.31309904219968
 30
0.0
  0
POINT
  5
495
330
17
100
AcDbEntity
  8
0
100
AcDbPoint
 10
353.5
 20
103.31960461312794
 30
0.0
  0
POINT
  5
496
330
17
100
AcDbEntity
  8
0
100
AcDbPoint
 10
353.25
 20
104.22454829814501
 30
0.0
  0
POINT
  5
497
330
17
100
AcDbEntity
  8
0
100
AcDbPoint
 10
353.0
 20
102.45211529970716
 30
0.0
  0
POINT
  5
498
330
17
100
AcDbEntity
  8
0
100
AcDbPoint
 10
352.75
 20
103.34194166524311
 30
0.0
  0
POINT
  5
499
330
17
100
AcDbEntity
  8
0
100
AcDbPoint
 10
352.5
 20
103.35033259848541
 30
0.0
  0
POINT
  5
49A
330
17
100
AcDbEntity
  8
0
100
AcDbPoint
 10
352.25
 20
102.48523604777272
 30
0.0
  0
POINT
  5
49B
330
17
100
AcDbEntity
  8
0
100
AcDbPoint
 10
352.0
 20
102.49818554471396
 30
0.0
  0
POINT
  5
49C
330
17
100
AcDbEntity
  8
0
100
AcDbPoint
 10
351.75
 20
99.1740786293248
 30
0.0
  0
POINT
  5
49D
330
17
100
AcDbEntity
  8
0
100
AcDbPoint
 10
351.5
 20
108.93041515138455
 30
0.0
  0
POINT
  5
49E
330
17
100
AcDbEntity
  8
0
100
AcDbPoint
 10
351.25
 20
99.21393844841593
 30
0.0
  0
POINT
  5
49F
330
17
100
AcDbEntity
  8
0
100
AcDbPoint
 10
351.0
 20
100.87174610507009
 30
0.0
  0
POINT
  5
4A0
330
17
100
AcDbEntity
  8
0
100
AcDbPoint
 10
350.75
 20
102.5744098410103
 30
0.0
  0
POINT
  5
4A1
330
17
100
AcDbEntity
  8
0
100
AcDbPoint
 10
350.5
 20
101.74499604956067
 30
0.0
  0
POINT
  5
4A2
330
17
100
AcDbEntity
  8
0
100
AcDbPoint
 10
350.25
 20
100.93519262872373
 30
0.0
  0
POINT
  5
4A3
330
17
100
AcDbEntity
  8
0
100
AcDbPoint
 10
350.0
 20
100.95865660351066
 30
0.0
  0
POINT
  5
4A4
330
17
100
AcDbEntity
  8
0
100
AcDbPoint
 10
349.75
 20
100.98258981859456
 30
0.0
  0
POINT
  5
4A5
330
17
100
AcDbEntity
  8
0
100
AcDbPoint
 10
349.5
 20
101.00699437566848
 30
0.0
  0
POINT
  5
4A6
330
17
100
AcDbEntity
  8
0
100
AcDbPoint
 10
349.25
 20
100.2229229995815
 30
0.0
  0
POINT
  5
4A7
330
17
100
AcDbEntity
  8
0
100
AcDbPoint
 10
349.0
 20
100.25138630060617
 30
0.0
  0
POINT
  5
4A8
330
17
100
AcDbEntity
  8
0
100
AcDbPoint
 10
348.75
 20
100.2803131488728
 30
0.0
  0
POINT
  5
4A9
330
17
100
AcDbEntity
  8
0
100
AcDbPoint
 10
348.5
 20
100.30970530209085
 30
0.0
  0
POINT
  5
4AA
330
17
100
AcDbEntity
  8
0
100
AcDbPoint
 10
348.25
 20
99.5501684333182
 30
0.0
  0
POINT
  5
4AB
330
17
100
AcDbEntity
  8
0
100
AcDbPoint
 10
348.0
 20
99.58345688436248
 30
0.0
  0
POINT
  5
4AC
330
17
100
AcDbEntity
  8
0
100
AcDbPoint
 10
347.75
 20
99.61720153260735
 30
0.0
  0
POINT
  5
4AD
330
17
100
AcDbEntity
  8
0
100
AcDbPoint
 10
347.5
 20
99.65140387466498
 30
0.0
  0
POINT
  5
4AE
330
17
100
AcDbEntity
  8
0
100
AcDbPoint
 10
347.25
 20
98.15626896559323
 30
0.0
  0
POINT
  5
4AF
330
17
100
AcDbEntity
  8
0
100
AcDbPoint
 10
347.0
 20
99.72377279820961
 30
0.0
  0
POINT
  5
4B0
330
17
100
AcDbEntity
  8
0
100
AcDbPoint
 10
346.75
 20
98.2355276607007
 30
0.0
  0
POINT
  5
4B1
330
17
100
AcDbEntity
  8
0
100
AcDbPoint
 10
346.5
 20
99.03166881208074
 30
0.0
  0
POINT
  5
4B2
330
17
100
AcDbEntity
  8
0
100
AcDbPoint
 10
346.25
 20
97.57598065609626
 30
0.0
  0
POINT
  5
4B3
330
17
100
AcDbEntity
  8
0
100
AcDbPoint
 10
346.0
 20
98.36141612631391
 30
0.0
  0
POINT
  5
4B4
330
17
100
AcDbEntity
  8
0
100
AcDbPoint
 10
345.75
 20
98.40424933999142
 30
0.0
  0
POINT
  5
4B5
330
17
100
AcDbEntity
  8
0
100
AcDbPoint
 10
345.5
 20
96.98302685935603
 30
0.0
  0
POINT
  5
4B6
330
17
100
AcDbEntity
  8
0
100
AcDbPoint
 10
345.25
 20
98.49367760979563
 30
0.0
  0
POINT
  5
4B7
330
17
100
AcDbEntity
  8
0
100
AcDbPoint
 10
345.0
 20
96.36496789426198
 30
0.0
  0
POINT
  5
4B8
330
17
100
AcDbEntity
  8
0
100
AcDbPoint
 10
344.75
 20
97.85223158596925
 30
0.0
  0
POINT
  5
4B9
330
17
100
AcDbEntity
  8
0
100
AcDbPoint
 10
344.5
 20
96.46687586649324
 30
0.0
  0
POINT
  5
4BA
330
17
100
AcDbEntity
  8
0
100
AcDbPoint
 10
344.25
 20
97.22957488464029
 30
0.0
  0
POINT
  5
4BB
330
17
100
AcDbEntity
  8
0
100
AcDbPoint
 10
344.0
 20
96.57154917143136
 30
0.0
  0
POINT
  5
4BC
330
17
100
AcDbEntity
  8
0
100
AcDbPoint
 10
343.75
 20
96.6250594655757
 30
0.0
  0
POINT
  5
4BD
330
17
100
AcDbEntity
  8
0
100
AcDbPoint
 10
343.5
 20
95.9826381011617
 30
0.0
  0
POINT
  5
4BE
330
17
100
AcDbEntity
  8
0
100
AcDbPoint
 10
343.25
 20
96.03915689883544
 30
0.0
  0
POINT
  5
4BF
330
17
100
AcDbEntity
  8
0
100
AcDbPoint
 10
343.0
 20
95.41176242061204
 30
0.0
  0
POINT
  5
4C0
330
17
100
AcDbEntity
  8
0
100
AcDbPoint
 10
342.75
 20
96.15445200518235
 30
0.0
  0
POINT
  5
4C1
330
17
100
AcDbEntity
  8
0
100
AcDbPoint
 10
342.5
 20
95.52986885657508
 30
0.0
  0
POINT
  5
4C2
330
17
100
AcDbEntity
  8
0
100
AcDbPoint
 10
342.25
 20
94.9183318880331
 30
0.0
  0
POINT
  5
4C3
330
17
100
AcDbEntity
  8
0
100
AcDbPoint
 10
342.0
 20
95.65162228104751
 30
0.0
  0
POINT
  5
4C4
330
17
100
AcDbEntity
  8
0
100
AcDbPoint
 10
341.75
 20
94.38222491344146
 30
0.0
  0
POINT
  5
4C5
330
17
100
AcDbEntity
  8
0
100
AcDbPoint
 10
341.5
 20
95.1070247972466
 30
0.0
  0
POINT
  5
4C6
330
17
100
AcDbEntity
  8
0
100
AcDbPoint
 10
341.25
 20
94.51190998031511
 30
0.0
  0
POINT
  5
4C7
330
17
100
AcDbEntity
  8
0
100
AcDbPoint
 10
341.0
 20
93.92893262897294
 30
0.0
  0
POINT
  5
4C8
330
17
100
AcDbEntity
  8
0
100
AcDbPoint
 10
340.75
 20
94.64501947460775
 30
0.0
  0
POINT
  5
4C9
330
17
100
AcDbEntity
  8
0
100
AcDbPoint
 10
340.5
 20
93.42591660855899
 30
0.0
  0
POINT
  5
4CA
330
17
100
AcDbEntity
  8
0
100
AcDbPoint
 10
340.25
 20
94.13405876221303
 30
0.0
  0
POINT
  5
4CB
330
17
100
AcDbEntity
  8
0
100
AcDbPoint
 10
340.0
 20
93.56616910089429
 30
0.0
  0
POINT
  5
4CC
330
17
100
AcDbEntity
  8
0
100
AcDbPoint
 10
339.75
 20
93.63726400547857
 30
0.0
  0
POINT
  5
4CD
330
17
100
AcDbEntity
  8
0
100
AcDbPoint
 10
339.5
 20
93.08171678281477
 30
0.0
  0
POINT
  5
4CE
330
17
100
AcDbEntity
  8
0
100
AcDbPoint
 10
339.25
 20
93.15508832730566
 30
0.0
  0
POINT
  5
4CF
330
17
100
AcDbEntity
  8
0
100
AcDbPoint
 10
339.0
 20
92.61144199724512
 30
0.0
  0
POINT
  5
4D0
330
17
100
AcDbEntity
  8
0
100
AcDbPoint
 10
338.75
 20
92.68698307656356
 30
0.0
  0
POINT
  5
4D1
330
17
100
AcDbEntity
  8
0
100
AcDbPoint
 10
338.5
 20
92.15481397886259
 30
0.0
  0
POINT
  5
4D2
330
17
100
AcDbEntity
  8
0
100
AcDbPoint
 10
338.25
 20
92.8398488513272
 30
0.0
  0
POINT
  5
4D3
330
17
100
AcDbEntity
  8
0
100
AcDbPoint
 10
338.0
 20
92.30944130363936
 30
0.0
  0
POINT
  5
4D4
330
17
100
AcDbEntity
  8
0
100
AcDbPoint
 10
337.75
 20
91.19849228600467
 30
0.0
  0
POINT
  5
4D5
330
17
100
AcDbEntity
  8
0
100
AcDbPoint
 10
337.5
 20
92.46783135411455
 30
0.0
  0
POINT
  5
4D6
330
17
100
AcDbEntity
  8
0
100
AcDbPoint
 10
337.25
 20
91.35949402959622
 30
0.0
  0
POINT
  5
4D7
330
17
100
AcDbEntity
  8
0
100
AcDbPoint
 10
337.0
 20
91.44122438791605
 30
0.0
  0
POINT
  5
4D8
330
17
100
AcDbEntity
  8
0
100
AcDbPoint
 10
336.75
 20
90.94192988895459
 30
0.0
  0
POINT
  5
4D9
330
17
100
AcDbEntity
  8
0
100
AcDbPoint
 10
336.5
 20
91.60627834202248
 30
0.0
  0
POINT
  5
4DA
330
17
100
AcDbEntity
  8
0
100
AcDbPoint
 10
336.25
 20
90.53528253029201
 30
0.0
  0
POINT
  5
4DB
330
17
100
AcDbEntity
  8
0
100
AcDbPoint
 10
336.0
 20
90.62047630068359
 30
0.0
  0
POINT
  5
4DC
330
17
100
AcDbEntity
  8
0
100
AcDbPoint
 10
335.75
 20
90.7059024370329
 30
0.0
  0
POINT
  5
4DD
330
17
100
AcDbEntity
  8
0
100
AcDbPoint
 10
335.5
 20
90.22674257874343
 30
0.0
  0
POINT
  5
4DE
330
17
100
AcDbEntity
  8
0
100
AcDbPoint
 10
335.25
 20
89.75624996910642
 30
0.0
  0
POINT
  5
4DF
330
17
100
AcDbEntity
  8
0
100
AcDbPoint
 10
335.0
 20
90.40174819709432
 30
0.0
  0
POINT
  5
4E0
330
17
100
AcDbEntity
  8
0
100
AcDbPoint
 10
334.75
 20
89.93233356368965
 30
0.0
  0
POINT
  5
4E1
330
17
100
AcDbEntity
  8
0
100
AcDbPoint
 10
334.5
 20
89.47130082165303
 30
0.0
  0
POINT
  5
4E2
330
17
100
AcDbEntity
  8
0
100
AcDbPoint
 10
334.25
 20
89.56124468934678
 30
0.0
  0
POINT
  5
4E3
330
17
100
AcDbEntity
  8
0
100
AcDbPoint
 10
334.0
 20
89.10881015991826
 30
0.0
  0
POINT
  5
4E4
330
17
100
AcDbEntity
  8
0
100
AcDbPoint
 10
333.75
 20
89.20009561075557
 30
0.0
  0
POINT
  5
4E5
330
17
100
AcDbEntity
  8
0
100
AcDbPoint
 10
333.5
 20
89.29156461332505
 30
0.0
  0
POINT
  5
4E6
330
17
100
AcDbEntity
  8
0
100
AcDbPoint
 10
333.25
 20
88.31883618121888
 30
0.0
  0
POINT
  5
4E7
330
17
100
AcDbEntity
  8
0
100
AcDbPoint
 10
333.0
 20
88.94124473454886
 30
0.0
  0
POINT
  5
4E8
330
17
100
AcDbEntity
  8
0
100
AcDbPoint
 10
332.75
 20
87.9830932570593
 30
0.0
  0
POINT
  5
4E9
330
17
100
AcDbEntity
  8
0
100
AcDbPoint
 10
332.5
 20
88.60005703417553
 30
0.0
  0
POINT
  5
4EA
330
17
100
AcDbEntity
  8
0
100
AcDbPoint
 10
332.25
 20
88.17201690446365
 30
0.0
  0
POINT
  5
4EB
330
17
100
AcDbEntity
  8
0
100
AcDbPoint
 10
332.0
 20
87.75116528572634
 30
0.0
  0
POINT
  5
4EC
330
17
100
AcDbEntity
  8
0
100
AcDbPoint
 10
331.75
 20
87.84707017224224
 30
0.0
  0
POINT
  5
4ED
330
17
100
AcDbEntity
  8
0
100
AcDbPoint
 10
331.5
 20
87.94311198027236
 30
0.0
  0
POINT
  5
4EE
330
17
100
AcDbEntity
  8
0
100
AcDbPoint
 10
331.25
 20
87.02603068657245
 30
0.0
  0
POINT
  5
4EF
330
17
100
AcDbEntity
  8
0
100
AcDbPoint
 10
331.0
 20
87.62734183919322
 30
0.0
  0
POINT
  5
4F0
330
17
100
AcDbEntity
  8
0
100
AcDbPoint
 10
330.75
 20
86.7230882624556
 30
0.0
  0
POINT
  5
4F1
330
17
100
AcDbEntity
  8
0
100
AcDbPoint
 10
330.5
 20
87.31939688981618
 30
0.0
  0
POINT
  5
4F2
330
17
100
AcDbEntity
  8
0
100
AcDbPoint
 10
330.25
 20
86.91967967167686
 30
0.0
  0
POINT
  5
4F3
330
17
100
AcDbEntity
  8
0
100
AcDbPoint
 10
330.0
 20
86.03979233429597
 30
0.0
  0
POINT
  5
4F4
330
17
100
AcDbEntity
  8
0
100
AcDbPoint
 10
329.75
 20
87.11837993128977
 30
0.0
  0
POINT
  5
4F5
330
17
100
AcDbEntity
  8
0
100
AcDbPoint
 10
329.5
 20
86.23871756431636
 30
0.0
  0
POINT
  5
4F6
330
17
100
AcDbEntity
  8
0
100
AcDbPoint
 10
329.25
 20
85.85771299876805
 30
0.0
  0
POINT
  5
4F7
330
17
100
AcDbEntity
  8
0
100
AcDbPoint
 10
329.0
 20
86.43958635122515
 30
0.0
  0
POINT
  5
4F8
330
17
100
AcDbEntity
  8
0
100
AcDbPoint
 10
328.75
 20
85.58281594099901
 30
0.0
  0
POINT
  5
4F9
330
17
100
AcDbEntity
  8
0
100
AcDbPoint
 10
328.5
 20
85.68413075141207
 30
0.0
  0
POINT
  5
4FA
330
17
100
AcDbEntity
  8
0
100
AcDbPoint
 10
328.25
 20
85.78550578990584
 30
0.0
  0
POINT
  5
4FB
330
17
100
AcDbEntity
  8
0
100
AcDbPoint
 10
328.0
 20
85.4161225671968
 30
0.0
  0
POINT
  5
4FC
330
17
100
AcDbEntity
  8
0
100
AcDbPoint
 10
327.75
 20
85.05226833345804
 30
0.0
  0
POINT
  5
4FD
330
17
100
AcDbEntity
  8
0
100
AcDbPoint
 10
327.5
 20
85.15462125277756
 30
0.0
  0
POINT
  5
4FE
330
17
100
AcDbEntity
  8
0
100
AcDbPoint
 10
327.25
 20
84.796089915461
 30
0.0
  0
POINT
  5
4FF
330
17
100
AcDbEntity
  8
0
100
AcDbPoint
 10
327.0
 20
85.35990781825672
 30
0.0
  0
POINT
  5
500
330
17
100
AcDbEntity
  8
0
100
AcDbPoint
 10
326.75
 20
84.09372998535096
 30
0.0
  0
POINT
  5
501
330
17
100
AcDbEntity
  8
0
100
AcDbPoint
 10
326.5
 20
85.10499174215933
 30
0.0
  0
POINT
  5
502
330
17
100
AcDbEntity
  8
0
100
AcDbPoint
 10
326.25
 20
83.8530276728951
 30
0.0
  0
POINT
  5
503
330
17
100
AcDbEntity
  8
0
100
AcDbPoint
 10
326.0
 20
84.40375846131421
 30
0.0
  0
POINT
  5
504
330
17
100
AcDbEntity
  8
0
100
AcDbPoint
 10
325.75
 20
84.50726229848505
 30
0.0
  0
POINT
  5
505
330
17
100
AcDbEntity
  8
0
100
AcDbPoint
 10
325.5
 20
83.28302856348535
 30
0.0
  0
POINT
  5
506
330
17
100
AcDbEntity
  8
0
100
AcDbPoint
 10
325.25
 20
84.268119355458
 30
0.0
  0
POINT
  5
507
330
17
100
AcDbEntity
  8
0
100
AcDbPoint
 10
325.0
 20
83.49069362046085
 30
0.0
  0
POINT
  5
508
330
17
100
AcDbEntity
  8
0
100
AcDbPoint
 10
324.75
 20
83.59489539472321
 30
0.0
  0
POINT
  5
509
330
17
100
AcDbEntity
  8
0
100
AcDbPoint
 10
324.5
 20
83.69907607557641
 30
0.0
  0
POINT
  5
50A
330
17
100
AcDbEntity
  8
0
100
AcDbPoint
 10
324.25
 20
82.93909839764251
 30
0.0
  0
POINT
  5
50B
330
17
100
AcDbEntity
  8
0
100
AcDbPoint
 10
324.0
 20
83.04357235045809
 30
0.0
  0
POINT
  5
50C
330
17
100
AcDbEntity
  8
0
100
AcDbPoint
 10
323.75
 20
83.14800574472797
 30
0.0
  0
POINT
  5
50D
330
17
100
AcDbEntity
  8
0
100
AcDbPoint
 10
323.5
 20
82.82632586700394
 30
0.0
  0
POINT
  5
50E
330
17
100
AcDbEntity
  8
0
100
AcDbPoint
 10
323.25
 20
82.93080904616352
 30
0.0
  0
POINT
  5
50F
330
17
100
AcDbEntity
  8
0
100
AcDbPoint
 10
323.0
 20
82.19512303190965
 30
0.0
  0
POINT
  5
510
330
17
100
AcDbEntity
  8
0
100
AcDbPoint
 10
322.75
 20
82.71787245794904
 30
0.0
  0
POINT
  5
511
330
17
100
AcDbEntity
  8
0
100
AcDbPoint
 10
322.5
 20
82.40388268053506
 30
0.0
  0
POINT
  5
512
330
17
100
AcDbEntity
  8
0
100
AcDbPoint
 10
322.25
 20
82.09387047662865
 30
0.0
  0
POINT
  5
513
330
17
100
AcDbEntity
  8
0
100
AcDbPoint
 10
322.0
 20
82.19831013541749
 30
0.0
  0
POINT
  5
514
330
17
100
AcDbEntity
  8
0
100
AcDbPoint
 10
321.75
 20
81.89183547292144
 30
0.0
  0
POINT
  5
515
330
17
100
AcDbEntity
  8
0
100
AcDbPoint
 10
321.5
 20
81.99615998211557
 30
0.0
  0
POINT
  5
516
330
17
100
AcDbEntity
  8
0
100
AcDbPoint
 10
321.25
 20
81.69310323387329
 30
0.0
  0
POINT
  5
517
330
17
100
AcDbEntity
  8
0
100
AcDbPoint
 10
321.0
 20
81.39371960598011
 30
0.0
  0
POINT
  5
518
330
17
100
AcDbEntity
  8
0
100
AcDbPoint
 10
320.75
 20
81.49779526274988
 30
0.0
  0
POINT
  5
519
330
17
100
AcDbEntity
  8
0
100
AcDbPoint
 10
320.5
 20
81.60176429076384
 30
0.0
  0
POINT
  5
51A
330
17
100
AcDbEntity
  8
0
100
AcDbPoint
 10
320.25
 20
80.9086299964828
 30
0.0
  0
POINT
  5
51B
330
17
100
AcDbEntity
  8
0
100
AcDbPoint
 10
320.0
 20
81.40918527669648
 30
0.0
  0
POINT
  5
51C
330
17
100
AcDbEntity
  8
0
100
AcDbPoint
 10
319.75
 20
80.72236595870278
 30
0.0
  0
POINT
  5
51D
330
17
100
AcDbEntity
  8
0
100
AcDbPoint
 10
319.5
 20
81.21938270160801
 30
0.0
  0
POINT
  5
51E
330
17
100
AcDbEntity
  8
0
100
AcDbPoint
 10
319.25
 20
80.53870581348136
 30
0.0
  0
POINT
  5
51F
330
17
100
AcDbEntity
  8
0
100
AcDbPoint
 10
319.0
 20
80.64179398937253
 30
0.0
  0
POINT
  5
520
330
17
100
AcDbEntity
  8
0
100
AcDbPoint
 10
318.75
 20
80.74473901909103
 30
0.0
  0
POINT
  5
521
330
17
100
AcDbEntity
  8
0
100
AcDbPoint
 10
318.5
 20
80.46023337848877
 30
0.0
  0
POINT
  5
522
330
17
100
AcDbEntity
  8
0
100
AcDbPoint
 10
318.25
 20
80.17887085224494
 30
0.0
  0
POINT
  5
523
330
17
100
AcDbEntity
  8
0
100
AcDbPoint
 10
318.0
 20
80.28119623748461
 30
0.0
  0
POINT
  5
524
330
17
100
AcDbEntity
  8
0
100
AcDbPoint
 10
317.75
 20
80.00241048674634
 30
0.0
  0
POINT
  5
525
330
17
100
AcDbEntity
  8
0
100
AcDbPoint
 10
317.5
 20
80.10430069259797
 30
0.0
  0
POINT
  5
526
330
17
100
AcDbEntity
  8
0
100
AcDbPoint
 10
317.25
 20
81.75451974333834
 30
0.0
  0
POINT
  5
527
330
17
100
AcDbEntity
  8
0
100
AcDbPoint
 10
317.0
 20
78.8145392784489
 30
0.0
  0
POINT
  5
528
330
17
100
AcDbEntity
  8
0
100
AcDbPoint
 10
316.75
 20
78.91536538865867
 30
0.0
  0
POINT
  5
529
330
17
100
AcDbEntity
  8
0
100
AcDbPoint
 10
316.5
 20
79.38452893413117
 30
0.0
  0
POINT
  5
52A
330
17
100
AcDbEntity
  8
0
100
AcDbPoint
 10
316.25
 20
79.85744749100732
 30
0.0
  0
POINT
  5
52B
330
17
100
AcDbEntity
  8
0
100
AcDbPoint
 10
316.0
 20
79.21609977640935
 30
0.0
  0
POINT
  5
52C
330
17
100
AcDbEntity
  8
0
100
AcDbPoint
 10
315.75
 20
79.31613531681558
 30
0.0
  0
POINT
  5
52D
330
17
100
AcDbEntity
  8
0
100
AcDbPoint
 10
315.5
 20
79.41596528552364
 30
0.0
  0
POINT
  5
52E
330
17
100
AcDbEntity
  8
0
100
AcDbPoint
 10
315.25
 20
78.78525345341644
 30
0.0
  0
POINT
  5
52F
330
17
100
AcDbEntity
  8
0
100
AcDbPoint
 10
315.0
 20
79.24815038369199
 30
0.0
  0
POINT
  5
530
330
17
100
AcDbEntity
  8
0
100
AcDbPoint
 10
314.75
 20
78.9829797768917
 30
0.0
  0
POINT
  5
531
330
17
100
AcDbEntity
  8
0
100
AcDbPoint
 10
314.5
 20
78.72037909278502
 30
0.0
  0
POINT
  5
532
330
17
100
AcDbEntity
  8
0
100
AcDbPoint
 10
314.25
 20
78.81857606270204
 30
0.0
  0
POINT
  5
533
330
17
100
AcDbEntity
  8
0
100
AcDbPoint
 10
314.0
 20
78.55789277907557
 30
0.0
  0
POINT
  5
534
330
17
100
AcDbEntity
  8
0
100
AcDbPoint
 10
313.75
 20
78.65541816685813
 30
0.0
  0
POINT
  5
535
330
17
100
AcDbEntity
  8
0
100
AcDbPoint
 10
313.5
 20
78.3965809700386
 30
0.0
  0
POINT
  5
536
330
17
100
AcDbEntity
  8
0
100
AcDbPoint
 10
313.25
 20
78.14012747759215
 30
0.0
  0
POINT
  5
537
330
17
100
AcDbEntity
  8
0
100
AcDbPoint
 10
313.0
 20
78.59012304388108
 30
0.0
  0
POINT
  5
538
330
17
100
AcDbEntity
  8
0
100
AcDbPoint
 10
312.75
 20
78.33244010609036
 30
0.0
  0
POINT
  5
539
330
17
100
AcDbEntity
  8
0
100
AcDbPoint
 10
312.5
 20
78.07708933077068
 30
0.0
  0
POINT
  5
53A
330
17
100
AcDbEntity
  8
0
100
AcDbPoint
 10
312.25
 20
77.82400989152525
 30
0.0
  0
POINT
  5
53B
330
17
100
AcDbEntity
  8
0
100
AcDbPoint
 10
312.0
 20
78.2676497732422
 30
0.0
  0
POINT
  5
53C
330
17
100
AcDbEntity
  8
0
100
AcDbPoint
 10
311.75
 20
78.01330084668264
 30
0.0
  0
POINT
  5
53D
330
17
100
AcDbEntity
  8
0
100
AcDbPoint
 10
311.5
 20
77.41780273516571
 30
0.0
  0
POINT
  5
53E
330
17
100
AcDbEntity
  8
0
100
AcDbPoint
 10
311.25
 20
77.85506107392582
 30
0.0
  0
POINT
  5
53F
330
17
100
AcDbEntity
  8
0
100
AcDbPoint
 10
311.0
 20
77.94854266019702
 30
0.0
  0
POINT
  5
540
330
17
100
AcDbEntity
  8
0
100
AcDbPoint
 10
310.75
 20
77.35583248991435
 30
0.0
  0
POINT
  5
541
330
17
100
AcDbEntity
  8
0
100
AcDbPoint
 10
310.5
 20
77.44822573869823
 30
0.0
  0
POINT
  5
542
330
17
100
AcDbEntity
  8
0
100
AcDbPoint
 10
310.25
 20
77.54031793297166
 30
0.0
  0
POINT
  5
543
330
17
100
AcDbEntity
  8
0
100
AcDbPoint
 10
310.0
 20
77.63210861041078
 30
0.0
  0
POINT
  5
544
330
17
100
AcDbEntity
  8
0
100
AcDbPoint
 10
309.75
 20
74.14094798915323
 30
0.0
  0
POINT
  5
545
330
17
100
AcDbEntity
  8
0
100
AcDbPoint
 10
309.5
 20
83.69787473391611
 30
0.0
  0
POINT
  5
546
330
17
100
AcDbEntity
  8
0
100
AcDbPoint
 10
309.25
 20
74.3151512432672
 30
0.0
  0
POINT
  5
547
330
17
100
AcDbEntity
  8
0
100
AcDbPoint
 10
309.0
 20
77.31769968054822
 30
0.0
  0
POINT
  5
548
330
17
100
AcDbEntity
  8
0
100
AcDbPoint
 10
308.75
 20
77.07189295495229
 30
0.0
  0
POINT
  5
549
330
17
100
AcDbEntity
  8
0
100
AcDbPoint
 10
308.5
 20
76.82801764079416
 30
0.0
  0
POINT
  5
54A
330
17
100
AcDbEntity
  8
0
100
AcDbPoint
 10
308.25
 20
76.91649465340603
 30
0.0
  0
POINT
  5
54B
330
17
100
AcDbEntity
  8
0
100
AcDbPoint
 10
308.0
 20
76.67380396245423
 30
0.0
  0
POINT
  5
54C
330
17
100
AcDbEntity
  8
0
100
AcDbPoint
 10
307.75
 20
77.09251599316596
 30
0.0
  0
POINT
  5
54D
330
17
100
AcDbEntity
  8
0
100
AcDbPoint
 10
307.5
 20
76.51969890114746
 30
0.0
  0
POINT
  5
54E
330
17
100
AcDbEntity
  8
0
100
AcDbPoint
 10
307.25
 20
76.6062412295106
 30
0.0
  0
POINT
  5
54F
330
17
100
AcDbEntity
  8
0
100
AcDbPoint
 10
307.0
 20
76.69243067280583
 30
0.0
  0
POINT
  5
550
330
17
100
AcDbEntity
  8
0
100
AcDbPoint
 10
306.75
 20
76.77826665189859
 30
0.0
  0
POINT
  5
551
330
17
100
AcDbEntity
  8
0
100
AcDbPoint
 10
306.5
 20
76.2118067330251
 30
0.0
  0
POINT
  5
552
330
17
100
AcDbEntity
  8
0
100
AcDbPoint
 10
306.25
 20
76.62128575429327
 30
0.0
  0
POINT
  5
553
330
17
100
AcDbEntity
  8
0
100
AcDbPoint
 10
306.0
 20
76.0578933580318
 30
0.0
  0
POINT
  5
554
330
17
100
AcDbEntity
  8
0
100
AcDbPoint
 10
305.75
 20
76.7899671987514
 30
0.0
  0
POINT
  5
555
330
17
100
AcDbEntity
  8
0
100
AcDbPoint
 10
305.5
 20
75.90386615338508
 30
0.0
  0
POINT
  5
556
330
17
100
AcDbEntity
  8
0
100
AcDbPoint
 10
305.25
 20
76.63084407452583
 30
0.0
  0
POINT
  5
557
330
17
100
AcDbEntity
  8
0
100
AcDbPoint
 10
305.0
 20
75.74973442740844
 30
0.0
  0
POINT
  5
558
330
17
100
AcDbEntity
  8
0
100
AcDbPoint
 10
304.75
 20
76.47164587241967
 30
0.0
  0
POINT
  5
559
330
17
100
AcDbEntity
  8
0
100
AcDbPoint
 10
304.5
 20
75.91203640333539
 30
0.0
  0
POINT
  5
55A
330
17
100
AcDbEntity
  8
0
100
AcDbPoint
 10
304.25
 20
75.99265344429766
 30
0.0
  0
POINT
  5
55B
330
17
100
AcDbEntity
  8
0
100
AcDbPoint
 10
304.0
 20
76.07287406414974
 30
0.0
  0
POINT
  5
55C
330
17
100
AcDbEntity
  8
0
100
AcDbPoint
 10
303.75
 20
76.15269759004995
 30
0.0
  0
POINT
  5
55D
330
17
100
AcDbEntity
  8
0
100
AcDbPoint
 10
303.5
 20
75.59880525370413
 30
0.0
  0
POINT
  5
55E
330
17
100
AcDbEntity
  8
0
100
AcDbPoint
 10
303.25
 20
75.99290770321768
 30
0.0
  0
POINT
  5
55F
330
17
100
AcDbEntity
  8
0
100
AcDbPoint
 10
303.0
 20
75.75519285112686
 30
0.0
  0
POINT
  5
560
330
17
100
AcDbEntity
  8
0
100
AcDbPoint
 10
302.75
 20
75.83279173673947
 30
0.0
  0
POINT
  5
561
330
17
100
AcDbEntity
  8
0
100
AcDbPoint
 10
302.5
 20
75.90997605007476
 30
0.0
  0
POINT
  5
562
330
17
100
AcDbEntity
  8
0
100
AcDbPoint
 10
302.25
 20
75.36048841965815
 30
0.0
  0
POINT
  5
563
330
17
100
AcDbEntity
  8
0
100
AcDbPoint
 10
302.0
 20
76.06316465655847
 30
0.0
  0
POINT
  5
564
330
17
100
AcDbEntity
  8
0
100
AcDbPoint
 10
301.75
 20
75.20155348084504
 30
0.0
  0
POINT
  5
565
330
17
100
AcDbEntity
  8
0
100
AcDbPoint
 10
301.5
 20
75.89925079960786
 30
0.0
  0
POINT
  5
566
330
17
100
AcDbEntity
  8
0
100
AcDbPoint
 10
301.25
 20
75.35024999045342
 30
0.0
  0
POINT
  5
567
330
17
100
AcDbEntity
  8
0
100
AcDbPoint
 10
301.0
 20
75.73490478010623
 30
0.0
  0
POINT
  5
568
330
17
100
AcDbEntity
  8
0
100
AcDbPoint
 10
300.75
 20
75.18853751275377
 30
0.0
  0
POINT
  5
569
330
17
100
AcDbEntity
  8
0
100
AcDbPoint
 10
300.5
 20
75.5701239092953
 30
0.0
  0
POINT
  5
56A
330
17
100
AcDbEntity
  8
0
100
AcDbPoint
 10
300.25
 20
75.64252952249319
 30
0.0
  0
POINT
  5
56B
330
17
100
AcDbEntity
  8
0
100
AcDbPoint
 10
300.0
 20
75.09766459315468
 30
0.0
  0
POINT
  5
56C
330
17
100
AcDbEntity
  8
0
100
AcDbPoint
 10
299.75
 20
75.47605916582559
 30
0.0
  0
POINT
  5
56D
330
17
100
AcDbEntity
  8
0
100
AcDbPoint
 10
299.5
 20
75.23903087356271
 30
0.0
  0
POINT
  5
56E
330
17
100
AcDbEntity
  8
0
100
AcDbPoint
 10
299.25
 20
75.61715000430685
 30
0.0
  0
POINT
  5
56F
330
17
100
AcDbEntity
  8
0
100
AcDbPoint
 10
299.0
 20
74.7692171812444
 30
0.0
  0
POINT
  5
570
330
17
100
AcDbEntity
  8
0
100
AcDbPoint
 10
298.75
 20
75.75645105128095
 30
0.0
  0
POINT
  5
571
330
17
100
AcDbEntity
  8
0
100
AcDbPoint
 10
298.5
 20
74.9057255954197
 30
0.0
  0
POINT
  5
572
330
17
100
AcDbEntity
  8
0
100
AcDbPoint
 10
298.25
 20
75.27767776058712
 30
0.0
  0
POINT
  5
573
330
17
100
AcDbEntity
  8
0
100
AcDbPoint
 10
298.0
 20
75.0404055112684
 30
0.0
  0
POINT
  5
574
330
17
100
AcDbEntity
  8
0
100
AcDbPoint
 10
297.75
 20
75.41202236185197
 30
0.0
  0
POINT
  5
575
330
17
100
AcDbEntity
  8
0
100
AcDbPoint
 10
297.5
 20
74.87037912908688
 30
0.0
  0
POINT
  5
576
330
17
100
AcDbEntity
  8
0
100
AcDbPoint
 10
297.25
 20
75.23890142088887
 30
0.0
  0
POINT
  5
577
330
17
100
AcDbEntity
  8
0
100
AcDbPoint
 10
297.0
 20
75.0006935820781
 30
0.0
  0
POINT
  5
578
330
17
100
AcDbEntity
  8
0
100
AcDbPoint
 10
296.75
 20
75.36884383351189
 30
0.0
  0
POINT
  5
579
330
17
100
AcDbEntity
  8
0
100
AcDbPoint
 10
296.5
 20
74.5283670368817
 30
0.0
  0
POINT
  5
57A
330
17
100
AcDbEntity
  8
0
100
AcDbPoint
 10
296.25
 20
75.49686701069021
 30
0.0
  0
POINT
  5
57B
330
17
100
AcDbEntity
  8
0
100
AcDbPoint
 10
296.0
 20
74.65367039480167
 30
0.0
  0
POINT
  5
57C
330
17
100
AcDbEntity
  8
0
100
AcDbPoint
 10
295.75
 20
75.31803671788695
 30
0.0
  0
POINT
  5
57D
330
17
100
AcDbEntity
  8
0
100
AcDbPoint
 10
295.5
 20
74.7770197524319
 30
0.0
  0
POINT
  5
57E
330
17
100
AcDbEntity
  8
0
100
AcDbPoint
 10
295.25
 20
74.83795793129683
 30
0.0
  0
POINT
  5
57F
330
17
100
AcDbEntity
  8
0
100
AcDbPoint
 10
295.0
 20
74.89839189225975
 30
0.0
  0
POINT
  5
580
330
17
100
AcDbEntity
  8
0
100
AcDbPoint
 10
294.75
 20
75.25944958775263
 30
0.0
  0
POINT
  5
581
330
17
100
AcDbEntity
  8
0
100
AcDbPoint
 10
294.5
 20
74.71874294856465
 30
0.0
  0
POINT
  5
582
330
17
100
AcDbEntity
  8
0
100
AcDbPoint
 10
294.25
 20
74.77739731097779
 30
0.0
  0
POINT
  5
583
330
17
100
AcDbEntity
  8
0
100
AcDbPoint
 10
294.0
 20
74.83553796201272
 30
0.0
  0
POINT
  5
584
330
17
100
AcDbEntity
  8
0
100
AcDbPoint
 10
293.75
 20
75.19297459485124
 30
0.0
  0
POINT
  5
585
330
17
100
AcDbEntity
  8
0
100
AcDbPoint
 10
293.5
 20
74.65258518079351
 30
0.0
  0
POINT
  5
586
330
17
100
AcDbEntity
  8
0
100
AcDbPoint
 10
293.25
 20
74.70892516430067
 30
0.0
  0
POINT
  5
587
330
17
100
AcDbEntity
  8
0
100
AcDbPoint
 10
293.0
 20
75.062956722171
 30
0.0
  0
POINT
  5
588
330
17
100
AcDbEntity
  8
0
100
AcDbPoint
 10
292.75
 20
74.82003898858324
 30
0.0
  0
POINT
  5
589
330
17
100
AcDbEntity
  8
0
100
AcDbPoint
 10
292.5
 20
74.57845391642083
 30
0.0
  0
POINT
  5
58A
330
17
100
AcDbEntity
  8
0
100
AcDbPoint
 10
292.25
 20
74.9290652496858
 30
0.0
  0
POINT
  5
58B
330
17
100
AcDbEntity
  8
0
100
AcDbPoint
 10
292.0
 20
74.68591907060674
 30
0.0
  0
POINT
  5
58C
330
17
100
AcDbEntity
  8
0
100
AcDbPoint
 10
291.75
 20
75.03596924864603
 30
0.0
  0
POINT
  5
58D
330
17
100
AcDbEntity
  8
0
100
AcDbPoint
 10
291.5
 20
74.49625927346102
 30
0.0
  0
POINT
  5
58E
330
17
100
AcDbEntity
  8
0
100
AcDbPoint
 10
291.25
 20
75.1407422559825
 30
0.0
  0
POINT
  5
58F
330
17
100
AcDbEntity
  8
0
100
AcDbPoint
 10
291.0
 20
74.30582831587473
 30
0.0
  0
POINT
  5
590
330
17
100
AcDbEntity
  8
0
100
AcDbPoint
 10
290.75
 20
74.94528265735508
 30
0.0
  0
POINT
  5
591
330
17
100
AcDbEntity
  8
0
100
AcDbPoint
 10
290.5
 20
74.99553610966979
 30
0.0
  0
POINT
  5
592
330
17
100
AcDbEntity
  8
0
100
AcDbPoint
 10
290.25
 20
74.45519775546587
 30
0.0
  0
POINT
  5
593
330
17
100
AcDbEntity
  8
0
100
AcDbPoint
 10
290.0
 20
74.79799793353051
 30
0.0
  0
POINT
  5
594
330
17
100
AcDbEntity
  8
0
100
AcDbPoint
 10
289.75
 20
74.84638703525404
 30
0.0
  0
POINT
  5
595
330
17
100
AcDbEntity
  8
0
100
AcDbPoint
 10
289.5
 20
74.59968935075743
 30
0.0
  0
POINT
  5
596
330
17
100
AcDbEntity
  8
0
100
AcDbPoint
 10
289.25
 20
74.64675731542943
 30
0.0
  0
POINT
  5
597
330
17
100
AcDbEntity
  8
0
100
AcDbPoint
 10
289.0
 20
74.98825364244576
 30
0.0
  0
POINT
  5
598
330
17
100
AcDbEntity
  8
0
100
AcDbPoint
 10
288.75
 20
74.44635601419667
 30
0.0
  0
POINT
  5
599
330
17
100
AcDbEntity
  8
0
100
AcDbPoint
 10
288.5
 20
74.7846465458063
 30
0.0
  0
POINT
  5
59A
330
17
100
AcDbEntity
  8
0
100
AcDbPoint
 10
288.25
 20
74.82949629377372
 30
0.0
  0
POINT
  5
59B
330
17
100
AcDbEntity
  8
0
100
AcDbPoint
 10
288.0
 20
74.87378986904181
 30
0.0
  0
POINT
  5
59C
330
17
100
AcDbEntity
  8
0
100
AcDbPoint
 10
287.75
 20
74.33238270544331
 30
0.0
  0
POINT
  5
59D
330
17
100
AcDbEntity
  8
0
100
AcDbPoint
 10
287.5
 20
74.96068955298027
 30
0.0
  0
POINT
  5
59E
330
17
100
AcDbEntity
  8
0
100
AcDbPoint
 10
287.25
 20
74.7091709975167
 30
0.0
  0
POINT
  5
59F
330
17
100
AcDbEntity
  8
0
100
AcDbPoint
 10
287.0
 20
74.45898806249826
 30
0.0
  0
POINT
  5
5A0
330
17
100
AcDbEntity
  8
0
100
AcDbPoint
 10
286.75
 20
75.08678846493194
 30
0.0
  0
POINT
  5
5A1
330
17
100
AcDbEntity
  8
0
100
AcDbPoint
 10
286.5
 20
74.54057497487662
 30
0.0
  0
POINT
  5
5A2
330
17
100
AcDbEntity
  8
0
100
AcDbPoint
 10
286.25
 20
74.58051566359747
 30
0.0
  0
POINT
  5
5A3
330
17
100
AcDbEntity
  8
0
100
AcDbPoint
 10
286.0
 20
74.91266374461142
 30
0.0
  0
POINT
  5
5A4
330
17
100
AcDbEntity
  8
0
100
AcDbPoint
 10
285.75
 20
74.65868647851633
 30
0.0
  0
POINT
  5
5A5
330
17
100
AcDbEntity
  8
0
100
AcDbPoint
 10
285.5
 20
74.69691336833348
 30
0.0
  0
POINT
  5
5A6
330
17
100
AcDbEntity
  8
0
100
AcDbPoint
 10
285.25
 20
74.73456476902668
 30
0.0
  0
POINT
  5
5A7
330
17
100
AcDbEntity
  8
0
100
AcDbPoint
 10
285.0
 20
74.4804260482614
 30
0.0
  0
POINT
  5
5A8
330
17
100
AcDbEntity
  8
0
100
AcDbPoint
 10
284.75
 20
75.10180105874149
 30
0.0
  0
POINT
  5
5A9
330
17
100
AcDbEntity
  8
0
100
AcDbPoint
 10
284.5
 20
74.55249736989421
 30
0.0
  0
POINT
  5
5AA
330
17
100
AcDbEntity
  8
0
100
AcDbPoint
 10
284.25
 20
74.87938443087025
 30
0.0
  0
POINT
  5
5AB
330
17
100
AcDbEntity
  8
0
100
AcDbPoint
 10
284.0
 20
74.33263700645546
 30
0.0
  0
POINT
  5
5AC
330
17
100
AcDbEntity
  8
0
100
AcDbPoint
 10
283.75
 20
75.24263734701795
 30
0.0
  0
POINT
  5
5AD
330
17
100
AcDbEntity
  8
0
100
AcDbPoint
 10
283.5
 20
74.39974916884053
 30
0.0
  0
POINT
  5
5AE
330
17
100
AcDbEntity
  8
0
100
AcDbPoint
 10
283.25
 20
74.72251672483402
 30
0.0
  0
POINT
  5
5AF
330
17
100
AcDbEntity
  8
0
100
AcDbPoint
 10
283.0
 20
75.04727789384934
 30
0.0
  0
POINT
  5
5B0
330
17
100
AcDbEntity
  8
0
100
AcDbPoint
 10
282.75
 20
74.49604447075836
 30
0.0
  0
POINT
  5
5B1
330
17
100
AcDbEntity
  8
0
100
AcDbPoint
 10
282.5
 20
74.81750659626861
 30
0.0
  0
POINT
  5
5B2
330
17
100
AcDbEntity
  8
0
100
AcDbPoint
 10
282.25
 20
74.84799131781915
 30
0.0
  0
POINT
  5
5B3
330
17
100
AcDbEntity
  8
0
100
AcDbPoint
 10
282.0
 20
74.5870645425444
 30
0.0
  0
POINT
  5
5B4
330
17
100
AcDbEntity
  8
0
100
AcDbPoint
 10
281.75
 20
74.9071837946455
 30
0.0
  0
POINT
  5
5B5
330
17
100
AcDbEntity
  8
0
100
AcDbPoint
 10
281.5
 20
74.64479538341214
 30
0.0
  0
POINT
  5
5B6
330
17
100
AcDbEntity
  8
0
100
AcDbPoint
 10
281.25
 20
74.96400030034434
 30
0.0
  0
POINT
  5
5B7
330
17
100
AcDbEntity
  8
0
100
AcDbPoint
 10
281.0
 20
74.70015986260422
 30
0.0
  0
POINT
  5
5B8
330
17
100
AcDbEntity
  8
0
100
AcDbPoint
 10
280.75
 20
74.72695003273856
 30
0.0
  0
POINT
  5
5B9
330
17
100
AcDbEntity
  8
0
100
AcDbPoint
 10
280.5
 20
74.75314277813648
 30
0.0
  0
POINT
  5
5BA
330
17
100
AcDbEntity
  8
0
100
AcDbPoint
 10
280.25
 20
74.77873768511566
 30
0.0
  0
POINT
  5
5BB
330
17
100
AcDbEntity
  8
0
100
AcDbPoint
 10
280.0
 20
74.80373435468691
 30
0.0
  0
POINT
  5
5BC
330
17
100
AcDbEntity
  8
0
100
AcDbPoint
 10
279.75
 20
75.12010162626234
 30
0.0
  0
POINT
  5
5BD
330
17
100
AcDbEntity
  8
0
100
AcDbPoint
 10
279.5
 20
74.56212201592994
 30
0.0
  0
POINT
  5
5BE
330
17
100
AcDbEntity
  8
0
100
AcDbPoint
 10
279.25
 20
74.58520914684541
 30
0.0
  0
POINT
  5
5BF
330
17
100
AcDbEntity
  8
0
100
AcDbPoint
 10
279.0
 20
75.19003067666263
 30
0.0
  0
POINT
  5
5C0
330
17
100
AcDbEntity
  8
0
100
AcDbPoint
 10
278.75
 20
74.62958932765385
 30
0.0
  0
POINT
  5
5C1
330
17
100
AcDbEntity
  8
0
100
AcDbPoint
 10
278.5
 20
74.94111912023858
 30
0.0
  0
POINT
  5
5C2
330
17
100
AcDbEntity
  8
0
100
AcDbPoint
 10
278.25
 20
74.67156726797407
 30
0.0
  0
POINT
  5
5C3
330
17
100
AcDbEntity
  8
0
100
AcDbPoint
 10
278.0
 20
74.98208581734961
 30
0.0
  0
POINT
  5
5C4
330
17
100
AcDbEntity
  8
0
100
AcDbPoint
 10
277.75
 20
74.71113399313332
 30
0.0
  0
POINT
  5
5C5
330
17
100
AcDbEntity
  8
0
100
AcDbPoint
 10
277.5
 20
75.02062846814914
 30
0.0
  0
POINT
  5
5C6
330
17
100
AcDbEntity
  8
0
100
AcDbPoint
 10
277.25
 20
74.74828699263759
 30
0.0
  0
POINT
  5
5C7
330
17
100
AcDbEntity
  8
0
100
AcDbPoint
 10
277.0
 20
75.05674465095882
 30
0.0
  0
POINT
  5
5C8
330
17
100
AcDbEntity
  8
0
100
AcDbPoint
 10
276.75
 20
74.49439719831146
 30
0.0
  0
POINT
  5
5C9
330
17
100
AcDbEntity
  8
0
100
AcDbPoint
 10
276.5
 20
75.09042165546778
 30
0.0
  0
POINT
  5
5CA
330
17
100
AcDbEntity
  8
0
100
AcDbPoint
 10
276.25
 20
74.81532212913082
 30
0.0
  0
POINT
  5
5CB
330
17
100
AcDbEntity
  8
0
100
AcDbPoint
 10
276.0
 20
75.12165965423551
 30
0.0
  0
POINT
  5
5CC
330
17
100
AcDbEntity
  8
0
100
AcDbPoint
 10
275.75
 20
74.55628189563807
 30
0.0
  0
POINT
  5
5CD
330
17
100
AcDbEntity
  8
0
100
AcDbPoint
 10
275.5
 20
75.1504546240204
 30
0.0
  0
POINT
  5
5CE
330
17
100
AcDbEntity
  8
0
100
AcDbPoint
 10
275.25
 20
75.1504546240204
 30
0.0
  0
ENDSEC
  0
SECTION
  2
OBJECTS
  0
DICTIONARY
  5
A
330
0
100
AcDbDictionary
280
0
281
1
  3
ACAD_COLOR
350
B
  3
ACAD_GROUP
350
C
  3
ACAD_LAYOUT
350
D
  3
ACAD_MATERIAL
350
E
  3
ACAD_MLEADERSTYLE
350
F
  3
ACAD_MLINESTYLE
350
10
  3
ACAD_PLOTSETTINGS
350
11
  3
ACAD_PLOTSTYLENAME
350
12
  3
ACAD_SCALELIST
350
14
  3
ACAD_TABLESTYLE
350
15
  3
ACAD_VISUALSTYLE
350
16
  3
EZDXF_META
350
2D
  0
DICTIONARY
  5
B
330
A
100
AcDbDictionary
280
0
281
1
  0
DICTIONARY
  5
C
330
A
100
AcDbDictionary
280
0
281
1
  0
DICTIONARY
  5
D
330
A
100
AcDbDictionary
280
0
281
1
  3
Model
350
1A
  3
Layout1
350
1E
  0
DICTIONARY
  5
E
330
A
100
AcDbDictionary
280
0
281
1
  3
ByBlock
350
1F
  3
ByLayer
350
20
  3
Global
350
21
  0
DICTIONARY
  5
F
330
A
100
AcDbDictionary
280
0
281
1
  3
Standard
350
2C
  0
DICTIONARY
  5
10
330
A
100
AcDbDictionary
280
0
281
1
  3
Standard
350
22
  0
DICTIONARY
  5
11
330
A
100
AcDbDictionary
280
0
281
1
  0
ACDBDICTIONARYWDFLT
  5
12
330
A
100
AcDbDictionary
280
0
281
1
  3
Normal
350
13
100
AcDbDictionaryWithDefault
340
13
  0
ACDBPLACEHOLDER
  5
13
330
12
  0
DICTIONARY
  5
14
330
A
100
AcDbDictionary
280
0
281
1
  0
DICTIONARY
  5
15
330
A
100
AcDbDictionary
280
0
281
1
  0
DICTIONARY
  5
16
330
A
100
AcDbDictionary
280
0
281
1
  0
LAYOUT
  5
1A
330
D
100
AcDbPlotSettings
  1

  4
A3
  6

 40
7.5
 41
20.0
 42
7.5
 43
20.0
 44
420.0
 45
297.0
 46
0.0
 47
0.0
 48
0.0
 49
0.0
140
0.0
141
0.0
142
1.0
143
1.0
 70
1024
 72
1
 73
0
 74
5
  7

 75
16
 76
0
 77
2
 78
300
147
1.0
148
0.0
149
0.0
100
AcDbLayout
  1
Model
 70
1
 71
0
 10
0.0
 20
0.0
 11
420.0
 21
297.0
 12
0.0
 22
0.0
 32
0.0
 14
1e+20
 24
1e+20
 34
1e+20
 15
-1e+20
 25
-1e+20
 35
-1e+20
146
0.0
 13
0.0
 23
0.0
 33
0.0
 16
1.0
 26
0.0
 36
0.0
 17
0.0
 27
1.0
 37
0.0
 76
1
330
17
  0
LAYOUT
  5
1E
330
D
100
AcDbPlotSettings
  1

  4
A3
  6

 40
7.5
 41
20.0
 42
7.5
 43
20.0
 44
420.0
 45
297.0
 46
0.0
 47
0.0
 48
0.0
 49
0.0
140
0.0
141
0.0
142
1.0
143
1.0
 70
0
 72
1
 73
0
 74
5
  7

 75
16
 76
0
 77
2
 78
300
147
1.0
148
0.0
149
0.0
100
AcDbLayout
  1
Layout1
 70
1
 71
1
 10
0.0
 20
0.0
 11
420.0
 21
297.0
 12
0.0
 22
0.0
 32
0.0
 14
1e+20
 24
1e+20
 34
1e+20
 15
-1e+20
 25
-1e+20
 35
-1e+20
146
0.0
 13
0.0
 23
0.0
 33
0.0
 16
1.0
 26
0.0
 36
0.0
 17
0.0
 27
1.0
 37
0.0
 76
1
330
1B
  0
MATERIAL
  5
1F
102
{ACAD_REACTORS
330
E
102
}
330
E
100
AcDbMaterial
  1
ByBlock
  2

 70
0
 40
1.0
 71
1
 41
1.0
 91
-1023410177
 42
1.0
 72
1
  3

 73
1
 74
1
 75
1
 44
0.5
 73
0
 45
1.0
 46
1.0
 77
1
  4

 78
1
 79
1
170
1
 48
1.0
171
1
  6

172
1
173
1
174
1
140
1.0
141
1.0
175
1
  7

176
1
177
1
178
1
143
1.0
179
1
  8

270
1
271
1
272
1
145
1.0
146
1.0
273
1
  9

274
1
275
1
276
1
 42
1.0
 72
1
  3

 73
1
 74
1
 75
1
 94
63
  0
MATERIAL
  5
20
102
{ACAD_REACTORS
330
E
102
}
330
E
100
AcDbMaterial
  1
ByLayer
  2

 70
0
 40
1.0
 71
1
 41
1.0
 91
-1023410177
 42
1.0
 72
1
  3

 73
1
 74
1
 75
1
 44
0.5
 73
0
 45
1.0
 46
1.0
 77
1
  4

 78
1
 79
1
170
1
 48
1.0
171
1
  6

172
1
173
1
174
1
140
1.0
141
1.0
175
1
  7

176
1
177
1
178
1
143
1.0
179
1
  8

270
1
271
1
272
1
145
1.0
146
1.0
273
1
  9

274
1
275
1
276
1
 42
1.0
 72
1
  3

 73
1
 74
1
 75
1
 94
63
  0
MATERIAL
  5
21
102
{ACAD_REACTORS
330
E
102
}
330
E
100
AcDbMaterial
  1
Global
  2

 70
0
 40
1.0
 71
1
 41
1.0
 91
-1023410177
 42
1.0
 72
1
  3

 73
1
 74
1
 75
1
 44
0.5
 73
0
 45
1.0
 46
1.0
 77
1
  4

 78
1
 79
1
170
1
 48
1.0
171
1
  6

172
1
173
1
174
1
140
1.0
141
1.0
175
1
  7

176
1
177
1
178
1
143
1.0
179
1
  8

270
1
271
1
272
1
145
1.0
146
1.0
273
1
  9

274
1
275
1
276
1
 42
1.0
 72
1
  3

 73
1
 74
1
 75
1
 94
63
  0
MLINESTYLE
  5
22
102
{ACAD_REACTORS
330
10
102
}
330
10
100
AcDbMlineStyle
  2
Standard
 70
0
  3

 62
256
 51
90.0
 52
90.0
 71
2
 49
0.5
 62
256
  6
BYLAYER
 49
-0.5
 62
256
  6
BYLAYER
  0
MLEADERSTYLE
  5
2C
102
{ACAD_REACTORS
330
F
102
}
330
F
100
AcDbMLeaderStyle
179
2
170
2
171
1
172
0
 90
2
 40
0.0
 41
0.0
173
1
 91
-1056964608
 92
-2
290
1
 42
2.0
291
1
 43
8.0
  3
Standard
 44
4.0
300

342
29
174
1
175
1
176
0
178
1
 93
-1056964608
 45
4.0
292
0
297
0
 46
4.0
 94
-1056964608
 47
1.0
 49
1.0
140
1.0
294
1
141
0.0
177
0
142
1.0
295
0
296
0
143
3.75
271
0
272
9
273
9
  0
DICTIONARY
  5
2D
330
A
100
AcDbDictionary
281
1
  3
CREATED_BY_EZDXF
350
2E
  3
WRITTEN_BY_EZDXF
350
5D1
  0
DICTIONARYVAR
  5
2E
330
2D
100
DictionaryVariables
280
0
  1
1.3.2 @ 2025-12-18T05:25:51.831729+00:00
  0
DICTIONARYVAR
  5
5D1
330
2D
100
DictionaryVariables
280
0
  1
1.3.2 @ 2025-12-18T05:25:51.846513+00:00
  0
ENDSEC
  0
EOF
