  0
SECTION
  2
HEADER
  9
$ACADVER
  1
AC1015
  9
$ACADMAINTVER
 70
6
  9
$DWGCODEPAGE
  3
ANSI_1252
  9
$INSBASE
 10
0.0
 20
0.0
 30
0.0
  9
$EXTMIN
 10
1e+20
 20
1e+20
 30
1e+20
  9
$EXTMAX
 10
-1e+20
 20
-1e+20
 30
-1e+20
  9
$LIMMIN
 10
0.0
 20
0.0
  9
$LIMMAX
 10
420.0
 20
297.0
  9
$ORTHOMODE
 70
0
  9
$REGENMODE
 70
1
  9
$FILLMODE
 70
1
  9
$QTEXTMODE
 70
0
  9
$MIRRTEXT
 70
1
  9
$LTSCALE
 40
1.0
  9
$ATTMODE
 70
1
  9
$TEXTSIZE
 40
2.5
  9
$TRACEWID
 40
1.0
  9
$TEXTSTYLE
  7
Standard
  9
$CLAYER
  8
0
  9
$CELTYPE
  6
ByLayer
  9
$CECOLOR
 62
256
  9
$CELTSCALE
 40
1.0
  9
$DISPSILH
 70
0
  9
$DIMSCALE
 40
1.0
  9
$DIMASZ
 40
2.5
  9
$DIMEXO
 40
0.625
  9
$DIMDLI
 40
3.75
  9
$DIMRND
 40
0.0
  9
$DIMDLE
 40
0.0
  9
$DIMEXE
 40
1.25
  9
$DIMTP
 40
0.0
  9
$DIMTM
 40
0.0
  9
$DIMTXT
 40
2.5
  9
$DIMCEN
 40
2.5
  9
$DIMTSZ
 40
0.0
  9
$DIMTOL
 70
0
  9
$DIMLIM
 70
0
  9
$DIMTIH
 70
0
  9
$DIMTOH
 70
0
  9
$DIMSE1
 70
0
  9
$DIMSE2
 70
0
  9
$DIMTAD
 70
1
  9
$DIMZIN
 70
8
  9
$DIMBLK
  1

  9
$DIMASO
 70
1
  9
$DIMSHO
 70
1
  9
$DIMPOST
  1

  9
$DIMAPOST
  1

  9
$DIMALT
 70
0
  9
$DIMALTD
 70
3
  9
$DIMALTF
 40
0.03937007874
  9
$DIMLFAC
 40
1.0
  9
$DIMTOFL
 70
1
  9
$DIMTVP
 40
0.0
  9
$DIMTIX
 70
0
  9
$DIMSOXD
 70
0
  9
$DIMSAH
 70
0
  9
$DIMBLK1
  1

  9
$DIMBLK2
  1

  9
$DIMSTYLE
  2
ISO-25
  9
$DIMCLRD
 70
0
  9
$DIMCLRE
 70
0
  9
$DIMCLRT
 70
0
  9
$DIMTFAC
 40
1.0
  9
$DIMGAP
 40
0.625
  9
$DIMJUST
 70
0
  9
$DIMSD1
 70
0
  9
$DIMSD2
 70
0
  9
$DIMTOLJ
 70
0
  9
$DIMTZIN
 70
8
  9
$DIMALTZ
 70
0
  9
$DIMALTTZ
 70
0
  9
$DIMUPT
 70
0
  9
$DIMDEC
 70
2
  9
$DIMTDEC
 70
2
  9
$DIMALTU
 70
2
  9
$DIMALTTD
 70
3
  9
$DIMTXSTY
  7
Standard
  9
$DIMAUNIT
 70
0
  9
$DIMADEC
 70
0
  9
$DIMALTRND
 40
0.0
  9
$DIMAZIN
 70
0
  9
$DIMDSEP
 70
44
  9
$DIMATFIT
 70
3
  9
$DIMFRAC
 70
0
  9
$DIMLDRBLK
  1

  9
$DIMLUNIT
 70
2
  9
$DIMLWD
 70
-2
  9
$DIMLWE
 70
-2
  9
$DIMTMOVE
 70
0
  9
$LUNITS
 70
2
  9
$LUPREC
 70
4
  9
$SKETCHINC
 40
1.0
  9
$FILLETRAD
 40
10.0
  9
$AUNITS
 70
0
  9
$AUPREC
 70
2
  9
$MENU
  1
.
  9
$ELEVATION
 40
0.0
  9
$PELEVATION
 40
0.0
  9
$THICKNESS
 40
0.0
  9
$LIMCHECK
 70
0
  9
$CHAMFERA
 40
0.0
  9
$CHAMFERB
 40
0.0
  9
$CHAMFERC
 40
0.0
  9
$CHAMFERD
 40
0.0
  9
$SKPOLY
 70
0
  9
$TDCREATE
 40
2460915.3387037036
  9
$TDUCREATE
 40
2458532.153996898
  9
$TDUPDATE
 40
2460915.3387037036
  9
$TDUUPDATE
 40
2458532.1544311
  9
$TDINDWG
 40
0.0
  9
$TDUSRTIMER
 40
0.0
  9
$USRTIMER
 70
1
  9
$ANGBASE
 50
0.0
  9
$ANGDIR
 70
0
  9
$PDMODE
 70
0
  9
$PDSIZE
 40
0.0
  9
$PLINEWID
 40
0.0
  9
$SPLFRAME
 70
0
  9
$SPLINETYPE
 70
6
  9
$SPLINESEGS
 70
8
  9
$HANDSEED
  5
302
  9
$SURFTAB1
 70
6
  9
$SURFTAB2
 70
6
  9
$SURFTYPE
 70
6
  9
$SURFU
 70
6
  9
$SURFV
 70
6
  9
$UCSBASE
  2

  9
$UCSNAME
  2

  9
$UCSORG
 10
0.0
 20
0.0
 30
0.0
  9
$UCSXDIR
 10
1.0
 20
0.0
 30
0.0
  9
$UCSYDIR
 10
0.0
 20
1.0
 30
0.0
  9
$UCSORTHOREF
  2

  9
$UCSORTHOVIEW
 70
0
  9
$UCSORGTOP
 10
0.0
 20
0.0
 30
0.0
  9
$UCSORGBOTTOM
 10
0.0
 20
0.0
 30
0.0
  9
$UCSORGLEFT
 10
0.0
 20
0.0
 30
0.0
  9
$UCSORGRIGHT
 10
0.0
 20
0.0
 30
0.0
  9
$UCSORGFRONT
 10
0.0
 20
0.0
 30
0.0
  9
$UCSORGBACK
 10
0.0
 20
0.0
 30
0.0
  9
$PUCSBASE
  2

  9
$PUCSNAME
  2

  9
$PUCSORG
 10
0.0
 20
0.0
 30
0.0
  9
$PUCSXDIR
 10
1.0
 20
0.0
 30
0.0
  9
$PUCSYDIR
 10
0.0
 20
1.0
 30
0.0
  9
$PUCSORTHOREF
  2

  9
$PUCSORTHOVIEW
 70
0
  9
$PUCSORGTOP
 10
0.0
 20
0.0
 30
0.0
  9
$PUCSORGBOTTOM
 10
0.0
 20
0.0
 30
0.0
  9
$PUCSORGLEFT
 10
0.0
 20
0.0
 30
0.0
  9
$PUCSORGRIGHT
 10
0.0
 20
0.0
 30
0.0
  9
$PUCSORGFRONT
 10
0.0
 20
0.0
 30
0.0
  9
$PUCSORGBACK
 10
0.0
 20
0.0
 30
0.0
  9
$USERI1
 70
0
  9
$USERI2
 70
0
  9
$USERI3
 70
0
  9
$USERI4
 70
0
  9
$USERI5
 70
0
  9
$USERR1
 40
0.0
  9
$USERR2
 40
0.0
  9
$USERR3
 40
0.0
  9
$USERR4
 40
0.0
  9
$USERR5
 40
0.0
  9
$WORLDVIEW
 70
1
  9
$SHADEDGE
 70
3
  9
$SHADEDIF
 70
70
  9
$TILEMODE
 70
1
  9
$MAXACTVP
 70
64
  9
$PINSBASE
 10
0.0
 20
0.0
 30
0.0
  9
$PLIMCHECK
 70
0
  9
$PEXTMIN
 10
1e+20
 20
1e+20
 30
1e+20
  9
$PEXTMAX
 10
-1e+20
 20
-1e+20
 30
-1e+20
  9
$PLIMMIN
 10
0.0
 20
0.0
  9
$PLIMMAX
 10
420.0
 20
297.0
  9
$UNITMODE
 70
0
  9
$VISRETAIN
 70
1
  9
$PLINEGEN
 70
0
  9
$PSLTSCALE
 70
1
  9
$TREEDEPTH
 70
3020
  9
$CMLSTYLE
  2
Standard
  9
$CMLJUST
 70
0
  9
$CMLSCALE
 40
20.0
  9
$PROXYGRAPHICS
 70
1
  9
$MEASUREMENT
 70
1
  9
$CELWEIGHT
370
-1
  9
$ENDCAPS
280
0
  9
$JOINSTYLE
280
0
  9
$LWDISPLAY
290
0
  9
$INSUNITS
 70
6
  9
$HYPERLINKBASE
  1

  9
$STYLESHEET
  1

  9
$XEDIT
290
1
  9
$CEPSNTYPE
380
0
  9
$PSTYLEMODE
290
1
  9
$FINGERPRINTGUID
  2
{FD17A367-3D43-44A5-A0B8-86C54908AF3C}
  9
$VERSIONGUID
  2
{9EFE43C0-EBAB-4B4E-86F3-BC1C8BAB8603}
  9
$EXTNAMES
290
1
  9
$PSVPSCALE
 40
0.0
  9
$OLESTARTUP
290
0
  0
ENDSEC
  0
SECTION
  2
CLASSES
  0
CLASS
  1
ACDBDICTIONARYWDFLT
  2
AcDbDictionaryWithDefault
  3
ObjectDBX Classes
 90
0
280
0
281
0
  0
CLASS
  1
SUN
  2
AcDbSun
  3
SCENEOE
 90
1153
280
0
281
0
  0
CLASS
  1
VISUALSTYLE
  2
AcDbVisualStyle
  3
ObjectDBX Classes
 90
4095
280
0
281
0
  0
CLASS
  1
MATERIAL
  2
AcDbMaterial
  3
ObjectDBX Classes
 90
1153
280
0
281
0
  0
CLASS
  1
SCALE
  2
AcDbScale
  3
ObjectDBX Classes
 90
1153
280
0
281
0
  0
CLASS
  1
TABLESTYLE
  2
AcDbTableStyle
  3
ObjectDBX Classes
 90
4095
280
0
281
0
  0
CLASS
  1
MLEADERSTYLE
  2
AcDbMLeaderStyle
  3
ACDB_MLEADERSTYLE_CLASS
 90
4095
280
0
281
0
  0
CLASS
  1
DICTIONARYVAR
  2
AcDbDictionaryVar
  3
ObjectDBX Classes
 90
0
280
0
281
0
  0
CLASS
  1
CELLSTYLEMAP
  2
AcDbCellStyleMap
  3
ObjectDBX Classes
 90
1152
280
0
281
0
  0
CLASS
  1
MENTALRAYRENDERSETTINGS
  2
AcDbMentalRayRenderSettings
  3
SCENEOE
 90
1024
280
0
281
0
  0
CLASS
  1
ACDBDETAILVIEWSTYLE
  2
AcDbDetailViewStyle
  3
ObjectDBX Classes
 90
1025
280
0
281
0
  0
CLASS
  1
ACDBSECTIONVIEWSTYLE
  2
AcDbSectionViewStyle
  3
ObjectDBX Classes
 90
1025
280
0
281
0
  0
CLASS
  1
RASTERVARIABLES
  2
AcDbRasterVariables
  3
ISM
 90
0
280
0
281
0
  0
CLASS
  1
ACDBPLACEHOLDER
  2
AcDbPlaceHolder
  3
ObjectDBX Classes
 90
0
280
0
281
0
  0
CLASS
  1
LAYOUT
  2
AcDbLayout
  3
ObjectDBX Classes
 90
0
280
0
281
0
  0
ENDSEC
  0
SECTION
  2
TABLES
  0
TABLE
  2
VPORT
  5
8
330
0
100
AcDbSymbolTable
 70
1
  0
VPORT
  5
23
330
8
100
AcDbSymbolTableRecord
100
AcDbViewportTableRecord
  2
*Active
 70
0
 10
0.0
 20
0.0
 11
1.0
 21
1.0
 12
0.0
 22
0.0
 13
0.0
 23
0.0
 14
0.5
 24
0.5
 15
0.5
 25
0.5
 16
0.0
 26
0.0
 36
1.0
 17
0.0
 27
0.0
 37
0.0
 40
1000.0
 41
1.34
 42
50.0
 43
0.0
 44
0.0
 50
0.0
 51
0.0
 71
0
 72
1000
 73
1
 74
3
 75
0
 76
0
 77
0
 78
0
281
0
 65
0
146
0.0
  0
ENDTAB
  0
TABLE
  2
LTYPE
  5
2
330
0
100
AcDbSymbolTable
 70
3
  0
LTYPE
  5
24
330
2
100
AcDbSymbolTableRecord
100
AcDbLinetypeTableRecord
  2
ByBlock
 70
0
  3

 72
65
 73
0
 40
0.0
  0
LTYPE
  5
25
330
2
100
AcDbSymbolTableRecord
100
AcDbLinetypeTableRecord
  2
ByLayer
 70
0
  3

 72
65
 73
0
 40
0.0
  0
LTYPE
  5
26
330
2
100
AcDbSymbolTableRecord
100
AcDbLinetypeTableRecord
  2
Continuous
 70
0
  3

 72
65
 73
0
 40
0.0
  0
ENDTAB
  0
TABLE
  2
LAYER
  5
1
330
0
100
AcDbSymbolTable
 70
2
  0
LAYER
  5
27
330
1
100
AcDbSymbolTableRecord
100
AcDbLayerTableRecord
  2
0
 70
0
 62
7
  6
Continuous
370
-3
390
13
  0
LAYER
  5
28
330
1
100
AcDbSymbolTableRecord
100
AcDbLayerTableRecord
  2
Defpoints
 70
0
 62
7
  6
Continuous
290
0
370
-3
390
13
  0
ENDTAB
  0
TABLE
  2
STYLE
  5
5
330
0
100
AcDbSymbolTable
 70
1
  0
STYLE
  5
29
330
5
100
AcDbSymbolTableRecord
100
AcDbTextStyleTableRecord
  2
Standard
 70
0
 40
0.0
 41
1.0
 50
0.0
 71
0
 42
2.5
  3
txt
  4

  0
ENDTAB
  0
TABLE
  2
VIEW
  5
7
330
0
100
AcDbSymbolTable
 70
0
  0
ENDTAB
  0
TABLE
  2
UCS
  5
6
330
0
100
AcDbSymbolTable
 70
0
  0
ENDTAB
  0
TABLE
  2
APPID
  5
3
330
0
100
AcDbSymbolTable
 70
3
  0
APPID
  5
2A
330
3
100
AcDbSymbolTableRecord
100
AcDbRegAppTableRecord
  2
ACAD
 70
0
  0
APPID
  5
2FF
330
3
100
AcDbSymbolTableRecord
100
AcDbRegAppTableRecord
  2
HATCHBACKGROUNDCOLOR
 70
0
  0
APPID
  5
300
330
3
100
AcDbSymbolTableRecord
100
AcDbRegAppTableRecord
  2
EZDXF
 70
0
  0
ENDTAB
  0
TABLE
  2
DIMSTYLE
  5
4
330
0
100
AcDbSymbolTable
 70
1
100
AcDbDimStyleTable
  0
DIMSTYLE
105
2B
330
4
100
AcDbSymbolTableRecord
100
AcDbDimStyleTableRecord
  2
Standard
 70
0
  3

  4

 40
1.0
 41
2.5
 42
0.625
 43
3.75
 44
1.25
 45
0.0
 46
0.0
 47
0.0
 48
0.0
140
2.5
141
2.5
142
0.0
143
0.03937007874
144
1.0
145
0.0
146
1.0
147
0.625
148
0.0
 71
0
 72
0
 73
0
 74
0
 75
0
 76
0
 77
1
 78
8
 79
3
170
0
171
3
172
1
173
0
174
0
175
0
176
0
177
0
178
0
179
2
271
2
272
2
273
2
274
3
275
0
276
0
277
2
278
44
279
0
280
0
281
0
282
0
283
0
284
8
285
0
286
0
288
0
289
3
371
-2
372
-2
  0
ENDTAB
  0
TABLE
  2
BLOCK_RECORD
  5
9
330
0
100
AcDbSymbolTable
 70
2
  0
BLOCK_RECORD
  5
17
330
9
100
AcDbSymbolTableRecord
100
AcDbBlockTableRecord
  2
*Model_Space
340
1A
  0
BLOCK_RECORD
  5
1B
330
9
100
AcDbSymbolTableRecord
100
AcDbBlockTableRecord
  2
*Paper_Space
340
1E
  0
ENDTAB
  0
ENDSEC
  0
SECTION
  2
BLOCKS
  0
BLOCK
  5
18
330
17
100
AcDbEntity
  8
0
100
AcDbBlockBegin
  2
*Model_Space
 70
0
 10
0.0
 20
0.0
 30
0.0
  3
*Model_Space
  1

  0
ENDBLK
  5
19
330
17
100
AcDbEntity
  8
0
100
AcDbBlockEnd
  0
BLOCK
  5
1C
330
1B
100
AcDbEntity
  8
0
100
AcDbBlockBegin
  2
*Paper_Space
 70
0
 10
0.0
 20
0.0
 30
0.0
  3
*Paper_Space
  1

  0
ENDBLK
  5
1D
330
1B
100
AcDbEntity
  8
0
100
AcDbBlockEnd
  0
ENDSEC
  0
SECTION
  2
ENTITIES
  0
POINT
  5
2F
330
17
100
AcDbEntity
  8
0
100
AcDbPoint
 10
49.043
 20
-0.0
 30
0.0
  0
POINT
  5
30
330
17
100
AcDbEntity
  8
0
100
AcDbPoint
 10
49.04203255856691
 20
-0.42798333432870145
 30
0.0
  0
POINT
  5
31
330
17
100
AcDbEntity
  8
0
100
AcDbPoint
 10
49.040829706339224
 20
-0.8560108666578128
 30
0.0
  0
POINT
  5
32
330
17
100
AcDbEntity
  8
0
100
AcDbPoint
 10
49.037190419350985
 20
-1.2840840222944097
 30
0.0
  0
POINT
  5
33
330
17
100
AcDbEntity
  8
0
100
AcDbPoint
 10
49.03441135411302
 20
-1.7123193760605182
 30
0.0
  0
POINT
  5
34
330
17
100
AcDbEntity
  8
0
100
AcDbPoint
 10
49.028191569307516
 20
-2.1406170730151275
 30
0.0
  0
POINT
  5
35
330
17
100
AcDbEntity
  8
0
100
AcDbPoint
 10
49.02362262768331
 20
-2.5692191943267315
 30
0.0
  0
POINT
  5
36
330
17
100
AcDbEntity
  8
0
100
AcDbPoint
 10
49.015605173062305
 20
-2.9979228406461234
 30
0.0
  0
POINT
  5
37
330
17
100
AcDbEntity
  8
0
100
AcDbPoint
 10
49.008625930379715
 20
-3.427016969043511
 30
0.0
  0
POINT
  5
38
330
17
100
AcDbEntity
  8
0
100
AcDbPoint
 10
48.99888571991673
 20
-3.85629593866187
 30
0.0
  0
POINT
  5
39
330
17
100
AcDbEntity
  8
0
100
AcDbPoint
 10
48.9890697122993
 20
-4.285988236507388
 30
0.0
  0
POINT
  5
3A
330
17
100
AcDbEntity
  8
0
100
AcDbPoint
 10
48.978469940657035
 20
-4.7160902527576205
 30
0.0
  0
POINT
  5
3B
330
17
100
AcDbEntity
  8
0
100
AcDbPoint
 10
48.965384970646475
 20
-5.1464693418292455
 30
0.0
  0
POINT
  5
3C
330
17
100
AcDbEntity
  8
0
100
AcDbPoint
 10
48.9537821151133
 20
-5.577578943951648
 30
0.0
  0
POINT
  5
3D
330
17
100
AcDbEntity
  8
0
100
AcDbPoint
 10
48.939770862824155
 20
-6.009048276080628
 30
0.0
  0
POINT
  5
3E
330
17
100
AcDbEntity
  8
0
100
AcDbPoint
 10
48.92145866168475
 20
-6.440632218429337
 30
0.0
  0
POINT
  5
3F
330
17
100
AcDbEntity
  8
0
100
AcDbPoint
 10
48.904487601609326
 20
-6.873077508222928
 30
0.0
  0
POINT
  5
40
330
17
100
AcDbEntity
  8
0
100
AcDbPoint
 10
48.89071348467399
 20
-7.3067660869578335
 30
0.0
  0
POINT
  5
41
330
17
100
AcDbEntity
  8
0
100
AcDbPoint
 10
48.87210308749019
 20
-7.740580694995176
 30
0.0
  0
POINT
  5
42
330
17
100
AcDbEntity
  8
0
100
AcDbPoint
 10
48.85210664398122
 20
-8.17503898492757
 30
0.0
  0
POINT
  5
43
330
17
100
AcDbEntity
  8
0
100
AcDbPoint
 10
48.83110154845853
 20
-8.610240700708141
 30
0.0
  0
POINT
  5
44
330
17
100
AcDbEntity
  8
0
100
AcDbPoint
 10
48.809068587946975
 20
-9.046226156087847
 30
0.0
  0
POINT
  5
45
330
17
100
AcDbEntity
  8
0
100
AcDbPoint
 10
48.78559490201042
 20
-9.482959018520289
 30
0.0
  0
POINT
  5
46
330
17
100
AcDbEntity
  8
0
100
AcDbPoint
 10
48.760857316991554
 20
-9.920508543012849
 30
0.0
  0
POINT
  5
47
330
17
100
AcDbEntity
  8
0
100
AcDbPoint
 10
48.734932614680915
 20
-10.358929709796797
 30
0.0
  0
POINT
  5
48
330
17
100
AcDbEntity
  8
0
100
AcDbPoint
 10
48.70799357281775
 20
-10.798302203140315
 30
0.0
  0
POINT
  5
49
330
17
100
AcDbEntity
  8
0
100
AcDbPoint
 10
48.67952843667035
 20
-11.238554675019495
 30
0.0
  0
POINT
  5
4A
330
17
100
AcDbEntity
  8
0
100
AcDbPoint
 10
48.64970909432859
 20
-11.679761788975044
 30
0.0
  0
POINT
  5
4B
330
17
100
AcDbEntity
  8
0
100
AcDbPoint
 10
48.61870498608398
 20
-12.122004615002112
 30
0.0
  0
POINT
  5
4C
330
17
100
AcDbEntity
  8
0
100
AcDbPoint
 10
48.58658614713937
 20
-12.56534554147255
 30
0.0
  0
POINT
  5
4D
330
17
100
AcDbEntity
  8
0
100
AcDbPoint
 10
48.55284121391579
 20
-13.009694593505266
 30
0.0
  0
POINT
  5
4E
330
17
100
AcDbEntity
  8
0
100
AcDbPoint
 10
48.51763696251031
 20
-13.455131549488938
 30
0.0
  0
POINT
  5
4F
330
17
100
AcDbEntity
  8
0
100
AcDbPoint
 10
48.48094525614033
 20
-13.901687349423607
 30
0.0
  0
POINT
  5
50
330
17
100
AcDbEntity
  8
0
100
AcDbPoint
 10
48.44254534671921
 20
-14.349335662010754
 30
0.0
  0
POINT
  5
51
330
17
100
AcDbEntity
  8
0
100
AcDbPoint
 10
48.40269580973987
 20
-14.798189174348016
 30
0.0
  0
POINT
  5
52
330
17
100
AcDbEntity
  8
0
100
AcDbPoint
 10
48.361269881931236
 20
-15.248249822422581
 30
0.0
  0
POINT
  5
53
330
17
100
AcDbEntity
  8
0
100
AcDbPoint
 10
48.318140993420386
 20
-15.699515694120889
 30
0.0
  0
POINT
  5
54
330
17
100
AcDbEntity
  8
0
100
AcDbPoint
 10
48.27365700934741
 20
-16.15213969057609
 30
0.0
  0
POINT
  5
55
330
17
100
AcDbEntity
  8
0
100
AcDbPoint
 10
48.22759322630656
 20
-16.606092070318965
 30
0.0
  0
POINT
  5
56
330
17
100
AcDbEntity
  8
0
100
AcDbPoint
 10
48.18019762855431
 20
-17.061502808470575
 30
0.0
  0
POINT
  5
57
330
17
100
AcDbEntity
  8
0
100
AcDbPoint
 10
48.130680159605916
 20
-17.51813493308342
 30
0.0
  0
POINT
  5
58
330
17
100
AcDbEntity
  8
0
100
AcDbPoint
 10
48.07975814299594
 20
-17.976284963000968
 30
0.0
  0
POINT
  5
59
330
17
100
AcDbEntity
  8
0
100
AcDbPoint
 10
48.02711146072205
 20
-18.435880796408426
 30
0.0
  0
POINT
  5
5A
330
17
100
AcDbEntity
  8
0
100
AcDbPoint
 10
47.97288805569398
 20
-18.897023150640806
 30
0.0
  0
POINT
  5
5B
330
17
100
AcDbEntity
  8
0
100
AcDbPoint
 10
47.9054572426004
 20
-19.355061086635317
 30
0.0
  0
POINT
  5
5C
330
17
100
AcDbEntity
  8
0
100
AcDbPoint
 10
47.858899931102926
 20
-19.823805431719617
 30
0.0
  0
POINT
  5
5D
330
17
100
AcDbEntity
  8
0
100
AcDbPoint
 10
47.79933167668091
 20
-20.289612528401065
 30
0.0
  0
POINT
  5
5E
330
17
100
AcDbEntity
  8
0
100
AcDbPoint
 10
47.73783729013995
 20
-20.75700240762437
 30
0.0
  0
POINT
  5
5F
330
17
100
AcDbEntity
  8
0
100
AcDbPoint
 10
47.674648670719826
 20
-21.22612115021094
 30
0.0
  0
POINT
  5
60
330
17
100
AcDbEntity
  8
0
100
AcDbPoint
 10
47.609719669023264
 20
-21.69699927172002
 30
0.0
  0
POINT
  5
61
330
17
100
AcDbEntity
  8
0
100
AcDbPoint
 10
47.54291263081117
 20
-22.16962425074126
 30
0.0
  0
POINT
  5
62
330
17
100
AcDbEntity
  8
0
100
AcDbPoint
 10
47.4742710447624
 20
-22.64406572103239
 30
0.0
  0
POINT
  5
63
330
17
100
AcDbEntity
  8
0
100
AcDbPoint
 10
47.403656313482884
 20
-23.120308001261446
 30
0.0
  0
POINT
  5
64
330
17
100
AcDbEntity
  8
0
100
AcDbPoint
 10
47.331020036099424
 20
-23.598376080407636
 30
0.0
  0
POINT
  5
65
330
17
100
AcDbEntity
  8
0
100
AcDbPoint
 10
47.25666942598814
 20
-24.078475730886236
 30
0.0
  0
POINT
  5
66
330
17
100
AcDbEntity
  8
0
100
AcDbPoint
 10
47.1700829943347
 20
-24.555190978641896
 30
0.0
  0
POINT
  5
67
330
17
100
AcDbEntity
  8
0
100
AcDbPoint
 10
47.10128081485589
 20
-25.04419525259474
 30
0.0
  0
POINT
  5
68
330
17
100
AcDbEntity
  8
0
100
AcDbPoint
 10
47.02014291415453
 20
-25.52985459305406
 30
0.0
  0
POINT
  5
69
330
17
100
AcDbEntity
  8
0
100
AcDbPoint
 10
46.9366415075771
 20
-26.01740523244373
 30
0.0
  0
POINT
  5
6A
330
17
100
AcDbEntity
  8
0
100
AcDbPoint
 10
46.850898970166426
 20
-26.506963270945594
 30
0.0
  0
POINT
  5
6B
330
17
100
AcDbEntity
  8
0
100
AcDbPoint
 10
46.76286033068872
 20
-26.998549999999998
 30
0.0
  0
POINT
  5
6C
330
17
100
AcDbEntity
  8
0
100
AcDbPoint
 10
46.6723837111324
 20
-27.492135029510234
 30
0.0
  0
POINT
  5
6D
330
17
100
AcDbEntity
  8
0
100
AcDbPoint
 10
46.570842331176536
 20
-27.982585151745642
 30
0.0
  0
POINT
  5
6E
330
17
100
AcDbEntity
  8
0
100
AcDbPoint
 10
46.48432174427283
 20
-28.485629001040568
 30
0.0
  0
POINT
  5
6F
330
17
100
AcDbEntity
  8
0
100
AcDbPoint
 10
46.386534763564185
 20
-28.98552391502784
 30
0.0
  0
POINT
  5
70
330
17
100
AcDbEntity
  8
0
100
AcDbPoint
 10
46.28616593765698
 20
-29.487539805682037
 30
0.0
  0
POINT
  5
71
330
17
100
AcDbEntity
  8
0
100
AcDbPoint
 10
46.183407633277845
 20
-29.9918555967865
 30
0.0
  0
POINT
  5
72
330
17
100
AcDbEntity
  8
0
100
AcDbPoint
 10
46.07811225854772
 20
-30.49843719108693
 30
0.0
  0
POINT
  5
73
330
17
100
AcDbEntity
  8
0
100
AcDbPoint
 10
45.97005049441981
 20
-31.007190578162568
 30
0.0
  0
POINT
  5
74
330
17
100
AcDbEntity
  8
0
100
AcDbPoint
 10
45.8590786542041
 20
-31.51807153804817
 30
0.0
  0
POINT
  5
75
330
17
100
AcDbEntity
  8
0
100
AcDbPoint
 10
45.74587357413646
 20
-32.0316055185987
 30
0.0
  0
POINT
  5
76
330
17
100
AcDbEntity
  8
0
100
AcDbPoint
 10
45.62979080749049
 20
-32.54741347257347
 30
0.0
  0
POINT
  5
77
330
17
100
AcDbEntity
  8
0
100
AcDbPoint
 10
45.51068470666661
 20
-33.06544791803647
 30
0.0
  0
POINT
  5
78
330
17
100
AcDbEntity
  8
0
100
AcDbPoint
 10
45.38865223514631
 20
-33.58583590201303
 30
0.0
  0
POINT
  5
79
330
17
100
AcDbEntity
  8
0
100
AcDbPoint
 10
45.26378562164439
 20
-34.10870897817475
 30
0.0
  0
POINT
  5
7A
330
17
100
AcDbEntity
  8
0
100
AcDbPoint
 10
45.13545823584895
 20
-34.63365521916413
 30
0.0
  0
POINT
  5
7B
330
17
100
AcDbEntity
  8
0
100
AcDbPoint
 10
45.003845746007414
 20
-35.16085781888108
 30
0.0
  0
POINT
  5
7C
330
17
100
AcDbEntity
  8
0
100
AcDbPoint
 10
44.86903867437239
 20
-35.690444907953655
 30
0.0
  0
POINT
  5
7D
330
17
100
AcDbEntity
  8
0
100
AcDbPoint
 10
44.730267818175015
 20
-36.221856679694596
 30
0.0
  0
POINT
  5
7E
330
17
100
AcDbEntity
  8
0
100
AcDbPoint
 10
44.58817222614272
 20
-36.75565274310653
 30
0.0
  0
POINT
  5
7F
330
17
100
AcDbEntity
  8
0
100
AcDbPoint
 10
44.44237478532476
 20
-37.29158029100845
 30
0.0
  0
POINT
  5
80
330
17
100
AcDbEntity
  8
0
100
AcDbPoint
 10
44.2925068872534
 20
-37.829374643160705
 30
0.0
  0
POINT
  5
81
330
17
100
AcDbEntity
  8
0
100
AcDbPoint
 10
44.13941621220288
 20
-38.36980912821851
 30
0.0
  0
POINT
  5
82
330
17
100
AcDbEntity
  8
0
100
AcDbPoint
 10
43.98227491218999
 20
-38.912229807459546
 30
0.0
  0
POINT
  5
83
330
17
100
AcDbEntity
  8
0
100
AcDbPoint
 10
43.82176406875099
 20
-39.45729359576916
 30
0.0
  0
POINT
  5
84
330
17
100
AcDbEntity
  8
0
100
AcDbPoint
 10
43.65699276640733
 20
-40.00426343571218
 30
0.0
  0
POINT
  5
85
330
17
100
AcDbEntity
  8
0
100
AcDbPoint
 10
43.48760753493879
 20
-40.552850086364266
 30
0.0
  0
POINT
  5
86
330
17
100
AcDbEntity
  8
0
100
AcDbPoint
 10
43.31355444188573
 20
-41.103028423825435
 30
0.0
  0
POINT
  5
87
330
17
100
AcDbEntity
  8
0
100
AcDbPoint
 10
43.135714665167455
 20
-41.65567544543309
 30
0.0
  0
POINT
  5
88
330
17
100
AcDbEntity
  8
0
100
AcDbPoint
 10
42.95258397346906
 20
-42.20938671447489
 30
0.0
  0
POINT
  5
89
330
17
100
AcDbEntity
  8
0
100
AcDbPoint
 10
42.76504030870309
 20
-42.76504030870309
 30
0.0
  0
POINT
  5
8A
330
17
100
AcDbEntity
  8
0
100
AcDbPoint
 10
42.57294834986722
 20
-43.32254698144532
 30
0.0
  0
POINT
  5
8B
330
17
100
AcDbEntity
  8
0
100
AcDbPoint
 10
42.3763835047843
 20
-43.882029708018806
 30
0.0
  0
POINT
  5
8C
330
17
100
AcDbEntity
  8
0
100
AcDbPoint
 10
42.1745899918079
 20
-44.442744725240544
 30
0.0
  0
POINT
  5
8D
330
17
100
AcDbEntity
  8
0
100
AcDbPoint
 10
41.96799668349396
 20
-45.00516646579857
 30
0.0
  0
POINT
  5
8E
330
17
100
AcDbEntity
  8
0
100
AcDbPoint
 10
41.75687955230873
 20
-45.56963763356015
 30
0.0
  0
POINT
  5
8F
330
17
100
AcDbEntity
  8
0
100
AcDbPoint
 10
41.540364086424916
 20
-46.13524822494466
 30
0.0
  0
POINT
  5
90
330
17
100
AcDbEntity
  8
0
100
AcDbPoint
 10
41.31926339460803
 20
-46.70293146352812
 30
0.0
  0
POINT
  5
91
330
17
100
AcDbEntity
  8
0
100
AcDbPoint
 10
41.09271652214072
 20
-47.27176285395948
 30
0.0
  0
POINT
  5
92
330
17
100
AcDbEntity
  8
0
100
AcDbPoint
 10
40.86086824315633
 20
-47.841929853481226
 30
0.0
  0
POINT
  5
93
330
17
100
AcDbEntity
  8
0
100
AcDbPoint
 10
40.622891356969916
 20
-48.41247671623317
 30
0.0
  0
POINT
  5
94
330
17
100
AcDbEntity
  8
0
100
AcDbPoint
 10
40.37970840313909
 20
-48.98450328999425
 30
0.0
  0
POINT
  5
95
330
17
100
AcDbEntity
  8
0
100
AcDbPoint
 10
40.13025096830962
 20
-49.55673281180354
 30
0.0
  0
POINT
  5
96
330
17
100
AcDbEntity
  8
0
100
AcDbPoint
 10
39.87536180421371
 20
-50.13020026962843
 30
0.0
  0
POINT
  5
97
330
17
100
AcDbEntity
  8
0
100
AcDbPoint
 10
39.61467606368195
 20
-50.70447313974916
 30
0.0
  0
POINT
  5
98
330
17
100
AcDbEntity
  8
0
100
AcDbPoint
 10
39.34778197312187
 20
-51.27902783239622
 30
0.0
  0
POINT
  5
99
330
17
100
AcDbEntity
  8
0
100
AcDbPoint
 10
39.07512727523471
 20
-51.85444530475866
 30
0.0
  0
POINT
  5
9A
330
17
100
AcDbEntity
  8
0
100
AcDbPoint
 10
38.79636454939744
 20
-52.43027756278101
 30
0.0
  0
POINT
  5
9B
330
17
100
AcDbEntity
  8
0
100
AcDbPoint
 10
38.51163095167762
 20
-53.00671256974712
 30
0.0
  0
POINT
  5
9C
330
17
100
AcDbEntity
  8
0
100
AcDbPoint
 10
38.22099749046049
 20
-53.583862244935396
 30
0.0
  0
POINT
  5
9D
330
17
100
AcDbEntity
  8
0
100
AcDbPoint
 10
37.92372681865846
 20
-54.16069486429956
 30
0.0
  0
POINT
  5
9E
330
17
100
AcDbEntity
  8
0
100
AcDbPoint
 10
37.620758897171086
 20
-54.73854386089314
 30
0.0
  0
POINT
  5
9F
330
17
100
AcDbEntity
  8
0
100
AcDbPoint
 10
37.310692582536554
 20
-55.31537653104651
 30
0.0
  0
POINT
  5
A0
330
17
100
AcDbEntity
  8
0
100
AcDbPoint
 10
36.964765329907415
 20
-55.84766838414005
 30
0.0
  0
POINT
  5
A1
330
17
100
AcDbEntity
  8
0
100
AcDbPoint
 10
36.672125680763315
 20
-56.47012148441244
 30
0.0
  0
POINT
  5
A2
330
17
100
AcDbEntity
  8
0
100
AcDbPoint
 10
36.34256939885332
 20
-57.046407020771504
 30
0.0
  0
POINT
  5
A3
330
17
100
AcDbEntity
  8
0
100
AcDbPoint
 10
36.006795190338536
 20
-57.62291762320799
 30
0.0
  0
POINT
  5
A4
330
17
100
AcDbEntity
  8
0
100
AcDbPoint
 10
35.66392328253417
 20
-58.198233378235095
 30
0.0
  0
POINT
  5
A5
330
17
100
AcDbEntity
  8
0
100
AcDbPoint
 10
35.314049140475284
 20
-58.77244742321096
 30
0.0
  0
POINT
  5
A6
330
17
100
AcDbEntity
  8
0
100
AcDbPoint
 10
34.957821333317014
 20
-59.34660400956306
 30
0.0
  0
POINT
  5
A7
330
17
100
AcDbEntity
  8
0
100
AcDbPoint
 10
34.594550000000005
 20
-59.919518264981896
 30
0.0
  0
POINT
  5
A8
330
17
100
AcDbEntity
  8
0
100
AcDbPoint
 10
34.223634396615005
 20
-60.4900690101014
 30
0.0
  0
POINT
  5
A9
330
17
100
AcDbEntity
  8
0
100
AcDbPoint
 10
33.846014018257534
 20
-61.05982561452264
 30
0.0
  0
POINT
  5
AA
330
17
100
AcDbEntity
  8
0
100
AcDbPoint
 10
33.46209410773377
 20
-61.62951071333578
 30
0.0
  0
POINT
  5
AB
330
17
100
AcDbEntity
  8
0
100
AcDbPoint
 10
33.07107919163907
 20
-62.19765387327996
 30
0.0
  0
POINT
  5
AC
330
17
100
AcDbEntity
  8
0
100
AcDbPoint
 10
32.67254689986849
 20
-62.763378637274556
 30
0.0
  0
POINT
  5
AD
330
17
100
AcDbEntity
  8
0
100
AcDbPoint
 10
32.26633059083888
 20
-63.326239391682606
 30
0.0
  0
POINT
  5
AE
330
17
100
AcDbEntity
  8
0
100
AcDbPoint
 10
31.85294638337647
 20
-63.88712673886457
 30
0.0
  0
POINT
  5
AF
330
17
100
AcDbEntity
  8
0
100
AcDbPoint
 10
31.432307152643826
 20
-64.44578010476603
 30
0.0
  0
POINT
  5
B0
330
17
100
AcDbEntity
  8
0
100
AcDbPoint
 10
31.004505118830124
 20
-65.00229674977982
 30
0.0
  0
POINT
  5
B1
330
17
100
AcDbEntity
  8
0
100
AcDbPoint
 10
30.569331250142362
 20
-65.55614242127942
 30
0.0
  0
POINT
  5
B2
330
17
100
AcDbEntity
  8
0
100
AcDbPoint
 10
30.12663469249046
 20
-66.10686640663911
 30
0.0
  0
POINT
  5
B3
330
17
100
AcDbEntity
  8
0
100
AcDbPoint
 10
29.676807036068226
 20
-66.65519993506862
 30
0.0
  0
POINT
  5
B4
330
17
100
AcDbEntity
  8
0
100
AcDbPoint
 10
29.21929502326284
 20
-67.1997778947485
 30
0.0
  0
POINT
  5
B5
330
17
100
AcDbEntity
  8
0
100
AcDbPoint
 10
28.754489842218387
 20
-67.74133292284526
 30
0.0
  0
POINT
  5
B6
330
17
100
AcDbEntity
  8
0
100
AcDbPoint
 10
28.282333873971673
 20
-68.2795940141064
 30
0.0
  0
POINT
  5
B7
330
17
100
AcDbEntity
  8
0
100
AcDbPoint
 10
27.802964217394912
 20
-68.81475122047785
 30
0.0
  0
POINT
  5
B8
330
17
100
AcDbEntity
  8
0
100
AcDbPoint
 10
27.31643593144205
 20
-69.34681259440424
 30
0.0
  0
POINT
  5
B9
330
17
100
AcDbEntity
  8
0
100
AcDbPoint
 10
26.822515062052414
 20
-69.87504067573751
 30
0.0
  0
POINT
  5
BA
330
17
100
AcDbEntity
  8
0
100
AcDbPoint
 10
26.321131505865935
 20
-70.39906407006353
 30
0.0
  0
POINT
  5
BB
330
17
100
AcDbEntity
  8
0
100
AcDbPoint
 10
25.812328620816892
 20
-70.91879002923666
 30
0.0
  0
POINT
  5
BC
330
17
100
AcDbEntity
  8
0
100
AcDbPoint
 10
25.29598393479293
 20
-71.43365498741261
 30
0.0
  0
POINT
  5
BD
330
17
100
AcDbEntity
  8
0
100
AcDbPoint
 10
24.772057634044263
 20
-71.94327924320373
 30
0.0
  0
POINT
  5
BE
330
17
100
AcDbEntity
  8
0
100
AcDbPoint
 10
24.241028643982897
 20
-72.44879778969144
 30
0.0
  0
POINT
  5
BF
330
17
100
AcDbEntity
  8
0
100
AcDbPoint
 10
23.702530519541597
 20
-72.94888796938716
 30
0.0
  0
POINT
  5
C0
330
17
100
AcDbEntity
  8
0
100
AcDbPoint
 10
23.156932631704763
 20
-73.4444071733899
 30
0.0
  0
POINT
  5
C1
330
17
100
AcDbEntity
  8
0
100
AcDbPoint
 10
22.604045895717533
 20
-73.93450270634338
 30
0.0
  0
POINT
  5
C2
330
17
100
AcDbEntity
  8
0
100
AcDbPoint
 10
22.044021388401788
 20
-74.41936901363573
 30
0.0
  0
POINT
  5
C3
330
17
100
AcDbEntity
  8
0
100
AcDbPoint
 10
21.476890980664287
 20
-74.89881981476518
 30
0.0
  0
POINT
  5
C4
330
17
100
AcDbEntity
  8
0
100
AcDbPoint
 10
20.902664233225845
 20
-75.37257224775482
 30
0.0
  0
POINT
  5
C5
330
17
100
AcDbEntity
  8
0
100
AcDbPoint
 10
20.32130673574697
 20
-75.84014921399934
 30
0.0
  0
POINT
  5
C6
330
17
100
AcDbEntity
  8
0
100
AcDbPoint
 10
19.73329941154432
 20
-76.30300724017596
 30
0.0
  0
POINT
  5
C7
330
17
100
AcDbEntity
  8
0
100
AcDbPoint
 10
19.13858631402707
 20
-76.76067708312985
 30
0.0
  0
POINT
  5
C8
330
17
100
AcDbEntity
  8
0
100
AcDbPoint
 10
18.53705594048757
 20
-77.21239484706605
 30
0.0
  0
POINT
  5
C9
330
17
100
AcDbEntity
  8
0
100
AcDbPoint
 10
17.928801487154946
 20
-77.65817109644156
 30
0.0
  0
POINT
  5
CA
330
17
100
AcDbEntity
  8
0
100
AcDbPoint
 10
17.313978697171574
 20
-78.09831094155551
 30
0.0
  0
POINT
  5
CB
330
17
100
AcDbEntity
  8
0
100
AcDbPoint
 10
16.692522756009126
 20
-78.53214516107475
 30
0.0
  0
POINT
  5
CC
330
17
100
AcDbEntity
  8
0
100
AcDbPoint
 10
16.064529861914824
 20
-78.95968690164398
 30
0.0
  0
POINT
  5
CD
330
17
100
AcDbEntity
  8
0
100
AcDbPoint
 10
15.430093786416444
 20
-79.3809509557072
 30
0.0
  0
POINT
  5
CE
330
17
100
AcDbEntity
  8
0
100
AcDbPoint
 10
14.78923295355248
 20
-79.79556039589896
 30
0.0
  0
POINT
  5
CF
330
17
100
AcDbEntity
  8
0
100
AcDbPoint
 10
14.142098602190247
 20
-80.20382669384254
 30
0.0
  0
POINT
  5
D0
330
17
100
AcDbEntity
  8
0
100
AcDbPoint
 10
13.488697141330324
 20
-80.60527569979193
 30
0.0
  0
POINT
  5
D1
330
17
100
AcDbEntity
  8
0
100
AcDbPoint
 10
12.828987113144786
 20
-80.99903681736448
 30
0.0
  0
POINT
  5
D2
330
17
100
AcDbEntity
  8
0
100
AcDbPoint
 10
12.163059070562298
 20
-81.38492857701611
 30
0.0
  0
POINT
  5
D3
330
17
100
AcDbEntity
  8
0
100
AcDbPoint
 10
11.491161096210108
 20
-81.76385973901273
 30
0.0
  0
POINT
  5
D4
330
17
100
AcDbEntity
  8
0
100
AcDbPoint
 10
10.813324920897186
 20
-82.13535724013808
 30
0.0
  0
POINT
  5
D5
330
17
100
AcDbEntity
  8
0
100
AcDbPoint
 10
10.129657954492455
 20
-82.49944357827505
 30
0.0
  0
POINT
  5
D6
330
17
100
AcDbEntity
  8
0
100
AcDbPoint
 10
9.44019712124778
 20
-82.85554675983971
 30
0.0
  0
POINT
  5
D7
330
17
100
AcDbEntity
  8
0
100
AcDbPoint
 10
8.745008029666788
 20
-83.20319354935279
 30
0.0
  0
POINT
  5
D8
330
17
100
AcDbEntity
  8
0
100
AcDbPoint
 10
8.044286086146144
 20
-83.54310523085812
 30
0.0
  0
POINT
  5
D9
330
17
100
AcDbEntity
  8
0
100
AcDbPoint
 10
7.3381649163818246
 20
-83.8756088005326
 30
0.0
  0
POINT
  5
DA
330
17
100
AcDbEntity
  8
0
100
AcDbPoint
 10
6.626647379264216
 20
-84.19953831536662
 30
0.0
  0
POINT
  5
DB
330
17
100
AcDbEntity
  8
0
100
AcDbPoint
 10
5.909824260781285
 20
-84.51442438925251
 30
0.0
  0
POINT
  5
DC
330
17
100
AcDbEntity
  8
0
100
AcDbPoint
 10
5.187874365402373
 20
-84.82099610249104
 30
0.0
  0
POINT
  5
DD
330
17
100
AcDbEntity
  8
0
100
AcDbPoint
 10
4.460933734301694
 20
-85.11968633910824
 30
0.0
  0
POINT
  5
DE
330
17
100
AcDbEntity
  8
0
100
AcDbPoint
 10
3.7290563213724677
 20
-85.4094317016103
 30
0.0
  0
POINT
  5
DF
330
17
100
AcDbEntity
  8
0
100
AcDbPoint
 10
2.9923840558128796
 20
-85.69066774201562
 30
0.0
  0
POINT
  5
E0
330
17
100
AcDbEntity
  8
0
100
AcDbPoint
 10
2.251015991975119
 20
-85.96283258649561
 30
0.0
  0
POINT
  5
E1
330
17
100
AcDbEntity
  8
0
100
AcDbPoint
 10
1.50509204067005
 20
-86.22666526074815
 30
0.0
  0
POINT
  5
E2
330
17
100
AcDbEntity
  8
0
100
AcDbPoint
 10
0.7547083140020175
 20
-86.4810069428587
 30
0.0
  0
POINT
  5
E3
330
17
100
AcDbEntity
  8
0
100
AcDbPoint
 10
5.3104481616106596e-15
 20
-86.7262
 30
0.0
  0
POINT
  5
E4
330
17
100
AcDbEntity
  8
0
100
AcDbPoint
 10
-0.7589118861515931
 20
-86.96268860119874
 30
0.0
  0
POINT
  5
E5
330
17
100
AcDbEntity
  8
0
100
AcDbPoint
 10
-1.5219161604755809
 20
-87.19051843887891
 30
0.0
  0
POINT
  5
E6
330
17
100
AcDbEntity
  8
0
100
AcDbPoint
 10
-2.2888940361766013
 20
-87.40933673573525
 30
0.0
  0
POINT
  5
E7
330
17
100
AcDbEntity
  8
0
100
AcDbPoint
 10
-3.0597156548010043
 20
-87.61879246458358
 30
0.0
  0
POINT
  5
E8
330
17
100
AcDbEntity
  8
0
100
AcDbPoint
 10
-3.8342531978814383
 20
-87.81883629759926
 30
0.0
  0
POINT
  5
E9
330
17
100
AcDbEntity
  8
0
100
AcDbPoint
 10
-4.612393991668762
 20
-88.00972021268797
 30
0.0
  0
POINT
  5
EA
330
17
100
AcDbEntity
  8
0
100
AcDbPoint
 10
-5.393998654287852
 20
-88.19109843588264
 30
0.0
  0
POINT
  5
EB
330
17
100
AcDbEntity
  8
0
100
AcDbPoint
 10
-6.178951712133504
 20
-88.36312625155995
 30
0.0
  0
POINT
  5
EC
330
17
100
AcDbEntity
  8
0
100
AcDbPoint
 10
-6.967144162903907
 20
-88.52596016030165
 30
0.0
  0
POINT
  5
ED
330
17
100
AcDbEntity
  8
0
100
AcDbPoint
 10
-7.758412476762491
 20
-88.67906039579138
 30
0.0
  0
POINT
  5
EE
330
17
100
AcDbEntity
  8
0
100
AcDbPoint
 10
-8.5526327883629
 20
-88.82248758775798
 30
0.0
  0
POINT
  5
EF
330
17
100
AcDbEntity
  8
0
100
AcDbPoint
 10
-9.349715642516498
 20
-88.95660216624778
 30
0.0
  0
POINT
  5
F0
330
17
100
AcDbEntity
  8
0
100
AcDbPoint
 10
-10.149471857110589
 20
-89.08077122158137
 30
0.0
  0
POINT
  5
F1
330
17
100
AcDbEntity
  8
0
100
AcDbPoint
 10
-10.951739797366205
 20
-89.19476289878675
 30
0.0
  0
POINT
  5
F2
330
17
100
AcDbEntity
  8
0
100
AcDbPoint
 10
-11.756428870163939
 20
-89.29894294150841
 30
0.0
  0
POINT
  5
F3
330
17
100
AcDbEntity
  8
0
100
AcDbPoint
 10
-12.563434169867019
 20
-89.39347910143903
 30
0.0
  0
POINT
  5
F4
330
17
100
AcDbEntity
  8
0
100
AcDbPoint
 10
-13.372494796189232
 20
-89.47745197738864
 30
0.0
  0
POINT
  5
F5
330
17
100
AcDbEntity
  8
0
100
AcDbPoint
 10
-14.183506215588624
 20
-89.5511338520756
 30
0.0
  0
POINT
  5
F6
330
17
100
AcDbEntity
  8
0
100
AcDbPoint
 10
-14.996456535149383
 20
-89.615290555515
 30
0.0
  0
POINT
  5
F7
330
17
100
AcDbEntity
  8
0
100
AcDbPoint
 10
-15.811065967382639
 20
-89.66901096959347
 30
0.0
  0
POINT
  5
F8
330
17
100
AcDbEntity
  8
0
100
AcDbPoint
 10
-16.62720579300864
 20
-89.71237441711673
 30
0.0
  0
POINT
  5
F9
330
17
100
AcDbEntity
  8
0
100
AcDbPoint
 10
-17.44486504949691
 20
-89.74605054844945
 30
0.0
  0
POINT
  5
FA
330
17
100
AcDbEntity
  8
0
100
AcDbPoint
 10
-18.263917040818445
 20
-89.77002025808004
 30
0.0
  0
POINT
  5
FB
330
17
100
AcDbEntity
  8
0
100
AcDbPoint
 10
-19.08411014431672
 20
-89.78367919755566
 30
0.0
  0
POINT
  5
FC
330
17
100
AcDbEntity
  8
0
100
AcDbPoint
 10
-19.905410194852468
 20
-89.78750303480247
 30
0.0
  0
POINT
  5
FD
330
17
100
AcDbEntity
  8
0
100
AcDbPoint
 10
-20.727575019985018
 20
-89.78099113148002
 30
0.0
  0
POINT
  5
FE
330
17
100
AcDbEntity
  8
0
100
AcDbPoint
 10
-21.550602142503443
 20
-89.76471814947968
 30
0.0
  0
POINT
  5
FF
330
17
100
AcDbEntity
  8
0
100
AcDbPoint
 10
-22.374291667672637
 20
-89.73838242207131
 30
0.0
  0
POINT
  5
100
330
17
100
AcDbEntity
  8
0
100
AcDbPoint
 10
-23.198408439655346
 20
-89.70158969442474
 30
0.0
  0
POINT
  5
101
330
17
100
AcDbEntity
  8
0
100
AcDbPoint
 10
-24.0228590730897
 20
-89.65453060383771
 30
0.0
  0
POINT
  5
102
330
17
100
AcDbEntity
  8
0
100
AcDbPoint
 10
-24.847583693217853
 20
-89.59749227192988
 30
0.0
  0
POINT
  5
103
330
17
100
AcDbEntity
  8
0
100
AcDbPoint
 10
-25.672339609819243
 20
-89.53008796247275
 30
0.0
  0
POINT
  5
104
330
17
100
AcDbEntity
  8
0
100
AcDbPoint
 10
-26.49692756880776
 20
-89.4521283447932
 30
0.0
  0
POINT
  5
105
330
17
100
AcDbEntity
  8
0
100
AcDbPoint
 10
-27.321375639907462
 20
-89.36419305238017
 30
0.0
  0
POINT
  5
106
330
17
100
AcDbEntity
  8
0
100
AcDbPoint
 10
-28.145551633740805
 20
-89.26628527121777
 30
0.0
  0
POINT
  5
107
330
17
100
AcDbEntity
  8
0
100
AcDbPoint
 10
-28.96916895807269
 20
-89.15793438790874
 30
0.0
  0
POINT
  5
108
330
17
100
AcDbEntity
  8
0
100
AcDbPoint
 10
-29.792210146858718
 20
-89.03953047279288
 30
0.0
  0
POINT
  5
109
330
17
100
AcDbEntity
  8
0
100
AcDbPoint
 10
-30.61431305214704
 20
-88.91042097861836
 30
0.0
  0
POINT
  5
10A
330
17
100
AcDbEntity
  8
0
100
AcDbPoint
 10
-31.435493212564143
 20
-88.77109434817638
 30
0.0
  0
POINT
  5
10B
330
17
100
AcDbEntity
  8
0
100
AcDbPoint
 10
-32.255817111000816
 20
-88.62212915853279
 30
0.0
  0
POINT
  5
10C
330
17
100
AcDbEntity
  8
0
100
AcDbPoint
 10
-33.0754762060029
 20
-88.46437958244063
 30
0.0
  0
POINT
  5
10D
330
17
100
AcDbEntity
  8
0
100
AcDbPoint
 10
-33.893222216966045
 20
-88.29486256465525
 30
0.0
  0
POINT
  5
10E
330
17
100
AcDbEntity
  8
0
100
AcDbPoint
 10
-34.70957197716991
 20
-88.11538185925123
 30
0.0
  0
POINT
  5
10F
330
17
100
AcDbEntity
  8
0
100
AcDbPoint
 10
-35.52472992747711
 20
-87.92679201466304
 30
0.0
  0
POINT
  5
110
330
17
100
AcDbEntity
  8
0
100
AcDbPoint
 10
-36.338317613718885
 20
-87.72845921686125
 30
0.0
  0
POINT
  5
111
330
17
100
AcDbEntity
  8
0
100
AcDbPoint
 10
-37.15016867318027
 20
-87.52031275946318
 30
0.0
  0
POINT
  5
112
330
17
100
AcDbEntity
  8
0
100
AcDbPoint
 10
-37.960034113731794
 20
-87.30210154930016
 30
0.0
  0
POINT
  5
113
330
17
100
AcDbEntity
  8
0
100
AcDbPoint
 10
-38.76785909278406
 20
-87.07403716792992
 30
0.0
  0
POINT
  5
114
330
17
100
AcDbEntity
  8
0
100
AcDbPoint
 10
-39.5736785147937
 20
-86.83651212622347
 30
0.0
  0
POINT
  5
115
330
17
100
AcDbEntity
  8
0
100
AcDbPoint
 10
-40.37707551218494
 20
-86.58891786581766
 30
0.0
  0
POINT
  5
116
330
17
100
AcDbEntity
  8
0
100
AcDbPoint
 10
-41.178085051945644
 20
-86.33165063836513
 30
0.0
  0
POINT
  5
117
330
17
100
AcDbEntity
  8
0
100
AcDbPoint
 10
-41.97653602059086
 20
-86.06465305920914
 30
0.0
  0
POINT
  5
118
330
17
100
AcDbEntity
  8
0
100
AcDbPoint
 10
-42.77243312514366
 20
-85.7882289162978
 30
0.0
  0
POINT
  5
119
330
17
100
AcDbEntity
  8
0
100
AcDbPoint
 10
-43.56560934075652
 20
-85.50232257090207
 30
0.0
  0
POINT
  5
11A
330
17
100
AcDbEntity
  8
0
100
AcDbPoint
 10
-44.35594118624793
 20
-85.20697024376653
 30
0.0
  0
POINT
  5
11B
330
17
100
AcDbEntity
  8
0
100
AcDbPoint
 10
-45.14349348152197
 20
-84.90256292888797
 30
0.0
  0
POINT
  5
11C
330
17
100
AcDbEntity
  8
0
100
AcDbPoint
 10
-45.92810529889617
 20
-84.58904719018595
 30
0.0
  0
POINT
  5
11D
330
17
100
AcDbEntity
  8
0
100
AcDbPoint
 10
-46.709225267443465
 20
-84.26567299419867
 30
0.0
  0
POINT
  5
11E
330
17
100
AcDbEntity
  8
0
100
AcDbPoint
 10
-47.4871614727139
 20
-83.93327375138179
 30
0.0
  0
POINT
  5
11F
330
17
100
AcDbEntity
  8
0
100
AcDbPoint
 10
-48.26169999999998
 20
-83.5917164596469
 30
0.0
  0
POINT
  5
120
330
17
100
AcDbEntity
  8
0
100
AcDbPoint
 10
-49.0325199380892
 20
-83.24070074651513
 30
0.0
  0
POINT
  5
121
330
17
100
AcDbEntity
  8
0
100
AcDbPoint
 10
-49.79980402016551
 20
-82.88079205583828
 30
0.0
  0
POINT
  5
122
330
17
100
AcDbEntity
  8
0
100
AcDbPoint
 10
-50.56333560440474
 20
-82.51186451290708
 30
0.0
  0
POINT
  5
123
330
17
100
AcDbEntity
  8
0
100
AcDbPoint
 10
-51.322945700618
 20
-82.13388213679794
 30
0.0
  0
POINT
  5
124
330
17
100
AcDbEntity
  8
0
100
AcDbPoint
 10
-52.07862421838927
 20
-81.74706531172724
 30
0.0
  0
POINT
  5
125
330
17
100
AcDbEntity
  8
0
100
AcDbPoint
 10
-52.83004086036113
 20
-81.35112895776292
 30
0.0
  0
POINT
  5
126
330
17
100
AcDbEntity
  8
0
100
AcDbPoint
 10
-53.5770751012268
 20
-80.94613063388208
 30
0.0
  0
POINT
  5
127
330
17
100
AcDbEntity
  8
0
100
AcDbPoint
 10
-54.319942723857984
 20
-80.5326268942395
 30
0.0
  0
POINT
  5
128
330
17
100
AcDbEntity
  8
0
100
AcDbPoint
 10
-55.058707713375895
 20
-80.11091682999916
 30
0.0
  0
POINT
  5
129
330
17
100
AcDbEntity
  8
0
100
AcDbPoint
 10
-55.79315654731351
 20
-79.68088531289652
 30
0.0
  0
POINT
  5
12A
330
17
100
AcDbEntity
  8
0
100
AcDbPoint
 10
-56.522954475306605
 20
-79.24225962541966
 30
0.0
  0
POINT
  5
12B
330
17
100
AcDbEntity
  8
0
100
AcDbPoint
 10
-57.24804998932816
 20
-78.79518098754126
 30
0.0
  0
POINT
  5
12C
330
17
100
AcDbEntity
  8
0
100
AcDbPoint
 10
-57.96857364740929
 20
-78.34003112282304
 30
0.0
  0
POINT
  5
12D
330
17
100
AcDbEntity
  8
0
100
AcDbPoint
 10
-58.684246719104856
 20
-77.87662571928261
 30
0.0
  0
POINT
  5
12E
330
17
100
AcDbEntity
  8
0
100
AcDbPoint
 10
-59.39502634409385
 20
-77.40510535219495
 30
0.0
  0
POINT
  5
12F
330
17
100
AcDbEntity
  8
0
100
AcDbPoint
 10
-60.100750088995696
 20
-76.92545216493748
 30
0.0
  0
POINT
  5
130
330
17
100
AcDbEntity
  8
0
100
AcDbPoint
 10
-60.8015025721056
 20
-76.43796476630077
 30
0.0
  0
POINT
  5
131
330
17
100
AcDbEntity
  8
0
100
AcDbPoint
 10
-61.49699981727278
 20
-75.94247020978676
 30
0.0
  0
POINT
  5
132
330
17
100
AcDbEntity
  8
0
100
AcDbPoint
 10
-62.18720493060805
 20
-75.43911199423385
 30
0.0
  0
POINT
  5
133
330
17
100
AcDbEntity
  8
0
100
AcDbPoint
 10
-62.872084563615914
 20
-74.92803265257623
 30
0.0
  0
POINT
  5
134
330
17
100
AcDbEntity
  8
0
100
AcDbPoint
 10
-63.551543934935616
 20
-74.40929764200135
 30
0.0
  0
POINT
  5
135
330
17
100
AcDbEntity
  8
0
100
AcDbPoint
 10
-64.22562030795758
 20
-73.88312453644652
 30
0.0
  0
POINT
  5
136
330
17
100
AcDbEntity
  8
0
100
AcDbPoint
 10
-64.89468835208058
 20
-73.3501019490521
 30
0.0
  0
POINT
  5
137
330
17
100
AcDbEntity
  8
0
100
AcDbPoint
 10
-65.55840572331232
 20
-72.80998584856044
 30
0.0
  0
POINT
  5
138
330
17
100
AcDbEntity
  8
0
100
AcDbPoint
 10
-66.21648790099218
 20
-72.26261615730333
 30
0.0
  0
POINT
  5
139
330
17
100
AcDbEntity
  8
0
100
AcDbPoint
 10
-66.86871160707986
 20
-71.70791400709676
 30
0.0
  0
POINT
  5
13A
330
17
100
AcDbEntity
  8
0
100
AcDbPoint
 10
-67.51539999956746
 20
-71.14638666993851
 30
0.0
  0
POINT
  5
13B
330
17
100
AcDbEntity
  8
0
100
AcDbPoint
 10
-68.15612815423634
 20
-70.57773677430662
 30
0.0
  0
POINT
  5
13C
330
17
100
AcDbEntity
  8
0
100
AcDbPoint
 10
-68.79073974470886
 20
-70.00196533223715
 30
0.0
  0
POINT
  5
13D
330
17
100
AcDbEntity
  8
0
100
AcDbPoint
 10
-69.41978397892058
 20
-69.41978397892059
 30
0.0
  0
POINT
  5
13E
330
17
100
AcDbEntity
  8
0
100
AcDbPoint
 10
-70.04283458297368
 20
-68.83090184555327
 30
0.0
  0
POINT
  5
13F
330
17
100
AcDbEntity
  8
0
100
AcDbPoint
 10
-70.65959764358517
 20
-68.23518027679455
 30
0.0
  0
POINT
  5
140
330
17
100
AcDbEntity
  8
0
100
AcDbPoint
 10
-71.2701355376332
 20
-67.63283329018083
 30
0.0
  0
POINT
  5
141
330
17
100
AcDbEntity
  8
0
100
AcDbPoint
 10
-71.87444324495544
 20
-67.0240026336661
 30
0.0
  0
POINT
  5
142
330
17
100
AcDbEntity
  8
0
100
AcDbPoint
 10
-72.4727401982942
 20
-66.40903111016266
 30
0.0
  0
POINT
  5
143
330
17
100
AcDbEntity
  8
0
100
AcDbPoint
 10
-73.06481020921663
 20
-65.78785060823277
 30
0.0
  0
POINT
  5
144
330
17
100
AcDbEntity
  8
0
100
AcDbPoint
 10
-73.65065787980474
 20
-65.16059777742954
 30
0.0
  0
POINT
  5
145
330
17
100
AcDbEntity
  8
0
100
AcDbPoint
 10
-74.23036641430701
 20
-64.52747306719613
 30
0.0
  0
POINT
  5
146
330
17
100
AcDbEntity
  8
0
100
AcDbPoint
 10
-74.80356813516497
 20
-63.88828274799483
 30
0.0
  0
POINT
  5
147
330
17
100
AcDbEntity
  8
0
100
AcDbPoint
 10
-75.37042331847742
 20
-63.2432944082099
 30
0.0
  0
POINT
  5
148
330
17
100
AcDbEntity
  8
0
100
AcDbPoint
 10
-75.93079117876852
 20
-62.59251397256901
 30
0.0
  0
POINT
  5
149
330
17
100
AcDbEntity
  8
0
100
AcDbPoint
 10
-76.48429637411456
 20
-61.93576199391274
 30
0.0
  0
POINT
  5
14A
330
17
100
AcDbEntity
  8
0
100
AcDbPoint
 10
-77.03141653164194
 20
-61.27355542106793
 30
0.0
  0
POINT
  5
14B
330
17
100
AcDbEntity
  8
0
100
AcDbPoint
 10
-77.57185738612107
 20
-60.60577719720535
 30
0.0
  0
POINT
  5
14C
330
17
100
AcDbEntity
  8
0
100
AcDbPoint
 10
-78.10563635167208
 20
-59.932562685908565
 30
0.0
  0
POINT
  5
14D
330
17
100
AcDbEntity
  8
0
100
AcDbPoint
 10
-78.63253422954239
 20
-59.253864638518245
 30
0.0
  0
POINT
  5
14E
330
17
100
AcDbEntity
  8
0
100
AcDbPoint
 10
-79.15232848047673
 20
-58.56964207342154
 30
0.0
  0
POINT
  5
14F
330
17
100
AcDbEntity
  8
0
100
AcDbPoint
 10
-79.66544056839038
 20
-57.8803305852192
 30
0.0
  0
POINT
  5
150
330
17
100
AcDbEntity
  8
0
100
AcDbPoint
 10
-80.17189813583074
 20
-57.18605918043294
 30
0.0
  0
POINT
  5
151
330
17
100
AcDbEntity
  8
0
100
AcDbPoint
 10
-80.6717316256685
 20
-56.48695460472371
 30
0.0
  0
POINT
  5
152
330
17
100
AcDbEntity
  8
0
100
AcDbPoint
 10
-81.1652214631033
 20
-55.78331121227386
 30
0.0
  0
POINT
  5
153
330
17
100
AcDbEntity
  8
0
100
AcDbPoint
 10
-81.65191052094606
 20
-55.07490906283387
 30
0.0
  0
POINT
  5
154
330
17
100
AcDbEntity
  8
0
100
AcDbPoint
 10
-82.13166610711497
 20
-54.36176391324496
 30
0.0
  0
POINT
  5
155
330
17
100
AcDbEntity
  8
0
100
AcDbPoint
 10
-82.60452212155735
 20
-53.6440038981911
 30
0.0
  0
POINT
  5
156
330
17
100
AcDbEntity
  8
0
100
AcDbPoint
 10
-83.07043082935225
 20
-52.92170103384625
 30
0.0
  0
POINT
  5
157
330
17
100
AcDbEntity
  8
0
100
AcDbPoint
 10
-83.52909086459448
 20
-52.19476887413448
 30
0.0
  0
POINT
  5
158
330
17
100
AcDbEntity
  8
0
100
AcDbPoint
 10
-83.98113404412204
 20
-51.46370513112327
 30
0.0
  0
POINT
  5
159
330
17
100
AcDbEntity
  8
0
100
AcDbPoint
 10
-84.42635041573425
 20
-50.72846917303584
 30
0.0
  0
POINT
  5
15A
330
17
100
AcDbEntity
  8
0
100
AcDbPoint
 10
-84.86461322519929
 20
-49.98907749076121
 30
0.0
  0
POINT
  5
15B
330
17
100
AcDbEntity
  8
0
100
AcDbPoint
 10
-85.2958812492139
 20
-49.24559999999999
 30
0.0
  0
POINT
  5
15C
330
17
100
AcDbEntity
  8
0
100
AcDbPoint
 10
-85.71993992400722
 20
-48.49800855689431
 30
0.0
  0
POINT
  5
15D
330
17
100
AcDbEntity
  8
0
100
AcDbPoint
 10
-86.1370093195941
 20
-47.74652393092254
 30
0.0
  0
POINT
  5
15E
330
17
100
AcDbEntity
  8
0
100
AcDbPoint
 10
-86.54713959890807
 20
-46.991262732630624
 30
0.0
  0
POINT
  5
15F
330
17
100
AcDbEntity
  8
0
100
AcDbPoint
 10
-86.9502949862464
 20
-46.232291929934995
 30
0.0
  0
POINT
  5
160
330
17
100
AcDbEntity
  8
0
100
AcDbPoint
 10
-87.3464403733924
 20
-45.46967884137085
 30
0.0
  0
POINT
  5
161
330
17
100
AcDbEntity
  8
0
100
AcDbPoint
 10
-87.73518492051811
 20
-44.703309533103834
 30
0.0
  0
POINT
  5
162
330
17
100
AcDbEntity
  8
0
100
AcDbPoint
 10
-88.11684812518627
 20
-43.93343983485539
 30
0.0
  0
POINT
  5
163
330
17
100
AcDbEntity
  8
0
100
AcDbPoint
 10
-88.49148686362153
 20
-43.160181954036034
 30
0.0
  0
POINT
  5
164
330
17
100
AcDbEntity
  8
0
100
AcDbPoint
 10
-88.85897969307317
 20
-42.38355917411857
 30
0.0
  0
POINT
  5
165
330
17
100
AcDbEntity
  8
0
100
AcDbPoint
 10
-89.2192043253554
 20
-41.60359823140881
 30
0.0
  0
POINT
  5
166
330
17
100
AcDbEntity
  8
0
100
AcDbPoint
 10
-89.57203769873253
 20
-40.820329340866905
 30
0.0
  0
POINT
  5
167
330
17
100
AcDbEntity
  8
0
100
AcDbPoint
 10
-89.91790417757133
 20
-40.03403026267904
 30
0.0
  0
POINT
  5
168
330
17
100
AcDbEntity
  8
0
100
AcDbPoint
 10
-90.25668569695415
 20
-39.244723863995155
 30
0.0
  0
POINT
  5
169
330
17
100
AcDbEntity
  8
0
100
AcDbPoint
 10
-90.58807928456415
 20
-38.45235830509647
 30
0.0
  0
POINT
  5
16A
330
17
100
AcDbEntity
  8
0
100
AcDbPoint
 10
-90.9120556979419
 20
-37.65700645330576
 30
0.0
  0
POINT
  5
16B
330
17
100
AcDbEntity
  8
0
100
AcDbPoint
 10
-91.22877187593173
 20
-36.85881638860922
 30
0.0
  0
POINT
  5
16C
330
17
100
AcDbEntity
  8
0
100
AcDbPoint
 10
-91.5382020083435
 20
-36.05785669004325
 30
0.0
  0
POINT
  5
16D
330
17
100
AcDbEntity
  8
0
100
AcDbPoint
 10
-91.84078774057691
 20
-35.254375362929
 30
0.0
  0
POINT
  5
16E
330
17
100
AcDbEntity
  8
0
100
AcDbPoint
 10
-92.13613456429432
 20
-34.44828914054003
 30
0.0
  0
POINT
  5
16F
330
17
100
AcDbEntity
  8
0
100
AcDbPoint
 10
-92.42421947149464
 20
-33.63966481291082
 30
0.0
  0
POINT
  5
170
330
17
100
AcDbEntity
  8
0
100
AcDbPoint
 10
-92.70454876220582
 20
-32.82840247477485
 30
0.0
  0
POINT
  5
171
330
17
100
AcDbEntity
  8
0
100
AcDbPoint
 10
-92.97756913155882
 20
-32.01474446854449
 30
0.0
  0
POINT
  5
172
330
17
100
AcDbEntity
  8
0
100
AcDbPoint
 10
-93.24306990685986
 20
-31.19869476683992
 30
0.0
  0
POINT
  5
173
330
17
100
AcDbEntity
  8
0
100
AcDbPoint
 10
-93.50159970913195
 20
-30.380511374781964
 30
0.0
  0
POINT
  5
174
330
17
100
AcDbEntity
  8
0
100
AcDbPoint
 10
-93.75276055092758
 20
-29.560131855768834
 30
0.0
  0
POINT
  5
175
330
17
100
AcDbEntity
  8
0
100
AcDbPoint
 10
-93.9967245512163
 20
-28.737682651925336
 30
0.0
  0
POINT
  5
176
330
17
100
AcDbEntity
  8
0
100
AcDbPoint
 10
-94.2336664806074
 20
-27.913283691311747
 30
0.0
  0
POINT
  5
177
330
17
100
AcDbEntity
  8
0
100
AcDbPoint
 10
-94.46347523836737
 20
-27.086965647343256
 30
0.0
  0
POINT
  5
178
330
17
100
AcDbEntity
  8
0
100
AcDbPoint
 10
-94.68594288009801
 20
-26.258735938099104
 30
0.0
  0
POINT
  5
179
330
17
100
AcDbEntity
  8
0
100
AcDbPoint
 10
-94.90240561806621
 20
-25.429022945131713
 30
0.0
  0
POINT
  5
17A
330
17
100
AcDbEntity
  8
0
100
AcDbPoint
 10
-95.11266367126203
 20
-24.59780732031602
 30
0.0
  0
POINT
  5
17B
330
17
100
AcDbEntity
  8
0
100
AcDbPoint
 10
-95.31476899055207
 20
-23.764640993873478
 30
0.0
  0
POINT
  5
17C
330
17
100
AcDbEntity
  8
0
100
AcDbPoint
 10
-95.51220227496626
 20
-22.93045099918295
 30
0.0
  0
POINT
  5
17D
330
17
100
AcDbEntity
  8
0
100
AcDbPoint
 10
-95.70058158606975
 20
-22.09422016044032
 30
0.0
  0
POINT
  5
17E
330
17
100
AcDbEntity
  8
0
100
AcDbPoint
 10
-95.87939486002944
 20
-21.255950097903437
 30
0.0
  0
POINT
  5
17F
330
17
100
AcDbEntity
  8
0
100
AcDbPoint
 10
-96.05135557877767
 20
-20.416345885569676
 30
0.0
  0
POINT
  5
180
330
17
100
AcDbEntity
  8
0
100
AcDbPoint
 10
-96.21694488978046
 20
-19.575558681349204
 30
0.0
  0
POINT
  5
181
330
17
100
AcDbEntity
  8
0
100
AcDbPoint
 10
-96.3753715691449
 20
-18.733474518872885
 30
0.0
  0
POINT
  5
182
330
17
100
AcDbEntity
  8
0
100
AcDbPoint
 10
-96.52642925202568
 20
-17.890116208221787
 30
0.0
  0
POINT
  5
183
330
17
100
AcDbEntity
  8
0
100
AcDbPoint
 10
-96.67060017040906
 20
-17.045635051323444
 30
0.0
  0
POINT
  5
184
330
17
100
AcDbEntity
  8
0
100
AcDbPoint
 10
-96.8074824190448
 20
-16.20001668660661
 30
0.0
  0
POINT
  5
185
330
17
100
AcDbEntity
  8
0
100
AcDbPoint
 10
-96.93726480071415
 20
-15.353354432052495
 30
0.0
  0
POINT
  5
186
330
17
100
AcDbEntity
  8
0
100
AcDbPoint
 10
-97.0600387986118
 20
-14.505719989437749
 30
0.0
  0
POINT
  5
187
330
17
100
AcDbEntity
  8
0
100
AcDbPoint
 10
-97.17589682687216
 20
-13.657181653002073
 30
0.0
  0
POINT
  5
188
330
17
100
AcDbEntity
  8
0
100
AcDbPoint
 10
-97.28443643295762
 20
-12.807739032781118
 30
0.0
  0
POINT
  5
189
330
17
100
AcDbEntity
  8
0
100
AcDbPoint
 10
-97.38614703366741
 20
-11.957515301554565
 30
0.0
  0
POINT
  5
18A
330
17
100
AcDbEntity
  8
0
100
AcDbPoint
 10
-97.48102383258464
 20
-11.10655974823275
 30
0.0
  0
POINT
  5
18B
330
17
100
AcDbEntity
  8
0
100
AcDbPoint
 10
-97.5687639713789
 20
-10.254890323029091
 30
0.0
  0
POINT
  5
18C
330
17
100
AcDbEntity
  8
0
100
AcDbPoint
 10
-97.64926291639877
 20
-9.402554583411234
 30
0.0
  0
POINT
  5
18D
330
17
100
AcDbEntity
  8
0
100
AcDbPoint
 10
-97.72251586506825
 20
-8.54961230942573
 30
0.0
  0
POINT
  5
18E
330
17
100
AcDbEntity
  8
0
100
AcDbPoint
 10
-97.79051232615035
 20
-7.696280231321934
 30
0.0
  0
POINT
  5
18F
330
17
100
AcDbEntity
  8
0
100
AcDbPoint
 10
-97.8535516001118
 20
-6.8425869007456335
 30
0.0
  0
POINT
  5
190
330
17
100
AcDbEntity
  8
0
100
AcDbPoint
 10
-97.90963752767684
 20
-5.98840996917689
 30
0.0
  0
POINT
  5
191
330
17
100
AcDbEntity
  8
0
100
AcDbPoint
 10
-97.95806763791303
 20
-5.133764787760965
 30
0.0
  0
POINT
  5
192
330
17
100
AcDbEntity
  8
0
100
AcDbPoint
 10
-97.99913767551838
 20
-4.278734755134228
 30
0.0
  0
POINT
  5
193
330
17
100
AcDbEntity
  8
0
100
AcDbPoint
 10
-98.03274469937065
 20
-3.4233788802900933
 30
0.0
  0
POINT
  5
194
330
17
100
AcDbEntity
  8
0
100
AcDbPoint
 10
-98.05888615016485
 20
-2.567762301890074
 30
0.0
  0
POINT
  5
195
330
17
100
AcDbEntity
  8
0
100
AcDbPoint
 10
-98.07746005235879
 20
-1.711948433208582
 30
0.0
  0
POINT
  5
196
330
17
100
AcDbEntity
  8
0
100
AcDbPoint
 10
-98.08866494197991
 20
-0.8560068107206977
 30
0.0
  0
POINT
  5
197
330
17
100
AcDbEntity
  8
0
100
AcDbPoint
 10
-98.0924
 20
-1.2012854368068183e-14
 30
0.0
  0
POINT
  5
198
330
17
100
AcDbEntity
  8
0
100
AcDbPoint
 10
-98.08866494197991
 20
0.8560068107206735
 30
0.0
  0
POINT
  5
199
330
17
100
AcDbEntity
  8
0
100
AcDbPoint
 10
-98.07746005235879
 20
1.7119484332086015
 30
0.0
  0
POINT
  5
19A
330
17
100
AcDbEntity
  8
0
100
AcDbPoint
 10
-98.05878618443235
 20
2.567759684195219
 30
0.0
  0
POINT
  5
19B
330
17
100
AcDbEntity
  8
0
100
AcDbPoint
 10
-98.03254482120524
 20
3.423371900390729
 30
0.0
  0
POINT
  5
19C
330
17
100
AcDbEntity
  8
0
100
AcDbPoint
 10
-97.99853824658544
 20
4.2787085835017855
 30
0.0
  0
POINT
  5
19D
330
17
100
AcDbEntity
  8
0
100
AcDbPoint
 10
-97.95726873428524
 20
5.1337229189959475
 30
0.0
  0
POINT
  5
19E
330
17
100
AcDbEntity
  8
0
100
AcDbPoint
 10
-97.90873920635825
 20
5.988355025491327
 30
0.0
  0
POINT
  5
19F
330
17
100
AcDbEntity
  8
0
100
AcDbPoint
 10
-97.8527535488716
 20
6.842531095566613
 30
0.0
  0
POINT
  5
1A0
330
17
100
AcDbEntity
  8
0
100
AcDbPoint
 10
-97.78931602534988
 20
7.696186080407036
 30
0.0
  0
POINT
  5
1A1
330
17
100
AcDbEntity
  8
0
100
AcDbPoint
 10
-97.71843146680608
 20
8.549254970880439
 30
0.0
  0
POINT
  5
1A2
330
17
100
AcDbEntity
  8
0
100
AcDbPoint
 10
-97.64000573175394
 20
9.401663217912814
 30
0.0
  0
POINT
  5
1A3
330
17
100
AcDbEntity
  8
0
100
AcDbPoint
 10
-97.55434340389606
 20
10.253374660311687
 30
0.0
  0
POINT
  5
1A4
330
17
100
AcDbEntity
  8
0
100
AcDbPoint
 10
-97.46115239547112
 20
11.104295683957368
 30
0.0
  0
POINT
  5
1A5
330
17
100
AcDbEntity
  8
0
100
AcDbPoint
 10
-97.36053934295508
 20
11.95437107249469
 30
0.0
  0
POINT
  5
1A6
330
17
100
AcDbEntity
  8
0
100
AcDbPoint
 10
-97.25251190842141
 20
12.803536089391608
 30
0.0
  0
POINT
  5
1A7
330
17
100
AcDbEntity
  8
0
100
AcDbPoint
 10
-97.1370783185775
 20
13.651726067444459
 30
0.0
  0
POINT
  5
1A8
330
17
100
AcDbEntity
  8
0
100
AcDbPoint
 10
-97.0141484625518
 20
14.498861632761312
 30
0.0
  0
POINT
  5
1A9
330
17
100
AcDbEntity
  8
0
100
AcDbPoint
 10
-96.88699146417785
 20
15.34539191778192
 30
0.0
  0
POINT
  5
1AA
330
17
100
AcDbEntity
  8
0
100
AcDbPoint
 10
-96.7542229965618
 20
16.191104115890113
 30
0.0
  0
POINT
  5
1AB
330
17
100
AcDbEntity
  8
0
100
AcDbPoint
 10
-96.61426916693678
 20
17.035702375560916
 30
0.0
  0
POINT
  5
1AC
330
17
100
AcDbEntity
  8
0
100
AcDbPoint
 10
-96.46763060855338
 20
17.879218523797334
 30
0.0
  0
POINT
  5
1AD
330
17
100
AcDbEntity
  8
0
100
AcDbPoint
 10
-96.3142161956161
 20
18.7215871184609
 30
0.0
  0
POINT
  5
1AE
330
17
100
AcDbEntity
  8
0
100
AcDbPoint
 10
-96.15373974633245
 20
19.56269944957927
 30
0.0
  0
POINT
  5
1AF
330
17
100
AcDbEntity
  8
0
100
AcDbPoint
 10
-95.98640657808892
 20
20.402540549299392
 30
0.0
  0
POINT
  5
1B0
330
17
100
AcDbEntity
  8
0
100
AcDbPoint
 10
-95.81193280593745
 20
21.240994120580332
 30
0.0
  0
POINT
  5
1B1
330
17
100
AcDbEntity
  8
0
100
AcDbPoint
 10
-95.63052437841169
 20
22.07804617963297
 30
0.0
  0
POINT
  5
1B2
330
17
100
AcDbEntity
  8
0
100
AcDbPoint
 10
-95.44199716671355
 20
22.913596243912526
 30
0.0
  0
POINT
  5
1B3
330
17
100
AcDbEntity
  8
0
100
AcDbPoint
 10
-95.24675126014013
 20
23.74768226899192
 30
0.0
  0
POINT
  5
1B4
330
17
100
AcDbEntity
  8
0
100
AcDbPoint
 10
-95.04450607737941
 20
24.58018056803061
 30
0.0
  0
POINT
  5
1B5
330
17
100
AcDbEntity
  8
0
100
AcDbPoint
 10
-94.83508058797386
 20
25.41098325768804
 30
0.0
  0
POINT
  5
1B6
330
17
100
AcDbEntity
  8
0
100
AcDbPoint
 10
-94.61848874837341
 20
26.240029251773603
 30
0.0
  0
POINT
  5
1B7
330
17
100
AcDbEntity
  8
0
100
AcDbPoint
 10
-94.3946489009382
 20
27.06723001266674
 30
0.0
  0
POINT
  5
1B8
330
17
100
AcDbEntity
  8
0
100
AcDbPoint
 10
-94.16396028588248
 20
27.89263577575179
 30
0.0
  0
POINT
  5
1B9
330
17
100
AcDbEntity
  8
0
100
AcDbPoint
 10
-93.92614926022623
 20
28.716105620116814
 30
0.0
  0
POINT
  5
1BA
330
17
100
AcDbEntity
  8
0
100
AcDbPoint
 10
-93.68113640792637
 20
29.537548850226027
 30
0.0
  0
POINT
  5
1BB
330
17
100
AcDbEntity
  8
0
100
AcDbPoint
 10
-93.42865367433212
 20
30.356809771313383
 30
0.0
  0
POINT
  5
1BC
330
17
100
AcDbEntity
  8
0
100
AcDbPoint
 10
-93.16938515885035
 20
31.17404019503722
 30
0.0
  0
POINT
  5
1BD
330
17
100
AcDbEntity
  8
0
100
AcDbPoint
 10
-92.90287316408647
 20
31.989024584342395
 30
0.0
  0
POINT
  5
1BE
330
17
100
AcDbEntity
  8
0
100
AcDbPoint
 10
-92.6295144995149
 20
32.801831448779815
 30
0.0
  0
POINT
  5
1BF
330
17
100
AcDbEntity
  8
0
100
AcDbPoint
 10
-92.34904406183178
 20
33.612303201444746
 30
0.0
  0
POINT
  5
1C0
330
17
100
AcDbEntity
  8
0
100
AcDbPoint
 10
-92.06166912524908
 20
34.42044765372987
 30
0.0
  0
POINT
  5
1C1
330
17
100
AcDbEntity
  8
0
100
AcDbPoint
 10
-91.76703488688365
 20
35.22606429491494
 30
0.0
  0
POINT
  5
1C2
330
17
100
AcDbEntity
  8
0
100
AcDbPoint
 10
-91.46553639628411
 20
36.02923294423611
 30
0.0
  0
POINT
  5
1C3
330
17
100
AcDbEntity
  8
0
100
AcDbPoint
 10
-91.1573787191301
 20
36.829971680916174
 30
0.0
  0
POINT
  5
1C4
330
17
100
AcDbEntity
  8
0
100
AcDbPoint
 10
-90.84221040528405
 20
37.628075585818934
 30
0.0
  0
POINT
  5
1C5
330
17
100
AcDbEntity
  8
0
100
AcDbPoint
 10
-90.51986987492332
 20
38.42340512847539
 30
0.0
  0
POINT
  5
1C6
330
17
100
AcDbEntity
  8
0
100
AcDbPoint
 10
-90.19056566559098
 20
39.21597405612566
 30
0.0
  0
POINT
  5
1C7
330
17
100
AcDbEntity
  8
0
100
AcDbPoint
 10
-89.85404735008211
 20
40.00559937132802
 30
0.0
  0
POINT
  5
1C8
330
17
100
AcDbEntity
  8
0
100
AcDbPoint
 10
-89.51070630907545
 20
40.79237901631185
 30
0.0
  0
POINT
  5
1C9
330
17
100
AcDbEntity
  8
0
100
AcDbPoint
 10
-89.16038494997674
 20
41.57617030622182
 30
0.0
  0
POINT
  5
1CA
330
17
100
AcDbEntity
  8
0
100
AcDbPoint
 10
-88.8028388883866
 20
42.356781383897115
 30
0.0
  0
POINT
  5
1CB
330
17
100
AcDbEntity
  8
0
100
AcDbPoint
 10
-88.43827825608061
 20
43.13423038214614
 30
0.0
  0
POINT
  5
1CC
330
17
100
AcDbEntity
  8
0
100
AcDbPoint
 10
-88.06646332062807
 20
43.90831889797728
 30
0.0
  0
POINT
  5
1CD
330
17
100
AcDbEntity
  8
0
100
AcDbPoint
 10
-87.68787247408372
 20
44.67920263756764
 30
0.0
  0
POINT
  5
1CE
330
17
100
AcDbEntity
  8
0
100
AcDbPoint
 10
-87.30200113065017
 20
45.44654523584774
 30
0.0
  0
POINT
  5
1CF
330
17
100
AcDbEntity
  8
0
100
AcDbPoint
 10
-86.90923792317847
 20
46.21046150226547
 30
0.0
  0
POINT
  5
1D0
330
17
100
AcDbEntity
  8
0
100
AcDbPoint
 10
-86.50970198990868
 20
46.97093576944354
 30
0.0
  0
POINT
  5
1D1
330
17
100
AcDbEntity
  8
0
100
AcDbPoint
 10
-86.10316153692781
 20
47.727761798618985
 30
0.0
  0
POINT
  5
1D2
330
17
100
AcDbEntity
  8
0
100
AcDbPoint
 10
-85.68965154578852
 20
48.48087221700269
 30
0.0
  0
POINT
  5
1D3
330
17
100
AcDbEntity
  8
0
100
AcDbPoint
 10
-85.26938087185809
 20
49.230300000000014
 30
0.0
  0
POINT
  5
1D4
330
17
100
AcDbEntity
  8
0
100
AcDbPoint
 10
-84.84246935577593
 20
49.97603375483314
 30
0.0
  0
POINT
  5
1D5
330
17
100
AcDbEntity
  8
0
100
AcDbPoint
 10
-84.40852133587967
 20
50.71775638107769
 30
0.0
  0
POINT
  5
1D6
330
17
100
AcDbEntity
  8
0
100
AcDbPoint
 10
-83.96783285755814
 20
51.45555415351368
 30
0.0
  0
POINT
  5
1D7
330
17
100
AcDbEntity
  8
0
100
AcDbPoint
 10
-83.52052557882332
 20
52.18941668956572
 30
0.0
  0
POINT
  5
1D8
330
17
100
AcDbEntity
  8
0
100
AcDbPoint
 10
-83.06646688955692
 20
52.91917572568703
 30
0.0
  0
POINT
  5
1D9
330
17
100
AcDbEntity
  8
0
100
AcDbPoint
 10
-82.60586399446608
 20
53.64487532064711
 30
0.0
  0
POINT
  5
1DA
330
17
100
AcDbEntity
  8
0
100
AcDbPoint
 10
-82.1382538051093
 20
54.36612421542891
 30
0.0
  0
POINT
  5
1DB
330
17
100
AcDbEntity
  8
0
100
AcDbPoint
 10
-81.66368285447633
 20
55.08284960206312
 30
0.0
  0
POINT
  5
1DC
330
17
100
AcDbEntity
  8
0
100
AcDbPoint
 10
-81.1821984625889
 20
55.794979180754524
 30
0.0
  0
POINT
  5
1DD
330
17
100
AcDbEntity
  8
0
100
AcDbPoint
 10
-80.69409447647757
 20
56.50261324143611
 30
0.0
  0
POINT
  5
1DE
330
17
100
AcDbEntity
  8
0
100
AcDbPoint
 10
-80.19949665190303
 20
57.20574501063153
 30
0.0
  0
POINT
  5
1DF
330
17
100
AcDbEntity
  8
0
100
AcDbPoint
 10
-79.69796305156426
 20
57.903959552361336
 30
0.0
  0
POINT
  5
1E0
330
17
100
AcDbEntity
  8
0
100
AcDbPoint
 10
-79.1896274388094
 20
58.59724185072679
 30
0.0
  0
POINT
  5
1E1
330
17
100
AcDbEntity
  8
0
100
AcDbPoint
 10
-78.67470218447289
 20
59.285640471740706
 30
0.0
  0
POINT
  5
1E2
330
17
100
AcDbEntity
  8
0
100
AcDbPoint
 10
-78.15323755208956
 20
59.969088371649065
 30
0.0
  0
POINT
  5
1E3
330
17
100
AcDbEntity
  8
0
100
AcDbPoint
 10
-77.62512691306489
 20
60.64739591293734
 30
0.0
  0
POINT
  5
1E4
330
17
100
AcDbEntity
  8
0
100
AcDbPoint
 10
-77.09073822993135
 20
61.32074203052503
 30
0.0
  0
POINT
  5
1E5
330
17
100
AcDbEntity
  8
0
100
AcDbPoint
 10
-76.5500429224538
 20
61.989002498995575
 30
0.0
  0
POINT
  5
1E6
330
17
100
AcDbEntity
  8
0
100
AcDbPoint
 10
-76.00286091485691
 20
62.65192367834297
 30
0.0
  0
POINT
  5
1E7
330
17
100
AcDbEntity
  8
0
100
AcDbPoint
 10
-75.44924929167438
 20
63.30943725324662
 30
0.0
  0
POINT
  5
1E8
330
17
100
AcDbEntity
  8
0
100
AcDbPoint
 10
-74.88918984689154
 20
63.96141059823679
 30
0.0
  0
POINT
  5
1E9
330
17
100
AcDbEntity
  8
0
100
AcDbPoint
 10
-74.32289380884234
 20
64.60790590415036
 30
0.0
  0
POINT
  5
1EA
330
17
100
AcDbEntity
  8
0
100
AcDbPoint
 10
-73.75026899066967
 20
65.24872624384224
 30
0.0
  0
POINT
  5
1EB
330
17
100
AcDbEntity
  8
0
100
AcDbPoint
 10
-73.17130286270755
 20
65.883737024124
 30
0.0
  0
POINT
  5
1EC
330
17
100
AcDbEntity
  8
0
100
AcDbPoint
 10
-72.5861334526956
 20
66.51293688409392
 30
0.0
  0
POINT
  5
1ED
330
17
100
AcDbEntity
  8
0
100
AcDbPoint
 10
-71.99453152276132
 20
67.13598676438835
 30
0.0
  0
POINT
  5
1EE
330
17
100
AcDbEntity
  8
0
100
AcDbPoint
 10
-71.39678590281194
 20
67.75301999909699
 30
0.0
  0
POINT
  5
1EF
330
17
100
AcDbEntity
  8
0
100
AcDbPoint
 10
-70.79303517654797
 20
68.36403940451471
 30
0.0
  0
POINT
  5
1F0
330
17
100
AcDbEntity
  8
0
100
AcDbPoint
 10
-70.1829882962325
 20
68.96863051598817
 30
0.0
  0
POINT
  5
1F1
330
17
100
AcDbEntity
  8
0
100
AcDbPoint
 10
-69.56707432144177
 20
69.56707432144174
 30
0.0
  0
POINT
  5
1F2
330
17
100
AcDbEntity
  8
0
100
AcDbPoint
 10
-68.94515005563414
 20
70.15909440618579
 30
0.0
  0
POINT
  5
1F3
330
17
100
AcDbEntity
  8
0
100
AcDbPoint
 10
-68.31728889618282
 20
70.74462360798519
 30
0.0
  0
POINT
  5
1F4
330
17
100
AcDbEntity
  8
0
100
AcDbPoint
 10
-67.68349618695188
 20
71.3235230913397
 30
0.0
  0
POINT
  5
1F5
330
17
100
AcDbEntity
  8
0
100
AcDbPoint
 10
-67.04384878594392
 20
71.89572563767256
 30
0.0
  0
POINT
  5
1F6
330
17
100
AcDbEntity
  8
0
100
AcDbPoint
 10
-66.39835678488232
 20
72.4610912163726
 30
0.0
  0
POINT
  5
1F7
330
17
100
AcDbEntity
  8
0
100
AcDbPoint
 10
-65.74716746736614
 20
73.01962700382762
 30
0.0
  0
POINT
  5
1F8
330
17
100
AcDbEntity
  8
0
100
AcDbPoint
 10
-65.09009500429939
 20
73.57096899111279
 30
0.0
  0
POINT
  5
1F9
330
17
100
AcDbEntity
  8
0
100
AcDbPoint
 10
-64.42801451840117
 20
74.11595244194524
 30
0.0
  0
POINT
  5
1FA
330
17
100
AcDbEntity
  8
0
100
AcDbPoint
 10
-63.760276537668915
 20
74.65369211934521
 30
0.0
  0
POINT
  5
1FB
330
17
100
AcDbEntity
  8
0
100
AcDbPoint
 10
-63.0868399040122
 20
75.18396810102227
 30
0.0
  0
POINT
  5
1FC
330
17
100
AcDbEntity
  8
0
100
AcDbPoint
 10
-62.407860465222385
 20
75.70678856221107
 30
0.0
  0
POINT
  5
1FD
330
17
100
AcDbEntity
  8
0
100
AcDbPoint
 10
-61.72349222601167
 20
76.2221650413151
 30
0.0
  0
POINT
  5
1FE
330
17
100
AcDbEntity
  8
0
100
AcDbPoint
 10
-61.03357602864412
 20
76.72972108717532
 30
0.0
  0
POINT
  5
1FF
330
17
100
AcDbEntity
  8
0
100
AcDbPoint
 10
-60.33839541847138
 20
77.22962431582968
 30
0.0
  0
POINT
  5
200
330
17
100
AcDbEntity
  8
0
100
AcDbPoint
 10
-59.63822653498285
 20
77.72205001164127
 30
0.0
  0
POINT
  5
201
330
17
100
AcDbEntity
  8
0
100
AcDbPoint
 10
-58.9330370496759
 20
78.20678163913617
 30
0.0
  0
POINT
  5
202
330
17
100
AcDbEntity
  8
0
100
AcDbPoint
 10
-58.2227414241882
 20
78.68351915936475
 30
0.0
  0
POINT
  5
203
330
17
100
AcDbEntity
  8
0
100
AcDbPoint
 10
-57.50738084263963
 20
79.15211928545948
 30
0.0
  0
POINT
  5
204
330
17
100
AcDbEntity
  8
0
100
AcDbPoint
 10
-56.787116249859494
 20
79.61260077471998
 30
0.0
  0
POINT
  5
205
330
17
100
AcDbEntity
  8
0
100
AcDbPoint
 10
-56.06193446538762
 20
80.06473996085033
 30
0.0
  0
POINT
  5
206
330
17
100
AcDbEntity
  8
0
100
AcDbPoint
 10
-55.33211200393953
 20
80.50872254124698
 30
0.0
  0
POINT
  5
207
330
17
100
AcDbEntity
  8
0
100
AcDbPoint
 10
-54.59763791972155
 20
80.94432695277034
 30
0.0
  0
POINT
  5
208
330
17
100
AcDbEntity
  8
0
100
AcDbPoint
 10
-53.85861815743449
 20
81.37149579171853
 30
0.0
  0
POINT
  5
209
330
17
100
AcDbEntity
  8
0
100
AcDbPoint
 10
-53.11494153957748
 20
81.7898375318552
 30
0.0
  0
POINT
  5
20A
330
17
100
AcDbEntity
  8
0
100
AcDbPoint
 10
-52.36683172830653
 20
82.19946048326125
 30
0.0
  0
POINT
  5
20B
330
17
100
AcDbEntity
  8
0
100
AcDbPoint
 10
-51.61440129594628
 20
82.60030858968396
 30
0.0
  0
POINT
  5
20C
330
17
100
AcDbEntity
  8
0
100
AcDbPoint
 10
-50.857763545622156
 20
82.99232724552063
 30
0.0
  0
POINT
  5
20D
330
17
100
AcDbEntity
  8
0
100
AcDbPoint
 10
-50.09677497415866
 20
83.37503472142312
 30
0.0
  0
POINT
  5
20E
330
17
100
AcDbEntity
  8
0
100
AcDbPoint
 10
-49.332018326072294
 20
83.7491481140917
 30
0.0
  0
POINT
  5
20F
330
17
100
AcDbEntity
  8
0
100
AcDbPoint
 10
-48.56330000000004
 20
84.11410298320963
 30
0.0
  0
POINT
  5
210
330
17
100
AcDbEntity
  8
0
100
AcDbPoint
 10
-47.79074059751771
 20
84.46984803792873
 30
0.0
  0
POINT
  5
211
330
17
100
AcDbEntity
  8
0
100
AcDbPoint
 10
-47.01455836627459
 20
84.81650848575507
 30
0.0
  0
POINT
  5
212
330
17
100
AcDbEntity
  8
0
100
AcDbPoint
 10
-46.23482294999106
 20
85.15395083020505
 30
0.0
  0
POINT
  5
213
330
17
100
AcDbEntity
  8
0
100
AcDbPoint
 10
-45.45160766817835
 20
85.48204143408131
 30
0.0
  0
POINT
  5
214
330
17
100
AcDbEntity
  8
0
100
AcDbPoint
 10
-44.66503570794752
 20
85.800735295496
 30
0.0
  0
POINT
  5
215
330
17
100
AcDbEntity
  8
0
100
AcDbPoint
 10
-43.87536705872883
 20
86.11025632235578
 30
0.0
  0
POINT
  5
216
330
17
100
AcDbEntity
  8
0
100
AcDbPoint
 10
-43.082540605254955
 20
86.41020829761122
 30
0.0
  0
POINT
  5
217
330
17
100
AcDbEntity
  8
0
100
AcDbPoint
 10
-42.28685895540288
 20
86.7009093645843
 30
0.0
  0
POINT
  5
218
330
17
100
AcDbEntity
  8
0
100
AcDbPoint
 10
-41.488268297196036
 20
86.9819633357392
 30
0.0
  0
POINT
  5
219
330
17
100
AcDbEntity
  8
0
100
AcDbPoint
 10
-40.68681243621468
 20
87.25315084293683
 30
0.0
  0
POINT
  5
21A
330
17
100
AcDbEntity
  8
0
100
AcDbPoint
 10
-39.88266644989689
 20
87.51452426915357
 30
0.0
  0
POINT
  5
21B
330
17
100
AcDbEntity
  8
0
100
AcDbPoint
 10
-39.076084120906884
 20
87.7663219157315
 30
0.0
  0
POINT
  5
21C
330
17
100
AcDbEntity
  8
0
100
AcDbPoint
 10
-38.26719052152495
 20
88.00851292459899
 30
0.0
  0
POINT
  5
21D
330
17
100
AcDbEntity
  8
0
100
AcDbPoint
 10
-37.45595485433598
 20
88.24069985777507
 30
0.0
  0
POINT
  5
21E
330
17
100
AcDbEntity
  8
0
100
AcDbPoint
 10
-36.64258921079234
 20
88.46303583316099
 30
0.0
  0
POINT
  5
21F
330
17
100
AcDbEntity
  8
0
100
AcDbPoint
 10
-35.82722475166049
 20
88.67549297722572
 30
0.0
  0
POINT
  5
220
330
17
100
AcDbEntity
  8
0
100
AcDbPoint
 10
-35.009956382593145
 20
88.8779520979693
 30
0.0
  0
POINT
  5
221
330
17
100
AcDbEntity
  8
0
100
AcDbPoint
 10
-34.19077512547355
 20
89.07001439277587
 30
0.0
  0
POINT
  5
222
330
17
100
AcDbEntity
  8
0
100
AcDbPoint
 10
-33.36989555142776
 20
89.25183989194174
 30
0.0
  0
POINT
  5
223
330
17
100
AcDbEntity
  8
0
100
AcDbPoint
 10
-32.54752609124326
 20
89.42359299480108
 30
0.0
  0
POINT
  5
224
330
17
100
AcDbEntity
  8
0
100
AcDbPoint
 10
-31.723735435512534
 20
89.58506527573448
 30
0.0
  0
POINT
  5
225
330
17
100
AcDbEntity
  8
0
100
AcDbPoint
 10
-30.89866427824992
 20
89.7362369025468
 30
0.0
  0
POINT
  5
226
330
17
100
AcDbEntity
  8
0
100
AcDbPoint
 10
-30.072453619395734
 20
89.87708992507096
 30
0.0
  0
POINT
  5
227
330
17
100
AcDbEntity
  8
0
100
AcDbPoint
 10
-29.245152035748973
 20
90.00732296261191
 30
0.0
  0
POINT
  5
228
330
17
100
AcDbEntity
  8
0
100
AcDbPoint
 10
-28.416908547213446
 20
90.12691944757296
 30
0.0
  0
POINT
  5
229
330
17
100
AcDbEntity
  8
0
100
AcDbPoint
 10
-27.587989397444165
 20
90.23624735934283
 30
0.0
  0
POINT
  5
22A
330
17
100
AcDbEntity
  8
0
100
AcDbPoint
 10
-26.758335292073248
 20
90.33462602876588
 30
0.0
  0
POINT
  5
22B
330
17
100
AcDbEntity
  8
0
100
AcDbPoint
 10
-25.928158639752983
 20
90.42223494247311
 30
0.0
  0
POINT
  5
22C
330
17
100
AcDbEntity
  8
0
100
AcDbPoint
 10
-25.097798984739946
 20
90.49973946526912
 30
0.0
  0
POINT
  5
22D
330
17
100
AcDbEntity
  8
0
100
AcDbPoint
 10
-24.267132487857435
 20
90.56617139868933
 30
0.0
  0
POINT
  5
22E
330
17
100
AcDbEntity
  8
0
100
AcDbPoint
 10
-23.436344557508324
 20
90.62162039707604
 30
0.0
  0
POINT
  5
22F
330
17
100
AcDbEntity
  8
0
100
AcDbPoint
 10
-22.605738345192833
 20
90.66666434339953
 30
0.0
  0
POINT
  5
230
330
17
100
AcDbEntity
  8
0
100
AcDbPoint
 10
-21.77536333882389
 20
90.70091590883857
 30
0.0
  0
POINT
  5
231
330
17
100
AcDbEntity
  8
0
100
AcDbPoint
 10
-20.945395125906202
 20
90.72447366521155
 30
0.0
  0
POINT
  5
232
330
17
100
AcDbEntity
  8
0
100
AcDbPoint
 10
-20.115962651291458
 20
90.73724379052875
 30
0.0
  0
POINT
  5
233
330
17
100
AcDbEntity
  8
0
100
AcDbPoint
 10
-19.287156701569383
 20
90.73893814443228
 30
0.0
  0
POINT
  5
234
330
17
100
AcDbEntity
  8
0
100
AcDbPoint
 10
-18.459297616547325
 20
90.73034646860846
 30
0.0
  0
POINT
  5
235
330
17
100
AcDbEntity
  8
0
100
AcDbPoint
 10
-17.632353968353886
 20
90.71059741890511
 30
0.0
  0
POINT
  5
236
330
17
100
AcDbEntity
  8
0
100
AcDbPoint
 10
-16.806561997198035
 20
90.68009389714116
 30
0.0
  0
POINT
  5
237
330
17
100
AcDbEntity
  8
0
100
AcDbPoint
 10
-15.982109422384568
 20
90.6390466063105
 30
0.0
  0
POINT
  5
238
330
17
100
AcDbEntity
  8
0
100
AcDbPoint
 10
-15.159094445964456
 20
90.58717638726979
 30
0.0
  0
POINT
  5
239
330
17
100
AcDbEntity
  8
0
100
AcDbPoint
 10
-14.337641093992783
 20
90.52430317406397
 30
0.0
  0
POINT
  5
23A
330
17
100
AcDbEntity
  8
0
100
AcDbPoint
 10
-13.517954037681863
 20
90.4507424885231
 30
0.0
  0
POINT
  5
23B
330
17
100
AcDbEntity
  8
0
100
AcDbPoint
 10
-12.700143906940134
 20
90.36621942536388
 30
0.0
  0
POINT
  5
23C
330
17
100
AcDbEntity
  8
0
100
AcDbPoint
 10
-11.884435906874144
 20
90.2712529170577
 30
0.0
  0
POINT
  5
23D
330
17
100
AcDbEntity
  8
0
100
AcDbPoint
 10
-11.070964576019444
 20
90.16577079893746
 30
0.0
  0
POINT
  5
23E
330
17
100
AcDbEntity
  8
0
100
AcDbPoint
 10
-10.259867631177073
 20
90.04970249523718
 30
0.0
  0
POINT
  5
23F
330
17
100
AcDbEntity
  8
0
100
AcDbPoint
 10
-9.451296403119988
 20
89.92307854416669
 30
0.0
  0
POINT
  5
240
330
17
100
AcDbEntity
  8
0
100
AcDbPoint
 10
-8.645421061377771
 20
89.78613064739724
 30
0.0
  0
POINT
  5
241
330
17
100
AcDbEntity
  8
0
100
AcDbPoint
 10
-7.842387034899861
 20
89.63889398740278
 30
0.0
  0
POINT
  5
242
330
17
100
AcDbEntity
  8
0
100
AcDbPoint
 10
-7.042323668430311
 20
89.48120634948474
 30
0.0
  0
POINT
  5
243
330
17
100
AcDbEntity
  8
0
100
AcDbPoint
 10
-6.245387777727431
 20
89.3132062530274
 30
0.0
  0
POINT
  5
244
330
17
100
AcDbEntity
  8
0
100
AcDbPoint
 10
-5.451726153272015
 20
89.13493470127037
 30
0.0
  0
POINT
  5
245
330
17
100
AcDbEntity
  8
0
100
AcDbPoint
 10
-4.661453717050939
 20
88.94583553856691
 30
0.0
  0
POINT
  5
246
330
17
100
AcDbEntity
  8
0
100
AcDbPoint
 10
-3.874762522927647
 20
88.74665238098233
 30
0.0
  0
POINT
  5
247
330
17
100
AcDbEntity
  8
0
100
AcDbPoint
 10
-3.091805742018937
 20
88.53773233002762
 30
0.0
  0
POINT
  5
248
330
17
100
AcDbEntity
  8
0
100
AcDbPoint
 10
-2.3127045883574837
 20
88.31862503853301
 30
0.0
  0
POINT
  5
249
330
17
100
AcDbEntity
  8
0
100
AcDbPoint
 10
-1.5376163453065628
 20
88.0899814254416
 30
0.0
  0
POINT
  5
24A
330
17
100
AcDbEntity
  8
0
100
AcDbPoint
 10
-0.7666662855954112
 20
87.85125476603355
 30
0.0
  0
POINT
  5
24B
330
17
100
AcDbEntity
  8
0
100
AcDbPoint
 10
-1.609229981364391e-14
 20
87.60239999999999
 30
0.0
  0
POINT
  5
24C
330
17
100
AcDbEntity
  8
0
100
AcDbPoint
 10
0.762237568830032
 20
87.34377409007847
 30
0.0
  0
POINT
  5
24D
330
17
100
AcDbEntity
  8
0
100
AcDbPoint
 10
1.5199108789759066
 20
87.07563593870545
 30
0.0
  0
POINT
  5
24E
330
17
100
AcDbEntity
  8
0
100
AcDbPoint
 10
2.272894685370838
 20
86.79834617871019
 30
0.0
  0
POINT
  5
24F
330
17
100
AcDbEntity
  8
0
100
AcDbPoint
 10
3.0210644622030127
 20
86.51196712365991
 30
0.0
  0
POINT
  5
250
330
17
100
AcDbEntity
  8
0
100
AcDbPoint
 10
3.764274614731219
 20
86.2160632357155
 30
0.0
  0
POINT
  5
251
330
17
100
AcDbEntity
  8
0
100
AcDbPoint
 10
4.502373344454854
 20
85.91040120472691
 30
0.0
  0
POINT
  5
252
330
17
100
AcDbEntity
  8
0
100
AcDbPoint
 10
5.235272451497195
 20
85.59594795998578
 30
0.0
  0
POINT
  5
253
330
17
100
AcDbEntity
  8
0
100
AcDbPoint
 10
5.9628112782373215
 20
85.27217404182989
 30
0.0
  0
POINT
  5
254
330
17
100
AcDbEntity
  8
0
100
AcDbPoint
 10
6.6848561823847215
 20
84.93915128526321
 30
0.0
  0
POINT
  5
255
330
17
100
AcDbEntity
  8
0
100
AcDbPoint
 10
7.401370261022405
 20
84.59804919558874
 30
0.0
  0
POINT
  5
256
330
17
100
AcDbEntity
  8
0
100
AcDbPoint
 10
8.112221555532479
 20
84.24864205626079
 30
0.0
  0
POINT
  5
257
330
17
100
AcDbEntity
  8
0
100
AcDbPoint
 10
8.817205839245718
 20
83.89010982248367
 30
0.0
  0
POINT
  5
258
330
17
100
AcDbEntity
  8
0
100
AcDbPoint
 10
9.516258360578416
 20
83.52312768966883
 30
0.0
  0
POINT
  5
259
330
17
100
AcDbEntity
  8
0
100
AcDbPoint
 10
10.209299570407735
 20
83.14807248837265
 30
0.0
  0
POINT
  5
25A
330
17
100
AcDbEntity
  8
0
100
AcDbPoint
 10
10.896117684622327
 20
82.7642307157075
 30
0.0
  0
POINT
  5
25B
330
17
100
AcDbEntity
  8
0
100
AcDbPoint
 10
11.57665513212988
 20
82.37218141364069
 30
0.0
  0
POINT
  5
25C
330
17
100
AcDbEntity
  8
0
100
AcDbPoint
 10
12.250946546419996
 20
81.97299740937109
 30
0.0
  0
POINT
  5
25D
330
17
100
AcDbEntity
  8
0
100
AcDbPoint
 10
12.91879613952436
 20
81.56606869370013
 30
0.0
  0
POINT
  5
25E
330
17
100
AcDbEntity
  8
0
100
AcDbPoint
 10
13.580166524498326
 20
81.15187518016386
 30
0.0
  0
POINT
  5
25F
330
17
100
AcDbEntity
  8
0
100
AcDbPoint
 10
14.234878823517652
 20
80.73000947627698
 30
0.0
  0
POINT
  5
260
330
17
100
AcDbEntity
  8
0
100
AcDbPoint
 10
14.882810895892696
 20
80.30046179093306
 30
0.0
  0
POINT
  5
261
330
17
100
AcDbEntity
  8
0
100
AcDbPoint
 10
15.524009973940798
 20
79.86410785540015
 30
0.0
  0
POINT
  5
262
330
17
100
AcDbEntity
  8
0
100
AcDbPoint
 10
16.158372348644978
 20
79.420937460109
 30
0.0
  0
POINT
  5
263
330
17
100
AcDbEntity
  8
0
100
AcDbPoint
 10
16.785916687524463
 20
78.97152906332438
 30
0.0
  0
POINT
  5
264
330
17
100
AcDbEntity
  8
0
100
AcDbPoint
 10
17.40613868478638
 20
78.51401778138718
 30
0.0
  0
POINT
  5
265
330
17
100
AcDbEntity
  8
0
100
AcDbPoint
 10
18.019524247371823
 20
78.05113454356943
 30
0.0
  0
POINT
  5
266
330
17
100
AcDbEntity
  8
0
100
AcDbPoint
 10
18.62588190143476
 20
77.58238160177739
 30
0.0
  0
POINT
  5
267
330
17
100
AcDbEntity
  8
0
100
AcDbPoint
 10
19.22490404637701
 20
77.10687859826513
 30
0.0
  0
POINT
  5
268
330
17
100
AcDbEntity
  8
0
100
AcDbPoint
 10
19.816500686891608
 20
76.62472270107361
 30
0.0
  0
POINT
  5
269
330
17
100
AcDbEntity
  8
0
100
AcDbPoint
 10
20.40143711211067
 20
76.13919984981844
 30
0.0
  0
POINT
  5
26A
330
17
100
AcDbEntity
  8
0
100
AcDbPoint
 10
20.97912113262182
 20
75.64826692041783
 30
0.0
  0
POINT
  5
26B
330
17
100
AcDbEntity
  8
0
100
AcDbPoint
 10
21.548970149210447
 20
75.15018974825304
 30
0.0
  0
POINT
  5
26C
330
17
100
AcDbEntity
  8
0
100
AcDbPoint
 10
22.111503434303405
 20
74.64718458264042
 30
0.0
  0
POINT
  5
26D
330
17
100
AcDbEntity
  8
0
100
AcDbPoint
 10
22.666905812232915
 20
74.14010822887542
 30
0.0
  0
POINT
  5
26E
330
17
100
AcDbEntity
  8
0
100
AcDbPoint
 10
23.214788427529413
 20
73.62790231471385
 30
0.0
  0
POINT
  5
26F
330
17
100
AcDbEntity
  8
0
100
AcDbPoint
 10
23.755001605186443
 20
73.11037736585409
 30
0.0
  0
POINT
  5
270
330
17
100
AcDbEntity
  8
0
100
AcDbPoint
 10
24.287735889405745
 20
72.58839103173781
 30
0.0
  0
POINT
  5
271
330
17
100
AcDbEntity
  8
0
100
AcDbPoint
 10
24.813339676029393
 20
72.06317099858974
 30
0.0
  0
POINT
  5
272
330
17
100
AcDbEntity
  8
0
100
AcDbPoint
 10
25.331167177756168
 20
71.53300940057372
 30
0.0
  0
POINT
  5
273
330
17
100
AcDbEntity
  8
0
100
AcDbPoint
 10
25.84170815112858
 20
70.99950962536217
 30
0.0
  0
POINT
  5
274
330
17
100
AcDbEntity
  8
0
100
AcDbPoint
 10
26.3444553174578
 20
70.4614464378675
 30
0.0
  0
POINT
  5
275
330
17
100
AcDbEntity
  8
0
100
AcDbPoint
 10
26.840075091580132
 20
69.92078611663587
 30
0.0
  0
POINT
  5
276
330
17
100
AcDbEntity
  8
0
100
AcDbPoint
 10
27.32761421885711
 20
69.3751903302277
 30
0.0
  0
POINT
  5
277
330
17
100
AcDbEntity
  8
0
100
AcDbPoint
 10
27.80813378838405
 20
68.82754635767087
 30
0.0
  0
POINT
  5
278
330
17
100
AcDbEntity
  8
0
100
AcDbPoint
 10
28.281032750301645
 20
68.27645282369585
 30
0.0
  0
POINT
  5
279
330
17
100
AcDbEntity
  8
0
100
AcDbPoint
 10
28.746050049843003
 20
67.7214500180107
 30
0.0
  0
POINT
  5
27A
330
17
100
AcDbEntity
  8
0
100
AcDbPoint
 10
29.204262183364357
 20
67.16520472994416
 30
0.0
  0
POINT
  5
27B
330
17
100
AcDbEntity
  8
0
100
AcDbPoint
 10
29.654558541691948
 20
66.60522899853558
 30
0.0
  0
POINT
  5
27C
330
17
100
AcDbEntity
  8
0
100
AcDbPoint
 10
30.097564696180243
 20
66.04307812155068
 30
0.0
  0
POINT
  5
27D
330
17
100
AcDbEntity
  8
0
100
AcDbPoint
 10
30.53319738876354
 20
65.47865310548777
 30
0.0
  0
POINT
  5
27E
330
17
100
AcDbEntity
  8
0
100
AcDbPoint
 10
30.961583162478306
 20
64.91230899693015
 30
0.0
  0
POINT
  5
27F
330
17
100
AcDbEntity
  8
0
100
AcDbPoint
 10
31.383034235744734
 20
64.34475565396201
 30
0.0
  0
POINT
  5
280
330
17
100
AcDbEntity
  8
0
100
AcDbPoint
 10
31.796725458924662
 20
63.77436500930269
 30
0.0
  0
POINT
  5
281
330
17
100
AcDbEntity
  8
0
100
AcDbPoint
 10
32.203362108525
 20
63.202656786777695
 30
0.0
  0
POINT
  5
282
330
17
100
AcDbEntity
  8
0
100
AcDbPoint
 10
32.60351548218988
 20
62.63077051771442
 30
0.0
  0
POINT
  5
283
330
17
100
AcDbEntity
  8
0
100
AcDbPoint
 10
32.99582290012446
 20
62.056117374144684
 30
0.0
  0
POINT
  5
284
330
17
100
AcDbEntity
  8
0
100
AcDbPoint
 10
33.380881686737574
 20
61.479936040760705
 30
0.0
  0
POINT
  5
285
330
17
100
AcDbEntity
  8
0
100
AcDbPoint
 10
33.75981486777774
 20
60.90431823059324
 30
0.0
  0
POINT
  5
286
330
17
100
AcDbEntity
  8
0
100
AcDbPoint
 10
34.131945129723725
 20
60.328008779517404
 30
0.0
  0
POINT
  5
287
330
17
100
AcDbEntity
  8
0
100
AcDbPoint
 10
34.49680000000001
 20
59.750210298542044
 30
0.0
  0
POINT
  5
288
330
17
100
AcDbEntity
  8
0
100
AcDbPoint
 10
34.854638784127076
 20
59.17143480124531
 30
0.0
  0
POINT
  5
289
330
17
100
AcDbEntity
  8
0
100
AcDbPoint
 10
35.206045656166644
 20
58.59269944025373
 30
0.0
  0
POINT
  5
28A
330
17
100
AcDbEntity
  8
0
100
AcDbPoint
 10
35.55095909284259
 20
58.013892574701735
 30
0.0
  0
POINT
  5
28B
330
17
100
AcDbEntity
  8
0
100
AcDbPoint
 10
35.88920610560517
 20
57.434735750670875
 30
0.0
  0
POINT
  5
28C
330
17
100
AcDbEntity
  8
0
100
AcDbPoint
 10
36.220602387758596
 20
56.854957162572
 30
0.0
  0
POINT
  5
28D
330
17
100
AcDbEntity
  8
0
100
AcDbPoint
 10
36.54495246608728
 20
56.2742919067972
 30
0.0
  0
POINT
  5
28E
330
17
100
AcDbEntity
  8
0
100
AcDbPoint
 10
36.863760861595296
 20
55.69506727870175
 30
0.0
  0
POINT
  5
28F
330
17
100
AcDbEntity
  8
0
100
AcDbPoint
 10
37.1762626085422
 20
55.11607589860428
 30
0.0
  0
POINT
  5
290
330
17
100
AcDbEntity
  8
0
100
AcDbPoint
 10
37.4834053847168
 20
54.538693260152314
 30
0.0
  0
POINT
  5
291
330
17
100
AcDbEntity
  8
0
100
AcDbPoint
 10
37.783602095257905
 20
53.96057601987976
 30
0.0
  0
POINT
  5
292
330
17
100
AcDbEntity
  8
0
100
AcDbPoint
 10
38.0771573683309
 20
53.38220583103852
 30
0.0
  0
POINT
  5
293
330
17
100
AcDbEntity
  8
0
100
AcDbPoint
 10
38.365096088281085
 20
52.805024633049456
 30
0.0
  0
POINT
  5
294
330
17
100
AcDbEntity
  8
0
100
AcDbPoint
 10
38.64736144131623
 20
52.22891141919639
 30
0.0
  0
POINT
  5
295
330
17
100
AcDbEntity
  8
0
100
AcDbPoint
 10
38.923590252405
 20
51.65334888332877
 30
0.0
  0
POINT
  5
296
330
17
100
AcDbEntity
  8
0
100
AcDbPoint
 10
39.19303481786784
 20
51.07735741329418
 30
0.0
  0
POINT
  5
297
330
17
100
AcDbEntity
  8
0
100
AcDbPoint
 10
39.46014503337523
 20
50.50668244059387
 30
0.0
  0
POINT
  5
298
330
17
100
AcDbEntity
  8
0
100
AcDbPoint
 10
39.71774109821705
 20
49.9320438843134
 30
0.0
  0
POINT
  5
299
330
17
100
AcDbEntity
  8
0
100
AcDbPoint
 10
39.97021479286565
 20
49.35910459380502
 30
0.0
  0
POINT
  5
29A
330
17
100
AcDbEntity
  8
0
100
AcDbPoint
 10
40.218398966476634
 20
48.78881929564715
 30
0.0
  0
POINT
  5
29B
330
17
100
AcDbEntity
  8
0
100
AcDbPoint
 10
40.461230273133744
 20
48.219816538788756
 30
0.0
  0
POINT
  5
29C
330
17
100
AcDbEntity
  8
0
100
AcDbPoint
 10
40.69935051353663
 20
47.652816889836494
 30
0.0
  0
POINT
  5
29D
330
17
100
AcDbEntity
  8
0
100
AcDbPoint
 10
40.93119478920324
 20
47.08595335530865
 30
0.0
  0
POINT
  5
29E
330
17
100
AcDbEntity
  8
0
100
AcDbPoint
 10
41.159041866949465
 20
46.52183397024134
 30
0.0
  0
POINT
  5
29F
330
17
100
AcDbEntity
  8
0
100
AcDbPoint
 10
41.3817132196572
 20
45.95904858682399
 30
0.0
  0
POINT
  5
2A0
330
17
100
AcDbEntity
  8
0
100
AcDbPoint
 10
41.599129238830464
 20
45.39748337541499
 30
0.0
  0
POINT
  5
2A1
330
17
100
AcDbEntity
  8
0
100
AcDbPoint
 10
41.81181905903965
 20
44.83768646812777
 30
0.0
  0
POINT
  5
2A2
330
17
100
AcDbEntity
  8
0
100
AcDbPoint
 10
42.01964137681922
 20
44.279462954325695
 30
0.0
  0
POINT
  5
2A3
330
17
100
AcDbEntity
  8
0
100
AcDbPoint
 10
42.222864004912864
 20
43.72305561214396
 30
0.0
  0
POINT
  5
2A4
330
17
100
AcDbEntity
  8
0
100
AcDbPoint
 10
42.4209211304406
 20
43.16784295902377
 30
0.0
  0
POINT
  5
2A5
330
17
100
AcDbEntity
  8
0
100
AcDbPoint
 10
42.614850828379055
 20
42.614850828379076
 30
0.0
  0
POINT
  5
2A6
330
17
100
AcDbEntity
  8
0
100
AcDbPoint
 10
42.80444185517973
 20
42.0638078602798
 30
0.0
  0
POINT
  5
2A7
330
17
100
AcDbEntity
  8
0
100
AcDbPoint
 10
42.98961675171866
 20
41.51459033039289
 30
0.0
  0
POINT
  5
2A8
330
17
100
AcDbEntity
  8
0
100
AcDbPoint
 10
43.16964016667687
 20
40.9664588760078
 30
0.0
  0
POINT
  5
2A9
330
17
100
AcDbEntity
  8
0
100
AcDbPoint
 10
43.345798052194844
 20
40.42061060434814
 30
0.0
  0
POINT
  5
2AA
330
17
100
AcDbEntity
  8
0
100
AcDbPoint
 10
43.518237171619646
 20
39.87711735863893
 30
0.0
  0
POINT
  5
2AB
330
17
100
AcDbEntity
  8
0
100
AcDbPoint
 10
43.6865117105141
 20
39.335511825411835
 30
0.0
  0
POINT
  5
2AC
330
17
100
AcDbEntity
  8
0
100
AcDbPoint
 10
43.850982974335665
 20
38.796072513007346
 30
0.0
  0
POINT
  5
2AD
330
17
100
AcDbEntity
  8
0
100
AcDbPoint
 10
44.0114174673971
 20
38.25854151690173
 30
0.0
  0
POINT
  5
2AE
330
17
100
AcDbEntity
  8
0
100
AcDbPoint
 10
44.16818051187781
 20
37.723189887258705
 30
0.0
  0
POINT
  5
2AF
330
17
100
AcDbEntity
  8
0
100
AcDbPoint
 10
44.32156957664488
 20
37.190212684960905
 30
0.0
  0
POINT
  5
2B0
330
17
100
AcDbEntity
  8
0
100
AcDbPoint
 10
44.471039614384466
 20
36.659096069268365
 30
0.0
  0
POINT
  5
2B1
330
17
100
AcDbEntity
  8
0
100
AcDbPoint
 10
44.61703765159072
 20
36.13016469871866
 30
0.0
  0
POINT
  5
2B2
330
17
100
AcDbEntity
  8
0
100
AcDbPoint
 10
44.75931701078167
 20
35.60316835589706
 30
0.0
  0
POINT
  5
2B3
330
17
100
AcDbEntity
  8
0
100
AcDbPoint
 10
44.89856750932556
 20
35.07860544577756
 30
0.0
  0
POINT
  5
2B4
330
17
100
AcDbEntity
  8
0
100
AcDbPoint
 10
45.03454369096389
 20
34.556220765394244
 30
0.0
  0
POINT
  5
2B5
330
17
100
AcDbEntity
  8
0
100
AcDbPoint
 10
45.166591680071626
 20
34.03546808985714
 30
0.0
  0
POINT
  5
2B6
330
17
100
AcDbEntity
  8
0
100
AcDbPoint
 10
45.29556561068685
 20
33.516955423307216
 30
0.0
  0
POINT
  5
2B7
330
17
100
AcDbEntity
  8
0
100
AcDbPoint
 10
45.42185464068423
 20
33.00090909733477
 30
0.0
  0
POINT
  5
2B8
330
17
100
AcDbEntity
  8
0
100
AcDbPoint
 10
45.54430867806308
 20
32.48643966222381
 30
0.0
  0
POINT
  5
2B9
330
17
100
AcDbEntity
  8
0
100
AcDbPoint
 10
45.66363070888983
 20
31.974018444389085
 30
0.0
  0
POINT
  5
2BA
330
17
100
AcDbEntity
  8
0
100
AcDbPoint
 10
45.77979771485866
 20
31.46358325805601
 30
0.0
  0
POINT
  5
2BB
330
17
100
AcDbEntity
  8
0
100
AcDbPoint
 10
45.89286709641494
 20
30.955129718849424
 30
0.0
  0
POINT
  5
2BC
330
17
100
AcDbEntity
  8
0
100
AcDbPoint
 10
46.00314592314387
 20
30.44881805610739
 30
0.0
  0
POINT
  5
2BD
330
17
100
AcDbEntity
  8
0
100
AcDbPoint
 10
46.11094649620736
 20
29.9447987841612
 30
0.0
  0
POINT
  5
2BE
330
17
100
AcDbEntity
  8
0
100
AcDbPoint
 10
46.216080108509914
 20
29.442890208228437
 30
0.0
  0
POINT
  5
2BF
330
17
100
AcDbEntity
  8
0
100
AcDbPoint
 10
46.31818208701397
 20
28.94281242233065
 30
0.0
  0
POINT
  5
2C0
330
17
100
AcDbEntity
  8
0
100
AcDbPoint
 10
46.418327395551835
 20
28.445187612131548
 30
0.0
  0
POINT
  5
2C1
330
17
100
AcDbEntity
  8
0
100
AcDbPoint
 10
46.515640757011305
 20
27.949416699721453
 30
0.0
  0
POINT
  5
2C2
330
17
100
AcDbEntity
  8
0
100
AcDbPoint
 10
46.61000175991642
 20
27.45538925203188
 30
0.0
  0
POINT
  5
2C3
330
17
100
AcDbEntity
  8
0
100
AcDbPoint
 10
46.70215194988341
 20
26.963500000000025
 30
0.0
  0
POINT
  5
2C4
330
17
100
AcDbEntity
  8
0
100
AcDbPoint
 10
46.791714782842504
 20
26.473478468858566
 30
0.0
  0
POINT
  5
2C5
330
17
100
AcDbEntity
  8
0
100
AcDbPoint
 10
46.87926645478876
 20
25.98560172135556
 30
0.0
  0
POINT
  5
2C6
330
17
100
AcDbEntity
  8
0
100
AcDbPoint
 10
46.96433802750048
 20
25.499555011777595
 30
0.0
  0
POINT
  5
2C7
330
17
100
AcDbEntity
  8
0
100
AcDbPoint
 10
47.04600829554292
 20
25.01480633276434
 30
0.0
  0
POINT
  5
2C8
330
17
100
AcDbEntity
  8
0
100
AcDbPoint
 10
47.12759517542547
 20
24.533073220067926
 30
0.0
  0
POINT
  5
2C9
330
17
100
AcDbEntity
  8
0
100
AcDbPoint
 10
47.20606025541424
 20
24.052689070501042
 30
0.0
  0
POINT
  5
2CA
330
17
100
AcDbEntity
  8
0
100
AcDbPoint
 10
47.28242510026443
 20
23.574147539155764
 30
0.0
  0
POINT
  5
2CB
330
17
100
AcDbEntity
  8
0
100
AcDbPoint
 10
47.3565595054568
 20
23.09733735316972
 30
0.0
  0
POINT
  5
2CC
330
17
100
AcDbEntity
  8
0
100
AcDbPoint
 10
47.42869048790274
 20
22.622324910643574
 30
0.0
  0
POINT
  5
2CD
330
17
100
AcDbEntity
  8
0
100
AcDbPoint
 10
47.499047333918604
 20
22.149169526873
 30
0.0
  0
POINT
  5
2CE
330
17
100
AcDbEntity
  8
0
100
AcDbPoint
 10
47.566951489292066
 20
21.677508689315193
 30
0.0
  0
POINT
  5
2CF
330
17
100
AcDbEntity
  8
0
100
AcDbPoint
 10
47.633173706942856
 20
21.207655306615294
 30
0.0
  0
POINT
  5
2D0
330
17
100
AcDbEntity
  8
0
100
AcDbPoint
 10
47.69757835287443
 20
20.739497323498576
 30
0.0
  0
POINT
  5
2D1
330
17
100
AcDbEntity
  8
0
100
AcDbPoint
 10
47.76002611943848
 20
20.272928309214578
 30
0.0
  0
POINT
  5
2D2
330
17
100
AcDbEntity
  8
0
100
AcDbPoint
 10
47.82055893050371
 20
19.807924069276453
 30
0.0
  0
POINT
  5
2D3
330
17
100
AcDbEntity
  8
0
100
AcDbPoint
 10
47.87940337628707
 20
19.344534641360347
 30
0.0
  0
POINT
  5
2D4
330
17
100
AcDbEntity
  8
0
100
AcDbPoint
 10
47.93641568702908
 20
18.882656302553208
 30
0.0
  0
POINT
  5
2D5
330
17
100
AcDbEntity
  8
0
100
AcDbPoint
 10
47.991915478643094
 20
18.422370324710595
 30
0.0
  0
POINT
  5
2D6
330
17
100
AcDbEntity
  8
0
100
AcDbPoint
 10
48.04547594086945
 20
17.963467372846882
 30
0.0
  0
POINT
  5
2D7
330
17
100
AcDbEntity
  8
0
100
AcDbPoint
 10
48.09741504083009
 20
17.506027420009687
 30
0.0
  0
POINT
  5
2D8
330
17
100
AcDbEntity
  8
0
100
AcDbPoint
 10
48.14729944051519
 20
17.049852949083334
 30
0.0
  0
POINT
  5
2D9
330
17
100
AcDbEntity
  8
0
100
AcDbPoint
 10
48.196485665169334
 20
16.59538087803732
 30
0.0
  0
POINT
  5
2DA
330
17
100
AcDbEntity
  8
0
100
AcDbPoint
 10
48.242931322918736
 20
16.14185901970855
 30
0.0
  0
POINT
  5
2DB
330
17
100
AcDbEntity
  8
0
100
AcDbPoint
 10
48.288277818808716
 20
15.689812560497531
 30
0.0
  0
POINT
  5
2DC
330
17
100
AcDbEntity
  8
0
100
AcDbPoint
 10
48.332181514933424
 20
15.239078295537697
 30
0.0
  0
POINT
  5
2DD
330
17
100
AcDbEntity
  8
0
100
AcDbPoint
 10
48.375823646097295
 20
14.789973529445327
 30
0.0
  0
POINT
  5
2DE
330
17
100
AcDbEntity
  8
0
100
AcDbPoint
 10
48.415410748222435
 20
14.341298027755636
 30
0.0
  0
POINT
  5
2DF
330
17
100
AcDbEntity
  8
0
100
AcDbPoint
 10
48.454895064180405
 20
13.894217577080957
 30
0.0
  0
POINT
  5
2E0
330
17
100
AcDbEntity
  8
0
100
AcDbPoint
 10
48.494124379452025
 20
13.448610933112642
 30
0.0
  0
POINT
  5
2E1
330
17
100
AcDbEntity
  8
0
100
AcDbPoint
 10
48.53101129024166
 20
13.003845283085948
 30
0.0
  0
POINT
  5
2E2
330
17
100
AcDbEntity
  8
0
100
AcDbPoint
 10
48.56451238093875
 20
12.55963687738013
 30
0.0
  0
POINT
  5
2E3
330
17
100
AcDbEntity
  8
0
100
AcDbPoint
 10
48.60036639685737
 20
12.117432291175284
 30
0.0
  0
POINT
  5
2E4
330
17
100
AcDbEntity
  8
0
100
AcDbPoint
 10
48.630650643888806
 20
11.675186259843459
 30
0.0
  0
POINT
  5
2E5
330
17
100
AcDbEntity
  8
0
100
AcDbPoint
 10
48.66423082665322
 20
11.235022943466314
 30
0.0
  0
POINT
  5
2E6
330
17
100
AcDbEntity
  8
0
100
AcDbPoint
 10
48.69149417029742
 20
10.794644373664761
 30
0.0
  0
POINT
  5
2E7
330
17
100
AcDbEntity
  8
0
100
AcDbPoint
 10
48.71986914162961
 20
10.35572786975823
 30
0.0
  0
POINT
  5
2E8
330
17
100
AcDbEntity
  8
0
100
AcDbPoint
 10
48.7470403786564
 20
9.917697455137574
 30
0.0
  0
POINT
  5
2E9
330
17
100
AcDbEntity
  8
0
100
AcDbPoint
 10
48.772931911343946
 20
9.480497582479924
 30
0.0
  0
POINT
  5
2EA
330
17
100
AcDbEntity
  8
0
100
AcDbPoint
 10
48.797466180037716
 20
9.044075776887059
 30
0.0
  0
POINT
  5
2EB
330
17
100
AcDbEntity
  8
0
100
AcDbPoint
 10
48.8208595478272
 20
8.608434759660406
 30
0.0
  0
POINT
  5
2EC
330
17
100
AcDbEntity
  8
0
100
AcDbPoint
 10
48.84293418788693
 20
8.17350404219305
 30
0.0
  0
POINT
  5
2ED
330
17
100
AcDbEntity
  8
0
100
AcDbPoint
 10
48.863905274263246
 20
7.739282288935352
 30
0.0
  0
POINT
  5
2EE
330
17
100
AcDbEntity
  8
0
100
AcDbPoint
 10
48.88359257045778
 20
7.305701859197693
 30
0.0
  0
POINT
  5
2EF
330
17
100
AcDbEntity
  8
0
100
AcDbPoint
 10
48.90211095824434
 20
6.8727434927806454
 30
0.0
  0
POINT
  5
2F0
330
17
100
AcDbEntity
  8
0
100
AcDbPoint
 10
48.925325296644104
 20
6.441141270579
 30
0.0
  0
POINT
  5
2F1
330
17
100
AcDbEntity
  8
0
100
AcDbPoint
 10
48.94135893666679
 20
6.009243267030064
 30
0.0
  0
POINT
  5
2F2
330
17
100
AcDbEntity
  8
0
100
AcDbPoint
 10
48.95636540193806
 20
5.577873272307459
 30
0.0
  0
POINT
  5
2F3
330
17
100
AcDbEntity
  8
0
100
AcDbPoint
 10
48.97025812793378
 20
5.146981531299255
 30
0.0
  0
POINT
  5
2F4
330
17
100
AcDbEntity
  8
0
100
AcDbPoint
 10
48.98284968392985
 20
4.716511974068735
 30
0.0
  0
POINT
  5
2F5
330
17
100
AcDbEntity
  8
0
100
AcDbPoint
 10
48.994150305259566
 20
4.286432730795408
 30
0.0
  0
POINT
  5
2F6
330
17
100
AcDbEntity
  8
0
100
AcDbPoint
 10
49.004169381785516
 20
3.8567117718692177
 30
0.0
  0
POINT
  5
2F7
330
17
100
AcDbEntity
  8
0
100
AcDbPoint
 10
49.01311496860588
 20
3.4273308731753755
 30
0.0
  0
POINT
  5
2F8
330
17
100
AcDbEntity
  8
0
100
AcDbPoint
 10
49.020895287493936
 20
2.9982463979056577
 30
0.0
  0
POINT
  5
2F9
330
17
100
AcDbEntity
  8
0
100
AcDbPoint
 10
49.02741741991537
 20
2.569418070960481
 30
0.0
  0
POINT
  5
2FA
330
17
100
AcDbEntity
  8
0
100
AcDbPoint
 10
49.03288709594895
 20
2.1408220841357544
 30
0.0
  0
POINT
  5
2FB
330
17
100
AcDbEntity
  8
0
100
AcDbPoint
 10
49.036909831180566
 20
1.7124066248022674
 30
0.0
  0
POINT
  5
2FC
330
17
100
AcDbEntity
  8
0
100
AcDbPoint
 10
49.040089425593415
 20
1.2841599354445217
 30
0.0
  0
POINT
  5
2FD
330
17
100
AcDbEntity
  8
0
100
AcDbPoint
 10
49.041429614956314
 20
0.8560213381016776
 30
0.0
  0
POINT
  5
2FE
330
17
100
AcDbEntity
  8
0
100
AcDbPoint
 10
49.04383249002842
 20
0.4279990420925838
 30
0.0
  0
ENDSEC
  0
SECTION
  2
OBJECTS
  0
DICTIONARY
  5
A
330
0
100
AcDbDictionary
280
0
281
1
  3
ACAD_COLOR
350
B
  3
ACAD_GROUP
350
C
  3
ACAD_LAYOUT
350
D
  3
ACAD_MATERIAL
350
E
  3
ACAD_MLEADERSTYLE
350
F
  3
ACAD_MLINESTYLE
350
10
  3
ACAD_PLOTSETTINGS
350
11
  3
ACAD_PLOTSTYLENAME
350
12
  3
ACAD_SCALELIST
350
14
  3
ACAD_TABLESTYLE
350
15
  3
ACAD_VISUALSTYLE
350
16
  3
EZDXF_META
350
2D
  0
DICTIONARY
  5
B
330
A
100
AcDbDictionary
280
0
281
1
  0
DICTIONARY
  5
C
330
A
100
AcDbDictionary
280
0
281
1
  0
DICTIONARY
  5
D
330
A
100
AcDbDictionary
280
0
281
1
  3
Model
350
1A
  3
Layout1
350
1E
  0
DICTIONARY
  5
E
330
A
100
AcDbDictionary
280
0
281
1
  3
ByBlock
350
1F
  3
ByLayer
350
20
  3
Global
350
21
  0
DICTIONARY
  5
F
330
A
100
AcDbDictionary
280
0
281
1
  3
Standard
350
2C
  0
DICTIONARY
  5
10
330
A
100
AcDbDictionary
280
0
281
1
  3
Standard
350
22
  0
DICTIONARY
  5
11
330
A
100
AcDbDictionary
280
0
281
1
  0
ACDBDICTIONARYWDFLT
  5
12
330
A
100
AcDbDictionary
280
0
281
1
  3
Normal
350
13
100
AcDbDictionaryWithDefault
340
13
  0
ACDBPLACEHOLDER
  5
13
330
12
  0
DICTIONARY
  5
14
330
A
100
AcDbDictionary
280
0
281
1
  0
DICTIONARY
  5
15
330
A
100
AcDbDictionary
280
0
281
1
  0
DICTIONARY
  5
16
330
A
100
AcDbDictionary
280
0
281
1
  0
LAYOUT
  5
1A
330
D
100
AcDbPlotSettings
  1

  4
A3
  6

 40
7.5
 41
20.0
 42
7.5
 43
20.0
 44
420.0
 45
297.0
 46
0.0
 47
0.0
 48
0.0
 49
0.0
140
0.0
141
0.0
142
1.0
143
1.0
 70
1024
 72
1
 73
0
 74
5
  7

 75
16
 76
0
 77
2
 78
300
147
1.0
148
0.0
149
0.0
100
AcDbLayout
  1
Model
 70
1
 71
0
 10
0.0
 20
0.0
 11
420.0
 21
297.0
 12
0.0
 22
0.0
 32
0.0
 14
1e+20
 24
1e+20
 34
1e+20
 15
-1e+20
 25
-1e+20
 35
-1e+20
146
0.0
 13
0.0
 23
0.0
 33
0.0
 16
1.0
 26
0.0
 36
0.0
 17
0.0
 27
1.0
 37
0.0
 76
1
330
17
  0
LAYOUT
  5
1E
330
D
100
AcDbPlotSettings
  1

  4
A3
  6

 40
7.5
 41
20.0
 42
7.5
 43
20.0
 44
420.0
 45
297.0
 46
0.0
 47
0.0
 48
0.0
 49
0.0
140
0.0
141
0.0
142
1.0
143
1.0
 70
0
 72
1
 73
0
 74
5
  7

 75
16
 76
0
 77
2
 78
300
147
1.0
148
0.0
149
0.0
100
AcDbLayout
  1
Layout1
 70
1
 71
1
 10
0.0
 20
0.0
 11
420.0
 21
297.0
 12
0.0
 22
0.0
 32
0.0
 14
1e+20
 24
1e+20
 34
1e+20
 15
-1e+20
 25
-1e+20
 35
-1e+20
146
0.0
 13
0.0
 23
0.0
 33
0.0
 16
1.0
 26
0.0
 36
0.0
 17
0.0
 27
1.0
 37
0.0
 76
1
330
1B
  0
MATERIAL
  5
1F
102
{ACAD_REACTORS
330
E
102
}
330
E
100
AcDbMaterial
  1
ByBlock
  2

 70
0
 40
1.0
 71
1
 41
1.0
 91
-1023410177
 42
1.0
 72
1
  3

 73
1
 74
1
 75
1
 44
0.5
 73
0
 45
1.0
 46
1.0
 77
1
  4

 78
1
 79
1
170
1
 48
1.0
171
1
  6

172
1
173
1
174
1
140
1.0
141
1.0
175
1
  7

176
1
177
1
178
1
143
1.0
179
1
  8

270
1
271
1
272
1
145
1.0
146
1.0
273
1
  9

274
1
275
1
276
1
 42
1.0
 72
1
  3

 73
1
 74
1
 75
1
 94
63
  0
MATERIAL
  5
20
102
{ACAD_REACTORS
330
E
102
}
330
E
100
AcDbMaterial
  1
ByLayer
  2

 70
0
 40
1.0
 71
1
 41
1.0
 91
-1023410177
 42
1.0
 72
1
  3

 73
1
 74
1
 75
1
 44
0.5
 73
0
 45
1.0
 46
1.0
 77
1
  4

 78
1
 79
1
170
1
 48
1.0
171
1
  6

172
1
173
1
174
1
140
1.0
141
1.0
175
1
  7

176
1
177
1
178
1
143
1.0
179
1
  8

270
1
271
1
272
1
145
1.0
146
1.0
273
1
  9

274
1
275
1
276
1
 42
1.0
 72
1
  3

 73
1
 74
1
 75
1
 94
63
  0
MATERIAL
  5
21
102
{ACAD_REACTORS
330
E
102
}
330
E
100
AcDbMaterial
  1
Global
  2

 70
0
 40
1.0
 71
1
 41
1.0
 91
-1023410177
 42
1.0
 72
1
  3

 73
1
 74
1
 75
1
 44
0.5
 73
0
 45
1.0
 46
1.0
 77
1
  4

 78
1
 79
1
170
1
 48
1.0
171
1
  6

172
1
173
1
174
1
140
1.0
141
1.0
175
1
  7

176
1
177
1
178
1
143
1.0
179
1
  8

270
1
271
1
272
1
145
1.0
146
1.0
273
1
  9

274
1
275
1
276
1
 42
1.0
 72
1
  3

 73
1
 74
1
 75
1
 94
63
  0
MLINESTYLE
  5
22
102
{ACAD_REACTORS
330
10
102
}
330
10
100
AcDbMlineStyle
  2
Standard
 70
0
  3

 62
256
 51
90.0
 52
90.0
 71
2
 49
0.5
 62
256
  6
BYLAYER
 49
-0.5
 62
256
  6
BYLAYER
  0
MLEADERSTYLE
  5
2C
102
{ACAD_REACTORS
330
F
102
}
330
F
100
AcDbMLeaderStyle
179
2
170
2
171
1
172
0
 90
2
 40
0.0
 41
0.0
173
1
 91
-1056964608
 92
-2
290
1
 42
2.0
291
1
 43
8.0
  3
Standard
 44
4.0
300

342
29
174
1
175
1
176
0
178
1
 93
-1056964608
 45
4.0
292
0
297
0
 46
4.0
 94
-1056964608
 47
1.0
 49
1.0
140
1.0
294
1
141
0.0
177
0
142
1.0
295
0
296
0
143
3.75
271
0
272
9
273
9
  0
DICTIONARY
  5
2D
330
A
100
AcDbDictionary
281
1
  3
CREATED_BY_EZDXF
350
2E
  3
WRITTEN_BY_EZDXF
350
301
  0
DICTIONARYVAR
  5
2E
330
2D
100
DictionaryVariables
280
0
  1
1.3.2 @ 2025-08-27T00:07:44.554540+00:00
  0
DICTIONARYVAR
  5
301
330
2D
100
DictionaryVariables
280
0
  1
1.3.2 @ 2025-08-27T00:07:44.563108+00:00
  0
ENDSEC
  0
EOF
