  0
SECTION
  2
HEADER
  9
$ACADVER
  1
AC1015
  9
$ACADMAINTVER
 70
6
  9
$DWGCODEPAGE
  3
ANSI_1252
  9
$INSBASE
 10
0.0
 20
0.0
 30
0.0
  9
$EXTMIN
 10
1e+20
 20
1e+20
 30
1e+20
  9
$EXTMAX
 10
-1e+20
 20
-1e+20
 30
-1e+20
  9
$LIMMIN
 10
0.0
 20
0.0
  9
$LIMMAX
 10
420.0
 20
297.0
  9
$ORTHOMODE
 70
0
  9
$REGENMODE
 70
1
  9
$FILLMODE
 70
1
  9
$QTEXTMODE
 70
0
  9
$MIRRTEXT
 70
1
  9
$LTSCALE
 40
1.0
  9
$ATTMODE
 70
1
  9
$TEXTSIZE
 40
2.5
  9
$TRACEWID
 40
1.0
  9
$TEXTSTYLE
  7
Standard
  9
$CLAYER
  8
0
  9
$CELTYPE
  6
ByLayer
  9
$CECOLOR
 62
256
  9
$CELTSCALE
 40
1.0
  9
$DISPSILH
 70
0
  9
$DIMSCALE
 40
1.0
  9
$DIMASZ
 40
2.5
  9
$DIMEXO
 40
0.625
  9
$DIMDLI
 40
3.75
  9
$DIMRND
 40
0.0
  9
$DIMDLE
 40
0.0
  9
$DIMEXE
 40
1.25
  9
$DIMTP
 40
0.0
  9
$DIMTM
 40
0.0
  9
$DIMTXT
 40
2.5
  9
$DIMCEN
 40
2.5
  9
$DIMTSZ
 40
0.0
  9
$DIMTOL
 70
0
  9
$DIMLIM
 70
0
  9
$DIMTIH
 70
0
  9
$DIMTOH
 70
0
  9
$DIMSE1
 70
0
  9
$DIMSE2
 70
0
  9
$DIMTAD
 70
1
  9
$DIMZIN
 70
8
  9
$DIMBLK
  1

  9
$DIMASO
 70
1
  9
$DIMSHO
 70
1
  9
$DIMPOST
  1

  9
$DIMAPOST
  1

  9
$DIMALT
 70
0
  9
$DIMALTD
 70
3
  9
$DIMALTF
 40
0.03937007874
  9
$DIMLFAC
 40
1.0
  9
$DIMTOFL
 70
1
  9
$DIMTVP
 40
0.0
  9
$DIMTIX
 70
0
  9
$DIMSOXD
 70
0
  9
$DIMSAH
 70
0
  9
$DIMBLK1
  1

  9
$DIMBLK2
  1

  9
$DIMSTYLE
  2
ISO-25
  9
$DIMCLRD
 70
0
  9
$DIMCLRE
 70
0
  9
$DIMCLRT
 70
0
  9
$DIMTFAC
 40
1.0
  9
$DIMGAP
 40
0.625
  9
$DIMJUST
 70
0
  9
$DIMSD1
 70
0
  9
$DIMSD2
 70
0
  9
$DIMTOLJ
 70
0
  9
$DIMTZIN
 70
8
  9
$DIMALTZ
 70
0
  9
$DIMALTTZ
 70
0
  9
$DIMUPT
 70
0
  9
$DIMDEC
 70
2
  9
$DIMTDEC
 70
2
  9
$DIMALTU
 70
2
  9
$DIMALTTD
 70
3
  9
$DIMTXSTY
  7
Standard
  9
$DIMAUNIT
 70
0
  9
$DIMADEC
 70
0
  9
$DIMALTRND
 40
0.0
  9
$DIMAZIN
 70
0
  9
$DIMDSEP
 70
44
  9
$DIMATFIT
 70
3
  9
$DIMFRAC
 70
0
  9
$DIMLDRBLK
  1

  9
$DIMLUNIT
 70
2
  9
$DIMLWD
 70
-2
  9
$DIMLWE
 70
-2
  9
$DIMTMOVE
 70
0
  9
$LUNITS
 70
2
  9
$LUPREC
 70
4
  9
$SKETCHINC
 40
1.0
  9
$FILLETRAD
 40
10.0
  9
$AUNITS
 70
0
  9
$AUPREC
 70
2
  9
$MENU
  1
.
  9
$ELEVATION
 40
0.0
  9
$PELEVATION
 40
0.0
  9
$THICKNESS
 40
0.0
  9
$LIMCHECK
 70
0
  9
$CHAMFERA
 40
0.0
  9
$CHAMFERB
 40
0.0
  9
$CHAMFERC
 40
0.0
  9
$CHAMFERD
 40
0.0
  9
$SKPOLY
 70
0
  9
$TDCREATE
 40
2461036.6343055554
  9
$TDUCREATE
 40
2458532.153996898
  9
$TDUPDATE
 40
2461036.6343055554
  9
$TDUUPDATE
 40
2458532.1544311
  9
$TDINDWG
 40
0.0
  9
$TDUSRTIMER
 40
0.0
  9
$USRTIMER
 70
1
  9
$ANGBASE
 50
0.0
  9
$ANGDIR
 70
0
  9
$PDMODE
 70
0
  9
$PDSIZE
 40
0.0
  9
$PLINEWID
 40
0.0
  9
$SPLFRAME
 70
0
  9
$SPLINETYPE
 70
6
  9
$SPLINESEGS
 70
8
  9
$HANDSEED
  5
33
  9
$SURFTAB1
 70
6
  9
$SURFTAB2
 70
6
  9
$SURFTYPE
 70
6
  9
$SURFU
 70
6
  9
$SURFV
 70
6
  9
$UCSBASE
  2

  9
$UCSNAME
  2

  9
$UCSORG
 10
0.0
 20
0.0
 30
0.0
  9
$UCSXDIR
 10
1.0
 20
0.0
 30
0.0
  9
$UCSYDIR
 10
0.0
 20
1.0
 30
0.0
  9
$UCSORTHOREF
  2

  9
$UCSORTHOVIEW
 70
0
  9
$UCSORGTOP
 10
0.0
 20
0.0
 30
0.0
  9
$UCSORGBOTTOM
 10
0.0
 20
0.0
 30
0.0
  9
$UCSORGLEFT
 10
0.0
 20
0.0
 30
0.0
  9
$UCSORGRIGHT
 10
0.0
 20
0.0
 30
0.0
  9
$UCSORGFRONT
 10
0.0
 20
0.0
 30
0.0
  9
$UCSORGBACK
 10
0.0
 20
0.0
 30
0.0
  9
$PUCSBASE
  2

  9
$PUCSNAME
  2

  9
$PUCSORG
 10
0.0
 20
0.0
 30
0.0
  9
$PUCSXDIR
 10
1.0
 20
0.0
 30
0.0
  9
$PUCSYDIR
 10
0.0
 20
1.0
 30
0.0
  9
$PUCSORTHOREF
  2

  9
$PUCSORTHOVIEW
 70
0
  9
$PUCSORGTOP
 10
0.0
 20
0.0
 30
0.0
  9
$PUCSORGBOTTOM
 10
0.0
 20
0.0
 30
0.0
  9
$PUCSORGLEFT
 10
0.0
 20
0.0
 30
0.0
  9
$PUCSORGRIGHT
 10
0.0
 20
0.0
 30
0.0
  9
$PUCSORGFRONT
 10
0.0
 20
0.0
 30
0.0
  9
$PUCSORGBACK
 10
0.0
 20
0.0
 30
0.0
  9
$USERI1
 70
0
  9
$USERI2
 70
0
  9
$USERI3
 70
0
  9
$USERI4
 70
0
  9
$USERI5
 70
0
  9
$USERR1
 40
0.0
  9
$USERR2
 40
0.0
  9
$USERR3
 40
0.0
  9
$USERR4
 40
0.0
  9
$USERR5
 40
0.0
  9
$WORLDVIEW
 70
1
  9
$SHADEDGE
 70
3
  9
$SHADEDIF
 70
70
  9
$TILEMODE
 70
1
  9
$MAXACTVP
 70
64
  9
$PINSBASE
 10
0.0
 20
0.0
 30
0.0
  9
$PLIMCHECK
 70
0
  9
$PEXTMIN
 10
1e+20
 20
1e+20
 30
1e+20
  9
$PEXTMAX
 10
-1e+20
 20
-1e+20
 30
-1e+20
  9
$PLIMMIN
 10
0.0
 20
0.0
  9
$PLIMMAX
 10
420.0
 20
297.0
  9
$UNITMODE
 70
0
  9
$VISRETAIN
 70
1
  9
$PLINEGEN
 70
0
  9
$PSLTSCALE
 70
1
  9
$TREEDEPTH
 70
3020
  9
$CMLSTYLE
  2
Standard
  9
$CMLJUST
 70
0
  9
$CMLSCALE
 40
20.0
  9
$PROXYGRAPHICS
 70
1
  9
$MEASUREMENT
 70
1
  9
$CELWEIGHT
370
-1
  9
$ENDCAPS
280
0
  9
$JOINSTYLE
280
0
  9
$LWDISPLAY
290
0
  9
$INSUNITS
 70
6
  9
$HYPERLINKBASE
  1

  9
$STYLESHEET
  1

  9
$XEDIT
290
1
  9
$CEPSNTYPE
380
0
  9
$PSTYLEMODE
290
1
  9
$FINGERPRINTGUID
  2
{09731BFB-821A-4ECB-8CBD-60B213EEA379}
  9
$VERSIONGUID
  2
{DE8B5A34-C4E3-4FA6-9ED0-02524A17CBFB}
  9
$EXTNAMES
290
1
  9
$PSVPSCALE
 40
0.0
  9
$OLESTARTUP
290
0
  0
ENDSEC
  0
SECTION
  2
CLASSES
  0
CLASS
  1
ACDBDICTIONARYWDFLT
  2
AcDbDictionaryWithDefault
  3
ObjectDBX Classes
 90
0
280
0
281
0
  0
CLASS
  1
SUN
  2
AcDbSun
  3
SCENEOE
 90
1153
280
0
281
0
  0
CLASS
  1
VISUALSTYLE
  2
AcDbVisualStyle
  3
ObjectDBX Classes
 90
4095
280
0
281
0
  0
CLASS
  1
MATERIAL
  2
AcDbMaterial
  3
ObjectDBX Classes
 90
1153
280
0
281
0
  0
CLASS
  1
SCALE
  2
AcDbScale
  3
ObjectDBX Classes
 90
1153
280
0
281
0
  0
CLASS
  1
TABLESTYLE
  2
AcDbTableStyle
  3
ObjectDBX Classes
 90
4095
280
0
281
0
  0
CLASS
  1
MLEADERSTYLE
  2
AcDbMLeaderStyle
  3
ACDB_MLEADERSTYLE_CLASS
 90
4095
280
0
281
0
  0
CLASS
  1
DICTIONARYVAR
  2
AcDbDictionaryVar
  3
ObjectDBX Classes
 90
0
280
0
281
0
  0
CLASS
  1
CELLSTYLEMAP
  2
AcDbCellStyleMap
  3
ObjectDBX Classes
 90
1152
280
0
281
0
  0
CLASS
  1
MENTALRAYRENDERSETTINGS
  2
AcDbMentalRayRenderSettings
  3
SCENEOE
 90
1024
280
0
281
0
  0
CLASS
  1
ACDBDETAILVIEWSTYLE
  2
AcDbDetailViewStyle
  3
ObjectDBX Classes
 90
1025
280
0
281
0
  0
CLASS
  1
ACDBSECTIONVIEWSTYLE
  2
AcDbSectionViewStyle
  3
ObjectDBX Classes
 90
1025
280
0
281
0
  0
CLASS
  1
RASTERVARIABLES
  2
AcDbRasterVariables
  3
ISM
 90
0
280
0
281
0
  0
CLASS
  1
ACDBPLACEHOLDER
  2
AcDbPlaceHolder
  3
ObjectDBX Classes
 90
0
280
0
281
0
  0
CLASS
  1
LAYOUT
  2
AcDbLayout
  3
ObjectDBX Classes
 90
0
280
0
281
0
  0
ENDSEC
  0
SECTION
  2
TABLES
  0
TABLE
  2
VPORT
  5
8
330
0
100
AcDbSymbolTable
 70
1
  0
VPORT
  5
23
330
8
100
AcDbSymbolTableRecord
100
AcDbViewportTableRecord
  2
*Active
 70
0
 10
0.0
 20
0.0
 11
1.0
 21
1.0
 12
0.0
 22
0.0
 13
0.0
 23
0.0
 14
0.5
 24
0.5
 15
0.5
 25
0.5
 16
0.0
 26
0.0
 36
1.0
 17
0.0
 27
0.0
 37
0.0
 40
1000.0
 41
1.34
 42
50.0
 43
0.0
 44
0.0
 50
0.0
 51
0.0
 71
0
 72
1000
 73
1
 74
3
 75
0
 76
0
 77
0
 78
0
281
0
 65
0
146
0.0
  0
ENDTAB
  0
TABLE
  2
LTYPE
  5
2
330
0
100
AcDbSymbolTable
 70
3
  0
LTYPE
  5
24
330
2
100
AcDbSymbolTableRecord
100
AcDbLinetypeTableRecord
  2
ByBlock
 70
0
  3

 72
65
 73
0
 40
0.0
  0
LTYPE
  5
25
330
2
100
AcDbSymbolTableRecord
100
AcDbLinetypeTableRecord
  2
ByLayer
 70
0
  3

 72
65
 73
0
 40
0.0
  0
LTYPE
  5
26
330
2
100
AcDbSymbolTableRecord
100
AcDbLinetypeTableRecord
  2
Continuous
 70
0
  3

 72
65
 73
0
 40
0.0
  0
ENDTAB
  0
TABLE
  2
LAYER
  5
1
330
0
100
AcDbSymbolTable
 70
2
  0
LAYER
  5
27
330
1
100
AcDbSymbolTableRecord
100
AcDbLayerTableRecord
  2
0
 70
0
 62
7
  6
Continuous
370
-3
390
13
  0
LAYER
  5
28
330
1
100
AcDbSymbolTableRecord
100
AcDbLayerTableRecord
  2
Defpoints
 70
0
 62
7
  6
Continuous
290
0
370
-3
390
13
  0
ENDTAB
  0
TABLE
  2
STYLE
  5
5
330
0
100
AcDbSymbolTable
 70
1
  0
STYLE
  5
29
330
5
100
AcDbSymbolTableRecord
100
AcDbTextStyleTableRecord
  2
Standard
 70
0
 40
0.0
 41
1.0
 50
0.0
 71
0
 42
2.5
  3
txt
  4

  0
ENDTAB
  0
TABLE
  2
VIEW
  5
7
330
0
100
AcDbSymbolTable
 70
0
  0
ENDTAB
  0
TABLE
  2
UCS
  5
6
330
0
100
AcDbSymbolTable
 70
0
  0
ENDTAB
  0
TABLE
  2
APPID
  5
3
330
0
100
AcDbSymbolTable
 70
3
  0
APPID
  5
2A
330
3
100
AcDbSymbolTableRecord
100
AcDbRegAppTableRecord
  2
ACAD
 70
0
  0
APPID
  5
30
330
3
100
AcDbSymbolTableRecord
100
AcDbRegAppTableRecord
  2
HATCHBACKGROUNDCOLOR
 70
0
  0
APPID
  5
31
330
3
100
AcDbSymbolTableRecord
100
AcDbRegAppTableRecord
  2
EZDXF
 70
0
  0
ENDTAB
  0
TABLE
  2
DIMSTYLE
  5
4
330
0
100
AcDbSymbolTable
 70
1
100
AcDbDimStyleTable
  0
DIMSTYLE
105
2B
330
4
100
AcDbSymbolTableRecord
100
AcDbDimStyleTableRecord
  2
Standard
 70
0
  3

  4

 40
1.0
 41
2.5
 42
0.625
 43
3.75
 44
1.25
 45
0.0
 46
0.0
 47
0.0
 48
0.0
140
2.5
141
2.5
142
0.0
143
0.03937007874
144
1.0
145
0.0
146
1.0
147
0.625
148
0.0
 71
0
 72
0
 73
0
 74
0
 75
0
 76
0
 77
1
 78
8
 79
3
170
0
171
3
172
1
173
0
174
0
175
0
176
0
177
0
178
0
179
2
271
2
272
2
273
2
274
3
275
0
276
0
277
2
278
44
279
0
280
0
281
0
282
0
283
0
284
8
285
0
286
0
288
0
289
3
371
-2
372
-2
  0
ENDTAB
  0
TABLE
  2
BLOCK_RECORD
  5
9
330
0
100
AcDbSymbolTable
 70
2
  0
BLOCK_RECORD
  5
17
330
9
100
AcDbSymbolTableRecord
100
AcDbBlockTableRecord
  2
*Model_Space
340
1A
  0
BLOCK_RECORD
  5
1B
330
9
100
AcDbSymbolTableRecord
100
AcDbBlockTableRecord
  2
*Paper_Space
340
1E
  0
ENDTAB
  0
ENDSEC
  0
SECTION
  2
BLOCKS
  0
BLOCK
  5
18
330
17
100
AcDbEntity
  8
0
100
AcDbBlockBegin
  2
*Model_Space
 70
0
 10
0.0
 20
0.0
 30
0.0
  3
*Model_Space
  1

  0
ENDBLK
  5
19
330
17
100
AcDbEntity
  8
0
100
AcDbBlockEnd
  0
BLOCK
  5
1C
330
1B
100
AcDbEntity
  8
0
100
AcDbBlockBegin
  2
*Paper_Space
 70
0
 10
0.0
 20
0.0
 30
0.0
  3
*Paper_Space
  1

  0
ENDBLK
  5
1D
330
1B
100
AcDbEntity
  8
0
100
AcDbBlockEnd
  0
ENDSEC
  0
SECTION
  2
ENTITIES
  0
LWPOLYLINE
  5
2F
330
17
100
AcDbEntity
  8
0
100
AcDbPolyline
 90
3601
 70
1
 10
237.64529173927832
 20
0.0
 10
237.64528182941422
 20
-0.1479568497081475
 10
237.64456996107123
 20
-0.5631433388177859
 10
237.6431780765576
 20
-0.9783281056462106
 10
237.64111023202207
 20
-1.393510056627811
 10
237.63837045810718
 20
-1.8086881178234677
 10
237.63496277672292
 20
-2.2238612347456295
 10
237.63089124358766
 20
-2.639028372613506
 10
237.62615988934527
 20
-3.0541885157906608
 10
237.62615988934527
 20
-3.0541885157906608
 10
237.62077000547956
 20
-3.469340631161171
 10
237.61471211325983
 20
-3.8844835346495508
 10
237.60797399965924
 20
-4.299615953062704
 10
237.60054343203868
 20
-4.714736552705471
 10
237.5924082159128
 20
-5.1298439392917174
 10
237.58355615706705
 20
-5.544936656324101
 10
237.5739750438346
 20
-5.960013183566463
 10
237.56365267673243
 20
-6.37507193654092
 10
237.55257688823298
 20
-6.79011126606651
 10
237.54073549552817
 20
-7.205129456043834
 10
237.5281165248611
 20
-7.620124729180565
 10
237.51471528909863
 20
-8.035095477907687
 10
237.50053563656564
 20
-8.450040357908149
 10
237.4855818847739
 20
-8.864958062819376
 10
237.46985839772395
 20
-9.279847311944172
 10
237.45336952460227
 20
-9.69470684804968
 10
237.43611958885396
 20
-10.109535436626327
 10
237.4181129300141
 20
-10.524331867368996
 10
237.39935390158115
 20
-10.939094954090683
 10
237.37984683042947
 20
-11.353823532767187
 10
237.35959603124135
 20
-11.768516461879967
 10
237.33860585939112
 20
-12.18317262489967
 10
237.31688064186304
 20
-12.597790926835346
 10
237.2944246712365
 20
-13.012370293519043
 10
237.27124229936345
 20
-13.42690967649504
 10
237.2473378451224
 20
-13.841408048010168
 10
237.2227156003358
 20
-14.255864400953001
 10
237.19737988947432
 20
-14.67027775219465
 10
237.17133491946902
 20
-15.084647133199237
 10
237.1445823146515
 20
-15.498971429426188
 10
237.1171211350071
 20
-15.913249364855007
 10
237.08895034896102
 20
-16.327479652071165
 10
237.06006890246806
 20
-16.74166099635737
 10
237.0304757269926
 20
-17.155792096052597
 10
237.00016980179035
 20
-17.569871647014775
 10
236.96915008073464
 20
-17.983898337464275
 10
236.93741548992313
 20
-18.3978708475534
 10
236.9049650104381
 20
-18.811787855659713
 10
236.8717976022618
 20
-19.22564803267579
 10
236.83791220341254
 20
-19.63945004172794
 10
236.80330778028238
 20
-20.05319254221212
 10
236.76798330519824
 20
-20.46687418808041
 10
236.73193772873776
 20
-20.880493625429775
 10
236.6951700028036
 20
-21.29404949435546
 10
236.65767911273107
 20
-21.70754043187495
 10
236.61946402224666
 20
-22.120965067059235
 10
236.58052371421056
 20
-22.53432202467679
 10
236.5408580011368
 20
-22.947610003242314
 10
236.5004673087789
 20
-23.360827759439392
 10
236.45935205762248
 20
-23.773974050998707
 10
236.4175127100798
 20
-24.18704764145882
 10
236.37494971827226
 20
-24.60004729509919
 10
236.33166351070952
 20
-25.01297177542985
 10
236.28765453075667
 20
-25.42581984910614
 10
236.24292323844867
 20
-25.83859028624823
 10
236.1974700701194
 20
-26.251281856095847
 10
236.1512954501476
 20
-26.663893328112508
 10
236.10439984627953
 20
-27.076423478207687
 10
236.05678370049856
 20
-27.488871081067952
 10
236.008447424218
 20
-27.901234909350727
 10
235.95939148672414
 20
-28.313513744005434
 10
235.90961633066573
 20
-28.725706364495657
 10
235.85912237496834
 20
-29.137811548912655
 10
235.80791006981843
 20
-29.54982808063812
 10
235.75597985034295
 20
-29.961754742735117
 10
235.7033319359527
 20
-30.373590292136896
 10
235.64996641774638
 20
-30.785333469488712
 10
235.59588341106002
 20
-31.196983018261882
 10
235.541083008156
 20
-31.60853767861535
 10
235.4855652800553
 20
-32.01999618742746
 10
235.42933035125958
 20
-32.43135728837665
 10
235.37237831792496
 20
-32.84261972100017
 10
235.31470924966405
 20
-33.25378222068411
 10
235.25632326424574
 20
-33.66484352909163
 10
235.19722046353237
 20
-34.07580238530914
 10
235.13740092643258
 20
-34.48665752465975
 10
235.0768647533613
 20
-34.89740768507828
 10
235.01561205549368
 20
-35.30805160567851
 10
234.9536429210824
 20
-35.718588021722155
 10
234.89095743323668
 20
-36.12901566713279
 10
234.82755571249658
 20
-36.539333281054176
 10
234.7634378564988
 20
-36.94953959868792
 10
234.69860393952243
 20
-37.3596333510005
 10
234.6330541835676
 20
-37.769613291931655
 10
234.56678882675217
 20
-38.17947817816561
 10
234.49980808467305
 20
-38.58922676288429
 10
234.43211221010503
 20
-38.99885780547301
 10
234.36370145045396
 20
-39.408370064697124
 10
234.29457603003425
 20
-39.817762295633834
 10
234.22473618376557
 20
-40.22703325523381
 10
234.15418216774768
 20
-40.636181704238155
 10
234.0829142149944
 20
-41.045206399604716
 10
234.01093254262355
 20
-41.45410609556076
 10
233.93823741541215
 20
-41.862879554808515
 10
233.86482907156622
 20
-42.27152553554123
 10
233.79070772093738
 20
-42.68004279086697
 10
233.7158736264855
 20
-43.08843008354225
 10
233.6403270297865
 20
-43.49668617258814
 10
233.5640681494052
 20
-43.90480981277976
 10
233.48709723055006
 20
-44.31279976383956
 10
233.40941452442965
 20
-44.720654786715734
 10
233.33102026662044
 20
-45.128373639438635
 10
233.251914696419
 20
-45.53595508072904
 10
233.17209808462638
 20
-45.94339787548653
 10
233.09157067909828
 20
-46.35070078424869
 10
233.01033270157677
 20
-46.75786256233609
 10
232.92838443163697
 20
-47.16488197658159
 10
232.8457261190033
 20
-47.57175778795085
 10
232.7623579886718
 20
-47.97848875231369
 10
232.67828030821676
 20
-48.38507363418704
 10
232.59349333431823
 20
-48.791511195907134
 10
232.50799730080823
 20
-49.19780019499192
 10
232.42179245773906
 20
-49.603939392248954
 10
232.3348790706121
 20
-50.00992755174584
 10
232.24725738210222
 20
-50.415763432640276
 10
232.1589276248006
 20
-50.821445791745774
 10
232.06989007303915
 20
-51.226973394853474
 10
231.98014497673822
 20
-51.63234500239599
 10
231.88969256072494
 20
-52.03755936905704
 10
231.79853313812447
 20
-52.44261526912024
 10
231.70666700681994
 20
-52.84751147363524
 10
231.6140944419277
 20
-53.25224674853201
 10
231.52081575054876
 20
-53.65681986707371
 10
231.4268312392729
 20
-54.061229602557404
 10
231.33214119191743
 20
-54.465474723062655
 10
231.23674589806367
 20
-54.869553997993
 10
231.1406456729793
 20
-55.27346620287606
 10
231.0438408091796
 20
-55.67721010792962
 10
230.94633157879196
 20
-56.080784478413385
 10
230.8481183057608
 20
-56.48418809207461
 10
230.7492012862674
 20
-56.88741972001986
 10
230.64958079015042
 20
-57.290478126798526
 10
230.54925713493654
 20
-57.69336208865022
 10
230.44823062185415
 20
-58.0960703778234
 10
230.34650152948907
 20
-58.498601760803034
 10
230.2440701579912
 20
-58.90095500938311
 10
230.14093682163926
 20
-59.30312889894003
 10
230.03710183361815
 20
-59.7051222045801
 10
229.9325655092847
 20
-60.10693370193971
 10
229.82732819980262
 20
-60.50856217603557
 10
229.7213902336993
 20
-60.91000640610935
 10
229.61475190898
 20
-61.311265163301364
 10
229.50741358541896
 20
-61.71233723513958
 10
229.39937559176363
 20
-62.11322140101028
 10
229.29063823398036
 20
-62.513916434101034
 10
229.1812018552126
 20
-62.91442111761462
 10
229.07106679262728
 20
-63.314734233193
 10
228.96023336087606
 20
-63.714854556252334
 10
228.84870188582687
 20
-64.11478086519784
 10
228.73647271331194
 20
-64.51451194398189
 10
228.62354616667372
 20
-64.91404657024036
 10
228.50992255458507
 20
-65.31338351730057
 10
228.39560223155104
 20
-65.71252157141703
 10
228.28058552645712
 20
-66.1114595115243
 10
228.1648727464868
 20
-66.51019611012002
 10
228.04846427634186
 20
-66.90873016209046
 10
227.93136048538153
 20
-67.30706045801236
 10
227.8135617205439
 20
-67.70518578189152
 10
227.69506835552963
 20
-68.10310492563023
 10
227.57588076825087
 20
-68.50081668249084
 10
227.45599931422458
 20
-68.89831983907374
 10
227.3354243499499
 20
-69.29561318220918
 10
227.21415626189207
 20
-69.69269550783436
 10
227.0921954141478
 20
-70.08956560513401
 10
226.96954214609937
 20
-70.48622225558731
 10
226.84619685276814
 20
-70.8826642577963
 10
226.72215990033115
 20
-71.27889040147869
 10
226.59743163065306
 20
-71.6748994686107
 10
226.47201242780594
 20
-72.07069025432415
 10
226.34590266453316
 20
-72.46626155018093
 10
226.219102691348
 20
-72.86161214054461
 10
226.0916128753084
 20
-73.2567408149021
 10
225.96343360522644
 20
-73.65164636970276
 10
225.83456527259645
 20
-74.04632760227531
 10
225.7050082650234
 20
-74.44078330864507
 10
225.5747630099178
 20
-74.83501229796046
 10
225.44382991114185
 20
-75.22901337175145
 10
225.31220934319856
 20
-75.6227853217412
 10
225.17990173800501
 20
-76.01632695880618
 10
225.04690750070884
 20
-76.40963708497438
 10
224.91322701433631
 20
-76.80271449473776
 10
224.77886069377857
 20
-77.19555799334249
 10
224.6438089526796
 20
-77.58816638566518
 10
224.5080721825926
 20
-77.98053846895709
 10
224.37165078147797
 20
-78.37267304255818
 10
224.2345451714818
 20
-78.76456891418471
 10
224.0967557526911
 20
-79.15622488383895
 10
223.95828290623362
 20
-79.54763974467984
 10
223.8191270627666
 20
-79.93881230725587
 10
223.6792886263125
 20
-80.32974137266007
 10
223.53876798377453
 20
-80.72042573568197
 10
223.39756559380982
 20
-81.11086421681705
 10
223.25568190282925
 20
-81.50105563230568
 10
223.11311733526782
 20
-81.89099879043053
 10
222.96987233723027
 20
-82.2806925073738
 10
222.82594736349134
 20
-82.670135602603
 10
222.681342846881
 20
-83.05932688753906
 10
222.53605921666173
 20
-83.44826517220876
 10
222.3900969359729
 20
-83.83694927929629
 10
222.24345644604108
 20
-84.2253780233504
 10
222.0961381593887
 20
-84.61355020796918
 10
221.94814254752293
 20
-85.00146465904369
 10
221.7994700522082
 20
-85.38912019121743
 10
221.65012109292365
 20
-85.77651561045923
 10
221.50009612595906
 20
-86.16364973678687
 10
221.34939560101742
 20
-86.55052138767631
 10
221.19801994605578
 20
-86.93712937203132
 10
221.0459696007675
 20
-87.3234725031634
 10
220.89324503269472
 20
-87.70954960528138
 10
220.73984671110978
 20
-88.09535950331008
 10
220.58577509554712
 20
-88.48090101827245
 10
220.43103068891816
 20
-88.86617298856488
 10
220.27561396961684
 20
-89.25117424290869
 10
220.11952538882662
 20
-89.63590359899278
 10
219.96276544939838
 20
-90.02035989542746
 10
219.8053346324608
 20
-90.40454196210948
 10
219.64723339752675
 20
-90.78844862003186
 10
219.48846223081676
 20
-91.1720787010995
 10
219.32902162175733
 20
-91.55543103859102
 10
219.1689120381953
 20
-91.9385044567943
 10
219.00813394983314
 20
-92.32129778063927
 10
218.8466878544017
 20
-92.70380984677816
 10
218.68457422808896
 20
-93.08603948278535
 10
218.5217935241949
 20
-93.46798550634803
 10
218.3583462487639
 20
-93.84964675748475
 10
218.19423288041844
 20
-94.2310220644974
 10
218.0294538843967
 20
-94.61211024975239
 10
217.86400979072792
 20
-94.99291016353294
 10
217.69790112077257
 20
-95.37342065252686
 10
217.53112837444615
 20
-95.75364055410625
 10
217.36369206844682
 20
-96.13356871297785
 10
217.19559273227648
 20
-96.5132039795801
 10
217.02683087402923
 20
-96.89254519494862
 10
216.85740699399008
 20
-97.27159119657182
 10
216.68732162980388
 20
-97.65034083862807
 10
216.51657529679778
 20
-98.02879296537759
 10
216.3451684818066
 20
-98.40694640811006
 10
216.17310172777866
 20
-98.78480002344817
 10
216.00037555102998
 20
-99.16235265598432
 10
215.82699044665998
 20
-99.53960314048112
 10
215.65294694133473
 20
-99.91655032606059
 10
215.478245559604
 20
-100.29319306086664
 10
215.30288680484136
 20
-100.66953018312795
 10
215.12687118762298
 20
-101.04556053423356
 10
214.95019925148932
 20
-101.42128297093038
 10
214.77287154112176
 20
-101.79669635055335
 10
214.5948885867378
 20
-102.17179952357772
 10
214.41625096502764
 20
-102.54659136256011
 10
214.23695922739296
 20
-102.92107072818906
 10
214.05701390017788
 20
-103.29523646911314
 10
213.87641555574902
 20
-103.66908745607137
 10
213.69516474957717
 20
-104.04262255177903
 10
213.51326201610686
 20
-104.41584060871482
 10
213.3307079115356
 20
-104.78874048986935
 10
213.14750299939794
 20
-105.16132106186403
 10
212.9636478222436
 20
-105.53358118099874
 10
212.77914292022987
 20
-105.9055197022537
 10
212.59398886496226
 20
-106.27713549614832
 10
212.4081862071034
 20
-106.64842742279589
 10
212.22173547090276
 20
-107.01939432890593
 10
212.03463723604594
 20
-107.39003508888908
 10
211.8468920542243
 20
-107.7603485630608
 10
211.65850046650334
 20
-108.13033360617636
 10
211.46946307183117
 20
-108.49998910236631
 10
211.27978046434458
 20
-108.86931393346741
 10
211.08945321735146
 20
-109.23830697067642
 10
210.89848191630705
 20
-109.6069670914251
 10
210.70686716323547
 20
-109.97529318180761
 10
210.51460953937456
 20
-110.3432841171934
 10
210.3217096142629
 20
-110.71093876676123
 10
210.12816799781427
 20
-111.0782560208519
 10
209.93398527691116
 20
-111.44523475778418
 10
209.73916201217713
 20
-111.81187384186545
 10
209.54369881455483
 20
-112.17817216403371
 10
209.3475962732646
 20
-112.54412860372325
 10
209.150854956958
 20
-112.90974202922936
 10
208.95347546081007
 20
-113.2750113229633
 10
208.75545838203337
 20
-113.63993536842362
 10
208.55680429731777
 20
-114.00451303788739
 10
208.35751378630883
 20
-114.36874320503668
 10
208.15758746550554
 20
-114.73262476363308
 10
207.95702595235778
 20
-115.09615660802956
 10
207.75582984597912
 20
-115.4593376224357
 10
207.55399979453787
 20
-115.82216671825813
 10
207.35153642035232
 20
-116.18464279272493
 10
207.148440322825
 20
-116.54676473022512
 10
206.9447121418853
 20
-116.90853143783302
 10
206.74035250512793
 20
-117.26994181580993
 10
206.53536201979324
 20
-117.63099475288605
 10
206.32974131016783
 20
-117.99168914737622
 10
206.12349101164276
 20
-118.35202390395624
 10
205.91661173930166
 20
-118.71199791568861
 10
205.7091041019335
 20
-119.07161007187523
 10
205.50096874273333
 20
-119.43085928159853
 10
205.2922062841002
 20
-119.78974444193362
 10
205.0828173210815
 20
-120.14826443385502
 10
204.87280250307842
 20
-120.50641816990847
 10
204.66216245326487
 20
-120.86420454729972
 10
204.45089778550522
 20
-121.22162245758393
 10
204.23900916519568
 20
-121.57867082267452
 10
204.02649725686052
 20
-121.93534856412822
 10
203.81336270489282
 20
-122.29165459157736
 10
203.59960616149314
 20
-122.64758781928958
 10
203.3852282987871
 20
-123.00314717356791
 10
203.17022976881685
 20
-123.35833156870926
 10
202.95461120842774
 20
-123.71313990972658
 10
202.73837329734977
 20
-124.06757112765898
 10
202.52151669177434
 20
-124.42162413930768
 10
202.30404202385552
 20
-124.7752978466327
 10
202.08594997042127
 20
-125.1285911789489
 10
201.86724119122465
 20
-125.48150305510862
 10
201.64791632617883
 20
-125.83403238155803
 10
201.42797603692247
 20
-126.18617807809385
 10
201.20742099092755
 20
-126.53793906812835
 10
200.9862518358771
 20
-126.88931426258884
 10
200.7644692184765
 20
-127.24030257156954
 10
200.5420738257234
 20
-127.59090293052623
 10
200.31906634744513
 20
-127.9411142768034
 10
200.095447452209
 20
-128.29093553419645
 10
199.87121785966116
 20
-128.64036565918474
 10
199.64637826324807
 20
-128.98940359167244
 10
199.42092933560622
 20
-129.33804825814357
 10
199.19487178458724
 20
-129.686298607827
 10
198.9682063099548
 20
-130.0341535848492
 10
198.74093359186114
 20
-130.38161212056932
 10
198.5130543230766
 20
-130.72867315452157
 10
198.2845692108336
 20
-131.07533563577735
 10
198.0554789428054
 20
-131.4215985005614
 10
197.8257841968405
 20
-131.76746067846898
 10
197.5954856876471
 20
-132.11292112350822
 10
197.3645841086618
 20
-132.45797877557868
 10
197.13308012826909
 20
-132.80263255764342
 10
196.9009744633674
 20
-133.1468814250912
 10
196.66826780936427
 20
-133.49072431887151
 10
196.43496085292406
 20
-133.83416017387444
 10
196.20105432779107
 20
-134.17718795689103
 10
195.9665489708488
 20
-134.51980663704222
 10
195.73144549961455
 20
-134.86201517031418
 10
195.49574463538048
 20
-135.20381251528283
 10
195.25944712226803
 20
-135.54519764636314
 10
195.0225536850855
 20
-135.88616952475607
 10
194.78506503034478
 20
-136.2267270988959
 10
194.54698190940766
 20
-136.56686934847954
 10
194.30830504978687
 20
-136.90659523668265
 10
194.06903515714572
 20
-137.2459037112463
 10
193.8291729763244
 20
-137.58479374745093
 10
193.58871923943863
 20
-137.9232643116761
 10
193.3476746595596
 20
-138.26131435670365
 10
193.1060399669247
 20
-138.5989428474166
 10
192.86381590101087
 20
-138.93614875530554
 10
192.62100318230588
 20
-139.27293103818724
 10
192.37760252668156
 20
-139.60928865035777
 10
192.13361469070674
 20
-139.9452205754787
 10
191.8890404316406
 20
-140.28072579784128
 10
191.64388048312804
 20
-140.61580328451805
 10
191.39813563070783
 20
-140.95045204057976
 10
191.1518066340383
 20
-141.28467105235367
 10
190.90489423394374
 20
-141.6184592922821
 10
190.6573992013487
 20
-141.9518157550511
 10
190.40932230303744
 20
-142.28473943242332
 10
190.16066428701535
 20
-142.61722930220014
 10
189.91142590976523
 20
-142.94928434844684
 10
189.66160794520093
 20
-143.2809035683513
 10
189.41121114851475
 20
-143.61208594506448
 10
189.1602362619218
 20
-143.9428304517966
 10
188.9086840664727
 20
-144.273136091153
 10
188.65655532167636
 20
-144.60300184942395
 10
188.40385076428956
 20
-144.93242669534126
 10
188.1505711738775
 20
-145.26140963031253
 10
187.89671731301107
 20
-145.58994964271005
 10
187.64228993518626
 20
-145.91804571376383
 10
187.38728983496048
 20
-146.24569685645832
 10
187.13171781354984
 20
-146.5729020891453
 10
186.8755746536628
 20
-146.89966041585882
 10
186.6188611380731
 20
-147.2259708406775
 10
186.3615780748848
 20
-147.5518323876954
 10
186.10372625375166
 20
-147.87724406661366
 10
185.84530644334518
 20
-148.20220487044628
 10
185.5863194586596
 20
-148.5267138290182
 10
185.3267660907512
 20
-148.85076995323652
 10
185.06664711100905
 20
-149.17437223817237
 10
184.80596332468326
 20
-149.49751970602085
 10
184.54471552839385
 20
-149.82021137211288
 10
184.2829045006032
 20
-150.14244623702064
 10
184.02053103265223
 20
-150.46422331163035
 10
183.75759592818332
 20
-150.78554161684073
 10
183.49409997274137
 20
-151.1064001587193
 10
183.23004394399373
 20
-151.42679793665866
 10
182.9654286615731
 20
-151.7467339845355
 10
182.7002549449317
 20
-152.06620733621736
 10
182.43452359236943
 20
-152.3852170080144
 10
182.16823544812726
 20
-152.70376205453604
 10
181.90139133525727
 20
-153.02184151294216
 10
181.63399205888075
 20
-153.3394544053612
 10
181.3660384493148
 20
-153.65659977510927
 10
181.09753133637545
 20
-153.97327666522614
 10
180.82847153200842
 20
-154.2894841036473
 10
180.55885985279335
 20
-154.60522112217086
 10
180.28869713531506
 20
-154.9204867697068
 10
180.01798419834878
 20
-155.23528007998877
 10
179.74672184492636
 20
-155.54960007307383
 10
179.4749109184081
 20
-155.86344580373455
 10
179.20255224054054
 20
-156.17681630812925
 10
178.92964661259887
 20
-156.48971060445302
 10
178.65619487312867
 20
-156.80212774323587
 10
178.38219784792355
 20
-157.11406676388586
 10
178.1076563538372
 20
-157.42552669783473
 10
177.83257124341338
 20
-157.736506607878
 10
177.5569433790194
 20
-158.04700556568264
 10
177.28077360544532
 20
-158.35702262747176
 10
177.00406276417502
 20
-158.6665568465148
 10
176.72681172408437
 20
-158.9756073006478
 10
176.44902133653434
 20
-159.28417305219173
 10
176.17069242964038
 20
-159.59225314247453
 10
175.89182587879029
 20
-159.89984665549076
 10
175.61242253555142
 20
-160.20695265384495
 10
175.33248323396975
 20
-160.51357018411724
 10
175.05200883684608
 20
-160.81969831904
 10
174.77100020213584
 20
-161.1253361269955
 10
174.48945817059314
 20
-161.43048266050423
 10
174.20738359185899
 20
-161.7351369801257
 10
173.92477733054193
 20
-162.0392981602462
 10
173.64164023411493
 20
-162.3429652593209
 10
173.35797313929768
 20
-162.64613732556003
 10
173.07377692561212
 20
-162.9488134471006
 10
172.78905247145948
 20
-163.25099271118333
 10
172.50380063644693
 20
-163.5526741873446
 10
172.21802232034094
 20
-163.85385698312453
 10
171.93171840614247
 20
-164.154540190421
 10
171.64488975989514
 20
-164.45472288501196
 10
171.35753726818922
 20
-164.75440416228045
 10
171.06966182040088
 20
-165.0535831204243
 10
170.78126428901362
 20
-165.35225884145203
 10
170.49234554764183
 20
-165.6504304083772
 10
170.20290649204222
 20
-165.94809692568722
 10
169.9129480011442
 20
-166.24525748161312
 10
169.62247093578895
 20
-166.5419111465883
 10
169.33147619812115
 20
-166.83805703138324
 10
169.03996466880477
 20
-167.133694225782
 10
168.74793721027294
 20
-167.42882180141683
 10
168.4553947169081
 20
-167.7234388613493
 10
168.1623380742753
 20
-168.0175444999153
 10
167.8687681593262
 20
-168.31113780275078
 10
167.57468587954432
 20
-168.60421788591688
 10
167.280092154948
 20
-168.89678387823147
 10
166.98498788897695
 20
-169.1888348920029
 10
166.68937397877443
 20
-169.4803700331661
 10
166.3932513504613
 20
-169.77138843711086
 10
166.09662091283312
 20
-170.06188922181818
 10
165.79948355289105
 20
-170.35187148294943
 10
165.5018402004237
 20
-170.64133435996033
 10
165.2036917649858
 20
-170.9302769717124
 10
164.90503913988726
 20
-171.21869842022923
 10
164.60588324234752
 20
-171.5065978321828
 10
164.30622498816956
 20
-171.79397433285553
 10
164.00606527697943
 20
-172.08082703062664
 10
163.70540501363865
 20
-172.36715503918154
 10
163.4042451202073
 20
-172.65295749021845
 10
163.10258650263805
 20
-172.9382334984678
 10
162.80043005367966
 20
-173.22298216446288
 10
162.49777670927264
 20
-173.50720263442588
 10
162.19462740332432
 20
-173.79089405258856
 10
161.89098305319254
 20
-174.0740555455079
 10
161.58684461083627
 20
-174.3566862768767
 10
161.2822130155571
 20
-174.63878539703674
 10
160.97708919073818
 20
-174.92035203918468
 10
160.67147407596366
 20
-175.20138535404146
 10
160.36536861649603
 20
-175.48188449864213
 10
160.05877374174827
 20
-175.76184861281195
 10
159.75169037914296
 20
-176.04127683410076
 10
159.444119479909
 20
-176.3201683262279
 10
159.13606197949596
 20
-176.5985222356388
 10
158.8275187933802
 20
-176.87633768651492
 10
158.51849087876522
 20
-177.15361384925316
 10
158.2089791717214
 20
-177.43034987083547
 10
157.89898459226998
 20
-177.7065448801133
 10
157.5885080873261
 20
-177.98219803592335
 10
157.2775505985692
 20
-178.2573084912243
 10
156.96611305953869
 20
-178.53187538966293
 10
156.65419642937078
 20
-178.80589790380756
 10
156.34180168195394
 20
-179.0793752231949
 10
156.0289297756605
 20
-179.35230651985086
 10
155.7155816599968
 20
-179.6246909556241
 10
155.40175831452245
 20
-179.8965277269989
 10
155.08746070160478
 20
-180.16781601085836
 10
154.77268976424912
 20
-180.4385549615889
 10
154.45744648245054
 20
-180.70874377652967
 10
154.14173182026659
 20
-180.97838163463646
 10
153.8255467265927
 20
-181.24746769704743
 10
153.50889216969503
 20
-181.51600114754265
 10
153.19176911945732
 20
-181.7839811718843
 10
152.87417853067342
 20
-182.05140693795573
 10
152.55612136010336
 20
-182.31827761578947
 10
152.2375985834669
 20
-182.584592397949
 10
151.91861116146669
 20
-182.8503504590592
 10
151.59916003961123
 20
-183.11555095525375
 10
151.27924620651376
 20
-183.38019309441972
 10
150.95887064792953
 20
-183.64427608118706
 10
150.63803433518797
 20
-183.9077991027013
 10
150.31673826893262
 20
-184.17076138183032
 10
149.99498344090009
 20
-184.4331621308336
 10
149.6727708280101
 20
-184.69500054386663
 10
149.35010141938304
 20
-184.9562758300636
 10
149.02697621227787
 20
-185.21698720874377
 10
148.70339618920957
 20
-185.47713388106203
 10
148.3793623280006
 20
-185.73671504223324
 10
148.05487563143876
 20
-185.99572991862766
 10
147.7299370872063
 20
-186.25417771784348
 10
147.40454766336077
 20
-186.51205762263717
 10
147.0787083669215
 20
-186.76936886477964
 10
146.7524201860838
 20
-187.0261106523525
 10
146.425684094665
 20
-187.2822821749814
 10
146.09850108863148
 20
-187.53788265032563
 10
145.77087216190304
 20
-187.79291129342855
 10
145.44279830085338
 20
-188.04736730953806
 10
145.11428051279225
 20
-188.30124993077087
 10
144.78531982147382
 20
-188.5545584106977
 10
144.45591723625992
 20
-188.80729198444524
 10
144.12607375553307
 20
-189.05944987281458
 10
143.79579040826505
 20
-189.31103133667125
 10
143.4650682065766
 20
-189.56203561503588
 10
143.13390814559295
 20
-189.8124619244727
 10
142.80231125191125
 20
-190.06230952310358
 10
142.47027854012518
 20
-190.3115776533338
 10
142.1378110108082
 20
-190.56026553884064
 10
141.8049096797162
 20
-190.80837242346726
 10
141.4715755668237
 20
-191.0558975567825
 10
141.1378096781608
 20
-191.30284016957106
 10
140.80361301887652
 20
-191.54919949122294
 10
140.46898661433602
 20
-191.79497477846655
 10
140.13393147603682
 20
-192.04016526919096
 10
139.79844859878568
 20
-192.28477017819935
 10
139.46253901988678
 20
-192.52878877838424
 10
139.12620377307525
 20
-192.77222033794936
 10
138.7894438796537
 20
-193.01506410794752
 10
138.4522603852711
 20
-193.25731937322522
 10
138.11465433002087
 20
-193.4989854111792
 10
137.77662674033823
 20
-193.74006148021374
 10
137.43817865124765
 20
-193.98054685073566
 10
137.09931110790396
 20
-194.22044080753898
 10
136.76002514188048
 20
-194.45974261636985
 10
136.420321777814
 20
-194.69845153302361
 10
136.08020206592766
 20
-194.93656684968343
 10
135.73966704167182
 20
-195.17408783760763
 10
135.39871772333953
 20
-195.41101374327855
 10
135.05735516242535
 20
-195.64734386079598
 10
134.71558039573048
 20
-195.88307746318065
 10
134.37339444685793
 20
-196.11821380413716
 10
134.0307983571711
 20
-196.35275216297765
 10
133.68779316874264
 20
-196.58669182003825
 10
133.34437991679522
 20
-196.8200320455201
 10
133.0005596531506
 20
-197.05277213391707
 10
132.65633344722215
 20
-197.28491140588514
 10
132.31170235520935
 20
-197.51644916277527
 10
131.9666674207104
 20
-197.7473846871612
 10
131.62122971788088
 20
-197.97771730731156
 10
131.27539030458206
 20
-198.2074463273725
 10
130.92915022396386
 20
-198.43657102928117
 10
130.58251054545477
 20
-198.6650907346176
 10
130.23547233001278
 20
-198.8930047523295
 10
129.88803662577206
 20
-199.12031237179986
 10
129.5402044922515
 20
-199.3470128996677
 10
129.19197699532305
 20
-199.573105652373
 10
128.84335518811332
 20
-199.79858992673897
 10
128.4943401204773
 20
-200.02346501430472
 10
128.14493286321033
 20
-200.24773023899866
 10
127.79513447430911
 20
-200.4713849048723
 10
127.44494599464106
 20
-200.694428288883
 10
127.09436850560185
 20
-200.9168597313858
 10
126.74340308497356
 20
-201.1386785672981
 10
126.39205079983162
 20
-201.35988411463407
 10
126.0403127369911
 20
-201.5804757227949
 10
125.68818998062753
 20
-201.8004527372651
 10
125.3356836024704
 20
-202.01981448372302
 10
124.98279467965223
 20
-202.238560296482
 10
124.62952430092909
 20
-202.45668952873135
 10
124.27587354269028
 20
-202.6742015138036
 10
123.92184347263311
 20
-202.8910955707685
 10
123.56743518410093
 20
-203.10737106051238
 10
123.21264975620906
 20
-203.32302732081288
 10
122.85748825329497
 20
-203.538063664949
 10
122.50195176747143
 20
-203.75247945189278
 10
122.14604137988208
 20
-203.9662740225694
 10
121.78975815970414
 20
-204.17944669780337
 10
121.43310318988186
 20
-204.3919968211631
 10
121.07607755635817
 20
-204.6039237412173
 10
120.71868233900032
 20
-204.81522679622026
 10
120.36091863031182
 20
-205.025905345647
 10
120.0027875409728
 20
-205.2359587800134
 10
119.64429016967924
 20
-205.44538646974516
 10
119.28542760142317
 20
-205.6541877617822
 10
118.92620095113251
 20
-205.86236205453991
 10
118.56661131821804
 20
-206.06990872001916
 10
118.20665978956393
 20
-206.27682710845588
 10
117.84634747350837
 20
-206.48311660732935
 10
117.4856754730135
 20
-206.68877659494925
 10
117.12464487946305
 20
-206.8938064292998
 10
116.76325679225846
 20
-207.09820548231787
 10
116.40151231878866
 20
-207.301973140103
 10
116.03941255494622
 20
-207.50510876838277
 10
115.67695859145029
 20
-207.70761172340832
 10
115.31415154012659
 20
-207.90948139906607
 10
114.95099250052796
 20
-208.11071716727042
 10
114.58748255755778
 20
-208.31131837316732
 10
114.22362283052655
 20
-208.5112844239921
 10
113.85941443760645
 20
-208.71061472517792
 10
113.49485848725897
 20
-208.9093086644801
 10
113.12995610348123
 20
-209.1073656581917
 10
112.76470841007766
 20
-209.3047851225559
 10
112.39911651966662
 20
-209.50156645327297
 10
112.03318154754409
 20
-209.6977090509617
 10
111.66690462159518
 20
-209.8932123398463
 10
111.30028685860142
 20
-210.08807572356255
 10
110.93332936541437
 20
-210.2822985869149
 10
110.56603327400755
 20
-210.47588036210112
 10
110.19839970288764
 20
-210.66882045601344
 10
109.83042975805999
 20
-210.86111825152219
 10
109.4621245682546
 20
-211.05277317477706
 10
109.0934852545153
 20
-211.2437846372932
 10
108.72451292719624
 20
-211.4341520297794
 10
108.35520870685956
 20
-211.62387476242836
 10
107.98557371885853
 20
-211.81295225470123
 10
107.6156090832989
 20
-212.00138391574032
 10
107.24531592937939
 20
-212.18916917236743
 10
106.87469540448599
 20
-212.3763074874466
 10
106.50374864529829
 20
-212.56279830304393
 10
106.13247677423423
 20
-212.74864103282255
 10
105.76088094241608
 20
-212.9338351478008
 10
105.3889622864525
 20
-213.1183800902928
 10
105.01672193249422
 20
-213.30227528147853
 10
104.64416102373053
 20
-213.4855201769352
 10
104.27128070059734
 20
-213.66811422686845
 10
103.8980820932425
 20
-213.85005686047697
 10
103.52456633692795
 20
-214.0313475172575
 10
103.15073457601113
 20
-214.2119856554715
 10
102.77658794464705
 20
-214.39197071233247
 10
102.40212757043243
 20
-214.57130211112943
 10
102.02735460165725
 20
-214.74997931817748
 10
101.65227017507867
 20
-214.92800177571314
 10
101.27687541517598
 20
-215.1053688997398
 10
100.90117147510017
 20
-215.28208016664678
 10
100.52515950882683
 20
-215.45813505486566
 10
100.14884066165031
 20
-215.63353302438497
 10
99.77221609063501
 20
-215.8082735604813
 10
99.39528695459995
 20
-215.9823561525365
 10
99.01805440248175
 20
-216.1557802687326
 10
98.64051958366112
 20
-216.32854537814922
 10
98.2626836605214
 20
-216.50065097839294
 10
97.8845477856498
 20
-216.67209654582982
 10
97.50611310100716
 20
-216.84288153321927
 10
97.12738077254976
 20
-217.0130054463854
 10
96.74835195375017
 20
-217.18246776365558
 10
96.36902778773576
 20
-217.3512679400001
 10
95.98940943572511
 20
-217.51940547080463
 10
95.60949805405728
 20
-217.68687984057024
 10
95.22929478970151
 20
-217.85369051236623
 10
94.848800796742
 20
-218.01983696513275
 10
94.46801723532114
 20
-218.1853186915954
 10
94.08694526119424
 20
-218.35013517434083
 10
93.70558603612498
 20
-218.51428590965463
 10
93.3239407394973
 20
-218.67777043493913
 10
92.94201054078106
 20
-218.84058826493464
 10
92.55979659729772
 20
-219.00273888585363
 10
92.17730009006253
 20
-219.16422183976098
 10
91.79452218891082
 20
-219.32503664270303
 10
91.41146405463479
 20
-219.48518278915583
 10
91.02812686109394
 20
-219.64465980474426
 10
90.644511781516
 20
-219.80346721380826
 10
90.26061998017141
 20
-219.96160451908116
 10
89.87645262403362
 20
-220.11907122963447
 10
89.49201088973129
 20
-220.2758668780974
 10
89.10729594502439
 20
-220.43199097545653
 10
88.72230895026983
 20
-220.58744301411963
 10
88.33705108550818
 20
-220.74222253500366
 10
87.95152352020493
 20
-220.89632905284756
 10
87.56572741379667
 20
-221.04976205689232
 10
87.17966394905682
 20
-221.20252109471522
 10
86.7933343110222
 20
-221.3546057199239
 10
86.4067396771167
 20
-221.5060154669348
 10
86.0198812332419
 20
-221.6567498918472
 10
85.63276016847605
 20
-221.80680855926028
 10
85.24537766335683
 20
-221.9561910119993
 10
84.85773489715066
 20
-222.1048967895093
 10
84.46983306196968
 20
-222.25292546482476
 10
84.08167334147346
 20
-222.4002765891709
 10
83.6932569085648
 20
-222.54694968523245
 10
83.30458495839885
 20
-222.69294433447197
 10
82.915658674852
 20
-222.83826008868937
 10
82.52647923347902
 20
-222.9828964771663
 10
82.13704782374467
 20
-223.1268530663293
 10
81.74736563253629
 20
-223.27012941576064
 10
81.35743383872726
 20
-223.41272506306916
 10
80.96725362571075
 20
-223.55463955781386
 10
80.57682618365838
 20
-223.69587246805804
 10
80.18615269921534
 20
-223.83642335210163
 10
79.795234362455
 20
-223.97629177755078
 10
79.40407237992245
 20
-224.1154773582312
 10
79.01266794916913
 20
-224.25397968328167
 10
78.62102225792468
 20
-224.3917983140599
 10
78.22913651252536
 20
-224.52893286479502
 10
77.83701191131833
 20
-224.66538292740356
 10
77.44464964497152
 20
-224.80114807171068
 10
77.05205091372862
 20
-224.93622789508282
 10
76.6592169187949
 20
-225.0706219979292
 10
76.26614885378393
 20
-225.20432995853693
 10
75.87284791312263
 20
-225.33735135731342
 10
75.47931530088344
 20
-225.46968580315686
 10
75.08555221363666
 20
-225.60133288281318
 10
74.69155984026945
 20
-225.73229215963735
 10
74.29733938773168
 20
-225.8625632510159
 10
73.90289205357335
 20
-225.9921457460849
 10
73.50821902742979
 20
-226.12103920940692
 10
73.11332151735253
 20
-226.2492432615316
 10
72.7182007345569
 20
-226.37675753310035
 10
72.32285788376255
 20
-226.50358163484344
 10
71.92729417537812
 20
-226.62971519525806
 10
71.53151082386131
 20
-226.75515785592725
 10
71.13550903650534
 20
-226.8799092361705
 10
70.739290018159
 20
-227.00396894744225
 10
70.3428549857721
 20
-227.12733663993623
 10
69.94620514894645
 20
-227.25001194066982
 10
69.54934170806611
 20
-227.37199444661704
 10
69.1522658817643
 20
-227.49328381392473
 10
68.75497887991517
 20
-227.61387967049112
 10
68.35748190567391
 20
-227.73378162181197
 10
67.95977617241019
 20
-227.8529893068961
 10
67.561862892689
 20
-227.97150236218963
 10
67.16374327244829
 20
-228.0893204017098
 10
66.76541852007348
 20
-228.20644304724456
 10
66.36688985088225
 20
-228.32286994396003
 10
65.96815847750202
 20
-228.43860072784057
 10
65.56922561395552
 20
-228.55363503941265
 10
65.17009248900486
 20
-228.667972570512
 10
64.77076032355647
 20
-228.7816129862895
 10
64.371230330879
 20
-228.8945559250401
 10
63.97150373823045
 20
-229.00680107453516
 10
63.571581767559756
 20
-229.11834810423287
 10
63.17146563452821
 20
-229.22919666106546
 10
62.77115656138911
 20
-229.33934641558753
 10
62.37065577240252
 20
-229.44879704591497
 10
61.969964485632275
 20
-229.5575482076119
 10
61.56908391860774
 20
-229.66559955393765
 10
61.168015297910486
 20
-229.77295077166215
 10
60.766759844016384
 20
-229.87960152497973
 10
60.36531877001344
 20
-229.98555144977817
 10
59.96369330481504
 20
-230.09080024148182
 10
59.56188466933016
 20
-230.19534756523802
 10
59.15989407851201
 20
-230.29919306272686
 10
58.757722761228116
 20
-230.4023364289869
 10
58.3553719498615
 20
-230.50477737317362
 10
57.952842871472534
 20
-230.60651558384765
 10
57.550136756547666
 20
-230.7075507631619
 10
57.14725483993126
 20
-230.80788263107874
 10
56.74419835070641
 20
-230.9075108848942
 10
56.34096851489951
 20
-231.00643520939832
 10
55.93756656929516
 20
-231.10465533330495
 10
55.53399374442919
 20
-231.2021709602358
 10
55.1302512638861
 20
-231.29898176475473
 10
54.72634036466455
 20
-231.39508747711346
 10
54.32226227788103
 20
-231.4904878033329
 10
53.91801822934451
 20
-231.58518242665758
 10
53.5136094518953
 20
-231.67917105989957
 10
53.109037178792676
 20
-231.7724534177818
 10
52.7043026380808
 20
-231.8650291922295
 10
52.29940705872646
 20
-231.95689807855078
 10
51.89435167619816
 20
-232.04805980041553
 10
51.48913772405955
 20
-232.13851407312083
 10
51.083766435831606
 20
-232.22826061143806
 10
50.678239057461894
 20
-232.31729918648367
 10
50.27255682839771
 20
-232.40562954073914
 10
49.86672098247449
 20
-232.4932513909175
 10
49.46073276340406
 20
-232.58016449944753
 10
49.05459341173103
 20
-232.66636861468749
 10
48.648304163130376
 20
-232.7518634621225
 10
48.24186625741632
 20
-232.8366487866805
 10
47.83528093688912
 20
-232.920724345507
 10
47.42854943907189
 20
-233.0040898728547
 10
47.02167300016715
 20
-233.0867450960897
 10
46.614652864241215
 20
-233.16868978114212
 10
46.20749027057427
 20
-233.24992367052343
 10
45.80018645234652
 20
-233.33044647550187
 10
45.39274265509853
 20
-233.4102579692709
 10
44.98516011838271
 20
-233.4893578948152
 10
44.577440077488795
 20
-233.56774597242355
 10
44.169583777554834
 20
-233.64542197294165
 10
43.76159246707519
 20
-233.72238568535533
 10
43.35346739045197
 20
-233.7986368774376
 10
42.9452097938008
 20
-233.8741753261699
 10
42.53682092732336
 20
-233.94900083115215
 10
42.12830203688411
 20
-234.02311316900395
 10
41.719654365254655
 20
-234.0965120990948
 10
41.31087916401517
 20
-234.1691974298823
 10
40.90197767980775
 20
-234.24116894286448
 10
40.492951154427594
 20
-234.31242639163102
 10
40.08380083876234
 20
-234.38296958160663
 10
39.674527980151026
 20
-234.45279829824767
 10
39.26513382205588
 20
-234.5219123039486
 10
38.855619612325825
 20
-234.59031138646472
 10
38.44598659988424
 20
-234.65799534007337
 10
38.03623602987175
 20
-234.7249639359746
 10
37.62636914738729
 20
-234.79121694420766
 10
37.21638720300427
 20
-234.8567541682196
 10
36.806291446072315
 20
-234.92157540399927
 10
36.3960831250574
 20
-234.98568044150215
 10
35.98576349796296
 20
-235.04906913195688
 10
35.57533381786049
 20
-235.11174129607303
 10
35.16479533407239
 20
-235.17369673002628
 10
34.7541493022108
 20
-235.23493527163055
 10
34.34339697630956
 20
-235.29545674906382
 10
33.932539606968895
 20
-235.3552609673729
 10
33.52157844702964
 20
-235.41434774665785
 10
33.11051475172006
 20
-235.47271692397769
 10
32.69934977292783
 20
-235.53036831324647
 10
32.28808476101185
 20
-235.58730171680716
 10
31.87672097240491
 20
-235.64351698059812
 10
31.46525966001825
 20
-235.69901392534706
 10
31.053702072842395
 20
-235.7537923417584
 10
30.64204946769998
 20
-235.80785207849308
 10
30.23030309795349
 20
-235.86119295830795
 10
29.818464214141958
 20
-235.91381478116477
 10
29.40653407301356
 20
-235.96571739463477
 10
28.994513934003454
 20
-236.0169006683485
 10
28.582405053743955
 20
-236.06736445018157
 10
28.17020868943333
 20
-236.11710859267754
 10
27.757926101495627
 20
-236.16613297583882
 10
27.345558547459262
 20
-236.2144374564631
 10
26.933107282308324
 20
-236.26202186930436
 10
26.520573567279556
 20
-236.30888610329302
 10
26.10795866019296
 20
-236.3550300185992
 10
25.69526381595339
 20
-236.4004534487825
 10
25.282490294775126
 20
-236.44515627506638
 10
24.86963935509739
 20
-236.48913836316117
 10
24.45671225292953
 20
-236.5323995555194
 10
24.043710246580208
 20
-236.57493971553714
 10
23.630634595509346
 20
-236.6167587178285
 10
23.21748655684041
 20
-236.65785641374083
 10
22.804267387267938
 20
-236.69823264881427
 10
22.390978347329963
 20
-236.73788730706167
 10
21.977620696895766
 20
-236.77682026600382
 10
21.56419569483554
 20
-236.81503139184707
 10
21.150704606030292
 20
-236.85252061613818
 10
20.737148692254195
 20
-236.88928783859012
 10
20.32352921320415
 20
-236.92533293562582
 10
19.909847431836432
 20
-236.96065582096472
 10
19.496104610544354
 20
-236.9952564032632
 10
19.082302009738136
 20
-237.02913456787837
 10
18.668440890739475
 20
-237.0622902106746
 10
18.25452251657103
 20
-237.09472324924715
 10
17.840548148366878
 20
-237.12643357788392
 10
17.426519046105437
 20
-237.1574210745697
 10
17.01243647344852
 20
-237.18768566583734
 10
16.598301692008764
 20
-237.21722725128572
 10
16.184115961478213
 20
-237.24604570185886
 10
15.769880545403288
 20
-237.27414094216897
 10
15.355596705831205
 20
-237.3015128754225
 10
14.941265703423923
 20
-237.32816138207266
 10
14.52688880183347
 20
-237.354086387119
 10
14.112467266239817
 20
-237.37928784137154
 10
13.698002360360588
 20
-237.40376567343708
 10
13.283495347910709
 20
-237.42751981194792
 10
12.868947494377217
 20
-237.4505502178119
 10
12.454360063804975
 20
-237.47285682859814
 10
12.039734318834245
 20
-237.49443955504552
 10
11.62507152519567
 20
-237.51529836702468
 10
11.210372946931233
 20
-237.53543320393277
 10
10.79563984691752
 20
-237.554843979985
 10
10.38087349011881
 20
-237.5735306526246
 10
9.966075140922865
 20
-237.59149316837554
 10
9.55124606274199
 20
-237.6087314503992
 10
9.136387519776
 20
-237.62524543822744
 10
8.721500776864932
 20
-237.641035087336
 10
8.306587097967395
 20
-237.65610032983497
 10
7.89164774681105
 20
-237.67044108733467
 10
7.476683988717041
 20
-237.6840573248758
 10
7.061697088663407
 20
-237.69694899854252
 10
6.64668831128708
 20
-237.7091160511235
 10
6.231658922993907
 20
-237.720558485895
 10
5.8166101892526285
 20
-237.7312762788459
 10
5.401543374935876
 20
-237.741269382589
 10
4.986459745739166
 20
-237.750537782485
 10
4.571360567253555
 20
-237.75908146348442
 10
4.156247104568195
 20
-237.76690038715884
 10
3.7411206229608127
 20
-237.77399452094534
 10
3.3259823881548445
 20
-237.78036385875458
 10
2.9108336654671234
 20
-237.78600837111645
 10
2.4956757200481787
 20
-237.79092800753955
 10
2.0805098177654937
 20
-237.79512277089637
 10
1.6653372241338642
 20
-237.79859263549005
 10
1.2501592045864338
 20
-237.80133754846273
 10
0.834977025026598
 20
-237.80335750608995
 10
0.4197919512639511
 20
-237.80465248786533
 10
0.004605249168079297
 20
-237.8052224506916
 10
-0.4105818151870786
 20
-237.8050673926291
 10
-0.8257679757953981
 20
-237.80418734112166
 10
-1.2409519667028153
 20
-237.80258230109226
 10
-1.6561325219145275
 20
-237.80025227281817
 10
-2.0713083756859487
 20
-237.79719729357194
 10
-2.4864782622326533
 20
-237.79341737723718
 10
-2.901640915417345
 20
-237.78891250616283
 10
-3.316795069749378
 20
-237.78368272657917
 10
-3.7319394594702904
 20
-237.77772805263766
 10
-4.14707281840559
 20
-237.77104847483233
 10
-4.562193880910648
 20
-237.76364402227998
 10
-4.977301381279018
 20
-237.75551471782032
 10
-5.392394053295867
 20
-237.7466605609096
 10
-5.807470630863204
 20
-237.73708156274276
 10
-6.222529848318837
 20
-237.72677775512375
 10
-6.637570439397535
 20
-237.71574914647616
 10
-7.052591137255453
 20
-237.70399573008277
 10
-7.4675906762910635
 20
-237.69151754758178
 10
-7.8825677907203096
 20
-237.67831463322082
 10
-8.297521214359548
 20
-237.66438701101995
 10
-8.712449682901038
 20
-237.64973476078725
 10
-9.127351931412601
 20
-237.63435793967022
 10
-9.54222669410023
 20
-237.6182565814405
 10
-9.957072706224157
 20
-237.6014307479817
 10
-10.371888703301844
 20
-237.58388050539116
 10
-10.786673419894159
 20
-237.5656058963931
 10
-11.20142559053744
 20
-237.54660696495728
 10
-11.616143951188556
 20
-237.52688378612953
 10
-12.030827236752577
 20
-237.5064364115872
 10
-12.44547418075034
 20
-237.48526486739942
 10
-12.860083519567715
 20
-237.46336923756323
 10
-13.274653988071531
 20
-237.44074957599642
 10
-13.689184319592695
 20
-237.41740591103175
 10
-14.10367324981823
 20
-237.39333831547575
 10
-14.518119513734009
 20
-237.36854684997908
 10
-14.932521844861688
 20
-237.34303155273707
 10
-15.34687897884844
 20
-237.31679249886125
 10
-15.76118965350206
 20
-237.28982979681507
 10
-16.175452605271502
 20
-237.26214353247346
 10
-16.589666569964685
 20
-237.23373378249212
 10
-17.00383028626812
 20
-237.20460066502608
 10
-17.41794249127697
 20
-237.17474427362754
 10
-17.832001919787253
 20
-237.1441646708325
 10
-18.246007311032646
 20
-237.11286197995756
 10
-18.65995740222122
 20
-237.08083629580366
 10
-19.07385092868766
 20
-237.0480876898498
 10
-19.487686628360354
 20
-237.01461626753272
 10
-19.90146323907036
 20
-236.98042213259123
 10
-20.315179496681516
 20
-236.94550536545026
 10
-20.728834137524693
 20
-236.90986605369147
 10
-21.14242590004413
 20
-236.87350430999658
 10
-21.5559535206221
 20
-236.83642022374235
 10
-21.96941573370246
 20
-236.79861386468352
 10
-22.38281127841497
 20
-236.7600853553344
 10
-22.796138893128823
 20
-236.72083480955007
 10
-23.20939731532608
 20
-236.68086233257824
 10
-23.622585287427622
 20
-236.64016808069667
 10
-24.03570155024505
 20
-236.59875219213535
 10
-24.448744842271303
 20
-236.55661478183987
 10
-24.861713904356744
 20
-236.51375598822895
 10
-25.27460747833464
 20
-236.47017595843485
 10
-25.68742430362405
 20
-236.42587481631435
 10
-26.100163119214486
 20
-236.38085268245584
 10
-26.512822667949415
 20
-236.33510971289354
 10
-26.925401690165533
 20
-236.28864604039603
 10
-27.337898922699875
 20
-236.24146176775346
 10
-27.750313109396924
 20
-236.19355705990466
 10
-28.162642990527758
 20
-236.14493205035635
 10
-28.574887303403063
 20
-236.09558684866852
 10
-28.98704478994226
 20
-236.04552160415787
 10
-29.39911419113834
 20
-235.99473645854175
 10
-29.811094245112162
 20
-235.94323153112967
 10
-30.22298369379114
 20
-235.89100697288526
 10
-30.63478128392405
 20
-235.83806297250166
 10
-31.046485759497944
 20
-235.78439969625975
 10
-31.458095862694964
 20
-235.73001729680854
 10
-31.869610341757905
 20
-235.6749159725121
 10
-32.28102794160081
 20
-235.61909589578485
 10
-32.69234740309514
 20
-235.56255720970904
 10
-33.10356747474818
 20
-235.50530011330616
 10
-33.51468690186053
 20
-235.447324781716
 10
-33.92570442640583
 20
-235.3886313669109
 10
-34.33661879444264
 20
-235.32922005015328
 10
-34.74742875245714
 20
-235.26909101546278
 10
-35.15813304351429
 20
-235.20824442370528
 10
-35.56873041093532
 20
-235.1466804384277
 10
-35.97921960238091
 20
-235.08439925253515
 10
-36.38959936199823
 20
-235.02140103579404
 10
-36.79986843008237
 20
-234.957685934082
 10
-37.210025555585126
 20
-234.89325414998618
 10
-37.620069486048365
 20
-234.82810587678787
 10
-38.02999896820432
 20
-234.76224130305056
 10
-38.43981275626342
 20
-234.69566066378556
 10
-38.84950960241845
 20
-234.62836418049775
 10
-39.25908825510798
 20
-234.56035205158787
 10
-39.66854746588243
 20
-234.4916244943381
 10
-40.0778859885659
 20
-234.4221817390641
 10
-40.487102573134585
 20
-234.35202399299246
 10
-40.89619596819028
 20
-234.2811514557222
 10
-41.30516492917749
 20
-234.2095643663789
 10
-41.71400820746751
 20
-234.13726294027143
 10
-42.122724548821566
 20
-234.06424736159482
 10
-42.53131270989795
 20
-233.99051787605708
 10
-42.939771442097836
 20
-233.91607469972465
 10
-43.34809949251424
 20
-233.84091802565487
 10
-43.756295614549735
 20
-233.76504808192965
 10
-44.164358561020826
 20
-233.68846509346676
 10
-44.57228708046409
 20
-233.6111692628384
 10
-44.98007992641262
 20
-233.53316081971278
 10
-45.38773586087758
 20
-233.45444003782924
 10
-45.79525364179985
 20
-233.37500716902443
 10
-46.20263202364227
 20
-233.2948624472892
 10
-46.60986977066661
 20
-233.2140061562086
 10
-47.01696564192663
 20
-233.13243855222095
 10
-47.42391839092108
 20
-233.05015986418277
 10
-47.83072678143506
 20
-232.9671703719611
 10
-48.237389573458046
 20
-232.88347033612132
 10
-48.6439055222394
 20
-232.79905999430616
 10
-49.050273388075816
 20
-232.713939608799
 10
-49.456491932790115
 20
-232.62810944893354
 10
-49.86255991337257
 20
-232.54156976114038
 10
-50.268476086344165
 20
-232.45432079017883
 10
-50.67423921535097
 20
-232.36636281415508
 10
-51.079848059114916
 20
-232.27769608829223
 10
-51.48530137009583
 20
-232.1883208398886
 10
-51.89059791386738
 20
-232.09823735633552
 10
-52.295736453029946
 20
-232.00744591128282
 10
-52.70071574923616
 20
-231.91594677435705
 10
-53.10553457359737
 20
-231.82374025695452
 10
-53.5101916953415
 20
-231.73082666142795
 10
-53.91468587851622
 20
-231.6372062673038
 10
-54.31901589047131
 20
-231.5428793684529
 10
-54.723180502647274
 20
-231.4478462759139
 10
-55.12717848121142
 20
-231.35210727791994
 10
-55.531008589467575
 20
-231.25566265087966
 10
-55.934669601056946
 20
-231.158512714517
 10
-56.33816028372903
 20
-231.06065776360754
 10
-56.7414793980372
 20
-230.96209806365724
 10
-57.14462571823315
 20
-230.86283393658456
 10
-57.54759801251517
 20
-230.76286567934596
 10
-57.95039504335231
 20
-230.66219356620235
 10
-58.35301558064729
 20
-230.56081790168437
 10
-58.75545839459669
 20
-230.45873899148697
 10
-59.15772224968592
 20
-230.3559571190625
 10
-59.5598059154786
 20
-230.25247258827957
 10
-59.961708173932195
 20
-230.14828575102646
 10
-60.36342780164444
 20
-230.0433969378589
 10
-60.764963569500665
 20
-229.9378064574654
 10
-61.16631426239635
 20
-229.8315146716905
 10
-61.56747865795115
 20
-229.72452191418844
 10
-61.96845552688974
 20
-229.61682849285916
 10
-62.36924365225883
 20
-229.50843476159562
 10
-62.76984181324824
 20
-229.39934105953665
 10
-63.17024878288571
 20
-229.28954770324
 10
-63.57046333961204
 20
-229.17905502927445
 10
-63.97048426500148
 20
-229.0678633854138
 10
-64.37031033437503
 20
-228.95597309687614
 10
-64.76994032128532
 20
-228.84338448298354
 10
-65.1693730096813
 20
-228.73009790014947
 10
-65.56860717710632
 20
-228.616113682043
 10
-65.96764159212847
 20
-228.501432131465
 10
-66.36647504098018
 20
-228.38605361318355
 10
-66.76510630560801
 20
-228.26997847686243
 10
-67.16353416748176
 20
-228.1532070706948
 10
-67.56175741899045
 20
-228.0357397800626
 10
-67.95977485132028
 20
-227.9175769856859
 10
-68.35758524906326
 20
-227.7987190458271
 10
-68.75518739974213
 20
-227.67916632861684
 10
-69.15258009730704
 20
-227.55891922330198
 10
-69.54976212902366
 20
-227.437978096698
 10
-69.94673227726749
 20
-227.31634329976532
 10
-70.34348933874207
 20
-227.19401523027747
 10
-70.74003210227535
 20
-227.07099426006778
 10
-71.13635934811619
 20
-226.94728073361844
 10
-71.53246987241077
 20
-226.82287504662477
 10
-71.92836246501356
 20
-226.69777757447608
 10
-72.32403590864625
 20
-226.57198867026864
 10
-72.71948899401055
 20
-226.44550871262055
 10
-73.11472051351454
 20
-226.31833808551357
 10
-73.50972925243883
 20
-226.19047715095562
 10
-73.90451400063931
 20
-226.06192628554047
 10
-74.29907356499707
 20
-225.93268591807555
 10
-74.69340674581906
 20
-225.8027564567449
 10
-75.08751233495101
 20
-225.672138284061
 10
-75.48138914294543
 20
-225.54083183891333
 10
-75.87503597086108
 20
-225.4088375311118
 10
-76.26845161173046
 20
-225.27615574659603
 10
-76.66163487235755
 20
-225.14278691223453
 10
-77.05458455618341
 20
-225.008731444612
 10
-77.44729945909113
 20
-224.87398973816155
 10
-77.83977838218408
 20
-224.73856220275616
 10
-78.23202013183324
 20
-224.6024492634464
 10
-78.62402350676204
 20
-224.46565132316195
 10
-79.01578730209711
 20
-224.32816877487542
 10
-79.40731032713026
 20
-224.19000205210818
 10
-79.79859138284594
 20
-224.05115156469003
 10
-80.18962925982875
 20
-223.91161769360008
 10
-80.58042276865729
 20
-223.77140087626628
 10
-80.97097071575396
 20
-223.63050153833177
 10
-81.3612719072747
 20
-223.48892010482288
 10
-81.75132516121938
 20
-223.34665703336788
 10
-82.14112929560366
 20
-223.20371278118725
 10
-82.53068312046047
 20
-223.06008778349963
 10
-82.91998544783254
 20
-222.91578248102783
 10
-83.30903509903636
 20
-222.77079733932615
 10
-83.6978308873162
 20
-222.62513280197922
 10
-84.08637161848239
 20
-222.47878929290314
 10
-84.4746561171405
 20
-222.33176728598684
 10
-84.86268319788883
 20
-222.1840672283409
 10
-85.25045166557352
 20
-222.03568954169933
 10
-85.63796034253784
 20
-221.88663469376607
 10
-86.02520804515314
 20
-221.7369031365182
 10
-86.41219358128109
 20
-221.58649530012897
 10
-86.79891576674149
 20
-221.4354116356072
 10
-87.18537342100076
 20
-221.28365260334257
 10
-87.57156535500395
 20
-221.13121864214978
 10
-87.95749038315333
 20
-220.97811019998963
 10
-88.3431473421169
 20
-220.8243277809275
 10
-88.72853506086193
 20
-220.66987186922128
 10
-89.11365235664553
 20
-220.51474291992227
 10
-89.49849807058811
 20
-220.3589414472895
 10
-89.88307103195939
 20
-220.20246793578355
 10
-90.2673700610798
 20
-220.04532284791517
 10
-90.65139399290643
 20
-219.88750668206907
 10
-91.03514166007274
 20
-219.72901993068652
 10
-91.41861188628717
 20
-219.56986306457188
 10
-91.80180349973688
 20
-219.4100365655113
 10
-92.18471533652014
 20
-219.24954093420726
 10
-92.56734622372417
 20
-219.08837664976133
 10
-92.94969498249533
 20
-218.92654417747374
 10
-93.33176045238932
 20
-218.76404402631306
 10
-93.71354146260899
 20
-218.60087668076147
 10
-94.09503683075158
 20
-218.43704259852026
 10
-94.47624539612893
 20
-218.27254228821533
 10
-94.85716599447679
 20
-218.10737625004015
 10
-95.23779746155836
 20
-217.94154498433485
 10
-95.61813864538641
 20
-217.77504901952315
 10
-95.99818839573737
 20
-217.60788888769204
 10
-96.37794555304865
 20
-217.440065099468
 10
-96.75740895831315
 20
-217.27157816678238
 10
-97.13657746513474
 20
-217.10242862982832
 10
-97.51544991769113
 20
-216.93261700737574
 10
-97.89402514968732
 20
-216.76214379497966
 10
-98.27230201854388
 20
-216.59100954093998
 10
-98.65027936940575
 20
-216.41921476610972
 10
-99.02795603670847
 20
-216.24675996797433
 10
-99.40533087339315
 20
-216.0736456847569
 10
-99.78240272729757
 20
-215.89987244340182
 10
-100.15917043640584
 20
-215.7254407496238
 10
-100.53563284608748
 20
-215.55035112539915
 10
-100.91178880780711
 20
-215.37460410586928
 10
-101.28763716314826
 20
-215.1982002051102
 10
-101.66317675532139
 20
-215.02113994100392
 10
-102.0384064553991
 20
-214.84342389054567
 10
-102.41332512518846
 20
-214.66505261072467
 10
-102.78793161309632
 20
-214.48602663037283
 10
-103.16222479392223
 20
-214.30634653352533
 10
-103.53620353016449
 20
-214.1260128781522
 10
-103.90986667414796
 20
-213.9450262011466
 10
-104.28321309311966
 20
-213.76338707028458
 10
-104.65624165357029
 20
-213.58109605155803
 10
-105.02895121173162
 20
-213.3981536899221
 10
-105.40134062703433
 20
-213.21456053702084
 10
-105.7734087699513
 20
-213.03031716687065
 10
-106.14515450061124
 20
-212.8454241324938
 10
-106.51657667036626
 20
-212.65988196953074
 10
-106.88767415366262
 20
-212.4736912600293
 10
-107.2584458124169
 20
-212.28685256092248
 10
-107.62889049594826
 20
-212.09936640446819
 10
-107.99900707641275
 20
-211.91123336836353
 10
-108.36879442343859
 20
-211.72245402523365
 10
-108.73825140707748
 20
-211.53302894859544
 10
-109.1073769095374
 20
-211.34295873565029
 10
-109.47616981704562
 20
-211.1522439911029
 10
-109.84462900516904
 20
-210.96088529882235
 10
-110.21275334806066
 20
-210.76888323999808
 10
-110.58054173628491
 20
-210.57623842718013
 10
-110.94799304966115
 20
-210.38295145212572
 10
-111.31510615402681
 20
-210.18902288014513
 10
-111.68187994427227
 20
-209.99445333163519
 10
-112.04831330062406
 20
-209.79924339905827
 10
-112.41440509185226
 20
-209.60339365353624
 10
-112.78015420565637
 20
-209.40690470176187
 10
-113.14555952603202
 20
-209.20977714341552
 10
-113.5106199258163
 20
-209.01201155760427
 10
-113.87533428411884
 20
-208.8136085352884
 10
-114.23970148907775
 20
-208.614568684097
 10
-114.60372041763144
 20
-208.41489259120814
 10
-114.967389945963
 20
-208.21458084272805
 10
-115.33070898423614
 20
-208.01363408649598
 10
-115.69367643160336
 20
-207.81205295004423
 10
-116.05629117280047
 20
-207.60983803493951
 10
-116.41855212020316
 20
-207.40698999229733
 10
-116.7804581744405
 20
-207.20350945187997
 10
-117.14200822467248
 20
-206.99939702304903
 10
-117.50320117470474
 20
-206.7946533411743
 10
-117.86403592966319
 20
-206.58927904376816
 10
-118.22451138312283
 20
-206.38327474798803
 10
-118.58462643006288
 20
-206.17664107360105
 10
-118.9443799800962
 20
-205.96937866587385
 10
-119.30377093120353
 20
-205.76148814976426
 10
-119.66279816928414
 20
-205.55297012958235
 10
-120.02146060843008
 20
-205.34382525835497
 10
-120.37975714790929
 20
-205.13405416354624
 10
-120.73768667362043
 20
-204.92365745006467
 10
-121.0952480948315
 20
-204.71263576285747
 10
-121.4524403196902
 20
-204.50098974490746
 10
-121.80926225705167
 20
-204.2887200404337
 10
-122.16571282732797
 20
-204.0758273130648
 10
-122.5217909576881
 20
-203.86231223749317
 10
-122.87749556336061
 20
-203.6481754682822
 10
-123.23282555569791
 20
-203.4334176535948
 10
-123.58777986669573
 20
-203.2180394756776
 10
-123.9423574159813
 20
-203.00204159612542
 10
-124.29655710663782
 20
-202.78542464949516
 10
-124.6503778744343
 20
-202.56818932387938
 10
-125.0038186393692
 20
-202.35033628142506
 10
-125.35687830909974
 20
-202.13186616439296
 10
-125.70955581006663
 20
-201.91277964556778
 10
-126.0618500669141
 20
-201.69307739475744
 10
-126.41375999186617
 20
-201.47276006193306
 10
-126.76528450178697
 20
-201.25182830472704
 10
-127.11642252596066
 20
-201.03028280061628
 10
-127.4671729811991
 20
-200.80812420733687
 10
-127.8175347806108
 20
-200.5853531770606
 10
-128.16750687778654
 20
-200.3619704256879
 10
-128.5170882135019
 20
-200.13797664867383
 10
-128.86627771331567
 20
-199.91337251771412
 10
-129.21507433107615
 20
-199.68815874847144
 10
-129.563477009974
 20
-199.46233603978345
 10
-129.91148468048016
 20
-199.23590507084293
 10
-130.25909628688655
 20
-199.00886654214514
 10
-130.6063107773651
 20
-198.78122115997598
 10
-130.95312708728957
 20
-198.55296961102658
 10
-131.29954415114895
 20
-198.32411258078398
 10
-131.6455609220871
 20
-198.09465078298632
 10
-131.99117634037123
 20
-197.86458491182916
 10
-132.33638933044332
 20
-197.63391563795182
 10
-132.68119885041202
 20
-197.40264368255188
 10
-133.02560384116197
 20
-197.1707697410097
 10
-133.36960322965137
 20
-196.9382944882645
 10
-133.7131959661648
 20
-196.7052186340316
 10
-134.05638100174806
 20
-196.4715428891098
 10
-134.39915728857173
 20
-196.2372679659713
 10
-134.74152378930972
 20
-196.0023945924494
 10
-135.08347947659107
 20
-195.766923510673
 10
-135.425023309872
 20
-195.53085544342593
 10
-135.7661542418016
 20
-195.29419110368423
 10
-136.1068712503098
 20
-195.05693124080628
 10
-136.44717329883932
 20
-194.81907658309578
 10
-136.78705933347973
 20
-194.5806278341251
 10
-137.12652833374418
 20
-194.34158574519543
 10
-137.46557926433573
 20
-194.1019510463526
 10
-137.8042110764003
 20
-193.8617244485654
 10
-138.14242273916958
 20
-193.6209066884501
 10
-138.48021322247286
 20
-193.37949850340073
 10
-138.81758148250753
 20
-193.1375006117878
 10
-139.15452647798236
 20
-192.8949137357157
 10
-139.49104718384976
 20
-192.65173861993375
 10
-139.82714256136651
 20
-192.40797599024995
 10
-140.16281156456805
 20
-192.16362656277286
 10
-140.49805319468865
 20
-191.91869111852887
 10
-140.83286643828458
 20
-191.67317041810855
 10
-141.1672502661115
 20
-191.42706520054463
 10
-141.50120367728044
 20
-191.18037624338052
 10
-141.83472566184895
 20
-190.9331043116294
 10
-142.1678151959534
 20
-190.68525015149243
 10
-142.50047126819953
 20
-190.4368145259868
 10
-142.83269287409
 20
-190.1877982072424
 10
-143.16447899513147
 20
-189.93820194863125
 10
-143.4958286091893
 20
-189.68802649881835
 10
-143.8267407172026
 20
-189.43727263705426
 10
-144.15721430594354
 20
-189.18594112376456
 10
-144.48724834258994
 20
-188.93403269381088
 10
-144.8168418332244
 20
-188.6815481331987
 10
-145.14599376459873
 20
-188.428488202565
 10
-145.4747031090949
 20
-188.17485364407304
 10
-145.80296886182322
 20
-187.92064522958364
 10
-146.13079002091257
 20
-187.66586373483486
 10
-146.4581655859717
 20
-187.41050993748055
 10
-146.78509456561363
 20
-187.15458462671793
 10
-147.1115759820256
 20
-186.89808860890327
 10
-147.43760884304194
 20
-186.6410226719068
 10
-147.76319214632443
 20
-186.38338759073713
 10
-148.0883249198109
 20
-186.12518417862833
 10
-148.41300617473956
 20
-185.86641322754224
 10
-148.73723490440213
 20
-185.60707550701161
 10
-149.06101013566374
 20
-185.34717182861874
 10
-149.38433088205474
 20
-185.08670298714884
 10
-149.70719614238678
 20
-184.8256697591913
 10
-150.02960493232501
 20
-184.56407294233165
 10
-150.35155627098484
 20
-184.30191333836066
 10
-150.67304916268785
 20
-184.0391917309347
 10
-150.99408261167494
 20
-183.77590890382555
 10
-151.3146556426398
 20
-183.51206566584014
 10
-151.63476726541904
 20
-183.24766280772218
 10
-151.95441647868063
 20
-182.98270110694077
 10
-152.2736023354317
 20
-182.71718140661093
 10
-152.59232387213643
 20
-182.45110452963408
 10
-152.9105801090929
 20
-182.1844712795264
 10
-153.2283700944524
 20
-181.9172824930396
 10
-153.5456928694068
 20
-181.64953899840825
 10
-153.86254746008171
 20
-181.38124160595834
 10
-154.17893290322215
 20
-181.11239113861248
 10
-154.4948482459097
 20
-180.84298843135832
 10
-154.81029252008838
 20
-180.57303430133464
 10
-155.12526475087157
 20
-180.302529557824
 10
-155.43976399122266
 20
-180.03147504257157
 10
-155.75378927781725
 20
-179.75987157829573
 10
-156.0673396271458
 20
-179.48771996455318
 10
-156.38041409481684
 20
-179.21502104613023
 10
-156.69301171847482
 20
-178.9417756470787
 10
-157.0051315202705
 20
-178.6679845739088
 10
-157.31677254395527
 20
-178.3936486579796
 10
-157.62793383889442
 20
-178.118768737023
 10
-157.93861445617335
 20
-177.8433456507201
 10
-158.24881345395914
 20
-177.56738024674445
 10
-158.55852990800372
 20
-177.29087339237898
 10
-158.86776287857867
 20
-177.01382593735366
 10
-159.1765114120184
 20
-176.73623871588038
 10
-159.4847745902503
 20
-176.45811260174102
 10
-159.79255147620697
 20
-176.17944844742917
 10
-160.09984111450166
 20
-175.90024708528063
 10
-160.40664258289573
 20
-175.62050938418858
 10
-160.7129549477857
 20
-175.3402362004216
 10
-161.01877725974174
 20
-175.0594283730073
 10
-161.32410858445638
 20
-174.77808675758405
 10
-161.6289479943455
 20
-174.49621221705678
 10
-161.9332945459273
 20
-174.21380559715524
 10
-162.2371472926131
 20
-173.93086774046026
 10
-162.54050531283212
 20
-173.64739951652356
 10
-162.84336766905156
 20
-173.36340177779118
 10
-163.14573340814647
 20
-173.07887536031518
 10
-163.44760163858675
 20
-172.79382116570565
 10
-163.74897145041362
 20
-172.50824007575105
 10
-164.0498419173434
 20
-172.2221329549836
 10
-164.3502121399031
 20
-171.93550069612473
 10
-164.65008121421175
 20
-171.64834418706616
 10
-164.94944822023447
 20
-171.36066429876547
 10
-165.2483122462323
 20
-171.0724619108715
 10
-165.54667239463288
 20
-170.78373791763968
 10
-165.84452775163933
 20
-170.49449319645817
 10
-166.14187739303694
 20
-170.20472861410317
 10
-166.43872042755166
 20
-169.91444507120133
 10
-166.73505594542328
 20
-169.62364344934545
 10
-167.0308830163346
 20
-169.33232460934013
 10
-167.32620074872105
 20
-169.04048945149444
 10
-167.6210082349142
 20
-168.74813885973268
 10
-167.91530455068784
 20
-168.45527370143867
 10
-168.2090887917831
 20
-168.16189486427353
 10
-168.50236006255986
 20
-167.8680032445403
 10
-168.79511746949674
 20
-167.57359974064732
 10
-169.08736012389775
 20
-167.27868525580843
 10
-169.37908715901085
 20
-166.9832607148499
 10
-169.6702976915399
 20
-166.68732702604365
 10
-169.9609908201246
 20
-166.39088507992133
 10
-170.25116568459183
 20
-166.0939358074001
 10
-170.54082140341615
 20
-165.79648011829917
 10
-170.82995707659114
 20
-165.49851890450373
 10
-171.11857183628757
 20
-165.20005308919755
 10
-171.4066648057427
 20
-164.9010835867836
 10
-171.69423509132102
 20
-164.6016112954461
 10
-171.98128181230862
 20
-164.30163712590547
 10
-172.26780409837326
 20
-164.00116199880324
 10
-172.55380106224467
 20
-163.70018681863056
 10
-172.8392718101224
 20
-163.39871248385745
 10
-173.1242154780993
 20
-163.0967399213746
 10
-173.40863118444318
 20
-162.79427004121428
 10
-173.69251803028203
 20
-162.49130373751032
 10
-173.975875180659
 20
-162.1878419643934
 10
-174.2587017836145
 20
-161.883885659836
 10
-174.5409969700743
 20
-161.5794357458498
 10
-174.82275989622124
 20
-161.274493167865
 10
-175.1039897168065
 20
-160.96905886979994
 10
-175.38468556939995
 20
-160.66313377968203
 10
-175.66484659711244
 20
-160.35671883067536
 10
-175.9444719613944
 20
-160.04981497264936
 10
-176.22356080645073
 20
-159.74242313965158
 10
-176.5021122621202
 20
-159.43454425279637
 10
-176.78012549654497
 20
-159.12617926791012
 10
-177.0575996571215
 20
-158.81732912198484
 10
-177.33453387053078
 20
-158.507994733549
 10
-177.6109273012902
 20
-158.1981770551478
 10
-177.8867791001357
 20
-157.88787702696277
 10
-178.1620884002465
 20
-157.5770955736993
 10
-178.43685435266272
 20
-157.2658336360886
 10
-178.71107612033074
 20
-156.95409216539738
 10
-178.9847528685818
 20
-156.64187211497267
 10
-179.25788376497715
 20
-156.32917444012745
 10
-179.53046800368904
 20
-156.0160001193061
 10
-179.80250476134455
 20
-155.70235011546288
 10
-180.0739931920573
 20
-155.38822537206264
 10
-180.34493249695387
 20
-155.0736268732085
 10
-180.6153218534015
 20
-154.75855558231547
 10
-180.88516042032595
 20
-154.44301244702692
 10
-181.154447387346
 20
-154.1269984413019
 10
-181.4231819379979
 20
-153.81051453379897
 10
-181.69136323796695
 20
-153.49356167804083
 10
-181.95899046321773
 20
-153.17614083637167
 10
-182.2260628041016
 20
-152.85825298326566
 10
-182.4925794330592
 20
-152.53989907813286
 10
-182.75853951221188
 20
-152.221080071928
 10
-183.02394223872278
 20
-151.90179694495077
 10
-183.2887867897647
 20
-151.58205066084145
 10
-183.55307232497324
 20
-151.26184216892068
 10
-183.81679806821347
 20
-150.94117247162308
 10
-184.0799632293033
 20
-150.6200425595827
 10
-184.34256699998323
 20
-150.29845340857153
 10
-184.60460859522013
 20
-149.9764060133266
 10
-184.8660872319086
 20
-149.65390136998752
 10
-185.1270021088037
 20
-149.33094045990546
 10
-185.3873524270451
 20
-149.00752426641043
 10
-185.64713741059268
 20
-148.68365379115343
 10
-185.9063562652069
 20
-148.35933002107063
 10
-186.16500817801506
 20
-148.03455392831168
 10
-186.42309238003446
 20
-147.70932652004657
 10
-186.6806080792346
 20
-147.38364878502315
 10
-186.93755446291763
 20
-147.05752169578204
 10
-187.1939307547835
 20
-146.73094625367887
 10
-187.4497361675022
 20
-146.4039234513541
 10
-187.70496989525444
 20
-146.07645426709843
 10
-187.95963114753735
 20
-145.7485396913353
 10
-188.213719149383
 20
-145.42018072658934
 10
-188.46723312865743
 20
-145.09137837755293
 10
-188.72017231265434
 20
-144.76213364848527
 10
-188.9725359602073
 20
-144.4324475677821
 10
-189.22432331117872
 20
-144.10232114909306
 10
-189.47553358017768
 20
-143.77175538683616
 10
-189.72616603185688
 20
-143.44075131347105
 10
-189.9762199066597
 20
-143.10930994290842
 10
-190.22569442632735
 20
-142.7774322749886
 10
-190.4745888413258
 20
-142.4451193312087
 10
-190.7229023992801
 20
-142.11237213083297
 10
-190.9706343290555
 20
-141.77919167913183
 10
-191.2177838667557
 20
-141.4455789868726
 10
-191.46435026718086
 20
-141.11153507868244
 10
-191.71033276631655
 20
-140.77706096526958
 10
-191.95573058572904
 20
-140.4421576469088
 10
-192.20054298739097
 20
-140.1068261536
 10
-192.44476921108253
 20
-139.77106749908887
 10
-192.68840847938955
 20
-139.4348826848005
 10
-192.93146008112768
 20
-139.09827276024905
 10
-193.17392329515218
 20
-138.76123876750572
 10
-193.4157973813656
 20
-138.42378173491636
 10
-193.65708162043344
 20
-138.08590270567578
 10
-193.89777529866979
 20
-137.74760272683957
 10
-194.13787768337986
 20
-137.40888283181275
 10
-194.37738804074823
 20
-137.06974405322524
 10
-194.6163056645376
 20
-136.73018744311804
 10
-194.85462982944594
 20
-136.39021403996006
 10
-195.09235978700494
 20
-136.0498248660532
 10
-195.3294948384161
 20
-135.70902097843182
 10
-195.5660342595191
 20
-135.3678034163169
 10
-195.8019773057511
 20
-135.026173204878
 10
-196.03732326701913
 20
-134.68413139319412
 10
-196.2720714253639
 20
-134.34167902485703
 10
-196.50622104349426
 20
-133.99881713027173
 10
-196.73977139648693
 20
-133.65554674844418
 10
-196.9727217787934
 20
-133.31186893157962
 10
-197.2050714873642
 20
-132.96778473351307
 10
-197.43681981522653
 20
-132.6232952054212
 10
-197.66796609212173
 20
-132.27840142306871
 10
-197.89850962670974
 20
-131.9331044478463
 10
-198.12844970250023
 20
-131.5874053243506
 10
-198.3577856516107
 20
-131.2413051294959
 10
-198.5865167845792
 20
-130.89480492567282
 10
-198.81464239241762
 20
-130.547905762383
 10
-199.04216179242275
 20
-130.20060870645258
 10
-199.26907430267866
 20
-129.85291482510448
 10
-199.4953792216898
 20
-129.50482517275321
 10
-199.7210758517723
 20
-129.15634080637707
 10
-199.9461635185476
 20
-128.80746279804129
 10
-200.1706415280084
 20
-128.45819220707946
 10
-200.3945091673289
 20
-128.10853008086977
 10
-200.6177657696651
 20
-127.75847749632779
 10
-200.84041064375728
 20
-127.40803551471484
 10
-201.0624430808513
 20
-127.05720518632735
 10
-201.28386243501748
 20
-126.70598760129752
 10
-201.50466805336885
 20
-126.35438384514144
 10
-201.72485926325243
 20
-126.00239499086518
 10
-201.9444354098349
 20
-125.65002212259363
 10
-202.16339584798988
 20
-125.29726633034534
 10
-202.38173991277472
 20
-124.94412869170631
 10
-202.59946693422833
 20
-124.59061028118549
 10
-202.81657627497478
 20
-124.23671219330684
 10
-203.0330672776511
 20
-123.88243551017032
 10
-203.24893925737246
 20
-123.52778129713279
 10
-203.4641915841446
 20
-123.17275065301384
 10
-203.67882360073932
 20
-122.81734465995493
 10
-203.8928346298661
 20
-122.46156438806763
 10
-204.10622402623596
 20
-122.10541092681623
 10
-204.3189911402584
 20
-121.74888536302699
 10
-204.53113530223274
 20
-121.39198877157689
 10
-204.74265585142626
 20
-121.03472223282495
 10
-204.9535521512271
 20
-120.67708684144037
 10
-205.1638235677001
 20
-120.31908369359813
 10
-205.37346945888075
 20
-119.96071388074677
 10
-205.58248922490986
 20
-119.60197851887689
 10
-205.79088224268182
 20
-119.24287871018869
 10
-205.9986478642606
 20
-118.88341554246638
 10
-206.20578548828342
 20
-118.52359013040325
 10
-206.41229449489757
 20
-118.16340357784489
 10
-206.61817424396602
 20
-117.80285697699424
 10
-206.82342411869092
 20
-117.44195143342174
 10
-207.02804350705827
 20
-117.08068805531582
 10
-207.23203177672073
 20
-116.71906793930746
 10
-207.4353882953005
 20
-116.3570921820946
 10
-207.63811245861413
 20
-115.99476189621952
 10
-207.84020364210062
 20
-115.63207818274641
 10
-208.04166119765702
 20
-115.2690421297582
 10
-208.24248452892806
 20
-114.90565485415902
 10
-208.44267301287624
 20
-114.5419174580211
 10
-208.64222600999003
 20
-114.17783103448969
 10
-208.84114294187668
 20
-113.81339671028111
 10
-209.03942322657005
 20
-113.44861560994937
 10
-209.23706626160234
 20
-113.0834888468019
 10
-209.43407145892883
 20
-112.7180175419265
 10
-209.63043824461394
 20
-112.35220282387914
 10
-209.82616602417554
 20
-111.98604581004916
 10
-210.02125419385675
 20
-111.61954761289314
 10
-210.21570218774272
 20
-111.25270936497282
 10
-210.40950941783635
 20
-110.88553218698502
 10
-210.60267526899605
 20
-110.51801718536186
 10
-210.7951991788526
 20
-110.15016549432701
 10
-210.9870805609099
 20
-109.7819782353302
 10
-211.17831880790638
 20
-109.41345651906894
 10
-211.36891334161044
 20
-109.04460147140723
 10
-211.55886358344605
 20
-108.67541421798533
 10
-211.74816893402897
 20
-108.30589587377551
 10
-211.93682879913186
 20
-107.93604755654096
 10
-212.1248426143915
 20
-107.56587039931739
 10
-212.31220981858868
 20
-107.19536553664847
 10
-212.49892983745175
 20
-106.82453409646726
 10
-212.68500214441764
 20
-106.45337723064674
 10
-212.87042618747935
 20
-106.08189607805768
 10
-213.0552013903427
 20
-105.71009176543522
 10
-213.23932722069887
 20
-105.33796544136351
 10
-213.42280313128518
 20
-104.96551824683759
 10
-213.6056285538761
 20
-104.59275131250138
 10
-213.78780294018196
 20
-104.21966577880971
 10
-213.96932575104302
 20
-103.84626279058855
 10
-214.15019642629508
 20
-103.47254348239647
 10
-214.3304144015361
 20
-103.0985089868234
 10
-214.50997914570354
 20
-102.72416045253415
 10
-214.68889010669045
 20
-102.34949901800938
 10
-214.8671467038552
 20
-101.97452580823638
 10
-215.04474841422964
 20
-101.59924197572815
 10
-215.2216946858831
 20
-101.22364865919907
 10
-215.39798495159545
 20
-100.84774699028594
 10
-215.57361870030718
 20
-100.47153812703947
 10
-215.74859541998202
 20
-100.0950232268732
 10
-215.92291457741882
 20
-99.71820343727576
 10
-216.09657565001814
 20
-99.34107991063873
 10
-216.2695781339871
 20
-98.96365380791347
 10
-216.44192150432826
 20
-98.58592628020897
 10
-216.6136052221861
 20
-98.20789847235918
 10
-216.78462879200333
 20
-97.82957154885801
 10
-216.95499169400853
 20
-97.4509466631115
 10
-217.12469338187606
 20
-97.0720249566573
 10
-217.2937333593699
 20
-96.69280759354322
 10
-217.46211110967513
 20
-96.31329572853296
 10
-217.62982609457939
 20
-95.93349050697576
 10
-217.79687780146196
 20
-95.55339308564207
 10
-217.96326572165788
 20
-95.17300462303042
 10
-218.12898932506798
 20
-94.79232626831083
 10
-218.2940480825739
 20
-94.41135917124805
 10
-218.4584415012388
 20
-94.0301044973491
 10
-218.62216909012037
 20
-93.64856341290371
 10
-218.7852303391228
 20
-93.26673707599724
 10
-218.94762479159968
 20
-92.88462666750253
 10
-219.10935196323445
 20
-92.50223335631966
 10
-219.27041134615638
 20
-92.11955830139897
 10
-219.43080247338037
 20
-91.73660267892251
 10
-219.5905248668776
 20
-91.35336766030119
 10
-219.74957802704213
 20
-90.96985440795132
 10
-219.9079614703873
 20
-90.58606409103928
 10
-220.06567472718086
 20
-90.20199788436257
 10
-220.22271730607795
 20
-89.81765695380845
 10
-220.37908870697777
 20
-89.43304246179954
 10
-220.5347884684416
 20
-89.04815558652852
 10
-220.68981610615643
 20
-88.66299749687256
 10
-220.84417110697962
 20
-88.2775693502583
 10
-220.99785301408502
 20
-87.8918723268066
 10
-221.15086134431846
 20
-87.50590759609639
 10
-221.30319560149627
 20
-87.11967632267734
 10
-221.45485534510323
 20
-86.73317969314247
 10
-221.6058401374605
 20
-86.3464188950359
 10
-221.75614951914545
 20
-85.95939510731807
 10
-221.90578303719414
 20
-85.57210951146412
 10
-222.0547402623739
 20
-85.18456329803423
 10
-222.20302074367322
 20
-84.79675764909176
 10
-222.35062401141678
 20
-84.40869373961719
 10
-222.49754964481016
 20
-84.02037276319435
 10
-222.64379719671655
 20
-83.63179590329818
 10
-222.78936619423132
 20
-83.2429643337871
 10
-222.934256211406
 20
-82.85387924617703
 10
-223.0784668056151
 20
-82.46454182568219
 10
-223.22199751228837
 20
-82.07495324945798
 10
-223.36484788865567
 20
-81.68511470281571
 10
-223.5070175004569
 20
-81.29502737419122
 10
-223.64850589145667
 20
-80.90469244404682
 10
-223.78931260199036
 20
-80.51411109177644
 10
-223.9294372157955
 20
-80.12328451249256
 10
-224.06887931846717
 20
-79.73221390188299
 10
-224.20763847049938
 20
-79.34090044669772
 10
-224.34571429163304
 20
-78.94934535467044
 10
-224.48310637175115
 20
-78.55754982278957
 10
-224.61981427809735
 20
-78.16551504011503
 10
-224.75583761532064
 20
-77.77324220877388
 10
-224.89117598122905
 20
-77.38073252839276
 10
-225.02582895153503
 20
-76.98798719096348
 10
-225.1597961139715
 20
-76.59500739266679
 10
-225.2930770748412
 20
-76.20179433598233
 10
-225.425671418321
 20
-75.80834921584233
 10
-225.55757871513242
 20
-75.41467322275942
 10
-225.68879858007094
 20
-75.0207675620743
 10
-225.8193306030187
 20
-74.62663343076103
 10
-225.9491743458673
 20
-74.23227201667174
 10
-226.07832942363285
 20
-73.83768452528747
 10
-226.20679542893734
 20
-73.44287215472065
 10
-226.33457194287638
 20
-73.04783609945353
 10
-226.46165859821218
 20
-72.6525775707574
 10
-226.5880550341184
 20
-72.25709778181255
 10
-226.71376086753043
 20
-71.86139793858922
 10
-226.83877571746544
 20
-71.46547924772655
 10
-226.96309923171756
 20
-71.06934292487809
 10
-227.08673103581353
 20
-70.67299017857599
 10
-227.20967073167895
 20
-70.27642221004447
 10
-227.33191797572113
 20
-69.87964023741876
 10
-227.45347239591246
 20
-69.48264546992719
 10
-227.57433359541665
 20
-69.0854391092793
 10
-227.69450122083202
 20
-68.68802237047966
 10
-227.81397490625469
 20
-68.29039646467136
 10
-227.93275426337507
 20
-67.8925625963246
 10
-228.05083892160837
 20
-67.49452197532563
 10
-228.1682285236035
 20
-67.0962758155013
 10
-228.28492268957896
 20
-66.6978253240924
 10
-228.4009210317685
 20
-66.299171706172
 10
-228.51622321304413
 20
-65.90031618162631
 10
-228.63082889629882
 20
-65.50125997024222
 10
-228.74473771708855
 20
-65.10200428396242
 10
-228.85794937038122
 20
-64.70255035166045
 10
-228.97046352288095
 20
-64.30289939399073
 10
-229.08227981878855
 20
-63.90305262527513
 10
-229.19339793589143
 20
-63.50301126925185
 10
-229.3038175495574
 20
-63.10277654887388
 10
-229.41353831262546
 20
-62.70234968085
 10
-229.522559885622
 20
-62.3017318840648
 10
-229.63088195257447
 20
-61.90092438377626
 10
-229.73850417495564
 20
-61.49992839909087
 10
-229.8454261959538
 20
-61.098745144322095
 10
-229.95164770825355
 20
-60.69737584704383
 10
-230.05716837762378
 20
-60.295821727634504
 10
-230.16198784285388
 20
-59.89408399952402
 10
-230.26610579227392
 20
-59.49216388920734
 10
-230.36952189606487
 20
-59.090062618448115
 10
-230.47223581443117
 20
-58.68778140654732
 10
-230.57424725436945
 20
-58.28532148482479
 10
-230.6755559331476
 20
-57.882684087062785
 10
-230.7761615453885
 20
-57.479870441234375
 10
-230.87606378323648
 20
-57.07688177470504
 10
-230.97526237271896
 20
-56.673719323180855
 10
-231.07375701719428
 20
-56.27038431664874
 10
-231.1715473914038
 20
-55.86687797816512
 10
-231.26863323012714
 20
-55.463201545369046
 10
-231.3650142376712
 20
-55.059356248422745
 10
-231.46069009464756
 20
-54.65534331190311
 10
-231.55566052124158
 20
-54.251163969842956
 10
-231.64992522952673
 20
-53.846819454302256
 10
-231.7434839087984
 20
-53.442310992075846
 10
-231.83633626176623
 20
-53.037639813188385
 10
-231.9284820092098
 20
-52.63280715183543
 10
-232.0199208491101
 20
-52.227814237041216
 10
-232.11065246682566
 20
-51.82266229514992
 10
-232.20067660574833
 20
-51.41735256558796
 10
-232.2899930067788
 20
-51.01188628710949
 10
-232.37860138387538
 20
-50.60626469253259
 10
-232.46650150672937
 20
-50.20048902683268
 10
-232.55369312093288
 20
-49.79456052957004
 10
-232.6401759492233
 20
-49.388480435386306
 10
-232.72594974381943
 20
-48.982249985227035
 10
-232.8110142591065
 20
-48.575870420391816
 10
-232.89536922659462
 20
-48.16934297735403
 10
-232.97901438096727
 20
-47.76266889331542
 10
-233.06194948539863
 20
-47.355849411323774
 10
-233.14417428016802
 20
-46.94888576969512
 10
-233.22568848236506
 20
-46.54177920217112
 10
-233.30649186395092
 20
-46.1345309535608
 10
-233.38658416802534
 20
-45.727142262867424
 10
-233.46596511187477
 20
-45.31961436415306
 10
-233.54463445840267
 20
-44.91194850050462
 10
-233.62259195687605
 20
-44.50414591235715
 10
-233.69983734817518
 20
-44.09620783862936
 10
-233.77637041454122
 20
-43.688135526136534
 10
-233.8521909526001
 20
-43.27993022426072
 10
-233.92729873601354
 20
-42.871593177998825
 10
-234.00169353127714
 20
-42.46312563104399
 10
-234.07537514388048
 20
-42.054528834142666
 10
-234.1483433557286
 20
-41.64580403364374
 10
-234.22059791747998
 20
-41.236952470372074
 10
-234.29213864167565
 20
-40.827975396129766
 10
-234.36296531082908
 20
-40.41887405731994
 10
-234.43307768440613
 20
-40.009649696421114
 10
-234.5024755572999
 20
-39.6003035620653
 10
-234.57115872084603
 20
-39.190836902226394
 10
-234.63912694331742
 20
-38.78125096104585
 10
-234.70638000191087
 20
-38.37154698427378
 10
-234.7729176967859
 20
-37.961726221465206
 10
-234.83873980502494
 20
-37.55178991843605
 10
-234.90384608643305
 20
-37.14173931839789
 10
-234.96823636604313
 20
-36.73157567501047
 10
-235.031910463441
 20
-36.32130024094788
 10
-235.0948681719212
 20
-35.91091426479829
 10
-235.15710933649035
 20
-35.500419003066575
 10
-235.21863378243742
 20
-35.08981570908753
 10
-235.2794413119337
 20
-34.679105632711845
 10
-235.3395317522917
 20
-34.268290027539685
 10
-235.39890493768578
 20
-33.85737014808483
 10
-235.45756067915818
 20
-33.44634724547031
 10
-235.515498786283
 20
-33.035222570680475
 10
-235.57271910211637
 20
-32.62399737941748
 10
-235.62922144656866
 20
-32.21267292408705
 10
-235.68500561143458
 20
-31.80125045334624
 10
-235.7400714486515
 20
-31.389731224096938
 10
-235.79441877942588
 20
-30.97811648904457
 10
-235.84804740045354
 20
-30.566407497787583
 10
-235.90095714983744
 20
-30.154605505458566
 10
-235.9531478567819
 20
-29.742711766037218
 10
-236.00461934388198
 20
-29.330727532736756
 10
-236.05537146950584
 20
-28.918654063298757
 10
-236.10540411071898
 20
-28.506492617645762
 10
-236.1547171213936
 20
-28.094244452754623
 10
-236.2033103434753
 20
-27.68191082419021
 10
-236.25118366296243
 20
-27.26949299267263
 10
-236.2983369404751
 20
-26.856992215823663
 10
-236.34477000666615
 20
-26.44440974789033
 10
-236.39048274994394
 20
-26.031746849660067
 10
-236.4354750331038
 20
-25.61900477895036
 10
-236.47974669569373
 20
-25.2061847910961
 10
-236.52329760830781
 20
-24.79328814484644
 10
-236.5661276426462
 20
-24.380316099023073
 10
-236.60823664715122
 20
-23.967269910059745
 10
-236.64962447457341
 20
-23.554150834957166
 10
-236.69029100551933
 20
-23.14096013355233
 10
-236.7302360973297
 20
-22.72769906338821
 10
-236.7694595854546
 20
-22.314368880059927
 10
-236.80796137742075
 20
-21.90097084610263
 10
-236.84574137205698
 20
-21.487506223095927
 10
-236.88279944279586
 20
-21.07397627028811
 10
-236.91913551047307
 20
-20.660382251163547
 10
-236.9547494807503
 20
-20.246725427703627
 10
-236.98964123599853
 20
-19.833007059855994
 10
-237.02381067921047
 20
-19.419228409337556
 10
-237.05725772498988
 20
-19.005390738744143
 10
-237.08998226464135
 20
-18.591495308731027
 10
-237.12198418328822
 20
-18.177543379540253
 10
-237.15326340447353
 20
-17.76353621439203
 10
-237.1838198281869
 20
-17.349475074642758
 10
-237.21365332239947
 20
-16.935361219401255
 10
-237.24276381885403
 20
-16.52119591247028
 10
-237.27115121777612
 20
-16.10698041534944
 10
-237.29881539605688
 20
-15.69271598806483
 10
-237.32575626755056
 20
-15.278403893251928
 10
-237.35197374212436
 20
-14.86404539328949
 10
-237.37746772472022
 20
-14.44964175030051
 10
-237.40223815006294
 20
-14.035194228294241
 10
-237.42628497598542
 20
-13.620704092548262
 10
-237.4496081369877
 20
-13.206172606846529
 10
-237.47220755086522
 20
-12.791601034052517
 10
-237.49408318441616
 20
-12.376990639672993
 10
-237.51523497734448
 20
-11.962342687628079
 10
-237.53566284080478
 20
-11.547658440429219
 10
-237.55536673929146
 20
-11.132939163257866
 10
-237.5743466162626
 20
-10.71818612017563
 10
-237.59260239181873
 20
-10.303400574214866
 10
-237.61013401254633
 20
-9.888583789661315
 10
-237.6269414308538
 20
-9.473737031013089
 10
-237.64302457578805
 20
-9.05886156183569
 10
-237.65838337601613
 20
-8.64395864580928
 10
-237.67301779289963
 20
-8.229029547881108
 10
-237.68692776443595
 20
-7.8140755321589
 10
-237.70011320222733
 20
-7.399097862037447
 10
-237.7125740966583
 20
-6.984097803515967
 10
-237.72431042632942
 20
-6.5690766220843
 10
-237.73532214557278
 20
-6.154035582530452
 10
-237.7456092515818
 20
-5.738975950767565
 10
-237.75517173102634
 20
-5.323898992290234
 10
-237.76400954720333
 20
-4.908805972012985
 10
-237.7721226793873
 20
-4.493698155222995
 10
-237.77951112321117
 20
-4.0785768074584725
 10
-237.78617485093235
 20
-3.6634431937720247
 10
-237.7921138238985
 20
-3.248298579116754
 10
-237.79732804670343
 20
-2.833144229083952
 10
-237.80181749874512
 20
-2.417981408856455
 10
-237.8055821288962
 20
-2.0028113833998296
 10
-237.80862194525602
 20
-1.5876354183143224
 10
-237.8109369290386
 20
-1.172454778928319
 10
-237.81252703807658
 20
-0.757270730552627
 10
-237.8133922625428
 20
-0.34208453876586853
 10
-237.8135325936469
 20
0.07310253084265395
 10
-237.81294801913566
 20
0.48828921264105535
 10
-237.81163855022962
 20
0.9034742409832711
 10
-237.80960422569754
 20
1.3186563504127478
 10
-237.80684506092678
 20
1.733834275507496
 10
-237.80336104986202
 20
2.1490067506828567
 10
-237.79915224023378
 20
2.5641725108212
 10
-237.7942186510607
 20
2.9793302906769217
 10
-237.78856027435037
 20
3.3944788246403275
 10
-237.78217715080112
 20
3.809616847718617
 10
-237.77506930475812
 20
4.22474309477923
 10
-237.76723673718968
 20
4.639856300258153
 10
-237.75867947086599
 20
5.054955198912866
 10
-237.74939753909212
 20
5.47003852574189
 10
-237.73939095179878
 20
5.8851050152174755
 10
-237.7286597138345
 20
6.300153401554721
 10
-237.71720386746813
 20
6.715182419875029
 10
-237.70502343159737
 20
7.13019080467364
 10
-237.69211839437705
 20
7.545177289373614
 10
-237.67848882892346
 20
7.960140609930232
 10
-237.66413479339673
 20
8.375079501977385
 10
-237.6490563229976
 20
8.789992700374492
 10
-237.63325349106745
 20
9.20487894137463
 10
-237.61672636512608
 20
9.619736961157809
 10
-237.59947498932905
 20
10.03456549502379
 10
-237.58149941909556
 20
10.449363278705645
 10
-237.56279973089312
 20
10.864129048908218
 10
-237.5433759778284
 20
11.278861541359806
 10
-237.52322819740903
 20
11.693559490981722
 10
-237.5023564750488
 20
12.10822163499192
 10
-237.48076086942123
 20
12.522846709357944
 10
-237.45844141028786
 20
12.937433448437018
 10
-237.43539818185886
 20
13.351980589411859
 10
-237.41163124619706
 20
13.766486868300431
 10
-237.3871406420279
 20
14.180951019679451
 10
-237.36192643567028
 20
14.595371779608861
 10
-237.33598869957498
 20
15.009747884502875
 10
-237.30932750425026
 20
15.424078070625077
 10
-237.2819429374594
 20
15.838361075308494
 10
-237.25383511892534
 20
16.252595638089556
 10
-237.22500414503216
 20
16.666780497083227
 10
-237.19545008607784
 20
17.08091438856618
 10
-237.16517307070708
 20
17.49499605298585
 10
-237.13417319735194
 20
17.90902422875015
 10
-237.1024505390732
 20
18.322997652328304
 10
-237.07000521279556
 20
18.73691506350255
 10
-237.03683732382441
 20
19.150775201246333
 10
-237.0029469541599
 20
19.564576802644968
 10
-236.96833420285108
 20
19.97831860608917
 10
-236.9329991841365
 20
20.39199935125432
 10
-236.8969419889581
 20
20.805617775831035
 10
-236.86016269851407
 20
21.219172616528816
 10
-236.8226614359809
 20
21.632662613712032
 10
-236.78443829980768
 20
22.04608650553475
 10
-236.7454933593212
 20
22.459443027290803
 10
-236.70582676581546
 20
22.872730921888127
 10
-236.66543865830477
 20
23.28594893122356
 10
-236.6243291528685
 20
23.699095794983712
 10
-236.58249839888285
 20
24.11217025617497
 10
-236.53994654460013
 20
24.52517105782804
 10
-236.4966737150083
 20
24.938096940638573
 10
-236.4526800416317
 20
25.350946645949183
 10
-236.4079656816191
 20
25.763718917883565
 10
-236.3625307688639
 20
26.176412498134255
 10
-236.31637541706752
 20
26.589026126092257
 10
-236.2694997922743
 20
27.001558546961522
 10
-236.22190403236056
 20
27.414008502851264
 10
-236.17358824800596
 20
27.826374732624526
 10
-236.1245525993838
 20
28.238655980839685
 10
-236.07479722930745
 20
28.65085099004779
 10
-236.024322257388
 20
29.062958499903402
 10
-235.97312782601554
 20
29.47497725270296
 10
-235.92121408879018
 20
29.8869059921066
 10
-235.86858119849455
 20
30.29874346165941
 10
-235.815229318792
 20
30.710488406254548
 10
-235.7611586496072
 20
31.12213957556867
 10
-235.7063693676593
 20
31.533695716402807
 10
-235.65086161908854
 20
31.945155571460404
 10
-235.59463561266585
 20
32.35651789188989
 10
-235.53769152558334
 20
32.76778142470055
 10
-235.48002951138514
 20
33.17894491358888
 10
-235.42164976253085
 20
33.59000710765824
 10
-235.3625524645893
 20
34.000966755125255
 10
-235.30273777998676
 20
34.411822600867815
 10
-235.24220588343303
 20
34.822573391456395
 10
-235.18095696936805
 20
35.23321787637244
 10
-235.11899120910377
 20
35.6437548016638
 10
-235.05630875964312
 20
36.0541829110796
 10
-234.99290982430244
 20
36.46450095535584
 10
-234.9287945803095
 20
36.8747076812325
 10
-234.86396317804892
 20
37.28480183108949
 10
-234.7984158458694
 20
37.69478215952433
 10
-234.732152803165
 20
38.10464741986902
 10
-234.6651742464464
 20
38.51439636179689
 10
-234.59748040061078
 20
38.92402773962639
 10
-234.52907149406894
 20
39.3335403083875
 10
-234.45994773215773
 20
39.74293281932703
 10
-234.39010932206497
 20
40.152204023966036
 10
-234.31955650101017
 20
40.56135267899142
 10
-234.24828948315408
 20
40.97037753721232
 10
-234.17630845802253
 20
41.379277347063514
 10
-234.10361367164384
 20
41.788050866876276
 10
-234.03020534058564
 20
42.196696849854106
 10
-233.95608365601572
 20
42.60521404453493
 10
-233.88124885352062
 20
43.013601207408385
 10
-233.8057011561077
 20
43.421857092707526
 10
-233.729440763808
 20
43.82998045032678
 10
-233.65246789460465
 20
44.23797003336485
 10
-233.5747827827113
 20
44.6458245979441
 10
-233.49638566258417
 20
45.05354290023529
 10
-233.41727677340114
 20
45.461123697279284
 10
-233.33745639473312
 20
45.868565754033284
 10
-233.25692478212275
 20
46.27586783092854
 10
-233.17568216043338
 20
46.68302868230683
 10
-233.09372881482992
 20
47.090047074532876
 10
-233.01106500187296
 20
47.49692176838673
 10
-232.92769095521473
 20
47.903651519964825
 10
-232.8436069424096
 20
48.310235092257756
 10
-232.75881322878854
 20
48.71667124788242
 10
-232.67331005679324
 20
49.122958744677995
 10
-232.58709767642546
 20
49.52909634197763
 10
-232.50017636178907
 20
49.935082804223114
 10
-232.41254636411875
 20
50.34091689098747
 10
-232.32420791592526
 20
50.74659735765924
 10
-232.23516130009097
 20
51.15212297049779
 10
-232.14540677218255
 20
51.557492489806464
 10
-232.05494456330868
 20
51.962704670312846
 10
-231.96377497792403
 20
52.36775828301109
 10
-231.87189831475493
 20
52.77265209776897
 10
-231.77931484982747
 20
53.17738487935697
 10
-231.6860248826339
 20
53.58195539791482
 10
-231.59202872070233
 20
53.98636242555904
 10
-231.4973266487676
 20
54.390604729189256
 10
-231.40191894882756
 20
54.7946810750237
 10
-231.30580593709672
 20
55.1985902373888
 10
-231.2089879070169
 20
55.602330985303645
 10
-231.11146512315682
 20
56.00590208077893
 10
-231.0132379104179
 20
56.40930230034169
 10
-230.91430656309961
 20
56.81253041318767
 10
-230.81467135196283
 20
57.21558518263438
 10
-230.71433258704712
 20
57.618465381600075
 10
-230.6132905705338
 20
58.021169781082826
 10
-230.51154558194253
 20
58.4236971463179
 10
-230.40909791396203
 20
58.82604624571502
 10
-230.30594788039792
 20
59.22821585301064
 10
-230.20209579612686
 20
59.63020474223376
 10
-230.09754197477704
 20
60.032011687055885
 10
-229.99228677426444
 20
60.433635472739105
 10
-229.88633052729472
 20
60.83507487812774
 10
-229.77967353784683
 20
61.2363286744642
 10
-229.67231616479748
 20
61.63739564757092
 10
-229.56425874335758
 20
62.038274577101745
 10
-229.45550158616655
 20
62.438964236605166
 10
-229.34604503474193
 20
62.83946340741263
 10
-229.2358894329313
 20
63.23977087156592
 10
-229.12503510203481
 20
63.63988540491076
 10
-229.01348236628763
 20
64.03980578400495
 10
-228.90123157817644
 20
64.43953079326995
 10
-228.78828306766704
 20
64.83905921083796
 10
-228.6746371417908
 20
65.2383898082133
 10
-228.56029416168113
 20
65.6375213721845
 10
-228.4452544600791
 20
66.03645268145678
 10
-228.32951834776532
 20
66.435182508244
 10
-228.21308620406336
 20
66.83370964454811
 10
-228.09595840589353
 20
67.23203288182945
 10
-227.97813530778268
 20
67.63015100502909
 10
-227.85961728284764
 20
68.02806280459033
 10
-227.74040471659546
 20
68.42576707476074
 10
-227.62049797210832
 20
68.82326260316117
 10
-227.4998974052949
 20
69.2205481752048
 10
-227.37860341018964
 20
69.6176225878991
 10
-227.2566163577766
 20
70.01448463133197
 10
-227.13393658879778
 20
70.41113308620996
 10
-227.01056450385846
 20
70.80756675168529
 10
-226.88650047460186
 20
71.20378441801606
 10
-226.76174485038192
 20
71.59978486838946
 10
-226.6362980146863
 20
71.99556689662747
 10
-226.51016034774744
 20
72.39112929555019
 10
-226.3833322075397
 20
72.7864708508116
 10
-226.25581396052164
 20
73.18159035062948
 10
-226.12760599895884
 20
73.57648659149173
 10
-225.99870871685272
 20
73.97115837048155
 10
-225.86912250129944
 20
74.365604482396
 10
-225.7388477872787
 20
74.75982373782008
 10
-225.6078849835276
 20
75.15381493886727
 10
-225.47623447207076
 20
75.54757687875544
 10
-225.3438966843666
 20
75.94110836721607
 10
-225.21087203308326
 20
76.33440820781983
 10
-225.07716090874067
 20
76.72747519663852
 10
-224.94276372576044
 20
77.12030813781462
 10
-224.80768090527712
 20
77.5129058378535
 10
-224.6719128463081
 20
77.90526709566993
 10
-224.535459946332
 20
78.29739070954037
 10
-224.39832263495364
 20
78.68927548889502
 10
-224.2605013196926
 20
79.08092023548254
 10
-224.12199638118068
 20
79.47232374144
 10
-223.98280825750126
 20
79.86348481910967
 10
-223.8429373574367
 20
80.25440227046653
 10
-223.70238407033906
 20
80.64507489037749
 10
-223.5611488488173
 20
81.03550149635969
 10
-223.41923214629742
 20
81.42568090638427
 10
-223.27663439423048
 20
81.81561193050648
 10
-223.13335603788073
 20
82.20529338383228
 10
-222.98939753903582
 20
82.59472408764627
 10
-222.84475933751406
 20
82.9839028552223
 10
-222.699441861729
 20
83.37282849554562
 10
-222.55344558180303
 20
83.76149983319708
 10
-222.40677094382622
 20
84.14991568386017
 10
-222.25941836575237
 20
84.53807485251026
 10
-222.11138831974998
 20
84.9259761646297
 10
-221.96268125401548
 20
85.31361843666332
 10
-221.81329759494085
 20
85.70100047660597
 10
-221.663237797952
 20
86.08812110352852
 10
-221.5125023196554
 20
86.47497913697597
 10
-221.36109159488842
 20
86.86157338795456
 10
-221.20900606244183
 20
87.24790266885157
 10
-221.0562461913424
 20
87.63396580389006
 10
-220.90281245284547
 20
88.01976161822066
 10
-220.74870530601112
 20
88.40528893211695
 10
-220.5939252610221
 20
88.79054658633301
 10
-220.4384728009529
 20
89.17553341094562
 10
-220.2823483842206
 20
89.56024822606155
 10
-220.12555251320998
 20
89.9446898696132
 10
-219.96808567627244
 20
90.32885717396259
 10
-219.80994834012202
 20
90.71274896260346
 10
-219.6511409904982
 20
91.09636406680438
 10
-219.49166412401576
 20
91.479701322392
 10
-219.33151821568856
 20
91.8627595562368
 10
-219.17070373472137
 20
92.24553759267336
 10
-219.00922118599718
 20
92.62803427098318
 10
-218.84707105256447
 20
93.01024842129156
 10
-218.6842537880174
 20
93.39217886107403
 10
-218.5207699047049
 20
93.77382443271442
 10
-218.3566198860282
 20
94.15518396626132
 10
-218.19180419825378
 20
94.53625628423339
 10
-218.0263233654817
 20
94.91704023405488
 10
-217.86017791583578
 20
95.2975346650537
 10
-217.6933683559842
 20
95.67773841728146
 10
-217.52589520178552
 20
96.05765033481751
 10
-217.35775898948125
 20
96.43726927082248
 10
-217.1889602338867
 20
96.81659406908899
 10
-217.01949943443438
 20
97.19562356651345
 10
-216.84937713547538
 20
97.57435662007386
 10
-216.67859385651016
 20
97.9527920757272
 10
-216.50715009104897
 20
98.33092876761944
 10
-216.335046381169
 20
98.70876555183632
 10
-216.16228324984513
 20
99.0863012758664
 10
-215.98886119881624
 20
99.46353477740654
 10
-215.81478075386022
 20
99.84046490507512
 10
-215.64004244614833
 20
100.21709050998855
 10
-215.46464678565746
 20
100.59341043338296
 10
-215.28859428198962
 20
100.96942351614739
 10
-215.11188547908665
 20
101.34512861516642
 10
-214.93452092344629
 20
101.72052458859477
 10
-214.75650114451463
 20
102.09561028650107
 10
-214.5778267256863
 20
102.47038458459785
 10
-214.39849822256352
 20
102.84484634557339
 10
-214.21851616816784
 20
103.21899442129187
 10
-214.0378811340752
 20
103.59282768214496
 10
-213.8565936824142
 20
103.96634499410662
 10
-213.67465435427118
 20
104.33954521294916
 10
-213.49206370503524
 20
104.7124272013533
 10
-213.30882230486137
 20
105.08498982927608
 10
-213.124930702903
 20
105.45723195638988
 10
-212.94038943849043
 20
105.82915243740065
 10
-212.75519908981013
 20
106.20075014624013
 10
-212.5693602124355
 20
106.5720239456423
 10
-212.38287333472874
 20
106.94297268456431
 10
-212.19573903795538
 20
107.31359523841886
 10
-212.00795787943753
 20
107.68389047058156
 10
-211.81953040052085
 20
108.05385723618184
 10
-211.63045719476528
 20
108.42349441683466
 10
-211.44073886285398
 20
108.79280089795098
 10
-211.250375984628
 20
109.16177555434186
 10
-211.05936914470138
 20
109.5304172632733
 10
-210.86771895160862
 20
109.8987249144942
 10
-210.6754259930844
 20
110.26669738706534
 10
-210.48249083780684
 20
110.63433355004011
 10
-210.28891410216235
 20
111.0016322974901
 10
-210.0946963770475
 20
111.36859251020923
 10
-209.8998382295344
 20
111.73521305630207
 10
-209.70434026967
 20
112.10149282662798
 10
-209.50820309309708
 20
112.46743070445541
 10
-209.3114272748749
 20
112.8330255619533
 10
-209.11401340926034
 20
113.19827628149037
 10
-208.91596209984556
 20
113.56318175047586
 10
-208.71727392968504
 20
113.92774084513673
 10
-208.51794947738708
 20
114.29195243909334
 10
-208.3179893595876
 20
114.65581542668731
 10
-208.1173941955528
 20
115.01932870378843
 10
-207.9161645830906
 20
115.38249115439802
 10
-207.7143011763221
 20
115.74530169374982
 10
-207.51180460108756
 20
116.10775922158129
 10
-207.30867546272583
 20
116.46986262617084
 10
-207.1049143998242
 20
116.83161081442604
 10
-206.90052204588744
 20
117.19300269053156
 10
-206.69549901405435
 20
117.55403714717825
 10
-206.48984592725157
 20
117.91471308254422
 10
-206.2835634267404
 20
118.2750294052998
 10
-206.07665213346363
 20
118.63498501253866
 10
-205.86911265483116
 20
118.9945787934549
 10
-205.66094563986658
 20
119.35380966119676
 10
-205.45215171438255
 20
119.7126765155383
 10
-205.2427314792392
 20
120.07117824158202
 10
-205.0326855824118
 20
120.42931375180022
 10
-204.82201465276054
 20
120.78708194750055
 10
-204.6107193043908
 20
121.1444817211657
 10
-204.3988001980025
 20
121.50151199271465
 10
-204.18625800439838
 20
121.85817168821472
 10
-203.97309337423897
 20
122.2144597218522
 10
-203.7593069587952
 20
122.57037500816855
 10
-203.54489943642855
 20
122.92591647805828
 10
-203.32987146540597
 20
123.28108305045181
 10
-203.11422368162027
 20
123.63587363067657
 10
-202.89795677099286
 20
123.99028715444204
 10
-202.68107139351122
 20
124.34432254179849
 10
-202.46356818750508
 20
124.69797869944942
 10
-202.24544782879548
 20
125.051254557068
 10
-202.02671098327548
 20
125.40414903828459
 10
-201.80735829698685
 20
125.7566610543673
 10
-201.58739043053507
 20
126.10878952550736
 10
-201.36680805748324
 20
126.46053337997313
 10
-201.14561183159452
 20
126.81189153358989
 10
-200.92380239841484
 20
127.16286289682122
 10
-200.70138044474444
 20
127.51344640609648
 10
-200.47834665870496
 20
127.86364099878188
 10
-200.25470170797152
 20
128.21344559920183
 10
-200.03044631105385
 20
128.56285916420615
 10
-199.8055811627897
 20
128.91188063569177
 10
-199.5801069383566
 20
129.26050894289332
 10
-199.3540243410354
 20
129.60874303319585
 10
-199.12733407311777
 20
129.95658185347403
 10
-198.90003681728453
 20
130.30402433786233
 10
-198.6721332617456
 20
130.65106942403378
 10
-198.44362411624877
 20
130.9977160638324
 10
-198.21451007098372
 20
131.3439631962814
 10
-197.98479179924783
 20
131.6898097490993
 10
-197.7544700182529
 20
132.03525467908884
 10
-197.52354542158764
 20
132.3802969273962
 10
-197.2920186801485
 20
132.7249354198197
 10
-197.05989050627034
 20
133.06916910983836
 10
-196.82716159777883
 20
133.41299694118055
 10
-196.593832639002
 20
133.7564178483081
 10
-196.35990435526517
 20
134.09943079343117
 10
-196.1253774847938
 20
134.44203474770183
 10
-195.89025274645047
 20
134.78422866915798
 10
-195.65453085584784
 20
135.1260115135953
 10
-195.4182125584468
 20
135.4673822574652
 10
-195.181298580397
 20
135.80833986402732
 10
-194.9437896225539
 20
136.1488832788984
 10
-194.70568643761607
 20
136.48901148381717
 10
-194.4669897521077
 20
136.8287234423812
 10
-194.2277002730429
 20
137.16801810440174
 10
-193.9878187396101
 20
137.50689444228496
 10
-193.74734588527213
 20
137.84535142446344
 10
-193.50628242444773
 20
138.1833880057961
 10
-193.26462908174528
 20
138.5210031482563
 10
-193.0223865979857
 20
138.85819582539483
 10
-192.77955569500466
 20
139.19496499710823
 10
-192.53613708300085
 20
139.53130961470282
 10
-192.29213151613604
 20
139.86722866118282
 10
-192.04753974851553
 20
140.20272111962433
 10
-191.8023625152977
 20
140.5377859592795
 10
-191.55660059657893
 20
140.87242218230725
 10
-191.310254753526
 20
141.20662877720025
 10
-191.06332572847163
 20
141.54040471858855
 10
-190.81581428691848
 20
141.87374899821484
 10
-190.56772119715453
 20
142.20666061001452
 10
-190.31904720868985
 20
142.53913853398373
 10
-190.06979307260616
 20
142.87118175121213
 10
-189.81995956431604
 20
143.2027892610694
 10
-189.56954744051208
 20
143.53396004890826
 10
-189.31855743802907
 20
143.86469308493236
 10
-189.06699033941214
 20
144.19498737393653
 10
-188.81484690337817
 20
144.52484190266847
 10
-188.56212786818767
 20
144.85425564207966
 10
-188.3088340080331
 20
145.18322759051733
 10
-188.05496608692872
 20
145.51175673851643
 10
-187.80052485661733
 20
145.8398420670116
 10
-187.54551110420894
 20
146.16748258424883
 10
-187.28992563223255
 20
146.49467731062418
 10
-187.03376922471008
 20
146.8214252522355
 10
-186.77704265890495
 20
147.14772540986777
 10
-186.51974674423167
 20
147.47357680966303
 10
-186.26188227083526
 20
147.79897846274082
 10
-186.00345000435829
 20
148.12392936073886
 10
-185.74445075864463
 20
148.4484285335846
 10
-185.4848853246182
 20
148.77247499309453
 10
-185.22475447498405
 20
149.09606773642125
 10
-184.96405900951845
 20
149.4192057823763
 10
-184.70279972615532
 20
149.74188814835662
 10
-184.44097740467078
 20
150.06411383702036
 10
-184.17859283095603
 20
150.38588185583743
 10
-183.91564680996495
 20
150.70719122777794
 10
-183.6521401285535
 20
151.0280409610009
 10
-183.3880735589156
 20
151.34843005141218
 10
-183.12344791935791
 20
151.66835753278366
 10
-182.8582640268451
 20
151.98782243791248
 10
-182.59252268099593
 20
152.30682378519276
 10
-182.3262247206434
 20
152.62536062570888
 10
-182.05937097015743
 20
152.94343199868896
 10
-181.79196223597395
 20
153.2610369283504
 10
-181.5239993430272
 20
153.5781744544518
 10
-181.25548312244646
 20
153.8948436221071
 10
-180.98641438749
 20
154.21104346134467
 10
-180.7167939493794
 20
154.52677300037246
 10
-180.44662264600947
 20
154.8420312901799
 10
-180.17590129746478
 20
155.15681736659883
 10
-179.9046307014438
 20
155.47113024606418
 10
-179.63281170261382
 20
155.7849689854334
 10
-179.36044512181994
 20
156.0983326210471
 10
-179.0875317616503
 20
156.41122017321237
 10
-178.81407245533364
 20
156.72363068878346
 10
-178.54006802993646
 20
157.0355632092303
 10
-178.26551930147227
 20
157.34701676620756
 10
-177.99042711589652
 20
157.6579904176435
 10
-177.71479233681714
 20
157.96848323722807
 10
-177.43861581026223
 20
158.2784942832261
 10
-177.16189837238278
 20
158.58802260508617
 10
-176.8846408932927
 20
158.89706728267078
 10
-176.60684422366228
 20
159.20562737860934
 10
-176.32850919207732
 20
159.5137019355882
 10
-176.04963666938394
 20
159.821290034421
 10
-175.77022750813526
 20
160.12839073951756
 10
-175.4902825436154
 20
160.435003099516
 10
-175.20980263334008
 20
160.7411261832401
 10
-174.92878863650307
 20
161.0467590611152
 10
-174.64724139509562
 20
161.35190078772243
 10
-174.3651617534998
 20
161.65655041968185
 10
-174.0825505775604
 20
161.96070703342735
 10
-173.7994087159849
 20
162.26436968947925
 10
-173.51573700022803
 20
162.5675374320468
 10
-173.2315363093601
 20
162.87020934973347
 10
-172.94680751986687
 20
163.17238452887395
 10
-172.66155149253814
 20
163.47406204101466
 10
-172.37576912187774
 20
163.7752409896029
 10
-172.08946129207166
 20
164.0759204685304
 10
-171.80262887034309
 20
164.3760995555886
 10
-171.51527273804786
 20
164.67577734203553
 10
-171.22739378574403
 20
164.9749529280665
 10
-170.93899288709298
 20
165.2736253977063
 10
-170.6500709105027
 20
165.5717938298116
 10
-170.36062875290983
 20
165.86945733087106
 10
-170.07066729396436
 20
166.16661499069087
 10
-169.78018739069398
 20
166.46326587684902
 10
-169.4891899450563
 20
166.75940910078842
 10
-169.19767583723453
 20
167.05504375267685
 10
-168.9056459308398
 20
167.350168906178
 10
-168.61310111510403
 20
167.64478366011014
 10
-168.3200422767458
 20
167.9388871108008
 10
-168.02647029261624
 20
168.23247834464075
 10
-167.7323860643266
 20
168.52555647265964
 10
-167.4377905130251
 20
168.81812062563083
 10
-167.14268454327572
 20
169.1101699178361
 10
-166.84706904707753
 20
169.40170345084206
 10
-166.55094495167862
 20
169.6927203619967
 10
-166.25431316491668
 20
169.98321976912888
 10
-165.9571745749199
 20
170.27320076988232
 10
-165.65953010636116
 20
170.562662499291
 10
-165.36138066992686
 20
170.85160407818256
 10
-165.06272716005083
 20
171.1400246105668
 10
-164.76357048886814
 20
171.4279232186615
 10
-164.4639115733096
 20
171.7152990297202
 10
-164.16375131412568
 20
172.00215115410896
 10
-163.8630906111228
 20
172.28847870102905
 10
-163.5619303874885
 20
172.57428080415195
 10
-163.26027155029607
 20
172.8595565802003
 10
-162.9581149872515
 20
173.14430512516978
 10
-162.65546163451188
 20
173.42852558629232
 10
-162.3523124245683
 20
173.71221710707454
 10
-162.04866827589726
 20
173.99537881605931
 10
-161.7445301354602
 20
174.27800987235656
 10
-161.43989894368315
 20
174.56010942827808
 10
-161.13477562506554
 20
174.8416766190088
 10
-160.8291611142245
 20
175.12271059065648
 10
-160.52305635754365
 20
175.4032105022297
 10
-160.21646228555076
 20
175.6831754955436
 10
-159.90937982073225
 20
175.96260470350475
 10
-159.60180991543677
 20
176.24149729180806
 10
-159.29375350476565
 20
176.5198524072742
 10
-158.98521150367074
 20
176.79766917426593
 10
-158.67618486609268
 20
177.07494676030416
 10
-158.36667452867698
 20
177.35168431374953
 10
-158.05668141255768
 20
177.62788096545768
 10
-157.74620645977865
 20
177.90353586954055
 10
-157.4352506131247
 20
178.17864818092997
 10
-157.12381480663535
 20
178.4532170445848
 10
-156.81189999423435
 20
178.72724162788992
 10
-156.49950715086413
 20
179.00072112229506
 10
-156.1866372359437
 20
179.273654701755
 10
-155.87329119411027
 20
179.54604152325393
 10
-155.5594700059755
 20
179.81788078519074
 10
-155.24517463299094
 20
180.08917166410131
 10
-154.93040601920987
 20
180.35991331630856
 10
-154.61516513979313
 20
180.63010493423704
 10
-154.2994529598537
 20
180.8997456987639
 10
-153.98327042933354
 20
181.16883477296543
 10
-153.66661851169843
 20
181.43737133567708
 10
-153.34949817788504
 20
181.7053545745851
 10
-153.03191038373407
 20
181.97278365951195
 10
-152.7138560812375
 20
182.2396577555168
 10
-152.3953362471686
 20
182.5059760570883
 10
-152.07635184313258
 20
182.77173774062575
 10
-151.75690381031862
 20
183.03694195775645
 10
-151.43699313763304
 20
183.30158791738202
 10
-151.1166208099079
 20
183.56567482368246
 10
-150.79578779949495
 20
183.82920186572056
 10
-150.47449510231957
 20
184.09216826127792
 10
-150.15274371114822
 20
184.35457322451708
 10
-149.83053460392162
 20
184.61641595151116
 10
-149.5078687650764
 20
184.87769564627902
 10
-149.18474719289955
 20
185.1384115300441
 10
-148.86117087092518
 20
185.39856280588089
 10
-148.53714077232684
 20
185.65814866385912
 10
-148.2126579009191
 20
185.9171683322548
 10
-147.88772324352345
 20
186.175621018221
 10
-147.56233776921871
 20
186.43350590643985
 10
-147.2365024804143
 20
186.69082222349022
 10
-146.9102183663347
 20
186.94756917936664
 10
-146.58348640181666
 20
187.20374596562291
 10
-146.25630757825135
 20
187.45935179469814
 10
-145.9286828905837
 20
187.7143858835468
 10
-145.60061332608922
 20
187.96884743919685
 10
-145.27209988745716
 20
188.22273568840936
 10
-144.94314359944076
 20
188.4760498866334
 10
-144.6137454723905
 20
188.7287892708885
 10
-144.28390650015612
 20
188.98095305665913
 10
-143.95362771270734
 20
189.23254050668947
 10
-143.62291012132428
 20
189.48355085947873
 10
-143.29175472212125
 20
189.7339833334895
 10
-142.96016253720506
 20
189.98383718148096
 10
-142.62813458216914
 20
190.23311164774196
 10
-142.2956718585748
 20
190.48180595784956
 10
-141.96277537772397
 20
190.72991935025567
 10
-141.6294461605884
 20
190.97745107641572
 10
-141.29568521418744
 20
191.2244003690138
 10
-140.96149353925043
 20
191.4707664520222
 10
-140.62687216214084
 20
191.71654858405643
 10
-140.29182209430428
 20
191.96174600348652
 10
-139.95634432928233
 20
192.2063579239379
 10
-139.62043990232402
 20
192.45038361601397
 10
-139.2841098474259
 20
192.69382234880283
 10
-138.94735518685627
 20
192.9366733752349
 10
-138.61017696190493
 20
193.1789359746358
 10
-138.2725762136409
 20
193.42060942626682
 10
-137.93455396946433
 20
193.66169299041007
 10
-137.59611126007695
 20
193.90218593192404
 10
-137.25724913160897
 20
194.1420875374676
 10
-136.91796861659728
 20
194.38139707466547
 10
-136.57827073539303
 20
194.6201137937375
 10
-136.2381565391931
 20
194.85823698873307
 10
-135.89762706267422
 20
195.095765930294
 10
-135.55668332509276
 20
195.33269986678704
 10
-135.21532637370447
 20
195.56903808669276
 10
-134.87355724628537
 20
195.80477986490345
 10
-134.53137696740222
 20
196.03992445700905
 10
-134.1887865742165
 20
196.2744711366764
 10
-133.84578710978184
 20
196.5084191861243
 10
-133.502379610486
 20
196.7417678777376
 10
-133.15856512406964
 20
196.97451650046065
 10
-132.81434472090078
 20
197.2066643767987
 10
-132.46971945812172
 20
197.4382108099648
 10
-132.12469037518755
 20
197.66915507680773
 10
-131.77925854720758
 20
197.89949650744575
 10
-131.4334250313025
 20
198.1292344053482
 10
-131.0871908715645
 20
198.35836805431785
 10
-130.74055713332748
 20
198.5868967701682
 10
-130.39352487850329
 20
198.81481986370088
 10
-130.04609515616895
 20
199.04213662616422
 10
-129.698269021785
 20
199.26884635840622
 10
-129.35004754217755
 20
199.49494837872112
 10
-129.001431771416
 20
199.72044198579832
 10
-128.65242275533546
 20
199.94532646536035
 10
-128.30302156568533
 20
200.16960114319082
 10
-127.95322925976265
 20
200.3932653226386
 10
-127.60304687938748
 20
200.61631828254832
 10
-127.25247550228862
 20
200.83875935789644
 10
-126.90151620733377
 20
201.06058788566682
 10
-126.55017006252369
 20
201.2818031857269
 10
-126.19843815072949
 20
201.5024046015755
 10
-125.84632155706502
 20
201.7223914805386
 10
-125.49382135418513
 20
201.94176315014664
 10
-125.14093861531707
 20
202.16051893878594
 10
-124.78767443015404
 20
202.37865820148753
 10
-124.43402987601145
 20
202.59618027343558
 10
-124.0800060167189
 20
202.8130844677487
 10
-123.72560394655827
 20
203.02937014715437
 10
-123.37082474398504
 20
203.24503664867265
 10
-123.0156694742614
 20
203.46008328743827
 10
-122.66013922568543
 20
203.67450941643372
 10
-122.30423508033876
 20
203.8883143784295
 10
-121.9479581083219
 20
204.10149749610727
 10
-121.591309388805
 20
204.3140581070215
 10
-121.23429000868198
 20
204.5259955616103
 10
-120.87690104911307
 20
204.73730920060981
 10
-120.51914359902463
 20
204.94799837772908
 10
-120.16101877002204
 20
205.15806248531777
 10
-119.80252766104137
 20
205.36750089449103
 10
-119.4436713553862
 20
205.57631294957508
 10
-119.08445096689101
 20
205.7844980473571
 10
-118.7248675950259
 20
205.99205556018637
 10
-118.36492232758451
 20
206.19898484014564
 10
-118.0046162692532
 20
206.40528526860163
 10
-117.64395052391815
 20
206.6109562257004
 10
-117.28292618387404
 20
206.8159970712716
 10
-116.92154434490952
 20
207.02040717111743
 10
-116.55980611533712
 20
207.22418591317413
 10
-116.19771259195983
 20
207.42733266501565
 10
-115.8352648619251
 20
207.62984677673495
 10
-115.47246403798283
 20
207.83172764405586
 10
-115.10931121911551
 20
208.03297463806356
 10
-114.74580749115138
 20
208.23358710578236
 10
-114.38195397028798
 20
208.43356444898873
 10
-114.01775177579026
 20
208.63290607527225
 10
-113.65320201702151
 20
208.8316113742296
 10
-113.28830581449517
 20
209.02967975593106
 10
-112.92306429293002
 20
209.2271106384524
 10
-112.55747856584489
 20
209.42390341933495
 10
-112.191549745093
 20
209.62005749295224
 10
-111.82527895947288
 20
209.81557228536118
 10
-111.45866732666664
 20
210.0104472020381
 10
-111.0917159501236
 20
210.2046816215203
 10
-110.72442596273106
 20
210.39827497783799
 10
-110.35679848247563
 20
210.59122667701394
 10
-109.98883461626117
 20
210.78353610376118
 10
-109.62053548947223
 20
210.9752026779303
 10
-109.25190222406495
 20
211.1662258128715
 10
-108.88293593129308
 20
211.35660490113642
 10
-108.51363772841378
 20
211.54633934659785
 10
-108.14400874171119
 20
211.73542857058573
 10
-107.77405009259743
 20
211.923871984888
 10
-107.40376290717764
 20
212.11166901032385
 10
-107.03314833374652
 20
212.29881911159117
 10
-106.66220750858983
 20
212.48532173003116
 10
-106.29094155475975
 20
212.6711762806405
 10
-105.91935162042607
 20
212.8563822285722
 10
-105.54743884301661
 20
213.0409390178059
 10
-105.17520434957416
 20
213.2248460713627
 10
-104.80264928011934
 20
213.40810283842535
 10
-104.429774775994
 20
213.5907087710336
 10
-104.05658196823667
 20
213.77266330022815
 10
-103.68307198898306
 20
213.95396585909012
 10
-103.30924598349617
 20
214.13461590771573
 10
-102.9351050868209
 20
214.314612885161
 10
-102.56065042347046
 20
214.4939562082789
 10
-102.18588314263852
 20
214.6726453452209
 10
-101.81080438066445
 20
214.85067973729906
 10
-101.43541526293275
 20
215.02805880239816
 10
-101.05971693995735
 20
215.20478201126963
 10
-100.68371056677685
 20
215.3808488445243
 10
-100.30739728957145
 20
215.55625876399858
 10
-99.9307782624216
 20
215.73101124849006
 10
-99.55385464504707
 20
215.90510578922158
 10
-99.17662758727118
 20
216.07854185622148
 10
-98.79909823553034
 20
216.25131891207207
 10
-98.42126775311151
 20
216.42343645621884
 10
-98.0431372931119
 20
216.5948939660509
 10
-97.6647079957131
 20
216.7656908902832
 10
-97.28598102665181
 20
216.9358267341067
 10
-96.90695753941161
 20
217.10530097572578
 10
-96.52763867800331
 20
217.27411307195698
 10
-96.14802560080567
 20
217.44226251164346
 10
-95.76811946505633
 20
217.60974878112722
 10
-95.38792141860722
 20
217.77657134532487
 10
-95.00743261274536
 20
217.94272967661544
 10
-94.6266542085294
 20
218.1082232696047
 10
-94.24558736294257
 20
218.27305160952855
 10
-93.86423323513405
 20
218.4372141864187
 10
-93.48259300538577
 20
218.60071053952916
 10
-93.10066784285377
 20
218.7635401826417
 10
-92.71845890573992
 20
218.9257026038246
 10
-92.33596737236628
 20
219.0871973385494
 10
-91.95319441346324
 20
219.2480239047131
 10
-91.57014119070465
 20
219.40818179864596
 10
-91.18680887529884
 20
219.5676705393624
 10
-90.80319864136915
 20
219.72648965305223
 10
-90.41931165406507
 20
219.8846386443039
 10
-90.03514907775357
 20
220.04211701555988
 10
-89.65071208995921
 20
220.19892430129957
 10
-89.26600185932013
 20
220.355060014365
 10
-88.88101954362917
 20
220.5105236405181
 10
-88.4957663238228
 20
220.6653147225265
 10
-88.11024336911073
 20
220.81943277414646
 10
-87.72445183982234
 20
220.97287728651114
 10
-87.33839291651839
 20
221.12564780125905
 10
-86.95206778524191
 20
221.2777438741433
 10
-86.56547762429682
 20
221.4291650414539
 10
-86.17862361713078
 20
221.57991085262572
 10
-85.79150695371787
 20
221.7299808741269
 10
-85.40412881547483
 20
221.8793746506553
 10
-85.01649037925809
 20
222.0280917149751
 10
-84.62859283807445
 20
222.17613164198914
 10
-84.24043737559855
 20
222.3234939825166
 10
-83.8520251649563
 20
222.47017825938042
 10
-83.46335739960722
 20
222.61618404907622
 10
-83.07443526410144
 20
222.76151090469375
 10
-82.68525993486969
 20
222.9061583573853
 10
-82.29583259907241
 20
223.05012596686205
 10
-81.90615444448639
 20
223.1934132945746
 10
-81.51622665086342
 20
223.33601988000177
 10
-81.12605039933186
 20
223.47794526597343
 10
-80.73562688096689
 20
223.6191890224543
 10
-80.34495728350599
 20
223.7597507102113
 10
-79.95404279488385
 20
223.89962989033745
 10
-79.56288462253947
 20
224.0388261785397
 10
-79.17148396388491
 20
224.17733916296447
 10
-78.77984200752412
 20
224.31516840685046
 10
-78.38795995764033
 20
224.45231351767862
 10
-77.99583901346995
 20
224.58877408924425
 10
-77.60348036655432
 20
224.7245496932528
 10
-77.21088521502661
 20
224.85963992030833
 10
-76.81805476098182
 20
224.99404437269794
 10
-76.42499019890585
 20
225.12776263058913
 10
-76.0316927211597
 20
225.26079426761214
 10
-75.63816353270354
 20
225.39313889454368
 10
-75.24440383083159
 20
225.5247960995653
 10
-74.85041480285476
 20
225.6557654405747
 10
-74.45619765616433
 20
225.78604653550335
 10
-74.061753588383
 20
225.91563897291832
 10
-73.6670837900202
 20
226.04454231928574
 10
-73.27218946731062
 20
226.17275618877403
 10
-72.87707183241179
 20
226.30028021409396
 10
-72.4817320909281
 20
226.42711400790174
 10
-72.0861714513668
 20
226.5532571919262
 10
-71.69039112908428
 20
226.6787094096756
 10
-71.29439233225396
 20
226.80347028239572
 10
-70.89817626386827
 20
226.9275394147587
 10
-70.5017441417738
 20
227.05091645888336
 10
-70.10509717555436
 20
227.17360104080728
 10
-69.70823656647177
 20
227.29559275942648
 10
-69.3111635313623
 20
227.41689126409622
 10
-68.9138792809957
 20
227.5374961846355
 10
-68.51638501939965
 20
227.65740712846352
 10
-68.11868195819581
 20
227.77662372778326
 10
-67.72077131083996
 20
227.8951456209635
 10
-67.32265428414209
 20
228.012972423945
 10
-66.92433208478496
 20
228.1301037516976
 10
-66.525805928978
 20
228.24653925132145
 10
-66.12707703026813
 20
228.36227856089016
 10
-65.72814660103651
 20
228.47732131415955
 10
-65.32901587093382
 20
228.59166720489182
 10
-64.9296860609099
 20
228.70531589724382
 10
-64.53015838510223
 20
228.8182670314319
 10
-64.13043406917235
 20
228.93052028839307
 10
-63.73051433595237
 20
229.04207533950742
 10
-63.33040040197423
 20
229.15293183362735
 10
-62.93009348793625
 20
229.26308943446202
 10
-62.52959481898338
 20
229.37254782204818
 10
-62.12890561404586
 20
229.48130665387075
 10
-61.72802708914489
 20
229.58936557633143
 10
-61.326960471745245
 20
229.69672427812145
 10
-60.92570698267625
 20
229.80338242342572
 10
-60.524267835095536
 20
229.90933964705485
 10
-60.122644257266394
 20
230.01459564056324
 10
-59.72083747071055
 20
230.11915007001863
 10
-59.318848691241456
 20
230.2230025790088
 10
-58.91667914630409
 20
230.32615285560837
 10
-58.51433006918108
 20
230.42860061096826
 10
-58.111802687828096
 20
230.53034553569512
 10
-57.7090982314079
 20
230.6313873251887
 10
-57.30621793567444
 20
230.73172570145888
 10
-56.90316303060234
 20
230.83136036384775
 10
-56.49993474093776
 20
230.93029099038165
 10
-56.09653430437285
 20
231.02851731182204
 10
-55.69296295162453
 20
231.1260390308984
 10
-55.28922190716124
 20
231.22285582421543
 10
-54.88531240676289
 20
231.31896741525907
 10
-54.48123568244735
 20
231.41437351209294
 10
-54.07699296090574
 20
231.50907380000226
 10
-53.672585473802165
 20
231.60306798502458
 10
-53.26801445529396
 20
231.69635578392612
 10
-52.86328113430438
 20
231.78893689067377
 10
-52.45838673866817
 20
231.8808109937917
 10
-52.0533325047402
 20
231.97197781895693
 10
-51.6481196668378
 20
232.0624370829536
 10
-51.24274945736076
 20
232.15218849360966
 10
-50.83722312311844
 20
232.24123182392987
 10
-50.4315419037843
 20
232.32956681544178
 10
-50.02570703405338
 20
232.4171931868169
 10
-49.619719756597576
 20
232.50411069361445
 10
-49.21358131283547
 20
232.59031908615427
 10
-48.80729293929874
 20
232.67581809187925
 10
-48.40085587480519
 20
232.76060744883995
 10
-47.99427136252901
 20
232.84468691614245
 10
-47.58754064084834
 20
232.928056229997
 10
-47.18066494501545
 20
233.01071511088378
 10
-46.773645519966614
 20
233.09266332669412
 10
-46.36648360525092
 20
233.1739006189484
 10
-45.959180434899665
 20
233.25442670086645
 10
-45.551737253565015
 20
233.33424133875803
 10
-45.14415530166822
 20
233.41334427756303
 10
-44.73643581533701
 20
233.49173523944933
 10
-44.328580038697034
 20
233.56941398749333
 10
-43.9205892210818
 20
233.64638031246298
 10
-43.512464607766795
 20
233.7226339841939
 10
-43.10420744409565
 20
233.7981747728805
 10
-42.69581898115873
 20
233.87300248018917
 10
-42.28730046569137
 20
233.94711688480123
 10
-41.87865313973436
 20
234.0205177392927
 10
-41.46987825575618
 20
234.09320485418658
 10
-41.06097706074929
 20
234.16517801009073
 10
-40.65195079737286
 20
234.2364369626491
 10
-40.242800715846975
 20
234.30698151049762
 10
-39.83352806439074
 20
234.37681144115172
 10
-39.424134087329755
 20
234.44592651905958
 10
-39.014620031887226
 20
234.51432652518213
 10
-38.604987147864136
 20
234.58201125585558
 10
-38.195236681259644
 20
234.6489804843345
 10
-37.785369876594714
 20
234.71523397385715
 10
-37.3753879852958
 20
234.78077152981209
 10
-36.965292257113944
 20
234.84559294732796
 10
-36.555083940650164
 20
234.90969801381195
 10
-36.144764294075635
 20
234.97308657802225
 10
-35.73433457112525
 20
235.03575846137232
 10
-35.32379602198965
 20
235.097713462153
 10
-34.91314990182181
 20
235.15895141144932
 10
-34.502397465538586
 20
235.2194721395603
 10
-34.09153996460426
 20
235.27927545364747
 10
-33.68057865144344
 20
235.33836116707695
 10
-33.26951478216298
 20
235.39672911902846
 10
-32.85834960951231
 20
235.4543791255304
 10
-32.44708438347692
 20
235.51131098218727
 10
-32.035720361363765
 20
235.5675245370581
 10
-31.624258796547537
 20
235.62301961003502
 10
-31.212700938873027
 20
235.6777959939294
 10
-30.801048044850447
 20
235.7318535306732
 10
-30.389301368710598
 20
235.78519204513685
 10
-29.977462161822846
 20
235.83781133921195
 10
-29.56553168042076
 20
235.88971125179984
 10
-29.153511184750755
 20
235.94089165414553
 10
-28.74140193230816
 20
235.9913523962754
 10
-28.32920518007806
 20
236.04109332404153
 10
-27.916922189361937
 20
236.09011431960366
 10
-27.504554218546062
 20
236.13841524190946
 10
-27.092102522446275
 20
236.1859959190173
 10
-26.679568363169505
 20
236.23285624201463
 10
-26.266952999064898
 20
236.27899607027408
 10
-25.85425768588966
 20
236.32441523949575
 10
-25.441483683746835
 20
236.3691136242202
 10
-25.028632251940795
 20
236.41309109230548
 10
-24.615704647329633
 20
236.45634748834428
 10
-24.20270212815503
 20
236.49888266904657
 10
-23.789625954738845
 20
236.5406965111742
 10
-23.37647738505005
 20
236.58178886821435
 10
-22.96325767575573
 20
236.62215957901876
 10
-22.5499680882313
 20
236.66180852950092
 10
-22.13660988267868
 20
236.7007355938959
 10
-21.723184318770958
 20
236.73894064003673
 10
-21.309692661448114
 20
236.7764235929781
 10
-20.896136173364734
 20
236.813184354753
 10
-20.482516115079516
 20
236.84922280409546
 10
-20.068833749648583
 20
236.88453884823102
 10
-19.655090340338766
 20
236.91913239813562
 10
-19.241287148415392
 20
236.953003341477
 10
-18.827425435340317
 20
236.98615156762403
 10
-18.413506465004104
 20
237.01857699649125
 10
-17.999531499388823
 20
237.050279524677
 10
-17.585501798654207
 20
237.08125902366916
 10
-17.171418627323362
 20
237.11151542232008
 10
-16.757283247643457
 20
237.1410486196059
 10
-16.343096920148927
 20
237.1698584887714
 10
-15.928860908620852
 20
237.1979449479499
 10
-15.51457647595958
 20
237.2253079026578
 10
-15.100244883639661
 20
237.25194723531158
 10
-14.685867395386405
 20
237.27786286116915
 10
-14.271445277183634
 20
237.3030547324694
 10
-13.856979793588994
 20
237.32752278005142
 10
-13.442472208645063
 20
237.3512669259989
 10
-13.027923788690282
 20
237.37428713346054
 10
-12.613335798546133
 20
237.39658334113562
 10
-12.198709501398334
 20
237.41815545651107
 10
-11.784046163647517
 20
237.43900344839778
 10
-11.369347050085869
 20
237.4591272565968
 10
-10.95461342441866
 20
237.47852679754007
 10
-10.539846552033802
 20
237.4972020221388
 10
-10.125047698160786
 20
237.51515287914262
 10
-9.710218127035631
 20
237.53237929392805
 10
-9.295359103325
 20
237.54888119949322
 10
-8.880471892705751
 20
237.5646585535383
 10
-8.465557759954734
 20
237.57971129038702
 10
-8.050617969310762
 20
237.59403932511472
 10
-7.6356537869143715
 20
237.60764262463192
 10
-7.220666478421892
 20
237.620521142721
 10
-6.805657309400625
 20
237.63267482817253
 10
-6.3906275469481
 20
237.64410368261738
 10
-5.975578457459747
 20
237.65480768912659
 10
-5.560511306694774
 20
237.664786807386
 10
-5.1454273610050105
 20
237.67404102111408
 10
-4.730327886827896
 20
237.68257032234575
 10
-4.31521415006015
 20
237.6903746797272
 10
-3.9000874165995647
 20
237.69745405905533
 10
-3.4849489529372617
 20
237.70380846132514
 10
-3.0698000251139788
 20
237.70943786414105
 10
-2.654641898869489
 20
237.7143422153723
 10
-2.239475840756094
 20
237.7185215249737
 10
-1.8243031169123145
 20
237.72197577141978
 10
-1.409124993389812
 20
237.72470490891618
 10
-0.9939427366329957
 20
237.72670893211364
 10
-0.578757613030784
 20
237.727987827575
 10
-0.1635708889903959
 20
237.72854155872614
 10
0.25161616890352445
 20
237.72837011744258
 10
0.666802294125271
 20
237.72747353714482
 10
1.08198622024478
 20
237.7258518297763
 10
1.4971666807726256
 20
237.72350499395205
 10
1.9123424095248815
 20
237.72043307397377
 10
2.327512140291015
 20
237.71663608812707
 10
2.7426746065523147
 20
237.71211402496283
 10
3.1578285423794337
 20
237.7068669298802
 10
3.5729726816752976
 20
237.70089482378168
 10
3.98810575797194
 20
237.69419770417787
 10
4.4032265052109825
 20
237.6867755985402
 10
4.818333657430845
 20
237.67862853672963
 10
5.233425948202114
 20
237.66975652521666
 10
5.648502111042814
 20
237.6601595735503
 10
6.063560880116991
 20
237.649837720552
 10
6.478600989023635
 20
237.6387909816558
 10
6.893621170571053
 20
237.62701934849665
 10
7.308620159041311
 20
237.61452286912208
 10
7.723596688342189
 20
237.60130157698694
 10
8.138549492204913
 20
237.5873555020349
 10
8.553477306001238
 20
237.57268472247085
 10
8.968378864785894
 20
237.5572893024857
 10
9.383252902792492
 20
237.5411692828901
 10
9.798098154994124
 20
237.52432472396592
 10
10.212913356977015
 20
237.50675569885223
 10
10.627697243408393
 20
237.48846225731066
 10
11.042448548571675
 20
237.46944444170938
 10
11.457166008570782
 20
237.44970233413267
 10
11.871848358464796
 20
237.429235992648
 10
12.286494331651554
 20
237.40804544365236
 10
12.701102664646815
 20
237.3861307762454
 10
13.11567209245775
 20
237.36349204913995
 10
13.530201348707001
 20
237.3401292976936
 10
13.94468916890955
 20
237.31604259310882
 10
14.359134288380986
 20
237.29123200305838
 10
14.773535440977039
 20
237.26569757212624
 10
15.187891361883569
 20
237.23943936878348
 10
15.602200789236065
 20
237.2124575074884
 10
16.016462459920824
 20
237.1847520812499
 10
16.430675109626176
 20
237.15632316523576
 10
16.844837477517878
 20
237.12717088473408
 10
17.258948300999638
 20
237.09729533755575
 10
17.673006315412607
 20
237.0666965933668
 10
18.087010259921968
 20
237.03537477399462
 10
18.500958872321196
 20
237.00332998136747
 10
18.914850888571365
 20
236.9705622940901
 10
19.328685046567546
 20
236.93707181610677
 10
19.742460084806456
 20
236.90285865827738
 10
20.156174739860866
 20
236.86792290814574
 10
20.569827748061694
 20
236.83226465179703
 10
20.983417848601587
 20
236.7958840090254
 10
21.396943778654286
 20
236.7587810763179
 10
21.810404272696367
 20
236.72095592192724
 10
22.223798070631165
 20
236.6824086748465
 10
22.63712391093013
 20
236.64313944801293
 10
23.050380531820224
 20
236.60314835238657
 10
23.463566675758056
 20
236.56243554246532
 10
23.876681084440282
 20
236.52100116330885
 10
24.28972249728513
 20
236.47884533669273
 10
24.70268965520997
 20
236.4359681992542
 10
25.115581301010316
 20
236.39236990494922
 10
25.52839617510826
 20
236.34805058445846
 10
25.941133016590882
 20
236.30301035658584
 10
26.35379056934187
 20
236.2572493841814
 10
26.766367574533003
 20
236.21076780468363
 10
27.17886276986195
 20
236.16356572553266
 10
27.59127489955855
 20
236.11564331203493
 10
28.003602704953064
 20
236.06700070378224
 10
28.415844924537883
 20
236.017638017143
 10
28.82800030040406
 20
235.96755539962626
 10
29.240067574762456
 20
235.9167529997458
 10
29.652045486923523
 20
235.86523094305926
 10
30.063932778460515
 20
235.8129893743321
 10
30.47572819734163
 20
235.76002848858488
 10
30.887430488955584
 20
235.70634845951992
 10
31.299038395784542
 20
235.6519494386012
 10
31.71055066751724
 20
235.59683163160423
 10
32.1219660501636
 20
235.54099521548872
 10
32.53328328611207
 20
235.4844403407559
 10
32.944501124226804
 20
235.42716720522225
 10
33.355618311368396
 20
235.36917599143425
 10
33.76663359111552
 20
235.3104668587732
 10
34.177545709925596
 20
235.2510399872903
 10
34.58835341593053
 20
235.19089556840032
 10
34.999055453889135
 20
235.13003377036662
 10
35.409650567557996
 20
235.06845475551725
 10
35.820137506335186
 20
235.0061587241385
 10
36.230515016118396
 20
234.9431458532007
 10
36.640781837763846
 20
234.87941628789306
 10
37.05093672187846
 20
234.8149702370913
 10
37.46097841650325
 20
234.7498078928914
 10
37.87090566953531
 20
234.6839294468016
 10
38.28071723510721
 20
234.61733512905508
 10
38.69041186672188
 20
234.5500251649982
 10
39.099988314155496
 20
234.48199975688033
 10
39.5094453288671
 20
234.41325911720847
 10
39.91878166602172
 20
234.3438034801377
 10
40.3279960769659
 20
234.27363305674012
 10
40.737087310195854
 20
234.20274804184263
 10
41.146054122530934
 20
234.13114867840667
 10
41.554895266232805
 20
234.05883518270994
 10
41.96360948847629
 20
233.98580774279938
 10
42.37219554579334
 20
233.91206659959352
 10
42.78065219100308
 20
233.83761197299992
 10
43.18897817264389
 20
233.76244405992432
 10
43.597172243978655
 20
233.68656308366053
 10
44.005233159274724
 20
233.60996927296335
 10
44.41315966847148
 20
233.5326628338483
 10
44.82095052410186
 20
233.45464398679852
 10
45.2286044891066
 20
233.3759130065872
 10
45.63612032252257
 20
233.29647014690508
 10
46.04349677822195
 20
233.21631563497448
 10
46.45073262154668
 20
233.13544975622676
 10
46.857826612068536
 20
233.0538727660794
 10
47.26477750438551
 20
232.9715848952531
 10
47.671584061629424
 20
232.888586416836
 10
48.07824504487234
 20
232.80487759325067
 10
48.48475921046503
 20
232.7204586640043
 10
48.891125318003795
 20
232.6353298846095
 10
49.29734213039746
 20
232.54949152625767
 10
49.70340840573742
 20
232.46294383724504
 10
50.10932289979962
 20
232.37568705556848
 10
50.51508437731701
 20
232.28772146119292
 10
50.92069159775136
 20
232.19904730955332
 10
51.326143313864
 20
232.10966482615916
 10
51.73143829116562
 20
232.01957429502755
 10
52.136575292504084
 20
231.9287759878971
 10
52.541553080576094
 20
231.83727017603613
 10
52.94637042574738
 20
231.7450571645883
 10
53.351026098445146
 20
231.6521372582862
 10
53.75551886393647
 20
231.55851073904162
 10
54.159847488788074
 20
231.4641778944795
 10
54.56401074564968
 20
231.3691390380165
 10
54.968007401917355
 20
231.2733944602696
 10
55.37183622007556
 20
231.1769444314081
 10
55.77549597498459
 20
231.07978927353224
 10
56.178985434931406
 20
230.98192928092584
 10
56.582303361714615
 20
230.88336472148478
 10
56.985448528713356
 20
230.78409591088027
 10
57.38841970535921
 20
230.68412314845213
 10
57.79121565537607
 20
230.5834467108497
 10
58.1938351477577
 20
230.48206689636362
 10
58.596276953943715
 20
230.37998401307075
 10
58.99853983963197
 20
230.277198346609
 10
59.40062257285103
 20
230.1737101923199
 10
59.802523936565755
 20
230.06951990355998
 10
60.20424270854846
 20
229.96462781293673
 10
60.60577765860423
 20
229.85903422258016
 10
61.007127572786914
 20
229.75273949638168
 10
61.4082912291273
 20
229.64574396717688
 10
61.80926739953219
 20
229.53804794492476
 10
62.21005486590971
 20
229.42965177695547
 10
62.61065240861483
 20
229.3205558044624
 10
63.011058801864834
 20
229.210760346061
 10
63.41127282291987
 20
229.10026573176685
 10
63.8112932545264
 20
228.98907231140757
 10
64.21111887319672
 20
228.87718041225924
 10
64.61074845126227
 20
228.76459034710072
 10
65.01018077385032
 20
228.65130247439865
 10
65.40941461887898
 20
228.53731712701398
 10
65.80844875611878
 20
228.42263460981286
 10
66.20728197048328
 20
228.30725528088388
 10
66.60591304465783
 20
228.19117949042086
 10
67.00434076121182
 20
228.0744075883374
 10
67.40256391124025
 20
227.95693995359505
 10
67.80058128714867
 20
227.83877696908905
 10
68.19839167476563
 20
227.71991899526063
 10
68.59599386028296
 20
227.60036639382918
 10
68.99338663887578
 20
227.4801195562156
 10
69.39056879905371
 20
227.35917885141217
 10
69.78753912182182
 20
227.23754462397875
 10
70.1842964051164
 20
227.11521727386076
 10
70.58083943812684
 20
226.99219717220984
 10
70.97716700235974
 20
226.8684846656898
 10
71.37327789253322
 20
226.74408014359508
 10
71.76917089974692
 20
226.6189839834924
 10
72.16484480798715
 20
226.49319654065826
 10
72.5602984064882
 20
226.36671818732083
 10
72.95553048890955
 20
226.23954930963848
 10
73.35053984177712
 20
226.1116902717139
 10
73.745325253086
 20
225.9831414426693
 10
74.13988553083304
 20
225.85390325307065
 10
74.53421947618062
 20
225.72397611201225
 10
74.92832588054102
 20
225.59336039901905
 10
75.3222035545396
 20
225.46205655156442
 10
75.71585129990561
 20
225.33006497984465
 10
76.10926791091897
 20
225.19738607187648
 10
76.50245219274144
 20
225.06402024805746
 10
76.89540295004647
 20
224.929967927047
 10
77.28811897997157
 20
224.79522950535315
 10
77.68059908193798
 20
224.65980538639047
 10
78.07284206355742
 20
224.52369599728175
 10
78.46484672480977
 20
224.38690174303187
 10
78.85661185910136
 20
224.24942301016677
 10
79.24813627696948
 20
224.11126023427948
 10
79.63941877965382
 20
223.97241382443516
 10
80.0304581590085
 20
223.8328841636924
 10
80.42125322381793
 20
223.69267168299515
 10
80.81180278156923
 20
223.551776809536
 10
81.20210563967373
 20
223.410199970368
 10
81.59216061436148
 20
223.26794161682912
 10
81.98196652495666
 20
223.12500220835534
 10
82.37152218282381
 20
222.9813821823799
 10
82.76082639819974
 20
222.83708197334698
 10
83.14987799371896
 20
222.69210204902333
 10
83.53867578396246
 20
222.54644285520664
 10
83.92721857289808
 20
222.40010480954686
 10
84.31550518645805
 20
222.25308838814243
 10
84.70353443950883
 20
222.10539403749152
 10
85.09130513824928
 20
221.9570221815433
 10
85.47881610312501
 20
221.80797328174032
 10
85.8660661518474
 20
221.65824779227256
 10
86.25305409363774
 20
221.50784614552637
 10
86.63977874238364
 20
221.35676878626157
 10
87.02623891889735
 20
221.2050161770793
 10
87.4124334354886
 20
221.0525887589927
 10
87.79836110448775
 20
220.8994869734699
 10
88.18402076379394
 20
220.74571132647483
 10
88.5694112426217
 20
220.59126230166783
 10
88.95453135916105
 20
220.4361403552075
 10
89.33937995272866
 20
220.28034599568724
 10
89.72395585373754
 20
220.1238797092292
 10
90.10825788378095
 20
219.96674196028343
 10
90.49228487563515
 20
219.808933240751
 10
90.8760356631928
 20
219.65045404501114
 10
91.2595090714387
 20
219.49130484580684
 10
91.64270392634052
 20
219.33148611845508
 10
92.02561906525918
 20
219.17099836559566
 10
92.4082533165616
 20
219.00984206826814
 10
92.79060549913595
 20
218.84801768531864
 10
93.17267445380409
 20
218.68552572765282
 10
93.55445900985752
 20
218.52236667889636
 10
93.93595798618288
 20
218.35854099869243
 10
94.31717021977983
 20
218.19404918923803
 10
94.69809454777092
 20
218.02889175292083
 10
95.07872980728845
 20
217.86306919219945
 10
95.4590748440356
 20
217.69658202917915
 10
95.83912850911763
 20
217.52943079799493
 10
96.21888964432
 20
217.3616160113191
 10
96.59835708828633
 20
217.19313817478087
 10
96.9775296959569
 20
217.02399783061793
 10
97.35640631255491
 20
216.85419549896412
 10
97.73498577031758
 20
216.68373167112912
 10
98.11326692708758
 20
216.5126068954141
 10
98.49124862841298
 20
216.34082169262166
 10
98.86892971009428
 20
216.1683765622824
 10
99.24630902263043
 20
215.99527203634386
 10
99.62338541520964
 20
215.82150864379594
 10
100.00015772718741
 20
215.64708689239626
 10
100.37662480145349
 20
215.4720072978617
 10
100.75278549082896
 20
215.29627039737755
 10
101.12863863828971
 20
215.11987670709212
 10
101.50418308479405
 20
214.94282673920586
 10
101.87941770290112
 20
214.76512107301065
 10
102.25434135451857
 20
214.58676026484082
 10
102.62895288947347
 20
214.40774484563264
 10
103.00325118002667
 20
214.22807539325305
 10
103.3772350900824
 20
214.04775246777734
 10
103.75090347339524
 20
213.86677660819817
 10
104.12425519463451
 20
213.68514837614165
 10
104.49728912170666
 20
213.50286833970011
 10
104.87000411227785
 20
213.3199370459268
 10
105.24239902316666
 20
213.13635504033098
 10
105.61447272626894
 20
212.95212289902702
 10
105.98622408315573
 20
212.76724117713192
 10
106.3576519425305
 20
212.5817104041685
 10
106.72875518026937
 20
212.39553116428002
 10
107.09953265835917
 20
212.20870401375905
 10
107.46998322757327
 20
212.02122948695913
 10
107.84010575738908
 20
211.8331081555163
 10
108.20989911926223
 20
211.64434059490688
 10
108.5793621847725
 20
211.45492738086367
 10
108.94849383329034
 20
211.2648691042998
 10
109.31729295238978
 20
211.07416637181132
 10
109.68575841900488
 20
210.88281976915368
 10
110.05388910441062
 20
210.6908298712479
 10
110.42168390052275
 20
210.49819729253298
 10
110.78914168748192
 20
210.30492262466063
 10
111.1562613313569
 20
210.1110064326619
 10
111.52304172524732
 20
209.91644933284968
 10
111.88948175035831
 20
209.72125191885448
 10
112.2555802768388
 20
209.5254147636839
 10
112.6213361894155
 20
209.3289384677997
 10
112.98674837344952
 20
209.13182363277025
 10
113.35181570315906
 20
208.93407083958814
 10
113.71653705464482
 20
208.7356806730011
 10
114.08091131741206
 20
208.5366537425265
 10
114.44493736981788
 20
208.33699063727545
 10
114.80861408560345
 20
208.1366919382677
 10
115.17194037660855
 20
207.93575829577205
 10
115.5349151419614
 20
207.73419033664268
 10
115.8975372678706
 20
207.53198866445615
 10
116.25980566368608
 20
207.32915392428197
 10
116.62171923149509
 20
207.12568674789523
 10
116.98327686193922
 20
206.92158774666228
 10
117.34447745576016
 20
206.71685754992723
 10
117.70531991955009
 20
206.51149679721092
 10
118.06580314836944
 20
206.30550610767364
 10
118.42592603410154
 20
206.098886095074
 10
118.78568748783066
 20
205.8916374066845
 10
119.14508640889751
 20
205.68376066923457
 10
119.50412168046373
 20
205.47525648173053
 10
119.86279221770468
 20
205.26612549851723
 10
120.22109691996152
 20
205.05636834662772
 10
120.57903467463757
 20
204.84598563296845
 10
120.93660438784524
 20
204.63497799657455
 10
121.29380496996932
 20
204.4233460836873
 10
121.65063533169604
 20
204.21109054105048
 10
122.00709439022464
 20
203.9982120263503
 10
122.36318107423018
 20
203.78471121628257
 10
122.71889430046961
 20
203.5705887674053
 10
123.07423297704784
 20
203.35584532195932
 10
123.42919603747428
 20
203.14048156418988
 10
123.7837824013031
 20
202.92449815505145
 10
124.13799097315538
 20
202.70789573109442
 10
124.49182068550083
 20
202.49067497451057
 10
124.84527045986296
 20
202.27283654944358
 10
125.19833920544467
 20
202.05438110014316
 10
125.5510258453517
 20
201.8353092935146
 10
125.9033293057613
 20
201.61562180135815
 10
126.25524850044947
 20
201.39531927563078
 10
126.606782342911
 20
201.1744023681059
 10
126.9579297639711
 20
200.95287175824888
 10
127.30868968203364
 20
200.73072810583537
 10
127.65906100770103
 20
200.50797205860533
 10
128.00904269648254
 20
200.28460433502255
 10
128.35863368902596
 20
200.0606256298691
 10
128.70783291243225
 20
199.83603661677037
 10
129.056639317072
 20
199.61083800552117
 10
129.40505184766712
 20
199.38503049689143
 10
129.7530694362397
 20
199.15861477199724
 10
130.10069102356732
 20
198.93159152548918
 10
130.4479155593584
 20
198.70396146558195
 10
130.79474198054348
 20
198.47572528088682
 10
131.14116921806308
 20
198.2468836510675
 10
131.4871962266041
 20
198.01743729178722
 10
131.83282194701715
 20
197.7873868976912
 10
132.17804530309755
 20
197.55673313801927
 10
132.5228652515672
 20
197.325476731489
 10
132.86728073412797
 20
197.09361837429685
 10
133.2112906793092
 20
196.86115874329792
 10
133.55489403379934
 20
196.6280985424861
 10
133.89808975125547
 20
196.39443848612038
 10
134.24087678589598
 20
196.1601792892654
 10
134.58325409671193
 20
195.9253216739641
 10
134.92522065788103
 20
195.68986638422516
 10
135.2667754304285
 20
195.45381414470248
 10
135.60791736328684
 20
195.21716566260375
 10
135.94864543593954
 20
194.97992168916394
 10
136.2889586116264
 20
194.74208295201583
 10
136.6288558380151
 20
194.50365015659915
 10
136.96833609084808
 20
194.26462404847592
 10
137.30739833639387
 20
194.0250053595645
 10
137.64604152738303
 20
193.78479480269604
 10
137.98426462924286
 20
193.5439931087715
 10
138.32206661337216
 20
193.3026010170546
 10
138.65944643755836
 20
193.06061924777532
 10
138.9964030566724
 20
192.818048517346
 10
139.33293544724276
 20
192.57488957238172
 10
139.66904257215927
 20
192.33114314059821
 10
140.00472338278732
 20
192.0868099340891
 10
140.33997688255332
 20
191.84189073656714
 10
140.6748020578116
 20
191.5963863080122
 10
141.00919788096084
 20
191.35029738934273
 10
141.3431633472257
 20
191.10362475249724
 10
141.67669744829175
 20
190.85636916438222
 10
142.00979916194225
 20
190.60853137308104
 10
142.34246747286596
 20
190.36011213602828
 10
142.67470137819836
 20
190.11111222724304
 10
143.00649986109806
 20
189.8615324019762
 10
143.33786189548118
 20
189.6113734033335
 10
143.66878648392725
 20
189.3606360124494
 10
143.9992726129839
 20
189.1093209891548
 10
144.32931925149163
 20
188.85742907018596
 10
144.65892540153524
 20
188.60496103601832
 10
144.98809005151645
 20
188.35191764916996
 10
145.3168121754856
 20
188.0982996536746
 10
145.64509076455923
 20
187.84410781593493
 10
145.97292481987114
 20
187.5893429152978
 10
146.30031334342684
 20
187.334005732203
 10
146.62725533983019
 20
187.07809705041763
 10
146.95374983298476
 20
186.82161767822083
 10
147.27979583245838
 20
186.56456840539562
 10
147.60539233187203
 20
186.30695000154455
 10
147.93053836088598
 20
186.04876328181996
 10
148.25523293053942
 20
185.79000903766146
 10
148.57947503587008
 20
185.5306880405075
 10
148.90326369965464
 20
185.27080109656563
 10
149.2265979371593
 20
185.01034900253194
 10
149.54947674894552
 20
184.7493325368983
 10
149.87189914656128
 20
184.48775249189828
 10
150.19386415086373
 20
184.2256096712291
 10
150.51537076793355
 20
183.96290486044288
 10
150.8364179978631
 20
183.69963883798434
 10
151.1570048670941
 20
183.43581241456258
 10
151.47713038645233
 20
183.17142638187408
 10
151.79679355429113
 20
182.90648151675484
 10
152.11599342365088
 20
182.6409786621181
 10
152.43472903150877
 20
182.374918641242
 10
152.7529993998678
 20
182.10830225942334
 10
153.07080357258
 20
181.84113034804096
 10
153.38814059252894
 20
181.57340373711816
 10
153.70500948755014
 20
181.30512323875706
 10
154.0214092900564
 20
181.0362896705345
 10
154.3373390488264
 20
180.76690386922215
 10
154.65279779751847
 20
180.49696665373125
 10
154.96778455688482
 20
180.22647882802266
 10
155.28229838158913
 20
179.95544123562337
 10
155.5963383079884
 20
179.68385469866493
 10
155.9099033542977
 20
179.41172001847093
 10
156.2229925717149
 20
179.13903803454278
 10
156.5356049995975
 20
178.86580957270652
 10
156.8477396618233
 20
178.5920354412374
 10
157.1593955977365
 20
178.31771646627033
 10
157.47057186001155
 20
178.04285348910886
 10
157.78126750245036
 20
177.7674473522941
 10
158.09148157886955
 20
177.49149889838367
 10
158.401213166865
 20
177.21500899654362
 10
158.71046132856776
 20
176.93797849837543
 10
159.01922510593215
 20
176.66040823300094
 10
159.32750358273515
 20
176.38229907607987
 10
159.63529582168522
 20
176.10365187965922
 10
159.94260086926573
 20
175.82446747793887
 10
160.24941779881627
 20
175.54474673475428
 10
160.55574567859378
 20
175.26449050824436
 10
160.861583561048
 20
174.98369963929264
 10
161.16693050742114
 20
174.70237497850513
 10
161.4717855919971
 20
174.4205173906507
 10
161.77614787318063
 20
174.138127723309
 10
162.0800163999022
 20
173.85520681405586
 10
162.38339025246887
 20
173.571755534299
 10
162.68626849337556
 20
173.28777473634148
 10
162.98865017232163
 20
173.0032652590616
 10
163.29053439491875
 20
172.71822800085545
 10
163.591920252805
 20
172.43266384503482
 10
163.892806821552
 20
172.14657365789847
 10
164.1931931970859
 20
171.85995832715486
 10
164.49307847737083
 20
171.57281874246925
 10
164.79246174423224
 20
171.28515577656054
 10
165.09134208130195
 20
170.99697030409166
 10
165.38971859285704
 20
170.70826322108732
 10
165.68759036696747
 20
170.41903540669077
 10
165.9849564747617
 20
170.12928772271846
 10
166.28181602682085
 20
169.83902107156138
 10
166.57816811307032
 20
169.54823633433497
 10
166.87401180507004
 20
169.25693437359143
 10
167.16934620655388
 20
168.96511608471923
 10
167.46417041172185
 20
168.67278235339717
 10
167.75848349823056
 20
168.37993404875164
 10
168.05228455711676
 20
168.0865720535745
 10
168.34557269635417
 20
167.79269726765756
 10
168.6383470253695
 20
167.4983105921869
 10
168.93060665066767
 20
167.20341292545422
 10
169.22235070733532
 20
166.90800519397268
 10
169.51357831337688
 20
166.61208830714523
 10
169.8042885642617
 20
166.31566315223867
 10
170.09448060000332
 20
166.01873066022222
 10
170.38415353924748
 20
165.72129174094923
 10
170.6733064838485
 20
165.42334728797263
 10
170.96193856111023
 20
165.12489821961822
 10
171.25004889611918
 20
164.82594545196613
 10
171.53763659710785
 20
164.52648988486095
 10
171.8247007784634
 20
164.22653242419756
 10
172.1112405717112
 20
163.92607399228666
 10
172.3972550914548
 20
163.62511549527426
 10
172.68274343896496
 20
163.32365782683522
 10
172.96770475219822
 20
163.02170191552418
 10
173.25213814904083
 20
162.71924867090593
 10
173.53604273437003
 20
162.41629899051108
 10
173.81941766964036
 20
162.11285382499082
 10
174.1022621049629
 20
161.80891411414595
 10
174.38457517335064
 20
161.5044807817996
 10
174.66635602619522
 20
161.19955476881873
 10
174.94760382032723
 20
160.89413702093992
 10
175.2283176954112
 20
160.58822846799384
 10
175.5084967897395
 20
160.28183003861056
 10
175.78814026685092
 20
159.974942684468
 10
176.06724727305195
 20
159.66756734140944
 10
176.3458169333412
 20
159.35970492603846
 10
176.62384841795375
 20
159.05135639598495
 10
176.90134087406958
 20
158.7425226879386
 10
177.17829343048572
 20
158.43320472220967
 10
177.4547052468393
 20
158.123403446873
 10
177.73057547597364
 20
157.81311980389998
 10
178.00590325319212
 20
157.5023547197692
 10
178.2806877246465
 20
157.19110913078256
 10
178.55492805725885
 20
156.87938399162414
 10
178.82862341971577
 20
156.56718025847354
 10
179.1017729745444
 20
156.25449888211688
 10
179.37437591793284
 20
155.9413408426627
 10
179.6464314268255
 20
155.62770710323153
 10
179.91793865541447
 20
155.31359860724064
 10
180.18889680170963
 20
154.99901633600047
 10
180.45930504445118
 20
154.6839612540167
 10
180.72916254460569
 20
154.3684343105711
 10
180.99846848669404
 20
154.0524364751659
 10
181.26722205628292
 20
153.73596871810844
 10
181.53542242110512
 20
153.41903199455223
 10
181.80306875200122
 20
153.1016272624151
 10
182.07016024136047
 20
152.78375549781177
 10
182.33669606367485
 20
152.46541766177904
 10
182.60267537591764
 20
152.14661470087347
 10
182.8680973772969
 20
151.82734759702805
 10
183.1329612446437
 20
151.50761731351778
 10
183.39726614160057
 20
151.18742480288572
 10
183.6610112883545
 20
150.86677106443923
 10
183.9241958968615
 20
150.54565709049064
 10
184.18681916101565
 20
150.22408385847234
 10
184.44888029066053
 20
149.9020523588455
 10
184.7103785048338
 20
149.57956358942127
 10
184.97131300445258
 20
149.25661853320068
 10
185.23168298550868
 20
148.93321816926712
 10
185.49148767411347
 20
148.60936350093323
 10
185.7507262779806
 20
148.28505551661138
 10
186.00939797970446
 20
147.96029518473858
 10
186.26750201182435
 20
147.63508351363038
 10
186.5250375822376
 20
147.30942149189923
 10
186.78200388042302
 20
146.98331009371879
 10
187.03840012487507
 20
146.65675031626705
 10
187.29422553043372
 20
146.32974315382432
 10
187.54947929346324
 20
146.00228958630595
 10
187.80416061824113
 20
145.67439059999293
 10
188.05826873386832
 20
145.34604720050902
 10
188.31180287159611
 20
145.01726039507287
 10
188.5647622530281
 20
144.68803118347648
 10
188.81714613874377
 20
144.3583605953913
 10
189.06895376787028
 20
144.028249643832
 10
189.3201843567765
 20
143.6976993244771
 10
189.57083716438606
 20
143.36671066536977
 10
189.8209114328925
 20
143.03528468169367
 10
190.07040638579866
 20
142.70342237454824
 10
190.31932126781427
 20
142.37112476105247
 10
190.5676553283157
 20
142.03839286174377
 10
190.81540779793218
 20
141.7052276831508
 10
191.06257790698507
 20
141.37163023169978
 10
191.3091649120289
 20
141.03760153328992
 10
191.55516805081547
 20
140.70314259988703
 10
191.80058653910302
 20
140.36825442746235
 10
192.0454196406214
 20
140.03293804728708
 10
192.28966659438944
 20
139.69719447252916
 10
192.5333266261849
 20
139.36102470689806
 10
192.77639901780998
 20
139.02442979480873
 10
193.01888304644845
 20
138.68741077713537
 10
193.26077797032826
 20
138.3499686810272
 10
193.50208306078525
 20
138.01210454303492
 10
193.74279760242268
 20
137.6738194090663
 10
193.98292086083245
 20
137.33511431138047
 10
194.222452092804
 20
136.99599027605356
 10
194.46139059035127
 20
136.65644835403174
 10
194.6997356249796
 20
136.3164895816819
 10
194.9374864430841
 20
135.97611497787113
 10
195.174642339759
 20
135.6353255955656
 10
195.4112025879232
 20
135.29412247217488
 10
195.64716644121364
 20
134.95250663184345
 10
195.88253317999772
 20
134.61047911731868
 10
196.1173020844857
 20
134.26804097122104
 10
196.35147241555106
 20
133.92519322298733
 10
196.5850434386744
 20
133.58193690538923
 10
196.81801444834963
 20
133.23827307100728
 10
197.05038474149904
 20
132.89420277400018
 10
197.28215360170128
 20
132.5497270595241
 10
197.51332035700628
 20
132.2048470026083
 10
197.74388431177778
 20
131.85956366216942
 10
197.97384474781396
 20
131.51387808207608
 10
198.20320098770594
 20
131.16779133335044
 10
198.4319523402496
 20
130.82130447770874
 10
198.6600980947101
 20
130.47441856397214
 10
198.88763755879742
 20
130.12713465316696
 10
199.11457004882104
 20
129.77945381188854
 10
199.34089486150447
 20
129.43137709392101
 10
199.5666112895178
 20
129.08290555053605
 10
199.79171865667465
 20
128.7340402532238
 10
200.01621626715402
 20
128.38478226073963
 10
200.24010339842772
 20
128.03513261484633
 10
200.46337938181404
 20
127.68509239193597
 10
200.68604352157826
 20
127.33466265107538
 10
200.90809510871975
 20
126.98384444307324
 10
201.12953348901792
 20
126.63263885350464
 10
201.3503580076604
 20
126.2810469673876
 10
201.57056799005667
 20
125.92906985722817
 10
201.79016277150978
 20
125.57670860172661
 10
202.00914170493186
 20
125.22396429045314
 10
202.22750412340682
 20
124.87083800054374
 10
202.4452493470521
 20
124.5173308011751
 10
202.66237673649488
 20
124.1634437864759
 10
202.87888562971332
 20
123.80917803653206
 10
203.0947753397971
 20
123.45453461630952
 10
203.3100452267712
 20
123.09951461943537
 10
203.5246946313591
 20
122.74411912771976
 10
203.73872287421068
 20
122.38834921093913
 10
203.9521293000026
 20
122.0322059534612
 10
204.16491325706627
 20
121.67569044183297
 10
204.37707407361003
 20
121.31880375065165
 10
204.58861107881643
 20
120.96154695527486
 10
204.79952363524475
 20
120.60392115090649
 10
205.0098111082941
 20
120.24592743434341
 10
205.21947284621083
 20
119.88756689232594
 10
205.42850824734774
 20
119.52884064086619
 10
205.63691668412352
 20
119.16974978063317
 10
205.8446975067778
 20
118.81029539943448
 10
206.05185010411014
 20
118.45047860739008
 10
206.2583738544273
 20
118.09030050842217
 10
206.46426811573622
 20
117.72976219480498
 10
206.66953226135277
 20
117.36886476762419
 10
206.87416567739137
 20
117.00760933519506
 10
207.07816772962036
 20
116.64599699426564
 10
207.2815377757252
 20
116.2840288371442
 10
207.4842752096243
 20
115.92170597654672
 10
207.68637940375385
 20
115.55902951309962
 10
207.88784970329615
 20
115.19600053240514
 10
208.08868550670275
 20
114.83262014977407
 10
208.28888618739674
 20
114.46888946662665
 10
208.48845110455358
 20
114.10480957668877
 10
208.68737967043745
 20
113.74038160288961
 10
208.8856713011912
 20
113.37560667010587
 10
209.08332539243818
 20
113.0104858919578
 10
209.28034134614816
 20
112.64502038551022
 10
209.4767185864646
 20
112.27921127968808
 10
209.67245651696578
 20
111.91305969224156
 10
209.86755452386242
 20
111.5465667316953
 10
210.06201203929024
 20
111.17973353102761
 10
210.25582847058925
 20
110.81256120992572
 10
210.4490032006242
 20
110.44505087523859
 10
210.641535656965
 20
110.07720365739861
 10
210.83342525111496
 20
109.70902067832897
 10
211.0246713737922
 20
109.34050304919286
 10
211.21527343666074
 20
108.9716518921583
 10
211.40523085911985
 20
108.60246833338684
 10
211.5945430397383
 20
108.23295348837046
 10
211.783209374144
 20
107.86310847126896
 10
211.97122929570412
 20
107.49293441558063
 10
212.1586022405909
 20
107.12243245614704
 10
212.34532762385706
 20
106.75160371715127
 10
212.53140491637237
 20
106.38044935085081
 10
212.71683356083628
 20
106.00897049515022
 10
212.9016129783321
 20
105.63716827717133
 10
213.08574262584568
 20
105.26504384190267
 10
213.26922195348385
 20
104.89259833078803
 10
213.45205039036497
 20
104.51983287491382
 10
213.63422737744494
 20
104.14674861124371
 10
213.81575237290264
 20
103.77334668510763
 10
213.99662481388495
 20
103.39962823156654
 10
214.17684412519066
 20
103.02559437981837
 10
214.3564097730653
 20
102.65124627909172
 10
214.5353212002192
 20
102.27658506725507
 10
214.7135778225577
 20
101.90161186952928
 10
214.89117910700077
 20
101.52632783553116
 10
215.0681244986316
 20
101.15073410449722
 10
215.24441342715463
 20
100.77483180855343
 10
215.4200453732974
 20
100.39862210386065
 10
215.59501982656437
 20
100.02210615052411
 10
215.76933625527735
 20
99.64528509869523
 10
215.94299413027406
 20
99.26816009969689
 10
216.1159929493035
 20
98.89073231716044
 10
216.28833218889025
 20
98.51300290485025
 10
216.46001130360278
 20
98.1349730065669
 10
216.6310297994243
 20
97.75664378947808
 10
216.80138715541062
 20
97.37801640842306
 10
216.9710828267344
 20
96.99909200757405
 10
217.14011631061243
 20
96.61987175001279
 10
217.3084870917471
 20
96.24035679315594
 10
217.47619463342542
 20
95.86054828497565
 10
217.64323841646532
 20
95.48044738131651
 10
217.80961793372038
 20
95.10005524331845
 10
217.97533265658916
 20
94.71937302276993
 10
218.1403820493767
 20
94.33840186854198
 10
218.30476561857694
 20
93.95714294788016
 10
218.46848287272795
 20
93.57559742882442
 10
218.63153329794514
 20
93.19376646981699
 10
218.79391643787793
 20
92.81165125384412
 10
218.95563180847844
 20
92.4292529518998
 10
219.1166789041428
 20
92.04657272586111
 10
219.27705725212664
 20
91.66361175145944
 10
219.4367663766913
 20
91.28037120304502
 10
219.5958057805039
 20
90.89685224593998
 10
219.75417497431272
 20
90.51305604888647
 10
219.9118734906805
 20
90.12898378960269
 10
220.06890084054092
 20
89.74463663686306
 10
220.22525651802187
 20
89.36001575269228
 10
220.3809400639861
 20
88.97512231818209
 10
220.5359509937241
 20
88.58995750400382
 10
220.6902887963537
 20
88.20452247043956
 10
220.8439530093169
 20
87.8188183972648
 10
220.9969431517312
 20
87.43284645692076
 10
221.14925872631298
 20
87.04660781546552
 10
221.30089928457977
 20
86.66010365830965
 10
221.4518643921982
 20
86.27333517627785
 10
221.6021535930748
 20
85.8863035515758
 10
221.7517664295637
 20
85.49900996580963
 10
221.9007024757895
 20
85.11145561278393
 10
222.04896128407998
 20
84.72364167777259
 10
222.19654238007814
 20
84.33556933589685
 10
222.34344534635605
 20
83.94723978395074
 10
222.48966973645588
 20
83.5586542075822
 10
222.6352150808019
 20
83.1698137838045
 10
222.78008094881085
 20
82.78071970430317
 10
222.92426690121135
 20
82.3913731574487
 10
223.06777247677095
 20
82.00177532351607
 10
223.21059722808323
 20
81.61192738799703
 10
223.35274072425153
 20
81.22183054244586
 10
223.49420251238567
 20
80.8314859704123
 10
223.6349821281568
 20
80.44089485146884
 10
223.7750791545439
 20
80.05005838233522
 10
223.91449317791262
 20
79.65897776084275
 10
224.05322376479114
 20
79.26765417774865
 10
224.19127053649643
 20
78.87608884317876
 10
224.32863309014564
 20
78.48428295849041
 10
224.4653110007848
 20
78.09223771726272
 10
224.60130387293856
 20
77.69995432334291
 10
224.7366113122602
 20
77.30743398082923
 10
224.87123290230014
 20
76.91467788612934
 10
225.00516823069137
 20
76.52168723708654
 10
225.13841691161537
 20
76.1284632405474
 10
225.2709785371201
 20
75.73500709575434
 10
225.40285267784986
 20
75.3413199948259
 10
225.53403895650953
 20
74.94740314736397
 10
225.66453696823277
 20
74.5532577536768
 10
225.7943462828016
 20
74.15888500578441
 10
225.92346651522274
 20
73.76428611070357
 10
226.05189726599386
 20
73.36946227064597
 10
226.17963811803125
 20
72.97441468218942
 10
226.3066886985514
 20
72.5791445563107
 10
226.43304865386455
 20
72.18365310998406
 10
226.55871760804118
 20
71.78794155292647
 10
226.68369517931814
 20
71.39201109298445
 10
226.80798102266107
 20
70.99586294951565
 10
226.93157477055252
 20
70.59949833464603
 10
227.0544760247839
 20
70.20291845095444
 10
227.1766844483366
 20
69.80612451999643
 10
227.29819967394184
 20
69.4091177538273
 10
227.41902131194684
 20
69.01189935768834
 10
227.53914900825043
 20
68.61447054769303
 10
227.6585824041637
 20
68.21683253847357
 10
227.77732111858487
 20
67.81898653794441
 10
227.8953647802458
 20
67.42093375705191
 10
228.01271303903377
 20
67.02267541302058
 10
228.12936552239793
 20
66.6242127164453
 10
228.24532184181945
 20
66.22554687338791
 10
228.36058166052425
 20
65.82667910504946
 10
228.47514464107311
 20
65.4276106323212
 10
228.58901042689882
 20
65.02834267059875
 10
228.70217871299337
 20
64.6288764499268
 10
228.81464917397764
 20
64.22921319436502
 10
228.9264214619682
 20
63.82935412158625
 10
229.03749525479657
 20
63.42930045645087
 10
229.1478702357782
 20
63.02905342521267
 10
229.2575460656974
 20
62.62861424783182
 10
229.36652240514437
 20
62.22798414426073
 10
229.4747989461209
 20
61.82716434295911
 10
229.58237535807257
 20
61.42615606618349
 10
229.6892512842702
 20
61.024960529256255
 10
229.79542642539744
 20
60.62357896285332
 10
229.90090045258884
 20
60.22201258971567
 10
230.005673012625
 20
59.8202626262915
 10
230.10974379396566
 20
59.41833030000926
 10
230.2131124746781
 20
59.0162168355657
 10
230.3157787148799
 20
58.61392345311084
 10
230.41774221530733
 20
58.211451383243244
 10
230.5190027005721
 20
57.80880186248543
 10
230.61955987264417
 20
57.40597612150372
 10
230.71941342313744
 20
57.0029753883702
 10
230.81856308544923
 20
56.599800901442144
 10
230.91700856861814
 20
56.196453892899456
 10
231.0147495519335
 20
55.792935587690586
 10
231.11178577250058
 20
55.38924722477984
 10
231.20811694107192
 20
54.98539003663275
 10
231.30374274564124
 20
54.58136525031519
 10
231.39866290591416
 20
54.177174100452476
 10
231.49287714136545
 20
53.77281782154624
 10
231.5863851486903
 20
53.368297642787184
 10
231.6791866301263
 20
52.963614794747684
 10
231.77128131386914
 20
52.55877051397446
 10
231.86266890531545
 20
52.15376603179439
 10
231.95334908916843
 20
51.7486025750159
 10
232.04332160785464
 20
51.34328138345661
 10
232.13258620387256
 20
50.93780369682783
 10
232.2211426021336
 20
50.53217075094466
 10
232.30899057542806
 20
50.12638379200838
 10
232.39612988034042
 20
49.720444062493506
 10
232.4825602506118
 20
49.31435279989317
 10
232.56828144159297
 20
48.908111246283475
 10
232.65329321870436
 20
48.50172064573435
 10
232.73759532450174
 20
48.0951822374282
 10
232.8211874968322
 20
47.688497259597774
 10
232.9040695099443
 20
47.281666957915625
 10
232.98624111520033
 20
46.87469257326374
 10
233.06770203288332
 20
46.46757534031566
 10
233.14845204606394
 20
46.060316506357424
 10
233.2284909063237
 20
45.65291731230185
 10
233.307818342073
 20
45.24537899458432
 10
233.38643411945299
 20
44.83770279708022
 10
233.46433799861597
 20
44.4298899624679
 10
233.5415297201357
 20
44.021941729725725
 10
233.61800905213104
 20
43.61385934313883
 10
233.69377578797096
 20
43.205644051651504
 10
233.76882969804277
 20
42.79729709983842
 10
233.84317053765386
 20
42.38881972955016
 10
233.91679810899313
 20
41.980213191175075
 10
233.98971218801628
 20
41.57147873024422
 10
234.06191252204565
 20
41.16261758726435
 10
234.13339891238462
 20
40.75363101235086
 10
234.2041711381879
 20
40.344520251649925
 10
234.27422895554645
 20
39.93528654739878
 10
234.34357214807278
 20
39.52593114666252
 10
234.4122005037067
 20
39.11645529723666
 10
234.48011378731275
 20
38.706860243098504
 10
234.54731176476096
 20
38.29714722855678
 10
234.61379423278365
 20
37.88731750306317
 10
234.67956096502576
 20
37.47737231235085
 10
234.74461170956815
 20
37.0673128982545
 10
234.80894628663646
 20
36.65714051420013
 10
234.87256455053767
 20
36.246856418772765
 10
234.93546634776627
 20
35.836461869129
 10
234.99765156865448
 20
35.42595812885876
 10
235.05912009183254
 20
35.01534645934537
 10
235.11987177289453
 20
34.60462811821446
 10
235.17990648466244
 20
34.19380436539706
 10
235.23922411485464
 20
33.78287646265852
 10
235.297824528133
 20
33.37184566809804
 10
235.35570757975378
 20
32.96071323827389
 10
235.41287316649485
 20
32.5494804353379
 10
235.46932116069829
 20
32.13814851768155
 10
235.5250514040775
 20
31.726718739335166
 10
235.580063798371
 20
31.315192362286243
 10
235.63435821740774
 20
30.90357064443829
 10
235.68793451188245
 20
30.49185484048979
 10
235.74079256590235
 20
30.080046209358656
 10
235.79293226227455
 20
29.668146009534716
 10
235.84435343037111
 20
29.256155492625297
 10
235.8950557894945
 20
28.844075896783586
 10
235.9450390559437
 20
28.431908460438624
 10
235.99430292264915
 20
28.019654419906843
 10
236.04284706248484
 20
27.607315009997226
 10
236.09067120016644
 20
27.1948914724701
 10
236.13777503223002
 20
26.78238504652771
 10
236.18415822770956
 20
26.369796969146375
 10
236.22982050536794
 20
25.95712848380727
 10
236.27476156613284
 20
25.544380832774102
 10
236.31898108752347
 20
25.13155525666786
 10
236.36247877010334
 20
24.71865299953778
 10
236.4052543233571
 20
24.305675307216987
 10
236.4473074333786
 20
23.892623423993488
 10
236.48863778252598
 20
23.479498594780996
 10
236.52924508893176
 20
23.066302069007037
 10
236.56912904735842
 20
22.653035094651877
 10
236.60828932198683
 20
22.239698917791934
 10
236.6467258082348
 20
21.82629480707187
 10
236.68443893102506
 20
21.412824079339508
 10
236.72142920853142
 20
20.99928805699819
 10
236.75769719874486
 20
20.58568806260514
 10
236.79324345294597
 20
20.17202541458083
 10
236.8280684995737
 20
19.758301425949448
 10
236.8621728798766
 20
19.344517407456713
 10
236.89555715514842
 20
18.930674668055293
 10
236.9282218637634
 20
18.51677451139086
 10
236.96016753004793
 20
18.10281823669837
 10
236.9913947249845
 20
17.688807143467105
 10
237.02190399357684
 20
17.27474252576
 10
237.05169585199792
 20
16.86062567225663
 10
237.0807708716585
 20
16.446457872344983
 10
237.10912960099049
 20
16.03224041037305
 10
237.136772565438
 20
15.61797456586453
 10
237.16370031893106
 20
15.203661617030066
 10
237.1899134180647
 20
14.789302838931508
 10
237.21541169949924
 20
14.374899459292683
 10
237.240193048352
 20
13.960452589508492
 10
237.26425503958086
 20
13.545963333418523
 10
237.28759522435126
 20
13.131432805794528
 10
237.31021112797197
 20
12.71686213248153
 10
237.33210033263293
 20
12.302252454964187
 10
237.3532603902942
 20
11.887604925551491
 10
237.3736888265534
 20
11.472920707874842
 10
237.39338321200077
 20
11.058200980492915
 10
237.41234110464927
 20
10.643446933963245
 10
237.43056003876202
 20
10.228659770522063
 10
237.44803756679735
 20
9.813840706075917
 10
237.46477125643645
 20
9.398990969970107
 10
237.48075865176924
 20
8.984111803445904
 10
237.49599728794266
 20
8.569204460426604
 10
237.51048474351845
 20
8.154270209434058
 10
237.5242185725041
 20
7.739310331053493
 10
237.5371963096543
 20
7.324326118379826
 10
237.54941750843656
 20
6.909318936505949
 10
237.56088572760018
 20
6.494290263792001
 10
237.5716050012857
 20
6.0792415715752846
 10
237.58157940194945
 20
5.664174310070633
 10
237.59081299817225
 20
5.249089907269439
 10
237.59930983386533
 20
4.833989768703763
 10
237.6070739651071
 20
4.418875278453364
 10
237.614109468671
 20
4.003747799318466
 10
237.62042039597736
 20
3.58860867210984
 10
237.62601078610297
 20
3.173459216167192
 10
237.63088472181806
 20
2.7583007302112814
 10
237.63504625915888
 20
2.3431344914461585
 10
237.63849942205175
 20
1.9279617558886586
 10
237.64124829476484
 20
1.5127837593010511
 10
237.6432969304397
 20
1.0976017164309926
 10
237.64464935664606
 20
0.6824168214181373
 10
237.64530963784435
 20
0.2672302481846332
 10
237.64529173927832
 20
0.0
  0
ENDSEC
  0
SECTION
  2
OBJECTS
  0
DICTIONARY
  5
A
330
0
100
AcDbDictionary
280
0
281
1
  3
ACAD_COLOR
350
B
  3
ACAD_GROUP
350
C
  3
ACAD_LAYOUT
350
D
  3
ACAD_MATERIAL
350
E
  3
ACAD_MLEADERSTYLE
350
F
  3
ACAD_MLINESTYLE
350
10
  3
ACAD_PLOTSETTINGS
350
11
  3
ACAD_PLOTSTYLENAME
350
12
  3
ACAD_SCALELIST
350
14
  3
ACAD_TABLESTYLE
350
15
  3
ACAD_VISUALSTYLE
350
16
  3
EZDXF_META
350
2D
  0
DICTIONARY
  5
B
330
A
100
AcDbDictionary
280
0
281
1
  0
DICTIONARY
  5
C
330
A
100
AcDbDictionary
280
0
281
1
  0
DICTIONARY
  5
D
330
A
100
AcDbDictionary
280
0
281
1
  3
Model
350
1A
  3
Layout1
350
1E
  0
DICTIONARY
  5
E
330
A
100
AcDbDictionary
280
0
281
1
  3
ByBlock
350
1F
  3
ByLayer
350
20
  3
Global
350
21
  0
DICTIONARY
  5
F
330
A
100
AcDbDictionary
280
0
281
1
  3
Standard
350
2C
  0
DICTIONARY
  5
10
330
A
100
AcDbDictionary
280
0
281
1
  3
Standard
350
22
  0
DICTIONARY
  5
11
330
A
100
AcDbDictionary
280
0
281
1
  0
ACDBDICTIONARYWDFLT
  5
12
330
A
100
AcDbDictionary
280
0
281
1
  3
Normal
350
13
100
AcDbDictionaryWithDefault
340
13
  0
ACDBPLACEHOLDER
  5
13
330
12
  0
DICTIONARY
  5
14
330
A
100
AcDbDictionary
280
0
281
1
  0
DICTIONARY
  5
15
330
A
100
AcDbDictionary
280
0
281
1
  0
DICTIONARY
  5
16
330
A
100
AcDbDictionary
280
0
281
1
  0
LAYOUT
  5
1A
330
D
100
AcDbPlotSettings
  1

  4
A3
  6

 40
7.5
 41
20.0
 42
7.5
 43
20.0
 44
420.0
 45
297.0
 46
0.0
 47
0.0
 48
0.0
 49
0.0
140
0.0
141
0.0
142
1.0
143
1.0
 70
1024
 72
1
 73
0
 74
5
  7

 75
16
 76
0
 77
2
 78
300
147
1.0
148
0.0
149
0.0
100
AcDbLayout
  1
Model
 70
1
 71
0
 10
0.0
 20
0.0
 11
420.0
 21
297.0
 12
0.0
 22
0.0
 32
0.0
 14
1e+20
 24
1e+20
 34
1e+20
 15
-1e+20
 25
-1e+20
 35
-1e+20
146
0.0
 13
0.0
 23
0.0
 33
0.0
 16
1.0
 26
0.0
 36
0.0
 17
0.0
 27
1.0
 37
0.0
 76
1
330
17
  0
LAYOUT
  5
1E
330
D
100
AcDbPlotSettings
  1

  4
A3
  6

 40
7.5
 41
20.0
 42
7.5
 43
20.0
 44
420.0
 45
297.0
 46
0.0
 47
0.0
 48
0.0
 49
0.0
140
0.0
141
0.0
142
1.0
143
1.0
 70
0
 72
1
 73
0
 74
5
  7

 75
16
 76
0
 77
2
 78
300
147
1.0
148
0.0
149
0.0
100
AcDbLayout
  1
Layout1
 70
1
 71
1
 10
0.0
 20
0.0
 11
420.0
 21
297.0
 12
0.0
 22
0.0
 32
0.0
 14
1e+20
 24
1e+20
 34
1e+20
 15
-1e+20
 25
-1e+20
 35
-1e+20
146
0.0
 13
0.0
 23
0.0
 33
0.0
 16
1.0
 26
0.0
 36
0.0
 17
0.0
 27
1.0
 37
0.0
 76
1
330
1B
  0
MATERIAL
  5
1F
102
{ACAD_REACTORS
330
E
102
}
330
E
100
AcDbMaterial
  1
ByBlock
  2

 70
0
 40
1.0
 71
1
 41
1.0
 91
-1023410177
 42
1.0
 72
1
  3

 73
1
 74
1
 75
1
 44
0.5
 73
0
 45
1.0
 46
1.0
 77
1
  4

 78
1
 79
1
170
1
 48
1.0
171
1
  6

172
1
173
1
174
1
140
1.0
141
1.0
175
1
  7

176
1
177
1
178
1
143
1.0
179
1
  8

270
1
271
1
272
1
145
1.0
146
1.0
273
1
  9

274
1
275
1
276
1
 42
1.0
 72
1
  3

 73
1
 74
1
 75
1
 94
63
  0
MATERIAL
  5
20
102
{ACAD_REACTORS
330
E
102
}
330
E
100
AcDbMaterial
  1
ByLayer
  2

 70
0
 40
1.0
 71
1
 41
1.0
 91
-1023410177
 42
1.0
 72
1
  3

 73
1
 74
1
 75
1
 44
0.5
 73
0
 45
1.0
 46
1.0
 77
1
  4

 78
1
 79
1
170
1
 48
1.0
171
1
  6

172
1
173
1
174
1
140
1.0
141
1.0
175
1
  7

176
1
177
1
178
1
143
1.0
179
1
  8

270
1
271
1
272
1
145
1.0
146
1.0
273
1
  9

274
1
275
1
276
1
 42
1.0
 72
1
  3

 73
1
 74
1
 75
1
 94
63
  0
MATERIAL
  5
21
102
{ACAD_REACTORS
330
E
102
}
330
E
100
AcDbMaterial
  1
Global
  2

 70
0
 40
1.0
 71
1
 41
1.0
 91
-1023410177
 42
1.0
 72
1
  3

 73
1
 74
1
 75
1
 44
0.5
 73
0
 45
1.0
 46
1.0
 77
1
  4

 78
1
 79
1
170
1
 48
1.0
171
1
  6

172
1
173
1
174
1
140
1.0
141
1.0
175
1
  7

176
1
177
1
178
1
143
1.0
179
1
  8

270
1
271
1
272
1
145
1.0
146
1.0
273
1
  9

274
1
275
1
276
1
 42
1.0
 72
1
  3

 73
1
 74
1
 75
1
 94
63
  0
MLINESTYLE
  5
22
102
{ACAD_REACTORS
330
10
102
}
330
10
100
AcDbMlineStyle
  2
Standard
 70
0
  3

 62
256
 51
90.0
 52
90.0
 71
2
 49
0.5
 62
256
  6
BYLAYER
 49
-0.5
 62
256
  6
BYLAYER
  0
MLEADERSTYLE
  5
2C
102
{ACAD_REACTORS
330
F
102
}
330
F
100
AcDbMLeaderStyle
179
2
170
2
171
1
172
0
 90
2
 40
0.0
 41
0.0
173
1
 91
-1056964608
 92
-2
290
1
 42
2.0
291
1
 43
8.0
  3
Standard
 44
4.0
300

342
29
174
1
175
1
176
0
178
1
 93
-1056964608
 45
4.0
292
0
297
0
 46
4.0
 94
-1056964608
 47
1.0
 49
1.0
140
1.0
294
1
141
0.0
177
0
142
1.0
295
0
296
0
143
3.75
271
0
272
9
273
9
  0
DICTIONARY
  5
2D
330
A
100
AcDbDictionary
281
1
  3
CREATED_BY_EZDXF
350
2E
  3
WRITTEN_BY_EZDXF
350
32
  0
DICTIONARYVAR
  5
2E
330
2D
100
DictionaryVariables
280
0
  1
1.3.2 @ 2025-12-26T07:13:24.121654+00:00
  0
DICTIONARYVAR
  5
32
330
2D
100
DictionaryVariables
280
0
  1
1.3.2 @ 2025-12-26T07:13:24.184302+00:00
  0
ENDSEC
  0
EOF
