  0
SECTION
  2
HEADER
  9
$ACADVER
  1
AC1015
  9
$ACADMAINTVER
 70
6
  9
$DWGCODEPAGE
  3
ANSI_1252
  9
$INSBASE
 10
0.0
 20
0.0
 30
0.0
  9
$EXTMIN
 10
1e+20
 20
1e+20
 30
1e+20
  9
$EXTMAX
 10
-1e+20
 20
-1e+20
 30
-1e+20
  9
$LIMMIN
 10
0.0
 20
0.0
  9
$LIMMAX
 10
420.0
 20
297.0
  9
$ORTHOMODE
 70
0
  9
$REGENMODE
 70
1
  9
$FILLMODE
 70
1
  9
$QTEXTMODE
 70
0
  9
$MIRRTEXT
 70
1
  9
$LTSCALE
 40
1.0
  9
$ATTMODE
 70
1
  9
$TEXTSIZE
 40
2.5
  9
$TRACEWID
 40
1.0
  9
$TEXTSTYLE
  7
Standard
  9
$CLAYER
  8
0
  9
$CELTYPE
  6
ByLayer
  9
$CECOLOR
 62
256
  9
$CELTSCALE
 40
1.0
  9
$DISPSILH
 70
0
  9
$DIMSCALE
 40
1.0
  9
$DIMASZ
 40
2.5
  9
$DIMEXO
 40
0.625
  9
$DIMDLI
 40
3.75
  9
$DIMRND
 40
0.0
  9
$DIMDLE
 40
0.0
  9
$DIMEXE
 40
1.25
  9
$DIMTP
 40
0.0
  9
$DIMTM
 40
0.0
  9
$DIMTXT
 40
2.5
  9
$DIMCEN
 40
2.5
  9
$DIMTSZ
 40
0.0
  9
$DIMTOL
 70
0
  9
$DIMLIM
 70
0
  9
$DIMTIH
 70
0
  9
$DIMTOH
 70
0
  9
$DIMSE1
 70
0
  9
$DIMSE2
 70
0
  9
$DIMTAD
 70
1
  9
$DIMZIN
 70
8
  9
$DIMBLK
  1

  9
$DIMASO
 70
1
  9
$DIMSHO
 70
1
  9
$DIMPOST
  1

  9
$DIMAPOST
  1

  9
$DIMALT
 70
0
  9
$DIMALTD
 70
3
  9
$DIMALTF
 40
0.03937007874
  9
$DIMLFAC
 40
1.0
  9
$DIMTOFL
 70
1
  9
$DIMTVP
 40
0.0
  9
$DIMTIX
 70
0
  9
$DIMSOXD
 70
0
  9
$DIMSAH
 70
0
  9
$DIMBLK1
  1

  9
$DIMBLK2
  1

  9
$DIMSTYLE
  2
ISO-25
  9
$DIMCLRD
 70
0
  9
$DIMCLRE
 70
0
  9
$DIMCLRT
 70
0
  9
$DIMTFAC
 40
1.0
  9
$DIMGAP
 40
0.625
  9
$DIMJUST
 70
0
  9
$DIMSD1
 70
0
  9
$DIMSD2
 70
0
  9
$DIMTOLJ
 70
0
  9
$DIMTZIN
 70
8
  9
$DIMALTZ
 70
0
  9
$DIMALTTZ
 70
0
  9
$DIMUPT
 70
0
  9
$DIMDEC
 70
2
  9
$DIMTDEC
 70
2
  9
$DIMALTU
 70
2
  9
$DIMALTTD
 70
3
  9
$DIMTXSTY
  7
Standard
  9
$DIMAUNIT
 70
0
  9
$DIMADEC
 70
0
  9
$DIMALTRND
 40
0.0
  9
$DIMAZIN
 70
0
  9
$DIMDSEP
 70
44
  9
$DIMATFIT
 70
3
  9
$DIMFRAC
 70
0
  9
$DIMLDRBLK
  1

  9
$DIMLUNIT
 70
2
  9
$DIMLWD
 70
-2
  9
$DIMLWE
 70
-2
  9
$DIMTMOVE
 70
0
  9
$LUNITS
 70
2
  9
$LUPREC
 70
4
  9
$SKETCHINC
 40
1.0
  9
$FILLETRAD
 40
10.0
  9
$AUNITS
 70
0
  9
$AUPREC
 70
2
  9
$MENU
  1
.
  9
$ELEVATION
 40
0.0
  9
$PELEVATION
 40
0.0
  9
$THICKNESS
 40
0.0
  9
$LIMCHECK
 70
0
  9
$CHAMFERA
 40
0.0
  9
$CHAMFERB
 40
0.0
  9
$CHAMFERC
 40
0.0
  9
$CHAMFERD
 40
0.0
  9
$SKPOLY
 70
0
  9
$TDCREATE
 40
2461034.4497685186
  9
$TDUCREATE
 40
2458532.153996898
  9
$TDUPDATE
 40
2461034.4497685186
  9
$TDUUPDATE
 40
2458532.1544311
  9
$TDINDWG
 40
0.0
  9
$TDUSRTIMER
 40
0.0
  9
$USRTIMER
 70
1
  9
$ANGBASE
 50
0.0
  9
$ANGDIR
 70
0
  9
$PDMODE
 70
0
  9
$PDSIZE
 40
0.0
  9
$PLINEWID
 40
0.0
  9
$SPLFRAME
 70
0
  9
$SPLINETYPE
 70
6
  9
$SPLINESEGS
 70
8
  9
$HANDSEED
  5
33
  9
$SURFTAB1
 70
6
  9
$SURFTAB2
 70
6
  9
$SURFTYPE
 70
6
  9
$SURFU
 70
6
  9
$SURFV
 70
6
  9
$UCSBASE
  2

  9
$UCSNAME
  2

  9
$UCSORG
 10
0.0
 20
0.0
 30
0.0
  9
$UCSXDIR
 10
1.0
 20
0.0
 30
0.0
  9
$UCSYDIR
 10
0.0
 20
1.0
 30
0.0
  9
$UCSORTHOREF
  2

  9
$UCSORTHOVIEW
 70
0
  9
$UCSORGTOP
 10
0.0
 20
0.0
 30
0.0
  9
$UCSORGBOTTOM
 10
0.0
 20
0.0
 30
0.0
  9
$UCSORGLEFT
 10
0.0
 20
0.0
 30
0.0
  9
$UCSORGRIGHT
 10
0.0
 20
0.0
 30
0.0
  9
$UCSORGFRONT
 10
0.0
 20
0.0
 30
0.0
  9
$UCSORGBACK
 10
0.0
 20
0.0
 30
0.0
  9
$PUCSBASE
  2

  9
$PUCSNAME
  2

  9
$PUCSORG
 10
0.0
 20
0.0
 30
0.0
  9
$PUCSXDIR
 10
1.0
 20
0.0
 30
0.0
  9
$PUCSYDIR
 10
0.0
 20
1.0
 30
0.0
  9
$PUCSORTHOREF
  2

  9
$PUCSORTHOVIEW
 70
0
  9
$PUCSORGTOP
 10
0.0
 20
0.0
 30
0.0
  9
$PUCSORGBOTTOM
 10
0.0
 20
0.0
 30
0.0
  9
$PUCSORGLEFT
 10
0.0
 20
0.0
 30
0.0
  9
$PUCSORGRIGHT
 10
0.0
 20
0.0
 30
0.0
  9
$PUCSORGFRONT
 10
0.0
 20
0.0
 30
0.0
  9
$PUCSORGBACK
 10
0.0
 20
0.0
 30
0.0
  9
$USERI1
 70
0
  9
$USERI2
 70
0
  9
$USERI3
 70
0
  9
$USERI4
 70
0
  9
$USERI5
 70
0
  9
$USERR1
 40
0.0
  9
$USERR2
 40
0.0
  9
$USERR3
 40
0.0
  9
$USERR4
 40
0.0
  9
$USERR5
 40
0.0
  9
$WORLDVIEW
 70
1
  9
$SHADEDGE
 70
3
  9
$SHADEDIF
 70
70
  9
$TILEMODE
 70
1
  9
$MAXACTVP
 70
64
  9
$PINSBASE
 10
0.0
 20
0.0
 30
0.0
  9
$PLIMCHECK
 70
0
  9
$PEXTMIN
 10
1e+20
 20
1e+20
 30
1e+20
  9
$PEXTMAX
 10
-1e+20
 20
-1e+20
 30
-1e+20
  9
$PLIMMIN
 10
0.0
 20
0.0
  9
$PLIMMAX
 10
420.0
 20
297.0
  9
$UNITMODE
 70
0
  9
$VISRETAIN
 70
1
  9
$PLINEGEN
 70
0
  9
$PSLTSCALE
 70
1
  9
$TREEDEPTH
 70
3020
  9
$CMLSTYLE
  2
Standard
  9
$CMLJUST
 70
0
  9
$CMLSCALE
 40
20.0
  9
$PROXYGRAPHICS
 70
1
  9
$MEASUREMENT
 70
1
  9
$CELWEIGHT
370
-1
  9
$ENDCAPS
280
0
  9
$JOINSTYLE
280
0
  9
$LWDISPLAY
290
0
  9
$INSUNITS
 70
6
  9
$HYPERLINKBASE
  1

  9
$STYLESHEET
  1

  9
$XEDIT
290
1
  9
$CEPSNTYPE
380
0
  9
$PSTYLEMODE
290
1
  9
$FINGERPRINTGUID
  2
{150218EB-4B3C-4DA2-9563-052FF995572B}
  9
$VERSIONGUID
  2
{F9608359-7BA4-445E-A83B-964B3F65787A}
  9
$EXTNAMES
290
1
  9
$PSVPSCALE
 40
0.0
  9
$OLESTARTUP
290
0
  0
ENDSEC
  0
SECTION
  2
CLASSES
  0
CLASS
  1
ACDBDICTIONARYWDFLT
  2
AcDbDictionaryWithDefault
  3
ObjectDBX Classes
 90
0
280
0
281
0
  0
CLASS
  1
SUN
  2
AcDbSun
  3
SCENEOE
 90
1153
280
0
281
0
  0
CLASS
  1
VISUALSTYLE
  2
AcDbVisualStyle
  3
ObjectDBX Classes
 90
4095
280
0
281
0
  0
CLASS
  1
MATERIAL
  2
AcDbMaterial
  3
ObjectDBX Classes
 90
1153
280
0
281
0
  0
CLASS
  1
SCALE
  2
AcDbScale
  3
ObjectDBX Classes
 90
1153
280
0
281
0
  0
CLASS
  1
TABLESTYLE
  2
AcDbTableStyle
  3
ObjectDBX Classes
 90
4095
280
0
281
0
  0
CLASS
  1
MLEADERSTYLE
  2
AcDbMLeaderStyle
  3
ACDB_MLEADERSTYLE_CLASS
 90
4095
280
0
281
0
  0
CLASS
  1
DICTIONARYVAR
  2
AcDbDictionaryVar
  3
ObjectDBX Classes
 90
0
280
0
281
0
  0
CLASS
  1
CELLSTYLEMAP
  2
AcDbCellStyleMap
  3
ObjectDBX Classes
 90
1152
280
0
281
0
  0
CLASS
  1
MENTALRAYRENDERSETTINGS
  2
AcDbMentalRayRenderSettings
  3
SCENEOE
 90
1024
280
0
281
0
  0
CLASS
  1
ACDBDETAILVIEWSTYLE
  2
AcDbDetailViewStyle
  3
ObjectDBX Classes
 90
1025
280
0
281
0
  0
CLASS
  1
ACDBSECTIONVIEWSTYLE
  2
AcDbSectionViewStyle
  3
ObjectDBX Classes
 90
1025
280
0
281
0
  0
CLASS
  1
RASTERVARIABLES
  2
AcDbRasterVariables
  3
ISM
 90
0
280
0
281
0
  0
CLASS
  1
ACDBPLACEHOLDER
  2
AcDbPlaceHolder
  3
ObjectDBX Classes
 90
0
280
0
281
0
  0
CLASS
  1
LAYOUT
  2
AcDbLayout
  3
ObjectDBX Classes
 90
0
280
0
281
0
  0
ENDSEC
  0
SECTION
  2
TABLES
  0
TABLE
  2
VPORT
  5
8
330
0
100
AcDbSymbolTable
 70
1
  0
VPORT
  5
23
330
8
100
AcDbSymbolTableRecord
100
AcDbViewportTableRecord
  2
*Active
 70
0
 10
0.0
 20
0.0
 11
1.0
 21
1.0
 12
0.0
 22
0.0
 13
0.0
 23
0.0
 14
0.5
 24
0.5
 15
0.5
 25
0.5
 16
0.0
 26
0.0
 36
1.0
 17
0.0
 27
0.0
 37
0.0
 40
1000.0
 41
1.34
 42
50.0
 43
0.0
 44
0.0
 50
0.0
 51
0.0
 71
0
 72
1000
 73
1
 74
3
 75
0
 76
0
 77
0
 78
0
281
0
 65
0
146
0.0
  0
ENDTAB
  0
TABLE
  2
LTYPE
  5
2
330
0
100
AcDbSymbolTable
 70
3
  0
LTYPE
  5
24
330
2
100
AcDbSymbolTableRecord
100
AcDbLinetypeTableRecord
  2
ByBlock
 70
0
  3

 72
65
 73
0
 40
0.0
  0
LTYPE
  5
25
330
2
100
AcDbSymbolTableRecord
100
AcDbLinetypeTableRecord
  2
ByLayer
 70
0
  3

 72
65
 73
0
 40
0.0
  0
LTYPE
  5
26
330
2
100
AcDbSymbolTableRecord
100
AcDbLinetypeTableRecord
  2
Continuous
 70
0
  3

 72
65
 73
0
 40
0.0
  0
ENDTAB
  0
TABLE
  2
LAYER
  5
1
330
0
100
AcDbSymbolTable
 70
2
  0
LAYER
  5
27
330
1
100
AcDbSymbolTableRecord
100
AcDbLayerTableRecord
  2
0
 70
0
 62
7
  6
Continuous
370
-3
390
13
  0
LAYER
  5
28
330
1
100
AcDbSymbolTableRecord
100
AcDbLayerTableRecord
  2
Defpoints
 70
0
 62
7
  6
Continuous
290
0
370
-3
390
13
  0
ENDTAB
  0
TABLE
  2
STYLE
  5
5
330
0
100
AcDbSymbolTable
 70
1
  0
STYLE
  5
29
330
5
100
AcDbSymbolTableRecord
100
AcDbTextStyleTableRecord
  2
Standard
 70
0
 40
0.0
 41
1.0
 50
0.0
 71
0
 42
2.5
  3
txt
  4

  0
ENDTAB
  0
TABLE
  2
VIEW
  5
7
330
0
100
AcDbSymbolTable
 70
0
  0
ENDTAB
  0
TABLE
  2
UCS
  5
6
330
0
100
AcDbSymbolTable
 70
0
  0
ENDTAB
  0
TABLE
  2
APPID
  5
3
330
0
100
AcDbSymbolTable
 70
3
  0
APPID
  5
2A
330
3
100
AcDbSymbolTableRecord
100
AcDbRegAppTableRecord
  2
ACAD
 70
0
  0
APPID
  5
30
330
3
100
AcDbSymbolTableRecord
100
AcDbRegAppTableRecord
  2
HATCHBACKGROUNDCOLOR
 70
0
  0
APPID
  5
31
330
3
100
AcDbSymbolTableRecord
100
AcDbRegAppTableRecord
  2
EZDXF
 70
0
  0
ENDTAB
  0
TABLE
  2
DIMSTYLE
  5
4
330
0
100
AcDbSymbolTable
 70
1
100
AcDbDimStyleTable
  0
DIMSTYLE
105
2B
330
4
100
AcDbSymbolTableRecord
100
AcDbDimStyleTableRecord
  2
Standard
 70
0
  3

  4

 40
1.0
 41
2.5
 42
0.625
 43
3.75
 44
1.25
 45
0.0
 46
0.0
 47
0.0
 48
0.0
140
2.5
141
2.5
142
0.0
143
0.03937007874
144
1.0
145
0.0
146
1.0
147
0.625
148
0.0
 71
0
 72
0
 73
0
 74
0
 75
0
 76
0
 77
1
 78
8
 79
3
170
0
171
3
172
1
173
0
174
0
175
0
176
0
177
0
178
0
179
2
271
2
272
2
273
2
274
3
275
0
276
0
277
2
278
44
279
0
280
0
281
0
282
0
283
0
284
8
285
0
286
0
288
0
289
3
371
-2
372
-2
  0
ENDTAB
  0
TABLE
  2
BLOCK_RECORD
  5
9
330
0
100
AcDbSymbolTable
 70
2
  0
BLOCK_RECORD
  5
17
330
9
100
AcDbSymbolTableRecord
100
AcDbBlockTableRecord
  2
*Model_Space
340
1A
  0
BLOCK_RECORD
  5
1B
330
9
100
AcDbSymbolTableRecord
100
AcDbBlockTableRecord
  2
*Paper_Space
340
1E
  0
ENDTAB
  0
ENDSEC
  0
SECTION
  2
BLOCKS
  0
BLOCK
  5
18
330
17
100
AcDbEntity
  8
0
100
AcDbBlockBegin
  2
*Model_Space
 70
0
 10
0.0
 20
0.0
 30
0.0
  3
*Model_Space
  1

  0
ENDBLK
  5
19
330
17
100
AcDbEntity
  8
0
100
AcDbBlockEnd
  0
BLOCK
  5
1C
330
1B
100
AcDbEntity
  8
0
100
AcDbBlockBegin
  2
*Paper_Space
 70
0
 10
0.0
 20
0.0
 30
0.0
  3
*Paper_Space
  1

  0
ENDBLK
  5
1D
330
1B
100
AcDbEntity
  8
0
100
AcDbBlockEnd
  0
ENDSEC
  0
SECTION
  2
ENTITIES
  0
LWPOLYLINE
  5
2F
330
17
100
AcDbEntity
  8
0
100
AcDbPolyline
 90
3601
 70
1
 10
266.3420874008488
 20
0.0
 10
266.3420753431202
 20
-0.09017359460370979
 10
266.3412656717146
 20
-0.591402352261105
 10
266.3397229066127
 20
-1.0926293907530549
 10
266.3374566003365
 20
-1.593853681113332
 10
266.3344763028151
 20
-2.0950742357129744
 10
266.33079156118015
 20
-2.596290107696001
 10
266.33079156118015
 20
-2.596290107696001
 10
266.32640700546835
 20
-3.097500345729814
 10
266.3213076141535
 20
-3.598703818253484
 10
266.31547345148175
 20
-4.099899273903046
 10
266.3088845824859
 20
-4.601085373583536
 10
266.30152107372083
 20
-5.102260688088838
 10
266.2933629940745
 20
-5.6034236957261685
 10
266.28439041565565
 20
-6.104572779946175
 10
266.27458341476176
 20
-6.605706226979642
 10
266.26392207292696
 20
-7.106822223481883
 10
266.25238647805463
 20
-7.607918854185995
 10
266.239956863212
 20
-8.108994103084111
 10
266.2266233042128
 20
-8.610046113219996
 10
266.2123921114331
 20
-9.111073432808155
 10
266.1972711132818
 20
-9.612074688685743
 10
266.1812681370909
 20
-10.113048549154504
 10
266.1643910087595
 20
-10.61399372359244
 10
266.14664755240995
 20
-11.11490896206406
 10
266.1280455900583
 20
-11.615793054929252
 10
266.1085929412984
 20
-12.11664483245113
 10
266.0882974229977
 20
-12.617463164402801
 10
266.0671668490082
 20
-13.118246959673398
 10
266.0452090298885
 20
-13.61899516587339
 10
266.02243177264006
 20
-14.119706768939412
 10
265.99884288045496
 20
-14.620380792738649
 10
265.9744501524773
 20
-15.121016298673089
 10
265.9492613835759
 20
-15.621612385283525
 10
265.9232838519944
 20
-16.122168161008688
 10
265.89651906929083
 20
-16.622682459413955
 10
265.86896491650475
 20
-17.123153922006367
 10
265.84061921869693
 20
-17.62358117678347
 10
265.81147980175183
 20
-18.123962841105694
 10
265.7815444924667
 20
-18.624297521663156
 10
265.7508111186408
 20
-19.124583814443145
 10
265.71927750916643
 20
-19.62482030469801
 10
265.68694149412045
 20
-20.125005566913554
 10
265.6538009048575
 20
-20.62513816477801
 10
265.6198535741037
 20
-21.12521665115161
 10
265.58509733605166
 20
-21.625239568036616
 10
265.54953002645675
 20
-22.125205446547927
 10
265.51314948273415
 20
-22.625112806884363
 10
265.4759535440573
 20
-23.124960158300567
 10
265.437940051588
 20
-23.624745999089384
 10
265.39910753783084
 20
-24.124468870384188
 10
265.35945683694507
 20
-24.62412748814762
 10
265.31898926218435
 20
-25.123720610542897
 10
265.27770612629183
 20
-25.623247001645225
 10
265.2356087414533
 20
-26.122705431418144
 10
265.1926984192517
 20
-26.62209467568974
 10
265.1489764706212
 20
-27.121413516128523
 10
265.10444420580234
 20
-27.620660740219332
 10
265.0591029342968
 20
-28.119835141238724
 10
265.0129539648238
 20
-28.618935518230582
 10
264.9659986052756
 20
-29.117960675981166
 10
264.91823816267447
 20
-29.616909424994308
 10
264.8696739431293
 20
-30.115780581466236
 10
264.8203072517931
 20
-30.614572967260212
 10
264.77013939282097
 20
-31.11328540988118
 10
264.7191716257115
 20
-31.611916737965792
 10
264.6674042967585
 20
-32.11046569064169
 10
264.6148368876138
 20
-32.60893091707711
 10
264.56146884618863
 20
-33.10731105967108
 10
264.5072996207471
 20
-33.60560475750433
 10
264.45232865964346
 20
-34.10381064629708
 10
264.39655541122164
 20
-34.60192735838239
 10
264.33997932597595
 20
-35.09995352293713
 10
264.2825998538652
 20
-35.59788776567153
 10
264.22441644534274
 20
-36.095728708929485
 10
264.16542855138624
 20
-36.59347497167941
 10
264.1056356235268
 20
-37.091125169505446
 10
264.04503711387804
 20
-37.58867791459855
 10
263.98363247516573
 20
-38.08613181574793
 10
263.92142116075746
 20
-38.58348547833239
 10
263.8584026246926
 20
-39.08073750431212
 10
263.7945765019358
 20
-39.57788651543259
 10
263.7299431402107
 20
-40.07493122348623
 10
263.6645030630995
 20
-40.5718703642341
 10
263.5982567939548
 20
-41.068702675151144
 10
263.53120485588704
 20
-41.56542689541332
 10
263.46334777175264
 20
-42.06204176588457
 10
263.39468606414135
 20
-42.55854602910361
 10
263.32522025536497
 20
-43.05493842927098
 10
263.2549508674447
 20
-43.55121771223576
 10
263.1838784221002
 20
-44.04738262548238
 10
263.1120034407376
 20
-44.54343191811737
 10
263.0393264444381
 20
-45.039364340855975
 10
262.9658479539467
 20
-45.53517864600895
 10
262.8915684896611
 20
-46.03087358746897
 10
262.8164885716206
 20
-46.52644792069738
 10
262.74060871337707
 20
-47.021900401769656
 10
262.66392925558927
 20
-47.517229761528114
 10
262.5864503464469
 20
-48.01243470144162
 10
262.5081721241053
 20
-48.507513921137495
 10
262.4290947267928
 20
-49.002466119933295
 10
262.349218292816
 20
-49.497289996827085
 10
262.268542960563
 20
-49.99198425048814
 10
262.18706886850845
 20
-50.4865475792473
 10
262.10479615521746
 20
-50.98097868108758
 10
262.0217249593505
 20
-51.475276253634824
 10
261.93785541966776
 20
-51.96943899414807
 10
261.8531876750341
 20
-52.46346559951048
 10
261.76772186442395
 20
-52.957354766219794
 10
261.6814581269255
 20
-53.45110519037906
 10
261.5943966017468
 20
-53.94471556768744
 10
261.50653742821993
 20
-54.43818459343097
 10
261.4178807578094
 20
-54.93151096463559
 10
261.32842679982144
 20
-55.424693388424245
 10
261.2381757809177
 20
-55.91773057497299
 10
261.1471279277554
 20
-56.410621234416425
 10
261.05528346698594
 20
-56.90336407683717
 10
260.9626426252572
 20
-57.39595781225536
 10
260.86920562921654
 20
-57.888401150618876
 10
260.77497270551225
 20
-58.38069280179313
 10
260.67994408079693
 20
-58.87283147555107
 10
260.5841199817302
 20
-59.364815881563175
 10
260.4875006349812
 20
-59.85664472938739
 10
260.3900862672317
 20
-60.3483167284592
 10
260.291877105179
 20
-60.83983058808168
 10
260.19287337553914
 20
-61.33118501741552
 10
260.09307530505
 20
-61.82237872546913
 10
259.99248312055704
 20
-62.31341042110582
 10
259.8910970519422
 20
-62.8042788136392
 10
259.78891733291823
 20
-63.29498261300717
 10
259.6859441974753
 20
-63.785520529041435
 10
259.5821778796423
 20
-64.2758912714084
 10
259.4776186134785
 20
-64.7660935495969
 10
259.37226663184475
 20
-65.2561260726422
 10
259.2661221701709
 20
-65.74598754992466
 10
259.1591854626736
 20
-66.23567669035138
 10
259.0514567436256
 20
-66.72519220261552
 10
258.94293624736065
 20
-67.2145327951864
 10
258.8336242082767
 20
-67.70369717630041
 10
258.72352086084055
 20
-68.19268405395101
 10
258.6126264395917
 20
-68.6814921358795
 10
258.500941179147
 20
-69.17012012956543
 10
258.38846531420523
 20
-69.65856674221698
 10
258.2751990721782
 20
-70.14683067904788
 10
258.16114263532353
 20
-70.63491063436811
 10
258.0462961688528
 20
-71.1228052978901
 10
257.93065983806724
 20
-71.61051335865685
 10
257.81423380839766
 20
-72.0980335050404
 10
257.6970182454124
 20
-72.58536442473296
 10
257.57901331482554
 20
-73.07250480473778
 10
257.4602191825047
 20
-73.55945333135986
 10
257.34063601447934
 20
-74.0462086901977
 10
257.22026397694884
 20
-74.53276956613405
 10
257.09910323629094
 20
-75.01913464332708
 10
256.9771539590704
 20
-75.50530260520173
 10
256.8544163120469
 20
-75.99127213444116
 10
256.73089046218473
 20
-76.47704191297787
 10
256.6065765766602
 20
-76.96261062198518
 10
256.4814748234066
 20
-77.44797694200733
 10
256.3555854272445
 20
-77.9331395675344
 10
256.22890871908623
 20
-78.41809722020697
 10
256.1014450414704
 20
-78.90284862470752
 10
255.97319473692616
 20
-79.38739250575601
 10
255.84415814797575
 20
-79.8717275881006
 10
255.71433561713687
 20
-80.355852596507
 10
255.58372748692537
 20
-80.83976625574857
 10
255.45233409985784
 20
-81.32346729059606
 10
255.32015579845444
 20
-81.80695442580777
 10
255.18719292524185
 20
-82.29022638611926
 10
255.053445822756
 20
-82.77328189623357
 10
254.91891483354544
 20
-83.25611968081127
 10
254.78360030017424
 20
-83.73873846446031
 10
254.64750256522566
 20
-84.22113697172621
 10
254.51062197130506
 20
-84.70331392708212
 10
254.37295885523585
 20
-85.1852680532568
 10
254.23451347510283
 20
-85.66699805020598
 10
254.09528603238297
 20
-86.14850260097523
 10
253.9552767275084
 20
-86.62978038743869
 10
253.81448576112956
 20
-87.11083009064734
 10
253.67291333412504
 20
-87.59165039082123
 10
253.53055964761086
 20
-88.07223996734051
 10
253.38742490295076
 20
-88.5525974987377
 10
253.2435093017661
 20
-89.03272166268906
 10
253.09881304594583
 20
-89.51261113600671
 10
252.95333633765662
 20
-89.99226459463048
 10
252.807079379353
 20
-90.47168071361992
 10
252.6600423737884
 20
-90.95085816714635
 10
252.51222552402436
 20
-91.42979562848498
 10
252.36362903344218
 20
-91.9084917700071
 10
252.21425310575302
 20
-92.38694526317238
 10
252.0640979481895
 20
-92.86515477952156
 10
251.91316378400663
 20
-93.34311899463472
 10
251.76145084153833
 20
-93.82083658475477
 10
251.60895934935112
 20
-94.29830622526504
 10
251.45568953617362
 20
-94.7755265906547
 10
251.3016416299619
 20
-95.25249635420377
 10
251.1468158612214
 20
-95.72921418904446
 10
250.99121245954694
 20
-96.20567876703674
 10
250.8348316548168
 20
-96.6818887591393
 10
250.67767367720373
 20
-97.15784283540195
 10
250.51973875718525
 20
-97.63353966495745
 10
250.36102712555518
 20
-98.10897791601356
 10
250.20153901343443
 20
-98.58415625584551
 10
250.04127465228203
 20
-99.05907335078822
 10
249.88023427390652
 20
-99.53372786622857
 10
249.71841811051252
 20
-100.00811846660989
 10
249.5558264122883
 20
-100.48224382145945
 10
249.39245947588194
 20
-100.9561026153128
 10
249.2283176056117
 20
-101.42969353459553
 10
249.06340110599314
 20
-101.90301526506674
 10
248.89771028174857
 20
-102.37606649181004
 10
248.73124543781572
 20
-102.84884589922518
 10
248.564006879357
 20
-103.32135217101961
 10
248.3959949117693
 20
-103.79358399019982
 10
248.2272098406928
 20
-104.26554003906361
 10
248.05765197202075
 20
-104.73721899919114
 10
247.88732161190913
 20
-105.20861955143693
 10
247.71621906678618
 20
-105.67974037592197
 10
247.5443446433624
 20
-106.15058015202527
 10
247.37169864864023
 20
-106.62113755837618
 10
247.1982813899241
 20
-107.09141127284623
 10
247.02409317487783
 20
-107.561399972559
 10
246.84913431657355
 20
-108.03110233576098
 10
246.67340513793079
 20
-108.50051704350723
 10
246.49690596317723
 20
-108.96964277650873
 10
246.31963711680064
 20
-109.43847821473304
 10
246.14159892355846
 20
-109.90702203739549
 10
245.96279170848825
 20
-110.37527292295167
 10
245.78321579691777
 20
-110.84322954908897
 10
245.6028715144752
 20
-111.31089059271906
 10
245.42175918709975
 20
-111.7782547299695
 10
245.23987914105194
 20
-112.24532063617652
 10
245.05723170292435
 20
-112.71208698587682
 10
244.87381719965205
 20
-113.1785524528002
 10
244.6896359585237
 20
-113.64471570986181
 10
244.50468830719205
 20
-114.11057542915498
 10
244.31897457368532
 20
-114.57613028194318
 10
244.13249508589985
 20
-115.04137893844526
 10
243.94525012479994
 20
-115.5063200489558
 10
243.75723988715305
 20
-115.9709522284192
 10
243.5684645614968
 20
-116.43527408664792
 10
243.37892433694995
 20
-116.89928423183521
 10
243.18861940323015
 20
-117.36298127054901
 10
242.99754995067175
 20
-117.82636380772627
 10
242.8057161702438
 20
-118.2894304466671
 10
242.61311825356796
 20
-118.75217978902921
 10
242.4197563929366
 20
-119.21461043482212
 10
242.22563078133112
 20
-119.67672098240216
 10
242.03074161244015
 20
-120.13851002846665
 10
241.8350890806781
 20
-120.59997616804921
 10
241.6386733812035
 20
-121.06111799451456
 10
241.44149470993761
 20
-121.52193409955325
 10
241.2435532635834
 20
-121.98242307317751
 10
241.0448492397943
 20
-122.44258350378108
 10
240.84538289523445
 20
-122.90241400333738
 10
240.64515463322
 20
-123.36191324599987
 10
240.44416487886977
 20
-123.82107991459021
 10
240.2424140593332
 20
-124.27991269207496
 10
240.03990260147538
 20
-124.7384102605457
 10
239.83663093218277
 20
-125.19657130133741
 10
239.63259947861295
 20
-125.65439449512446
 10
239.42780866820505
 20
-126.11187852191249
 10
239.22225892868966
 20
-126.56902206103017
 10
239.01595068809917
 20
-127.02582379112155
 10
238.80888437477887
 20
-127.48228239013731
 10
238.60106041739635
 20
-127.93839653532785
 10
238.39247924495348
 20
-128.39416490323458
 10
238.183141286796
 20
-128.84958616968282
 10
237.97304697262496
 20
-129.30465900977362
 10
237.76219673250748
 20
-129.7593820978768
 10
237.5505909852138
 20
-130.2137541021795
 10
237.33823008509944
 20
-130.66777365973695
 10
237.1251143646542
 20
-131.12143939593662
 10
236.91124415689822
 20
-131.57474993485755
 10
236.69661979541897
 20
-132.02770389927505
 10
236.48124161438716
 20
-132.4802999106545
 10
236.26510994857261
 20
-132.93253658914549
 10
236.04822513336075
 20
-133.3844125535753
 10
235.8305875047685
 20
-133.8359264214443
 10
235.61219739946074
 20
-134.28707680891966
 10
235.39305515476698
 20
-134.73786233082984
 10
235.1731611086975
 20
-135.18828160065965
 10
234.95251559996007
 20
-135.6383332305444
 10
234.73111896797684
 20
-136.08801583126547
 10
234.50897155290076
 20
-136.53732801224487
 10
234.28607369563295
 20
-136.98626838154036
 10
234.0624257387169
 20
-137.43483554627883
 10
233.83802804748038
 20
-137.88302812324153
 10
233.61288101097892
 20
-138.3308447394967
 10
233.38698501990652
 20
-138.77828402143257
 10
233.160340465514
 20
-139.22534459420584
 10
232.9329477396254
 20
-139.6720250817347
 10
232.7048072346536
 20
-140.11832410669277
 10
232.47591934361586
 20
-140.56424029050447
 10
232.24628446015072
 20
-141.00977225333736
 10
232.01590297853357
 20
-141.45491861409783
 10
231.78477529369297
 20
-141.89967799042495
 10
231.55290180122702
 20
-142.34404899868537
 10
231.32028289741993
 20
-142.78803025396786
 10
231.08691897925854
 20
-143.23162037007742
 10
230.85281044444864
 20
-143.67481795953177
 10
230.61795769143194
 20
-144.11762163355473
 10
230.38236111940301
 20
-144.56003000207238
 10
230.14602113313396
 20
-145.00204167628175
 10
229.9089381639372
 20
-145.44365527993108
 10
229.67111265234482
 20
-145.88486944018769
 10
229.4325450394696
 20
-146.32568278302756
 10
229.1932357670154
 20
-146.76609393322616
 10
228.95318527729265
 20
-147.20610151435253
 10
228.71239401323487
 20
-147.6457041487633
 10
228.4708624184147
 20
-148.0849004575973
 10
228.22859093706023
 20
-148.52368906076956
 10
227.98558001407116
 20
-148.96206857696686
 10
227.74183009503568
 20
-149.40003762364125
 10
227.49734162624642
 20
-149.83759481700577
 10
227.2521150547183
 20
-150.2747387720287
 10
227.00615082736022
 20
-150.71146810195305
 10
226.7594493931283
 20
-151.14778141949245
 10
226.5120112016984
 20
-151.5836773360753
 10
226.26383670314692
 20
-152.01915446164844
 10
226.0149263521058
 20
-152.45421140703831
 10
225.76528061375262
 20
-152.88884678740686
 10
225.51489995551324
 20
-153.32305921754264
 10
225.26378484549042
 20
-153.75684731094915
 10
225.01193575248018
 20
-154.1902096798403
 10
224.75935314598954
 20
-154.62314493513495
 10
224.50603749625387
 20
-155.0556516864522
 10
224.2519892742542
 20
-155.48772854210634
 10
223.99720895173542
 20
-155.91937410910202
 10
223.74169700122303
 20
-156.35058699312975
 10
223.48545389604175
 20
-156.78136579856144
 10
223.22848011033275
 20
-157.21170912844616
 10
222.9707761190722
 20
-157.64161558450567
 10
222.71234239808888
 20
-158.07108376713055
 10
222.45317942408238
 20
-158.50011227537598
 10
222.1932876746416
 20
-158.92869970695818
 10
221.9326676282336
 20
-159.35684465823283
 10
221.6713197574948
 20
-159.78454572007755
 10
221.40924452060167
 20
-160.21180147252517
 10
221.1464423744635
 20
-160.63861049272802
 10
220.8829137768598
 20
-161.06497135624042
 10
220.6186591864608
 20
-161.4908826370155
 10
220.3536790628482
 20
-161.9163429074013
 10
220.08797386653535
 20
-162.34135073813712
 10
219.82154405898882
 20
-162.76590469835006
 10
219.55439010264868
 20
-163.19000335555225
 10
219.28651246094955
 20
-163.61364527563723
 10
219.01791159834184
 20
-164.0368290228776
 10
218.74858798031266
 20
-164.4595531599217
 10
218.47854207340717
 20
-164.8818162477916
 10
218.2077743452499
 20
-165.30361684588004
 10
217.93628526456624
 20
-165.7249535119485
 10
217.66407530120384
 20
-166.14582480212516
 10
217.39114492615496
 20
-166.56622927090362
 10
217.11749465230932
 20
-166.9861654977069
 10
216.84312514275007
 20
-167.4056321580793
 10
216.5680370951721
 20
-167.82462794922907
 10
216.29223120761768
 20
-168.24315156778985
 10
216.01570817848906
 20
-168.66120170981276
 10
215.73846870656044
 20
-169.07877707075897
 10
215.4605134909901
 20
-169.49587634549172
 10
215.18184323133346
 20
-169.91249822826833
 10
214.90245862755506
 20
-170.32864141273325
 10
214.6223603800411
 20
-170.74430459191103
 10
214.34154918961252
 20
-171.15948645819822
 10
214.0600257575375
 20
-171.57418570335707
 10
213.77779078554457
 20
-171.98840101850763
 10
213.4948449758355
 20
-172.40213109412147
 10
213.21118903109826
 20
-172.81537462001464
 10
212.92682365452066
 20
-173.22813028534063
 10
212.64174954980297
 20
-173.64039677858435
 10
212.3559674108513
 20
-174.05217278038384
 10
212.06947781397253
 20
-174.4634568882993
 10
211.78228126101646
 20
-174.87424764580737
 10
211.49437825376955
 20
-175.2845435936819
 10
211.20576929401412
 20
-175.69434327000081
 10
210.9164548870861
 20
-176.10364521263347
 10
210.62643553842798
 20
-176.5124479568013
 10
210.33571175470627
 20
-176.920750035843
 10
210.04428404386812
 20
-177.32854998123577
 10
209.75215291516545
 20
-177.7358463225953
 10
209.45931887917962
 20
-178.14263758767493
 10
209.1657824478458
 20
-178.54892230236555
 10
208.87154413447786
 20
-178.9546989906954
 10
208.57660445379292
 20
-179.35996617483028
 10
208.280963921936
 20
-179.76472237507423
 10
207.9846230565053
 20
-180.16896610987
 10
207.687582376577
 20
-180.5726958957988
 10
207.38984240277608
 20
-180.9759102476167
 10
207.09140371554219
 20
-181.37860772145208
 10
206.79226706894008
 20
-181.78078700002075
 10
206.49243324927937
 20
-182.18244678891782
 10
206.19190304328293
 20
-182.58358579311846
 10
205.8906772381005
 20
-182.98420271697196
 10
205.58875662132263
 20
-183.38429626419273
 10
205.2861419809944
 20
-183.7838651378546
 10
204.98283410562885
 20
-184.1829080403836
 10
204.6788337842217
 20
-184.5814236735505
 10
204.37414180626482
 20
-184.97941073846474
 10
204.06875896176052
 20
-185.37686793556753
 10
203.76268604123618
 20
-185.77379396462524
 10
203.455923835758
 20
-186.17018752472342
 10
203.1484731369457
 20
-186.5660473142602
 10
202.84033473698753
 20
-186.96137203094023
 10
202.53150942865418
 20
-187.35616037176865
 10
202.2219980053139
 20
-187.75041103304514
 10
201.91180126015306
 20
-188.1441227097319
 10
201.6009199296662
 20
-188.53729405071775
 10
201.2893546563039
 20
-188.92992362855816
 10
200.97710607476415
 20
-189.32201000708903
 10
200.66417482095895
 20
-189.71355174846155
 10
200.35056153203752
 20
-190.1045474131419
 10
200.03626684641063
 20
-190.49499555991045
 10
199.72129140377407
 20
-190.88489474586132
 10
199.4056358451327
 20
-191.2742435264021
 10
199.0893008128244
 20
-191.66304045525408
 10
198.77228695054484
 20
-192.05128408445157
 10
198.4545949033704
 20
-192.43897296434318
 10
198.136225317784
 20
-192.8261056435917
 10
197.8171788416983
 20
-193.21268066917477
 10
197.4974561244806
 20
-193.59869658638624
 10
197.1770578169775
 20
-193.98415193883685
 10
196.85598457153904
 20
-194.3690452684558
 10
196.53423704204425
 20
-194.75337511549165
 10
196.21181588491208
 20
-195.13714001934616
 10
195.88872184121098
 20
-195.52033858783764
 10
195.5649557978054
 20
-195.9029695498488
 10
195.24051865651896
 20
-196.28503164596475
 10
194.91541131956913
 20
-196.66652361623187
 10
194.5896346895818
 20
-197.04744420015058
 10
194.263189669605
 20
-197.4277921366675
 10
193.9360771631231
 20
-197.8075661641689
 10
193.60829807315355
 20
-198.18676501967863
 10
193.27985330475374
 20
-198.56538744100345
 10
192.95074376306698
 20
-198.94343216503384
 10
192.6209703534674
 20
-199.32089792784484
 10
192.2905339818382
 20
-199.69778346491748
 10
191.95943555458598
 20
-200.07408751113198
 10
191.62767597865619
 20
-200.44980880076184
 10
191.29525616154766
 20
-200.82494606746738
 10
190.96217701132753
 20
-201.19949804428998
 10
190.62843943664714
 20
-201.57346346364628
 10
190.29404434675487
 20
-201.94684105732068
 10
189.9589926365142
 20
-202.31962954297012
 10
189.6232851500974
 20
-202.69182759117857
 10
189.28692272157303
 20
-203.06343386152616
 10
188.94990618595875
 20
-203.4344470124585
 10
188.61223637924098
 20
-203.80486570128338
 10
188.27391413839553
 20
-204.17468858416876
 10
187.93494030140695
 20
-204.54391431614079
 10
187.59531570728942
 20
-204.91254155108095
 10
187.25504119610645
 20
-205.2805689417249
 10
186.9141176089917
 20
-205.64799513966034
 10
186.572545788169
 20
-206.01481879532545
 10
186.23032657697323
 20
-206.38103855800765
 10
185.88746081987068
 20
-206.74665307584203
 10
185.54394936247974
 20
-207.1116609958107
 10
185.19979305159166
 20
-207.47606096374173
 10
184.85499273519125
 20
-207.83985162430855
 10
184.50954926247766
 20
-208.20303162102934
 10
184.16346348388592
 20
-208.56559959626665
 10
183.8167362515539
 20
-208.92755419165562
 10
183.46936842540848
 20
-209.28889405394168
 10
183.1213608714612
 20
-209.6496178334009
 10
182.7727144569197
 20
-210.0097241791552
 10
182.42343005008465
 20
-210.36921173905142
 10
182.07350852037143
 20
-210.72807915965996
 10
181.72295073833237
 20
-211.08632508627355
 10
181.3717575756786
 20
-211.44394816290662
 10
181.0199299053022
 20
-211.80094703229457
 10
180.66746860129828
 20
-212.15732033589325
 10
180.31437453898744
 20
-212.5130667138785
 10
179.9606485949381
 20
-212.8681848051462
 10
179.60629164698892
 20
-213.2226732473121
 10
179.25130457427093
 20
-213.5765306767126
 10
178.8956882572308
 20
-213.92975572840444
 10
178.5394435776526
 20
-214.28234703616602
 10
178.18257141868116
 20
-214.63430323249804
 10
177.82507266484475
 20
-214.98562294862404
 10
177.46694820207767
 20
-215.33630481449228
 10
177.10819893967638
 20
-215.68634748127783
 10
176.74882590402552
 20
-216.03574971807024
 10
176.3888301601971
 20
-216.3845103325869
 10
176.02821277369677
 20
-216.7326281321174
 10
175.666974810455
 20
-217.08010192349263
 10
175.30511733684247
 20
-217.42693051307802
 10
174.94264141968597
 20
-217.77311270676654
 10
174.57954812617788
 20
-218.11864730986312
 10
174.21583852318997
 20
-218.46353312633346
 10
173.85151368002656
 20
-218.80776896168538
 10
173.4865746654893
 20
-219.15135361986094
 10
173.12102254891337
 20
-219.49428590429872
 10
172.75485840018212
 20
-219.83656461792867
 10
172.38808328974358
 20
-220.17818856316677
 10
172.02069828862565
 20
-220.51915654190913
 10
171.65270446845295
 20
-220.8594673555268
 10
171.28410290146246
 20
-221.19911980486077
 10
170.91489466051982
 20
-221.5381126902169
 10
170.54508081913548
 20
-221.8764448113611
 10
170.17466244219497
 20
-222.2141149573183
 10
169.80364055714836
 20
-222.55112187449387
 10
169.432016182544
 20
-222.88746429758237
 10
169.05979033788785
 20
-223.22314096031025
 10
168.68696404366406
 20
-223.55815059543428
 10
168.31353832135468
 20
-223.89249193473987
 10
167.93951419346095
 20
-224.22616370903904
 10
167.56489268352328
 20
-224.5591646481698
 10
167.18967481614172
 20
-224.89149348099434
 10
166.8138616169968
 20
-225.22314893539846
 10
166.4374541128703
 20
-225.55412973829067
 10
166.06045333166614
 20
-225.88443461560095
 10
165.68286030243064
 20
-226.21406229228157
 10
165.30467605537422
 20
-226.54301149230557
 10
164.9259016218917
 20
-226.87128093866735
 10
164.54653803458385
 20
-227.19886935338297
 10
164.16658632727814
 20
-227.52577545748989
 10
163.78604753505007
 20
-227.85199797104775
 10
163.40492269424468
 20
-228.1775356131392
 10
163.02321285386247
 20
-228.502387115239
 10
162.64091913057499
 20
-228.82655128626067
 10
162.25804266587895
 20
-229.1500269629332
 10
161.87458460189046
 20
-229.4728129814596
 10
161.49054608132724
 20
-229.7949081774724
 10
161.10592824752652
 20
-230.116311386028
 10
160.72073224446245
 20
-230.43702144160287
 10
160.33495921676302
 20
-230.75703717808878
 10
159.94861030972788
 20
-231.07635742878875
 10
159.56168666934613
 20
-231.39498102641284
 10
159.17418944231386
 20
-231.71290680307425
 10
158.78611977605118
 20
-232.03013359028623
 10
158.3974788187218
 20
-232.346660218957
 10
158.0082677192495
 20
-232.66248551938781
 10
157.61848762733587
 20
-232.97760832126963
 10
157.22813969347987
 20
-233.29202745367888
 10
156.83722506899537
 20
-233.60574174507556
 10
156.44574490602838
 20
-233.91875002330048
 10
156.05370035757608
 20
-234.2310511155726
 10
155.66109257745572
 20
-234.54264384842358
 10
155.26792271943182
 20
-234.85352704656742
 10
154.87419193729366
 20
-235.1636995329576
 10
154.47990138564802
 20
-235.47316012975327
 10
154.085052219967
 20
-235.78190765835257
 10
153.68964559579055
 20
-236.0899409383397
 10
153.29368267097828
 20
-236.3972587903468
 10
152.89716460393734
 20
-236.70386003375984
 10
152.50009255379575
 20
-237.009743486914
 10
152.1024676806466
 20
-237.31490796737305
 10
151.7042911455659
 20
-237.61935229193065
 10
151.3055641106334
 20
-237.9230752766081
 10
150.906287738953
 20
-238.22607573665366
 10
150.50646319467245
 20
-238.52835248654208
 10
150.10609164300317
 20
-238.82990433997412
 10
149.7051742502419
 20
-239.1307301098759
 10
149.3037121837893
 20
-239.43082860839985
 10
148.9017066121717
 20
-239.73019864692347
 10
148.49915870506092
 20
-240.02883903605067
 10
148.09606963329446
 20
-240.32674858561234
 10
147.69244058240062
 20
-240.623926123023
 10
147.28827279051862
 20
-240.92037054521947
 10
146.8835675087409
 20
-241.2160807654104
 10
146.47832598873393
 20
-241.51105569632034
 10
146.07254948275903
 20
-241.80529425018256
 10
145.66623924368722
 20
-242.0987953387373
 10
145.2593965250186
 20
-242.3915578732265
 10
144.8520225808996
 20
-242.68358076439006
 10
144.44411866614112
 20
-242.97486292246276
 10
144.03568603623654
 20
-243.26540325716994
 10
143.6267259473798
 20
-243.5552006777247
 10
143.21723965648383
 20
-243.8442540928246
 10
142.807228421198
 20
-244.13256241064897
 10
142.39669349992766
 20
-244.42012453885528
 10
141.9856361518509
 20
-244.70693938457794
 10
141.57405763693856
 20
-244.99300585442452
 10
141.16195921597154
 20
-245.27832285447423
 10
140.74934215056015
 20
-245.5628892902758
 10
140.3362077031628
 20
-245.84670406684486
 10
139.92255713714957
 20
-246.12976608873134
 10
139.50839172093202
 20
-246.41207426604882
 10
139.09371273114579
 20
-246.6936275192261
 10
138.67852144594488
 20
-246.97442476923408
 10
138.26281914425093
 20
-247.25446493645742
 10
137.8466071057711
 20
-247.53374694069313
 10
137.42988661101907
 20
-247.8122697011473
 10
137.0126589413316
 20
-248.09003213643518
 10
136.59492537889074
 20
-248.3670331645773
 10
136.176687206741
 20
-248.6432717029996
 10
135.7579457088103
 20
-248.918746668531
 10
135.33870216992918
 20
-249.19345697740263
 10
134.9189578758492
 20
-249.46740154524747
 10
134.4987141132647
 20
-249.74057928709811
 10
134.07797216983033
 20
-250.01298911738783
 10
133.656733334183
 20
-250.28462994994874
 10
133.23499889595968
 20
-250.55550069801268
 10
132.8127701458178
 20
-250.8256002742111
 10
132.390048375457
 20
-251.09492759057403
 10
131.96683487699647
 20
-251.3634815575208
 10
131.54313094494182
 20
-251.6312610869254
 10
131.11893789145617
 20
-251.8982651163983
 10
130.69425705381855
 20
-252.16449262154865
 10
130.26908977196376
 20
-252.42994258061964
 10
129.8434373865186
 20
-252.69461397134737
 10
129.41730123881868
 20
-252.9585057709588
 10
128.99068267092795
 20
-253.22161695617007
 10
128.56358302565837
 20
-253.48394650318343
 10
128.1360036465891
 20
-253.7454933876855
 10
127.70794587808417
 20
-254.00625658484594
 10
127.27941106531468
 20
-254.26623506931466
 10
126.85040055427449
 20
-254.52542781522217
 10
126.42091569180319
 20
-254.78383379617648
 10
125.99095782560353
 20
-255.0414519852631
 10
125.5605283042608
 20
-255.29828135504445
 10
125.12962847726337
 20
-255.55432087755827
 10
124.69825969502207
 20
-255.8095695243177
 10
124.26642330888981
 20
-256.06402626631115
 10
123.83412067118067
 20
-256.3176900740019
 10
123.40135313519102
 20
-256.5705599173282
 10
122.96812205535589
 20
-256.8226347659411
 10
122.53442880860109
 20
-257.07391362605614
 10
122.10027481717623
 20
-257.3243955805768
 10
121.66566150923978
 20
-257.57407972177026
 10
121.23059031328675
 20
-257.8229651416702
 10
120.79506265816538
 20
-258.0710509320716
 10
120.3590799730952
 20
-258.31833618452464
 10
119.92264368768325
 20
-258.56481999033065
 10
119.4857552319421
 20
-258.81050144053637
 10
119.0484160363063
 20
-259.0553796259304
 10
118.61062753165093
 20
-259.29945363703774
 10
118.17239114930709
 20
-259.5427225641162
 10
117.73370832108107
 20
-259.7851854971523
 10
117.29458047927213
 20
-260.0268415258565
 10
116.85500905668843
 20
-260.2676897396606
 10
116.41499548666674
 20
-260.5077292277134
 10
115.97454120308795
 20
-260.74695907887804
 10
115.53364764039728
 20
-260.9853783817279
 10
115.09231623362038
 20
-261.22298622454457
 10
114.65054841838206
 20
-261.4597816953145
 10
114.20834563092433
 20
-261.6957638817264
 10
113.76570931073903
 20
-261.93093187609526
 10
113.32264091043403
 20
-262.1652847940639
 10
112.87914188683
 20
-262.3988217580711
 10
112.43521369720303
 20
-262.6315418902815
 10
111.99085779930249
 20
-262.86344431258027
 10
111.54607565136838
 20
-263.09452814656976
 10
111.10086871214942
 20
-263.32479251356574
 10
110.65523844092104
 20
-263.5542365345948
 10
110.20918629750332
 20
-263.78285933039086
 10
109.76271374228021
 20
-264.0106600213919
 10
109.31582223569677
 20
-264.237637726715
 10
108.8685132395505
 20
-264.46379156664835
 10
108.42078821631392
 20
-264.6891206613002
 10
107.9726486288049
 20
-264.9136241299023
 10
107.524095940496
 20
-265.1373010913799
 10
107.07513161553248
 20
-265.3601506643496
 10
106.62575711875168
 20
-265.58217196711763
 10
106.1759739157012
 20
-265.80336411767917
 10
105.72578347265703
 20
-266.0237262337168
 10
105.27518725664346
 20
-266.2432574325993
 10
104.82418673558237
 20
-266.46195683165416
 10
104.3727833809975
 20
-266.67982355373647
 10
103.92097866785461
 20
-266.8968567269603
 10
103.46877407193188
 20
-267.11305547927054
 10
103.01617106972913
 20
-267.32841893821205
 10
102.56317113848762
 20
-267.54294623092915
 10
102.10977575620839
 20
-267.75663648416537
 10
101.65598640167265
 20
-267.9694888242623
 10
101.20180455446103
 20
-268.18150237716037
 10
100.7472316949742
 20
-268.3926762683976
 10
100.2922693044512
 20
-268.60300962311095
 10
99.83691886498968
 20
-268.81250156603613
 10
99.38118185956661
 20
-269.021151221508
 10
98.92505977205671
 20
-269.228957713462
 10
98.46855408725364
 20
-269.43592016543454
 10
98.01166629088878
 20
-269.64203770056446
 10
97.5543978696519
 20
-269.8473094415947
 10
97.09675031121132
 20
-270.05173451087313
 10
96.638725104233
 20
-270.2553120303554
 10
96.18032373840184
 20
-270.45804112160613
 10
95.72154770444051
 20
-270.6599209058017
 10
95.26239850000692
 20
-270.8609505171735
 10
94.80287765331333
 20
-271.0611291574409
 10
94.34298670243912
 20
-271.26045604939145
 10
93.88272718595027
 20
-271.45893041553643
 10
93.42210064291336
 20
-271.65655147810105
 10
92.96110861291483
 20
-271.85331845902226
 10
92.4997526360801
 20
-272.0492305799462
 10
92.03803425309198
 20
-272.2442870622266
 10
91.57595500521006
 20
-272.4384871269233
 10
91.11351643429056
 20
-272.6318299948002
 10
90.65072008280366
 20
-272.8243148863246
 10
90.18756749385452
 20
-273.0159410216656
 10
89.72406021120243
 20
-273.2067076206932
 10
89.26019977927783
 20
-273.3966139029784
 10
88.79598774320449
 20
-273.5856590877916
 10
88.33142564881776
 20
-273.77384239410316
 10
87.8665150426826
 20
-273.9611630405829
 10
87.40125747211545
 20
-274.1476202456006
 10
86.93565448520219
 20
-274.3332132272257
 10
86.4697076308178
 20
-274.51794120322853
 10
86.0034184584265
 20
-274.7018033905212
 10
85.53678854033642
 20
-274.8847990619064
 10
85.06981950235456
 20
-275.06692762577643
 10
84.60251297745448
 20
-275.24818850959906
 10
84.13487059831843
 20
-275.42858114099346
 10
83.66689399735385
 20
-275.60810494772005
 10
83.1985848067082
 20
-275.7867593576721
 10
82.72994465828577
 20
-275.964543798866
 10
82.26097518376163
 20
-276.14145769943383
 10
81.79167801459877
 20
-276.3175004876143
 10
81.32205478206374
 20
-276.49267159174457
 10
80.85210711724145
 20
-276.6669704402526
 10
80.38183665105255
 20
-276.8403964616485
 10
79.91124501426876
 20
-277.0129490845176
 10
79.44033383752866
 20
-277.1846277375129
 10
78.96910475135529
 20
-277.35543184934716
 10
78.49755938617123
 20
-277.52536084878636
 10
78.02569937231439
 20
-277.6944141646426
 10
77.55352634005672
 20
-277.86259122576723
 10
77.08104191961837
 20
-278.0298914610444
 10
76.6082477411859
 20
-278.1963142993844
 10
76.13514543447276
 20
-278.36185916841464
 10
75.66173660085533
 20
-278.5265254142055
 10
75.18802279773
 20
-278.6903122541558
 10
74.71400557977715
 20
-278.8532188938561
 10
74.23968650293271
 20
-279.0152445383607
 10
73.76506712441056
 20
-279.176388392193
 10
73.29014900272458
 20
-279.336649659352
 10
72.8149336977105
 20
-279.4960275433183
 10
72.33942277054771
 20
-279.6545212470609
 10
71.86361778378273
 20
-279.8121299730437
 10
71.38752030134977
 20
-279.9688529232323
 10
70.91113188859296
 20
-280.1246892991018
 10
70.43445411228866
 20
-280.2796383016439
 10
69.95748854066842
 20
-280.4336991313744
 10
69.48023674343891
 20
-280.5868709883414
 10
69.002700291806
 20
-280.7391530721336
 10
68.52488075849615
 20
-280.8905445818878
 10
68.04677971777761
 20
-281.04104471629876
 10
67.56839874548352
 20
-281.1906526736272
 10
67.08973941903321
 20
-281.339367651709
 10
66.61080331745448
 20
-281.4871888479647
 10
66.13159202235704
 20
-281.63411546252263
 10
65.65210716569213
 20
-281.7801468552177
 10
65.1723504509879
 20
-281.9252826197298
 10
64.69232358680199
 20
-282.06952236849685
 10
64.21202828104272
 20
-282.2128657141735
 10
63.731466240984325
 20
-282.35531226961996
 10
63.25063917328294
 20
-282.4968616478902
 10
62.76954878399323
 20
-282.6375134622217
 10
62.28819677858366
 20
-282.777267326024
 10
61.806584861515155
 20
-282.9161228513511
 10
61.32471473749693
 20
-283.05407965317215
 10
60.84258811041233
 20
-283.19113734562205
 10
60.36020668354628
 20
-283.32729554269775
 10
59.87757215967701
 20
-283.46255385851765
 10
59.39468624109514
 20
-283.59691190731235
 10
58.911550629617665
 20
-283.73036930341596
 10
58.428167026606744
 20
-283.86292566125536
 10
57.94453713298522
 20
-283.9945805953431
 10
57.46066264925284
 20
-284.1253337202672
 10
56.97654527550477
 20
-284.25518465068274
 10
56.492186711447445
 20
-284.384133001304
 10
56.007588656253716
 20
-284.51217838628395
 10
55.52275279406273
 20
-284.63932036374996
 10
55.037680782853286
 20
-284.76555839138956
 10
54.5523742784648
 20
-284.89089191627386
 10
54.06683493737734
 20
-285.0153203852763
 10
53.58106441673086
 20
-285.13884324507444
 10
53.095064374345085
 20
-285.2614599421512
 10
52.608836468737934
 20
-285.38316992279726
 10
52.12238235914607
 20
-285.50397263311277
 10
51.63570370554392
 20
-285.62386751901033
 10
51.14880216866308
 20
-285.74285402621666
 10
50.66167941001265
 20
-285.86093160027593
 10
50.17433709189728
 20
-285.978099686553
 10
49.68677687743835
 20
-286.09435773023574
 10
49.199000430593
 20
-286.20970517633924
 10
48.71100941617282
 20
-286.3241414697091
 10
48.222805499864435
 20
-286.4376660550251
 10
47.73439034824903
 20
-286.5502783768058
 10
47.24576562882129
 20
-286.6619778794122
 10
46.75693301000878
 20
-286.7727640070525
 10
46.26789416119383
 20
-286.88263620378683
 10
45.778650752752775
 20
-286.99159391363315
 10
45.28920446671852
 20
-287.0996366288774
 10
44.79955701340189
 20
-287.2067639675645
 10
44.30971010753615
 20
-287.3129755679185
 10
43.819665463786585
 20
-287.41827106815595
 10
43.329424796768926
 20
-287.5226501064815
 10
42.83898982106823
 20
-287.6261123210833
 10
42.34836225125599
 20
-287.7286573501294
 10
41.857543801909706
 20
-287.83028483176344
 10
41.36653618762907
 20
-287.9309944041014
 10
40.875341123056565
 20
-288.0307857052281
 10
40.38396032289273
 20
-288.1296583731941
 10
39.89239550191763
 20
-288.2276120460125
 10
39.40064837500715
 20
-288.32464636165616
 10
38.90872065715254
 20
-288.4207609580552
 10
38.4166140634778
 20
-288.5159554730948
 10
37.9243303092584
 20
-288.61022954461237
 10
37.43187110967863
 20
-288.7035828090025
 10
36.93923818055564
 20
-288.79601490494196
 10
36.44643323781719
 20
-288.88752547056816
 10
35.95345799753229
 20
-288.97811414351145
 10
35.46031417601246
 20
-289.06778056134726
 10
34.96700349150111
 20
-289.1565243708937
 10
34.473527670562326
 20
-289.2443452643982
 10
33.979888442204356
 20
-289.33124294799
 10
33.48608753536915
 20
-289.41721712781407
 10
32.99212667895098
 20
-289.5022675100238
 10
32.498007601814095
 20
-289.58639380077733
 10
32.00373203281032
 20
-289.6695957062347
 10
31.509301700798833
 20
-289.75187293255425
 10
31.014718334662266
 20
-289.83322518588994
 10
30.519983663326027
 20
-289.9136521723886
 10
30.025099415776804
 20
-289.9931535981874
 10
29.530067321080157
 20
-290.0717291694118
 10
29.034889108399145
 20
-290.1493785921727
 10
28.53956650701225
 20
-290.22610157256577
 10
28.044101246332804
 20
-290.3018978166686
 10
27.548495055925958
 20
-290.37676703053984
 10
27.052749665528633
 20
-290.4507089202178
 10
26.556866805066388
 20
-290.52372319171934
 10
26.060848204672105
 20
-290.5958095510391
 10
25.56469559470628
 20
-290.6669677041487
 10
25.068410705772767
 20
-290.73719735699643
 10
24.57199526920164
 20
-290.80649821882827
 10
24.075451021571148
 20
-290.87487003512194
 10
23.578779702574792
 20
-290.94231257366965
 10
23.081983051917916
 20
-291.0088256025905
 10
22.585062809290555
 20
-291.07440889000054
 10
22.0880207143856
 20
-291.13906220401094
 10
21.590858506916863
 20
-291.20278531272504
 10
21.093577926637618
 20
-291.26557798423676
 10
20.596180713359143
 20
-291.3274399866283
 10
20.09866860696945
 20
-291.3883710879688
 10
19.6010433474508
 20
-291.44837105631257
 10
19.103306674898224
 20
-291.5074396596984
 10
18.605460329539206
 20
-291.5655766661473
 10
18.107506051750534
 20
-291.62278184366323
 10
17.60944558207805
 20
-291.6790549602311
 10
17.111280661255012
 20
-291.73439578381704
 10
16.61301303021973
 20
-291.7888040823681
 10
16.114644430135275
 20
-291.8422796238119
 10
15.61617660240619
 20
-291.89482217605723
 10
15.11761128869981
 20
-291.94643150699414
 10
14.618950230962817
 20
-291.9971073844947
 10
14.120195171538613
 20
-292.0468495774107
 10
13.621347856633772
 20
-292.09565789097945
 10
13.122410036997953
 20
-292.1435321763962
 10
12.623383463388778
 20
-292.1904722861314
 10
12.124269886743761
 20
-292.2364780757632
 10
11.625071057781811
 20
-292.2815493996249
 10
11.125788727123085
 20
-292.3256861118247
 10
10.626424645327921
 20
-292.36888806645726
 10
10.126980562914339
 20
-292.41115511760177
 10
9.627458230377334
 20
-292.45248711931936
 10
9.127859398207393
 20
-292.49288392565245
 10
8.628185816908694
 20
-292.53234539062214
 10
8.128439237018288
 20
-292.57087136822776
 10
7.628621409123455
 20
-292.6084617124456
 10
7.12873408388201
 20
-292.6451162772277
 10
6.62877901203995
 20
-292.68083491650196
 10
6.128757944449226
 20
-292.7156174841707
 10
5.628672632088704
 20
-292.74946383411117
 10
5.128524826080338
 20
-292.7823738201757
 10
4.628316277709161
 20
-292.8143472961907
 10
4.128048738442078
 20
-292.84538411595855
 10
3.627723959948637
 20
-292.8754841333178
 10
3.1273436964410326
 20
-292.9046472422235
 10
2.6269097083321453
 20
-292.9328734462431
 10
2.126423756473417
 20
-292.96016276756814
 10
1.6258876010481795
 20
-292.98651522848155
 10
1.1253030015889052
 20
-293.01193085135014
 10
0.6246717169957453
 20
-293.0364096586177
 10
0.12399550555375576
 20
-293.0599516727982
 10
-0.376723875048409
 20
-293.08255691646923
 10
-0.8774846677005559
 20
-293.1042254122654
 10
-1.3782851158537488
 20
-293.1249571828727
 10
-1.879123463502059
 20
-293.14475225102194
 10
-2.3799979551634665
 20
-293.16361063948335
 10
-2.880906835863168
 20
-293.181532371061
 10
-3.3818483511140314
 20
-293.1985174685871
 10
-3.882820746900088
 20
-293.21456595491753
 10
-4.383822269656893
 20
-293.2296778529263
 10
-4.8848511662529415
 20
-293.24385318550094
 10
-5.385905683973712
 20
-293.25709197553823
 10
-5.886984070500313
 20
-293.2693942459399
 10
-6.388084573893866
 20
-293.2807600196082
 10
-6.889205442575183
 20
-293.2911893194421
 10
-7.390344925566161
 20
-293.30068215424745
 10
-7.891501273512905
 20
-293.3092384518368
 10
-8.392672737284414
 20
-293.3168581110824
 10
-8.893857567341614
 20
-293.3235410307517
 10
-9.395054013720124
 20
-293.3292871095472
 10
-9.896260326008692
 20
-293.33409624610965
 10
-10.397474753331535
 20
-293.3379683390227
 10
-10.898695544330149
 20
-293.34090328681697
 10
-11.399920947142974
 20
-293.34290098797413
 10
-11.901149209388352
 20
-293.34396134086916
 10
-12.402378578142354
 20
-293.3440842421463
 10
-12.903607299918768
 20
-293.34326959198785
 10
-13.404833620659483
 20
-293.34151728872945
 10
-13.90605578571122
 20
-293.33882723068376
 10
-14.407272039805411
 20
-293.3351993161458
 10
-14.908480627040948
 20
-293.3306334433985
 10
-15.409679790864944
 20
-293.3251295107199
 10
-15.910867774053832
 20
-293.31868741638823
 10
-16.41204281869555
 20
-293.3113070586896
 10
-16.913203166171158
 20
-293.3029883359239
 10
-17.414347057135416
 20
-293.2937311464122
 10
-17.91547273195168
 20
-293.28353541007414
 10
-18.416578436173268
 20
-293.27240130736146
 10
-18.91766242026796
 20
-293.26032919162463
 10
-19.4187229365429
 20
-293.24731941940234
 10
-19.91975823906215
 20
-293.2333723473026
 10
-20.420766583629298
 20
-293.2184883319861
 10
-20.921746227768875
 20
-293.2026677301519
 10
-21.4226954307073
 20
-293.1859108985203
 10
-21.923612453354067
 20
-293.1682181938188
 10
-22.42449555828249
 20
-293.1495899727663
 10
-22.925343009711284
 20
-293.1300265920588
 10
-23.426153073484556
 20
-293.10952840835455
 10
-23.926924017053974
 20
-293.08809577825957
 10
-24.42765410945782
 20
-293.0657290583138
 10
-24.928341621302287
 20
-293.04242860497715
 10
-25.42898482474355
 20
-293.01819477461567
 10
-25.92958199346518
 20
-292.99302792348806
 10
-26.430131402661992
 20
-292.96692840773267
 10
-26.93063132901781
 20
-292.93989658335437
 10
-27.431080050686422
 20
-292.9119328062118
 10
-27.931475847273692
 20
-292.8830374320045
 10
-28.43181699922379
 20
-292.85321080646435
 10
-28.93210177564181
 20
-292.8224530693889
 10
-29.4323284334872
 20
-292.79076416501573
 10
-29.932495228300027
 20
-292.758144029827
 10
-30.4326004146382
 20
-292.72459260029945
 10
-30.932642246061206
 20
-292.69010981291433
 10
-31.432618975108763
 20
-292.6546956041683
 10
-31.932528853286687
 20
-292.6183499105844
 10
-32.43237013104666
 20
-292.5810726687222
 10
-32.932141057767986
 20
-292.54286381518995
 10
-33.43183988174133
 20
-292.50372328665566
 10
-33.93146485015076
 20
-292.4636510198585
 10
-34.43101420905476
 20
-292.4226469516208
 10
-34.93048620337077
 20
-292.38071101886
 10
-35.429879076856295
 20
-292.337843158601
 10
-35.92919107209113
 20
-292.29404330798866
 10
-36.428420430461564
 20
-292.24931140429993
 10
-36.92756539214226
 20
-292.2036473849576
 10
-37.42662419592547
 20
-292.15705118590995
 10
-37.925595079638484
 20
-292.10952274633064
 10
-38.42447627973908
 20
-292.06106200436966
 10
-38.9232660323552
 20
-292.0116689078983
 10
-39.42196260052414
 20
-291.9613436832394
 10
-39.920564279620805
 20
-291.9100868690512
 10
-40.419069368777606
 20
-291.85789902045866
 10
-40.917476169235776
 20
-291.8047806924563
 10
-41.415782984325006
 20
-291.7507324398912
 10
-41.91398811944071
 20
-291.69575481744477
 10
-42.41208988202577
 20
-291.6398483796166
 10
-42.91008658154938
 20
-291.5830136807066
 10
-43.40797652948476
 20
-291.5252512747988
 10
-43.905758039289445
 20
-291.46656171574494
 10
-44.40342942638478
 20
-291.406945557148
 10
-44.90098900813381
 20
-291.34640335234644
 10
-45.39843510382088
 20
-291.2849356543984
 10
-45.89576603463019
 20
-291.2225430160664
 10
-46.39298012362496
 20
-291.1592259898018
 10
-46.89007569572545
 20
-291.0949851277302
 10
-47.38705107768734
 20
-291.02982098163636
 10
-47.8839045980814
 20
-290.9637341029498
 10
-48.38063458727234
 20
-290.89672504273057
 10
-48.87723937739459
 20
-290.8287943516553
 10
-49.373717301571055
 20
-290.75994257453016
 10
-49.87006667700048
 20
-290.69017013061296
 10
-50.36628580413827
 20
-290.61947731422026
 10
-50.86237298296464
 20
-290.54786441427797
 10
-51.35832651371316
 20
-290.4753317197255
 10
-51.85414469685196
 20
-290.40187951951617
 10
-52.34982583306847
 20
-290.32750810261746
 10
-52.845368223250325
 20
-290.25221775801174
 10
-53.3407701684676
 20
-290.1760087746974
 10
-53.83602996995586
 20
-290.0988814416895
 10
-54.331145929099144
 20
-290.0208360480212
 10
-54.82611634741206
 20
-289.94187288274514
 10
-55.32093952652138
 20
-289.8619922349352
 10
-55.815613768150456
 20
-289.7811943936884
 10
-56.3101373740998
 20
-289.69947964812656
 10
-56.80450864623216
 20
-289.61684828739885
 10
-57.29872588645322
 20
-289.533300600684
 10
-57.79278739669507
 20
-289.4488368771933
 10
-58.2866914788984
 20
-289.3634574061727
 10
-58.7804364349964
 20
-289.27716247690665
 10
-59.27402056689636
 20
-289.1899523787205
 10
-59.767442178089524
 20
-289.1018274100601
 10
-60.26069958745337
 20
-289.0127879546332
 10
-60.75379112280544
 20
-288.9228344427522
 10
-61.246715112733845
 20
-288.831967305079
 10
-61.73946988649303
 20
-288.7401869721439
 10
-62.23205377393492
 20
-288.6474938740863
 10
-62.72446510534556
 20
-288.5538884398919
 10
-63.21670221215125
 20
-288.45937110121116
 10
-63.70876342608275
 20
-288.3639422880215
 10
-64.20064707944337
 20
-288.26760243015633
 10
-64.6923515050906
 20
-288.1703519573035
 10
-65.18387503641583
 20
-288.07219129900324
 10
-65.67521600732785
 20
-287.9731208846476
 10
-66.1663727522335
 20
-287.8731411434776
 10
-66.65734360601711
 20
-287.7722525045843
 10
-67.14812690402435
 20
-287.67045539690616
 10
-67.63872098204287
 20
-287.5677502492294
 10
-68.12912417628262
 20
-287.4641374901871
 10
-68.61933482335884
 20
-287.3596175482595
 10
-69.10935126027259
 20
-287.25419085177316
 10
-69.5991718243975
 20
-287.1478578289277
 10
-70.08879486681778
 20
-287.04061896864727
 10
-70.57821878155661
 20
-286.93247495096904
 10
-71.06744197272494
 20
-286.82342649313955
 10
-71.55646284638014
 20
-286.7134743121016
 10
-72.04527981050491
 20
-286.6026191244798
 10
-72.53389127498642
 20
-286.49086164656734
 10
-73.02229565159385
 20
-286.3782025943122
 10
-73.51049135395937
 20
-286.2646426833041
 10
-73.99847679755568
 20
-286.15018262876083
 10
-74.48625039967547
 20
-286.03482314551616
 10
-74.97381057940899
 20
-285.91856494800726
 10
-75.4611557576246
 20
-285.8014087502616
 10
-75.9482843569458
 20
-285.6833552658857
 10
-76.43519480173109
 20
-285.5644052080527
 10
-76.92188551805182
 20
-285.44455928949094
 10
-77.40835493366995
 20
-285.3238182224727
 10
-77.89460147801998
 20
-285.20218271880236
 10
-78.38062358218265
 20
-285.07965348980616
 10
-78.86641967886644
 20
-284.9562312463216
 10
-79.35198820238618
 20
-284.83191669868586
 10
-79.83732758602522
 20
-284.70671054661784
 10
-80.32243623189092
 20
-284.5806133636778
 10
-80.80731252064217
 20
-284.4536256380688
 10
-81.29195483286088
 20
-284.32574785631283
 10
-81.77636154944409
 20
-284.1969805048714
 10
-82.26053105159303
 20
-284.06732407014545
 10
-82.74446172079281
 20
-283.9367790384772
 10
-83.22815193879688
 20
-283.80534589615246
 10
-83.71160008760761
 20
-283.67302512940284
 10
-84.19480454946172
 20
-283.5398172244075
 10
-84.67776370681257
 20
-283.4057226672959
 10
-85.16047594231236
 20
-283.2707419441503
 10
-85.64293963879719
 20
-283.13487554100857
 10
-86.12515317926835
 20
-282.9981239438672
 10
-86.60711494687597
 20
-282.86048763868456
 10
-87.08882332490244
 20
-282.72196711138446
 10
-87.57027669649169
 20
-282.58256284698405
 10
-88.05147344515451
 20
-282.4422753314092
 10
-88.5324119547052
 20
-282.3011050513172
 10
-89.01309060878887
 20
-282.15905249252955
 10
-89.49350779228638
 20
-282.0161181448282
 10
-89.97366192972622
 20
-281.8723026300397
 10
-90.45355149448088
 20
-281.72760672933265
 10
-90.93317496445778
 20
-281.5820312329864
 10
-91.41253081924215
 20
-281.4355769308315
 10
-91.89161754007586
 20
-281.2882446122387
 10
-92.37043360983911
 20
-281.1400350661087
 10
-92.84897751302488
 20
-280.9909490808635
 10
-93.32724773572107
 20
-280.8409874444358
 10
-93.80524276558769
 20
-280.69015094426044
 10
-94.28296109183684
 20
-280.5384403672648
 10
-94.76040120521036
 20
-280.38585649986015
 10
-95.2375615979601
 20
-280.23240012793275
 10
-95.71444076382448
 20
-280.07807203683615
 10
-96.19103719800981
 20
-279.922873011382
 10
-96.66734939716619
 20
-279.76680383583295
 10
-97.14337585936858
 20
-279.6098652938946
 10
-97.6191150840958
 20
-279.45205816870686
 10
-98.09456557220783
 20
-279.2933832428382
 10
-98.56972582592412
 20
-279.13384129827807
 10
-99.0445943492275
 20
-278.9734331176828
 10
-99.5191696623299
 20
-278.81215952693316
 10
-99.99345030556563
 20
-278.65002140560745
 10
-100.46743482234118
 20
-278.48701963614553
 10
-100.94112175797784
 20
-278.32315510047
 10
-101.41450965969267
 20
-278.15842867997395
 10
-101.88759707657557
 20
-277.9928412555101
 10
-102.36038255956815
 20
-277.826393707379
 10
-102.83286466144163
 20
-277.6590869153187
 10
-103.30504193677639
 20
-277.4909217584928
 10
-103.77691294194017
 20
-277.3218991154802
 10
-104.24847623506616
 20
-277.1520198642654
 10
-104.71973037603112
 20
-276.9812848822272
 10
-105.190673926436
 20
-276.8096950461292
 10
-105.66130544958074
 20
-276.6372512321105
 10
-106.13162351044414
 20
-276.4639543156757
 10
-106.60162667566502
 20
-276.2898051716852
 10
-107.07131351351659
 20
-276.11480467434694
 10
-107.54068259388669
 20
-275.9389536972069
 10
-108.0097324882563
 20
-275.76225311314073
 10
-108.47846176550567
 20
-275.58470378335267
 10
-108.94686895275125
 20
-275.40630645486146
 10
-109.41495255236335
 20
-275.2270618073368
 10
-109.88271106689653
 20
-275.0469705194021
 10
-110.35014299939965
 20
-274.8660332695072
 10
-110.81724685340217
 20
-274.6842507359279
 10
-111.28402113289485
 20
-274.50162359676926
 10
-111.75046434231434
 20
-274.31815252996677
 10
-112.21657498652687
 20
-274.1338382132875
 10
-112.68235157043728
 20
-273.9486813233952
 10
-113.14779259983798
 20
-273.7626825380381
 10
-113.61289658103436
 20
-273.5758425351255
 10
-114.07766202044573
 20
-273.38816199177586
 10
-114.54208742483632
 20
-273.1996415849529
 10
-115.00617130130139
 20
-273.01028199146765
 10
-115.46991215725181
 20
-272.8200838879811
 10
-115.9333085003972
 20
-272.62904795100775
 10
-116.39635883872812
 20
-272.4371748569198
 10
-116.85906168050164
 20
-272.2444652819502
 10
-117.32141553452495
 20
-272.0509199029138
 10
-117.78341895868556
 20
-271.8565395124618
 10
-118.24507061442841
 20
-271.6613251458077
 10
-118.70636917836892
 20
-271.4652778679018
 10
-119.16731332947448
 20
-271.26839874280756
 10
-119.62790174904164
 20
-271.0706888336857
 10
-120.08813312067213
 20
-270.87214920278166
 10
-120.54800613024717
 20
-270.6727809114106
 10
-121.00751946590456
 20
-270.47258501994406
 10
-121.46667181801439
 20
-270.2715625877965
 10
-121.92546187915241
 20
-270.06971467341276
 10
-122.38388834407951
 20
-269.86704233425377
 10
-122.84194990971527
 20
-269.6635466267847
 10
-123.299645275114
 20
-269.45922860646243
 10
-123.75697314144107
 20
-269.2540893277228
 10
-124.21393221194663
 20
-269.0481298439696
 10
-124.67052119194288
 20
-268.8413512075623
 10
-125.1267387887799
 20
-268.63375446980416
 10
-125.58258371182103
 20
-268.425340680931
 10
-126.03805467241772
 20
-268.2161108901011
 10
-126.49315038168739
 20
-268.00606614062724
 10
-126.947869544225
 20
-267.79520745653775
 10
-127.40221086450524
 20
-267.5835358567019
 10
-127.85617304890167
 20
-267.3710523592588
 10
-128.3097548056629
 20
-267.157757981609
 10
-128.7629548448918
 20
-266.9436537404044
 10
-129.215771878524
 20
-266.7287406515378
 10
-129.66820462030748
 20
-266.5130197301339
 10
-130.12025178577838
 20
-266.2964919905406
 10
-130.57191209224106
 20
-266.0791584463195
 10
-131.0231842587466
 20
-265.8610201102374
 10
-131.47406700607058
 20
-265.64207799425753
 10
-131.92455905669257
 20
-265.4223331095308
 10
-132.37465913477376
 20
-265.2017864663886
 10
-132.82436596613462
 20
-264.98043907433436
 10
-133.2736782782345
 20
-264.7582919420357
 10
-133.7225948001512
 20
-264.53534607731666
 10
-134.1711142625553
 20
-264.3116024871518
 10
-134.61923539766596
 20
-264.08706217759936
 10
-135.0669569217496
 20
-263.86172611911536
 10
-135.5142775051283
 20
-263.63559518781034
 10
-135.96119581109068
 20
-263.4086702437687
 10
-136.40771050371387
 20
-263.1809521467087
 10
-136.8538202478476
 20
-262.9524417559808
 10
-137.29952370906258
 20
-262.723139930504
 10
-137.744819553031
 20
-262.49304752760185
 10
-138.18970644751622
 20
-262.2621654068893
 10
-138.63418306028808
 20
-262.0304944262525
 10
-139.07824805980243
 20
-261.7980354432136
 10
-139.52190011519036
 20
-261.5647893149292
 10
-139.9651378962363
 20
-261.33075689819464
 10
-140.40796007336326
 20
-261.0959390494432
 10
-140.85036531761781
 20
-260.860336624748
 10
-141.2923523006528
 20
-260.62395047982324
 10
-141.7339196947101
 20
-260.3867814700267
 10
-142.17506617260526
 20
-260.1488304503606
 10
-142.61579040771272
 20
-259.9100982754739
 10
-143.05609107824566
 20
-259.6705858075567
 10
-143.49596695666065
 20
-259.4302940798205
 10
-143.93541690789993
 20
-259.1892242906285
 10
-144.37443980306205
 20
-258.9473776439628
 10
-144.81303451567268
 20
-258.7047553425883
 10
-145.25119992165898
 20
-258.46135858803865
 10
-145.68893489932407
 20
-258.21718858060325
 10
-146.1262383293214
 20
-257.97224651931487
 10
-146.5631090946301
 20
-257.7265336019356
 10
-146.9995460805297
 20
-257.4800510249452
 10
-147.43554817457442
 20
-257.2327999835284
 10
-147.8711142665679
 20
-256.984781671563
 10
-148.30624324853918
 20
-256.7359972816071
 10
-148.74093401471308
 20
-256.48644800489024
 10
-149.17518546149202
 20
-256.23613503129775
 10
-149.60899648742352
 20
-255.98505954936385
 10
-150.04236599317994
 20
-255.73322274625775
 10
-150.47529288153027
 20
-255.48062580777471
 10
-150.90777605729616
 20
-255.22726991829128
 10
-151.33981442100628
 20
-254.97315625001926
 10
-151.77140685981172
 20
-254.71828594781175
 10
-152.20255226053973
 20
-254.46266015163079
 10
-152.6332495119606
 20
-254.20628000044678
 10
-153.06349750476497
 20
-253.94914663222931
 10
-153.4932951315411
 20
-253.69126118393893
 10
-153.9226412867552
 20
-253.43262479151673
 10
-154.35153486672638
 20
-253.17323858987777
 10
-154.77997476960687
 20
-252.91310371290106
 10
-155.2079598953587
 20
-252.65222129342246
 10
-155.6354891457331
 20
-252.39059246322572
 10
-156.0625614242481
 20
-252.12821835303507
 10
-156.4891756361638
 20
-251.86510009250918
 10
-156.9153306884655
 20
-251.6012388102308
 10
-157.34102548983796
 20
-251.33663563370212
 10
-157.76625895064447
 20
-251.0712916893368
 10
-158.1910299829049
 20
-250.80520810245326
 10
-158.61533750021
 20
-250.53838599716644
 10
-159.03918038953174
 20
-250.27082645179672
 10
-159.46255746670943
 20
-250.00253042929288
 10
-159.88546753691392
 20
-249.73349887405283
 10
-160.30790940602023
 20
-249.46373273006034
 10
-160.7298818805942
 20
-249.19323294088562
 10
-161.15138376787672
 20
-248.92200044968666
 10
-161.57241387576775
 20
-248.65003619921185
 10
-161.99297101227972
 20
-248.37734113098108
 10
-162.4130539868206
 20
-248.10391618729645
 10
-162.83266160947264
 20
-247.82976231014175
 10
-163.25179269062338
 20
-247.5548804406437
 10
-163.6704460412433
 20
-247.27927151952966
 10
-164.08862047287386
 20
-247.0029364871294
 10
-164.50631479760955
 20
-246.72587628337834
 10
-164.92352782808402
 20
-246.4480918478209
 10
-165.340258377457
 20
-246.1695841196113
 10
-165.75650525939656
 20
-245.89035403751978
 10
-166.17226728990732
 20
-245.61040254266175
 10
-166.58754337135244
 20
-245.32973070273263
 10
-167.00233252805222
 20
-245.04833976274662
 10
-167.41663379553185
 20
-244.766230979725
 10
-167.83044621150736
 20
-244.4834056093135
 10
-168.2437688158602
 20
-244.19986490577193
 10
-168.6566006506141
 20
-243.915610121963
 10
-169.06894075990795
 20
-243.63064250934454
 10
-169.48078818997422
 20
-243.34496331795697
 10
-169.8921419891118
 20
-243.05857379641643
 10
-170.3030012076634
 20
-242.77147519190362
 10
-170.71336489798995
 20
-242.4836687501557
 10
-171.12323211444715
 20
-242.19515571545648
 10
-171.53260191336085
 20
-241.9059373306282
 10
-171.9414733530024
 20
-241.6160148370232
 10
-172.34984549356383
 20
-241.3253894745154
 10
-172.75771739713466
 20
-241.03406248149253
 10
-173.1650881276759
 20
-240.7420350948485
 10
-173.57195674586163
 20
-240.44930854284354
 10
-173.97832227948194
 20
-240.15588400424588
 10
-174.38418374361862
 20
-239.86176263687065
 10
-174.7895401548819
 20
-239.56694559747783
 10
-175.1943905314384
 20
-239.271434041829
 10
-175.59873389298855
 20
-238.97522912468412
 10
-176.00256926074846
 20
-238.67833199979535
 10
-176.405895657429
 20
-238.3807438199029
 10
-176.8087121072171
 20
-238.08246573672943
 10
-177.21101763575362
 20
-237.78349890097803
 10
-177.61281127011708
 20
-237.4838444623243
 10
-178.01409203880135
 20
-237.1835035694151
 10
-178.41485897169525
 20
-236.8824773698647
 10
-178.81511110006628
 20
-236.58076701024848
 10
-179.21484745653783
 20
-236.27837363610175
 10
-179.6140670750707
 20
-235.97529839191557
 10
-180.01276899094398
 20
-235.67154242113332
 10
-180.41095223661236
 20
-235.36710686076125
 10
-180.80861576845012
 20
-235.06199274602784
 10
-181.20575847482468
 20
-234.75620102222305
 10
-181.60237924200916
 20
-234.44973263132087
 10
-181.99847695654856
 20
-234.14258851509746
 10
-182.39405050524744
 20
-233.8347696151367
 10
-182.78909877515912
 20
-233.52627687283515
 10
-183.18362065357258
 20
-233.21711122940937
 10
-183.5776150280018
 20
-232.90727362590047
 10
-183.9710807861748
 20
-232.59676500317994
 10
-184.36401681602126
 20
-232.2855863019568
 10
-184.75642200566156
 20
-231.97373846278296
 10
-185.14829524339558
 20
-231.66122242605996
 10
-185.53963541727109
 20
-231.3480391315199
 10
-185.9304414158452
 20
-231.03418951920332
 10
-186.32071212837488
 20
-230.71967452970642
 10
-186.710446443767
 20
-230.4044951028934
 10
-187.09964325359994
 20
-230.0886521816456
 10
-187.4883015358326
 20
-229.77214681458156
 10
-187.8764203743716
 20
-229.4549801786523
 10
-188.2639988608707
 20
-229.13715345758249
 10
-188.6510360883655
 20
-228.8186678340391
 10
-189.03753115125323
 20
-228.4995244896295
 10
-189.42348314527476
 20
-228.17972460489696
 10
-189.80889116749498
 20
-227.8592693593181
 10
-190.19375431628268
 20
-227.5381599313009
 10
-190.5780716912923
 20
-227.2163974981812
 10
-190.961842393445
 20
-226.89398323622007
 10
-191.34506552490862
 20
-226.57091832060237
 10
-191.72774018907836
 20
-226.2472039254349
 10
-192.10986549055897
 20
-225.92284122374312
 10
-192.49144053514527
 20
-225.59783138747017
 10
-192.87246442980043
 20
-225.27217558747722
 10
-193.2529362826428
 20
-224.9458749935371
 10
-193.6328552016788
 20
-224.61893077289523
 10
-194.01222025657188
 20
-224.2913440460511
 10
-194.39103047122654
 20
-223.9631158788035
 10
-194.76928486753755
 20
-223.63424733334008
 10
-195.14698246806003
 20
-223.3047394713625
 10
-195.52412229599685
 20
-222.97459335408863
 10
-195.9007033751848
 20
-222.6438100422557
 10
-196.2767247300791
 20
-222.3123905961252
 10
-196.6521853857435
 20
-221.98033607548206
 10
-197.0270843678345
 20
-221.64764753964081
 10
-197.40142070258705
 20
-221.314326047449
 10
-197.77519341680443
 20
-220.98037265728843
 10
-198.1484015378429
 20
-220.64578842708025
 10
-198.52104409359887
 20
-220.3105744142882
 10
-198.89312011249672
 20
-219.9747316759222
 10
-199.26462862347407
 20
-219.63826126854283
 10
-199.6355686559705
 20
-219.30116424826466
 10
-200.00593923400123
 20
-218.96344166428236
 10
-200.37573928253622
 20
-218.6250944566882
 10
-200.7449676437243
 20
-218.2861234755487
 10
-201.1136231565992
 20
-217.9465295687049
 10
-201.48170465956645
 20
-217.6063135845283
 10
-201.84921099040025
 20
-217.26547637193266
 10
-202.21614098623849
 20
-216.92401878038845
 10
-202.58249348357995
 20
-216.5819416599358
 10
-202.9482673182783
 20
-216.23924586119892
 10
-203.31346132553912
 20
-215.8959322353999
 10
-203.67807433991425
 20
-215.55200163437397
 10
-204.04210519529954
 20
-215.20745491058182
 10
-204.4055527249316
 20
-214.8622929171241
 10
-204.76841576138276
 20
-214.51651650775602
 10
-205.1306931365581
 20
-214.17012653690156
 10
-205.49238368169176
 20
-213.82312385966824
 10
-205.85348622734475
 20
-213.4755093318603
 10
-206.21399961750674
 20
-213.12728382458423
 10
-206.57392283053923
 20
-212.77844834883493
 10
-206.93325491993508
 20
-212.42900399279097
 10
-207.29199494043573
 20
-212.078951845033
 10
-207.65014194702147
 20
-211.72829299351253
 10
-208.00769499469416
 20
-211.37702852535116
 10
-208.36465314027095
 20
-211.02515952868762
 10
-208.72101544017116
 20
-210.67268709043054
 10
-209.07678095120232
 20
-210.31961229708406
 10
-209.43194873054685
 20
-209.96593623475437
 10
-209.78651783575228
 20
-209.61165998915328
 10
-210.14048732471733
 20
-209.25678464560545
 10
-210.493856255681
 20
-208.90131128905307
 10
-210.8466236872108
 20
-208.54524100406206
 10
-211.19878867819014
 20
-208.1885748748284
 10
-211.55035028780725
 20
-207.83131398518395
 10
-211.90130757554306
 20
-207.47345941860294
 10
-212.25165960202284
 20
-207.11501225905022
 10
-212.6014054333433
 20
-206.755973595204
 10
-212.95054413787292
 20
-206.39634451729992
 10
-213.29907478433876
 20
-206.03612611526958
 10
-213.6469964418106
 20
-205.67531947874417
 10
-213.99430817969156
 20
-205.31392569705946
 10
-214.3410090677056
 20
-204.95194585926268
 10
-214.6870981758881
 20
-204.58938105411755
 10
-215.0325745745731
 20
-204.22623237011263
 10
-215.37743733438418
 20
-203.8625008954655
 10
-215.72168552622236
 20
-203.49818771813136
 10
-216.065318221257
 20
-203.13329392580727
 10
-216.4083344909134
 20
-202.76782060594172
 10
-216.75073340686424
 20
-202.4017688457383
 10
-217.09251404101664
 20
-202.03513973216616
 10
-217.43367546550502
 20
-201.66793435196308
 10
-217.77421675267638
 20
-201.300153791644
 10
-218.11413694579383
 20
-200.931799110501
 10
-218.45343498447184
 20
-200.56287127238616
 10
-218.79210978491926
 20
-200.19337122055097
 10
-219.13016026276685
 20
-199.8232998988186
 10
-219.4675853330629
 20
-199.4526582515989
 10
-219.80438391027175
 20
-199.0814472239008
 10
-220.14055490826885
 20
-198.70966776134807
 10
-220.47609724033921
 20
-198.33732081019147
 10
-220.81100981917243
 20
-197.9644073173258
 10
-221.14529155686245
 20
-197.59092823030073
 10
-221.47894136490106
 20
-197.2168844973396
 10
-221.8119581541808
 20
-196.84227706734777
 10
-222.14434083498693
 20
-196.46710688993295
 10
-222.47608831699853
 20
-196.09137491541622
 10
-222.8071995092853
 20
-195.71508209484747
 10
-223.1376733203053
 20
-195.3382293800201
 10
-223.46750865820962
 20
-194.9608177237539
 10
-223.7967044959773
 20
-194.58284813659756
 10
-224.1252599526205
 20
-194.20432175661105
 10
-224.45317416728795
 20
-193.8252397387443
 10
-224.7804462794817
 20
-193.44560323754004
 10
-225.10707542904325
 20
-193.06541340714224
 10
-225.4330607561432
 20
-192.6846714013015
 10
-225.75840140126945
 20
-192.30337837338226
 10
-226.08309650521528
 20
-191.9215354763706
 10
-226.40714520906977
 20
-191.53914386287875
 10
-226.73054665420506
 20
-191.1562046851541
 10
-227.05329998226705
 20
-190.77271909508474
 10
-227.37540433516142
 20
-190.38868824420896
 10
-227.69685885504745
 20
-190.00411328371837
 10
-228.01766268343536
 20
-189.6189953637328
 10
-228.33781496362678
 20
-189.23333563534356
 10
-228.65731483867876
 20
-188.8471352489327
 10
-228.97616145181314
 20
-188.46039535452843
 10
-229.2943539558033
 20
-188.0731171095323
 10
-229.6118915178159
 20
-187.68530168259952
 10
-229.9287733065323
 20
-187.2969502429876
 10
-230.24499849097162
 20
-186.90806395959925
 10
-230.5605662404796
 20
-186.51864400098995
 10
-230.87547572471908
 20
-186.12869153537275
 10
-231.18972611365777
 20
-185.73820773062764
 10
-231.50331657755797
 20
-185.347193754308
 10
-231.81624628696846
 20
-184.95565077364512
 10
-232.12851441271079
 20
-184.56357995555936
 10
-232.44012012587032
 20
-184.1709824666658
 10
-232.7510625977871
 20
-183.77785947328067
 10
-233.06134100004354
 20
-183.38421214143114
 10
-233.37095450445622
 20
-182.9900416368606
 10
-233.67990228306576
 20
-182.59534912503756
 10
-233.9881835081264
 20
-182.20013577116282
 10
-234.29579734853522
 20
-181.80440273741343
 10
-234.60274289720317
 20
-181.4081511267576
 10
-234.90901917374845
 20
-181.01138198582086
 10
-235.21462519439174
 20
-180.6140963594756
 10
-235.51955997489245
 20
-180.21629529314444
 10
-235.8238225305466
 20
-179.8179798328128
 10
-236.12741187618346
 20
-179.4191510250435
 10
-236.430327026164
 20
-179.0198099169895
 10
-236.73256699437778
 20
-178.61995755640814
 10
-237.03413079423987
 20
-178.21959499167636
 10
-237.33501743869073
 20
-177.81872327180147
 10
-237.63522594019156
 20
-177.417343446439
 10
-237.93475531072443
 20
-177.01545656590366
 10
-238.23360456178975
 20
-176.61306368118414
 10
-238.5317727044038
 20
-176.21016584395872
 10
-238.8292587490992
 20
-175.80676410660635
 10
-239.12606170592122
 20
-175.40285952222413
 10
-239.42218059510273
 20
-174.99845315244738
 10
-239.71761455628223
 20
-174.59354614702755
 10
-240.01236280445002
 20
-174.18813971063292
 10
-240.3064245559854
 20
-173.7822350484742
 10
-240.59979902748216
 20
-173.37583336545316
 10
-240.89248543573856
 20
-172.96893586617233
 10
-241.18448299774596
 20
-172.5615437549446
 10
-241.475790930681
 20
-172.15365823579998
 10
-241.76640845189442
 20
-171.7452805124957
 10
-242.0563347789037
 20
-171.33641178852207
 10
-242.345569129382
 20
-170.92705326711382
 10
-242.63411072114897
 20
-170.51720615125853
 10
-242.92195877216278
 20
-170.10687164370404
 10
-243.20911250050983
 20
-169.69605094696863
 10
-243.4955711243973
 20
-169.2847452633487
 10
-243.78133386214236
 20
-168.8729557949297
 10
-244.06639993216564
 20
-168.46068374359277
 10
-244.35076855900215
 20
-168.0479303151725
 10
-244.63443900899134
 20
-167.63469674390635
 10
-244.91741056640305
 20
-167.22098427572143
 10
-245.19968251592928
 20
-166.80679415613344
 10
-245.48125414260872
 20
-166.39212763021317
 10
-245.7621247313409
 20
-165.976985942267
 10
-246.04229356760342
 20
-165.5613703363434
 10
-246.32175993811794
 20
-165.14528205669131
 10
-246.60052312921192
 20
-164.72872234666445
 10
-246.878582427506
 20
-164.31169244921023
 10
-247.1559371199072
 20
-163.89419360687253
 10
-247.43258649359805
 20
-163.47622706180056
 10
-247.70852983602492
 20
-163.0577940557598
 10
-247.98376643489038
 20
-162.6388958301355
 10
-248.2582955781406
 20
-162.21953362594545
 10
-248.53211655395802
 20
-161.79970868384436
 10
-248.8052286507507
 20
-161.37942224413388
 10
-249.07763112898772
 20
-160.95867552856217
 10
-249.34932313361543
 20
-160.53746968409143
 10
-249.62030377960517
 20
-160.11580583897887
 10
-249.890572181539
 20
-159.69368512203553
 10
-250.16012745360752
 20
-159.27110866263928
 10
-250.42896870961013
 20
-158.84807759074639
 10
-250.69709506295075
 20
-158.42459303690882
 10
-250.96450562663819
 20
-158.00065613228486
 10
-251.23119951328349
 20
-157.5762680086552
 10
-251.49717583509994
 20
-157.1514297984342
 10
-251.76243370390017
 20
-156.7261426346869
 10
-252.02697223109672
 20
-156.30040765114035
 10
-252.29079052770038
 20
-155.87422598219868
 10
-252.55388770431892
 20
-155.4475987629575
 10
-252.81626287115685
 20
-155.02052712921815
 10
-253.07791513801595
 20
-154.5930122174989
 10
-253.33884361441267
 20
-154.16505516512555
 10
-253.59904745941023
 20
-153.73665714048397
 10
-253.8585259589558
 20
-153.3078193894057
 10
-254.11727841902476
 20
-152.87854316959775
 10
-254.37530414573027
 20
-152.44882973851813
 10
-254.63260244531577
 20
-152.01868035338498
 10
-254.88917262414589
 20
-151.58809627118688
 10
-255.14501398869834
 20
-151.157078748692
 10
-255.40012584555646
 20
-150.72562904245672
 10
-255.65450750140062
 20
-150.2937484088366
 10
-255.90815826300087
 20
-149.8614381039949
 10
-256.1610774372077
 20
-149.42869938391513
 10
-256.4132643309462
 20
-148.99553350440783
 10
-256.66471825120766
 20
-148.56194172112126
 10
-256.9154385050411
 20
-148.12792528955427
 10
-257.16542439954736
 20
-147.69348546506313
 10
-257.4146752418721
 20
-147.25862350287113
 10
-257.6631903396037
 20
-146.82334065831608
 10
-257.9109690324831
 20
-146.38763820487554
 10
-258.15801071521935
 20
-145.95151744684074
 10
-258.4043147882052
 20
-145.5149796910325
 10
-258.64988065216806
 20
-145.0780262437533
 10
-258.8947077081594
 20
-144.6406584107972
 10
-259.1387953575437
 20
-144.2028774974572
 10
-259.38214300198933
 20
-143.76468480853296
 10
-259.62475004345765
 20
-143.32608164834082
 10
-259.86661588419247
 20
-142.88706932072134
 10
-260.10773992671125
 20
-142.44764912904645
 10
-260.3481215737946
 20
-142.00782237622983
 10
-260.58776022847644
 20
-141.56759036473466
 10
-260.8266552940348
 20
-141.12695439658168
 10
-261.06480617398114
 20
-140.6859157733605
 10
-261.30221227079784
 20
-140.24447579556187
 10
-261.53887298968925
 20
-139.80263576461144
 10
-261.7747877318394
 20
-139.36039697926813
 10
-262.00995581799253
 20
-138.91776069509538
 10
-262.24437648076656
 20
-138.474728121058
 10
-262.4780489480274
 20
-138.0313004642522
 10
-262.71097244734136
 20
-137.58747893229955
 10
-262.9431462059754
 20
-137.14326473335788
 10
-263.1745694508941
 20
-136.6986590761375
 10
-263.40524140875965
 20
-136.25366316991304
 10
-263.63516130593086
 20
-135.80827822453742
 10
-263.8643283684626
 20
-135.3625054504548
 10
-264.0927418221051
 20
-134.91634605871442
 10
-264.32040089230316
 20
-134.46980126098472
 10
-264.54730480419573
 20
-134.02287226956676
 10
-264.77345278261686
 20
-133.57556029740684
 10
-264.9988440520935
 20
-133.127866558112
 10
-265.22347783684774
 20
-132.6797922659619
 10
-265.4473533607953
 20
-132.2313386359241
 10
-265.67046985462827
 20
-131.78250688718092
 10
-265.8928266428654
 20
-131.33329828616385
 10
-266.11442311679633
 20
-130.8837141324743
 10
-266.33525866918876
 20
-130.43375572627411
 10
-266.55533269286065
 20
-129.9834243675857
 10
-266.7746445806748
 20
-129.53272135630093
 10
-266.9931937255294
 20
-129.08164799219773
 10
-267.21097952035433
 20
-128.63020557494522
 10
-267.42800135810467
 20
-128.17839540411612
 10
-267.64425863175296
 20
-127.72621877919923
 10
-267.8597507342853
 20
-127.27367699960841
 10
-268.07447705869345
 20
-126.82077136469519
 10
-268.28843699797113
 20
-126.3675031737578
 10
-268.5016299451065
 20
-125.91387372605449
 10
-268.71405529307793
 20
-125.45988432081339
 10
-268.92571243484815
 20
-125.00553625724308
 10
-269.1366007633586
 20
-124.55083083454572
 10
-269.3467196817881
 20
-124.09576935665999
 10
-269.5560686755915
 20
-123.64035316530246
 10
-269.7646472700051
 20
-123.18458361988658
 10
-269.97245499083874
 20
-122.72846207933182
 10
-270.1794913642127
 20
-122.27198990196075
 10
-270.3857559165505
 20
-121.81516844550075
 10
-270.59124817456546
 20
-121.3579990670999
 10
-270.7959676652527
 20
-120.90048312333185
 10
-270.99991391587935
 20
-120.44262197020484
 10
-271.2030864539731
 20
-119.9844169631736
 10
-271.4054848073151
 20
-119.52586945714366
 10
-271.60710850392763
 20
-119.06698080648587
 10
-271.80795707206653
 20
-118.6077523650417
 10
-272.0080300402113
 20
-118.14818548613411
 10
-272.2073269370553
 20
-117.68828152257731
 10
-272.4058472914973
 20
-117.22804182668598
 10
-272.6035906326324
 20
-116.76746775028352
 10
-272.80055646372966
 20
-116.30656063361036
 10
-272.99674416420163
 20
-115.84532176383732
 10
-273.19215307641355
 20
-115.38375241279735
 10
-273.38678254249425
 20
-114.92185385281951
 10
-273.58063190434194
 20
-114.45962735674502
 10
-273.77370050362345
 20
-113.99707419794154
 10
-273.9659876809832
 20
-113.53419564999024
 10
-274.15749277788734
 20
-113.0709929874622
 10
-274.3482151358335
 20
-112.60746748560281
 10
-274.5381540955622
 20
-112.14362042001677
 10
-274.7273089975824
 20
-111.67945306690156
 10
-274.9156791821727
 20
-111.21496670305979
 10
-275.1032639893804
 20
-110.75016260591522
 10
-275.290062759024
 20
-110.28504205352333
 10
-275.47607483069214
 20
-109.81960632458703
 10
-275.6612995437464
 20
-109.35385669846684
 10
-275.84573623735105
 20
-108.88779445521166
 10
-276.029384283738
 20
-108.4214208886518
 10
-276.2122431516778
 20
-107.95473733104059
 10
-276.3943123273786
 20
-107.48774512148096
 10
-276.57559129704657
 20
-107.02044559902681
 10
-276.75607954688
 20
-106.55284010269291
 10
-276.9357765630653
 20
-106.08492997146782
 10
-277.11468183177215
 20
-105.61671654432459
 10
-277.29279483914905
 20
-105.14820116023272
 10
-277.47011507131896
 20
-104.67938515817036
 10
-277.64664201437466
 20
-104.21026987713574
 10
-277.82237515437527
 20
-103.74085665615847
 10
-277.99731397734246
 20
-103.27114683431037
 10
-278.1714579692544
 20
-102.80114175072256
 10
-278.3448066160457
 20
-102.33084274458824
 10
-278.51735940360066
 20
-101.86025115518213
 10
-278.68911581775075
 20
-101.3893683218707
 10
-278.8600753447177
 20
-100.91819558428416
 10
-279.0302375235771
 20
-100.44673430124409
 10
-279.19960199570795
 20
-99.9749858681563
 10
-279.3681684144336
 20
-99.50295168397145
 10
-279.5359364333604
 20
-99.03063314695744
 10
-279.70290570636706
 20
-98.55803165471127
 10
-279.8690758875952
 20
-98.0851486041666
 10
-280.03444663143955
 20
-97.61198539160574
 10
-280.1990175925383
 20
-97.13854341266622
 10
-280.3627884257641
 20
-96.6648240623514
 10
-280.525758786214
 20
-96.19082873504155
 10
-280.6879283292005
 20
-95.71655882450227
 10
-280.849296710242
 20
-95.24201572389619
 10
-281.0098635850546
 20
-94.76720082579044
 10
-281.16962860954226
 20
-94.29211552216819
 10
-281.32859143978857
 20
-93.81676120443858
 10
-281.486751732048
 20
-93.34113926344641
 10
-281.64410914042486
 20
-92.86525108872064
 10
-281.800663237657
 20
-92.38909804247753
 10
-281.95641349515904
 20
-91.91268145367788
 10
-282.11135937786014
 20
-91.43600264964381
 10
-282.2655003505282
 20
-90.95906295815959
 10
-282.41883587776874
 20
-90.48186370749015
 10
-282.57136542402594
 20
-90.00440622638979
 10
-282.72308845358253
 20
-89.52669184411889
 10
-282.8740044305603
 20
-89.04872189045571
 10
-283.0241128189213
 20
-88.57049769570945
 10
-283.17341308246813
 20
-88.09202059073377
 10
-283.3219046848456
 20
-87.61329190693777
 10
-283.46958708954156
 20
-87.13431297630117
 10
-283.61645975988733
 20
-86.65508513138798
 10
-283.7625221590599
 20
-86.17560970535904
 10
-283.90777374981906
 20
-85.69588803190396
 10
-284.0522139941991
 20
-85.21592144516501
 10
-284.19584235994694
 20
-84.73571128167595
 10
-284.33865837595755
 20
-84.25525889680013
 10
-284.4806616210294
 20
-83.77456566099595
 10
-284.62185167532107
 20
-83.29363294519757
 10
-284.762228118944
 20
-82.81246212040907
 10
-284.9017905319611
 20
-82.33105455771313
 10
-285.04053849438344
 20
-81.84941162828548
 10
-285.17847158616746
 20
-81.36753470340699
 10
-285.31558938721247
 20
-80.88542515447483
 10
-285.451891477359
 20
-80.40308435301644
 10
-285.5873774363858
 20
-79.92051367070032
 10
-285.7220468440081
 20
-79.4377144793493
 10
-285.85589927987587
 20
-78.9546881509516
 10
-285.9889343235716
 20
-78.47143605767526
 10
-286.12115155460833
 20
-77.98795957187933
 10
-286.25255055242883
 20
-77.50426006612683
 10
-286.38313089640343
 20
-77.02033891319674
 10
-286.5128921790821
 20
-76.53619748964027
 10
-286.64183411669467
 20
-76.05183720510794
 10
-286.76995649307565
 20
-75.5672594866771
 10
-286.89725909298136
 20
-75.08246576084262
 10
-287.0237417014007
 20
-74.59745745334678
 10
-287.1494041035464
 20
-74.11223598918825
 10
-287.27424608484534
 20
-73.62680279263166
 10
-287.3982674309294
 20
-73.14115928721823
 10
-287.52146792762625
 20
-72.65530689577785
 10
-287.64384736094996
 20
-72.16924704043716
 10
-287.7654055170925
 20
-71.68298114263095
 10
-287.8861421824151
 20
-71.19651062311316
 10
-288.0060571434385
 20
-70.70983690196654
 10
-288.1251501868358
 20
-70.22296139861413
 10
-288.2434210994231
 20
-69.73588553182826
 10
-288.3608696681507
 20
-69.2486107197459
 10
-288.4774956800966
 20
-68.76113837987188
 10
-288.59329889924646
 20
-68.2734699235977
 10
-288.7082789611641
 20
-67.78560673154449
 10
-288.8224354571206
 20
-67.29755017414692
 10
-288.93576797824176
 20
-66.80930162224709
 10
-289.04827611555
 20
-66.32086244711552
 10
-289.1599594599654
 20
-65.8322340204648
 10
-289.2708176023067
 20
-65.34341771446186
 10
-289.38085013329254
 20
-64.85441490174055
 10
-289.49005664354246
 20
-64.36522695541458
 10
-289.5984367235785
 20
-63.87585524909179
 10
-289.7059899638265
 20
-63.3863011568853
 10
-289.812715954618
 20
-62.896566053427634
 10
-289.9186142861923
 20
-62.4066513138814
 10
-290.0236845486977
 20
-61.91655831395509
 10
-290.12792633219414
 20
-61.42628842991344
 10
-290.2313392266549
 20
-60.9358430385924
 10
-290.33392282197286
 20
-60.44522351741028
 10
-290.43567672494146
 20
-59.95443124789649
 10
-290.53660059868747
 20
-59.463467623696346
 10
-290.6366941179666
 20
-58.97233404107976
 10
-290.73595695746474
 20
-58.48103189650337
 10
-290.8343887917973
 20
-57.98956258662207
 10
-290.93198929550863
 20
-57.49792750830171
 10
-291.028758143071
 20
-57.006128058632484
 10
-291.1246950077655
 20
-56.5141656347217
 10
-291.2197995647543
 20
-56.02204163431236
 10
-291.31407148857596
 20
-55.52975745529675
 10
-291.4075104534126
 20
-55.037314495786795
 10
-291.5001161333738
 20
-54.544714154181214
 10
-291.591888202496
 20
-54.051957829178676
 10
-291.68282633474416
 20
-53.55904691978997
 10
-291.77293020401066
 20
-53.065982825351675
 10
-291.86219948411696
 20
-52.57276694553914
 10
-291.9506338491749
 20
-52.07940068044213
 10
-292.0382330439897
 20
-51.585885443048454
 10
-292.12499696858185
 20
-51.092222673655606
 10
-292.2109255437377
 20
-50.59841381540121
 10
-292.296018690428
 20
-50.10446031057706
 10
-292.3802763297997
 20
-49.61036360063884
 10
-292.4636983831664
 20
-49.11612512621617
 10
-292.5462847719988
 20
-48.62174632712697
 10
-292.62803541791664
 20
-48.12722864238484
 10
-292.7089502426796
 20
-47.63257351021048
 10
-292.7890291681781
 20
-47.13778236804591
 10
-292.8682721164259
 20
-46.64285665256067
 10
-292.94667900955017
 20
-46.1477977996691
 10
-293.02424976978455
 20
-45.6526072445366
 10
-293.10098431946005
 20
-45.15728642159254
 10
-293.1768825809975
 20
-44.66183676454259
 10
-293.2519444768996
 20
-44.166259706377964
 10
-293.32616992806663
 20
-43.67055667914041
 10
-293.39955877575073
 20
-43.174729102412336
 10
-293.4721107483227
 20
-42.678778378979274
 10
-293.54382556553634
 20
-42.182705910705565
 10
-293.61470294709045
 20
-41.686513099835054
 10
-293.6847426126305
 20
-41.190201349001434
 10
-293.75394428174997
 20
-40.6937720612431
 10
-293.8223076739922
 20
-40.197226640015444
 10
-293.88983250885235
 20
-39.70056648920182
 10
-293.95651850577934
 20
-39.203793013127395
 10
-294.022365384178
 20
-38.7069076165721
 10
-294.0873728634109
 20
-38.20991170478369
 10
-294.1515406628016
 20
-37.712806683486896
 10
-294.2148685016368
 20
-37.2155939588995
 10
-294.2773560991683
 20
-36.71827493774305
 10
-294.339003174617
 20
-36.220851027256515
 10
-294.3998094471746
 20
-35.72332363520818
 10
-294.4597746374323
 20
-35.22569417007893
 10
-294.5188984933967
 20
-34.72796404415269
 10
-294.5771807877954
 20
-34.23013467303218
 10
-294.63462129417496
 20
-33.73220747272076
 10
-294.69121978601123
 20
-33.23418385952951
 10
-294.7469760367112
 20
-32.736065250086206
 10
-294.8018898196136
 20
-32.237853061350684
 10
-294.85596090799123
 20
-31.73954871062793
 10
-294.9091890750519
 20
-31.24115361557828
 10
-294.96157409394067
 20
-30.742669194232544
 10
-295.01311573774115
 20
-30.244096865004064
 10
-295.06381377947827
 20
-29.74543804670035
 10
-295.1136679921195
 20
-29.246694158538872
 10
-295.1626781485778
 20
-28.74786662015551
 10
-295.21084402171397
 20
-28.248956851620513
 10
-295.25816538433855
 20
-27.74996627345106
 10
-295.30464200864213
 20
-27.250896306569278
 10
-295.35027368199866
 20
-26.751748373756413
 10
-295.395060356354
 20
-26.252523912948494
 10
-295.4390020837361
 20
-25.75322437050205
 10
-295.4820989177783
 20
-25.253851191994148
 10
-295.5243509122245
 20
-24.754405822103532
 10
-295.5657581209223
 20
-24.254889704612964
 10
-295.60632059781227
 20
-23.75530428243158
 10
-295.64603839692165
 20
-23.255650997597968
 10
-295.6849115723542
 20
-22.755931291296427
 10
-295.7229401782837
 20
-22.256146603869265
 10
-295.7601242689445
 20
-21.75629837482372
 10
-295.79646389862467
 20
-21.25638804284967
 10
-295.8319591216574
 20
-20.756417045828076
 10
-295.8666099924139
 20
-20.25638682084275
 10
-295.9004165652956
 20
-19.756298804196522
 10
-295.9333788947267
 20
-19.256154431418018
 10
-295.9654970351472
 20
-18.755955137275848
 10
-295.9967710210647
 20
-18.25570235455571
 10
-296.0272007583051
 20
-17.75539750758926
 10
-296.05678610158026
 20
-17.25504201770173
 10
-296.0855269054588
 20
-16.75463730651211
 10
-296.1134230244985
 20
-16.25418479595727
 10
-296.1404743132474
 20
-15.753685908300392
 10
-296.1666806262467
 20
-15.253142066146806
 10
-296.1920418180327
 20
-14.752554692455046
 10
-296.2165577431391
 20
-14.251925210548778
 10
-296.24022825609967
 20
-13.751255044129438
 10
-296.2630532114511
 20
-13.250545617287617
 10
-296.28503246373526
 20
-12.749798354516559
 10
-296.3061658675025
 20
-12.249014680724386
 10
-296.32645327731444
 20
-11.74819602124503
 10
-296.34589454774743
 20
-11.247343801851853
 10
-296.3644895333954
 20
-10.746459448769276
 10
-296.38223808887363
 20
-10.245544388684786
 10
-296.39914007092307
 20
-9.744600048831055
 10
-296.41519534427846
 20
-9.243627857173372
 10
-296.4304037755239
 20
-8.742629242181337
 10
-296.4447652311874
 20
-8.241605632774343
 10
-296.4582795777441
 20
-7.740558458332546
 10
-296.4709466816201
 20
-7.239489148710157
 10
-296.48276640919585
 20
-6.738399134249501
 10
-296.4937386268101
 20
-6.237289845790829
 10
-296.50386320076433
 20
-5.736162714688068
 10
-296.51313999732605
 20
-5.2350191728199125
 10
-296.5215688827337
 20
-4.733860652602445
 10
-296.5291497232007
 20
-4.232688587001666
 10
-296.5358823849202
 20
-3.7315044095464933
 10
-296.54176673406926
 20
-3.2303095543406477
 10
-296.54680263681405
 20
-2.7291054560759975
 10
-296.55098995931445
 20
-2.2278935500444654
 10
-296.55432856795534
 20
-1.7266752721523084
 10
-296.55681841364685
 20
-1.2254520593192164
 10
-296.55845965824324
 20
-0.7242253493764254
 10
-296.55925249600335
 20
-0.22299657937131867
 10
-296.559197121225
 20
0.27823281465384003
 10
-296.5582937282366
 20
0.7794613976483703
 10
-296.55654251138884
 20
1.2806877355412383
 10
-296.55394366504635
 20
1.7819103952274897
 10
-296.55049738357974
 20
2.283127944557434
 10
-296.54620385993275
 20
2.784338952310386
 10
-296.5410632898874
 20
3.285541988217504
 10
-296.5350758677869
 20
3.7867356229177247
 10
-296.5282417879471
 20
4.287918427953568
 10
-296.5205612446517
 20
4.789088975760364
 10
-296.51203443214445
 20
5.2902458396518615
 10
-296.5026615446219
 20
5.791387593809274
 10
-296.492442776227
 20
6.292512813265537
 10
-296.4813783199257
 20
6.793620073870393
 10
-296.4694682934458
 20
7.2947079504866625
 10
-296.456712692959
 20
7.795775015330492
 10
-296.4431115035861
 20
8.29681984012589
 10
-296.42866471046614
 20
8.797840996332551
 10
-296.4133722987585
 20
9.298837055133314
 10
-296.3972342536459
 20
9.799806587421399
 10
-296.3802505603374
 20
10.300748163787903
 10
-296.36242120407115
 20
10.801660354512459
 10
-296.34374617011747
 20
11.302541729548821
 10
-296.32422544378255
 20
11.803390858513275
 10
-296.30385901041103
 20
12.304206310673756
 10
-296.2826468553903
 20
12.804986654936103
 10
-296.2605889641534
 20
13.305730459833626
 10
-296.2376853221834
 20
13.806436293515112
 10
-296.2139359150167
 20
14.307102723730807
 10
-296.1893407282474
 20
14.807728317823983
 10
-296.1638997471571
 20
15.308311642698785
 10
-296.1376129482163
 20
15.808851264354816
 10
-296.1104802988838
 20
16.30934574781226
 10
-296.08250176619515
 20
16.809793657512383
 10
-296.0536773171721
 20
17.31019355732977
 10
-296.0240069188276
 20
17.81054401055651
 10
-295.9934905381719
 20
18.31084357989151
 10
-295.9621281422181
 20
18.811090827428185
 10
-295.92991969798805
 20
19.31128431464185
 10
-295.8968651725184
 20
19.811422602378194
 10
-295.862964532867
 20
20.31150425083786
 10
-295.8282177461189
 20
20.811527819569665
 10
-295.7926247793928
 20
21.31149186745525
 10
-295.75618559984787
 20
21.811394952695434
 10
-295.71890017469013
 20
22.311235632803
 10
-295.6807684711791
 20
22.811012464586838
 10
-295.6417904566355
 20
23.3107240041397
 10
-295.6019661139431
 20
23.810368808073505
 10
-295.5612956265791
 20
24.309945448695345
 10
-295.51977931780004
 20
24.809452510240124
 10
-295.47741751366186
 20
25.30888857822897
 10
-295.43421054016545
 20
25.808252239229798
 10
-295.39015872324825
 20
26.307542080847604
 10
-295.3452623887769
 20
26.806756691707573
 10
-295.29952186253996
 20
27.305894661445
 10
-295.25293747024
 20
27.804954580689962
 10
-295.20550953748705
 20
28.303935041054
 10
-295.1572383897907
 20
28.802834635118984
 10
-295.10812435255394
 20
29.301651956422035
 10
-295.0581677510662
 20
29.800385599442333
 10
-295.00736891049604
 20
30.299034159588263
 10
-294.9557281558855
 20
30.797596233184894
 10
-294.90324581214287
 20
31.296070417458438
 10
-294.8499222040373
 20
31.794455310524775
 10
-294.7957576384475
 20
32.29274950943539
 10
-294.740752295603
 20
32.79095159803712
 10
-294.684906297636
 20
33.28906015380916
 10
-294.62821976585354
 20
33.787073753955035
 10
-294.57069282160234
 20
34.284990975482536
 10
-294.5123255862722
 20
34.782810395193316
 10
-294.4531181812989
 20
35.280530589670356
 10
-294.39307072816786
 20
35.77815013526595
 10
-294.33218334841763
 20
36.27566760808871
 10
-294.2704561636426
 20
36.773081583997744
 10
-294.2078892954981
 20
37.27039063858189
 10
-294.144482865703
 20
37.767593347154616
 10
-294.0802369960442
 20
38.264688284740885
 10
-294.01515180838066
 20
38.76167402606488
 10
-293.9492274246473
 20
39.258549145539035
 10
-293.8824639668596
 20
39.755312217251564
 10
-293.81486155711775
 20
40.2519618149557
 10
-293.74642030826976
 20
40.748496510766834
 10
-293.67714029247765
 20
41.24491487070087
 10
-293.60702157083074
 20
41.741215458573
 10
-293.53606420446306
 20
42.23739683749105
 10
-293.4642682545607
 20
42.73345756984532
 10
-293.3916337823706
 20
43.22939621729518
 10
-293.31816084920746
 20
43.72521134075973
 10
-293.24384951646255
 20
44.22090150040417
 10
-293.168699845612
 20
44.71646525562788
 10
-293.09271189822454
 20
45.211901165055046
 10
-293.0158857359705
 20
45.70720778652151
 10
-292.93822142063004
 20
46.202383677064745
 10
-292.85971901410204
 20
46.69742739291087
 10
-292.78037857841315
 20
47.19233748946414
 10
-292.70020017572625
 20
47.68711252129632
 10
-292.61918386835004
 20
48.18175104213502
 10
-292.53732971884904
 20
48.67625160486752
 10
-292.4546378819915
 20
49.17061277694876
 10
-292.3711087746257
 20
49.66483316968831
 10
-292.2867428598009
 20
50.15891140319477
 10
-292.201540600411
 20
50.652846098711855
 10
-292.11550245918767
 20
51.14663587860505
 10
-292.0286288986924
 20
51.64027936634694
 10
-291.94092038130975
 20
52.13377518650383
 10
-291.85237736924057
 20
52.62712196472195
 10
-291.7630003244943
 20
53.12031832771326
 10
-291.6727897088835
 20
53.61336290323962
 10
-291.581745984016
 20
54.10625432010218
 10
-291.4898696112891
 20
54.59899120812541
 10
-291.3971610518834
 20
55.091572198142025
 10
-291.3036207667562
 20
55.58399592198174
 10
-291.2092492166358
 20
56.07626101245376
 10
-291.11404686201496
 20
56.56836610333655
 10
-291.018014162471
 20
57.06030982922797
 10
-290.9211515084453
 20
57.55209081207028
 10
-290.8234591628528
 20
58.043707649088645
 10
-290.72493737485735
 20
58.53515893468404
 10
-290.6255863936738
 20
59.02644326311087
 10
-290.5254064685728
 20
59.517559228461344
 10
-290.4243978488835
 20
60.00850542465849
 10
-290.32256078399826
 20
60.49928044543978
 10
-290.2198955233766
 20
60.98988288434907
 10
-290.11640231627723
 20
61.480311334666546
 10
-290.0120814114584
 20
61.9705643893305
 10
-289.9069330597261
 20
62.46064064146863
 10
-289.8009575108506
 20
62.950538683732475
 10
-289.69415501469115
 20
63.440257108522644
 10
-289.5865258212013
 20
63.92979450797668
 10
-289.47807018043295
 20
64.4191494739588
 10
-289.36878834254156
 20
64.90832059804912
 10
-289.2586805565188
 20
65.3973064712423
 10
-289.1477470335453
 20
65.88610567560501
 10
-289.03598794146376
 20
66.37471678274342
 10
-288.9234034458481
 20
66.86313836294336
 10
-288.8099937123979
 20
67.35136898569593
 10
-288.6957589069483
 20
67.83940721968479
 10
-288.58069919547967
 20
68.32725163277595
 10
-288.4648147441275
 20
68.81490079200557
 10
-288.348105719192
 20
69.30235326357219
 10
-288.2305722871478
 20
69.7896076128242
 10
-288.1122146146551
 20
70.27666240424864
 10
-287.9930328685686
 20
70.76351620146244
 10
-287.873027215949
 20
71.25016756720095
 10
-287.7521978240726
 20
71.73661506330744
 10
-287.6305448604427
 20
72.22285725072278
 10
-287.5080684927992
 20
72.70889268947732
 10
-287.38476888913107
 20
73.19471993867616
 10
-287.26064623209555
 20
73.68033756018563
 10
-287.13570092727014
 20
74.16574417235967
 10
-287.0099335553055
 20
74.65093843914553
 10
-286.88334470132696
 20
75.13591902685381
 10
-286.75593495019615
 20
75.6206846029358
 10
-286.62770488650443
 20
76.10523383597094
 10
-286.4986550945662
 20
76.58956539565017
 10
-286.36878615841334
 20
77.07367795276349
 10
-286.23809866178914
 20
77.55757017918344
 10
-286.1065931881426
 20
78.04124074785042
 10
-285.9742703206219
 20
78.52468833276073
 10
-285.84113064206997
 20
79.00791160894836
 10
-285.7071747350183
 20
79.49090925247282
 10
-285.5724031816822
 20
79.97367994040307
 10
-285.43681656395506
 20
80.4562223508048
 10
-285.30041546340425
 20
80.93853516272206
 10
-285.1632004612652
 20
81.42061705616736
 10
-285.02517212496184
 20
81.90246670823531
 10
-284.8863309017354
 20
82.38408276232077
 10
-284.746677175912
 20
82.86546384387968
 10
-284.60621133130775
 20
83.34660857815035
 10
-284.46493375178716
 20
83.82751559030521
 10
-284.3228448212677
 20
84.30818350543652
 10
-284.17994492372424
 20
84.78861094854587
 10
-284.0362344431932
 20
85.2687965445323
 10
-283.89171376377647
 20
85.7487389181831
 10
-283.7463832696466
 20
86.22843669415951
 10
-283.6002433450512
 20
86.70788849698882
 10
-283.4532943743172
 20
87.18709295105157
 10
-283.30553674185643
 20
87.66604868057073
 10
-283.15697083217066
 20
88.14475430959926
 10
-283.0075970298557
 20
88.6232084620125
 10
-282.8574157196075
 20
89.10140976149569
 10
-282.70642728622755
 20
89.57935683153009
 10
-282.55463209792686
 20
90.05704829007274
 10
-282.402030438334
 20
90.53448272768604
 10
-282.2486225669902
 20
91.01165872636166
 10
-282.0944087431661
 20
91.48857486701596
 10
-281.9393892260808
 20
91.96522972954178
 10
-281.783564275203
 20
92.44162189289244
 10
-281.626934150263
 20
92.91774993507339
 10
-281.46949911126535
 20
93.39361243312898
 10
-281.3112594184994
 20
93.86920796313753
 10
-281.1522153325528
 20
94.3445351001987
 10
-280.99236711432354
 20
94.81959241842436
 10
-280.8317150250311
 20
95.29437849093182
 10
-280.67025932623085
 20
95.76889188983104
 10
-280.50800027982484
 20
96.24313118621957
 10
-280.34493814807615
 20
96.7170949501693
 10
-280.1810731936199
 20
97.19078175072171
 10
-280.0164056795027
 20
97.66419015588451
 10
-279.85093596105
 20
98.13731876479144
 10
-279.6846646928925
 20
98.61016628113398
 10
-279.5175925901376
 20
99.08273143097323
 10
-279.3497203675051
 20
99.55501294158361
 10
-279.1810487393207
 20
100.0270095414399
 10
-279.01157841951044
 20
100.49871996020096
 10
-278.8413101215952
 20
100.970142928694
 10
-278.6702445586846
 20
101.44127717890012
 10
-278.4983824434719
 20
101.91212144393887
 10
-278.32572448822924
 20
102.38267445805052
 10
-278.1522714048022
 20
102.85293495658313
 10
-277.9780239046048
 20
103.32290167597581
 10
-277.8029826986137
 20
103.79257335374628
 10
-277.6271484973659
 20
104.26194872847005
 10
-277.4505220109518
 20
104.73102653977008
 10
-277.2731039490125
 20
105.19980552829873
 10
-277.0948950203721
 20
105.66828443558457
 10
-276.91589587193204
 20
106.13646198062985
 10
-276.73610702004004
 20
106.60433683308622
 10
-276.55552896444624
 20
107.07190765623668
 10
-276.3741622049538
 20
107.5391731133084
 10
-276.1920072414235
 20
108.00613186746202
 10
-276.00906457378056
 20
108.47278258177825
 10
-275.82533470201787
 20
108.93912391924961
 10
-275.6408181262018
 20
109.40515454276999
 10
-275.4555153464779
 20
109.87087311512131
 10
-275.26942686307694
 20
110.33627829896385
 10
-275.08255317631847
 20
110.80136875682774
 10
-274.89489478661943
 20
111.26614315109832
 10
-274.7064521944976
 20
111.73060014400872
 10
-274.51722590057864
 20
112.19473839762867
 10
-274.3272164056011
 20
112.6585565738547
 10
-274.136424210425
 20
113.12205333439644
 10
-273.9448498146748
 20
113.58522734020767
 10
-273.7524936657147
 20
114.04807723023788
 10
-273.55935614333134
 20
114.51060161463913
 10
-273.36543762310737
 20
114.97279910079139
 10
-273.17073848094185
 20
115.43466829515899
 10
-272.9752590930642
 20
115.89620780327706
 10
-272.77899983604635
 20
116.35741622974602
 10
-272.58196108681426
 20
116.81829217822398
 10
-272.3841432226631
 20
117.27883425141461
 10
-272.1855466212677
 20
117.7390410510637
 10
-271.9861716601781
 20
118.1989111777191
 10
-271.78601871760117
 20
118.65844323105969
 10
-271.5850881732255
 20
119.11763581024101
 10
-271.38338040638257
 20
119.57648751308386
 10
-271.18089579685045
 20
120.03499693640846
 10
-270.9776347248691
 20
120.49316267602632
 10
-270.7735975711528
 20
120.9509833267324
 10
-270.5687847286281
 20
121.40845748755578
 10
-270.3631968097772
 20
121.86558385513493
 10
-270.1568346212419
 20
122.32236121391098
 10
-269.949698975933
 20
122.77878835248055
 10
-269.74179068628297
 20
123.23486406056968
 10
-269.53311056424377
 20
123.69058712901266
 10
-269.32365942127944
 20
124.14595634974391
 10
-269.1134380683648
 20
124.60097051577671
 10
-268.9024473159822
 20
125.05562842118597
 10
-268.69068797411495
 20
125.50992886109948
 10
-268.4781608522465
 20
125.9638706316757
 10
-268.26486675935445
 20
126.4174525300951
 10
-268.0508065039109
 20
126.87067335453543
 10
-267.83598089387715
 20
127.32353190416173
 10
-267.62039073670076
 20
127.77602697911114
 10
-267.4040368393118
 20
128.22815738047814
 10
-267.18692000812365
 20
128.67992191029296
 10
-266.9690410395206
 20
129.13131936691877
 10
-266.7504006293955
 20
129.5823485010893
 10
-266.5309994136065
 20
130.0330080347972
 10
-266.3108380272057
 20
130.48329668971795
 10
-266.08991710525464
 20
130.933213187592
 10
-265.8682372828318
 20
131.38275625020836
 10
-265.6457991950363
 20
131.83192459939698
 10
-265.4226034769911
 20
132.28071695702113
 10
-265.19865076385116
 20
132.7291320449619
 10
-264.9739416908072
 20
133.1771685851086
 10
-264.7484768930916
 20
133.62482529934903
 10
-264.5222570059834
 20
134.0721009095599
 10
-264.29528266481435
 20
134.51899413759472
 10
-264.067554504976
 20
134.96550370527092
 10
-263.839073161922
 20
135.4116283343669
 10
-263.60983927117974
 20
135.85736674660023
 10
-263.3798534683495
 20
136.30271766363123
 10
-263.1491163692473
 20
136.7476797967267
 10
-262.91762847527235
 20
137.19225179731
 10
-262.68539024722327
 20
137.63643229458665
 10
-262.4524021463109
 20
138.08021991668642
 10
-262.21866463422344
 20
138.523613290686
 10
-261.98417817314186
 20
138.96661104260096
 10
-261.748943225756
 20
139.40921179737603
 10
-261.5129602552773
 20
139.85141417888272
 10
-261.27622972545464
 20
140.29321680991126
 10
-261.0387521005908
 20
140.7346183121608
 10
-260.80052784555454
 20
141.17561730623999
 10
-260.5615574257993
 20
141.6162124116531
 10
-260.3218413073764
 20
142.0564022467986
 10
-260.0813799569515
 20
142.49618542896113
 10
-259.84017384181846
 20
142.93556057430848
 10
-259.59822342991697
 20
143.37452629788223
 10
-259.35552918984854
 20
143.81308121359442
 10
-259.1120916744264
 20
144.2512239806747
 10
-258.86791174845985
 20
144.6889534314258
 10
-258.62299034771496
 20
145.12626843893722
 10
-258.37732840980004
 20
145.56316787889335
 10
-258.1309268704582
 20
145.9996506274886
 10
-257.8837866647871
 20
146.43571556208767
 10
-257.63590872723944
 20
146.87136156121875
 10
-257.3872939916218
 20
147.30658750455194
 10
-257.1379433910894
 20
147.7413922728864
 10
-256.8878578581453
 20
148.1757747481301
 10
-256.63703832463557
 20
148.6097338132855
 10
-256.3854857217474
 20
149.04326835243262
 10
-256.1332009800044
 20
149.47637725071502
 10
-255.8801850292667
 20
149.90905939431923
 10
-255.6264387987273
 20
150.3413136704601
 10
-255.37196321691033
 20
150.77313896736362
 10
-255.11675921150845
 20
151.2045341741592
 10
-254.86082765778954
 20
151.63549815019437
 10
-254.6041693046802
 20
152.06602968052468
 10
-254.34678488230202
 20
152.49612753909418
 10
-254.08867512081125
 20
152.92579049985625
 10
-253.82984075040483
 20
153.35501733676435
 10
-253.57028250132632
 20
153.78380682376206
 10
-253.31000110387353
 20
154.21215773477127
 10
-253.04899728840402
 20
154.64006884368393
 10
-252.7872717853428
 20
155.0675389243508
 10
-252.52482532518803
 20
155.49456675057237
 10
-252.26165863851884
 20
155.92115109608838
 10
-251.9977724560017
 20
156.34729073456893
 10
-251.73316750839615
 20
156.77298443960663
 10
-251.4678445265667
 20
157.19823098469945
 10
-251.2018042414829
 20
157.62302914325286
 10
-250.93504738423502
 20
158.04737768855773
 10
-250.66757468500546
 20
158.47127539314312
 10
-250.39938682082214
 20
158.89472099563127
 10
-250.13048439089079
 20
159.31771318457814
 10
-249.86086798867413
 20
159.74025064369957
 10
-249.59053820814464
 20
160.16233205579218
 10
-249.31949564379593
 20
160.58395610273092
 10
-249.0477408906596
 20
161.00512146546055
 10
-248.77527454431842
 20
161.4258268239909
 10
-248.50209720092076
 20
161.84607085739185
 10
-248.22820945719673
 20
162.26585224378587
 10
-247.95361191047374
 20
162.6851696603409
 10
-247.6783051586882
 20
163.10402178327004
 10
-247.40228980040263
 20
163.52240728782337
 10
-247.1255664348209
 20
163.94032484828188
 10
-246.84813566180406
 20
164.35777313795194
 10
-246.56999808188363
 20
164.77475082916354
 10
-246.29115429627765
 20
165.1912565932638
 10
-246.011604915263
 20
165.60728910623178
 10
-245.73135074156127
 20
166.02284717247912
 10
-245.45039276940858
 20
166.43792972597709
 10
-245.16873200073334
 20
166.85253570731047
 10
-244.88636943681388
 20
167.26666405806796
 10
-244.60330607828232
 20
167.68031372081938
 10
-244.31954292511938
 20
168.09348363910584
 10
-244.0350809766536
 20
168.50617275742243
 10
-243.74992123156156
 20
168.91838002120164
 10
-243.4640646878654
 20
169.3301043767999
 10
-243.1775123429354
 20
169.74134477147692
 10
-242.89026519278667
 20
170.15210015289074
 10
-242.60232423371428
 20
170.56236947022902
 10
-242.31369046159637
 20
170.9721516737
 10
-242.02436487118584
 20
171.38144571402978
 10
-241.7343484565806
 20
171.7902505427725
 10
-241.44364221122464
 20
172.19856511229312
 10
-241.1522471221733
 20
172.60638837164848
 10
-240.86016410408345
 20
173.01371921917035
 10
-240.56739402247834
 20
173.42055651849432
 10
-240.2739377418618
 20
173.82689913277076
 10
-239.9797961266679
 20
174.23274592532084
 10
-239.68497004126013
 20
174.63809575963606
 10
-239.38946034994325
 20
175.0429474993589
 10
-239.0932679169648
 20
175.44730000827835
 10
-238.79639360652575
 20
175.85115215031382
 10
-238.49883828278178
 20
176.25450278951104
 10
-238.20060280985447
 20
176.65735079002548
 10
-237.90168805183282
 20
177.05969501611855
 10
-237.60209487278368
 20
177.46153433214207
 10
-237.30182413675587
 20
177.86286760253196
 10
-237.00087670778828
 20
178.26369369179622
 10
-236.69925344991546
 20
178.6640114645063
 10
-236.396955227174
 20
179.0638197852883
 10
-236.09398288467887
 20
179.46311750442783
 10
-235.79033714129528
 20
179.86190337593936
 10
-235.48601866469568
 20
180.26017611359163
 10
-235.18102812310147
 20
180.65793442998145
 10
-234.8753661854511
 20
181.0551770366552
 10
-234.56903352142433
 20
181.4519026440949
 10
-234.26203080145302
 20
181.84810996172237
 10
-233.95435869673938
 20
182.24379769789297
 10
-233.64601787927273
 20
182.63896455989268
 10
-233.33700902184853
 20
183.03360925393207
 10
-233.02733279808174
 20
183.42773048514738
 10
-232.71698988242386
 20
183.82132695759725
 10
-232.40598095018362
 20
184.21439737425544
 10
-232.0943066775409
 20
184.6069404370122
 10
-231.78196774156422
 20
184.9989548466711
 10
-231.4689648202296
 20
185.39043930294446
 10
-231.15529859243654
 20
185.781392504453
 10
-230.8409698060535
 20
186.17181320354155
 10
-230.52597950055522
 20
186.5617003868494
 10
-230.21032879267344
 20
186.95105310472582
 10
-229.8940187983024
 20
187.33987040861587
 10
-229.5770506325002
 20
187.7281513510382
 10
-229.25942540948387
 20
188.1158949855726
 10
-228.94114424263176
 20
188.50310036683933
 10
-228.62220824447988
 20
188.88976655048592
 10
-228.30261852672461
 20
189.27589259316562
 10
-227.9823762002215
 20
189.6614775525223
 10
-227.66148237498302
 20
190.04652048717574
 10
-227.33993816018116
 20
190.43102045670142
 10
-227.01774466414454
 20
190.81497652161727
 10
-226.6949029943612
 20
191.1983877433643
 10
-226.37141425747905
 20
191.58125318428947
 10
-226.0472795593037
 20
191.96357190763206
 10
-225.72250000475307
 20
192.3453429774619
 10
-225.39707665905348
 20
192.7265654255179
 10
-225.07101047830253
 20
193.10723819129137
 10
-224.7443023994804
 20
193.4873601981075
 10
-224.4169533591494
 20
193.8669303689978
 10
-224.0889642953657
 20
194.2459476283307
 10
-223.7603361453344
 20
194.62441089978557
 10
-223.43106984627784
 20
195.00231910707646
 10
-223.10116633544305
 20
195.37967117394388
 10
-222.77062655010803
 20
195.75646602414722
 10
-222.4394514275913
 20
196.13270258145403
 10
-222.10764190526075
 20
196.50837976963078
 10
-221.7751989205391
 20
196.8834965124365
 10
-221.44212341091514
 20
197.25805173361087
 10
-221.10841631394834
 20
197.63204435687007
 10
-220.7740785672816
 20
198.00547330589328
 10
-220.43911110864644
 20
198.3783375043174
 10
-220.1035148752457
 20
198.75063587516132
 10
-219.76729075814336
 20
199.12236729952818
 10
-219.4304395716336
 20
199.49353058825855
 10
-219.09296212332487
 20
199.86412454477556
 10
-218.7548592214899
 20
200.2341479716868
 10
-218.41613167507836
 20
200.60359967078332
 10
-218.07678029373756
 20
200.97247844303044
 10
-217.73680588782418
 20
201.34078308856834
 10
-217.39620926842
 20
201.70851240670888
 10
-217.0549912473481
 20
202.0756651959312
 10
-216.71315263718878
 20
202.4422402538795
 10
-216.37069425129297
 20
202.80823637736134
 10
-216.02761690380154
 20
203.17365236234235
 10
-215.68392140965952
 20
203.53848700394474
 10
-215.3396085846283
 20
203.9027390964488
 10
-214.99467924530725
 20
204.26640743328502
 10
-214.6491342091466
 20
204.62949080703467
 10
-214.3029742983505
 20
204.99198801314188
 10
-213.95620045126935
 20
205.35389795672842
 10
-213.60881373832876
 20
205.71521966930024
 10
-213.2608152368229
 20
206.07595218969337
 10
-212.91220602366658
 20
206.4360945571505
 10
-212.5629871754028
 20
206.79564581130708
 10
-212.21315976820313
 20
207.15460499218344
 10
-211.86272487787866
 20
207.5129711401678
 10
-211.51168357988377
 20
207.87074329600648
 10
-211.16003694932044
 20
208.22792050079244
 10
-210.80778606094572
 20
208.5845017959526
 10
-210.45493198917615
 20
208.9404862232377
 10
-210.1014758080982
 20
209.29587282470538
 10
-209.74741859146775
 20
209.6506606427162
 10
-209.39276141271978
 20
210.00484871991813
 10
-209.03750534497462
 20
210.3584360992355
 10
-208.68165146104607
 20
210.71142182385563
 10
-208.3252008296543
 20
211.06380493338628
 10
-207.96815444912093
 20
211.41558439645215
 10
-207.61051325609503
 20
211.7667591186636
 10
-207.25227818556112
 20
212.1173280030396
 10
-206.89345017298405
 20
212.4672899521493
 10
-206.5340301543181
 20
212.81664386811045
 10
-206.1740190660182
 20
213.16538865258715
 10
-205.81341784505892
 20
213.51352320677867
 10
-205.45222742894146
 20
213.86104643142156
 10
-205.09044875571132
 20
214.20795722678074
 10
-204.72808276396634
 20
214.5542544926502
 10
-204.36513039287428
 20
214.89993712834482
 10
-204.001592581329
 20
215.24500403179576
 10
-203.63747027039736
 20
215.58945410211146
 10
-203.2727644011647
 20
215.93328623729184
 10
-202.90747591520508
 20
216.27649933470386
 10
-202.54160575472338
 20
216.6190922912234
 10
-202.17515485504785
 20
216.96106399514704
 10
-201.80812403705775
 20
217.3024132103745
 10
-201.44051403298675
 20
217.64313860263033
 10
-201.07232557438218
 20
217.98323883330156
 10
-200.70355939453648
 20
218.3227125620091
 10
-200.33421622850537
 20
218.66155844661935
 10
-199.96429681313955
 20
218.99977514324402
 10
-199.59380188710807
 20
219.33736130624743
 10
-199.22273219091747
 20
219.67431558825797
 10
-198.85108846694484
 20
220.01063664016712
 10
-198.47887145946143
 20
220.34632311113782
 10
-198.10608191465482
 20
220.68137364861352
 10
-197.7327205806573
 20
221.01578689832263
 10
-197.3587882075658
 20
221.3495615042902
 10
-196.98428554747753
 20
221.6826961088364
 10
-196.60921335450442
 20
222.01518935259372
 10
-196.23357238480622
 20
222.34703987450777
 10
-195.85736340148583
 20
222.67824631739566
 10
-195.48058730668123
 20
223.008807478617
 10
-195.10324515604287
 20
223.33872232863828
 10
-194.72533801346756
 20
223.66798984676757
 10
-194.34686694310116
 20
223.99660901204865
 10
-193.96783300934774
 20
224.32457880325757
 10
-193.58823727687866
 20
224.65189819889892
 10
-193.20808081064916
 20
224.978566177196
 10
-192.8273646759093
 20
225.30458171608538
 10
-192.4460899382147
 20
225.62994379321333
 10
-192.06425766344245
 20
225.95465138592624
 10
-191.68186891779857
 20
226.2787034712697
 10
-191.29892476783422
 20
226.60209902597958
 10
-190.91542628045826
 20
226.92483702647695
 10
-190.53137452294837
 20
227.24691644886374
 10
-190.1467705629657
 20
227.56833626891625
 10
-189.76161546856594
 20
227.88909546208154
 10
-189.37591030817111
 20
228.2091930034228
 10
-188.98965612295092
 20
228.52862783417245
 10
-188.6028538790461
 20
228.8473988033116
 10
-188.21550453085644
 20
229.16550474332223
 10
-187.82760903393353
 20
229.48294448569547
 10
-187.43916834500354
 20
229.79971686092946
 10
-187.05018342198332
 20
230.11582069853338
 10
-186.6606552240016
 20
230.43125482702789
 10
-186.27058471141694
 20
230.7460180739472
 10
-185.8799728458389
 20
231.06010926583994
 10
-185.488820590144
 20
231.3735272282742
 10
-185.09712890849906
 20
231.68627078583597
 10
-184.70489876637623
 20
231.99833876213563
 10
-184.3121311305755
 20
232.309729979808
 10
-183.9188269692431
 20
232.6204432605156
 10
-183.52498725188912
 20
232.9304774249541
 10
-183.13061294941065
 20
233.23983129285097
 10
-182.73570503410758
 20
233.54850368297383
 10
-182.3402644754495
 20
233.85649340765488
 10
-181.94429218407402
 20
234.16379920052552
 10
-181.54778902857558
 20
234.47041973713857
 10
-181.1507558791055
 20
234.776353690695
 10
-180.75319360737225
 20
235.08159973200466
 10
-180.35510308716903
 20
235.38615653013326
 10
-179.95648519439357
 20
235.69002275241638
 10
-179.55734080708163
 20
235.99319706446397
 10
-179.15767080543168
 20
236.2956781301714
 10
-178.75747607183328
 20
236.59746461172742
 10
-178.3567574908879
 20
236.89855516962945
 10
-177.95551594944544
 20
237.19894846268576
 10
-177.5537523366236
 20
237.498643148032
 10
-177.1514675438366
 20
237.79763788114045
 10
-176.74866246482696
 20
238.095931315827
 10
-176.34533799568698
 20
238.39352210426665
 10
-175.94149503488637
 20
238.69040889700463
 10
-175.53713448330308
 20
238.98659034296438
 10
-175.13225726513306
 20
239.28206511811462
 10
-174.72686445175074
 20
239.5768320962097
 10
-174.320957177108
 20
239.87089023482235
 10
-173.91453657609404
 20
240.16423849122916
 10
-173.50760378432366
 20
240.456875822102
 10
-173.10015993815563
 20
240.7488011835056
 10
-172.6922061747095
 20
241.04001353089532
 10
-172.28374363188115
 20
241.33051181911677
 10
-171.87477344836
 20
241.62029500240405
 10
-171.46529676364804
 20
241.9093620343773
 10
-171.05531471807498
 20
242.1977118680427
 10
-170.64482845281526
 20
242.48534345579162
 10
-170.2338391099062
 20
242.77225574939914
 10
-169.82234783226423
 20
243.05844770002412
 10
-169.41035576370234
 20
243.3439182582086
 10
-168.99786404894886
 20
243.6286663738763
 10
-168.58487383366187
 20
243.9126909963346
 10
-168.17138626444824
 20
244.1959910742734
 10
-167.7574024869015
 20
244.4785655528575
 10
-167.342923630115
 20
244.76041335089243
 10
-166.927950815186
 20
245.04153337296364
 10
-166.51248516431156
 20
245.32192452268626
 10
-166.09652780089175
 20
245.60158570281993
 10
-165.6800798495435
 20
245.88051581527552
 10
-165.26314243612677
 20
246.15871376111292
 10
-164.84571668776022
 20
246.43617844054683
 10
-164.4278037328409
 20
246.71290875294966
 10
-164.00940470107003
 20
246.98890359685046
 10
-163.59052072346205
 20
247.2641618699459
 10
-163.1711529323727
 20
247.5386824690974
 10
-162.75130246151872
 20
247.81246429033595
 10
-162.33097044599293
 20
248.0855062288687
 10
-161.9101580222888
 20
248.35780717907926
 10
-161.4888663283198
 20
248.629366034534
 10
-161.06709650343598
 20
248.90018168798687
 10
-160.6448496884468
 20
249.17025303138337
 10
-160.22212702430573
 20
249.43957895376607
 10
-159.79892960953018
 20
249.70815827408242
 10
-159.37525849163063
 20
249.97598972660055
 10
-158.95111471717888
 20
250.24307203903984
 10
-158.52649933431445
 20
250.50940393645928
 10
-158.1014133946177
 20
250.7749841441982
 10
-157.67585795164513
 20
251.03981138552098
 10
-157.2498340610995
 20
251.3038843818576
 10
-156.8233427810352
 20
251.56720185309504
 10
-156.3963851718863
 20
251.8297625175889
 10
-155.96896229649366
 20
252.0915650921764
 10
-155.54107522013373
 20
252.35260829218802
 10
-155.11272501054341
 20
252.61289083146244
 10
-154.68391273795157
 20
252.87241142235737
 10
-154.25463947510087
 20
253.13116877576638
 10
-153.82490629728002
 20
253.38916160113
 10
-153.39471428235026
 20
253.64638860645056
 10
-152.96406451077254
 20
253.9028484983065
 10
-152.53295806563224
 20
254.15853998186859
 10
-152.10139605055033
 20
254.41346179121373
 10
-151.66937970895756
 20
254.6676128925667
 10
-151.23691034909842
 20
254.9209923599378
 10
-150.80398928016243
 20
255.1735992675056
 10
-150.37061781194444
 20
255.4254326890189
 10
-149.93679725485904
 20
255.67649169779503
 10
-149.50252891997042
 20
255.92677536671104
 10
-149.06781411899377
 20
256.176282768211
 10
-148.63265416432324
 20
256.42501297429754
 10
-148.19705036904625
 20
256.6729650565326
 10
-147.76100404695742
 20
256.9201380860375
 10
-147.32451651258273
 20
257.1665311334884
 10
-146.88758908119172
 20
257.41214326911756
 10
-146.45022306881364
 20
257.65697356271363
 10
-146.01241979225918
 20
257.90102108361873
 10
-145.57418056913804
 20
258.14428490072726
 10
-145.13550671787436
 20
258.38676408248745
 10
-144.696399557725
 20
258.6284576969004
 10
-144.25686040879563
 20
258.86936481152105
 10
-143.81689058990753
 20
259.1094844895016
 10
-143.37649140700597
 20
259.34881576817406
 10
-142.93566416164427
 20
259.5873576742713
 10
-142.49441015645888
 20
259.82510923386616
 10
-142.05273069519782
 20
260.0620694724002
 10
-141.61062708274176
 20
260.298237414686
 10
-141.16810062512445
 20
260.5336120849089
 10
-140.7251526295519
 20
260.76819250663056
 10
-140.28178440442133
 20
261.00197770279243
 10
-139.837997259342
 20
261.23496669571784
 10
-139.39379250515236
 20
261.467158507118
 10
-138.94917145394558
 20
261.6985521580916
 10
-138.50413541908384
 20
261.9291466691323
 10
-138.0586857152175
 20
262.15894106013263
 10
-137.61282365831104
 20
262.38793435038525
 10
-137.16655056565716
 20
262.6161255585907
 10
-136.71986775589772
 20
262.8435137028609
 10
-136.2727765490449
 20
263.070097800724
 10
-135.8252782665011
 20
263.2958768691289
 10
-135.37737422742933
 20
263.5208499171729
 10
-134.9290657089715
 20
263.745015866358
 10
-134.48035396084796
 20
263.96837357838746
 10
-134.03124023591556
 20
264.19092191568154
 10
-133.58172578846614
 20
264.41265973793685
 10
-133.13181187499373
 20
264.63358590360315
 10
-132.6814997542229
 20
264.853699269905
 10
-132.23079068713167
 20
265.0729986928559
 10
-131.77968593698048
 20
265.2914830272699
 10
-131.3281867693427
 20
265.50915112677257
 10
-130.87629445212477
 20
265.7260018438172
 10
-130.42401025559198
 20
265.9420340296993
 10
-129.97133545240172
 20
266.1572465345662
 10
-129.5182713176218
 20
266.37163820743564
 10
-129.0648191287633
 20
266.58520789620707
 10
-128.6109801658003
 20
266.7979544476788
 10
-128.15675571120153
 20
267.00987670756086
 10
-127.7021470499536
 20
267.2209735204916
 10
-127.24715546958623
 20
267.4312437300531
 10
-126.79178226031314
 20
267.64068617902706
 10
-126.33602876482848
 20
267.84929981826843
 10
-125.87989645598017
 20
268.057083879116
 10
-125.42338682734139
 20
268.26403763740905
 10
-124.96650137267244
 20
268.4701603688504
 10
-124.5092415859363
 20
268.67545134900183
 10
-124.05160896131578
 20
268.8799098532791
 10
-123.59360499322499
 20
269.0835351569492
 10
-123.13523117633477
 20
269.286326535122
 10
-122.67648900557958
 20
269.48828326274975
 10
-122.2173799761817
 20
269.68940461462023
 10
-121.75790558366113
 20
269.8896898653554
 10
-121.2980673238599
 20
270.0891382894041
 10
-120.83786669294985
 20
270.2877491610423
 10
-120.37730518745816
 20
270.4855217543664
 10
-119.91638430427638
 20
270.68245534329265
 10
-119.45510554068501
 20
270.87854920155104
 10
-118.99347039436049
 20
271.07380260268667
 10
-118.53148036340596
 20
271.26821482005096
 10
-118.06913694635278
 20
271.4617851268058
 10
-117.60644164190626
 20
271.65451279523495
 10
-117.14339593561246
 20
271.84639706450406
 10
-116.68000129432353
 20
272.0374371265499
 10
-116.21625918434589
 20
272.22763216930144
 10
-115.7521710729589
 20
272.41698138026715
 10
-115.28773842843052
 20
272.6054839465383
 10
-114.82296272003968
 20
272.7931390547908
 10
-114.3578454180919
 20
272.9799458912902
 10
-113.89238799394415
 20
273.1659036418915
 10
-113.42659192002057
 20
273.3510114920451
 10
-112.96045866983118
 20
273.5352686268002
 10
-112.49398971799475
 20
273.7186742308069
 10
-112.02718654025544
 20
273.9012274883222
 10
-111.56005061350477
 20
274.0829275832119
 10
-111.09258341579806
 20
274.2637736989574
 10
-110.62478642637836
 20
274.44376501865776
 10
-110.15666112513635
 20
274.6229007235828
 10
-109.68820899423285
 20
274.8011799973554
 10
-109.2194315166508
 20
274.97860202213957
 10
-108.75033017656759
 20
275.15516597956037
 10
-108.28090645906465
 20
275.33087104987766
 10
-107.8111618335811
 20
275.50571636741046
 10
-107.34109774767944
 20
275.6797010027111
 10
-106.87071564904743
 20
275.8528240208326
 10
-106.40001698725868
 20
276.02508448596524
 10
-105.92900321379464
 20
276.1964814614479
 10
-105.45767578206946
 20
276.36701400977995
 10
-104.98603614745419
 20
276.53668119263267
 10
-104.5140857673023
 20
276.7054820708608
 10
-104.04182610097106
 20
276.87341570451565
 10
-103.56925860985085
 20
277.04048115285576
 10
-103.09638475738166
 20
277.2066774743624
 10
-102.62320600908467
 20
277.3720037267494
 10
-102.1497238325816
 20
277.5364589669788
 10
-101.67593969762099
 20
277.70004225127263
 10
-101.20185507609828
 20
277.8627526351284
 10
-100.72747144209002
 20
278.02458917332984
 10
-100.25279027186366
 20
278.1855509199652
 10
-99.77781304391262
 20
278.3456369284385
 10
-99.30254123897365
 20
278.50484625148636
 10
-98.82697634008159
 20
278.6631779412766
 10
-98.3511198693044
 20
278.8206311605236
 10
-97.87497345898963
 20
278.9772054016688
 10
-97.39853876131343
 20
279.13290021825117
 10
-96.9218174279815
 20
279.2877151639761
 10
-96.44481111023967
 20
279.4416497927077
 10
-95.96752145889663
 20
279.59470365845647
 10
-95.48995012433166
 20
279.7468763153726
 10
-95.01209875651116
 20
279.89816731773635
 10
-94.53396900500863
 20
280.04857621994756
 10
-94.05556251901746
 20
280.19810257651756
 10
-93.5768809473693
 20
280.34674594206007
 10
-93.09792593854114
 20
280.4945058712851
 10
-92.6186991406791
 20
280.6413819189884
 10
-92.13920220161704
 20
280.78737364004206
 10
-91.65943676888243
 20
280.9324805893902
 10
-91.17940448972303
 20
281.0767023220378
 10
-90.69910701111179
 20
281.2200383930463
 10
-90.21854597977438
 20
281.3624883575229
 10
-89.73772304219833
 20
281.5040517706159
 10
-89.25663984465017
 20
281.6447281875067
 10
-88.77529803018099
 20
281.7845171530084
 10
-88.29369920013308
 20
281.92341806767183
 10
-87.8118449262551
 20
282.0614302262178
 10
-87.32973678088548
 20
282.19855292051886
 10
-86.84737633767764
 20
282.3347854420191
 10
-86.36476517161717
 20
282.47012708174196
 10
-85.88190485896854
 20
282.6045771300085
 10
-85.3987969771308
 20
282.73813487585494
 10
-84.91544310562689
 20
282.8707996105408
 10
-84.43184482499203
 20
283.0025706234829
 10
-83.94800371720196
 20
283.1334472037165
 10
-83.46392136569231
 20
283.26342863990465
 10
-82.97959935537757
 20
283.3925142203474
 10
-82.49503927267722
 20
283.52070323298966
 10
-82.01024270553124
 20
283.647994965432
 10
-81.52521124342655
 20
283.7743887049386
 10
-81.03994647741247
 20
283.89988373844847
 10
-80.5544500001209
 20
284.0244793525856
 10
-80.06872340579393
 20
284.1481748336678
 10
-79.58276829029609
 20
284.27096946771866
 10
-79.09658625114014
 20
284.3928625404774
 10
-78.61017889482879
 20
284.5138533668857
 10
-78.1235478602076
 20
284.633941386582
 10
-77.63669479504478
 20
284.7531260720613
 10
-77.14962134772621
 20
284.87140689556617
 10
-76.66232916727809
 20
284.98878332908816
 10
-76.1748199033871
 20
285.1052548443691
 10
-75.68709520641688
 20
285.22082091290395
 10
-75.19915672743181
 20
285.3354810059419
 10
-74.71100611821291
 20
285.44923459449006
 10
-74.2226450312803
 20
285.562081149315
 10
-73.73407511991088
 20
285.67402014094654
 10
-73.24529803815943
 20
285.78505103968
 10
-72.75631544087503
 20
285.8951733155806
 10
-72.2671289837259
 20
286.00438643848577
 10
-71.77774032321715
 20
286.1126898780088
 10
-71.2881511167063
 20
286.22008310354454
 10
-70.79836302242967
 20
286.3265655842712
 10
-70.30837769951509
 20
286.43213678915674
 10
-69.81819680800969
 20
286.53679618696145
 10
-69.32782200889218
 20
286.6405432462445
 10
-68.83725496412558
 20
286.74337743550603
 10
-68.34649735093393
 20
286.84529829199505
 10
-67.85555088429295
 20
286.94630553332956
 10
-67.36441728476478
 20
287.04639890643807
 10
-66.87309827239375
 20
287.1455781584182
 10
-66.38159556671873
 20
287.24384303652903
 10
-65.88991088679312
 20
287.34119328818224
 10
-65.39804595119841
 20
287.4376286609346
 10
-64.90600247806317
 20
287.5331489024795
 10
-64.41378218507957
 20
287.6277537606397
 10
-63.921386789518145
 20
287.7214429833598
 10
-63.42881800824286
 20
287.8142163186997
 10
-62.936077557731565
 20
287.90607351482646
 10
-62.44316715409367
 20
287.99701432000734
 10
-61.95008851308365
 20
288.0870384826043
 10
-61.456843350117026
 20
288.17614575106694
 10
-60.96343338018638
 20
288.264335873332
 10
-60.46986031797628
 20
288.351608597371
 10
-59.97612587821578
 20
288.4379636730848
 10
-59.482231775146055
 20
288.523400849212
 10
-58.98817972275417
 20
288.60791987454945
 10
-58.49397143471101
 20
288.69152049746054
 10
-57.99960860829232
 20
288.77420236937843
 10
-57.50509290578846
 20
288.8559649281392
 10
-57.010425986349006
 20
288.93680758273547
 10
-56.5156095108357
 20
289.0167297417375
 10
-56.02064514183716
 20
289.09573081330694
 10
-55.52553454369083
 20
289.1738102052101
 10
-55.03027938251025
 20
289.25096732483047
 10
-54.5348813262
 20
289.3272015791833
 10
-54.039342044485736
 20
289.40251237492845
 10
-53.543663208924286
 20
289.4768991183861
 10
-53.047846492937424
 20
289.5503612155495
 10
-52.5518935718257
 20
289.62289807210016
 10
-52.055806122793044
 20
289.6945090934231
 10
-51.559585824966774
 20
289.7651936846214
 10
-51.063234359421145
 20
289.83495125053156
 10
-50.56675340919362
 20
289.90378119574007
 10
-50.07014465931142
 20
289.9716829245977
 10
-49.573409796814055
 20
290.0386558412364
 10
-49.076550510769074
 20
290.1046993495854
 10
-48.57956849229181
 20
290.1698128533887
 10
-48.08246543460453
 20
290.2339957564664
 10
-47.58524305247825
 20
290.29724761594605
 10
-47.08790311403099
 20
290.35956840445635
 10
-46.59044739494014
 20
290.4209581645158
 10
-46.09287766943768
 20
290.48141693889977
 10
-45.59519571032417
 20
290.5409447706246
 10
-45.0974032889867
 20
290.599541702932
 10
-44.5995021754147
 20
290.6572077792738
 10
-44.10149413821871
 20
290.71394304329635
 10
-43.60338094464493
 20
290.7697475388259
 10
-43.105164360592696
 20
290.82462130985397
 10
-42.606846150631036
 20
290.8785644005222
 10
-42.10842807801997
 20
290.93157685510835
 10
-41.60991190472232
 20
290.9836587180122
 10
-41.111299391424446
 20
291.0348100337415
 10
-40.612592297550385
 20
291.0850308468983
 10
-40.11379238128428
 20
291.13432120216515
 10
-39.61490139958354
 20
291.1826811442925
 10
-39.115921108199096
 20
291.2301107180845
 10
-38.61685326169333
 20
291.27660996838705
 10
-38.117699613458726
 20
291.3221789400746
 10
-37.61846191573092
 20
291.36681767803793
 10
-37.11914191399268
 20
291.41052616263465
 10
-36.619741329783274
 20
291.4533041034632
 10
-36.12026187941669
 20
291.49515113871024
 10
-35.62070528031867
 20
291.53606690536554
 10
-35.1210732513684
 20
291.57605104315144
 10
-34.62136751254461
 20
291.6151031900517
 10
-34.12158978508058
 20
291.65322298390845
 10
-33.62174179148042
 20
291.6904100624333
 10
-33.121825255542205
 20
291.7266640632166
 10
-32.62184190237537
 20
291.76198462373947
 10
-32.12179345842292
 20
291.7963713813837
 10
-31.621681651479307
 20
291.8298239734437
 10
-31.12150821070833
 20
291.86234203713764
 10
-30.621274866659633
 20
291.8939252096194
 10
-30.120983351301042
 20
291.9245731279897
 10
-29.620635398023015
 20
291.95428542930875
 10
-29.120232741665344
 20
291.98306175060895
 10
-28.61977711853435
 20
292.0109017289064
 10
-28.119270266421076
 20
292.0378050012147
 10
-27.618713924624913
 20
292.06377120455727
 10
-27.118109833963274
 20
292.08879997598086
 10
-26.61745973870907
 20
292.1128909926818
 10
-26.116765397737378
 20
292.1360442194354
 10
-25.616028575272725
 20
292.158259746569
 10
-25.11525103461204
 20
292.1795376650092
 10
-24.614434538113162
 20
292.19987806574824
 10
-24.113580847210223
 20
292.2192810398351
 10
-23.6126917224401
 20
292.2377466783653
 10
-23.11176892345619
 20
292.25527507247284
 10
-22.610814209042054
 20
292.2718663133207
 10
-22.10982933713879
 20
292.2875204920926
 10
-21.608816064856313
 20
292.30223769998395
 10
-21.107776148492718
 20
292.31601802819455
 10
-20.606711343558022
 20
292.3288615679196
 10
-20.10562340478833
 20
292.3407684103426
 10
-19.604514086160684
 20
292.3517386466274
 10
-19.103385140920476
 20
292.36177236791093
 10
-18.602238321595348
 20
292.370869665296
 10
-18.101075380012322
 20
292.37903062984446
 10
-17.599898067317532
 20
292.3862553525702
 10
-17.09870813399771
 20
292.3925439244327
 10
-16.597507329895553
 20
292.39789643633094
 10
-16.096297404188878
 20
292.40231297380654
 10
-15.595080104938633
 20
292.40579354226014
 10
-15.093857179763702
 20
292.4083380849365
 10
-14.592630376537475
 20
292.4099465434352
 10
-14.091401443418656
 20
292.41061885933937
 10
-13.590172128872076
 20
292.41035497421854
 10
-13.088944181685008
 20
292.40915482963163
 10
-12.587719350986832
 20
292.4070183671297
 10
-12.086499386268684
 20
292.4039455282599
 10
-11.585286037398397
 20
292.399936254568
 10
-11.08408105464406
 20
292.39499048732375
 10
-10.582886188703474
 20
292.3891081667692
 10
-10.081703190679116
 20
292.38228923606505
 10
-9.58053381213385
 20
292.37453363679344
 10
-9.079379805105193
 20
292.36584131055656
 10
-8.57824292211951
 20
292.3562121989814
 10
-8.077124916203575
 20
292.34564624372405
 10
-7.576027540913518
 20
292.3341433864761
 10
-7.074952550346672
 20
292.3217035689688
 10
-6.573901699163476
 20
292.3083267329795
 10
-6.072876742599248
 20
292.2940128203369
 10
-5.571879436399777
 20
292.27876177573626
 10
-5.070911533454548
 20
292.2625736500722
 10
-4.569974782040831
 20
292.245448630427
 10
-4.069070929398245
 20
292.2273869128266
 10
-3.5682017220093667
 20
292.20838869330424
 10
-3.067368905621322
 20
292.1884541678942
 10
-2.5665742252620323
 20
292.16758353262543
 10
-2.0658194252567585
 20
292.14577698351604
 10
-1.565106249253559
 20
292.1230347165676
 10
-1.0644364402338715
 20
292.0993569277589
 10
-0.5638117405352584
 20
292.07474381304183
 10
-0.06323389187112752
 20
292.0491955683356
 10
0.4372953646535507
 20
292.022712389522
 10
0.937774288520575
 20
291.9952944724407
 10
1.438201139783827
 20
291.9669420128851
 10
1.9385741790453015
 20
291.937655206598
 10
2.4388916674421486
 20
291.9074342492671
 10
2.9391518666209984
 20
291.87627933652226
 10
3.439353038727843
 20
291.84419066393065
 10
3.939493446379014
 20
291.81116842699436
 10
4.4395713526516
 20
291.77721282114675
 10
4.939585021048512
 20
291.742324041597
 10
5.439532714042886
 20
291.70650226335
 10
5.939412691454871
 20
291.6697476213123
 10
6.4392232127951745
 20
291.63206024563056
 10
6.938962537578743
 20
291.59344026643186
 10
7.438628925303365
 20
291.5538878138253
 10
7.938220635429522
 20
291.5134030179045
 10
8.437735927368026
 20
291.47198600874805
 10
8.93717306045439
 20
291.42963691642285
 10
9.436530293936192
 20
291.3863558709854
 10
9.935805886950599
 20
291.34214300248505
 10
10.43499809851296
 20
291.2969984409658
 10
10.93410518749131
 20
291.25092231646977
 10
11.433125412588414
 20
291.2039147590405
 10
11.932057032331835
 20
291.15597589872533
 10
12.430898305045398
 20
291.1071058655795
 10
12.929647488841303
 20
291.05730478966973
 10
13.428302841591771
 20
291.00657280107805
 10
13.92686262091062
 20
290.9549100298361
 10
14.42532508396725
 20
290.90231660436075
 10
14.923688488004652
 20
290.84879265658486
 10
15.421951089790165
 20
290.794338316817
 10
15.920111153828989
 20
290.73895378763365
 10
16.418166966608254
 20
290.68263946557465
 10
16.91611681943931
 20
290.6253957793557
 10
17.413959004937542
 20
290.56722315763324
 10
17.91169181700543
 20
290.50812202899436
 10
18.409313550805837
 20
290.4480928219474
 10
18.906822502747207
 20
290.3871359649123
 10
19.404216970466557
 20
290.32525188621076
 10
19.901495252806605
 20
290.26244101405786
 10
20.398655649794083
 20
290.19870377655303
 10
20.89569646262906
 20
290.1340406016706
 10
21.392615993657003
 20
290.0684519172524
 10
21.8894125463521
 20
290.001938150999
 10
22.386084425297916
 20
289.93449973046165
 10
22.88262993617018
 20
289.86613708303463
 10
23.37904738571206
 20
289.7968506359475
 10
23.87533508171901
 20
289.7266408162581
 10
24.371491333015392
 20
289.6555080508451
 10
24.86751444944171
 20
289.58345276640074
 10
25.36340274182382
 20
289.51047538942504
 10
25.859154521952373
 20
289.43657634614243
 10
26.354768093655327
 20
289.3617560036951
 10
26.85024173628486
 20
289.2860145649252
 10
27.34557372448447
 20
289.2093522042791
 10
27.8407623323946
 20
289.13176909622564
 10
28.33580583363387
 20
289.05326541526324
 10
28.8307025012835
 20
288.97384133592766
 10
29.325450607867417
 20
288.8934970327999
 10
29.820048425336466
 20
288.8122326805148
 10
30.31449422505085
 20
288.73004845376835
 10
30.80878627776208
 20
288.64694452732715
 10
31.302922853599387
 20
288.56292107603605
 10
31.79690222204725
 20
288.47797827482816
 10
32.29072265193176
 20
288.3921162987331
 10
32.78438241140359
 20
288.3053353228866
 10
33.277879767923054
 20
288.2176355225394
 10
33.77121298823831
 20
288.12901707306776
 10
34.26438033836998
 20
288.03948014998326
 10
34.75738008360062
 20
287.94902492894164
 10
35.250210488453284
 20
287.857651585754
 10
35.74286981666836
 20
287.7653602963984
 10
36.23535633131583
 20
287.672151237615
 10
36.72766832225245
 20
287.5780247303908
 10
37.219804143325
 20
287.4829814273082
 10
37.711762159250014
 20
287.38702202719674
 10
38.20354073682171
 20
287.29014722860234
 10
38.695138244890835
 20
287.19235772977174
 10
39.18655305415041
 20
287.0936542277161
 10
39.677783537498605
 20
286.9940374200904
 10
40.168828069994625
 20
286.8935080050256
 10
40.65968502848764
 20
286.79206667942157
 10
41.15035279177301
 20
286.68971413980466
 10
41.64082974057319
 20
286.5864510823132
 10
42.131114257511804
 20
286.48227820268386
 10
42.62120472709103
 20
286.37719619623846
 10
43.11109953567455
 20
286.2712057578691
 10
43.600797071460335
 20
286.16430758202654
 10
44.090295724464035
 20
286.0565023627055
 10
44.57959388648811
 20
285.9477907934342
 10
45.06868995111178
 20
285.8381735672591
 10
45.55758231365795
 20
285.7276513767346
 10
46.046269371173736
 20
285.6162249139113
 10
46.53474952160813
 20
285.50389486682207
 10
47.02302113008443
 20
285.39066177447444
 10
47.51108251572249
 20
285.27652597516266
 10
47.998931994023835
 20
285.16148779304416
 10
48.48656788011328
 20
285.0455475523545
 10
48.9739884887169
 20
284.9287055774154
 10
49.461192134157905
 20
284.81096219264117
 10
49.948177130324645
 20
284.69231772254903
 10
50.434941790665675
 20
284.5727724917653
 10
50.92148442817312
 20
284.4523268250339
 10
51.40780335536084
 20
284.3309810472255
 10
51.893896884251966
 20
284.2087354833467
 10
52.37976332636485
 20
284.0855904585472
 10
52.865400992690276
 20
283.96154629813134
 10
53.35080819368511
 20
283.83660332756494
 10
53.83598323925047
 20
283.7107618724859
 10
54.32092443871719
 20
283.5840222587141
 10
54.80563010083021
 20
283.45638481226104
 10
55.2900985337357
 20
283.3278498593389
 10
55.774328044959546
 20
283.1984177263727
 10
56.25831694140276
 20
283.06808874000797
 10
56.74206353597826
 20
282.93686325163094
 10
57.22556620479859
 20
282.80474184591134
 10
57.708823360175494
 20
282.67172523632667
 10
58.19183341625053
 20
282.5378141373786
 10
58.674594788600615
 20
282.403009263217
 10
59.15710589422399
 20
282.26731132763007
 10
59.63936515151284
 20
282.1307210440377
 10
60.12137098023672
 20
281.99323912548294
 10
60.60312180151872
 20
281.8548662846241
 10
61.08461603781596
 20
281.7156032337277
 10
61.56585211289945
 20
281.5754506846608
 10
62.04682845183129
 20
281.4344093488844
 10
62.52754348094665
 20
281.29247993744565
 10
63.00799562783016
 20
281.1496631609724
 10
63.48818332129378
 20
281.0059597296668
 10
63.96810499115395
 20
280.86137035260555
 10
64.44775906851328
 20
280.71589573878106
 10
64.92714398605945
 20
280.56953659811376
 10
65.40625817731582
 20
280.42229363904084
 10
65.88510007693023
 20
280.2741675695451
 10
66.36366812064921
 20
280.12515909712687
 10
66.84196074353761
 20
279.9752689231941
 10
67.31997637757961
 20
279.82449773566475
 10
67.79771345517254
 20
279.6728462203496
 10
68.27517040968843
 20
279.52031506283106
 10
68.7523456754591
 20
279.36690494845703
 10
69.22923768775466
 20
279.21261656233895
 10
69.70584488276224
 20
279.05745058934906
 10
70.18216569757163
 20
278.90140771411615
 10
70.65819857015256
 20
278.7444886210239
 10
71.13394193934109
 20
278.58669399420626
 10
71.60939424481428
 20
278.4280245175477
 10
72.0845539270743
 20
278.2684808746796
 10
72.55941942743198
 20
278.10806374897754
 10
73.03398918798351
 20
277.946773823561
 10
73.50826165159397
 20
277.7846117812913
 10
73.98223526187915
 20
277.62157830476923
 10
74.45590846318555
 20
277.45767407633497
 10
74.92927970057143
 20
277.2928997780669
 10
75.40234741979128
 20
277.12725609177966
 10
75.87511006727313
 20
276.9607436990247
 10
76.34756609004599
 20
276.7933632809402
 10
76.81971393543532
 20
276.62511551743125
 10
77.29155205125836
 20
276.45600108780815
 10
77.76307888594988
 20
276.2860206711923
 10
78.2342928885488
 20
276.1151749465163
 10
78.7051925086741
 20
275.9434645925265
 10
79.17577619651203
 20
275.77089028778175
 10
79.64604240279851
 20
275.5974527106541
 10
80.11598957879507
 20
275.423152539332
 10
80.5856161762766
 20
275.2479904518195
 10
81.05492064751549
 20
275.0719671259365
 10
81.52390144525688
 20
274.89508323932364
 10
81.99255702270801
 20
274.7173394694406
 10
82.46088583351421
 20
274.538736493571
 10
82.92888633174884
 20
274.3592749888212
 10
83.39655697188782
 20
274.17895563212585
 10
83.86389620879879
 20
273.9977791002477
 10
84.33090249771958
 20
273.81574606978194
 10
84.79757429424184
 20
273.63285721715835
 10
85.26391005429547
 20
273.449113218644
 10
85.72990823616372
 20
273.2645147554731
 10
86.19556732410493
 20
273.0790625730812
 10
86.66088582063382
 20
272.8927574605524
 10
87.12586222952118
 20
272.7056002074971
 10
87.59049505545059
 20
272.5175916031976
 10
88.05478280399075
 20
272.32873243660896
 10
88.51872398129792
 20
272.13902349566297
 10
88.98231709456094
 20
271.9484655684207
 10
89.445560652282
 20
271.75705944377154
 10
89.90845316339582
 20
271.5648059093429
 10
90.37099313763287
 20
271.37170575242743
 10
90.83317908549647
 20
271.1777597599835
 10
91.29500951825216
 20
270.98296871863175
 10
91.7564829479002
 20
270.7873334146584
 10
92.21759788715906
 20
270.5908546340142
 10
92.67835284945048
 20
270.39353316231296
 10
93.13874634887921
 20
270.19536978483256
 10
93.59877690021352
 20
269.9963652865161
 10
94.05844301886516
 20
269.7965204519727
 10
94.51774322087336
 20
269.59583606547795
 10
94.97667602478397
 20
269.39431291528507
 10
95.43523997810772
 20
269.1919518535239
 10
95.89343365117836
 20
268.9887537811924
 10
96.35125561615286
 20
268.7847196000734
 10
96.80870444643676
 20
268.5798502114697
 10
97.26577871666424
 20
268.37414651619935
 10
97.72247700267654
 20
268.16760941459245
 10
98.17879788150437
 20
267.9602398064857
 10
98.63473993135032
 20
267.7520385912178
 10
99.09030173156023
 20
267.5430066676298
 10
99.54548186261312
 20
267.33314493405715
 10
100.00027890609437
 20
267.1224542883296
 10
100.45469144467998
 20
266.9109356277666
 10
100.90871806211273
 20
266.69858984917596
 10
101.3623573431852
 20
266.48541784885015
 10
101.8156078737189
 20
266.27142052256465
 10
102.26846824054425
 20
266.0565987655755
 10
102.72093703148326
 20
265.8409534726162
 10
103.17301283532372
 20
265.6244855378991
 10
103.62469424180655
 20
265.40719585511016
 10
104.07597984129234
 20
265.1890853167668
 10
104.52686822231465
 20
264.9701548092402
 10
104.97735797288918
 20
264.7504052155664
 10
105.4274476819104
 20
264.5298374183847
 10
105.87713593913917
 20
264.3084522999659
 10
106.32642133518871
 20
264.08625074220936
 10
106.77530246150424
 20
263.8632336266437
 10
107.22377791034896
 20
263.6394018344248
 10
107.67184627477849
 20
263.41475624633887
 10
108.11950614862882
 20
263.1892977428004
 10
108.56675612649434
 20
262.9630272038541
 10
109.01359480371597
 20
262.7359455091723
 10
109.46002077635578
 20
262.50805353805947
 10
109.90603264118036
 20
262.27935216945275
 10
110.35162899564753
 20
262.0498422819202
 10
110.79680843788397
 20
261.8195247536648
 10
111.24156956667062
 20
261.58840046252436
 10
111.68591098141944
 20
261.35647028597555
 10
112.12983128216156
 20
261.1237351011331
 10
112.57332906913655
 20
260.89019578400587
 10
113.01640295166375
 20
260.65585322631983
 10
113.45905156541367
 20
260.42070836778595
 10
113.9012735515167
 20
260.1847621561499
 10
114.34306755207783
 20
259.94801553869627
 10
114.78443221015468
 20
259.7104694622501
 10
115.22536616974303
 20
259.4721248731739
 10
115.6658680757596
 20
259.2329827173654
 10
116.10593657401499
 20
258.99304394026274
 10
116.54557031120565
 20
258.75230948683765
 10
116.98476793488553
 20
258.51078030160113
 10
117.42352809345418
 20
258.26845732860016
 10
117.86184943613856
 20
258.0253415114171
 10
118.29973061297021
 20
257.78143379317333
 10
118.73717027476863
 20
257.53673511652875
 10
119.1741670731256
 20
257.29124642368095
 10
119.61071966038311
 20
257.0449686563685
 10
120.04682668961742
 20
256.797902755871
 10
120.48248681462155
 20
256.55004966301
 10
120.91769868988466
 20
256.3014103181516
 10
121.35246097168489
 20
256.05198566313953
 10
121.78677233391456
 20
255.80177666875224
 10
122.22063146454774
 20
255.5507843281687
 10
122.65403705289349
 20
255.29900963467068
 10
123.08698778923502
 20
255.04645358103568
 10
123.5194823648066
 20
254.79311715953827
 10
123.95151947177715
 20
254.53900136194926
 10
124.38309780323397
 20
254.28410717953366
 10
124.81421605316247
 20
254.0284356030518
 10
125.24487291642387
 20
253.77198762276197
 10
125.6750670887435
 20
253.51476422841662
 10
126.10479726668802
 20
253.2567664092658
 10
126.53406214764907
 20
252.9979951540562
 10
126.96286042982548
 20
252.73845145103255
 10
127.39119081220325
 20
252.47813628793907
 10
127.81905199453469
 20
252.21705065202272
 10
128.2464426773276
 20
251.9551955300302
 10
128.67336156182478
 20
251.692571908211
 10
129.0998073499821
 20
251.42918077232162
 10
129.52577874456884
 20
251.1650231078085
 10
129.95127445930467
 20
250.90009991611393
 10
130.3762932270097
 20
250.63441222748935
 10
130.80083378335468
 20
250.36796107467188
 10
131.22489486497216
 20
250.10074748985895
 10
131.64847520943476
 20
249.83277250471005
 10
132.07157355524348
 20
249.56403715034287
 10
132.49418864180012
 20
249.2945424573395
 10
132.91631920939673
 20
249.02428945574178
 10
133.3379639991928
 20
248.7532791750549
 10
133.7591217532014
 20
248.48151264424544
 10
134.17979121426532
 20
248.2089908917464
 10
134.5999711260447
 20
247.93571494545398
 10
135.01966023299678
 20
247.66168583273114
 10
135.43885728035332
 20
247.3869045804115
 10
135.85756101365524
 20
247.1113722140991
 10
136.27577017964583
 20
246.83508975958486
 10
136.6934835262377
 20
246.55805824279824
 10
137.11069980160283
 20
246.28027868846172
 10
137.52741775461845
 20
246.00175212080165
 10
137.94363614290856
 20
245.72247957554148
 10
138.35935374596124
 20
245.4424621192482
 10
138.77456934761844
 20
245.16170082297197
 10
139.18928173267716
 20
244.88019675718445
 10
139.6034896868704
 20
244.59795099177987
 10
140.0171919968476
 20
244.31496459607658
 10
140.4303874501602
 20
244.031238638815
 10
140.84307483524063
 20
243.7467741881608
 10
141.2552529413849
 20
243.4615723117049
 10
141.66692055873358
 20
243.1756340764661
 10
142.0780764782569
 20
242.88896054889
 10
142.48871949173477
 20
242.60155279485176
 10
142.89884839173772
 20
242.31341187965933
 10
143.30846197161108
 20
242.02453886805333
 10
143.71755902545735
 20
241.73493482420955
 10
144.12613834811808
 20
241.44460081174117
 10
144.53419873515392
 20
241.1535378937029
 10
144.94173898283418
 20
240.86174713258885
 10
145.34875788814222
 20
240.5692295903861
 10
145.75525425758516
 20
240.27598634079143
 10
146.16122691931162
 20
239.98201848580368
 10
146.5666747054078
 20
239.6873271309663
 10
146.9715964488958
 20
239.39191338120665
 10
147.37599098371572
 20
239.09577834083777
 10
147.7798571447076
 20
238.79892311355854
 10
148.18319376759055
 20
238.5013488024573
 10
148.5859996889495
 20
238.20305651000982
 10
148.98827374621396
 20
237.90404733808344
 10
149.3900147776414
 20
237.6043223879376
 10
149.7912216222997
 20
237.3038827602259
 10
150.19189312004906
 20
237.00272955499824
 10
150.59202811152542
 20
236.7008638717021
 10
150.9916254381206
 20
236.39828680918717
 10
151.39068394196707
 20
236.0949994657056
 10
151.7892024659208
 20
235.79100293891477
 10
152.18717985354135
 20
235.48629832588205
 10
152.58461494907743
 20
235.18088672308568
 10
152.98150659789025
 20
234.87476922699267
 10
153.37785366432584
 20
234.56794695714473
 10
153.77365503803316
 20
234.26042106400388
 10
154.1689096113746
 20
233.95219269952702
 10
154.56361627771153
 20
233.64326301497104
 10
154.95777393138522
 20
233.33363316089373
 10
155.35138146769708
 20
233.02330428715544
 10
155.74443778289768
 20
232.71227754291502
 10
156.13694177415903
 20
232.4005540766378
 10
156.52889233956384
 20
232.08813503609164
 10
156.92028837808272
 20
231.77502156835175
 10
157.31112878955986
 20
231.46121481979932
 10
157.70141247469294
 20
231.1467159361254
 10
158.09113833458534
 20
230.83152606180388
 10
158.48030527143723
 20
230.51564634097238
 10
158.86891218897645
 20
230.19907791797567
 10
159.2569579911396
 20
229.88182193576233
 10
159.644441582626
 20
229.56387953660374
 10
160.03136186888221
 20
229.245251862095
 10
160.4177177543777
 20
228.92594005109157
 10
160.80350813034357
 20
228.60594522498397
 10
161.18873188185262
 20
228.28526849645712
 10
161.57338789454025
 20
227.96391097768955
 10
161.9574750546387
 20
227.6418737804098
 10
162.34099224896138
 20
227.3191580159013
 10
162.72393836488638
 20
226.99576479500757
 10
163.10631229034217
 20
226.67169522813592
 10
163.4881129137918
 20
226.3469504252631
 10
163.86933912421605
 20
226.02153149594125
 10
164.24998981110366
 20
225.69543954929912
 10
164.63006386443155
 20
225.36867569405078
 10
165.00956017465091
 20
225.04124103850052
 10
165.38847763267577
 20
224.71313669054518
 10
165.76681512986215
 20
224.38436375768538
 10
166.1445715579985
 20
224.05492334702672
 10
166.52174580929054
 20
223.72481656528612
 10
166.8983367763446
 20
223.3940445188001
 10
167.27434335248572
 20
223.06260831390242
 10
167.6497644576373
 20
222.73050908618322
 10
168.02459905716134
 20
222.39774802133854
 10
168.39884612163823
 20
222.06432630933378
 10
168.77250462247972
 20
221.73024513943065
 10
169.1455735319096
 20
221.39550570019136
 10
169.51805182294336
 20
221.06010917948447
 10
169.88993846937672
 20
220.72405676448284
 10
170.26123244576274
 20
220.38734964167156
 10
170.63193272739852
 20
220.04998899684819
 10
171.00203829030653
 20
219.71197601512776
 10
171.37154811121988
 20
219.37331188094407
 10
171.74046116756438
 20
219.033997778055
 10
172.1087764374423
 20
218.69403488954555
 10
172.47649289961194
 20
218.35342439783517
 10
172.84360953347837
 20
218.0121674846758
 10
173.21012531907024
 20
217.67026533116197
 10
173.57603923702732
 20
217.32771911773165
 10
173.94135026858294
 20
216.98453002417185
 10
174.30605741515302
 20
216.6406992503998
 10
174.67015976468613
 20
216.29622808634053
 10
175.03365642987526
 20
215.9511178456209
 10
175.3965465248114
 20
215.60536984070583
 10
175.75882916495408
 20
215.25898538290272
 10
176.12050346711365
 20
214.9119657823566
 10
176.48156854943178
 20
214.5643123480477
 10
176.8420235313568
 20
214.21602638779274
 10
177.2018675336256
 20
213.86710920824197
 10
177.56109967824057
 20
213.51756211487958
 10
177.91971908845045
 20
213.1673864120216
 10
178.2777248887282
 20
212.81658340281675
 10
178.6351162047498
 20
212.46515438924627
 10
178.99189216304586
 20
212.11310067178752
 10
179.348051891206
 20
211.7604235496541
 10
179.70359451915203
 20
211.40712432209273
 10
180.05851917716964
 20
211.05320428641133
 10
180.41282499664513
 20
210.69866473875135
 10
180.76651108515497
 20
210.3435069493267
 10
181.11957637869386
 20
209.98773201614694
 10
181.47201974021584
 20
209.63134096479152
 10
181.8238400320637
 20
209.27433482087164
 10
182.17503611622445
 20
208.91671461029995
 10
182.52560685431828
 20
208.55848135930876
 10
182.87555110759624
 20
208.1996360944575
 10
183.2248677369306
 20
207.84017984264935
 10
183.57355560280837
 20
207.48011363114406
 10
183.92161356532446
 20
207.11943848757159
 10
184.2690404841752
 20
206.75815543994617
 10
184.61583521865597
 20
206.39626551667482
 10
184.9619966276469
 20
206.03376974658048
 10
185.30752356961352
 20
205.67066915890788
 10
185.6524149025988
 20
205.30696478333996
 10
185.99666948421628
 20
204.9426576500128
 10
186.34028617164563
 20
204.5777487895285
 10
186.68326382162428
 20
204.2122392329714
 10
187.02560132928892
 20
203.84613004819883
 10
187.36729788609617
 20
203.47942257967628
 10
187.70835282153396
 20
203.11211829779035
 10
188.0487654677414
 20
202.74421867173143
 10
188.3885351587526
 20
202.37572516880905
 10
188.72766123047032
 20
202.00663925444704
 10
189.06614302063886
 20
201.63696239217805
 10
189.403979868816
 20
201.26669604364025
 10
189.74117111634607
 20
200.89584166857284
 10
190.07771610633432
 20
200.52440072481045
 10
190.41361418361913
 20
200.1523746682804
 10
190.7488646947451
 20
199.77976495299873
 10
191.08346698793528
 20
199.4065730310682
 10
191.41742041306813
 20
199.0328003526709
 10
191.75072432164524
 20
198.6584483660715
 10
192.08337806676886
 20
198.28351851760982
 10
192.41538100311593
 20
197.9080122516977
 10
192.74673248690837
 20
197.53193101082036
 10
193.07743182499905
 20
197.15527619089528
 10
193.40747804987174
 20
196.77804894503345
 10
193.7368701011747
 20
196.40025034511547
 10
194.06560691815628
 20
196.02188146332304
 10
194.3936874397334
 20
195.64294337221037
 10
194.72111060448438
 20
195.26343714471858
 10
195.04787535064372
 20
194.88336385418867
 10
195.3739806160965
 20
194.50272457437558
 10
195.69942533837198
 20
194.1215203794623
 10
196.0242084546426
 20
193.73975234406882
 10
196.3483289017124
 20
193.3574215432734
 10
196.67178561601892
 20
192.97452905261804
 10
196.99457753362387
 20
192.5910759481279
 10
197.31670359020902
 20
192.20706330632382
 10
197.63816272107582
 20
191.82249220423193
 10
197.95895386113327
 20
191.43736371940656
 10
198.27907594463767
 20
191.0516789297158
 10
198.59852790527466
 20
190.6654389134421
 10
198.91730877177494
 20
190.27864482803818
 10
199.23541781561485
 20
189.8912980304184
 10
199.55285434830722
 20
189.50339990827598
 10
199.8696176825522
 20
189.11495184794327
 10
200.18570713221823
 20
188.72595523438974
 10
200.50112201232145
 20
188.33641145122283
 10
200.81586163900388
 20
187.94632188069085
 10
201.12992532951426
 20
187.5556879036818
 10
201.4433124021835
 20
187.16451089972998
 10
201.75602217640926
 20
186.7727922470114
 10
202.06805397263207
 20
186.38053332234998
 10
202.37940711231553
 20
185.98773550121797
 10
202.69008091792625
 20
185.59440015773941
 10
203.00007471291417
 20
185.20052866468984
 10
203.30938782168963
 20
184.8061223935039
 10
203.61801956960983
 20
184.4111827142689
 10
203.92596928294924
 20
184.0157109957399
 10
204.23323628620707
 20
183.61970860325664
 10
204.53981984343233
 20
183.2231768534483
 10
204.84571915817847
 20
182.82611701485442
 10
205.15093343185114
 20
182.42853035341713
 10
205.45546186633254
 20
182.0304181345425
 10
205.75930366397088
 20
181.63178162310444
 10
206.06245802756573
 20
181.23262208345355
 10
206.3649241603588
 20
180.83294077941963
 10
206.66670126601576
 20
180.4327389743261
 10
206.96778854861782
 20
180.0320179309916
 10
207.26818521264957
 20
179.63077891173694
 10
207.56789046298434
 20
179.2290231783954
 10
207.86690350487424
 20
178.8267519923171
 10
208.16522354393408
 20
178.423966614382
 10
208.46284978613681
 20
178.02066830499732
 10
208.75978143779386
 20
177.6168583241159
 10
209.05601770554827
 20
177.21253793123708
 10
209.3515577963615
 20
176.8077083854167
 10
209.6464009225158
 20
176.4023709489223
 10
209.94054631699544
 20
175.99652689834312
 10
210.23399321836726
 20
175.5901775134821
 10
210.52674086561967
 20
175.18332407359247
 10
210.81878849814524
 20
174.77596785739203
 10
211.1101353557311
 20
174.36811014306687
 10
211.40078067854614
 20
173.95975220827884
 10
211.69072370712817
 20
173.55089533017468
 10
211.9799636823731
 20
173.14154078539195
 10
212.26849984552143
 20
172.73168985006834
 10
212.5563314381493
 20
172.32134379984586
 10
212.84345770215313
 20
171.9105039098841
 10
213.12987787973944
 20
171.49917145486526
 10
213.4155912134151
 20
171.0873477090006
 10
213.700596945971
 20
170.67503394604518
 10
213.98489432047728
 20
170.26223143929676
 10
214.26848258026587
 20
169.84894146161326
 10
214.5513609721253
 20
169.43516528760296
 10
214.83352879257833
 20
169.02090422511884
 10
215.114985377526
 20
168.60615960778264
 10
215.39573006453912
 20
168.1909327690984
 10
215.67576219147895
 20
167.77522504152972
 10
215.95508109653875
 20
167.3590377565459
 10
216.2336861199793
 20
166.9423722457983
 10
216.51157660172575
 20
166.52522983952355
 10
216.78875188225786
 20
166.10761186715408
 10
217.06521130259327
 20
165.68951965732802
 10
217.34095420427423
 20
165.27095453789403
 10
217.61597992935407
 20
164.85191783591785
 10
217.8902878203825
 20
164.4324108776896
 10
218.16387722039408
 20
164.01243498872773
 10
218.4367474728895
 20
163.59199149379256
 10
218.7088979218283
 20
163.17108171688452
 10
218.98032791161117
 20
162.74970698125722
 10
219.25103678696908
 20
162.32786860936253
 10
219.52102388502456
 20
161.9055679177905
 10
219.7902885294088
 20
161.4828062136101
 10
220.05883004275898
 20
161.05958480245081
 10
220.32664774808822
 20
160.63590498940272
 10
220.59374096877778
 20
160.21176807901705
 10
220.860109028562
 20
159.78717537532057
 10
221.12575125152048
 20
159.36212818181758
 10
221.39066696206325
 20
158.93662780150387
 10
221.65485548492134
 20
158.51067553687184
 10
221.91831614513626
 20
158.08427268991792
 10
222.18104826804705
 20
157.65742056215416
 10
222.44305117928224
 20
157.23012045461223
 10
222.70432420474643
 20
156.8023736678553
 10
222.96486667061137
 20
156.3741815019856
 10
223.2246779033033
 20
155.9455452566545
 10
223.48375722949504
 20
155.5164662310687
 10
223.742103976105
 20
155.08694572400637
 10
223.99971748648005
 20
154.65698504352108
 10
224.25659715321558
 20
154.22658552640343
 10
224.51274237858195
 20
153.7957485142234
 10
224.7681525653334
 20
153.36447534780814
 10
225.02282711669605
 20
152.93276736724815
 10
225.2767654363527
 20
152.50062591190718
 10
225.52996692843232
 20
152.06805232042663
 10
225.7824309974967
 20
151.63504793073423
 10
226.03415704852657
 20
151.201614080053
 10
226.28514448691158
 20
150.76775210490496
 10
226.53539271843528
 20
150.3334633411236
 10
226.78490114926626
 20
149.898749123856
 10
227.03366918594222
 20
149.46361078757604
 10
227.28169623536067
 20
149.02804966608912
 10
227.52898170476533
 20
148.592067092542
 10
227.7755250017348
 20
148.15566439943032
 10
228.02132553417206
 20
147.71884291860482
 10
228.26638271208344
 20
147.28160398228772
 10
228.5106959531554
 20
146.8439489261829
 10
228.75426467734118
 20
146.40587908641143
 10
228.99708830497337
 20
145.96739579847028
 10
229.23916625675375
 20
145.52850039723796
 10
229.4804979537423
 20
145.08919421698243
 10
229.72108281734407
 20
144.64947859137115
 10
229.9609202693013
 20
144.20935485347513
 10
230.2000097316794
 20
143.7688243357811
 10
230.43835062685716
 20
143.32788837019802
 10
230.67594237751592
 20
142.88654828806605
 10
230.9127844059446
 20
142.44480541979695
 10
231.14887613549342
 20
142.00266109567823
 10
231.384216990272
 20
141.56011664570886
 10
231.61880639406527
 20
141.11717339903814
 10
231.85264377090581
 20
140.67383268429361
 10
232.0857285450666
 20
140.23009582958466
 10
232.31806015356932
 20
139.78596416905768
 10
232.54963808603114
 20
139.34143906356275
 10
232.78046184618677
 20
138.896521880268
 10
233.01053093826084
 20
138.45121398549992
 10
233.23984486695068
 20
138.005516744758
 10
233.4684031374163
 20
137.55943152271718
 10
233.6962052552662
 20
137.11295968323725
 10
233.9232507265464
 20
136.66610258936785
 10
234.14953905772657
 20
136.21886160335796
 10
234.37506975568633
 20
135.77123808666667
 10
234.59984232770682
 20
135.32323339996248
 10
234.82385628145465
 20
134.87484890313914
 10
235.04711112497114
 20
134.42608595532093
 10
235.26960636666078
 20
133.9769459148693
 10
235.4913415152781
 20
133.52743013939354
 10
235.71231607991646
 20
133.07753998575774
 10
235.93252956999152
 20
132.62727681008465
 10
236.15198147787555
 20
132.17664195932755
 10
236.37067124049398
 20
131.72563675278894
 10
236.58859828376885
 20
131.27426250405975
 10
236.8057620337528
 20
130.82252052648036
 10
237.0221619166203
 20
130.3704121331548
 10
237.23779735866162
 20
129.91793863695563
 10
237.45266778627555
 20
129.46510135053688
 10
237.66677262596127
 20
129.0119015863445
 10
237.88011130431158
 20
128.55834065662722
 10
238.09268324800715
 20
128.10441987344433
 10
238.3044878838086
 20
127.65014054867791
 10
238.51552463855032
 20
127.19550399404322
 10
238.7257929391336
 20
126.7405115210991
 10
238.93529221252078
 20
126.28516444125778
 10
239.14402188572865
 20
125.8294640657957
 10
239.35198138582226
 20
125.37341170586441
 10
239.5591701402976
 20
124.91700867267802
 10
239.76558762990845
 20
124.46025630138018
 10
239.97123344251128
 20
124.00315597487328
 10
240.1761071791965
 20
123.54570908092765
 10
240.38020844151018
 20
123.08791700638515
 10
240.58353683144227
 20
122.62978113716281
 10
240.78609195141357
 20
122.17130285826235
 10
240.9878734042605
 20
121.71248355378201
 10
241.18888079322645
 20
121.2533246069171
 10
241.38911372194616
 20
120.79382739997361
 10
241.5885717944348
 20
120.3339933143737
 10
241.78725461507474
 20
119.87382373066508
 10
241.98516178860342
 20
119.41332002853004
 10
242.18229292010167
 20
118.9524835867919
 10
242.37864761498219
 20
118.49131578342264
 10
242.5742254789762
 20
118.02981799555464
 10
242.76902611812355
 20
117.56799159948517
 10
242.9630491381594
 20
117.10583797044232
 10
243.1562941298992
 20
116.64335847648614
 10
243.34876066837927
 20
116.18055447828948
 10
243.54044832796797
 20
115.71742733552882
 10
243.73135668254767
 20
115.2539784069838
 10
243.92148530832895
 20
114.79020905170871
 10
244.11083378065436
 20
114.32612062772252
 10
244.29940167511162
 20
113.8617144924854
 10
244.4871885675236
 20
113.3969920029085
 10
244.6741940339412
 20
112.93195451535927
 10
244.86041765063212
 20
112.46660338567598
 10
245.04585899407272
 20
112.00093996917452
 10
245.23051764093967
 20
111.53496562065783
 10
245.4143931681013
 20
111.0686816944239
 10
245.59748515260767
 20
110.60208954428008
 10
245.77979317168325
 20
110.1351905235484
 10
245.96131680271873
 20
109.66798598507623
 10
246.1420556275326
 20
109.20047728289737
 10
246.32200925875847
 20
108.7326657823599
 10
246.50117732267353
 20
108.26455285333667
 10
246.67955944589661
 20
107.79613986506652
 10
246.8571552553218
 20
107.32742818614314
 10
247.03396437810957
 20
106.85841918452188
 10
247.209986441677
 20
106.3891142275294
 10
247.38522107368863
 20
105.91951468187239
 10
247.55966790204744
 20
105.44962191364493
 10
247.73332655488304
 20
104.97943728834527
 10
247.90619666054593
 20
104.50896217087546
 10
248.07827784759607
 20
104.03819792555771
 10
248.2495697447956
 20
103.56714591613877
 10
248.42007198109786
 20
103.09580750580572
 10
248.58978418564084
 20
102.62418405718901
 10
248.7587059877367
 20
102.1522769323782
 10
248.92683701682668
 20
101.68008749291329
 10
249.09417689590936
 20
101.2076170974736
 10
249.26072523404662
 20
100.73486709929918
 10
249.4264816386336
 20
100.26183885060962
 10
249.59144571720498
 20
99.78853370325406
 10
249.7556170774243
 20
99.31495300873073
 10
249.9189953270806
 20
98.84109811818796
 10
250.08158007407948
 20
98.3669703824403
 10
250.24337092643694
 20
97.89257115197786
 10
250.40436749227422
 20
97.41790177697185
 10
250.5645693798095
 20
96.94296360729092
 10
250.72397619735193
 20
96.4677579925114
 10
250.88258755329667
 20
95.99228628192216
 10
251.0404030561181
 20
95.5165498245389
 10
251.19742231436328
 20
95.04054996911579
 10
251.35364493664653
 20
94.56428806415447
 10
251.50907053164408
 20
94.08776545791365
 10
251.6636987174513
 20
93.61098350145636
 10
251.81752921314998
 20
93.13394357810236
 10
251.9705617996265
 20
92.6566470901743
 10
252.12279625902414
 20
92.17909543923477
 10
252.27423237385693
 20
91.70129002580865
 10
252.42486992699574
 20
91.2232322493956
 10
252.5747087016588
 20
90.74492350847179
 10
252.72374848139637
 20
90.26636520050691
 10
252.8719890500806
 20
89.7875587219679
 10
253.01943019189477
 20
89.3085054683247
 10
253.1660716913184
 20
88.8292068340672
 10
253.3119133331183
 20
88.34966421270741
 10
253.45695490233553
 20
87.86987899679252
 10
253.6011961840961
 20
87.38985257785573
 10
253.74463696298434
 20
86.90958634625159
 10
253.88727702594778
 20
86.42908169202751
 10
254.02911615882098
 20
85.94834000390001
 10
254.17015412167464
 20
85.4673626620552
 10
254.31039062273797
 20
84.98615103073698
 10
254.44982536420036
 20
84.5047064719015
 10
254.58845804840553
 20
84.02303034706273
 10
254.72628837784572
 20
83.54112401729726
 10
254.86331605515414
 20
83.05898884325853
 10
254.9995407830979
 20
82.57662618518718
 10
255.1349622645718
 20
82.09403740292005
 10
255.26958020259258
 20
81.61122385589772
 10
255.40339430029178
 20
81.12818690317718
 10
255.5364042609091
 20
80.64492790344454
 10
255.66860978778683
 20
80.16144821502107
 10
255.80001058436437
 20
79.67774919587363
 10
255.93060635417083
 20
79.19383220362924
 10
256.0603968008197
 20
78.70969859558288
 10
256.18938162800515
 20
78.2253497287032
 10
256.31756054537925
 20
77.74078696120702
 10
256.44493329760144
 20
77.2560116601564
 10
256.5714996423062
 20
76.77102519547942
 10
256.6972593373052
 20
76.28582893656905
 10
256.8222121405595
 20
75.8004242522887
 10
256.9463578101729
 20
75.31481251098224
 10
257.0696961043837
 20
74.82899508048656
 10
257.19222678155853
 20
74.34297332813777
 10
257.31394960018605
 20
73.85674862078075
 10
257.4348643188686
 20
73.37032232478326
 10
257.5549706963166
 20
72.88369580604372
 10
257.6742684913415
 20
72.3968704300007
 10
257.79275746284924
 20
71.90984756164522
 10
257.910437369834
 20
71.4226285655307
 10
258.0273079713713
 20
70.9352148057841
 10
258.14336902661285
 20
70.44760764611381
 10
258.25862029727136
 20
69.95980845040923
 10
258.3730615885516
 20
69.47181859232721
 10
258.4866927426981
 20
68.98363945351583
 10
258.59951360334253
 20
68.49527241512183
 10
258.71152401432425
 20
68.00671885752627
 10
258.82272381968204
 20
67.51798016034942
 10
258.93311286364434
 20
67.02905770246495
 10
259.0426909906218
 20
66.53995286200553
 10
259.1514580451971
 20
66.05066701637662
 10
259.2594138721176
 20
65.56120154226397
 10
259.3665583162867
 20
65.07155781564201
 10
259.47289122275447
 20
64.58173721179124
 10
259.5784124367115
 20
64.09174110529555
 10
259.6831218034787
 20
63.601570870065274
 10
259.7870191685008
 20
63.11122787933816
 10
259.8901043773379
 20
62.62071350569397
 10
259.9923772755809
 20
62.13002912104768
 10
260.09383770400984
 20
61.639176095660886
 10
260.1944854957099
 20
61.148155797595265
 10
260.2943204832015
 20
60.65696959423195
 10
260.3933424991318
 20
60.16561885242003
 10
260.4915513762666
 20
59.67410493849428
 10
260.58894694748585
 20
59.182429218273214
 10
260.6855290457748
 20
58.690593057084584
 10
260.7812975042193
 20
58.198597819766
 10
260.87625215523894
 20
57.70644487053146
 10
260.9703928322836
 20
57.21413557331141
 10
261.0637193692808
 20
56.72167129165521
 10
261.1562315996568
 20
56.229053388552614
 10
261.2479293569076
 20
55.736283226558506
 10
261.3388124745949
 20
55.24336216779983
 10
261.42888078633854
 20
54.7502915739931
 10
261.5181341258657
 20
54.25707280645543
 10
261.60657234842176
 20
53.76370722995516
 10
261.6941953637191
 20
53.27019621842893
 10
261.78100309011376
 20
52.77654114657598
 10
261.86699544613106
 20
52.28274338832189
 10
261.95217235045584
 20
51.78880431683787
 10
262.03653372192605
 20
51.294725304538545
 10
262.12007947952276
 20
50.80050772310475
 10
262.2028095423631
 20
50.30615294348577
 10
262.2847238296929
 20
49.811662335909524
 10
262.3658222608777
 20
49.31703726989618
 10
262.4461047553959
 20
48.822279114267566
 10
262.52557123283145
 20
48.32738923715279
 10
262.6042216128654
 20
47.83236900600627
 10
262.68205581526996
 20
47.337219787609534
 10
262.7590737599
 20
46.84194294808818
 10
262.8352753666858
 20
46.34653985292083
 10
262.9106605526087
 20
45.85101186648837
 10
262.9852292245088
 20
45.35536035102708
 10
263.0589812871555
 20
44.85958666790235
 10
263.1319166454025
 20
44.36369217796062
 10
263.20403520418273
 20
43.86767824153171
 10
263.2753368685018
 20
43.37154621844516
 10
263.34582154343275
 20
42.87529746803944
 10
263.41548913411026
 20
42.37893334916985
 10
263.48433954572573
 20
41.882455220218944
 10
263.55237268352073
 20
41.38586443911237
 10
263.6195884527829
 20
40.88916236332366
 10
263.6859867588404
 20
40.39235034988663
 10
263.7515675070564
 20
39.89542975540761
 10
263.8163306028249
 20
39.39840193607388
 10
263.8802759515654
 20
38.901268247663694
 10
263.9434034587188
 20
38.40403004556294
 10
264.0057130544801
 20
37.90668868785722
 10
264.0672047605178
 20
37.40924554344192
 10
264.1278786198013
 20
36.91170198286836
 10
264.1877346755029
 20
36.414059375677155
 10
264.2467729709893
 20
35.916319090396144
 10
264.30499354981146
 20
35.41848249455788
 10
264.3623964556946
 20
34.92055095470794
 10
264.4189817325301
 20
34.422525836408816
 10
264.47474942436446
 20
33.92440850426223
 10
264.5296995753915
 20
33.42620032190581
 10
264.58383222994246
 20
32.92790265203214
 10
264.63714743247795
 20
32.42951685639104
 10
264.68964522757784
 20
31.931044295807485
 10
264.7413256599333
 20
31.43248633018804
 10
264.7921887743382
 20
30.933844318529868
 10
264.84223461566523
 20
30.435119618931505
 10
264.8914631552871
 20
29.936313581372254
 10
264.9398741197365
 20
29.437427531541076
 10
264.9874671844875
 20
28.938462790948403
 10
265.03424202479073
 20
28.439420682046915
 10
265.0801983156775
 20
27.94030252825688
 10
265.12533573132134
 20
27.4411096539108
 10
265.1696539462914
 20
26.941843384390317
 10
265.2131526357006
 20
26.442505046137462
 10
265.2558314737776
 20
25.943095966544526
 10
265.2976901345686
 20
25.44361747402701
 10
265.33872829194405
 20
24.944070898041925
 10
265.3789456196069
 20
24.444457569092688
 10
265.4183417911002
 20
23.9447788187441
 10
265.45691647981414
 20
23.445035979640075
 10
265.4946693589955
 20
22.94523038550674
 10
265.5316001028146
 20
22.44536337124702
 10
265.56770879032456
 20
21.94543630198512
 10
265.6029965152181
 20
21.445450613639682
 10
265.63746452828207
 20
20.945407747140685
 10
265.67111408115653
 20
20.44530913682788
 10
265.70394642627775
 20
19.945156210471854
 10
265.7359628168221
 20
19.444950389286586
 10
265.76716450664924
 20
18.944693087946426
 10
265.79755275024735
 20
18.444385714598194
 10
265.82712880267735
 20
17.94402967088685
 10
265.85589391951873
 20
17.443626351963648
 10
265.8838493568148
 20
16.943177146508066
 10
265.91099637101934
 20
16.442683436742946
 10
265.93733621894273
 20
15.942146598453075
 10
265.96287015769934
 20
15.441568001005871
 10
265.9875994446552
 20
14.940949007364209
 10
266.01152530374867
 20
14.440290972525009
 10
266.0346466911643
 20
13.939595141172182
 10
266.0569588940883
 20
13.438862598774488
 10
266.07845686358064
 20
12.938094438799233
 10
266.09913554883366
 20
12.437291779031144
 10
266.11898989735363
 20
11.936455761745789
 10
266.13801485514773
 20
11.435587553876168
 10
266.15620536691506
 20
10.934688347191594
 10
266.1735563762449
 20
10.433759358460856
 10
266.19006282581836
 20
9.932801829631835
 10
266.2057196576175
 20
9.431817027989027
 10
266.2205218131379
 20
8.930806246333976
 10
266.2344642336085
 20
8.429770803141677
 10
266.24754186021596
 20
7.928712042731073
 10
266.2597496343348
 20
7.427631335436497
 10
266.27108253033424
 20
6.926530078469718
 10
266.2815400056518
 20
6.4254097872328515
 10
266.29113053486384
 20
5.92427215322901
 10
266.299863675656
 20
5.423118843264404
 10
266.30774898782636
 20
4.9219514749704985
 10
266.31479603282776
 20
4.420771617346637
 10
266.32101437332966
 20
3.91958079131635
 10
266.3264135727996
 20
3.418380470277599
 10
266.33100319510345
 20
2.9171720806581507
 10
266.334792804125
 20
2.4159570024739545
 10
266.33779196340384
 20
1.9147365698886114
 10
266.3400102357921
 20
1.4135120717728935
 10
266.34145718312925
 20
0.9122847522699276
 10
266.34214236593505
 20
0.41105581135280084
 10
266.3420874008488
 20
0.0
  0
ENDSEC
  0
SECTION
  2
OBJECTS
  0
DICTIONARY
  5
A
330
0
100
AcDbDictionary
280
0
281
1
  3
ACAD_COLOR
350
B
  3
ACAD_GROUP
350
C
  3
ACAD_LAYOUT
350
D
  3
ACAD_MATERIAL
350
E
  3
ACAD_MLEADERSTYLE
350
F
  3
ACAD_MLINESTYLE
350
10
  3
ACAD_PLOTSETTINGS
350
11
  3
ACAD_PLOTSTYLENAME
350
12
  3
ACAD_SCALELIST
350
14
  3
ACAD_TABLESTYLE
350
15
  3
ACAD_VISUALSTYLE
350
16
  3
EZDXF_META
350
2D
  0
DICTIONARY
  5
B
330
A
100
AcDbDictionary
280
0
281
1
  0
DICTIONARY
  5
C
330
A
100
AcDbDictionary
280
0
281
1
  0
DICTIONARY
  5
D
330
A
100
AcDbDictionary
280
0
281
1
  3
Model
350
1A
  3
Layout1
350
1E
  0
DICTIONARY
  5
E
330
A
100
AcDbDictionary
280
0
281
1
  3
ByBlock
350
1F
  3
ByLayer
350
20
  3
Global
350
21
  0
DICTIONARY
  5
F
330
A
100
AcDbDictionary
280
0
281
1
  3
Standard
350
2C
  0
DICTIONARY
  5
10
330
A
100
AcDbDictionary
280
0
281
1
  3
Standard
350
22
  0
DICTIONARY
  5
11
330
A
100
AcDbDictionary
280
0
281
1
  0
ACDBDICTIONARYWDFLT
  5
12
330
A
100
AcDbDictionary
280
0
281
1
  3
Normal
350
13
100
AcDbDictionaryWithDefault
340
13
  0
ACDBPLACEHOLDER
  5
13
330
12
  0
DICTIONARY
  5
14
330
A
100
AcDbDictionary
280
0
281
1
  0
DICTIONARY
  5
15
330
A
100
AcDbDictionary
280
0
281
1
  0
DICTIONARY
  5
16
330
A
100
AcDbDictionary
280
0
281
1
  0
LAYOUT
  5
1A
330
D
100
AcDbPlotSettings
  1

  4
A3
  6

 40
7.5
 41
20.0
 42
7.5
 43
20.0
 44
420.0
 45
297.0
 46
0.0
 47
0.0
 48
0.0
 49
0.0
140
0.0
141
0.0
142
1.0
143
1.0
 70
1024
 72
1
 73
0
 74
5
  7

 75
16
 76
0
 77
2
 78
300
147
1.0
148
0.0
149
0.0
100
AcDbLayout
  1
Model
 70
1
 71
0
 10
0.0
 20
0.0
 11
420.0
 21
297.0
 12
0.0
 22
0.0
 32
0.0
 14
1e+20
 24
1e+20
 34
1e+20
 15
-1e+20
 25
-1e+20
 35
-1e+20
146
0.0
 13
0.0
 23
0.0
 33
0.0
 16
1.0
 26
0.0
 36
0.0
 17
0.0
 27
1.0
 37
0.0
 76
1
330
17
  0
LAYOUT
  5
1E
330
D
100
AcDbPlotSettings
  1

  4
A3
  6

 40
7.5
 41
20.0
 42
7.5
 43
20.0
 44
420.0
 45
297.0
 46
0.0
 47
0.0
 48
0.0
 49
0.0
140
0.0
141
0.0
142
1.0
143
1.0
 70
0
 72
1
 73
0
 74
5
  7

 75
16
 76
0
 77
2
 78
300
147
1.0
148
0.0
149
0.0
100
AcDbLayout
  1
Layout1
 70
1
 71
1
 10
0.0
 20
0.0
 11
420.0
 21
297.0
 12
0.0
 22
0.0
 32
0.0
 14
1e+20
 24
1e+20
 34
1e+20
 15
-1e+20
 25
-1e+20
 35
-1e+20
146
0.0
 13
0.0
 23
0.0
 33
0.0
 16
1.0
 26
0.0
 36
0.0
 17
0.0
 27
1.0
 37
0.0
 76
1
330
1B
  0
MATERIAL
  5
1F
102
{ACAD_REACTORS
330
E
102
}
330
E
100
AcDbMaterial
  1
ByBlock
  2

 70
0
 40
1.0
 71
1
 41
1.0
 91
-1023410177
 42
1.0
 72
1
  3

 73
1
 74
1
 75
1
 44
0.5
 73
0
 45
1.0
 46
1.0
 77
1
  4

 78
1
 79
1
170
1
 48
1.0
171
1
  6

172
1
173
1
174
1
140
1.0
141
1.0
175
1
  7

176
1
177
1
178
1
143
1.0
179
1
  8

270
1
271
1
272
1
145
1.0
146
1.0
273
1
  9

274
1
275
1
276
1
 42
1.0
 72
1
  3

 73
1
 74
1
 75
1
 94
63
  0
MATERIAL
  5
20
102
{ACAD_REACTORS
330
E
102
}
330
E
100
AcDbMaterial
  1
ByLayer
  2

 70
0
 40
1.0
 71
1
 41
1.0
 91
-1023410177
 42
1.0
 72
1
  3

 73
1
 74
1
 75
1
 44
0.5
 73
0
 45
1.0
 46
1.0
 77
1
  4

 78
1
 79
1
170
1
 48
1.0
171
1
  6

172
1
173
1
174
1
140
1.0
141
1.0
175
1
  7

176
1
177
1
178
1
143
1.0
179
1
  8

270
1
271
1
272
1
145
1.0
146
1.0
273
1
  9

274
1
275
1
276
1
 42
1.0
 72
1
  3

 73
1
 74
1
 75
1
 94
63
  0
MATERIAL
  5
21
102
{ACAD_REACTORS
330
E
102
}
330
E
100
AcDbMaterial
  1
Global
  2

 70
0
 40
1.0
 71
1
 41
1.0
 91
-1023410177
 42
1.0
 72
1
  3

 73
1
 74
1
 75
1
 44
0.5
 73
0
 45
1.0
 46
1.0
 77
1
  4

 78
1
 79
1
170
1
 48
1.0
171
1
  6

172
1
173
1
174
1
140
1.0
141
1.0
175
1
  7

176
1
177
1
178
1
143
1.0
179
1
  8

270
1
271
1
272
1
145
1.0
146
1.0
273
1
  9

274
1
275
1
276
1
 42
1.0
 72
1
  3

 73
1
 74
1
 75
1
 94
63
  0
MLINESTYLE
  5
22
102
{ACAD_REACTORS
330
10
102
}
330
10
100
AcDbMlineStyle
  2
Standard
 70
0
  3

 62
256
 51
90.0
 52
90.0
 71
2
 49
0.5
 62
256
  6
BYLAYER
 49
-0.5
 62
256
  6
BYLAYER
  0
MLEADERSTYLE
  5
2C
102
{ACAD_REACTORS
330
F
102
}
330
F
100
AcDbMLeaderStyle
179
2
170
2
171
1
172
0
 90
2
 40
0.0
 41
0.0
173
1
 91
-1056964608
 92
-2
290
1
 42
2.0
291
1
 43
8.0
  3
Standard
 44
4.0
300

342
29
174
1
175
1
176
0
178
1
 93
-1056964608
 45
4.0
292
0
297
0
 46
4.0
 94
-1056964608
 47
1.0
 49
1.0
140
1.0
294
1
141
0.0
177
0
142
1.0
295
0
296
0
143
3.75
271
0
272
9
273
9
  0
DICTIONARY
  5
2D
330
A
100
AcDbDictionary
281
1
  3
CREATED_BY_EZDXF
350
2E
  3
WRITTEN_BY_EZDXF
350
32
  0
DICTIONARYVAR
  5
2E
330
2D
100
DictionaryVariables
280
0
  1
1.3.2 @ 2025-12-24T02:47:40.175000+00:00
  0
DICTIONARYVAR
  5
32
330
2D
100
DictionaryVariables
280
0
  1
1.3.2 @ 2025-12-24T02:47:40.194720+00:00
  0
ENDSEC
  0
EOF
