  0
SECTION
  2
HEADER
  9
$ACADVER
  1
AC1015
  9
$ACADMAINTVER
 70
6
  9
$DWGCODEPAGE
  3
ANSI_1252
  9
$INSBASE
 10
0.0
 20
0.0
 30
0.0
  9
$EXTMIN
 10
1e+20
 20
1e+20
 30
1e+20
  9
$EXTMAX
 10
-1e+20
 20
-1e+20
 30
-1e+20
  9
$LIMMIN
 10
0.0
 20
0.0
  9
$LIMMAX
 10
420.0
 20
297.0
  9
$ORTHOMODE
 70
0
  9
$REGENMODE
 70
1
  9
$FILLMODE
 70
1
  9
$QTEXTMODE
 70
0
  9
$MIRRTEXT
 70
1
  9
$LTSCALE
 40
1.0
  9
$ATTMODE
 70
1
  9
$TEXTSIZE
 40
2.5
  9
$TRACEWID
 40
1.0
  9
$TEXTSTYLE
  7
Standard
  9
$CLAYER
  8
0
  9
$CELTYPE
  6
ByLayer
  9
$CECOLOR
 62
256
  9
$CELTSCALE
 40
1.0
  9
$DISPSILH
 70
0
  9
$DIMSCALE
 40
1.0
  9
$DIMASZ
 40
2.5
  9
$DIMEXO
 40
0.625
  9
$DIMDLI
 40
3.75
  9
$DIMRND
 40
0.0
  9
$DIMDLE
 40
0.0
  9
$DIMEXE
 40
1.25
  9
$DIMTP
 40
0.0
  9
$DIMTM
 40
0.0
  9
$DIMTXT
 40
2.5
  9
$DIMCEN
 40
2.5
  9
$DIMTSZ
 40
0.0
  9
$DIMTOL
 70
0
  9
$DIMLIM
 70
0
  9
$DIMTIH
 70
0
  9
$DIMTOH
 70
0
  9
$DIMSE1
 70
0
  9
$DIMSE2
 70
0
  9
$DIMTAD
 70
1
  9
$DIMZIN
 70
8
  9
$DIMBLK
  1

  9
$DIMASO
 70
1
  9
$DIMSHO
 70
1
  9
$DIMPOST
  1

  9
$DIMAPOST
  1

  9
$DIMALT
 70
0
  9
$DIMALTD
 70
3
  9
$DIMALTF
 40
0.03937007874
  9
$DIMLFAC
 40
1.0
  9
$DIMTOFL
 70
1
  9
$DIMTVP
 40
0.0
  9
$DIMTIX
 70
0
  9
$DIMSOXD
 70
0
  9
$DIMSAH
 70
0
  9
$DIMBLK1
  1

  9
$DIMBLK2
  1

  9
$DIMSTYLE
  2
ISO-25
  9
$DIMCLRD
 70
0
  9
$DIMCLRE
 70
0
  9
$DIMCLRT
 70
0
  9
$DIMTFAC
 40
1.0
  9
$DIMGAP
 40
0.625
  9
$DIMJUST
 70
0
  9
$DIMSD1
 70
0
  9
$DIMSD2
 70
0
  9
$DIMTOLJ
 70
0
  9
$DIMTZIN
 70
8
  9
$DIMALTZ
 70
0
  9
$DIMALTTZ
 70
0
  9
$DIMUPT
 70
0
  9
$DIMDEC
 70
2
  9
$DIMTDEC
 70
2
  9
$DIMALTU
 70
2
  9
$DIMALTTD
 70
3
  9
$DIMTXSTY
  7
Standard
  9
$DIMAUNIT
 70
0
  9
$DIMADEC
 70
0
  9
$DIMALTRND
 40
0.0
  9
$DIMAZIN
 70
0
  9
$DIMDSEP
 70
44
  9
$DIMATFIT
 70
3
  9
$DIMFRAC
 70
0
  9
$DIMLDRBLK
  1

  9
$DIMLUNIT
 70
2
  9
$DIMLWD
 70
-2
  9
$DIMLWE
 70
-2
  9
$DIMTMOVE
 70
0
  9
$LUNITS
 70
2
  9
$LUPREC
 70
4
  9
$SKETCHINC
 40
1.0
  9
$FILLETRAD
 40
10.0
  9
$AUNITS
 70
0
  9
$AUPREC
 70
2
  9
$MENU
  1
.
  9
$ELEVATION
 40
0.0
  9
$PELEVATION
 40
0.0
  9
$THICKNESS
 40
0.0
  9
$LIMCHECK
 70
0
  9
$CHAMFERA
 40
0.0
  9
$CHAMFERB
 40
0.0
  9
$CHAMFERC
 40
0.0
  9
$CHAMFERD
 40
0.0
  9
$SKPOLY
 70
0
  9
$TDCREATE
 40
2460775.4478472224
  9
$TDUCREATE
 40
2458532.153996898
  9
$TDUPDATE
 40
2460775.4478472224
  9
$TDUUPDATE
 40
2458532.1544311
  9
$TDINDWG
 40
0.0
  9
$TDUSRTIMER
 40
0.0
  9
$USRTIMER
 70
1
  9
$ANGBASE
 50
0.0
  9
$ANGDIR
 70
0
  9
$PDMODE
 70
0
  9
$PDSIZE
 40
0.0
  9
$PLINEWID
 40
0.0
  9
$SPLFRAME
 70
0
  9
$SPLINETYPE
 70
6
  9
$SPLINESEGS
 70
8
  9
$HANDSEED
  5
33
  9
$SURFTAB1
 70
6
  9
$SURFTAB2
 70
6
  9
$SURFTYPE
 70
6
  9
$SURFU
 70
6
  9
$SURFV
 70
6
  9
$UCSBASE
  2

  9
$UCSNAME
  2

  9
$UCSORG
 10
0.0
 20
0.0
 30
0.0
  9
$UCSXDIR
 10
1.0
 20
0.0
 30
0.0
  9
$UCSYDIR
 10
0.0
 20
1.0
 30
0.0
  9
$UCSORTHOREF
  2

  9
$UCSORTHOVIEW
 70
0
  9
$UCSORGTOP
 10
0.0
 20
0.0
 30
0.0
  9
$UCSORGBOTTOM
 10
0.0
 20
0.0
 30
0.0
  9
$UCSORGLEFT
 10
0.0
 20
0.0
 30
0.0
  9
$UCSORGRIGHT
 10
0.0
 20
0.0
 30
0.0
  9
$UCSORGFRONT
 10
0.0
 20
0.0
 30
0.0
  9
$UCSORGBACK
 10
0.0
 20
0.0
 30
0.0
  9
$PUCSBASE
  2

  9
$PUCSNAME
  2

  9
$PUCSORG
 10
0.0
 20
0.0
 30
0.0
  9
$PUCSXDIR
 10
1.0
 20
0.0
 30
0.0
  9
$PUCSYDIR
 10
0.0
 20
1.0
 30
0.0
  9
$PUCSORTHOREF
  2

  9
$PUCSORTHOVIEW
 70
0
  9
$PUCSORGTOP
 10
0.0
 20
0.0
 30
0.0
  9
$PUCSORGBOTTOM
 10
0.0
 20
0.0
 30
0.0
  9
$PUCSORGLEFT
 10
0.0
 20
0.0
 30
0.0
  9
$PUCSORGRIGHT
 10
0.0
 20
0.0
 30
0.0
  9
$PUCSORGFRONT
 10
0.0
 20
0.0
 30
0.0
  9
$PUCSORGBACK
 10
0.0
 20
0.0
 30
0.0
  9
$USERI1
 70
0
  9
$USERI2
 70
0
  9
$USERI3
 70
0
  9
$USERI4
 70
0
  9
$USERI5
 70
0
  9
$USERR1
 40
0.0
  9
$USERR2
 40
0.0
  9
$USERR3
 40
0.0
  9
$USERR4
 40
0.0
  9
$USERR5
 40
0.0
  9
$WORLDVIEW
 70
1
  9
$SHADEDGE
 70
3
  9
$SHADEDIF
 70
70
  9
$TILEMODE
 70
1
  9
$MAXACTVP
 70
64
  9
$PINSBASE
 10
0.0
 20
0.0
 30
0.0
  9
$PLIMCHECK
 70
0
  9
$PEXTMIN
 10
1e+20
 20
1e+20
 30
1e+20
  9
$PEXTMAX
 10
-1e+20
 20
-1e+20
 30
-1e+20
  9
$PLIMMIN
 10
0.0
 20
0.0
  9
$PLIMMAX
 10
420.0
 20
297.0
  9
$UNITMODE
 70
0
  9
$VISRETAIN
 70
1
  9
$PLINEGEN
 70
0
  9
$PSLTSCALE
 70
1
  9
$TREEDEPTH
 70
3020
  9
$CMLSTYLE
  2
Standard
  9
$CMLJUST
 70
0
  9
$CMLSCALE
 40
20.0
  9
$PROXYGRAPHICS
 70
1
  9
$MEASUREMENT
 70
1
  9
$CELWEIGHT
370
-1
  9
$ENDCAPS
280
0
  9
$JOINSTYLE
280
0
  9
$LWDISPLAY
290
0
  9
$INSUNITS
 70
6
  9
$HYPERLINKBASE
  1

  9
$STYLESHEET
  1

  9
$XEDIT
290
1
  9
$CEPSNTYPE
380
0
  9
$PSTYLEMODE
290
1
  9
$FINGERPRINTGUID
  2
{2296C81F-B6A8-4656-A211-31499C72AE5E}
  9
$VERSIONGUID
  2
{D44EA9BF-A20A-482A-8E7F-DB56D76F017D}
  9
$EXTNAMES
290
1
  9
$PSVPSCALE
 40
0.0
  9
$OLESTARTUP
290
0
  0
ENDSEC
  0
SECTION
  2
CLASSES
  0
CLASS
  1
ACDBDICTIONARYWDFLT
  2
AcDbDictionaryWithDefault
  3
ObjectDBX Classes
 90
0
280
0
281
0
  0
CLASS
  1
SUN
  2
AcDbSun
  3
SCENEOE
 90
1153
280
0
281
0
  0
CLASS
  1
VISUALSTYLE
  2
AcDbVisualStyle
  3
ObjectDBX Classes
 90
4095
280
0
281
0
  0
CLASS
  1
MATERIAL
  2
AcDbMaterial
  3
ObjectDBX Classes
 90
1153
280
0
281
0
  0
CLASS
  1
SCALE
  2
AcDbScale
  3
ObjectDBX Classes
 90
1153
280
0
281
0
  0
CLASS
  1
TABLESTYLE
  2
AcDbTableStyle
  3
ObjectDBX Classes
 90
4095
280
0
281
0
  0
CLASS
  1
MLEADERSTYLE
  2
AcDbMLeaderStyle
  3
ACDB_MLEADERSTYLE_CLASS
 90
4095
280
0
281
0
  0
CLASS
  1
DICTIONARYVAR
  2
AcDbDictionaryVar
  3
ObjectDBX Classes
 90
0
280
0
281
0
  0
CLASS
  1
CELLSTYLEMAP
  2
AcDbCellStyleMap
  3
ObjectDBX Classes
 90
1152
280
0
281
0
  0
CLASS
  1
MENTALRAYRENDERSETTINGS
  2
AcDbMentalRayRenderSettings
  3
SCENEOE
 90
1024
280
0
281
0
  0
CLASS
  1
ACDBDETAILVIEWSTYLE
  2
AcDbDetailViewStyle
  3
ObjectDBX Classes
 90
1025
280
0
281
0
  0
CLASS
  1
ACDBSECTIONVIEWSTYLE
  2
AcDbSectionViewStyle
  3
ObjectDBX Classes
 90
1025
280
0
281
0
  0
CLASS
  1
RASTERVARIABLES
  2
AcDbRasterVariables
  3
ISM
 90
0
280
0
281
0
  0
CLASS
  1
ACDBPLACEHOLDER
  2
AcDbPlaceHolder
  3
ObjectDBX Classes
 90
0
280
0
281
0
  0
CLASS
  1
LAYOUT
  2
AcDbLayout
  3
ObjectDBX Classes
 90
0
280
0
281
0
  0
ENDSEC
  0
SECTION
  2
TABLES
  0
TABLE
  2
VPORT
  5
8
330
0
100
AcDbSymbolTable
 70
1
  0
VPORT
  5
23
330
8
100
AcDbSymbolTableRecord
100
AcDbViewportTableRecord
  2
*Active
 70
0
 10
0.0
 20
0.0
 11
1.0
 21
1.0
 12
0.0
 22
0.0
 13
0.0
 23
0.0
 14
0.5
 24
0.5
 15
0.5
 25
0.5
 16
0.0
 26
0.0
 36
1.0
 17
0.0
 27
0.0
 37
0.0
 40
1000.0
 41
1.34
 42
50.0
 43
0.0
 44
0.0
 50
0.0
 51
0.0
 71
0
 72
1000
 73
1
 74
3
 75
0
 76
0
 77
0
 78
0
281
0
 65
0
146
0.0
  0
ENDTAB
  0
TABLE
  2
LTYPE
  5
2
330
0
100
AcDbSymbolTable
 70
3
  0
LTYPE
  5
24
330
2
100
AcDbSymbolTableRecord
100
AcDbLinetypeTableRecord
  2
ByBlock
 70
0
  3

 72
65
 73
0
 40
0.0
  0
LTYPE
  5
25
330
2
100
AcDbSymbolTableRecord
100
AcDbLinetypeTableRecord
  2
ByLayer
 70
0
  3

 72
65
 73
0
 40
0.0
  0
LTYPE
  5
26
330
2
100
AcDbSymbolTableRecord
100
AcDbLinetypeTableRecord
  2
Continuous
 70
0
  3

 72
65
 73
0
 40
0.0
  0
ENDTAB
  0
TABLE
  2
LAYER
  5
1
330
0
100
AcDbSymbolTable
 70
2
  0
LAYER
  5
27
330
1
100
AcDbSymbolTableRecord
100
AcDbLayerTableRecord
  2
0
 70
0
 62
7
  6
Continuous
370
-3
390
13
  0
LAYER
  5
28
330
1
100
AcDbSymbolTableRecord
100
AcDbLayerTableRecord
  2
Defpoints
 70
0
 62
7
  6
Continuous
290
0
370
-3
390
13
  0
ENDTAB
  0
TABLE
  2
STYLE
  5
5
330
0
100
AcDbSymbolTable
 70
1
  0
STYLE
  5
29
330
5
100
AcDbSymbolTableRecord
100
AcDbTextStyleTableRecord
  2
Standard
 70
0
 40
0.0
 41
1.0
 50
0.0
 71
0
 42
2.5
  3
txt
  4

  0
ENDTAB
  0
TABLE
  2
VIEW
  5
7
330
0
100
AcDbSymbolTable
 70
0
  0
ENDTAB
  0
TABLE
  2
UCS
  5
6
330
0
100
AcDbSymbolTable
 70
0
  0
ENDTAB
  0
TABLE
  2
APPID
  5
3
330
0
100
AcDbSymbolTable
 70
3
  0
APPID
  5
2A
330
3
100
AcDbSymbolTableRecord
100
AcDbRegAppTableRecord
  2
ACAD
 70
0
  0
APPID
  5
30
330
3
100
AcDbSymbolTableRecord
100
AcDbRegAppTableRecord
  2
HATCHBACKGROUNDCOLOR
 70
0
  0
APPID
  5
31
330
3
100
AcDbSymbolTableRecord
100
AcDbRegAppTableRecord
  2
EZDXF
 70
0
  0
ENDTAB
  0
TABLE
  2
DIMSTYLE
  5
4
330
0
100
AcDbSymbolTable
 70
1
100
AcDbDimStyleTable
  0
DIMSTYLE
105
2B
330
4
100
AcDbSymbolTableRecord
100
AcDbDimStyleTableRecord
  2
Standard
 70
0
  3

  4

 40
1.0
 41
2.5
 42
0.625
 43
3.75
 44
1.25
 45
0.0
 46
0.0
 47
0.0
 48
0.0
140
2.5
141
2.5
142
0.0
143
0.03937007874
144
1.0
145
0.0
146
1.0
147
0.625
148
0.0
 71
0
 72
0
 73
0
 74
0
 75
0
 76
0
 77
1
 78
8
 79
3
170
0
171
3
172
1
173
0
174
0
175
0
176
0
177
0
178
0
179
2
271
2
272
2
273
2
274
3
275
0
276
0
277
2
278
44
279
0
280
0
281
0
282
0
283
0
284
8
285
0
286
0
288
0
289
3
371
-2
372
-2
  0
ENDTAB
  0
TABLE
  2
BLOCK_RECORD
  5
9
330
0
100
AcDbSymbolTable
 70
2
  0
BLOCK_RECORD
  5
17
330
9
100
AcDbSymbolTableRecord
100
AcDbBlockTableRecord
  2
*Model_Space
340
1A
  0
BLOCK_RECORD
  5
1B
330
9
100
AcDbSymbolTableRecord
100
AcDbBlockTableRecord
  2
*Paper_Space
340
1E
  0
ENDTAB
  0
ENDSEC
  0
SECTION
  2
BLOCKS
  0
BLOCK
  5
18
330
17
100
AcDbEntity
  8
0
100
AcDbBlockBegin
  2
*Model_Space
 70
0
 10
0.0
 20
0.0
 30
0.0
  3
*Model_Space
  1

  0
ENDBLK
  5
19
330
17
100
AcDbEntity
  8
0
100
AcDbBlockEnd
  0
BLOCK
  5
1C
330
1B
100
AcDbEntity
  8
0
100
AcDbBlockBegin
  2
*Paper_Space
 70
0
 10
0.0
 20
0.0
 30
0.0
  3
*Paper_Space
  1

  0
ENDBLK
  5
1D
330
1B
100
AcDbEntity
  8
0
100
AcDbBlockEnd
  0
ENDSEC
  0
SECTION
  2
ENTITIES
  0
LWPOLYLINE
  5
2F
330
17
100
AcDbEntity
  8
0
100
AcDbPolyline
 90
3601
 70
1
 10
246.7645290936776
 20
0.0
 10
246.76453913510724
 20
-0.04874565698858811
 10
246.76405326031698
 20
-0.5382967351648349
 10
246.76299377234193
 20
-1.0278469092613802
 10
246.7613737773227
 20
-1.5173955506816732
 10
246.7613737773227
 20
-1.5173955506816732
 10
246.75920063093375
 20
-2.006942048733639
 10
246.75645877333696
 20
-2.4964856898041123
 10
246.7531268955497
 20
-2.986025668548672
 10
246.74918368878662
 20
-3.4755611025583852
 10
246.74460783257294
 20
-3.9650910294514787
 10
246.73937802787518
 20
-4.454614404377514
 10
246.7334729735
 20
-4.944130097065356
 10
246.72687136734166
 20
-5.433636889030071
 10
246.71955295561062
 20
-5.92313348699881
 10
246.71151333102748
 20
-6.412618771556484
 10
246.7027603124189
 20
-6.902091819832036
 10
246.69330202570822
 20
-7.391551748826428
 10
246.6831465911182
 20
-7.880997710474585
 10
246.6723021260967
 20
-8.370428891268173
 10
246.66077676593048
 20
-8.85984451233381
 10
246.64857863231464
 20
-9.349243828348907
 10
246.63571584421712
 20
-9.838626127339207
 10
246.6221965061431
 20
-10.327990729927796
 10
246.60802874977028
 20
-10.817336990072913
 10
246.5932206881226
 20
-11.306664293431357
 10
246.57777811470945
 20
-11.795971983556239
 10
246.56169964411
 20
-12.285259190805819
 10
246.54498253500554
 20
-12.774524994186041
 10
246.52762403797934
 20
-13.263768461568224
 10
246.50962140178044
 20
-13.752988649816405
 10
246.49097186575096
 20
-14.242184604426853
 10
246.47167268381048
 20
-14.731355360372556
 10
246.45172111281124
 20
-15.220499941662236
 10
246.43111440443107
 20
-15.709617360957564
 10
246.40984980485743
 20
-16.19870661946861
 10
246.38792456413054
 20
-16.687766707285434
 10
246.3653359971688
 20
-17.17679660619961
 10
246.34208267584737
 20
-17.665795346891883
 10
246.31816449901274
 20
-18.15476201872553
 10
246.29358142007493
 20
-18.643695713174193
 10
246.2683334171916
 20
-19.132595522617443
 10
246.24242045466153
 20
-19.62146053843183
 10
246.2158424966908
 20
-20.110289851649117
 10
246.18859949197423
 20
-20.599082552080716
 10
246.16069141891302
 20
-21.087837730819604
 10
246.13211824249782
 20
-21.576554477887758
 10
246.1028799265915
 20
-22.06523188288271
 10
246.07297642325562
 20
-22.55386903430436
 10
246.04240761365347
 20
-23.042465015753002
 10
246.01117249088549
 20
-23.531018853256036
 10
245.97926953773216
 20
-24.019529535267875
 10
245.94669722325807
 20
-24.507996042835185
 10
245.9134540244757
 20
-24.996417350968898
 10
245.87953842777125
 20
-25.48479242877552
 10
245.8449489114596
 20
-25.973120238250527
 10
245.80968394994122
 20
-26.461399734501597
 10
245.77374201451144
 20
-26.949629865757142
 10
245.73712159740475
 20
-27.437809575140655
 10
245.6998211791353
 20
-27.925937798273893
 10
245.6618392402697
 20
-28.414013464094555
 10
245.62317432942143
 20
-28.902035500246253
 10
245.58382588918624
 20
-29.390002900106854
 10
245.5437938590522
 20
-29.877914695028352
 10
245.50307818534793
 20
-30.36576991634389
 10
245.46167880067645
 20
-30.85356759364936
 10
245.41959566197465
 20
-31.341306758011022
 10
245.3768287188409
 20
-31.828986439331466
 10
245.33337791772277
 20
-32.316605666667726
 10
245.28924319514184
 20
-32.804163467584736
 10
245.24442450061778
 20
-33.29165887020267
 10
245.198921787713
 20
-33.7790909024405
 10
245.1527350030671
 20
-34.26645859099132
 10
245.10586406907274
 20
-34.753760959591524
 10
245.05830837754544
 20
-35.24099697936079
 10
245.01006673001334
 20
-35.72816556008218
 10
244.96113788475643
 20
-36.21526560170314
 10
244.9115205980555
 20
-36.70229599824516
 10
244.86121361692074
 20
-37.18925563701196
 10
244.81021571573137
 20
-37.67614340236588
 10
244.75852565483413
 20
-38.16295817147724
 10
244.70614219519794
 20
-38.649698815789826
 10
244.6530640825709
 20
-39.136364199264044
 10
244.5992900937638
 20
-39.62295318339339
 10
244.54481899322516
 20
-40.10946462251346
 10
244.4896495448438
 20
-40.595897365037665
 10
244.43378066394908
 20
-41.08225027094405
 10
244.3772119876553
 20
-41.56852227893827
 10
244.31994334093199
 20
-42.05471234769861
 10
244.26197454363648
 20
-42.5408194340148
 10
244.2033054074493
 20
-43.0268424923706
 10
244.1439357516804
 20
-43.51278047681856
 10
244.0838654056333
 20
-43.99863234132205
 10
244.02309418968744
 20
-44.48439703743956
 10
243.96162191990993
 20
-44.97007351483841
 10
243.89944840854827
 20
-45.4556607213182
 10
243.8365734893954
 20
-45.94115760607811
 10
243.77299698351877
 20
-46.42656311535299
 10
243.7087187095442
 20
-46.91187619368152
 10
243.64373824453807
 20
-47.39709575178817
 10
243.57805476691433
 20
-47.8822206439967
 10
243.51166739024796
 20
-48.3672497115478
 10
243.444575228631
 20
-48.852181791206746
 10
243.3767773823717
 20
-49.33701571323923
 10
243.30827297780888
 20
-49.82175030694714
 10
243.23906113397496
 20
-50.30638439605877
 10
243.16914096737494
 20
-50.79091679934935
 10
243.09851158465554
 20
-51.27534632952955
 10
243.0271721071899
 20
-51.75967179679276
 10
242.95512166071143
 20
-52.24389200735666
 10
242.88235936469815
 20
-52.72800576187353
 10
242.8088843344122
 20
-53.21201185567523
 10
242.73469582138904
 20
-53.695909100299865
 10
242.65979332010045
 20
-54.17969634076422
 10
242.58417633663694
 20
-54.66337242087228
 10
242.5078443745726
 20
-55.146936181042
 10
242.4307969287519
 20
-55.63038645727801
 10
242.35303352128966
 20
-56.113722086911345
 10
242.2745536598781
 20
-56.59694190199036
 10
242.19535685266783
 20
-57.08004473160829
 10
242.11544259145157
 20
-57.56302939909778
 10
242.03481040121028
 20
-58.04589473020346
 10
241.95345979258497
 20
-58.52863954527635
 10
241.87139027579732
 20
-59.011262661527816
 10
241.7886013486231
 20
-59.49376289093956
 10
241.70509251105972
 20
-59.97613904271188
 10
241.62086319450134
 20
-60.45838991091618
 10
241.53591281215955
 20
-60.94051428294018
 10
241.4502407685784
 20
-61.42251094103564
 10
241.3638464785089
 20
-61.904378665634006
 10
241.27672936556155
 20
-62.38611623516436
 10
241.18888884524193
 20
-62.86772242299893
 10
241.10032432834038
 20
-63.34919599799961
 10
241.01103522439223
 20
-63.83053572510927
 10
240.92102096353807
 20
-64.31174036943149
 10
240.83028096403208
 20
-64.79280869022048
 10
240.73881464338538
 20
-65.27373944289921
 10
240.646621406342
 20
-65.75453137672142
 10
240.55370068374782
 20
-66.23518324219992
 10
240.46005176066677
 20
-66.7156937577464
 10
240.36567380065114
 20
-67.19606161354154
 10
240.27056594752165
 20
-67.67628549087179
 10
240.17472737510641
 20
-68.15636407192056
 10
240.078157247092
 20
-68.63629603187279
 10
239.98085472572373
 20
-69.11608004058252
 10
239.88281896222185
 20
-69.59571476057252
 10
239.78404912649117
 20
-70.075198853066
 10
239.68454439001857
 20
-70.55453097454833
 10
239.58430391913012
 20
-71.03370977534004
 10
239.48332687311665
 20
-71.51273389913503
 10
239.3816124185535
 20
-71.99160198597232
 10
239.27915973540814
 20
-72.47031267358246
 10
239.1759679934094
 20
-72.94886459235653
 10
239.0720363401226
 20
-73.42725636265244
 10
238.967363904406
 20
-73.90548659538285
 10
238.86194983959885
 20
-74.38355390140468
 10
238.75579328595134
 20
-74.86145688331624
 10
238.6488933842704
 20
-75.33919413838966
 10
238.5412492593326
 20
-75.8167642547968
 10
238.43286007261798
 20
-76.29416582346676
 10
238.32372496876147
 20
-76.77139742607108
 10
238.2138430936052
 20
-77.2484576390313
 10
238.1032135790349
 20
-77.72534502997118
 10
237.99183558521074
 20
-78.20205816747534
 10
237.8797082652658
 20
-78.67859561295987
 10
237.76683077032456
 20
-79.1549559217796
 10
237.65320224199226
 20
-79.63113764138508
 10
237.5388219076682
 20
-80.10713933415998
 10
237.42368914177462
 20
-80.58295959276526
 10
237.30780333003713
 20
-81.05859700803346
 10
237.1911638515126
 20
-81.53405016461018
 10
237.0737700901542
 20
-82.0093176437409
 10
236.9556214457122
 20
-82.48439802600831
 10
236.83671730778104
 20
-82.95928988492169
 10
236.71705706326435
 20
-83.43399178869478
 10
236.59664009257256
 20
-83.90850229923046
 10
236.47546580366787
 20
-84.38281998076735
 10
236.35353359062225
 20
-84.85694338939554
 10
236.23084284872368
 20
-85.33087107683757
 10
236.10739295568393
 20
-85.8046015855196
 10
235.9831833280576
 20
-86.27813346324281
 10
235.85821336379362
 20
-86.75146524827362
 10
235.7324823793953
 20
-87.2245954524539
 10
235.60598954673577
 20
-87.69752254374417
 10
235.47873405358868
 20
-88.17024498840996
 10
235.35071508183617
 20
-88.64276124520805
 10
235.22193181081207
 20
-89.1150697662178
 10
235.0923834099347
 20
-89.58716899475867
 10
234.96206906496633
 20
-90.05905737254525
 10
234.83098796738392
 20
-90.53073333683393
 10
234.69913930248848
 20
-91.0021953171036
 10
234.5665222496368
 20
-91.47344173503348
 10
234.43313599335056
 20
-91.944471007572
 10
234.2989797355355
 20
-92.41528155044048
 10
234.16405266828107
 20
-92.8858717704293
 10
234.0283539817231
 20
-93.35624006755128
 10
233.89188285994146
 20
-93.8263848337943
 10
233.75463854330116
 20
-94.29630447128386
 10
233.61662043460225
 20
-94.7659974238542
 10
233.47782800806596
 20
-95.23546215122076
 10
233.33826071989205
 20
-95.70469710287082
 10
233.19791806605093
 20
-96.17370073521833
 10
233.05679952439846
 20
-96.64247149445526
 10
232.91490457402026
 20
-97.11100782223532
 10
232.77223267962248
 20
-97.579308150886
 10
232.62878333475695
 20
-98.04737091653475
 10
232.48455602619873
 20
-98.5151945483269
 10
232.33955023837723
 20
-98.9827774697119
 10
232.19376544522078
 20
-99.45011809583993
 10
232.04720113849916
 20
-99.91721484235404
 10
231.89985681460593
 20
-100.38406612133905
 10
231.75173196400206
 20
-100.85067033797158
 10
231.60282607053068
 20
-101.31702589021468
 10
231.45313863984606
 20
-101.78313117787525
 10
231.30266933563436
 20
-102.24898464676303
 10
231.15141788994896
 20
-102.71458476066532
 10
230.999384032139
 20
-103.1799299786206
 10
230.84656748664662
 20
-103.64501875414153
 10
230.692968004479
 20
-104.1098495455718
 10
230.53858532274498
 20
-104.57442080282321
 10
230.38341917883986
 20
-105.03873097197304
 10
230.22746929431688
 20
-105.5027784898038
 10
230.0707354285366
 20
-105.96656180180844
 10
229.91321732338878
 20
-106.43007934368099
 10
229.7549147220461
 20
-106.89332954755089
 10
229.5958273521904
 20
-107.35631083618698
 10
229.43595497365018
 20
-107.81902163932725
 10
229.27529733647145
 20
-108.28146037934836
 10
229.11385418931488
 20
-108.74362547408573
 10
228.95162526910073
 20
-109.20551533314435
 10
228.78861029108864
 20
-109.66712835426438
 10
228.6248087963895
 20
-110.12846286902509
 10
228.4602202765298
 20
-110.58951718596042
 10
228.2948442149038
 20
-111.050289604985
 10
228.12868010569318
 20
-111.51077842412347
 10
227.96172745519885
 20
-111.97098194006162
 10
227.79398576132982
 20
-112.43089844072486
 10
227.6254545176054
 20
-112.89052620662981
 10
227.456133217856
 20
-113.34986351254061
 10
227.28602137896158
 20
-113.80890863588026
 10
227.11511850601946
 20
-114.26765984390678
 10
226.94342410349927
 20
-114.7261153977464
 10
226.770937665667
 20
-115.18427354873212
 10
226.597658720812
 20
-115.6421325550437
 10
226.42358678204326
 20
-116.09969066323539
 10
226.24872136460394
 20
-116.55694611468316
 10
226.07306196705443
 20
-117.01389713831104
 10
225.8966081629002
 20
-117.47054198586913
 10
225.71936001557788
 20
-117.92687909377408
 10
225.54131796008699
 20
-118.38290704056027
 10
225.36248242495765
 20
-118.83862440158128
 10
225.1828538649317
 20
-119.29402976184996
 10
225.00243272875733
 20
-119.7491217034856
 10
224.82121946080355
 20
-120.20389880628183
 10
224.6392144938761
 20
-120.65835964476156
 10
224.456418276471
 20
-121.11250279904014
 10
224.27283126165614
 20
-121.56632685045841
 10
224.08845389466202
 20
-122.01983037655471
 10
223.9032866126797
 20
-122.47301195088504
 10
223.7173298582158
 20
-122.92587014842204
 10
223.5305840887706
 20
-123.37840354959503
 10
223.34304975060002
 20
-123.830610729518
 10
223.1547272853975
 20
-124.28249026064884
 10
222.9656171299443
 20
-124.73404071257809
 10
222.77571974629433
 20
-125.18526066469533
 10
222.58503554547124
 20
-125.63614867409642
 10
222.39356458731245
 20
-126.08670314754723
 10
222.201306721998
 20
-126.5369223991094
 10
222.0082618340859
 20
-126.98680475304474
 10
221.81442979130506
 20
-127.43634852200394
 10
221.61981046287232
 20
-127.88555201477162
 10
221.424403701665
 20
-128.3344135284662
 10
221.2282093959666
 20
-128.78293137102136
 10
221.03122742159613
 20
-129.23110384042988
 10
220.83345765413023
 20
-129.6789292299863
 10
220.63489995632028
 20
-130.12640582265044
 10
220.43555421642733
 20
-130.5735319080059
 10
220.23542032048468
 20
-131.02030577003646
 10
220.0344981510885
 20
-131.46672568651985
 10
219.8327875815374
 20
-131.9127899262948
 10
219.63028850071464
 20
-132.35849676045487
 10
219.4270008055473
 20
-132.80384445902465
 10
219.2229243863235
 20
-133.24883128425648
 10
219.01805913339751
 20
-133.6934554936153
 10
218.81240520622072
 20
-134.13771546435916
 10
218.60596314651764
 20
-134.5816097483198
 10
218.39873351108534
 20
-135.02513690367073
 10
218.19071685246524
 20
-135.46829548596818
 10
217.98191371707313
 20
-135.9110840472019
 10
217.77232467765577
 20
-136.353501151122
 10
217.56195029190502
 20
-136.795545353764
 10
217.3507911165869
 20
-137.23721521003733
 10
217.13884769257496
 20
-137.67850926649132
 10
216.9261205968852
 20
-138.11942608628317
 10
216.7126103882838
 20
-138.55996422313467
 10
216.49831762583457
 20
-139.0001222301614
 10
216.28324285132808
 20
-139.43989865124462
 10
216.06738664001105
 20
-139.87929204579808
 10
215.85074955397008
 20
-140.31830096606208
 10
215.6333321535802
 20
-140.7569239626256
 10
215.4151349852208
 20
-141.19515957825783
 10
215.19615861913474
 20
-141.63300636670786
 10
214.97640360638886
 20
-142.0704628712859
 10
214.75587024284
 20
-142.50752750551965
 10
214.5345586128294
 20
-142.94419857310118
 10
214.31246881045226
 20
-143.38047437854462
 10
214.08960093685343
 20
-143.81635322587204
 10
213.865955086326
 20
-144.2518334115009
 10
213.6415313466571
 20
-144.6869132243064
 10
213.4163298118887
 20
-145.12159095213454
 10
213.19035059262163
 20
-145.55586488720616
 10
212.96359378964004
 20
-145.9897333124514
 10
212.736059500498
 20
-146.42319450482273
 10
212.50774781980098
 20
-146.85624673536554
 10
212.2786588682134
 20
-147.28888828453648
 10
212.04879275362612
 20
-147.72111742176534
 10
211.81814958398238
 20
-148.1529324121322
 10
211.58672945506402
 20
-148.5843315097591
 10
211.35453249822586
 20
-149.01531298339938
 10
211.1215588290916
 20
-149.44587508898866
 10
210.88780856531733
 20
-149.8760160790921
 10
210.65328181350225
 20
-150.30573419572409
 10
210.41797898604844
 20
-150.73502784399923
 10
210.18190087661165
 20
-151.16389563634252
 10
209.94504830922816
 20
-151.59233620212206
 10
209.70742209267465
 20
-152.02034816258427
 10
209.4690230613852
 20
-152.4479301535198
 10
209.22985204325377
 20
-152.87508080748472
 10
208.98990986163858
 20
-153.30179875483677
 10
208.74919732774973
 20
-153.72808261935648
 10
208.5077152692806
 20
-154.1539310343569
 10
208.2654645165315
 20
-154.57934263494496
 10
208.02244589227368
 20
-155.00431605222707
 10
207.77866021019176
 20
-155.42884991230758
 10
207.53410829143914
 20
-155.8529428457282
 10
207.2887909687679
 20
-156.27659348993686
 10
207.0427090644624
 20
-156.69980047655415
 10
206.795863394739
 20
-157.1225624338036
 10
206.54825477441094
 20
-157.54487798916156
 10
206.29988403874188
 20
-157.9667457822155
 10
206.05075200963998
 20
-158.38816444486906
 10
205.80085948248387
 20
-158.8091325933363
 10
205.55020704675707
 20
-159.22964872092498
 10
205.29879522440385
 20
-159.64971127890462
 10
205.0466245214765
 20
-160.06931870682592
 10
204.79369544492712
 20
-160.48846944244832
 10
204.54000848391297
 20
-160.9071619103686
 10
204.28556416655235
 20
-161.32539455636683
 10
204.03036300300923
 20
-161.74316581301937
 10
203.7744055045364
 20
-162.1604741111475
 10
203.51769216727743
 20
-162.57731786980173
 10
203.26022351817403
 20
-162.99369552448306
 10
203.002000074707
 20
-163.40960550245077
 10
202.7430223527336
 20
-163.82504622746407
 10
202.48329085603345
 20
-164.2400161131719
 10
202.22280611053642
 20
-164.65451358447794
 10
201.96156864151297
 20
-165.06853706336608
 10
201.69957896982723
 20
-165.48208496647783
 10
201.4368376072654
 20
-165.89515570204432
 10
201.1733450792159
 20
-166.3077476842465
 10
200.90910191911658
 20
-166.71985932978643
 10
200.64410864990674
 20
-167.13148904599166
 10
200.37836576889623
 20
-167.5426352208741
 10
200.11187377136955
 20
-167.95329623814987
 10
199.8446331689396
 20
-168.36347048916204
 10
199.5766444630968
 20
-168.77315635571736
 10
199.30790815182914
 20
-169.18235221427275
 10
199.03842472986668
 20
-169.59105643601154
 10
198.7681947166733
 20
-169.999267405328
 10
198.49721861896273
 20
-170.40698349515162
 10
198.22549694281778
 20
-170.81420307484066
 10
197.95303018297372
 20
-171.22092450294096
 10
197.67981886718346
 20
-171.627146156891
 10
197.40586350786467
 20
-172.0328664007059
 10
197.13116461893648
 20
-172.438083596169
 10
196.85572269782142
 20
-172.84279609053505
 10
196.5795382788736
 20
-173.24700225284482
 10
196.30261188141807
 20
-173.6507004386653
 10
196.0249440256889
 20
-174.05388900084245
 10
195.74653521829774
 20
-174.45656627940258
 10
195.46738599470748
 20
-174.8587306308625
 10
195.18749689221727
 20
-175.26038040971338
 10
194.90686862428828
 20
-175.66151409039034
 10
194.6255020603767
 20
-176.0621302548652
 10
194.34339809576932
 20
-176.4622275026179
 10
194.06055762554058
 20
-176.86180443249555
 10
193.77698153891075
 20
-177.26085963866902
 10
193.49267071548027
 20
-177.6593917078355
 10
193.20762604618272
 20
-178.0573992340949
 10
192.92184842969758
 20
-178.4548808164984
 10
192.63533875629733
 20
-178.85183504745152
 10
192.34809790933488
 20
-179.24826051365
 10
192.06012677570354
 20
-179.6441558035808
 10
191.7714262578657
 20
-180.0395195163456
 10
191.48199724737333
 20
-180.43435024240733
 10
191.19184063151994
 20
-180.8286465683148
 10
190.90095729347124
 20
-181.22240707671136
 10
190.6093481396647
 20
-181.61563036660752
 10
190.31701406316677
 20
-182.00831502635575
 10
190.02395595541157
 20
-182.40045964222165
 10
189.73017469615328
 20
-182.79206279078085
 10
189.4356711960081
 20
-183.183123070821
 10
189.1404463476952
 20
-183.57363906683133
 10
188.84450102764583
 20
-183.96360934996378
 10
188.54783608709656
 20
-184.35303247101336
 10
188.250452412743
 20
-184.74190700649942
 10
187.95235087506276
 20
-185.13023151940772
 10
187.65353234463987
 20
-185.51800457152663
 10
187.35399767753805
 20
-185.9052247120813
 10
187.0537477577622
 20
-186.29189051052154
 10
186.75278346073011
 20
-186.6780005283775
 10
186.45110565954758
 20
-187.06355332402063
 10
186.14871521542113
 20
-187.44854744505136
 10
185.84561301001932
 20
-187.83298145365242
 10
185.54179992396766
 20
-188.216853909811
 10
185.2372768331944
 20
-188.60016336836082
 10
184.9320446043214
 20
-188.98290837519636
 10
184.62610411704173
 20
-189.36508748504457
 10
184.31945625746644
 20
-189.74669925627356
 10
184.012101904653
 20
-190.12774224007015
 10
183.70404193091673
 20
-190.50821498054907
 10
183.39527721434982
 20
-190.88811602480905
 10
183.0858086468304
 20
-191.26744392953282
 10
182.77563711708893
 20
-191.6461972472673
 10
182.46476355974403
 20
-192.02437456664006
 10
182.1531889318565
 20
-192.4019744935163
 10
181.84091421116048
 20
-192.77899564982627
 10
181.52794036321274
 20
-193.15543664649417
 10
181.21426835131285
 20
-193.53129609151182
 10
180.89989912980369
 20
-193.90657258424966
 10
180.58483368064037
 20
-194.28126474609036
 10
180.26907297135702
 20
-194.65537118529107
 10
179.9526179696656
 20
-195.02889050911432
 10
179.63546962738909
 20
-195.40182131010997
 10
179.31762893094395
 20
-195.7741622090014
 10
178.999096850124
 20
-196.14591181124257
 10
178.67987435533337
 20
-196.51706872156626
 10
178.35996240214226
 20
-196.88763153060356
 10
178.03936197576925
 20
-197.2575988532266
 10
177.71807405052937
 20
-197.62696929365856
 10
177.39609959945028
 20
-197.995741453674
 10
177.07343958319188
 20
-198.36391392281354
 10
176.75009498505597
 20
-198.73148530900033
 10
176.4260667845035
 20
-199.09845421545015
 10
176.101355959624
 20
-199.464819242765
 10
175.7759635237585
 20
-199.83057902145245
 10
175.44989054878798
 20
-200.1957322331306
 10
175.12313811087756
 20
-200.56027756269512
 10
174.79570727994016
 20
-200.92421368886562
 10
174.46759911778835
 20
-201.2875392823785
 10
174.1388146946384
 20
-201.65025302080957
 10
173.80935509007952
 20
-202.0123535895694
 10
173.47922137529358
 20
-202.37383966576448
 10
173.1484146157074
 20
-202.73470992046097
 10
172.81693587846914
 20
-203.0949630254464
 10
172.4847862468061
 20
-203.45459766651274
 10
172.15196679342247
 20
-203.81361251899682
 10
171.818478587582
 20
-204.17200625416942
 10
171.48432269369022
 20
-204.52977753781636
 10
171.14950019883813
 20
-204.88692505599195
 10
170.8140121775145
 20
-205.24344748211522
 10
170.4778597030512
 20
-205.5993434875483
 10
170.1410438374423
 20
-205.95461173187095
 10
169.8035656718779
 20
-206.30925090129077
 10
169.46542628290112
 20
-206.66325966717272
 10
169.12662674761398
 20
-207.01663670035006
 10
168.78716814315268
 20
-207.3693806705793
 10
168.44705163158312
 20
-207.72149032852315
 10
168.1062783711499
 20
-208.0729644209201
 10
167.76484951969718
 20
-208.4238016938129
 10
167.4227662213454
 20
-208.77400087947515
 10
167.0800296455067
 20
-209.12356073445795
 10
166.73664095320805
 20
-209.47248000681785
 10
166.39260130298723
 20
-209.82075744177183
 10
166.04791184193704
 20
-210.1683917727252
 10
165.70257373595155
 20
-210.51538175118753
 10
165.35658814903425
 20
-210.86172612638515
 10
165.00995624065195
 20
-211.20742364253567
 10
164.66267916107162
 20
-211.55247303403422
 10
164.31475807297653
 20
-211.8968730471238
 10
163.9661941435537
 20
-212.24062243206245
 10
163.61698853344078
 20
-212.58371993190588
 10
163.26714239629055
 20
-212.92616428190684
 10
162.91665689188994
 20
-213.26795422282552
 10
162.56553319082428
 20
-213.60908850582516
 10
162.21377245515302
 20
-213.94956587264653
 10
161.86137584213319
 20
-214.28938505927707
 10
161.50834450992315
 20
-214.62854480177322
 10
161.15467966101346
 20
-214.96704388166293
 10
160.80038251812908
 20
-215.30488110131776
 10
160.44545430260231
 20
-215.64205526146145
 10
160.0898962292539
 20
-215.97856515569396
 10
159.7337095355596
 20
-216.31440960132542
 10
159.3768954462168
 20
-216.64958740200655
 10
159.01945518496396
 20
-216.98409736009933
 10
158.66138996306594
 20
-217.31793826425616
 10
158.3027010203997
 20
-217.65110893345334
 10
157.9433895821947
 20
-217.98360817070463
 10
157.58345687385093
 20
-218.31543477883721
 10
157.22290410620514
 20
-218.6465875443949
 10
156.86173251890872
 20
-218.97706528480208
 10
156.49994333890396
 20
-219.30686680328907
 10
156.13753779242086
 20
-219.63599090183362
 10
155.77451709329117
 20
-219.96443636817492
 10
155.41088247803384
 20
-220.2922020145204
 10
155.04663517658858
 20
-220.61928664533343
 10
154.68177641626332
 20
-220.94568906158472
 10
154.31630741410473
 20
-221.2714080520868
 10
153.95022940380966
 20
-221.59644242360926
 10
153.583543626676
 20
-221.92079099094212
 10
153.2162513868208
 20
-222.2444526396484
 10
152.84835401303647
 20
-222.56742628358896
 10
152.4798528443723
 20
-222.88971084886572
 10
152.11074922460338
 20
-223.21130526766234
 10
151.7410444904338
 20
-223.53220846470995
 10
151.37073997180096
 20
-223.85241935746475
 10
150.99983700278798
 20
-224.1719368686286
 10
150.6283369280343
 20
-224.4907599337023
 10
150.25624108326886
 20
-224.80888747838398
 10
149.88355079947704
 20
-225.12631842325123
 10
149.51026740603407
 20
-225.4430516873327
 10
149.13639224859125
 20
-225.75908620924722
 10
148.76192666208894
 20
-226.0744209154386
 10
148.38687197870996
 20
-226.38905472940928
 10
148.0112295233931
 20
-226.70298656625428
 10
147.63500064295516
 20
-227.01621536751836
 10
147.2581866717446
 20
-227.3287400601794
 10
146.8807889432996
 20
-227.64055957047478
 10
146.5028087784034
 20
-227.95167280931915
 10
146.12424752520124
 20
-228.26207872099852
 10
145.74510651765326
 20
-228.57177623282067
 10
145.36538707365563
 20
-228.88076425246553
 10
144.98509044179826
 20
-229.1890416019646
 10
144.60421788468682
 20
-229.49660711957938
 10
144.22277065426465
 20
-229.80345962937525
 10
143.84075000185726
 20
-230.10959795348236
 10
143.45815716784728
 20
-230.41502089908116
 10
143.07499341329128
 20
-230.71972729792788
 10
142.69125999423898
 20
-231.02371597433049
 10
142.30695816437822
 20
-231.32698574834248
 10
141.92208916844112
 20
-231.6295354272562
 10
141.53665426630238
 20
-231.93136383616806
 10
141.15065471839003
 20
-232.23246979957096
 10
140.76409178106175
 20
-232.53285213535526
 10
140.37696670367927
 20
-232.83250965087652
 10
139.9892807453015
 20
-233.13144116442388
 10
139.60103517101822
 20
-233.42964550063135
 10
139.21223124016842
 20
-233.72712147515352
 10
138.82287020702773
 20
-234.0238678953733
 10
138.432953330214
 20
-234.3198835726353
 10
138.04248187976557
 20
-234.6151673316862
 10
137.65145711832218
 20
-234.90971798588305
 10
137.25988030584944
 20
-235.20353434326069
 10
136.86775275829237
 20
-235.49661528494292
 10
136.47507591703211
 20
-235.78895985950447
 10
136.0818512254932
 20
-236.08056711922205
 10
135.6880801243989
 20
-236.3714361136555
 10
135.29376404700986
 20
-236.66156588307786
 10
134.89890444703443
 20
-236.95095549640934
 10
134.50350276616527
 20
-237.23960400719255
 10
134.10756044518345
 20
-237.52751046854786
 10
133.7110789123657
 20
-237.81467391709458
 10
133.31405962143404
 20
-238.1010934252916
 10
132.91650401254068
 20
-238.38676804771404
 10
132.51841352548357
 20
-238.67169683915967
 10
132.11978958741483
 20
-238.95587883734035
 10
131.720633648648
 20
-239.2393131130346
 10
131.32094714918875
 20
-239.52199872329604
 10
130.92073152754733
 20
-239.80393472367683
 10
130.51998821144366
 20
-240.0851201548887
 10
130.11871864654154
 20
-240.36555408366684
 10
129.71692427337965
 20
-240.6452355700517
 10
129.31460652939208
 20
-240.92416367013857
 10
128.91176684304702
 20
-241.20233742745745
 10
128.5084066557819
 20
-241.4797559046425
 10
128.10452741391148
 20
-241.7564181719364
 10
127.70013056519072
 20
-242.03232330222033
 10
127.29521755054779
 20
-242.30747035882396
 10
126.88978981867764
 20
-242.58185841690357
 10
126.48384882317362
 20
-242.8554865593818
 10
126.07739601136596
 20
-243.1283538604127
 10
125.67043282513302
 20
-243.40045938637874
 10
125.26296070919409
 20
-243.67180220818017
 10
124.85498111805806
 20
-243.94238141178815
 10
124.4464954984619
 20
-244.21219607187837
 10
124.0375052934179
 20
-244.48124525772735
 10
123.6280119439611
 20
-244.74952803574115
 10
123.2180169057053
 20
-245.01704349478595
 10
122.8075216250189
 20
-245.28379070988106
 10
122.3965275462384
 20
-245.549768753045
 10
121.98503610701769
 20
-245.81497668596845
 10
121.5730487642692
 20
-246.07941360026675
 10
121.16056696422615
 20
-246.343078571135
 10
120.74759215274544
 20
-246.60597067318946
 10
120.33412576441299
 20
-246.86808896320073
 10
119.92016925764017
 20
-247.1294325353951
 10
119.50572407869481
 20
-247.3900004648759
 10
119.09079167291463
 20
-247.6497918251361
 10
118.67537347385479
 20
-247.90880567055657
 10
118.25947093625169
 20
-248.16704108917975
 10
117.84308550610838
 20
-248.42449715489755
 10
117.42621862836566
 20
-248.68117293960486
 10
117.00887173864061
 20
-248.9370674996256
 10
116.59104628898314
 20
-249.1921799176216
 10
116.17274372746651
 20
-249.44650926948012
 10
115.75396549965099
 20
-249.7000546265591
 10
115.33471304346297
 20
-249.95281504704775
 10
114.91498780860374
 20
-250.20478960805056
 10
114.49479124544729
 20
-250.45597738734975
 10
114.07412480044258
 20
-250.70637745564468
 10
113.65298991406223
 20
-250.9559888729005
 10
113.2313880339978
 20
-251.2048107104906
 10
112.80932061316418
 20
-251.45284204800754
 10
112.38678909917328
 20
-251.70008195538244
 10
111.96379493528913
 20
-251.94652949428135
 10
111.54033956753558
 20
-252.1921837301781
 10
111.11642445161485
 20
-252.43704374440665
 10
110.69205103658366
 20
-252.68110860603102
 10
110.26722077864838
 20
-252.9243773956718
 10
109.84193520242083
 20
-253.1668493130991
 10
109.41619587603678
 20
-253.40852363542106
 10
108.99000435874338
 20
-253.64939962573237
 10
108.5633622075416
 20
-253.88947654458903
 10
108.1362709725125
 20
-254.12875364154507
 10
107.70873222094686
 20
-254.36723019822227
 10
107.28074750983382
 20
-254.60490547932466
 10
106.85231839541756
 20
-254.84177874953795
 10
106.42344642286812
 20
-255.07784925468266
 10
105.99413315866707
 20
-255.3131162804727
 10
105.56438015774556
 20
-255.54757909299738
 10
105.13418897455172
 20
-255.78123695865887
 10
104.70356115321856
 20
-256.01408912590796
 10
104.27249825600167
 20
-256.24613487774565
 10
103.8410018371723
 20
-256.47737348363296
 10
103.40907344938184
 20
-256.7078042110922
 10
102.97671463652186
 20
-256.93742631215025
 10
102.54392695629987
 20
-257.1662390657368
 10
102.11071196270599
 20
-257.3942417448661
 10
101.67707120681062
 20
-257.62143361798076
 10
101.24300623243184
 20
-257.84781394048133
 10
100.8085185624589
 20
-258.0733819280418
 10
100.37360959860689
 20
-258.29813656197865
 10
99.93828070966264
 20
-258.5220767564946
 10
99.50253326053037
 20
-258.74520141402246
 10
99.06636862371455
 20
-258.9675094475153
 10
98.62978817803291
 20
-259.18899977812544
 10
98.19279329888919
 20
-259.4096713160693
 10
97.75538535926364
 20
-259.62952296232515
 10
97.31756573590779
 20
-259.84855362080475
 10
96.87933581578608
 20
-260.06676221137224
 10
96.44069698133234
 20
-260.2841476403772
 10
96.00165061398727
 20
-260.5007088075048
 10
95.5621980952218
 20
-260.71644460768016
 10
95.12234082053088
 20
-260.9313539596463
 10
94.68208017979136
 20
-261.1454357660223
 10
94.24141756329301
 20
-261.3586889253836
 10
93.80035435769483
 20
-261.5711123237258
 10
93.35889196740852
 20
-261.78270487886306
 10
92.91703179016937
 20
-261.9934654898366
 10
92.47477522550066
 20
-262.20339305430946
 10
92.03212366572156
 20
-262.4124864494278
 10
91.58907852454897
 20
-262.620744592289
 10
91.14564126331986
 20
-262.8281664969516
 10
90.7018135429434
 20
-263.0347516025665
 10
90.25759705887289
 20
-263.2404994253081
 10
89.81299352181864
 20
-263.44540951817123
 10
89.36800463406962
 20
-263.64948142006085
 10
88.9226320954429
 20
-263.8527146684509
 10
88.47687759680582
 20
-264.05510878497756
 10
88.03074284044169
 20
-264.2566633201742
 10
87.58422952397467
 20
-264.4573778182833
 10
87.13733934141624
 20
-264.6572518193841
 10
86.69007397917136
 20
-264.85628485022136
 10
86.24243513137634
 20
-265.05447645853764
 10
85.79442449111967
 20
-265.2518261935642
 10
85.3460437467909
 20
-265.4483335976477
 10
84.89729458046993
 20
-265.64399820230386
 10
84.44817867843236
 20
-265.83881955215736
 10
83.99869772937245
 20
-266.03279720109487
 10
83.54885341625237
 20
-266.2259306934026
 10
83.09864741698044
 20
-266.41821956505373
 10
82.64808141025607
 20
-266.60966335721696
 10
82.19715708053857
 20
-266.80026162812146
 10
81.7458761055644
 20
-266.9900139236779
 10
81.29424015138697
 20
-267.1789197652245
 10
80.84225085290805
 20
-267.3669786021641
 10
80.38990984802342
 20
-267.55418989295384
 10
79.9372187676367
 20
-267.7405530809946
 10
79.48417924070537
 20
-267.92606760652075
 10
79.03079289115117
 20
-268.1107328988608
 10
78.57706135573476
 20
-268.29454842032675
 10
78.12298626330436
 20
-268.47751361541305
 10
77.66856924192831
 20
-268.6596279281038
 10
77.21381191152867
 20
-268.84089078327236
 10
76.75871590793199
 20
-269.0213016469388
 10
76.30328285816196
 20
-269.20085996450854
 10
75.84751438882445
 20
-269.3795651815871
 10
75.39141211846804
 20
-269.5574167242889
 10
74.93497767986754
 20
-269.73441405626505
 10
74.47821269923685
 20
-269.9105566256381
 10
74.02111880165711
 20
-270.0858438787123
 10
73.56369760541223
 20
-270.2602752449651
 10
73.1059507396413
 20
-270.4338501832038
 10
72.64787983025602
 20
-270.6065681448879
 10
72.18948650106114
 20
-270.778428576863
 10
71.73077237027117
 20
-270.9494309117996
 10
71.27173906095979
 20
-271.119574596021
 10
70.8123881902541
 20
-271.2888590605115
 10
70.35272137159484
 20
-271.45728372666065
 10
69.89274021418603
 20
-271.62484800441575
 10
69.43244633186363
 20
-271.7915513164475
 10
68.97184134171425
 20
-271.95739309462977
 10
68.51092685704937
 20
-272.12237276056504
 10
68.04970448808608
 20
-272.28648972714734
 10
67.58817584666927
 20
-272.44974341163487
 10
67.12634255087298
 20
-272.61213324885637
 10
66.66420621414493
 20
-272.77365866053026
 10
66.20176844793873
 20
-272.93431906241045
 10
65.73903086246293
 20
-273.0941138662326
 10
65.27599507700565
 20
-273.2530425097015
 10
64.81266270542136
 20
-273.4111044145656
 10
64.34903536062369
 20
-273.56829899935923
 10
63.88511465155016
 20
-273.7246256702088
 10
63.420902198929554
 20
-273.8800838676232
 10
62.9563996172969
 20
-274.03467301330755
 10
62.49160852125489
 20
-274.1883925285014
 10
62.02653051883978
 20
-274.3412418136617
 10
61.561167231833316
 20
-274.49322031013844
 10
61.09552025562397
 20
-274.6443273774943
 10
60.62959116326227
 20
-274.7945623039548
 10
60.163381521126524
 20
-274.94392435330997
 10
59.696892908639256
 20
-275.0924128262174
 10
59.23012690133938
 20
-275.24002700765965
 10
58.76308507509527
 20
-275.3867661798269
 10
58.2957690015283
 20
-275.53262960727017
 10
57.8281802625473
 20
-275.6776165832923
 10
57.3603204389543
 20
-275.8217263937442
 10
56.89219111112178
 20
-275.9649583189461
 10
56.42379385622664
 20
-276.10731162431534
 10
55.95513025908603
 20
-276.2487855958292
 10
55.48620190607477
 20
-276.38937952031597
 10
55.01701038241833
 20
-276.52909267631406
 10
54.54755727116414
 20
-276.6679243302414
 10
54.077844160453466
 20
-276.8058737607639
 10
53.60787264254733
 20
-276.9429402558262
 10
53.1376443078727
 20
-277.0791230922883
 10
52.66716074566451
 20
-277.21442153772534
 10
52.19642354779817
 20
-277.3488348635042
 10
51.72543431273843
 20
-277.48236235884855
 10
51.25419464428649
 20
-277.6150033269322
 10
50.78270626799545
 20
-277.74675750200834
 10
50.310971003625184
 20
-277.8776249619217
 10
49.83899067798636
 20
-278.00760582207
 10
49.366767110166265
 20
-278.1367001824462
 10
48.89430211531478
 20
-278.26490814094655
 10
48.42159750200098
 20
-278.3922297833387
 10
47.94865508532591
 20
-278.51866523191546
 10
47.47547667205744
 20
-278.6442145905373
 10
47.002064065848664
 20
-278.76887796372057
 10
46.52841906164553
 20
-278.8926554350522
 10
46.05454346296545
 20
-279.01554713316654
 10
45.58043906443105
 20
-279.1375531652474
 10
45.10610765765928
 20
-279.2586736392253
 10
44.631551026273335
 20
-279.37890864394177
 10
44.156770960329624
 20
-279.4982583058897
 10
43.681769243171395
 20
-279.6167227376884
 10
43.20654765451315
 20
-279.73430204993167
 10
42.731107966983785
 20
-279.8509963368548
 10
42.25545195730369
 20
-279.96680572164587
 10
41.779581397751635
 20
-280.0817303220529
 10
41.30349805634976
 20
-280.1957702508206
 10
40.82720367325486
 20
-280.30892551575647
 10
40.35069988134387
 20
-280.42119567923015
 10
39.87398827970305
 20
-280.5325801581155
 10
39.397070466563804
 20
-280.64307836063233
 10
38.919948038761945
 20
-280.75268968354106
 10
38.44262259693895
 20
-280.8614135345173
 10
37.965095745494665
 20
-280.9692493323407
 10
37.4873690874587
 20
-281.07619648431114
 10
37.00944422527517
 20
-281.1822543892108
 10
36.5313227632379
 20
-281.2874224479775
 10
36.053006311352476
 20
-281.3917000815244
 10
35.57449647776146
 20
-281.4950866963528
 10
35.09579487079188
 20
-281.5975816934281
 10
34.61690309877781
 20
-281.6991844670024
 10
34.13782277760574
 20
-281.7998944402938
 10
33.6585555208423
 20
-281.8997110191408
 10
33.17910294296777
 20
-281.9986336068497
 10
32.699466656751135
 20
-282.0966615910854
 10
32.21964828422898
 20
-282.1937943975413
 10
31.739649444702412
 20
-282.290031431542
 10
31.259471758954085
 20
-282.38537209830895
 10
30.77911684530629
 20
-282.4798157827208
 10
30.29858634575922
 20
-282.57336198288766
 10
29.817881916123827
 20
-282.66601026334706
 10
29.337005213756047
 20
-282.75776019335086
 10
28.855957892964614
 20
-282.8486113225659
 10
28.374741615320627
 20
-282.93856323540416
 10
27.89335804063546
 20
-283.0276155037366
 10
27.411808828690457
 20
-283.11576769563544
 10
26.930095636967334
 20
-283.20301936246597
 10
26.448220128454377
 20
-283.2893700816992
 10
25.96618396613351
 20
-283.374819426973
 10
25.483988812534633
 20
-283.4593669652236
 10
25.001636328591108
 20
-283.5430122495783
 10
24.519128179115835
 20
-283.6257548505948
 10
24.03646603054098
 20
-283.7075943437408
 10
23.553651548465663
 20
-283.7885302948757
 10
23.070686397558845
 20
-283.8685622589873
 10
22.58757224485904
 20
-283.94768979971525
 10
22.10431076052902
 20
-284.0259124944581
 10
21.620903613559545
 20
-284.10322990807003
 10
21.137352472640472
 20
-284.1796415975323
 10
20.65365900742945
 20
-284.25514711953525
 10
20.1698249040171
 20
-284.3297461310829
 10
19.685851929262995
 20
-284.4034388170396
 10
19.201741881906745
 20
-284.476225590685
 10
18.717496555762505
 20
-284.54810685791045
 10
18.23311774569312
 20
-284.6190830575889
 10
17.748607240067624
 20
-284.68915461107673
 10
17.26396682334099
 20
-284.7583219390338
 10
16.779198273717117
 20
-284.82658544449873
 10
16.29430337156863
 20
-284.89394557249847
 10
15.809283890532319
 20
-284.9604027473544
 10
15.32414160059687
 20
-285.025957394035
 10
14.838878265304274
 20
-285.090609916848
 10
14.35349565008397
 20
-285.1543607616775
 10
13.867995514277972
 20
-285.21721035677393
 10
13.382379613429134
 20
-285.2791591293293
 10
12.896649697232826
 20
-285.34020748876355
 10
12.410807515885685
 20
-285.4003558768571
 10
11.924854814835964
 20
-285.4596047266553
 10
11.43879333542735
 20
-285.51795446699987
 10
10.952624813705244
 20
-285.57540551179983
 10
10.466350984992157
 20
-285.6319582982768
 10
9.97997357912798
 20
-285.68761324677445
 10
9.493494257538874
 20
-285.7423701990259
 10
9.00691460285422
 20
-285.796228287535
 10
8.52023619838851
 20
-285.8491866160866
 10
8.033460632291783
 20
-285.9012442963341
 10
7.546589495516967
 20
-285.9524004288319
 10
7.059624382043539
 20
-286.0026541040454
 10
6.57256689049146
 20
-286.0520044173144
 10
6.08541862527029
 20
-286.1004504808351
 10
5.598181193463729
 20
-286.1479913928665
 10
5.110856205635758
 20
-286.19462624468156
 10
4.623445276195824
 20
-286.2403541236075
 10
4.135950026180118
 20
-286.28517414300967
 10
3.648372079206551
 20
-286.32908539942247
 10
3.1607130627857685
 20
-286.37208698558317
 10
2.67297460758976
 20
-286.4141779812299
 10
2.185158351638027
 20
-286.45535750156307
 10
1.697265935472534
 20
-286.4956246419865
 10
1.2092990038983091
 20
-286.53497849737425
 10
0.7212592043172588
 20
-286.5734181403289
 10
0.23314819207169907
 20
-286.6109426885735
 10
-0.25503237499007825
 20
-286.6475512370312
 10
-0.7432808130668371
 20
-286.6832431774821
 10
-1.2315953642938933
 20
-286.71801890284775
 10
-1.7199742557425604
 20
-286.75187906392665
 10
-2.2084157198267094
 20
-286.78482429722857
 10
-2.6969179933749823
 20
-286.81685523687474
 10
-3.1854793184886048
 20
-286.8479725001937
 10
-3.6740979395836937
 20
-286.87817673330653
 10
-4.162772105632559
 20
-286.90746857730136
 10
-4.651500070130469
 20
-286.93584866759375
 10
-5.140280091470208
 20
-286.9633176257582
 10
-5.629110431016083
 20
-286.989876092713
 10
-6.117989354052396
 20
-287.01552471342336
 10
-6.6069151304390035
 20
-287.0402641239619
 10
-7.095886034604037
 20
-287.06409494945916
 10
-7.58490034445485
 20
-287.08701782512344
 10
-8.073956341321479
 20
-287.10903339911425
 10
-8.563052311112841
 20
-287.1301423075444
 10
-9.05218654402091
 20
-287.15034517845373
 10
-9.541357334077402
 20
-287.16964264081224
 10
-10.030562978379582
 20
-287.1880353453295
 10
-10.519801778553852
 20
-287.20552392756156
 10
-11.009072041980705
 20
-287.22210896642935
 10
-11.498372095248392
 20
-287.23779054934846
 10
-11.98770027289526
 20
-287.2525685297788
 10
-12.477054909535669
 20
-287.26644274063614
 10
-12.966434339174997
 20
-287.2794130130238
 10
-13.455836895538066
 20
-287.29147916094905
 10
-13.945260910640938
 20
-287.30264103857695
 10
-14.434704716367138
 20
-287.3128984791981
 10
-14.924166643877236
 20
-287.32225131621215
 10
-15.413645023944765
 20
-287.33069936147206
 10
-15.903138185816546
 20
-287.33824246904624
 10
-16.392644458360113
 20
-287.3448804739244
 10
-16.882162169676395
 20
-287.3506132100078
 10
-17.371689647225494
 20
-287.3554404928231
 10
-17.86122521727769
 20
-287.3593621706941
 10
-18.350767205420144
 20
-287.36237808235376
 10
-18.840313936433656
 20
-287.36448806232033
 10
-19.329863734251965
 20
-287.3656919299166
 10
-19.81941492181526
 20
-287.3659895278275
 10
-20.30896582121929
 20
-287.3653806986647
 10
-20.798514753666424
 20
-287.36386527769065
 10
-21.28806003936058
 20
-287.3614430894939
 10
-21.777599997692057
 20
-287.3581139890768
 10
-22.26713294737285
 20
-287.3538778514358
 10
-22.756657206244046
 20
-287.3487345408594
 10
-23.246171091178645
 20
-287.3426839122761
 10
-23.7356729181843
 20
-287.3357258249284
 10
-24.22516100266426
 20
-287.3278601563361
 10
-24.71463365896026
 20
-287.31908677003787
 10
-25.20408920036636
 20
-287.30940552331754
 10
-25.693525939083827
 20
-287.2988162685793
 10
-26.182942186950772
 20
-287.2873188857824
 10
-26.672336254509766
 20
-287.27491323785426
 10
-27.161706451222013
 20
-287.2615991845917
 10
-27.651051085091716
 20
-287.247376571681
 10
-28.140368464141353
 20
-287.23224528167793
 10
-28.629656894816215
 20
-287.21620517705077
 10
-29.118914682491514
 20
-287.19925612017795
 10
-29.608140130598684
 20
-287.1813979504923
 10
-30.097331543083133
 20
-287.1626305529603
 10
-30.586487222004987
 20
-287.14295378988345
 10
-31.075605468277537
 20
-287.12236752338924
 10
-31.564684582169754
 20
-287.1008716272853
 10
-32.0537228887037
 20
-287.07846653770645
 10
-32.54271873500135
 20
-287.05515311415456
 10
-33.03167047303734
 20
-287.0309322262027
 10
-33.52057645833595
 20
-287.0058047272619
 10
-34.00943505210209
 20
-286.97977149704565
 10
-34.49824461979395
 20
-286.9528334120764
 10
-34.98700353088188
 20
-286.92499134238193
 10
-35.47571015837901
 20
-286.89624614496665
 10
-35.96436288050915
 20
-286.86659869315736
 10
-36.45296008020962
 20
-286.83604986667405
 10
-36.941500144109725
 20
-286.80460053536586
 10
-37.42998146241477
 20
-286.7722515591395
 10
-37.91840242993417
 20
-286.7390038044354
 10
-38.40676144678003
 20
-286.7048581534984
 10
-38.8950569163884
 20
-286.6698154753884
 10
-39.38328724584492
 20
-286.6338766322232
 10
-39.87145084610442
 20
-286.5970424831258
 10
-40.359546134134085
 20
-286.5593139121887
 10
-40.84757152981325
 20
-286.5206917870932
 10
-41.33552545678014
 20
-286.4811769714985
 10
-41.82340633365238
 20
-286.4407702204776
 10
-42.31121250115211
 20
-286.3994713300658
 10
-42.79894224604607
 20
-286.35727949195564
 10
-43.286593849142946
 20
-286.3141938897068
 10
-43.77416558403222
 20
-286.27021368602243
 10
-44.26165572286263
 20
-286.2253380872375
 10
-44.749062530506016
 20
-286.17956627779324
 10
-45.23638426646309
 20
-286.13289744232833
 10
-45.72361918284519
 20
-286.0853307454497
 10
-46.21076553002514
 20
-286.03686539013523
 10
-46.69782155150941
 20
-285.98750056437876
 10
-47.18478548511845
 20
-285.9372354541232
 10
-47.67165556138114
 20
-285.88606922856707
 10
-48.15843000831637
 20
-285.8340010861938
 10
-48.645107047867334
 20
-285.78103022006457
 10
-49.131684895874045
 20
-285.7271558182657
 10
-49.61816176104576
 20
-285.6723770555514
 10
-50.104535848636615
 20
-285.616693126524
 10
-50.59080535880317
 20
-285.56010323028727
 10
-51.07696848512308
 20
-285.5026065579348
 10
-51.56302341427337
 20
-285.444202290757
 10
-52.048968358849805
 20
-285.3848898688854
 10
-52.53480172570563
 20
-285.3246703337521
 10
-53.02052200310056
 20
-285.2635453379282
 10
-53.50612768668309
 20
-285.20151652778657
 10
-53.991617280022474
 20
-285.13858554820945
 10
-54.476989297840824
 20
-285.07475406724785
 10
-54.962242260919545
 20
-285.0100237367499
 10
-55.447374697506575
 20
-284.9443962039563
 10
-55.93238514226497
 20
-284.87787310436244
 10
-56.41727214236488
 20
-284.81045610616906
 10
-56.90203425033476
 20
-284.7421468578667
 10
-57.38667002645279
 20
-284.672947006291
 10
-57.87117803580954
 20
-284.60285817669376
 10
-58.35555685744154
 20
-284.5318820361849
 10
-58.83980507500951
 20
-284.4600202287965
 10
-59.32392127985723
 20
-284.3872743972792
 10
-59.807904067934366
 20
-284.3136461631873
 10
-60.291752048431746
 20
-284.239137184001
 10
-60.77546383587446
 20
-284.1637491006795
 10
-61.25903805194064
 20
-284.0874835502031
 10
-61.74247332275694
 20
-284.01034214905104
 10
-62.225768170700945
 20
-283.93232582562865
 10
-62.70892083605504
 20
-283.8534337567874
 10
-63.191929509256006
 20
-283.77366485318885
 10
-63.674792370982445
 20
-283.6930180123671
 10
-64.15750759763559
 20
-283.6114921519596
 10
-64.64007335869371
 20
-283.5290861934188
 10
-65.12248781475529
 20
-283.44579905076915
 10
-65.60474911700601
 20
-283.3616296281845
 10
-66.08685541084132
 20
-283.27657684117327
 10
-66.56880483627609
 20
-283.19063961848553
 10
-67.05059552377892
 20
-283.1038168786609
 10
-67.53222559482882
 20
-283.0161075338178
 10
-68.01369316339542
 20
-282.9275104982218
 10
-68.49499633983292
 20
-282.8380247092366
 10
-68.976133224219
 20
-282.74764909110394
 10
-69.45710190814921
 20
-282.6563825652366
 10
-69.93790047376636
 20
-282.5642240455557
 10
-70.41852700160624
 20
-282.47117247940633
 10
-70.89897956112574
 20
-282.37722679795723
 10
-71.37925621389174
 20
-282.2823859332709
 10
-71.85935503041877
 20
-282.1866489026797
 10
-72.33927440715141
 20
-282.0900163785997
 10
-72.81901299778346
 20
-281.9924902908892
 10
-73.29856947221789
 20
-281.8940726033786
 10
-73.77794250535982
 20
-281.7947652585584
 10
-74.25713078897714
 20
-281.6945702351154
 10
-74.73613302080217
 20
-281.5934894949483
 10
-75.21494790708526
 20
-281.49152499595124
 10
-75.6935741594834
 20
-281.38867867784757
 10
-76.17201050439873
 20
-281.2849525059587
 10
-76.65025567605407
 20
-281.1803484386335
 10
-77.1283084162654
 20
-281.0748684265947
 10
-77.60616747267163
 20
-280.96851440540973
 10
-78.0838316054863
 20
-280.8612883261645
 10
-78.56129958464233
 20
-280.75319214230245
 10
-79.03857018672129
 20
-280.6442277961981
 10
-79.51564219455261
 20
-280.5343972179411
 10
-79.9925144013294
 20
-280.42370234355957
 10
-80.46918561189251
 20
-280.3121451202925
 10
-80.9456546367723
 20
-280.1997274810458
 10
-81.42192029282309
 20
-280.086451347673
 10
-81.89798123645058
 20
-279.9723179369788
 10
-82.37383569693338
 20
-279.8573266776279
 10
-82.84948182490989
 20
-279.7414766968653
 10
-83.32491776318228
 20
-279.62476711919766
 10
-83.80014164523833
 20
-279.50719706071686
 10
-84.2751516054675
 20
-279.3887656704057
 10
-84.74994576703762
 20
-279.2694720809902
 10
-85.2245222459843
 20
-279.14931542580854
 10
-85.6988791465483
 20
-279.02829482075595
 10
-86.17301457643495
 20
-278.9064094242504
 10
-86.64692663115794
 20
-278.7836583755876
 10
-87.12061339929208
 20
-278.6600408158798
 10
-87.59407295729353
 20
-278.5355558685364
 10
-88.06730338430496
 20
-278.41020269577274
 10
-88.54030274863162
 20
-278.2839804468694
 10
-89.01306911100485
 20
-278.1568882709133
 10
-89.48560052074893
 20
-278.02892530287363
 10
-89.9578950274343
 20
-277.90009070685585
 10
-90.42995067235891
 20
-277.77038364433804
 10
-90.9017654882976
 20
-277.6398032735388
 10
-91.37333758919047
 20
-277.50834907083185
 10
-91.84466558578758
 20
-277.37602230261166
 10
-92.31574826276226
 20
-277.24282483404374
 10
-92.78658441027488
 20
-277.10875851986447
 10
-93.25717282364033
 20
-276.97382520362027
 10
-93.72751230775
 20
-276.8380267333541
 10
-94.19760167972993
 20
-276.7013649705925
 10
-94.66743976085804
 20
-276.5638417624025
 10
-95.13702537829836
 20
-276.42545894777146
 10
-95.60635736571874
 20
-276.2862183599848
 10
-96.07543457183498
 20
-276.1461218553504
 10
-96.54425584828216
 20
-276.00517127225874
 10
-97.01282005331498
 20
-275.8633684439855
 10
-97.48112604860229
 20
-275.72071518838897
 10
-97.9491727136842
 20
-275.5772133554329
 10
-98.41695892977785
 20
-275.4328647738726
 10
-98.88448358537538
 20
-275.28767126990994
 10
-99.35174556961283
 20
-275.14163464615035
 10
-99.81874379182018
 20
-274.9947567443254
 10
-100.28547716210005
 20
-274.8470393829146
 10
-100.75194454012781
 20
-274.6984841974027
 10
-101.21814430076296
 20
-274.54909128952875
 10
-101.68407458326242
 20
-274.39886003643295
 10
-102.1497335152945
 20
-274.24778979979186
 10
-102.6151192172819
 20
-274.0958799396839
 10
-103.08022979850898
 20
-273.94312980295456
 10
-103.54506336973503
 20
-273.78953876181845
 10
-104.00961803477307
 20
-273.63510618796744
 10
-104.47389188914619
 20
-273.4798314487192
 10
-104.93788301813467
 20
-273.3237139015019
 10
-105.4015895055269
 20
-273.16675292006187
 10
-105.86500943126269
 20
-273.00894788722064
 10
-106.32814086587267
 20
-272.8502981785569
 10
-106.79098187064068
 20
-272.69080316323317
 10
-107.25353050211963
 20
-272.5304622173138
 10
-107.71578481640108
 20
-272.369274735912
 10
-108.17774285896083
 20
-272.2072401039134
 10
-108.63940266712196
 20
-272.04435770337886
 10
-109.10076226997072
 20
-271.88062691352025
 10
-109.56181969980538
 20
-271.7160471429233
 10
-110.02257304230494
 20
-271.5506179683663
 10
-110.48302093894326
 20
-271.38434052214075
 10
-110.94316231561012
 20
-271.2172167107361
 10
-111.40299612147378
 20
-271.04924848144384
 10
-111.86252130635432
 20
-270.88043775979565
 10
-112.32173682766557
 20
-270.7107864689212
 10
-112.78064164304867
 20
-270.54029650985416
 10
-113.23923473167962
 20
-270.3689698190303
 10
-113.69751507397834
 20
-270.1968083134504
 10
-114.15548165722103
 20
-270.023813906041
 10
-114.61313346982939
 20
-269.8499884907768
 10
-115.07046951808061
 20
-269.67533398683025
 10
-115.5274888128703
 20
-269.49985230352377
 10
-115.98419037051444
 20
-269.32354534266466
 10
-116.44057320938916
 20
-269.1464149901106
 10
-116.89663636205236
 20
-268.9684631471887
 10
-117.35237886904162
 20
-268.7896917145088
 10
-117.80779977488173
 20
-268.6101025818906
 10
-118.26289812707074
 20
-268.42969762609204
 10
-118.71767298361546
 20
-268.2484787300133
 10
-119.17212330458887
 20
-268.06644751219017
 10
-119.6262474024491
 20
-267.8836039668925
 10
-120.08004334492082
 20
-267.699947492105
 10
-120.53350919294121
 20
-267.5154774874338
 10
-120.98664300915412
 20
-267.33019337490987
 10
-121.43944284421184
 20
-267.1440945653096
 10
-121.89190674060806
 20
-266.95718046781917
 10
-122.3440327306576
 20
-266.76945048536663
 10
-122.79581885229413
 20
-266.5809040526571
 10
-123.24726313008578
 20
-266.3915405903694
 10
-123.69836358171916
 20
-266.201359520978
 10
-124.14911821067304
 20
-266.0103602516032
 10
-124.59952503025178
 20
-265.81854223081774
 10
-125.04958203893509
 20
-265.62590489030026
 10
-125.49928722868363
 20
-265.432447664654
 10
-125.9486385770228
 20
-265.2381699732113
 10
-126.39763406967286
 20
-265.04307127249507
 10
-126.84627168008129
 20
-264.84715100869136
 10
-127.29454937416276
 20
-264.65040862881006
 10
-127.7424651048962
 20
-264.45284356859264
 10
-128.19001709386143
 20
-264.25445588729946
 10
-128.6372043523304
 20
-264.05524742608105
 10
-129.0840260442143
 20
-263.8552203502382
 10
-129.53048133666323
 20
-263.6543768103843
 10
-129.976569411454
 20
-263.45271896792997
 10
-130.42228946160932
 20
-263.25024898738826
 10
-130.86764068434056
 20
-263.04696902086624
 10
-131.31262228128884
 20
-262.8428812088825
 10
-131.75723346407216
 20
-262.6379876926294
 10
-132.20147345979976
 20
-262.4322906258381
 10
-132.645341497996
 20
-262.2257921464258
 10
-133.08883681379237
 20
-262.01849438367157
 10
-133.53195864769248
 20
-261.8103994579024
 10
-133.97470625988626
 20
-261.6015095109582
 10
-134.41707891121968
 20
-261.3918266656282
 10
-134.8590758693034
 20
-261.18135303887124
 10
-135.30069640257858
 20
-260.9700907295552
 10
-135.74193980329753
 20
-260.75804186657365
 10
-136.18280536263623
 20
-260.5452085567039
 10
-136.62329235622823
 20
-260.33159285531156
 10
-137.0633994518789
 20
-260.1171955521423
 10
-137.5031246823446
 20
-259.90201613694217
 10
-137.9424660333463
 20
-259.6860540196015
 10
-138.38142148313207
 20
-259.46930861196455
 10
-138.81998899509736
 20
-259.2517793130855
 10
-139.2581665393487
 20
-259.033465552824
 10
-139.69595207515357
 20
-258.8143667563095
 10
-140.13334355285744
 20
-258.5944823479869
 10
-140.57033890934218
 20
-258.37381174279835
 10
-141.00693608391444
 20
-258.1523543777802
 10
-141.44313300955227
 20
-257.9301096945741
 10
-141.8789276087746
 20
-257.7070771314139
 10
-142.314317792153
 20
-257.4832561204464
 10
-142.74930146805386
 20
-257.25864610684005
 10
-143.18387654338875
 20
-257.0332465500766
 10
-143.61804091296753
 20
-256.80705690339136
 10
-144.05179246129032
 20
-256.5800766174679
 10
-144.4851290656863
 20
-256.35230514660464
 10
-144.91804860726666
 20
-256.12374196947206
 10
-145.35054919178094
 20
-255.89438700476924
 10
-145.78262993225033
 20
-255.66424207341822
 10
-146.2142902114238
 20
-255.43330948724707
 10
-146.64552943684518
 20
-255.20159158400443
 10
-147.07634701589623
 20
-254.96909068063513
 10
-147.50674236457684
 20
-254.7358090898669
 10
-147.9367148968321
 20
-254.50174910071595
 10
-148.36626405621416
 20
-254.26691303675324
 10
-148.79538928419512
 20
-254.03130319776065
 10
-149.22409003053968
 20
-253.79492187898094
 10
-149.65236574432646
 20
-253.55777135500472
 10
-150.08021589894258
 20
-253.3198539250378
 10
-150.5076399704929
 20
-253.08117187377093
 10
-150.9346374413797
 20
-252.84172747802353
 10
-151.3612077946512
 20
-252.60152299687627
 10
-151.78735053246965
 20
-252.36056070459495
 10
-152.21306516440953
 20
-252.11884286972284
 10
-152.6383512043782
 20
-251.87637174978298
 10
-153.06320816825533
 20
-251.6331495873582
 10
-153.4876355171589
 20
-251.38917851179218
 10
-153.91163184687497
 20
-251.14445913698384
 10
-154.3351951416468
 20
-250.89899102267657
 10
-154.75832336297927
 20
-250.65277370416993
 10
-155.18101446708178
 20
-250.4058067227252
 10
-155.6032664130785
 20
-250.1580896395418
 10
-156.02507714659924
 20
-249.90962200768365
 10
-156.44644460412272
 20
-249.66040337969824
 10
-156.86736671168202
 20
-249.41043330558608
 10
-157.28784140363305
 20
-249.1597113643932
 10
-157.70786659902444
 20
-248.90823712437248
 10
-158.1274402095836
 20
-248.6560101565859
 10
-158.54656013108956
 20
-248.40303002072233
 10
-158.9652242734236
 20
-248.14929631494763
 10
-159.38343052923915
 20
-247.89480862387774
 10
-159.80117678462446
 20
-247.6395665364061
 10
-160.218460908672
 20
-247.38356962878999
 10
-160.6352807835185
 20
-247.1268175137065
 10
-161.05163427685198
 20
-246.86930979530223
 10
-161.46751927742176
 20
-246.61104612658642
 10
-161.88293442255136
 20
-246.35202737500035
 10
-162.29787918948514
 20
-246.09225575008787
 10
-162.71235310200538
 20
-245.831733519179
 10
-163.12635568853236
 20
-245.57046293997544
 10
-163.53988647863724
 20
-245.30844625521613
 10
-163.95294501762191
 20
-245.0456857158172
 10
-164.36553086227184
 20
-244.78218357403108
 10
-164.7776435717223
 20
-244.51794206918044
 10
-165.18928270791056
 20
-244.25296342856748
 10
-165.60044784238977
 20
-243.98724987820435
 10
-166.0111385638094
 20
-243.72080365430412
 10
-166.42135446090958
 20
-243.45362697699574
 10
-166.8310951268465
 20
-243.18572205719514
 10
-167.24036015838936
 20
-242.91709109552815
 10
-167.649149174903
 20
-242.64773631124842
 10
-168.05746179362643
 20
-242.37765990453323
 10
-168.46529763780694
 20
-242.10686406904702
 10
-168.8726563283755
 20
-241.8353509795566
 10
-169.27953749271808
 20
-241.5631228053238
 10
-169.68594008563903
 20
-241.29018069955416
 10
-170.09186228187917
 20
-241.01652465433767
 10
-170.49730219600065
 20
-240.74215458242097
 10
-170.90225795899917
 20
-240.46707043134697
 10
-171.30672768767903
 20
-240.19127213806505
 10
-171.71070949294057
 20
-239.91475964131334
 10
-172.11420147133083
 20
-239.6375328694131
 10
-172.51720173025802
 20
-239.359591777059
 10
-172.91970836876544
 20
-239.08093631720766
 10
-173.3217194780538
 20
-238.80156644195293
 10
-173.72323313694122
 20
-238.52148209616036
 10
-174.12424742920348
 20
-238.24068324242018
 10
-174.5247604364271
 20
-237.95916985066862
 10
-174.9247702303071
 20
-237.67694188725991
 10
-175.32427487224766
 20
-237.39399931457518
 10
-175.7232724223829
 20
-237.11034210387135
 10
-176.12176094517395
 20
-236.8259702430479
 10
-176.51973849304093
 20
-236.5408837136332
 10
-176.91720316587092
 20
-236.2550825736632
 10
-177.314153818674
 20
-235.96856793676798
 10
-177.71058987741677
 20
-235.68134170291506
 10
-178.10651077626284
 20
-235.39340577233494
 10
-178.50191595360945
 20
-235.10476204007242
 10
-178.89680484359963
 20
-234.815412384493
 10
-179.29117690815283
 20
-234.52535871103385
 10
-179.68503160258868
 20
-234.23460290519023
 10
-180.07836838738402
 20
-233.94314684869127
 10
-180.47118671612128
 20
-233.65099240336426
 10
-180.86348607036783
 20
-233.3581414581094
 10
-181.2552659267939
 20
-233.06459588456542
 10
-181.64652576597982
 20
-232.7703575490846
 10
-182.03726506349756
 20
-232.47542830100264
 10
-182.4274833163513
 20
-232.17981000775885
 10
-182.81718002283893
 20
-231.88350452809456
 10
-183.20635468280554
 20
-231.58651371251295
 10
-183.59500679297741
 20
-231.28883939731207
 10
-183.98313586496297
 20
-230.99048342818878
 10
-184.37074128557123
 20
-230.69144747916465
 10
-184.75782176906262
 20
-230.391732347538
 10
-185.14437581103158
 20
-230.09133855033633
 10
-185.53040190866545
 20
-229.7902666110455
 10
-185.91589856647818
 20
-229.48851706685528
 10
-186.3008642793297
 20
-229.18609044689168
 10
-186.68529753643028
 20
-228.88298727748875
 10
-187.06919682203068
 20
-228.57920808316325
 10
-187.4525606344995
 20
-228.27475341068012
 10
-187.83538746025587
 20
-227.96962379606464
 10
-188.21767578233525
 20
-227.66381977553982
 10
-188.5994240719279
 20
-227.35734187505662
 10
-188.98063082138896
 20
-227.0501906514379
 10
-189.3612945087504
 20
-226.74236664806455
 10
-189.74141360995657
 20
-226.43387041022905
 10
-190.1209865861843
 20
-226.1247024696187
 10
-190.5000119207773
 20
-225.81486338971916
 10
-190.8784880844947
 20
-225.50435372301953
 10
-191.25641355447203
 20
-225.193174034258
 10
-191.633787083393
 20
-224.88132522589538
 10
-192.01060777439312
 20
-224.56880862393407
 10
-192.38687474749096
 20
-224.2556255709326
 10
-192.76258712117078
 20
-223.94177740371111
 10
-193.1377440076716
 20
-223.6272654478403
 10
-193.51234453144338
 20
-223.31209103973526
 10
-193.88638782234986
 20
-222.99625551842158
 10
-194.25987300621864
 20
-222.67976021435553
 10
-194.63279920485118
 20
-222.36260644958327
 10
-195.00516554510122
 20
-222.04479554850414
 10
-195.37697116627479
 20
-221.7263288464504
 10
-195.74821520112928
 20
-221.40720766742194
 10
-196.11889678063733
 20
-221.08743332979785
 10
-196.4890150336041
 20
-220.76700714598823
 10
-196.85856910838527
 20
-220.44593044749297
 10
-197.22755814425713
 20
-220.12420455177784
 10
-197.59598128099057
 20
-219.80183077344532
 10
-197.9638376488612
 20
-219.47881041291896
 10
-198.33112638924663
 20
-219.15514478001364
 10
-198.69784657847694
 20
-218.83083510764448
 10
-199.06399728283185
 20
-218.5058826149132
 10
-199.42957755691594
 20
-218.180288505515
 10
-199.79458648109434
 20
-217.85405400982705
 10
-200.15902312680316
 20
-217.5271803458371
 10
-200.52288656533392
 20
-217.19966872910408
 10
-200.88617585863045
 20
-216.8715203626411
 10
-201.24889008701803
 20
-216.5427364676671
 10
-201.61102832921017
 20
-216.21331826135875
 10
-201.97258966120722
 20
-215.88326695571868
 10
-202.33357315202994
 20
-215.5525837530203
 10
-202.69397788159367
 20
-215.2212698653937
 10
-203.0538029356288
 20
-214.88932650915933
 10
-203.41304739454853
 20
-214.5567548927574
 10
-203.77171033417568
 20
-214.22355621766636
 10
-204.12979083367657
 20
-213.88973168703026
 10
-204.48728798552838
 20
-213.55528251626527
 10
-204.84420082495166
 20
-213.22020985777598
 10
-205.20052809477514
 20
-212.88451455226416
 10
-205.55626842592417
 20
-212.54819732389558
 10
-205.91142046742573
 20
-212.21125891905686
 10
-206.26598285510553
 20
-211.87370007318862
 10
-206.61995422243362
 20
-211.53552152235574
 10
-206.97333318833242
 20
-211.19672399058734
 10
-207.32611839774825
 20
-210.85730823222985
 10
-207.678308479797
 20
-210.51727498819318
 10
-208.0299020619224
 20
-210.17662500081485
 10
-208.38089775675732
 20
-209.8353590003983
 10
-208.73129419958957
 20
-209.49347774379902
 10
-209.08109001474037
 20
-209.15098197973325
 10
-209.43028382298087
 20
-208.80787245650237
 10
-209.778874232797
 20
-208.46414991320486
 10
-210.126859867672
 20
-208.1198151074754
 10
-210.47423934792553
 20
-207.77486879694536
 10
-210.82101128770125
 20
-207.42931173627946
 10
-211.16717437759377
 20
-207.08314475981592
 10
-211.51272803480512
 20
-206.73636942829708
 10
-211.8576720435962
 20
-206.38898766204161
 10
-212.20200618829858
 20
-206.04100137252064
 10
-212.54573025262326
 20
-205.6924124617915
 10
-212.88884402552736
 20
-205.3432228283713
 10
-213.23134731520724
 20
-204.99343438092697
 10
-213.57323992440303
 20
-204.64304901400143
 10
-213.91452165772236
 20
-204.29206861532253
 10
-214.25519231666712
 20
-203.94049506106447
 10
-214.59525172992542
 20
-203.58833024520078
 10
-214.93469971778572
 20
-203.2355760449678
 10
-215.2735361047912
 20
-202.88223433321903
 10
-215.61176070441232
 20
-202.5283069638393
 10
-215.94937336472552
 20
-202.17379581544463
 10
-216.28637392278975
 20
-201.81870274769014
 10
-216.6227622196322
 20
-201.4630296156965
 10
-216.95853808761217
 20
-201.10677825819732
 10
-217.29370119990264
 20
-200.74995035650065
 10
-217.6282500752902
 20
-200.39254650500123
 10
-217.9621827873159
 20
-200.0345668872098
 10
-218.2954973936604
 20
-199.67601168095223
 10
-218.6281919620441
 20
-199.31688108253852
 10
-218.96026455610573
 20
-198.95717529354403
 10
-219.2917132293498
 20
-198.5968945152764
 10
-219.62253602297773
 20
-198.2360389469094
 10
-219.9527309804019
 20
-197.87460879887445
 10
-220.28229614915753
 20
-197.51260429452563
 10
-220.61122956399078
 20
-197.15002565471053
 10
-220.9395292501558
 20
-196.78687310091587
 10
-221.26719322693188
 20
-196.42314685853447
 10
-221.594219526301
 20
-196.05884717365913
 10
-221.92060616468632
 20
-195.6939742876071
 10
-222.24635115197415
 20
-195.32852844515097
 10
-222.5714524835046
 20
-194.9625098874819
 10
-222.89590817630548
 20
-194.59591888441267
 10
-223.219716651052
 20
-194.22875607059063
 10
-223.5428779462061
 20
-193.86102350775613
 10
-223.86539247898975
 20
-193.4927235798828
 10
-224.18726070324914
 20
-193.12385868970748
 10
-224.50848306629115
 20
-192.75443122085414
 10
-224.82906002133532
 20
-192.3844435488506
 10
-225.14899201604626
 20
-192.0138980313063
 10
-225.46827952548716
 20
-191.64279703644334
 10
-225.7869230266623
 20
-191.27114292103823
 10
-226.10492299919915
 20
-190.89893803112085
 10
-226.4222799197116
 20
-190.52618469728756
 10
-226.7389942832101
 20
-190.15288525301594
 10
-227.05506659491857
 20
-189.77904202762463
 10
-227.37049735947204
 20
-189.40465733717875
 10
-227.68528708096613
 20
-189.029733484675
 10
-227.99943627312774
 20
-188.65427276867914
 10
-228.3129454679395
 20
-188.27827749049746
 10
-228.62581517539823
 20
-187.90174992066184
 10
-228.93804490126203
 20
-187.52469148638974
 10
-229.24963263714508
 20
-187.14710236155506
 10
-229.5605762660599
 20
-186.76898264009702
 10
-229.87087365334872
 20
-186.39033241186542
 10
-230.18052265791468
 20
-186.01115177199242
 10
-230.48952112006128
 20
-185.63144081106236
 10
-230.79786690425377
 20
-185.25119964995946
 10
-231.10555785445095
 20
-184.87042840345154
 10
-231.412591809356
 20
-184.48912719270302
 10
-231.7189665877835
 20
-184.10729613359425
 10
-232.0246800307232
 20
-183.7249353705352
 10
-232.32972996321436
 20
-183.34204504579577
 10
-232.63411420331482
 20
-182.95862530680517
 10
-232.9378305522251
 20
-182.57467629841133
 10
-233.24087682466813
 20
-182.19019818698914
 10
-233.54325082858531
 20
-181.80519114429438
 10
-233.84495036203973
 20
-181.41965534510516
 10
-234.14597344637875
 20
-181.03359114893672
 10
-234.44631979465643
 20
-180.64700023830235
 10
-234.74598986146088
 20
-180.25988486478715
 10
-235.04498410200816
 20
-179.872247268932
 10
-235.34330297162217
 20
-179.48408967994885
 10
-235.64094693137514
 20
-179.09541432014785
 10
-235.9379164647471
 20
-178.70622341765934
 10
-236.2342120494886
 20
-178.31651918488944
 10
-236.52983416619895
 20
-177.9263038251994
 10
-236.82478329173713
 20
-177.53557952801575
 10
-237.11905993418245
 20
-177.14434849523604
 10
-237.41266459252824
 20
-176.75261291077084
 10
-237.70559777087988
 20
-176.360374951355
 10
-237.9978599619885
 20
-175.96763677435638
 10
-238.28945169594903
 20
-175.57440055407938
 10
-238.5803734921434
 20
-175.18066844593213
 10
-238.8706258743421
 20
-174.78644259777099
 10
-239.16020933877724
 20
-174.39172512656356
 10
-239.44912357224104
 20
-173.99651754746128
 10
-239.73736710361456
 20
-173.6008205277963
 10
-240.0249383720113
 20
-173.20463467466257
 10
-240.31183580325603
 20
-172.8079605912465
 10
-240.59805783498652
 20
-172.41079889504644
 10
-240.8836029044319
 20
-172.0131502089411
 10
-241.1684694397281
 20
-171.6150151549821
 10
-241.4526558588096
 20
-171.21639435370685
 10
-241.73616058237582
 20
-170.81728843345138
 10
-242.01898204008097
 20
-170.41769803467497
 10
-242.30111864944223
 20
-170.01762379498277
 10
-242.5825688209716
 20
-169.6170663528717
 10
-242.8633309585859
 20
-169.21602634809074
 10
-243.14340348484788
 20
-168.8145044392898
 10
-243.4227848070373
 20
-168.41250128022668
 10
-243.70147332871275
 20
-168.01001752794866
 10
-243.97946743864816
 20
-167.60705383520252
 10
-244.25676597619469
 20
-167.20361117019831
 10
-244.53336877399312
 20
-166.79969118399126
 10
-244.80927581513475
 20
-166.3952956254088
 10
-245.08448707012158
 20
-165.9904262286669
 10
-245.35900254104385
 20
-165.58508474344572
 10
-245.6328222213015
 20
-165.17927290742577
 10
-245.90594610497996
 20
-164.77299245274435
 10
-246.17837417657964
 20
-164.3662450991785
 10
-246.45010644243942
 20
-163.9590325752472
 10
-246.72114290959607
 20
-163.55135660397067
 10
-246.9914835823977
 20
-163.14321890067464
 10
-247.26112845861158
 20
-162.73462117051582
 10
-247.53007754811085
 20
-162.3255651208802
 10
-247.79833087083594
 20
-161.91605245995368
 10
-248.06588844067534
 20
-161.5060848861533
 10
-248.33275026798017
 20
-161.09566408988422
 10
-248.5989163661576
 20
-160.68479175790083
 10
-248.86438695061847
 20
-160.27346970161008
 10
-249.12916264513768
 20
-159.86169998801375
 10
-249.3932441338854
 20
-159.44948471296064
 10
-249.65663209638117
 20
-159.03682595910635
 10
-249.9193272443076
 20
-158.6237258194286
 10
-250.18133027950122
 20
-158.21018637036872
 10
-250.4426419086988
 20
-157.7962096813313
 10
-250.70326282707248
 20
-157.38179780438082
 10
-250.96319376652391
 20
-156.96695280466335
 10
-251.22243544886464
 20
-156.55167673089903
 10
-251.48098859967197
 20
-156.13597162418665
 10
-251.73885393602234
 20
-155.7198395104546
 10
-251.9960322013911
 20
-155.30328242215464
 10
-252.25252413883166
 20
-154.8863023815729
 10
-252.5083304915657
 20
-154.46890140128284
 10
-252.76345199733217
 20
-154.05108148077727
 10
-253.01788914363382
 20
-153.63284445786326
 10
-253.2716408287032
 20
-153.21419119928825
 10
-253.52470534909506
 20
-152.7951222109897
 10
-253.77708099058563
 20
-152.37563799929507
 10
-254.02876603795184
 20
-151.9557390768786
 10
-254.27975878770067
 20
-151.53542597034922
 10
-254.53005752244593
 20
-151.11469920489264
 10
-254.77966051839994
 20
-150.69355930884666
 10
-255.02856604089797
 20
-150.27200681112478
 10
-255.2767723772845
 20
-149.8500422606332
 10
-255.52427779770323
 20
-149.42766620308112
 10
-255.77108056926204
 20
-149.00487918941513
 10
-256.01717893862326
 20
-148.58168176573997
 10
-256.2625711841221
 20
-148.15807450366538
 10
-256.50725556412254
 20
-147.73405797020345
 10
-256.7512303339297
 20
-147.30963273768
 10
-256.99449395788594
 20
-146.88479950507713
 10
-257.2370464563643
 20
-146.45955986446643
 10
-257.4788884828675
 20
-146.03391576326464
 10
-257.7200206934026
 20
-145.6078691414898
 10
-257.9604437375179
 20
-145.18142192675748
 10
-258.200158282594
 20
-144.75457604804427
 10
-258.4391650037184
 20
-144.32733342990457
 10
-258.677464572647
 20
-143.89969598632018
 10
-258.91505765789253
 20
-143.471665620856
 10
-259.15194493511837
 20
-143.04324423249494
 10
-259.38812709778983
 20
-142.61443372148773
 10
-259.62360483233743
 20
-142.18523597562745
 10
-259.85837882509225
 20
-141.75565287417473
 10
-260.09244975910076
 20
-141.32568628619435
 10
-260.3258183450702
 20
-140.8953380874034
 10
-260.5584852830568
 20
-140.4646101392862
 10
-260.79045096782863
 20
-140.0335041309099
 10
-261.02171389033435
 20
-139.6020207247351
 10
-261.2522718575803
 20
-139.17016022339286
 10
-261.48212265345217
 20
-138.7379229271378
 10
-261.7112640573418
 20
-138.30530914392602
 10
-261.9396938294951
 20
-137.87231918174191
 10
-262.167409751937
 20
-137.43895337024654
 10
-262.39440959397666
 20
-137.00521204252652
 10
-262.62069111751356
 20
-136.5710955379757
 10
-262.846252068813
 20
-136.13660419810583
 10
-263.07109020599034
 20
-135.70173838088238
 10
-263.29520328498023
 20
-135.26649845338093
 10
-263.51858905100937
 20
-134.8308847874388
 10
-263.7412452373436
 20
-134.39489775912128
 10
-263.96316957873637
 20
-133.95853775566664
 10
-264.18435981876115
 20
-133.52180517916565
 10
-264.4048140342069
 20
-133.08470060988418
 10
-264.6245324983031
 20
-132.64722573928498
 10
-264.8435163432839
 20
-132.20938268318375
 10
-265.061766731845
 20
-131.77117356153752
 10
-265.27928481738394
 20
-131.3326004785351
 10
-265.49607175724634
 20
-130.89366552930957
 10
-265.71212869717954
 20
-130.45437079235086
 10
-265.92745682174194
 20
-130.01471835434674
 10
-266.14205730230316
 20
-129.57471028455984
 10
-266.35593131450463
 20
-129.1343486435071
 10
-266.56908002293915
 20
-128.69363547560485
 10
-266.7815046239728
 20
-128.25257282994122
 10
-266.9932063083863
 20
-127.81116274215483
 10
-267.2041862680408
 20
-127.36940723774897
 10
-267.414445686927
 20
-126.92730832790971
 10
-267.6239857700148
 20
-126.48486802330004
 10
-267.8328073719042
 20
-126.04208815900652
 10
-268.04090913576397
 20
-125.59896952333347
 10
-268.24828884602056
 20
-125.15551250744893
 10
-268.4549442881801
 20
-124.71171751295162
 10
-268.6608732548465
 20
-124.26758495464003
 10
-268.866073524944
 20
-123.82311525086644
 10
-269.07054286851593
 20
-123.37830882586873
 10
-269.27427904821354
 20
-122.93316611053844
 10
-269.4772798446294
 20
-122.48768755400732
 10
-269.679543021283
 20
-122.04187360761728
 10
-269.88106633659226
 20
-121.59572473048092
 10
-270.08184753092974
 20
-121.14924138372396
 10
-270.28188437390963
 20
-120.70242405178557
 10
-270.4811746145488
 20
-120.25527321995918
 10
-270.6797159983861
 20
-119.8077893821781
 10
-270.8775062510815
 20
-119.35997303382126
 10
-271.07454346025787
 20
-118.91182483955487
 10
-271.27082768108687
 20
-118.46334633318651
 10
-271.46635969472095
 20
-118.01453936145934
 10
-271.6611402738162
 20
-117.56540575947042
 10
-271.85517021349483
 20
-117.1159473641447
 10
-272.0484503111526
 20
-116.66616600541116
 10
-272.2409813610776
 20
-116.21606350394093
 10
-272.43276415139115
 20
-115.76564166992817
 10
-272.6237994814155
 20
-115.31490231055353
 10
-272.8140881634282
 20
-114.86384723066341
 10
-273.0036310027156
 20
-114.41247822434069
 10
-273.1924288017485
 20
-113.96079707676704
 10
-273.3804823631853
 20
-113.50880556554776
 10
-273.5677925130809
 20
-113.05650547035097
 10
-273.7543600667034
 20
-112.60389855867453
 10
-273.94018583981335
 20
-112.15098659061881
 10
-274.12527043398865
 20
-111.6977712313841
 10
-274.3096131691819
 20
-111.2442536190283
 10
-274.49321282542184
 20
-110.79043467400828
 10
-274.6760681799292
 20
-110.3363153198053
 10
-274.85817799156246
 20
-109.88189647673723
 10
-275.03954104977464
 20
-109.42717908161057
 10
-275.22015612921115
 20
-108.97216406945529
 10
-275.4000220014111
 20
-108.5168523782772
 10
-275.57913742319977
 20
-108.06124494453897
 10
-275.7575011713408
 20
-107.60534271682364
 10
-275.93511201875407
 20
-107.14914664641496
 10
-276.11196873169814
 20
-106.69265768624459
 10
-276.2880700654421
 20
-106.2358767892921
 10
-276.4634147843199
 20
-105.77880491637207
 10
-276.6380016600177
 20
-105.3214430353924
 10
-276.8118294539329
 20
-104.86379211460799
 10
-276.98489702432914
 20
-104.40585316315797
 10
-277.1572038016739
 20
-103.94762740911179
 10
-277.3287494328154
 20
-103.48911616209934
 10
-277.49953355197016
 20
-103.03032072635261
 10
-277.669555791056
 20
-102.5712424046514
 10
-277.8388157701906
 20
-102.11188249486737
 10
-278.00731314044583
 20
-101.6522423057226
 10
-278.17504753632835
 20
-101.19232313922424
 10
-278.34201859239573
 20
-100.7321262968487
 10
-278.50822592547746
 20
-100.27165307315327
 10
-278.6736691866696
 20
-99.81090477457607
 10
-278.8383480119305
 20
-99.34988270152844
 10
-279.00226203594457
 20
-98.88858815346047
 10
-279.1654108792991
 20
-98.42702242436808
 10
-279.32779418579923
 20
-97.96518681602296
 10
-279.4894115951309
 20
-97.50308262823086
 10
-279.65026279754204
 20
-97.04071117787903
 10
-279.81034780330646
 20
-96.57807389183901
 10
-279.9696667573218
 20
-96.11517224086445
 10
-280.1282198129401
 20
-95.65200769535663
 10
-280.28600711600984
 20
-95.1885817198898
 10
-280.4430288069254
 20
-94.72489577399807
 10
-280.5992850280617
 20
-94.26095131474634
 10
-280.7547759411812
 20
-93.7967498025484
 10
-280.9095016966929
 20
-93.33229269079975
 10
-281.0634624431801
 20
-92.86758142915241
 10
-281.21665831988656
 20
-92.40261746108573
 10
-281.3690894965348
 20
-91.93740223702427
 10
-281.5207561276541
 20
-91.47193719924134
 10
-281.6716583687362
 20
-91.00622378724148
 10
-281.8217963579484
 20
-90.54026343189472
 10
-281.97117027008557
 20
-90.07405757285501
 10
-282.11978003614627
 20
-89.60760756906528
 10
-282.2676244304351
 20
-89.1409144112829
 10
-282.4147018452332
 20
-88.67397897427524
 10
-282.5610106952859
 20
-88.20680214640642
 10
-282.7065493875395
 20
-87.73938482004027
 10
-282.8513163223286
 20
-87.27172789198632
 10
-282.99530988680465
 20
-86.80383226154366
 10
-283.13852847998334
 20
-86.335698838266
 10
-283.28097050430375
 20
-85.86732853929998
 10
-283.4226343520291
 20
-85.39872228525975
 10
-283.56351840609693
 20
-84.92988100058116
 10
-283.7036210502803
 20
-84.46080561663302
 10
-283.8429406832947
 20
-83.99149707589372
 10
-283.98147569002845
 20
-83.52195632335915
 10
-284.11922445002585
 20
-83.05218430915238
 10
-284.25618533230283
 20
-82.58218198707176
 10
-284.3923570799749
 20
-82.11195042586802
 10
-284.5277403378324
 20
-81.64149124618498
 10
-284.66233641166826
 20
-81.17080625235941
 10
-284.79614659143044
 20
-80.69989723510044
 10
-284.9291722081456
 20
-80.22876598770749
 10
-285.0614145767359
 20
-79.75741428975961
 10
-285.1928750144337
 20
-79.28584391243216
 10
-285.32355482566123
 20
-78.81405661435541
 10
-285.45345534386485
 20
-78.3420541532514
 10
-285.58257789770096
 20
-77.86983827651713
 10
-285.71092381398876
 20
-77.39741072211365
 10
-285.83849441026945
 20
-76.92477321663263
 10
-285.965291021396
 20
-76.45192748253275
 10
-286.0913149884269
 20
-75.97887523509051
 10
-286.21656764655387
 20
-75.50561817920864
 10
-286.3410503251286
 20
-75.0321580095226
 10
-286.46476390467046
 20
-74.55849629500091
 10
-286.58770694505466
 20
-74.08463399630521
 10
-286.7098772441837
 20
-73.61057188322378
 10
-286.83127259270907
 20
-73.13631073348384
 10
-286.95189077156095
 20
-72.66185133220254
 10
-287.07172958542253
 20
-72.18719448040403
 10
-287.19078682119624
 20
-71.71234098445466
 10
-287.3090602628619
 20
-71.23729165991277
 10
-287.4265476735738
 20
-70.76204732716243
 10
-287.5432468520739
 20
-70.28660882540706
 10
-287.65915557567735
 20
-69.81097699852818
 10
-287.77427161947804
 20
-69.3351526999174
 10
-287.8885927400194
 20
-68.85913678860673
 10
-288.00211672100255
 20
-68.38293014030293
 10
-288.11484133474863
 20
-67.90653363807883
 10
-288.2267643481935
 20
-67.42994817389375
 10
-288.33788399526975
 20
-66.95317475852886
 10
-288.4482010101339
 20
-66.47621498868467
 10
-288.55771692974884
 20
-65.99907064006037
 10
-288.66643328644267
 20
-65.52174347749495
 10
-288.7743516064261
 20
-65.04423525472787
 10
-288.8814734239021
 20
-64.56654771765861
 10
-288.98780028946703
 20
-64.08868260618918
 10
-289.0933337444677
 20
-63.610641648495005
 10
-289.19807532770363
 20
-63.132426562618996
 10
-289.30202657403277
 20
-62.65403905624494
 10
-289.4051890458441
 20
-62.17548083353528
 10
-289.5075642921671
 20
-61.69675358623694
 10
-289.6091538629423
 20
-61.21785899686128
 10
-289.70995929262597
 20
-60.73879873528827
 10
-289.80998215397244
 20
-60.259574470125514
 10
-289.9092240024065
 20
-59.78018785696315
 10
-290.00768598664916
 20
-59.3006404587945
 10
-290.10536706510635
 20
-58.82093338552711
 10
-290.2022655038379
 20
-58.341067610967926
 10
-290.2983795559844
 20
-57.86104411383786
 10
-290.3937074701417
 20
-57.380863879548876
 10
-290.48824748031853
 20
-56.90052789828856
 10
-290.5819978382107
 20
-56.42003717142449
 10
-290.67495679450366
 20
-55.939392707769684
 10
-290.76712259176986
 20
-55.45859552224403
 10
-290.8584934619804
 20
-54.97764663549015
 10
-290.94906764358046
 20
-54.49654707717731
 10
-291.03884338582463
 20
-54.01529788676548
 10
-291.1278189261718
 20
-53.53390010926669
 10
-291.21599249559176
 20
-53.052354796328
 10
-291.3033623199713
 20
-52.57066300655644
 10
-291.38992664819773
 20
-52.08882581060154
 10
-291.475684063409
 20
-51.60684434621964
 10
-291.5606348381339
 20
-51.12472005488452
 10
-291.6447797402847
 20
-50.64245446207863
 10
-291.7281195748529
 20
-50.16004909449943
 10
-291.81065512906883
 20
-49.677505470434916
 10
-291.8923871910642
 20
-49.194825103084746
 10
-291.973316532341
 20
-48.712009497657064
 10
-292.05344395769407
 20
-48.22906015977408
 10
-292.13277026020944
 20
-47.74597858786129
 10
-292.2112962311702
 20
-47.262766274875936
 10
-292.28902264896647
 20
-46.77942470656905
 10
-292.36595031342773
 20
-46.29595536705687
 10
-292.4420800241082
 20
-45.812359735259555
 10
-292.5174125747357
 20
-45.328639284070945
 10
-292.5919487498356
 20
-44.84479547991147
 10
-292.66568934368286
 20
-44.36082978570136
 10
-292.7386349867215
 20
-43.87674363472543
 10
-292.8107853913586
 20
-43.39253831931981
 10
-292.88213996996643
 20
-42.90821508797405
 10
-292.95269813228015
 20
-42.42377519078888
 10
-293.0224593099158
 20
-41.93921988301765
 10
-293.09142292029867
 20
-41.45455041978942
 10
-293.15958837863997
 20
-40.96976805791386
 10
-293.2269550860858
 20
-40.48487405427057
 10
-293.29352247740616
 20
-39.99986967244272
 10
-293.35928996932853
 20
-39.51475617548482
 10
-293.4242569784434
 20
-39.02953482846435
 10
-293.48842290311916
 20
-38.54420689609961
 10
-293.55178717590024
 20
-38.05877364971622
 10
-293.61434921494634
 20
-37.57323636075411
 10
-293.6761084364535
 20
-37.08759630246902
 10
-293.73706424232444
 20
-36.60185474842162
 10
-293.79721608610714
 20
-36.11601298072693
 10
-293.8565635497351
 20
-35.63007229908547
 10
-293.9151062459731
 20
-35.14403400820253
 10
-293.97284377691153
 20
-34.657899412662125
 10
-294.02977575531946
 20
-34.17166981950759
 10
-294.0859018027845
 20
-33.68534653795016
 10
-294.14122153087743
 20
-33.19893087717871
 10
-294.19573454439353
 20
-32.71242414681326
 10
-294.24944044719456
 20
-32.22582765761304
 10
-294.3023388636761
 20
-31.739142723808335
 10
-294.354429404343
 20
-31.252370659285678
 10
-294.40571167685283
 20
-30.76551277886578
 10
-294.45618527624976
 20
-30.278570397336082
 10
-294.5058498298934
 20
-29.79154483411065
 10
-294.55470494736124
 20
-29.30443740798505
 10
-294.6027502380215
 20
-28.81724943901642
 10
-294.64998545367433
 20
-28.32998226230538
 10
-294.69641116131504
 20
-27.842637291177223
 10
-294.74202814680206
 20
-27.35521595601452
 10
-294.7868371954377
 20
-26.867719682565408
 10
-294.83083907839745
 20
-26.38014989075303
 10
-294.874034591898
 20
-25.892507998251755
 10
-294.9164245284896
 20
-25.40479541782755
 10
-294.95800967600854
 20
-24.917013557298525
 10
-294.9987908119934
 20
-24.429163819132743
 10
-295.0387687269772
 20
-23.941247602440832
 10
-295.07794421949575
 20
-23.453266302492448
 10
-295.1163180792993
 20
-22.965221309360434
 10
-295.15389108960454
 20
-22.477114008186405
 10
-295.19066403478604
 20
-21.98894577982477
 10
-295.22663771869236
 20
-21.50071800218532
 10
-295.2618129323849
 20
-21.012432047795038
 10
-295.29619008053123
 20
-20.524089257771372
 10
-295.3297679636099
 20
-20.035690860510222
 10
-295.36254499820257
 20
-19.54723806394451
 10
-295.3945195831543
 20
-19.058732082217393
 10
-295.425690116468
 20
-18.570174136909614
 10
-295.45605497594187
 20
-18.08156545588272
 10
-295.485612576683
 20
-17.59290727689586
 10
-295.5143613152492
 20
-17.104200844079543
 10
-295.5422995868629
 20
-16.615447409079103
 10
-295.5694257705538
 20
-16.12664823027672
 10
-295.5957382714492
 20
-15.637804575187891
 10
-295.6212354879623
 20
-15.148917718581847
 10
-295.6459158135078
 20
-14.659988942646015
 10
-295.6697776294518
 20
-14.171019536710125
 10
-295.6928193316874
 20
-13.682010798605946
 10
-295.71503932160743
 20
-13.192964034158463
 10
-295.7364365073144
 20
-12.703880578882508
 10
-295.75701211771394
 20
-12.214761871091003
 10
-295.7767680423928
 20
-11.725609369555459
 10
-295.7957061895699
 20
-11.236424523960075
 10
-295.81382845545534
 20
-10.747208773676407
 10
-295.8311367333232
 20
-10.257963548216521
 10
-295.84763290766665
 20
-9.768690267102883
 10
-295.86331889313595
 20
-9.279390341193992
 10
-295.8781965881289
 20
-8.79006517109793
 10
-295.89226789138394
 20
-8.300716147811581
 10
-295.9055346822065
 20
-7.811344652230353
 10
-295.9179988792263
 20
-7.3219520567921395
 10
-295.9296623820641
 20
-6.832539723850191
 10
-295.94052709002915
 20
-6.3431090062620425
 10
-295.9505948866538
 20
-5.853661247122428
 10
-295.959867682747
 20
-5.364197780705108
 10
-295.9683467643922
 20
-4.874719921266522
 10
-295.97603077990203
 20
-4.385228935294162
 10
-295.98291766245563
 20
-3.895726085431129
 10
-295.98900536072705
 20
-3.406212644524335
 10
-295.9942918268312
 20
-2.9166898954127127
 10
-295.99877500459274
 20
-2.4271591308340636
 10
-296.0024528292512
 20
-1.937621653526858
 10
-296.0053232404742
 20
-1.4480787764033454
 10
-296.00738419326933
 20
-0.9585318225826187
 10
-296.0086336307625
 20
-0.46898212525598654
 10
-296.0090694917179
 20
0.020568972179011186
 10
-296.0086897078148
 20
0.5101201160413297
 10
-296.00749223843724
 20
0.999669942384127
 10
-296.00547502736526
 20
1.489217076972886
 10
-296.002636018398
 20
1.9787601352212203
 10
-295.998973136318
 20
2.468297721992265
 10
-295.99448496164047
 20
2.9578284379038684
 10
-295.98917264817493
 20
3.4473509043012456
 10
-295.9830380331288
 20
3.936863756571497
 10
-295.97608293718764
 20
4.426365639029554
 10
-295.96830921094516
 20
4.915855205528274
 10
-295.9597186956344
 20
5.40533111895208
 10
-295.95031322873587
 20
5.894792051223202
 10
-295.94009463500055
 20
6.3842366830441675
 10
-295.9290647566288
 20
6.873663704466668
 10
-295.91722543815763
 20
7.363071814629815
 10
-295.9045785161276
 20
7.852459721474384
 10
-295.89112581802266
 20
8.341826141617142
 10
-295.8768691767456
 20
8.831169800681367
 10
-295.861810438829
 20
9.320489433574009
 10
-295.8459514387172
 20
9.809783783714085
 10
-295.8292940053786
 20
10.299051603137471
 10
-295.8118395141047
 20
10.788291636242873
 10
-295.79358733999453
 20
11.277502559286079
 10
-295.77453627025943
 20
11.766683022570675
 10
-295.7546850911922
 20
12.255831670167407
 10
-295.73403257212993
 20
12.744947139195016
 10
-295.7125775196761
 20
13.234028062082322
 10
-295.69031872168694
 20
13.723073064253756
 10
-295.66725496631886
 20
14.21208076486961
 10
-295.6433850248742
 20
14.70104977595164
 10
-295.61870770049495
 20
15.189978704718206
 10
-295.5932217854781
 20
15.678866151564671
 10
-295.5669260697119
 20
16.16771071041082
 10
-295.53981933033435
 20
16.656510968072883
 10
-295.51190036476754
 20
17.14526550604782
 10
-295.48316797168616
 20
17.633972899524743
 10
-295.4536209435829
 20
18.12263171691288
 10
-295.42325839555855
 20
18.61124054033039
 10
-295.3920807600622
 20
19.09979803108986
 10
-295.3600888054576
 20
19.588302874114426
 10
-295.3272832889232
 20
20.076753757005193
 10
-295.29366496204244
 20
20.565149370321013
 10
-295.25923457197865
 20
21.0534884076067
 10
-295.22399289003266
 20
21.541769567425227
 10
-295.1879406722792
 20
22.029991550610728
 10
-295.15107867302174
 20
22.518153061155896
 10
-295.11340763031654
 20
23.00625280505771
 10
-295.07492831791234
 20
23.494289494305043
 10
-295.03564149036356
 20
23.982261842706063
 10
-294.9955479017808
 20
24.47016856726799
 10
-294.9546482881572
 20
24.95800838668705
 10
-294.91294341787955
 20
25.4457800255506
 10
-294.8704340460281
 20
25.93348221057148
 10
-294.8271208238612
 20
26.421113662392592
 10
-294.7830039617579
 20
26.90867306441382
 10
-294.7380835783825
 20
27.396159092081753
 10
-294.69235979141337
 20
27.883570420749997
 10
-294.64583271234153
 20
28.37090572516017
 10
-294.5985024429689
 20
28.858163679036387
 10
-294.5503690946546
 20
29.345342956908414
 10
-294.50143278949156
 20
29.83244223430132
 10
-294.45169363949225
 20
30.319460185672572
 10
-294.40115175091006
 20
30.806395484764636
 10
-294.3498072278074
 20
31.293246804926945
 10
-294.2976601967309
 20
31.780012821752766
 10
-294.2447107702457
 20
32.26669220925475
 10
-294.1909590590735
 20
32.753283641088665
 10
-294.1364051600352
 20
33.23978578916396
 10
-294.0810492041559
 20
33.726197329033575
 10
-294.0248912069069
 20
34.212516922789796
 10
-293.96793082378036
 20
34.69874318967458
 10
-293.9101676092223
 20
35.18487473444398
 10
-293.85160115217843
 20
35.67091016298613
 10
-293.79223102737757
 20
36.15684807660082
 10
-293.73205680781473
 20
36.64268707342297
 10
-293.6710780523473
 20
37.12842574682347
 10
-293.6092943428978
 20
37.61406269003761
 10
-293.5467052588514
 20
38.09959649302344
 10
-293.48331037409014
 20
38.58502574203142
 10
-293.4191092523304
 20
39.07034901892319
 10
-293.3541014688232
 20
39.555564903993655
 10
-293.2882866080574
 20
40.04067197573803
 10
-293.2216642452232
 20
40.5256688083507
 10
-293.1542339493705
 20
41.010553972071776
 10
-293.0859952894073
 20
41.49532603396863
 10
-293.01694816155606
 20
41.97998360471188
 10
-292.9470936528787
 20
42.464525465159994
 10
-292.8764331436276
 20
42.94895044336843
 10
-292.80496800116265
 20
43.43325737151777
 10
-292.7326996247308
 20
43.917445092513695
 10
-292.6596293954242
 20
44.401512452646756
 10
-292.5857586936709
 20
44.88545830410969
 10
-292.51108888068455
 20
45.36928150210208
 10
-292.4356213526041
 20
45.85298091314574
 10
-292.35935748897873
 20
46.33655540720186
 10
-292.2822986671189
 20
46.82000385981648
 10
-292.2044462489031
 20
47.30332514995513
 10
-292.1258016191785
 20
47.78651816614031
 10
-292.0463661576837
 20
48.26958180199573
 10
-291.9661412378944
 20
48.752514955998734
 10
-291.8851282214939
 20
49.235316530483416
 10
-291.80332794501857
 20
49.71798534433365
 10
-291.7207393877013
 20
50.200519901714976
 10
-291.63736111591714
 20
50.68291862936709
 10
-291.5531916900556
 20
51.165179944606926
 10
-291.4682296727046
 20
51.647302256687155
 10
-291.3824736462352
 20
52.12928396991786
 10
-291.295922181453
 20
52.611123478139724
 10
-291.2085738472395
 20
53.09281916633717
 10
-291.12042720350877
 20
53.574369409288806
 10
-291.0314808418226
 20
54.05577257898478
 10
-290.9417333385693
 20
54.537027036085696
 10
-290.85118327171773
 20
55.01813113291921
 10
-290.75982920150074
 20
55.49908320976182
 10
-290.66766972791424
 20
55.97988160571541
 10
-290.5747034348067
 20
56.46052464814326
 10
-290.48092890723905
 20
56.941010655890295
 10
-290.3863453732051
 20
57.42133806587837
 10
-290.2909545144412
 20
57.90150579701869
 10
-290.194758565955
 20
58.38151288626814
 10
-290.0977597565082
 20
58.86135837960833
 10
-289.9999603019127
 20
59.34104133059646
 10
-289.90136243040143
 20
59.82056080547452
 10
-289.80196837421187
 20
60.2999158815031
 10
-289.70178035511157
 20
60.77910564393637
 10
-289.60080058559106
 20
61.25812918616853
 10
-289.4990312785257
 20
61.73698561169562
 10
-289.3964746620457
 20
62.21567403729836
 10
-289.2931329497368
 20
62.694193586693984
 10
-289.18900834944185
 20
63.172543392318424
 10
-289.08410305784014
 20
63.65072259406522
 10
-288.9784192976593
 20
64.12873034743133
 10
-288.87195927314065
 20
64.6065658137645
 10
-288.76472446711654
 20
65.08422800200103
 10
-288.6567137871076
 20
65.56171534469829
 10
-288.5479256128139
 20
66.03902614731516
 10
-288.4383583069176
 20
66.51615870161801
 10
-288.32801023380193
 20
66.99311128982711
 10
-288.21687974414783
 20
67.46988218097462
 10
-288.10496521803276
 20
67.94646964088831
 10
-287.9922650298736
 20
68.42287192407157
 10
-287.8787775524075
 20
68.89908727454736
 10
-287.7645011487227
 20
69.37511392387039
 10
-287.64943420038674
 20
69.85095009781026
 10
-287.53357509505804
 20
70.32659401343112
 10
-287.416922215224
 20
70.80204387631089
 10
-287.2994739379155
 20
71.27729788037168
 10
-287.18122864735415
 20
71.7523542109273
 10
-287.0621847460796
 20
72.22721104748945
 10
-286.9423413120615
 20
72.70186673004957
 10
-286.8216997818439
 20
73.17632019150412
 10
-286.70026209243446
 20
73.65057049853155
 10
-286.57803020617644
 20
74.12461673290613
 10
-286.45500606779785
 20
74.59845798052615
 10
-286.33119161980886
 20
75.07209333527952
 10
-286.2065887838564
 20
75.5455218940925
 10
-286.0811995180575
 20
76.01874277197612
 10
-285.9550257589394
 20
76.49175508679892
 10
-285.8280694408307
 20
76.96455796431273
 10
-285.700332479869
 20
77.43715053378452
 10
-285.5718168183328
 20
77.90953193992644
 10
-285.44252438712635
 20
78.38170133281348
 10
-285.312457111219
 20
78.85365786927527
 10
-285.1816169009947
 20
79.32540071042916
 10
-285.0500056814501
 20
79.79692902972003
 10
-284.9176249292878
 20
80.2682418828132
 10
-284.7844744287549
 20
80.73933785298459
 10
-284.6505535607695
 20
81.2102154059565
 10
-284.5158617135266
 20
81.68087300434756
 10
-284.380398289771
 20
82.1513091098088
 10
-284.24416268279816
 20
82.6215221761475
 10
-284.1071542826031
 20
83.09151065101703
 10
-283.96937247544037
 20
83.56127297572024
 10
-283.8308166735295
 20
84.03080759394203
 10
-283.691486276056
 20
84.50011294033743
 10
-283.5513806828653
 20
84.96918744448614
 10
-283.4104992788483
 20
85.43802952616123
 10
-283.26884148648264
 20
85.90663761109141
 10
-283.1264067115631
 20
86.37501011471853
 10
-282.98319436165133
 20
86.84314544767413
 10
-282.8392038296866
 20
87.31104201070308
 10
-282.6944348105498
 20
87.77869829265364
 10
-282.54888786133404
 20
88.24611304698631
 10
-282.4025637115504
 20
88.71328508193237
 10
-282.2554630774589
 20
89.180213203323
 10
-282.10758669344074
 20
89.64689622442503
 10
-281.9589352939355
 20
90.11333296033081
 10
-281.8095096060988
 20
90.57952222558755
 10
-281.65931034757904
 20
91.04546283340724
 10
-281.5083382428271
 20
91.51115360087302
 10
-281.35659402753447
 20
91.97659335044311
 10
-281.2040784263535
 20
92.44178090272432
 10
-281.0507921581354
 20
92.90671507809402
 10
-280.8967359373452
 20
93.37139469710833
 10
-280.74191050074063
 20
93.83581858937406
 10
-280.5863165703333
 20
94.29998558129725
 10
-280.4299548660275
 20
94.76389450021021
 10
-280.2728261050175
 20
95.22754417413492
 10
-280.1149310823664
 20
95.69093345921938
 10
-279.95627058463936
 20
96.15406121073177
 10
-279.7968453979944
 20
96.6169262857596
 10
-279.6366562914377
 20
97.07952753738948
 10
-279.47570406475006
 20
97.54186383126472
 10
-279.31398950509754
 20
98.0039340306444
 10
-279.1515133968952
 20
98.4657369997523
 10
-278.9882765111443
 20
98.92727159996663
 10
-278.8242796383051
 20
99.388536701406
 10
-278.6595235673799
 20
99.84953117560822
 10
-278.49400908086926
 20
100.31025389369374
 10
-278.32773695155186
 20
100.77070372512881
 10
-278.1607079604938
 20
101.23087954418686
 10
-277.99292289832607
 20
101.69078023048205
 10
-277.82438254527824
 20
102.15040466171463
 10
-277.65508739883876
 20
102.60975161307957
 10
-277.4850371263572
 20
103.06881955252678
 10
-277.3142312631607
 20
103.5276068945012
 10
-277.142669332731
 20
103.98611204382026
 10
-276.9703508580821
 20
104.44433339981701
 10
-276.79727535068014
 20
104.90226935210445
 10
-276.6234423555132
 20
105.35991829759317
 10
-276.4488514022418
 20
105.81727862207975
 10
-276.2735020221838
 20
106.27434870659827
 10
-276.09739373111734
 20
106.73112692075651
 10
-275.92052607932726
 20
107.18761164198472
 10
-275.74289860507577
 20
107.64380123767451
 10
-275.56451084676235
 20
108.09969406979188
 10
-275.38536233110403
 20
108.55528849018293
 10
-275.2054526084579
 20
109.01058285441879
 10
-275.02478122857775
 20
109.46557551233259
 10
-274.8433482284589
 20
109.92026500285986
 10
-274.6611552191083
 20
110.37465049326022
 10
-274.47820413876275
 20
110.8287312888772
 10
-274.29449693154595
 20
111.28250670576163
 10
-274.1100355298704
 20
111.73597606355314
 10
-273.92482185754363
 20
112.18913868663685
 10
-273.7388578349995
 20
112.64199390621644
 10
-273.5521453993864
 20
113.09454106858574
 10
-273.36468647232067
 20
113.54677952189607
 10
-273.17648297029024
 20
113.99870862034487
 10
-272.9875367953545
 20
114.45032772022984
 10
-272.7978498767808
 20
114.9016361973515
 10
-272.60742412460826
 20
115.35263342762336
 10
-272.4162614458644
 20
115.80331879378099
 10
-272.22436372745125
 20
116.25369167804796
 10
-272.03173288561885
 20
116.70375148316568
 10
-271.8383701380423
 20
117.15349731937893
 10
-271.64427468656254
 20
117.60292743053968
 10
-271.4494453514544
 20
118.05203988755102
 10
-271.25388097867545
 20
118.50083276261586
 10
-271.0575804133466
 20
118.94930411779056
 10
-270.860542499235
 20
119.39745200467753
 10
-270.66276607338256
 20
119.84527446196493
 10
-270.46424998838205
 20
120.29276952519633
 10
-270.2649931068616
 20
120.73993522438742
 10
-270.06499428687005
 20
121.18676957749979
 10
-269.8642523836157
 20
121.63327059110554
 10
-269.6627662574257
 20
122.07943626388958
 10
-269.4605347898488
 20
122.52526459394495
 10
-269.2575568545404
 20
122.97075356562002
 10
-269.053831326311
 20
123.41590115351231
 10
-268.84935707483396
 20
123.86070531950547
 10
-268.6441337558918
 20
124.30516437837514
 10
-268.438163292098
 20
124.74927769044969
 10
-268.23144803303273
 20
125.19304482292047
 10
-268.02399030678095
 20
125.63646534373285
 10
-267.81579247232696
 20
126.07953884603633
 10
-267.6068568684225
 20
126.52226492432786
 10
-267.3971858290878
 20
126.9646431816058
 10
-267.18678167040014
 20
127.40667322302751
 10
-266.9756467279115
 20
127.84835467365292
 10
-266.76378332768394
 20
128.28968716471655
 10
-266.5511937872257
 20
128.7306703339837
 10
-266.3378804095148
 20
129.17130382277134
 10
-266.1238455060633
 20
129.61158728704032
 10
-265.909091389186
 20
130.05152039370628
 10
-265.6936203589912
 20
130.49110281426331
 10
-265.4774347038728
 20
130.93033422490655
 10
-265.260535991766
 20
131.36921395583903
 10
-265.04292364229144
 20
131.80774027734685
 10
-264.8245966619198
 20
132.2459112470719
 10
-264.6055540573046
 20
132.68372491314852
 10
-264.38579483098516
 20
133.1211793119734
 10
-264.16531801484956
 20
133.5582724850018
 10
-263.94412263009923
 20
133.99500245865826
 10
-263.72220770180854
 20
134.43136725157552
 10
-263.49957224108124
 20
134.86736486542753
 10
-263.2762152987803
 20
135.3029933123127
 10
-263.0521359121399
 20
135.73825058755583
 10
-262.8273331225112
 20
136.1731346786775
 10
-262.6018059610624
 20
136.60764355792435
 10
-262.3755534885402
 20
137.04177520284782
 10
-262.14857476295964
 20
137.47552757959593
 10
-261.9208688439387
 20
137.90889864508821
 10
-261.69243542371987
 20
138.3418866801573
 10
-261.46327602469125
 20
138.77449092886786
 10
-261.23339248994836
 20
139.20671081133509
 10
-261.0027866523124
 20
139.638545749918
 10
-260.77146033429005
 20
140.0699951690986
 10
-260.5394153591253
 20
140.50105850133778
 10
-260.30665356100326
 20
140.93173519261785
 10
-260.07317676020494
 20
141.36202468906092
 10
-259.83898677005715
 20
141.7919264405849
 10
-259.604085394086
 20
142.2214398992713
 10
-259.36847445683117
 20
142.6505645362301
 10
-259.1321557654265
 20
143.07929982060804
 10
-258.8951311233128
 20
143.50764522702073
 10
-258.6574023139261
 20
143.93560022644277
 10
-258.4189711514714
 20
144.363164314365
 10
-258.17983942916254
 20
144.7903369821114
 10
-257.9400085650348
 20
145.2171175174266
 10
-257.69947881763835
 20
145.64350455902144
 10
-257.4582502533668
 20
146.0694966344231
 10
-257.21632293189685
 20
146.49509226358074
 10
-256.97369691154466
 20
146.92028996182708
 10
-256.7303722413021
 20
147.34508823525525
 10
-256.48634898754773
 20
147.76948559597517
 10
-256.241627220192
 20
148.19348055425263
 10
-255.9962070045379
 20
148.6170716137937
 10
-255.75008840010182
 20
149.0402572709651
 10
-255.50327147368301
 20
149.46303602234755
 10
-255.25575630595216
 20
149.88540636864423
 10
-255.0075429696974
 20
150.30736680197984
 10
-254.7586315354659
 20
150.72891580911553
 10
-254.50902207095518
 20
151.1500518710214
 10
-254.25871466839791
 20
151.57077347913375
 10
-254.00770956350414
 20
151.9910792066638
 10
-253.7560074027147
 20
152.41096786993486
 10
-253.5036088847387
 20
152.8304383163494
 10
-253.25051474049425
 20
153.2494894127988
 10
-252.99672568413467
 20
153.66812001626906
 10
-252.74224242965641
 20
154.08632898375876
 10
-252.48706567618206
 20
154.5041151632662
 10
-252.23119614959018
 20
154.9214774191761
 10
-251.97463456600465
 20
155.33841461003692
 10
-251.71738163884228
 20
155.7549255928066
 10
-251.45943807005725
 20
156.1710092173687
 10
-251.20080457829377
 20
156.58666434393268
 10
-250.94148188248596
 20
157.0018898329588
 10
-250.68147069556954
 20
157.41668454119352
 10
-250.4207717224151
 20
157.83104732028988
 10
-250.15938567470386
 20
158.24497702611322
 10
-249.89731340463817
 20
158.65847260361477
 10
-249.6345561251476
 20
159.07153322811948
 10
-249.3711151086149
 20
159.48415811630005
 10
-249.10699162262256
 20
159.89634648558166
 10
-248.84218695347005
 20
160.3080975692478
 10
-248.57670237340537
 20
160.7194105954728
 10
-248.3105391518455
 20
161.1302847944417
 10
-248.04369854341473
 20
161.54071939053222
 10
-247.77618183119517
 20
161.9507136304173
 10
-247.5079902809284
 20
162.36026675335398
 10
-247.23912515668985
 20
162.76937800130833
 10
-246.96958770618426
 20
163.1780466092253
 10
-246.69937920280762
 20
163.58627183272606
 10
-246.4285009076042
 20
163.994052923105
 10
-246.15695407784062
 20
164.4013891329095
 10
-245.88473995655238
 20
164.80827970890118
 10
-245.61185942294446
 20
165.2147236570174
 10
-245.33831242476688
 20
165.62071935676968
 10
-245.06409876706795
 20
166.0262650856517
 10
-244.78921824956117
 20
166.43135911082473
 10
-244.51367068278893
 20
166.83599970002132
 10
-244.23745588897404
 20
167.24018512219763
 10
-243.96057368488792
 20
167.6439136358472
 10
-243.683023885366
 20
168.047183491293
 10
-243.4048063066514
 20
168.44999293291934
 10
-243.12592078649251
 20
168.85234021308096
 10
-242.8463671541707
 20
169.25422357141915
 10
-242.56614524047026
 20
169.6556412416684
 10
-242.28525486804836
 20
170.05659144484792
 10
-242.00369589100947
 20
170.45707241697073
 10
-241.72146815193972
 20
170.857082379006
 10
-241.43857149762314
 20
171.25661954780878
 10
-241.15500618335852
 20
171.65568242362042
 10
-240.87077361507102
 20
172.05427032302637
 10
-240.58587536931248
 20
172.45238268922526
 10
-240.3003130186029
 20
172.850018968444
 10
-240.01408812123336
 20
173.24717860253548
 10
-239.72720225165875
 20
173.64386105083352
 10
-239.43965697954593
 20
174.04006577513587
 10
-239.15145386718464
 20
174.43579223777354
 10
-238.86259446582608
 20
174.83103989885092
 10
-238.57308033306225
 20
175.22580822888014
 10
-238.28291303119994
 20
175.6200967076829
 10
-237.99209411192507
 20
176.0139048131203
 10
-237.70062511895568
 20
176.40723202294123
 10
-237.4085075929091
 20
176.80007781832134
 10
-237.11574308825348
 20
177.19244169650557
 10
-236.82233314571855
 20
177.58432315031402
 10
-236.52827888430522
 20
177.97572136117978
 10
-236.23357931973808
 20
178.36663392730696
 10
-235.93823284388495
 20
178.75705796152633
 10
-235.64223784304312
 20
179.14699055359551
 10
-235.34559271216187
 20
179.53642878078986
 10
-235.0482958393509
 20
179.92536969593743
 10
-234.75034565215017
 20
180.31381036268021
 10
-234.4517405730272
 20
180.7017478214708
 10
-234.15247903297035
 20
181.08917909981324
 10
-233.8525594596062
 20
181.47610120293535
 10
-233.551980311723
 20
181.8625111404348
 10
-233.2507400526055
 20
182.24840590561814
 10
-232.94883715160861
 20
182.63378247658898
 10
-232.64627007834628
 20
183.0186378115305
 10
-232.3430373249864
 20
183.40296886609988
 10
-232.0391373981382
 20
183.7867725870805
 10
-231.73456880856452
 20
184.17004590416718
 10
-231.42933090581874
 20
184.5527863959523
 10
-231.1234255283875
 20
184.93499361936443
 10
-230.8168549829413
 20
185.31666751482678
 10
-230.5096215605214
 20
185.6978080220034
 10
-230.20172754326657
 20
186.078415085069
 10
-229.89317520148126
 20
186.45848865023655
 10
-229.58396682262108
 20
186.83802868928427
 10
-229.27410467536254
 20
187.2170351704178
 10
-228.9635910223327
 20
187.59550806849552
 10
-228.6524281053021
 20
187.97344735277895
 10
-228.34061819169435
 20
188.35085302516237
 10
-228.02816352717542
 20
188.72772508121403
 10
-227.7150663515647
 20
189.1040635231589
 10
-227.40132888530664
 20
189.47986834852296
 10
-227.0869533675163
 20
189.85513958182773
 10
-226.7719420227617
 20
190.22987724692499
 10
-226.4562970671191
 20
190.6040813719514
 10
-226.14002045086815
 20
190.97775177124197
 10
-225.82311254823531
 20
191.35088692949847
 10
-225.50557311286084
 20
191.7234847983146
 10
-225.187401896488
 20
192.095543317542
 10
-224.8685986479612
 20
192.4670604142947
 10
-224.54916312862085
 20
192.83803401607318
 10
-224.2290951131322
 20
193.20846205156136
 10
-223.90839437321898
 20
193.57834243657956
 10
-223.58706068082066
 20
193.94767307669113
 10
-223.2650938121061
 20
194.31645187058686
 10
-222.94249356539518
 20
194.68467672577054
 10
-222.61925973348596
 20
195.05234553440982
 10
-222.2953921125749
 20
195.4194561810162
 10
-221.9708904946446
 20
195.78600653562933
 10
-221.64575470283413
 20
196.1519944851066
 10
-221.31998455212877
 20
196.51741789838258
 10
-220.99357986323903
 20
196.88227463865204
 10
-220.66654048079863
 20
197.24656257969647
 10
-220.33886706927768
 20
197.61028032341153
 10
-220.01056107957345
 20
197.97342717928115
 10
-219.6816239953326
 20
198.33600249078992
 10
-219.35205728593743
 20
198.69800559306782
 10
-219.0218624387194
 20
199.0594358421569
 10
-218.69104093416942
 20
199.42029259254662
 10
-218.35959424669247
 20
199.78057519777803
 10
-218.0275238392875
 20
200.1402830054411
 10
-217.69483118428468
 20
200.49941537624593
 10
-217.3615177555777
 20
200.8579716769598
 10
-217.0275850181606
 20
201.21595127067286
 10
-216.69303442839814
 20
201.57335351691458
 10
-216.35786744364034
 20
201.9301777805826
 10
-216.02208553093746
 20
202.28642344020076
 10
-215.6856901457228
 20
202.64208986790194
 10
-215.34868273751061
 20
202.99717643466008
 10
-215.01106474867026
 20
203.3516825090491
 10
-214.67283753754845
 20
203.705607383621
 10
-214.33400193698307
 20
204.0589498505148
 10
-213.99455861904934
 20
204.41170854562282
 10
-213.65450824465074
 20
204.76388209072726
 10
-213.31385150435585
 20
205.11546913288888
 10
-212.97258907601685
 20
205.46646830363252
 10
-212.63072163921325
 20
205.81687823279282
 10
-212.28824986204316
 20
206.16669753554444
 10
-211.9451744389931
 20
206.51592484942427
 10
-211.6014960568537
 20
206.86455880107403
 10
-211.25721540235705
 20
207.21259801362166
 10
-210.91233315360273
 20
207.5600410981127
 10
-210.56685000699048
 20
207.90688668017904
 10
-210.22076665944627
 20
208.25313338250632
 10
-209.87408380525076
 20
208.59877982160637
 10
-209.52680213287505
 20
208.9438246045304
 10
-209.17892234108862
 20
209.28826634500706
 10
-208.83044513761928
 20
209.63210366221284
 10
-208.48137125326693
 20
209.9753351952204
 10
-208.13170146686224
 20
210.31795962869668
 10
-207.7814365643403
 20
210.6599756516332
 10
-207.43057734744974
 20
211.00138196637386
 10
-207.07912460938545
 20
211.34217726369496
 10
-206.727079142179
 20
211.6823602302603
 10
-206.374441731799
 20
212.02192954345878
 10
-206.0212131878228
 20
212.36088390221735
 10
-205.667394308825
 20
212.69922199113043
 10
-205.31298589478226
 20
213.03694249325355
 10
-204.95798873247375
 20
213.37404407466948
 10
-204.60240363931572
 20
213.71052543061003
 10
-204.2462314197479
 20
214.0463852396389
 10
-203.88947287959863
 20
214.38162217867543
 10
-203.53212881424142
 20
214.71623491029027
 10
-203.17420004192252
 20
215.05022211825656
 10
-202.81568737578607
 20
215.3835824777723
 10
-202.4565916345678
 20
215.7163146668806
 10
-202.09691390016008
 20
216.04841764557855
 10
-201.73665562660557
 20
216.37989077796846
 10
-201.37581829186024
 20
216.71073345824084
 10
-201.01440336672434
 20
217.04094507706424
 10
-200.6524123133726
 20
217.3705250198616
 10
-200.2898465977456
 20
217.6994726803229
 10
-199.92670769253417
 20
218.02778746382427
 10
-199.56299706074316
 20
218.35546876927984
 10
-199.19871615930805
 20
218.68251599301627
 10
-198.83386644129553
 20
219.00892853113916
 10
-198.4684493739751
 20
219.33470579976927
 10
-198.10246641245712
 20
219.6598472056231
 10
-197.73591900825735
 20
219.9843521554743
 10
-197.36880860164885
 20
220.30822004742473
 10
-197.00113665430874
 20
220.6314503078902
 10
-196.63290461337425
 20
220.95404235094554
 10
-196.26411392397515
 20
221.27599559243967
 10
-195.89476600069486
 20
221.59730941710532
 10
-195.5248617507677
 20
221.91798262781987
 10
-195.15440141789244
 20
222.23801325721402
 10
-194.78338520972503
 20
222.55739928551156
 10
-194.41181332831292
 20
222.8761386752058
 10
-194.0396859994855
 20
223.1942294052391
 10
-193.66700344983983
 20
223.5116694442682
 10
-193.2937659082313
 20
223.82845675229837
 10
-192.9199736005184
 20
224.14458927433748
 10
-192.54562676953228
 20
224.46006496392403
 10
-192.1707256661485
 20
224.77488177266142
 10
-191.7952705414193
 20
225.08903764081776
 10
-191.4192616460409
 20
225.40253049652563
 10
-191.0426992407927
 20
225.71535826819547
 10
-190.6655836018562
 20
226.0275188910018
 10
-190.28791500348183
 20
226.33901028600434
 10
-189.90969372224652
 20
226.6498303651196
 10
-189.53092003781708
 20
226.95997703192654
 10
-189.1515942543864
 20
227.26944820790138
 10
-188.77171715122878
 20
227.57824238741279
 10
-188.39129064749406
 20
227.88635946625115
 10
-188.0103168131601
 20
228.19379953645725
 10
-187.62879773659265
 20
228.50056272463792
 10
-187.24673548806544
 20
228.806649146844
 10
-186.86413213231708
 20
229.112058924008
 10
-186.48098971626763
 20
229.4167921664367
 10
-186.09731030466537
 20
229.7208490185541
 10
-185.7130959467142
 20
230.02422961705665
 10
-185.3283486847864
 20
230.32693410173889
 10
-184.9430705457979
 20
230.6289626044085
 10
-184.55726356724676
 20
230.93031528200842
 10
-184.17092977798976
 20
231.23099229221364
 10
-183.7840711977074
 20
231.5309937926252
 10
-183.39668983286393
 20
231.8303199354171
 10
-183.00878769366588
 20
232.12897088917128
 10
-182.62036678819635
 20
232.42694683141352
 10
-182.23142911315776
 20
232.72424793651157
 10
-181.84197647782275
 20
233.02087414411346
 10
-181.45200941490017
 20
233.31682372049391
 10
-181.06152791059426
 20
233.6120942006149
 10
-180.67053194895803
 20
233.90668309948796
 10
-180.2790215188216
 20
234.20058792110947
 10
-179.88699661387997
 20
234.49380615842173
 10
-179.49445725217842
 20
234.78633531937624
 10
-179.10140345033335
 20
235.0781728924587
 10
-178.7078352322002
 20
235.36931635813096
 10
-178.3137526205163
 20
235.6597631773692
 10
-177.91915566903995
 20
235.94951083520593
 10
-177.52404442834532
 20
236.23855679438788
 10
-177.12841895771342
 20
236.52689851136037
 10
-176.73227931338312
 20
236.81453341997903
 10
-176.3356255831177
 20
237.10145897901262
 10
-175.93845785391335
 20
237.387672627779
 10
-175.54077622077583
 20
237.6731717980714
 10
-175.14258077826153
 20
237.95795390220897
 10
-174.74387164799924
 20
238.24201637142454
 10
-174.34464951906244
 20
238.52535741821077
 10
-173.94491642297368
 20
238.80797714356575
 10
-173.54467457476457
 20
239.0898759205214
 10
-173.14392619185398
 20
239.37105414039473
 10
-172.7426734883594
 20
239.6515122048223
 10
-172.3409186660881
 20
239.93125051285705
 10
-171.93866391494592
 20
240.21026946135433
 10
-171.53591142060074
 20
240.48856945589787
 10
-171.13266337167786
 20
240.76615092128577
 10
-170.728921942365
 20
241.0430142763489
 10
-170.32468929698354
 20
241.3191599403808
 10
-169.9199675894097
 20
241.59458833216254
 10
-169.51475898234585
 20
241.86929989828405
 10
-169.10906562207632
 20
242.14329507608844
 10
-168.7028896469313
 20
242.41657430595043
 10
-168.2962331789921
 20
242.6891380188084
 10
-167.8890983546565
 20
242.96098668169168
 10
-167.48148729206494
 20
243.23212074921693
 10
-167.0734020902955
 20
243.50254066200313
 10
-166.66484416687652
 20
243.77224584215088
 10
-166.2558139621375
 20
244.04123422917309
 10
-165.84631183148792
 20
244.30950361896194
 10
-165.43633813646406
 20
244.5770518009079
 10
-165.0258932366729
 20
244.8438765453996
 10
-164.6149775142641
 20
245.1099756413567
 10
-164.20359135515974
 20
245.37534686746613
 10
-163.7917351498261
 20
245.6399879932269
 10
-163.37940928901054
 20
245.90389677212585
 10
-162.96661418053728
 20
246.1670709677613
 10
-162.55335024196964
 20
246.4295083425012
 10
-162.1396178938144
 20
246.6912066467198
 10
-161.72541755910143
 20
246.95216361793533
 10
-161.3107496723668
 20
247.21237699492247
 10
-160.89561468396627
 20
247.4718445246884
 10
-160.4800130455544
 20
247.73056393931205
 10
-160.06394521358078
 20
247.9885329613059
 10
-159.64741165036236
 20
248.24574930521425
 10
-159.23041285228828
 20
248.50221072341213
 10
-158.81294986854573
 20
248.75791585418492
 10
-158.3950245198749
 20
249.01286459372042
 10
-157.97663867218657
 20
249.26705692139478
 10
-157.55779420651214
 20
249.52049285156596
 10
-157.13849298906223
 20
249.77317238440097
 10
-156.71873688162214
 20
250.0250955228551
 10
-156.2985277309016
 20
250.2762622547533
 10
-155.87786739987783
 20
250.5266726051709
 10
-155.4567577377313
 20
250.7763265862683
 10
-155.03520058850222
 20
251.02522421163474
 10
-154.61319778307836
 20
251.2733654825572
 10
-154.1907511629155
 20
251.52075042826525
 10
-153.7678625611653
 20
251.7673790739961
 10
-153.3445338040422
 20
252.01325144316638
 10
-152.92076670644283
 20
252.25836754965596
 10
-152.49656308842583
 20
252.50272742618873
 10
-152.07192476695585
 20
252.7463311102099
 10
-151.64685355036542
 20
252.98917863417077
 10
-151.22135123696808
 20
253.23127002290832
 10
-150.79541940139396
 20
253.47260491597248
 10
-150.3690590409651
 20
253.71318193499647
 10
-149.94227105722612
 20
253.95299952366443
 10
-149.5150563525065
 20
254.19205611705414
 10
-149.0874158327758
 20
254.43035014660384
 10
-148.65935041954117
 20
254.66788006153382
 10
-148.2308610312301
 20
254.90464429546003
 10
-147.80194858890724
 20
255.14064127648777
 10
-147.3726140124444
 20
255.3758694201063
 10
-146.94285824230627
 20
255.61032716893047
 10
-146.5126822144319
 20
255.84401294696605
 10
-146.08208686923643
 20
256.07692517589106
 10
-145.65107314116517
 20
256.30906225557226
 10
-145.21964199023157
 20
256.54042262254023
 10
-144.78779437052657
 20
256.77100469169415
 10
-144.35553124076804
 20
257.0008068757098
 10
-143.92285355562908
 20
257.22982756860273
 10
-143.48976229028167
 20
257.4580651919654
 10
-143.05625841926428
 20
257.685518155254
 10
-142.62234297483957
 20
257.91218496736695
 10
-142.18801738597588
 20
258.1380648902154
 10
-141.7532832695961
 20
258.3631575484554
 10
-141.31814224113654
 20
258.587462568789
 10
-140.88259591077178
 20
258.8109795725384
 10
-140.44664588150684
 20
259.03370817175187
 10
-140.01029376008302
 20
259.25564799040757
 10
-139.57354115580992
 20
259.4767986623245
 10
-139.13638967118922
 20
259.6971598126739
 10
-138.69884090321975
 20
259.91673106034114
 10
-138.26089644789403
 20
260.13551202673204
 10
-137.82255790841882
 20
260.3535023523522
 10
-137.3838268797262
 20
260.5707016658292
 10
-136.94470495284813
 20
260.7871095924645
 10
-136.50519371327766
 20
261.002725750761
 10
-136.06529475815654
 20
261.2175497874958
 10
-135.62500967497255
 20
261.43158133436214
 10
-135.18434004884347
 20
261.64482002268744
 10
-134.74328745500824
 20
261.85726546771747
 10
-134.30185348377705
 20
262.0689173203597
 10
-133.8600396211492
 20
262.27977501751667
 10
-133.4178471754095
 20
262.48983762378737
 10
-132.9752774278946
 20
262.6991041432292
 10
-132.53233167772962
 20
262.9075736132377
 10
-132.08901121894382
 20
263.1152450563574
 10
-131.64531734627116
 20
263.32211749235825
 10
-131.20125134913823
 20
263.5281899251703
 10
-130.7568145302928
 20
263.73346138293294
 10
-130.3120081919031
 20
263.9379308882158
 10
-129.86683363549128
 20
264.1415974577362
 10
-129.42129215888437
 20
264.34446009548185
 10
-128.97538506887042
 20
264.54651782036495
 10
-128.52911367606248
 20
264.7477696551752
 10
-128.08247928912002
 20
264.94821461371833
 10
-127.63548321458767
 20
265.1478517002261
 10
-127.18812676370065
 20
265.34667992444815
 10
-126.7404112558353
 20
265.5446983095898
 10
-126.29233800713313
 20
265.7419058667026
 10
-125.84390833315636
 20
265.93830160044894
 10
-125.39512355601694
 20
266.13388452530114
 10
-124.94598508934226
 20
266.3286538617652
 10
-124.49649439718942
 20
266.52260894507083
 10
-124.04665294382076
 20
266.7157491105131
 10
-123.59646218816661
 20
266.9080736804315
 10
-123.14592360357643
 20
267.099582010411
 10
-122.69503865581969
 20
267.2902734379551
 10
-122.2438088108371
 20
267.48014730043326
 10
-121.79223552637157
 20
267.6692029150195
 10
-121.34032027695231
 20
267.8574396382575
 10
-120.88806452935617
 20
268.04485680766726
 10
-120.43546975034609
 20
268.23145376004635
 10
-119.98253739999014
 20
268.41722981506473
 10
-119.52926895104405
 20
268.60218432242107
 10
-119.0756658725945
 20
268.78631662216793
 10
-118.62172963248535
 20
268.9696260504679
 10
-118.16746169331695
 20
269.15211192944105
 10
-117.71286352642872
 20
269.3337736018577
 10
-117.25793660342298
 20
269.5146104102622
 10
-116.80268239348845
 20
269.6946216901283
 10
-116.34710236360081
 20
269.87380677015943
 10
-115.89119799634214
 20
270.05216501763203
 10
-115.43497078249585
 20
270.2296958202082
 10
-114.97842220909385
 20
270.40639855544265
 10
-114.52155376046575
 20
270.5822725932158
 10
-114.0643669219733
 20
270.75731730525314
 10
-113.60686318648536
 20
270.9315320821877
 10
-113.14904404201243
 20
271.10491630129997
 10
-112.69091097517868
 20
271.27746933534064
 10
-112.2324654700951
 20
271.44919054935264
 10
-111.77370902190725
 20
271.6200793368746
 10
-111.31464311985921
 20
271.79013507486
 10
-110.85526925306912
 20
271.9593571388964
 10
-110.39558890474754
 20
272.12774488726967
 10
-109.93560357251756
 20
272.29529771639733
 10
-109.47531474710918
 20
272.46201500286634
 10
-109.01472391966203
 20
272.62789612316755
 10
-108.55383257488351
 20
272.79294043448397
 10
-108.09264221103663
 20
272.957147330384
 10
-107.63115432127273
 20
273.120516188961
 10
-107.1693703910335
 20
273.28304636495204
 10
-106.70729186276968
 20
273.4447370883
 10
-106.24492017764547
 20
273.6055875811359
 10
-105.78225677605292
 20
273.7655970590871
 10
-105.31930309798561
 20
273.92476473211144
 10
-104.85606058040769
 20
274.0830897965916
 10
-104.39253066780343
 20
274.24057146602576
 10
-103.92871480726814
 20
274.3972089569251
 10
-103.46461444452633
 20
274.5530014769782
 10
-103.00023102350461
 20
274.70794822345283
 10
-102.53556599243521
 20
274.8620484013147
 10
-102.07062080540166
 20
275.01530122810186
 10
-101.6053969141915
 20
275.1677059093627
 10
-101.13989576997858
 20
275.3192616434119
 10
-100.67411882516618
 20
275.46996762676366
 10
-100.20806754110787
 20
275.6198230781508
 10
-99.74174337598713
 20
275.76882720112445
 10
-99.27514778851771
 20
275.91697919521664
 10
-98.80828223568193
 20
276.06427824859
 10
-98.34114818639245
 20
276.2107235813516
 10
-97.8737471161606
 20
276.3563144293139
 10
-97.40608057595911
 20
276.5010502668271
 10
-96.93815014224813
 20
276.6449306501355
 10
-96.46995740427481
 20
276.78795517810744
 10
-96.00150394438845
 20
276.930123428506
 10
-95.5327913446453
 20
277.0714349792004
 10
-95.06382118121405
 20
277.2118893893761
 10
-94.59459504043389
 20
277.3514862530028
 10
-94.12511450442614
 20
277.490225151075
 10
-93.65538115421569
 20
277.62810566181565
 10
-93.18539656606615
 20
277.7651273478843
 10
-92.71516232343322
 20
277.90128979720475
 10
-92.24468000849863
 20
278.0365925942381
 10
-91.77395120150055
 20
278.17103531745215
 10
-91.3029774789907
 20
278.3046175328691
 10
-90.83176042188585
 20
278.4373388222769
 10
-90.36030161262337
 20
278.5691987734974
 10
-89.88860263089998
 20
278.7001969651466
 10
-89.41666505374347
 20
278.8303329665108
 10
-88.94449045988742
 20
278.95960635316186
 10
-88.47208043020554
 20
279.08801670876414
 10
-87.99943650285348
 20
279.21556345889314
 10
-87.52656017944399
 20
279.34224588961666
 10
-87.0534529610231
 20
279.46806327842324
 10
-86.58011635686402
 20
279.59301492730515
 10
-86.106551873641
 20
279.7171001221514
 10
-85.63276101884098
 20
279.8403181452696
 10
-85.15874529835831
 20
279.96266826582644
 10
-84.6845062286871
 20
280.08414978707935
 10
-84.21004532309068
 20
280.20476199302016
 10
-83.73536409653201
 20
280.3245041671936
 10
-83.26046406022307
 20
280.4433755707724
 10
-82.78534673811677
 20
280.5613755082766
 10
-82.31001365041628
 20
280.6785032620468
 10
-81.83446631908949
 20
280.7947581139566
 10
-81.35870626335961
 20
280.91013932666937
 10
-80.8827350126522
 20
281.0246461968345
 10
-80.40655409519512
 20
281.13827800845166
 10
-79.93016504029058
 20
281.2510340419214
 10
-79.45356937545445
 20
281.3629135616141
 10
-78.97676863600448
 20
281.4739158564903
 10
-78.49976437358987
 20
281.58404027801714
 10
-78.02255819035969
 20
281.69328639130975
 10
-77.54515169649683
 20
281.80165379508804
 10
-77.06754650584162
 20
281.90914210344766
 10
-76.58974423383629
 20
282.015750937193
 10
-76.11174649386231
 20
282.12147990741704
 10
-75.63355489739578
 20
282.22632861573527
 10
-75.15517105745452
 20
282.33029666967417
 10
-74.67659659075711
 20
282.43338369295776
 10
-74.19783311140209
 20
282.5355892964109
 10
-73.71888223238622
 20
282.6369130845017
 10
-73.23974556627617
 20
282.7373546581734
 10
-72.76042473129131
 20
282.83691364403285
 10
-72.28092134252157
 20
282.93558965261116
 10
-71.80123701470995
 20
283.0333822912031
 10
-71.32137336034363
 20
283.1302911541588
 10
-70.84133199936723
 20
283.2263158709471
 10
-70.36111454814102
 20
283.32145605179176
 10
-69.88072262338044
 20
283.4157113068024
 10
-69.40015783786869
 20
283.50908122373284
 10
-68.91942181334109
 20
283.6015654340645
 10
-68.43851615914006
 20
283.6931635026548
 10
-67.95744247298855
 20
283.78387492907524
 10
-67.47620234908288
 20
283.87369918808196
 10
-66.99479738940796
 20
283.96263578978295
 10
-66.51322919454309
 20
284.0506842309022
 10
-66.03149936562414
 20
284.13784400485144
 10
-65.54960950204187
 20
284.22411458855106
 10
-65.06756120911528
 20
284.3094954850176
 10
-64.58535609261347
 20
284.39398619325
 10
-64.1029957583966
 20
284.477586205837
 10
-63.62048181130522
 20
284.56029500199475
 10
-63.1378158603893
 20
284.6421120777567
 10
-62.654999516863704
 20
284.7230369345347
 10
-62.17203439161498
 20
284.8030690642274
 10
-61.68892209519006
 20
284.8822079484852
 10
-61.20566424076722
 20
284.96045307648876
 10
-60.72226244526098
 20
285.03780395221077
 10
-60.238718324883685
 20
285.1142600670052
 10
-59.7550334961414
 20
285.18982090509985
 10
-59.27120957673468
 20
285.2644859489852
 10
-58.787248189585085
 20
285.3382547057218
 10
-58.30315095855592
 20
285.41112667974824
 10
-57.81891951069297
 20
285.4831013875544
 10
-57.334555472900284
 20
285.5541783354238
 10
-56.85006047830051
 20
285.62435706288653
 10
-56.36543615850832
 20
285.69363709038817
 10
-55.880684146326374
 20
285.7620179371444
 10
-55.39580607312769
 20
285.8294991020076
 10
-54.910803577639925
 20
285.8960801263474
 10
-54.42567829686315
 20
285.96176052939313
 10
-53.94043186919625
 20
286.02653983009594
 10
-53.45506593174885
 20
286.0904175264378
 10
-52.96958212827789
 20
286.1533931553877
 10
-52.483982101775965
 20
286.21546623725953
 10
-51.998267496428966
 20
286.27663628999903
 10
-51.5124399557443
 20
286.3369028136438
 10
-51.02650112853348
 20
286.3962653381711
 10
-50.54045266418246
 20
286.4547233860877
 10
-50.05429621298551
 20
286.5122764745185
 10
-49.56803342512104
 20
286.56892410576904
 10
-49.08166595485863
 20
286.6246658029684
 10
-48.59519545831588
 20
286.6795010916185
 10
-48.10862360636027
 20
286.73342961637076
 10
-47.62195210081513
 20
286.78645129700567
 10
-47.135182648408815
 20
286.83856610438636
 10
-46.64831695618874
 20
286.88977402077995
 10
-46.16135672912671
 20
286.94007501727543
 10
-45.674303670528495
 20
286.98946905666753
 10
-45.18715948321363
 20
287.0379561044376
 10
-44.69992587124974
 20
287.08553614669427
 10
-44.21260453645484
 20
287.13220915524283
 10
-43.72519717940049
 20
287.17797509661807
 10
-43.237705499354924
 20
287.2228339308133
 10
-42.750131197611886
 20
287.266785647617
 10
-42.26247597310344
 20
287.3098302194095
 10
-41.774741523875534
 20
287.35196761629305
 10
-41.286929546010846
 20
287.3931977927061
 10
-40.79904173824701
 20
287.43352074195315
 10
-40.31107979688799
 20
287.472936436862
 10
-39.82304541763127
 20
287.5114448503529
 10
-39.33494029386558
 20
287.54904593301086
 10
-38.84676612185608
 20
287.585739679761
 10
-38.358524595601885
 20
287.6215260643394
 10
-37.87021740459817
 20
287.6564050048145
 10
-37.381846207420324
 20
287.69037597706364
 10
-36.89341265398873
 20
287.72343829660025
 10
-36.404918396466634
 20
287.7555912648457
 10
-35.91636509004044
 20
287.7868341791986
 10
-35.427754392173625
 20
287.8171663198655
 10
-34.939087965366085
 20
287.8465869935572
 10
-34.45036747516867
 20
287.87509550270903
 10
-33.96159459008966
 20
287.9026911429464
 10
-33.47277098129054
 20
287.9293731956819
 10
-32.98389832439073
 20
287.9551409603064
 10
-32.49497829865824
 20
287.9799937407659
 10
-32.0060125862999
 20
288.0039308313935
 10
-31.51700287250043
 20
288.0269515153519
 10
-31.027950846450274
 20
288.04905508509404
 10
-30.538858201458886
 20
288.0702408466243
 10
-30.049726633791536
 20
288.0905080934848
 10
-29.560557842978092
 20
288.10985611116325
 10
-29.07135353221816
 20
288.12828418554875
 10
-28.582115409175113
 20
288.1457916252873
 10
-28.09284518452558
 20
288.1623777236512
 10
-27.60354457245859
 20
288.17804176936534
 10
-27.11421529977392
 20
288.19278335054753
 10
-26.624859121154117
 20
288.20660296936455
 10
-26.135477791870315
 20
288.2195012667091
 10
-25.646073063275992
 20
288.23147888211736
 10
-25.156646682487228
 20
288.24253643760426
 10
-24.667200393740536
 20
288.2526745967712
 10
-24.177735936901094
 20
288.2618940020155
 10
-23.688255048025482
 20
288.27019529601824
 10
-23.198759459073624
 20
288.2775790997355
 10
-22.709250898928047
 20
288.2840460770465
 10
-22.219731092360394
 20
288.28959687252706
 10
-21.730201760396188
 20
288.2942321296319
 10
-21.240664620222436
 20
288.29795247296073
 10
-20.751121385640502
 20
288.3007585609001
 10
-20.261573766638502
 20
288.302651041344
 10
-19.772023469523074
 20
288.30363055795794
 10
-19.282472196981324
 20
288.3036977383307
 10
-18.792921648147317
 20
288.3028532349962
 10
-18.303373518505282
 20
288.3010976985229
 10
-17.813829499970602
 20
288.2984317722432
 10
-17.32429128101735
 20
288.29485608610656
 10
-16.834760546644404
 20
288.29037127494746
 10
-16.34523898528844
 20
288.28497736318866
 10
-15.855728297116153
 20
288.2786734487902
 10
-15.366230188663454
 20
288.27145854443967
 10
-14.876746371981321
 20
288.2633316708205
 10
-14.387278564474954
 20
288.25429186315387
 10
-13.897828489361464
 20
288.2443381437809
 10
-13.408397875707367
 20
288.23346952707016
 10
-12.918988458330412
 20
288.22168502733666
 10
-12.429601977199848
 20
288.20898368198897
 10
-11.940240178355163
 20
288.195364512956
 10
-11.450904813756972
 20
288.1808265372175
 10
-10.961597641466767
 20
288.1653687634112
 10
-10.47232042437409
 20
288.14899023206823
 10
-9.983074931723584
 20
288.1316899655724
 10
-9.493862938709617
 20
288.1134669844946
 10
-9.004686227109344
 20
288.09432029246716
 10
-8.515546583050165
 20
288.07424893413577
 10
-8.026445799361136
 20
288.05325193323563
 10
-7.537385674815223
 20
288.03132831398324
 10
-7.048368015239682
 20
288.0084770785546
 10
-6.5593946304282
 20
287.9846972738913
 10
-6.070467336178318
 20
287.9599879447312
 10
-5.581587911540469
 20
287.9343489454531
 10
-5.092758076943589
 20
287.9077812380008
 10
-4.603979541253592
 20
287.8802859027752
 10
-4.115254008370429
 20
287.8518640086536
 10
-3.626583176908572
 20
287.82251662047577
 10
-3.137968741039832
 20
287.792244786587
 10
-2.649412387936041
 20
287.7610495810647
 10
-2.1609157994363932
 20
287.7289320753552
 10
-1.6724806524116929
 20
287.695893333664
 10
-1.1841086193084545
 20
287.6619344064864
 10
-0.6958013661043215
 20
287.6270563609767
 10
-0.20756055296048853
 20
287.59126027025314
 10
0.28061216456719695
 20
287.55454719709513
 10
0.7687151353610914
 20
287.5169181932473
 10
1.256746714130598
 20
287.47837431839827
 10
1.7447052619861885
 20
287.438916646452
 10
2.2325891442448977
 20
287.3985462379988
 10
2.720396730702368
 20
287.3572641451741
 10
3.2081263962380864
 20
287.3150714196643
 10
3.695776522810038
 20
287.27196913530867
 10
4.183345496143965
 20
287.22795834977404
 10
4.670831705715158
 20
287.18304010604794
 10
5.158233486585362
 20
287.1372148174969
 10
5.645549080295887
 20
287.0904819055897
 10
6.1327767132306406
 20
287.04284067865495
 10
6.61991460672642
 20
286.9942904428458
 10
7.106960975648663
 20
286.94483048869563
 10
7.593914033946358
 20
286.8944601460744
 10
8.080771988665658
 20
286.84317872453516
 10
8.56753304196931
 20
286.79098553405584
 10
9.054195388606116
 20
286.7378798622427
 10
9.540757223302098
 20
286.6838610425384
 10
10.027216733503606
 20
286.6289283868258
 10
10.513572101663119
 20
286.5730812072647
 10
10.999821502903202
 20
286.51631879662966
 10
11.485963111616211
 20
286.4586404853055
 10
11.971995095662585
 20
286.4000455907896
 10
12.45791561751179
 20
286.3405334282152
 10
12.94372283244313
 20
286.2801032963936
 10
13.429414894148952
 20
286.2187545233048
 10
13.914989950699088
 20
286.1564864329471
 10
14.400446144326843
 20
286.09329834424176
 10
14.885781610269463
 20
286.0291895628865
 10
15.370994481400587
 20
285.9641594168813
 10
15.856082937473651
 20
285.89820761644216
 10
16.341045271638308
 20
285.8313347167601
 10
16.825879793581972
 20
285.76354137876876
 10
17.31058481689429
 20
285.6948282738995
 10
17.795158659396968
 20
285.62519608574144
 10
18.279599639647827
 20
285.5546454855374
 10
18.763906077312292
 20
285.4831771355873
 10
19.2480762946951
 20
285.4107917001281
 10
19.732108619578035
 20
285.33748986390816
 10
20.216001379878872
 20
285.26327229645864
 10
20.699752904899075
 20
285.18813966105586
 10
21.183361525217332
 20
285.1120926145953
 10
21.666825578222856
 20
285.0351318426021
 10
22.150143400817115
 20
284.9572580125963
 10
22.633313331585104
 20
284.87847178848074
 10
23.11633370892991
 20
284.7987738196414
 10
23.599202879497387
 20
284.7181647920314
 10
24.08191918878409
 20
284.63664537088016
 10
24.564480984306275
 20
284.55421622041524
 10
25.046886611834935
 20
284.47087798230115
 10
25.529134426914748
 20
284.38663134261805
 10
26.01122278324971
 20
284.30147696404055
 10
26.493150029956197
 20
284.2154154718833
 10
26.97491447532979
 20
284.1284472551021
 10
27.456514421051395
 20
284.0405726636094
 10
27.937948166094294
 20
283.95179203124
 10
28.419214009154768
 20
283.86210568966465
 10
28.90031024565612
 20
283.7715139527827
 10
29.381235176872885
 20
283.6800171654466
 10
29.86198710276058
 20
283.58761566484617
 10
30.34256432239117
 20
283.49430978326825
 10
30.82296513191573
 20
283.4000998380546
 10
31.303187831856533
 20
283.30498616909824
 10
31.783230722925413
 20
283.20896911701755
 10
32.2630921043051
 20
283.11204901476174
 10
32.74277027264578
 20
283.01422618316104
 10
33.22226352736024
 20
282.9155009572053
 10
33.70157016969244
 20
282.81587368100014
 10
34.180688498668374
 20
282.715344688217
 10
34.65961681120443
 20
282.61391430320674
 10
35.13835340526603
 20
282.51158285617737
 10
35.616896582402795
 20
282.40835069476657
 10
36.09524464121386
 20
282.3042181534412
 10
36.57339587865509
 20
282.1991855600882
 10
37.05134858651407
 20
282.09325322053985
 10
37.52910100225609
 20
281.98642119969514
 10
38.00665131490401
 20
281.87868935559425
 10
38.483997708561965
 20
281.770057538294
 10
38.96113836182936
 20
281.6605255877816
 10
39.43807145785304
 20
281.5500933777767
 10
39.91479517243784
 20
281.4387607636985
 10
40.39130767790828
 20
281.3265275998882
 10
40.867607139092016
 20
281.2133937229178
 10
41.34369172741685
 20
281.099359011077
 10
41.81955960614121
 20
280.9844233218679
 10
42.29520893535584
 20
280.868586513397
 10
42.770637866571654
 20
280.75184842255726
 10
43.245844558525164
 20
280.63420892955526
 10
43.72082716196068
 20
280.5156678955945
 10
44.195583824138815
 20
280.39622518155625
 10
44.67011268418248
 20
280.27588062989383
 10
45.14441188671229
 20
280.1546341185824
 10
45.618479570166315
 20
280.03248551467436
 10
46.092313868760165
 20
279.90943468239885
 10
46.56591290907891
 20
279.7854814703856
 10
47.03927482131877
 20
279.66062575487484
 10
47.51239773152853
 20
279.53486740966105
 10
47.98527983624955
 20
279.40820658452066
 10
48.4579195465945
 20
279.28064423151267
 10
48.93031532142113
 20
279.15218146755456
 10
49.40246562459342
 20
279.0228194131873
 10
49.87436892125772
 20
278.8925591790336
 10
50.34602367718983
 20
278.76140186387363
 10
50.81742836464098
 20
278.629348575921
 10
51.28858146303434
 20
278.49640043498033
 10
51.75948145214308
 20
278.3625585481617
 10
52.23012681293951
 20
278.2278240133213
 10
52.700516030537116
 20
278.0921979296181
 10
53.170647599470286
 20
277.9556814156064
 10
53.64052001366081
 20
277.8182755744291
 10
54.11013176881904
 20
277.6799815025026
 10
54.57948136239497
 20
277.540800289625
 10
55.04856730357021
 20
277.4007330525969
 10
55.51738809993059
 20
277.25978089016314
 10
55.98594226146231
 20
277.1179448968144
 10
56.454228297415256
 20
276.97522615269395
 10
56.922244731152496
 20
276.8316257723706
 10
57.38999008343263
 20
276.6871448497829
 10
57.85746287806024
 20
276.54178447705624
 10
58.324661626120225
 20
276.3955456943798
 10
58.79158470239641
 20
276.2484290993608
 10
59.258230350979616
 20
276.1004348755177
 10
59.72459681045325
 20
275.9515631956559
 10
60.19068231085571
 20
275.80181421287267
 10
60.65648509257767
 20
275.65118811950856
 10
61.12200338881093
 20
275.4996850922295
 10
61.58723543007063
 20
275.34730530637444
 10
62.05217943897699
 20
275.1940489202825
 10
62.51683364619509
 20
275.03991612383396
 10
62.98119627757131
 20
274.8849070991122
 10
63.44526555536253
 20
274.7290220243926
 10
63.9090396946308
 20
274.5722610636982
 10
64.37251691602445
 20
274.4146244047897
 10
64.83569543791519
 20
274.25611223561623
 10
65.29857347412167
 20
274.0967247378062
 10
65.7611492320212
 20
273.93646208150335
 10
66.2234209219652
 20
273.7753244527327
 10
66.68538675473653
 20
273.6133120457554
 10
67.1470449355454
 20
273.4504250459825
 10
67.60839366396337
 20
273.2866636301031
 10
68.06943113979936
 20
273.12202798284744
 10
68.53015556619607
 20
272.95651830542784
 10
68.99056517589163
 20
272.7901348877484
 10
69.45065829270646
 20
272.62287827578723
 10
69.91043325531872
 20
272.45474905721983
 10
70.3698884107365
 20
272.28574784263736
 10
70.82902210040214
 20
272.11587522746584
 10
71.2878326639343
 20
271.9451318025013
 10
71.74631843759374
 20
271.7735181500046
 10
72.20447776892537
 20
271.60103488277963
 10
72.66230899876541
 20
271.42768259598216
 10
73.11981046698168
 20
271.25346188268924
 10
73.57698050707502
 20
271.07837331996774
 10
74.03381746685704
 20
270.9024175229187
 10
74.49031968627344
 20
270.72559508656036
 10
74.94648550500095
 20
270.5479066058995
 10
75.40231325397076
 20
270.3693526543992
 10
75.85780128046981
 20
270.1899338481791
 10
76.31294792344556
 20
270.0096507827322
 10
76.76775152132835
 20
269.82850405311484
 10
77.2222104045673
 20
269.64649423542335
 10
77.67632291723349
 20
269.4636219408824
 10
78.13008739781802
 20
269.27988776763766
 10
78.58350218322788
 20
269.09529231095934
 10
79.03656560684713
 20
268.90983615864684
 10
79.48927608930502
 20
268.7235201116678
 10
79.94163212230593
 20
268.53634514073764
 10
80.3936321999175
 20
268.34831221747055
 10
80.84527481212427
 20
268.15942229904
 10
81.29655845886
 20
267.96967636185707
 10
81.74748164260974
 20
267.77907538366287
 10
82.19804286421534
 20
267.58762033366384
 10
82.64824062132327
 20
267.3953121691673
 10
83.09807341834275
 20
267.202151859053
 10
83.54753976537658
 20
267.008140381034
 10
83.9966381696578
 20
266.8132787017803
 10
84.44536713614463
 20
266.61756777858926
 10
84.89372517326562
 20
266.4210085727281
 10
85.3417107983918
 20
266.22360206174835
 10
85.78932252476494
 20
266.02534920967037
 10
86.23655886430817
 20
265.82625097365127
 10
86.68341832901656
 20
265.62630830728597
 10
87.12989944318208
 20
265.42552218784164
 10
87.57600072566974
 20
265.2238935765941
 10
88.02172069502562
 20
265.02142343045006
 10
88.46705786635029
 20
264.8181126952814
 10
88.91201077051036
 20
264.6139623479681
 10
89.35657791213475
 20
264.40897330475536
 10
89.80075772246393
 20
264.20314632072746
 10
90.2445486070728
 20
263.9964820954926
 10
90.68794898963982
 20
263.7889813678346
 10
91.1309572844654
 20
263.58064485650425
 10
91.57357190575631
 20
263.37147328036787
 10
92.01579125818073
 20
263.1614673385916
 10
92.4576137644347
 20
262.95062776879513
 10
92.8990378390096
 20
262.7389552915967
 10
93.34006189560186
 20
262.52645062640613
 10
93.78068433937446
 20
262.3131144755526
 10
94.22090359009236
 20
262.098947572185
 10
94.6607180627737
 20
261.883950640089
 10
95.10012617035555
 20
261.66812439937263
 10
95.5391263182872
 20
261.45146955566713
 10
95.97771692308336
 20
261.23398683784274
 10
96.41589640008756
 20
261.01567697299924
 10
96.85366316123735
 20
260.79654068210806
 10
97.2910156120618
 20
260.5765786742404
 10
97.72795216552109
 20
260.35579167421747
 10
98.16447123708224
 20
260.13418041259933
 10
98.60057123745102
 20
259.91174561139786
 10
99.03625056938667
 20
259.68848797811006
 10
99.47150760726504
 20
259.46440816635305
 10
99.90634070989596
 20
259.2395068015799
 10
100.34074822881826
 20
259.0137844976378
 10
100.77472851064212
 20
258.7872418615741
 10
101.20827990117549
 20
258.55987950168463
 10
101.64140075556891
 20
258.3316980467518
 10
102.07408942068011
 20
258.10269811238925
 10
102.50634423960945
 20
257.87288030990516
 10
102.93816355078997
 20
257.64224524474776
 10
103.36954570592478
 20
257.41079355006167
 10
103.80048904699983
 20
257.1785258435459
 10
104.23099191345628
 20
256.94544274108654
 10
104.66105263607547
 20
256.71154484562726
 10
105.0906695629727
 20
256.4768327949913
 10
105.5198410310759
 20
256.24130720929514
 10
105.94856537602125
 20
256.0049687093128
 10
106.37684092071218
 20
255.76781789589876
 10
106.80466600949924
 20
255.5298554118082
 10
107.23203897409883
 20
255.29108187994626
 10
107.65895814487679
 20
255.051497923933
 10
108.08542184063066
 20
254.81110415005477
 10
108.51142839829471
 20
254.56990120004886
 10
108.93697625796185
 20
254.3278898998227
 10
109.36206411096175
 20
254.08507151578553
 10
109.78669067671393
 20
253.84144735825163
 10
110.21085469231053
 20
253.59701876250196
 10
110.634554894184
 20
253.3517870566477
 10
111.0577900185557
 20
253.10575356256888
 10
111.48055879658644
 20
252.85891958777154
 10
111.90285997288757
 20
252.61128645719822
 10
112.3246922955094
 20
252.36285549591042
 10
112.74605451071983
 20
252.11362802027847
 10
113.16694536095518
 20
251.86360533473317
 10
113.58736359780184
 20
251.61278875374816
 10
114.00730798046115
 20
251.36117959908273
 10
114.42677726475459
 20
251.10877918139093
 10
114.84577020392005
 20
250.85558880178206
 10
115.26428555598368
 20
250.60160976415824
 10
115.68232209083075
 20
250.34684338673563
 10
116.09987857334296
 20
250.0912909742661
 10
116.51695376709554
 20
249.83495382431727
 10
116.93354643601229
 20
249.57783323012129
 10
117.34965536019098
 20
249.3199305061412
 10
117.76527931308466
 20
249.0612469510578
 10
118.18041703763289
 20
248.80178380994695
 10
118.59506710472904
 20
248.54154204967315
 10
119.00922804696484
 20
248.28052257560122
 10
119.42289838643777
 20
248.01872627663167
 10
119.83607664449751
 20
247.75615404088887
 10
120.24876133147475
 20
247.4928067396988
 10
120.66095098083692
 20
247.22868528117766
 10
121.07264411392023
 20
246.96379055481032
 10
121.48383925183484
 20
246.69812345025747
 10
121.89453490371001
 20
246.43168483929975
 10
122.30472960087114
 20
246.1644756286055
 10
122.71442186463959
 20
245.89649670992577
 10
123.12361021509095
 20
245.62774897374447
 10
123.53229316172003
 20
245.358233295215
 10
123.94046923165503
 20
245.08795057702798
 10
124.34813694662184
 20
244.8169017143129
 10
124.7552948254472
 20
244.5450875985825
 10
125.16194137783748
 20
244.27250910856645
 10
125.56807512641177
 20
243.99916714318593
 10
125.97369459314685
 20
243.7250626011623
 10
126.3787982954217
 20
243.45019637524817
 10
126.78338474299895
 20
243.17456934795962
 10
127.18745247564742
 20
242.89818244673899
 10
127.59100015989189
 20
242.62103678412763
 10
127.994026499458
 20
242.343133525029
 10
128.39653019358855
 20
242.06447382565614
 10
128.79850994611203
 20
241.78505884675812
 10
129.19996447165536
 20
241.50488976242227
 10
129.60089247822492
 20
241.22396773501424
 10
130.00129267084714
 20
240.9422939206075
 10
130.4011637540181
 20
240.65986947257466
 10
130.80050444810914
 20
240.37669556475743
 10
131.19931346501994
 20
240.09277335694574
 10
131.59758951525234
 20
239.80810400504862
 10
131.99533130357514
 20
239.52268865516933
 10
132.39253755579395
 20
239.23652848089088
 10
132.78920698736727
 20
238.9496246394561
 10
133.18533831395652
 20
238.66197828660472
 10
133.5809302402227
 20
238.37359056129088
 10
133.97598149709708
 20
238.08446263683692
 10
134.3704908032619
 20
237.79459566798496
 10
134.76445687816025
 20
237.50399080885578
 10
135.15787842919406
 20
237.21264919575037
 10
135.55075418888424
 20
236.9205719973802
 10
135.94308284997857
 20
236.627760327454
 10
136.3348629924401
 20
236.33421514809686
 10
136.7260931583742
 20
236.03993737184214
 10
137.1167719087114
 20
235.74492793751705
 10
137.506897798304
 20
235.4491877769833
 10
137.8964693785501
 20
235.15271781875478
 10
138.2854851906877
 20
234.8555189793254
 10
138.6739437896607
 20
234.55759219451758
 10
139.0618437295067
 20
234.25893840019683
 10
139.44918355898673
 20
233.95955852666395
 10
139.83596181834818
 20
233.65945349464184
 10
140.2221770562916
 20
233.35862423723825
 10
140.60782782592895
 20
233.0570716945876
 10
140.9929126732215
 20
232.75479679906007
 10
141.37743013732546
 20
232.45180047588178
 10
141.76137876044274
 20
232.14808365573788
 10
142.14475709465643
 20
231.84364728331536
 10
142.52756368298472
 20
231.53849229333835
 10
142.90979706340036
 20
231.23261961582182
 10
143.29145577135384
 20
230.92603017933237
 10
143.67253835781878
 20
230.61872493339524
 10
144.0530433634481
 20
230.31070481627228
 10
144.4329694404053
 20
230.00197090502198
 10
144.81231547349026
 20
229.69252456209014
 10
145.19108040142478
 20
229.38236721268268
 10
145.56926315255515
 20
229.07150026552355
 10
145.94686265651825
 20
228.75992512728826
 10
146.3238778315583
 20
228.44764318735042
 10
146.70030762568413
 20
228.13465586753293
 10
147.07615097441985
 20
227.82096457096273
 10
147.45140681501445
 20
227.50657069935653
 10
147.82607407284252
 20
227.1914756369139
 10
148.20015170066122
 20
226.8756807970602
 10
148.5736386420997
 20
226.5591875788943
 10
148.94653384102628
 20
226.24199737845737
 10
149.31883623116272
 20
225.92411157664344
 10
149.69054476789395
 20
225.60553157653962
 10
150.0616584030767
 20
225.2862587737836
 10
150.43217608676116
 20
224.966294558693
 10
150.80209676060224
 20
224.64564030878293
 10
151.17141938211887
 20
224.3242974168366
 10
151.5401429109871
 20
224.0022672749582
 10
151.9082663030001
 20
223.6795512677142
 10
152.27578850231575
 20
223.35615076347554
 10
152.6427083917371
 20
223.03206705839602
 10
153.00902480881723
 20
222.70730139557855
 10
153.3747365832629
 20
222.38185500794188
 10
153.73984253942524
 20
222.0557291212107
 10
154.10434150491383
 20
221.72892496365313
 10
154.46823232068962
 20
221.4014437772522
 10
154.83151381897414
 20
221.07328679305007
 10
155.19418482857037
 20
220.74445523722943
 10
155.5562441753313
 20
220.41495033173905
 10
155.91769070464218
 20
220.08477331894295
 10
156.27852325095859
 20
219.75392542810835
 10
156.63874064730305
 20
219.42240788596501
 10
156.99834171740767
 20
219.09022190827426
 10
157.3573253108494
 20
218.75736873788114
 10
157.71569026404512
 20
218.4238496023901
 10
158.07343541385936
 20
218.0896657290094
 10
158.43055958199812
 20
217.7548183279582
 10
158.78706162155643
 20
217.41930864217414
 10
159.1429403707969
 20
217.08313789788485
 10
159.4981946682148
 20
216.74630732079066
 10
159.85282333957645
 20
216.4088181224968
 10
160.20682526440905
 20
216.07067157032105
 10
160.56019935871817
 20
215.73186896845436
 10
160.91294454093062
 20
215.3924116220557
 10
161.26505971878888
 20
215.05230082370903
 10
161.61654381926297
 20
214.7115378844625
 10
161.9673957676009
 20
214.37012411200888
 10
162.317614485324
 20
214.02806080870923
 10
162.6671988853044
 20
213.68534926669557
 10
163.01614789312853
 20
213.3419907897367
 10
163.3644604391232
 20
212.99798668499122
 10
163.7121354476027
 20
212.65333825210723
 10
164.05917183629913
 20
212.30804678282226
 10
164.40556852904658
 20
211.96211357378473
 10
164.75132446099053
 20
211.61553993167686
 10
165.09643855893566
 20
211.26832715353717
 10
165.44090974521774
 20
210.92047653077393
 10
165.78473694155352
 20
210.57198935308415
 10
166.12791908764905
 20
210.22286692674862
 10
166.4704551125128
 20
209.8731105463013
 10
166.8123439428301
 20
209.5227215029121
 10
167.15358449806985
 20
209.17170107971538
 10
167.49417574184403
 20
208.82005060164613
 10
167.83411665860845
 20
208.467771412359
 10
168.17340623647712
 20
208.11486485746485
 10
168.51204344957029
 20
207.76133226763358
 10
168.85002730412123
 20
207.40717500278052
 10
169.18735679124973
 20
207.05239440673904
 10
169.52403090285267
 20
206.69699182257787
 10
169.8600486167119
 20
206.34096857859458
 10
170.19540893929968
 20
205.98432602878233
 10
170.530110866468
 20
205.62706551559992
 10
170.8641533930257
 20
205.2691883791217
 10
171.19753550184151
 20
204.9106959469627
 10
171.53025619756147
 20
204.55158956571765
 10
171.86231448107054
 20
204.19187057708132
 10
172.1937093497993
 20
203.83154031822497
 10
172.52443979143936
 20
203.47060011615858
 10
172.85450480844554
 20
203.10905131024063
 10
173.18390340648307
 20
202.74689524147564
 10
173.5126345853051
 20
202.38413324425056
 10
173.84069733718727
 20
202.02076664504733
 10
174.1680906638033
 20
201.65679677775626
 10
174.49481361877295
 20
201.29222502166817
 10
174.82086528966786
 20
200.92705278478306
 10
175.14624476128833
 20
200.56128147073804
 10
175.47095111933154
 20
200.1949124821327
 10
175.79498346756415
 20
199.82794723569424
 10
176.11834089936886
 20
199.4603871370275
 10
176.44102250583632
 20
199.09223358791024
 10
176.76302737154373
 20
198.72348798268047
 10
177.0843546064679
 20
198.35415173610002
 10
177.40500330761964
 20
197.98422624978053
 10
177.72497257208448
 20
197.61371292367548
 10
178.04426148292305
 20
197.24261314400087
 10
178.3628691560307
 20
196.8709283235958
 10
178.6807946917219
 20
196.49865986015632
 10
178.9980371910865
 20
196.1258091504141
 10
179.31459574038436
 20
195.7523775769525
 10
179.6304694560391
 20
195.37836654640245
 10
179.94565744305262
 20
195.0037774540803
 10
180.260158805424
 20
194.62861169291375
 10
180.57397263468098
 20
194.25287064393785
 10
180.88709805641005
 20
193.87655571516976
 10
181.19953423953126
 20
193.49966834888525
 10
181.51128036203946
 20
193.12220999285236
 10
181.82233559235158
 20
192.74418208491267
 10
182.13269911442234
 20
192.3655860737238
 10
182.44237011620615
 20
191.98642340914273
 10
182.7513477798804
 20
191.60669553426865
 10
183.05963128048546
 20
191.2264038844701
 10
183.36721980085096
 20
190.84554989955274
 10
183.67411253546035
 20
190.46413502678908
 10
183.98030867033046
 20
190.08216070467367
 10
184.28580738682265
 20
189.69962836612933
 10
184.59060786623084
 20
189.31653944225084
 10
184.89470930926876
 20
188.9328953777598
 10
185.19811090545744
 20
188.54869760662137
 10
185.50081184218078
 20
188.16394755935627
 10
185.80281129879552
 20
187.77864665849734
 10
186.10410848194965
 20
187.39279634626507
 10
186.4047025843391
 20
187.00639805218205
 10
186.7045927990879
 20
186.61945320442365
 10
187.00377831138812
 20
186.23196322341937
 10
187.3022584013333
 20
185.84392960103878
 10
187.6000323590561
 20
185.45535383449547
 10
187.8970994760526
 20
185.0662374196496
 10
188.1934590295642
 20
184.6765818391716
 10
188.48911032658242
 20
184.28638859606153
 10
188.78405266457327
 20
183.89565918367262
 10
189.0782853397847
 20
183.5043950921186
 10
189.37180763678
 20
183.11259780049988
 10
189.66461886172803
 20
182.72026880190276
 10
189.956718319296
 20
182.32740958598907
 10
190.248105310115
 20
181.93402163717155
 10
190.5387791257317
 20
181.5401064309912
 10
190.82873907106338
 20
181.14566545075496
 10
191.11798445764524
 20
180.75070018244858
 10
191.4065145901288
 20
180.35521210484293
 10
191.69432876671252
 20
179.95920268994433
 10
191.98142629064185
 20
179.56267341142208
 10
192.26780647999163
 20
179.1656257516162
 10
192.55346864307396
 20
178.7680611837302
 10
192.8384120799432
 20
178.36998117306487
 10
193.1226360679849
 20
177.97138716688596
 10
193.40613990262364
 20
177.57228062357277
 10
193.68892286668668
 20
177.17266299077266
 10
193.97098424202787
 20
176.77253571377682
 10
194.25232329861856
 20
176.3719002279204
 10
194.5329393381362
 20
175.9707579892035
 10
194.81283164671507
 20
175.5691104410337
 10
195.09199951127022
 20
175.1669590257716
 10
195.37044220221892
 20
174.7643051728285
 10
195.6481590241881
 20
174.36115033377533
 10
195.9251492673352
 20
173.95749594857648
 10
196.20141222151014
 20
173.55334345547357
 10
196.47694716280014
 20
173.14869428187401
 10
196.7517533929387
 20
172.74354987124113
 10
197.02583020767557
 20
172.33791166144923
 10
197.29917689950588
 20
171.93178108672728
 10
197.57179274992947
 20
171.52515957255153
 10
197.84367705744148
 20
171.11804855446545
 10
198.11482912388874
 20
170.71044946883654
 10
198.38524826510906
 20
170.30236375988818
 10
198.6549338107427
 20
169.89379287949507
 10
198.92388510000546
 20
169.48473828428277
 10
199.19210148364473
 20
169.07520143680873
 10
199.45958230342436
 20
168.66518379208975
 10
199.7263268960171
 20
168.25468680026694
 10
199.99233459771676
 20
167.8437119097427
 10
200.25760476513133
 20
167.43226058052855
 10
200.52213674284081
 20
167.0203342632843
 10
200.78592987320656
 20
166.60793440576222
 10
201.04898348923948
 20
166.19506244832846
 10
201.3112969531524
 20
165.78171984851846
 10
201.57286961205085
 20
165.36790805275066
 10
201.83370081362918
 20
164.95362850639845
 10
202.0937898875798
 20
164.53888264217935
 10
202.3531362011511
 20
164.12367191503904
 10
202.61173910380174
 20
163.70799776733864
 10
202.86959794540067
 20
163.2918616403644
 10
203.12671206199394
 20
162.8752649655741
 10
203.3830809449899
 20
162.4582092686941
 10
203.63870431074494
 20
162.04069621088445
 10
203.89358189943422
 20
161.62272746391105
 10
204.14771344065844
 20
161.20430468905985
 10
204.4010986848116
 20
160.78542955624232
 10
204.6537373840696
 20
160.36610373236056
 10
204.90562928626088
 20
159.94632887765277
 10
205.15677413157763
 20
159.5261066438257
 10
205.4071716716086
 20
159.1054386854949
 10
205.6568216688631
 20
158.6843266598112
 10
205.90572387826634
 20
158.26277221545777
 10
206.1538780500581
 20
157.84077699448886
 10
206.40128393644122
 20
157.41834263631418
 10
206.6479413097238
 20
156.9954707882639
 10
206.89384993137426
 20
156.5721630874637
 10
207.13900956114776
 20
156.14842116626016
 10
207.38341995129164
 20
155.7242466489552
 10
207.6270808833786
 20
155.29964117301668
 10
207.86999211872558
 20
154.87460636050628
 10
208.11215326880517
 20
154.44914374458477
 10
208.35356377098802
 20
154.02325475714474
 10
208.59422309339064
 20
153.5969408460995
 10
208.8341306861054
 20
153.17020344769188
 10
209.07328599988656
 20
152.7430439971675
 10
209.3116884702797
 20
152.31546391995872
 10
209.54933756209357
 20
151.8874646565261
 10
209.78623273102426
 20
151.45904764086671
 10
210.02237343031382
 20
151.030214304308
 10
210.25775910110696
 20
150.60096607027202
 10
210.4923892041829
 20
150.1713043717322
 10
210.72626320075983
 20
149.74123064059742
 10
210.95938054632228
 20
149.31074630439005
 10
211.19174068739636
 20
148.87985278460235
 10
211.42334308042396
 20
148.44855150692882
 10
211.65418719193443
 20
148.016843901272
 10
211.88427247941118
 20
147.58473139147955
 10
212.11359839456136
 20
147.15221539720247
 10
212.3421644044117
 20
146.71929734509848
 10
212.56997004180622
 20
146.28597869525933
 10
212.79701483606885
 20
145.85226090433576
 10
213.02329831419684
 20
145.41814542622396
 10
213.24881999366818
 20
144.9836337083906
 10
213.4735794218434
 20
144.5487272123237
 10
213.69757613057922
 20
144.11342738991826
 10
213.9208096523234
 20
143.67773569189762
 10
214.14327950123524
 20
143.2416535582168
 10
214.36498522943543
 20
142.80518244680354
 10
214.58592637134396
 20
142.36832380506675
 10
214.80610246160649
 20
141.93107907912145
 10
215.02551301978232
 20
141.4934497061506
 10
215.2441575934775
 20
141.05543713607537
 10
215.4620357224246
 20
140.617042813454
 10
215.67914694320544
 20
140.1782681799237
 10
215.89549078055833
 20
139.7391146699817
 10
216.11106677724865
 20
139.2995837257595
 10
216.3258745439945
 20
138.8596768211938
 10
216.53991396386
 20
138.41939556088036
 10
216.75318498615565
 20
137.97874157804313
 10
216.96568756939087
 20
137.53771650647343
 10
217.17742168546485
 20
137.096321982478
 10
217.3883872975642
 20
136.65455963422593
 10
217.59858436492667
 20
136.21243108414663
 10
217.80801284566982
 20
135.7699379503372
 10
218.01667272134685
 20
135.32708185815355
 10
218.22456396126495
 20
134.88386442329485
 10
218.43168653404896
 20
134.44028725735652
 10
218.6380403968603
 20
133.99635196286852
 10
218.84362554037006
 20
133.5520601542102
 10
219.04844193946502
 20
133.1074134346373
 10
219.2524895703428
 20
132.6624134043021
 10
219.45576839251038
 20
132.21706165207175
 10
219.65827840137217
 20
131.77135977957388
 10
219.8600195777895
 20
131.32530937809042
 10
220.06099185884906
 20
130.87891201558307
 10
220.26119508327673
 20
130.4321692126122
 10
220.4606291054926
 20
129.9850824940437
 10
220.65929377599178
 20
129.53765338022058
 10
220.8571889416617
 20
129.0898833871689
 10
221.0543144394287
 20
128.6417740238738
 10
221.25067012118254
 20
128.19332680329262
 10
221.44625584522433
 20
127.74454323851423
 10
221.64107146266772
 20
127.2954248368274
 10
221.8351168180596
 20
126.84597310009237
 10
222.02839176032134
 20
126.3961895295175
 10
222.22089615519138
 20
125.94607563095455
 10
222.41262985761728
 20
125.49563290302822
 10
222.60359271939285
 20
125.04486284048839
 10
222.79378458605638
 20
124.59376693297408
 10
222.98320533041192
 20
124.14234667912744
 10
223.1718548108605
 20
123.69060356898096
 10
223.3597328650207
 20
123.23853908147655
 10
223.54683921366234
 20
122.78615464492398
 10
223.73317358558154
 20
122.33345168932553
 10
223.918735691372
 20
121.88043163557879
 10
224.1035252421791
 20
121.42709590330065
 10
224.28754193336437
 20
120.97344590423319
 10
224.47078549041478
 20
120.51948306091275
 10
224.65325562904695
 20
120.06520879039232
 10
224.8349520624517
 20
119.6106245072487
 10
225.01587449151944
 20
119.15573161975584
 10
225.19602263654178
 20
118.70053154252967
 10
225.3753962186659
 20
118.24502568907943
 10
225.553994952882
 20
117.78921546906561
 10
225.7318185453951
 20
117.33310228736983
 10
225.9088667110032
 20
116.87668755091153
 10
226.08513917607144
 20
116.41997266973453
 10
226.2606356571497
 20
115.9629590487171
 10
226.43535595504684
 20
115.50564812358137
 10
226.6093002591246
 20
115.04804147596626
 10
226.782468888855
 20
114.59014073273339
 10
226.9548621516111
 20
114.13194751142589
 10
227.1264803545149
 20
113.67346342483965
 10
227.29732379275893
 20
113.2146900767171
 10
227.46739279605546
 20
112.7556290790657
 10
227.63668767823776
 20
112.29628203332558
 10
227.805208754655
 20
111.83665053691453
 10
227.9729563245363
 20
111.37673617683828
 10
228.13993072203044
 20
110.91654054833263
 10
228.3061322685147
 20
110.4560652374053
 10
228.47156128500384
 20
109.99531182542407
 10
228.63621807990916
 20
109.53428188479569
 10
228.80010298542481
 20
109.07297699200029
 10
228.96321633176657
 20
108.6113987183268
 10
229.1255584420497
 20
108.14954862811685
 10
229.28712950825113
 20
107.68742823552782
 10
229.44792957180303
 20
107.22503899873244
 10
229.6079586714901
 20
106.7623823722147
 10
229.76721683802555
 20
106.29945980496392
 10
229.92570409648087
 20
105.83627274139211
 10
230.08342047323288
 20
105.37282262377191
 10
230.24036601433983
 20
104.90911089844639
 10
230.3965407540119
 20
104.44513900507964
 10
230.55194472443387
 20
103.98090838007073
 10
230.70657794787346
 20
103.5164204539702
 10
230.86044047730846
 20
103.05167666500677
 10
231.0135323500689
 20
102.58667844360774
 10
231.1658536042081
 20
102.12142721790173
 10
231.31740426014272
 20
101.65592440777671
 10
231.4681843747549
 20
101.19017144252344
 10
231.61819398955367
 20
100.72416974388375
 10
231.76743321676628
 20
100.25792075372642
 10
231.9159022959622
 20
99.79142595162983
 10
232.06360150907707
 20
99.32468682707041
 10
232.21053113389414
 20
98.85770486447178
 10
232.35669144470867
 20
98.39048154347519
 10
232.50208270613751
 20
97.92301833707366
 10
232.64670519708665
 20
97.45531671911684
 10
232.79055920347068
 20
96.98737816196841
 10
232.93364500383692
 20
96.51920413209504
 10
233.07596287070695
 20
96.0507960905533
 10
233.21751307946482
 20
95.58215549574379
 10
233.3582959236531
 20
95.11328380799661
 10
233.49831168557708
 20
94.64418248067415
 10
233.63756064516826
 20
94.17485296292323
 10
233.77604307380162
 20
93.70529669789265
 10
233.91375927122576
 20
93.2355151336327
 10
234.05070949873627
 20
92.76550970342693
 10
234.18689399403638
 20
92.2952818304031
 10
234.32231297614373
 20
91.82483292914351
 10
234.45696670152344
 20
91.35416442188249
 10
234.59085541015747
 20
90.88327772291274
 10
234.72397934238217
 20
90.41217424348989
 10
234.85633872472835
 20
89.94085538789219
 10
234.98793380960896
 20
89.46932256459506
 10
235.11876484427907
 20
88.99757717748723
 10
235.24883207243764
 20
88.52562062637732
 10
235.37813572769926
 20
88.05345430526157
 10
235.5066760579996
 20
87.58107960904992
 10
235.6344533174403
 20
87.10849793126299
 10
235.761467752661
 20
86.63571066034973
 10
235.88771960393416
 20
86.16271918006105
 10
236.01320910649574
 20
85.68952486987266
 10
236.13793648938636
 20
85.21612910471019
 10
236.26190196593637
 20
84.74253325251772
 10
236.38510574701246
 20
84.2687386778359
 10
236.5075480348376
 20
83.79474674025361
 10
236.62922906064225
 20
83.32055880413057
 10
236.7501490405559
 20
82.84617622715791
 10
236.8703081913486
 20
82.37160036447872
 10
236.98970671211654
 20
81.8968325641112
 10
237.10834483850638
 20
81.42187418061181
 10
237.22622278971062
 20
80.94672656167751
 10
237.34334078483144
 20
80.47139105232127
 10
237.4596990290763
 20
79.99586899152496
 10
237.5752977525256
 20
79.52016172176027
 10
237.69013718029368
 20
79.04427058161755
 10
237.80421767661076
 20
78.5681969403341
 10
237.9175400847173
 20
78.0919422778318
 10
238.0301053663537
 20
77.61550809636867
 10
238.1419144910022
 20
77.13889589373136
 10
238.25296842137763
 20
76.66210715983027
 10
238.36326811512959
 20
76.18514337718678
 10
238.47281453242132
 20
75.70800602273155
 10
238.58160865253615
 20
75.23069657159616
 10
238.68965144395534
 20
74.7532164902297
 10
238.7969438737764
 20
74.27556723863219
 10
238.90348689984376
 20
73.7977502686467
 10
239.00928151039545
 20
73.31976703280726
 10
239.11432867887237
 20
72.84161897423019
 10
239.21862937983272
 20
72.36330753021704
 10
239.32218456000064
 20
71.88483412603657
 10
239.42499483045904
 20
71.40620010907585
 10
239.52706034771367
 20
70.92740672551783
 10
239.62838124193922
 20
70.44845521398543
 10
239.72895763024042
 20
69.96934680853495
 10
239.82878965216278
 20
69.49008274614503
 10
239.92787744414107
 20
69.0106642612852
 10
240.02622113800055
 20
68.53109258564675
 10
240.1238208563186
 20
68.0513689472544
 10
240.2206767324161
 20
67.57149457457272
 10
240.31678890806154
 20
67.09147069597078
 10
240.41215751648457
 20
66.61129853631212
 10
240.50678268550428
 20
66.13097931764183
 10
240.60066454195106
 20
65.65051426010811
 10
240.69380323390325
 20
65.16990458627487
 10
240.7861991360047
 20
64.68915156036756
 10
240.87785314731894
 20
64.20825654374536
 10
240.96876622507438
 20
63.72722090343781
 10
241.05893935905277
 20
63.24604600695169
 10
241.14837352355187
 20
62.76473321315624
 10
241.23706969395775
 20
62.28328387546493
 10
241.32502883049966
 20
61.80169933890144
 10
241.41225192476608
 20
61.31998094862709
 10
241.49873995722265
 20
60.83813004213088
 10
241.58449390715825
 20
60.356147951100404
 10
241.66951474247486
 20
59.874035999663924
 10
241.75380345050758
 20
59.3917955098705
 10
241.83736101895082
 20
58.90942779826623
 10
241.9201884280622
 20
58.42693417458625
 10
242.00228651434426
 20
57.94431591868031
 10
242.0836559096357
 20
57.46157427109573
 10
242.1642972392751
 20
56.978710467470584
 10
242.24421111957344
 20
56.49572573817148
 10
242.32339816311364
 20
56.0126213092547
 10
242.4018589784578
 20
55.5293984024535
 10
242.47959419755557
 20
55.046058239621466
 10
242.55660443937518
 20
54.562602036798424
 10
242.6328903229266
 20
54.07903100637071
 10
242.7084524514879
 20
53.59534635463661
 10
242.78329146314562
 20
53.11154928972138
 10
242.85740797906618
 20
52.627641013441604
 10
242.93080262089404
 20
52.143622724080075
 10
243.00347599213683
 20
51.65949561360768
 10
243.07542869540046
 20
51.17526087036811
 10
243.14666131458736
 20
50.690919676456915
 10
243.21717443080507
 20
50.20647321017568
 10
243.28696861503502
 20
49.72192264502098
 10
243.35604445293703
 20
49.23726915328924
 10
243.42440253430647
 20
48.7525139045009
 10
243.4920434422213
 20
48.26765806387859
 10
243.55896775342552
 20
47.782702792465166
 10
243.62517604761098
 20
47.29764924844287
 10
243.69066892007464
 20
46.81249858882569
 10
243.75544695545685
 20
46.32725196586656
 10
243.81951073584503
 20
45.84191052821951
 10
243.88286085954672
 20
45.356475423412
 10
243.94549827439593
 20
44.87094784071171
 10
244.00742413858896
 20
44.385328991404435
 10
244.06863961578009
 20
43.899620081693286
 10
244.12914585392278
 20
43.41382231006131
 10
244.18894403397675
 20
42.927936873371486
 10
244.248035323045
 20
42.441964960978794
 10
244.30642088796603
 20
41.95590775647855
 10
244.36410188364425
 20
41.46976643635529
 10
244.4210794861015
 20
40.983542173942055
 10
244.47735486893782
 20
40.49723613657666
 10
244.53292920148584
 20
40.01084948543373
 10
244.58780364486762
 20
39.524383375138044
 10
244.64197930826379
 20
39.0378389489851
 10
244.69545681902756
 20
38.551217292025854
 10
244.7482365607321
 20
38.0645194595815
 10
244.80031891086222
 20
37.57774650418115
 10
244.8517042445952
 20
37.09089947601456
 10
244.90239295724052
 20
36.60397942526523
 10
244.95238543196257
 20
36.11698739869878
 10
245.00168205109412
 20
35.62992444088575
 10
245.05028318314677
 20
35.14279159293766
 10
245.09818922811252
 20
34.65558989703298
 10
245.14540056998558
 20
34.1683203916345
 10
245.1919175929289
 20
33.68098411314477
 10
245.237740667809
 20
33.19358209466179
 10
245.28287039000597
 20
32.70611538801125
 10
245.3273077844
 20
32.21858508122724
 10
245.37105393230343
 20
31.730992262641813
 10
245.41410990505204
 20
31.24333801469238
 10
245.45647678903956
 20
30.75562341617968
 10
245.49815567367034
 20
30.26784954113987
 10
245.53914764222984
 20
29.78001745809523
 10
245.57945377173212
 20
29.29212823009923
 10
245.6190751426522
 20
28.804182915574625
 10
245.65801284968424
 20
28.31618256915928
 10
245.69626797751053
 20
27.828128239744952
 10
245.73384160820854
 20
27.34002097112546
 10
245.77073475439576
 20
26.85186179700728
 10
245.80694810563153
 20
26.36365172258406
 10
245.8424822151475
 20
25.875391739882325
 10
245.87733763633298
 20
25.387082838327068
 10
245.9115149069813
 20
24.898726003659487
 10
245.94501459600065
 20
24.410322221226014
 10
245.97783725845954
 20
23.9218724727795
 10
246.00998344873508
 20
23.433377737440864
 10
246.04145370934629
 20
22.94483899100289
 10
246.07224860246873
 20
22.456257207985562
 10
246.10236868769752
 20
21.967633360151215
 10
246.1318145201031
 20
21.47896841641973
 10
246.16058661976896
 20
20.990263341124063
 10
246.1886853138419
 20
20.501519085137566
 10
246.21611084675567
 20
20.012736593079882
 10
246.24286345412446
 20
19.523916807850217
 10
246.26894336707818
 20
19.035060670924526
 10
246.294350813676
 20
18.546169122463258
 10
246.31908604174447
 20
18.05724310247766
 10
246.3431492869776
 20
17.568283549151293
 10
246.3665407843075
 20
17.07929139947096
 10
246.38926075432036
 20
16.59026758860854
 10
246.4113094485543
 20
16.101213052042866
 10
246.4326871026505
 20
15.612128723334756
 10
246.45339410787642
 20
15.123015541429695
 10
246.47343176106676
 20
14.633874480567595
 10
246.4928017198069
 20
14.144706523880531
 10
246.51150563507665
 20
13.655512647293913
 10
246.5295451553289
 20
13.166293819737522
 10
246.54692191975604
 20
12.677051002955594
 10
246.56363758066726
 20
12.187785152341771
 10
246.5796937943318
 20
11.698497216580414
 10
246.59509221059798
 20
11.209188137323574
 10
246.60983447362608
 20
10.719858849282698
 10
246.62392222936677
 20
10.230510280496281
 10
246.6373571376869
 20
9.741143352670116
 10
246.65013934449718
 20
9.251758941662827
 10
246.66226438841076
 20
8.762357808359297
 10
246.6737269187995
 20
8.272940710397004
 10
246.68452160996966
 20
7.783508427617958
 10
246.69464312135332
 20
7.294061761275793
 10
246.70408611164146
 20
6.804601534572823
 10
246.7128452233629
 20
6.315128592578039
 10
246.72091512800068
 20
5.825643803228848
 10
246.72829048438285
 20
5.336148056703979
 10
246.7349659497356
 20
4.8466422658375325
 10
246.74093626868293
 20
4.357127367332765
 10
246.74620285371023
 20
3.8676043906218744
 10
246.75077784304116
 20
3.3780744603534023
 10
246.75467434430365
 20
2.888538657862852
 10
246.75790545909342
 20
2.398998009911113
 10
246.76048429583744
 20
1.9094534898463478
 10
246.76242397364894
 20
1.4199060186368764
 10
246.76373760262643
 20
0.9303564658148198
 10
246.7644382893025
 20
0.4408056506084847
 10
246.7645290936776
 20
0.0
  0
ENDSEC
  0
SECTION
  2
OBJECTS
  0
DICTIONARY
  5
A
330
0
100
AcDbDictionary
280
0
281
1
  3
ACAD_COLOR
350
B
  3
ACAD_GROUP
350
C
  3
ACAD_LAYOUT
350
D
  3
ACAD_MATERIAL
350
E
  3
ACAD_MLEADERSTYLE
350
F
  3
ACAD_MLINESTYLE
350
10
  3
ACAD_PLOTSETTINGS
350
11
  3
ACAD_PLOTSTYLENAME
350
12
  3
ACAD_SCALELIST
350
14
  3
ACAD_TABLESTYLE
350
15
  3
ACAD_VISUALSTYLE
350
16
  3
EZDXF_META
350
2D
  0
DICTIONARY
  5
B
330
A
100
AcDbDictionary
280
0
281
1
  0
DICTIONARY
  5
C
330
A
100
AcDbDictionary
280
0
281
1
  0
DICTIONARY
  5
D
330
A
100
AcDbDictionary
280
0
281
1
  3
Model
350
1A
  3
Layout1
350
1E
  0
DICTIONARY
  5
E
330
A
100
AcDbDictionary
280
0
281
1
  3
ByBlock
350
1F
  3
ByLayer
350
20
  3
Global
350
21
  0
DICTIONARY
  5
F
330
A
100
AcDbDictionary
280
0
281
1
  3
Standard
350
2C
  0
DICTIONARY
  5
10
330
A
100
AcDbDictionary
280
0
281
1
  3
Standard
350
22
  0
DICTIONARY
  5
11
330
A
100
AcDbDictionary
280
0
281
1
  0
ACDBDICTIONARYWDFLT
  5
12
330
A
100
AcDbDictionary
280
0
281
1
  3
Normal
350
13
100
AcDbDictionaryWithDefault
340
13
  0
ACDBPLACEHOLDER
  5
13
330
12
  0
DICTIONARY
  5
14
330
A
100
AcDbDictionary
280
0
281
1
  0
DICTIONARY
  5
15
330
A
100
AcDbDictionary
280
0
281
1
  0
DICTIONARY
  5
16
330
A
100
AcDbDictionary
280
0
281
1
  0
LAYOUT
  5
1A
330
D
100
AcDbPlotSettings
  1

  4
A3
  6

 40
7.5
 41
20.0
 42
7.5
 43
20.0
 44
420.0
 45
297.0
 46
0.0
 47
0.0
 48
0.0
 49
0.0
140
0.0
141
0.0
142
1.0
143
1.0
 70
1024
 72
1
 73
0
 74
5
  7

 75
16
 76
0
 77
2
 78
300
147
1.0
148
0.0
149
0.0
100
AcDbLayout
  1
Model
 70
1
 71
0
 10
0.0
 20
0.0
 11
420.0
 21
297.0
 12
0.0
 22
0.0
 32
0.0
 14
1e+20
 24
1e+20
 34
1e+20
 15
-1e+20
 25
-1e+20
 35
-1e+20
146
0.0
 13
0.0
 23
0.0
 33
0.0
 16
1.0
 26
0.0
 36
0.0
 17
0.0
 27
1.0
 37
0.0
 76
1
330
17
  0
LAYOUT
  5
1E
330
D
100
AcDbPlotSettings
  1

  4
A3
  6

 40
7.5
 41
20.0
 42
7.5
 43
20.0
 44
420.0
 45
297.0
 46
0.0
 47
0.0
 48
0.0
 49
0.0
140
0.0
141
0.0
142
1.0
143
1.0
 70
0
 72
1
 73
0
 74
5
  7

 75
16
 76
0
 77
2
 78
300
147
1.0
148
0.0
149
0.0
100
AcDbLayout
  1
Layout1
 70
1
 71
1
 10
0.0
 20
0.0
 11
420.0
 21
297.0
 12
0.0
 22
0.0
 32
0.0
 14
1e+20
 24
1e+20
 34
1e+20
 15
-1e+20
 25
-1e+20
 35
-1e+20
146
0.0
 13
0.0
 23
0.0
 33
0.0
 16
1.0
 26
0.0
 36
0.0
 17
0.0
 27
1.0
 37
0.0
 76
1
330
1B
  0
MATERIAL
  5
1F
102
{ACAD_REACTORS
330
E
102
}
330
E
100
AcDbMaterial
  1
ByBlock
  2

 70
0
 40
1.0
 71
1
 41
1.0
 91
-1023410177
 42
1.0
 72
1
  3

 73
1
 74
1
 75
1
 44
0.5
 73
0
 45
1.0
 46
1.0
 77
1
  4

 78
1
 79
1
170
1
 48
1.0
171
1
  6

172
1
173
1
174
1
140
1.0
141
1.0
175
1
  7

176
1
177
1
178
1
143
1.0
179
1
  8

270
1
271
1
272
1
145
1.0
146
1.0
273
1
  9

274
1
275
1
276
1
 42
1.0
 72
1
  3

 73
1
 74
1
 75
1
 94
63
  0
MATERIAL
  5
20
102
{ACAD_REACTORS
330
E
102
}
330
E
100
AcDbMaterial
  1
ByLayer
  2

 70
0
 40
1.0
 71
1
 41
1.0
 91
-1023410177
 42
1.0
 72
1
  3

 73
1
 74
1
 75
1
 44
0.5
 73
0
 45
1.0
 46
1.0
 77
1
  4

 78
1
 79
1
170
1
 48
1.0
171
1
  6

172
1
173
1
174
1
140
1.0
141
1.0
175
1
  7

176
1
177
1
178
1
143
1.0
179
1
  8

270
1
271
1
272
1
145
1.0
146
1.0
273
1
  9

274
1
275
1
276
1
 42
1.0
 72
1
  3

 73
1
 74
1
 75
1
 94
63
  0
MATERIAL
  5
21
102
{ACAD_REACTORS
330
E
102
}
330
E
100
AcDbMaterial
  1
Global
  2

 70
0
 40
1.0
 71
1
 41
1.0
 91
-1023410177
 42
1.0
 72
1
  3

 73
1
 74
1
 75
1
 44
0.5
 73
0
 45
1.0
 46
1.0
 77
1
  4

 78
1
 79
1
170
1
 48
1.0
171
1
  6

172
1
173
1
174
1
140
1.0
141
1.0
175
1
  7

176
1
177
1
178
1
143
1.0
179
1
  8

270
1
271
1
272
1
145
1.0
146
1.0
273
1
  9

274
1
275
1
276
1
 42
1.0
 72
1
  3

 73
1
 74
1
 75
1
 94
63
  0
MLINESTYLE
  5
22
102
{ACAD_REACTORS
330
10
102
}
330
10
100
AcDbMlineStyle
  2
Standard
 70
0
  3

 62
256
 51
90.0
 52
90.0
 71
2
 49
0.5
 62
256
  6
BYLAYER
 49
-0.5
 62
256
  6
BYLAYER
  0
MLEADERSTYLE
  5
2C
102
{ACAD_REACTORS
330
F
102
}
330
F
100
AcDbMLeaderStyle
179
2
170
2
171
1
172
0
 90
2
 40
0.0
 41
0.0
173
1
 91
-1056964608
 92
-2
290
1
 42
2.0
291
1
 43
8.0
  3
Standard
 44
4.0
300

342
29
174
1
175
1
176
0
178
1
 93
-1056964608
 45
4.0
292
0
297
0
 46
4.0
 94
-1056964608
 47
1.0
 49
1.0
140
1.0
294
1
141
0.0
177
0
142
1.0
295
0
296
0
143
3.75
271
0
272
9
273
9
  0
DICTIONARY
  5
2D
330
A
100
AcDbDictionary
281
1
  3
CREATED_BY_EZDXF
350
2E
  3
WRITTEN_BY_EZDXF
350
32
  0
DICTIONARYVAR
  5
2E
330
2D
100
DictionaryVariables
280
0
  1
1.3.2 @ 2025-04-09T02:44:54.738536+00:00
  0
DICTIONARYVAR
  5
32
330
2D
100
DictionaryVariables
280
0
  1
1.3.2 @ 2025-04-09T02:44:54.777667+00:00
  0
ENDSEC
  0
EOF
