  0
SECTION
  2
HEADER
  9
$ACADVER
  1
AC1015
  9
$ACADMAINTVER
 70
6
  9
$DWGCODEPAGE
  3
ANSI_1252
  9
$INSBASE
 10
0.0
 20
0.0
 30
0.0
  9
$EXTMIN
 10
1e+20
 20
1e+20
 30
1e+20
  9
$EXTMAX
 10
-1e+20
 20
-1e+20
 30
-1e+20
  9
$LIMMIN
 10
0.0
 20
0.0
  9
$LIMMAX
 10
420.0
 20
297.0
  9
$ORTHOMODE
 70
0
  9
$REGENMODE
 70
1
  9
$FILLMODE
 70
1
  9
$QTEXTMODE
 70
0
  9
$MIRRTEXT
 70
1
  9
$LTSCALE
 40
1.0
  9
$ATTMODE
 70
1
  9
$TEXTSIZE
 40
2.5
  9
$TRACEWID
 40
1.0
  9
$TEXTSTYLE
  7
Standard
  9
$CLAYER
  8
0
  9
$CELTYPE
  6
ByLayer
  9
$CECOLOR
 62
256
  9
$CELTSCALE
 40
1.0
  9
$DISPSILH
 70
0
  9
$DIMSCALE
 40
1.0
  9
$DIMASZ
 40
2.5
  9
$DIMEXO
 40
0.625
  9
$DIMDLI
 40
3.75
  9
$DIMRND
 40
0.0
  9
$DIMDLE
 40
0.0
  9
$DIMEXE
 40
1.25
  9
$DIMTP
 40
0.0
  9
$DIMTM
 40
0.0
  9
$DIMTXT
 40
2.5
  9
$DIMCEN
 40
2.5
  9
$DIMTSZ
 40
0.0
  9
$DIMTOL
 70
0
  9
$DIMLIM
 70
0
  9
$DIMTIH
 70
0
  9
$DIMTOH
 70
0
  9
$DIMSE1
 70
0
  9
$DIMSE2
 70
0
  9
$DIMTAD
 70
1
  9
$DIMZIN
 70
8
  9
$DIMBLK
  1

  9
$DIMASO
 70
1
  9
$DIMSHO
 70
1
  9
$DIMPOST
  1

  9
$DIMAPOST
  1

  9
$DIMALT
 70
0
  9
$DIMALTD
 70
3
  9
$DIMALTF
 40
0.03937007874
  9
$DIMLFAC
 40
1.0
  9
$DIMTOFL
 70
1
  9
$DIMTVP
 40
0.0
  9
$DIMTIX
 70
0
  9
$DIMSOXD
 70
0
  9
$DIMSAH
 70
0
  9
$DIMBLK1
  1

  9
$DIMBLK2
  1

  9
$DIMSTYLE
  2
ISO-25
  9
$DIMCLRD
 70
0
  9
$DIMCLRE
 70
0
  9
$DIMCLRT
 70
0
  9
$DIMTFAC
 40
1.0
  9
$DIMGAP
 40
0.625
  9
$DIMJUST
 70
0
  9
$DIMSD1
 70
0
  9
$DIMSD2
 70
0
  9
$DIMTOLJ
 70
0
  9
$DIMTZIN
 70
8
  9
$DIMALTZ
 70
0
  9
$DIMALTTZ
 70
0
  9
$DIMUPT
 70
0
  9
$DIMDEC
 70
2
  9
$DIMTDEC
 70
2
  9
$DIMALTU
 70
2
  9
$DIMALTTD
 70
3
  9
$DIMTXSTY
  7
Standard
  9
$DIMAUNIT
 70
0
  9
$DIMADEC
 70
0
  9
$DIMALTRND
 40
0.0
  9
$DIMAZIN
 70
0
  9
$DIMDSEP
 70
44
  9
$DIMATFIT
 70
3
  9
$DIMFRAC
 70
0
  9
$DIMLDRBLK
  1

  9
$DIMLUNIT
 70
2
  9
$DIMLWD
 70
-2
  9
$DIMLWE
 70
-2
  9
$DIMTMOVE
 70
0
  9
$LUNITS
 70
2
  9
$LUPREC
 70
4
  9
$SKETCHINC
 40
1.0
  9
$FILLETRAD
 40
10.0
  9
$AUNITS
 70
0
  9
$AUPREC
 70
2
  9
$MENU
  1
.
  9
$ELEVATION
 40
0.0
  9
$PELEVATION
 40
0.0
  9
$THICKNESS
 40
0.0
  9
$LIMCHECK
 70
0
  9
$CHAMFERA
 40
0.0
  9
$CHAMFERB
 40
0.0
  9
$CHAMFERC
 40
0.0
  9
$CHAMFERD
 40
0.0
  9
$SKPOLY
 70
0
  9
$TDCREATE
 40
2460776.5734375
  9
$TDUCREATE
 40
2458532.153996898
  9
$TDUPDATE
 40
2460776.5734375
  9
$TDUUPDATE
 40
2458532.1544311
  9
$TDINDWG
 40
0.0
  9
$TDUSRTIMER
 40
0.0
  9
$USRTIMER
 70
1
  9
$ANGBASE
 50
0.0
  9
$ANGDIR
 70
0
  9
$PDMODE
 70
0
  9
$PDSIZE
 40
0.0
  9
$PLINEWID
 40
0.0
  9
$SPLFRAME
 70
0
  9
$SPLINETYPE
 70
6
  9
$SPLINESEGS
 70
8
  9
$HANDSEED
  5
41B
  9
$SURFTAB1
 70
6
  9
$SURFTAB2
 70
6
  9
$SURFTYPE
 70
6
  9
$SURFU
 70
6
  9
$SURFV
 70
6
  9
$UCSBASE
  2

  9
$UCSNAME
  2

  9
$UCSORG
 10
0.0
 20
0.0
 30
0.0
  9
$UCSXDIR
 10
1.0
 20
0.0
 30
0.0
  9
$UCSYDIR
 10
0.0
 20
1.0
 30
0.0
  9
$UCSORTHOREF
  2

  9
$UCSORTHOVIEW
 70
0
  9
$UCSORGTOP
 10
0.0
 20
0.0
 30
0.0
  9
$UCSORGBOTTOM
 10
0.0
 20
0.0
 30
0.0
  9
$UCSORGLEFT
 10
0.0
 20
0.0
 30
0.0
  9
$UCSORGRIGHT
 10
0.0
 20
0.0
 30
0.0
  9
$UCSORGFRONT
 10
0.0
 20
0.0
 30
0.0
  9
$UCSORGBACK
 10
0.0
 20
0.0
 30
0.0
  9
$PUCSBASE
  2

  9
$PUCSNAME
  2

  9
$PUCSORG
 10
0.0
 20
0.0
 30
0.0
  9
$PUCSXDIR
 10
1.0
 20
0.0
 30
0.0
  9
$PUCSYDIR
 10
0.0
 20
1.0
 30
0.0
  9
$PUCSORTHOREF
  2

  9
$PUCSORTHOVIEW
 70
0
  9
$PUCSORGTOP
 10
0.0
 20
0.0
 30
0.0
  9
$PUCSORGBOTTOM
 10
0.0
 20
0.0
 30
0.0
  9
$PUCSORGLEFT
 10
0.0
 20
0.0
 30
0.0
  9
$PUCSORGRIGHT
 10
0.0
 20
0.0
 30
0.0
  9
$PUCSORGFRONT
 10
0.0
 20
0.0
 30
0.0
  9
$PUCSORGBACK
 10
0.0
 20
0.0
 30
0.0
  9
$USERI1
 70
0
  9
$USERI2
 70
0
  9
$USERI3
 70
0
  9
$USERI4
 70
0
  9
$USERI5
 70
0
  9
$USERR1
 40
0.0
  9
$USERR2
 40
0.0
  9
$USERR3
 40
0.0
  9
$USERR4
 40
0.0
  9
$USERR5
 40
0.0
  9
$WORLDVIEW
 70
1
  9
$SHADEDGE
 70
3
  9
$SHADEDIF
 70
70
  9
$TILEMODE
 70
1
  9
$MAXACTVP
 70
64
  9
$PINSBASE
 10
0.0
 20
0.0
 30
0.0
  9
$PLIMCHECK
 70
0
  9
$PEXTMIN
 10
1e+20
 20
1e+20
 30
1e+20
  9
$PEXTMAX
 10
-1e+20
 20
-1e+20
 30
-1e+20
  9
$PLIMMIN
 10
0.0
 20
0.0
  9
$PLIMMAX
 10
420.0
 20
297.0
  9
$UNITMODE
 70
0
  9
$VISRETAIN
 70
1
  9
$PLINEGEN
 70
0
  9
$PSLTSCALE
 70
1
  9
$TREEDEPTH
 70
3020
  9
$CMLSTYLE
  2
Standard
  9
$CMLJUST
 70
0
  9
$CMLSCALE
 40
20.0
  9
$PROXYGRAPHICS
 70
1
  9
$MEASUREMENT
 70
1
  9
$CELWEIGHT
370
-1
  9
$ENDCAPS
280
0
  9
$JOINSTYLE
280
0
  9
$LWDISPLAY
290
0
  9
$INSUNITS
 70
6
  9
$HYPERLINKBASE
  1

  9
$STYLESHEET
  1

  9
$XEDIT
290
1
  9
$CEPSNTYPE
380
0
  9
$PSTYLEMODE
290
1
  9
$FINGERPRINTGUID
  2
{6D2DBE4E-702C-4A65-B390-197435622BAD}
  9
$VERSIONGUID
  2
{B367DA5D-F230-401E-8FDD-0B349B341188}
  9
$EXTNAMES
290
1
  9
$PSVPSCALE
 40
0.0
  9
$OLESTARTUP
290
0
  0
ENDSEC
  0
SECTION
  2
CLASSES
  0
CLASS
  1
ACDBDICTIONARYWDFLT
  2
AcDbDictionaryWithDefault
  3
ObjectDBX Classes
 90
0
280
0
281
0
  0
CLASS
  1
SUN
  2
AcDbSun
  3
SCENEOE
 90
1153
280
0
281
0
  0
CLASS
  1
VISUALSTYLE
  2
AcDbVisualStyle
  3
ObjectDBX Classes
 90
4095
280
0
281
0
  0
CLASS
  1
MATERIAL
  2
AcDbMaterial
  3
ObjectDBX Classes
 90
1153
280
0
281
0
  0
CLASS
  1
SCALE
  2
AcDbScale
  3
ObjectDBX Classes
 90
1153
280
0
281
0
  0
CLASS
  1
TABLESTYLE
  2
AcDbTableStyle
  3
ObjectDBX Classes
 90
4095
280
0
281
0
  0
CLASS
  1
MLEADERSTYLE
  2
AcDbMLeaderStyle
  3
ACDB_MLEADERSTYLE_CLASS
 90
4095
280
0
281
0
  0
CLASS
  1
DICTIONARYVAR
  2
AcDbDictionaryVar
  3
ObjectDBX Classes
 90
0
280
0
281
0
  0
CLASS
  1
CELLSTYLEMAP
  2
AcDbCellStyleMap
  3
ObjectDBX Classes
 90
1152
280
0
281
0
  0
CLASS
  1
MENTALRAYRENDERSETTINGS
  2
AcDbMentalRayRenderSettings
  3
SCENEOE
 90
1024
280
0
281
0
  0
CLASS
  1
ACDBDETAILVIEWSTYLE
  2
AcDbDetailViewStyle
  3
ObjectDBX Classes
 90
1025
280
0
281
0
  0
CLASS
  1
ACDBSECTIONVIEWSTYLE
  2
AcDbSectionViewStyle
  3
ObjectDBX Classes
 90
1025
280
0
281
0
  0
CLASS
  1
RASTERVARIABLES
  2
AcDbRasterVariables
  3
ISM
 90
0
280
0
281
0
  0
CLASS
  1
ACDBPLACEHOLDER
  2
AcDbPlaceHolder
  3
ObjectDBX Classes
 90
0
280
0
281
0
  0
CLASS
  1
LAYOUT
  2
AcDbLayout
  3
ObjectDBX Classes
 90
0
280
0
281
0
  0
ENDSEC
  0
SECTION
  2
TABLES
  0
TABLE
  2
VPORT
  5
8
330
0
100
AcDbSymbolTable
 70
1
  0
VPORT
  5
23
330
8
100
AcDbSymbolTableRecord
100
AcDbViewportTableRecord
  2
*Active
 70
0
 10
0.0
 20
0.0
 11
1.0
 21
1.0
 12
0.0
 22
0.0
 13
0.0
 23
0.0
 14
0.5
 24
0.5
 15
0.5
 25
0.5
 16
0.0
 26
0.0
 36
1.0
 17
0.0
 27
0.0
 37
0.0
 40
1000.0
 41
1.34
 42
50.0
 43
0.0
 44
0.0
 50
0.0
 51
0.0
 71
0
 72
1000
 73
1
 74
3
 75
0
 76
0
 77
0
 78
0
281
0
 65
0
146
0.0
  0
ENDTAB
  0
TABLE
  2
LTYPE
  5
2
330
0
100
AcDbSymbolTable
 70
3
  0
LTYPE
  5
24
330
2
100
AcDbSymbolTableRecord
100
AcDbLinetypeTableRecord
  2
ByBlock
 70
0
  3

 72
65
 73
0
 40
0.0
  0
LTYPE
  5
25
330
2
100
AcDbSymbolTableRecord
100
AcDbLinetypeTableRecord
  2
ByLayer
 70
0
  3

 72
65
 73
0
 40
0.0
  0
LTYPE
  5
26
330
2
100
AcDbSymbolTableRecord
100
AcDbLinetypeTableRecord
  2
Continuous
 70
0
  3

 72
65
 73
0
 40
0.0
  0
ENDTAB
  0
TABLE
  2
LAYER
  5
1
330
0
100
AcDbSymbolTable
 70
2
  0
LAYER
  5
27
330
1
100
AcDbSymbolTableRecord
100
AcDbLayerTableRecord
  2
0
 70
0
 62
7
  6
Continuous
370
-3
390
13
  0
LAYER
  5
28
330
1
100
AcDbSymbolTableRecord
100
AcDbLayerTableRecord
  2
Defpoints
 70
0
 62
7
  6
Continuous
290
0
370
-3
390
13
  0
ENDTAB
  0
TABLE
  2
STYLE
  5
5
330
0
100
AcDbSymbolTable
 70
1
  0
STYLE
  5
29
330
5
100
AcDbSymbolTableRecord
100
AcDbTextStyleTableRecord
  2
Standard
 70
0
 40
0.0
 41
1.0
 50
0.0
 71
0
 42
2.5
  3
txt
  4

  0
ENDTAB
  0
TABLE
  2
VIEW
  5
7
330
0
100
AcDbSymbolTable
 70
0
  0
ENDTAB
  0
TABLE
  2
UCS
  5
6
330
0
100
AcDbSymbolTable
 70
0
  0
ENDTAB
  0
TABLE
  2
APPID
  5
3
330
0
100
AcDbSymbolTable
 70
3
  0
APPID
  5
2A
330
3
100
AcDbSymbolTableRecord
100
AcDbRegAppTableRecord
  2
ACAD
 70
0
  0
APPID
  5
418
330
3
100
AcDbSymbolTableRecord
100
AcDbRegAppTableRecord
  2
HATCHBACKGROUNDCOLOR
 70
0
  0
APPID
  5
419
330
3
100
AcDbSymbolTableRecord
100
AcDbRegAppTableRecord
  2
EZDXF
 70
0
  0
ENDTAB
  0
TABLE
  2
DIMSTYLE
  5
4
330
0
100
AcDbSymbolTable
 70
1
100
AcDbDimStyleTable
  0
DIMSTYLE
105
2B
330
4
100
AcDbSymbolTableRecord
100
AcDbDimStyleTableRecord
  2
Standard
 70
0
  3

  4

 40
1.0
 41
2.5
 42
0.625
 43
3.75
 44
1.25
 45
0.0
 46
0.0
 47
0.0
 48
0.0
140
2.5
141
2.5
142
0.0
143
0.03937007874
144
1.0
145
0.0
146
1.0
147
0.625
148
0.0
 71
0
 72
0
 73
0
 74
0
 75
0
 76
0
 77
1
 78
8
 79
3
170
0
171
3
172
1
173
0
174
0
175
0
176
0
177
0
178
0
179
2
271
2
272
2
273
2
274
3
275
0
276
0
277
2
278
44
279
0
280
0
281
0
282
0
283
0
284
8
285
0
286
0
288
0
289
3
371
-2
372
-2
  0
ENDTAB
  0
TABLE
  2
BLOCK_RECORD
  5
9
330
0
100
AcDbSymbolTable
 70
2
  0
BLOCK_RECORD
  5
17
330
9
100
AcDbSymbolTableRecord
100
AcDbBlockTableRecord
  2
*Model_Space
340
1A
  0
BLOCK_RECORD
  5
1B
330
9
100
AcDbSymbolTableRecord
100
AcDbBlockTableRecord
  2
*Paper_Space
340
1E
  0
ENDTAB
  0
ENDSEC
  0
SECTION
  2
BLOCKS
  0
BLOCK
  5
18
330
17
100
AcDbEntity
  8
0
100
AcDbBlockBegin
  2
*Model_Space
 70
0
 10
0.0
 20
0.0
 30
0.0
  3
*Model_Space
  1

  0
ENDBLK
  5
19
330
17
100
AcDbEntity
  8
0
100
AcDbBlockEnd
  0
BLOCK
  5
1C
330
1B
100
AcDbEntity
  8
0
100
AcDbBlockBegin
  2
*Paper_Space
 70
0
 10
0.0
 20
0.0
 30
0.0
  3
*Paper_Space
  1

  0
ENDBLK
  5
1D
330
1B
100
AcDbEntity
  8
0
100
AcDbBlockEnd
  0
ENDSEC
  0
SECTION
  2
ENTITIES
  0
POINT
  5
2F
330
17
100
AcDbEntity
  8
0
100
AcDbPoint
 10
48.1672
 20
1.51768624654844e-17
 30
0.0
  0
POINT
  5
30
330
17
100
AcDbEntity
  8
0
100
AcDbPoint
 10
48.164957976220734
 20
-0.4202722910117879
 30
0.0
  0
POINT
  5
31
330
17
100
AcDbEntity
  8
0
100
AcDbPoint
 10
48.159445652744125
 20
-0.8405147002843608
 30
0.0
  0
POINT
  5
32
330
17
100
AcDbEntity
  8
0
100
AcDbPoint
 10
48.150410863881255
 20
-1.2606953636515252
 30
0.0
  0
POINT
  5
33
330
17
100
AcDbEntity
  8
0
100
AcDbPoint
 10
48.13761289168523
 20
-1.6807782143287628
 30
0.0
  0
POINT
  5
34
330
17
100
AcDbEntity
  8
0
100
AcDbPoint
 10
48.12092938013199
 20
-2.1007235416500762
 30
0.0
  0
POINT
  5
35
330
17
100
AcDbEntity
  8
0
100
AcDbPoint
 10
48.10086183718282
 20
-2.5205245696537513
 30
0.0
  0
POINT
  5
36
330
17
100
AcDbEntity
  8
0
100
AcDbPoint
 10
48.077316201919075
 20
-2.940141968589294
 30
0.0
  0
POINT
  5
37
330
17
100
AcDbEntity
  8
0
100
AcDbPoint
 10
48.049573265541206
 20
-3.3595031570892835
 30
0.0
  0
POINT
  5
38
330
17
100
AcDbEntity
  8
0
100
AcDbPoint
 10
48.018292106422415
 20
-3.778616724799902
 30
0.0
  0
POINT
  5
39
330
17
100
AcDbEntity
  8
0
100
AcDbPoint
 10
47.98365438569935
 20
-4.197464234123693
 30
0.0
  0
POINT
  5
3A
330
17
100
AcDbEntity
  8
0
100
AcDbPoint
 10
47.94529488192423
 20
-4.615987872393378
 30
0.0
  0
POINT
  5
3B
330
17
100
AcDbEntity
  8
0
100
AcDbPoint
 10
47.90299101432376
 20
-5.034130197656909
 30
0.0
  0
POINT
  5
3C
330
17
100
AcDbEntity
  8
0
100
AcDbPoint
 10
47.857287678658565
 20
-5.451918130791882
 30
0.0
  0
POINT
  5
3D
330
17
100
AcDbEntity
  8
0
100
AcDbPoint
 10
47.80813960208121
 20
-5.869311696524412
 30
0.0
  0
POINT
  5
3E
330
17
100
AcDbEntity
  8
0
100
AcDbPoint
 10
47.754909105472194
 20
-6.286204938393129
 30
0.0
  0
POINT
  5
3F
330
17
100
AcDbEntity
  8
0
100
AcDbPoint
 10
47.69810312698351
 20
-6.7026267199012555
 30
0.0
  0
POINT
  5
40
330
17
100
AcDbEntity
  8
0
100
AcDbPoint
 10
47.637947829335616
 20
-7.118577295256928
 30
0.0
  0
POINT
  5
41
330
17
100
AcDbEntity
  8
0
100
AcDbPoint
 10
47.57417433233266
 20
-7.533988434355884
 30
0.0
  0
POINT
  5
42
330
17
100
AcDbEntity
  8
0
100
AcDbPoint
 10
47.50640623040485
 20
-7.9487657613435
 30
0.0
  0
POINT
  5
43
330
17
100
AcDbEntity
  8
0
100
AcDbPoint
 10
47.43523454991238
 20
-8.362976053869229
 30
0.0
  0
POINT
  5
44
330
17
100
AcDbEntity
  8
0
100
AcDbPoint
 10
47.36067509001133
 20
-8.776586513255381
 30
0.0
  0
POINT
  5
45
330
17
100
AcDbEntity
  8
0
100
AcDbPoint
 10
47.28215659278572
 20
-9.189464593598785
 30
0.0
  0
POINT
  5
46
330
17
100
AcDbEntity
  8
0
100
AcDbPoint
 10
47.20002944584644
 20
-9.601639992252231
 30
0.0
  0
POINT
  5
47
330
17
100
AcDbEntity
  8
0
100
AcDbPoint
 10
47.11458889476366
 20
-10.013142188909962
 30
0.0
  0
POINT
  5
48
330
17
100
AcDbEntity
  8
0
100
AcDbPoint
 10
47.025637067308075
 20
-10.423898871518162
 30
0.0
  0
POINT
  5
49
330
17
100
AcDbEntity
  8
0
100
AcDbPoint
 10
46.93265109559467
 20
-10.83376051390528
 30
0.0
  0
POINT
  5
4A
330
17
100
AcDbEntity
  8
0
100
AcDbPoint
 10
46.83627761980483
 20
-11.242842045789711
 30
0.0
  0
POINT
  5
4B
330
17
100
AcDbEntity
  8
0
100
AcDbPoint
 10
46.73659212493043
 20
-11.65112554539176
 30
0.0
  0
POINT
  5
4C
330
17
100
AcDbEntity
  8
0
100
AcDbPoint
 10
46.63307794384674
 20
-12.058456246460484
 30
0.0
  0
POINT
  5
4D
330
17
100
AcDbEntity
  8
0
100
AcDbPoint
 10
46.525928603271495
 20
-12.464845137259472
 30
0.0
  0
POINT
  5
4E
330
17
100
AcDbEntity
  8
0
100
AcDbPoint
 10
46.4155295702594
 20
-12.870365637982577
 30
0.0
  0
POINT
  5
4F
330
17
100
AcDbEntity
  8
0
100
AcDbPoint
 10
46.30172760368824
 20
-13.27494272821283
 30
0.0
  0
POINT
  5
50
330
17
100
AcDbEntity
  8
0
100
AcDbPoint
 10
46.1838649126682
 20
-13.678355204857123
 30
0.0
  0
POINT
  5
51
330
17
100
AcDbEntity
  8
0
100
AcDbPoint
 10
46.06265119609349
 20
-14.0807762732297
 30
0.0
  0
POINT
  5
52
330
17
100
AcDbEntity
  8
0
100
AcDbPoint
 10
45.93821841114268
 20
-14.482210029599383
 30
0.0
  0
POINT
  5
53
330
17
100
AcDbEntity
  8
0
100
AcDbPoint
 10
45.81009220177629
 20
-14.882481419137902
 30
0.0
  0
POINT
  5
54
330
17
100
AcDbEntity
  8
0
100
AcDbPoint
 10
45.678318373675815
 20
-15.281565643568234
 30
0.0
  0
POINT
  5
55
330
17
100
AcDbEntity
  8
0
100
AcDbPoint
 10
45.5433680759232
 20
-15.67959056789946
 30
0.0
  0
POINT
  5
56
330
17
100
AcDbEntity
  8
0
100
AcDbPoint
 10
45.405116171697664
 20
-16.076478314716407
 30
0.0
  0
POINT
  5
57
330
17
100
AcDbEntity
  8
0
100
AcDbPoint
 10
45.262830986098564
 20
-16.471938068052346
 30
0.0
  0
POINT
  5
58
330
17
100
AcDbEntity
  8
0
100
AcDbPoint
 10
45.11724517705533
 20
-16.866196918915385
 30
0.0
  0
POINT
  5
59
330
17
100
AcDbEntity
  8
0
100
AcDbPoint
 10
44.96853002109171
 20
-17.25928272981787
 30
0.0
  0
POINT
  5
5A
330
17
100
AcDbEntity
  8
0
100
AcDbPoint
 10
44.81626599705029
 20
-17.651008626317957
 30
0.0
  0
POINT
  5
5B
330
17
100
AcDbEntity
  8
0
100
AcDbPoint
 10
44.66036991003102
 20
-18.041302093595704
 30
0.0
  0
POINT
  5
5C
330
17
100
AcDbEntity
  8
0
100
AcDbPoint
 10
44.50132905130752
 20
-18.43032843809778
 30
0.0
  0
POINT
  5
5D
330
17
100
AcDbEntity
  8
0
100
AcDbPoint
 10
44.33907429298588
 20
-18.818022318958175
 30
0.0
  0
POINT
  5
5E
330
17
100
AcDbEntity
  8
0
100
AcDbPoint
 10
44.1729674814283
 20
-19.204081877562984
 30
0.0
  0
POINT
  5
5F
330
17
100
AcDbEntity
  8
0
100
AcDbPoint
 10
44.00359401385925
 20
-19.588720896330877
 30
0.0
  0
POINT
  5
60
330
17
100
AcDbEntity
  8
0
100
AcDbPoint
 10
43.83114189170989
 20
-19.97198761865744
 30
0.0
  0
POINT
  5
61
330
17
100
AcDbEntity
  8
0
100
AcDbPoint
 10
43.655307158046654
 20
-20.353714794679924
 30
0.0
  0
POINT
  5
62
330
17
100
AcDbEntity
  8
0
100
AcDbPoint
 10
43.4758656891956
 20
-20.733758725675326
 30
0.0
  0
POINT
  5
63
330
17
100
AcDbEntity
  8
0
100
AcDbPoint
 10
43.29332809254973
 20
-21.11232917293182
 30
0.0
  0
POINT
  5
64
330
17
100
AcDbEntity
  8
0
100
AcDbPoint
 10
43.107683116491174
 20
-21.489381997024765
 30
0.0
  0
POINT
  5
65
330
17
100
AcDbEntity
  8
0
100
AcDbPoint
 10
42.918373940238276
 20
-21.864609235615394
 30
0.0
  0
POINT
  5
66
330
17
100
AcDbEntity
  8
0
100
AcDbPoint
 10
42.72583652058725
 20
-22.238190869495167
 30
0.0
  0
POINT
  5
67
330
17
100
AcDbEntity
  8
0
100
AcDbPoint
 10
42.53029817187731
 20
-22.610210238178833
 30
0.0
  0
POINT
  5
68
330
17
100
AcDbEntity
  8
0
100
AcDbPoint
 10
42.33154516189143
 20
-22.980521900325773
 30
0.0
  0
POINT
  5
69
330
17
100
AcDbEntity
  8
0
100
AcDbPoint
 10
42.12922188097441
 20
-23.348894076631375
 30
0.0
  0
POINT
  5
6A
330
17
100
AcDbEntity
  8
0
100
AcDbPoint
 10
41.923870849018336
 20
-23.715590855745052
 30
0.0
  0
POINT
  5
6B
330
17
100
AcDbEntity
  8
0
100
AcDbPoint
 10
41.715535382396
 20
-24.080596388992593
 30
0.0
  0
POINT
  5
6C
330
17
100
AcDbEntity
  8
0
100
AcDbPoint
 10
41.50372811618279
 20
-24.443599334919437
 30
0.0
  0
POINT
  5
6D
330
17
100
AcDbEntity
  8
0
100
AcDbPoint
 10
41.28873786959029
 20
-24.80472605786406
 30
0.0
  0
POINT
  5
6E
330
17
100
AcDbEntity
  8
0
100
AcDbPoint
 10
41.07085004116634
 20
-25.164113270007267
 30
0.0
  0
POINT
  5
6F
330
17
100
AcDbEntity
  8
0
100
AcDbPoint
 10
40.849915412111926
 20
-25.521634446423583
 30
0.0
  0
POINT
  5
70
330
17
100
AcDbEntity
  8
0
100
AcDbPoint
 10
40.62546023752939
 20
-25.876955242727
 30
0.0
  0
POINT
  5
71
330
17
100
AcDbEntity
  8
0
100
AcDbPoint
 10
40.398064825130746
 20
-26.230405192220836
 30
0.0
  0
POINT
  5
72
330
17
100
AcDbEntity
  8
0
100
AcDbPoint
 10
40.1678231165908
 20
-26.582003492896977
 30
0.0
  0
POINT
  5
73
330
17
100
AcDbEntity
  8
0
100
AcDbPoint
 10
39.93430455707902
 20
-26.93143527453678
 30
0.0
  0
POINT
  5
74
330
17
100
AcDbEntity
  8
0
100
AcDbPoint
 10
39.69765748300532
 20
-27.27875497653544
 30
0.0
  0
POINT
  5
75
330
17
100
AcDbEntity
  8
0
100
AcDbPoint
 10
39.458239956689674
 20
-27.62417387176518
 30
0.0
  0
POINT
  5
76
330
17
100
AcDbEntity
  8
0
100
AcDbPoint
 10
39.21594197304263
 20
-27.967576300122985
 30
0.0
  0
POINT
  5
77
330
17
100
AcDbEntity
  8
0
100
AcDbPoint
 10
38.97018837672575
 20
-28.308513912240734
 30
0.0
  0
POINT
  5
78
330
17
100
AcDbEntity
  8
0
100
AcDbPoint
 10
38.72160095899584
 20
-28.647394094232716
 30
0.0
  0
POINT
  5
79
330
17
100
AcDbEntity
  8
0
100
AcDbPoint
 10
38.47031784351227
 20
-28.9842759264581
 30
0.0
  0
POINT
  5
7A
330
17
100
AcDbEntity
  8
0
100
AcDbPoint
 10
38.21595377993919
 20
-29.318838973682627
 30
0.0
  0
POINT
  5
7B
330
17
100
AcDbEntity
  8
0
100
AcDbPoint
 10
37.95853533829106
 20
-29.651056229496348
 30
0.0
  0
POINT
  5
7C
330
17
100
AcDbEntity
  8
0
100
AcDbPoint
 10
37.698466659718896
 20
-29.98120726921906
 30
0.0
  0
POINT
  5
7D
330
17
100
AcDbEntity
  8
0
100
AcDbPoint
 10
37.43567053360003
 20
-30.309188393193654
 30
0.0
  0
POINT
  5
7E
330
17
100
AcDbEntity
  8
0
100
AcDbPoint
 10
37.16956492048947
 20
-30.634490193567547
 30
0.0
  0
POINT
  5
7F
330
17
100
AcDbEntity
  8
0
100
AcDbPoint
 10
36.9007379987391
 20
-30.957549332528444
 30
0.0
  0
POINT
  5
80
330
17
100
AcDbEntity
  8
0
100
AcDbPoint
 10
36.629348360525675
 20
-31.278454938604657
 30
0.0
  0
POINT
  5
81
330
17
100
AcDbEntity
  8
0
100
AcDbPoint
 10
36.355082646804576
 20
-31.596907176131428
 30
0.0
  0
POINT
  5
82
330
17
100
AcDbEntity
  8
0
100
AcDbPoint
 10
36.07785885228182
 20
-31.91278617948539
 30
0.0
  0
POINT
  5
83
330
17
100
AcDbEntity
  8
0
100
AcDbPoint
 10
35.79808464474192
 20
-32.22641317916416
 30
0.0
  0
POINT
  5
84
330
17
100
AcDbEntity
  8
0
100
AcDbPoint
 10
35.51573168345996
 20
-32.53771675117055
 30
0.0
  0
POINT
  5
85
330
17
100
AcDbEntity
  8
0
100
AcDbPoint
 10
35.230307625698735
 20
-32.84620749685528
 30
0.0
  0
POINT
  5
86
330
17
100
AcDbEntity
  8
0
100
AcDbPoint
 10
34.942266924099584
 20
-33.152258090440256
 30
0.0
  0
POINT
  5
87
330
17
100
AcDbEntity
  8
0
100
AcDbPoint
 10
34.65177974044755
 20
-33.45598562535065
 30
0.0
  0
POINT
  5
88
330
17
100
AcDbEntity
  8
0
100
AcDbPoint
 10
34.358631597565925
 20
-33.757146153164
 30
0.0
  0
POINT
  5
89
330
17
100
AcDbEntity
  8
0
100
AcDbPoint
 10
34.06263278169246
 20
-34.05550389637725
 30
0.0
  0
POINT
  5
8A
330
17
100
AcDbEntity
  8
0
100
AcDbPoint
 10
33.76419956206913
 20
-34.35143154990218
 30
0.0
  0
POINT
  5
8B
330
17
100
AcDbEntity
  8
0
100
AcDbPoint
 10
33.463350203865666
 20
-34.64489794032439
 30
0.0
  0
POINT
  5
8C
330
17
100
AcDbEntity
  8
0
100
AcDbPoint
 10
33.15966927949433
 20
-34.935434216594885
 30
0.0
  0
POINT
  5
8D
330
17
100
AcDbEntity
  8
0
100
AcDbPoint
 10
32.8534826938496
 20
-35.22332924574653
 30
0.0
  0
POINT
  5
8E
330
17
100
AcDbEntity
  8
0
100
AcDbPoint
 10
32.54498805402565
 20
-35.5087496923066
 30
0.0
  0
POINT
  5
8F
330
17
100
AcDbEntity
  8
0
100
AcDbPoint
 10
32.2340452497578
 20
-35.79150059714318
 30
0.0
  0
POINT
  5
90
330
17
100
AcDbEntity
  8
0
100
AcDbPoint
 10
31.920371744587282
 20
-36.07121782626953
 30
0.0
  0
POINT
  5
91
330
17
100
AcDbEntity
  8
0
100
AcDbPoint
 10
31.604396906662018
 20
-36.348337791512726
 30
0.0
  0
POINT
  5
92
330
17
100
AcDbEntity
  8
0
100
AcDbPoint
 10
31.286180055554688
 20
-36.62287508343162
 30
0.0
  0
POINT
  5
93
330
17
100
AcDbEntity
  8
0
100
AcDbPoint
 10
30.965370605915908
 20
-36.894379687150156
 30
0.0
  0
POINT
  5
94
330
17
100
AcDbEntity
  8
0
100
AcDbPoint
 10
30.642175075542468
 20
-37.16303905513748
 30
0.0
  0
POINT
  5
95
330
17
100
AcDbEntity
  8
0
100
AcDbPoint
 10
30.316829617570495
 20
-37.42909306756475
 30
0.0
  0
POINT
  5
96
330
17
100
AcDbEntity
  8
0
100
AcDbPoint
 10
29.98924537382257
 20
-37.69238395249655
 30
0.0
  0
POINT
  5
97
330
17
100
AcDbEntity
  8
0
100
AcDbPoint
 10
29.659064700362382
 20
-37.95241040388244
 30
0.0
  0
POINT
  5
98
330
17
100
AcDbEntity
  8
0
100
AcDbPoint
 10
29.32673157525397
 20
-38.20968501933236
 30
0.0
  0
POINT
  5
99
330
17
100
AcDbEntity
  8
0
100
AcDbPoint
 10
28.99234033971703
 20
-38.46427313542079
 30
0.0
  0
POINT
  5
9A
330
17
100
AcDbEntity
  8
0
100
AcDbPoint
 10
28.655593461617688
 20
-38.7157389035306
 30
0.0
  0
POINT
  5
9B
330
17
100
AcDbEntity
  8
0
100
AcDbPoint
 10
28.31659077940128
 20
-38.9641536733958
 30
0.0
  0
POINT
  5
9C
330
17
100
AcDbEntity
  8
0
100
AcDbPoint
 10
27.975613164536334
 20
-39.20985547541386
 30
0.0
  0
POINT
  5
9D
330
17
100
AcDbEntity
  8
0
100
AcDbPoint
 10
27.63260205682264
 20
-39.45270718889704
 30
0.0
  0
POINT
  5
9E
330
17
100
AcDbEntity
  8
0
100
AcDbPoint
 10
27.287144502291312
 20
-39.69206551978509
 30
0.0
  0
POINT
  5
9F
330
17
100
AcDbEntity
  8
0
100
AcDbPoint
 10
26.939698357597933
 20
-39.92853255530318
 30
0.0
  0
POINT
  5
A0
330
17
100
AcDbEntity
  8
0
100
AcDbPoint
 10
26.59038459455958
 20
-40.16222565410285
 30
0.0
  0
POINT
  5
A1
330
17
100
AcDbEntity
  8
0
100
AcDbPoint
 10
26.23894918841446
 20
-40.3927178808596
 30
0.0
  0
POINT
  5
A2
330
17
100
AcDbEntity
  8
0
100
AcDbPoint
 10
25.885409053886168
 20
-40.61996649775441
 30
0.0
  0
POINT
  5
A3
330
17
100
AcDbEntity
  8
0
100
AcDbPoint
 10
25.530053908600415
 20
-40.84437271512057
 30
0.0
  0
POINT
  5
A4
330
17
100
AcDbEntity
  8
0
100
AcDbPoint
 10
25.172855664120966
 20
-41.0658287751212
 30
0.0
  0
POINT
  5
A5
330
17
100
AcDbEntity
  8
0
100
AcDbPoint
 10
24.81344260185398
 20
-41.28367202236251
 30
0.0
  0
POINT
  5
A6
330
17
100
AcDbEntity
  8
0
100
AcDbPoint
 10
24.45220554895966
 20
-41.498480697144366
 30
0.0
  0
POINT
  5
A7
330
17
100
AcDbEntity
  8
0
100
AcDbPoint
 10
24.08926865578793
 20
-41.710399664647504
 30
0.0
  0
POINT
  5
A8
330
17
100
AcDbEntity
  8
0
100
AcDbPoint
 10
23.724449563090623
 20
-41.91906336541937
 30
0.0
  0
POINT
  5
A9
330
17
100
AcDbEntity
  8
0
100
AcDbPoint
 10
23.357692690589566
 20
-42.12429974725972
 30
0.0
  0
POINT
  5
AA
330
17
100
AcDbEntity
  8
0
100
AcDbPoint
 10
22.989277619198862
 20
-42.326551688164265
 30
0.0
  0
POINT
  5
AB
330
17
100
AcDbEntity
  8
0
100
AcDbPoint
 10
22.619211199726383
 20
-42.5257599024355
 30
0.0
  0
POINT
  5
AC
330
17
100
AcDbEntity
  8
0
100
AcDbPoint
 10
22.2471978307428
 20
-42.72130904324359
 30
0.0
  0
POINT
  5
AD
330
17
100
AcDbEntity
  8
0
100
AcDbPoint
 10
21.87352503985933
 20
-42.91367048542108
 30
0.0
  0
POINT
  5
AE
330
17
100
AcDbEntity
  8
0
100
AcDbPoint
 10
21.49831991693421
 20
-43.1030231763523
 30
0.0
  0
POINT
  5
AF
330
17
100
AcDbEntity
  8
0
100
AcDbPoint
 10
21.121471760985727
 20
-43.2890849245079
 30
0.0
  0
POINT
  5
B0
330
17
100
AcDbEntity
  8
0
100
AcDbPoint
 10
20.74286405945456
 20
-43.47153728677728
 30
0.0
  0
POINT
  5
B1
330
17
100
AcDbEntity
  8
0
100
AcDbPoint
 10
20.36276808230438
 20
-43.65087667137454
 30
0.0
  0
POINT
  5
B2
330
17
100
AcDbEntity
  8
0
100
AcDbPoint
 10
19.98122004520883
 20
-43.827097913116624
 30
0.0
  0
POINT
  5
B3
330
17
100
AcDbEntity
  8
0
100
AcDbPoint
 10
19.59798859097798
 20
-43.99962928791029
 30
0.0
  0
POINT
  5
B4
330
17
100
AcDbEntity
  8
0
100
AcDbPoint
 10
19.21326967929191
 20
-44.16881854666013
 30
0.0
  0
POINT
  5
B5
330
17
100
AcDbEntity
  8
0
100
AcDbPoint
 10
18.827200733689253
 20
-44.33490489705701
 30
0.0
  0
POINT
  5
B6
330
17
100
AcDbEntity
  8
0
100
AcDbPoint
 10
18.4397219402253
 20
-44.49767376394617
 30
0.0
  0
POINT
  5
B7
330
17
100
AcDbEntity
  8
0
100
AcDbPoint
 10
18.050673799001842
 20
-44.656652738154094
 30
0.0
  0
POINT
  5
B8
330
17
100
AcDbEntity
  8
0
100
AcDbPoint
 10
17.660322098280975
 20
-44.812413025445494
 30
0.0
  0
POINT
  5
B9
330
17
100
AcDbEntity
  8
0
100
AcDbPoint
 10
17.268718537840016
 20
-44.96498821025488
 30
0.0
  0
POINT
  5
BA
330
17
100
AcDbEntity
  8
0
100
AcDbPoint
 10
16.875700740997384
 20
-45.11388605893957
 30
0.0
  0
POINT
  5
BB
330
17
100
AcDbEntity
  8
0
100
AcDbPoint
 10
16.481490953162318
 20
-45.25960068753156
 30
0.0
  0
POINT
  5
BC
330
17
100
AcDbEntity
  8
0
100
AcDbPoint
 10
16.08630889889572
 20
-45.40266136744318
 30
0.0
  0
POINT
  5
BD
330
17
100
AcDbEntity
  8
0
100
AcDbPoint
 10
15.690170560404274
 20
-45.54305079629761
 30
0.0
  0
POINT
  5
BE
330
17
100
AcDbEntity
  8
0
100
AcDbPoint
 10
15.292918929491329
 20
-45.680258673936095
 30
0.0
  0
POINT
  5
BF
330
17
100
AcDbEntity
  8
0
100
AcDbPoint
 10
14.89476086577693
 20
-45.81482186002217
 30
0.0
  0
POINT
  5
C0
330
17
100
AcDbEntity
  8
0
100
AcDbPoint
 10
14.495759335059626
 20
-45.94685889869548
 30
0.0
  0
POINT
  5
C1
330
17
100
AcDbEntity
  8
0
100
AcDbPoint
 10
14.095805321269468
 20
-46.07598772185227
 30
0.0
  0
POINT
  5
C2
330
17
100
AcDbEntity
  8
0
100
AcDbPoint
 10
13.694946565694101
 20
-46.20228204712727
 30
0.0
  0
POINT
  5
C3
330
17
100
AcDbEntity
  8
0
100
AcDbPoint
 10
13.293313359285698
 20
-46.326103448624224
 30
0.0
  0
POINT
  5
C4
330
17
100
AcDbEntity
  8
0
100
AcDbPoint
 10
12.89090002517883
 20
-46.447367989205546
 30
0.0
  0
POINT
  5
C5
330
17
100
AcDbEntity
  8
0
100
AcDbPoint
 10
12.487552770747902
 20
-46.565494317753235
 30
0.0
  0
POINT
  5
C6
330
17
100
AcDbEntity
  8
0
100
AcDbPoint
 10
12.083460986701706
 20
-46.68106164295213
 30
0.0
  0
POINT
  5
C7
330
17
100
AcDbEntity
  8
0
100
AcDbPoint
 10
11.678690308394126
 20
-46.79423088601763
 30
0.0
  0
POINT
  5
C8
330
17
100
AcDbEntity
  8
0
100
AcDbPoint
 10
11.273160662559418
 20
-46.904662231436745
 30
0.0
  0
POINT
  5
C9
330
17
100
AcDbEntity
  8
0
100
AcDbPoint
 10
10.866880911076953
 20
-47.01230994773402
 30
0.0
  0
POINT
  5
CA
330
17
100
AcDbEntity
  8
0
100
AcDbPoint
 10
10.459962810078101
 20
-47.117539944924324
 30
0.0
  0
POINT
  5
CB
330
17
100
AcDbEntity
  8
0
100
AcDbPoint
 10
10.052418297288703
 20
-47.22032729446227
 30
0.0
  0
POINT
  5
CC
330
17
100
AcDbEntity
  8
0
100
AcDbPoint
 10
9.64414060779991
 20
-47.320177084946636
 30
0.0
  0
POINT
  5
CD
330
17
100
AcDbEntity
  8
0
100
AcDbPoint
 10
9.2352512379091
 20
-47.41751297277795
 30
0.0
  0
POINT
  5
CE
330
17
100
AcDbEntity
  8
0
100
AcDbPoint
 10
8.825810113385058
 20
-47.51251870321805
 30
0.0
  0
POINT
  5
CF
330
17
100
AcDbEntity
  8
0
100
AcDbPoint
 10
8.415781889130201
 20
-47.604980753367606
 30
0.0
  0
POINT
  5
D0
330
17
100
AcDbEntity
  8
0
100
AcDbPoint
 10
8.005136126635584
 20
-47.69467969527477
 30
0.0
  0
POINT
  5
D1
330
17
100
AcDbEntity
  8
0
100
AcDbPoint
 10
7.593968438784941
 20
-47.781989611415
 30
0.0
  0
POINT
  5
D2
330
17
100
AcDbEntity
  8
0
100
AcDbPoint
 10
7.182310336393195
 20
-47.86698045426497
 30
0.0
  0
POINT
  5
D3
330
17
100
AcDbEntity
  8
0
100
AcDbPoint
 10
6.770094663241236
 20
-47.94925432132474
 30
0.0
  0
POINT
  5
D4
330
17
100
AcDbEntity
  8
0
100
AcDbPoint
 10
6.357378204707604
 20
-48.02901088796178
 30
0.0
  0
POINT
  5
D5
330
17
100
AcDbEntity
  8
0
100
AcDbPoint
 10
5.944224314310794
 20
-48.106511560793436
 30
0.0
  0
POINT
  5
D6
330
17
100
AcDbEntity
  8
0
100
AcDbPoint
 10
5.530632629895709
 20
-48.18168128674607
 30
0.0
  0
POINT
  5
D7
330
17
100
AcDbEntity
  8
0
100
AcDbPoint
 10
5.116537939488087
 20
-48.25406386959317
 30
0.0
  0
POINT
  5
D8
330
17
100
AcDbEntity
  8
0
100
AcDbPoint
 10
4.7020251544231595
 20
-48.32406766479172
 30
0.0
  0
POINT
  5
D9
330
17
100
AcDbEntity
  8
0
100
AcDbPoint
 10
4.287144195611821
 20
-48.39190109115347
 30
0.0
  0
POINT
  5
DA
330
17
100
AcDbEntity
  8
0
100
AcDbPoint
 10
3.8718580067330675
 20
-48.45726417929257
 30
0.0
  0
POINT
  5
DB
330
17
100
AcDbEntity
  8
0
100
AcDbPoint
 10
3.4561720405320693
 20
-48.52008842570875
 30
0.0
  0
POINT
  5
DC
330
17
100
AcDbEntity
  8
0
100
AcDbPoint
 10
3.0401399341654267
 20
-48.580652157380335
 30
0.0
  0
POINT
  5
DD
330
17
100
AcDbEntity
  8
0
100
AcDbPoint
 10
2.623787877360893
 20
-48.63904525062111
 30
0.0
  0
POINT
  5
DE
330
17
100
AcDbEntity
  8
0
100
AcDbPoint
 10
2.20707190812987
 20
-48.69485027411033
 30
0.0
  0
POINT
  5
DF
330
17
100
AcDbEntity
  8
0
100
AcDbPoint
 10
1.7900314682374483
 20
-48.74825867253496
 30
0.0
  0
POINT
  5
E0
330
17
100
AcDbEntity
  8
0
100
AcDbPoint
 10
1.3727135524534788
 20
-48.7995479293117
 30
0.0
  0
POINT
  5
E1
330
17
100
AcDbEntity
  8
0
100
AcDbPoint
 10
0.9551246282423029
 20
-48.848686258186824
 30
0.0
  0
POINT
  5
E2
330
17
100
AcDbEntity
  8
0
100
AcDbPoint
 10
0.5372285763435933
 20
-48.89522798002636
 30
0.0
  0
POINT
  5
E3
330
17
100
AcDbEntity
  8
0
100
AcDbPoint
 10
0.11906541821304908
 20
-48.939428238093825
 30
0.0
  0
POINT
  5
E4
330
17
100
AcDbEntity
  8
0
100
AcDbPoint
 10
-0.29931787032905743
 20
-48.98161672260982
 30
0.0
  0
POINT
  5
E5
330
17
100
AcDbEntity
  8
0
100
AcDbPoint
 10
-0.7179328730110613
 20
-49.021580863018244
 30
0.0
  0
POINT
  5
E6
330
17
100
AcDbEntity
  8
0
100
AcDbPoint
 10
-1.1367838904151035
 20
-49.05912636921185
 30
0.0
  0
POINT
  5
E7
330
17
100
AcDbEntity
  8
0
100
AcDbPoint
 10
-1.555844968534618
 20
-49.094419994397654
 30
0.0
  0
POINT
  5
E8
330
17
100
AcDbEntity
  8
0
100
AcDbPoint
 10
-1.9750840924141597
 20
-49.12771655816361
 30
0.0
  0
POINT
  5
E9
330
17
100
AcDbEntity
  8
0
100
AcDbPoint
 10
-2.3945099752336922
 20
-49.15876298376227
 30
0.0
  0
POINT
  5
EA
330
17
100
AcDbEntity
  8
0
100
AcDbPoint
 10
-2.814115298465576
 20
-49.18749212598784
 30
0.0
  0
POINT
  5
EB
330
17
100
AcDbEntity
  8
0
100
AcDbPoint
 10
-3.233877801979857
 20
-49.21407344271726
 30
0.0
  0
POINT
  5
EC
330
17
100
AcDbEntity
  8
0
100
AcDbPoint
 10
-3.653776328785492
 20
-49.2387035596486
 30
0.0
  0
POINT
  5
ED
330
17
100
AcDbEntity
  8
0
100
AcDbPoint
 10
-4.0738147992674305
 20
-49.26110660951919
 30
0.0
  0
POINT
  5
EE
330
17
100
AcDbEntity
  8
0
100
AcDbPoint
 10
-4.49398496305023
 20
-49.28122691844039
 30
0.0
  0
POINT
  5
EF
330
17
100
AcDbEntity
  8
0
100
AcDbPoint
 10
-4.914265812238721
 20
-49.29928593452067
 30
0.0
  0
POINT
  5
F0
330
17
100
AcDbEntity
  8
0
100
AcDbPoint
 10
-5.334643274912436
 20
-49.3154400992161
 30
0.0
  0
POINT
  5
F1
330
17
100
AcDbEntity
  8
0
100
AcDbPoint
 10
-5.755114980276541
 20
-49.32943747279431
 30
0.0
  0
POINT
  5
F2
330
17
100
AcDbEntity
  8
0
100
AcDbPoint
 10
-6.175673816377723
 20
-49.341160911215354
 30
0.0
  0
POINT
  5
F3
330
17
100
AcDbEntity
  8
0
100
AcDbPoint
 10
-6.596302519263895
 20
-49.35087110906326
 30
0.0
  0
POINT
  5
F4
330
17
100
AcDbEntity
  8
0
100
AcDbPoint
 10
-7.0169908795226235
 20
-49.3587149510371
 30
0.0
  0
POINT
  5
F5
330
17
100
AcDbEntity
  8
0
100
AcDbPoint
 10
-7.437731551017823
 20
-49.36450675638937
 30
0.0
  0
POINT
  5
F6
330
17
100
AcDbEntity
  8
0
100
AcDbPoint
 10
-7.8585159871868004
 20
-49.3680532234813
 30
0.0
  0
POINT
  5
F7
330
17
100
AcDbEntity
  8
0
100
AcDbPoint
 10
-8.279332636050688
 20
-49.36958144213353
 30
0.0
  0
POINT
  5
F8
330
17
100
AcDbEntity
  8
0
100
AcDbPoint
 10
-8.70017382550035
 20
-49.36925176046515
 30
0.0
  0
POINT
  5
F9
330
17
100
AcDbEntity
  8
0
100
AcDbPoint
 10
-9.121030358227921
 20
-49.366980268367044
 30
0.0
  0
POINT
  5
FA
330
17
100
AcDbEntity
  8
0
100
AcDbPoint
 10
-9.54189011434274
 20
-49.36255017748632
 30
0.0
  0
POINT
  5
FB
330
17
100
AcDbEntity
  8
0
100
AcDbPoint
 10
-9.962744468467696
 20
-49.356063656875335
 30
0.0
  0
POINT
  5
FC
330
17
100
AcDbEntity
  8
0
100
AcDbPoint
 10
-10.383588044236792
 20
-49.34767997446465
 30
0.0
  0
POINT
  5
FD
330
17
100
AcDbEntity
  8
0
100
AcDbPoint
 10
-10.804413892918397
 20
-49.33744201477175
 30
0.0
  0
POINT
  5
FE
330
17
100
AcDbEntity
  8
0
100
AcDbPoint
 10
-11.225209090853086
 20
-49.32520501228993
 30
0.0
  0
POINT
  5
FF
330
17
100
AcDbEntity
  8
0
100
AcDbPoint
 10
-11.645960800818598
 20
-49.31088451985464
 30
0.0
  0
POINT
  5
100
330
17
100
AcDbEntity
  8
0
100
AcDbPoint
 10
-12.066662881491448
 20
-49.29456318731894
 30
0.0
  0
POINT
  5
101
330
17
100
AcDbEntity
  8
0
100
AcDbPoint
 10
-12.487315204781483
 20
-49.27642825351567
 30
0.0
  0
POINT
  5
102
330
17
100
AcDbEntity
  8
0
100
AcDbPoint
 10
-12.907913254746314
 20
-49.256515782718346
 30
0.0
  0
POINT
  5
103
330
17
100
AcDbEntity
  8
0
100
AcDbPoint
 10
-13.328432292111208
 20
-49.23455163105848
 30
0.0
  0
POINT
  5
104
330
17
100
AcDbEntity
  8
0
100
AcDbPoint
 10
-13.748855724976636
 20
-49.21041711204033
 30
0.0
  0
POINT
  5
105
330
17
100
AcDbEntity
  8
0
100
AcDbPoint
 10
-14.169197162500307
 20
-49.184476819470945
 30
0.0
  0
POINT
  5
106
330
17
100
AcDbEntity
  8
0
100
AcDbPoint
 10
-14.589452584291301
 20
-49.156773516265446
 30
0.0
  0
POINT
  5
107
330
17
100
AcDbEntity
  8
0
100
AcDbPoint
 10
-15.009605662929284
 20
-49.12718521087197
 30
0.0
  0
POINT
  5
108
330
17
100
AcDbEntity
  8
0
100
AcDbPoint
 10
-15.429637897839688
 20
-49.095591550194406
 30
0.0
  0
POINT
  5
109
330
17
100
AcDbEntity
  8
0
100
AcDbPoint
 10
-15.849540176637952
 20
-49.06199706376035
 30
0.0
  0
POINT
  5
10A
330
17
100
AcDbEntity
  8
0
100
AcDbPoint
 10
-16.269313453085434
 20
-49.026513500237925
 30
0.0
  0
POINT
  5
10B
330
17
100
AcDbEntity
  8
0
100
AcDbPoint
 10
-16.688960651973918
 20
-48.9892561520773
 30
0.0
  0
POINT
  5
10C
330
17
100
AcDbEntity
  8
0
100
AcDbPoint
 10
-17.108474711169627
 20
-48.95022153013061
 30
0.0
  0
POINT
  5
10D
330
17
100
AcDbEntity
  8
0
100
AcDbPoint
 10
-17.527822297237293
 20
-48.90917331353535
 30
0.0
  0
POINT
  5
10E
330
17
100
AcDbEntity
  8
0
100
AcDbPoint
 10
-17.946992844904358
 20
-48.8660966742359
 30
0.0
  0
POINT
  5
10F
330
17
100
AcDbEntity
  8
0
100
AcDbPoint
 10
-18.36599670464158
 20
-48.8211706017697
 30
0.0
  0
POINT
  5
110
330
17
100
AcDbEntity
  8
0
100
AcDbPoint
 10
-18.784830194308203
 20
-48.77443051982273
 30
0.0
  0
POINT
  5
111
330
17
100
AcDbEntity
  8
0
100
AcDbPoint
 10
-19.20349229264423
 20
-48.72592420281124
 30
0.0
  0
POINT
  5
112
330
17
100
AcDbEntity
  8
0
100
AcDbPoint
 10
-19.621965664046837
 20
-48.67557817664357
 30
0.0
  0
POINT
  5
113
330
17
100
AcDbEntity
  8
0
100
AcDbPoint
 10
-20.040215996471197
 20
-48.623196838067386
 30
0.0
  0
POINT
  5
114
330
17
100
AcDbEntity
  8
0
100
AcDbPoint
 10
-20.4582471488019
 20
-48.56887901063462
 30
0.0
  0
POINT
  5
115
330
17
100
AcDbEntity
  8
0
100
AcDbPoint
 10
-20.876065789418025
 20
-48.51273577930699
 30
0.0
  0
POINT
  5
116
330
17
100
AcDbEntity
  8
0
100
AcDbPoint
 10
-21.293669874068172
 20
-48.45480544489577
 30
0.0
  0
POINT
  5
117
330
17
100
AcDbEntity
  8
0
100
AcDbPoint
 10
-21.711051587822777
 20
-48.39508570041728
 30
0.0
  0
POINT
  5
118
330
17
100
AcDbEntity
  8
0
100
AcDbPoint
 10
-22.128200242097073
 20
-48.33355532937907
 30
0.0
  0
POINT
  5
119
330
17
100
AcDbEntity
  8
0
100
AcDbPoint
 10
-22.545091110903968
 20
-48.27011322372607
 30
0.0
  0
POINT
  5
11A
330
17
100
AcDbEntity
  8
0
100
AcDbPoint
 10
-22.961697018071902
 20
-48.204649860210885
 30
0.0
  0
POINT
  5
11B
330
17
100
AcDbEntity
  8
0
100
AcDbPoint
 10
-23.378041958997063
 20
-48.13736255540453
 30
0.0
  0
POINT
  5
11C
330
17
100
AcDbEntity
  8
0
100
AcDbPoint
 10
-23.79412992844864
 20
-48.068322798742656
 30
0.0
  0
POINT
  5
11D
330
17
100
AcDbEntity
  8
0
100
AcDbPoint
 10
-24.209946593016348
 20
-47.99748866337954
 30
0.0
  0
POINT
  5
11E
330
17
100
AcDbEntity
  8
0
100
AcDbPoint
 10
-24.6254871422333
 20
-47.924876598471506
 30
0.0
  0
POINT
  5
11F
330
17
100
AcDbEntity
  8
0
100
AcDbPoint
 10
-25.040738684935988
 20
-47.85045857977517
 30
0.0
  0
POINT
  5
120
330
17
100
AcDbEntity
  8
0
100
AcDbPoint
 10
-25.45567408594526
 20
-47.77413797120646
 30
0.0
  0
POINT
  5
121
330
17
100
AcDbEntity
  8
0
100
AcDbPoint
 10
-25.870269484297317
 20
-47.69584039406592
 30
0.0
  0
POINT
  5
122
330
17
100
AcDbEntity
  8
0
100
AcDbPoint
 10
-26.284550371605093
 20
-47.61573849909523
 30
0.0
  0
POINT
  5
123
330
17
100
AcDbEntity
  8
0
100
AcDbPoint
 10
-26.69851954438937
 20
-47.533886110911396
 30
0.0
  0
POINT
  5
124
330
17
100
AcDbEntity
  8
0
100
AcDbPoint
 10
-27.11216180980679
 20
-47.45024515506335
 30
0.0
  0
POINT
  5
125
330
17
100
AcDbEntity
  8
0
100
AcDbPoint
 10
-27.52547027311003
 20
-47.36482088910567
 30
0.0
  0
POINT
  5
126
330
17
100
AcDbEntity
  8
0
100
AcDbPoint
 10
-27.938441724505584
 20
-47.27763331910081
 30
0.0
  0
POINT
  5
127
330
17
100
AcDbEntity
  8
0
100
AcDbPoint
 10
-28.351057560277706
 20
-47.18863552494416
 30
0.0
  0
POINT
  5
128
330
17
100
AcDbEntity
  8
0
100
AcDbPoint
 10
-28.763287515211903
 20
-47.09773264734137
 30
0.0
  0
POINT
  5
129
330
17
100
AcDbEntity
  8
0
100
AcDbPoint
 10
-29.175120044411543
 20
-47.00491630214037
 30
0.0
  0
POINT
  5
12A
330
17
100
AcDbEntity
  8
0
100
AcDbPoint
 10
-29.586564694125865
 20
-46.910264592459896
 30
0.0
  0
POINT
  5
12B
330
17
100
AcDbEntity
  8
0
100
AcDbPoint
 10
-29.99762864108534
 20
-46.8138426266144
 30
0.0
  0
POINT
  5
12C
330
17
100
AcDbEntity
  8
0
100
AcDbPoint
 10
-30.408298576268976
 20
-46.71562829067853
 30
0.0
  0
POINT
  5
12D
330
17
100
AcDbEntity
  8
0
100
AcDbPoint
 10
-30.818565474916856
 20
-46.61561812952878
 30
0.0
  0
POINT
  5
12E
330
17
100
AcDbEntity
  8
0
100
AcDbPoint
 10
-31.22842108594352
 20
-46.513812248859054
 30
0.0
  0
POINT
  5
12F
330
17
100
AcDbEntity
  8
0
100
AcDbPoint
 10
-31.637855997820466
 20
-46.41020618756339
 30
0.0
  0
POINT
  5
130
330
17
100
AcDbEntity
  8
0
100
AcDbPoint
 10
-32.046861066112314
 20
-46.30479717450159
 30
0.0
  0
POINT
  5
131
330
17
100
AcDbEntity
  8
0
100
AcDbPoint
 10
-32.45542716184516
 20
-46.197581904033235
 30
0.0
  0
POINT
  5
132
330
17
100
AcDbEntity
  8
0
100
AcDbPoint
 10
-32.86352798570045
 20
-46.088498090337325
 30
0.0
  0
POINT
  5
133
330
17
100
AcDbEntity
  8
0
100
AcDbPoint
 10
-33.27112532535613
 20
-45.977444500325774
 30
0.0
  0
POINT
  5
134
330
17
100
AcDbEntity
  8
0
100
AcDbPoint
 10
-33.67824461312062
 20
-45.864544282512995
 30
0.0
  0
POINT
  5
135
330
17
100
AcDbEntity
  8
0
100
AcDbPoint
 10
-34.0848943732086
 20
-45.749858932840446
 30
0.0
  0
POINT
  5
136
330
17
100
AcDbEntity
  8
0
100
AcDbPoint
 10
-34.49105611679953
 20
-45.63335346832337
 30
0.0
  0
POINT
  5
137
330
17
100
AcDbEntity
  8
0
100
AcDbPoint
 10
-34.89672220831974
 20
-45.51503203609038
 30
0.0
  0
POINT
  5
138
330
17
100
AcDbEntity
  8
0
100
AcDbPoint
 10
-35.301883649469964
 20
-45.39489416977805
 30
0.0
  0
POINT
  5
139
330
17
100
AcDbEntity
  8
0
100
AcDbPoint
 10
-35.70653034171564
 20
-45.272935739846226
 30
0.0
  0
POINT
  5
13A
330
17
100
AcDbEntity
  8
0
100
AcDbPoint
 10
-36.11065278217047
 20
-45.149155029637605
 30
0.0
  0
POINT
  5
13B
330
17
100
AcDbEntity
  8
0
100
AcDbPoint
 10
-36.514241193370786
 20
-45.023549624573725
 30
0.0
  0
POINT
  5
13C
330
17
100
AcDbEntity
  8
0
100
AcDbPoint
 10
-36.917285587620455
 20
-44.89611673518303
 30
0.0
  0
POINT
  5
13D
330
17
100
AcDbEntity
  8
0
100
AcDbPoint
 10
-37.319776031795506
 20
-44.76685397277524
 30
0.0
  0
POINT
  5
13E
330
17
100
AcDbEntity
  8
0
100
AcDbPoint
 10
-37.72170269658252
 20
-44.63575946048738
 30
0.0
  0
POINT
  5
13F
330
17
100
AcDbEntity
  8
0
100
AcDbPoint
 10
-38.123054148902476
 20
-44.502827134724235
 30
0.0
  0
POINT
  5
140
330
17
100
AcDbEntity
  8
0
100
AcDbPoint
 10
-38.52382229818129
 20
-44.36806040605258
 30
0.0
  0
POINT
  5
141
330
17
100
AcDbEntity
  8
0
100
AcDbPoint
 10
-38.923997674542754
 20
-44.23145911717083
 30
0.0
  0
POINT
  5
142
330
17
100
AcDbEntity
  8
0
100
AcDbPoint
 10
-39.323548230154024
 20
-44.09296115717099
 30
0.0
  0
POINT
  5
143
330
17
100
AcDbEntity
  8
0
100
AcDbPoint
 10
-39.72246114067866
 20
-43.952559308571395
 30
0.0
  0
POINT
  5
144
330
17
100
AcDbEntity
  8
0
100
AcDbPoint
 10
-40.12073954776417
 20
-43.81029071212542
 30
0.0
  0
POINT
  5
145
330
17
100
AcDbEntity
  8
0
100
AcDbPoint
 10
-40.51838163705602
 20
-43.66617700074884
 30
0.0
  0
POINT
  5
146
330
17
100
AcDbEntity
  8
0
100
AcDbPoint
 10
-40.91537717327489
 20
-43.520216976271755
 30
0.0
  0
POINT
  5
147
330
17
100
AcDbEntity
  8
0
100
AcDbPoint
 10
-41.31171412670223
 20
-43.372404849010024
 30
0.0
  0
POINT
  5
148
330
17
100
AcDbEntity
  8
0
100
AcDbPoint
 10
-41.70738184044642
 20
-43.2227388198756
 30
0.0
  0
POINT
  5
149
330
17
100
AcDbEntity
  8
0
100
AcDbPoint
 10
-42.102369059040576
 20
-43.071215760407874
 30
0.0
  0
POINT
  5
14A
330
17
100
AcDbEntity
  8
0
100
AcDbPoint
 10
-42.49666441550191
 20
-42.91783252994722
 30
0.0
  0
POINT
  5
14B
330
17
100
AcDbEntity
  8
0
100
AcDbPoint
 10
-42.89025648470354
 20
-42.762586121014635
 30
0.0
  0
POINT
  5
14C
330
17
100
AcDbEntity
  8
0
100
AcDbPoint
 10
-43.283133673717366
 20
-42.605473377987586
 30
0.0
  0
POINT
  5
14D
330
17
100
AcDbEntity
  8
0
100
AcDbPoint
 10
-43.67528425641054
 20
-42.44649110489318
 30
0.0
  0
POINT
  5
14E
330
17
100
AcDbEntity
  8
0
100
AcDbPoint
 10
-44.066696389257515
 20
-42.28563609635822
 30
0.0
  0
POINT
  5
14F
330
17
100
AcDbEntity
  8
0
100
AcDbPoint
 10
-44.457358122553075
 20
-42.12290516679829
 30
0.0
  0
POINT
  5
150
330
17
100
AcDbEntity
  8
0
100
AcDbPoint
 10
-44.8472574194871
 20
-41.95829520928386
 30
0.0
  0
POINT
  5
151
330
17
100
AcDbEntity
  8
0
100
AcDbPoint
 10
-45.236382205645995
 20
-41.79180330031377
 30
0.0
  0
POINT
  5
152
330
17
100
AcDbEntity
  8
0
100
AcDbPoint
 10
-45.624720388256435
 20
-41.62342673140202
 30
0.0
  0
POINT
  5
153
330
17
100
AcDbEntity
  8
0
100
AcDbPoint
 10
-46.012259868161195
 20
-41.4531630343506
 30
0.0
  0
POINT
  5
154
330
17
100
AcDbEntity
  8
0
100
AcDbPoint
 10
-46.39898855912936
 20
-41.2810100204713
 30
0.0
  0
POINT
  5
155
330
17
100
AcDbEntity
  8
0
100
AcDbPoint
 10
-46.78489439828573
 20
-41.10696578170084
 30
0.0
  0
POINT
  5
156
330
17
100
AcDbEntity
  8
0
100
AcDbPoint
 10
-47.169965355039515
 20
-40.931028699363075
 30
0.0
  0
POINT
  5
157
330
17
100
AcDbEntity
  8
0
100
AcDbPoint
 10
-47.55418944310917
 20
-40.75319746705609
 30
0.0
  0
POINT
  5
158
330
17
100
AcDbEntity
  8
0
100
AcDbPoint
 10
-47.937554728841974
 20
-40.57347108993902
 30
0.0
  0
POINT
  5
159
330
17
100
AcDbEntity
  8
0
100
AcDbPoint
 10
-48.32004932876633
 20
-40.39184886404588
 30
0.0
  0
POINT
  5
15A
330
17
100
AcDbEntity
  8
0
100
AcDbPoint
 10
-48.70166142064867
 20
-40.20833039003996
 30
0.0
  0
POINT
  5
15B
330
17
100
AcDbEntity
  8
0
100
AcDbPoint
 10
-49.08237928389361
 20
-40.02291564005408
 30
0.0
  0
POINT
  5
15C
330
17
100
AcDbEntity
  8
0
100
AcDbPoint
 10
-49.462191155115605
 20
-39.83560467318105
 30
0.0
  0
POINT
  5
15D
330
17
100
AcDbEntity
  8
0
100
AcDbPoint
 10
-49.8410854523394
 20
-39.646398033497945
 30
0.0
  0
POINT
  5
15E
330
17
100
AcDbEntity
  8
0
100
AcDbPoint
 10
-50.21905094856765
 20
-39.45529706091662
 30
0.0
  0
POINT
  5
15F
330
17
100
AcDbEntity
  8
0
100
AcDbPoint
 10
-50.596074621401414
 20
-39.26229994785334
 30
0.0
  0
POINT
  5
160
330
17
100
AcDbEntity
  8
0
100
AcDbPoint
 10
-50.97214733865474
 20
-39.0674121195946
 30
0.0
  0
POINT
  5
161
330
17
100
AcDbEntity
  8
0
100
AcDbPoint
 10
-51.347259398685765
 20
-38.870638077880194
 30
0.0
  0
POINT
  5
162
330
17
100
AcDbEntity
  8
0
100
AcDbPoint
 10
-51.721372471067426
 20
-38.67193025939682
 30
0.0
  0
POINT
  5
163
330
17
100
AcDbEntity
  8
0
100
AcDbPoint
 10
-52.09445691041558
 20
-38.47125898964284
 30
0.0
  0
POINT
  5
164
330
17
100
AcDbEntity
  8
0
100
AcDbPoint
 10
-52.46650688862167
 20
-38.26863867255218
 30
0.0
  0
POINT
  5
165
330
17
100
AcDbEntity
  8
0
100
AcDbPoint
 10
-52.837537355244486
 20
-38.064119577706805
 30
0.0
  0
POINT
  5
166
330
17
100
AcDbEntity
  8
0
100
AcDbPoint
 10
-53.207539111431934
 20
-37.85770818347171
 30
0.0
  0
POINT
  5
167
330
17
100
AcDbEntity
  8
0
100
AcDbPoint
 10
-53.576495766624845
 20
-37.64939810448356
 30
0.0
  0
POINT
  5
168
330
17
100
AcDbEntity
  8
0
100
AcDbPoint
 10
-53.9443964210746
 20
-37.4391930259333
 30
0.0
  0
POINT
  5
169
330
17
100
AcDbEntity
  8
0
100
AcDbPoint
 10
-54.311228463344314
 20
-37.227093685914056
 30
0.0
  0
POINT
  5
16A
330
17
100
AcDbEntity
  8
0
100
AcDbPoint
 10
-54.67697923931805
 20
-37.01310087975473
 30
0.0
  0
POINT
  5
16B
330
17
100
AcDbEntity
  8
0
100
AcDbPoint
 10
-55.04163633027795
 20
-36.79721596282687
 30
0.0
  0
POINT
  5
16C
330
17
100
AcDbEntity
  8
0
100
AcDbPoint
 10
-55.40518717438697
 20
-36.57944016618676
 30
0.0
  0
POINT
  5
16D
330
17
100
AcDbEntity
  8
0
100
AcDbPoint
 10
-55.76761936835258
 20
-36.359775088224055
 30
0.0
  0
POINT
  5
16E
330
17
100
AcDbEntity
  8
0
100
AcDbPoint
 10
-56.128920206166185
 20
-36.13822200044313
 30
0.0
  0
POINT
  5
16F
330
17
100
AcDbEntity
  8
0
100
AcDbPoint
 10
-56.48907718850542
 20
-35.91478259048516
 30
0.0
  0
POINT
  5
170
330
17
100
AcDbEntity
  8
0
100
AcDbPoint
 10
-56.848079348088596
 20
-35.689460919429436
 30
0.0
  0
POINT
  5
171
330
17
100
AcDbEntity
  8
0
100
AcDbPoint
 10
-57.20590949787569
 20
-35.46225197720642
 30
0.0
  0
POINT
  5
172
330
17
100
AcDbEntity
  8
0
100
AcDbPoint
 10
-57.56256072608329
 20
-35.233166005617846
 30
0.0
  0
POINT
  5
173
330
17
100
AcDbEntity
  8
0
100
AcDbPoint
 10
-57.91803397749636
 20
-35.00222492311161
 30
0.0
  0
POINT
  5
174
330
17
100
AcDbEntity
  8
0
100
AcDbPoint
 10
-58.27222814282633
 20
-34.76930039401221
 30
0.0
  0
POINT
  5
175
330
17
100
AcDbEntity
  8
0
100
AcDbPoint
 10
-58.62508757996939
 20
-34.53433470956468
 30
0.0
  0
POINT
  5
176
330
17
100
AcDbEntity
  8
0
100
AcDbPoint
 10
-58.97664558379591
 20
-34.29740325117407
 30
0.0
  0
POINT
  5
177
330
17
100
AcDbEntity
  8
0
100
AcDbPoint
 10
-59.32694156743279
 20
-34.05858557180442
 30
0.0
  0
POINT
  5
178
330
17
100
AcDbEntity
  8
0
100
AcDbPoint
 10
-59.67597304990302
 20
-33.81789943544871
 30
0.0
  0
POINT
  5
179
330
17
100
AcDbEntity
  8
0
100
AcDbPoint
 10
-60.02371942459964
 20
-33.575336288216654
 30
0.0
  0
POINT
  5
17A
330
17
100
AcDbEntity
  8
0
100
AcDbPoint
 10
-60.37017070581593
 20
-33.330903079007975
 30
0.0
  0
POINT
  5
17B
330
17
100
AcDbEntity
  8
0
100
AcDbPoint
 10
-60.715313209724755
 20
-33.08460170517133
 30
0.0
  0
POINT
  5
17C
330
17
100
AcDbEntity
  8
0
100
AcDbPoint
 10
-61.0591372360083
 20
-32.8364391234247
 30
0.0
  0
POINT
  5
17D
330
17
100
AcDbEntity
  8
0
100
AcDbPoint
 10
-61.401629544731236
 20
-32.5864179498991
 30
0.0
  0
POINT
  5
17E
330
17
100
AcDbEntity
  8
0
100
AcDbPoint
 10
-61.74276230815592
 20
-32.33452226462159
 30
0.0
  0
POINT
  5
17F
330
17
100
AcDbEntity
  8
0
100
AcDbPoint
 10
-62.082583395308966
 20
-32.080832446460484
 30
0.0
  0
POINT
  5
180
330
17
100
AcDbEntity
  8
0
100
AcDbPoint
 10
-62.4209917642077
 20
-31.825239558733777
 30
0.0
  0
POINT
  5
181
330
17
100
AcDbEntity
  8
0
100
AcDbPoint
 10
-62.75771041669485
 20
-31.567412634981235
 30
0.0
  0
POINT
  5
182
330
17
100
AcDbEntity
  8
0
100
AcDbPoint
 10
-63.0929479603303
 20
-31.30764518607794
 30
0.0
  0
POINT
  5
183
330
17
100
AcDbEntity
  8
0
100
AcDbPoint
 10
-63.42681245036552
 20
-31.046098109613354
 30
0.0
  0
POINT
  5
184
330
17
100
AcDbEntity
  8
0
100
AcDbPoint
 10
-63.75923030851005
 20
-30.782696551493807
 30
0.0
  0
POINT
  5
185
330
17
100
AcDbEntity
  8
0
100
AcDbPoint
 10
-64.09020108973674
 20
-30.51746077252816
 30
0.0
  0
POINT
  5
186
330
17
100
AcDbEntity
  8
0
100
AcDbPoint
 10
-64.41972165775253
 20
-30.25040652396759
 30
0.0
  0
POINT
  5
187
330
17
100
AcDbEntity
  8
0
100
AcDbPoint
 10
-64.74776906259684
 20
-29.981525936916793
 30
0.0
  0
POINT
  5
188
330
17
100
AcDbEntity
  8
0
100
AcDbPoint
 10
-65.07432742701634
 20
-29.710819932795765
 30
0.0
  0
POINT
  5
189
330
17
100
AcDbEntity
  8
0
100
AcDbPoint
 10
-65.39946062918314
 20
-29.438379955181716
 30
0.0
  0
POINT
  5
18A
330
17
100
AcDbEntity
  8
0
100
AcDbPoint
 10
-65.72295185600834
 20
-29.163978051983925
 30
0.0
  0
POINT
  5
18B
330
17
100
AcDbEntity
  8
0
100
AcDbPoint
 10
-66.04458448641749
 20
-28.887390262969745
 30
0.0
  0
POINT
  5
18C
330
17
100
AcDbEntity
  8
0
100
AcDbPoint
 10
-66.36462592409248
 20
-28.608950113900594
 30
0.0
  0
POINT
  5
18D
330
17
100
AcDbEntity
  8
0
100
AcDbPoint
 10
-66.6831323899966
 20
-28.328742439781426
 30
0.0
  0
POINT
  5
18E
330
17
100
AcDbEntity
  8
0
100
AcDbPoint
 10
-67.00007121705555
 20
-28.046747933821344
 30
0.0
  0
POINT
  5
18F
330
17
100
AcDbEntity
  8
0
100
AcDbPoint
 10
-67.31544317780852
 20
-27.762987012955296
 30
0.0
  0
POINT
  5
190
330
17
100
AcDbEntity
  8
0
100
AcDbPoint
 10
-67.62922472880851
 20
-27.477453248657053
 30
0.0
  0
POINT
  5
191
330
17
100
AcDbEntity
  8
0
100
AcDbPoint
 10
-67.94144656990348
 20
-27.19019640555687
 30
0.0
  0
POINT
  5
192
330
17
100
AcDbEntity
  8
0
100
AcDbPoint
 10
-68.25206043349819
 20
-26.901184432208996
 30
0.0
  0
POINT
  5
193
330
17
100
AcDbEntity
  8
0
100
AcDbPoint
 10
-68.56081482315355
 20
-26.61017560591012
 30
0.0
  0
POINT
  5
194
330
17
100
AcDbEntity
  8
0
100
AcDbPoint
 10
-68.86769757267483
 20
-26.317185339939282
 30
0.0
  0
POINT
  5
195
330
17
100
AcDbEntity
  8
0
100
AcDbPoint
 10
-69.17283082139826
 20
-26.02236493643625
 30
0.0
  0
POINT
  5
196
330
17
100
AcDbEntity
  8
0
100
AcDbPoint
 10
-69.47633064103975
 20
-25.725851720436342
 30
0.0
  0
POINT
  5
197
330
17
100
AcDbEntity
  8
0
100
AcDbPoint
 10
-69.77818393027297
 20
-25.427649565637346
 30
0.0
  0
POINT
  5
198
330
17
100
AcDbEntity
  8
0
100
AcDbPoint
 10
-70.0783509977064
 20
-25.12773758006899
 30
0.0
  0
POINT
  5
199
330
17
100
AcDbEntity
  8
0
100
AcDbPoint
 10
-70.376858348708
 20
-24.82615818494677
 30
0.0
  0
POINT
  5
19A
330
17
100
AcDbEntity
  8
0
100
AcDbPoint
 10
-70.67376101015839
 20
-24.522979664874825
 30
0.0
  0
POINT
  5
19B
330
17
100
AcDbEntity
  8
0
100
AcDbPoint
 10
-70.96862869344231
 20
-24.217815687371793
 30
0.0
  0
POINT
  5
19C
330
17
100
AcDbEntity
  8
0
100
AcDbPoint
 10
-71.2613919726157
 20
-23.910625912076895
 30
0.0
  0
POINT
  5
19D
330
17
100
AcDbEntity
  8
0
100
AcDbPoint
 10
-71.55241514187661
 20
-23.601780011208817
 30
0.0
  0
POINT
  5
19E
330
17
100
AcDbEntity
  8
0
100
AcDbPoint
 10
-71.84171568289153
 20
-23.29131031742057
 30
0.0
  0
POINT
  5
19F
330
17
100
AcDbEntity
  8
0
100
AcDbPoint
 10
-72.12926495728048
 20
-22.979207037416487
 30
0.0
  0
POINT
  5
1A0
330
17
100
AcDbEntity
  8
0
100
AcDbPoint
 10
-72.41508066005866
 20
-22.665502761735773
 30
0.0
  0
POINT
  5
1A1
330
17
100
AcDbEntity
  8
0
100
AcDbPoint
 10
-72.69918187441351
 20
-22.350229869903927
 30
0.0
  0
POINT
  5
1A2
330
17
100
AcDbEntity
  8
0
100
AcDbPoint
 10
-72.9813313422721
 20
-22.033198228251333
 30
0.0
  0
POINT
  5
1A3
330
17
100
AcDbEntity
  8
0
100
AcDbPoint
 10
-73.26135499003792
 20
-21.71428136739332
 30
0.0
  0
POINT
  5
1A4
330
17
100
AcDbEntity
  8
0
100
AcDbPoint
 10
-73.53930409968787
 20
-21.393551873296076
 30
0.0
  0
POINT
  5
1A5
330
17
100
AcDbEntity
  8
0
100
AcDbPoint
 10
-73.81543893229072
 20
-21.071251261360256
 30
0.0
  0
POINT
  5
1A6
330
17
100
AcDbEntity
  8
0
100
AcDbPoint
 10
-74.08978912998631
 20
-20.747421652601137
 30
0.0
  0
POINT
  5
1A7
330
17
100
AcDbEntity
  8
0
100
AcDbPoint
 10
-74.36232341330368
 20
-20.422050884116977
 30
0.0
  0
POINT
  5
1A8
330
17
100
AcDbEntity
  8
0
100
AcDbPoint
 10
-74.63307096036357
 20
-20.09517845866455
 30
0.0
  0
POINT
  5
1A9
330
17
100
AcDbEntity
  8
0
100
AcDbPoint
 10
-74.90179909352986
 20
-19.76663333479292
 30
0.0
  0
POINT
  5
1AA
330
17
100
AcDbEntity
  8
0
100
AcDbPoint
 10
-75.1682952220445
 20
-19.43627064586649
 30
0.0
  0
POINT
  5
1AB
330
17
100
AcDbEntity
  8
0
100
AcDbPoint
 10
-75.4325796596936
 20
-19.104134696878756
 30
0.0
  0
POINT
  5
1AC
330
17
100
AcDbEntity
  8
0
100
AcDbPoint
 10
-75.69498989108952
 20
-18.770509326006707
 30
0.0
  0
POINT
  5
1AD
330
17
100
AcDbEntity
  8
0
100
AcDbPoint
 10
-75.95554469109499
 20
-18.435426076537098
 30
0.0
  0
POINT
  5
1AE
330
17
100
AcDbEntity
  8
0
100
AcDbPoint
 10
-76.21422726281335
 20
-18.098884021048004
 30
0.0
  0
POINT
  5
1AF
330
17
100
AcDbEntity
  8
0
100
AcDbPoint
 10
-76.47108141569426
 20
-17.76093078552808
 30
0.0
  0
POINT
  5
1B0
330
17
100
AcDbEntity
  8
0
100
AcDbPoint
 10
-76.725651383312
 20
-17.42124838336754
 30
0.0
  0
POINT
  5
1B1
330
17
100
AcDbEntity
  8
0
100
AcDbPoint
 10
-76.97783495260835
 20
-17.07978765320223
 30
0.0
  0
POINT
  5
1B2
330
17
100
AcDbEntity
  8
0
100
AcDbPoint
 10
-77.22789395507168
 20
-16.736766832363248
 30
0.0
  0
POINT
  5
1B3
330
17
100
AcDbEntity
  8
0
100
AcDbPoint
 10
-77.4760293519086
 20
-16.39234552815249
 30
0.0
  0
POINT
  5
1B4
330
17
100
AcDbEntity
  8
0
100
AcDbPoint
 10
-77.722207104096
 20
-16.046516209295692
 30
0.0
  0
POINT
  5
1B5
330
17
100
AcDbEntity
  8
0
100
AcDbPoint
 10
-77.96648469921303
 20
-15.69932946447515
 30
0.0
  0
POINT
  5
1B6
330
17
100
AcDbEntity
  8
0
100
AcDbPoint
 10
-78.208882495448
 20
-15.350812782685649
 30
0.0
  0
POINT
  5
1B7
330
17
100
AcDbEntity
  8
0
100
AcDbPoint
 10
-78.44852812312276
 20
-15.000402689470661
 30
0.0
  0
POINT
  5
1B8
330
17
100
AcDbEntity
  8
0
100
AcDbPoint
 10
-78.68565522305275
 20
-14.64828103324245
 30
0.0
  0
POINT
  5
1B9
330
17
100
AcDbEntity
  8
0
100
AcDbPoint
 10
-78.9209535583555
 20
-14.29493241275753
 30
0.0
  0
POINT
  5
1BA
330
17
100
AcDbEntity
  8
0
100
AcDbPoint
 10
-79.15423197134916
 20
-13.940241533157488
 30
0.0
  0
POINT
  5
1BB
330
17
100
AcDbEntity
  8
0
100
AcDbPoint
 10
-79.3855667656419
 20
-13.584268077373865
 30
0.0
  0
POINT
  5
1BC
330
17
100
AcDbEntity
  8
0
100
AcDbPoint
 10
-79.61479069416072
 20
-13.226923504083558
 30
0.0
  0
POINT
  5
1BD
330
17
100
AcDbEntity
  8
0
100
AcDbPoint
 10
-79.84145075299843
 20
-12.86794324586857
 30
0.0
  0
POINT
  5
1BE
330
17
100
AcDbEntity
  8
0
100
AcDbPoint
 10
-80.06560569020938
 20
-12.507394779468855
 30
0.0
  0
POINT
  5
1BF
330
17
100
AcDbEntity
  8
0
100
AcDbPoint
 10
-80.28754824279952
 20
-12.145479025856282
 30
0.0
  0
POINT
  5
1C0
330
17
100
AcDbEntity
  8
0
100
AcDbPoint
 10
-80.50749532791781
 20
-11.782341977817033
 30
0.0
  0
POINT
  5
1C1
330
17
100
AcDbEntity
  8
0
100
AcDbPoint
 10
-80.72539090676855
 20
-11.417962722127292
 30
0.0
  0
POINT
  5
1C2
330
17
100
AcDbEntity
  8
0
100
AcDbPoint
 10
-80.94117928589185
 20
-11.052319325077015
 30
0.0
  0
POINT
  5
1C3
330
17
100
AcDbEntity
  8
0
100
AcDbPoint
 10
-81.15445299370997
 20
-10.685201140517034
 30
0.0
  0
POINT
  5
1C4
330
17
100
AcDbEntity
  8
0
100
AcDbPoint
 10
-81.36483640451274
 20
-10.31642338602024
 30
0.0
  0
POINT
  5
1C5
330
17
100
AcDbEntity
  8
0
100
AcDbPoint
 10
-81.57306073874962
 20
-9.946419356381446
 30
0.0
  0
POINT
  5
1C6
330
17
100
AcDbEntity
  8
0
100
AcDbPoint
 10
-81.7792472516312
 20
-9.575274433367436
 30
0.0
  0
POINT
  5
1C7
330
17
100
AcDbEntity
  8
0
100
AcDbPoint
 10
-81.98332306849082
 20
-9.202955053055526
 30
0.0
  0
POINT
  5
1C8
330
17
100
AcDbEntity
  8
0
100
AcDbPoint
 10
-82.18542576226112
 20
-8.829546017960668
 30
0.0
  0
POINT
  5
1C9
330
17
100
AcDbEntity
  8
0
100
AcDbPoint
 10
-82.38451820208925
 20
-8.454529853571968
 30
0.0
  0
POINT
  5
1CA
330
17
100
AcDbEntity
  8
0
100
AcDbPoint
 10
-82.5806709631193
 20
-8.077967858157983
 30
0.0
  0
POINT
  5
1CB
330
17
100
AcDbEntity
  8
0
100
AcDbPoint
 10
-82.77486332291512
 20
-7.700391319666033
 30
0.0
  0
POINT
  5
1CC
330
17
100
AcDbEntity
  8
0
100
AcDbPoint
 10
-82.96687167878754
 20
-7.3216976157106455
 30
0.0
  0
POINT
  5
1CD
330
17
100
AcDbEntity
  8
0
100
AcDbPoint
 10
-83.15686316081529
 20
-6.94197360966842
 30
0.0
  0
POINT
  5
1CE
330
17
100
AcDbEntity
  8
0
100
AcDbPoint
 10
-83.34454598241524
 20
-6.561097226149668
 30
0.0
  0
POINT
  5
1CF
330
17
100
AcDbEntity
  8
0
100
AcDbPoint
 10
-83.52890276525173
 20
-6.178605462604851
 30
0.0
  0
POINT
  5
1D0
330
17
100
AcDbEntity
  8
0
100
AcDbPoint
 10
-83.71073655918693
 20
-5.794906923843571
 30
0.0
  0
POINT
  5
1D1
330
17
100
AcDbEntity
  8
0
100
AcDbPoint
 10
-83.89047629299158
 20
-5.410225305436022
 30
0.0
  0
POINT
  5
1D2
330
17
100
AcDbEntity
  8
0
100
AcDbPoint
 10
-84.06799488805149
 20
-5.024507444080768
 30
0.0
  0
POINT
  5
1D3
330
17
100
AcDbEntity
  8
0
100
AcDbPoint
 10
-84.24353310187603
 20
-4.637869632808572
 30
0.0
  0
POINT
  5
1D4
330
17
100
AcDbEntity
  8
0
100
AcDbPoint
 10
-84.41616858353662
 20
-4.249930003029461
 30
0.0
  0
POINT
  5
1D5
330
17
100
AcDbEntity
  8
0
100
AcDbPoint
 10
-84.58557694179977
 20
-3.8605716153510987
 30
0.0
  0
POINT
  5
1D6
330
17
100
AcDbEntity
  8
0
100
AcDbPoint
 10
-84.75275786522757
 20
-3.470253476303602
 30
0.0
  0
POINT
  5
1D7
330
17
100
AcDbEntity
  8
0
100
AcDbPoint
 10
-84.91769010961356
 20
-3.0789805762743443
 30
0.0
  0
POINT
  5
1D8
330
17
100
AcDbEntity
  8
0
100
AcDbPoint
 10
-85.0805235544026
 20
-2.6868173799362265
 30
0.0
  0
POINT
  5
1D9
330
17
100
AcDbEntity
  8
0
100
AcDbPoint
 10
-85.24111502676446
 20
-2.2937219421571435
 30
0.0
  0
POINT
  5
1DA
330
17
100
AcDbEntity
  8
0
100
AcDbPoint
 10
-85.39821452061872
 20
-1.8992253759916673
 30
0.0
  0
POINT
  5
1DB
330
17
100
AcDbEntity
  8
0
100
AcDbPoint
 10
-85.5525143172655
 20
-1.503624779401984
 30
0.0
  0
POINT
  5
1DC
330
17
100
AcDbEntity
  8
0
100
AcDbPoint
 10
-85.70472699435695
 20
-1.1072197483806623
 30
0.0
  0
POINT
  5
1DD
330
17
100
AcDbEntity
  8
0
100
AcDbPoint
 10
-85.85463637810247
 20
-0.7099337096233498
 30
0.0
  0
POINT
  5
1DE
330
17
100
AcDbEntity
  8
0
100
AcDbPoint
 10
-86.00248558813638
 20
-0.31186111697878527
 30
0.0
  0
POINT
  5
1DF
330
17
100
AcDbEntity
  8
0
100
AcDbPoint
 10
-86.14741362018879
 20
0.08728157537718756
 30
0.0
  0
POINT
  5
1E0
330
17
100
AcDbEntity
  8
0
100
AcDbPoint
 10
-86.28879503899981
 20
0.4876896311209872
 30
0.0
  0
POINT
  5
1E1
330
17
100
AcDbEntity
  8
0
100
AcDbPoint
 10
-86.42793714897536
 20
0.8888803156188528
 30
0.0
  0
POINT
  5
1E2
330
17
100
AcDbEntity
  8
0
100
AcDbPoint
 10
-86.56494779764799
 20
1.2908041320442962
 30
0.0
  0
POINT
  5
1E3
330
17
100
AcDbEntity
  8
0
100
AcDbPoint
 10
-86.69961849179184
 20
1.6935272223770366
 30
0.0
  0
POINT
  5
1E4
330
17
100
AcDbEntity
  8
0
100
AcDbPoint
 10
-86.83177239593745
 20
2.0970911219614616
 30
0.0
  0
POINT
  5
1E5
330
17
100
AcDbEntity
  8
0
100
AcDbPoint
 10
-86.96057625664278
 20
2.501729319855854
 30
0.0
  0
POINT
  5
1E6
330
17
100
AcDbEntity
  8
0
100
AcDbPoint
 10
-87.08647746414032
 20
2.9072782478368717
 30
0.0
  0
POINT
  5
1E7
330
17
100
AcDbEntity
  8
0
100
AcDbPoint
 10
-87.21030708218856
 20
3.313464232422018
 30
0.0
  0
POINT
  5
1E8
330
17
100
AcDbEntity
  8
0
100
AcDbPoint
 10
-87.3319179934162
 20
3.7203268667158955
 30
0.0
  0
POINT
  5
1E9
330
17
100
AcDbEntity
  8
0
100
AcDbPoint
 10
-87.45083798189334
 20
4.12799024877753
 30
0.0
  0
POINT
  5
1EA
330
17
100
AcDbEntity
  8
0
100
AcDbPoint
 10
-87.56669371107432
 20
4.536534877022594
 30
0.0
  0
POINT
  5
1EB
330
17
100
AcDbEntity
  8
0
100
AcDbPoint
 10
-87.6795076409453
 20
4.9459239196351445
 30
0.0
  0
POINT
  5
1EC
330
17
100
AcDbEntity
  8
0
100
AcDbPoint
 10
-87.78990244920317
 20
5.355970449574281
 30
0.0
  0
POINT
  5
1ED
330
17
100
AcDbEntity
  8
0
100
AcDbPoint
 10
-87.89824055242694
 20
5.7665728200411115
 30
0.0
  0
POINT
  5
1EE
330
17
100
AcDbEntity
  8
0
100
AcDbPoint
 10
-88.00411516388128
 20
6.17782382004871
 30
0.0
  0
POINT
  5
1EF
330
17
100
AcDbEntity
  8
0
100
AcDbPoint
 10
-88.10653390540989
 20
6.589946981190673
 30
0.0
  0
POINT
  5
1F0
330
17
100
AcDbEntity
  8
0
100
AcDbPoint
 10
-88.20600207684737
 20
7.002790067201657
 30
0.0
  0
POINT
  5
1F1
330
17
100
AcDbEntity
  8
0
100
AcDbPoint
 10
-88.30302807538655
 20
7.41620903465297
 30
0.0
  0
POINT
  5
1F2
330
17
100
AcDbEntity
  8
0
100
AcDbPoint
 10
-88.39774715658696
 20
7.830166482152131
 30
0.0
  0
POINT
  5
1F3
330
17
100
AcDbEntity
  8
0
100
AcDbPoint
 10
-88.49034412387485
 20
8.244617930420555
 30
0.0
  0
POINT
  5
1F4
330
17
100
AcDbEntity
  8
0
100
AcDbPoint
 10
-88.57965267506687
 20
8.65978525584746
 30
0.0
  0
POINT
  5
1F5
330
17
100
AcDbEntity
  8
0
100
AcDbPoint
 10
-88.66528102211626
 20
9.075723516299975
 30
0.0
  0
POINT
  5
1F6
330
17
100
AcDbEntity
  8
0
100
AcDbPoint
 10
-88.74869854343102
 20
9.492107485319643
 30
0.0
  0
POINT
  5
1F7
330
17
100
AcDbEntity
  8
0
100
AcDbPoint
 10
-88.82997023869821
 20
9.90891820835973
 30
0.0
  0
POINT
  5
1F8
330
17
100
AcDbEntity
  8
0
100
AcDbPoint
 10
-88.90866020848316
 20
10.3262313051711
 30
0.0
  0
POINT
  5
1F9
330
17
100
AcDbEntity
  8
0
100
AcDbPoint
 10
-88.98431825724975
 20
10.744107898534667
 30
0.0
  0
POINT
  5
1FA
330
17
100
AcDbEntity
  8
0
100
AcDbPoint
 10
-89.05667730288185
 20
11.162561796280139
 30
0.0
  0
POINT
  5
1FB
330
17
100
AcDbEntity
  8
0
100
AcDbPoint
 10
-89.12628308085549
 20
11.58147865757108
 30
0.0
  0
POINT
  5
1FC
330
17
100
AcDbEntity
  8
0
100
AcDbPoint
 10
-89.19376582685437
 20
12.000746031863624
 30
0.0
  0
POINT
  5
1FD
330
17
100
AcDbEntity
  8
0
100
AcDbPoint
 10
-89.2590368676526
 20
12.42037419174118
 30
0.0
  0
POINT
  5
1FE
330
17
100
AcDbEntity
  8
0
100
AcDbPoint
 10
-89.32078178256508
 20
12.840531682533019
 30
0.0
  0
POINT
  5
1FF
330
17
100
AcDbEntity
  8
0
100
AcDbPoint
 10
-89.37911834669752
 20
13.261174617813406
 30
0.0
  0
POINT
  5
200
330
17
100
AcDbEntity
  8
0
100
AcDbPoint
 10
-89.43505600397843
 20
13.682137270285304
 30
0.0
  0
POINT
  5
201
330
17
100
AcDbEntity
  8
0
100
AcDbPoint
 10
-89.48865467084349
 20
14.103405860917926
 30
0.0
  0
POINT
  5
202
330
17
100
AcDbEntity
  8
0
100
AcDbPoint
 10
-89.5397935362111
 20
14.524989743034562
 30
0.0
  0
POINT
  5
203
330
17
100
AcDbEntity
  8
0
100
AcDbPoint
 10
-89.58788983350468
 20
14.94693285111693
 30
0.0
  0
POINT
  5
204
330
17
100
AcDbEntity
  8
0
100
AcDbPoint
 10
-89.63231124638173
 20
15.369271235177594
 30
0.0
  0
POINT
  5
205
330
17
100
AcDbEntity
  8
0
100
AcDbPoint
 10
-89.67410025023231
 20
15.791874832374772
 30
0.0
  0
POINT
  5
206
330
17
100
AcDbEntity
  8
0
100
AcDbPoint
 10
-89.71384961020338
 20
16.214678721782132
 30
0.0
  0
POINT
  5
207
330
17
100
AcDbEntity
  8
0
100
AcDbPoint
 10
-89.75109746322248
 20
16.637717569712684
 30
0.0
  0
POINT
  5
208
330
17
100
AcDbEntity
  8
0
100
AcDbPoint
 10
-89.78472064018281
 20
17.06105834827965
 30
0.0
  0
POINT
  5
209
330
17
100
AcDbEntity
  8
0
100
AcDbPoint
 10
-89.81513180276592
 20
17.48463883015977
 30
0.0
  0
POINT
  5
20A
330
17
100
AcDbEntity
  8
0
100
AcDbPoint
 10
-89.84299595591729
 20
17.908388411582735
 30
0.0
  0
POINT
  5
20B
330
17
100
AcDbEntity
  8
0
100
AcDbPoint
 10
-89.86849806472678
 20
18.33228940614396
 30
0.0
  0
POINT
  5
20C
330
17
100
AcDbEntity
  8
0
100
AcDbPoint
 10
-89.8915376481905
 20
18.75634219619791
 30
0.0
  0
POINT
  5
20D
330
17
100
AcDbEntity
  8
0
100
AcDbPoint
 10
-89.91120720490706
 20
19.180561264071816
 30
0.0
  0
POINT
  5
20E
330
17
100
AcDbEntity
  8
0
100
AcDbPoint
 10
-89.9271695646271
 20
19.60493027690997
 30
0.0
  0
POINT
  5
20F
330
17
100
AcDbEntity
  8
0
100
AcDbPoint
 10
-89.94074747410028
 20
20.029377927675075
 30
0.0
  0
POINT
  5
210
330
17
100
AcDbEntity
  8
0
100
AcDbPoint
 10
-89.95227104670938
 20
20.45389267001716
 30
0.0
  0
POINT
  5
211
330
17
100
AcDbEntity
  8
0
100
AcDbPoint
 10
-89.96094296667238
 20
20.87847925899139
 30
0.0
  0
POINT
  5
212
330
17
100
AcDbEntity
  8
0
100
AcDbPoint
 10
-89.965836645114
 20
21.30312506365441
 30
0.0
  0
POINT
  5
213
330
17
100
AcDbEntity
  8
0
100
AcDbPoint
 10
-89.967704732437
 20
21.727789228544566
 30
0.0
  0
POINT
  5
214
330
17
100
AcDbEntity
  8
0
100
AcDbPoint
 10
-89.96710284441606
 20
22.15245271708214
 30
0.0
  0
POINT
  5
215
330
17
100
AcDbEntity
  8
0
100
AcDbPoint
 10
-89.96410995059445
 20
22.57711104092937
 30
0.0
  0
POINT
  5
216
330
17
100
AcDbEntity
  8
0
100
AcDbPoint
 10
-89.95838219210202
 20
23.00175010809908
 30
0.0
  0
POINT
  5
217
330
17
100
AcDbEntity
  8
0
100
AcDbPoint
 10
-89.94899986466321
 20
23.42631749531362
 30
0.0
  0
POINT
  5
218
330
17
100
AcDbEntity
  8
0
100
AcDbPoint
 10
-89.93623892502006
 20
23.850791812760196
 30
0.0
  0
POINT
  5
219
330
17
100
AcDbEntity
  8
0
100
AcDbPoint
 10
-89.92127341672172
 20
24.275190778200066
 30
0.0
  0
POINT
  5
21A
330
17
100
AcDbEntity
  8
0
100
AcDbPoint
 10
-89.90420914266876
 20
24.699521184285366
 30
0.0
  0
POINT
  5
21B
330
17
100
AcDbEntity
  8
0
100
AcDbPoint
 10
-89.88378311435639
 20
25.12370191066421
 30
0.0
  0
POINT
  5
21C
330
17
100
AcDbEntity
  8
0
100
AcDbPoint
 10
-89.85947385050252
 20
25.547676411103414
 30
0.0
  0
POINT
  5
21D
330
17
100
AcDbEntity
  8
0
100
AcDbPoint
 10
-89.83253067034846
 20
25.971483848752417
 30
0.0
  0
POINT
  5
21E
330
17
100
AcDbEntity
  8
0
100
AcDbPoint
 10
-89.80329392754568
 20
26.39513890871203
 30
0.0
  0
POINT
  5
21F
330
17
100
AcDbEntity
  8
0
100
AcDbPoint
 10
-89.77144927367846
 20
26.81861225661901
 30
0.0
  0
POINT
  5
220
330
17
100
AcDbEntity
  8
0
100
AcDbPoint
 10
-89.73641476570052
 20
27.241837826427613
 30
0.0
  0
POINT
  5
221
330
17
100
AcDbEntity
  8
0
100
AcDbPoint
 10
-89.69781287030828
 20
27.664745516294246
 30
0.0
  0
POINT
  5
222
330
17
100
AcDbEntity
  8
0
100
AcDbPoint
 10
-89.6562957861289
 20
28.087371009194218
 30
0.0
  0
POINT
  5
223
330
17
100
AcDbEntity
  8
0
100
AcDbPoint
 10
-89.61267447851695
 20
28.50978708186352
 30
0.0
  0
POINT
  5
224
330
17
100
AcDbEntity
  8
0
100
AcDbPoint
 10
-89.56685109717607
 20
28.931982941585115
 30
0.0
  0
POINT
  5
225
330
17
100
AcDbEntity
  8
0
100
AcDbPoint
 10
-89.51693842132657
 20
29.353706489294574
 30
0.0
  0
POINT
  5
226
330
17
100
AcDbEntity
  8
0
100
AcDbPoint
 10
-89.46333523241499
 20
29.774975587126782
 30
0.0
  0
POINT
  5
227
330
17
100
AcDbEntity
  8
0
100
AcDbPoint
 10
-89.40769652984875
 20
30.19597229421106
 30
0.0
  0
POINT
  5
228
330
17
100
AcDbEntity
  8
0
100
AcDbPoint
 10
-89.3498482232351
 20
30.61667696880452
 30
0.0
  0
POINT
  5
229
330
17
100
AcDbEntity
  8
0
100
AcDbPoint
 10
-89.28887858561977
 20
31.03694450500758
 30
0.0
  0
POINT
  5
22A
330
17
100
AcDbEntity
  8
0
100
AcDbPoint
 10
-89.224371782982
 20
31.456683630094933
 30
0.0
  0
POINT
  5
22B
330
17
100
AcDbEntity
  8
0
100
AcDbPoint
 10
-89.15680902363131
 20
31.875933227664447
 30
0.0
  0
POINT
  5
22C
330
17
100
AcDbEntity
  8
0
100
AcDbPoint
 10
-89.08680351344391
 20
32.29477917116307
 30
0.0
  0
POINT
  5
22D
330
17
100
AcDbEntity
  8
0
100
AcDbPoint
 10
-89.014482702594
 20
32.713238645930964
 30
0.0
  0
POINT
  5
22E
330
17
100
AcDbEntity
  8
0
100
AcDbPoint
 10
-88.93924756995045
 20
33.13118982075974
 30
0.0
  0
POINT
  5
22F
330
17
100
AcDbEntity
  8
0
100
AcDbPoint
 10
-88.86010026779964
 20
33.54841010001092
 30
0.0
  0
POINT
  5
230
330
17
100
AcDbEntity
  8
0
100
AcDbPoint
 10
-88.77801192367163
 20
33.965056823302255
 30
0.0
  0
POINT
  5
231
330
17
100
AcDbEntity
  8
0
100
AcDbPoint
 10
-88.69396027247844
 20
34.38131142728446
 30
0.0
  0
POINT
  5
232
330
17
100
AcDbEntity
  8
0
100
AcDbPoint
 10
-88.60762329603851
 20
34.79710832682342
 30
0.0
  0
POINT
  5
233
330
17
100
AcDbEntity
  8
0
100
AcDbPoint
 10
-88.51741633099675
 20
35.2120790552473
 30
0.0
  0
POINT
  5
234
330
17
100
AcDbEntity
  8
0
100
AcDbPoint
 10
-88.42374179795893
 20
35.62627924030979
 30
0.0
  0
POINT
  5
235
330
17
100
AcDbEntity
  8
0
100
AcDbPoint
 10
-88.32781011005396
 20
36.039953628871594
 30
0.0
  0
POINT
  5
236
330
17
100
AcDbEntity
  8
0
100
AcDbPoint
 10
-88.22965777626753
 20
36.45311101992779
 30
0.0
  0
POINT
  5
237
330
17
100
AcDbEntity
  8
0
100
AcDbPoint
 10
-88.12857737586668
 20
36.865567304744026
 30
0.0
  0
POINT
  5
238
330
17
100
AcDbEntity
  8
0
100
AcDbPoint
 10
-88.02410756532508
 20
37.27717847926922
 30
0.0
  0
POINT
  5
239
330
17
100
AcDbEntity
  8
0
100
AcDbPoint
 10
-87.91646396523403
 20
37.687962795898606
 30
0.0
  0
POINT
  5
23A
330
17
100
AcDbEntity
  8
0
100
AcDbPoint
 10
-87.80642270126783
 20
38.09810767843678
 30
0.0
  0
POINT
  5
23B
330
17
100
AcDbEntity
  8
0
100
AcDbPoint
 10
-87.6942320383127
 20
38.507677717831015
 30
0.0
  0
POINT
  5
23C
330
17
100
AcDbEntity
  8
0
100
AcDbPoint
 10
-87.5791954818319
 20
38.916462884970905
 30
0.0
  0
POINT
  5
23D
330
17
100
AcDbEntity
  8
0
100
AcDbPoint
 10
-87.46017261629646
 20
39.32409846027755
 30
0.0
  0
POINT
  5
23E
330
17
100
AcDbEntity
  8
0
100
AcDbPoint
 10
-87.33835328789871
 20
39.730902027175574
 30
0.0
  0
POINT
  5
23F
330
17
100
AcDbEntity
  8
0
100
AcDbPoint
 10
-87.21467570626733
 20
40.13714340892648
 30
0.0
  0
POINT
  5
240
330
17
100
AcDbEntity
  8
0
100
AcDbPoint
 10
-87.08868275864124
 20
40.542681999331265
 30
0.0
  0
POINT
  5
241
330
17
100
AcDbEntity
  8
0
100
AcDbPoint
 10
-86.95888799241884
 20
40.94701770475289
 30
0.0
  0
POINT
  5
242
330
17
100
AcDbEntity
  8
0
100
AcDbPoint
 10
-86.82581157854204
 20
41.350283139845935
 30
0.0
  0
POINT
  5
243
330
17
100
AcDbEntity
  8
0
100
AcDbPoint
 10
-86.69051630204493
 20
41.75280064561414
 30
0.0
  0
POINT
  5
244
330
17
100
AcDbEntity
  8
0
100
AcDbPoint
 10
-86.5530474847919
 20
42.154585417966445
 30
0.0
  0
POINT
  5
245
330
17
100
AcDbEntity
  8
0
100
AcDbPoint
 10
-86.41267350550315
 20
42.55537027589977
 30
0.0
  0
POINT
  5
246
330
17
100
AcDbEntity
  8
0
100
AcDbPoint
 10
-86.26898008630297
 20
42.954976923343324
 30
0.0
  0
POINT
  5
247
330
17
100
AcDbEntity
  8
0
100
AcDbPoint
 10
-86.12223574832285
 20
43.353465004791495
 30
0.0
  0
POINT
  5
248
330
17
100
AcDbEntity
  8
0
100
AcDbPoint
 10
-85.9732232732202
 20
43.751107029672575
 30
0.0
  0
POINT
  5
249
330
17
100
AcDbEntity
  8
0
100
AcDbPoint
 10
-85.82207515388515
 20
44.147950734530546
 30
0.0
  0
POINT
  5
24A
330
17
100
AcDbEntity
  8
0
100
AcDbPoint
 10
-85.66802473635492
 20
44.54368096402882
 30
0.0
  0
POINT
  5
24B
330
17
100
AcDbEntity
  8
0
100
AcDbPoint
 10
-85.51013913490519
 20
44.93789085579712
 30
0.0
  0
POINT
  5
24C
330
17
100
AcDbEntity
  8
0
100
AcDbPoint
 10
-85.34965894312693
 20
45.331045369281576
 30
0.0
  0
POINT
  5
24D
330
17
100
AcDbEntity
  8
0
100
AcDbPoint
 10
-85.18739778719905
 20
45.723469111278696
 30
0.0
  0
POINT
  5
24E
330
17
100
AcDbEntity
  8
0
100
AcDbPoint
 10
-85.0227969960566
 20
46.11492623313783
 30
0.0
  0
POINT
  5
24F
330
17
100
AcDbEntity
  8
0
100
AcDbPoint
 10
-84.85431541689397
 20
46.50472645880969
 30
0.0
  0
POINT
  5
250
330
17
100
AcDbEntity
  8
0
100
AcDbPoint
 10
-84.68276070948849
 20
46.89318121104658
 30
0.0
  0
POINT
  5
251
330
17
100
AcDbEntity
  8
0
100
AcDbPoint
 10
-84.50919350620879
 20
47.280731739338684
 30
0.0
  0
POINT
  5
252
330
17
100
AcDbEntity
  8
0
100
AcDbPoint
 10
-84.33348905757451
 20
47.667323967797955
 30
0.0
  0
POINT
  5
253
330
17
100
AcDbEntity
  8
0
100
AcDbPoint
 10
-84.15475273421906
 20
48.05252902261226
 30
0.0
  0
POINT
  5
254
330
17
100
AcDbEntity
  8
0
100
AcDbPoint
 10
-83.97276179289155
 20
48.436206409860254
 30
0.0
  0
POINT
  5
255
330
17
100
AcDbEntity
  8
0
100
AcDbPoint
 10
-83.7880059541629
 20
48.81855091717178
 30
0.0
  0
POINT
  5
256
330
17
100
AcDbEntity
  8
0
100
AcDbPoint
 10
-83.60112140090564
 20
49.19985741810967
 30
0.0
  0
POINT
  5
257
330
17
100
AcDbEntity
  8
0
100
AcDbPoint
 10
-83.41197651145914
 20
49.58005663954193
 30
0.0
  0
POINT
  5
258
330
17
100
AcDbEntity
  8
0
100
AcDbPoint
 10
-83.21983710668489
 20
49.95875445673371
 30
0.0
  0
POINT
  5
259
330
17
100
AcDbEntity
  8
0
100
AcDbPoint
 10
-83.02417776693723
 20
50.33563968254127
 30
0.0
  0
POINT
  5
25A
330
17
100
AcDbEntity
  8
0
100
AcDbPoint
 10
-82.82611894058192
 20
50.71126164774988
 30
0.0
  0
POINT
  5
25B
330
17
100
AcDbEntity
  8
0
100
AcDbPoint
 10
-82.62634823703401
 20
51.08598147000011
 30
0.0
  0
POINT
  5
25C
330
17
100
AcDbEntity
  8
0
100
AcDbPoint
 10
-82.42418992029734
 20
51.45942691476658
 30
0.0
  0
POINT
  5
25D
330
17
100
AcDbEntity
  8
0
100
AcDbPoint
 10
-82.21798490623497
 20
51.83064985443472
 30
0.0
  0
POINT
  5
25E
330
17
100
AcDbEntity
  8
0
100
AcDbPoint
 10
-82.00898840117068
 20
52.200304648561165
 30
0.0
  0
POINT
  5
25F
330
17
100
AcDbEntity
  8
0
100
AcDbPoint
 10
-81.79827446994038
 20
52.56897375188255
 30
0.0
  0
POINT
  5
260
330
17
100
AcDbEntity
  8
0
100
AcDbPoint
 10
-81.58542219518758
 20
52.936421179828216
 30
0.0
  0
POINT
  5
261
330
17
100
AcDbEntity
  8
0
100
AcDbPoint
 10
-81.36933026505925
 20
53.30197657552452
 30
0.0
  0
POINT
  5
262
330
17
100
AcDbEntity
  8
0
100
AcDbPoint
 10
-81.15011865314766
 20
53.665668409738885
 30
0.0
  0
POINT
  5
263
330
17
100
AcDbEntity
  8
0
100
AcDbPoint
 10
-80.9285311062242
 20
54.02790680860435
 30
0.0
  0
POINT
  5
264
330
17
100
AcDbEntity
  8
0
100
AcDbPoint
 10
-80.70493525989154
 20
54.38890980179324
 30
0.0
  0
POINT
  5
265
330
17
100
AcDbEntity
  8
0
100
AcDbPoint
 10
-80.47888260654679
 20
54.74838838644671
 30
0.0
  0
POINT
  5
266
330
17
100
AcDbEntity
  8
0
100
AcDbPoint
 10
-80.24980071635358
 20
55.1059464955189
 30
0.0
  0
POINT
  5
267
330
17
100
AcDbEntity
  8
0
100
AcDbPoint
 10
-80.0176362659936
 20
55.46150323487215
 30
0.0
  0
POINT
  5
268
330
17
100
AcDbEntity
  8
0
100
AcDbPoint
 10
-79.78331688830842
 20
55.81563645516132
 30
0.0
  0
POINT
  5
269
330
17
100
AcDbEntity
  8
0
100
AcDbPoint
 10
-79.54718547538279
 20
56.1685723255472
 30
0.0
  0
POINT
  5
26A
330
17
100
AcDbEntity
  8
0
100
AcDbPoint
 10
-79.30850656448968
 20
56.51979729873399
 30
0.0
  0
POINT
  5
26B
330
17
100
AcDbEntity
  8
0
100
AcDbPoint
 10
-79.06611733120563
 20
56.868468814953886
 30
0.0
  0
POINT
  5
26C
330
17
100
AcDbEntity
  8
0
100
AcDbPoint
 10
-78.82127031796013
 20
57.215412122434415
 30
0.0
  0
POINT
  5
26D
330
17
100
AcDbEntity
  8
0
100
AcDbPoint
 10
-78.57481973214522
 20
57.56121341323507
 30
0.0
  0
POINT
  5
26E
330
17
100
AcDbEntity
  8
0
100
AcDbPoint
 10
-78.3262699157515
 20
57.90551960251519
 30
0.0
  0
POINT
  5
26F
330
17
100
AcDbEntity
  8
0
100
AcDbPoint
 10
-78.0743115861783
 20
58.24734120199674
 30
0.0
  0
POINT
  5
270
330
17
100
AcDbEntity
  8
0
100
AcDbPoint
 10
-77.81949286447177
 20
58.58703420316198
 30
0.0
  0
POINT
  5
271
330
17
100
AcDbEntity
  8
0
100
AcDbPoint
 10
-77.56274322262087
 20
58.92525739486774
 30
0.0
  0
POINT
  5
272
330
17
100
AcDbEntity
  8
0
100
AcDbPoint
 10
-77.30409120348297
 20
59.26203288994964
 30
0.0
  0
POINT
  5
273
330
17
100
AcDbEntity
  8
0
100
AcDbPoint
 10
-77.04280733719297
 20
59.596778959767356
 30
0.0
  0
POINT
  5
274
330
17
100
AcDbEntity
  8
0
100
AcDbPoint
 10
-76.77859959228725
 20
59.929223959313305
 30
0.0
  0
POINT
  5
275
330
17
100
AcDbEntity
  8
0
100
AcDbPoint
 10
-76.51182523409126
 20
60.25960282214381
 30
0.0
  0
POINT
  5
276
330
17
100
AcDbEntity
  8
0
100
AcDbPoint
 10
-76.2431388452057
 20
60.5884240569261
 30
0.0
  0
POINT
  5
277
330
17
100
AcDbEntity
  8
0
100
AcDbPoint
 10
-75.97250609093524
 20
60.91565513006943
 30
0.0
  0
POINT
  5
278
330
17
100
AcDbEntity
  8
0
100
AcDbPoint
 10
-75.69926810640628
 20
61.240720132058286
 30
0.0
  0
POINT
  5
279
330
17
100
AcDbEntity
  8
0
100
AcDbPoint
 10
-75.42285735957203
 20
61.56308754119148
 30
0.0
  0
POINT
  5
27A
330
17
100
AcDbEntity
  8
0
100
AcDbPoint
 10
-75.14429905861662
 20
61.88359164282198
 30
0.0
  0
POINT
  5
27B
330
17
100
AcDbEntity
  8
0
100
AcDbPoint
 10
-74.86424126650795
 20
62.20278887224219
 30
0.0
  0
POINT
  5
27C
330
17
100
AcDbEntity
  8
0
100
AcDbPoint
 10
-74.58214353902751
 20
62.52019579148094
 30
0.0
  0
POINT
  5
27D
330
17
100
AcDbEntity
  8
0
100
AcDbPoint
 10
-74.29657298113734
 20
62.83448247418144
 30
0.0
  0
POINT
  5
27E
330
17
100
AcDbEntity
  8
0
100
AcDbPoint
 10
-74.00851408514846
 20
63.146487609083735
 30
0.0
  0
POINT
  5
27F
330
17
100
AcDbEntity
  8
0
100
AcDbPoint
 10
-73.71893861906194
 20
63.45707121381585
 30
0.0
  0
POINT
  5
280
330
17
100
AcDbEntity
  8
0
100
AcDbPoint
 10
-73.42754737943633
 20
63.76596146343308
 30
0.0
  0
POINT
  5
281
330
17
100
AcDbEntity
  8
0
100
AcDbPoint
 10
-73.13342771920573
 20
64.07226255398078
 30
0.0
  0
POINT
  5
282
330
17
100
AcDbEntity
  8
0
100
AcDbPoint
 10
-72.8366173971226
 20
64.375958570392
 30
0.0
  0
POINT
  5
283
330
17
100
AcDbEntity
  8
0
100
AcDbPoint
 10
-72.53773493944341
 20
64.67760226479479
 30
0.0
  0
POINT
  5
284
330
17
100
AcDbEntity
  8
0
100
AcDbPoint
 10
-72.23714078141631
 20
64.9775392722981
 30
0.0
  0
POINT
  5
285
330
17
100
AcDbEntity
  8
0
100
AcDbPoint
 10
-71.93451385198269
 20
65.27543650852964
 30
0.0
  0
POINT
  5
286
330
17
100
AcDbEntity
  8
0
100
AcDbPoint
 10
-71.6293547675635
 20
65.5707453310585
 30
0.0
  0
POINT
  5
287
330
17
100
AcDbEntity
  8
0
100
AcDbPoint
 10
-71.32155131643447
 20
65.86329049947733
 30
0.0
  0
POINT
  5
288
330
17
100
AcDbEntity
  8
0
100
AcDbPoint
 10
-71.01190402584675
 20
66.15387350816567
 30
0.0
  0
POINT
  5
289
330
17
100
AcDbEntity
  8
0
100
AcDbPoint
 10
-70.70077671981632
 20
66.4428791003611
 30
0.0
  0
POINT
  5
28A
330
17
100
AcDbEntity
  8
0
100
AcDbPoint
 10
-70.38759368447327
 20
66.72966619110062
 30
0.0
  0
POINT
  5
28B
330
17
100
AcDbEntity
  8
0
100
AcDbPoint
 10
-70.07128603481753
 20
67.01300457394989
 30
0.0
  0
POINT
  5
28C
330
17
100
AcDbEntity
  8
0
100
AcDbPoint
 10
-69.75288901584814
 20
67.2939868712257
 30
0.0
  0
POINT
  5
28D
330
17
100
AcDbEntity
  8
0
100
AcDbPoint
 10
-69.43316601863835
 20
67.57344819889902
 30
0.0
  0
POINT
  5
28E
330
17
100
AcDbEntity
  8
0
100
AcDbPoint
 10
-69.11173757370108
 20
67.85095920327974
 30
0.0
  0
POINT
  5
28F
330
17
100
AcDbEntity
  8
0
100
AcDbPoint
 10
-68.78760658919286
 20
68.12531633554269
 30
0.0
  0
POINT
  5
290
330
17
100
AcDbEntity
  8
0
100
AcDbPoint
 10
-68.46110273499009
 20
68.39684670451778
 30
0.0
  0
POINT
  5
291
330
17
100
AcDbEntity
  8
0
100
AcDbPoint
 10
-68.1329469610091
 20
68.66636128169156
 30
0.0
  0
POINT
  5
292
330
17
100
AcDbEntity
  8
0
100
AcDbPoint
 10
-67.80324768391303
 20
68.93398857983433
 30
0.0
  0
POINT
  5
293
330
17
100
AcDbEntity
  8
0
100
AcDbPoint
 10
-67.47152533349112
 20
69.19911734280853
 30
0.0
  0
POINT
  5
294
330
17
100
AcDbEntity
  8
0
100
AcDbPoint
 10
-67.13747002805317
 20
69.46130683939036
 30
0.0
  0
POINT
  5
295
330
17
100
AcDbEntity
  8
0
100
AcDbPoint
 10
-66.8012483336381
 20
69.72070302350913
 30
0.0
  0
POINT
  5
296
330
17
100
AcDbEntity
  8
0
100
AcDbPoint
 10
-66.46345752035604
 20
69.97804355875503
 30
0.0
  0
POINT
  5
297
330
17
100
AcDbEntity
  8
0
100
AcDbPoint
 10
-66.12421964592833
 20
70.23348503616735
 30
0.0
  0
POINT
  5
298
330
17
100
AcDbEntity
  8
0
100
AcDbPoint
 10
-65.78300206138228
 20
70.48628649895156
 30
0.0
  0
POINT
  5
299
330
17
100
AcDbEntity
  8
0
100
AcDbPoint
 10
-65.43915650801942
 20
70.7355038840239
 30
0.0
  0
POINT
  5
29A
330
17
100
AcDbEntity
  8
0
100
AcDbPoint
 10
-65.09357736212267
 20
70.98230144501866
 30
0.0
  0
POINT
  5
29B
330
17
100
AcDbEntity
  8
0
100
AcDbPoint
 10
-64.74681398111424
 20
71.22742628158271
 30
0.0
  0
POINT
  5
29C
330
17
100
AcDbEntity
  8
0
100
AcDbPoint
 10
-64.39848875734869
 20
71.47034122069466
 30
0.0
  0
POINT
  5
29D
330
17
100
AcDbEntity
  8
0
100
AcDbPoint
 10
-64.04765175563062
 20
71.70962373872283
 30
0.0
  0
POINT
  5
29E
330
17
100
AcDbEntity
  8
0
100
AcDbPoint
 10
-63.69482351368315
 20
71.9459608466822
 30
0.0
  0
POINT
  5
29F
330
17
100
AcDbEntity
  8
0
100
AcDbPoint
 10
-63.34067298901354
 20
72.18029109060951
 30
0.0
  0
POINT
  5
2A0
330
17
100
AcDbEntity
  8
0
100
AcDbPoint
 10
-62.985148779307224
 20
72.41253870021266
 30
0.0
  0
POINT
  5
2A1
330
17
100
AcDbEntity
  8
0
100
AcDbPoint
 10
-62.62775309591148
 20
72.641911971476
 30
0.0
  0
POINT
  5
2A2
330
17
100
AcDbEntity
  8
0
100
AcDbPoint
 10
-62.26832990380623
 20
72.86810167232359
 30
0.0
  0
POINT
  5
2A3
330
17
100
AcDbEntity
  8
0
100
AcDbPoint
 10
-61.907144991674365
 20
73.09145536634612
 30
0.0
  0
POINT
  5
2A4
330
17
100
AcDbEntity
  8
0
100
AcDbPoint
 10
-61.544637653689925
 20
73.31264751186463
 30
0.0
  0
POINT
  5
2A5
330
17
100
AcDbEntity
  8
0
100
AcDbPoint
 10
-61.180821552228466
 20
73.53169589344915
 30
0.0
  0
POINT
  5
2A6
330
17
100
AcDbEntity
  8
0
100
AcDbPoint
 10
-60.81523213823578
 20
73.74778270802965
 30
0.0
  0
POINT
  5
2A7
330
17
100
AcDbEntity
  8
0
100
AcDbPoint
 10
-60.44746444059202
 20
73.96014523147161
 30
0.0
  0
POINT
  5
2A8
330
17
100
AcDbEntity
  8
0
100
AcDbPoint
 10
-60.07828817639306
 20
74.17003510933827
 30
0.0
  0
POINT
  5
2A9
330
17
100
AcDbEntity
  8
0
100
AcDbPoint
 10
-59.70809493150566
 20
74.37812307983448
 30
0.0
  0
POINT
  5
2AA
330
17
100
AcDbEntity
  8
0
100
AcDbPoint
 10
-59.336515536140865
 20
74.58374122995585
 30
0.0
  0
POINT
  5
2AB
330
17
100
AcDbEntity
  8
0
100
AcDbPoint
 10
-58.962778902564644
 20
74.78542694784302
 30
0.0
  0
POINT
  5
2AC
330
17
100
AcDbEntity
  8
0
100
AcDbPoint
 10
-58.58743739823017
 20
74.98410819221843
 30
0.0
  0
POINT
  5
2AD
330
17
100
AcDbEntity
  8
0
100
AcDbPoint
 10
-58.21100761938828
 20
75.18069572441625
 30
0.0
  0
POINT
  5
2AE
330
17
100
AcDbEntity
  8
0
100
AcDbPoint
 10
-57.833397551568744
 20
75.37501532191416
 30
0.0
  0
POINT
  5
2AF
330
17
100
AcDbEntity
  8
0
100
AcDbPoint
 10
-57.454208394619144
 20
75.56625622542028
 30
0.0
  0
POINT
  5
2B0
330
17
100
AcDbEntity
  8
0
100
AcDbPoint
 10
-57.07334527119458
 20
75.7541484309205
 30
0.0
  0
POINT
  5
2B1
330
17
100
AcDbEntity
  8
0
100
AcDbPoint
 10
-56.69103815000342
 20
75.9390718703889
 30
0.0
  0
POINT
  5
2B2
330
17
100
AcDbEntity
  8
0
100
AcDbPoint
 10
-56.307646811136124
 20
76.12172557437968
 30
0.0
  0
POINT
  5
2B3
330
17
100
AcDbEntity
  8
0
100
AcDbPoint
 10
-55.923194784442536
 20
76.30215637256657
 30
0.0
  0
POINT
  5
2B4
330
17
100
AcDbEntity
  8
0
100
AcDbPoint
 10
-55.53725780031757
 20
76.47940005556491
 30
0.0
  0
POINT
  5
2B5
330
17
100
AcDbEntity
  8
0
100
AcDbPoint
 10
-55.14952858715407
 20
76.6526995260109
 30
0.0
  0
POINT
  5
2B6
330
17
100
AcDbEntity
  8
0
100
AcDbPoint
 10
-54.76070272394352
 20
76.82350401905246
 30
0.0
  0
POINT
  5
2B7
330
17
100
AcDbEntity
  8
0
100
AcDbPoint
 10
-54.37104139641671
 20
76.99238845580737
 30
0.0
  0
POINT
  5
2B8
330
17
100
AcDbEntity
  8
0
100
AcDbPoint
 10
-53.98021946690924
 20
77.15858698518814
 30
0.0
  0
POINT
  5
2B9
330
17
100
AcDbEntity
  8
0
100
AcDbPoint
 10
-53.58772876023469
 20
77.32082973067645
 30
0.0
  0
POINT
  5
2BA
330
17
100
AcDbEntity
  8
0
100
AcDbPoint
 10
-53.19397992275923
 20
77.4799896587837
 30
0.0
  0
POINT
  5
2BB
330
17
100
AcDbEntity
  8
0
100
AcDbPoint
 10
-52.79931187508433
 20
77.63683012726443
 30
0.0
  0
POINT
  5
2BC
330
17
100
AcDbEntity
  8
0
100
AcDbPoint
 10
-52.403701489562316
 20
77.79128537257262
 30
0.0
  0
POINT
  5
2BD
330
17
100
AcDbEntity
  8
0
100
AcDbPoint
 10
-52.00691768718841
 20
77.9427290907827
 30
0.0
  0
POINT
  5
2BE
330
17
100
AcDbEntity
  8
0
100
AcDbPoint
 10
-51.60881606476879
 20
78.0906824731395
 30
0.0
  0
POINT
  5
2BF
330
17
100
AcDbEntity
  8
0
100
AcDbPoint
 10
-51.20952578864035
 20
78.23538888615236
 30
0.0
  0
POINT
  5
2C0
330
17
100
AcDbEntity
  8
0
100
AcDbPoint
 10
-50.809403019658525
 20
78.37775649875364
 30
0.0
  0
POINT
  5
2C1
330
17
100
AcDbEntity
  8
0
100
AcDbPoint
 10
-50.40855384402832
 20
78.51809086527894
 30
0.0
  0
POINT
  5
2C2
330
17
100
AcDbEntity
  8
0
100
AcDbPoint
 10
-50.00654093285863
 20
78.65506676856968
 30
0.0
  0
POINT
  5
2C3
330
17
100
AcDbEntity
  8
0
100
AcDbPoint
 10
-49.6030764165569
 20
78.78773975483463
 30
0.0
  0
POINT
  5
2C4
330
17
100
AcDbEntity
  8
0
100
AcDbPoint
 10
-49.19882317437539
 20
78.91795631719768
 30
0.0
  0
POINT
  5
2C5
330
17
100
AcDbEntity
  8
0
100
AcDbPoint
 10
-48.79392124068768
 20
79.04612207405825
 30
0.0
  0
POINT
  5
2C6
330
17
100
AcDbEntity
  8
0
100
AcDbPoint
 10
-48.38814061598431
 20
79.17150153609447
 30
0.0
  0
POINT
  5
2C7
330
17
100
AcDbEntity
  8
0
100
AcDbPoint
 10
-47.98124237605551
 20
79.29324032334983
 30
0.0
  0
POINT
  5
2C8
330
17
100
AcDbEntity
  8
0
100
AcDbPoint
 10
-47.573372507624235
 20
79.41167779832456
 30
0.0
  0
POINT
  5
2C9
330
17
100
AcDbEntity
  8
0
100
AcDbPoint
 10
-47.1647316857393
 20
79.5274015453626
 30
0.0
  0
POINT
  5
2CA
330
17
100
AcDbEntity
  8
0
100
AcDbPoint
 10
-46.75543027383297
 20
79.64076318386692
 30
0.0
  0
POINT
  5
2CB
330
17
100
AcDbEntity
  8
0
100
AcDbPoint
 10
-46.34540887614681
 20
79.75152974407563
 30
0.0
  0
POINT
  5
2CC
330
17
100
AcDbEntity
  8
0
100
AcDbPoint
 10
-45.93438755545623
 20
79.85853805393522
 30
0.0
  0
POINT
  5
2CD
330
17
100
AcDbEntity
  8
0
100
AcDbPoint
 10
-45.52242645810078
 20
79.9618862852921
 30
0.0
  0
POINT
  5
2CE
330
17
100
AcDbEntity
  8
0
100
AcDbPoint
 10
-45.10991603335924
 20
80.06297236576083
 30
0.0
  0
POINT
  5
2CF
330
17
100
AcDbEntity
  8
0
100
AcDbPoint
 10
-44.69688061868287
 20
80.16190141412363
 30
0.0
  0
POINT
  5
2D0
330
17
100
AcDbEntity
  8
0
100
AcDbPoint
 10
-44.28307346062944
 20
80.25757751706784
 30
0.0
  0
POINT
  5
2D1
330
17
100
AcDbEntity
  8
0
100
AcDbPoint
 10
-43.86837540147859
 20
80.34936347565811
 30
0.0
  0
POINT
  5
2D2
330
17
100
AcDbEntity
  8
0
100
AcDbPoint
 10
-43.4530544511948
 20
80.43825344618436
 30
0.0
  0
POINT
  5
2D3
330
17
100
AcDbEntity
  8
0
100
AcDbPoint
 10
-43.03722023858515
 20
80.52467812093424
 30
0.0
  0
POINT
  5
2D4
330
17
100
AcDbEntity
  8
0
100
AcDbPoint
 10
-42.62086526412158
 20
80.60857711379234
 30
0.0
  0
POINT
  5
2D5
330
17
100
AcDbEntity
  8
0
100
AcDbPoint
 10
-42.203907081855576
 20
80.68947019507853
 30
0.0
  0
POINT
  5
2D6
330
17
100
AcDbEntity
  8
0
100
AcDbPoint
 10
-41.78622251750835
 20
80.76653780529249
 30
0.0
  0
POINT
  5
2D7
330
17
100
AcDbEntity
  8
0
100
AcDbPoint
 10
-41.36796776895188
 20
80.84044057902823
 30
0.0
  0
POINT
  5
2D8
330
17
100
AcDbEntity
  8
0
100
AcDbPoint
 10
-40.949340980317515
 20
80.91215644450114
 30
0.0
  0
POINT
  5
2D9
330
17
100
AcDbEntity
  8
0
100
AcDbPoint
 10
-40.53031982387232
 20
80.98156119469826
 30
0.0
  0
POINT
  5
2DA
330
17
100
AcDbEntity
  8
0
100
AcDbPoint
 10
-40.1106991420879
 20
81.04728489673074
 30
0.0
  0
POINT
  5
2DB
330
17
100
AcDbEntity
  8
0
100
AcDbPoint
 10
-39.69050598495168
 20
81.109299640631
 30
0.0
  0
POINT
  5
2DC
330
17
100
AcDbEntity
  8
0
100
AcDbPoint
 10
-39.2699476077653
 20
81.16870754951107
 30
0.0
  0
POINT
  5
2DD
330
17
100
AcDbEntity
  8
0
100
AcDbPoint
 10
-38.84905512757452
 20
81.22566915269675
 30
0.0
  0
POINT
  5
2DE
330
17
100
AcDbEntity
  8
0
100
AcDbPoint
 10
-38.427809889102825
 20
81.28000828992103
 30
0.0
  0
POINT
  5
2DF
330
17
100
AcDbEntity
  8
0
100
AcDbPoint
 10
-38.006158225197346
 20
81.33114796983398
 30
0.0
  0
POINT
  5
2E0
330
17
100
AcDbEntity
  8
0
100
AcDbPoint
 10
-37.584058371179474
 20
81.37847101779344
 30
0.0
  0
POINT
  5
2E1
330
17
100
AcDbEntity
  8
0
100
AcDbPoint
 10
-37.161657776045125
 20
81.42298275818393
 30
0.0
  0
POINT
  5
2E2
330
17
100
AcDbEntity
  8
0
100
AcDbPoint
 10
-36.739042814642794
 20
81.46535076111931
 30
0.0
  0
POINT
  5
2E3
330
17
100
AcDbEntity
  8
0
100
AcDbPoint
 10
-36.316174866671
 20
81.50515914218867
 30
0.0
  0
POINT
  5
2E4
330
17
100
AcDbEntity
  8
0
100
AcDbPoint
 10
-35.89295997577229
 20
81.5411908203708
 30
0.0
  0
POINT
  5
2E5
330
17
100
AcDbEntity
  8
0
100
AcDbPoint
 10
-35.46946934658724
 20
81.57386320909816
 30
0.0
  0
POINT
  5
2E6
330
17
100
AcDbEntity
  8
0
100
AcDbPoint
 10
-35.04579572764716
 20
81.60392289690434
 30
0.0
  0
POINT
  5
2E7
330
17
100
AcDbEntity
  8
0
100
AcDbPoint
 10
-34.6219569588037
 20
81.63150890388721
 30
0.0
  0
POINT
  5
2E8
330
17
100
AcDbEntity
  8
0
100
AcDbPoint
 10
-34.197958697717425
 20
81.65663184726536
 30
0.0
  0
POINT
  5
2E9
330
17
100
AcDbEntity
  8
0
100
AcDbPoint
 10
-33.773772057831025
 20
81.67840195142581
 30
0.0
  0
POINT
  5
2EA
330
17
100
AcDbEntity
  8
0
100
AcDbPoint
 10
-33.34939807259619
 20
81.69630050477721
 30
0.0
  0
POINT
  5
2EB
330
17
100
AcDbEntity
  8
0
100
AcDbPoint
 10
-32.9249353862948
 20
81.71171005589977
 30
0.0
  0
POINT
  5
2EC
330
17
100
AcDbEntity
  8
0
100
AcDbPoint
 10
-32.5004050597429
 20
81.72493174756522
 30
0.0
  0
POINT
  5
2ED
330
17
100
AcDbEntity
  8
0
100
AcDbPoint
 10
-32.075794299904686
 20
81.73541168411585
 30
0.0
  0
POINT
  5
2EE
330
17
100
AcDbEntity
  8
0
100
AcDbPoint
 10
-31.65110466708678
 20
81.74247199221223
 30
0.0
  0
POINT
  5
2EF
330
17
100
AcDbEntity
  8
0
100
AcDbPoint
 10
-31.226373715741797
 20
81.7462626063897
 30
0.0
  0
POINT
  5
2F0
330
17
100
AcDbEntity
  8
0
100
AcDbPoint
 10
-30.80163363106658
 20
81.74724156826309
 30
0.0
  0
POINT
  5
2F1
330
17
100
AcDbEntity
  8
0
100
AcDbPoint
 10
-30.376899261279835
 20
81.74589174177895
 30
0.0
  0
POINT
  5
2F2
330
17
100
AcDbEntity
  8
0
100
AcDbPoint
 10
-29.952174442986973
 20
81.74232454950415
 30
0.0
  0
POINT
  5
2F3
330
17
100
AcDbEntity
  8
0
100
AcDbPoint
 10
-29.52749121659505
 20
81.73517386795766
 30
0.0
  0
POINT
  5
2F4
330
17
100
AcDbEntity
  8
0
100
AcDbPoint
 10
-29.102877159314755
 20
81.72433081295766
 30
0.0
  0
POINT
  5
2F5
330
17
100
AcDbEntity
  8
0
100
AcDbPoint
 10
-28.678342858408946
 20
81.71112432794808
 30
0.0
  0
POINT
  5
2F6
330
17
100
AcDbEntity
  8
0
100
AcDbPoint
 10
-28.253897002495677
 20
81.69550835748022
 30
0.0
  0
POINT
  5
2F7
330
17
100
AcDbEntity
  8
0
100
AcDbPoint
 10
-27.829546131628366
 20
81.67740234849975
 30
0.0
  0
POINT
  5
2F8
330
17
100
AcDbEntity
  8
0
100
AcDbPoint
 10
-27.405325321623287
 20
81.65640456242984
 30
0.0
  0
POINT
  5
2F9
330
17
100
AcDbEntity
  8
0
100
AcDbPoint
 10
-26.981302289025205
 20
81.63166859438152
 30
0.0
  0
POINT
  5
2FA
330
17
100
AcDbEntity
  8
0
100
AcDbPoint
 10
-26.55745559616227
 20
81.60412557679116
 30
0.0
  0
POINT
  5
2FB
330
17
100
AcDbEntity
  8
0
100
AcDbPoint
 10
-26.133765719224588
 20
81.57442305066579
 30
0.0
  0
POINT
  5
2FC
330
17
100
AcDbEntity
  8
0
100
AcDbPoint
 10
-25.710255182447657
 20
81.54226334690088
 30
0.0
  0
POINT
  5
2FD
330
17
100
AcDbEntity
  8
0
100
AcDbPoint
 10
-25.286974958833266
 20
81.5071354465612
 30
0.0
  0
POINT
  5
2FE
330
17
100
AcDbEntity
  8
0
100
AcDbPoint
 10
-24.863975366502064
 20
81.4687526640396
 30
0.0
  0
POINT
  5
2FF
330
17
100
AcDbEntity
  8
0
100
AcDbPoint
 10
-24.441266006115846
 20
81.42732809609372
 30
0.0
  0
POINT
  5
300
330
17
100
AcDbEntity
  8
0
100
AcDbPoint
 10
-24.01880465533312
 20
81.38352601774335
 30
0.0
  0
POINT
  5
301
330
17
100
AcDbEntity
  8
0
100
AcDbPoint
 10
-23.59657996095135
 20
81.33752671438157
 30
0.0
  0
POINT
  5
302
330
17
100
AcDbEntity
  8
0
100
AcDbPoint
 10
-23.17466269264733
 20
81.28877607927143
 30
0.0
  0
POINT
  5
303
330
17
100
AcDbEntity
  8
0
100
AcDbPoint
 10
-22.75314200724213
 20
81.23665183237439
 30
0.0
  0
POINT
  5
304
330
17
100
AcDbEntity
  8
0
100
AcDbPoint
 10
-22.331996945158227
 20
81.18160357053874
 30
0.0
  0
POINT
  5
305
330
17
100
AcDbEntity
  8
0
100
AcDbPoint
 10
-21.91120064868666
 20
81.12401272126459
 30
0.0
  0
POINT
  5
306
330
17
100
AcDbEntity
  8
0
100
AcDbPoint
 10
-21.490726800384966
 20
81.06414675326235
 30
0.0
  0
POINT
  5
307
330
17
100
AcDbEntity
  8
0
100
AcDbPoint
 10
-21.070581376495497
 20
81.0020219593945
 30
0.0
  0
POINT
  5
308
330
17
100
AcDbEntity
  8
0
100
AcDbPoint
 10
-20.650925885334345
 20
80.93664915975826
 30
0.0
  0
POINT
  5
309
330
17
100
AcDbEntity
  8
0
100
AcDbPoint
 10
-20.231780012692795
 20
80.86805770863207
 30
0.0
  0
POINT
  5
30A
330
17
100
AcDbEntity
  8
0
100
AcDbPoint
 10
-19.81305711311341
 20
80.79699371572647
 30
0.0
  0
POINT
  5
30B
330
17
100
AcDbEntity
  8
0
100
AcDbPoint
 10
-19.394755202832656
 20
80.72353581054833
 30
0.0
  0
POINT
  5
30C
330
17
100
AcDbEntity
  8
0
100
AcDbPoint
 10
-18.976841785892255
 20
80.64790848783346
 30
0.0
  0
POINT
  5
30D
330
17
100
AcDbEntity
  8
0
100
AcDbPoint
 10
-18.55940267853014
 20
80.56971283961563
 30
0.0
  0
POINT
  5
30E
330
17
100
AcDbEntity
  8
0
100
AcDbPoint
 10
-18.142618863965026
 20
80.48806428987749
 30
0.0
  0
POINT
  5
30F
330
17
100
AcDbEntity
  8
0
100
AcDbPoint
 10
-17.726381745377996
 20
80.40369215804641
 30
0.0
  0
POINT
  5
310
330
17
100
AcDbEntity
  8
0
100
AcDbPoint
 10
-17.310633901791007
 20
80.31699927628031
 30
0.0
  0
POINT
  5
311
330
17
100
AcDbEntity
  8
0
100
AcDbPoint
 10
-16.89537854028392
 20
80.22800060286556
 30
0.0
  0
POINT
  5
312
330
17
100
AcDbEntity
  8
0
100
AcDbPoint
 10
-16.480593507083835
 20
80.13684594524621
 30
0.0
  0
POINT
  5
313
330
17
100
AcDbEntity
  8
0
100
AcDbPoint
 10
-16.066463090238496
 20
80.04276088329108
 30
0.0
  0
POINT
  5
314
330
17
100
AcDbEntity
  8
0
100
AcDbPoint
 10
-15.653056340100205
 20
79.94552718468904
 30
0.0
  0
POINT
  5
315
330
17
100
AcDbEntity
  8
0
100
AcDbPoint
 10
-15.240243648308391
 20
79.84584336518505
 30
0.0
  0
POINT
  5
316
330
17
100
AcDbEntity
  8
0
100
AcDbPoint
 10
-14.828004002765173
 20
79.7438534159885
 30
0.0
  0
POINT
  5
317
330
17
100
AcDbEntity
  8
0
100
AcDbPoint
 10
-14.416316393334485
 20
79.63967766042576
 30
0.0
  0
POINT
  5
318
330
17
100
AcDbEntity
  8
0
100
AcDbPoint
 10
-14.005224931053906
 20
79.53318751670653
 30
0.0
  0
POINT
  5
319
330
17
100
AcDbEntity
  8
0
100
AcDbPoint
 10
-13.594896427209008
 20
79.42378555618801
 30
0.0
  0
POINT
  5
31A
330
17
100
AcDbEntity
  8
0
100
AcDbPoint
 10
-13.185334059119914
 20
79.31155750206442
 30
0.0
  0
POINT
  5
31B
330
17
100
AcDbEntity
  8
0
100
AcDbPoint
 10
-12.776463787943008
 20
79.1968650794128
 30
0.0
  0
POINT
  5
31C
330
17
100
AcDbEntity
  8
0
100
AcDbPoint
 10
-12.368222528754433
 20
79.0799863826169
 30
0.0
  0
POINT
  5
31D
330
17
100
AcDbEntity
  8
0
100
AcDbPoint
 10
-11.960621209909046
 20
78.960919036841
 30
0.0
  0
POINT
  5
31E
330
17
100
AcDbEntity
  8
0
100
AcDbPoint
 10
-11.553705532432735
 20
78.8395376759839
 30
0.0
  0
POINT
  5
31F
330
17
100
AcDbEntity
  8
0
100
AcDbPoint
 10
-11.147579228584341
 20
78.71554447725582
 30
0.0
  0
POINT
  5
320
330
17
100
AcDbEntity
  8
0
100
AcDbPoint
 10
-10.742366502911393
 20
78.58860483256414
 30
0.0
  0
POINT
  5
321
330
17
100
AcDbEntity
  8
0
100
AcDbPoint
 10
-10.33791005987418
 20
78.45929919555863
 30
0.0
  0
POINT
  5
322
330
17
100
AcDbEntity
  8
0
100
AcDbPoint
 10
-9.934137836936948
 20
78.32791283537908
 30
0.0
  0
POINT
  5
323
330
17
100
AcDbEntity
  8
0
100
AcDbPoint
 10
-9.531099656737092
 20
78.19431178357858
 30
0.0
  0
POINT
  5
324
330
17
100
AcDbEntity
  8
0
100
AcDbPoint
 10
-9.128742108424714
 20
78.05868865275767
 30
0.0
  0
POINT
  5
325
330
17
100
AcDbEntity
  8
0
100
AcDbPoint
 10
-8.727291066819848
 20
77.92041570920867
 30
0.0
  0
POINT
  5
326
330
17
100
AcDbEntity
  8
0
100
AcDbPoint
 10
-8.326868378998602
 20
77.77918673098064
 30
0.0
  0
POINT
  5
327
330
17
100
AcDbEntity
  8
0
100
AcDbPoint
 10
-7.927238951326149
 20
77.63576310773938
 30
0.0
  0
POINT
  5
328
330
17
100
AcDbEntity
  8
0
100
AcDbPoint
 10
-7.528384261937344
 20
77.49023214634093
 30
0.0
  0
POINT
  5
329
330
17
100
AcDbEntity
  8
0
100
AcDbPoint
 10
-7.130327378681089
 20
77.34255534022735
 30
0.0
  0
POINT
  5
32A
330
17
100
AcDbEntity
  8
0
100
AcDbPoint
 10
-6.733072241311567
 20
77.19275560264683
 30
0.0
  0
POINT
  5
32B
330
17
100
AcDbEntity
  8
0
100
AcDbPoint
 10
-6.336661733647279
 20
77.04074543651693
 30
0.0
  0
POINT
  5
32C
330
17
100
AcDbEntity
  8
0
100
AcDbPoint
 10
-5.941277615139056
 20
76.88609609956269
 30
0.0
  0
POINT
  5
32D
330
17
100
AcDbEntity
  8
0
100
AcDbPoint
 10
-5.546943241316775
 20
76.72879912745744
 30
0.0
  0
POINT
  5
32E
330
17
100
AcDbEntity
  8
0
100
AcDbPoint
 10
-5.153434135886808
 20
76.56948343926638
 30
0.0
  0
POINT
  5
32F
330
17
100
AcDbEntity
  8
0
100
AcDbPoint
 10
-4.76077559316798
 20
76.40811253191218
 30
0.0
  0
POINT
  5
330
330
17
100
AcDbEntity
  8
0
100
AcDbPoint
 10
-4.368990729398841
 20
76.24465233333264
 30
0.0
  0
POINT
  5
331
330
17
100
AcDbEntity
  8
0
100
AcDbPoint
 10
-3.9780850928995704
 20
76.0791207546649
 30
0.0
  0
POINT
  5
332
330
17
100
AcDbEntity
  8
0
100
AcDbPoint
 10
-3.5881582316421765
 20
75.91130770478621
 30
0.0
  0
POINT
  5
333
330
17
100
AcDbEntity
  8
0
100
AcDbPoint
 10
-3.199328839804733
 20
75.74098027991563
 30
0.0
  0
POINT
  5
334
330
17
100
AcDbEntity
  8
0
100
AcDbPoint
 10
-2.811568028455727
 20
75.56825186125252
 30
0.0
  0
POINT
  5
335
330
17
100
AcDbEntity
  8
0
100
AcDbPoint
 10
-2.4247096292274493
 20
75.39354352658913
 30
0.0
  0
POINT
  5
336
330
17
100
AcDbEntity
  8
0
100
AcDbPoint
 10
-2.0387765956894723
 20
75.21682789054833
 30
0.0
  0
POINT
  5
337
330
17
100
AcDbEntity
  8
0
100
AcDbPoint
 10
-1.6537951377141764
 20
75.0380710623724
 30
0.0
  0
POINT
  5
338
330
17
100
AcDbEntity
  8
0
100
AcDbPoint
 10
-1.2697648731860425
 20
74.85730091694373
 30
0.0
  0
POINT
  5
339
330
17
100
AcDbEntity
  8
0
100
AcDbPoint
 10
-0.8867220767766415
 20
74.67446345621303
 30
0.0
  0
POINT
  5
33A
330
17
100
AcDbEntity
  8
0
100
AcDbPoint
 10
-0.5048623938424421
 20
74.4891823673795
 30
0.0
  0
POINT
  5
33B
330
17
100
AcDbEntity
  8
0
100
AcDbPoint
 10
-0.12418436322176071
 20
74.30149966888149
 30
0.0
  0
POINT
  5
33C
330
17
100
AcDbEntity
  8
0
100
AcDbPoint
 10
0.2555340942368752
 20
74.1119161004797
 30
0.0
  0
POINT
  5
33D
330
17
100
AcDbEntity
  8
0
100
AcDbPoint
 10
0.6342618967007317
 20
73.92038951542189
 30
0.0
  0
POINT
  5
33E
330
17
100
AcDbEntity
  8
0
100
AcDbPoint
 10
1.0119624310931643
 20
73.72686861929108
 30
0.0
  0
POINT
  5
33F
330
17
100
AcDbEntity
  8
0
100
AcDbPoint
 10
1.3886487801934264
 20
73.53140453940094
 30
0.0
  0
POINT
  5
340
330
17
100
AcDbEntity
  8
0
100
AcDbPoint
 10
1.7643316156722642
 20
73.33404016212268
 30
0.0
  0
POINT
  5
341
330
17
100
AcDbEntity
  8
0
100
AcDbPoint
 10
2.138847476380645
 20
73.13448704879372
 30
0.0
  0
POINT
  5
342
330
17
100
AcDbEntity
  8
0
100
AcDbPoint
 10
2.5121287480977528
 20
72.93264854762938
 30
0.0
  0
POINT
  5
343
330
17
100
AcDbEntity
  8
0
100
AcDbPoint
 10
2.884268129451983
 20
72.72873798497125
 30
0.0
  0
POINT
  5
344
330
17
100
AcDbEntity
  8
0
100
AcDbPoint
 10
3.255335738251116
 20
72.52291182786183
 30
0.0
  0
POINT
  5
345
330
17
100
AcDbEntity
  8
0
100
AcDbPoint
 10
3.625338788613039
 20
72.31520576949245
 30
0.0
  0
POINT
  5
346
330
17
100
AcDbEntity
  8
0
100
AcDbPoint
 10
3.994255208004108
 20
72.10560130215252
 30
0.0
  0
POINT
  5
347
330
17
100
AcDbEntity
  8
0
100
AcDbPoint
 10
4.362076232908676
 20
71.89410512198315
 30
0.0
  0
POINT
  5
348
330
17
100
AcDbEntity
  8
0
100
AcDbPoint
 10
4.728816414687272
 20
71.68076380835758
 30
0.0
  0
POINT
  5
349
330
17
100
AcDbEntity
  8
0
100
AcDbPoint
 10
5.094412406201893
 20
71.4654894381141
 30
0.0
  0
POINT
  5
34A
330
17
100
AcDbEntity
  8
0
100
AcDbPoint
 10
5.458752946035256
 20
71.2481147845845
 30
0.0
  0
POINT
  5
34B
330
17
100
AcDbEntity
  8
0
100
AcDbPoint
 10
5.821825954218065
 20
71.02865153502806
 30
0.0
  0
POINT
  5
34C
330
17
100
AcDbEntity
  8
0
100
AcDbPoint
 10
6.183717175254738
 20
70.8072713913689
 30
0.0
  0
POINT
  5
34D
330
17
100
AcDbEntity
  8
0
100
AcDbPoint
 10
6.544489854973136
 20
70.58410301361567
 30
0.0
  0
POINT
  5
34E
330
17
100
AcDbEntity
  8
0
100
AcDbPoint
 10
6.904113372956434
 20
70.35911487727823
 30
0.0
  0
POINT
  5
34F
330
17
100
AcDbEntity
  8
0
100
AcDbPoint
 10
7.262581438283663
 20
70.13231679546584
 30
0.0
  0
POINT
  5
350
330
17
100
AcDbEntity
  8
0
100
AcDbPoint
 10
7.619885880413392
 20
69.9037161574025
 30
0.0
  0
POINT
  5
351
330
17
100
AcDbEntity
  8
0
100
AcDbPoint
 10
7.9760190762471765
 20
69.67332046133191
 30
0.0
  0
POINT
  5
352
330
17
100
AcDbEntity
  8
0
100
AcDbPoint
 10
8.330988474744217
 20
69.44116080825067
 30
0.0
  0
POINT
  5
353
330
17
100
AcDbEntity
  8
0
100
AcDbPoint
 10
8.684719965074903
 20
69.20714254160092
 30
0.0
  0
POINT
  5
354
330
17
100
AcDbEntity
  8
0
100
AcDbPoint
 10
9.037136648946223
 20
68.97117045091257
 30
0.0
  0
POINT
  5
355
330
17
100
AcDbEntity
  8
0
100
AcDbPoint
 10
9.388237781723943
 20
68.7332700385803
 30
0.0
  0
POINT
  5
356
330
17
100
AcDbEntity
  8
0
100
AcDbPoint
 10
9.738115336965272
 20
68.49360220206282
 30
0.0
  0
POINT
  5
357
330
17
100
AcDbEntity
  8
0
100
AcDbPoint
 10
10.086798134798594
 20
68.25222969848737
 30
0.0
  0
POINT
  5
358
330
17
100
AcDbEntity
  8
0
100
AcDbPoint
 10
10.434258739686996
 20
68.00912939783156
 30
0.0
  0
POINT
  5
359
330
17
100
AcDbEntity
  8
0
100
AcDbPoint
 10
10.780494812331598
 20
67.76431645180685
 30
0.0
  0
POINT
  5
35A
330
17
100
AcDbEntity
  8
0
100
AcDbPoint
 10
11.125499789001468
 20
67.51779966376776
 30
0.0
  0
POINT
  5
35B
330
17
100
AcDbEntity
  8
0
100
AcDbPoint
 10
11.469266771864783
 20
67.26958702308379
 30
0.0
  0
POINT
  5
35C
330
17
100
AcDbEntity
  8
0
100
AcDbPoint
 10
11.81178989240639
 20
67.01968816400081
 30
0.0
  0
POINT
  5
35D
330
17
100
AcDbEntity
  8
0
100
AcDbPoint
 10
12.153054886905736
 20
66.76810135776023
 30
0.0
  0
POINT
  5
35E
330
17
100
AcDbEntity
  8
0
100
AcDbPoint
 10
12.493077722038208
 20
66.5148653760471
 30
0.0
  0
POINT
  5
35F
330
17
100
AcDbEntity
  8
0
100
AcDbPoint
 10
12.831829817135661
 20
66.25995924412547
 30
0.0
  0
POINT
  5
360
330
17
100
AcDbEntity
  8
0
100
AcDbPoint
 10
13.169177599882207
 20
66.0032217372179
 30
0.0
  0
POINT
  5
361
330
17
100
AcDbEntity
  8
0
100
AcDbPoint
 10
13.505175009560597
 20
65.74474621841335
 30
0.0
  0
POINT
  5
362
330
17
100
AcDbEntity
  8
0
100
AcDbPoint
 10
13.83989276832337
 20
65.48464674177035
 30
0.0
  0
POINT
  5
363
330
17
100
AcDbEntity
  8
0
100
AcDbPoint
 10
14.173328309808618
 20
65.22293587793467
 30
0.0
  0
POINT
  5
364
330
17
100
AcDbEntity
  8
0
100
AcDbPoint
 10
14.505475666126204
 20
64.95962233444745
 30
0.0
  0
POINT
  5
365
330
17
100
AcDbEntity
  8
0
100
AcDbPoint
 10
14.836328905036096
 20
64.69471480662838
 30
0.0
  0
POINT
  5
366
330
17
100
AcDbEntity
  8
0
100
AcDbPoint
 10
15.165882079038097
 20
64.42822182059442
 30
0.0
  0
POINT
  5
367
330
17
100
AcDbEntity
  8
0
100
AcDbPoint
 10
15.494129321900655
 20
64.16015202231138
 30
0.0
  0
POINT
  5
368
330
17
100
AcDbEntity
  8
0
100
AcDbPoint
 10
15.821064805884259
 20
63.89051405044186
 30
0.0
  0
POINT
  5
369
330
17
100
AcDbEntity
  8
0
100
AcDbPoint
 10
16.146682748329823
 20
63.61931655261212
 30
0.0
  0
POINT
  5
36A
330
17
100
AcDbEntity
  8
0
100
AcDbPoint
 10
16.470977415753243
 20
63.34656819538445
 30
0.0
  0
POINT
  5
36B
330
17
100
AcDbEntity
  8
0
100
AcDbPoint
 10
16.79394312392062
 20
63.07227765651936
 30
0.0
  0
POINT
  5
36C
330
17
100
AcDbEntity
  8
0
100
AcDbPoint
 10
17.1155742747631
 20
62.79645366639576
 30
0.0
  0
POINT
  5
36D
330
17
100
AcDbEntity
  8
0
100
AcDbPoint
 10
17.435865288037768
 20
62.519104931870174
 30
0.0
  0
POINT
  5
36E
330
17
100
AcDbEntity
  8
0
100
AcDbPoint
 10
17.75481064775893
 20
62.24024018555027
 30
0.0
  0
POINT
  5
36F
330
17
100
AcDbEntity
  8
0
100
AcDbPoint
 10
18.07240534541037
 20
61.959868675695525
 30
0.0
  0
POINT
  5
370
330
17
100
AcDbEntity
  8
0
100
AcDbPoint
 10
18.388643324330857
 20
61.677998434195224
 30
0.0
  0
POINT
  5
371
330
17
100
AcDbEntity
  8
0
100
AcDbPoint
 10
18.7035197905717
 20
61.39463884372032
 30
0.0
  0
POINT
  5
372
330
17
100
AcDbEntity
  8
0
100
AcDbPoint
 10
19.017034017842835
 20
61.1098037501377
 30
0.0
  0
POINT
  5
373
330
17
100
AcDbEntity
  8
0
100
AcDbPoint
 10
19.329164186007635
 20
60.823483489626405
 30
0.0
  0
POINT
  5
374
330
17
100
AcDbEntity
  8
0
100
AcDbPoint
 10
19.639887224627866
 20
60.53566745913838
 30
0.0
  0
POINT
  5
375
330
17
100
AcDbEntity
  8
0
100
AcDbPoint
 10
19.949201537552927
 20
60.246369350382714
 30
0.0
  0
POINT
  5
376
330
17
100
AcDbEntity
  8
0
100
AcDbPoint
 10
20.25713118120446
 20
59.95563007829721
 30
0.0
  0
POINT
  5
377
330
17
100
AcDbEntity
  8
0
100
AcDbPoint
 10
20.56368331026338
 20
59.66347153422968
 30
0.0
  0
POINT
  5
378
330
17
100
AcDbEntity
  8
0
100
AcDbPoint
 10
20.868847619948866
 20
59.36989628699375
 30
0.0
  0
POINT
  5
379
330
17
100
AcDbEntity
  8
0
100
AcDbPoint
 10
21.17262106910105
 20
59.07491484372392
 30
0.0
  0
POINT
  5
37A
330
17
100
AcDbEntity
  8
0
100
AcDbPoint
 10
21.474999795474474
 20
58.77853673369184
 30
0.0
  0
POINT
  5
37B
330
17
100
AcDbEntity
  8
0
100
AcDbPoint
 10
21.775979334904005
 20
58.48077075259258
 30
0.0
  0
POINT
  5
37C
330
17
100
AcDbEntity
  8
0
100
AcDbPoint
 10
22.07555571963879
 20
58.18162617243975
 30
0.0
  0
POINT
  5
37D
330
17
100
AcDbEntity
  8
0
100
AcDbPoint
 10
22.373724902384872
 20
57.88111210381437
 30
0.0
  0
POINT
  5
37E
330
17
100
AcDbEntity
  8
0
100
AcDbPoint
 10
22.670482861267672
 20
57.57923761523594
 30
0.0
  0
POINT
  5
37F
330
17
100
AcDbEntity
  8
0
100
AcDbPoint
 10
22.965825618338993
 20
57.27601175571493
 30
0.0
  0
POINT
  5
380
330
17
100
AcDbEntity
  8
0
100
AcDbPoint
 10
23.259749200019392
 20
56.97144351039425
 30
0.0
  0
POINT
  5
381
330
17
100
AcDbEntity
  8
0
100
AcDbPoint
 10
23.552249661564876
 20
56.66554182625303
 30
0.0
  0
POINT
  5
382
330
17
100
AcDbEntity
  8
0
100
AcDbPoint
 10
23.843323063122718
 20
56.358315593316945
 30
0.0
  0
POINT
  5
383
330
17
100
AcDbEntity
  8
0
100
AcDbPoint
 10
24.13296549328929
 20
56.049773665863505
 30
0.0
  0
POINT
  5
384
330
17
100
AcDbEntity
  8
0
100
AcDbPoint
 10
24.42117316289608
 20
55.7399249462333
 30
0.0
  0
POINT
  5
385
330
17
100
AcDbEntity
  8
0
100
AcDbPoint
 10
24.707942071167547
 20
55.428778089105364
 30
0.0
  0
POINT
  5
386
330
17
100
AcDbEntity
  8
0
100
AcDbPoint
 10
24.993268653895143
 20
55.11634207905177
 30
0.0
  0
POINT
  5
387
330
17
100
AcDbEntity
  8
0
100
AcDbPoint
 10
25.277149869075007
 20
54.80262630531554
 30
0.0
  0
POINT
  5
388
330
17
100
AcDbEntity
  8
0
100
AcDbPoint
 10
25.55957877648235
 20
54.48763663013234
 30
0.0
  0
POINT
  5
389
330
17
100
AcDbEntity
  8
0
100
AcDbPoint
 10
25.840558501151456
 20
54.171387803072015
 30
0.0
  0
POINT
  5
38A
330
17
100
AcDbEntity
  8
0
100
AcDbPoint
 10
26.1200861162276
 20
53.85388913141451
 30
0.0
  0
POINT
  5
38B
330
17
100
AcDbEntity
  8
0
100
AcDbPoint
 10
26.398101922499134
 20
53.535099465101545
 30
0.0
  0
POINT
  5
38C
330
17
100
AcDbEntity
  8
0
100
AcDbPoint
 10
26.674614091270136
 20
53.21503855409469
 30
0.0
  0
POINT
  5
38D
330
17
100
AcDbEntity
  8
0
100
AcDbPoint
 10
26.94965808385136
 20
52.89375032347177
 30
0.0
  0
POINT
  5
38E
330
17
100
AcDbEntity
  8
0
100
AcDbPoint
 10
27.223226420622918
 20
52.571239765127935
 30
0.0
  0
POINT
  5
38F
330
17
100
AcDbEntity
  8
0
100
AcDbPoint
 10
27.49531595956443
 20
52.24751575871501
 30
0.0
  0
POINT
  5
390
330
17
100
AcDbEntity
  8
0
100
AcDbPoint
 10
27.76592514538988
 20
51.922588545119524
 30
0.0
  0
POINT
  5
391
330
17
100
AcDbEntity
  8
0
100
AcDbPoint
 10
28.035050967531035
 20
51.59646695897321
 30
0.0
  0
POINT
  5
392
330
17
100
AcDbEntity
  8
0
100
AcDbPoint
 10
28.302691074298224
 20
51.269160347561275
 30
0.0
  0
POINT
  5
393
330
17
100
AcDbEntity
  8
0
100
AcDbPoint
 10
28.56884316613627
 20
50.94067801977948
 30
0.0
  0
POINT
  5
394
330
17
100
AcDbEntity
  8
0
100
AcDbPoint
 10
28.83350495174839
 20
50.61102920982409
 30
0.0
  0
POINT
  5
395
330
17
100
AcDbEntity
  8
0
100
AcDbPoint
 10
29.09667427835614
 20
50.28022319037937
 30
0.0
  0
POINT
  5
396
330
17
100
AcDbEntity
  8
0
100
AcDbPoint
 10
29.358349203875356
 20
49.948269316496045
 30
0.0
  0
POINT
  5
397
330
17
100
AcDbEntity
  8
0
100
AcDbPoint
 10
29.618527584376963
 20
49.615176717502926
 30
0.0
  0
POINT
  5
398
330
17
100
AcDbEntity
  8
0
100
AcDbPoint
 10
29.877207718619424
 20
49.280954782454614
 30
0.0
  0
POINT
  5
399
330
17
100
AcDbEntity
  8
0
100
AcDbPoint
 10
30.134389095690473
 20
48.94561371821595
 30
0.0
  0
POINT
  5
39A
330
17
100
AcDbEntity
  8
0
100
AcDbPoint
 10
30.390065723054
 20
48.60915951979651
 30
0.0
  0
POINT
  5
39B
330
17
100
AcDbEntity
  8
0
100
AcDbPoint
 10
30.644242826905796
 20
48.27160655782415
 30
0.0
  0
POINT
  5
39C
330
17
100
AcDbEntity
  8
0
100
AcDbPoint
 10
30.89692658133525
 20
47.932969831327746
 30
0.0
  0
POINT
  5
39D
330
17
100
AcDbEntity
  8
0
100
AcDbPoint
 10
31.148035814085432
 20
47.593198512365916
 30
0.0
  0
POINT
  5
39E
330
17
100
AcDbEntity
  8
0
100
AcDbPoint
 10
31.397544730856236
 20
47.2522844589721
 30
0.0
  0
POINT
  5
39F
330
17
100
AcDbEntity
  8
0
100
AcDbPoint
 10
31.64549707977532
 20
46.91027210730816
 30
0.0
  0
POINT
  5
3A0
330
17
100
AcDbEntity
  8
0
100
AcDbPoint
 10
31.891933605579805
 20
46.56720215335652
 30
0.0
  0
POINT
  5
3A1
330
17
100
AcDbEntity
  8
0
100
AcDbPoint
 10
32.13685847069797
 20
46.22308767476354
 30
0.0
  0
POINT
  5
3A2
330
17
100
AcDbEntity
  8
0
100
AcDbPoint
 10
32.38026393653621
 20
45.87793283998058
 30
0.0
  0
POINT
  5
3A3
330
17
100
AcDbEntity
  8
0
100
AcDbPoint
 10
32.622150125326044
 20
45.5317476063797
 30
0.0
  0
POINT
  5
3A4
330
17
100
AcDbEntity
  8
0
100
AcDbPoint
 10
32.86251841981642
 20
45.18454256301158
 30
0.0
  0
POINT
  5
3A5
330
17
100
AcDbEntity
  8
0
100
AcDbPoint
 10
33.10135750982735
 20
44.83631962205448
 30
0.0
  0
POINT
  5
3A6
330
17
100
AcDbEntity
  8
0
100
AcDbPoint
 10
33.33867300567092
 20
44.487092127014265
 30
0.0
  0
POINT
  5
3A7
330
17
100
AcDbEntity
  8
0
100
AcDbPoint
 10
33.57449791220947
 20
44.13689190215264
 30
0.0
  0
POINT
  5
3A8
330
17
100
AcDbEntity
  8
0
100
AcDbPoint
 10
33.80865409853052
 20
43.78560775313906
 30
0.0
  0
POINT
  5
3A9
330
17
100
AcDbEntity
  8
0
100
AcDbPoint
 10
34.041103232114
 20
43.43322426175808
 30
0.0
  0
POINT
  5
3AA
330
17
100
AcDbEntity
  8
0
100
AcDbPoint
 10
34.27203591777232
 20
43.07988173631932
 30
0.0
  0
POINT
  5
3AB
330
17
100
AcDbEntity
  8
0
100
AcDbPoint
 10
34.50143361011645
 20
42.72557686794201
 30
0.0
  0
POINT
  5
3AC
330
17
100
AcDbEntity
  8
0
100
AcDbPoint
 10
34.72927871323098
 20
42.370306757962794
 30
0.0
  0
POINT
  5
3AD
330
17
100
AcDbEntity
  8
0
100
AcDbPoint
 10
34.95557564310663
 20
42.01408393649947
 30
0.0
  0
POINT
  5
3AE
330
17
100
AcDbEntity
  8
0
100
AcDbPoint
 10
35.18030878053989
 20
41.65690756888488
 30
0.0
  0
POINT
  5
3AF
330
17
100
AcDbEntity
  8
0
100
AcDbPoint
 10
35.40352232320134
 20
41.29881426384506
 30
0.0
  0
POINT
  5
3B0
330
17
100
AcDbEntity
  8
0
100
AcDbPoint
 10
35.625105279863455
 20
40.93974381450744
 30
0.0
  0
POINT
  5
3B1
330
17
100
AcDbEntity
  8
0
100
AcDbPoint
 10
35.84487117060478
 20
40.57958951747617
 30
0.0
  0
POINT
  5
3B2
330
17
100
AcDbEntity
  8
0
100
AcDbPoint
 10
36.06302796228596
 20
40.218492510733604
 30
0.0
  0
POINT
  5
3B3
330
17
100
AcDbEntity
  8
0
100
AcDbPoint
 10
36.2796405797721
 20
39.85650280389639
 30
0.0
  0
POINT
  5
3B4
330
17
100
AcDbEntity
  8
0
100
AcDbPoint
 10
36.494652432522
 20
39.49359396922975
 30
0.0
  0
POINT
  5
3B5
330
17
100
AcDbEntity
  8
0
100
AcDbPoint
 10
36.7080613110147
 20
39.12977425646329
 30
0.0
  0
POINT
  5
3B6
330
17
100
AcDbEntity
  8
0
100
AcDbPoint
 10
36.919920130399824
 20
38.76508335823543
 30
0.0
  0
POINT
  5
3B7
330
17
100
AcDbEntity
  8
0
100
AcDbPoint
 10
37.13009362764344
 20
38.39945144060318
 30
0.0
  0
POINT
  5
3B8
330
17
100
AcDbEntity
  8
0
100
AcDbPoint
 10
37.338384927916984
 20
38.032773793202935
 30
0.0
  0
POINT
  5
3B9
330
17
100
AcDbEntity
  8
0
100
AcDbPoint
 10
37.54501256458752
 20
37.66518883125089
 30
0.0
  0
POINT
  5
3BA
330
17
100
AcDbEntity
  8
0
100
AcDbPoint
 10
37.750034163653716
 20
37.296739783111626
 30
0.0
  0
POINT
  5
3BB
330
17
100
AcDbEntity
  8
0
100
AcDbPoint
 10
37.953411944362124
 20
36.92741325173414
 30
0.0
  0
POINT
  5
3BC
330
17
100
AcDbEntity
  8
0
100
AcDbPoint
 10
38.155159894496386
 20
36.55722631718761
 30
0.0
  0
POINT
  5
3BD
330
17
100
AcDbEntity
  8
0
100
AcDbPoint
 10
38.35519119622507
 20
36.18614025817424
 30
0.0
  0
POINT
  5
3BE
330
17
100
AcDbEntity
  8
0
100
AcDbPoint
 10
38.553408107345845
 20
35.814111976626
 30
0.0
  0
POINT
  5
3BF
330
17
100
AcDbEntity
  8
0
100
AcDbPoint
 10
38.74979832229917
 20
35.4411460721714
 30
0.0
  0
POINT
  5
3C0
330
17
100
AcDbEntity
  8
0
100
AcDbPoint
 10
38.94450509237592
 20
35.067330139064055
 30
0.0
  0
POINT
  5
3C1
330
17
100
AcDbEntity
  8
0
100
AcDbPoint
 10
39.137558395204316
 20
34.69268944371341
 30
0.0
  0
POINT
  5
3C2
330
17
100
AcDbEntity
  8
0
100
AcDbPoint
 10
39.328915732062306
 20
34.31721015393995
 30
0.0
  0
POINT
  5
3C3
330
17
100
AcDbEntity
  8
0
100
AcDbPoint
 10
39.518513780840856
 20
33.940869057335256
 30
0.0
  0
POINT
  5
3C4
330
17
100
AcDbEntity
  8
0
100
AcDbPoint
 10
39.706200651569816
 20
33.56359960089222
 30
0.0
  0
POINT
  5
3C5
330
17
100
AcDbEntity
  8
0
100
AcDbPoint
 10
39.89203543940592
 20
33.18544267186761
 30
0.0
  0
POINT
  5
3C6
330
17
100
AcDbEntity
  8
0
100
AcDbPoint
 10
40.076198535748325
 20
32.80649969982722
 30
0.0
  0
POINT
  5
3C7
330
17
100
AcDbEntity
  8
0
100
AcDbPoint
 10
40.25867214295647
 20
32.42676993057931
 30
0.0
  0
POINT
  5
3C8
330
17
100
AcDbEntity
  8
0
100
AcDbPoint
 10
40.43934391577378
 20
32.046207882553055
 30
0.0
  0
POINT
  5
3C9
330
17
100
AcDbEntity
  8
0
100
AcDbPoint
 10
40.61811404313544
 20
31.66477600237369
 30
0.0
  0
POINT
  5
3CA
330
17
100
AcDbEntity
  8
0
100
AcDbPoint
 10
40.79497451185328
 20
31.282481889882348
 30
0.0
  0
POINT
  5
3CB
330
17
100
AcDbEntity
  8
0
100
AcDbPoint
 10
40.970050497878745
 20
30.89939555521695
 30
0.0
  0
POINT
  5
3CC
330
17
100
AcDbEntity
  8
0
100
AcDbPoint
 10
41.143442743495896
 20
30.515572598887818
 30
0.0
  0
POINT
  5
3CD
330
17
100
AcDbEntity
  8
0
100
AcDbPoint
 10
41.31507065755232
 20
30.130984793372622
 30
0.0
  0
POINT
  5
3CE
330
17
100
AcDbEntity
  8
0
100
AcDbPoint
 10
41.48462423735139
 20
29.74550273863818
 30
0.0
  0
POINT
  5
3CF
330
17
100
AcDbEntity
  8
0
100
AcDbPoint
 10
41.65224422596103
 20
29.359201149628127
 30
0.0
  0
POINT
  5
3D0
330
17
100
AcDbEntity
  8
0
100
AcDbPoint
 10
41.81812409513125
 20
28.97217683925198
 30
0.0
  0
POINT
  5
3D1
330
17
100
AcDbEntity
  8
0
100
AcDbPoint
 10
41.98223675703422
 20
28.584426091725025
 30
0.0
  0
POINT
  5
3D2
330
17
100
AcDbEntity
  8
0
100
AcDbPoint
 10
42.14444981165538
 20
28.195901760807793
 30
0.0
  0
POINT
  5
3D3
330
17
100
AcDbEntity
  8
0
100
AcDbPoint
 10
42.304666352361004
 20
27.806573875927118
 30
0.0
  0
POINT
  5
3D4
330
17
100
AcDbEntity
  8
0
100
AcDbPoint
 10
42.46291590625101
 20
27.416466147022916
 30
0.0
  0
POINT
  5
3D5
330
17
100
AcDbEntity
  8
0
100
AcDbPoint
 10
42.61937104875634
 20
27.025660573370015
 30
0.0
  0
POINT
  5
3D6
330
17
100
AcDbEntity
  8
0
100
AcDbPoint
 10
42.77404251003159
 20
26.63417013631177
 30
0.0
  0
POINT
  5
3D7
330
17
100
AcDbEntity
  8
0
100
AcDbPoint
 10
42.92674869229894
 20
26.241932052649044
 30
0.0
  0
POINT
  5
3D8
330
17
100
AcDbEntity
  8
0
100
AcDbPoint
 10
43.07731409244007
 20
25.84888842215613
 30
0.0
  0
POINT
  5
3D9
330
17
100
AcDbEntity
  8
0
100
AcDbPoint
 10
43.22600770969736
 20
25.455156206889217
 30
0.0
  0
POINT
  5
3DA
330
17
100
AcDbEntity
  8
0
100
AcDbPoint
 10
43.372969625468976
 20
25.06079811851983
 30
0.0
  0
POINT
  5
3DB
330
17
100
AcDbEntity
  8
0
100
AcDbPoint
 10
43.51803644492237
 20
24.665760986258476
 30
0.0
  0
POINT
  5
3DC
330
17
100
AcDbEntity
  8
0
100
AcDbPoint
 10
43.66086748976882
 20
24.269929633506976
 30
0.0
  0
POINT
  5
3DD
330
17
100
AcDbEntity
  8
0
100
AcDbPoint
 10
43.80172058913046
 20
23.87341098350922
 30
0.0
  0
POINT
  5
3DE
330
17
100
AcDbEntity
  8
0
100
AcDbPoint
 10
43.940841565371294
 20
23.47630405695885
 30
0.0
  0
POINT
  5
3DF
330
17
100
AcDbEntity
  8
0
100
AcDbPoint
 10
44.07811963202427
 20
23.078576802404395
 30
0.0
  0
POINT
  5
3E0
330
17
100
AcDbEntity
  8
0
100
AcDbPoint
 10
44.213144159103464
 20
22.68009752060539
 30
0.0
  0
POINT
  5
3E1
330
17
100
AcDbEntity
  8
0
100
AcDbPoint
 10
44.34607902723621
 20
22.280934534974726
 30
0.0
  0
POINT
  5
3E2
330
17
100
AcDbEntity
  8
0
100
AcDbPoint
 10
44.477245193173
 20
21.881208188750684
 30
0.0
  0
POINT
  5
3E3
330
17
100
AcDbEntity
  8
0
100
AcDbPoint
 10
44.60656589629949
 20
21.480899809484832
 30
0.0
  0
POINT
  5
3E4
330
17
100
AcDbEntity
  8
0
100
AcDbPoint
 10
44.733659137317396
 20
21.079896300855616
 30
0.0
  0
POINT
  5
3E5
330
17
100
AcDbEntity
  8
0
100
AcDbPoint
 10
44.85856918335577
 20
20.67822347244111
 30
0.0
  0
POINT
  5
3E6
330
17
100
AcDbEntity
  8
0
100
AcDbPoint
 10
44.98165246311362
 20
20.27600645036993
 30
0.0
  0
POINT
  5
3E7
330
17
100
AcDbEntity
  8
0
100
AcDbPoint
 10
45.10282477002421
 20
19.873226772597146
 30
0.0
  0
POINT
  5
3E8
330
17
100
AcDbEntity
  8
0
100
AcDbPoint
 10
45.22179147443123
 20
19.469806266584484
 30
0.0
  0
POINT
  5
3E9
330
17
100
AcDbEntity
  8
0
100
AcDbPoint
 10
45.33851923480133
 20
19.065746749054963
 30
0.0
  0
POINT
  5
3EA
330
17
100
AcDbEntity
  8
0
100
AcDbPoint
 10
45.453353267663736
 20
18.661161779589545
 30
0.0
  0
POINT
  5
3EB
330
17
100
AcDbEntity
  8
0
100
AcDbPoint
 10
45.56616577953615
 20
18.256024126536147
 30
0.0
  0
POINT
  5
3EC
330
17
100
AcDbEntity
  8
0
100
AcDbPoint
 10
45.67674263287821
 20
17.850284680750775
 30
0.0
  0
POINT
  5
3ED
330
17
100
AcDbEntity
  8
0
100
AcDbPoint
 10
45.785073597182254
 20
17.44395329138609
 30
0.0
  0
POINT
  5
3EE
330
17
100
AcDbEntity
  8
0
100
AcDbPoint
 10
45.8914517333196
 20
17.03712038849724
 30
0.0
  0
POINT
  5
3EF
330
17
100
AcDbEntity
  8
0
100
AcDbPoint
 10
45.99568672446091
 20
16.629747256359103
 30
0.0
  0
POINT
  5
3F0
330
17
100
AcDbEntity
  8
0
100
AcDbPoint
 10
46.097571603464246
 20
16.221791738357247
 30
0.0
  0
POINT
  5
3F1
330
17
100
AcDbEntity
  8
0
100
AcDbPoint
 10
46.19724414581148
 20
15.813302746370958
 30
0.0
  0
POINT
  5
3F2
330
17
100
AcDbEntity
  8
0
100
AcDbPoint
 10
46.29493823490651
 20
15.404347725999726
 30
0.0
  0
POINT
  5
3F3
330
17
100
AcDbEntity
  8
0
100
AcDbPoint
 10
46.39038208824697
 20
14.994874218622247
 30
0.0
  0
POINT
  5
3F4
330
17
100
AcDbEntity
  8
0
100
AcDbPoint
 10
46.48326687931656
 20
14.584821906815455
 30
0.0
  0
POINT
  5
3F5
330
17
100
AcDbEntity
  8
0
100
AcDbPoint
 10
46.57400736443356
 20
14.174301021101723
 30
0.0
  0
POINT
  5
3F6
330
17
100
AcDbEntity
  8
0
100
AcDbPoint
 10
46.66265800485823
 20
13.763334694426089
 30
0.0
  0
POINT
  5
3F7
330
17
100
AcDbEntity
  8
0
100
AcDbPoint
 10
46.74895760390943
 20
13.35187799632052
 30
0.0
  0
POINT
  5
3F8
330
17
100
AcDbEntity
  8
0
100
AcDbPoint
 10
46.832685117512675
 20
12.939898761538343
 30
0.0
  0
POINT
  5
3F9
330
17
100
AcDbEntity
  8
0
100
AcDbPoint
 10
46.91423598460554
 20
12.527491715276216
 30
0.0
  0
POINT
  5
3FA
330
17
100
AcDbEntity
  8
0
100
AcDbPoint
 10
46.99354038011307
 20
12.114656846530453
 30
0.0
  0
POINT
  5
3FB
330
17
100
AcDbEntity
  8
0
100
AcDbPoint
 10
47.07028806497179
 20
11.701346248735726
 30
0.0
  0
POINT
  5
3FC
330
17
100
AcDbEntity
  8
0
100
AcDbPoint
 10
47.144557434751334
 20
11.287591207498592
 30
0.0
  0
POINT
  5
3FD
330
17
100
AcDbEntity
  8
0
100
AcDbPoint
 10
47.2166383562771
 20
10.873455701679257
 30
0.0
  0
POINT
  5
3FE
330
17
100
AcDbEntity
  8
0
100
AcDbPoint
 10
47.28633202342544
 20
10.458920065951117
 30
0.0
  0
POINT
  5
3FF
330
17
100
AcDbEntity
  8
0
100
AcDbPoint
 10
47.35315271096541
 20
10.043917017494792
 30
0.0
  0
POINT
  5
400
330
17
100
AcDbEntity
  8
0
100
AcDbPoint
 10
47.417604037389836
 20
9.628545374930173
 30
0.0
  0
POINT
  5
401
330
17
100
AcDbEntity
  8
0
100
AcDbPoint
 10
47.47975547366289
 20
9.212830796452135
 30
0.0
  0
POINT
  5
402
330
17
100
AcDbEntity
  8
0
100
AcDbPoint
 10
47.539302085151306
 20
8.796740170900707
 30
0.0
  0
POINT
  5
403
330
17
100
AcDbEntity
  8
0
100
AcDbPoint
 10
47.59609329552634
 20
8.380269832591145
 30
0.0
  0
POINT
  5
404
330
17
100
AcDbEntity
  8
0
100
AcDbPoint
 10
47.65049756402797
 20
7.963484524298424
 30
0.0
  0
POINT
  5
405
330
17
100
AcDbEntity
  8
0
100
AcDbPoint
 10
47.70243242139548
 20
7.546390643745136
 30
0.0
  0
POINT
  5
406
330
17
100
AcDbEntity
  8
0
100
AcDbPoint
 10
47.75145400238526
 20
7.128947717318279
 30
0.0
  0
POINT
  5
407
330
17
100
AcDbEntity
  8
0
100
AcDbPoint
 10
47.79787381419954
 20
6.711211406456676
 30
0.0
  0
POINT
  5
408
330
17
100
AcDbEntity
  8
0
100
AcDbPoint
 10
47.84185331703492
 20
6.293214946042311
 30
0.0
  0
POINT
  5
409
330
17
100
AcDbEntity
  8
0
100
AcDbPoint
 10
47.88318360432649
 20
5.874951878418735
 30
0.0
  0
POINT
  5
40A
330
17
100
AcDbEntity
  8
0
100
AcDbPoint
 10
47.92150472730739
 20
5.4564054941812525
 30
0.0
  0
POINT
  5
40B
330
17
100
AcDbEntity
  8
0
100
AcDbPoint
 10
47.957266101908864
 20
5.037633893754758
 30
0.0
  0
POINT
  5
40C
330
17
100
AcDbEntity
  8
0
100
AcDbPoint
 10
47.9904672265179
 20
4.618656147127388
 30
0.0
  0
POINT
  5
40D
330
17
100
AcDbEntity
  8
0
100
AcDbPoint
 10
48.020680017418044
 20
4.199453850733745
 30
0.0
  0
POINT
  5
40E
330
17
100
AcDbEntity
  8
0
100
AcDbPoint
 10
48.04806280557618
 20
3.780059574739699
 30
0.0
  0
POINT
  5
40F
330
17
100
AcDbEntity
  8
0
100
AcDbPoint
 10
48.07287498905283
 20
3.360506117453211
 30
0.0
  0
POINT
  5
410
330
17
100
AcDbEntity
  8
0
100
AcDbPoint
 10
48.09495077698349
 20
2.9408022652456474
 30
0.0
  0
POINT
  5
411
330
17
100
AcDbEntity
  8
0
100
AcDbPoint
 10
48.11375974475568
 20
2.520940714994712
 30
0.0
  0
POINT
  5
412
330
17
100
AcDbEntity
  8
0
100
AcDbPoint
 10
48.12984507135707
 20
2.1009654153172357
 30
0.0
  0
POINT
  5
413
330
17
100
AcDbEntity
  8
0
100
AcDbPoint
 10
48.143257910951164
 20
1.6808996188541157
 30
0.0
  0
POINT
  5
414
330
17
100
AcDbEntity
  8
0
100
AcDbPoint
 10
48.153583198414
 20
1.2607465696975324
 30
0.0
  0
POINT
  5
415
330
17
100
AcDbEntity
  8
0
100
AcDbPoint
 10
48.16089685967043
 20
0.8405308267132577
 30
0.0
  0
POINT
  5
416
330
17
100
AcDbEntity
  8
0
100
AcDbPoint
 10
48.16537364197139
 20
0.42027518611333736
 30
0.0
  0
POINT
  5
417
330
17
100
AcDbEntity
  8
0
100
AcDbPoint
 10
48.1672
 20
0.0
 30
0.0
  0
ENDSEC
  0
SECTION
  2
OBJECTS
  0
DICTIONARY
  5
A
330
0
100
AcDbDictionary
280
0
281
1
  3
ACAD_COLOR
350
B
  3
ACAD_GROUP
350
C
  3
ACAD_LAYOUT
350
D
  3
ACAD_MATERIAL
350
E
  3
ACAD_MLEADERSTYLE
350
F
  3
ACAD_MLINESTYLE
350
10
  3
ACAD_PLOTSETTINGS
350
11
  3
ACAD_PLOTSTYLENAME
350
12
  3
ACAD_SCALELIST
350
14
  3
ACAD_TABLESTYLE
350
15
  3
ACAD_VISUALSTYLE
350
16
  3
EZDXF_META
350
2D
  0
DICTIONARY
  5
B
330
A
100
AcDbDictionary
280
0
281
1
  0
DICTIONARY
  5
C
330
A
100
AcDbDictionary
280
0
281
1
  0
DICTIONARY
  5
D
330
A
100
AcDbDictionary
280
0
281
1
  3
Model
350
1A
  3
Layout1
350
1E
  0
DICTIONARY
  5
E
330
A
100
AcDbDictionary
280
0
281
1
  3
ByBlock
350
1F
  3
ByLayer
350
20
  3
Global
350
21
  0
DICTIONARY
  5
F
330
A
100
AcDbDictionary
280
0
281
1
  3
Standard
350
2C
  0
DICTIONARY
  5
10
330
A
100
AcDbDictionary
280
0
281
1
  3
Standard
350
22
  0
DICTIONARY
  5
11
330
A
100
AcDbDictionary
280
0
281
1
  0
ACDBDICTIONARYWDFLT
  5
12
330
A
100
AcDbDictionary
280
0
281
1
  3
Normal
350
13
100
AcDbDictionaryWithDefault
340
13
  0
ACDBPLACEHOLDER
  5
13
330
12
  0
DICTIONARY
  5
14
330
A
100
AcDbDictionary
280
0
281
1
  0
DICTIONARY
  5
15
330
A
100
AcDbDictionary
280
0
281
1
  0
DICTIONARY
  5
16
330
A
100
AcDbDictionary
280
0
281
1
  0
LAYOUT
  5
1A
330
D
100
AcDbPlotSettings
  1

  4
A3
  6

 40
7.5
 41
20.0
 42
7.5
 43
20.0
 44
420.0
 45
297.0
 46
0.0
 47
0.0
 48
0.0
 49
0.0
140
0.0
141
0.0
142
1.0
143
1.0
 70
1024
 72
1
 73
0
 74
5
  7

 75
16
 76
0
 77
2
 78
300
147
1.0
148
0.0
149
0.0
100
AcDbLayout
  1
Model
 70
1
 71
0
 10
0.0
 20
0.0
 11
420.0
 21
297.0
 12
0.0
 22
0.0
 32
0.0
 14
1e+20
 24
1e+20
 34
1e+20
 15
-1e+20
 25
-1e+20
 35
-1e+20
146
0.0
 13
0.0
 23
0.0
 33
0.0
 16
1.0
 26
0.0
 36
0.0
 17
0.0
 27
1.0
 37
0.0
 76
1
330
17
  0
LAYOUT
  5
1E
330
D
100
AcDbPlotSettings
  1

  4
A3
  6

 40
7.5
 41
20.0
 42
7.5
 43
20.0
 44
420.0
 45
297.0
 46
0.0
 47
0.0
 48
0.0
 49
0.0
140
0.0
141
0.0
142
1.0
143
1.0
 70
0
 72
1
 73
0
 74
5
  7

 75
16
 76
0
 77
2
 78
300
147
1.0
148
0.0
149
0.0
100
AcDbLayout
  1
Layout1
 70
1
 71
1
 10
0.0
 20
0.0
 11
420.0
 21
297.0
 12
0.0
 22
0.0
 32
0.0
 14
1e+20
 24
1e+20
 34
1e+20
 15
-1e+20
 25
-1e+20
 35
-1e+20
146
0.0
 13
0.0
 23
0.0
 33
0.0
 16
1.0
 26
0.0
 36
0.0
 17
0.0
 27
1.0
 37
0.0
 76
1
330
1B
  0
MATERIAL
  5
1F
102
{ACAD_REACTORS
330
E
102
}
330
E
100
AcDbMaterial
  1
ByBlock
  2

 70
0
 40
1.0
 71
1
 41
1.0
 91
-1023410177
 42
1.0
 72
1
  3

 73
1
 74
1
 75
1
 44
0.5
 73
0
 45
1.0
 46
1.0
 77
1
  4

 78
1
 79
1
170
1
 48
1.0
171
1
  6

172
1
173
1
174
1
140
1.0
141
1.0
175
1
  7

176
1
177
1
178
1
143
1.0
179
1
  8

270
1
271
1
272
1
145
1.0
146
1.0
273
1
  9

274
1
275
1
276
1
 42
1.0
 72
1
  3

 73
1
 74
1
 75
1
 94
63
  0
MATERIAL
  5
20
102
{ACAD_REACTORS
330
E
102
}
330
E
100
AcDbMaterial
  1
ByLayer
  2

 70
0
 40
1.0
 71
1
 41
1.0
 91
-1023410177
 42
1.0
 72
1
  3

 73
1
 74
1
 75
1
 44
0.5
 73
0
 45
1.0
 46
1.0
 77
1
  4

 78
1
 79
1
170
1
 48
1.0
171
1
  6

172
1
173
1
174
1
140
1.0
141
1.0
175
1
  7

176
1
177
1
178
1
143
1.0
179
1
  8

270
1
271
1
272
1
145
1.0
146
1.0
273
1
  9

274
1
275
1
276
1
 42
1.0
 72
1
  3

 73
1
 74
1
 75
1
 94
63
  0
MATERIAL
  5
21
102
{ACAD_REACTORS
330
E
102
}
330
E
100
AcDbMaterial
  1
Global
  2

 70
0
 40
1.0
 71
1
 41
1.0
 91
-1023410177
 42
1.0
 72
1
  3

 73
1
 74
1
 75
1
 44
0.5
 73
0
 45
1.0
 46
1.0
 77
1
  4

 78
1
 79
1
170
1
 48
1.0
171
1
  6

172
1
173
1
174
1
140
1.0
141
1.0
175
1
  7

176
1
177
1
178
1
143
1.0
179
1
  8

270
1
271
1
272
1
145
1.0
146
1.0
273
1
  9

274
1
275
1
276
1
 42
1.0
 72
1
  3

 73
1
 74
1
 75
1
 94
63
  0
MLINESTYLE
  5
22
102
{ACAD_REACTORS
330
10
102
}
330
10
100
AcDbMlineStyle
  2
Standard
 70
0
  3

 62
256
 51
90.0
 52
90.0
 71
2
 49
0.5
 62
256
  6
BYLAYER
 49
-0.5
 62
256
  6
BYLAYER
  0
MLEADERSTYLE
  5
2C
102
{ACAD_REACTORS
330
F
102
}
330
F
100
AcDbMLeaderStyle
179
2
170
2
171
1
172
0
 90
2
 40
0.0
 41
0.0
173
1
 91
-1056964608
 92
-2
290
1
 42
2.0
291
1
 43
8.0
  3
Standard
 44
4.0
300

342
29
174
1
175
1
176
0
178
1
 93
-1056964608
 45
4.0
292
0
297
0
 46
4.0
 94
-1056964608
 47
1.0
 49
1.0
140
1.0
294
1
141
0.0
177
0
142
1.0
295
0
296
0
143
3.75
271
0
272
9
273
9
  0
DICTIONARY
  5
2D
330
A
100
AcDbDictionary
281
1
  3
CREATED_BY_EZDXF
350
2E
  3
WRITTEN_BY_EZDXF
350
41A
  0
DICTIONARYVAR
  5
2E
330
2D
100
DictionaryVariables
280
0
  1
1.3.2 @ 2025-04-10T05:45:45.782298+00:00
  0
DICTIONARYVAR
  5
41A
330
2D
100
DictionaryVariables
280
0
  1
1.3.2 @ 2025-04-10T05:45:45.792753+00:00
  0
ENDSEC
  0
EOF
