  0
SECTION
  2
HEADER
  9
$ACADVER
  1
AC1015
  9
$ACADMAINTVER
 70
6
  9
$DWGCODEPAGE
  3
ANSI_1252
  9
$INSBASE
 10
0.0
 20
0.0
 30
0.0
  9
$EXTMIN
 10
1e+20
 20
1e+20
 30
1e+20
  9
$EXTMAX
 10
-1e+20
 20
-1e+20
 30
-1e+20
  9
$LIMMIN
 10
0.0
 20
0.0
  9
$LIMMAX
 10
420.0
 20
297.0
  9
$ORTHOMODE
 70
0
  9
$REGENMODE
 70
1
  9
$FILLMODE
 70
1
  9
$QTEXTMODE
 70
0
  9
$MIRRTEXT
 70
1
  9
$LTSCALE
 40
1.0
  9
$ATTMODE
 70
1
  9
$TEXTSIZE
 40
2.5
  9
$TRACEWID
 40
1.0
  9
$TEXTSTYLE
  7
Standard
  9
$CLAYER
  8
0
  9
$CELTYPE
  6
ByLayer
  9
$CECOLOR
 62
256
  9
$CELTSCALE
 40
1.0
  9
$DISPSILH
 70
0
  9
$DIMSCALE
 40
1.0
  9
$DIMASZ
 40
2.5
  9
$DIMEXO
 40
0.625
  9
$DIMDLI
 40
3.75
  9
$DIMRND
 40
0.0
  9
$DIMDLE
 40
0.0
  9
$DIMEXE
 40
1.25
  9
$DIMTP
 40
0.0
  9
$DIMTM
 40
0.0
  9
$DIMTXT
 40
2.5
  9
$DIMCEN
 40
2.5
  9
$DIMTSZ
 40
0.0
  9
$DIMTOL
 70
0
  9
$DIMLIM
 70
0
  9
$DIMTIH
 70
0
  9
$DIMTOH
 70
0
  9
$DIMSE1
 70
0
  9
$DIMSE2
 70
0
  9
$DIMTAD
 70
1
  9
$DIMZIN
 70
8
  9
$DIMBLK
  1

  9
$DIMASO
 70
1
  9
$DIMSHO
 70
1
  9
$DIMPOST
  1

  9
$DIMAPOST
  1

  9
$DIMALT
 70
0
  9
$DIMALTD
 70
3
  9
$DIMALTF
 40
0.03937007874
  9
$DIMLFAC
 40
1.0
  9
$DIMTOFL
 70
1
  9
$DIMTVP
 40
0.0
  9
$DIMTIX
 70
0
  9
$DIMSOXD
 70
0
  9
$DIMSAH
 70
0
  9
$DIMBLK1
  1

  9
$DIMBLK2
  1

  9
$DIMSTYLE
  2
ISO-25
  9
$DIMCLRD
 70
0
  9
$DIMCLRE
 70
0
  9
$DIMCLRT
 70
0
  9
$DIMTFAC
 40
1.0
  9
$DIMGAP
 40
0.625
  9
$DIMJUST
 70
0
  9
$DIMSD1
 70
0
  9
$DIMSD2
 70
0
  9
$DIMTOLJ
 70
0
  9
$DIMTZIN
 70
8
  9
$DIMALTZ
 70
0
  9
$DIMALTTZ
 70
0
  9
$DIMUPT
 70
0
  9
$DIMDEC
 70
2
  9
$DIMTDEC
 70
2
  9
$DIMALTU
 70
2
  9
$DIMALTTD
 70
3
  9
$DIMTXSTY
  7
Standard
  9
$DIMAUNIT
 70
0
  9
$DIMADEC
 70
0
  9
$DIMALTRND
 40
0.0
  9
$DIMAZIN
 70
0
  9
$DIMDSEP
 70
44
  9
$DIMATFIT
 70
3
  9
$DIMFRAC
 70
0
  9
$DIMLDRBLK
  1

  9
$DIMLUNIT
 70
2
  9
$DIMLWD
 70
-2
  9
$DIMLWE
 70
-2
  9
$DIMTMOVE
 70
0
  9
$LUNITS
 70
2
  9
$LUPREC
 70
4
  9
$SKETCHINC
 40
1.0
  9
$FILLETRAD
 40
10.0
  9
$AUNITS
 70
0
  9
$AUPREC
 70
2
  9
$MENU
  1
.
  9
$ELEVATION
 40
0.0
  9
$PELEVATION
 40
0.0
  9
$THICKNESS
 40
0.0
  9
$LIMCHECK
 70
0
  9
$CHAMFERA
 40
0.0
  9
$CHAMFERB
 40
0.0
  9
$CHAMFERC
 40
0.0
  9
$CHAMFERD
 40
0.0
  9
$SKPOLY
 70
0
  9
$TDCREATE
 40
2460776.3857291667
  9
$TDUCREATE
 40
2458532.153996898
  9
$TDUPDATE
 40
2460776.3857291667
  9
$TDUUPDATE
 40
2458532.1544311
  9
$TDINDWG
 40
0.0
  9
$TDUSRTIMER
 40
0.0
  9
$USRTIMER
 70
1
  9
$ANGBASE
 50
0.0
  9
$ANGDIR
 70
0
  9
$PDMODE
 70
0
  9
$PDSIZE
 40
0.0
  9
$PLINEWID
 40
0.0
  9
$SPLFRAME
 70
0
  9
$SPLINETYPE
 70
6
  9
$SPLINESEGS
 70
8
  9
$HANDSEED
  5
198
  9
$SURFTAB1
 70
6
  9
$SURFTAB2
 70
6
  9
$SURFTYPE
 70
6
  9
$SURFU
 70
6
  9
$SURFV
 70
6
  9
$UCSBASE
  2

  9
$UCSNAME
  2

  9
$UCSORG
 10
0.0
 20
0.0
 30
0.0
  9
$UCSXDIR
 10
1.0
 20
0.0
 30
0.0
  9
$UCSYDIR
 10
0.0
 20
1.0
 30
0.0
  9
$UCSORTHOREF
  2

  9
$UCSORTHOVIEW
 70
0
  9
$UCSORGTOP
 10
0.0
 20
0.0
 30
0.0
  9
$UCSORGBOTTOM
 10
0.0
 20
0.0
 30
0.0
  9
$UCSORGLEFT
 10
0.0
 20
0.0
 30
0.0
  9
$UCSORGRIGHT
 10
0.0
 20
0.0
 30
0.0
  9
$UCSORGFRONT
 10
0.0
 20
0.0
 30
0.0
  9
$UCSORGBACK
 10
0.0
 20
0.0
 30
0.0
  9
$PUCSBASE
  2

  9
$PUCSNAME
  2

  9
$PUCSORG
 10
0.0
 20
0.0
 30
0.0
  9
$PUCSXDIR
 10
1.0
 20
0.0
 30
0.0
  9
$PUCSYDIR
 10
0.0
 20
1.0
 30
0.0
  9
$PUCSORTHOREF
  2

  9
$PUCSORTHOVIEW
 70
0
  9
$PUCSORGTOP
 10
0.0
 20
0.0
 30
0.0
  9
$PUCSORGBOTTOM
 10
0.0
 20
0.0
 30
0.0
  9
$PUCSORGLEFT
 10
0.0
 20
0.0
 30
0.0
  9
$PUCSORGRIGHT
 10
0.0
 20
0.0
 30
0.0
  9
$PUCSORGFRONT
 10
0.0
 20
0.0
 30
0.0
  9
$PUCSORGBACK
 10
0.0
 20
0.0
 30
0.0
  9
$USERI1
 70
0
  9
$USERI2
 70
0
  9
$USERI3
 70
0
  9
$USERI4
 70
0
  9
$USERI5
 70
0
  9
$USERR1
 40
0.0
  9
$USERR2
 40
0.0
  9
$USERR3
 40
0.0
  9
$USERR4
 40
0.0
  9
$USERR5
 40
0.0
  9
$WORLDVIEW
 70
1
  9
$SHADEDGE
 70
3
  9
$SHADEDIF
 70
70
  9
$TILEMODE
 70
1
  9
$MAXACTVP
 70
64
  9
$PINSBASE
 10
0.0
 20
0.0
 30
0.0
  9
$PLIMCHECK
 70
0
  9
$PEXTMIN
 10
1e+20
 20
1e+20
 30
1e+20
  9
$PEXTMAX
 10
-1e+20
 20
-1e+20
 30
-1e+20
  9
$PLIMMIN
 10
0.0
 20
0.0
  9
$PLIMMAX
 10
420.0
 20
297.0
  9
$UNITMODE
 70
0
  9
$VISRETAIN
 70
1
  9
$PLINEGEN
 70
0
  9
$PSLTSCALE
 70
1
  9
$TREEDEPTH
 70
3020
  9
$CMLSTYLE
  2
Standard
  9
$CMLJUST
 70
0
  9
$CMLSCALE
 40
20.0
  9
$PROXYGRAPHICS
 70
1
  9
$MEASUREMENT
 70
1
  9
$CELWEIGHT
370
-1
  9
$ENDCAPS
280
0
  9
$JOINSTYLE
280
0
  9
$LWDISPLAY
290
0
  9
$INSUNITS
 70
6
  9
$HYPERLINKBASE
  1

  9
$STYLESHEET
  1

  9
$XEDIT
290
1
  9
$CEPSNTYPE
380
0
  9
$PSTYLEMODE
290
1
  9
$FINGERPRINTGUID
  2
{0C1D12CB-642B-40A6-BD19-A98444185BE5}
  9
$VERSIONGUID
  2
{14A84774-6D90-40F3-9099-F9461D28545D}
  9
$EXTNAMES
290
1
  9
$PSVPSCALE
 40
0.0
  9
$OLESTARTUP
290
0
  0
ENDSEC
  0
SECTION
  2
CLASSES
  0
CLASS
  1
ACDBDICTIONARYWDFLT
  2
AcDbDictionaryWithDefault
  3
ObjectDBX Classes
 90
0
280
0
281
0
  0
CLASS
  1
SUN
  2
AcDbSun
  3
SCENEOE
 90
1153
280
0
281
0
  0
CLASS
  1
VISUALSTYLE
  2
AcDbVisualStyle
  3
ObjectDBX Classes
 90
4095
280
0
281
0
  0
CLASS
  1
MATERIAL
  2
AcDbMaterial
  3
ObjectDBX Classes
 90
1153
280
0
281
0
  0
CLASS
  1
SCALE
  2
AcDbScale
  3
ObjectDBX Classes
 90
1153
280
0
281
0
  0
CLASS
  1
TABLESTYLE
  2
AcDbTableStyle
  3
ObjectDBX Classes
 90
4095
280
0
281
0
  0
CLASS
  1
MLEADERSTYLE
  2
AcDbMLeaderStyle
  3
ACDB_MLEADERSTYLE_CLASS
 90
4095
280
0
281
0
  0
CLASS
  1
DICTIONARYVAR
  2
AcDbDictionaryVar
  3
ObjectDBX Classes
 90
0
280
0
281
0
  0
CLASS
  1
CELLSTYLEMAP
  2
AcDbCellStyleMap
  3
ObjectDBX Classes
 90
1152
280
0
281
0
  0
CLASS
  1
MENTALRAYRENDERSETTINGS
  2
AcDbMentalRayRenderSettings
  3
SCENEOE
 90
1024
280
0
281
0
  0
CLASS
  1
ACDBDETAILVIEWSTYLE
  2
AcDbDetailViewStyle
  3
ObjectDBX Classes
 90
1025
280
0
281
0
  0
CLASS
  1
ACDBSECTIONVIEWSTYLE
  2
AcDbSectionViewStyle
  3
ObjectDBX Classes
 90
1025
280
0
281
0
  0
CLASS
  1
RASTERVARIABLES
  2
AcDbRasterVariables
  3
ISM
 90
0
280
0
281
0
  0
CLASS
  1
ACDBPLACEHOLDER
  2
AcDbPlaceHolder
  3
ObjectDBX Classes
 90
0
280
0
281
0
  0
CLASS
  1
LAYOUT
  2
AcDbLayout
  3
ObjectDBX Classes
 90
0
280
0
281
0
  0
ENDSEC
  0
SECTION
  2
TABLES
  0
TABLE
  2
VPORT
  5
8
330
0
100
AcDbSymbolTable
 70
1
  0
VPORT
  5
23
330
8
100
AcDbSymbolTableRecord
100
AcDbViewportTableRecord
  2
*Active
 70
0
 10
0.0
 20
0.0
 11
1.0
 21
1.0
 12
0.0
 22
0.0
 13
0.0
 23
0.0
 14
0.5
 24
0.5
 15
0.5
 25
0.5
 16
0.0
 26
0.0
 36
1.0
 17
0.0
 27
0.0
 37
0.0
 40
1000.0
 41
1.34
 42
50.0
 43
0.0
 44
0.0
 50
0.0
 51
0.0
 71
0
 72
1000
 73
1
 74
3
 75
0
 76
0
 77
0
 78
0
281
0
 65
0
146
0.0
  0
ENDTAB
  0
TABLE
  2
LTYPE
  5
2
330
0
100
AcDbSymbolTable
 70
3
  0
LTYPE
  5
24
330
2
100
AcDbSymbolTableRecord
100
AcDbLinetypeTableRecord
  2
ByBlock
 70
0
  3

 72
65
 73
0
 40
0.0
  0
LTYPE
  5
25
330
2
100
AcDbSymbolTableRecord
100
AcDbLinetypeTableRecord
  2
ByLayer
 70
0
  3

 72
65
 73
0
 40
0.0
  0
LTYPE
  5
26
330
2
100
AcDbSymbolTableRecord
100
AcDbLinetypeTableRecord
  2
Continuous
 70
0
  3

 72
65
 73
0
 40
0.0
  0
ENDTAB
  0
TABLE
  2
LAYER
  5
1
330
0
100
AcDbSymbolTable
 70
2
  0
LAYER
  5
27
330
1
100
AcDbSymbolTableRecord
100
AcDbLayerTableRecord
  2
0
 70
0
 62
7
  6
Continuous
370
-3
390
13
  0
LAYER
  5
28
330
1
100
AcDbSymbolTableRecord
100
AcDbLayerTableRecord
  2
Defpoints
 70
0
 62
7
  6
Continuous
290
0
370
-3
390
13
  0
ENDTAB
  0
TABLE
  2
STYLE
  5
5
330
0
100
AcDbSymbolTable
 70
1
  0
STYLE
  5
29
330
5
100
AcDbSymbolTableRecord
100
AcDbTextStyleTableRecord
  2
Standard
 70
0
 40
0.0
 41
1.0
 50
0.0
 71
0
 42
2.5
  3
txt
  4

  0
ENDTAB
  0
TABLE
  2
VIEW
  5
7
330
0
100
AcDbSymbolTable
 70
0
  0
ENDTAB
  0
TABLE
  2
UCS
  5
6
330
0
100
AcDbSymbolTable
 70
0
  0
ENDTAB
  0
TABLE
  2
APPID
  5
3
330
0
100
AcDbSymbolTable
 70
3
  0
APPID
  5
2A
330
3
100
AcDbSymbolTableRecord
100
AcDbRegAppTableRecord
  2
ACAD
 70
0
  0
APPID
  5
195
330
3
100
AcDbSymbolTableRecord
100
AcDbRegAppTableRecord
  2
HATCHBACKGROUNDCOLOR
 70
0
  0
APPID
  5
196
330
3
100
AcDbSymbolTableRecord
100
AcDbRegAppTableRecord
  2
EZDXF
 70
0
  0
ENDTAB
  0
TABLE
  2
DIMSTYLE
  5
4
330
0
100
AcDbSymbolTable
 70
1
100
AcDbDimStyleTable
  0
DIMSTYLE
105
2B
330
4
100
AcDbSymbolTableRecord
100
AcDbDimStyleTableRecord
  2
Standard
 70
0
  3

  4

 40
1.0
 41
2.5
 42
0.625
 43
3.75
 44
1.25
 45
0.0
 46
0.0
 47
0.0
 48
0.0
140
2.5
141
2.5
142
0.0
143
0.03937007874
144
1.0
145
0.0
146
1.0
147
0.625
148
0.0
 71
0
 72
0
 73
0
 74
0
 75
0
 76
0
 77
1
 78
8
 79
3
170
0
171
3
172
1
173
0
174
0
175
0
176
0
177
0
178
0
179
2
271
2
272
2
273
2
274
3
275
0
276
0
277
2
278
44
279
0
280
0
281
0
282
0
283
0
284
8
285
0
286
0
288
0
289
3
371
-2
372
-2
  0
ENDTAB
  0
TABLE
  2
BLOCK_RECORD
  5
9
330
0
100
AcDbSymbolTable
 70
2
  0
BLOCK_RECORD
  5
17
330
9
100
AcDbSymbolTableRecord
100
AcDbBlockTableRecord
  2
*Model_Space
340
1A
  0
BLOCK_RECORD
  5
1B
330
9
100
AcDbSymbolTableRecord
100
AcDbBlockTableRecord
  2
*Paper_Space
340
1E
  0
ENDTAB
  0
ENDSEC
  0
SECTION
  2
BLOCKS
  0
BLOCK
  5
18
330
17
100
AcDbEntity
  8
0
100
AcDbBlockBegin
  2
*Model_Space
 70
0
 10
0.0
 20
0.0
 30
0.0
  3
*Model_Space
  1

  0
ENDBLK
  5
19
330
17
100
AcDbEntity
  8
0
100
AcDbBlockEnd
  0
BLOCK
  5
1C
330
1B
100
AcDbEntity
  8
0
100
AcDbBlockBegin
  2
*Paper_Space
 70
0
 10
0.0
 20
0.0
 30
0.0
  3
*Paper_Space
  1

  0
ENDBLK
  5
1D
330
1B
100
AcDbEntity
  8
0
100
AcDbBlockEnd
  0
ENDSEC
  0
SECTION
  2
ENTITIES
  0
POINT
  5
2F
330
17
100
AcDbEntity
  8
0
100
AcDbPoint
 10
48.667199999999994
 20
0.0
 30
0.0
  0
POINT
  5
30
330
17
100
AcDbEntity
  8
0
100
AcDbPoint
 10
48.65228739009075
 20
-1.1895068460917086
 30
0.0
  0
POINT
  5
31
330
17
100
AcDbEntity
  8
0
100
AcDbPoint
 10
48.60850592984175
 20
-2.3783003360107116
 30
0.0
  0
POINT
  5
32
330
17
100
AcDbEntity
  8
0
100
AcDbPoint
 10
48.53581277072635
 20
-3.5656757487406465
 30
0.0
  0
POINT
  5
33
330
17
100
AcDbEntity
  8
0
100
AcDbPoint
 10
48.43427982337311
 20
-4.750932462095427
 30
0.0
  0
POINT
  5
34
330
17
100
AcDbEntity
  8
0
100
AcDbPoint
 10
48.30372530497516
 20
-5.933343397427996
 30
0.0
  0
POINT
  5
35
330
17
100
AcDbEntity
  8
0
100
AcDbPoint
 10
48.14399178764743
 20
-7.11216636737091
 30
0.0
  0
POINT
  5
36
330
17
100
AcDbEntity
  8
0
100
AcDbPoint
 10
47.95566196987905
 20
-8.286759068079112
 30
0.0
  0
POINT
  5
37
330
17
100
AcDbEntity
  8
0
100
AcDbPoint
 10
47.738661314387635
 20
-9.456393223728583
 30
0.0
  0
POINT
  5
38
330
17
100
AcDbEntity
  8
0
100
AcDbPoint
 10
47.49255701301069
 20
-10.620250681375534
 30
0.0
  0
POINT
  5
39
330
17
100
AcDbEntity
  8
0
100
AcDbPoint
 10
47.21774909319156
 20
-11.777666097881678
 30
0.0
  0
POINT
  5
3A
330
17
100
AcDbEntity
  8
0
100
AcDbPoint
 10
46.91470799827145
 20
-12.928011283092122
 30
0.0
  0
POINT
  5
3B
330
17
100
AcDbEntity
  8
0
100
AcDbPoint
 10
46.58373563949166
 20
-14.070632489946586
 30
0.0
  0
POINT
  5
3C
330
17
100
AcDbEntity
  8
0
100
AcDbPoint
 10
46.22505917916084
 20
-15.204861359354366
 30
0.0
  0
POINT
  5
3D
330
17
100
AcDbEntity
  8
0
100
AcDbPoint
 10
45.83892882200875
 20
-16.330039138291703
 30
0.0
  0
POINT
  5
3E
330
17
100
AcDbEntity
  8
0
100
AcDbPoint
 10
45.42550029321146
 20
-17.44547481733711
 30
0.0
  0
POINT
  5
3F
330
17
100
AcDbEntity
  8
0
100
AcDbPoint
 10
44.985134597296806
 20
-18.550551958062808
 30
0.0
  0
POINT
  5
40
330
17
100
AcDbEntity
  8
0
100
AcDbPoint
 10
44.517937719360084
 20
-19.644555038127788
 30
0.0
  0
POINT
  5
41
330
17
100
AcDbEntity
  8
0
100
AcDbPoint
 10
44.02428465942661
 20
-20.726876441153465
 30
0.0
  0
POINT
  5
42
330
17
100
AcDbEntity
  8
0
100
AcDbPoint
 10
43.50424468103617
 20
-21.796768421920653
 30
0.0
  0
POINT
  5
43
330
17
100
AcDbEntity
  8
0
100
AcDbPoint
 10
42.958005777973135
 20
-22.853524034837644
 30
0.0
  0
POINT
  5
44
330
17
100
AcDbEntity
  8
0
100
AcDbPoint
 10
42.38619801535485
 20
-23.896665217813016
 30
0.0
  0
POINT
  5
45
330
17
100
AcDbEntity
  8
0
100
AcDbPoint
 10
41.789238861178916
 20
-24.925618579025425
 30
0.0
  0
POINT
  5
46
330
17
100
AcDbEntity
  8
0
100
AcDbPoint
 10
41.16735825788582
 20
-25.93970252002222
 30
0.0
  0
POINT
  5
47
330
17
100
AcDbEntity
  8
0
100
AcDbPoint
 10
40.52058674526207
 20
-26.938095020321803
 30
0.0
  0
POINT
  5
48
330
17
100
AcDbEntity
  8
0
100
AcDbPoint
 10
39.84961365568108
 20
-27.920385235651032
 30
0.0
  0
POINT
  5
49
330
17
100
AcDbEntity
  8
0
100
AcDbPoint
 10
39.15484375520925
 20
-28.88598982766705
 30
0.0
  0
POINT
  5
4A
330
17
100
AcDbEntity
  8
0
100
AcDbPoint
 10
38.43679055133691
 20
-29.834407000104846
 30
0.0
  0
POINT
  5
4B
330
17
100
AcDbEntity
  8
0
100
AcDbPoint
 10
37.69586410702043
 20
-30.76506250249946
 30
0.0
  0
POINT
  5
4C
330
17
100
AcDbEntity
  8
0
100
AcDbPoint
 10
36.93219075616378
 20
-31.67714505864612
 30
0.0
  0
POINT
  5
4D
330
17
100
AcDbEntity
  8
0
100
AcDbPoint
 10
36.146545323376195
 20
-32.57036948406701
 30
0.0
  0
POINT
  5
4E
330
17
100
AcDbEntity
  8
0
100
AcDbPoint
 10
35.33924886027029
 20
-33.44407440885973
 30
0.0
  0
POINT
  5
4F
330
17
100
AcDbEntity
  8
0
100
AcDbPoint
 10
34.51095407775392
 20
-34.29789672722761
 30
0.0
  0
POINT
  5
50
330
17
100
AcDbEntity
  8
0
100
AcDbPoint
 10
33.66197963379421
 20
-35.131158236899076
 30
0.0
  0
POINT
  5
51
330
17
100
AcDbEntity
  8
0
100
AcDbPoint
 10
32.79278147139156
 20
-35.943301073544575
 30
0.0
  0
POINT
  5
52
330
17
100
AcDbEntity
  8
0
100
AcDbPoint
 10
31.90401946501468
 20
-36.73398560612408
 30
0.0
  0
POINT
  5
53
330
17
100
AcDbEntity
  8
0
100
AcDbPoint
 10
30.996275053854887
 20
-37.50280180323147
 30
0.0
  0
POINT
  5
54
330
17
100
AcDbEntity
  8
0
100
AcDbPoint
 10
30.070068029301776
 20
-38.24926899189933
 30
0.0
  0
POINT
  5
55
330
17
100
AcDbEntity
  8
0
100
AcDbPoint
 10
29.125597551109962
 20
-38.97249052457095
 30
0.0
  0
POINT
  5
56
330
17
100
AcDbEntity
  8
0
100
AcDbPoint
 10
28.163746381734164
 20
-39.67242884124827
 30
0.0
  0
POINT
  5
57
330
17
100
AcDbEntity
  8
0
100
AcDbPoint
 10
27.185039583072165
 20
-40.34859731404465
 30
0.0
  0
POINT
  5
58
330
17
100
AcDbEntity
  8
0
100
AcDbPoint
 10
26.19018404635716
 20
-41.00077162438216
 30
0.0
  0
POINT
  5
59
330
17
100
AcDbEntity
  8
0
100
AcDbPoint
 10
25.179734289655173
 20
-41.62851013591795
 30
0.0
  0
POINT
  5
5A
330
17
100
AcDbEntity
  8
0
100
AcDbPoint
 10
24.154130756250463
 20
-42.231174849037984
 30
0.0
  0
POINT
  5
5B
330
17
100
AcDbEntity
  8
0
100
AcDbPoint
 10
23.114313383270513
 20
-42.80896484497285
 30
0.0
  0
POINT
  5
5C
330
17
100
AcDbEntity
  8
0
100
AcDbPoint
 10
22.06062457011687
 20
-43.36105341003361
 30
0.0
  0
POINT
  5
5D
330
17
100
AcDbEntity
  8
0
100
AcDbPoint
 10
20.993830524668923
 20
-43.887369783743225
 30
0.0
  0
POINT
  5
5E
330
17
100
AcDbEntity
  8
0
100
AcDbPoint
 10
19.91446171668375
 20
-44.3873889526473
 30
0.0
  0
POINT
  5
5F
330
17
100
AcDbEntity
  8
0
100
AcDbPoint
 10
18.8231463042335
 20
-44.860765802223085
 30
0.0
  0
POINT
  5
60
330
17
100
AcDbEntity
  8
0
100
AcDbPoint
 10
17.72058940668723
 20
-45.307334987155116
 30
0.0
  0
POINT
  5
61
330
17
100
AcDbEntity
  8
0
100
AcDbPoint
 10
16.607732707069957
 20
-45.72760488550396
 30
0.0
  0
POINT
  5
62
330
17
100
AcDbEntity
  8
0
100
AcDbPoint
 10
15.486314520583562
 20
-46.124474989277495
 30
0.0
  0
POINT
  5
63
330
17
100
AcDbEntity
  8
0
100
AcDbPoint
 10
14.357285551235243
 20
-46.49915003841619
 30
0.0
  0
POINT
  5
64
330
17
100
AcDbEntity
  8
0
100
AcDbPoint
 10
13.221292306419905
 20
-46.85214823348138
 30
0.0
  0
POINT
  5
65
330
17
100
AcDbEntity
  8
0
100
AcDbPoint
 10
12.078849563299364
 20
-47.18368430815947
 30
0.0
  0
POINT
  5
66
330
17
100
AcDbEntity
  8
0
100
AcDbPoint
 10
10.93054645797226
 20
-47.494316945603416
 30
0.0
  0
POINT
  5
67
330
17
100
AcDbEntity
  8
0
100
AcDbPoint
 10
9.776846629219119
 20
-47.78426404754176
 30
0.0
  0
POINT
  5
68
330
17
100
AcDbEntity
  8
0
100
AcDbPoint
 10
8.618172366144881
 20
-48.05365040032422
 30
0.0
  0
POINT
  5
69
330
17
100
AcDbEntity
  8
0
100
AcDbPoint
 10
7.455002549985176
 20
-48.30291153220652
 30
0.0
  0
POINT
  5
6A
330
17
100
AcDbEntity
  8
0
100
AcDbPoint
 10
6.287734281981812
 20
-48.53222150492985
 30
0.0
  0
POINT
  5
6B
330
17
100
AcDbEntity
  8
0
100
AcDbPoint
 10
5.116817320047097
 20
-48.74210445857748
 30
0.0
  0
POINT
  5
6C
330
17
100
AcDbEntity
  8
0
100
AcDbPoint
 10
3.9425834443284162
 20
-48.93256235552913
 30
0.0
  0
POINT
  5
6D
330
17
100
AcDbEntity
  8
0
100
AcDbPoint
 10
2.7654236035924264
 20
-49.10401239506638
 30
0.0
  0
POINT
  5
6E
330
17
100
AcDbEntity
  8
0
100
AcDbPoint
 10
1.5856918052134266
 20
-49.256773402094716
 30
0.0
  0
POINT
  5
6F
330
17
100
AcDbEntity
  8
0
100
AcDbPoint
 10
0.4037437226932602
 20
-49.391313842647975
 30
0.0
  0
POINT
  5
70
330
17
100
AcDbEntity
  8
0
100
AcDbPoint
 10
-0.7801343540666845
 20
-49.50765983811616
 30
0.0
  0
POINT
  5
71
330
17
100
AcDbEntity
  8
0
100
AcDbPoint
 10
-1.9656316449478897
 20
-49.60615680272987
 30
0.0
  0
POINT
  5
72
330
17
100
AcDbEntity
  8
0
100
AcDbPoint
 10
-3.1524490679673853
 20
-49.68722080163853
 30
0.0
  0
POINT
  5
73
330
17
100
AcDbEntity
  8
0
100
AcDbPoint
 10
-4.3403121434783385
 20
-49.75115759692144
 30
0.0
  0
POINT
  5
74
330
17
100
AcDbEntity
  8
0
100
AcDbPoint
 10
-5.528970589641751
 20
-49.79805467224945
 30
0.0
  0
POINT
  5
75
330
17
100
AcDbEntity
  8
0
100
AcDbPoint
 10
-6.718169141316836
 20
-49.82834260022138
 30
0.0
  0
POINT
  5
76
330
17
100
AcDbEntity
  8
0
100
AcDbPoint
 10
-7.907669437007816
 20
-49.84241312886997
 30
0.0
  0
POINT
  5
77
330
17
100
AcDbEntity
  8
0
100
AcDbPoint
 10
-9.097251895844009
 20
-49.84018939379242
 30
0.0
  0
POINT
  5
78
330
17
100
AcDbEntity
  8
0
100
AcDbPoint
 10
-10.286700127599826
 20
-49.82216562346892
 30
0.0
  0
POINT
  5
79
330
17
100
AcDbEntity
  8
0
100
AcDbPoint
 10
-11.475806406314259
 20
-49.78845285285499
 30
0.0
  0
POINT
  5
7A
330
17
100
AcDbEntity
  8
0
100
AcDbPoint
 10
-12.664364643692199
 20
-49.739023903326334
 30
0.0
  0
POINT
  5
7B
330
17
100
AcDbEntity
  8
0
100
AcDbPoint
 10
-13.852193066319714
 20
-49.67441264142916
 30
0.0
  0
POINT
  5
7C
330
17
100
AcDbEntity
  8
0
100
AcDbPoint
 10
-15.03907987671761
 20
-49.59433273571054
 30
0.0
  0
POINT
  5
7D
330
17
100
AcDbEntity
  8
0
100
AcDbPoint
 10
-16.22485433855998
 20
-49.49919146126647
 30
0.0
  0
POINT
  5
7E
330
17
100
AcDbEntity
  8
0
100
AcDbPoint
 10
-17.40932524728775
 20
-49.38900718142301
 30
0.0
  0
POINT
  5
7F
330
17
100
AcDbEntity
  8
0
100
AcDbPoint
 10
-18.592300681059584
 20
-49.263777009553785
 30
0.0
  0
POINT
  5
80
330
17
100
AcDbEntity
  8
0
100
AcDbPoint
 10
-19.773614191614065
 20
-49.12374164689507
 30
0.0
  0
POINT
  5
81
330
17
100
AcDbEntity
  8
0
100
AcDbPoint
 10
-20.953060065400212
 20
-48.968756586349485
 30
0.0
  0
POINT
  5
82
330
17
100
AcDbEntity
  8
0
100
AcDbPoint
 10
-22.130488781526733
 20
-48.79912567799108
 30
0.0
  0
POINT
  5
83
330
17
100
AcDbEntity
  8
0
100
AcDbPoint
 10
-23.305716674188503
 20
-48.6148689311296
 30
0.0
  0
POINT
  5
84
330
17
100
AcDbEntity
  8
0
100
AcDbPoint
 10
-24.478553629667648
 20
-48.415951936395885
 30
0.0
  0
POINT
  5
85
330
17
100
AcDbEntity
  8
0
100
AcDbPoint
 10
-25.648876649543144
 20
-48.20275238432101
 30
0.0
  0
POINT
  5
86
330
17
100
AcDbEntity
  8
0
100
AcDbPoint
 10
-26.816430877638386
 20
-47.974869799587864
 30
0.0
  0
POINT
  5
87
330
17
100
AcDbEntity
  8
0
100
AcDbPoint
 10
-27.981141228162592
 20
-47.73287116442569
 30
0.0
  0
POINT
  5
88
330
17
100
AcDbEntity
  8
0
100
AcDbPoint
 10
-29.142811305830794
 20
-47.47668398197892
 30
0.0
  0
POINT
  5
89
330
17
100
AcDbEntity
  8
0
100
AcDbPoint
 10
-30.301174114754055
 20
-47.20593043496636
 30
0.0
  0
POINT
  5
8A
330
17
100
AcDbEntity
  8
0
100
AcDbPoint
 10
-31.45614091846406
 20
-46.9210390505234
 30
0.0
  0
POINT
  5
8B
330
17
100
AcDbEntity
  8
0
100
AcDbPoint
 10
-32.607511599852245
 20
-46.62194900157055
 30
0.0
  0
POINT
  5
8C
330
17
100
AcDbEntity
  8
0
100
AcDbPoint
 10
-33.75502505312709
 20
-46.30838873365802
 30
0.0
  0
POINT
  5
8D
330
17
100
AcDbEntity
  8
0
100
AcDbPoint
 10
-34.89846446247012
 20
-45.98027969328673
 30
0.0
  0
POINT
  5
8E
330
17
100
AcDbEntity
  8
0
100
AcDbPoint
 10
-36.037724146425596
 20
-45.63794113850098
 30
0.0
  0
POINT
  5
8F
330
17
100
AcDbEntity
  8
0
100
AcDbPoint
 10
-37.172593943478816
 20
-45.281321008609915
 30
0.0
  0
POINT
  5
90
330
17
100
AcDbEntity
  8
0
100
AcDbPoint
 10
-38.30285994031868
 20
-44.910369236004435
 30
0.0
  0
POINT
  5
91
330
17
100
AcDbEntity
  8
0
100
AcDbPoint
 10
-39.428293525069854
 20
-44.52500715481876
 30
0.0
  0
POINT
  5
92
330
17
100
AcDbEntity
  8
0
100
AcDbPoint
 10
-40.54864120733192
 20
-44.12510117491251
 30
0.0
  0
POINT
  5
93
330
17
100
AcDbEntity
  8
0
100
AcDbPoint
 10
-41.66369084417956
 20
-43.7106522144212
 30
0.0
  0
POINT
  5
94
330
17
100
AcDbEntity
  8
0
100
AcDbPoint
 10
-42.77324804934162
 20
-43.28171716599222
 30
0.0
  0
POINT
  5
95
330
17
100
AcDbEntity
  8
0
100
AcDbPoint
 10
-43.877071257139974
 20
-42.8382359728536
 30
0.0
  0
POINT
  5
96
330
17
100
AcDbEntity
  8
0
100
AcDbPoint
 10
-44.9749118767172
 20
-42.380146543209264
 30
0.0
  0
POINT
  5
97
330
17
100
AcDbEntity
  8
0
100
AcDbPoint
 10
-46.06651523890432
 20
-41.90738785471482
 30
0.0
  0
POINT
  5
98
330
17
100
AcDbEntity
  8
0
100
AcDbPoint
 10
-47.151625075383116
 20
-41.41991056491507
 30
0.0
  0
POINT
  5
99
330
17
100
AcDbEntity
  8
0
100
AcDbPoint
 10
-48.22998012458969
 20
-40.91766918862611
 30
0.0
  0
POINT
  5
9A
330
17
100
AcDbEntity
  8
0
100
AcDbPoint
 10
-49.30131426647548
 20
-40.40062160507139
 30
0.0
  0
POINT
  5
9B
330
17
100
AcDbEntity
  8
0
100
AcDbPoint
 10
-50.36539497274541
 20
-39.86880673368755
 30
0.0
  0
POINT
  5
9C
330
17
100
AcDbEntity
  8
0
100
AcDbPoint
 10
-51.42199279456144
 20
-39.322277569615
 30
0.0
  0
POINT
  5
9D
330
17
100
AcDbEntity
  8
0
100
AcDbPoint
 10
-52.47076257823836
 20
-38.760876559864826
 30
0.0
  0
POINT
  5
9E
330
17
100
AcDbEntity
  8
0
100
AcDbPoint
 10
-53.51135703125592
 20
-38.18446211563736
 30
0.0
  0
POINT
  5
9F
330
17
100
AcDbEntity
  8
0
100
AcDbPoint
 10
-54.543625694102126
 20
-37.593267554966715
 30
0.0
  0
POINT
  5
A0
330
17
100
AcDbEntity
  8
0
100
AcDbPoint
 10
-55.567315950352615
 20
-36.987341180164826
 30
0.0
  0
POINT
  5
A1
330
17
100
AcDbEntity
  8
0
100
AcDbPoint
 10
-56.58216155289759
 20
-36.36671581931152
 30
0.0
  0
POINT
  5
A2
330
17
100
AcDbEntity
  8
0
100
AcDbPoint
 10
-57.58789878674416
 20
-35.731437039381575
 30
0.0
  0
POINT
  5
A3
330
17
100
AcDbEntity
  8
0
100
AcDbPoint
 10
-58.58414352385215
 20
-35.081378188187514
 30
0.0
  0
POINT
  5
A4
330
17
100
AcDbEntity
  8
0
100
AcDbPoint
 10
-59.57035603516772
 20
-34.41619869105562
 30
0.0
  0
POINT
  5
A5
330
17
100
AcDbEntity
  8
0
100
AcDbPoint
 10
-60.54636797189506
 20
-33.736137230768385
 30
0.0
  0
POINT
  5
A6
330
17
100
AcDbEntity
  8
0
100
AcDbPoint
 10
-61.5121551416301
 20
-33.04163230977282
 30
0.0
  0
POINT
  5
A7
330
17
100
AcDbEntity
  8
0
100
AcDbPoint
 10
-62.467376066235566
 20
-32.33266765662911
 30
0.0
  0
POINT
  5
A8
330
17
100
AcDbEntity
  8
0
100
AcDbPoint
 10
-63.4113705839034
 20
-31.60882947688876
 30
0.0
  0
POINT
  5
A9
330
17
100
AcDbEntity
  8
0
100
AcDbPoint
 10
-64.34367390686396
 20
-30.86998694871961
 30
0.0
  0
POINT
  5
AA
330
17
100
AcDbEntity
  8
0
100
AcDbPoint
 10
-65.2645762246501
 20
-30.116982273365903
 30
0.0
  0
POINT
  5
AB
330
17
100
AcDbEntity
  8
0
100
AcDbPoint
 10
-66.1734874819878
 20
-29.34955570367413
 30
0.0
  0
POINT
  5
AC
330
17
100
AcDbEntity
  8
0
100
AcDbPoint
 10
-67.06966999364737
 20
-28.567298376863253
 30
0.0
  0
POINT
  5
AD
330
17
100
AcDbEntity
  8
0
100
AcDbPoint
 10
-67.95335801394558
 20
-27.770950595277814
 30
0.0
  0
POINT
  5
AE
330
17
100
AcDbEntity
  8
0
100
AcDbPoint
 10
-68.82427724616649
 20
-26.960665193994426
 30
0.0
  0
POINT
  5
AF
330
17
100
AcDbEntity
  8
0
100
AcDbPoint
 10
-69.68164605366302
 20
-26.136054989298874
 30
0.0
  0
POINT
  5
B0
330
17
100
AcDbEntity
  8
0
100
AcDbPoint
 10
-70.5255285365061
 20
-25.297643286409834
 30
0.0
  0
POINT
  5
B1
330
17
100
AcDbEntity
  8
0
100
AcDbPoint
 10
-71.35572071478619
 20
-24.445682591970346
 30
0.0
  0
POINT
  5
B2
330
17
100
AcDbEntity
  8
0
100
AcDbPoint
 10
-72.17146372788099
 20
-23.57987186395749
 30
0.0
  0
POINT
  5
B3
330
17
100
AcDbEntity
  8
0
100
AcDbPoint
 10
-72.97317616563092
 20
-22.701050165573236
 30
0.0
  0
POINT
  5
B4
330
17
100
AcDbEntity
  8
0
100
AcDbPoint
 10
-73.76033931881791
 20
-21.809184930326083
 30
0.0
  0
POINT
  5
B5
330
17
100
AcDbEntity
  8
0
100
AcDbPoint
 10
-74.53226674137778
 20
-20.90408987823405
 30
0.0
  0
POINT
  5
B6
330
17
100
AcDbEntity
  8
0
100
AcDbPoint
 10
-75.28944637322851
 20
-19.986627455670643
 30
0.0
  0
POINT
  5
B7
330
17
100
AcDbEntity
  8
0
100
AcDbPoint
 10
-76.03096958519295
 20
-19.056467920259863
 30
0.0
  0
POINT
  5
B8
330
17
100
AcDbEntity
  8
0
100
AcDbPoint
 10
-76.7568724274477
 20
-18.11405976687569
 30
0.0
  0
POINT
  5
B9
330
17
100
AcDbEntity
  8
0
100
AcDbPoint
 10
-77.46694251391523
 20
-17.159678755907027
 30
0.0
  0
POINT
  5
BA
330
17
100
AcDbEntity
  8
0
100
AcDbPoint
 10
-78.16050975495803
 20
-16.193224973998728
 30
0.0
  0
POINT
  5
BB
330
17
100
AcDbEntity
  8
0
100
AcDbPoint
 10
-78.83786103310915
 20
-15.215351468289496
 30
0.0
  0
POINT
  5
BC
330
17
100
AcDbEntity
  8
0
100
AcDbPoint
 10
-79.4980473339995
 20
-14.225798360573904
 30
0.0
  0
POINT
  5
BD
330
17
100
AcDbEntity
  8
0
100
AcDbPoint
 10
-80.14152886906886
 20
-13.225308061831903
 30
0.0
  0
POINT
  5
BE
330
17
100
AcDbEntity
  8
0
100
AcDbPoint
 10
-80.76744944994643
 20
-12.213739294742345
 30
0.0
  0
POINT
  5
BF
330
17
100
AcDbEntity
  8
0
100
AcDbPoint
 10
-81.37586880705973
 20
-11.191544424573546
 30
0.0
  0
POINT
  5
C0
330
17
100
AcDbEntity
  8
0
100
AcDbPoint
 10
-81.9664113680281
 20
-10.158928015914453
 30
0.0
  0
POINT
  5
C1
330
17
100
AcDbEntity
  8
0
100
AcDbPoint
 10
-82.53876088175775
 20
-9.116106326356908
 30
0.0
  0
POINT
  5
C2
330
17
100
AcDbEntity
  8
0
100
AcDbPoint
 10
-83.09286650611872
 20
-8.063492822751979
 30
0.0
  0
POINT
  5
C3
330
17
100
AcDbEntity
  8
0
100
AcDbPoint
 10
-83.62808347232368
 20
-7.0011346786603745
 30
0.0
  0
POINT
  5
C4
330
17
100
AcDbEntity
  8
0
100
AcDbPoint
 10
-84.14471181707242
 20
-5.92963073010596
 30
0.0
  0
POINT
  5
C5
330
17
100
AcDbEntity
  8
0
100
AcDbPoint
 10
-84.64200043099618
 20
-4.848999006698037
 30
0.0
  0
POINT
  5
C6
330
17
100
AcDbEntity
  8
0
100
AcDbPoint
 10
-85.1202634288206
 20
-3.7598306247127424
 30
0.0
  0
POINT
  5
C7
330
17
100
AcDbEntity
  8
0
100
AcDbPoint
 10
-85.57877918672511
 20
-2.6621862360458843
 30
0.0
  0
POINT
  5
C8
330
17
100
AcDbEntity
  8
0
100
AcDbPoint
 10
-86.01788480318193
 20
-1.556651077806257
 30
0.0
  0
POINT
  5
C9
330
17
100
AcDbEntity
  8
0
100
AcDbPoint
 10
-86.43688616480875
 20
-0.44332425594569336
 30
0.0
  0
POINT
  5
CA
330
17
100
AcDbEntity
  8
0
100
AcDbPoint
 10
-86.83616915234558
 20
0.6772091688870944
 30
0.0
  0
POINT
  5
CB
330
17
100
AcDbEntity
  8
0
100
AcDbPoint
 10
-87.21493957689447
 20
1.8048557166583612
 30
0.0
  0
POINT
  5
CC
330
17
100
AcDbEntity
  8
0
100
AcDbPoint
 10
-87.57367991063617
 20
2.939021851291341
 30
0.0
  0
POINT
  5
CD
330
17
100
AcDbEntity
  8
0
100
AcDbPoint
 10
-87.91165929374621
 20
4.079555142670487
 30
0.0
  0
POINT
  5
CE
330
17
100
AcDbEntity
  8
0
100
AcDbPoint
 10
-88.22928845011673
 20
5.2259175157848015
 30
0.0
  0
POINT
  5
CF
330
17
100
AcDbEntity
  8
0
100
AcDbPoint
 10
-88.5259363115537
 20
6.377888056542302
 30
0.0
  0
POINT
  5
D0
330
17
100
AcDbEntity
  8
0
100
AcDbPoint
 10
-88.80189562403712
 20
7.534992329834278
 30
0.0
  0
POINT
  5
D1
330
17
100
AcDbEntity
  8
0
100
AcDbPoint
 10
-89.05668647458945
 20
8.696932789061677
 30
0.0
  0
POINT
  5
D2
330
17
100
AcDbEntity
  8
0
100
AcDbPoint
 10
-89.29032166809394
 20
9.863322386647294
 30
0.0
  0
POINT
  5
D3
330
17
100
AcDbEntity
  8
0
100
AcDbPoint
 10
-89.50275211164326
 20
11.033746105154158
 30
0.0
  0
POINT
  5
D4
330
17
100
AcDbEntity
  8
0
100
AcDbPoint
 10
-89.69375573453355
 20
12.207871345417816
 30
0.0
  0
POINT
  5
D5
330
17
100
AcDbEntity
  8
0
100
AcDbPoint
 10
-89.86333529018579
 20
13.385264878506309
 30
0.0
  0
POINT
  5
D6
330
17
100
AcDbEntity
  8
0
100
AcDbPoint
 10
-90.01096197481195
 20
14.56562703042594
 30
0.0
  0
POINT
  5
D7
330
17
100
AcDbEntity
  8
0
100
AcDbPoint
 10
-90.13715714692418
 20
15.748460662286899
 30
0.0
  0
POINT
  5
D8
330
17
100
AcDbEntity
  8
0
100
AcDbPoint
 10
-90.24101608788432
 20
16.933469636316502
 30
0.0
  0
POINT
  5
D9
330
17
100
AcDbEntity
  8
0
100
AcDbPoint
 10
-90.32313502016343
 20
18.120183665312705
 30
0.0
  0
POINT
  5
DA
330
17
100
AcDbEntity
  8
0
100
AcDbPoint
 10
-90.3827634786022
 20
19.308232447873795
 30
0.0
  0
POINT
  5
DB
330
17
100
AcDbEntity
  8
0
100
AcDbPoint
 10
-90.42031687901628
 20
20.497196266951512
 30
0.0
  0
POINT
  5
DC
330
17
100
AcDbEntity
  8
0
100
AcDbPoint
 10
-90.4355363223039
 20
21.686639111713113
 30
0.0
  0
POINT
  5
DD
330
17
100
AcDbEntity
  8
0
100
AcDbPoint
 10
-90.42814465641004
 20
22.876171767074702
 30
0.0
  0
POINT
  5
DE
330
17
100
AcDbEntity
  8
0
100
AcDbPoint
 10
-90.3985859395808
 20
24.06534788870349
 30
0.0
  0
POINT
  5
DF
330
17
100
AcDbEntity
  8
0
100
AcDbPoint
 10
-90.34595131094785
 20
25.253730610020124
 30
0.0
  0
POINT
  5
E0
330
17
100
AcDbEntity
  8
0
100
AcDbPoint
 10
-90.27114029963212
 20
26.440927549939648
 30
0.0
  0
POINT
  5
E1
330
17
100
AcDbEntity
  8
0
100
AcDbPoint
 10
-90.17351030627978
 20
27.62645524654331
 30
0.0
  0
POINT
  5
E2
330
17
100
AcDbEntity
  8
0
100
AcDbPoint
 10
-90.0535731364785
 20
28.80994978719563
 30
0.0
  0
POINT
  5
E3
330
17
100
AcDbEntity
  8
0
100
AcDbPoint
 10
-89.9110123051856
 20
29.99091303022331
 30
0.0
  0
POINT
  5
E4
330
17
100
AcDbEntity
  8
0
100
AcDbPoint
 10
-89.7453521710366
 20
31.16887319205263
 30
0.0
  0
POINT
  5
E5
330
17
100
AcDbEntity
  8
0
100
AcDbPoint
 10
-89.55777494248545
 20
32.34353875871054
 30
0.0
  0
POINT
  5
E6
330
17
100
AcDbEntity
  8
0
100
AcDbPoint
 10
-89.34743523369677
 20
33.51433757417106
 30
0.0
  0
POINT
  5
E7
330
17
100
AcDbEntity
  8
0
100
AcDbPoint
 10
-89.11502380604765
 20
34.68096629126718
 30
0.0
  0
POINT
  5
E8
330
17
100
AcDbEntity
  8
0
100
AcDbPoint
 10
-88.86001776222206
 20
35.84284876960125
 30
0.0
  0
POINT
  5
E9
330
17
100
AcDbEntity
  8
0
100
AcDbPoint
 10
-88.58246773917372
 20
36.999568771837424
 30
0.0
  0
POINT
  5
EA
330
17
100
AcDbEntity
  8
0
100
AcDbPoint
 10
-88.28326113921007
 20
38.15087024792267
 30
0.0
  0
POINT
  5
EB
330
17
100
AcDbEntity
  8
0
100
AcDbPoint
 10
-87.96158344405858
 20
39.2960938378062
 30
0.0
  0
POINT
  5
EC
330
17
100
AcDbEntity
  8
0
100
AcDbPoint
 10
-87.61848202145488
 20
40.43509388657609
 30
0.0
  0
POINT
  5
ED
330
17
100
AcDbEntity
  8
0
100
AcDbPoint
 10
-87.25340598021498
 20
41.56722439912334
 30
0.0
  0
POINT
  5
EE
330
17
100
AcDbEntity
  8
0
100
AcDbPoint
 10
-86.86642660646372
 20
42.69207190285113
 30
0.0
  0
POINT
  5
EF
330
17
100
AcDbEntity
  8
0
100
AcDbPoint
 10
-86.45829089313472
 20
43.80940960566766
 30
0.0
  0
POINT
  5
F0
330
17
100
AcDbEntity
  8
0
100
AcDbPoint
 10
-86.02824450771307
 20
44.918496154273576
 30
0.0
  0
POINT
  5
F1
330
17
100
AcDbEntity
  8
0
100
AcDbPoint
 10
-85.57739197463842
 20
46.019300727348806
 30
0.0
  0
POINT
  5
F2
330
17
100
AcDbEntity
  8
0
100
AcDbPoint
 10
-85.10506698270609
 20
47.11104512256965
 30
0.0
  0
POINT
  5
F3
330
17
100
AcDbEntity
  8
0
100
AcDbPoint
 10
-84.61138266156172
 20
48.19331477891765
 30
0.0
  0
POINT
  5
F4
330
17
100
AcDbEntity
  8
0
100
AcDbPoint
 10
-84.09730766132488
 20
49.266044085133736
 30
0.0
  0
POINT
  5
F5
330
17
100
AcDbEntity
  8
0
100
AcDbPoint
 10
-83.56198288420165
 20
50.328321502524624
 30
0.0
  0
POINT
  5
F6
330
17
100
AcDbEntity
  8
0
100
AcDbPoint
 10
-83.0063521055421
 20
51.380134247886424
 30
0.0
  0
POINT
  5
F7
330
17
100
AcDbEntity
  8
0
100
AcDbPoint
 10
-82.42972565255556
 20
52.420562661078606
 30
0.0
  0
POINT
  5
F8
330
17
100
AcDbEntity
  8
0
100
AcDbPoint
 10
-81.83229053263767
 20
53.44920154294062
 30
0.0
  0
POINT
  5
F9
330
17
100
AcDbEntity
  8
0
100
AcDbPoint
 10
-81.21506115951492
 20
54.46608144228067
 30
0.0
  0
POINT
  5
FA
330
17
100
AcDbEntity
  8
0
100
AcDbPoint
 10
-80.5772967669344
 20
55.47020180390098
 30
0.0
  0
POINT
  5
FB
330
17
100
AcDbEntity
  8
0
100
AcDbPoint
 10
-79.92005790515539
 20
56.46170062996765
 30
0.0
  0
POINT
  5
FC
330
17
100
AcDbEntity
  8
0
100
AcDbPoint
 10
-79.24286820340075
 20
57.43965981810858
 30
0.0
  0
POINT
  5
FD
330
17
100
AcDbEntity
  8
0
100
AcDbPoint
 10
-78.54582773507043
 20
58.40358617533694
 30
0.0
  0
POINT
  5
FE
330
17
100
AcDbEntity
  8
0
100
AcDbPoint
 10
-77.83004597512988
 20
59.353678565584524
 30
0.0
  0
POINT
  5
FF
330
17
100
AcDbEntity
  8
0
100
AcDbPoint
 10
-77.09489895859669
 20
60.288855139701845
 30
0.0
  0
POINT
  5
100
330
17
100
AcDbEntity
  8
0
100
AcDbPoint
 10
-76.34134561971145
 20
61.20928297603142
 30
0.0
  0
POINT
  5
101
330
17
100
AcDbEntity
  8
0
100
AcDbPoint
 10
-75.56928703177486
 20
62.1142255729061
 30
0.0
  0
POINT
  5
102
330
17
100
AcDbEntity
  8
0
100
AcDbPoint
 10
-74.7788131498354
 20
63.00313867509118
 30
0.0
  0
POINT
  5
103
330
17
100
AcDbEntity
  8
0
100
AcDbPoint
 10
-73.97107754928159
 20
63.8764010394363
 30
0.0
  0
POINT
  5
104
330
17
100
AcDbEntity
  8
0
100
AcDbPoint
 10
-73.14540710879184
 20
64.73270669114149
 30
0.0
  0
POINT
  5
105
330
17
100
AcDbEntity
  8
0
100
AcDbPoint
 10
-72.30264663690342
 20
65.57222012716437
 30
0.0
  0
POINT
  5
106
330
17
100
AcDbEntity
  8
0
100
AcDbPoint
 10
-71.44300080850803
 20
66.39441761845973
 30
0.0
  0
POINT
  5
107
330
17
100
AcDbEntity
  8
0
100
AcDbPoint
 10
-70.56644417318805
 20
67.19856783834771
 30
0.0
  0
POINT
  5
108
330
17
100
AcDbEntity
  8
0
100
AcDbPoint
 10
-69.67409354358107
 20
67.98516494809721
 30
0.0
  0
POINT
  5
109
330
17
100
AcDbEntity
  8
0
100
AcDbPoint
 10
-68.7654418780462
 20
68.75285039990153
 30
0.0
  0
POINT
  5
10A
330
17
100
AcDbEntity
  8
0
100
AcDbPoint
 10
-67.84134415111207
 20
69.50189660621528
 30
0.0
  0
POINT
  5
10B
330
17
100
AcDbEntity
  8
0
100
AcDbPoint
 10
-66.90216524287068
 20
70.23192796143155
 30
0.0
  0
POINT
  5
10C
330
17
100
AcDbEntity
  8
0
100
AcDbPoint
 10
-65.94791909997322
 20
70.9421544658165
 30
0.0
  0
POINT
  5
10D
330
17
100
AcDbEntity
  8
0
100
AcDbPoint
 10
-64.97971211109115
 20
71.63324213163719
 30
0.0
  0
POINT
  5
10E
330
17
100
AcDbEntity
  8
0
100
AcDbPoint
 10
-63.997117985283765
 20
72.30368736551377
 30
0.0
  0
POINT
  5
10F
330
17
100
AcDbEntity
  8
0
100
AcDbPoint
 10
-63.00102772278653
 20
72.95394303464238
 30
0.0
  0
POINT
  5
110
330
17
100
AcDbEntity
  8
0
100
AcDbPoint
 10
-61.99190007046176
 20
73.58375882075605
 30
0.0
  0
POINT
  5
111
330
17
100
AcDbEntity
  8
0
100
AcDbPoint
 10
-60.969859504617986
 20
74.19239944903805
 30
0.0
  0
POINT
  5
112
330
17
100
AcDbEntity
  8
0
100
AcDbPoint
 10
-59.93590482130473
 20
74.7805884647135
 30
0.0
  0
POINT
  5
113
330
17
100
AcDbEntity
  8
0
100
AcDbPoint
 10
-58.88971538057703
 20
75.34669637319554
 30
0.0
  0
POINT
  5
114
330
17
100
AcDbEntity
  8
0
100
AcDbPoint
 10
-57.832225348561394
 20
75.89144076592876
 30
0.0
  0
POINT
  5
115
330
17
100
AcDbEntity
  8
0
100
AcDbPoint
 10
-56.76385469026431
 20
76.41450177437812
 30
0.0
  0
POINT
  5
116
330
17
100
AcDbEntity
  8
0
100
AcDbPoint
 10
-55.68484088416126
 20
76.91524486798957
 30
0.0
  0
POINT
  5
117
330
17
100
AcDbEntity
  8
0
100
AcDbPoint
 10
-54.5960974590021
 20
77.3944823729357
 30
0.0
  0
POINT
  5
118
330
17
100
AcDbEntity
  8
0
100
AcDbPoint
 10
-53.49751766697865
 20
77.85068478577303
 30
0.0
  0
POINT
  5
119
330
17
100
AcDbEntity
  8
0
100
AcDbPoint
 10
-52.3900222678736
 20
78.284840337415
 30
0.0
  0
POINT
  5
11A
330
17
100
AcDbEntity
  8
0
100
AcDbPoint
 10
-51.273915032746515
 20
78.69631949905525
 30
0.0
  0
POINT
  5
11B
330
17
100
AcDbEntity
  8
0
100
AcDbPoint
 10
-50.14962126706732
 20
79.08489093461947
 30
0.0
  0
POINT
  5
11C
330
17
100
AcDbEntity
  8
0
100
AcDbPoint
 10
-49.017859074166275
 20
79.45114936191378
 30
0.0
  0
POINT
  5
11D
330
17
100
AcDbEntity
  8
0
100
AcDbPoint
 10
-47.87876408190872
 20
79.79389318823021
 30
0.0
  0
POINT
  5
11E
330
17
100
AcDbEntity
  8
0
100
AcDbPoint
 10
-46.73318981112825
 20
80.11436650025749
 30
0.0
  0
POINT
  5
11F
330
17
100
AcDbEntity
  8
0
100
AcDbPoint
 10
-45.58129941836715
 20
80.41128157741093
 30
0.0
  0
POINT
  5
120
330
17
100
AcDbEntity
  8
0
100
AcDbPoint
 10
-44.423763526822995
 20
80.68542016806407
 30
0.0
  0
POINT
  5
121
330
17
100
AcDbEntity
  8
0
100
AcDbPoint
 10
-43.26108268058415
 20
80.93682323285618
 30
0.0
  0
POINT
  5
122
330
17
100
AcDbEntity
  8
0
100
AcDbPoint
 10
-42.09358756331356
 20
81.1648207163972
 30
0.0
  0
POINT
  5
123
330
17
100
AcDbEntity
  8
0
100
AcDbPoint
 10
-40.921929075605405
 20
81.37039752213146
 30
0.0
  0
POINT
  5
124
330
17
100
AcDbEntity
  8
0
100
AcDbPoint
 10
-39.74634119925988
 20
81.55208623095265
 30
0.0
  0
POINT
  5
125
330
17
100
AcDbEntity
  8
0
100
AcDbPoint
 10
-38.567497981221294
 20
81.71140417538551
 30
0.0
  0
POINT
  5
126
330
17
100
AcDbEntity
  8
0
100
AcDbPoint
 10
-37.385731120875334
 20
81.847239255215
 30
0.0
  0
POINT
  5
127
330
17
100
AcDbEntity
  8
0
100
AcDbPoint
 10
-36.201566354783154
 20
81.96039254297953
 30
0.0
  0
POINT
  5
128
330
17
100
AcDbEntity
  8
0
100
AcDbPoint
 10
-35.01544964634196
 20
82.05076070007868
 30
0.0
  0
POINT
  5
129
330
17
100
AcDbEntity
  8
0
100
AcDbPoint
 10
-33.827806783773525
 20
82.11819655155315
 30
0.0
  0
POINT
  5
12A
330
17
100
AcDbEntity
  8
0
100
AcDbPoint
 10
-32.63910664927967
 20
82.16340717022732
 30
0.0
  0
POINT
  5
12B
330
17
100
AcDbEntity
  8
0
100
AcDbPoint
 10
-31.449758690387526
 20
82.18553564281571
 30
0.0
  0
POINT
  5
12C
330
17
100
AcDbEntity
  8
0
100
AcDbPoint
 10
-30.260194381766425
 20
82.18608241693777
 30
0.0
  0
POINT
  5
12D
330
17
100
AcDbEntity
  8
0
100
AcDbPoint
 10
-29.070863962276075
 20
82.16319688994848
 30
0.0
  0
POINT
  5
12E
330
17
100
AcDbEntity
  8
0
100
AcDbPoint
 10
-27.8821188743894
 20
82.11897796592767
 30
0.0
  0
POINT
  5
12F
330
17
100
AcDbEntity
  8
0
100
AcDbPoint
 10
-26.694439238824888
 20
82.05220725134824
 30
0.0
  0
POINT
  5
130
330
17
100
AcDbEntity
  8
0
100
AcDbPoint
 10
-25.50813114976161
 20
81.96421819982135
 30
0.0
  0
POINT
  5
131
330
17
100
AcDbEntity
  8
0
100
AcDbPoint
 10
-24.323675719568627
 20
81.85415215640397
 30
0.0
  0
POINT
  5
132
330
17
100
AcDbEntity
  8
0
100
AcDbPoint
 10
-23.1413599719502
 20
81.72301059837969
 30
0.0
  0
POINT
  5
133
330
17
100
AcDbEntity
  8
0
100
AcDbPoint
 10
-21.96164339408541
 20
81.57028520281692
 30
0.0
  0
POINT
  5
134
330
17
100
AcDbEntity
  8
0
100
AcDbPoint
 10
-20.78479814398622
 20
81.39677652741709
 30
0.0
  0
POINT
  5
135
330
17
100
AcDbEntity
  8
0
100
AcDbPoint
 10
-19.611262255388517
 20
81.20216055714602
 30
0.0
  0
POINT
  5
136
330
17
100
AcDbEntity
  8
0
100
AcDbPoint
 10
-18.44128257218142
 20
80.98717130057216
 30
0.0
  0
POINT
  5
137
330
17
100
AcDbEntity
  8
0
100
AcDbPoint
 10
-17.275294382413854
 20
80.75150726970355
 30
0.0
  0
POINT
  5
138
330
17
100
AcDbEntity
  8
0
100
AcDbPoint
 10
-16.113494409662525
 20
80.49597323439492
 30
0.0
  0
POINT
  5
139
330
17
100
AcDbEntity
  8
0
100
AcDbPoint
 10
-14.956344426502145
 20
80.2201600326179
 30
0.0
  0
POINT
  5
13A
330
17
100
AcDbEntity
  8
0
100
AcDbPoint
 10
-13.803969911245831
 20
79.9250090702153
 30
0.0
  0
POINT
  5
13B
330
17
100
AcDbEntity
  8
0
100
AcDbPoint
 10
-12.656897318392087
 20
79.60989747123304
 30
0.0
  0
POINT
  5
13C
330
17
100
AcDbEntity
  8
0
100
AcDbPoint
 10
-11.514989090501397
 20
79.27652668418472
 30
0.0
  0
POINT
  5
13D
330
17
100
AcDbEntity
  8
0
100
AcDbPoint
 10
-10.378971986597897
 20
78.92362854269959
 30
0.0
  0
POINT
  5
13E
330
17
100
AcDbEntity
  8
0
100
AcDbPoint
 10
-9.248662782006752
 20
78.55282661001921
 30
0.0
  0
POINT
  5
13F
330
17
100
AcDbEntity
  8
0
100
AcDbPoint
 10
-8.124821519450833
 20
78.16288354188379
 30
0.0
  0
POINT
  5
140
330
17
100
AcDbEntity
  8
0
100
AcDbPoint
 10
-7.007277334560011
 20
77.75522149086348
 30
0.0
  0
POINT
  5
141
330
17
100
AcDbEntity
  8
0
100
AcDbPoint
 10
-5.896464763447797
 20
77.32956807419778
 30
0.0
  0
POINT
  5
142
330
17
100
AcDbEntity
  8
0
100
AcDbPoint
 10
-4.792654693592642
 20
76.88606819604092
 30
0.0
  0
POINT
  5
143
330
17
100
AcDbEntity
  8
0
100
AcDbPoint
 10
-3.695788806451587
 20
76.42565425750348
 30
0.0
  0
POINT
  5
144
330
17
100
AcDbEntity
  8
0
100
AcDbPoint
 10
-2.6065856281880295
 20
75.94740562308122
 30
0.0
  0
POINT
  5
145
330
17
100
AcDbEntity
  8
0
100
AcDbPoint
 10
-1.5247464395110837
 20
75.45270989314201
 30
0.0
  0
POINT
  5
146
330
17
100
AcDbEntity
  8
0
100
AcDbPoint
 10
-0.45073522499484464
 20
74.94124828616442
 30
0.0
  0
POINT
  5
147
330
17
100
AcDbEntity
  8
0
100
AcDbPoint
 10
0.6150128730466635
 20
74.41278492034405
 30
0.0
  0
POINT
  5
148
330
17
100
AcDbEntity
  8
0
100
AcDbPoint
 10
1.6728854825257011
 20
73.86871748266762
 30
0.0
  0
POINT
  5
149
330
17
100
AcDbEntity
  8
0
100
AcDbPoint
 10
2.722254064536473
 20
73.3084307824841
 30
0.0
  0
POINT
  5
14A
330
17
100
AcDbEntity
  8
0
100
AcDbPoint
 10
3.7631068832064254
 20
72.73247310429052
 30
0.0
  0
POINT
  5
14B
330
17
100
AcDbEntity
  8
0
100
AcDbPoint
 10
4.795558937735703
 20
72.14158519008703
 30
0.0
  0
POINT
  5
14C
330
17
100
AcDbEntity
  8
0
100
AcDbPoint
 10
5.818975811296706
 20
71.53518781763478
 30
0.0
  0
POINT
  5
14D
330
17
100
AcDbEntity
  8
0
100
AcDbPoint
 10
6.83331911021686
 20
70.91372815582763
 30
0.0
  0
POINT
  5
14E
330
17
100
AcDbEntity
  8
0
100
AcDbPoint
 10
7.838745211011128
 20
70.27793972832359
 30
0.0
  0
POINT
  5
14F
330
17
100
AcDbEntity
  8
0
100
AcDbPoint
 10
8.835005513843225
 20
69.62788348173899
 30
0.0
  0
POINT
  5
150
330
17
100
AcDbEntity
  8
0
100
AcDbPoint
 10
9.821550778932043
 20
68.96317824187042
 30
0.0
  0
POINT
  5
151
330
17
100
AcDbEntity
  8
0
100
AcDbPoint
 10
10.798640951351867
 20
68.28464614502008
 30
0.0
  0
POINT
  5
152
330
17
100
AcDbEntity
  8
0
100
AcDbPoint
 10
11.766247999142077
 20
67.59265732510777
 30
0.0
  0
POINT
  5
153
330
17
100
AcDbEntity
  8
0
100
AcDbPoint
 10
12.724021027560564
 20
66.88712098761955
 30
0.0
  0
POINT
  5
154
330
17
100
AcDbEntity
  8
0
100
AcDbPoint
 10
13.67172224838903
 20
66.16811230277933
 30
0.0
  0
POINT
  5
155
330
17
100
AcDbEntity
  8
0
100
AcDbPoint
 10
14.609428110972695
 20
65.4361138545308
 30
0.0
  0
POINT
  5
156
330
17
100
AcDbEntity
  8
0
100
AcDbPoint
 10
15.537145878129186
 20
64.69149627566826
 30
0.0
  0
POINT
  5
157
330
17
100
AcDbEntity
  8
0
100
AcDbPoint
 10
16.454763833496067
 20
63.9344668155016
 30
0.0
  0
POINT
  5
158
330
17
100
AcDbEntity
  8
0
100
AcDbPoint
 10
17.362154335055713
 20
63.16520775168085
 30
0.0
  0
POINT
  5
159
330
17
100
AcDbEntity
  8
0
100
AcDbPoint
 10
18.25919376887908
 20
62.38390243601138
 30
0.0
  0
POINT
  5
15A
330
17
100
AcDbEntity
  8
0
100
AcDbPoint
 10
19.14576400023399
 20
61.590736824454616
 30
0.0
  0
POINT
  5
15B
330
17
100
AcDbEntity
  8
0
100
AcDbPoint
 10
20.02164706662279
 20
60.78578509071032
 30
0.0
  0
POINT
  5
15C
330
17
100
AcDbEntity
  8
0
100
AcDbPoint
 10
20.886800497299134
 20
59.969311379638555
 30
0.0
  0
POINT
  5
15D
330
17
100
AcDbEntity
  8
0
100
AcDbPoint
 10
21.74116511002303
 20
59.14155428571956
 30
0.0
  0
POINT
  5
15E
330
17
100
AcDbEntity
  8
0
100
AcDbPoint
 10
22.584623176993514
 20
58.302686148252654
 30
0.0
  0
POINT
  5
15F
330
17
100
AcDbEntity
  8
0
100
AcDbPoint
 10
23.417221415179938
 20
57.45303737331047
 30
0.0
  0
POINT
  5
160
330
17
100
AcDbEntity
  8
0
100
AcDbPoint
 10
24.238829835305946
 20
56.592756736948786
 30
0.0
  0
POINT
  5
161
330
17
100
AcDbEntity
  8
0
100
AcDbPoint
 10
25.04934868564284
 20
55.722019671916314
 30
0.0
  0
POINT
  5
162
330
17
100
AcDbEntity
  8
0
100
AcDbPoint
 10
25.84869121393676
 20
54.841011141607204
 30
0.0
  0
POINT
  5
163
330
17
100
AcDbEntity
  8
0
100
AcDbPoint
 10
26.636706881433405
 20
53.949856766456556
 30
0.0
  0
POINT
  5
164
330
17
100
AcDbEntity
  8
0
100
AcDbPoint
 10
27.41322246464673
 20
53.048663887500076
 30
0.0
  0
POINT
  5
165
330
17
100
AcDbEntity
  8
0
100
AcDbPoint
 10
28.178268979821176
 20
52.137713745044145
 30
0.0
  0
POINT
  5
166
330
17
100
AcDbEntity
  8
0
100
AcDbPoint
 10
28.931800541417594
 20
51.21721539449098
 30
0.0
  0
POINT
  5
167
330
17
100
AcDbEntity
  8
0
100
AcDbPoint
 10
29.67368772410903
 20
50.28730636779712
 30
0.0
  0
POINT
  5
168
330
17
100
AcDbEntity
  8
0
100
AcDbPoint
 10
30.404128488745048
 20
49.34837850898759
 30
0.0
  0
POINT
  5
169
330
17
100
AcDbEntity
  8
0
100
AcDbPoint
 10
31.123028652506928
 20
48.40058523221435
 30
0.0
  0
POINT
  5
16A
330
17
100
AcDbEntity
  8
0
100
AcDbPoint
 10
31.829898550975866
 20
47.44378674265236
 30
0.0
  0
POINT
  5
16B
330
17
100
AcDbEntity
  8
0
100
AcDbPoint
 10
32.524813694345184
 20
46.47826990321244
 30
0.0
  0
POINT
  5
16C
330
17
100
AcDbEntity
  8
0
100
AcDbPoint
 10
33.20789501965945
 20
45.50434437730175
 30
0.0
  0
POINT
  5
16D
330
17
100
AcDbEntity
  8
0
100
AcDbPoint
 10
33.87910453565618
 20
44.52219907918136
 30
0.0
  0
POINT
  5
16E
330
17
100
AcDbEntity
  8
0
100
AcDbPoint
 10
34.53780985427282
 20
43.53162480911717
 30
0.0
  0
POINT
  5
16F
330
17
100
AcDbEntity
  8
0
100
AcDbPoint
 10
35.18435343673592
 20
42.53306897972618
 30
0.0
  0
POINT
  5
170
330
17
100
AcDbEntity
  8
0
100
AcDbPoint
 10
35.81845845867556
 20
41.526568702330074
 30
0.0
  0
POINT
  5
171
330
17
100
AcDbEntity
  8
0
100
AcDbPoint
 10
36.43975103510227
 20
40.512109657364114
 30
0.0
  0
POINT
  5
172
330
17
100
AcDbEntity
  8
0
100
AcDbPoint
 10
37.04856318289336
 20
39.490110970026514
 30
0.0
  0
POINT
  5
173
330
17
100
AcDbEntity
  8
0
100
AcDbPoint
 10
37.644514873057034
 20
38.460560311687345
 30
0.0
  0
POINT
  5
174
330
17
100
AcDbEntity
  8
0
100
AcDbPoint
 10
38.227183336818115
 20
37.423434462990684
 30
0.0
  0
POINT
  5
175
330
17
100
AcDbEntity
  8
0
100
AcDbPoint
 10
38.796768935304314
 20
36.37906563384833
 30
0.0
  0
POINT
  5
176
330
17
100
AcDbEntity
  8
0
100
AcDbPoint
 10
39.35254360879949
 20
35.327282808973614
 30
0.0
  0
POINT
  5
177
330
17
100
AcDbEntity
  8
0
100
AcDbPoint
 10
39.89488093566714
 20
34.268507665601184
 30
0.0
  0
POINT
  5
178
330
17
100
AcDbEntity
  8
0
100
AcDbPoint
 10
40.422834707362476
 20
33.202488208249996
 30
0.0
  0
POINT
  5
179
330
17
100
AcDbEntity
  8
0
100
AcDbPoint
 10
40.936816977893194
 20
32.12966157816599
 30
0.0
  0
POINT
  5
17A
330
17
100
AcDbEntity
  8
0
100
AcDbPoint
 10
41.436270948318025
 20
31.04999508739097
 30
0.0
  0
POINT
  5
17B
330
17
100
AcDbEntity
  8
0
100
AcDbPoint
 10
41.92140202370945
 20
29.96381682641557
 30
0.0
  0
POINT
  5
17C
330
17
100
AcDbEntity
  8
0
100
AcDbPoint
 10
42.39179646138332
 20
28.871175903901516
 30
0.0
  0
POINT
  5
17D
330
17
100
AcDbEntity
  8
0
100
AcDbPoint
 10
42.84724194626203
 20
27.772219635602788
 30
0.0
  0
POINT
  5
17E
330
17
100
AcDbEntity
  8
0
100
AcDbPoint
 10
43.287871164162254
 20
26.6672389003571
 30
0.0
  0
POINT
  5
17F
330
17
100
AcDbEntity
  8
0
100
AcDbPoint
 10
43.71301194120531
 20
25.556207310885654
 30
0.0
  0
POINT
  5
180
330
17
100
AcDbEntity
  8
0
100
AcDbPoint
 10
44.122978976367996
 20
24.43948694165699
 30
0.0
  0
POINT
  5
181
330
17
100
AcDbEntity
  8
0
100
AcDbPoint
 10
44.51814457118061
 20
23.317442888321963
 30
0.0
  0
POINT
  5
182
330
17
100
AcDbEntity
  8
0
100
AcDbPoint
 10
44.897338269791874
 20
22.189901558814096
 30
0.0
  0
POINT
  5
183
330
17
100
AcDbEntity
  8
0
100
AcDbPoint
 10
45.26085567030536
 20
21.057208395583906
 30
0.0
  0
POINT
  5
184
330
17
100
AcDbEntity
  8
0
100
AcDbPoint
 10
45.60838474749464
 20
19.919507885881366
 30
0.0
  0
POINT
  5
185
330
17
100
AcDbEntity
  8
0
100
AcDbPoint
 10
45.939289216354915
 20
18.77686141975704
 30
0.0
  0
POINT
  5
186
330
17
100
AcDbEntity
  8
0
100
AcDbPoint
 10
46.25351240769928
 20
17.629515240374747
 30
0.0
  0
POINT
  5
187
330
17
100
AcDbEntity
  8
0
100
AcDbPoint
 10
46.550516990596634
 20
16.477591720995598
 30
0.0
  0
POINT
  5
188
330
17
100
AcDbEntity
  8
0
100
AcDbPoint
 10
46.829736796042624
 20
15.321228488217889
 30
0.0
  0
POINT
  5
189
330
17
100
AcDbEntity
  8
0
100
AcDbPoint
 10
47.090801981104015
 20
14.1606316478045
 30
0.0
  0
POINT
  5
18A
330
17
100
AcDbEntity
  8
0
100
AcDbPoint
 10
47.333759138000744
 20
12.996109071289704
 30
0.0
  0
POINT
  5
18B
330
17
100
AcDbEntity
  8
0
100
AcDbPoint
 10
47.55811773377148
 20
11.82786056216295
 30
0.0
  0
POINT
  5
18C
330
17
100
AcDbEntity
  8
0
100
AcDbPoint
 10
47.763426684763324
 20
10.6561139715156
 30
0.0
  0
POINT
  5
18D
330
17
100
AcDbEntity
  8
0
100
AcDbPoint
 10
47.948714281356516
 20
9.481035076547835
 30
0.0
  0
POINT
  5
18E
330
17
100
AcDbEntity
  8
0
100
AcDbPoint
 10
48.114043586812
 20
8.302981925427009
 30
0.0
  0
POINT
  5
18F
330
17
100
AcDbEntity
  8
0
100
AcDbPoint
 10
48.25863291462288
 20
7.122203635540359
 30
0.0
  0
POINT
  5
190
330
17
100
AcDbEntity
  8
0
100
AcDbPoint
 10
48.382006616162045
 20
5.9390201483295275
 30
0.0
  0
POINT
  5
191
330
17
100
AcDbEntity
  8
0
100
AcDbPoint
 10
48.48371433565766
 20
4.753777277086335
 30
0.0
  0
POINT
  5
192
330
17
100
AcDbEntity
  8
0
100
AcDbPoint
 10
48.56342233048742
 20
3.5668515033278254
 30
0.0
  0
POINT
  5
193
330
17
100
AcDbEntity
  8
0
100
AcDbPoint
 10
48.620849171666016
 20
2.378638796090919
 30
0.0
  0
POINT
  5
194
330
17
100
AcDbEntity
  8
0
100
AcDbPoint
 10
48.65548262146177
 20
1.1895429465558713
 30
0.0
  0
ENDSEC
  0
SECTION
  2
OBJECTS
  0
DICTIONARY
  5
A
330
0
100
AcDbDictionary
280
0
281
1
  3
ACAD_COLOR
350
B
  3
ACAD_GROUP
350
C
  3
ACAD_LAYOUT
350
D
  3
ACAD_MATERIAL
350
E
  3
ACAD_MLEADERSTYLE
350
F
  3
ACAD_MLINESTYLE
350
10
  3
ACAD_PLOTSETTINGS
350
11
  3
ACAD_PLOTSTYLENAME
350
12
  3
ACAD_SCALELIST
350
14
  3
ACAD_TABLESTYLE
350
15
  3
ACAD_VISUALSTYLE
350
16
  3
EZDXF_META
350
2D
  0
DICTIONARY
  5
B
330
A
100
AcDbDictionary
280
0
281
1
  0
DICTIONARY
  5
C
330
A
100
AcDbDictionary
280
0
281
1
  0
DICTIONARY
  5
D
330
A
100
AcDbDictionary
280
0
281
1
  3
Model
350
1A
  3
Layout1
350
1E
  0
DICTIONARY
  5
E
330
A
100
AcDbDictionary
280
0
281
1
  3
ByBlock
350
1F
  3
ByLayer
350
20
  3
Global
350
21
  0
DICTIONARY
  5
F
330
A
100
AcDbDictionary
280
0
281
1
  3
Standard
350
2C
  0
DICTIONARY
  5
10
330
A
100
AcDbDictionary
280
0
281
1
  3
Standard
350
22
  0
DICTIONARY
  5
11
330
A
100
AcDbDictionary
280
0
281
1
  0
ACDBDICTIONARYWDFLT
  5
12
330
A
100
AcDbDictionary
280
0
281
1
  3
Normal
350
13
100
AcDbDictionaryWithDefault
340
13
  0
ACDBPLACEHOLDER
  5
13
330
12
  0
DICTIONARY
  5
14
330
A
100
AcDbDictionary
280
0
281
1
  0
DICTIONARY
  5
15
330
A
100
AcDbDictionary
280
0
281
1
  0
DICTIONARY
  5
16
330
A
100
AcDbDictionary
280
0
281
1
  0
LAYOUT
  5
1A
330
D
100
AcDbPlotSettings
  1

  4
A3
  6

 40
7.5
 41
20.0
 42
7.5
 43
20.0
 44
420.0
 45
297.0
 46
0.0
 47
0.0
 48
0.0
 49
0.0
140
0.0
141
0.0
142
1.0
143
1.0
 70
1024
 72
1
 73
0
 74
5
  7

 75
16
 76
0
 77
2
 78
300
147
1.0
148
0.0
149
0.0
100
AcDbLayout
  1
Model
 70
1
 71
0
 10
0.0
 20
0.0
 11
420.0
 21
297.0
 12
0.0
 22
0.0
 32
0.0
 14
1e+20
 24
1e+20
 34
1e+20
 15
-1e+20
 25
-1e+20
 35
-1e+20
146
0.0
 13
0.0
 23
0.0
 33
0.0
 16
1.0
 26
0.0
 36
0.0
 17
0.0
 27
1.0
 37
0.0
 76
1
330
17
  0
LAYOUT
  5
1E
330
D
100
AcDbPlotSettings
  1

  4
A3
  6

 40
7.5
 41
20.0
 42
7.5
 43
20.0
 44
420.0
 45
297.0
 46
0.0
 47
0.0
 48
0.0
 49
0.0
140
0.0
141
0.0
142
1.0
143
1.0
 70
0
 72
1
 73
0
 74
5
  7

 75
16
 76
0
 77
2
 78
300
147
1.0
148
0.0
149
0.0
100
AcDbLayout
  1
Layout1
 70
1
 71
1
 10
0.0
 20
0.0
 11
420.0
 21
297.0
 12
0.0
 22
0.0
 32
0.0
 14
1e+20
 24
1e+20
 34
1e+20
 15
-1e+20
 25
-1e+20
 35
-1e+20
146
0.0
 13
0.0
 23
0.0
 33
0.0
 16
1.0
 26
0.0
 36
0.0
 17
0.0
 27
1.0
 37
0.0
 76
1
330
1B
  0
MATERIAL
  5
1F
102
{ACAD_REACTORS
330
E
102
}
330
E
100
AcDbMaterial
  1
ByBlock
  2

 70
0
 40
1.0
 71
1
 41
1.0
 91
-1023410177
 42
1.0
 72
1
  3

 73
1
 74
1
 75
1
 44
0.5
 73
0
 45
1.0
 46
1.0
 77
1
  4

 78
1
 79
1
170
1
 48
1.0
171
1
  6

172
1
173
1
174
1
140
1.0
141
1.0
175
1
  7

176
1
177
1
178
1
143
1.0
179
1
  8

270
1
271
1
272
1
145
1.0
146
1.0
273
1
  9

274
1
275
1
276
1
 42
1.0
 72
1
  3

 73
1
 74
1
 75
1
 94
63
  0
MATERIAL
  5
20
102
{ACAD_REACTORS
330
E
102
}
330
E
100
AcDbMaterial
  1
ByLayer
  2

 70
0
 40
1.0
 71
1
 41
1.0
 91
-1023410177
 42
1.0
 72
1
  3

 73
1
 74
1
 75
1
 44
0.5
 73
0
 45
1.0
 46
1.0
 77
1
  4

 78
1
 79
1
170
1
 48
1.0
171
1
  6

172
1
173
1
174
1
140
1.0
141
1.0
175
1
  7

176
1
177
1
178
1
143
1.0
179
1
  8

270
1
271
1
272
1
145
1.0
146
1.0
273
1
  9

274
1
275
1
276
1
 42
1.0
 72
1
  3

 73
1
 74
1
 75
1
 94
63
  0
MATERIAL
  5
21
102
{ACAD_REACTORS
330
E
102
}
330
E
100
AcDbMaterial
  1
Global
  2

 70
0
 40
1.0
 71
1
 41
1.0
 91
-1023410177
 42
1.0
 72
1
  3

 73
1
 74
1
 75
1
 44
0.5
 73
0
 45
1.0
 46
1.0
 77
1
  4

 78
1
 79
1
170
1
 48
1.0
171
1
  6

172
1
173
1
174
1
140
1.0
141
1.0
175
1
  7

176
1
177
1
178
1
143
1.0
179
1
  8

270
1
271
1
272
1
145
1.0
146
1.0
273
1
  9

274
1
275
1
276
1
 42
1.0
 72
1
  3

 73
1
 74
1
 75
1
 94
63
  0
MLINESTYLE
  5
22
102
{ACAD_REACTORS
330
10
102
}
330
10
100
AcDbMlineStyle
  2
Standard
 70
0
  3

 62
256
 51
90.0
 52
90.0
 71
2
 49
0.5
 62
256
  6
BYLAYER
 49
-0.5
 62
256
  6
BYLAYER
  0
MLEADERSTYLE
  5
2C
102
{ACAD_REACTORS
330
F
102
}
330
F
100
AcDbMLeaderStyle
179
2
170
2
171
1
172
0
 90
2
 40
0.0
 41
0.0
173
1
 91
-1056964608
 92
-2
290
1
 42
2.0
291
1
 43
8.0
  3
Standard
 44
4.0
300

342
29
174
1
175
1
176
0
178
1
 93
-1056964608
 45
4.0
292
0
297
0
 46
4.0
 94
-1056964608
 47
1.0
 49
1.0
140
1.0
294
1
141
0.0
177
0
142
1.0
295
0
296
0
143
3.75
271
0
272
9
273
9
  0
DICTIONARY
  5
2D
330
A
100
AcDbDictionary
281
1
  3
CREATED_BY_EZDXF
350
2E
  3
WRITTEN_BY_EZDXF
350
197
  0
DICTIONARYVAR
  5
2E
330
2D
100
DictionaryVariables
280
0
  1
1.3.2 @ 2025-04-10T01:15:27.944813+00:00
  0
DICTIONARYVAR
  5
197
330
2D
100
DictionaryVariables
280
0
  1
1.3.2 @ 2025-04-10T01:15:27.951055+00:00
  0
ENDSEC
  0
EOF
