  0
SECTION
  2
HEADER
  9
$ACADVER
  1
AC1015
  9
$ACADMAINTVER
 70
6
  9
$DWGCODEPAGE
  3
ANSI_1252
  9
$INSBASE
 10
0.0
 20
0.0
 30
0.0
  9
$EXTMIN
 10
1e+20
 20
1e+20
 30
1e+20
  9
$EXTMAX
 10
-1e+20
 20
-1e+20
 30
-1e+20
  9
$LIMMIN
 10
0.0
 20
0.0
  9
$LIMMAX
 10
420.0
 20
297.0
  9
$ORTHOMODE
 70
0
  9
$REGENMODE
 70
1
  9
$FILLMODE
 70
1
  9
$QTEXTMODE
 70
0
  9
$MIRRTEXT
 70
1
  9
$LTSCALE
 40
1.0
  9
$ATTMODE
 70
1
  9
$TEXTSIZE
 40
2.5
  9
$TRACEWID
 40
1.0
  9
$TEXTSTYLE
  7
Standard
  9
$CLAYER
  8
0
  9
$CELTYPE
  6
ByLayer
  9
$CECOLOR
 62
256
  9
$CELTSCALE
 40
1.0
  9
$DISPSILH
 70
0
  9
$DIMSCALE
 40
1.0
  9
$DIMASZ
 40
2.5
  9
$DIMEXO
 40
0.625
  9
$DIMDLI
 40
3.75
  9
$DIMRND
 40
0.0
  9
$DIMDLE
 40
0.0
  9
$DIMEXE
 40
1.25
  9
$DIMTP
 40
0.0
  9
$DIMTM
 40
0.0
  9
$DIMTXT
 40
2.5
  9
$DIMCEN
 40
2.5
  9
$DIMTSZ
 40
0.0
  9
$DIMTOL
 70
0
  9
$DIMLIM
 70
0
  9
$DIMTIH
 70
0
  9
$DIMTOH
 70
0
  9
$DIMSE1
 70
0
  9
$DIMSE2
 70
0
  9
$DIMTAD
 70
1
  9
$DIMZIN
 70
8
  9
$DIMBLK
  1

  9
$DIMASO
 70
1
  9
$DIMSHO
 70
1
  9
$DIMPOST
  1

  9
$DIMAPOST
  1

  9
$DIMALT
 70
0
  9
$DIMALTD
 70
3
  9
$DIMALTF
 40
0.03937007874
  9
$DIMLFAC
 40
1.0
  9
$DIMTOFL
 70
1
  9
$DIMTVP
 40
0.0
  9
$DIMTIX
 70
0
  9
$DIMSOXD
 70
0
  9
$DIMSAH
 70
0
  9
$DIMBLK1
  1

  9
$DIMBLK2
  1

  9
$DIMSTYLE
  2
ISO-25
  9
$DIMCLRD
 70
0
  9
$DIMCLRE
 70
0
  9
$DIMCLRT
 70
0
  9
$DIMTFAC
 40
1.0
  9
$DIMGAP
 40
0.625
  9
$DIMJUST
 70
0
  9
$DIMSD1
 70
0
  9
$DIMSD2
 70
0
  9
$DIMTOLJ
 70
0
  9
$DIMTZIN
 70
8
  9
$DIMALTZ
 70
0
  9
$DIMALTTZ
 70
0
  9
$DIMUPT
 70
0
  9
$DIMDEC
 70
2
  9
$DIMTDEC
 70
2
  9
$DIMALTU
 70
2
  9
$DIMALTTD
 70
3
  9
$DIMTXSTY
  7
Standard
  9
$DIMAUNIT
 70
0
  9
$DIMADEC
 70
0
  9
$DIMALTRND
 40
0.0
  9
$DIMAZIN
 70
0
  9
$DIMDSEP
 70
44
  9
$DIMATFIT
 70
3
  9
$DIMFRAC
 70
0
  9
$DIMLDRBLK
  1

  9
$DIMLUNIT
 70
2
  9
$DIMLWD
 70
-2
  9
$DIMLWE
 70
-2
  9
$DIMTMOVE
 70
0
  9
$LUNITS
 70
2
  9
$LUPREC
 70
4
  9
$SKETCHINC
 40
1.0
  9
$FILLETRAD
 40
10.0
  9
$AUNITS
 70
0
  9
$AUPREC
 70
2
  9
$MENU
  1
.
  9
$ELEVATION
 40
0.0
  9
$PELEVATION
 40
0.0
  9
$THICKNESS
 40
0.0
  9
$LIMCHECK
 70
0
  9
$CHAMFERA
 40
0.0
  9
$CHAMFERB
 40
0.0
  9
$CHAMFERC
 40
0.0
  9
$CHAMFERD
 40
0.0
  9
$SKPOLY
 70
0
  9
$TDCREATE
 40
2460776.385092593
  9
$TDUCREATE
 40
2458532.153996898
  9
$TDUPDATE
 40
2460776.385092593
  9
$TDUUPDATE
 40
2458532.1544311
  9
$TDINDWG
 40
0.0
  9
$TDUSRTIMER
 40
0.0
  9
$USRTIMER
 70
1
  9
$ANGBASE
 50
0.0
  9
$ANGDIR
 70
0
  9
$PDMODE
 70
0
  9
$PDSIZE
 40
0.0
  9
$PLINEWID
 40
0.0
  9
$SPLFRAME
 70
0
  9
$SPLINETYPE
 70
6
  9
$SPLINESEGS
 70
8
  9
$HANDSEED
  5
41B
  9
$SURFTAB1
 70
6
  9
$SURFTAB2
 70
6
  9
$SURFTYPE
 70
6
  9
$SURFU
 70
6
  9
$SURFV
 70
6
  9
$UCSBASE
  2

  9
$UCSNAME
  2

  9
$UCSORG
 10
0.0
 20
0.0
 30
0.0
  9
$UCSXDIR
 10
1.0
 20
0.0
 30
0.0
  9
$UCSYDIR
 10
0.0
 20
1.0
 30
0.0
  9
$UCSORTHOREF
  2

  9
$UCSORTHOVIEW
 70
0
  9
$UCSORGTOP
 10
0.0
 20
0.0
 30
0.0
  9
$UCSORGBOTTOM
 10
0.0
 20
0.0
 30
0.0
  9
$UCSORGLEFT
 10
0.0
 20
0.0
 30
0.0
  9
$UCSORGRIGHT
 10
0.0
 20
0.0
 30
0.0
  9
$UCSORGFRONT
 10
0.0
 20
0.0
 30
0.0
  9
$UCSORGBACK
 10
0.0
 20
0.0
 30
0.0
  9
$PUCSBASE
  2

  9
$PUCSNAME
  2

  9
$PUCSORG
 10
0.0
 20
0.0
 30
0.0
  9
$PUCSXDIR
 10
1.0
 20
0.0
 30
0.0
  9
$PUCSYDIR
 10
0.0
 20
1.0
 30
0.0
  9
$PUCSORTHOREF
  2

  9
$PUCSORTHOVIEW
 70
0
  9
$PUCSORGTOP
 10
0.0
 20
0.0
 30
0.0
  9
$PUCSORGBOTTOM
 10
0.0
 20
0.0
 30
0.0
  9
$PUCSORGLEFT
 10
0.0
 20
0.0
 30
0.0
  9
$PUCSORGRIGHT
 10
0.0
 20
0.0
 30
0.0
  9
$PUCSORGFRONT
 10
0.0
 20
0.0
 30
0.0
  9
$PUCSORGBACK
 10
0.0
 20
0.0
 30
0.0
  9
$USERI1
 70
0
  9
$USERI2
 70
0
  9
$USERI3
 70
0
  9
$USERI4
 70
0
  9
$USERI5
 70
0
  9
$USERR1
 40
0.0
  9
$USERR2
 40
0.0
  9
$USERR3
 40
0.0
  9
$USERR4
 40
0.0
  9
$USERR5
 40
0.0
  9
$WORLDVIEW
 70
1
  9
$SHADEDGE
 70
3
  9
$SHADEDIF
 70
70
  9
$TILEMODE
 70
1
  9
$MAXACTVP
 70
64
  9
$PINSBASE
 10
0.0
 20
0.0
 30
0.0
  9
$PLIMCHECK
 70
0
  9
$PEXTMIN
 10
1e+20
 20
1e+20
 30
1e+20
  9
$PEXTMAX
 10
-1e+20
 20
-1e+20
 30
-1e+20
  9
$PLIMMIN
 10
0.0
 20
0.0
  9
$PLIMMAX
 10
420.0
 20
297.0
  9
$UNITMODE
 70
0
  9
$VISRETAIN
 70
1
  9
$PLINEGEN
 70
0
  9
$PSLTSCALE
 70
1
  9
$TREEDEPTH
 70
3020
  9
$CMLSTYLE
  2
Standard
  9
$CMLJUST
 70
0
  9
$CMLSCALE
 40
20.0
  9
$PROXYGRAPHICS
 70
1
  9
$MEASUREMENT
 70
1
  9
$CELWEIGHT
370
-1
  9
$ENDCAPS
280
0
  9
$JOINSTYLE
280
0
  9
$LWDISPLAY
290
0
  9
$INSUNITS
 70
6
  9
$HYPERLINKBASE
  1

  9
$STYLESHEET
  1

  9
$XEDIT
290
1
  9
$CEPSNTYPE
380
0
  9
$PSTYLEMODE
290
1
  9
$FINGERPRINTGUID
  2
{50BFE841-B716-4062-8720-290D7B277D5F}
  9
$VERSIONGUID
  2
{D3A96F40-C718-4F6F-9B7A-0E4AF93735F7}
  9
$EXTNAMES
290
1
  9
$PSVPSCALE
 40
0.0
  9
$OLESTARTUP
290
0
  0
ENDSEC
  0
SECTION
  2
CLASSES
  0
CLASS
  1
ACDBDICTIONARYWDFLT
  2
AcDbDictionaryWithDefault
  3
ObjectDBX Classes
 90
0
280
0
281
0
  0
CLASS
  1
SUN
  2
AcDbSun
  3
SCENEOE
 90
1153
280
0
281
0
  0
CLASS
  1
VISUALSTYLE
  2
AcDbVisualStyle
  3
ObjectDBX Classes
 90
4095
280
0
281
0
  0
CLASS
  1
MATERIAL
  2
AcDbMaterial
  3
ObjectDBX Classes
 90
1153
280
0
281
0
  0
CLASS
  1
SCALE
  2
AcDbScale
  3
ObjectDBX Classes
 90
1153
280
0
281
0
  0
CLASS
  1
TABLESTYLE
  2
AcDbTableStyle
  3
ObjectDBX Classes
 90
4095
280
0
281
0
  0
CLASS
  1
MLEADERSTYLE
  2
AcDbMLeaderStyle
  3
ACDB_MLEADERSTYLE_CLASS
 90
4095
280
0
281
0
  0
CLASS
  1
DICTIONARYVAR
  2
AcDbDictionaryVar
  3
ObjectDBX Classes
 90
0
280
0
281
0
  0
CLASS
  1
CELLSTYLEMAP
  2
AcDbCellStyleMap
  3
ObjectDBX Classes
 90
1152
280
0
281
0
  0
CLASS
  1
MENTALRAYRENDERSETTINGS
  2
AcDbMentalRayRenderSettings
  3
SCENEOE
 90
1024
280
0
281
0
  0
CLASS
  1
ACDBDETAILVIEWSTYLE
  2
AcDbDetailViewStyle
  3
ObjectDBX Classes
 90
1025
280
0
281
0
  0
CLASS
  1
ACDBSECTIONVIEWSTYLE
  2
AcDbSectionViewStyle
  3
ObjectDBX Classes
 90
1025
280
0
281
0
  0
CLASS
  1
RASTERVARIABLES
  2
AcDbRasterVariables
  3
ISM
 90
0
280
0
281
0
  0
CLASS
  1
ACDBPLACEHOLDER
  2
AcDbPlaceHolder
  3
ObjectDBX Classes
 90
0
280
0
281
0
  0
CLASS
  1
LAYOUT
  2
AcDbLayout
  3
ObjectDBX Classes
 90
0
280
0
281
0
  0
ENDSEC
  0
SECTION
  2
TABLES
  0
TABLE
  2
VPORT
  5
8
330
0
100
AcDbSymbolTable
 70
1
  0
VPORT
  5
23
330
8
100
AcDbSymbolTableRecord
100
AcDbViewportTableRecord
  2
*Active
 70
0
 10
0.0
 20
0.0
 11
1.0
 21
1.0
 12
0.0
 22
0.0
 13
0.0
 23
0.0
 14
0.5
 24
0.5
 15
0.5
 25
0.5
 16
0.0
 26
0.0
 36
1.0
 17
0.0
 27
0.0
 37
0.0
 40
1000.0
 41
1.34
 42
50.0
 43
0.0
 44
0.0
 50
0.0
 51
0.0
 71
0
 72
1000
 73
1
 74
3
 75
0
 76
0
 77
0
 78
0
281
0
 65
0
146
0.0
  0
ENDTAB
  0
TABLE
  2
LTYPE
  5
2
330
0
100
AcDbSymbolTable
 70
3
  0
LTYPE
  5
24
330
2
100
AcDbSymbolTableRecord
100
AcDbLinetypeTableRecord
  2
ByBlock
 70
0
  3

 72
65
 73
0
 40
0.0
  0
LTYPE
  5
25
330
2
100
AcDbSymbolTableRecord
100
AcDbLinetypeTableRecord
  2
ByLayer
 70
0
  3

 72
65
 73
0
 40
0.0
  0
LTYPE
  5
26
330
2
100
AcDbSymbolTableRecord
100
AcDbLinetypeTableRecord
  2
Continuous
 70
0
  3

 72
65
 73
0
 40
0.0
  0
ENDTAB
  0
TABLE
  2
LAYER
  5
1
330
0
100
AcDbSymbolTable
 70
2
  0
LAYER
  5
27
330
1
100
AcDbSymbolTableRecord
100
AcDbLayerTableRecord
  2
0
 70
0
 62
7
  6
Continuous
370
-3
390
13
  0
LAYER
  5
28
330
1
100
AcDbSymbolTableRecord
100
AcDbLayerTableRecord
  2
Defpoints
 70
0
 62
7
  6
Continuous
290
0
370
-3
390
13
  0
ENDTAB
  0
TABLE
  2
STYLE
  5
5
330
0
100
AcDbSymbolTable
 70
1
  0
STYLE
  5
29
330
5
100
AcDbSymbolTableRecord
100
AcDbTextStyleTableRecord
  2
Standard
 70
0
 40
0.0
 41
1.0
 50
0.0
 71
0
 42
2.5
  3
txt
  4

  0
ENDTAB
  0
TABLE
  2
VIEW
  5
7
330
0
100
AcDbSymbolTable
 70
0
  0
ENDTAB
  0
TABLE
  2
UCS
  5
6
330
0
100
AcDbSymbolTable
 70
0
  0
ENDTAB
  0
TABLE
  2
APPID
  5
3
330
0
100
AcDbSymbolTable
 70
3
  0
APPID
  5
2A
330
3
100
AcDbSymbolTableRecord
100
AcDbRegAppTableRecord
  2
ACAD
 70
0
  0
APPID
  5
418
330
3
100
AcDbSymbolTableRecord
100
AcDbRegAppTableRecord
  2
HATCHBACKGROUNDCOLOR
 70
0
  0
APPID
  5
419
330
3
100
AcDbSymbolTableRecord
100
AcDbRegAppTableRecord
  2
EZDXF
 70
0
  0
ENDTAB
  0
TABLE
  2
DIMSTYLE
  5
4
330
0
100
AcDbSymbolTable
 70
1
100
AcDbDimStyleTable
  0
DIMSTYLE
105
2B
330
4
100
AcDbSymbolTableRecord
100
AcDbDimStyleTableRecord
  2
Standard
 70
0
  3

  4

 40
1.0
 41
2.5
 42
0.625
 43
3.75
 44
1.25
 45
0.0
 46
0.0
 47
0.0
 48
0.0
140
2.5
141
2.5
142
0.0
143
0.03937007874
144
1.0
145
0.0
146
1.0
147
0.625
148
0.0
 71
0
 72
0
 73
0
 74
0
 75
0
 76
0
 77
1
 78
8
 79
3
170
0
171
3
172
1
173
0
174
0
175
0
176
0
177
0
178
0
179
2
271
2
272
2
273
2
274
3
275
0
276
0
277
2
278
44
279
0
280
0
281
0
282
0
283
0
284
8
285
0
286
0
288
0
289
3
371
-2
372
-2
  0
ENDTAB
  0
TABLE
  2
BLOCK_RECORD
  5
9
330
0
100
AcDbSymbolTable
 70
2
  0
BLOCK_RECORD
  5
17
330
9
100
AcDbSymbolTableRecord
100
AcDbBlockTableRecord
  2
*Model_Space
340
1A
  0
BLOCK_RECORD
  5
1B
330
9
100
AcDbSymbolTableRecord
100
AcDbBlockTableRecord
  2
*Paper_Space
340
1E
  0
ENDTAB
  0
ENDSEC
  0
SECTION
  2
BLOCKS
  0
BLOCK
  5
18
330
17
100
AcDbEntity
  8
0
100
AcDbBlockBegin
  2
*Model_Space
 70
0
 10
0.0
 20
0.0
 30
0.0
  3
*Model_Space
  1

  0
ENDBLK
  5
19
330
17
100
AcDbEntity
  8
0
100
AcDbBlockEnd
  0
BLOCK
  5
1C
330
1B
100
AcDbEntity
  8
0
100
AcDbBlockBegin
  2
*Paper_Space
 70
0
 10
0.0
 20
0.0
 30
0.0
  3
*Paper_Space
  1

  0
ENDBLK
  5
1D
330
1B
100
AcDbEntity
  8
0
100
AcDbBlockEnd
  0
ENDSEC
  0
SECTION
  2
ENTITIES
  0
POINT
  5
2F
330
17
100
AcDbEntity
  8
0
100
AcDbPoint
 10
48.6672
 20
1.5334406006166486e-17
 30
0.0
  0
POINT
  5
30
330
17
100
AcDbEntity
  8
0
100
AcDbPoint
 10
48.664938942909316
 20
-0.42463496784493787
 30
0.0
  0
POINT
  5
31
330
17
100
AcDbEntity
  8
0
100
AcDbPoint
 10
48.65936952052711
 20
-0.8492397458948198
 30
0.0
  0
POINT
  5
32
330
17
100
AcDbEntity
  8
0
100
AcDbPoint
 10
48.65023957187056
 20
-1.2737821000568157
 30
0.0
  0
POINT
  5
33
330
17
100
AcDbEntity
  8
0
100
AcDbPoint
 10
48.63730838638736
 20
-1.698225637473392
 30
0.0
  0
POINT
  5
34
330
17
100
AcDbEntity
  8
0
100
AcDbPoint
 10
48.620453618304204
 20
-2.122530317626154
 30
0.0
  0
POINT
  5
35
330
17
100
AcDbEntity
  8
0
100
AcDbPoint
 10
48.600176786177784
 20
-2.5466890820734505
 30
0.0
  0
POINT
  5
36
330
17
100
AcDbEntity
  8
0
100
AcDbPoint
 10
48.57638384948425
 20
-2.9706621775295954
 30
0.0
  0
POINT
  5
37
330
17
100
AcDbEntity
  8
0
100
AcDbPoint
 10
48.548355615935016
 20
-3.3943767421591873
 30
0.0
  0
POINT
  5
38
330
17
100
AcDbEntity
  8
0
100
AcDbPoint
 10
48.51675118314881
 20
-3.817841064553018
 30
0.0
  0
POINT
  5
39
330
17
100
AcDbEntity
  8
0
100
AcDbPoint
 10
48.48175224083584
 20
-4.241036320468418
 30
0.0
  0
POINT
  5
3A
330
17
100
AcDbEntity
  8
0
100
AcDbPoint
 10
48.442993594032636
 20
-4.663904382759118
 30
0.0
  0
POINT
  5
3B
330
17
100
AcDbEntity
  8
0
100
AcDbPoint
 10
48.40025269256912
 20
-5.086387477997588
 30
0.0
  0
POINT
  5
3C
330
17
100
AcDbEntity
  8
0
100
AcDbPoint
 10
48.35407445998961
 20
-5.508512246163872
 30
0.0
  0
POINT
  5
3D
330
17
100
AcDbEntity
  8
0
100
AcDbPoint
 10
48.30441366945487
 20
-5.930238292132645
 30
0.0
  0
POINT
  5
3E
330
17
100
AcDbEntity
  8
0
100
AcDbPoint
 10
48.25063267539841
 20
-6.35145938053782
 30
0.0
  0
POINT
  5
3F
330
17
100
AcDbEntity
  8
0
100
AcDbPoint
 10
48.19323845529454
 20
-6.772204062896835
 30
0.0
  0
POINT
  5
40
330
17
100
AcDbEntity
  8
0
100
AcDbPoint
 10
48.13245722030893
 20
-7.192472235809053
 30
0.0
  0
POINT
  5
41
330
17
100
AcDbEntity
  8
0
100
AcDbPoint
 10
48.06802013934996
 20
-7.612195332334454
 30
0.0
  0
POINT
  5
42
330
17
100
AcDbEntity
  8
0
100
AcDbPoint
 10
47.99955085637853
 20
-8.03127865653744
 30
0.0
  0
POINT
  5
43
330
17
100
AcDbEntity
  8
0
100
AcDbPoint
 10
47.92764044224653
 20
-8.449788709597568
 30
0.0
  0
POINT
  5
44
330
17
100
AcDbEntity
  8
0
100
AcDbPoint
 10
47.85230476782171
 20
-8.867692275400582
 30
0.0
  0
POINT
  5
45
330
17
100
AcDbEntity
  8
0
100
AcDbPoint
 10
47.772972625674235
 20
-9.284856531725563
 30
0.0
  0
POINT
  5
46
330
17
100
AcDbEntity
  8
0
100
AcDbPoint
 10
47.68999446386888
 20
-9.701310856170789
 30
0.0
  0
POINT
  5
47
330
17
100
AcDbEntity
  8
0
100
AcDbPoint
 10
47.60366559309789
 20
-10.117084399519964
 30
0.0
  0
POINT
  5
48
330
17
100
AcDbEntity
  8
0
100
AcDbPoint
 10
47.513788215865645
 20
-10.532104491344139
 30
0.0
  0
POINT
  5
49
330
17
100
AcDbEntity
  8
0
100
AcDbPoint
 10
47.419839531004826
 20
-10.946221299971407
 30
0.0
  0
POINT
  5
4A
330
17
100
AcDbEntity
  8
0
100
AcDbPoint
 10
47.32246624003133
 20
-11.35954948155219
 30
0.0
  0
POINT
  5
4B
330
17
100
AcDbEntity
  8
0
100
AcDbPoint
 10
47.22174392459461
 20
-11.772070703552851
 30
0.0
  0
POINT
  5
4C
330
17
100
AcDbEntity
  8
0
100
AcDbPoint
 10
47.11715598541472
 20
-12.1836299244911
 30
0.0
  0
POINT
  5
4D
330
17
100
AcDbEntity
  8
0
100
AcDbPoint
 10
47.00889603132088
 20
-12.594237808780548
 30
0.0
  0
POINT
  5
4E
330
17
100
AcDbEntity
  8
0
100
AcDbPoint
 10
46.897349608137695
 20
-13.003967475915148
 30
0.0
  0
POINT
  5
4F
330
17
100
AcDbEntity
  8
0
100
AcDbPoint
 10
46.78236357814576
 20
-13.412743526676646
 30
0.0
  0
POINT
  5
50
330
17
100
AcDbEntity
  8
0
100
AcDbPoint
 10
46.663280232237376
 20
-13.820344469811833
 30
0.0
  0
POINT
  5
51
330
17
100
AcDbEntity
  8
0
100
AcDbPoint
 10
46.54080934789072
 20
-14.226943238956778
 30
0.0
  0
POINT
  5
52
330
17
100
AcDbEntity
  8
0
100
AcDbPoint
 10
46.415083002710375
 20
-14.632543529887835
 30
0.0
  0
POINT
  5
53
330
17
100
AcDbEntity
  8
0
100
AcDbPoint
 10
46.28562692660552
 20
-15.036970012508409
 30
0.0
  0
POINT
  5
54
330
17
100
AcDbEntity
  8
0
100
AcDbPoint
 10
46.152487028681904
 20
-15.440197565354868
 30
0.0
  0
POINT
  5
55
330
17
100
AcDbEntity
  8
0
100
AcDbPoint
 10
46.01613454877652
 20
-15.842353776720831
 30
0.0
  0
POINT
  5
56
330
17
100
AcDbEntity
  8
0
100
AcDbPoint
 10
45.87644448357925
 20
-16.243360376121625
 30
0.0
  0
POINT
  5
57
330
17
100
AcDbEntity
  8
0
100
AcDbPoint
 10
45.73268525337808
 20
-16.642926276766364
 30
0.0
  0
POINT
  5
58
330
17
100
AcDbEntity
  8
0
100
AcDbPoint
 10
45.585589613187786
 20
-17.041278297547642
 30
0.0
  0
POINT
  5
59
330
17
100
AcDbEntity
  8
0
100
AcDbPoint
 10
45.43532898101408
 20
-17.438443917063847
 30
0.0
  0
POINT
  5
5A
330
17
100
AcDbEntity
  8
0
100
AcDbPoint
 10
45.28148394146396
 20
-17.834235982887648
 30
0.0
  0
POINT
  5
5B
330
17
100
AcDbEntity
  8
0
100
AcDbPoint
 10
45.12397142227226
 20
-18.22858166495262
 30
0.0
  0
POINT
  5
5C
330
17
100
AcDbEntity
  8
0
100
AcDbPoint
 10
44.96327882012548
 20
-18.621646004173222
 30
0.0
  0
POINT
  5
5D
330
17
100
AcDbEntity
  8
0
100
AcDbPoint
 10
44.79933716590694
 20
-19.01336327168047
 30
0.0
  0
POINT
  5
5E
330
17
100
AcDbEntity
  8
0
100
AcDbPoint
 10
44.6315084161551
 20
-19.40343134753939
 30
0.0
  0
POINT
  5
5F
330
17
100
AcDbEntity
  8
0
100
AcDbPoint
 10
44.460378087442976
 20
-19.792063735202227
 30
0.0
  0
POINT
  5
60
330
17
100
AcDbEntity
  8
0
100
AcDbPoint
 10
44.28613433488914
 20
-20.179308328307428
 30
0.0
  0
POINT
  5
61
330
17
100
AcDbEntity
  8
0
100
AcDbPoint
 10
44.108473333610654
 20
-20.5649975846196
 30
0.0
  0
POINT
  5
62
330
17
100
AcDbEntity
  8
0
100
AcDbPoint
 10
43.92717109888108
 20
-20.948987504393727
 30
0.0
  0
POINT
  5
63
330
17
100
AcDbEntity
  8
0
100
AcDbPoint
 10
43.742738357528786
 20
-21.331487594470797
 30
0.0
  0
POINT
  5
64
330
17
100
AcDbEntity
  8
0
100
AcDbPoint
 10
43.55516404158221
 20
-21.712453334671874
 30
0.0
  0
POINT
  5
65
330
17
100
AcDbEntity
  8
0
100
AcDbPoint
 10
43.36389145522683
 20
-22.091576510433654
 30
0.0
  0
POINT
  5
66
330
17
100
AcDbEntity
  8
0
100
AcDbPoint
 10
43.16935669727161
 20
-22.46903682002036
 30
0.0
  0
POINT
  5
67
330
17
100
AcDbEntity
  8
0
100
AcDbPoint
 10
42.97178724468028
 20
-22.844917286636214
 30
0.0
  0
POINT
  5
68
330
17
100
AcDbEntity
  8
0
100
AcDbPoint
 10
42.770969526305564
 20
-23.21907216328775
 30
0.0
  0
POINT
  5
69
330
17
100
AcDbEntity
  8
0
100
AcDbPoint
 10
42.566548085315205
 20
-23.591269386836185
 30
0.0
  0
POINT
  5
6A
330
17
100
AcDbEntity
  8
0
100
AcDbPoint
 10
42.35906557541415
 20
-23.961772800893915
 30
0.0
  0
POINT
  5
6B
330
17
100
AcDbEntity
  8
0
100
AcDbPoint
 10
42.148565519857776
 20
-24.330566187267973
 30
0.0
  0
POINT
  5
6C
330
17
100
AcDbEntity
  8
0
100
AcDbPoint
 10
41.934560693979684
 20
-24.697337960100715
 30
0.0
  0
POINT
  5
6D
330
17
100
AcDbEntity
  8
0
100
AcDbPoint
 10
41.717340081494754
 20
-25.062214201184492
 30
0.0
  0
POINT
  5
6E
330
17
100
AcDbEntity
  8
0
100
AcDbPoint
 10
41.497189249493516
 20
-25.425331338760092
 30
0.0
  0
POINT
  5
6F
330
17
100
AcDbEntity
  8
0
100
AcDbPoint
 10
41.27395917192481
 20
-25.78656253055917
 30
0.0
  0
POINT
  5
70
330
17
100
AcDbEntity
  8
0
100
AcDbPoint
 10
41.04717626784959
 20
-26.145573167986967
 30
0.0
  0
POINT
  5
71
330
17
100
AcDbEntity
  8
0
100
AcDbPoint
 10
40.817420993824605
 20
-26.50269254737787
 30
0.0
  0
POINT
  5
72
330
17
100
AcDbEntity
  8
0
100
AcDbPoint
 10
40.58478751946839
 20
-26.85793951217126
 30
0.0
  0
POINT
  5
73
330
17
100
AcDbEntity
  8
0
100
AcDbPoint
 10
40.34884544644753
 20
-27.21099895429787
 30
0.0
  0
POINT
  5
74
330
17
100
AcDbEntity
  8
0
100
AcDbPoint
 10
40.10974329739552
 20
-27.56192503423641
 30
0.0
  0
POINT
  5
75
330
17
100
AcDbEntity
  8
0
100
AcDbPoint
 10
39.867839306420784
 20
-27.910928771810234
 30
0.0
  0
POINT
  5
76
330
17
100
AcDbEntity
  8
0
100
AcDbPoint
 10
39.62302369536324
 20
-28.257894179959024
 30
0.0
  0
POINT
  5
77
330
17
100
AcDbEntity
  8
0
100
AcDbPoint
 10
39.37472148106573
 20
-28.60237266656509
 30
0.0
  0
POINT
  5
78
330
17
100
AcDbEntity
  8
0
100
AcDbPoint
 10
39.123554619262535
 20
-28.94477138825196
 30
0.0
  0
POINT
  5
79
330
17
100
AcDbEntity
  8
0
100
AcDbPoint
 10
38.869661480598324
 20
-29.28514908830356
 30
0.0
  0
POINT
  5
7A
330
17
100
AcDbEntity
  8
0
100
AcDbPoint
 10
38.6126569883269
 20
-29.623185099754405
 30
0.0
  0
POINT
  5
7B
330
17
100
AcDbEntity
  8
0
100
AcDbPoint
 10
38.35256791788409
 20
-29.95885214600477
 30
0.0
  0
POINT
  5
7C
330
17
100
AcDbEntity
  8
0
100
AcDbPoint
 10
38.0897985875083
 20
-30.292429572874543
 30
0.0
  0
POINT
  5
7D
330
17
100
AcDbEntity
  8
0
100
AcDbPoint
 10
37.824272043933
 20
-30.62381335432505
 30
0.0
  0
POINT
  5
7E
330
17
100
AcDbEntity
  8
0
100
AcDbPoint
 10
37.555406428007686
 20
-30.95249385876037
 30
0.0
  0
POINT
  5
7F
330
17
100
AcDbEntity
  8
0
100
AcDbPoint
 10
37.28379010178637
 20
-31.278907522638892
 30
0.0
  0
POINT
  5
80
330
17
100
AcDbEntity
  8
0
100
AcDbPoint
 10
37.0095819154861
 20
-31.603143163956545
 30
0.0
  0
POINT
  5
81
330
17
100
AcDbEntity
  8
0
100
AcDbPoint
 10
36.73246870565611
 20
-31.924900716592987
 30
0.0
  0
POINT
  5
82
330
17
100
AcDbEntity
  8
0
100
AcDbPoint
 10
36.45236868718765
 20
-32.24406005946811
 30
0.0
  0
POINT
  5
83
330
17
100
AcDbEntity
  8
0
100
AcDbPoint
 10
36.169689714863885
 20
-32.56094220908481
 30
0.0
  0
POINT
  5
84
330
17
100
AcDbEntity
  8
0
100
AcDbPoint
 10
35.88440372758289
 20
-32.87547542816082
 30
0.0
  0
POINT
  5
85
330
17
100
AcDbEntity
  8
0
100
AcDbPoint
 10
35.596018573894796
 20
-33.187170108250626
 30
0.0
  0
POINT
  5
86
330
17
100
AcDbEntity
  8
0
100
AcDbPoint
 10
35.30498891340385
 20
-33.49639869902221
 30
0.0
  0
POINT
  5
87
330
17
100
AcDbEntity
  8
0
100
AcDbPoint
 10
35.01148516586564
 20
-33.80327801934279
 30
0.0
  0
POINT
  5
88
330
17
100
AcDbEntity
  8
0
100
AcDbPoint
 10
34.71529307958765
 20
-34.10756388565205
 30
0.0
  0
POINT
  5
89
330
17
100
AcDbEntity
  8
0
100
AcDbPoint
 10
34.41622317138458
 20
-34.40902028399935
 30
0.0
  0
POINT
  5
8A
330
17
100
AcDbEntity
  8
0
100
AcDbPoint
 10
34.11469190720596
 20
-34.70801971011013
 30
0.0
  0
POINT
  5
8B
330
17
100
AcDbEntity
  8
0
100
AcDbPoint
 10
33.81071785261225
 20
-35.004530692732
 30
0.0
  0
POINT
  5
8C
330
17
100
AcDbEntity
  8
0
100
AcDbPoint
 10
33.50388578243191
 20
-35.29808418433984
 30
0.0
  0
POINT
  5
8D
330
17
100
AcDbEntity
  8
0
100
AcDbPoint
 10
33.194521831014626
 20
-35.58896883184428
 30
0.0
  0
POINT
  5
8E
330
17
100
AcDbEntity
  8
0
100
AcDbPoint
 10
32.88282386052071
 20
-35.877351059436236
 30
0.0
  0
POINT
  5
8F
330
17
100
AcDbEntity
  8
0
100
AcDbPoint
 10
32.56865201826689
 20
-36.16303567014154
 30
0.0
  0
POINT
  5
90
330
17
100
AcDbEntity
  8
0
100
AcDbPoint
 10
32.2517240054736
 20
-36.4456583144723
 30
0.0
  0
POINT
  5
91
330
17
100
AcDbEntity
  8
0
100
AcDbPoint
 10
31.93246939761273
 20
-36.725655218464354
 30
0.0
  0
POINT
  5
92
330
17
100
AcDbEntity
  8
0
100
AcDbPoint
 10
31.610947832507684
 20
-37.00304069346626
 30
0.0
  0
POINT
  5
93
330
17
100
AcDbEntity
  8
0
100
AcDbPoint
 10
31.28680893929936
 20
-37.27736454041679
 30
0.0
  0
POINT
  5
94
330
17
100
AcDbEntity
  8
0
100
AcDbPoint
 10
30.960259486340448
 20
-37.54881399938257
 30
0.0
  0
POINT
  5
95
330
17
100
AcDbEntity
  8
0
100
AcDbPoint
 10
30.63153587648025
 20
-37.81762874237857
 30
0.0
  0
POINT
  5
96
330
17
100
AcDbEntity
  8
0
100
AcDbPoint
 10
30.300549543175936
 20
-38.08365075934733
 30
0.0
  0
POINT
  5
97
330
17
100
AcDbEntity
  8
0
100
AcDbPoint
 10
29.96694308388368
 20
-38.346378551021665
 30
0.0
  0
POINT
  5
98
330
17
100
AcDbEntity
  8
0
100
AcDbPoint
 10
29.631160695678847
 20
-38.606324541615926
 30
0.0
  0
POINT
  5
99
330
17
100
AcDbEntity
  8
0
100
AcDbPoint
 10
29.293297052563243
 20
-38.86355380987524
 30
0.0
  0
POINT
  5
9A
330
17
100
AcDbEntity
  8
0
100
AcDbPoint
 10
28.95305485033191
 20
-39.11763033442234
 30
0.0
  0
POINT
  5
9B
330
17
100
AcDbEntity
  8
0
100
AcDbPoint
 10
28.61053419710058
 20
-39.36862526348743
 30
0.0
  0
POINT
  5
9C
330
17
100
AcDbEntity
  8
0
100
AcDbPoint
 10
28.266016206694005
 20
-39.616876449204604
 30
0.0
  0
POINT
  5
9D
330
17
100
AcDbEntity
  8
0
100
AcDbPoint
 10
27.91944264627309
 20
-39.862246535289685
 30
0.0
  0
POINT
  5
9E
330
17
100
AcDbEntity
  8
0
100
AcDbPoint
 10
27.570400803643764
 20
-40.10409205745485
 30
0.0
  0
POINT
  5
9F
330
17
100
AcDbEntity
  8
0
100
AcDbPoint
 10
27.219348766733507
 20
-40.34301494174476
 30
0.0
  0
POINT
  5
A0
330
17
100
AcDbEntity
  8
0
100
AcDbPoint
 10
26.866407852362084
 20
-40.579132311703916
 30
0.0
  0
POINT
  5
A1
330
17
100
AcDbEntity
  8
0
100
AcDbPoint
 10
26.511324277733642
 20
-40.81201707084018
 30
0.0
  0
POINT
  5
A2
330
17
100
AcDbEntity
  8
0
100
AcDbPoint
 10
26.154115241473736
 20
-41.04162629516478
 30
0.0
  0
POINT
  5
A3
330
17
100
AcDbEntity
  8
0
100
AcDbPoint
 10
25.795070703634266
 20
-41.268361038485715
 30
0.0
  0
POINT
  5
A4
330
17
100
AcDbEntity
  8
0
100
AcDbPoint
 10
25.434162927696782
 20
-41.49211332093833
 30
0.0
  0
POINT
  5
A5
330
17
100
AcDbEntity
  8
0
100
AcDbPoint
 10
25.071020439953152
 20
-41.71222033623173
 30
0.0
  0
POINT
  5
A6
330
17
100
AcDbEntity
  8
0
100
AcDbPoint
 10
24.70603431790122
 20
-41.9292601721169
 30
0.0
  0
POINT
  5
A7
330
17
100
AcDbEntity
  8
0
100
AcDbPoint
 10
24.339329054128765
 20
-42.14337748992453
 30
0.0
  0
POINT
  5
A8
330
17
100
AcDbEntity
  8
0
100
AcDbPoint
 10
23.970722554856476
 20
-42.3542065757843
 30
0.0
  0
POINT
  5
A9
330
17
100
AcDbEntity
  8
0
100
AcDbPoint
 10
23.600159531761754
 20
-42.56157521070579
 30
0.0
  0
POINT
  5
AA
330
17
100
AcDbEntity
  8
0
100
AcDbPoint
 10
23.227919812177934
 20
-42.765926134087266
 30
0.0
  0
POINT
  5
AB
330
17
100
AcDbEntity
  8
0
100
AcDbPoint
 10
22.85401061561125
 20
-42.96719985792223
 30
0.0
  0
POINT
  5
AC
330
17
100
AcDbEntity
  8
0
100
AcDbPoint
 10
22.47813659126918
 20
-43.16478090129835
 30
0.0
  0
POINT
  5
AD
330
17
100
AcDbEntity
  8
0
100
AcDbPoint
 10
22.10058553855448
 20
-43.35914049555904
 30
0.0
  0
POINT
  5
AE
330
17
100
AcDbEntity
  8
0
100
AcDbPoint
 10
21.72148487742484
 20
-43.55045741778809
 30
0.0
  0
POINT
  5
AF
330
17
100
AcDbEntity
  8
0
100
AcDbPoint
 10
21.340724202361784
 20
-43.738449327805085
 30
0.0
  0
POINT
  5
B0
330
17
100
AcDbEntity
  8
0
100
AcDbPoint
 10
20.958187295937524
 20
-43.922797637163285
 30
0.0
  0
POINT
  5
B1
330
17
100
AcDbEntity
  8
0
100
AcDbPoint
 10
20.574145679038914
 20
-44.10399863243882
 30
0.0
  0
POINT
  5
B2
330
17
100
AcDbEntity
  8
0
100
AcDbPoint
 10
20.18863595009023
 20
-44.28204696784938
 30
0.0
  0
POINT
  5
B3
330
17
100
AcDbEntity
  8
0
100
AcDbPoint
 10
19.801427008866508
 20
-44.456370801380444
 30
0.0
  0
POINT
  5
B4
330
17
100
AcDbEntity
  8
0
100
AcDbPoint
 10
19.412715106523724
 20
-44.62731775228247
 30
0.0
  0
POINT
  5
B5
330
17
100
AcDbEntity
  8
0
100
AcDbPoint
 10
19.022637982177947
 20
-44.79512688903823
 30
0.0
  0
POINT
  5
B6
330
17
100
AcDbEntity
  8
0
100
AcDbPoint
 10
18.63113614913376
 20
-44.95958349606701
 30
0.0
  0
POINT
  5
B7
330
17
100
AcDbEntity
  8
0
100
AcDbPoint
 10
18.23805040245056
 20
-45.12021504084923
 30
0.0
  0
POINT
  5
B8
330
17
100
AcDbEntity
  8
0
100
AcDbPoint
 10
17.843646784444395
 20
-45.277592624571554
 30
0.0
  0
POINT
  5
B9
330
17
100
AcDbEntity
  8
0
100
AcDbPoint
 10
17.44797739321019
 20
-45.43174967264373
 30
0.0
  0
POINT
  5
BA
330
17
100
AcDbEntity
  8
0
100
AcDbPoint
 10
17.050880111375207
 20
-45.58219385109557
 30
0.0
  0
POINT
  5
BB
330
17
100
AcDbEntity
  8
0
100
AcDbPoint
 10
16.652577500934736
 20
-45.72941915584811
 30
0.0
  0
POINT
  5
BC
330
17
100
AcDbEntity
  8
0
100
AcDbPoint
 10
16.253289650634006
 20
-45.873954724651746
 30
0.0
  0
POINT
  5
BD
330
17
100
AcDbEntity
  8
0
100
AcDbPoint
 10
15.853032961313437
 20
-46.015783107833535
 30
0.0
  0
POINT
  5
BE
330
17
100
AcDbEntity
  8
0
100
AcDbPoint
 10
15.451650767672556
 20
-46.1543938904594
 30
0.0
  0
POINT
  5
BF
330
17
100
AcDbEntity
  8
0
100
AcDbPoint
 10
15.049350309539646
 20
-46.29032380941579
 30
0.0
  0
POINT
  5
C0
330
17
100
AcDbEntity
  8
0
100
AcDbPoint
 10
14.646195020450826
 20
-46.42369126395699
 30
0.0
  0
POINT
  5
C1
330
17
100
AcDbEntity
  8
0
100
AcDbPoint
 10
14.242076221475164
 20
-46.55411408982732
 30
0.0
  0
POINT
  5
C2
330
17
100
AcDbEntity
  8
0
100
AcDbPoint
 10
13.837042060620742
 20
-46.68166589157924
 30
0.0
  0
POINT
  5
C3
330
17
100
AcDbEntity
  8
0
100
AcDbPoint
 10
13.43122326593957
 20
-46.80670812780111
 30
0.0
  0
POINT
  5
C4
330
17
100
AcDbEntity
  8
0
100
AcDbPoint
 10
13.02461461437734
 20
-46.92915674855499
 30
0.0
  0
POINT
  5
C5
330
17
100
AcDbEntity
  8
0
100
AcDbPoint
 10
12.617062597544892
 20
-47.048430343291834
 30
0.0
  0
POINT
  5
C6
330
17
100
AcDbEntity
  8
0
100
AcDbPoint
 10
12.208757095688632
 20
-47.16510800960799
 30
0.0
  0
POINT
  5
C7
330
17
100
AcDbEntity
  8
0
100
AcDbPoint
 10
11.799764259821373
 20
-47.2793505602072
 30
0.0
  0
POINT
  5
C8
330
17
100
AcDbEntity
  8
0
100
AcDbPoint
 10
11.390004345974488
 20
-47.390818125822484
 30
0.0
  0
POINT
  5
C9
330
17
100
AcDbEntity
  8
0
100
AcDbPoint
 10
10.979486628835922
 20
-47.49946490493756
 30
0.0
  0
POINT
  5
CA
330
17
100
AcDbEntity
  8
0
100
AcDbPoint
 10
10.568323376780533
 20
-47.605656721509526
 30
0.0
  0
POINT
  5
CB
330
17
100
AcDbEntity
  8
0
100
AcDbPoint
 10
10.15652701095966
 20
-47.70936857670517
 30
0.0
  0
POINT
  5
CC
330
17
100
AcDbEntity
  8
0
100
AcDbPoint
 10
9.743991015160068
 20
-47.81010554518344
 30
0.0
  0
POINT
  5
CD
330
17
100
AcDbEntity
  8
0
100
AcDbPoint
 10
9.330837446982773
 20
-47.90829120847603
 30
0.0
  0
POINT
  5
CE
330
17
100
AcDbEntity
  8
0
100
AcDbPoint
 10
8.9171267799059
 20
-48.00410925074263
 30
0.0
  0
POINT
  5
CF
330
17
100
AcDbEntity
  8
0
100
AcDbPoint
 10
8.50282403391887
 20
-48.09734613093856
 30
0.0
  0
POINT
  5
D0
330
17
100
AcDbEntity
  8
0
100
AcDbPoint
 10
8.0878991178362
 20
-48.187782410018386
 30
0.0
  0
POINT
  5
D1
330
17
100
AcDbEntity
  8
0
100
AcDbPoint
 10
7.672448232739666
 20
-48.27579212451191
 30
0.0
  0
POINT
  5
D2
330
17
100
AcDbEntity
  8
0
100
AcDbPoint
 10
7.256503427821678
 20
-48.36144520041406
 30
0.0
  0
POINT
  5
D3
330
17
100
AcDbEntity
  8
0
100
AcDbPoint
 10
6.839997781161809
 20
-48.44434376183522
 30
0.0
  0
POINT
  5
D4
330
17
100
AcDbEntity
  8
0
100
AcDbPoint
 10
6.422988622969034
 20
-48.52468746902605
 30
0.0
  0
POINT
  5
D5
330
17
100
AcDbEntity
  8
0
100
AcDbPoint
 10
6.005539913439215
 20
-48.60273771619389
 30
0.0
  0
POINT
  5
D6
330
17
100
AcDbEntity
  8
0
100
AcDbPoint
 10
5.587651736015792
 20
-48.6784194688272
 30
0.0
  0
POINT
  5
D7
330
17
100
AcDbEntity
  8
0
100
AcDbPoint
 10
5.169259047729327
 20
-48.75127658538573
 30
0.0
  0
POINT
  5
D8
330
17
100
AcDbEntity
  8
0
100
AcDbPoint
 10
4.750447437508244
 20
-48.821717423659166
 30
0.0
  0
POINT
  5
D9
330
17
100
AcDbEntity
  8
0
100
AcDbPoint
 10
4.331267473503502
 20
-48.88995042239295
 30
0.0
  0
POINT
  5
DA
330
17
100
AcDbEntity
  8
0
100
AcDbPoint
 10
3.911682346474344
 20
-48.955675677920134
 30
0.0
  0
POINT
  5
DB
330
17
100
AcDbEntity
  8
0
100
AcDbPoint
 10
3.4916979137308157
 20
-49.01882474114354
 30
0.0
  0
POINT
  5
DC
330
17
100
AcDbEntity
  8
0
100
AcDbPoint
 10
3.0713684622831834
 20
-49.079675983496486
 30
0.0
  0
POINT
  5
DD
330
17
100
AcDbEntity
  8
0
100
AcDbPoint
 10
2.650720752107437
 20
-49.138319343938484
 30
0.0
  0
POINT
  5
DE
330
17
100
AcDbEntity
  8
0
100
AcDbPoint
 10
2.2297109384676186
 20
-49.1943374854635
 30
0.0
  0
POINT
  5
DF
330
17
100
AcDbEntity
  8
0
100
AcDbPoint
 10
1.8083790558249235
 20
-49.24792192516588
 30
0.0
  0
POINT
  5
E0
330
17
100
AcDbEntity
  8
0
100
AcDbPoint
 10
1.3867728095041276
 20
-49.29935022751689
 30
0.0
  0
POINT
  5
E1
330
17
100
AcDbEntity
  8
0
100
AcDbPoint
 10
0.9648991194051435
 20
-49.34859070837956
 30
0.0
  0
POINT
  5
E2
330
17
100
AcDbEntity
  8
0
100
AcDbPoint
 10
0.5427219156110918
 20
-49.39519780233936
 30
0.0
  0
POINT
  5
E3
330
17
100
AcDbEntity
  8
0
100
AcDbPoint
 10
0.12028187159351218
 20
-49.43942675833281
 30
0.0
  0
POINT
  5
E4
330
17
100
AcDbEntity
  8
0
100
AcDbPoint
 10
-0.30237322356083746
 20
-49.4816073873393
 30
0.0
  0
POINT
  5
E5
330
17
100
AcDbEntity
  8
0
100
AcDbPoint
 10
-0.7252547084203483
 20
-49.52152725087022
 30
0.0
  0
POINT
  5
E6
330
17
100
AcDbEntity
  8
0
100
AcDbPoint
 10
-1.1483666367022027
 20
-49.558992191196566
 30
0.0
  0
POINT
  5
E7
330
17
100
AcDbEntity
  8
0
100
AcDbPoint
 10
-1.5716824535310856
 20
-49.594169105521416
 30
0.0
  0
POINT
  5
E8
330
17
100
AcDbEntity
  8
0
100
AcDbPoint
 10
-1.9951693926606235
 20
-49.627312975999054
 30
0.0
  0
POINT
  5
E9
330
17
100
AcDbEntity
  8
0
100
AcDbPoint
 10
-2.4188359979279825
 20
-49.65817087779267
 30
0.0
  0
POINT
  5
EA
330
17
100
AcDbEntity
  8
0
100
AcDbPoint
 10
-2.842674601366324
 20
-49.686675825859766
 30
0.0
  0
POINT
  5
EB
330
17
100
AcDbEntity
  8
0
100
AcDbPoint
 10
-3.266662312471533
 20
-49.71299746085211
 30
0.0
  0
POINT
  5
EC
330
17
100
AcDbEntity
  8
0
100
AcDbPoint
 10
-3.6907772830669563
 20
-49.73733260952662
 30
0.0
  0
POINT
  5
ED
330
17
100
AcDbEntity
  8
0
100
AcDbPoint
 10
-4.115023327302377
 20
-49.75940557321186
 30
0.0
  0
POINT
  5
EE
330
17
100
AcDbEntity
  8
0
100
AcDbPoint
 10
-4.539391861403626
 20
-49.779160863439046
 30
0.0
  0
POINT
  5
EF
330
17
100
AcDbEntity
  8
0
100
AcDbPoint
 10
-4.963861163704024
 20
-49.79682015556786
 30
0.0
  0
POINT
  5
F0
330
17
100
AcDbEntity
  8
0
100
AcDbPoint
 10
-5.388416521518247
 20
-49.812540127328624
 30
0.0
  0
POINT
  5
F1
330
17
100
AcDbEntity
  8
0
100
AcDbPoint
 10
-5.813055468532824
 20
-49.82606902618235
 30
0.0
  0
POINT
  5
F2
330
17
100
AcDbEntity
  8
0
100
AcDbPoint
 10
-6.237770670081763
 20
-49.83728990730413
 30
0.0
  0
POINT
  5
F3
330
17
100
AcDbEntity
  8
0
100
AcDbPoint
 10
-6.662544083835057
 20
-49.84646373927801
 30
0.0
  0
POINT
  5
F4
330
17
100
AcDbEntity
  8
0
100
AcDbPoint
 10
-7.087364874631133
 20
-49.85373767860874
 30
0.0
  0
POINT
  5
F5
330
17
100
AcDbEntity
  8
0
100
AcDbPoint
 10
-7.5122255502888775
 20
-49.85892625850534
 30
0.0
  0
POINT
  5
F6
330
17
100
AcDbEntity
  8
0
100
AcDbPoint
 10
-7.937117482892207
 20
-49.86183637920137
 30
0.0
  0
POINT
  5
F7
330
17
100
AcDbEntity
  8
0
100
AcDbPoint
 10
-8.3620283906772
 20
-49.862695437236844
 30
0.0
  0
POINT
  5
F8
330
17
100
AcDbEntity
  8
0
100
AcDbPoint
 10
-8.786949960621898
 20
-49.8616640900969
 30
0.0
  0
POINT
  5
F9
330
17
100
AcDbEntity
  8
0
100
AcDbPoint
 10
-9.21187273337386
 20
-49.858658682452756
 30
0.0
  0
POINT
  5
FA
330
17
100
AcDbEntity
  8
0
100
AcDbPoint
 10
-9.636784577996297
 20
-49.85346263482256
 30
0.0
  0
POINT
  5
FB
330
17
100
AcDbEntity
  8
0
100
AcDbPoint
 10
-10.061676348457398
 20
-49.84617842213109
 30
0.0
  0
POINT
  5
FC
330
17
100
AcDbEntity
  8
0
100
AcDbPoint
 10
-10.486542041589743
 20
-49.83696565219193
 30
0.0
  0
POINT
  5
FD
330
17
100
AcDbEntity
  8
0
100
AcDbPoint
 10
-10.91137426906711
 20
-49.82586752386615
 30
0.0
  0
POINT
  5
FE
330
17
100
AcDbEntity
  8
0
100
AcDbPoint
 10
-11.336160008537341
 20
-49.81273951759701
 30
0.0
  0
POINT
  5
FF
330
17
100
AcDbEntity
  8
0
100
AcDbPoint
 10
-11.76088624087436
 20
-49.79749744942802
 30
0.0
  0
POINT
  5
100
330
17
100
AcDbEntity
  8
0
100
AcDbPoint
 10
-12.185546356268322
 20
-49.78022430314456
 30
0.0
  0
POINT
  5
101
330
17
100
AcDbEntity
  8
0
100
AcDbPoint
 10
-12.610139553275921
 20
-49.76110771400158
 30
0.0
  0
POINT
  5
102
330
17
100
AcDbEntity
  8
0
100
AcDbPoint
 10
-13.034660922892066
 20
-49.740184087054715
 30
0.0
  0
POINT
  5
103
330
17
100
AcDbEntity
  8
0
100
AcDbPoint
 10
-13.459085913682896
 20
-49.7171794702578
 30
0.0
  0
POINT
  5
104
330
17
100
AcDbEntity
  8
0
100
AcDbPoint
 10
-13.883397883703882
 20
-49.69197542369637
 30
0.0
  0
POINT
  5
105
330
17
100
AcDbEntity
  8
0
100
AcDbPoint
 10
-14.307609447575794
 20
-49.664937056473114
 30
0.0
  0
POINT
  5
106
330
17
100
AcDbEntity
  8
0
100
AcDbPoint
 10
-14.731716200468037
 20
-49.6361074953576
 30
0.0
  0
POINT
  5
107
330
17
100
AcDbEntity
  8
0
100
AcDbPoint
 10
-15.155701766710548
 20
-49.60536501853843
 30
0.0
  0
POINT
  5
108
330
17
100
AcDbEntity
  8
0
100
AcDbPoint
 10
-15.57954761365378
 20
-49.57258953457645
 30
0.0
  0
POINT
  5
109
330
17
100
AcDbEntity
  8
0
100
AcDbPoint
 10
-16.003244363780098
 20
-49.53778590647839
 30
0.0
  0
POINT
  5
10A
330
17
100
AcDbEntity
  8
0
100
AcDbPoint
 10
-16.42679249005515
 20
-49.501066292785914
 30
0.0
  0
POINT
  5
10B
330
17
100
AcDbEntity
  8
0
100
AcDbPoint
 10
-16.850194423590338
 20
-49.46254641279513
 30
0.0
  0
POINT
  5
10C
330
17
100
AcDbEntity
  8
0
100
AcDbPoint
 10
-17.273442859944375
 20
-49.42222312958747
 30
0.0
  0
POINT
  5
10D
330
17
100
AcDbEntity
  8
0
100
AcDbPoint
 10
-17.69650472046362
 20
-49.37986030092134
 30
0.0
  0
POINT
  5
10E
330
17
100
AcDbEntity
  8
0
100
AcDbPoint
 10
-18.119369263524547
 20
-49.33544342271049
 30
0.0
  0
POINT
  5
10F
330
17
100
AcDbEntity
  8
0
100
AcDbPoint
 10
-18.5420462376388
 20
-49.28915197098375
 30
0.0
  0
POINT
  5
110
330
17
100
AcDbEntity
  8
0
100
AcDbPoint
 10
-18.96453166928892
 20
-49.241021754084315
 30
0.0
  0
POINT
  5
111
330
17
100
AcDbEntity
  8
0
100
AcDbPoint
 10
-19.386824227952925
 20
-49.19110094502432
 30
0.0
  0
POINT
  5
112
330
17
100
AcDbEntity
  8
0
100
AcDbPoint
 10
-19.808906533286716
 20
-49.13931636938581
 30
0.0
  0
POINT
  5
113
330
17
100
AcDbEntity
  8
0
100
AcDbPoint
 10
-20.230744524431106
 20
-49.085472599960035
 30
0.0
  0
POINT
  5
114
330
17
100
AcDbEntity
  8
0
100
AcDbPoint
 10
-20.652341670103915
 20
-49.02966889420471
 30
0.0
  0
POINT
  5
115
330
17
100
AcDbEntity
  8
0
100
AcDbPoint
 10
-21.073704215177273
 20
-48.97201679640154
 30
0.0
  0
POINT
  5
116
330
17
100
AcDbEntity
  8
0
100
AcDbPoint
 10
-21.49482986074114
 20
-48.91255500498483
 30
0.0
  0
POINT
  5
117
330
17
100
AcDbEntity
  8
0
100
AcDbPoint
 10
-21.915710635037247
 20
-48.85128157325401
 30
0.0
  0
POINT
  5
118
330
17
100
AcDbEntity
  8
0
100
AcDbPoint
 10
-22.336335746224332
 20
-48.78817562360457
 30
0.0
  0
POINT
  5
119
330
17
100
AcDbEntity
  8
0
100
AcDbPoint
 10
-22.756680556603662
 20
-48.72313629871066
 30
0.0
  0
POINT
  5
11A
330
17
100
AcDbEntity
  8
0
100
AcDbPoint
 10
-23.17671801797827
 20
-48.65605430148197
 30
0.0
  0
POINT
  5
11B
330
17
100
AcDbEntity
  8
0
100
AcDbPoint
 10
-23.59647154242711
 20
-48.58712751300192
 30
0.0
  0
POINT
  5
11C
330
17
100
AcDbEntity
  8
0
100
AcDbPoint
 10
-24.015944827550516
 20
-48.516427865146085
 30
0.0
  0
POINT
  5
11D
330
17
100
AcDbEntity
  8
0
100
AcDbPoint
 10
-24.435123525495943
 20
-48.443913740048714
 30
0.0
  0
POINT
  5
11E
330
17
100
AcDbEntity
  8
0
100
AcDbPoint
 10
-24.854002676269705
 20
-48.36960196395458
 30
0.0
  0
POINT
  5
11F
330
17
100
AcDbEntity
  8
0
100
AcDbPoint
 10
-25.27256935414658
 20
-48.29346483347072
 30
0.0
  0
POINT
  5
120
330
17
100
AcDbEntity
  8
0
100
AcDbPoint
 10
-25.690796562244607
 20
-48.215405940969575
 30
0.0
  0
POINT
  5
121
330
17
100
AcDbEntity
  8
0
100
AcDbPoint
 10
-26.108660539230204
 20
-48.135351150393895
 30
0.0
  0
POINT
  5
122
330
17
100
AcDbEntity
  8
0
100
AcDbPoint
 10
-26.526186282590665
 20
-48.05347367762464
 30
0.0
  0
POINT
  5
123
330
17
100
AcDbEntity
  8
0
100
AcDbPoint
 10
-26.94337637945187
 20
-47.96982777022279
 30
0.0
  0
POINT
  5
124
330
17
100
AcDbEntity
  8
0
100
AcDbPoint
 10
-27.360215663908775
 20
-47.88437564865387
 30
0.0
  0
POINT
  5
125
330
17
100
AcDbEntity
  8
0
100
AcDbPoint
 10
-27.776697165868836
 20
-47.7971229228214
 30
0.0
  0
POINT
  5
126
330
17
100
AcDbEntity
  8
0
100
AcDbPoint
 10
-28.192817572157015
 20
-47.70808996980052
 30
0.0
  0
POINT
  5
127
330
17
100
AcDbEntity
  8
0
100
AcDbPoint
 10
-28.608558344747355
 20
-47.61723014226631
 30
0.0
  0
POINT
  5
128
330
17
100
AcDbEntity
  8
0
100
AcDbPoint
 10
-29.023889414015102
 20
-47.52444877117566
 30
0.0
  0
POINT
  5
129
330
17
100
AcDbEntity
  8
0
100
AcDbPoint
 10
-29.438799222808154
 20
-47.42973778332993
 30
0.0
  0
POINT
  5
12A
330
17
100
AcDbEntity
  8
0
100
AcDbPoint
 10
-29.853297096415034
 20
-47.33317572445934
 30
0.0
  0
POINT
  5
12B
330
17
100
AcDbEntity
  8
0
100
AcDbPoint
 10
-30.26739002319264
 20
-47.2348281331625
 30
0.0
  0
POINT
  5
12C
330
17
100
AcDbEntity
  8
0
100
AcDbPoint
 10
-30.681064731280177
 20
-47.134673186459885
 30
0.0
  0
POINT
  5
12D
330
17
100
AcDbEntity
  8
0
100
AcDbPoint
 10
-31.09431219176947
 20
-47.032707745972296
 30
0.0
  0
POINT
  5
12E
330
17
100
AcDbEntity
  8
0
100
AcDbPoint
 10
-31.507124145603118
 20
-46.92893223697861
 30
0.0
  0
POINT
  5
12F
330
17
100
AcDbEntity
  8
0
100
AcDbPoint
 10
-31.919491190683495
 20
-46.823342506641005
 30
0.0
  0
POINT
  5
130
330
17
100
AcDbEntity
  8
0
100
AcDbPoint
 10
-32.33140419254638
 20
-46.71593609165627
 30
0.0
  0
POINT
  5
131
330
17
100
AcDbEntity
  8
0
100
AcDbPoint
 10
-32.742854040127746
 20
-46.60670998867267
 30
0.0
  0
POINT
  5
132
330
17
100
AcDbEntity
  8
0
100
AcDbPoint
 10
-33.15381460321252
 20
-46.495602106153186
 30
0.0
  0
POINT
  5
133
330
17
100
AcDbEntity
  8
0
100
AcDbPoint
 10
-33.5642479450813
 20
-46.38251132173362
 30
0.0
  0
POINT
  5
134
330
17
100
AcDbEntity
  8
0
100
AcDbPoint
 10
-33.97417921270154
 20
-46.26756129551726
 30
0.0
  0
POINT
  5
135
330
17
100
AcDbEntity
  8
0
100
AcDbPoint
 10
-34.383616798948154
 20
-46.15081393325855
 30
0.0
  0
POINT
  5
136
330
17
100
AcDbEntity
  8
0
100
AcDbPoint
 10
-34.7925423369949
 20
-46.0322344769366
 30
0.0
  0
POINT
  5
137
330
17
100
AcDbEntity
  8
0
100
AcDbPoint
 10
-35.20094821630076
 20
-45.91182736880982
 30
0.0
  0
POINT
  5
138
330
17
100
AcDbEntity
  8
0
100
AcDbPoint
 10
-35.608825479575955
 20
-45.78959242532421
 30
0.0
  0
POINT
  5
139
330
17
100
AcDbEntity
  8
0
100
AcDbPoint
 10
-36.016164083137106
 20
-45.665525788336176
 30
0.0
  0
POINT
  5
13A
330
17
100
AcDbEntity
  8
0
100
AcDbPoint
 10
-36.422954576398396
 20
-45.539626013606984
 30
0.0
  0
POINT
  5
13B
330
17
100
AcDbEntity
  8
0
100
AcDbPoint
 10
-36.82918723984502
 20
-45.41189095357471
 30
0.0
  0
POINT
  5
13C
330
17
100
AcDbEntity
  8
0
100
AcDbPoint
 10
-37.23485214829594
 20
-45.28231808103871
 30
0.0
  0
POINT
  5
13D
330
17
100
AcDbEntity
  8
0
100
AcDbPoint
 10
-37.63993943369595
 20
-45.15090526633319
 30
0.0
  0
POINT
  5
13E
330
17
100
AcDbEntity
  8
0
100
AcDbPoint
 10
-38.04443933395963
 20
-45.017650888637476
 30
0.0
  0
POINT
  5
13F
330
17
100
AcDbEntity
  8
0
100
AcDbPoint
 10
-38.44834049661934
 20
-44.882549127752064
 30
0.0
  0
POINT
  5
140
330
17
100
AcDbEntity
  8
0
100
AcDbPoint
 10
-38.8516348918946
 20
-44.74560365311567
 30
0.0
  0
POINT
  5
141
330
17
100
AcDbEntity
  8
0
100
AcDbPoint
 10
-39.25431312204117
 20
-44.60681455558078
 30
0.0
  0
POINT
  5
142
330
17
100
AcDbEntity
  8
0
100
AcDbPoint
 10
-39.656343368519074
 20
-44.466119831035854
 30
0.0
  0
POINT
  5
143
330
17
100
AcDbEntity
  8
0
100
AcDbPoint
 10
-40.05771290294218
 20
-44.32351248068238
 30
0.0
  0
POINT
  5
144
330
17
100
AcDbEntity
  8
0
100
AcDbPoint
 10
-40.458424853324736
 20
-44.1790299620141
 30
0.0
  0
POINT
  5
145
330
17
100
AcDbEntity
  8
0
100
AcDbPoint
 10
-40.85847743427554
 20
-44.032694188222514
 30
0.0
  0
POINT
  5
146
330
17
100
AcDbEntity
  8
0
100
AcDbPoint
 10
-41.25786049855106
 20
-43.88450418701045
 30
0.0
  0
POINT
  5
147
330
17
100
AcDbEntity
  8
0
100
AcDbPoint
 10
-41.65656211841677
 20
-43.73445437961384
 30
0.0
  0
POINT
  5
148
330
17
100
AcDbEntity
  8
0
100
AcDbPoint
 10
-42.05457173112551
 20
-43.582543183120734
 30
0.0
  0
POINT
  5
149
330
17
100
AcDbEntity
  8
0
100
AcDbPoint
 10
-42.45187818080774
 20
-43.42876767803879
 30
0.0
  0
POINT
  5
14A
330
17
100
AcDbEntity
  8
0
100
AcDbPoint
 10
-42.84847020211396
 20
-43.273124928551916
 30
0.0
  0
POINT
  5
14B
330
17
100
AcDbEntity
  8
0
100
AcDbPoint
 10
-43.24433647310636
 20
-43.11561212828982
 30
0.0
  0
POINT
  5
14C
330
17
100
AcDbEntity
  8
0
100
AcDbPoint
 10
-43.63946550620884
 20
-42.95622631832203
 30
0.0
  0
POINT
  5
14D
330
17
100
AcDbEntity
  8
0
100
AcDbPoint
 10
-44.0338456824133
 20
-42.79496449524438
 30
0.0
  0
POINT
  5
14E
330
17
100
AcDbEntity
  8
0
100
AcDbPoint
 10
-44.42746526693732
 20
-42.63182364220245
 30
0.0
  0
POINT
  5
14F
330
17
100
AcDbEntity
  8
0
100
AcDbPoint
 10
-44.820312420270234
 20
-42.466800758175445
 30
0.0
  0
POINT
  5
150
330
17
100
AcDbEntity
  8
0
100
AcDbPoint
 10
-45.21237521699014
 20
-42.299892917043344
 30
0.0
  0
POINT
  5
151
330
17
100
AcDbEntity
  8
0
100
AcDbPoint
 10
-45.603641694935924
 20
-42.131097372655894
 30
0.0
  0
POINT
  5
152
330
17
100
AcDbEntity
  8
0
100
AcDbPoint
 10
-45.99409987429957
 20
-41.96041159054336
 30
0.0
  0
POINT
  5
153
330
17
100
AcDbEntity
  8
0
100
AcDbPoint
 10
-46.38373776944967
 20
-41.7878332733237
 30
0.0
  0
POINT
  5
154
330
17
100
AcDbEntity
  8
0
100
AcDbPoint
 10
-46.772543408062006
 20
-41.61336040009935
 30
0.0
  0
POINT
  5
155
330
17
100
AcDbEntity
  8
0
100
AcDbPoint
 10
-47.16050484149161
 20
-41.43699122762083
 30
0.0
  0
POINT
  5
156
330
17
100
AcDbEntity
  8
0
100
AcDbPoint
 10
-47.54761015360986
 20
-41.2587242991394
 30
0.0
  0
POINT
  5
157
330
17
100
AcDbEntity
  8
0
100
AcDbPoint
 10
-47.93384747269505
 20
-41.07855846744023
 30
0.0
  0
POINT
  5
158
330
17
100
AcDbEntity
  8
0
100
AcDbPoint
 10
-48.319204979701226
 20
-40.896492894186146
 30
0.0
  0
POINT
  5
159
330
17
100
AcDbEntity
  8
0
100
AcDbPoint
 10
-48.70367090580461
 20
-40.7125270292375
 30
0.0
  0
POINT
  5
15A
330
17
100
AcDbEntity
  8
0
100
AcDbPoint
 10
-49.087233543367304
 20
-40.52666062451706
 30
0.0
  0
POINT
  5
15B
330
17
100
AcDbEntity
  8
0
100
AcDbPoint
 10
-49.46988128613398
 20
-40.338893801102756
 30
0.0
  0
POINT
  5
15C
330
17
100
AcDbEntity
  8
0
100
AcDbPoint
 10
-49.85160248537837
 20
-40.14922676402126
 30
0.0
  0
POINT
  5
15D
330
17
100
AcDbEntity
  8
0
100
AcDbPoint
 10
-50.23238567320625
 20
-39.95766020137183
 30
0.0
  0
POINT
  5
15E
330
17
100
AcDbEntity
  8
0
100
AcDbPoint
 10
-50.61221973538623
 20
-39.76419559615368
 30
0.0
  0
POINT
  5
15F
330
17
100
AcDbEntity
  8
0
100
AcDbPoint
 10
-50.99109176949223
 20
-39.56883127205072
 30
0.0
  0
POINT
  5
160
330
17
100
AcDbEntity
  8
0
100
AcDbPoint
 10
-51.368992747940524
 20
-39.37157280266984
 30
0.0
  0
POINT
  5
161
330
17
100
AcDbEntity
  8
0
100
AcDbPoint
 10
-51.745913075894705
 20
-39.17242483313594
 30
0.0
  0
POINT
  5
162
330
17
100
AcDbEntity
  8
0
100
AcDbPoint
 10
-52.12181464393718
 20
-38.97133978861616
 30
0.0
  0
POINT
  5
163
330
17
100
AcDbEntity
  8
0
100
AcDbPoint
 10
-52.49666798668425
 20
-38.7682880288407
 30
0.0
  0
POINT
  5
164
330
17
100
AcDbEntity
  8
0
100
AcDbPoint
 10
-52.87046735900822
 20
-38.56328411773178
 30
0.0
  0
POINT
  5
165
330
17
100
AcDbEntity
  8
0
100
AcDbPoint
 10
-53.243227717432596
 20
-38.35637858959125
 30
0.0
  0
POINT
  5
166
330
17
100
AcDbEntity
  8
0
100
AcDbPoint
 10
-53.61493996580352
 20
-38.147578057479514
 30
0.0
  0
POINT
  5
167
330
17
100
AcDbEntity
  8
0
100
AcDbPoint
 10
-53.98558784446499
 20
-37.93687622860508
 30
0.0
  0
POINT
  5
168
330
17
100
AcDbEntity
  8
0
100
AcDbPoint
 10
-54.355160562476975
 20
-37.72427690856781
 30
0.0
  0
POINT
  5
169
330
17
100
AcDbEntity
  8
0
100
AcDbPoint
 10
-54.72364562359267
 20
-37.50978094408584
 30
0.0
  0
POINT
  5
16A
330
17
100
AcDbEntity
  8
0
100
AcDbPoint
 10
-55.09103048866564
 20
-37.29338923647635
 30
0.0
  0
POINT
  5
16B
330
17
100
AcDbEntity
  8
0
100
AcDbPoint
 10
-55.45730285258228
 20
-37.07510324615489
 30
0.0
  0
POINT
  5
16C
330
17
100
AcDbEntity
  8
0
100
AcDbPoint
 10
-55.82245026721336
 20
-36.85492430613849
 30
0.0
  0
POINT
  5
16D
330
17
100
AcDbEntity
  8
0
100
AcDbPoint
 10
-56.186460442029755
 20
-36.6328541152491
 30
0.0
  0
POINT
  5
16E
330
17
100
AcDbEntity
  8
0
100
AcDbPoint
 10
-56.54932078415925
 20
-36.40889404189385
 30
0.0
  0
POINT
  5
16F
330
17
100
AcDbEntity
  8
0
100
AcDbPoint
 10
-56.91101890634728
 20
-36.183045869270494
 30
0.0
  0
POINT
  5
170
330
17
100
AcDbEntity
  8
0
100
AcDbPoint
 10
-57.27154394849991
 20
-35.95531375879453
 30
0.0
  0
POINT
  5
171
330
17
100
AcDbEntity
  8
0
100
AcDbPoint
 10
-57.630878847920805
 20
-35.72569277040715
 30
0.0
  0
POINT
  5
172
330
17
100
AcDbEntity
  8
0
100
AcDbPoint
 10
-57.98901678743928
 20
-35.49419326038779
 30
0.0
  0
POINT
  5
173
330
17
100
AcDbEntity
  8
0
100
AcDbPoint
 10
-58.34595878351176
 20
-35.26083729790578
 30
0.0
  0
POINT
  5
174
330
17
100
AcDbEntity
  8
0
100
AcDbPoint
 10
-58.70160408798541
 20
-35.02549621310133
 30
0.0
  0
POINT
  5
175
330
17
100
AcDbEntity
  8
0
100
AcDbPoint
 10
-59.055897278551434
 20
-34.78811217824077
 30
0.0
  0
POINT
  5
176
330
17
100
AcDbEntity
  8
0
100
AcDbPoint
 10
-59.40887161018711
 20
-34.54876088903309
 30
0.0
  0
POINT
  5
177
330
17
100
AcDbEntity
  8
0
100
AcDbPoint
 10
-59.7605664541891
 20
-34.30752222556513
 30
0.0
  0
POINT
  5
178
330
17
100
AcDbEntity
  8
0
100
AcDbPoint
 10
-60.11097940673174
 20
-34.06441407906772
 30
0.0
  0
POINT
  5
179
330
17
100
AcDbEntity
  8
0
100
AcDbPoint
 10
-60.46008998821501
 20
-33.81942793332154
 30
0.0
  0
POINT
  5
17A
330
17
100
AcDbEntity
  8
0
100
AcDbPoint
 10
-60.807888309862975
 20
-33.572570824285066
 30
0.0
  0
POINT
  5
17B
330
17
100
AcDbEntity
  8
0
100
AcDbPoint
 10
-61.154360793621244
 20
-33.32384471776451
 30
0.0
  0
POINT
  5
17C
330
17
100
AcDbEntity
  8
0
100
AcDbPoint
 10
-61.49949783573028
 20
-33.073256652785375
 30
0.0
  0
POINT
  5
17D
330
17
100
AcDbEntity
  8
0
100
AcDbPoint
 10
-61.843286299684756
 20
-32.820809312376326
 30
0.0
  0
POINT
  5
17E
330
17
100
AcDbEntity
  8
0
100
AcDbPoint
 10
-62.18569849283016
 20
-32.56648677980921
 30
0.0
  0
POINT
  5
17F
330
17
100
AcDbEntity
  8
0
100
AcDbPoint
 10
-62.52678225177096
 20
-32.31036975479588
 30
0.0
  0
POINT
  5
180
330
17
100
AcDbEntity
  8
0
100
AcDbPoint
 10
-62.86643682969771
 20
-32.05234898969294
 30
0.0
  0
POINT
  5
181
330
17
100
AcDbEntity
  8
0
100
AcDbPoint
 10
-63.20438590346362
 20
-31.792092428286914
 30
0.0
  0
POINT
  5
182
330
17
100
AcDbEntity
  8
0
100
AcDbPoint
 10
-63.54083766648636
 20
-31.52989462054164
 30
0.0
  0
POINT
  5
183
330
17
100
AcDbEntity
  8
0
100
AcDbPoint
 10
-63.87589999673272
 20
-31.26591707080161
 30
0.0
  0
POINT
  5
184
330
17
100
AcDbEntity
  8
0
100
AcDbPoint
 10
-64.20949955029482
 20
-31.000084706420797
 30
0.0
  0
POINT
  5
185
330
17
100
AcDbEntity
  8
0
100
AcDbPoint
 10
-64.54163594956917
 20
-30.73241790157505
 30
0.0
  0
POINT
  5
186
330
17
100
AcDbEntity
  8
0
100
AcDbPoint
 10
-64.87230613421472
 20
-30.462932502768854
 30
0.0
  0
POINT
  5
187
330
17
100
AcDbEntity
  8
0
100
AcDbPoint
 10
-65.201487268414
 20
-30.191620652961866
 30
0.0
  0
POINT
  5
188
330
17
100
AcDbEntity
  8
0
100
AcDbPoint
 10
-65.52916357355524
 20
-29.91848331377961
 30
0.0
  0
POINT
  5
189
330
17
100
AcDbEntity
  8
0
100
AcDbPoint
 10
-65.85539888324475
 20
-29.643612283247403
 30
0.0
  0
POINT
  5
18A
330
17
100
AcDbEntity
  8
0
100
AcDbPoint
 10
-66.17997684302209
 20
-29.366778844006756
 30
0.0
  0
POINT
  5
18B
330
17
100
AcDbEntity
  8
0
100
AcDbPoint
 10
-66.50268127543325
 20
-29.08775825415959
 30
0.0
  0
POINT
  5
18C
330
17
100
AcDbEntity
  8
0
100
AcDbPoint
 10
-66.82377914470277
 20
-28.80688525480083
 30
0.0
  0
POINT
  5
18D
330
17
100
AcDbEntity
  8
0
100
AcDbPoint
 10
-67.1433266342345
 20
-28.524245016670587
 30
0.0
  0
POINT
  5
18E
330
17
100
AcDbEntity
  8
0
100
AcDbPoint
 10
-67.46129120488847
 20
-28.23981818741679
 30
0.0
  0
POINT
  5
18F
330
17
100
AcDbEntity
  8
0
100
AcDbPoint
 10
-67.77767369294378
 20
-27.95362528528747
 30
0.0
  0
POINT
  5
190
330
17
100
AcDbEntity
  8
0
100
AcDbPoint
 10
-68.09245065899306
 20
-27.66565988404659
 30
0.0
  0
POINT
  5
191
330
17
100
AcDbEntity
  8
0
100
AcDbPoint
 10
-68.40565282471766
 20
-27.375971950210594
 30
0.0
  0
POINT
  5
192
330
17
100
AcDbEntity
  8
0
100
AcDbPoint
 10
-68.71723206254558
 20
-27.084529340863117
 30
0.0
  0
POINT
  5
193
330
17
100
AcDbEntity
  8
0
100
AcDbPoint
 10
-69.0269373144392
 20
-26.79108946142612
 30
0.0
  0
POINT
  5
194
330
17
100
AcDbEntity
  8
0
100
AcDbPoint
 10
-69.33475647051772
 20
-26.49566779270646
 30
0.0
  0
POINT
  5
195
330
17
100
AcDbEntity
  8
0
100
AcDbPoint
 10
-69.64081153595998
 20
-26.19841620964469
 30
0.0
  0
POINT
  5
196
330
17
100
AcDbEntity
  8
0
100
AcDbPoint
 10
-69.94521847787144
 20
-25.899472561556617
 30
0.0
  0
POINT
  5
197
330
17
100
AcDbEntity
  8
0
100
AcDbPoint
 10
-70.24796428060273
 20
-25.598840752455047
 30
0.0
  0
POINT
  5
198
330
17
100
AcDbEntity
  8
0
100
AcDbPoint
 10
-70.54900937014266
 20
-25.29649982838199
 30
0.0
  0
POINT
  5
199
330
17
100
AcDbEntity
  8
0
100
AcDbPoint
 10
-70.84838028377963
 20
-24.99249238090872
 30
0.0
  0
POINT
  5
19A
330
17
100
AcDbEntity
  8
0
100
AcDbPoint
 10
-71.14613204760467
 20
-24.686886964840166
 30
0.0
  0
POINT
  5
19B
330
17
100
AcDbEntity
  8
0
100
AcDbPoint
 10
-71.44183496241953
 20
-24.37929580070049
 30
0.0
  0
POINT
  5
19C
330
17
100
AcDbEntity
  8
0
100
AcDbPoint
 10
-71.73541972729859
 20
-24.06967838074773
 30
0.0
  0
POINT
  5
19D
330
17
100
AcDbEntity
  8
0
100
AcDbPoint
 10
-72.02725023201019
 20
-23.758405798286915
 30
0.0
  0
POINT
  5
19E
330
17
100
AcDbEntity
  8
0
100
AcDbPoint
 10
-72.3173440029781
 20
-23.445510515642287
 30
0.0
  0
POINT
  5
19F
330
17
100
AcDbEntity
  8
0
100
AcDbPoint
 10
-72.60567249910028
 20
-23.13098270772378
 30
0.0
  0
POINT
  5
1A0
330
17
100
AcDbEntity
  8
0
100
AcDbPoint
 10
-72.89225345895608
 20
-22.814855096810916
 30
0.0
  0
POINT
  5
1A1
330
17
100
AcDbEntity
  8
0
100
AcDbPoint
 10
-73.17710601070922
 20
-22.49716019334329
 30
0.0
  0
POINT
  5
1A2
330
17
100
AcDbEntity
  8
0
100
AcDbPoint
 10
-73.45999320481857
 20
-22.17770712535995
 30
0.0
  0
POINT
  5
1A3
330
17
100
AcDbEntity
  8
0
100
AcDbPoint
 10
-73.74074118799658
 20
-21.856368922114836
 30
0.0
  0
POINT
  5
1A4
330
17
100
AcDbEntity
  8
0
100
AcDbPoint
 10
-74.01940122308639
 20
-21.533218448053482
 30
0.0
  0
POINT
  5
1A5
330
17
100
AcDbEntity
  8
0
100
AcDbPoint
 10
-74.29623336637381
 20
-21.20849816352826
 30
0.0
  0
POINT
  5
1A6
330
17
100
AcDbEntity
  8
0
100
AcDbPoint
 10
-74.57126729139239
 20
-20.882250359073566
 30
0.0
  0
POINT
  5
1A7
330
17
100
AcDbEntity
  8
0
100
AcDbPoint
 10
-74.84447181307289
 20
-20.55446281937962
 30
0.0
  0
POINT
  5
1A8
330
17
100
AcDbEntity
  8
0
100
AcDbPoint
 10
-75.11587614480399
 20
-20.22517520430632
 30
0.0
  0
POINT
  5
1A9
330
17
100
AcDbEntity
  8
0
100
AcDbPoint
 10
-75.38524787012567
 20
-19.894215780325247
 30
0.0
  0
POINT
  5
1AA
330
17
100
AcDbEntity
  8
0
100
AcDbPoint
 10
-75.6523746183493
 20
-19.561439084672703
 30
0.0
  0
POINT
  5
1AB
330
17
100
AcDbEntity
  8
0
100
AcDbPoint
 10
-75.91727671710004
 20
-19.226889584934387
 30
0.0
  0
POINT
  5
1AC
330
17
100
AcDbEntity
  8
0
100
AcDbPoint
 10
-76.18029142506826
 20
-18.8908522573233
 30
0.0
  0
POINT
  5
1AD
330
17
100
AcDbEntity
  8
0
100
AcDbPoint
 10
-76.44143755947405
 20
-18.55335877114878
 30
0.0
  0
POINT
  5
1AE
330
17
100
AcDbEntity
  8
0
100
AcDbPoint
 10
-76.70069840079434
 20
-18.214408182639822
 30
0.0
  0
POINT
  5
1AF
330
17
100
AcDbEntity
  8
0
100
AcDbPoint
 10
-76.95811778612789
 20
-17.87404830793219
 30
0.0
  0
POINT
  5
1B0
330
17
100
AcDbEntity
  8
0
100
AcDbPoint
 10
-77.21324032396667
 20
-17.53195983241984
 30
0.0
  0
POINT
  5
1B1
330
17
100
AcDbEntity
  8
0
100
AcDbPoint
 10
-77.4659639046312
 20
-17.188093360332903
 30
0.0
  0
POINT
  5
1B2
330
17
100
AcDbEntity
  8
0
100
AcDbPoint
 10
-77.71655021261049
 20
-16.842668022008016
 30
0.0
  0
POINT
  5
1B3
330
17
100
AcDbEntity
  8
0
100
AcDbPoint
 10
-77.96520013074345
 20
-16.495844074683763
 30
0.0
  0
POINT
  5
1B4
330
17
100
AcDbEntity
  8
0
100
AcDbPoint
 10
-78.21187969648248
 20
-16.14761394549937
 30
0.0
  0
POINT
  5
1B5
330
17
100
AcDbEntity
  8
0
100
AcDbPoint
 10
-78.4566464242275
 20
-15.798028417513306
 30
0.0
  0
POINT
  5
1B6
330
17
100
AcDbEntity
  8
0
100
AcDbPoint
 10
-78.69952071899131
 20
-15.447115085868171
 30
0.0
  0
POINT
  5
1B7
330
17
100
AcDbEntity
  8
0
100
AcDbPoint
 10
-78.93963074361619
 20
-15.094308046849632
 30
0.0
  0
POINT
  5
1B8
330
17
100
AcDbEntity
  8
0
100
AcDbPoint
 10
-79.17721003408181
 20
-14.739789873002186
 30
0.0
  0
POINT
  5
1B9
330
17
100
AcDbEntity
  8
0
100
AcDbPoint
 10
-79.41294801635476
 20
-14.38404724484519
 30
0.0
  0
POINT
  5
1BA
330
17
100
AcDbEntity
  8
0
100
AcDbPoint
 10
-79.64665369455568
 20
-14.02696434742416
 30
0.0
  0
POINT
  5
1BB
330
17
100
AcDbEntity
  8
0
100
AcDbPoint
 10
-79.87840339289009
 20
-13.668601100814415
 30
0.0
  0
POINT
  5
1BC
330
17
100
AcDbEntity
  8
0
100
AcDbPoint
 10
-80.10802999486633
 20
-13.308868560306877
 30
0.0
  0
POINT
  5
1BD
330
17
100
AcDbEntity
  8
0
100
AcDbPoint
 10
-80.33508074727179
 20
-12.94750095293503
 30
0.0
  0
POINT
  5
1BE
330
17
100
AcDbEntity
  8
0
100
AcDbPoint
 10
-80.55961439465365
 20
-12.584566017202139
 30
0.0
  0
POINT
  5
1BF
330
17
100
AcDbEntity
  8
0
100
AcDbPoint
 10
-80.78192358428949
 20
-12.220265533507616
 30
0.0
  0
POINT
  5
1C0
330
17
100
AcDbEntity
  8
0
100
AcDbPoint
 10
-81.00222519321528
 20
-11.854746123987917
 30
0.0
  0
POINT
  5
1C1
330
17
100
AcDbEntity
  8
0
100
AcDbPoint
 10
-81.2204632594622
 20
-11.487986757989074
 30
0.0
  0
POINT
  5
1C2
330
17
100
AcDbEntity
  8
0
100
AcDbPoint
 10
-81.43658216470563
 20
-11.119965371990572
 30
0.0
  0
POINT
  5
1C3
330
17
100
AcDbEntity
  8
0
100
AcDbPoint
 10
-81.65017462224708
 20
-10.750470329270412
 30
0.0
  0
POINT
  5
1C4
330
17
100
AcDbEntity
  8
0
100
AcDbPoint
 10
-81.86086515993951
 20
-10.379315943527299
 30
0.0
  0
POINT
  5
1C5
330
17
100
AcDbEntity
  8
0
100
AcDbPoint
 10
-82.06938478501296
 20
-10.006937461943298
 30
0.0
  0
POINT
  5
1C6
330
17
100
AcDbEntity
  8
0
100
AcDbPoint
 10
-82.27585476103806
 20
-9.633420642192402
 30
0.0
  0
POINT
  5
1C7
330
17
100
AcDbEntity
  8
0
100
AcDbPoint
 10
-82.48020229177966
 20
-9.258731727964204
 30
0.0
  0
POINT
  5
1C8
330
17
100
AcDbEntity
  8
0
100
AcDbPoint
 10
-82.68256496316675
 20
-8.882955894602617
 30
0.0
  0
POINT
  5
1C9
330
17
100
AcDbEntity
  8
0
100
AcDbPoint
 10
-82.88190595737814
 20
-8.505573177216537
 30
0.0
  0
POINT
  5
1CA
330
17
100
AcDbEntity
  8
0
100
AcDbPoint
 10
-83.07829584979439
 20
-8.12664508241759
 30
0.0
  0
POINT
  5
1CB
330
17
100
AcDbEntity
  8
0
100
AcDbPoint
 10
-83.27271370679202
 20
-7.746705413348585
 30
0.0
  0
POINT
  5
1CC
330
17
100
AcDbEntity
  8
0
100
AcDbPoint
 10
-83.46493603017569
 20
-7.3656510214524875
 30
0.0
  0
POINT
  5
1CD
330
17
100
AcDbEntity
  8
0
100
AcDbPoint
 10
-83.65512996751343
 20
-6.983569154415977
 30
0.0
  0
POINT
  5
1CE
330
17
100
AcDbEntity
  8
0
100
AcDbPoint
 10
-83.84300383558774
 20
-6.600337111606511
 30
0.0
  0
POINT
  5
1CF
330
17
100
AcDbEntity
  8
0
100
AcDbPoint
 10
-84.02754047499093
 20
-6.2154895299786785
 30
0.0
  0
POINT
  5
1D0
330
17
100
AcDbEntity
  8
0
100
AcDbPoint
 10
-84.20954280989805
 20
-5.829436972373948
 30
0.0
  0
POINT
  5
1D1
330
17
100
AcDbEntity
  8
0
100
AcDbPoint
 10
-84.38943973586355
 20
-5.442404222094992
 30
0.0
  0
POINT
  5
1D2
330
17
100
AcDbEntity
  8
0
100
AcDbPoint
 10
-84.56710424433948
 20
-5.054337805556843
 30
0.0
  0
POINT
  5
1D3
330
17
100
AcDbEntity
  8
0
100
AcDbPoint
 10
-84.74277710831585
 20
-4.665354574756922
 30
0.0
  0
POINT
  5
1D4
330
17
100
AcDbEntity
  8
0
100
AcDbPoint
 10
-84.91553613139222
 20
-4.275070650369676
 30
0.0
  0
POINT
  5
1D5
330
17
100
AcDbEntity
  8
0
100
AcDbPoint
 10
-85.08505697844107
 20
-3.8833683913690558
 30
0.0
  0
POINT
  5
1D6
330
17
100
AcDbEntity
  8
0
100
AcDbPoint
 10
-85.25233925574645
 20
-3.4907091417098135
 30
0.0
  0
POINT
  5
1D7
330
17
100
AcDbEntity
  8
0
100
AcDbPoint
 10
-85.41736176522072
 20
-3.097097876923283
 30
0.0
  0
POINT
  5
1D8
330
17
100
AcDbEntity
  8
0
100
AcDbPoint
 10
-85.58027442137069
 20
-2.702599362215043
 30
0.0
  0
POINT
  5
1D9
330
17
100
AcDbEntity
  8
0
100
AcDbPoint
 10
-85.74093410636627
 20
-2.307171390696519
 30
0.0
  0
POINT
  5
1DA
330
17
100
AcDbEntity
  8
0
100
AcDbPoint
 10
-85.89809091609358
 20
-1.9103424460671297
 30
0.0
  0
POINT
  5
1DB
330
17
100
AcDbEntity
  8
0
100
AcDbPoint
 10
-86.0524371109545
 20
-1.5124111523844428
 30
0.0
  0
POINT
  5
1DC
330
17
100
AcDbEntity
  8
0
100
AcDbPoint
 10
-86.20468527441028
 20
-1.1136787116193867
 30
0.0
  0
POINT
  5
1DD
330
17
100
AcDbEntity
  8
0
100
AcDbPoint
 10
-86.3546192848059
 20
-0.7140680783036971
 30
0.0
  0
POINT
  5
1DE
330
17
100
AcDbEntity
  8
0
100
AcDbPoint
 10
-86.50248230086031
 20
-0.3136741986850809
 30
0.0
  0
POINT
  5
1DF
330
17
100
AcDbEntity
  8
0
100
AcDbPoint
 10
-86.64741336356296
 20
0.08778815779743634
 30
0.0
  0
POINT
  5
1E0
330
17
100
AcDbEntity
  8
0
100
AcDbPoint
 10
-86.78878705339453
 20
0.49051550116533527
 30
0.0
  0
POINT
  5
1E1
330
17
100
AcDbEntity
  8
0
100
AcDbPoint
 10
-86.92791070761224
 20
0.8940223642348715
 30
0.0
  0
POINT
  5
1E2
330
17
100
AcDbEntity
  8
0
100
AcDbPoint
 10
-87.06489221949076
 20
1.2982590008096035
 30
0.0
  0
POINT
  5
1E3
330
17
100
AcDbEntity
  8
0
100
AcDbPoint
 10
-87.19952313190143
 20
1.703291995640697
 30
0.0
  0
POINT
  5
1E4
330
17
100
AcDbEntity
  8
0
100
AcDbPoint
 10
-87.33162663963435
 20
2.109163199587054
 30
0.0
  0
POINT
  5
1E5
330
17
100
AcDbEntity
  8
0
100
AcDbPoint
 10
-87.46036947767948
 20
2.5161076440201575
 30
0.0
  0
POINT
  5
1E6
330
17
100
AcDbEntity
  8
0
100
AcDbPoint
 10
-87.58619907715092
 20
2.9239608582464838
 30
0.0
  0
POINT
  5
1E7
330
17
100
AcDbEntity
  8
0
100
AcDbPoint
 10
-87.70994658733372
 20
3.33244751186218
 30
0.0
  0
POINT
  5
1E8
330
17
100
AcDbEntity
  8
0
100
AcDbPoint
 10
-87.83146492311076
 20
3.741607492475978
 30
0.0
  0
POINT
  5
1E9
330
17
100
AcDbEntity
  8
0
100
AcDbPoint
 10
-87.95028186721234
 20
4.151565774592791
 30
0.0
  0
POINT
  5
1EA
330
17
100
AcDbEntity
  8
0
100
AcDbPoint
 10
-88.06602407710702
 20
4.562403498123419
 30
0.0
  0
POINT
  5
1EB
330
17
100
AcDbEntity
  8
0
100
AcDbPoint
 10
-88.17871403715135
 20
4.97408371343715
 30
0.0
  0
POINT
  5
1EC
330
17
100
AcDbEntity
  8
0
100
AcDbPoint
 10
-88.28897451556112
 20
5.386418316185909
 30
0.0
  0
POINT
  5
1ED
330
17
100
AcDbEntity
  8
0
100
AcDbPoint
 10
-88.39716800611957
 20
5.799305005299361
 30
0.0
  0
POINT
  5
1EE
330
17
100
AcDbEntity
  8
0
100
AcDbPoint
 10
-88.50288771456728
 20
6.212837284347241
 30
0.0
  0
POINT
  5
1EF
330
17
100
AcDbEntity
  8
0
100
AcDbPoint
 10
-88.6051411652961
 20
6.627240417459708
 30
0.0
  0
POINT
  5
1F0
330
17
100
AcDbEntity
  8
0
100
AcDbPoint
 10
-88.70443374182234
 20
7.042361210099898
 30
0.0
  0
POINT
  5
1F1
330
17
100
AcDbEntity
  8
0
100
AcDbPoint
 10
-88.80127394197794
 20
7.458054660763763
 30
0.0
  0
POINT
  5
1F2
330
17
100
AcDbEntity
  8
0
100
AcDbPoint
 10
-88.8957970736637
 20
7.874283146802247
 30
0.0
  0
POINT
  5
1F3
330
17
100
AcDbEntity
  8
0
100
AcDbPoint
 10
-88.98818800328144
 20
8.291001890335547
 30
0.0
  0
POINT
  5
1F4
330
17
100
AcDbEntity
  8
0
100
AcDbPoint
 10
-89.07728028131844
 20
8.708434669989192
 30
0.0
  0
POINT
  5
1F5
330
17
100
AcDbEntity
  8
0
100
AcDbPoint
 10
-89.1626820663315
 20
9.126637180611153
 30
0.0
  0
POINT
  5
1F6
330
17
100
AcDbEntity
  8
0
100
AcDbPoint
 10
-89.24586301061765
 20
9.545281657311671
 30
0.0
  0
POINT
  5
1F7
330
17
100
AcDbEntity
  8
0
100
AcDbPoint
 10
-89.32688816248526
 20
9.964349039303865
 30
0.0
  0
POINT
  5
1F8
330
17
100
AcDbEntity
  8
0
100
AcDbPoint
 10
-89.40532157533619
 20
10.383915676327304
 30
0.0
  0
POINT
  5
1F9
330
17
100
AcDbEntity
  8
0
100
AcDbPoint
 10
-89.48071299648869
 20
10.804043387653433
 30
0.0
  0
POINT
  5
1FA
330
17
100
AcDbEntity
  8
0
100
AcDbPoint
 10
-89.55279531678197
 20
11.224746330400734
 30
0.0
  0
POINT
  5
1FB
330
17
100
AcDbEntity
  8
0
100
AcDbPoint
 10
-89.62211440081066
 20
11.645909257067826
 30
0.0
  0
POINT
  5
1FC
330
17
100
AcDbEntity
  8
0
100
AcDbPoint
 10
-89.68930064262557
 20
12.06741871261533
 30
0.0
  0
POINT
  5
1FD
330
17
100
AcDbEntity
  8
0
100
AcDbPoint
 10
-89.7542653839497
 20
12.489285124445408
 30
0.0
  0
POINT
  5
1FE
330
17
100
AcDbEntity
  8
0
100
AcDbPoint
 10
-89.81569395355785
 20
12.911679015604667
 30
0.0
  0
POINT
  5
1FF
330
17
100
AcDbEntity
  8
0
100
AcDbPoint
 10
-89.87370416396409
 20
13.334556286905562
 30
0.0
  0
POINT
  5
200
330
17
100
AcDbEntity
  8
0
100
AcDbPoint
 10
-89.92930571468493
 20
13.757749593795051
 30
0.0
  0
POINT
  5
201
330
17
100
AcDbEntity
  8
0
100
AcDbPoint
 10
-89.98255856418187
 20
14.181245080757135
 30
0.0
  0
POINT
  5
202
330
17
100
AcDbEntity
  8
0
100
AcDbPoint
 10
-90.03334189940058
 20
14.605052301031408
 30
0.0
  0
POINT
  5
203
330
17
100
AcDbEntity
  8
0
100
AcDbPoint
 10
-90.08107284615626
 20
15.029215996608073
 30
0.0
  0
POINT
  5
204
330
17
100
AcDbEntity
  8
0
100
AcDbPoint
 10
-90.12511895612643
 20
15.453773076673492
 30
0.0
  0
POINT
  5
205
330
17
100
AcDbEntity
  8
0
100
AcDbPoint
 10
-90.16652297940905
 20
15.878591934437416
 30
0.0
  0
POINT
  5
206
330
17
100
AcDbEntity
  8
0
100
AcDbPoint
 10
-90.20587785880737
 20
16.30360679707729
 30
0.0
  0
POINT
  5
207
330
17
100
AcDbEntity
  8
0
100
AcDbPoint
 10
-90.24272164348073
 20
16.728852993041965
 30
0.0
  0
POINT
  5
208
330
17
100
AcDbEntity
  8
0
100
AcDbPoint
 10
-90.27593089808794
 20
17.154399028204228
 30
0.0
  0
POINT
  5
209
330
17
100
AcDbEntity
  8
0
100
AcDbPoint
 10
-90.30591840996799
 20
17.5801820465128
 30
0.0
  0
POINT
  5
20A
330
17
100
AcDbEntity
  8
0
100
AcDbPoint
 10
-90.33334938885744
 20
18.00613047419554
 30
0.0
  0
POINT
  5
20B
330
17
100
AcDbEntity
  8
0
100
AcDbPoint
 10
-90.3584088720363
 20
18.432226390695845
 30
0.0
  0
POINT
  5
20C
330
17
100
AcDbEntity
  8
0
100
AcDbPoint
 10
-90.38099637319709
 20
18.858470333921705
 30
0.0
  0
POINT
  5
20D
330
17
100
AcDbEntity
  8
0
100
AcDbPoint
 10
-90.40020417384785
 20
19.284877918383206
 30
0.0
  0
POINT
  5
20E
330
17
100
AcDbEntity
  8
0
100
AcDbPoint
 10
-90.41569502419945
 20
19.711433212783295
 30
0.0
  0
POINT
  5
20F
330
17
100
AcDbEntity
  8
0
100
AcDbPoint
 10
-90.42879206611283
 20
20.138063143814648
 30
0.0
  0
POINT
  5
210
330
17
100
AcDbEntity
  8
0
100
AcDbPoint
 10
-90.43982553022724
 20
20.56475576397375
 30
0.0
  0
POINT
  5
211
330
17
100
AcDbEntity
  8
0
100
AcDbPoint
 10
-90.44799789985538
 20
20.991516828242062
 30
0.0
  0
POINT
  5
212
330
17
100
AcDbEntity
  8
0
100
AcDbPoint
 10
-90.45238233470498
 20
21.41833483728687
 30
0.0
  0
POINT
  5
213
330
17
100
AcDbEntity
  8
0
100
AcDbPoint
 10
-90.45373172862502
 20
21.845167927533968
 30
0.0
  0
POINT
  5
214
330
17
100
AcDbEntity
  8
0
100
AcDbPoint
 10
-90.45260188580266
 20
22.271996352683086
 30
0.0
  0
POINT
  5
215
330
17
100
AcDbEntity
  8
0
100
AcDbPoint
 10
-90.44907181739474
 20
22.698815550909842
 30
0.0
  0
POINT
  5
216
330
17
100
AcDbEntity
  8
0
100
AcDbPoint
 10
-90.44279758141025
 20
23.125611847959977
 30
0.0
  0
POINT
  5
217
330
17
100
AcDbEntity
  8
0
100
AcDbPoint
 10
-90.43285922845719
 20
23.552333827861762
 30
0.0
  0
POINT
  5
218
330
17
100
AcDbEntity
  8
0
100
AcDbPoint
 10
-90.41953281166192
 20
23.97895974609222
 30
0.0
  0
POINT
  5
219
330
17
100
AcDbEntity
  8
0
100
AcDbPoint
 10
-90.40399275763107
 20
24.405505926636597
 30
0.0
  0
POINT
  5
21A
330
17
100
AcDbEntity
  8
0
100
AcDbPoint
 10
-90.386344916765
 20
24.831979084527767
 30
0.0
  0
POINT
  5
21B
330
17
100
AcDbEntity
  8
0
100
AcDbPoint
 10
-90.36532594227486
 20
25.258299477062256
 30
0.0
  0
POINT
  5
21C
330
17
100
AcDbEntity
  8
0
100
AcDbPoint
 10
-90.34041420131086
 20
25.684411113956617
 30
0.0
  0
POINT
  5
21D
330
17
100
AcDbEntity
  8
0
100
AcDbPoint
 10
-90.31285943209384
 20
26.11035170190841
 30
0.0
  0
POINT
  5
21E
330
17
100
AcDbEntity
  8
0
100
AcDbPoint
 10
-90.2830021126648
 20
26.53613556516075
 30
0.0
  0
POINT
  5
21F
330
17
100
AcDbEntity
  8
0
100
AcDbPoint
 10
-90.25052781167436
 20
26.961733724022423
 30
0.0
  0
POINT
  5
220
330
17
100
AcDbEntity
  8
0
100
AcDbPoint
 10
-90.21485442240676
 20
27.387080708837765
 30
0.0
  0
POINT
  5
221
330
17
100
AcDbEntity
  8
0
100
AcDbPoint
 10
-90.1756043222263
 20
27.812106733967237
 30
0.0
  0
POINT
  5
222
330
17
100
AcDbEntity
  8
0
100
AcDbPoint
 10
-90.13342993320809
 20
28.236846778772488
 30
0.0
  0
POINT
  5
223
330
17
100
AcDbEntity
  8
0
100
AcDbPoint
 10
-90.0891424940793
 20
28.661372800670037
 30
0.0
  0
POINT
  5
224
330
17
100
AcDbEntity
  8
0
100
AcDbPoint
 10
-90.04264413770996
 20
29.085674133849054
 30
0.0
  0
POINT
  5
225
330
17
100
AcDbEntity
  8
0
100
AcDbPoint
 10
-89.99204707832604
 20
29.509500468780836
 30
0.0
  0
POINT
  5
226
330
17
100
AcDbEntity
  8
0
100
AcDbPoint
 10
-89.93775022694273
 20
29.932869263273922
 30
0.0
  0
POINT
  5
227
330
17
100
AcDbEntity
  8
0
100
AcDbPoint
 10
-89.88140914806385
 20
30.355960904255006
 30
0.0
  0
POINT
  5
228
330
17
100
AcDbEntity
  8
0
100
AcDbPoint
 10
-89.82284970286064
 20
30.778755962730504
 30
0.0
  0
POINT
  5
229
330
17
100
AcDbEntity
  8
0
100
AcDbPoint
 10
-89.76115989199509
 20
31.201110176353392
 30
0.0
  0
POINT
  5
22A
330
17
100
AcDbEntity
  8
0
100
AcDbPoint
 10
-89.6959237671175
 20
31.622932618837307
 30
0.0
  0
POINT
  5
22B
330
17
100
AcDbEntity
  8
0
100
AcDbPoint
 10
-89.627622721863
 20
32.044261661261984
 30
0.0
  0
POINT
  5
22C
330
17
100
AcDbEntity
  8
0
100
AcDbPoint
 10
-89.55687017174223
 20
32.46518262405136
 30
0.0
  0
POINT
  5
22D
330
17
100
AcDbEntity
  8
0
100
AcDbPoint
 10
-89.48379361722608
 20
32.885712601666846
 30
0.0
  0
POINT
  5
22E
330
17
100
AcDbEntity
  8
0
100
AcDbPoint
 10
-89.40779386585734
 20
33.30573027048971
 30
0.0
  0
POINT
  5
22F
330
17
100
AcDbEntity
  8
0
100
AcDbPoint
 10
-89.32787278344587
 20
33.72501381912804
 30
0.0
  0
POINT
  5
230
330
17
100
AcDbEntity
  8
0
100
AcDbPoint
 10
-89.24500181968777
 20
34.143719737805604
 30
0.0
  0
POINT
  5
231
330
17
100
AcDbEntity
  8
0
100
AcDbPoint
 10
-89.16015903934546
 20
34.562028636679884
 30
0.0
  0
POINT
  5
232
330
17
100
AcDbEntity
  8
0
100
AcDbPoint
 10
-89.07302232959073
 20
34.979875226366694
 30
0.0
  0
POINT
  5
233
330
17
100
AcDbEntity
  8
0
100
AcDbPoint
 10
-88.98200655669696
 20
35.39689226414709
 30
0.0
  0
POINT
  5
234
330
17
100
AcDbEntity
  8
0
100
AcDbPoint
 10
-88.88751427944578
 20
35.81313502805937
 30
0.0
  0
POINT
  5
235
330
17
100
AcDbEntity
  8
0
100
AcDbPoint
 10
-88.79075632594224
 20
36.22884725288975
 30
0.0
  0
POINT
  5
236
330
17
100
AcDbEntity
  8
0
100
AcDbPoint
 10
-88.69176921868946
 20
36.644037746141585
 30
0.0
  0
POINT
  5
237
330
17
100
AcDbEntity
  8
0
100
AcDbPoint
 10
-88.58984533084609
 20
37.05852293101369
 30
0.0
  0
POINT
  5
238
330
17
100
AcDbEntity
  8
0
100
AcDbPoint
 10
-88.4845231981398
 20
37.47215910666544
 30
0.0
  0
POINT
  5
239
330
17
100
AcDbEntity
  8
0
100
AcDbPoint
 10
-88.37601853984812
 20
37.884964300845276
 30
0.0
  0
POINT
  5
23A
330
17
100
AcDbEntity
  8
0
100
AcDbPoint
 10
-88.26510773235631
 20
38.297125371759165
 30
0.0
  0
POINT
  5
23B
330
17
100
AcDbEntity
  8
0
100
AcDbPoint
 10
-88.15203911977791
 20
38.70870676090765
 30
0.0
  0
POINT
  5
23C
330
17
100
AcDbEntity
  8
0
100
AcDbPoint
 10
-88.03611601720469
 20
39.119498902353655
 30
0.0
  0
POINT
  5
23D
330
17
100
AcDbEntity
  8
0
100
AcDbPoint
 10
-87.91619769610699
 20
39.52913778963606
 30
0.0
  0
POINT
  5
23E
330
17
100
AcDbEntity
  8
0
100
AcDbPoint
 10
-87.79347437446658
 20
39.937940179604716
 30
0.0
  0
POINT
  5
23F
330
17
100
AcDbEntity
  8
0
100
AcDbPoint
 10
-87.66888455873818
 20
40.346175268548656
 30
0.0
  0
POINT
  5
240
330
17
100
AcDbEntity
  8
0
100
AcDbPoint
 10
-87.54197100385046
 20
40.75370277260998
 30
0.0
  0
POINT
  5
241
330
17
100
AcDbEntity
  8
0
100
AcDbPoint
 10
-87.41124684978811
 20
41.16002348908647
 30
0.0
  0
POINT
  5
242
330
17
100
AcDbEntity
  8
0
100
AcDbPoint
 10
-87.27723243578241
 20
41.5652696734902
 30
0.0
  0
POINT
  5
243
330
17
100
AcDbEntity
  8
0
100
AcDbPoint
 10
-87.14099088699683
 20
41.96976296564324
 30
0.0
  0
POINT
  5
244
330
17
100
AcDbEntity
  8
0
100
AcDbPoint
 10
-87.0025675351459
 20
42.373518568333736
 30
0.0
  0
POINT
  5
245
330
17
100
AcDbEntity
  8
0
100
AcDbPoint
 10
-86.86123056398313
 20
42.776269722000904
 30
0.0
  0
POINT
  5
246
330
17
100
AcDbEntity
  8
0
100
AcDbPoint
 10
-86.7165656050986
 20
43.17783832279252
 30
0.0
  0
POINT
  5
247
330
17
100
AcDbEntity
  8
0
100
AcDbPoint
 10
-86.56884128746749
 20
43.57828380383935
 30
0.0
  0
POINT
  5
248
330
17
100
AcDbEntity
  8
0
100
AcDbPoint
 10
-86.41884061700898
 20
43.97787824238404
 30
0.0
  0
POINT
  5
249
330
17
100
AcDbEntity
  8
0
100
AcDbPoint
 10
-86.2666961204278
 20
44.37666933043104
 30
0.0
  0
POINT
  5
24A
330
17
100
AcDbEntity
  8
0
100
AcDbPoint
 10
-86.11164096202288
 20
44.77434228355187
 30
0.0
  0
POINT
  5
24B
330
17
100
AcDbEntity
  8
0
100
AcDbPoint
 10
-85.95274204233145
 20
45.170490654459606
 30
0.0
  0
POINT
  5
24C
330
17
100
AcDbEntity
  8
0
100
AcDbPoint
 10
-85.79124029648622
 20
45.56557875361177
 30
0.0
  0
POINT
  5
24D
330
17
100
AcDbEntity
  8
0
100
AcDbPoint
 10
-85.6279495673786
 20
45.959930797352
 30
0.0
  0
POINT
  5
24E
330
17
100
AcDbEntity
  8
0
100
AcDbPoint
 10
-85.46231104593174
 20
46.35331121580736
 30
0.0
  0
POINT
  5
24F
330
17
100
AcDbEntity
  8
0
100
AcDbPoint
 10
-85.29278322715192
 20
46.74503039004593
 30
0.0
  0
POINT
  5
250
330
17
100
AcDbEntity
  8
0
100
AcDbPoint
 10
-85.12017398816454
 20
47.135399343393985
 30
0.0
  0
POINT
  5
251
330
17
100
AcDbEntity
  8
0
100
AcDbPoint
 10
-84.94554424847905
 20
47.524858816329726
 30
0.0
  0
POINT
  5
252
330
17
100
AcDbEntity
  8
0
100
AcDbPoint
 10
-84.76876921825608
 20
47.91335482301134
 30
0.0
  0
POINT
  5
253
330
17
100
AcDbEntity
  8
0
100
AcDbPoint
 10
-84.58895407587599
 20
48.30045884111606
 30
0.0
  0
POINT
  5
254
330
17
100
AcDbEntity
  8
0
100
AcDbPoint
 10
-84.40587605644802
 20
48.686030417321355
 30
0.0
  0
POINT
  5
255
330
17
100
AcDbEntity
  8
0
100
AcDbPoint
 10
-84.22002502496302
 20
49.070264092164656
 30
0.0
  0
POINT
  5
256
330
17
100
AcDbEntity
  8
0
100
AcDbPoint
 10
-84.03203730495758
 20
49.453454507278884
 30
0.0
  0
POINT
  5
257
330
17
100
AcDbEntity
  8
0
100
AcDbPoint
 10
-83.84178124226162
 20
49.83553245714472
 30
0.0
  0
POINT
  5
258
330
17
100
AcDbEntity
  8
0
100
AcDbPoint
 10
-83.64852253301615
 20
50.21610403464514
 30
0.0
  0
POINT
  5
259
330
17
100
AcDbEntity
  8
0
100
AcDbPoint
 10
-83.4517356896477
 20
50.59485816708182
 30
0.0
  0
POINT
  5
25A
330
17
100
AcDbEntity
  8
0
100
AcDbPoint
 10
-83.25254139908614
 20
50.972343793602896
 30
0.0
  0
POINT
  5
25B
330
17
100
AcDbEntity
  8
0
100
AcDbPoint
 10
-83.05162739139838
 20
51.348921845110354
 30
0.0
  0
POINT
  5
25C
330
17
100
AcDbEntity
  8
0
100
AcDbPoint
 10
-82.8483178184892
 20
51.72422027944051
 30
0.0
  0
POINT
  5
25D
330
17
100
AcDbEntity
  8
0
100
AcDbPoint
 10
-82.64095334148377
 20
52.097291379301325
 30
0.0
  0
POINT
  5
25E
330
17
100
AcDbEntity
  8
0
100
AcDbPoint
 10
-82.43078940098262
 20
52.46878912959808
 30
0.0
  0
POINT
  5
25F
330
17
100
AcDbEntity
  8
0
100
AcDbPoint
 10
-82.21890026634763
 20
52.83929566996682
 30
0.0
  0
POINT
  5
260
330
17
100
AcDbEntity
  8
0
100
AcDbPoint
 10
-82.00486493333935
 20
53.2085751608973
 30
0.0
  0
POINT
  5
261
330
17
100
AcDbEntity
  8
0
100
AcDbPoint
 10
-81.7875819500296
 20
53.57595746540456
 30
0.0
  0
POINT
  5
262
330
17
100
AcDbEntity
  8
0
100
AcDbPoint
 10
-81.5671713394187
 20
53.94147097838917
 30
0.0
  0
POINT
  5
263
330
17
100
AcDbEntity
  8
0
100
AcDbPoint
 10
-81.34437698685626
 20
54.3055256184162
 30
0.0
  0
POINT
  5
264
330
17
100
AcDbEntity
  8
0
100
AcDbPoint
 10
-81.11956656590793
 20
54.66833936370669
 30
0.0
  0
POINT
  5
265
330
17
100
AcDbEntity
  8
0
100
AcDbPoint
 10
-80.89229151382683
 20
55.02962329783133
 30
0.0
  0
POINT
  5
266
330
17
100
AcDbEntity
  8
0
100
AcDbPoint
 10
-80.66197936937094
 20
55.38898140148773
 30
0.0
  0
POINT
  5
267
330
17
100
AcDbEntity
  8
0
100
AcDbPoint
 10
-80.42857684838815
 20
55.74633272376197
 30
0.0
  0
POINT
  5
268
330
17
100
AcDbEntity
  8
0
100
AcDbPoint
 10
-80.1930116852206
 20
56.10225497058397
 30
0.0
  0
POINT
  5
269
330
17
100
AcDbEntity
  8
0
100
AcDbPoint
 10
-79.95562678381663
 20
56.45697429774026
 30
0.0
  0
POINT
  5
26A
330
17
100
AcDbEntity
  8
0
100
AcDbPoint
 10
-79.7156866446297
 20
56.80997721247228
 30
0.0
  0
POINT
  5
26B
330
17
100
AcDbEntity
  8
0
100
AcDbPoint
 10
-79.47202841082455
 20
57.16042120052831
 30
0.0
  0
POINT
  5
26C
330
17
100
AcDbEntity
  8
0
100
AcDbPoint
 10
-79.22590472431038
 20
57.5091313713739
 30
0.0
  0
POINT
  5
26D
330
17
100
AcDbEntity
  8
0
100
AcDbPoint
 10
-78.97816984411553
 20
57.85669384773714
 30
0.0
  0
POINT
  5
26E
330
17
100
AcDbEntity
  8
0
100
AcDbPoint
 10
-78.72832807580944
 20
58.20275559618154
 30
0.0
  0
POINT
  5
26F
330
17
100
AcDbEntity
  8
0
100
AcDbPoint
 10
-78.47507013882147
 20
58.5463271255506
 30
0.0
  0
POINT
  5
270
330
17
100
AcDbEntity
  8
0
100
AcDbPoint
 10
-78.21894419793603
 20
58.887764368249606
 30
0.0
  0
POINT
  5
271
330
17
100
AcDbEntity
  8
0
100
AcDbPoint
 10
-77.96087977244467
 20
59.22772605058994
 30
0.0
  0
POINT
  5
272
330
17
100
AcDbEntity
  8
0
100
AcDbPoint
 10
-77.70090538137534
 20
59.56623431700679
 30
0.0
  0
POINT
  5
273
330
17
100
AcDbEntity
  8
0
100
AcDbPoint
 10
-77.4382915754494
 20
59.902707411028004
 30
0.0
  0
POINT
  5
274
330
17
100
AcDbEntity
  8
0
100
AcDbPoint
 10
-77.17274637053433
 20
60.236873625650595
 30
0.0
  0
POINT
  5
275
330
17
100
AcDbEntity
  8
0
100
AcDbPoint
 10
-76.90462706990266
 20
60.56896784567297
 30
0.0
  0
POINT
  5
276
330
17
100
AcDbEntity
  8
0
100
AcDbPoint
 10
-76.63458822496189
 20
60.89949861886985
 30
0.0
  0
POINT
  5
277
330
17
100
AcDbEntity
  8
0
100
AcDbPoint
 10
-76.36259548670326
 20
61.2284334274453
 30
0.0
  0
POINT
  5
278
330
17
100
AcDbEntity
  8
0
100
AcDbPoint
 10
-76.08799006830402
 20
61.555196262056036
 30
0.0
  0
POINT
  5
279
330
17
100
AcDbEntity
  8
0
100
AcDbPoint
 10
-75.81020454344025
 20
61.87925546990874
 30
0.0
  0
POINT
  5
27A
330
17
100
AcDbEntity
  8
0
100
AcDbPoint
 10
-75.53026404727052
 20
62.201445426083076
 30
0.0
  0
POINT
  5
27B
330
17
100
AcDbEntity
  8
0
100
AcDbPoint
 10
-75.24881655370275
 20
62.52232267089115
 30
0.0
  0
POINT
  5
27C
330
17
100
AcDbEntity
  8
0
100
AcDbPoint
 10
-74.96532168652692
 20
62.841403679427245
 30
0.0
  0
POINT
  5
27D
330
17
100
AcDbEntity
  8
0
100
AcDbPoint
 10
-74.67834681023365
 20
63.157358214083246
 30
0.0
  0
POINT
  5
27E
330
17
100
AcDbEntity
  8
0
100
AcDbPoint
 10
-74.38887629910562
 20
63.47102510490449
 30
0.0
  0
POINT
  5
27F
330
17
100
AcDbEntity
  8
0
100
AcDbPoint
 10
-74.097881793722
 20
63.78326451598277
 30
0.0
  0
POINT
  5
280
330
17
100
AcDbEntity
  8
0
100
AcDbPoint
 10
-73.80506410795628
 20
64.09380459617738
 30
0.0
  0
POINT
  5
281
330
17
100
AcDbEntity
  8
0
100
AcDbPoint
 10
-73.50951080873865
 20
64.40174929084186
 30
0.0
  0
POINT
  5
282
330
17
100
AcDbEntity
  8
0
100
AcDbPoint
 10
-73.21125969520826
 20
64.70708263850712
 30
0.0
  0
POINT
  5
283
330
17
100
AcDbEntity
  8
0
100
AcDbPoint
 10
-72.9109292055355
 20
65.01035748978155
 30
0.0
  0
POINT
  5
284
330
17
100
AcDbEntity
  8
0
100
AcDbPoint
 10
-72.608879670358
 20
65.31191959236556
 30
0.0
  0
POINT
  5
285
330
17
100
AcDbEntity
  8
0
100
AcDbPoint
 10
-72.30479009605627
 20
65.61143576905673
 30
0.0
  0
POINT
  5
286
330
17
100
AcDbEntity
  8
0
100
AcDbPoint
 10
-71.99816128387097
 20
65.90835716960856
 30
0.0
  0
POINT
  5
287
330
17
100
AcDbEntity
  8
0
100
AcDbPoint
 10
-71.6888811244504
 20
66.20250844143054
 30
0.0
  0
POINT
  5
288
330
17
100
AcDbEntity
  8
0
100
AcDbPoint
 10
-71.3777499117782
 20
66.49469133009849
 30
0.0
  0
POINT
  5
289
330
17
100
AcDbEntity
  8
0
100
AcDbPoint
 10
-71.06513131752203
 20
66.78529073440806
 30
0.0
  0
POINT
  5
28A
330
17
100
AcDbEntity
  8
0
100
AcDbPoint
 10
-70.75044985257519
 20
67.073665320853
 30
0.0
  0
POINT
  5
28B
330
17
100
AcDbEntity
  8
0
100
AcDbPoint
 10
-70.43263710994631
 20
67.35858437732861
 30
0.0
  0
POINT
  5
28C
330
17
100
AcDbEntity
  8
0
100
AcDbPoint
 10
-70.11272796516846
 20
67.64114091563833
 30
0.0
  0
POINT
  5
28D
330
17
100
AcDbEntity
  8
0
100
AcDbPoint
 10
-69.79148550831725
 20
67.92217035666398
 30
0.0
  0
POINT
  5
28E
330
17
100
AcDbEntity
  8
0
100
AcDbPoint
 10
-69.46853040166148
 20
68.20124319936865
 30
0.0
  0
POINT
  5
28F
330
17
100
AcDbEntity
  8
0
100
AcDbPoint
 10
-69.1428660707094
 20
68.47715536236119
 30
0.0
  0
POINT
  5
290
330
17
100
AcDbEntity
  8
0
100
AcDbPoint
 10
-68.81482208307354
 20
68.75023405968406
 30
0.0
  0
POINT
  5
291
330
17
100
AcDbEntity
  8
0
100
AcDbPoint
 10
-68.48511908230635
 20
69.02129056617088
 30
0.0
  0
POINT
  5
292
330
17
100
AcDbEntity
  8
0
100
AcDbPoint
 10
-68.15386539653532
 20
69.29045347234901
 30
0.0
  0
POINT
  5
293
330
17
100
AcDbEntity
  8
0
100
AcDbPoint
 10
-67.82058172937703
 20
69.55711124288386
 30
0.0
  0
POINT
  5
294
330
17
100
AcDbEntity
  8
0
100
AcDbPoint
 10
-67.48495844054406
 20
69.82082290743816
 30
0.0
  0
POINT
  5
295
330
17
100
AcDbEntity
  8
0
100
AcDbPoint
 10
-67.1471620754602
 20
70.0817344393425
 30
0.0
  0
POINT
  5
296
330
17
100
AcDbEntity
  8
0
100
AcDbPoint
 10
-66.80778953959074
 20
70.34058384690209
 30
0.0
  0
POINT
  5
297
330
17
100
AcDbEntity
  8
0
100
AcDbPoint
 10
-66.46696277863933
 20
70.59752781521873
 30
0.0
  0
POINT
  5
298
330
17
100
AcDbEntity
  8
0
100
AcDbPoint
 10
-66.1241495493969
 20
70.85182499408074
 30
0.0
  0
POINT
  5
299
330
17
100
AcDbEntity
  8
0
100
AcDbPoint
 10
-65.77870214784136
 20
71.10253080194398
 30
0.0
  0
POINT
  5
29A
330
17
100
AcDbEntity
  8
0
100
AcDbPoint
 10
-65.43151433675104
 20
71.35081006252852
 30
0.0
  0
POINT
  5
29B
330
17
100
AcDbEntity
  8
0
100
AcDbPoint
 10
-65.08313504377442
 20
71.59741025800753
 30
0.0
  0
POINT
  5
29C
330
17
100
AcDbEntity
  8
0
100
AcDbPoint
 10
-64.73318694603738
 20
71.84179393974313
 30
0.0
  0
POINT
  5
29D
330
17
100
AcDbEntity
  8
0
100
AcDbPoint
 10
-64.38072098555493
 20
72.08253778790525
 30
0.0
  0
POINT
  5
29E
330
17
100
AcDbEntity
  8
0
100
AcDbPoint
 10
-64.02625731863169
 20
72.32032915855879
 30
0.0
  0
POINT
  5
29F
330
17
100
AcDbEntity
  8
0
100
AcDbPoint
 10
-63.67046436002839
 20
72.5561070716483
 30
0.0
  0
POINT
  5
2A0
330
17
100
AcDbEntity
  8
0
100
AcDbPoint
 10
-63.31329071362555
 20
72.78979573585524
 30
0.0
  0
POINT
  5
2A1
330
17
100
AcDbEntity
  8
0
100
AcDbPoint
 10
-62.95423910136687
 20
73.02060299096523
 30
0.0
  0
POINT
  5
2A2
330
17
100
AcDbEntity
  8
0
100
AcDbPoint
 10
-62.59315373055953
 20
73.24821939300146
 30
0.0
  0
POINT
  5
2A3
330
17
100
AcDbEntity
  8
0
100
AcDbPoint
 10
-62.23030020373151
 20
73.47299266323897
 30
0.0
  0
POINT
  5
2A4
330
17
100
AcDbEntity
  8
0
100
AcDbPoint
 10
-61.86611734645495
 20
73.69559764848779
 30
0.0
  0
POINT
  5
2A5
330
17
100
AcDbEntity
  8
0
100
AcDbPoint
 10
-61.50061877306285
 20
73.91605215728079
 30
0.0
  0
POINT
  5
2A6
330
17
100
AcDbEntity
  8
0
100
AcDbPoint
 10
-61.13334054332827
 20
74.13353786691869
 30
0.0
  0
POINT
  5
2A7
330
17
100
AcDbEntity
  8
0
100
AcDbPoint
 10
-60.76387828493911
 20
74.34729155924121
 30
0.0
  0
POINT
  5
2A8
330
17
100
AcDbEntity
  8
0
100
AcDbPoint
 10
-60.39300081766967
 20
74.55856561447358
 30
0.0
  0
POINT
  5
2A9
330
17
100
AcDbEntity
  8
0
100
AcDbPoint
 10
-60.02109919962773
 20
74.76803118200391
 30
0.0
  0
POINT
  5
2AA
330
17
100
AcDbEntity
  8
0
100
AcDbPoint
 10
-59.64780475665466
 20
74.97501993010692
 30
0.0
  0
POINT
  5
2AB
330
17
100
AcDbEntity
  8
0
100
AcDbPoint
 10
-59.272347577636026
 20
75.1780683050821
 30
0.0
  0
POINT
  5
2AC
330
17
100
AcDbEntity
  8
0
100
AcDbPoint
 10
-58.89527933183328
 20
75.3781048215384
 30
0.0
  0
POINT
  5
2AD
330
17
100
AcDbEntity
  8
0
100
AcDbPoint
 10
-58.517115909118516
 20
75.5760407825091
 30
0.0
  0
POINT
  5
2AE
330
17
100
AcDbEntity
  8
0
100
AcDbPoint
 10
-58.13776539386338
 20
75.77170186892188
 30
0.0
  0
POINT
  5
2AF
330
17
100
AcDbEntity
  8
0
100
AcDbPoint
 10
-57.756829663163515
 20
75.96427678748283
 30
0.0
  0
POINT
  5
2B0
330
17
100
AcDbEntity
  8
0
100
AcDbPoint
 10
-57.37421411418899
 20
76.15349532187523
 30
0.0
  0
POINT
  5
2B1
330
17
100
AcDbEntity
  8
0
100
AcDbPoint
 10
-56.9901484305845
 20
76.33973761643004
 30
0.0
  0
POINT
  5
2B2
330
17
100
AcDbEntity
  8
0
100
AcDbPoint
 10
-56.60499177241302
 20
76.52370315336046
 30
0.0
  0
POINT
  5
2B3
330
17
100
AcDbEntity
  8
0
100
AcDbPoint
 10
-56.2187675843459
 20
76.70543880456341
 30
0.0
  0
POINT
  5
2B4
330
17
100
AcDbEntity
  8
0
100
AcDbPoint
 10
-55.83105250568697
 20
76.88397967825605
 30
0.0
  0
POINT
  5
2B5
330
17
100
AcDbEntity
  8
0
100
AcDbPoint
 10
-55.44153999864995
 20
77.05856814460094
 30
0.0
  0
POINT
  5
2B6
330
17
100
AcDbEntity
  8
0
100
AcDbPoint
 10
-55.05092432447113
 20
77.23065438757396
 30
0.0
  0
POINT
  5
2B7
330
17
100
AcDbEntity
  8
0
100
AcDbPoint
 10
-54.65946609761096
 20
77.40081371425866
 30
0.0
  0
POINT
  5
2B8
330
17
100
AcDbEntity
  8
0
100
AcDbPoint
 10
-54.26684090079226
 20
77.5682797403582
 30
0.0
  0
POINT
  5
2B9
330
17
100
AcDbEntity
  8
0
100
AcDbPoint
 10
-53.872541824889396
 20
77.7317816964851
 30
0.0
  0
POINT
  5
2BA
330
17
100
AcDbEntity
  8
0
100
AcDbPoint
 10
-53.47697870191504
 20
77.89219311703741
 30
0.0
  0
POINT
  5
2BB
330
17
100
AcDbEntity
  8
0
100
AcDbPoint
 10
-53.08048970838739
 20
78.0502778580104
 30
0.0
  0
POINT
  5
2BC
330
17
100
AcDbEntity
  8
0
100
AcDbPoint
 10
-52.68305174467531
 20
78.20597011423584
 30
0.0
  0
POINT
  5
2BD
330
17
100
AcDbEntity
  8
0
100
AcDbPoint
 10
-52.28443436775818
 20
78.35864313479365
 30
0.0
  0
POINT
  5
2BE
330
17
100
AcDbEntity
  8
0
100
AcDbPoint
 10
-51.884493728858764
 20
78.50781773360292
 30
0.0
  0
POINT
  5
2BF
330
17
100
AcDbEntity
  8
0
100
AcDbPoint
 10
-51.483358773597914
 20
78.65373742068932
 30
0.0
  0
POINT
  5
2C0
330
17
100
AcDbEntity
  8
0
100
AcDbPoint
 10
-51.081384690868
 20
78.79731098928629
 30
0.0
  0
POINT
  5
2C1
330
17
100
AcDbEntity
  8
0
100
AcDbPoint
 10
-50.67867717431219
 20
78.93884422110197
 30
0.0
  0
POINT
  5
2C2
330
17
100
AcDbEntity
  8
0
100
AcDbPoint
 10
-50.27480040605496
 20
79.07701090591542
 30
0.0
  0
POINT
  5
2C3
330
17
100
AcDbEntity
  8
0
100
AcDbPoint
 10
-49.86946759485874
 20
79.21086590638161
 30
0.0
  0
POINT
  5
2C4
330
17
100
AcDbEntity
  8
0
100
AcDbPoint
 10
-49.46333958202511
 20
79.3422570007749
 30
0.0
  0
POINT
  5
2C5
330
17
100
AcDbEntity
  8
0
100
AcDbPoint
 10
-49.056555915566946
 20
79.47159008407904
 30
0.0
  0
POINT
  5
2C6
330
17
100
AcDbEntity
  8
0
100
AcDbPoint
 10
-48.64888742025478
 20
79.59812913021227
 30
0.0
  0
POINT
  5
2C7
330
17
100
AcDbEntity
  8
0
100
AcDbPoint
 10
-48.240096196277605
 20
79.72101912104371
 30
0.0
  0
POINT
  5
2C8
330
17
100
AcDbEntity
  8
0
100
AcDbPoint
 10
-47.83032788718523
 20
79.84059962443587
 30
0.0
  0
POINT
  5
2C9
330
17
100
AcDbEntity
  8
0
100
AcDbPoint
 10
-47.41978247882751
 20
79.95745862639379
 30
0.0
  0
POINT
  5
2CA
330
17
100
AcDbEntity
  8
0
100
AcDbPoint
 10
-47.00856987869419
 20
80.07194799395502
 30
0.0
  0
POINT
  5
2CB
330
17
100
AcDbEntity
  8
0
100
AcDbPoint
 10
-46.59663094626414
 20
80.18383458037285
 30
0.0
  0
POINT
  5
2CC
330
17
100
AcDbEntity
  8
0
100
AcDbPoint
 10
-46.18368726630649
 20
80.2919543136325
 30
0.0
  0
POINT
  5
2CD
330
17
100
AcDbEntity
  8
0
100
AcDbPoint
 10
-45.76979888210203
 20
80.39640542623268
 30
0.0
  0
POINT
  5
2CE
330
17
100
AcDbEntity
  8
0
100
AcDbPoint
 10
-45.35535448682516
 20
80.49858683471274
 30
0.0
  0
POINT
  5
2CF
330
17
100
AcDbEntity
  8
0
100
AcDbPoint
 10
-44.94037822805773
 20
80.59860373175971
 30
0.0
  0
POINT
  5
2D0
330
17
100
AcDbEntity
  8
0
100
AcDbPoint
 10
-44.524624805670406
 20
80.69535936651903
 30
0.0
  0
POINT
  5
2D1
330
17
100
AcDbEntity
  8
0
100
AcDbPoint
 10
-44.10797592768174
 20
80.78821605664992
 30
0.0
  0
POINT
  5
2D2
330
17
100
AcDbEntity
  8
0
100
AcDbPoint
 10
-43.69069833738858
 20
80.87816864637038
 30
0.0
  0
POINT
  5
2D3
330
17
100
AcDbEntity
  8
0
100
AcDbPoint
 10
-43.27290107148814
 20
80.96564812558553
 30
0.0
  0
POINT
  5
2D4
330
17
100
AcDbEntity
  8
0
100
AcDbPoint
 10
-42.8545766770829
 20
81.05059405402383
 30
0.0
  0
POINT
  5
2D5
330
17
100
AcDbEntity
  8
0
100
AcDbPoint
 10
-42.4356433738522
 20
81.13252582473655
 30
0.0
  0
POINT
  5
2D6
330
17
100
AcDbEntity
  8
0
100
AcDbPoint
 10
-42.01597920688228
 20
81.21062322915589
 30
0.0
  0
POINT
  5
2D7
330
17
100
AcDbEntity
  8
0
100
AcDbPoint
 10
-41.595739455994455
 20
81.2855473736088
 30
0.0
  0
POINT
  5
2D8
330
17
100
AcDbEntity
  8
0
100
AcDbPoint
 10
-41.175120870040985
 20
81.35827687823675
 30
0.0
  0
POINT
  5
2D9
330
17
100
AcDbEntity
  8
0
100
AcDbPoint
 10
-40.754101251988196
 20
81.42868743238782
 30
0.0
  0
POINT
  5
2DA
330
17
100
AcDbEntity
  8
0
100
AcDbPoint
 10
-40.33247749204991
 20
81.49540805333854
 30
0.0
  0
POINT
  5
2DB
330
17
100
AcDbEntity
  8
0
100
AcDbPoint
 10
-39.910276703486204
 20
81.55841079755633
 30
0.0
  0
POINT
  5
2DC
330
17
100
AcDbEntity
  8
0
100
AcDbPoint
 10
-39.48770455680686
 20
81.61879855269166
 30
0.0
  0
POINT
  5
2DD
330
17
100
AcDbEntity
  8
0
100
AcDbPoint
 10
-39.06479189686824
 20
81.6767319491838
 30
0.0
  0
POINT
  5
2DE
330
17
100
AcDbEntity
  8
0
100
AcDbPoint
 10
-38.64152030340565
 20
81.7320346816489
 30
0.0
  0
POINT
  5
2DF
330
17
100
AcDbEntity
  8
0
100
AcDbPoint
 10
-38.21783702831398
 20
81.78412929871091
 30
0.0
  0
POINT
  5
2E0
330
17
100
AcDbEntity
  8
0
100
AcDbPoint
 10
-37.79370132905875
 20
81.8323981377275
 30
0.0
  0
POINT
  5
2E1
330
17
100
AcDbEntity
  8
0
100
AcDbPoint
 10
-37.369259089024666
 20
81.87784723783604
 30
0.0
  0
POINT
  5
2E2
330
17
100
AcDbEntity
  8
0
100
AcDbPoint
 10
-36.944595607811344
 20
81.9211446281476
 30
0.0
  0
POINT
  5
2E3
330
17
100
AcDbEntity
  8
0
100
AcDbPoint
 10
-36.51967290604739
 20
81.96187409483414
 30
0.0
  0
POINT
  5
2E4
330
17
100
AcDbEntity
  8
0
100
AcDbPoint
 10
-36.0943990383805
 20
81.99881763782749
 30
0.0
  0
POINT
  5
2E5
330
17
100
AcDbEntity
  8
0
100
AcDbPoint
 10
-35.66884456248773
 20
82.0323929499925
 30
0.0
  0
POINT
  5
2E6
330
17
100
AcDbEntity
  8
0
100
AcDbPoint
 10
-35.243101038574665
 20
82.06334711729308
 30
0.0
  0
POINT
  5
2E7
330
17
100
AcDbEntity
  8
0
100
AcDbPoint
 10
-34.81718604183524
 20
82.09181923957244
 30
0.0
  0
POINT
  5
2E8
330
17
100
AcDbEntity
  8
0
100
AcDbPoint
 10
-34.39110517365361
 20
82.11781992043447
 30
0.0
  0
POINT
  5
2E9
330
17
100
AcDbEntity
  8
0
100
AcDbPoint
 10
-33.964831122891226
 20
82.14045869432469
 30
0.0
  0
POINT
  5
2EA
330
17
100
AcDbEntity
  8
0
100
AcDbPoint
 10
-33.53836585048729
 20
82.1592164571043
 30
0.0
  0
POINT
  5
2EB
330
17
100
AcDbEntity
  8
0
100
AcDbPoint
 10
-33.111805630419106
 20
82.17547671259355
 30
0.0
  0
POINT
  5
2EC
330
17
100
AcDbEntity
  8
0
100
AcDbPoint
 10
-32.685170975619876
 20
82.18954078356231
 30
0.0
  0
POINT
  5
2ED
330
17
100
AcDbEntity
  8
0
100
AcDbPoint
 10
-32.258450053588305
 20
82.20085435045218
 30
0.0
  0
POINT
  5
2EE
330
17
100
AcDbEntity
  8
0
100
AcDbPoint
 10
-31.8316456572035
 20
82.20873903038637
 30
0.0
  0
POINT
  5
2EF
330
17
100
AcDbEntity
  8
0
100
AcDbPoint
 10
-31.40479513138231
 20
82.2133448244636
 30
0.0
  0
POINT
  5
2F0
330
17
100
AcDbEntity
  8
0
100
AcDbPoint
 10
-30.97792985415529
 20
82.21513006109515
 30
0.0
  0
POINT
  5
2F1
330
17
100
AcDbEntity
  8
0
100
AcDbPoint
 10
-30.551063763871166
 20
82.21457791187265
 30
0.0
  0
POINT
  5
2F2
330
17
100
AcDbEntity
  8
0
100
AcDbPoint
 10
-30.124200452650367
 20
82.21179984384806
 30
0.0
  0
POINT
  5
2F3
330
17
100
AcDbEntity
  8
0
100
AcDbPoint
 10
-29.697374583255385
 20
82.20542873686615
 30
0.0
  0
POINT
  5
2F4
330
17
100
AcDbEntity
  8
0
100
AcDbPoint
 10
-29.270613951445334
 20
82.19535561969903
 30
0.0
  0
POINT
  5
2F5
330
17
100
AcDbEntity
  8
0
100
AcDbPoint
 10
-28.843926674176235
 20
82.18291029632351
 30
0.0
  0
POINT
  5
2F6
330
17
100
AcDbEntity
  8
0
100
AcDbPoint
 10
-28.417321507837716
 20
82.16804664275848
 30
0.0
  0
POINT
  5
2F7
330
17
100
AcDbEntity
  8
0
100
AcDbPoint
 10
-27.99080510660165
 20
82.1506840225487
 30
0.0
  0
POINT
  5
2F8
330
17
100
AcDbEntity
  8
0
100
AcDbPoint
 10
-27.564413365357254
 20
82.13042037898124
 30
0.0
  0
POINT
  5
2F9
330
17
100
AcDbEntity
  8
0
100
AcDbPoint
 10
-27.138215734471995
 20
82.10640870290197
 30
0.0
  0
POINT
  5
2FA
330
17
100
AcDbEntity
  8
0
100
AcDbPoint
 10
-26.712188935647266
 20
82.07958072047121
 30
0.0
  0
POINT
  5
2FB
330
17
100
AcDbEntity
  8
0
100
AcDbPoint
 10
-26.286312159536237
 20
82.05058435059287
 30
0.0
  0
POINT
  5
2FC
330
17
100
AcDbEntity
  8
0
100
AcDbPoint
 10
-25.860608498728173
 20
82.0191216909439
 30
0.0
  0
POINT
  5
2FD
330
17
100
AcDbEntity
  8
0
100
AcDbPoint
 10
-25.435129979100694
 20
81.98468135008206
 30
0.0
  0
POINT
  5
2FE
330
17
100
AcDbEntity
  8
0
100
AcDbPoint
 10
-25.009927564970816
 20
81.94697641476945
 30
0.0
  0
POINT
  5
2FF
330
17
100
AcDbEntity
  8
0
100
AcDbPoint
 10
-24.5850104549471
 20
81.90622008123253
 30
0.0
  0
POINT
  5
300
330
17
100
AcDbEntity
  8
0
100
AcDbPoint
 10
-24.160335037324785
 20
81.86307700666246
 30
0.0
  0
POINT
  5
301
330
17
100
AcDbEntity
  8
0
100
AcDbPoint
 10
-23.735889548783337
 20
81.81772754605315
 30
0.0
  0
POINT
  5
302
330
17
100
AcDbEntity
  8
0
100
AcDbPoint
 10
-23.31174595571456
 20
81.76961719542814
 30
0.0
  0
POINT
  5
303
330
17
100
AcDbEntity
  8
0
100
AcDbPoint
 10
-22.887994778580875
 20
81.71812325422854
 30
0.0
  0
POINT
  5
304
330
17
100
AcDbEntity
  8
0
100
AcDbPoint
 10
-22.46461414163934
 20
81.66369555263084
 30
0.0
  0
POINT
  5
305
330
17
100
AcDbEntity
  8
0
100
AcDbPoint
 10
-22.041576373145542
 20
81.60671570496349
 30
0.0
  0
POINT
  5
306
330
17
100
AcDbEntity
  8
0
100
AcDbPoint
 10
-21.618854540359315
 20
81.5474512972603
 30
0.0
  0
POINT
  5
307
330
17
100
AcDbEntity
  8
0
100
AcDbPoint
 10
-21.196454569212673
 20
81.48591857991916
 30
0.0
  0
POINT
  5
308
330
17
100
AcDbEntity
  8
0
100
AcDbPoint
 10
-20.774540234508695
 20
81.42112773789995
 30
0.0
  0
POINT
  5
309
330
17
100
AcDbEntity
  8
0
100
AcDbPoint
 10
-20.35313117840852
 20
81.35310811279582
 30
0.0
  0
POINT
  5
30A
330
17
100
AcDbEntity
  8
0
100
AcDbPoint
 10
-19.93213911457189
 20
81.28260619181069
 30
0.0
  0
POINT
  5
30B
330
17
100
AcDbEntity
  8
0
100
AcDbPoint
 10
-19.511561868825428
 20
81.20970060028495
 30
0.0
  0
POINT
  5
30C
330
17
100
AcDbEntity
  8
0
100
AcDbPoint
 10
-19.091366389528794
 20
81.13461591038
 30
0.0
  0
POINT
  5
30D
330
17
100
AcDbEntity
  8
0
100
AcDbPoint
 10
-18.67163945729394
 20
81.05695292981012
 30
0.0
  0
POINT
  5
30E
330
17
100
AcDbEntity
  8
0
100
AcDbPoint
 10
-18.25256417066835
 20
80.97582655731307
 30
0.0
  0
POINT
  5
30F
330
17
100
AcDbEntity
  8
0
100
AcDbPoint
 10
-17.83403024461406
 20
80.891966466824
 30
0.0
  0
POINT
  5
310
330
17
100
AcDbEntity
  8
0
100
AcDbPoint
 10
-17.41597933161061
 20
80.80577564683858
 30
0.0
  0
POINT
  5
311
330
17
100
AcDbEntity
  8
0
100
AcDbPoint
 10
-16.998414573973402
 20
80.7172690115755
 30
0.0
  0
POINT
  5
312
330
17
100
AcDbEntity
  8
0
100
AcDbPoint
 10
-16.581313442410217
 20
80.62659638641787
 30
0.0
  0
POINT
  5
313
330
17
100
AcDbEntity
  8
0
100
AcDbPoint
 10
-16.164862168200973
 20
80.532982895706
 30
0.0
  0
POINT
  5
314
330
17
100
AcDbEntity
  8
0
100
AcDbPoint
 10
-15.749130361145056
 20
80.43621016022445
 30
0.0
  0
POINT
  5
315
330
17
100
AcDbEntity
  8
0
100
AcDbPoint
 10
-15.333986737799767
 20
80.33697698567198
 30
0.0
  0
POINT
  5
316
330
17
100
AcDbEntity
  8
0
100
AcDbPoint
 10
-14.919409927071237
 20
80.23542737482049
 30
0.0
  0
POINT
  5
317
330
17
100
AcDbEntity
  8
0
100
AcDbPoint
 10
-14.505378596529622
 20
80.1316816481759
 30
0.0
  0
POINT
  5
318
330
17
100
AcDbEntity
  8
0
100
AcDbPoint
 10
-14.091937198256883
 20
80.02561109729191
 30
0.0
  0
POINT
  5
319
330
17
100
AcDbEntity
  8
0
100
AcDbPoint
 10
-13.679254098020204
 20
79.91661796520279
 30
0.0
  0
POINT
  5
31A
330
17
100
AcDbEntity
  8
0
100
AcDbPoint
 10
-13.26733230258812
 20
79.8047879634799
 30
0.0
  0
POINT
  5
31B
330
17
100
AcDbEntity
  8
0
100
AcDbPoint
 10
-12.856096870072449
 20
79.69048291968052
 30
0.0
  0
POINT
  5
31C
330
17
100
AcDbEntity
  8
0
100
AcDbPoint
 10
-12.445483988270043
 20
79.5739809846861
 30
0.0
  0
POINT
  5
31D
330
17
100
AcDbEntity
  8
0
100
AcDbPoint
 10
-12.035504593605335
 20
79.45527971372195
 30
0.0
  0
POINT
  5
31E
330
17
100
AcDbEntity
  8
0
100
AcDbPoint
 10
-11.626204719246447
 20
79.3342536226759
 30
0.0
  0
POINT
  5
31F
330
17
100
AcDbEntity
  8
0
100
AcDbPoint
 10
-11.217688927499301
 20
79.21060470603415
 30
0.0
  0
POINT
  5
320
330
17
100
AcDbEntity
  8
0
100
AcDbPoint
 10
-10.810082386265474
 20
79.08399817036914
 30
0.0
  0
POINT
  5
321
330
17
100
AcDbEntity
  8
0
100
AcDbPoint
 10
-10.40322623882792
 20
78.95501463486517
 30
0.0
  0
POINT
  5
322
330
17
100
AcDbEntity
  8
0
100
AcDbPoint
 10
-9.997047674322523
 20
78.82393939954689
 30
0.0
  0
POINT
  5
323
330
17
100
AcDbEntity
  8
0
100
AcDbPoint
 10
-9.591596873362462
 20
78.69063837643915
 30
0.0
  0
POINT
  5
324
330
17
100
AcDbEntity
  8
0
100
AcDbPoint
 10
-9.18681988378313
 20
78.55530417004385
 30
0.0
  0
POINT
  5
325
330
17
100
AcDbEntity
  8
0
100
AcDbPoint
 10
-8.782944393016335
 20
78.41730876337955
 30
0.0
  0
POINT
  5
326
330
17
100
AcDbEntity
  8
0
100
AcDbPoint
 10
-8.38009313212062
 20
78.27634578566546
 30
0.0
  0
POINT
  5
327
330
17
100
AcDbEntity
  8
0
100
AcDbPoint
 10
-7.978028909836691
 20
78.13317679886025
 30
0.0
  0
POINT
  5
328
330
17
100
AcDbEntity
  8
0
100
AcDbPoint
 10
-7.576732968148497
 20
77.98788905888983
 30
0.0
  0
POINT
  5
329
330
17
100
AcDbEntity
  8
0
100
AcDbPoint
 10
-7.176228486004516
 20
77.84044397069252
 30
0.0
  0
POINT
  5
32A
330
17
100
AcDbEntity
  8
0
100
AcDbPoint
 10
-6.776519353899474
 20
77.69086437430998
 30
0.0
  0
POINT
  5
32B
330
17
100
AcDbEntity
  8
0
100
AcDbPoint
 10
-6.377648717086608
 20
77.53906267200908
 30
0.0
  0
POINT
  5
32C
330
17
100
AcDbEntity
  8
0
100
AcDbPoint
 10
-5.9797996534771505
 20
77.38460994346502
 30
0.0
  0
POINT
  5
32D
330
17
100
AcDbEntity
  8
0
100
AcDbPoint
 10
-5.582995577609618
 20
77.22749766269474
 30
0.0
  0
POINT
  5
32E
330
17
100
AcDbEntity
  8
0
100
AcDbPoint
 10
-5.187010185487449
 20
77.06835481436543
 30
0.0
  0
POINT
  5
32F
330
17
100
AcDbEntity
  8
0
100
AcDbPoint
 10
-4.791868896906405
 20
76.90714480187339
 30
0.0
  0
POINT
  5
330
330
17
100
AcDbEntity
  8
0
100
AcDbPoint
 10
-4.39759493516996
 20
76.7438334621949
 30
0.0
  0
POINT
  5
331
330
17
100
AcDbEntity
  8
0
100
AcDbPoint
 10
-4.004193819603183
 20
76.57843862375223
 30
0.0
  0
POINT
  5
332
330
17
100
AcDbEntity
  8
0
100
AcDbPoint
 10
-3.6117657588821186
 20
76.41075007849675
 30
0.0
  0
POINT
  5
333
330
17
100
AcDbEntity
  8
0
100
AcDbPoint
 10
-3.2204302200558232
 20
76.24053481322656
 30
0.0
  0
POINT
  5
334
330
17
100
AcDbEntity
  8
0
100
AcDbPoint
 10
-2.830158005087416
 20
76.06790615450821
 30
0.0
  0
POINT
  5
335
330
17
100
AcDbEntity
  8
0
100
AcDbPoint
 10
-2.440781672905109
 20
75.89328514924229
 30
0.0
  0
POINT
  5
336
330
17
100
AcDbEntity
  8
0
100
AcDbPoint
 10
-2.052324282570569
 20
75.71664431702926
 30
0.0
  0
POINT
  5
337
330
17
100
AcDbEntity
  8
0
100
AcDbPoint
 10
-1.664812169514377
 20
75.53794967264724
 30
0.0
  0
POINT
  5
338
330
17
100
AcDbEntity
  8
0
100
AcDbPoint
 10
-1.2782448893314633
 20
75.357229001098
 30
0.0
  0
POINT
  5
339
330
17
100
AcDbEntity
  8
0
100
AcDbPoint
 10
-0.8926589093078536
 20
75.17442820899016
 30
0.0
  0
POINT
  5
33A
330
17
100
AcDbEntity
  8
0
100
AcDbPoint
 10
-0.5082511462917589
 20
74.98917088360446
 30
0.0
  0
POINT
  5
33B
330
17
100
AcDbEntity
  8
0
100
AcDbPoint
 10
-0.12502004076746992
 20
74.80149897052405
 30
0.0
  0
POINT
  5
33C
330
17
100
AcDbEntity
  8
0
100
AcDbPoint
 10
0.2572580584032075
 20
74.61191312841842
 30
0.0
  0
POINT
  5
33D
330
17
100
AcDbEntity
  8
0
100
AcDbPoint
 10
0.638551907577782
 20
74.42037111088985
 30
0.0
  0
POINT
  5
33E
330
17
100
AcDbEntity
  8
0
100
AcDbPoint
 10
1.0188246994727959
 20
74.22682152634601
 30
0.0
  0
POINT
  5
33F
330
17
100
AcDbEntity
  8
0
100
AcDbPoint
 10
1.3980896526076807
 20
74.03131540138341
 30
0.0
  0
POINT
  5
340
330
17
100
AcDbEntity
  8
0
100
AcDbPoint
 10
1.7763575535003626
 20
73.83389551802011
 30
0.0
  0
POINT
  5
341
330
17
100
AcDbEntity
  8
0
100
AcDbPoint
 10
2.1534639280558694
 20
73.6342733624723
 30
0.0
  0
POINT
  5
342
330
17
100
AcDbEntity
  8
0
100
AcDbPoint
 10
2.5293407916630204
 20
73.43235220536695
 30
0.0
  0
POINT
  5
343
330
17
100
AcDbEntity
  8
0
100
AcDbPoint
 10
2.9040814987446493
 20
73.22834526113651
 30
0.0
  0
POINT
  5
344
330
17
100
AcDbEntity
  8
0
100
AcDbPoint
 10
3.2777566608899438
 20
73.02240887713042
 30
0.0
  0
POINT
  5
345
330
17
100
AcDbEntity
  8
0
100
AcDbPoint
 10
3.6503735762793927
 20
72.81457863560203
 30
0.0
  0
POINT
  5
346
330
17
100
AcDbEntity
  8
0
100
AcDbPoint
 10
4.021910070539439
 20
72.60483592492838
 30
0.0
  0
POINT
  5
347
330
17
100
AcDbEntity
  8
0
100
AcDbPoint
 10
4.392357361615585
 20
72.39318733289056
 30
0.0
  0
POINT
  5
348
330
17
100
AcDbEntity
  8
0
100
AcDbPoint
 10
4.76173012452239
 20
72.17967931994737
 30
0.0
  0
POINT
  5
349
330
17
100
AcDbEntity
  8
0
100
AcDbPoint
 10
5.129964655514237
 20
71.96422387403048
 30
0.0
  0
POINT
  5
34A
330
17
100
AcDbEntity
  8
0
100
AcDbPoint
 10
5.496949055783268
 20
71.74665370703701
 30
0.0
  0
POINT
  5
34B
330
17
100
AcDbEntity
  8
0
100
AcDbPoint
 10
5.862671217319043
 20
71.52698040684086
 30
0.0
  0
POINT
  5
34C
330
17
100
AcDbEntity
  8
0
100
AcDbPoint
 10
6.227217440402879
 20
71.3053755239878
 30
0.0
  0
POINT
  5
34D
330
17
100
AcDbEntity
  8
0
100
AcDbPoint
 10
6.590651375527635
 20
71.08196756750569
 30
0.0
  0
POINT
  5
34E
330
17
100
AcDbEntity
  8
0
100
AcDbPoint
 10
6.952942242752307
 20
70.85672490679377
 30
0.0
  0
POINT
  5
34F
330
17
100
AcDbEntity
  8
0
100
AcDbPoint
 10
7.314083735850889
 20
70.6296572355522
 30
0.0
  0
POINT
  5
350
330
17
100
AcDbEntity
  8
0
100
AcDbPoint
 10
7.6740676558632135
 20
70.40077182350953
 30
0.0
  0
POINT
  5
351
330
17
100
AcDbEntity
  8
0
100
AcDbPoint
 10
8.03288635354009
 20
70.1700760478866
 30
0.0
  0
POINT
  5
352
330
17
100
AcDbEntity
  8
0
100
AcDbPoint
 10
8.390547336435745
 20
69.93760087713513
 30
0.0
  0
POINT
  5
353
330
17
100
AcDbEntity
  8
0
100
AcDbPoint
 10
8.746976083342123
 20
69.70325157773945
 30
0.0
  0
POINT
  5
354
330
17
100
AcDbEntity
  8
0
100
AcDbPoint
 10
9.102095278755552
 20
69.46693287023588
 30
0.0
  0
POINT
  5
355
330
17
100
AcDbEntity
  8
0
100
AcDbPoint
 10
9.455904195790307
 20
69.22867013588287
 30
0.0
  0
POINT
  5
356
330
17
100
AcDbEntity
  8
0
100
AcDbPoint
 10
9.80849534238885
 20
68.98862407515186
 30
0.0
  0
POINT
  5
357
330
17
100
AcDbEntity
  8
0
100
AcDbPoint
 10
10.159897704949323
 20
68.74685728854253
 30
0.0
  0
POINT
  5
358
330
17
100
AcDbEntity
  8
0
100
AcDbPoint
 10
10.510083698717033
 20
68.50334653188105
 30
0.0
  0
POINT
  5
359
330
17
100
AcDbEntity
  8
0
100
AcDbPoint
 10
10.859050972894376
 20
68.25810682194141
 30
0.0
  0
POINT
  5
35A
330
17
100
AcDbEntity
  8
0
100
AcDbPoint
 10
11.206792926716444
 20
68.01114682932204
 30
0.0
  0
POINT
  5
35B
330
17
100
AcDbEntity
  8
0
100
AcDbPoint
 10
11.55330262188352
 20
67.76247440972665
 30
0.0
  0
POINT
  5
35C
330
17
100
AcDbEntity
  8
0
100
AcDbPoint
 10
11.898574152726647
 20
67.51209906168756
 30
0.0
  0
POINT
  5
35D
330
17
100
AcDbEntity
  8
0
100
AcDbPoint
 10
12.242593171004652
 20
67.26001892776625
 30
0.0
  0
POINT
  5
35E
330
17
100
AcDbEntity
  8
0
100
AcDbPoint
 10
12.58537571978274
 20
67.0062726202065
 30
0.0
  0
POINT
  5
35F
330
17
100
AcDbEntity
  8
0
100
AcDbPoint
 10
12.926893052437206
 20
66.75083904743174
 30
0.0
  0
POINT
  5
360
330
17
100
AcDbEntity
  8
0
100
AcDbPoint
 10
13.2670108829314
 20
66.49355697838236
 30
0.0
  0
POINT
  5
361
330
17
100
AcDbEntity
  8
0
100
AcDbPoint
 10
13.605783428456721
 20
66.23451958033417
 30
0.0
  0
POINT
  5
362
330
17
100
AcDbEntity
  8
0
100
AcDbPoint
 10
13.94328176223537
 20
65.97384068688605
 30
0.0
  0
POINT
  5
363
330
17
100
AcDbEntity
  8
0
100
AcDbPoint
 10
14.279503282997172
 20
65.71153272101536
 30
0.0
  0
POINT
  5
364
330
17
100
AcDbEntity
  8
0
100
AcDbPoint
 10
14.614441966717923
 20
65.44760424531644
 30
0.0
  0
POINT
  5
365
330
17
100
AcDbEntity
  8
0
100
AcDbPoint
 10
14.948091822822917
 20
65.18206380909763
 30
0.0
  0
POINT
  5
366
330
17
100
AcDbEntity
  8
0
100
AcDbPoint
 10
15.280446843133916
 20
64.91491979144253
 30
0.0
  0
POINT
  5
367
330
17
100
AcDbEntity
  8
0
100
AcDbPoint
 10
15.611501098580188
 20
64.64618069023035
 30
0.0
  0
POINT
  5
368
330
17
100
AcDbEntity
  8
0
100
AcDbPoint
 10
15.941248696268808
 20
64.37585499502828
 30
0.0
  0
POINT
  5
369
330
17
100
AcDbEntity
  8
0
100
AcDbPoint
 10
16.269683786045437
 20
64.10395120337586
 30
0.0
  0
POINT
  5
36A
330
17
100
AcDbEntity
  8
0
100
AcDbPoint
 10
16.596800564550342
 20
63.830477830778065
 30
0.0
  0
POINT
  5
36B
330
17
100
AcDbEntity
  8
0
100
AcDbPoint
 10
16.922593275256833
 20
63.555443402988594
 30
0.0
  0
POINT
  5
36C
330
17
100
AcDbEntity
  8
0
100
AcDbPoint
 10
17.247056245518447
 20
63.278856497405584
 30
0.0
  0
POINT
  5
36D
330
17
100
AcDbEntity
  8
0
100
AcDbPoint
 10
17.57018381783198
 20
63.00072566704872
 30
0.0
  0
POINT
  5
36E
330
17
100
AcDbEntity
  8
0
100
AcDbPoint
 10
17.891970396456177
 20
62.72105948979804
 30
0.0
  0
POINT
  5
36F
330
17
100
AcDbEntity
  8
0
100
AcDbPoint
 10
18.212410892712114
 20
62.43986705769773
 30
0.0
  0
POINT
  5
370
330
17
100
AcDbEntity
  8
0
100
AcDbPoint
 10
18.53149916177728
 20
62.15715624714153
 30
0.0
  0
POINT
  5
371
330
17
100
AcDbEntity
  8
0
100
AcDbPoint
 10
18.84923032469024
 20
61.87293628281747
 30
0.0
  0
POINT
  5
372
330
17
100
AcDbEntity
  8
0
100
AcDbPoint
 10
19.165603585989654
 20
61.58722084599903
 30
0.0
  0
POINT
  5
373
330
17
100
AcDbEntity
  8
0
100
AcDbPoint
 10
19.480596955227426
 20
61.30000013824051
 30
0.0
  0
POINT
  5
374
330
17
100
AcDbEntity
  8
0
100
AcDbPoint
 10
19.79418718549826
 20
61.01126342429725
 30
0.0
  0
POINT
  5
375
330
17
100
AcDbEntity
  8
0
100
AcDbPoint
 10
20.106372600374023
 20
60.72102423238825
 30
0.0
  0
POINT
  5
376
330
17
100
AcDbEntity
  8
0
100
AcDbPoint
 10
20.417177288470675
 20
60.42932327388792
 30
0.0
  0
POINT
  5
377
330
17
100
AcDbEntity
  8
0
100
AcDbPoint
 10
20.72660835325063
 20
60.1361822601156
 30
0.0
  0
POINT
  5
378
330
17
100
AcDbEntity
  8
0
100
AcDbPoint
 10
21.03465535698277
 20
59.84160360550778
 30
0.0
  0
POINT
  5
379
330
17
100
AcDbEntity
  8
0
100
AcDbPoint
 10
21.34131515455322
 20
59.54559765149732
 30
0.0
  0
POINT
  5
37A
330
17
100
AcDbEntity
  8
0
100
AcDbPoint
 10
21.64658377251655
 20
59.248173762494325
 30
0.0
  0
POINT
  5
37B
330
17
100
AcDbEntity
  8
0
100
AcDbPoint
 10
21.95045662937019
 20
58.94934056992588
 30
0.0
  0
POINT
  5
37C
330
17
100
AcDbEntity
  8
0
100
AcDbPoint
 10
22.25292963852461
 20
58.6491071805022
 30
0.0
  0
POINT
  5
37D
330
17
100
AcDbEntity
  8
0
100
AcDbPoint
 10
22.553998629843335
 20
58.34748253939989
 30
0.0
  0
POINT
  5
37E
330
17
100
AcDbEntity
  8
0
100
AcDbPoint
 10
22.853659454997302
 20
58.04447554953366
 30
0.0
  0
POINT
  5
37F
330
17
100
AcDbEntity
  8
0
100
AcDbPoint
 10
23.151908005991118
 20
57.740095094142085
 30
0.0
  0
POINT
  5
380
330
17
100
AcDbEntity
  8
0
100
AcDbPoint
 10
23.448740175403124
 20
57.43434999255184
 30
0.0
  0
POINT
  5
381
330
17
100
AcDbEntity
  8
0
100
AcDbPoint
 10
23.744151880908372
 20
57.12724902590563
 30
0.0
  0
POINT
  5
382
330
17
100
AcDbEntity
  8
0
100
AcDbPoint
 10
24.03813904117693
 20
56.81880091848463
 30
0.0
  0
POINT
  5
383
330
17
100
AcDbEntity
  8
0
100
AcDbPoint
 10
24.3306975994916
 20
56.50901435893937
 30
0.0
  0
POINT
  5
384
330
17
100
AcDbEntity
  8
0
100
AcDbPoint
 10
24.621823617881414
 20
56.19789808399815
 30
0.0
  0
POINT
  5
385
330
17
100
AcDbEntity
  8
0
100
AcDbPoint
 10
24.91151294181801
 20
55.885460583430046
 30
0.0
  0
POINT
  5
386
330
17
100
AcDbEntity
  8
0
100
AcDbPoint
 10
25.19976185106241
 20
55.571710676479874
 30
0.0
  0
POINT
  5
387
330
17
100
AcDbEntity
  8
0
100
AcDbPoint
 10
25.486567145486244
 20
55.256657586551206
 30
0.0
  0
POINT
  5
388
330
17
100
AcDbEntity
  8
0
100
AcDbPoint
 10
25.771921706909893
 20
54.940307017829
 30
0.0
  0
POINT
  5
389
330
17
100
AcDbEntity
  8
0
100
AcDbPoint
 10
26.055828518311362
 20
54.62267354371975
 30
0.0
  0
POINT
  5
38A
330
17
100
AcDbEntity
  8
0
100
AcDbPoint
 10
26.338284481561654
 20
54.30376630728093
 30
0.0
  0
POINT
  5
38B
330
17
100
AcDbEntity
  8
0
100
AcDbPoint
 10
26.619229506572786
 20
53.98354410110665
 30
0.0
  0
POINT
  5
38C
330
17
100
AcDbEntity
  8
0
100
AcDbPoint
 10
26.8986716339942
 20
53.6620264930242
 30
0.0
  0
POINT
  5
38D
330
17
100
AcDbEntity
  8
0
100
AcDbPoint
 10
27.176646287080732
 20
53.33925717593837
 30
0.0
  0
POINT
  5
38E
330
17
100
AcDbEntity
  8
0
100
AcDbPoint
 10
27.453145781836955
 20
53.01524098960702
 30
0.0
  0
POINT
  5
38F
330
17
100
AcDbEntity
  8
0
100
AcDbPoint
 10
27.72816678342471
 20
52.68998665473823
 30
0.0
  0
POINT
  5
390
330
17
100
AcDbEntity
  8
0
100
AcDbPoint
 10
28.00170754461863
 20
52.363504251591785
 30
0.0
  0
POINT
  5
391
330
17
100
AcDbEntity
  8
0
100
AcDbPoint
 10
28.273764853127663
 20
52.03580245813457
 30
0.0
  0
POINT
  5
392
330
17
100
AcDbEntity
  8
0
100
AcDbPoint
 10
28.544336153118692
 20
51.706890465192956
 30
0.0
  0
POINT
  5
393
330
17
100
AcDbEntity
  8
0
100
AcDbPoint
 10
28.813418936293917
 20
51.37677742662589
 30
0.0
  0
POINT
  5
394
330
17
100
AcDbEntity
  8
0
100
AcDbPoint
 10
29.081010697827974
 20
51.04547242321059
 30
0.0
  0
POINT
  5
395
330
17
100
AcDbEntity
  8
0
100
AcDbPoint
 10
29.34710906702516
 20
50.71298457569962
 30
0.0
  0
POINT
  5
396
330
17
100
AcDbEntity
  8
0
100
AcDbPoint
 10
29.61171187973087
 20
50.37932308864441
 30
0.0
  0
POINT
  5
397
330
17
100
AcDbEntity
  8
0
100
AcDbPoint
 10
29.874816764252536
 20
50.0444969433003
 30
0.0
  0
POINT
  5
398
330
17
100
AcDbEntity
  8
0
100
AcDbPoint
 10
30.136421788164732
 20
49.70851538184347
 30
0.0
  0
POINT
  5
399
330
17
100
AcDbEntity
  8
0
100
AcDbPoint
 10
30.396526208347154
 20
49.37138846402413
 30
0.0
  0
POINT
  5
39A
330
17
100
AcDbEntity
  8
0
100
AcDbPoint
 10
30.655123776517087
 20
49.03312205150699
 30
0.0
  0
POINT
  5
39B
330
17
100
AcDbEntity
  8
0
100
AcDbPoint
 10
30.912219495650326
 20
48.69373036076422
 30
0.0
  0
POINT
  5
39C
330
17
100
AcDbEntity
  8
0
100
AcDbPoint
 10
31.167819312783042
 20
48.35322823760745
 30
0.0
  0
POINT
  5
39D
330
17
100
AcDbEntity
  8
0
100
AcDbPoint
 10
31.421841548703515
 20
48.01156488253715
 30
0.0
  0
POINT
  5
39E
330
17
100
AcDbEntity
  8
0
100
AcDbPoint
 10
31.674260083077286
 20
47.66873207133791
 30
0.0
  0
POINT
  5
39F
330
17
100
AcDbEntity
  8
0
100
AcDbPoint
 10
31.925118546000753
 20
47.3247740200009
 30
0.0
  0
POINT
  5
3A0
330
17
100
AcDbEntity
  8
0
100
AcDbPoint
 10
32.17445754392447
 20
46.97973121204478
 30
0.0
  0
POINT
  5
3A1
330
17
100
AcDbEntity
  8
0
100
AcDbPoint
 10
32.42228098017499
 20
46.63361659102139
 30
0.0
  0
POINT
  5
3A2
330
17
100
AcDbEntity
  8
0
100
AcDbPoint
 10
32.66858081676391
 20
46.28643421889596
 30
0.0
  0
POINT
  5
3A3
330
17
100
AcDbEntity
  8
0
100
AcDbPoint
 10
32.91335689473677
 20
45.93819393426244
 30
0.0
  0
POINT
  5
3A4
330
17
100
AcDbEntity
  8
0
100
AcDbPoint
 10
33.15661031453984
 20
45.588906208086144
 30
0.0
  0
POINT
  5
3A5
330
17
100
AcDbEntity
  8
0
100
AcDbPoint
 10
33.398329441079895
 20
45.238572865730816
 30
0.0
  0
POINT
  5
3A6
330
17
100
AcDbEntity
  8
0
100
AcDbPoint
 10
33.63851960519041
 20
44.8872071314275
 30
0.0
  0
POINT
  5
3A7
330
17
100
AcDbEntity
  8
0
100
AcDbPoint
 10
33.87721360124654
 20
44.534840657158625
 30
0.0
  0
POINT
  5
3A8
330
17
100
AcDbEntity
  8
0
100
AcDbPoint
 10
34.11423250303759
 20
44.18136252405018
 30
0.0
  0
POINT
  5
3A9
330
17
100
AcDbEntity
  8
0
100
AcDbPoint
 10
34.34953758877596
 20
43.826757294209635
 30
0.0
  0
POINT
  5
3AA
330
17
100
AcDbEntity
  8
0
100
AcDbPoint
 10
34.583319663289174
 20
43.47116479214592
 30
0.0
  0
POINT
  5
3AB
330
17
100
AcDbEntity
  8
0
100
AcDbPoint
 10
34.815559810141096
 20
43.11458166284572
 30
0.0
  0
POINT
  5
3AC
330
17
100
AcDbEntity
  8
0
100
AcDbPoint
 10
35.046240065318464
 20
42.757004962358515
 30
0.0
  0
POINT
  5
3AD
330
17
100
AcDbEntity
  8
0
100
AcDbPoint
 10
35.275364525767266
 20
42.39844713781648
 30
0.0
  0
POINT
  5
3AE
330
17
100
AcDbEntity
  8
0
100
AcDbPoint
 10
35.50291719983927
 20
42.038907317310404
 30
0.0
  0
POINT
  5
3AF
330
17
100
AcDbEntity
  8
0
100
AcDbPoint
 10
35.7289420586091
 20
41.67842195055219
 30
0.0
  0
POINT
  5
3B0
330
17
100
AcDbEntity
  8
0
100
AcDbPoint
 10
35.95332749511508
 20
41.31693100598577
 30
0.0
  0
POINT
  5
3B1
330
17
100
AcDbEntity
  8
0
100
AcDbPoint
 10
36.17588626024718
 20
40.954328106934256
 30
0.0
  0
POINT
  5
3B2
330
17
100
AcDbEntity
  8
0
100
AcDbPoint
 10
36.39682648103866
 20
40.59075390932134
 30
0.0
  0
POINT
  5
3B3
330
17
100
AcDbEntity
  8
0
100
AcDbPoint
 10
36.616212875912765
 20
40.22625824938787
 30
0.0
  0
POINT
  5
3B4
330
17
100
AcDbEntity
  8
0
100
AcDbPoint
 10
36.833988370075176
 20
39.86081477676237
 30
0.0
  0
POINT
  5
3B5
330
17
100
AcDbEntity
  8
0
100
AcDbPoint
 10
37.050150388746786
 20
39.494431716138
 30
0.0
  0
POINT
  5
3B6
330
17
100
AcDbEntity
  8
0
100
AcDbPoint
 10
37.26475160103241
 20
39.127148624259895
 30
0.0
  0
POINT
  5
3B7
330
17
100
AcDbEntity
  8
0
100
AcDbPoint
 10
37.477656080973766
 20
38.75889593010748
 30
0.0
  0
POINT
  5
3B8
330
17
100
AcDbEntity
  8
0
100
AcDbPoint
 10
37.68866619221496
 20
38.38956930309874
 30
0.0
  0
POINT
  5
3B9
330
17
100
AcDbEntity
  8
0
100
AcDbPoint
 10
37.89800057153305
 20
38.01930670280303
 30
0.0
  0
POINT
  5
3BA
330
17
100
AcDbEntity
  8
0
100
AcDbPoint
 10
38.105716584415305
 20
37.64815124502084
 30
0.0
  0
POINT
  5
3BB
330
17
100
AcDbEntity
  8
0
100
AcDbPoint
 10
38.31177599904757
 20
37.27608961214506
 30
0.0
  0
POINT
  5
3BC
330
17
100
AcDbEntity
  8
0
100
AcDbPoint
 10
38.51619244875146
 20
36.90313887083095
 30
0.0
  0
POINT
  5
3BD
330
17
100
AcDbEntity
  8
0
100
AcDbPoint
 10
38.71887856758967
 20
36.52926049352901
 30
0.0
  0
POINT
  5
3BE
330
17
100
AcDbEntity
  8
0
100
AcDbPoint
 10
38.91973605737356
 20
36.154411599059664
 30
0.0
  0
POINT
  5
3BF
330
17
100
AcDbEntity
  8
0
100
AcDbPoint
 10
39.118752223249416
 20
35.778596837429966
 30
0.0
  0
POINT
  5
3C0
330
17
100
AcDbEntity
  8
0
100
AcDbPoint
 10
39.31607019759869
 20
35.40190355788389
 30
0.0
  0
POINT
  5
3C1
330
17
100
AcDbEntity
  8
0
100
AcDbPoint
 10
39.511719617035524
 20
35.02435701836879
 30
0.0
  0
POINT
  5
3C2
330
17
100
AcDbEntity
  8
0
100
AcDbPoint
 10
39.70565751618865
 20
34.64594352324294
 30
0.0
  0
POINT
  5
3C3
330
17
100
AcDbEntity
  8
0
100
AcDbPoint
 10
39.897820074129505
 20
34.26664004418281
 30
0.0
  0
POINT
  5
3C4
330
17
100
AcDbEntity
  8
0
100
AcDbPoint
 10
40.08805476625873
 20
33.88638038578368
 30
0.0
  0
POINT
  5
3C5
330
17
100
AcDbEntity
  8
0
100
AcDbPoint
 10
40.27642041225749
 20
33.50520538490011
 30
0.0
  0
POINT
  5
3C6
330
17
100
AcDbEntity
  8
0
100
AcDbPoint
 10
40.463097293236615
 20
33.12321621574329
 30
0.0
  0
POINT
  5
3C7
330
17
100
AcDbEntity
  8
0
100
AcDbPoint
 10
40.6480671808195
 20
32.74041224992995
 30
0.0
  0
POINT
  5
3C8
330
17
100
AcDbEntity
  8
0
100
AcDbPoint
 10
40.83121715900472
 20
32.35674831669918
 30
0.0
  0
POINT
  5
3C9
330
17
100
AcDbEntity
  8
0
100
AcDbPoint
 10
41.01244688129362
 20
31.972187148479552
 30
0.0
  0
POINT
  5
3CA
330
17
100
AcDbEntity
  8
0
100
AcDbPoint
 10
41.191747940858406
 20
31.586736464269514
 30
0.0
  0
POINT
  5
3CB
330
17
100
AcDbEntity
  8
0
100
AcDbPoint
 10
41.36924529821584
 20
31.200466163851917
 30
0.0
  0
POINT
  5
3CC
330
17
100
AcDbEntity
  8
0
100
AcDbPoint
 10
41.545039429829785
 20
30.813431796371525
 30
0.0
  0
POINT
  5
3CD
330
17
100
AcDbEntity
  8
0
100
AcDbPoint
 10
41.719049226989654
 20
30.42560542305657
 30
0.0
  0
POINT
  5
3CE
330
17
100
AcDbEntity
  8
0
100
AcDbPoint
 10
41.890963894661844
 20
30.03685833391107
 30
0.0
  0
POINT
  5
3CF
330
17
100
AcDbEntity
  8
0
100
AcDbPoint
 10
42.060923983305294
 20
29.64726512852349
 30
0.0
  0
POINT
  5
3D0
330
17
100
AcDbEntity
  8
0
100
AcDbPoint
 10
42.229122802872254
 20
29.25692244893758
 30
0.0
  0
POINT
  5
3D1
330
17
100
AcDbEntity
  8
0
100
AcDbPoint
 10
42.395532829077425
 20
28.86582679683014
 30
0.0
  0
POINT
  5
3D2
330
17
100
AcDbEntity
  8
0
100
AcDbPoint
 10
42.56002110850865
 20
28.473931430504553
 30
0.0
  0
POINT
  5
3D3
330
17
100
AcDbEntity
  8
0
100
AcDbPoint
 10
42.72249024031996
 20
28.081206719285056
 30
0.0
  0
POINT
  5
3D4
330
17
100
AcDbEntity
  8
0
100
AcDbPoint
 10
42.88296940595098
 20
27.687676503369815
 30
0.0
  0
POINT
  5
3D5
330
17
100
AcDbEntity
  8
0
100
AcDbPoint
 10
43.041630973370985
 20
27.293422699266173
 30
0.0
  0
POINT
  5
3D6
330
17
100
AcDbEntity
  8
0
100
AcDbPoint
 10
43.19848528438741
 20
26.89845848508474
 30
0.0
  0
POINT
  5
3D7
330
17
100
AcDbEntity
  8
0
100
AcDbPoint
 10
43.353350166333946
 20
26.50272158915533
 30
0.0
  0
POINT
  5
3D8
330
17
100
AcDbEntity
  8
0
100
AcDbPoint
 10
43.50604957781213
 20
26.10615459479214
 30
0.0
  0
POINT
  5
3D9
330
17
100
AcDbEntity
  8
0
100
AcDbPoint
 10
43.65685239826667
 20
25.708874267601534
 30
0.0
  0
POINT
  5
3DA
330
17
100
AcDbEntity
  8
0
100
AcDbPoint
 10
43.80589844314793
 20
25.310943353979354
 30
0.0
  0
POINT
  5
3DB
330
17
100
AcDbEntity
  8
0
100
AcDbPoint
 10
43.9530237821087
 20
24.91230918943089
 30
0.0
  0
POINT
  5
3DC
330
17
100
AcDbEntity
  8
0
100
AcDbPoint
 10
44.09788708334518
 20
24.51285734874414
 30
0.0
  0
POINT
  5
3DD
330
17
100
AcDbEntity
  8
0
100
AcDbPoint
 10
44.240746035107726
 20
24.11269461810312
 30
0.0
  0
POINT
  5
3DE
330
17
100
AcDbEntity
  8
0
100
AcDbPoint
 10
44.38184627212288
 20
23.71191994908617
 30
0.0
  0
POINT
  5
3DF
330
17
100
AcDbEntity
  8
0
100
AcDbPoint
 10
44.521076542041115
 20
23.310501738252892
 30
0.0
  0
POINT
  5
3E0
330
17
100
AcDbEntity
  8
0
100
AcDbPoint
 10
44.65802555332609
 20
22.908309144048477
 30
0.0
  0
POINT
  5
3E1
330
17
100
AcDbEntity
  8
0
100
AcDbPoint
 10
44.79285696887349
 20
22.505410526711835
 30
0.0
  0
POINT
  5
3E2
330
17
100
AcDbEntity
  8
0
100
AcDbPoint
 10
44.92589159786036
 20
22.101926116344035
 30
0.0
  0
POINT
  5
3E3
330
17
100
AcDbEntity
  8
0
100
AcDbPoint
 10
45.05705226532835
 20
21.697837660767625
 30
0.0
  0
POINT
  5
3E4
330
17
100
AcDbEntity
  8
0
100
AcDbPoint
 10
45.18595638354931
 20
21.293032879253193
 30
0.0
  0
POINT
  5
3E5
330
17
100
AcDbEntity
  8
0
100
AcDbPoint
 10
45.312647929056254
 20
20.8875378118999
 30
0.0
  0
POINT
  5
3E6
330
17
100
AcDbEntity
  8
0
100
AcDbPoint
 10
45.43748319141622
 20
20.48147748758715
 30
0.0
  0
POINT
  5
3E7
330
17
100
AcDbEntity
  8
0
100
AcDbPoint
 10
45.56037757444657
 20
20.074833893416915
 30
0.0
  0
POINT
  5
3E8
330
17
100
AcDbEntity
  8
0
100
AcDbPoint
 10
45.68103596463951
 20
19.66752955356234
 30
0.0
  0
POINT
  5
3E9
330
17
100
AcDbEntity
  8
0
100
AcDbPoint
 10
45.79942470170001
 20
19.259566641178832
 30
0.0
  0
POINT
  5
3EA
330
17
100
AcDbEntity
  8
0
100
AcDbPoint
 10
45.91588884877676
 20
18.8510586890021
 30
0.0
  0
POINT
  5
3EB
330
17
100
AcDbEntity
  8
0
100
AcDbPoint
 10
46.03030023371037
 20
18.44197898247811
 30
0.0
  0
POINT
  5
3EC
330
17
100
AcDbEntity
  8
0
100
AcDbPoint
 10
46.1424443258583
 20
18.032279002517903
 30
0.0
  0
POINT
  5
3ED
330
17
100
AcDbEntity
  8
0
100
AcDbPoint
 10
46.25231060486306
 20
17.621968961071342
 30
0.0
  0
POINT
  5
3EE
330
17
100
AcDbEntity
  8
0
100
AcDbPoint
 10
46.36019195446937
 20
17.211139367566958
 30
0.0
  0
POINT
  5
3EF
330
17
100
AcDbEntity
  8
0
100
AcDbPoint
 10
46.46589769107323
 20
16.79975210004747
 30
0.0
  0
POINT
  5
3F0
330
17
100
AcDbEntity
  8
0
100
AcDbPoint
 10
46.56922050810901
 20
16.387765563846063
 30
0.0
  0
POINT
  5
3F1
330
17
100
AcDbEntity
  8
0
100
AcDbPoint
 10
46.67029796166234
 20
15.975228924949164
 30
0.0
  0
POINT
  5
3F2
330
17
100
AcDbEntity
  8
0
100
AcDbPoint
 10
46.76936374227824
 20
15.562209811235807
 30
0.0
  0
POINT
  5
3F3
330
17
100
AcDbEntity
  8
0
100
AcDbPoint
 10
46.86614571653959
 20
15.148656434739207
 30
0.0
  0
POINT
  5
3F4
330
17
100
AcDbEntity
  8
0
100
AcDbPoint
 10
46.96033474025336
 20
14.73450910086086
 30
0.0
  0
POINT
  5
3F5
330
17
100
AcDbEntity
  8
0
100
AcDbPoint
 10
47.052345440010996
 20
14.319878098462404
 30
0.0
  0
POINT
  5
3F6
330
17
100
AcDbEntity
  8
0
100
AcDbPoint
 10
47.14223204560574
 20
13.904786945879039
 30
0.0
  0
POINT
  5
3F7
330
17
100
AcDbEntity
  8
0
100
AcDbPoint
 10
47.22973306875473
 20
13.489191332900711
 30
0.0
  0
POINT
  5
3F8
330
17
100
AcDbEntity
  8
0
100
AcDbPoint
 10
47.31462720777486
 20
13.073059647814002
 30
0.0
  0
POINT
  5
3F9
330
17
100
AcDbEntity
  8
0
100
AcDbPoint
 10
47.39730977240171
 20
12.6564867366695
 30
0.0
  0
POINT
  5
3FA
330
17
100
AcDbEntity
  8
0
100
AcDbPoint
 10
47.47771070596394
 20
12.239473093731918
 30
0.0
  0
POINT
  5
3FB
330
17
100
AcDbEntity
  8
0
100
AcDbPoint
 10
47.55551952447537
 20
11.821971414882864
 30
0.0
  0
POINT
  5
3FC
330
17
100
AcDbEntity
  8
0
100
AcDbPoint
 10
47.63081444973555
 20
11.404013350489683
 30
0.0
  0
POINT
  5
3FD
330
17
100
AcDbEntity
  8
0
100
AcDbPoint
 10
47.70388520889686
 20
10.985663119491736
 30
0.0
  0
POINT
  5
3FE
330
17
100
AcDbEntity
  8
0
100
AcDbPoint
 10
47.77453278036057
 20
10.566901642749926
 30
0.0
  0
POINT
  5
3FF
330
17
100
AcDbEntity
  8
0
100
AcDbPoint
 10
47.842271222563554
 20
10.14766229021609
 30
0.0
  0
POINT
  5
400
330
17
100
AcDbEntity
  8
0
100
AcDbPoint
 10
47.90760405712195
 20
9.728044021466323
 30
0.0
  0
POINT
  5
401
330
17
100
AcDbEntity
  8
0
100
AcDbPoint
 10
47.97060059844056
 20
9.308072927266151
 30
0.0
  0
POINT
  5
402
330
17
100
AcDbEntity
  8
0
100
AcDbPoint
 10
48.03095573789714
 20
8.887716463096426
 30
0.0
  0
POINT
  5
403
330
17
100
AcDbEntity
  8
0
100
AcDbPoint
 10
48.08851875162845
 20
8.466971448392883
 30
0.0
  0
POINT
  5
404
330
17
100
AcDbEntity
  8
0
100
AcDbPoint
 10
48.143657999586694
 20
8.04590287662079
 30
0.0
  0
POINT
  5
405
330
17
100
AcDbEntity
  8
0
100
AcDbPoint
 10
48.196290871844724
 20
7.6245176616062444
 30
0.0
  0
POINT
  5
406
330
17
100
AcDbEntity
  8
0
100
AcDbPoint
 10
48.24597336563414
 20
7.202775891966673
 30
0.0
  0
POINT
  5
407
330
17
100
AcDbEntity
  8
0
100
AcDbPoint
 10
48.29301689825024
 20
6.78073353470921
 30
0.0
  0
POINT
  5
408
330
17
100
AcDbEntity
  8
0
100
AcDbPoint
 10
48.337582830937265
 20
6.358424217209357
 30
0.0
  0
POINT
  5
409
330
17
100
AcDbEntity
  8
0
100
AcDbPoint
 10
48.379462148961764
 20
5.935841993664967
 30
0.0
  0
POINT
  5
40A
330
17
100
AcDbEntity
  8
0
100
AcDbPoint
 10
48.41829480513528
 20
5.512970665194553
 30
0.0
  0
POINT
  5
40B
330
17
100
AcDbEntity
  8
0
100
AcDbPoint
 10
48.454530150811735
 20
5.089868610837581
 30
0.0
  0
POINT
  5
40C
330
17
100
AcDbEntity
  8
0
100
AcDbPoint
 10
48.48816760107414
 20
4.666555386856015
 30
0.0
  0
POINT
  5
40D
330
17
100
AcDbEntity
  8
0
100
AcDbPoint
 10
48.518778997324375
 20
4.243013077268135
 30
0.0
  0
POINT
  5
40E
330
17
100
AcDbEntity
  8
0
100
AcDbPoint
 10
48.54652261228812
 20
3.819274636803881
 30
0.0
  0
POINT
  5
40F
330
17
100
AcDbEntity
  8
0
100
AcDbPoint
 10
48.571657791486935
 20
3.3953732365768743
 30
0.0
  0
POINT
  5
410
330
17
100
AcDbEntity
  8
0
100
AcDbPoint
 10
48.59401868888327
 20
2.971318151468961
 30
0.0
  0
POINT
  5
411
330
17
100
AcDbEntity
  8
0
100
AcDbPoint
 10
48.61307483459138
 20
2.547102539517587
 30
0.0
  0
POINT
  5
412
330
17
100
AcDbEntity
  8
0
100
AcDbPoint
 10
48.629369376157854
 20
2.122770664990092
 30
0.0
  0
POINT
  5
413
330
17
100
AcDbEntity
  8
0
100
AcDbPoint
 10
48.64295343305257
 20
1.6983462572639418
 30
0.0
  0
POINT
  5
414
330
17
100
AcDbEntity
  8
0
100
AcDbPoint
 10
48.65341191505409
 20
1.27383297569444
 30
0.0
  0
POINT
  5
415
330
17
100
AcDbEntity
  8
0
100
AcDbPoint
 10
48.66082072911981
 20
0.8492557768425368
 30
0.0
  0
POINT
  5
416
330
17
100
AcDbEntity
  8
0
100
AcDbPoint
 10
48.66535460872626
 20
0.4246378553499136
 30
0.0
  0
POINT
  5
417
330
17
100
AcDbEntity
  8
0
100
AcDbPoint
 10
48.6672
 20
0.0
 30
0.0
  0
ENDSEC
  0
SECTION
  2
OBJECTS
  0
DICTIONARY
  5
A
330
0
100
AcDbDictionary
280
0
281
1
  3
ACAD_COLOR
350
B
  3
ACAD_GROUP
350
C
  3
ACAD_LAYOUT
350
D
  3
ACAD_MATERIAL
350
E
  3
ACAD_MLEADERSTYLE
350
F
  3
ACAD_MLINESTYLE
350
10
  3
ACAD_PLOTSETTINGS
350
11
  3
ACAD_PLOTSTYLENAME
350
12
  3
ACAD_SCALELIST
350
14
  3
ACAD_TABLESTYLE
350
15
  3
ACAD_VISUALSTYLE
350
16
  3
EZDXF_META
350
2D
  0
DICTIONARY
  5
B
330
A
100
AcDbDictionary
280
0
281
1
  0
DICTIONARY
  5
C
330
A
100
AcDbDictionary
280
0
281
1
  0
DICTIONARY
  5
D
330
A
100
AcDbDictionary
280
0
281
1
  3
Model
350
1A
  3
Layout1
350
1E
  0
DICTIONARY
  5
E
330
A
100
AcDbDictionary
280
0
281
1
  3
ByBlock
350
1F
  3
ByLayer
350
20
  3
Global
350
21
  0
DICTIONARY
  5
F
330
A
100
AcDbDictionary
280
0
281
1
  3
Standard
350
2C
  0
DICTIONARY
  5
10
330
A
100
AcDbDictionary
280
0
281
1
  3
Standard
350
22
  0
DICTIONARY
  5
11
330
A
100
AcDbDictionary
280
0
281
1
  0
ACDBDICTIONARYWDFLT
  5
12
330
A
100
AcDbDictionary
280
0
281
1
  3
Normal
350
13
100
AcDbDictionaryWithDefault
340
13
  0
ACDBPLACEHOLDER
  5
13
330
12
  0
DICTIONARY
  5
14
330
A
100
AcDbDictionary
280
0
281
1
  0
DICTIONARY
  5
15
330
A
100
AcDbDictionary
280
0
281
1
  0
DICTIONARY
  5
16
330
A
100
AcDbDictionary
280
0
281
1
  0
LAYOUT
  5
1A
330
D
100
AcDbPlotSettings
  1

  4
A3
  6

 40
7.5
 41
20.0
 42
7.5
 43
20.0
 44
420.0
 45
297.0
 46
0.0
 47
0.0
 48
0.0
 49
0.0
140
0.0
141
0.0
142
1.0
143
1.0
 70
1024
 72
1
 73
0
 74
5
  7

 75
16
 76
0
 77
2
 78
300
147
1.0
148
0.0
149
0.0
100
AcDbLayout
  1
Model
 70
1
 71
0
 10
0.0
 20
0.0
 11
420.0
 21
297.0
 12
0.0
 22
0.0
 32
0.0
 14
1e+20
 24
1e+20
 34
1e+20
 15
-1e+20
 25
-1e+20
 35
-1e+20
146
0.0
 13
0.0
 23
0.0
 33
0.0
 16
1.0
 26
0.0
 36
0.0
 17
0.0
 27
1.0
 37
0.0
 76
1
330
17
  0
LAYOUT
  5
1E
330
D
100
AcDbPlotSettings
  1

  4
A3
  6

 40
7.5
 41
20.0
 42
7.5
 43
20.0
 44
420.0
 45
297.0
 46
0.0
 47
0.0
 48
0.0
 49
0.0
140
0.0
141
0.0
142
1.0
143
1.0
 70
0
 72
1
 73
0
 74
5
  7

 75
16
 76
0
 77
2
 78
300
147
1.0
148
0.0
149
0.0
100
AcDbLayout
  1
Layout1
 70
1
 71
1
 10
0.0
 20
0.0
 11
420.0
 21
297.0
 12
0.0
 22
0.0
 32
0.0
 14
1e+20
 24
1e+20
 34
1e+20
 15
-1e+20
 25
-1e+20
 35
-1e+20
146
0.0
 13
0.0
 23
0.0
 33
0.0
 16
1.0
 26
0.0
 36
0.0
 17
0.0
 27
1.0
 37
0.0
 76
1
330
1B
  0
MATERIAL
  5
1F
102
{ACAD_REACTORS
330
E
102
}
330
E
100
AcDbMaterial
  1
ByBlock
  2

 70
0
 40
1.0
 71
1
 41
1.0
 91
-1023410177
 42
1.0
 72
1
  3

 73
1
 74
1
 75
1
 44
0.5
 73
0
 45
1.0
 46
1.0
 77
1
  4

 78
1
 79
1
170
1
 48
1.0
171
1
  6

172
1
173
1
174
1
140
1.0
141
1.0
175
1
  7

176
1
177
1
178
1
143
1.0
179
1
  8

270
1
271
1
272
1
145
1.0
146
1.0
273
1
  9

274
1
275
1
276
1
 42
1.0
 72
1
  3

 73
1
 74
1
 75
1
 94
63
  0
MATERIAL
  5
20
102
{ACAD_REACTORS
330
E
102
}
330
E
100
AcDbMaterial
  1
ByLayer
  2

 70
0
 40
1.0
 71
1
 41
1.0
 91
-1023410177
 42
1.0
 72
1
  3

 73
1
 74
1
 75
1
 44
0.5
 73
0
 45
1.0
 46
1.0
 77
1
  4

 78
1
 79
1
170
1
 48
1.0
171
1
  6

172
1
173
1
174
1
140
1.0
141
1.0
175
1
  7

176
1
177
1
178
1
143
1.0
179
1
  8

270
1
271
1
272
1
145
1.0
146
1.0
273
1
  9

274
1
275
1
276
1
 42
1.0
 72
1
  3

 73
1
 74
1
 75
1
 94
63
  0
MATERIAL
  5
21
102
{ACAD_REACTORS
330
E
102
}
330
E
100
AcDbMaterial
  1
Global
  2

 70
0
 40
1.0
 71
1
 41
1.0
 91
-1023410177
 42
1.0
 72
1
  3

 73
1
 74
1
 75
1
 44
0.5
 73
0
 45
1.0
 46
1.0
 77
1
  4

 78
1
 79
1
170
1
 48
1.0
171
1
  6

172
1
173
1
174
1
140
1.0
141
1.0
175
1
  7

176
1
177
1
178
1
143
1.0
179
1
  8

270
1
271
1
272
1
145
1.0
146
1.0
273
1
  9

274
1
275
1
276
1
 42
1.0
 72
1
  3

 73
1
 74
1
 75
1
 94
63
  0
MLINESTYLE
  5
22
102
{ACAD_REACTORS
330
10
102
}
330
10
100
AcDbMlineStyle
  2
Standard
 70
0
  3

 62
256
 51
90.0
 52
90.0
 71
2
 49
0.5
 62
256
  6
BYLAYER
 49
-0.5
 62
256
  6
BYLAYER
  0
MLEADERSTYLE
  5
2C
102
{ACAD_REACTORS
330
F
102
}
330
F
100
AcDbMLeaderStyle
179
2
170
2
171
1
172
0
 90
2
 40
0.0
 41
0.0
173
1
 91
-1056964608
 92
-2
290
1
 42
2.0
291
1
 43
8.0
  3
Standard
 44
4.0
300

342
29
174
1
175
1
176
0
178
1
 93
-1056964608
 45
4.0
292
0
297
0
 46
4.0
 94
-1056964608
 47
1.0
 49
1.0
140
1.0
294
1
141
0.0
177
0
142
1.0
295
0
296
0
143
3.75
271
0
272
9
273
9
  0
DICTIONARY
  5
2D
330
A
100
AcDbDictionary
281
1
  3
CREATED_BY_EZDXF
350
2E
  3
WRITTEN_BY_EZDXF
350
41A
  0
DICTIONARYVAR
  5
2E
330
2D
100
DictionaryVariables
280
0
  1
1.3.2 @ 2025-04-10T01:14:32.270789+00:00
  0
DICTIONARYVAR
  5
41A
330
2D
100
DictionaryVariables
280
0
  1
1.3.2 @ 2025-04-10T01:14:32.285606+00:00
  0
ENDSEC
  0
EOF
