  0
SECTION
  2
HEADER
  9
$ACADVER
  1
AC1015
  9
$ACADMAINTVER
 70
6
  9
$DWGCODEPAGE
  3
ANSI_1252
  9
$INSBASE
 10
0.0
 20
0.0
 30
0.0
  9
$EXTMIN
 10
1e+20
 20
1e+20
 30
1e+20
  9
$EXTMAX
 10
-1e+20
 20
-1e+20
 30
-1e+20
  9
$LIMMIN
 10
0.0
 20
0.0
  9
$LIMMAX
 10
420.0
 20
297.0
  9
$ORTHOMODE
 70
0
  9
$REGENMODE
 70
1
  9
$FILLMODE
 70
1
  9
$QTEXTMODE
 70
0
  9
$MIRRTEXT
 70
1
  9
$LTSCALE
 40
1.0
  9
$ATTMODE
 70
1
  9
$TEXTSIZE
 40
2.5
  9
$TRACEWID
 40
1.0
  9
$TEXTSTYLE
  7
Standard
  9
$CLAYER
  8
0
  9
$CELTYPE
  6
ByLayer
  9
$CECOLOR
 62
256
  9
$CELTSCALE
 40
1.0
  9
$DISPSILH
 70
0
  9
$DIMSCALE
 40
1.0
  9
$DIMASZ
 40
2.5
  9
$DIMEXO
 40
0.625
  9
$DIMDLI
 40
3.75
  9
$DIMRND
 40
0.0
  9
$DIMDLE
 40
0.0
  9
$DIMEXE
 40
1.25
  9
$DIMTP
 40
0.0
  9
$DIMTM
 40
0.0
  9
$DIMTXT
 40
2.5
  9
$DIMCEN
 40
2.5
  9
$DIMTSZ
 40
0.0
  9
$DIMTOL
 70
0
  9
$DIMLIM
 70
0
  9
$DIMTIH
 70
0
  9
$DIMTOH
 70
0
  9
$DIMSE1
 70
0
  9
$DIMSE2
 70
0
  9
$DIMTAD
 70
1
  9
$DIMZIN
 70
8
  9
$DIMBLK
  1

  9
$DIMASO
 70
1
  9
$DIMSHO
 70
1
  9
$DIMPOST
  1

  9
$DIMAPOST
  1

  9
$DIMALT
 70
0
  9
$DIMALTD
 70
3
  9
$DIMALTF
 40
0.03937007874
  9
$DIMLFAC
 40
1.0
  9
$DIMTOFL
 70
1
  9
$DIMTVP
 40
0.0
  9
$DIMTIX
 70
0
  9
$DIMSOXD
 70
0
  9
$DIMSAH
 70
0
  9
$DIMBLK1
  1

  9
$DIMBLK2
  1

  9
$DIMSTYLE
  2
ISO-25
  9
$DIMCLRD
 70
0
  9
$DIMCLRE
 70
0
  9
$DIMCLRT
 70
0
  9
$DIMTFAC
 40
1.0
  9
$DIMGAP
 40
0.625
  9
$DIMJUST
 70
0
  9
$DIMSD1
 70
0
  9
$DIMSD2
 70
0
  9
$DIMTOLJ
 70
0
  9
$DIMTZIN
 70
8
  9
$DIMALTZ
 70
0
  9
$DIMALTTZ
 70
0
  9
$DIMUPT
 70
0
  9
$DIMDEC
 70
2
  9
$DIMTDEC
 70
2
  9
$DIMALTU
 70
2
  9
$DIMALTTD
 70
3
  9
$DIMTXSTY
  7
Standard
  9
$DIMAUNIT
 70
0
  9
$DIMADEC
 70
0
  9
$DIMALTRND
 40
0.0
  9
$DIMAZIN
 70
0
  9
$DIMDSEP
 70
44
  9
$DIMATFIT
 70
3
  9
$DIMFRAC
 70
0
  9
$DIMLDRBLK
  1

  9
$DIMLUNIT
 70
2
  9
$DIMLWD
 70
-2
  9
$DIMLWE
 70
-2
  9
$DIMTMOVE
 70
0
  9
$LUNITS
 70
2
  9
$LUPREC
 70
4
  9
$SKETCHINC
 40
1.0
  9
$FILLETRAD
 40
10.0
  9
$AUNITS
 70
0
  9
$AUPREC
 70
2
  9
$MENU
  1
.
  9
$ELEVATION
 40
0.0
  9
$PELEVATION
 40
0.0
  9
$THICKNESS
 40
0.0
  9
$LIMCHECK
 70
0
  9
$CHAMFERA
 40
0.0
  9
$CHAMFERB
 40
0.0
  9
$CHAMFERC
 40
0.0
  9
$CHAMFERD
 40
0.0
  9
$SKPOLY
 70
0
  9
$TDCREATE
 40
2460916.5728125
  9
$TDUCREATE
 40
2458532.153996898
  9
$TDUPDATE
 40
2460916.5728125
  9
$TDUUPDATE
 40
2458532.1544311
  9
$TDINDWG
 40
0.0
  9
$TDUSRTIMER
 40
0.0
  9
$USRTIMER
 70
1
  9
$ANGBASE
 50
0.0
  9
$ANGDIR
 70
0
  9
$PDMODE
 70
0
  9
$PDSIZE
 40
0.0
  9
$PLINEWID
 40
0.0
  9
$SPLFRAME
 70
0
  9
$SPLINETYPE
 70
6
  9
$SPLINESEGS
 70
8
  9
$HANDSEED
  5
33
  9
$SURFTAB1
 70
6
  9
$SURFTAB2
 70
6
  9
$SURFTYPE
 70
6
  9
$SURFU
 70
6
  9
$SURFV
 70
6
  9
$UCSBASE
  2

  9
$UCSNAME
  2

  9
$UCSORG
 10
0.0
 20
0.0
 30
0.0
  9
$UCSXDIR
 10
1.0
 20
0.0
 30
0.0
  9
$UCSYDIR
 10
0.0
 20
1.0
 30
0.0
  9
$UCSORTHOREF
  2

  9
$UCSORTHOVIEW
 70
0
  9
$UCSORGTOP
 10
0.0
 20
0.0
 30
0.0
  9
$UCSORGBOTTOM
 10
0.0
 20
0.0
 30
0.0
  9
$UCSORGLEFT
 10
0.0
 20
0.0
 30
0.0
  9
$UCSORGRIGHT
 10
0.0
 20
0.0
 30
0.0
  9
$UCSORGFRONT
 10
0.0
 20
0.0
 30
0.0
  9
$UCSORGBACK
 10
0.0
 20
0.0
 30
0.0
  9
$PUCSBASE
  2

  9
$PUCSNAME
  2

  9
$PUCSORG
 10
0.0
 20
0.0
 30
0.0
  9
$PUCSXDIR
 10
1.0
 20
0.0
 30
0.0
  9
$PUCSYDIR
 10
0.0
 20
1.0
 30
0.0
  9
$PUCSORTHOREF
  2

  9
$PUCSORTHOVIEW
 70
0
  9
$PUCSORGTOP
 10
0.0
 20
0.0
 30
0.0
  9
$PUCSORGBOTTOM
 10
0.0
 20
0.0
 30
0.0
  9
$PUCSORGLEFT
 10
0.0
 20
0.0
 30
0.0
  9
$PUCSORGRIGHT
 10
0.0
 20
0.0
 30
0.0
  9
$PUCSORGFRONT
 10
0.0
 20
0.0
 30
0.0
  9
$PUCSORGBACK
 10
0.0
 20
0.0
 30
0.0
  9
$USERI1
 70
0
  9
$USERI2
 70
0
  9
$USERI3
 70
0
  9
$USERI4
 70
0
  9
$USERI5
 70
0
  9
$USERR1
 40
0.0
  9
$USERR2
 40
0.0
  9
$USERR3
 40
0.0
  9
$USERR4
 40
0.0
  9
$USERR5
 40
0.0
  9
$WORLDVIEW
 70
1
  9
$SHADEDGE
 70
3
  9
$SHADEDIF
 70
70
  9
$TILEMODE
 70
1
  9
$MAXACTVP
 70
64
  9
$PINSBASE
 10
0.0
 20
0.0
 30
0.0
  9
$PLIMCHECK
 70
0
  9
$PEXTMIN
 10
1e+20
 20
1e+20
 30
1e+20
  9
$PEXTMAX
 10
-1e+20
 20
-1e+20
 30
-1e+20
  9
$PLIMMIN
 10
0.0
 20
0.0
  9
$PLIMMAX
 10
420.0
 20
297.0
  9
$UNITMODE
 70
0
  9
$VISRETAIN
 70
1
  9
$PLINEGEN
 70
0
  9
$PSLTSCALE
 70
1
  9
$TREEDEPTH
 70
3020
  9
$CMLSTYLE
  2
Standard
  9
$CMLJUST
 70
0
  9
$CMLSCALE
 40
20.0
  9
$PROXYGRAPHICS
 70
1
  9
$MEASUREMENT
 70
1
  9
$CELWEIGHT
370
-1
  9
$ENDCAPS
280
0
  9
$JOINSTYLE
280
0
  9
$LWDISPLAY
290
0
  9
$INSUNITS
 70
6
  9
$HYPERLINKBASE
  1

  9
$STYLESHEET
  1

  9
$XEDIT
290
1
  9
$CEPSNTYPE
380
0
  9
$PSTYLEMODE
290
1
  9
$FINGERPRINTGUID
  2
{A2DA30D1-BEFE-4DB3-9C28-F1E9D39EC408}
  9
$VERSIONGUID
  2
{EE471E4C-E732-4C36-A383-BB49DD6D55E8}
  9
$EXTNAMES
290
1
  9
$PSVPSCALE
 40
0.0
  9
$OLESTARTUP
290
0
  0
ENDSEC
  0
SECTION
  2
CLASSES
  0
CLASS
  1
ACDBDICTIONARYWDFLT
  2
AcDbDictionaryWithDefault
  3
ObjectDBX Classes
 90
0
280
0
281
0
  0
CLASS
  1
SUN
  2
AcDbSun
  3
SCENEOE
 90
1153
280
0
281
0
  0
CLASS
  1
VISUALSTYLE
  2
AcDbVisualStyle
  3
ObjectDBX Classes
 90
4095
280
0
281
0
  0
CLASS
  1
MATERIAL
  2
AcDbMaterial
  3
ObjectDBX Classes
 90
1153
280
0
281
0
  0
CLASS
  1
SCALE
  2
AcDbScale
  3
ObjectDBX Classes
 90
1153
280
0
281
0
  0
CLASS
  1
TABLESTYLE
  2
AcDbTableStyle
  3
ObjectDBX Classes
 90
4095
280
0
281
0
  0
CLASS
  1
MLEADERSTYLE
  2
AcDbMLeaderStyle
  3
ACDB_MLEADERSTYLE_CLASS
 90
4095
280
0
281
0
  0
CLASS
  1
DICTIONARYVAR
  2
AcDbDictionaryVar
  3
ObjectDBX Classes
 90
0
280
0
281
0
  0
CLASS
  1
CELLSTYLEMAP
  2
AcDbCellStyleMap
  3
ObjectDBX Classes
 90
1152
280
0
281
0
  0
CLASS
  1
MENTALRAYRENDERSETTINGS
  2
AcDbMentalRayRenderSettings
  3
SCENEOE
 90
1024
280
0
281
0
  0
CLASS
  1
ACDBDETAILVIEWSTYLE
  2
AcDbDetailViewStyle
  3
ObjectDBX Classes
 90
1025
280
0
281
0
  0
CLASS
  1
ACDBSECTIONVIEWSTYLE
  2
AcDbSectionViewStyle
  3
ObjectDBX Classes
 90
1025
280
0
281
0
  0
CLASS
  1
RASTERVARIABLES
  2
AcDbRasterVariables
  3
ISM
 90
0
280
0
281
0
  0
CLASS
  1
ACDBPLACEHOLDER
  2
AcDbPlaceHolder
  3
ObjectDBX Classes
 90
0
280
0
281
0
  0
CLASS
  1
LAYOUT
  2
AcDbLayout
  3
ObjectDBX Classes
 90
0
280
0
281
0
  0
ENDSEC
  0
SECTION
  2
TABLES
  0
TABLE
  2
VPORT
  5
8
330
0
100
AcDbSymbolTable
 70
1
  0
VPORT
  5
23
330
8
100
AcDbSymbolTableRecord
100
AcDbViewportTableRecord
  2
*Active
 70
0
 10
0.0
 20
0.0
 11
1.0
 21
1.0
 12
0.0
 22
0.0
 13
0.0
 23
0.0
 14
0.5
 24
0.5
 15
0.5
 25
0.5
 16
0.0
 26
0.0
 36
1.0
 17
0.0
 27
0.0
 37
0.0
 40
1000.0
 41
1.34
 42
50.0
 43
0.0
 44
0.0
 50
0.0
 51
0.0
 71
0
 72
1000
 73
1
 74
3
 75
0
 76
0
 77
0
 78
0
281
0
 65
0
146
0.0
  0
ENDTAB
  0
TABLE
  2
LTYPE
  5
2
330
0
100
AcDbSymbolTable
 70
3
  0
LTYPE
  5
24
330
2
100
AcDbSymbolTableRecord
100
AcDbLinetypeTableRecord
  2
ByBlock
 70
0
  3

 72
65
 73
0
 40
0.0
  0
LTYPE
  5
25
330
2
100
AcDbSymbolTableRecord
100
AcDbLinetypeTableRecord
  2
ByLayer
 70
0
  3

 72
65
 73
0
 40
0.0
  0
LTYPE
  5
26
330
2
100
AcDbSymbolTableRecord
100
AcDbLinetypeTableRecord
  2
Continuous
 70
0
  3

 72
65
 73
0
 40
0.0
  0
ENDTAB
  0
TABLE
  2
LAYER
  5
1
330
0
100
AcDbSymbolTable
 70
2
  0
LAYER
  5
27
330
1
100
AcDbSymbolTableRecord
100
AcDbLayerTableRecord
  2
0
 70
0
 62
7
  6
Continuous
370
-3
390
13
  0
LAYER
  5
28
330
1
100
AcDbSymbolTableRecord
100
AcDbLayerTableRecord
  2
Defpoints
 70
0
 62
7
  6
Continuous
290
0
370
-3
390
13
  0
ENDTAB
  0
TABLE
  2
STYLE
  5
5
330
0
100
AcDbSymbolTable
 70
1
  0
STYLE
  5
29
330
5
100
AcDbSymbolTableRecord
100
AcDbTextStyleTableRecord
  2
Standard
 70
0
 40
0.0
 41
1.0
 50
0.0
 71
0
 42
2.5
  3
txt
  4

  0
ENDTAB
  0
TABLE
  2
VIEW
  5
7
330
0
100
AcDbSymbolTable
 70
0
  0
ENDTAB
  0
TABLE
  2
UCS
  5
6
330
0
100
AcDbSymbolTable
 70
0
  0
ENDTAB
  0
TABLE
  2
APPID
  5
3
330
0
100
AcDbSymbolTable
 70
3
  0
APPID
  5
2A
330
3
100
AcDbSymbolTableRecord
100
AcDbRegAppTableRecord
  2
ACAD
 70
0
  0
APPID
  5
30
330
3
100
AcDbSymbolTableRecord
100
AcDbRegAppTableRecord
  2
HATCHBACKGROUNDCOLOR
 70
0
  0
APPID
  5
31
330
3
100
AcDbSymbolTableRecord
100
AcDbRegAppTableRecord
  2
EZDXF
 70
0
  0
ENDTAB
  0
TABLE
  2
DIMSTYLE
  5
4
330
0
100
AcDbSymbolTable
 70
1
100
AcDbDimStyleTable
  0
DIMSTYLE
105
2B
330
4
100
AcDbSymbolTableRecord
100
AcDbDimStyleTableRecord
  2
Standard
 70
0
  3

  4

 40
1.0
 41
2.5
 42
0.625
 43
3.75
 44
1.25
 45
0.0
 46
0.0
 47
0.0
 48
0.0
140
2.5
141
2.5
142
0.0
143
0.03937007874
144
1.0
145
0.0
146
1.0
147
0.625
148
0.0
 71
0
 72
0
 73
0
 74
0
 75
0
 76
0
 77
1
 78
8
 79
3
170
0
171
3
172
1
173
0
174
0
175
0
176
0
177
0
178
0
179
2
271
2
272
2
273
2
274
3
275
0
276
0
277
2
278
44
279
0
280
0
281
0
282
0
283
0
284
8
285
0
286
0
288
0
289
3
371
-2
372
-2
  0
ENDTAB
  0
TABLE
  2
BLOCK_RECORD
  5
9
330
0
100
AcDbSymbolTable
 70
2
  0
BLOCK_RECORD
  5
17
330
9
100
AcDbSymbolTableRecord
100
AcDbBlockTableRecord
  2
*Model_Space
340
1A
  0
BLOCK_RECORD
  5
1B
330
9
100
AcDbSymbolTableRecord
100
AcDbBlockTableRecord
  2
*Paper_Space
340
1E
  0
ENDTAB
  0
ENDSEC
  0
SECTION
  2
BLOCKS
  0
BLOCK
  5
18
330
17
100
AcDbEntity
  8
0
100
AcDbBlockBegin
  2
*Model_Space
 70
0
 10
0.0
 20
0.0
 30
0.0
  3
*Model_Space
  1

  0
ENDBLK
  5
19
330
17
100
AcDbEntity
  8
0
100
AcDbBlockEnd
  0
BLOCK
  5
1C
330
1B
100
AcDbEntity
  8
0
100
AcDbBlockBegin
  2
*Paper_Space
 70
0
 10
0.0
 20
0.0
 30
0.0
  3
*Paper_Space
  1

  0
ENDBLK
  5
1D
330
1B
100
AcDbEntity
  8
0
100
AcDbBlockEnd
  0
ENDSEC
  0
SECTION
  2
ENTITIES
  0
LWPOLYLINE
  5
2F
330
17
100
AcDbEntity
  8
0
100
AcDbPolyline
 90
720
 70
1
 10
49.043
 20
0.0
 10
49.04203255856691
 20
-0.4279833343286868
 10
49.04022979772213
 20
-0.8560003952139529
 10
49.03689052215349
 20
-1.284076169209937
 10
49.0332120851206
 20
-1.712277496664468
 10
49.02789185484104
 20
-2.140603987198928
 10
49.02252413519508
 20
-2.56916162477489
 10
49.01550535958246
 20
-2.99791673579217
 10
49.00792763554454
 20
-3.426968139511906
 10
48.99908510338348
 20
-3.856311630481006
 10
48.98936857070872
 20
-4.286014383230219
 10
48.97856948027687
 20
-4.716099837332898
 10
48.96657839692092
 20
-5.146594775985164
 10
48.95388147229887
 20
-5.57759026427304
 10
48.94006862666966
 20
-6.009084836883638
 10
48.92473042972728
 20
-6.441062954863669
 10
48.90785451304304
 20
-6.873550696766213
 10
48.891010189433
 20
-7.306810429781166
 10
48.8723006251583
 20
-7.740611981888194
 10
48.85240252966169
 20
-8.175088499209313
 10
48.83129851000913
 20
-8.610275430343677
 10
48.80926523892848
 20
-9.046262603192964
 10
48.78539857657373
 20
-9.482920856721204
 10
48.76115129440294
 20
-9.920568353393183
 10
48.73551950324135
 20
-10.35905445681131
 10
48.70857935042202
 20
-10.79843206690868
 10
48.68030793272217
 20
-11.23873463586299
 10
48.65048699026492
 20
-11.67994854526612
 10
48.61967528181026
 20
-12.12224653689772
 10
48.58745748001571
 20
-12.56557088347622
 10
48.55371054715945
 20
-13.00992753064586
 10
48.51821514078225
 20
-13.4552918925146
 10
48.48152201315789
 20
-13.90185273183709
 10
48.44312063856012
 20
-14.34950607121758
 10
48.40346085354463
 20
-14.79842307171181
 10
48.36222359888198
 20
-15.24855052822208
 10
48.31909204993669
 20
-15.69982471111528
 10
48.27365700934741
 20
-16.15213969057607
 10
48.22844419302459
 20
-16.60638508165797
 10
48.18066894929986
 20
-17.06166971190021
 10
48.13124397517839
 20
-17.51834014516941
 10
48.08032014630949
 20
-17.97649508742973
 10
48.02711146072204
 20
-18.43588079640845
 10
47.97465584907314
 20
-18.89771950297158
 10
47.91602713854245
 20
-19.35933160180027
 10
47.8602857504017
 20
-19.82437945686815
 10
47.80006808056366
 20
-20.28992511330386
 10
47.73829582017713
 20
-20.75720178215885
 10
47.67519679799442
 20
-21.22636519219678
 10
47.61053863416705
 20
-21.69737249563843
 10
47.54372830781951
 20
-22.17000460717682
 10
47.47508337151832
 20
-22.64445318101952
 10
47.4046449869338
 20
-23.12079020952293
 10
47.33164649015254
 20
-23.5986884188768
 10
47.25880784164619
 20
-24.07956530808562
 10
47.17930790699975
 20
-24.55999316421953
 10
47.10260523624518
 20
-25.04489945993892
 10
47.02093384955592
 20
-25.53028403593832
 10
46.93760358925496
 20
-26.01793852302599
 10
46.85194339700154
 20
-26.50755417921772
 10
46.7636397535521
 20
-26.99900000000002
 10
46.67445162111745
 20
-27.49335312158134
 10
46.57967115437376
 20
-27.98789004391724
 10
46.48628281665086
 20
-28.48683074773941
 10
46.38789164051803
 20
-28.98637178585062
 10
46.28751536397026
 20
-29.48839948505541
 10
46.18441403795938
 20
-29.99250916362851
 10
46.07911292153419
 20
-30.49909951546931
 10
45.97129405077865
 20
-31.00802936751776
 10
45.86056208134362
 20
-31.51909106927464
 10
45.74718421740732
 20
-32.03252324089689
 10
45.63060492300885
 20
-32.54799417552917
 10
45.51189823215816
 20
-33.06632959591492
 10
45.39042072023968
 20
-33.58714451214387
 10
45.26554261976649
 20
-34.11003297122569
 10
45.13712427786355
 20
-34.63493361816507
 10
45.00581577289144
 20
-35.16239697256938
 10
44.8710734555802
 20
-35.69206344600891
 10
44.73267697065552
 20
-36.22380757290688
 10
44.59056426235122
 20
-36.7576245855894
 10
44.4446729186541
 20
-37.29350865383753
 10
44.29509226753645
 20
-37.83158276652501
 10
44.14190675381762
 20
-38.37197412301419
 10
43.98497115278482
 20
-38.91461523963314
 10
43.82466233357034
 20
-39.45990320513394
 10
43.6593520538851
 20
-40.00642532437656
 10
43.49016727289447
 20
-40.55523708062448
 10
43.31602071474715
 20
-41.1053688293828
 10
43.13830428844865
 20
-41.65817621556676
 10
42.95515167508601
 20
-42.21190998782636
 10
42.76730305040288
 20
-42.76730305040289
 10
42.57547162321872
 20
-43.32511468306227
 10
42.37853694573272
 20
-43.88425966139985
 10
42.17679272645011
 20
-44.4450659232278
 10
41.97017907824616
 20
-45.00750679764374
 10
41.75917655901461
 20
-45.57214437650531
 10
41.54283986966841
 20
-46.13799786079895
 10
41.32151630277196
 20
-46.7054779129788
 10
41.09514394054796
 20
-47.27455527940631
 10
40.86320625613033
 20
-47.84466731495738
 10
40.6249482773209
 20
-48.41492805845116
 10
40.38187106908802
 20
-48.98712681357779
 10
40.1325794537565
 20
-49.55960825186092
 10
39.87754060544193
 20
-50.13293939817742
 10
39.61652304810794
 20
-50.70683717200997
 10
39.34985176198049
 20
-51.28172523375321
 10
39.07693272030414
 20
-51.85684121128882
 10
38.79838694687239
 20
-52.43301067610711
 10
38.5134530859597
 20
-53.00922052242969
 10
38.22279766962321
 20
-53.58638600304229
 10
37.92561962089842
 20
-54.16339806604571
 10
37.62172178777384
 20
-54.7399448754138
 10
37.31578123795816
 20
-55.32292077295676
 10
36.99285892245978
 20
-55.89011317248325
 10
36.67256139199129
 20
-56.47079242086681
 10
36.34402010779586
 20
-57.04868417767521
 10
36.00817298042553
 20
-57.625122548258
 10
35.66528177880244
 20
-58.20045024266241
 10
35.31549124708503
 20
-58.77484749165293
 10
34.95939470224216
 20
-59.34927505996044
 10
34.5956
 20
-59.92133691832984
 10
34.22525939436333
 20
-60.49294118389801
 10
33.84766237096638
 20
-61.0627993215269
 10
33.46357329989056
 20
-61.63223504638503
 10
33.072252870546
 20
-62.19986124226212
 10
32.67360892167895
 20
-62.76541876219086
 10
32.26742016803825
 20
-63.32837780734067
 10
31.85432959659714
 20
-63.88990103538552
 10
31.43314005782272
 20
-64.44748781345399
 10
31.00536614102371
 20
-65.00410192034855
 10
30.57021874849203
 20
-65.55804566763219
 10
30.12750554830002
 20
-66.10877732530795
 10
29.67770185668296
 20
-66.65720973507545
 10
29.21973364723866
 20
-67.2007866608303
 10
28.75519315824965
 20
-67.74298983158148
 10
28.28306097249318
 20
-68.28134938521816
 10
27.80382581255977
 20
-68.81688374334335
 10
27.31720558401814
 20
-69.34876647129701
 10
26.82301677718178
 20
-69.8763476883346
 10
26.32176187915218
 20
-70.40075008000419
 10
25.81280744901756
 20
-70.92010559890575
 10
25.29514941764484
 20
-71.43129838368488
 10
24.77251342946047
 20
-71.9446029692096
 10
24.24150460096752
 20
-72.45022027517426
 10
23.7029631433337
 20
-72.95021944850997
 10
23.15720326692435
 20
-73.44526551864557
 10
22.60427979308131
 20
-73.93526775014814
 10
22.0441633960741
 20
-74.41984842350317
 10
21.47705636307779
 20
-74.89939657178273
 10
20.90277112857626
 20
-75.37295769993612
 10
20.32161731860106
 20
-75.8413083249909
 10
19.73354979154837
 20
-76.30397538781634
 10
19.13877985154353
 20
-76.76145331971088
 10
18.5375228312153
 20
-77.21433958690686
 10
17.92907142842015
 20
-77.6593403405193
 10
17.31406527301711
 20
-78.09870145995836
 10
16.69258512951637
 20
-78.53243860535498
 10
16.06456973550168
 20
-78.95988288658491
 10
15.43018919091415
 20
-79.38144176929892
 10
14.78941518907797
 20
-79.79654365080651
 10
14.14222015591458
 20
-80.20451605926965
 10
13.48869714133034
 20
-80.60527569979193
 10
12.82900275659127
 20
-80.99913558619855
 10
12.16305907056233
 20
-81.38492857701611
 10
11.4911889308303
 20
-81.76405779262649
 10
10.81333797351637
 20
-82.13545638462423
 10
10.12965795449247
 20
-82.49944357827505
 10
9.440163160283628
 20
-82.85524868828301
 10
8.74500802966675
 20
-83.20319354935279
 10
8.044295670721397
 20
-83.54320477047797
 10
7.338138769658979
 20
-83.87530994212318
 10
6.626615995625942
 20
-84.19913954843311
 10
5.909789382544412
 20
-84.5139256072274
 10
5.187849945986519
 20
-84.82059684857168
 10
4.460902332727946
 20
-85.11908716138738
 10
3.729043235556237
 20
-85.40913198714381
 10
2.992335196517514
 20
-85.68926859485781
 10
2.251002903500963
 20
-85.96233275783312
 10
1.505083314466791
 20
-86.22616533690058
 10
0.7547030780807358
 20
-86.48040696570487
 10
-1.59e-14
 20
-86.72579999999999
 10
-0.7589040322696079
 20
-86.96178863546797
 10
-1.521902198550433
 20
-87.1897185607228
 10
-2.288873094617995
 20
-87.40853700987527
 10
-3.059698205052636
 20
-87.61829276917005
 10
-3.83422702624904
 20
-87.8182368686663
 10
-4.61234165571256
 20
-88.00872158315322
 10
-5.393943710602272
 20
-88.19020011456405
 10
-6.178888931307156
 20
-88.36222844391472
 10
-6.967073549717735
 20
-88.52506293470128
 10
-7.758307889871195
 20
-88.67786496215368
 10
-8.552517773459916
 20
-88.82129311231994
 10
-9.349590208360562
 20
-88.95540873997336
 10
-10.14933601325409
 20
-89.07957893535456
 10
-10.9515935541541
 20
-89.19357184340478
 10
-11.75624613349483
 20
-89.29755491870249
 10
-12.56315582366514
 20
-89.39149856530155
 10
-13.37225830113141
 20
-89.47586955200727
 10
-14.18328720733759
 20
-89.54975108839875
 10
-14.99624197326172
 20
-89.614008384233
 10
-15.81068394139177
 20
-89.66684439253685
 10
-16.62695066327297
 20
-89.71099786024612
 10
-17.44463607870244
 20
-89.74487259582929
 10
-18.26365786250373
 20
-89.76874635596403
 10
-19.0838398591187
 20
-89.78240760567468
 10
-19.90519375523853
 20
-89.78652673879535
 10
-20.72735006893069
 20
-89.78001676141521
 10
-21.55029866353041
 20
-89.76345406858316
 10
-22.37392878482924
 20
-89.73692697848189
 10
-23.19805790764971
 20
-89.7002342877282
 10
-24.02249672642653
 20
-89.6531783076809
 10
-24.84720955949136
 20
-89.59614318929538
 10
-25.67184346257876
 20
-89.52835769142007
 10
-26.49652994732517
 20
-89.45078599716437
 10
-27.32102479386184
 20
-89.363045486673
 10
-28.14519078678138
 20
-89.26514081087687
 10
-28.96876723598002
 20
-89.15669801443754
 10
-29.79163899847723
 20
-89.03782349021348
 10
-30.61356424539179
 20
-88.90824628589448
 10
-31.43489236021754
 20
-88.7693975934924
 10
-32.25506466668548
 20
-88.62006183476706
 10
-33.07418043869226
 20
-88.46091389534038
 10
-33.8921112763225
 20
-88.2919684653331
 10
-34.70858242385776
 20
-88.11286973181768
 10
-35.52383087165294
 20
-87.92456677341207
 10
-36.33732263679471
 20
-87.72605713007674
 10
-37.14903555290765
 20
-87.51764329538817
 10
-37.95895749124574
 20
-87.29962548709929
 10
-38.76688292484066
 20
-87.07184465883158
 10
-39.57247590439002
 20
-86.83387323853792
 10
-40.37597670470439
 20
-86.58656146557138
 10
-41.17679351865524
 20
-86.32894288251207
 10
-41.97342358544869
 20
-86.0582716214804
 10
-42.77109453170431
 20
-85.78554411321299
 10
-43.56442896545721
 20
-85.50000595393917
 10
-44.3547868147149
 20
-85.20475271668356
 10
-45.14222590830244
 20
-84.90017897038727
 10
-45.92672153849144
 20
-84.58649862055923
 10
-46.70791628146878
 20
-84.26331152098939
 10
-47.48588117145765
 20
-83.93101082657233
 10
-48.26020000000004
 20
-83.58911838343552
 10
-49.03114958450919
 20
-83.23837434778196
 10
-49.7982074021333
 20
-82.8781348372061
 10
-50.56171585885411
 20
-82.50922132839762
 10
-51.32135594282532
 20
-82.13133799250946
 10
-52.07695858960341
 20
-81.7444507982452
 10
-52.82824355154557
 20
-81.34836134488873
 10
-53.57530890287382
 20
-80.94346219925147
 10
-54.31826514514756
 20
-80.53013978152184
 10
-55.05683857279406
 20
-80.10819721357669
 10
-55.79120638742993
 20
-79.67810019594593
 10
-56.52086394466603
 20
-79.2393288095536
 10
-57.24599274094516
 20
-78.79234942806093
 10
-57.96649176765573
 20
-78.33721762381086
 10
-58.68226072952845
 20
-77.87399022209948
 10
-59.39301743137814
 20
-77.40248728617196
 10
-60.0989031045697
 20
-76.92308813267667
 10
-60.79938602234105
 20
-76.43530389856744
 10
-61.49492305998237
 20
-75.93990562811392
 10
-62.18497865683706
 20
-75.43641130819202
 10
-62.86989908574299
 20
-74.92542810146962
 10
-63.54946570118094
 20
-74.40686434291145
 10
-64.22352091906482
 20
-73.88070946578979
 10
-64.89256796792628
 20
-73.3477052907456
 10
-65.55613067925069
 20
-72.80745915615383
 10
-66.21412333526554
 20
-72.26003568662448
 10
-66.86639281265566
 20
-71.70542740451125
 10
-67.5131284294677
 20
-71.14399293451416
 10
-68.15390524745087
 20
-70.57543488694554
 10
-68.78877719876886
 20
-69.9999682309795
 10
-69.41752123722081
 20
-69.41752123722078
 10
-70.04033820640166
 20
-68.8284486631282
 10
-70.65700802030393
 20
-68.23267950666092
 10
-71.26759672733465
 20
-67.63042404916594
 10
-71.87188350699978
 20
-67.02161563940587
 10
-72.47030718308274
 20
-66.4068016624775
 10
-73.06206057336237
 20
-65.78537482498925
 10
-73.6479616392099
 20
-65.15821234525598
 10
-74.22749851790216
 20
-64.52498004288594
 10
-74.80075463309225
 20
-63.88587979021599
 10
-75.3675889540379
 20
-63.24091609405404
 10
-75.92785900535164
 20
-62.59009687533197
 10
-76.4814986486533
 20
-61.93349644050498
 10
-77.0284426206459
 20
-61.27118986544868
 10
-77.56886294525738
 20
-60.60343768359909
 10
-78.10246293831094
 20
-59.93012764019251
 10
-78.62949941460421
 20
-59.2515777414303
 10
-79.14919343872035
 20
-58.56732226455319
 10
-79.66228540211232
 20
-57.87803822273523
 10
-80.168804496861
 20
-57.18385250920123
 10
-80.67001140637548
 20
-56.48575009420739
 10
-81.1623370214431
 20
-55.78132879044463
 10
-81.64876017817035
 20
-55.07278412980065
 10
-82.12858072957333
 20
-54.35972174639929
 10
-82.60133517339918
 20
-53.64193426985803
 10
-83.06731028100272
 20
-52.91971302529537
 10
-83.5263771106868
 20
-52.19307313248893
 10
-83.97814980354683
 20
-51.46187638614675
 10
-84.42326461345175
 20
-50.72661503596614
 10
-84.86125287147355
 20
-49.98709809114568
 10
-85.29250375013915
 20
-49.24365000000002
 10
-85.71663257236266
 20
-48.4961373473659
 10
-86.13368576470698
 20
-47.74468165436559
 10
-86.5439758573025
 20
-46.98954496109366
 10
-86.94729296443067
 20
-46.23069572662154
 10
-87.34306973222633
 20
-45.46792419664053
 10
-87.73179909572619
 20
-44.7015843692048
 10
-88.11344737461219
 20
-43.93174428316555
 10
-88.48798156684094
 20
-43.15847230656357
 10
-88.85554986899263
 20
-42.38192323195072
 10
-89.21576035576469
 20
-41.60199228201417
 10
-89.56885283428446
 20
-40.81887791451759
 10
-89.91461541392381
 20
-40.03256601076394
 10
-90.25329257467892
 20
-39.24324849244015
 10
-90.58448931563568
 20
-38.45083445369534
 10
-90.9086373436716
 20
-37.65559052460598
 10
-91.22552673244076
 20
-36.85750526553224
 10
-91.53513163036915
 20
-36.05664723599508
 10
-91.83752020908418
 20
-35.25312107510561
 10
-92.13248154275628
 20
-34.44692333175309
 10
-92.42036673174943
 20
-33.63826253032316
 10
-92.70087246039057
 20
-32.82710062802381
 10
-92.9737870572564
 20
-32.01344219592668
 10
-93.23946627697009
 20
-31.19748900914556
 10
-93.49779548306678
 20
-30.37927530680444
 10
-93.74894568312457
 20
-29.55892903257078
 10
-93.99280370171684
 20
-28.73648392793599
 10
-94.22983120166792
 20
-27.91214762993295
 10
-94.45934181307483
 20
-27.08578040671322
 10
-94.68179926914922
 20
-26.25758681308195
 10
-94.89709302602162
 20
-25.42759944038362
 10
-95.10598345254341
 20
-24.59607969828807
 10
-95.30720068388712
 20
-23.76275400308778
 10
-95.50160344283394
 20
-22.92790644471689
 10
-95.68645322013037
 20
-22.09095837015231
 10
-95.86601960473189
 20
-21.25298487519251
 10
-96.03854184520804
 20
-20.41362224241998
 10
-96.2040098836795
 20
-19.57292702461487
 10
-96.36221776488668
 20
-18.73091767833481
 10
-96.51315531077358
 20
-17.88765602862762
 10
-96.6574037465187
 20
-17.04330816574273
 10
-96.79426619198419
 20
-16.19780504868805
 10
-96.92422731461829
 20
-15.35128949711394
 10
-97.04718159238809
 20
-14.50379846709304
 10
-97.1615379398754
 20
-13.65516364303817
 10
-97.26896989312021
 20
-12.80570282418246
 10
-97.37364095215673
 20
-11.95597974782764
 10
-97.46820675564642
 20
-11.10509942677512
 10
-97.55573573454956
 20
-10.25352100016026
 10
-97.63721862239852
 20
-9.401394849805758
 10
-97.70936609505344
 20
-8.548461853621435
 10
-97.7757579496111
 20
-7.695119036705138
 10
-97.83489715237195
 20
-6.841282454686594
 10
-97.88678024079296
 20
-5.98701195762156
 10
-97.93170381819552
 20
-5.132383118516128
 10
-97.96976565780388
 20
-4.277452345145663
 10
-98.00056431474063
 20
-3.422255116496249
 10
-98.02439797245319
 20
-2.566859197173428
 10
-98.04056567240752
 20
-1.711304439411065
 10
-98.05046639651887
 20
-0.8556734570646358
 10
-98.0529
 20
0.0
 10
-98.04826648028812
 20
0.8556542586865633
 10
-98.03646629685738
 20
1.711232884544653
 10
-98.01770026837586
 20
2.566683811619789
 10
-97.99186961454558
 20
3.421951490874961
 10
-97.95877612736648
 20
4.276972531884669
 10
-97.91842204538327
 20
5.13168705029812
 10
-97.8712093379376
 20
5.986059600404797
 10
-97.81674148665722
 20
6.840012886864475
 10
-97.75542083600294
 20
7.693518471152313
 10
-97.68695171434638
 20
8.546500849409638
 10
-97.61143786086082
 20
9.398912444815466
 10
-97.52868473899555
 20
10.2506778259594
 10
-97.43859831434726
 20
11.10172597100486
 10
-97.34168096607388
 20
11.95205555497001
 10
-97.23783852447306
 20
12.80160430174678
 10
-97.12677953066259
 20
13.65027866719445
 10
-97.00880777688964
 20
14.49806346194123
 10
-96.88353455498577
 20
15.34484439715431
 10
-96.75136276831734
 20
16.19062547783314
 10
-96.61239803220604
 20
17.03537244402333
 10
-96.46605740070126
 20
17.87892694695657
 10
-96.31274375484092
 20
18.72130090496786
 10
-96.15217186680503
 20
19.56238046088423
 10
-95.98484154192776
 20
20.40220789059407
 10
-95.81007784352393
 20
21.24058288531383
 10
-95.62916026032099
 20
22.07773124815691
 10
-95.440635848825
 20
22.91326942040315
 10
-95.2451987869781
 20
23.74729519395898
 10
-95.04179526398634
 20
24.57947950401924
 10
-94.83334192148654
 20
25.41051738340688
 10
-94.61685057660294
 20
26.23957494653429
 10
-94.3928225037159
 20
27.06670630169071
 10
-94.1630014661476
 20
27.89235176040707
 10
-93.92662741260422
 20
28.71625180596916
 10
-93.67961046080516
 20
29.53706772094685
 10
-93.42722708955766
 20
30.35634624582184
 10
-93.16815233809858
 20
31.17362769898392
 10
-92.90173854179575
 20
31.98863390255703
 10
-92.62838332972558
 20
32.80143088054876
 10
-92.34782246142474
 20
33.61185857525845
 10
-92.06035778418413
 20
34.41995736339614
 10
-91.7660079484145
 20
35.22567009017042
 10
-91.46460597871614
 20
36.02886644300936
 10
-91.15617338011916
 20
36.82948469234476
 10
-90.84082458598527
 20
37.62750156067041
 10
-90.51839706715779
 20
38.42277995866983
 10
-90.19111590163563
 20
39.216213305567
 10
-89.85642256827198
 20
40.00665688660004
 10
-89.5138911735235
 20
40.79383044266117
 10
-89.16401018112487
 20
41.5778607792688
 10
-88.80635897099556
 20
42.35846037717464
 10
-88.43746934143896
 20
43.13383584811402
 10
-88.06601585344727
 20
43.90809579907076
 10
-87.68689236690709
 20
44.67870324801795
 10
-87.30120282090029
 20
45.44612966209586
 10
-86.9084432703449
 20
46.21003897785894
 10
-86.50873529108475
 20
46.97041089480728
 10
-86.10219945524996
 20
47.72722850803674
 10
-85.68860711895339
 20
48.48028130873059
 10
-85.26842824391393
 20
49.22974999999999
 10
-84.84143540078341
 20
49.97542470879756
 10
-84.40774988530903
 20
50.7172928468103
 10
-83.96698021739378
 20
51.455031654949
 10
-83.51976233553677
 20
52.18893976222792
 10
-83.06587651554484
 20
52.91879961596117
 10
-82.60510919095492
 20
53.64438514551562
 10
-82.13758669645163
 20
54.36568266584067
 10
-81.66293672066102
 20
55.08234632845002
 10
-81.18170398687573
 20
55.79463933701235
 10
-80.69376681565987
 20
56.50238381086155
 10
-80.19811265552183
 20
57.20475781560683
 10
-79.69731583796876
 20
57.90348932415952
 10
-79.18986859586755
 20
58.59742029756283
 10
-78.67502163867691
 20
59.28588119774994
 10
-78.15379289942777
 20
59.9695145046494
 10
-77.62559971951704
 20
60.64776530982255
 10
-77.0915208380882
 20
61.32136454516169
 10
-76.55074235381913
 20
61.9895688873475
 10
-76.00324672714864
 20
62.65224171745311
 10
-75.44970891834024
 20
63.30982292581245
 10
-74.88972213106746
 20
63.96186521187064
 10
-74.32327116363243
 20
64.60823393366486
 10
-73.75071836410216
 20
65.24912381587116
 10
-73.17189737856792
 20
65.8842723286091
 10
-72.58642836363032
 20
66.51320712017699
 10
-71.9951166057226
 20
67.13653236307641
 10
-71.39751127718296
 20
67.75370835367265
 10
-70.79361064838827
 20
68.36459513121106
 10
-70.18355889659179
 20
68.96919124339962
 10
-69.56778142822293
 20
69.56778142822294
 10
-68.94599114675128
 20
70.15995030672481
 10
-68.31826141790147
 20
70.74563068370566
 10
-67.68432221244271
 20
71.32439354058492
 10
-67.04453078430396
 20
71.89645699137418
 10
-66.39903237508993
 20
72.46182849370943
 10
-65.74790351103314
 20
73.02044446313565
 10
-65.09108893437173
 20
73.57209242469396
 10
-64.42893300104174
 20
74.11700903535755
 10
-63.7609909305221
 20
74.65452856590736
 10
-63.08748269162188
 20
75.18473414546541
 10
-62.40849654344268
 20
75.70756018679444
 10
-61.72349222601162
 20
76.22216504131514
 10
-61.03426079474441
 20
76.73058195614789
 10
-60.3391342122418
 20
77.23056992873401
 10
-59.63883529641184
 20
77.72284336498159
 10
-58.93363886469907
 20
78.20758027464622
 10
-58.22321728241754
 20
78.68416224485327
 10
-57.50790984936667
 20
79.15284740075442
 10
-56.78758081222409
 20
79.61325206713465
 10
-56.06245068418032
 20
80.0654771976902
 10
-55.33262176955274
 20
80.50946425481675
 10
-54.59802935475399
 20
80.94490727907113
 10
-53.85900451332419
 20
81.372079511794
 10
-53.11548617861251
 20
81.79067620242313
 10
-52.36731529795401
 20
82.2002195355625
 10
-51.6149312152105
 20
82.60115663778014
 10
-50.85818154447395
 20
82.9930093576521
 10
-50.09734151604105
 20
83.3759776054539
 10
-49.33262737210786
 20
83.7501820690842
 10
-48.56384999999998
 20
84.11505561115384
 10
-47.79138074814582
 20
84.47097950033346
 10
-47.01518861878092
 20
84.81764549137432
 10
-46.23544325637938
 20
85.15509329245153
 10
-45.4517485096472
 20
85.48230631835915
 10
-44.66558980628335
 20
85.80179970849585
 10
-43.87595724637847
 20
86.11141463083723
 10
-43.08316528219332
 20
86.41146120571743
 10
-42.28747267500837
 20
86.70216767624915
 10
-41.48878491051219
 20
86.98304643808044
 10
-40.68740410178113
 20
87.25441967383867
 10
-39.88328848976085
 20
87.51588921105989
 10
-39.0766535522072
 20
87.76760087937218
 10
-38.26766902040762
 20
88.0096133966883
 10
-37.45646280480301
 20
88.24189651408456
 10
-36.64308669925444
 20
88.46423687655324
 10
-35.82789904352862
 20
88.67716190816395
 10
-35.01050613443323
 20
88.87934772432126
 10
-34.19131267739782
 20
89.07141476341562
 10
-33.37003563438023
 20
89.25221456081744
 10
-32.54786811138661
 20
89.42453268742187
 10
-31.72413600374358
 20
89.58619644552378
 10
-30.89902240321982
 20
89.73727697297997
 10
-30.07280265451774
 20
89.8781330810917
 10
-29.24549195444277
 20
90.00836912477986
 10
-28.41717918243302
 20
90.12777779282864
 10
-27.58831100631932
 20
90.23729929457441
 10
-26.75878971662478
 20
90.33616014034169
 10
-25.92854453205114
 20
90.42358070884741
 10
-25.09809294695361
 20
90.50079945876763
 10
-24.26744307071158
 20
90.56733050968089
 10
-23.43669508951396
 20
90.62297580377259
 10
-22.60605284365712
 20
90.66792572784371
 10
-21.77571350686969
 20
90.70237446371915
 10
-20.94568756227683
 20
90.72574034629578
 10
-20.11617909090539
 20
90.73822008653586
 10
-19.28742698676741
 20
90.74020973631326
 10
-18.45947704768827
 20
90.73122840084261
 10
-17.63258293914835
 20
90.71177537152525
 10
-16.8068535740388
 20
90.68166710499328
 10
-15.98231780019776
 20
90.6402283756141
 10
-15.15929250309153
 20
90.58835992999163
 10
-14.3377975284578
 20
90.52529086240457
 10
-13.51810184709301
 20
90.45173150438647
 10
-12.70029699735115
 20
90.3673087202395
 10
-11.88457948568558
 20
90.27234350640522
 10
-11.07108644536287
 20
90.1667633450891
 10
-10.25996951406944
 20
90.05059670990728
 10
-9.45138002589062
 20
89.92387416168296
 10
-8.645488153404493
 20
89.7868274247361
 10
-7.842448043919783
 20
89.63959132369145
 10
-7.042378589797337
 20
89.48190419161834
 10
-6.245436607259029
 20
89.31390454786258
 10
-5.451744467833874
 20
89.13523414170989
 10
-4.661479885029019
 20
88.94633485333428
 10
-3.874788694560045
 20
88.74725180991528
 10
-3.091830171666646
 20
88.53843190360654
 10
-2.312725529916089
 20
88.31942476439299
 10
-1.53762507150978
 20
88.09048134928918
 10
-0.766672394170297
 20
87.85195473937969
 10
5.4e-15
 20
87.6034
 10
0.7622480406726125
 20
87.34497404438615
 10
1.519933567104316
 20
87.07693574070915
 10
2.27292871540364
 20
86.79964573323264
 10
3.021092381800357
 20
86.51276663632153
 10
3.764318234118605
 20
86.21706228393707
 10
4.5024256804111
 20
85.91139983426166
 10
5.235339604890724
 20
85.59704590826405
 10
5.962888010358441
 20
85.27327136228516
 10
6.684950333299578
 20
84.94034758606371
 10
7.401474847913724
 20
84.59924462922645
 10
8.112336570435504
 20
84.24983653169882
 10
8.817352179094332
 20
83.89150215313718
 10
9.51646212636322
 20
83.52491611900903
 10
10.20945800055414
 20
83.14936279836978
 10
10.89631347391069
 20
82.76571788299955
 10
11.57683605716112
 20
82.37346876213005
 10
12.25115347959554
 20
81.97438203157981
 10
12.91893693054292
 20
81.56695761320667
 10
13.58019953401948
 20
81.15207243728416
 10
14.23494828278875
 20
80.73040339937816
 10
14.88299313141819
 20
80.30144504584061
 10
15.52416262113708
 20
79.86489315714691
 10
16.15845209581876
 20
79.42132942999085
 10
16.78583352284814
 20
78.97113780428408
 10
17.40624690459338
 20
78.51450592939074
 10
18.01974919842617
 20
78.05210891363423
 10
18.62613869133499
 20
77.58345120868981
 10
19.22512177608307
 20
77.10775186441877
 10
19.81702648490013
 20
76.6267558111184
 10
20.40159240353777
 20
76.13977940531421
 10
20.97920130413466
 20
75.64855600955377
 10
21.549328477773
 20
75.15143938845777
 10
22.11192945732049
 20
74.6486228122427
 10
22.66716894676717
 20
74.14096890315578
 10
23.21499892158904
 20
73.6285699165794
 10
23.75531062218084
 20
73.11132842237038
 10
24.28808492452777
 20
72.58943418775853
 10
24.81369780099933
 20
72.06421106902289
 10
25.33170126873094
 20
71.53451762695947
 10
25.84218697932922
 20
71.00082519503127
 10
26.34491058705345
 20
70.4626641117135
 10
26.84029011234986
 20
69.92134626489177
 10
27.32805402032921
 20
69.37630683130926
 10
27.80858331629615
 20
68.82865897829635
 10
28.28126236036105
 20
68.27700715141538
 10
28.7466752196486
 20
67.72292282577622
 10
29.20482043206086
 20
67.1664886140483
 10
29.65524999398521
 20
66.60678202581356
 10
30.09826967469277
 20
66.04462505571115
 10
30.53387357798232
 20
65.48010319794703
 10
30.9623580824526
 20
64.91393365044198
 10
31.38342876977684
 20
64.34556456860366
 10
31.79743937542561
 20
63.77579690428127
 10
32.20422469047452
 20
63.20434969917364
 10
32.60402340566441
 20
62.63174622963091
 10
32.99652710746867
 20
62.05744179553396
 10
33.38188372013413
 20
61.4817815566973
 10
33.7605420822081
 20
60.90563016015395
 10
34.13243755328384
 20
60.32887913521334
 10
34.49740000000001
 20
59.75124952902658
 10
34.85545084550784
 20
59.172813407902
 10
35.20666370185653
 20
58.59372804101457
 10
35.55153384126376
 20
58.01483047888252
 10
35.88957704909015
 20
57.43532938433819
 10
36.22146206713195
 20
56.85630658888529
 10
36.54647745538535
 20
56.27664018438743
 10
36.86525109145565
 20
55.69731877042133
 10
37.17788426796225
 20
55.11848010756469
 10
37.48436827531959
 20
54.54009427467296
 10
37.78440510226879
 20
53.96172283274176
 10
38.07860912572017
 20
53.38424111983443
 10
38.36662432993706
 20
52.80712807723482
 10
38.6486105691684
 20
52.23059951860369
 10
38.92473370094902
 20
51.65486629079785
 10
39.19467847372617
 20
51.07949946731297
 10
39.45934467345729
 20
50.50565802661419
 10
39.71811460699904
 20
49.93251344920751
 10
39.97134756956953
 20
49.36050345653565
 10
40.21992555420532
 20
48.79067119464726
 10
40.46219445454828
 20
48.22096560545343
 10
40.69974018236562
 20
47.65327313341586
 10
40.93231008955254
 20
47.08723636159501
 10
41.15970448699768
 20
46.52258292596213
 10
41.38224852414231
 20
45.95964310268435
 10
41.59980482903809
 20
45.3982206527518
 10
41.81195545871166
 20
44.8378327388681
 10
42.01957254136167
 20
44.27939041688858
 10
42.22272507323877
 20
43.7229117441839
 10
42.42127158507274
 20
43.16819958424836
 10
42.61520438176966
 20
42.61520438176966
 10
42.80451318022465
 20
42.06387795120624
 10
42.98954481773865
 20
41.51452086455583
 10
43.170438078485
 20
40.96721606604105
 10
43.34630999978597
 20
40.4210880032002
 10
43.51890072122278
 20
39.87772538982577
 10
43.68703191189193
 20
39.33598021683629
 10
43.85150724334023
 20
38.79653634704107
 10
44.01217217697733
 20
38.25919757593071
 10
44.16909299903651
 20
37.72396922491671
 10
44.32248882997663
 20
37.19098403009251
 10
44.47219705125955
 20
36.66005018659879
 10
44.61828108512907
 20
36.13117161134431
 10
44.76103874872675
 20
35.60453788809766
 10
44.90037993405885
 20
35.08002146717082
 10
45.03597172697643
 20
34.55731653596644
 10
45.16834867819374
 20
34.03679208290808
 10
45.29709293872201
 20
33.51808558660206
 10
45.42298726447636
 20
33.00173199668797
 10
45.54520420513327
 20
32.4870784354751
 10
45.66485943695628
 20
31.97487880904359
 10
45.78111631676045
 20
31.46448950803508
 10
45.89477388283181
 20
30.95641586252743
 10
46.00523063769905
 20
30.45019789857065
 10
46.11287543851363
 20
29.94605145394174
 10
46.21801990883529
 20
29.44412599732761
 10
46.32004779282552
 20
28.94397824471196
 10
46.41986214784767
 20
28.44612810954804
 10
46.5168407912323
 20
27.95013775302631
 10
46.61120804074105
 20
27.45609980574003
 10
46.70336438544872
 20
26.96419999999999
 10
46.79302031638642
 20
26.47421710419871
 10
46.87996615055447
 20
25.98598956905176
 10
46.96512896290189
 20
25.49998445466181
 10
47.04777419072864
 20
25.01574527588991
 10
47.12857088734196
 20
24.5335811435425
 10
47.20712946324327
 20
24.05323385910072
 10
47.28349902149836
 20
23.5746829765315
 10
47.35763805831237
 20
23.09786339854584
 10
47.42995410730082
 20
22.6229276261791
 10
47.50022553404175
 20
22.14971893061328
 10
47.56849842345256
 20
21.67821366782769
 10
47.63472673422084
 20
21.20834675890853
 10
47.69904564899345
 20
20.74013532200883
 10
47.76149892720402
 20
20.27355347902016
 10
47.82222191366223
 20
19.80861289945472
 10
47.88088687045438
 20
19.3451340119098
 10
47.93762522986746
 20
18.88313275414795
 10
47.99294241711225
 20
18.42276452945507
 10
48.04613161140193
 20
17.96371251801375
 10
48.09863664123711
 20
17.50647204619602
 10
48.1483363461554
 20
17.05022013662847
 10
48.19714752817226
 20
16.59560877574544
 10
48.2441641436705
 20
16.14227151576189
 10
48.28970440358316
 20
15.69027608598908
 10
48.33361209035954
 20
15.23952935423696
 10
48.37563238514611
 20
14.78991505510436
 10
48.4171366237452
 20
14.3418092553761
 10
48.45662533523309
 20
13.89471372432144
 10
48.49479892076927
 20
13.44879799997588
 10
48.53188062348531
 20
13.00407822022654
 10
48.56664230574759
 20
12.56018771338903
 10
48.60114263343839
 20
12.11762582869176
 10
48.63347051665795
 20
11.67586325139865
 10
48.66540007073097
 20
11.23529288473151
 10
48.69491120632235
 20
10.79540191231355
 10
48.72387954679262
 20
10.35658030769055
 10
48.75125405488627
 20
9.91855473725556
 10
48.77734923366945
 20
9.481356222959125
 10
48.80218580359403
 20
9.044950507409403
 10
48.82588206736756
 20
8.609320365366505
 10
48.84835875869538
 20
8.174411804025299
 10
48.86943632897059
 20
7.740158321939567
 10
48.88952666563795
 20
7.306588715664477
 10
48.90755743262243
 20
6.873508944835904
 10
48.92572187458866
 20
6.441193481055883
 10
48.94155744589711
 20
6.009267640898758
 10
48.95636540193806
 20
5.577873272307444
 10
48.97015867574424
 20
5.14697107845293
 10
48.98275014431001
 20
4.716502389493458
 10
48.99415030525957
 20
4.286432730795401
 10
49.00426907351889
 20
3.856719617778801
 10
49.01331448141595
 20
3.427344824470109
 10
49.02109491445362
 20
2.998258607613565
 10
49.02781687172928
 20
2.569439005342952
 10
49.03328671523758
 20
2.140839531890691
 10
49.03750946567678
 20
1.712427564500296
 10
49.04058925425591
 20
1.284173023918656
 10
49.04182955403439
 20
0.8560283190642501
 10
49.04293252429767
 20
0.42799118821065
  0
ENDSEC
  0
SECTION
  2
OBJECTS
  0
DICTIONARY
  5
A
330
0
100
AcDbDictionary
280
0
281
1
  3
ACAD_COLOR
350
B
  3
ACAD_GROUP
350
C
  3
ACAD_LAYOUT
350
D
  3
ACAD_MATERIAL
350
E
  3
ACAD_MLEADERSTYLE
350
F
  3
ACAD_MLINESTYLE
350
10
  3
ACAD_PLOTSETTINGS
350
11
  3
ACAD_PLOTSTYLENAME
350
12
  3
ACAD_SCALELIST
350
14
  3
ACAD_TABLESTYLE
350
15
  3
ACAD_VISUALSTYLE
350
16
  3
EZDXF_META
350
2D
  0
DICTIONARY
  5
B
330
A
100
AcDbDictionary
280
0
281
1
  0
DICTIONARY
  5
C
330
A
100
AcDbDictionary
280
0
281
1
  0
DICTIONARY
  5
D
330
A
100
AcDbDictionary
280
0
281
1
  3
Model
350
1A
  3
Layout1
350
1E
  0
DICTIONARY
  5
E
330
A
100
AcDbDictionary
280
0
281
1
  3
ByBlock
350
1F
  3
ByLayer
350
20
  3
Global
350
21
  0
DICTIONARY
  5
F
330
A
100
AcDbDictionary
280
0
281
1
  3
Standard
350
2C
  0
DICTIONARY
  5
10
330
A
100
AcDbDictionary
280
0
281
1
  3
Standard
350
22
  0
DICTIONARY
  5
11
330
A
100
AcDbDictionary
280
0
281
1
  0
ACDBDICTIONARYWDFLT
  5
12
330
A
100
AcDbDictionary
280
0
281
1
  3
Normal
350
13
100
AcDbDictionaryWithDefault
340
13
  0
ACDBPLACEHOLDER
  5
13
330
12
  0
DICTIONARY
  5
14
330
A
100
AcDbDictionary
280
0
281
1
  0
DICTIONARY
  5
15
330
A
100
AcDbDictionary
280
0
281
1
  0
DICTIONARY
  5
16
330
A
100
AcDbDictionary
280
0
281
1
  0
LAYOUT
  5
1A
330
D
100
AcDbPlotSettings
  1

  4
A3
  6

 40
7.5
 41
20.0
 42
7.5
 43
20.0
 44
420.0
 45
297.0
 46
0.0
 47
0.0
 48
0.0
 49
0.0
140
0.0
141
0.0
142
1.0
143
1.0
 70
1024
 72
1
 73
0
 74
5
  7

 75
16
 76
0
 77
2
 78
300
147
1.0
148
0.0
149
0.0
100
AcDbLayout
  1
Model
 70
1
 71
0
 10
0.0
 20
0.0
 11
420.0
 21
297.0
 12
0.0
 22
0.0
 32
0.0
 14
1e+20
 24
1e+20
 34
1e+20
 15
-1e+20
 25
-1e+20
 35
-1e+20
146
0.0
 13
0.0
 23
0.0
 33
0.0
 16
1.0
 26
0.0
 36
0.0
 17
0.0
 27
1.0
 37
0.0
 76
1
330
17
  0
LAYOUT
  5
1E
330
D
100
AcDbPlotSettings
  1

  4
A3
  6

 40
7.5
 41
20.0
 42
7.5
 43
20.0
 44
420.0
 45
297.0
 46
0.0
 47
0.0
 48
0.0
 49
0.0
140
0.0
141
0.0
142
1.0
143
1.0
 70
0
 72
1
 73
0
 74
5
  7

 75
16
 76
0
 77
2
 78
300
147
1.0
148
0.0
149
0.0
100
AcDbLayout
  1
Layout1
 70
1
 71
1
 10
0.0
 20
0.0
 11
420.0
 21
297.0
 12
0.0
 22
0.0
 32
0.0
 14
1e+20
 24
1e+20
 34
1e+20
 15
-1e+20
 25
-1e+20
 35
-1e+20
146
0.0
 13
0.0
 23
0.0
 33
0.0
 16
1.0
 26
0.0
 36
0.0
 17
0.0
 27
1.0
 37
0.0
 76
1
330
1B
  0
MATERIAL
  5
1F
102
{ACAD_REACTORS
330
E
102
}
330
E
100
AcDbMaterial
  1
ByBlock
  2

 70
0
 40
1.0
 71
1
 41
1.0
 91
-1023410177
 42
1.0
 72
1
  3

 73
1
 74
1
 75
1
 44
0.5
 73
0
 45
1.0
 46
1.0
 77
1
  4

 78
1
 79
1
170
1
 48
1.0
171
1
  6

172
1
173
1
174
1
140
1.0
141
1.0
175
1
  7

176
1
177
1
178
1
143
1.0
179
1
  8

270
1
271
1
272
1
145
1.0
146
1.0
273
1
  9

274
1
275
1
276
1
 42
1.0
 72
1
  3

 73
1
 74
1
 75
1
 94
63
  0
MATERIAL
  5
20
102
{ACAD_REACTORS
330
E
102
}
330
E
100
AcDbMaterial
  1
ByLayer
  2

 70
0
 40
1.0
 71
1
 41
1.0
 91
-1023410177
 42
1.0
 72
1
  3

 73
1
 74
1
 75
1
 44
0.5
 73
0
 45
1.0
 46
1.0
 77
1
  4

 78
1
 79
1
170
1
 48
1.0
171
1
  6

172
1
173
1
174
1
140
1.0
141
1.0
175
1
  7

176
1
177
1
178
1
143
1.0
179
1
  8

270
1
271
1
272
1
145
1.0
146
1.0
273
1
  9

274
1
275
1
276
1
 42
1.0
 72
1
  3

 73
1
 74
1
 75
1
 94
63
  0
MATERIAL
  5
21
102
{ACAD_REACTORS
330
E
102
}
330
E
100
AcDbMaterial
  1
Global
  2

 70
0
 40
1.0
 71
1
 41
1.0
 91
-1023410177
 42
1.0
 72
1
  3

 73
1
 74
1
 75
1
 44
0.5
 73
0
 45
1.0
 46
1.0
 77
1
  4

 78
1
 79
1
170
1
 48
1.0
171
1
  6

172
1
173
1
174
1
140
1.0
141
1.0
175
1
  7

176
1
177
1
178
1
143
1.0
179
1
  8

270
1
271
1
272
1
145
1.0
146
1.0
273
1
  9

274
1
275
1
276
1
 42
1.0
 72
1
  3

 73
1
 74
1
 75
1
 94
63
  0
MLINESTYLE
  5
22
102
{ACAD_REACTORS
330
10
102
}
330
10
100
AcDbMlineStyle
  2
Standard
 70
0
  3

 62
256
 51
90.0
 52
90.0
 71
2
 49
0.5
 62
256
  6
BYLAYER
 49
-0.5
 62
256
  6
BYLAYER
  0
MLEADERSTYLE
  5
2C
102
{ACAD_REACTORS
330
F
102
}
330
F
100
AcDbMLeaderStyle
179
2
170
2
171
1
172
0
 90
2
 40
0.0
 41
0.0
173
1
 91
-1056964608
 92
-2
290
1
 42
2.0
291
1
 43
8.0
  3
Standard
 44
4.0
300

342
29
174
1
175
1
176
0
178
1
 93
-1056964608
 45
4.0
292
0
297
0
 46
4.0
 94
-1056964608
 47
1.0
 49
1.0
140
1.0
294
1
141
0.0
177
0
142
1.0
295
0
296
0
143
3.75
271
0
272
9
273
9
  0
DICTIONARY
  5
2D
330
A
100
AcDbDictionary
281
1
  3
CREATED_BY_EZDXF
350
2E
  3
WRITTEN_BY_EZDXF
350
32
  0
DICTIONARYVAR
  5
2E
330
2D
100
DictionaryVariables
280
0
  1
1.3.2 @ 2025-08-28T05:44:51.493588+00:00
  0
DICTIONARYVAR
  5
32
330
2D
100
DictionaryVariables
280
0
  1
1.3.2 @ 2025-08-28T05:44:51.500242+00:00
  0
ENDSEC
  0
EOF
