  0
SECTION
  2
HEADER
  9
$ACADVER
  1
AC1015
  9
$ACADMAINTVER
 70
6
  9
$DWGCODEPAGE
  3
ANSI_1252
  9
$INSBASE
 10
0.0
 20
0.0
 30
0.0
  9
$EXTMIN
 10
1e+20
 20
1e+20
 30
1e+20
  9
$EXTMAX
 10
-1e+20
 20
-1e+20
 30
-1e+20
  9
$LIMMIN
 10
0.0
 20
0.0
  9
$LIMMAX
 10
420.0
 20
297.0
  9
$ORTHOMODE
 70
0
  9
$REGENMODE
 70
1
  9
$FILLMODE
 70
1
  9
$QTEXTMODE
 70
0
  9
$MIRRTEXT
 70
1
  9
$LTSCALE
 40
1.0
  9
$ATTMODE
 70
1
  9
$TEXTSIZE
 40
2.5
  9
$TRACEWID
 40
1.0
  9
$TEXTSTYLE
  7
Standard
  9
$CLAYER
  8
0
  9
$CELTYPE
  6
ByLayer
  9
$CECOLOR
 62
256
  9
$CELTSCALE
 40
1.0
  9
$DISPSILH
 70
0
  9
$DIMSCALE
 40
1.0
  9
$DIMASZ
 40
2.5
  9
$DIMEXO
 40
0.625
  9
$DIMDLI
 40
3.75
  9
$DIMRND
 40
0.0
  9
$DIMDLE
 40
0.0
  9
$DIMEXE
 40
1.25
  9
$DIMTP
 40
0.0
  9
$DIMTM
 40
0.0
  9
$DIMTXT
 40
2.5
  9
$DIMCEN
 40
2.5
  9
$DIMTSZ
 40
0.0
  9
$DIMTOL
 70
0
  9
$DIMLIM
 70
0
  9
$DIMTIH
 70
0
  9
$DIMTOH
 70
0
  9
$DIMSE1
 70
0
  9
$DIMSE2
 70
0
  9
$DIMTAD
 70
1
  9
$DIMZIN
 70
8
  9
$DIMBLK
  1

  9
$DIMASO
 70
1
  9
$DIMSHO
 70
1
  9
$DIMPOST
  1

  9
$DIMAPOST
  1

  9
$DIMALT
 70
0
  9
$DIMALTD
 70
3
  9
$DIMALTF
 40
0.03937007874
  9
$DIMLFAC
 40
1.0
  9
$DIMTOFL
 70
1
  9
$DIMTVP
 40
0.0
  9
$DIMTIX
 70
0
  9
$DIMSOXD
 70
0
  9
$DIMSAH
 70
0
  9
$DIMBLK1
  1

  9
$DIMBLK2
  1

  9
$DIMSTYLE
  2
ISO-25
  9
$DIMCLRD
 70
0
  9
$DIMCLRE
 70
0
  9
$DIMCLRT
 70
0
  9
$DIMTFAC
 40
1.0
  9
$DIMGAP
 40
0.625
  9
$DIMJUST
 70
0
  9
$DIMSD1
 70
0
  9
$DIMSD2
 70
0
  9
$DIMTOLJ
 70
0
  9
$DIMTZIN
 70
8
  9
$DIMALTZ
 70
0
  9
$DIMALTTZ
 70
0
  9
$DIMUPT
 70
0
  9
$DIMDEC
 70
2
  9
$DIMTDEC
 70
2
  9
$DIMALTU
 70
2
  9
$DIMALTTD
 70
3
  9
$DIMTXSTY
  7
Standard
  9
$DIMAUNIT
 70
0
  9
$DIMADEC
 70
0
  9
$DIMALTRND
 40
0.0
  9
$DIMAZIN
 70
0
  9
$DIMDSEP
 70
44
  9
$DIMATFIT
 70
3
  9
$DIMFRAC
 70
0
  9
$DIMLDRBLK
  1

  9
$DIMLUNIT
 70
2
  9
$DIMLWD
 70
-2
  9
$DIMLWE
 70
-2
  9
$DIMTMOVE
 70
0
  9
$LUNITS
 70
2
  9
$LUPREC
 70
4
  9
$SKETCHINC
 40
1.0
  9
$FILLETRAD
 40
10.0
  9
$AUNITS
 70
0
  9
$AUPREC
 70
2
  9
$MENU
  1
.
  9
$ELEVATION
 40
0.0
  9
$PELEVATION
 40
0.0
  9
$THICKNESS
 40
0.0
  9
$LIMCHECK
 70
0
  9
$CHAMFERA
 40
0.0
  9
$CHAMFERB
 40
0.0
  9
$CHAMFERC
 40
0.0
  9
$CHAMFERD
 40
0.0
  9
$SKPOLY
 70
0
  9
$TDCREATE
 40
2460915.394224537
  9
$TDUCREATE
 40
2458532.153996898
  9
$TDUPDATE
 40
2460915.394224537
  9
$TDUUPDATE
 40
2458532.1544311
  9
$TDINDWG
 40
0.0
  9
$TDUSRTIMER
 40
0.0
  9
$USRTIMER
 70
1
  9
$ANGBASE
 50
0.0
  9
$ANGDIR
 70
0
  9
$PDMODE
 70
0
  9
$PDSIZE
 40
0.0
  9
$PLINEWID
 40
0.0
  9
$SPLFRAME
 70
0
  9
$SPLINETYPE
 70
6
  9
$SPLINESEGS
 70
8
  9
$HANDSEED
  5
A9
  9
$SURFTAB1
 70
6
  9
$SURFTAB2
 70
6
  9
$SURFTYPE
 70
6
  9
$SURFU
 70
6
  9
$SURFV
 70
6
  9
$UCSBASE
  2

  9
$UCSNAME
  2

  9
$UCSORG
 10
0.0
 20
0.0
 30
0.0
  9
$UCSXDIR
 10
1.0
 20
0.0
 30
0.0
  9
$UCSYDIR
 10
0.0
 20
1.0
 30
0.0
  9
$UCSORTHOREF
  2

  9
$UCSORTHOVIEW
 70
0
  9
$UCSORGTOP
 10
0.0
 20
0.0
 30
0.0
  9
$UCSORGBOTTOM
 10
0.0
 20
0.0
 30
0.0
  9
$UCSORGLEFT
 10
0.0
 20
0.0
 30
0.0
  9
$UCSORGRIGHT
 10
0.0
 20
0.0
 30
0.0
  9
$UCSORGFRONT
 10
0.0
 20
0.0
 30
0.0
  9
$UCSORGBACK
 10
0.0
 20
0.0
 30
0.0
  9
$PUCSBASE
  2

  9
$PUCSNAME
  2

  9
$PUCSORG
 10
0.0
 20
0.0
 30
0.0
  9
$PUCSXDIR
 10
1.0
 20
0.0
 30
0.0
  9
$PUCSYDIR
 10
0.0
 20
1.0
 30
0.0
  9
$PUCSORTHOREF
  2

  9
$PUCSORTHOVIEW
 70
0
  9
$PUCSORGTOP
 10
0.0
 20
0.0
 30
0.0
  9
$PUCSORGBOTTOM
 10
0.0
 20
0.0
 30
0.0
  9
$PUCSORGLEFT
 10
0.0
 20
0.0
 30
0.0
  9
$PUCSORGRIGHT
 10
0.0
 20
0.0
 30
0.0
  9
$PUCSORGFRONT
 10
0.0
 20
0.0
 30
0.0
  9
$PUCSORGBACK
 10
0.0
 20
0.0
 30
0.0
  9
$USERI1
 70
0
  9
$USERI2
 70
0
  9
$USERI3
 70
0
  9
$USERI4
 70
0
  9
$USERI5
 70
0
  9
$USERR1
 40
0.0
  9
$USERR2
 40
0.0
  9
$USERR3
 40
0.0
  9
$USERR4
 40
0.0
  9
$USERR5
 40
0.0
  9
$WORLDVIEW
 70
1
  9
$SHADEDGE
 70
3
  9
$SHADEDIF
 70
70
  9
$TILEMODE
 70
1
  9
$MAXACTVP
 70
64
  9
$PINSBASE
 10
0.0
 20
0.0
 30
0.0
  9
$PLIMCHECK
 70
0
  9
$PEXTMIN
 10
1e+20
 20
1e+20
 30
1e+20
  9
$PEXTMAX
 10
-1e+20
 20
-1e+20
 30
-1e+20
  9
$PLIMMIN
 10
0.0
 20
0.0
  9
$PLIMMAX
 10
420.0
 20
297.0
  9
$UNITMODE
 70
0
  9
$VISRETAIN
 70
1
  9
$PLINEGEN
 70
0
  9
$PSLTSCALE
 70
1
  9
$TREEDEPTH
 70
3020
  9
$CMLSTYLE
  2
Standard
  9
$CMLJUST
 70
0
  9
$CMLSCALE
 40
20.0
  9
$PROXYGRAPHICS
 70
1
  9
$MEASUREMENT
 70
1
  9
$CELWEIGHT
370
-1
  9
$ENDCAPS
280
0
  9
$JOINSTYLE
280
0
  9
$LWDISPLAY
290
0
  9
$INSUNITS
 70
6
  9
$HYPERLINKBASE
  1

  9
$STYLESHEET
  1

  9
$XEDIT
290
1
  9
$CEPSNTYPE
380
0
  9
$PSTYLEMODE
290
1
  9
$FINGERPRINTGUID
  2
{30A865B3-2731-4C21-8DB2-5A7CB867C739}
  9
$VERSIONGUID
  2
{73B3915E-AA28-471F-BD86-29D32FD8E49F}
  9
$EXTNAMES
290
1
  9
$PSVPSCALE
 40
0.0
  9
$OLESTARTUP
290
0
  0
ENDSEC
  0
SECTION
  2
CLASSES
  0
CLASS
  1
ACDBDICTIONARYWDFLT
  2
AcDbDictionaryWithDefault
  3
ObjectDBX Classes
 90
0
280
0
281
0
  0
CLASS
  1
SUN
  2
AcDbSun
  3
SCENEOE
 90
1153
280
0
281
0
  0
CLASS
  1
VISUALSTYLE
  2
AcDbVisualStyle
  3
ObjectDBX Classes
 90
4095
280
0
281
0
  0
CLASS
  1
MATERIAL
  2
AcDbMaterial
  3
ObjectDBX Classes
 90
1153
280
0
281
0
  0
CLASS
  1
SCALE
  2
AcDbScale
  3
ObjectDBX Classes
 90
1153
280
0
281
0
  0
CLASS
  1
TABLESTYLE
  2
AcDbTableStyle
  3
ObjectDBX Classes
 90
4095
280
0
281
0
  0
CLASS
  1
MLEADERSTYLE
  2
AcDbMLeaderStyle
  3
ACDB_MLEADERSTYLE_CLASS
 90
4095
280
0
281
0
  0
CLASS
  1
DICTIONARYVAR
  2
AcDbDictionaryVar
  3
ObjectDBX Classes
 90
0
280
0
281
0
  0
CLASS
  1
CELLSTYLEMAP
  2
AcDbCellStyleMap
  3
ObjectDBX Classes
 90
1152
280
0
281
0
  0
CLASS
  1
MENTALRAYRENDERSETTINGS
  2
AcDbMentalRayRenderSettings
  3
SCENEOE
 90
1024
280
0
281
0
  0
CLASS
  1
ACDBDETAILVIEWSTYLE
  2
AcDbDetailViewStyle
  3
ObjectDBX Classes
 90
1025
280
0
281
0
  0
CLASS
  1
ACDBSECTIONVIEWSTYLE
  2
AcDbSectionViewStyle
  3
ObjectDBX Classes
 90
1025
280
0
281
0
  0
CLASS
  1
RASTERVARIABLES
  2
AcDbRasterVariables
  3
ISM
 90
0
280
0
281
0
  0
CLASS
  1
ACDBPLACEHOLDER
  2
AcDbPlaceHolder
  3
ObjectDBX Classes
 90
0
280
0
281
0
  0
CLASS
  1
LAYOUT
  2
AcDbLayout
  3
ObjectDBX Classes
 90
0
280
0
281
0
  0
ENDSEC
  0
SECTION
  2
TABLES
  0
TABLE
  2
VPORT
  5
8
330
0
100
AcDbSymbolTable
 70
1
  0
VPORT
  5
23
330
8
100
AcDbSymbolTableRecord
100
AcDbViewportTableRecord
  2
*Active
 70
0
 10
0.0
 20
0.0
 11
1.0
 21
1.0
 12
0.0
 22
0.0
 13
0.0
 23
0.0
 14
0.5
 24
0.5
 15
0.5
 25
0.5
 16
0.0
 26
0.0
 36
1.0
 17
0.0
 27
0.0
 37
0.0
 40
1000.0
 41
1.34
 42
50.0
 43
0.0
 44
0.0
 50
0.0
 51
0.0
 71
0
 72
1000
 73
1
 74
3
 75
0
 76
0
 77
0
 78
0
281
0
 65
0
146
0.0
  0
ENDTAB
  0
TABLE
  2
LTYPE
  5
2
330
0
100
AcDbSymbolTable
 70
3
  0
LTYPE
  5
24
330
2
100
AcDbSymbolTableRecord
100
AcDbLinetypeTableRecord
  2
ByBlock
 70
0
  3

 72
65
 73
0
 40
0.0
  0
LTYPE
  5
25
330
2
100
AcDbSymbolTableRecord
100
AcDbLinetypeTableRecord
  2
ByLayer
 70
0
  3

 72
65
 73
0
 40
0.0
  0
LTYPE
  5
26
330
2
100
AcDbSymbolTableRecord
100
AcDbLinetypeTableRecord
  2
Continuous
 70
0
  3

 72
65
 73
0
 40
0.0
  0
ENDTAB
  0
TABLE
  2
LAYER
  5
1
330
0
100
AcDbSymbolTable
 70
2
  0
LAYER
  5
27
330
1
100
AcDbSymbolTableRecord
100
AcDbLayerTableRecord
  2
0
 70
0
 62
7
  6
Continuous
370
-3
390
13
  0
LAYER
  5
28
330
1
100
AcDbSymbolTableRecord
100
AcDbLayerTableRecord
  2
Defpoints
 70
0
 62
7
  6
Continuous
290
0
370
-3
390
13
  0
ENDTAB
  0
TABLE
  2
STYLE
  5
5
330
0
100
AcDbSymbolTable
 70
1
  0
STYLE
  5
29
330
5
100
AcDbSymbolTableRecord
100
AcDbTextStyleTableRecord
  2
Standard
 70
0
 40
0.0
 41
1.0
 50
0.0
 71
0
 42
2.5
  3
txt
  4

  0
ENDTAB
  0
TABLE
  2
VIEW
  5
7
330
0
100
AcDbSymbolTable
 70
0
  0
ENDTAB
  0
TABLE
  2
UCS
  5
6
330
0
100
AcDbSymbolTable
 70
0
  0
ENDTAB
  0
TABLE
  2
APPID
  5
3
330
0
100
AcDbSymbolTable
 70
3
  0
APPID
  5
2A
330
3
100
AcDbSymbolTableRecord
100
AcDbRegAppTableRecord
  2
ACAD
 70
0
  0
APPID
  5
A6
330
3
100
AcDbSymbolTableRecord
100
AcDbRegAppTableRecord
  2
HATCHBACKGROUNDCOLOR
 70
0
  0
APPID
  5
A7
330
3
100
AcDbSymbolTableRecord
100
AcDbRegAppTableRecord
  2
EZDXF
 70
0
  0
ENDTAB
  0
TABLE
  2
DIMSTYLE
  5
4
330
0
100
AcDbSymbolTable
 70
1
100
AcDbDimStyleTable
  0
DIMSTYLE
105
2B
330
4
100
AcDbSymbolTableRecord
100
AcDbDimStyleTableRecord
  2
Standard
 70
0
  3

  4

 40
1.0
 41
2.5
 42
0.625
 43
3.75
 44
1.25
 45
0.0
 46
0.0
 47
0.0
 48
0.0
140
2.5
141
2.5
142
0.0
143
0.03937007874
144
1.0
145
0.0
146
1.0
147
0.625
148
0.0
 71
0
 72
0
 73
0
 74
0
 75
0
 76
0
 77
1
 78
8
 79
3
170
0
171
3
172
1
173
0
174
0
175
0
176
0
177
0
178
0
179
2
271
2
272
2
273
2
274
3
275
0
276
0
277
2
278
44
279
0
280
0
281
0
282
0
283
0
284
8
285
0
286
0
288
0
289
3
371
-2
372
-2
  0
ENDTAB
  0
TABLE
  2
BLOCK_RECORD
  5
9
330
0
100
AcDbSymbolTable
 70
2
  0
BLOCK_RECORD
  5
17
330
9
100
AcDbSymbolTableRecord
100
AcDbBlockTableRecord
  2
*Model_Space
340
1A
  0
BLOCK_RECORD
  5
1B
330
9
100
AcDbSymbolTableRecord
100
AcDbBlockTableRecord
  2
*Paper_Space
340
1E
  0
ENDTAB
  0
ENDSEC
  0
SECTION
  2
BLOCKS
  0
BLOCK
  5
18
330
17
100
AcDbEntity
  8
0
100
AcDbBlockBegin
  2
*Model_Space
 70
0
 10
0.0
 20
0.0
 30
0.0
  3
*Model_Space
  1

  0
ENDBLK
  5
19
330
17
100
AcDbEntity
  8
0
100
AcDbBlockEnd
  0
BLOCK
  5
1C
330
1B
100
AcDbEntity
  8
0
100
AcDbBlockBegin
  2
*Paper_Space
 70
0
 10
0.0
 20
0.0
 30
0.0
  3
*Paper_Space
  1

  0
ENDBLK
  5
1D
330
1B
100
AcDbEntity
  8
0
100
AcDbBlockEnd
  0
ENDSEC
  0
SECTION
  2
ENTITIES
  0
ARC
  5
2F
330
17
100
AcDbEntity
  8
0
100
AcDbCircle
 10
-162.55505395833993
 20
-0.20969029936895822
 30
0.0
 40
407.59561894581145
100
AcDbArc
 50
359.3806767981249
 51
360.0294761959281
  0
ARC
  5
30
330
17
100
AcDbEntity
  8
0
100
AcDbCircle
 10
-78.27259701974378
 20
-1.0434349631004807
 30
0.0
 40
323.308939965068
100
AcDbArc
 50
717.6419057737301
 51
719.3669753385557
  0
ARC
  5
31
330
17
100
AcDbEntity
  8
0
100
AcDbCircle
 10
-148.77546950052604
 20
1.7984737338692867
 30
0.0
 40
393.8691603293014
100
AcDbArc
 50
716.518003818657
 51
717.6508275112592
  0
ARC
  5
32
330
17
100
AcDbEntity
  8
0
100
AcDbCircle
 10
-93.70581020558043
 20
-1.5323882867858174
 30
0.0
 40
338.69860853570503
100
AcDbArc
 50
715.1972820316397
 51
716.5146311796475
  0
ARC
  5
33
330
17
100
AcDbEntity
  8
0
100
AcDbCircle
 10
-106.2368694231016
 20
-0.3439121705218895
 30
0.0
 40
351.2851733396032
100
AcDbArc
 50
713.5081705921017
 51
715.175240425359
  0
ARC
  5
34
330
17
100
AcDbEntity
  8
0
100
AcDbCircle
 10
-87.5105154530469
 20
-2.385590831540412
 30
0.0
 40
332.4479878173896
100
AcDbArc
 50
710.8925404521628
 51
713.4928934472796
  0
ARC
  5
35
330
17
100
AcDbEntity
  8
0
100
AcDbCircle
 10
-75.60900651087422
 20
-4.287087073657176
 30
0.0
 40
320.3952722810851
100
AcDbArc
 50
708.3673112660916
 51
710.891409333995
  0
ARC
  5
36
330
17
100
AcDbEntity
  8
0
100
AcDbCircle
 10
-64.33476519584472
 20
-6.616033608773364
 30
0.0
 40
308.8827556956
100
AcDbArc
 50
706.3825581781987
 51
708.3687598458417
  0
ARC
  5
37
330
17
100
AcDbEntity
  8
0
100
AcDbCircle
 10
-58.20566981987568
 20
-8.025412010580112
 30
0.0
 40
302.5940722074917
100
AcDbArc
 50
702.6823587856077
 51
706.3686861209413
  0
ARC
  5
38
330
17
100
AcDbEntity
  8
0
100
AcDbCircle
 10
-47.001396372094725
 20
-11.519222512636475
 30
0.0
 40
290.857407649054
100
AcDbArc
 50
699.9019805649497
 51
702.6824120328247
  0
ARC
  5
39
330
17
100
AcDbEntity
  8
0
100
AcDbCircle
 10
-42.419352627917824
 20
-13.166689847352416
 30
0.0
 40
285.9881896328981
100
AcDbArc
 50
696.97121721849
 51
699.8964975052687
  0
ARC
  5
3A
330
17
100
AcDbEntity
  8
0
100
AcDbCircle
 10
-39.05897799165208
 20
-14.696351090946905
 30
0.0
 40
282.29722915135847
100
AcDbArc
 50
695.0144490149414
 51
696.9901340263024
  0
ARC
  5
3B
330
17
100
AcDbEntity
  8
0
100
AcDbCircle
 10
-34.52766971452007
 20
-16.74058058305917
 30
0.0
 40
277.3264752755492
100
AcDbArc
 50
691.8846340398696
 51
695.0018341944109
  0
ARC
  5
3C
330
17
100
AcDbEntity
  8
0
100
AcDbCircle
 10
-34.41059282307302
 20
-16.892687407705182
 30
0.0
 40
277.15155163088144
100
AcDbArc
 50
689.6873600970987
 51
691.9009628755226
  0
ARC
  5
3D
330
17
100
AcDbEntity
  8
0
100
AcDbCircle
 10
-29.61337044891252
 20
-19.648424466693683
 30
0.0
 40
271.6191726441556
100
AcDbArc
 50
684.1343889131595
 51
689.6784455908319
  0
ARC
  5
3E
330
17
100
AcDbEntity
  8
0
100
AcDbCircle
 10
-26.34345535415745
 20
-21.992872628367934
 30
0.0
 40
267.5954435998288
100
AcDbArc
 50
680.0667422906276
 51
684.1309904445095
  0
ARC
  5
3F
330
17
100
AcDbEntity
  8
0
100
AcDbCircle
 10
-23.201784888536153
 20
-24.615574941440087
 30
0.0
 40
263.5026337204588
100
AcDbArc
 50
672.8690853975369
 51
680.0655348369797
  0
ARC
  5
40
330
17
100
AcDbEntity
  8
0
100
AcDbCircle
 10
-20.498572077054025
 20
-27.539439231576694
 30
0.0
 40
259.52042736169284
100
AcDbArc
 50
668.4652284548492
 51
672.870844440142
  0
ARC
  5
41
330
17
100
AcDbEntity
  8
0
100
AcDbCircle
 10
-20.635721877781908
 20
-27.467672137640164
 30
0.0
 40
259.6619288139957
100
AcDbArc
 50
665.1498131087827
 51
668.4790733259431
  0
ARC
  5
42
330
17
100
AcDbEntity
  8
0
100
AcDbCircle
 10
-19.95249589554482
 20
-28.412200598720176
 30
0.0
 40
258.49610895097726
100
AcDbArc
 50
659.7525273715964
 51
665.146519624272
  0
ARC
  5
43
330
17
100
AcDbEntity
  8
0
100
AcDbCircle
 10
-19.139247080033158
 20
-29.746634999805337
 30
0.0
 40
256.9339841158489
100
AcDbArc
 50
655.835467948576
 51
659.7427546154164
  0
ARC
  5
44
330
17
100
AcDbEntity
  8
0
100
AcDbCircle
 10
-19.166524521792287
 20
-29.792186907866835
 30
0.0
 40
256.90489697811813
100
AcDbArc
 50
651.7205455259514
 51
655.845370631394
  0
ARC
  5
45
330
17
100
AcDbEntity
  8
0
100
AcDbCircle
 10
-19.437478171944022
 20
-28.9488793823987
 30
0.0
 40
257.7886044549616
100
AcDbArc
 50
648.6782007457564
 51
651.7071265894093
  0
ARC
  5
46
330
17
100
AcDbEntity
  8
0
100
AcDbCircle
 10
-19.06974801148947
 20
-30.201354147406647
 30
0.0
 40
256.4843756249382
100
AcDbArc
 50
643.5798614833435
 51
648.6899835404967
  0
ARC
  5
47
330
17
100
AcDbEntity
  8
0
100
AcDbCircle
 10
-19.468507423268118
 20
-28.684568916370296
 30
0.0
 40
258.05244746742704
100
AcDbArc
 50
639.4803665986162
 51
643.5868487345523
  0
ARC
  5
48
330
17
100
AcDbEntity
  8
0
100
AcDbCircle
 10
-19.583009454122127
 20
-27.59953705928865
 30
0.0
 40
259.1415129881108
100
AcDbArc
 50
636.5603219302321
 51
639.4658233955474
  0
ARC
  5
49
330
17
100
AcDbEntity
  8
0
100
AcDbCircle
 10
-19.418280052051255
 20
-29.49253468531475
 30
0.0
 40
257.24213922064524
100
AcDbArc
 50
632.3442193549196
 51
636.5720426270111
  0
ARC
  5
4A
330
17
100
AcDbEntity
  8
0
100
AcDbCircle
 10
-19.560839141144754
 20
-26.913725057031485
 30
0.0
 40
259.82477107209434
100
AcDbArc
 50
625.9126784794696
 51
632.352369423236
  0
ARC
  5
4B
330
17
100
AcDbEntity
  8
0
100
AcDbCircle
 10
-19.518580315617314
 20
-25.796988020826035
 30
0.0
 40
260.94177768924874
100
AcDbArc
 50
621.0049383039589
 51
625.9209006134399
  0
ARC
  5
4C
330
17
100
AcDbEntity
  8
0
100
AcDbCircle
 10
-19.172730741691197
 20
-23.32689620519733
 30
0.0
 40
263.4356762105292
100
AcDbArc
 50
616.4627861079407
 51
621.0146387613561
  0
ARC
  5
4D
330
17
100
AcDbEntity
  8
0
100
AcDbCircle
 10
-18.70766313843338
 20
-21.22547321908567
 30
0.0
 40
265.5877313295094
100
AcDbArc
 50
612.2713897038468
 51
616.4713608919826
  0
ARC
  5
4E
330
17
100
AcDbEntity
  8
0
100
AcDbCircle
 10
-18.248698708134608
 20
-19.60676223021167
 30
0.0
 40
267.2694288389065
100
AcDbArc
 50
607.9011181231418
 51
612.2833397189002
  0
ARC
  5
4F
330
17
100
AcDbEntity
  8
0
100
AcDbCircle
 10
-17.604975978820903
 20
-17.905224288177124
 30
0.0
 40
269.0882896079002
100
AcDbArc
 50
602.4178548378399
 51
607.9104222953858
  0
ARC
  5
50
330
17
100
AcDbEntity
  8
0
100
AcDbCircle
 10
-17.358950187150334
 20
-17.34667738843936
 30
0.0
 40
269.697347662238
100
AcDbArc
 50
598.393897069102
 51
602.4264702881303
  0
ARC
  5
51
330
17
100
AcDbEntity
  8
0
100
AcDbCircle
 10
-15.456954060684929
 20
-14.117691881726444
 30
0.0
 40
273.4441877228617
100
AcDbArc
 50
595.9614792105712
 51
598.4090590622131
  0
ARC
  5
52
330
17
100
AcDbEntity
  8
0
100
AcDbCircle
 10
-14.239276908715729
 20
-12.480581529467685
 30
0.0
 40
275.48239172572016
100
AcDbArc
 50
593.9176463385602
 51
595.9422055152412
  0
ARC
  5
53
330
17
100
AcDbEntity
  8
0
100
AcDbCircle
 10
-15.638274942416462
 20
-14.24310992939823
 30
0.0
 40
273.23403648389797
100
AcDbArc
 50
591.7937831329989
 51
593.9370626951027
  0
ARC
  5
54
330
17
100
AcDbEntity
  8
0
100
AcDbCircle
 10
-11.263049537475975
 20
-8.8228409618753
 30
0.0
 40
280.1993183949948
100
AcDbArc
 50
589.6862770951478
 51
591.7762783319395
  0
ARC
  5
55
330
17
100
AcDbEntity
  8
0
100
AcDbCircle
 10
-13.060808827689428
 20
-10.890051418659624
 30
0.0
 40
277.460054001798
100
AcDbArc
 50
586.3764593167664
 51
589.6931716215969
  0
ARC
  5
56
330
17
100
AcDbEntity
  8
0
100
AcDbCircle
 10
-10.311073967229808
 20
-7.952050959527128
 30
0.0
 40
281.48402076919507
100
AcDbArc
 50
583.3127250166807
 51
586.3838838016482
  0
ARC
  5
57
330
17
100
AcDbEntity
  8
0
100
AcDbCircle
 10
-8.760521076028338
 20
-6.609837720616213
 30
0.0
 40
283.5329752875829
100
AcDbArc
 50
581.2297109519633
 51
583.2951388746807
  0
ARC
  5
58
330
17
100
AcDbEntity
  8
0
100
AcDbCircle
 10
-10.625507292747022
 20
-8.1452297989739
 30
0.0
 40
281.11848761168307
100
AcDbArc
 50
578.4673274147863
 51
581.2448842533687
  0
ARC
  5
59
330
17
100
AcDbEntity
  8
0
100
AcDbCircle
 10
-5.633942374615617
 20
-4.068362878202521
 30
0.0
 40
287.5628199488974
100
AcDbArc
 50
576.4481667993439
 51
578.4846502505187
  0
ARC
  5
5A
330
17
100
AcDbEntity
  8
0
100
AcDbCircle
 10
-6.324715977001641
 20
-4.692188666339064
 30
0.0
 40
286.63658754580115
100
AcDbArc
 50
573.8030967934543
 51
576.4298934975807
  0
ARC
  5
5B
330
17
100
AcDbEntity
  8
0
100
AcDbCircle
 10
-5.653024577695681
 20
-4.2465857750380565
 30
0.0
 40
287.44282120758504
100
AcDbArc
 50
570.6979079981668
 51
573.8024163896373
  0
ARC
  5
5C
330
17
100
AcDbEntity
  8
0
100
AcDbCircle
 10
-1.9319411411353151
 20
-1.9695525813224322
 30
0.0
 40
291.8049785784433
100
AcDbArc
 50
568.4157803207193
 51
570.709354906878
  0
ARC
  5
5D
330
17
100
AcDbEntity
  8
0
100
AcDbCircle
 10
-1.3374761635763446
 20
-1.7639928391098465
 30
0.0
 40
292.42565371222616
100
AcDbArc
 50
566.297796107812
 51
568.3957770316557
  0
ARC
  5
5E
330
17
100
AcDbEntity
  8
0
100
AcDbCircle
 10
-4.809255678535866
 20
-3.436029921719637
 30
0.0
 40
288.5725388713833
100
AcDbArc
 50
563.6963927531377
 51
566.3055670592554
  0
ARC
  5
5F
330
17
100
AcDbEntity
  8
0
100
AcDbCircle
 10
-0.19079103869458547
 20
-1.343861823726911
 30
0.0
 40
293.64259668079643
100
AcDbArc
 50
559.909330869068
 51
563.7080332052649
  0
ARC
  5
60
330
17
100
AcDbEntity
  8
0
100
AcDbCircle
 10
1.9629014110652625
 20
-0.5022721420248786
 30
0.0
 40
295.95422336580367
100
AcDbArc
 50
557.5648929716776
 51
559.9205376925668
  0
ARC
  5
61
330
17
100
AcDbEntity
  8
0
100
AcDbCircle
 10
3.414063540640369
 20
-0.13419794242508942
 30
0.0
 40
297.4487753937749
100
AcDbArc
 50
554.7355591433231
 51
557.5481294603255
  0
ARC
  5
62
330
17
100
AcDbEntity
  8
0
100
AcDbCircle
 10
3.8308329832542416
 20
-0.13188008731469836
 30
0.0
 40
297.85246539936753
100
AcDbArc
 50
552.843092606614
 51
554.71559818694
  0
ARC
  5
63
330
17
100
AcDbEntity
  8
0
100
AcDbCircle
 10
3.2282313981102355
 20
-0.18671955365880422
 30
0.0
 40
297.252799485393
100
AcDbArc
 50
549.5751097108947
 51
552.8586051808493
  0
ARC
  5
64
330
17
100
AcDbEntity
  8
0
100
AcDbCircle
 10
23.847119056481212
 20
3.353447438796593
 30
0.0
 40
318.17341957780354
100
AcDbArc
 50
548.0084892191262
 51
549.5861111325025
  0
ARC
  5
65
330
17
100
AcDbEntity
  8
0
100
AcDbCircle
 10
2.263432202485955
 20
0.2590304087157165
 30
0.0
 40
296.3689893563145
100
AcDbArc
 50
544.8923310099347
 51
547.9974303797094
  0
ARC
  5
66
330
17
100
AcDbEntity
  8
0
100
AcDbCircle
 10
-0.27886846428126866
 20
-0.05227018863979538
 30
0.0
 40
293.8093926004086
100
AcDbArc
 50
543.0707675735887
 51
544.874126818984
  0
ARC
  5
67
330
17
100
AcDbEntity
  8
0
100
AcDbCircle
 10
-1.245824242137582
 20
0.004919964487726247
 30
0.0
 40
292.84690246346844
100
AcDbArc
 50
541.2827890829011
 51
543.0920753693159
  0
ARC
  5
68
330
17
100
AcDbEntity
  8
0
100
AcDbCircle
 10
1.8512013859736995
 20
-0.010768436692160321
 30
0.0
 40
295.9427742987962
100
AcDbArc
 50
538.0625285648314
 51
541.2663292993524
  0
ARC
  5
69
330
17
100
AcDbEntity
  8
0
100
AcDbCircle
 10
-2.960949346947719
 20
0.10271816745853357
 30
0.0
 40
291.1294591874994
100
AcDbArc
 50
536.2328719811676
 51
538.0528317030376
  0
ARC
  5
6A
330
17
100
AcDbEntity
  8
0
100
AcDbCircle
 10
27.575738373890804
 20
-1.8369120289585226
 30
0.0
 40
321.72774003792483
100
AcDbArc
 50
534.7719765287817
 51
536.2454921099968
  0
ARC
  5
6B
330
17
100
AcDbEntity
  8
0
100
AcDbCircle
 10
3.4657381986715707
 20
0.28233113809415045
 30
0.0
 40
297.52489975938835
100
AcDbArc
 50
532.8807578152553
 51
534.7553249787325
  0
ARC
  5
6C
330
17
100
AcDbEntity
  8
0
100
AcDbCircle
 10
3.323507760278252
 20
0.4118468539340938
 30
0.0
 40
297.3677193532796
100
AcDbArc
 50
530.9327877829877
 51
532.902123687787
  0
ARC
  5
6D
330
17
100
AcDbEntity
  8
0
100
AcDbCircle
 10
5.918097029903374
 20
-0.03814823439608972
 30
0.0
 40
300.0006708764029
100
AcDbArc
 50
528.5091847236612
 51
530.9260110565684
  0
ARC
  5
6E
330
17
100
AcDbEntity
  8
0
100
AcDbCircle
 10
-5.183398992805677
 20
2.2002772193370674
 30
0.0
 40
288.67558081047486
100
AcDbArc
 50
525.9939749979166
 51
528.5056163847046
  0
ARC
  5
6F
330
17
100
AcDbEntity
  8
0
100
AcDbCircle
 10
11.25234360761386
 20
-1.8198223587779694
 30
0.0
 40
305.5957227017354
100
AcDbArc
 50
524.2746537453909
 51
526.0084603461285
  0
ARC
  5
70
330
17
100
AcDbEntity
  8
0
100
AcDbCircle
 10
1.0373142262092372
 20
0.9830957252173675
 30
0.0
 40
295.0032719336718
100
AcDbArc
 50
521.3305397567808
 51
524.2609551137598
  0
ARC
  5
71
330
17
100
AcDbEntity
  8
0
100
AcDbCircle
 10
-3.856778416459675
 20
2.533568570909722
 30
0.0
 40
289.8703619744636
100
AcDbArc
 50
519.483353507915
 51
521.3112184927709
  0
ARC
  5
72
330
17
100
AcDbEntity
  8
0
100
AcDbCircle
 10
-3.036205551891604
 20
2.347942860562057
 30
0.0
 40
290.7039573130535
100
AcDbArc
 50
517.6831477908494
 51
519.5057713587869
  0
ARC
  5
73
330
17
100
AcDbEntity
  8
0
100
AcDbCircle
 10
-1.3816138474767587
 20
1.5557209647332684
 30
0.0
 40
292.53544572984555
100
AcDbArc
 50
514.7075270161698
 51
517.6626633119706
  0
ARC
  5
74
330
17
100
AcDbEntity
  8
0
100
AcDbCircle
 10
-4.535795865742054
 20
2.945814931933228
 30
0.0
 40
289.08974239361294
100
AcDbArc
 50
511.50625507099505
 51
514.6895405035788
  0
ARC
  5
75
330
17
100
AcDbEntity
  8
0
100
AcDbCircle
 10
-7.382080692121103
 20
4.546250275130262
 30
0.0
 40
285.8247346382055
100
AcDbArc
 50
508.39393730480356
 51
511.51602070285
  0
ARC
  5
76
330
17
100
AcDbEntity
  8
0
100
AcDbCircle
 10
-7.190005521463428
 20
4.539417096827492
 30
0.0
 40
285.99190332090905
100
AcDbArc
 50
506.5602846300286
 51
508.41293807049675
  0
ARC
  5
77
330
17
100
AcDbEntity
  8
0
100
AcDbCircle
 10
-6.941145760858483
 20
4.239389261724199
 30
0.0
 40
286.36492805433335
100
AcDbArc
 50
504.68739015608116
 51
506.53763029226684
  0
ARC
  5
78
330
17
100
AcDbEntity
  8
0
100
AcDbCircle
 10
-9.392660853415666
 20
6.107424822747049
 30
0.0
 40
283.28468615303314
100
AcDbArc
 50
502.74028765156515
 51
504.7090859406296
  0
ARC
  5
79
330
17
100
AcDbEntity
  8
0
100
AcDbCircle
 10
-10.89812117542387
 20
7.2034540847495805
 30
0.0
 40
281.42275007371666
100
AcDbArc
 50
498.86776595038043
 51
502.7323230461287
  0
ARC
  5
7A
330
17
100
AcDbEntity
  8
0
100
AcDbCircle
 10
-11.239632432702376
 20
7.435851626206301
 30
0.0
 40
281.01261300828503
100
AcDbArc
 50
496.0790485802223
 51
498.85765186250546
  0
ARC
  5
7B
330
17
100
AcDbEntity
  8
0
100
AcDbCircle
 10
-14.494362247133212
 20
10.691442738203051
 30
0.0
 40
276.40995451616277
100
AcDbArc
 50
493.97849130244725
 51
496.09714483200275
  0
ARC
  5
7C
330
17
100
AcDbEntity
  8
0
100
AcDbCircle
 10
-11.673674489192575
 20
7.663646077764014
 30
0.0
 40
280.54737676441596
100
AcDbArc
 50
491.1804332251785
 51
493.9636442637863
  0
ARC
  5
7D
330
17
100
AcDbEntity
  8
0
100
AcDbCircle
 10
-15.589623888563304
 20
12.01821284795028
 30
0.0
 40
274.69157620206977
100
AcDbArc
 50
489.03181631615246
 51
491.16372343198805
  0
ARC
  5
7E
330
17
100
AcDbEntity
  8
0
100
AcDbCircle
 10
-13.629574590461521
 20
9.749903403261357
 30
0.0
 40
277.68796744560154
100
AcDbArc
 50
486.9423266787065
 51
489.0512294518695
  0
ARC
  5
7F
330
17
100
AcDbEntity
  8
0
100
AcDbCircle
 10
-16.261063073654977
 20
13.16567133056455
 30
0.0
 40
273.37625939965534
100
AcDbArc
 50
481.83139706256446
 51
486.93178876809014
  0
ARC
  5
80
330
17
100
AcDbEntity
  8
0
100
AcDbCircle
 10
-16.5825359430925
 20
13.574639217645824
 30
0.0
 40
272.85923349286065
100
AcDbArc
 50
478.7533048416095
 51
481.8193385476942
  0
ARC
  5
81
330
17
100
AcDbEntity
  8
0
100
AcDbCircle
 10
-19.074424740623925
 20
18.23008799876419
 30
0.0
 40
267.5791755602663
100
AcDbArc
 50
475.4300722156563
 51
478.76504272758746
  0
ARC
  5
82
330
17
100
AcDbEntity
  8
0
100
AcDbCircle
 10
-18.398800267741944
 20
17.005469956514474
 30
0.0
 40
268.9752833564567
100
AcDbArc
 50
473.06346117084286
 51
475.4480295858361
  0
ARC
  5
83
330
17
100
AcDbEntity
  8
0
100
AcDbCircle
 10
-17.913634131576885
 20
15.645983999814007
 30
0.0
 40
270.4161844106626
100
AcDbArc
 50
470.6733365266706
 51
473.04519886711586
  0
ARC
  5
84
330
17
100
AcDbEntity
  8
0
100
AcDbCircle
 10
-19.37200165576941
 20
19.70209977874964
 30
0.0
 40
266.1063987468984
100
AcDbArc
 50
467.1248544915105
 51
470.6878717882646
  0
ARC
  5
85
330
17
100
AcDbEntity
  8
0
100
AcDbCircle
 10
-19.294844939584614
 20
19.70501597352728
 30
0.0
 40
266.1263341138829
100
AcDbArc
 50
464.73081855900455
 51
467.1409143788713
  0
ARC
  5
86
330
17
100
AcDbEntity
  8
0
100
AcDbCircle
 10
-18.990504159359215
 20
18.231121713644797
 30
0.0
 40
267.62919241566385
100
AcDbArc
 50
462.2128366768341
 51
464.7135970690168
  0
ARC
  5
87
330
17
100
AcDbEntity
  8
0
100
AcDbCircle
 10
-19.677193052518646
 20
21.72208246961432
 30
0.0
 40
264.0719280491407
100
AcDbArc
 50
455.99693083879765
 51
462.22744808120956
  0
ARC
  5
88
330
17
100
AcDbEntity
  8
0
100
AcDbCircle
 10
-19.793588434923908
 20
22.649314700461332
 30
0.0
 40
263.1375635702984
100
AcDbArc
 50
449.31626993016005
 51
455.9928186632577
  0
ARC
  5
89
330
17
100
AcDbEntity
  8
0
100
AcDbCircle
 10
-19.850675173463138
 20
21.504818831937087
 30
0.0
 40
264.2825323258197
100
AcDbArc
 50
445.7192491241175
 51
449.3068554261696
  0
ARC
  5
8A
330
17
100
AcDbEntity
  8
0
100
AcDbCircle
 10
-19.553935981864814
 20
26.297382940392623
 30
0.0
 40
259.48117012699055
100
AcDbArc
 50
442.5889591336892
 51
445.7055979573443
  0
ARC
  5
8B
330
17
100
AcDbEntity
  8
0
100
AcDbCircle
 10
-19.664089332880007
 20
25.02272649808461
 30
0.0
 40
260.75942736511786
100
AcDbArc
 50
434.901153237726
 51
442.6010837623116
  0
ARC
  5
8C
330
17
100
AcDbEntity
  8
0
100
AcDbCircle
 10
-19.55546213261695
 20
25.289199516019096
 30
0.0
 40
260.47391042060735
100
AcDbArc
 50
431.3759511319763
 51
434.90895436113175
  0
ARC
  5
8D
330
17
100
AcDbEntity
  8
0
100
AcDbCircle
 10
-19.35469733522649
 20
26.05278453192122
 30
0.0
 40
259.68616783535856
100
AcDbArc
 50
425.5653089432724
 51
431.36412408134544
  0
ARC
  5
8E
330
17
100
AcDbEntity
  8
0
100
AcDbCircle
 10
-18.850942101602143
 20
27.241231564218708
 30
0.0
 40
258.3957489827936
100
AcDbArc
 50
421.34904967433295
 51
425.55799776091715
  0
ARC
  5
8F
330
17
100
AcDbEntity
  8
0
100
AcDbCircle
 10
-18.79383106876906
 20
27.284364334650434
 30
0.0
 40
258.3306702979819
100
AcDbArc
 50
417.36146806632473
 51
421.3555786241315
  0
ARC
  5
90
330
17
100
AcDbEntity
  8
0
100
AcDbCircle
 10
-20.34539403978811
 20
24.79338831274964
 30
0.0
 40
261.2652636849735
100
AcDbArc
 50
412.03274350800075
 51
417.36956479964783
  0
ARC
  5
91
330
17
100
AcDbEntity
  8
0
100
AcDbCircle
 10
-18.95406368277757
 20
26.50557298476923
 30
0.0
 40
259.0596007269977
100
AcDbArc
 50
405.3683664080468
 51
412.0423682469935
  0
ARC
  5
92
330
17
100
AcDbEntity
  8
0
100
AcDbCircle
 10
-19.602448686139486
 20
25.939046663918447
 30
0.0
 40
259.91829749955536
100
AcDbArc
 50
402.242992316588
 51
405.35438960707836
  0
ARC
  5
93
330
17
100
AcDbEntity
  8
0
100
AcDbCircle
 10
-21.718699449570977
 20
23.974493649146467
 30
0.0
 40
262.8057324906186
100
AcDbArc
 50
397.15657616844084
 51
402.2498934129258
  0
ARC
  5
94
330
17
100
AcDbEntity
  8
0
100
AcDbCircle
 10
-21.844313363920058
 20
23.935472818500216
 30
0.0
 40
262.92938283029144
100
AcDbArc
 50
394.2831763413898
 51
397.14681995598755
  0
ARC
  5
95
330
17
100
AcDbEntity
  8
0
100
AcDbCircle
 10
-27.849115782424946
 20
19.836437159455585
 30
0.0
 40
270.20009370381945
100
AcDbArc
 50
390.5686768520819
 51
394.2841260265641
  0
ARC
  5
96
330
17
100
AcDbEntity
  8
0
100
AcDbCircle
 10
-23.836297590900703
 20
22.293448356324063
 30
0.0
 40
265.495401787155
100
AcDbArc
 50
388.24176121925683
 51
390.5525486846451
  0
ARC
  5
97
330
17
100
AcDbEntity
  8
0
100
AcDbCircle
 10
-33.40109469696339
 20
17.142488942951445
 30
0.0
 40
276.3592676849957
100
AcDbArc
 50
384.2079345130137
 51
388.24420514501173
  0
ARC
  5
98
330
17
100
AcDbEntity
  8
0
100
AcDbCircle
 10
-32.14498652178163
 20
17.77833321904842
 30
0.0
 40
274.9528805020727
100
AcDbArc
 50
381.45599942636846
 51
384.19441790466465
  0
ARC
  5
99
330
17
100
AcDbEntity
  8
0
100
AcDbCircle
 10
-42.46819237790751
 20
13.701597570914032
 30
0.0
 40
286.05206465176195
100
AcDbArc
 50
377.26766390107633
 51
381.45962931520376
  0
ARC
  5
9A
330
17
100
AcDbEntity
  8
0
100
AcDbCircle
 10
-50.2768006881393
 20
11.37519822128246
 30
0.0
 40
294.1992689016332
100
AcDbArc
 50
375.73229746477534
 51
377.24890328309436
  0
ARC
  5
9B
330
17
100
AcDbEntity
  8
0
100
AcDbCircle
 10
-55.16090445267909
 20
9.882488857509543
 30
0.0
 40
299.305176161047
100
AcDbArc
 50
373.42456178669903
 51
375.7538332871675
  0
ARC
  5
9C
330
17
100
AcDbEntity
  8
0
100
AcDbCircle
 10
-75.17665382733601
 20
5.009954748529367
 30
0.0
 40
319.9052974022387
100
AcDbArc
 50
372.046380090185
 51
373.4411188565401
  0
ARC
  5
9D
330
17
100
AcDbEntity
  8
0
100
AcDbCircle
 10
-62.93565720650683
 20
7.754345864901666
 30
0.0
 40
307.361070448078
100
AcDbArc
 50
371.02427463358697
 51
372.0222921204187
  0
ARC
  5
9E
330
17
100
AcDbEntity
  8
0
100
AcDbCircle
 10
-121.71426611159939
 20
-3.7778169365883514
 30
0.0
 40
367.2603374474108
100
AcDbArc
 50
370.0495591123029
 51
371.03666477112574
  0
ARC
  5
9F
330
17
100
AcDbEntity
  8
0
100
AcDbCircle
 10
-59.41731329653748
 20
7.308643393567877
 30
0.0
 40
303.98449900002527
100
AcDbArc
 50
368.57318761655006
 51
370.04097407218575
  0
ARC
  5
A0
330
17
100
AcDbEntity
  8
0
100
AcDbCircle
 10
-99.98787930523171
 20
1.1899777684493529
 30
0.0
 40
345.01411532591055
100
AcDbArc
 50
367.19951345896925
 51
368.5735756243927
  0
ARC
  5
A1
330
17
100
AcDbEntity
  8
0
100
AcDbCircle
 10
-91.18775894573746
 20
2.1443493571418912
 30
0.0
 40
336.1637988356131
100
AcDbArc
 50
365.89882409169553
 51
367.2261065820436
  0
ARC
  5
A2
330
17
100
AcDbEntity
  8
0
100
AcDbCircle
 10
-94.14568063834136
 20
1.950654865282786
 30
0.0
 40
339.12600386951055
100
AcDbArc
 50
364.1531742149845
 51
365.88001591444
  0
ARC
  5
A3
330
17
100
AcDbEntity
  8
0
100
AcDbCircle
 10
-106.84960130529943
 20
0.9789671971939242
 30
0.0
 40
351.8671335394359
100
AcDbArc
 50
362.4968531992453
 51
364.1611658685664
  0
ARC
  5
A4
330
17
100
AcDbEntity
  8
0
100
AcDbCircle
 10
-129.51554844589043
 20
-0.08143070847654599
 30
0.0
 40
374.5578574706096
100
AcDbArc
 50
360.79546865449913
 51
362.5078608748553
  0
ARC
  5
A5
330
17
100
AcDbEntity
  8
0
100
AcDbCircle
 10
-135.314098463353
 20
0.006523967149405507
 30
0.0
 40
380.3546143486231
100
AcDbArc
 50
359.9990172440968
 51
360.77009400520984
  0
ENDSEC
  0
SECTION
  2
OBJECTS
  0
DICTIONARY
  5
A
330
0
100
AcDbDictionary
280
0
281
1
  3
ACAD_COLOR
350
B
  3
ACAD_GROUP
350
C
  3
ACAD_LAYOUT
350
D
  3
ACAD_MATERIAL
350
E
  3
ACAD_MLEADERSTYLE
350
F
  3
ACAD_MLINESTYLE
350
10
  3
ACAD_PLOTSETTINGS
350
11
  3
ACAD_PLOTSTYLENAME
350
12
  3
ACAD_SCALELIST
350
14
  3
ACAD_TABLESTYLE
350
15
  3
ACAD_VISUALSTYLE
350
16
  3
EZDXF_META
350
2D
  0
DICTIONARY
  5
B
330
A
100
AcDbDictionary
280
0
281
1
  0
DICTIONARY
  5
C
330
A
100
AcDbDictionary
280
0
281
1
  0
DICTIONARY
  5
D
330
A
100
AcDbDictionary
280
0
281
1
  3
Model
350
1A
  3
Layout1
350
1E
  0
DICTIONARY
  5
E
330
A
100
AcDbDictionary
280
0
281
1
  3
ByBlock
350
1F
  3
ByLayer
350
20
  3
Global
350
21
  0
DICTIONARY
  5
F
330
A
100
AcDbDictionary
280
0
281
1
  3
Standard
350
2C
  0
DICTIONARY
  5
10
330
A
100
AcDbDictionary
280
0
281
1
  3
Standard
350
22
  0
DICTIONARY
  5
11
330
A
100
AcDbDictionary
280
0
281
1
  0
ACDBDICTIONARYWDFLT
  5
12
330
A
100
AcDbDictionary
280
0
281
1
  3
Normal
350
13
100
AcDbDictionaryWithDefault
340
13
  0
ACDBPLACEHOLDER
  5
13
330
12
  0
DICTIONARY
  5
14
330
A
100
AcDbDictionary
280
0
281
1
  0
DICTIONARY
  5
15
330
A
100
AcDbDictionary
280
0
281
1
  0
DICTIONARY
  5
16
330
A
100
AcDbDictionary
280
0
281
1
  0
LAYOUT
  5
1A
330
D
100
AcDbPlotSettings
  1

  4
A3
  6

 40
7.5
 41
20.0
 42
7.5
 43
20.0
 44
420.0
 45
297.0
 46
0.0
 47
0.0
 48
0.0
 49
0.0
140
0.0
141
0.0
142
1.0
143
1.0
 70
1024
 72
1
 73
0
 74
5
  7

 75
16
 76
0
 77
2
 78
300
147
1.0
148
0.0
149
0.0
100
AcDbLayout
  1
Model
 70
1
 71
0
 10
0.0
 20
0.0
 11
420.0
 21
297.0
 12
0.0
 22
0.0
 32
0.0
 14
1e+20
 24
1e+20
 34
1e+20
 15
-1e+20
 25
-1e+20
 35
-1e+20
146
0.0
 13
0.0
 23
0.0
 33
0.0
 16
1.0
 26
0.0
 36
0.0
 17
0.0
 27
1.0
 37
0.0
 76
1
330
17
  0
LAYOUT
  5
1E
330
D
100
AcDbPlotSettings
  1

  4
A3
  6

 40
7.5
 41
20.0
 42
7.5
 43
20.0
 44
420.0
 45
297.0
 46
0.0
 47
0.0
 48
0.0
 49
0.0
140
0.0
141
0.0
142
1.0
143
1.0
 70
0
 72
1
 73
0
 74
5
  7

 75
16
 76
0
 77
2
 78
300
147
1.0
148
0.0
149
0.0
100
AcDbLayout
  1
Layout1
 70
1
 71
1
 10
0.0
 20
0.0
 11
420.0
 21
297.0
 12
0.0
 22
0.0
 32
0.0
 14
1e+20
 24
1e+20
 34
1e+20
 15
-1e+20
 25
-1e+20
 35
-1e+20
146
0.0
 13
0.0
 23
0.0
 33
0.0
 16
1.0
 26
0.0
 36
0.0
 17
0.0
 27
1.0
 37
0.0
 76
1
330
1B
  0
MATERIAL
  5
1F
102
{ACAD_REACTORS
330
E
102
}
330
E
100
AcDbMaterial
  1
ByBlock
  2

 70
0
 40
1.0
 71
1
 41
1.0
 91
-1023410177
 42
1.0
 72
1
  3

 73
1
 74
1
 75
1
 44
0.5
 73
0
 45
1.0
 46
1.0
 77
1
  4

 78
1
 79
1
170
1
 48
1.0
171
1
  6

172
1
173
1
174
1
140
1.0
141
1.0
175
1
  7

176
1
177
1
178
1
143
1.0
179
1
  8

270
1
271
1
272
1
145
1.0
146
1.0
273
1
  9

274
1
275
1
276
1
 42
1.0
 72
1
  3

 73
1
 74
1
 75
1
 94
63
  0
MATERIAL
  5
20
102
{ACAD_REACTORS
330
E
102
}
330
E
100
AcDbMaterial
  1
ByLayer
  2

 70
0
 40
1.0
 71
1
 41
1.0
 91
-1023410177
 42
1.0
 72
1
  3

 73
1
 74
1
 75
1
 44
0.5
 73
0
 45
1.0
 46
1.0
 77
1
  4

 78
1
 79
1
170
1
 48
1.0
171
1
  6

172
1
173
1
174
1
140
1.0
141
1.0
175
1
  7

176
1
177
1
178
1
143
1.0
179
1
  8

270
1
271
1
272
1
145
1.0
146
1.0
273
1
  9

274
1
275
1
276
1
 42
1.0
 72
1
  3

 73
1
 74
1
 75
1
 94
63
  0
MATERIAL
  5
21
102
{ACAD_REACTORS
330
E
102
}
330
E
100
AcDbMaterial
  1
Global
  2

 70
0
 40
1.0
 71
1
 41
1.0
 91
-1023410177
 42
1.0
 72
1
  3

 73
1
 74
1
 75
1
 44
0.5
 73
0
 45
1.0
 46
1.0
 77
1
  4

 78
1
 79
1
170
1
 48
1.0
171
1
  6

172
1
173
1
174
1
140
1.0
141
1.0
175
1
  7

176
1
177
1
178
1
143
1.0
179
1
  8

270
1
271
1
272
1
145
1.0
146
1.0
273
1
  9

274
1
275
1
276
1
 42
1.0
 72
1
  3

 73
1
 74
1
 75
1
 94
63
  0
MLINESTYLE
  5
22
102
{ACAD_REACTORS
330
10
102
}
330
10
100
AcDbMlineStyle
  2
Standard
 70
0
  3

 62
256
 51
90.0
 52
90.0
 71
2
 49
0.5
 62
256
  6
BYLAYER
 49
-0.5
 62
256
  6
BYLAYER
  0
MLEADERSTYLE
  5
2C
102
{ACAD_REACTORS
330
F
102
}
330
F
100
AcDbMLeaderStyle
179
2
170
2
171
1
172
0
 90
2
 40
0.0
 41
0.0
173
1
 91
-1056964608
 92
-2
290
1
 42
2.0
291
1
 43
8.0
  3
Standard
 44
4.0
300

342
29
174
1
175
1
176
0
178
1
 93
-1056964608
 45
4.0
292
0
297
0
 46
4.0
 94
-1056964608
 47
1.0
 49
1.0
140
1.0
294
1
141
0.0
177
0
142
1.0
295
0
296
0
143
3.75
271
0
272
9
273
9
  0
DICTIONARY
  5
2D
330
A
100
AcDbDictionary
281
1
  3
CREATED_BY_EZDXF
350
2E
  3
WRITTEN_BY_EZDXF
350
A8
  0
DICTIONARYVAR
  5
2E
330
2D
100
DictionaryVariables
280
0
  1
1.3.2 @ 2025-08-27T01:27:41.394934+00:00
  0
DICTIONARYVAR
  5
A8
330
2D
100
DictionaryVariables
280
0
  1
1.3.2 @ 2025-08-27T01:27:41.401679+00:00
  0
ENDSEC
  0
EOF
