  0
SECTION
  2
HEADER
  9
$ACADVER
  1
AC1015
  9
$ACADMAINTVER
 70
6
  9
$DWGCODEPAGE
  3
ANSI_1252
  9
$INSBASE
 10
0.0
 20
0.0
 30
0.0
  9
$EXTMIN
 10
1e+20
 20
1e+20
 30
1e+20
  9
$EXTMAX
 10
-1e+20
 20
-1e+20
 30
-1e+20
  9
$LIMMIN
 10
0.0
 20
0.0
  9
$LIMMAX
 10
420.0
 20
297.0
  9
$ORTHOMODE
 70
0
  9
$REGENMODE
 70
1
  9
$FILLMODE
 70
1
  9
$QTEXTMODE
 70
0
  9
$MIRRTEXT
 70
1
  9
$LTSCALE
 40
1.0
  9
$ATTMODE
 70
1
  9
$TEXTSIZE
 40
2.5
  9
$TRACEWID
 40
1.0
  9
$TEXTSTYLE
  7
Standard
  9
$CLAYER
  8
0
  9
$CELTYPE
  6
ByLayer
  9
$CECOLOR
 62
256
  9
$CELTSCALE
 40
1.0
  9
$DISPSILH
 70
0
  9
$DIMSCALE
 40
1.0
  9
$DIMASZ
 40
2.5
  9
$DIMEXO
 40
0.625
  9
$DIMDLI
 40
3.75
  9
$DIMRND
 40
0.0
  9
$DIMDLE
 40
0.0
  9
$DIMEXE
 40
1.25
  9
$DIMTP
 40
0.0
  9
$DIMTM
 40
0.0
  9
$DIMTXT
 40
2.5
  9
$DIMCEN
 40
2.5
  9
$DIMTSZ
 40
0.0
  9
$DIMTOL
 70
0
  9
$DIMLIM
 70
0
  9
$DIMTIH
 70
0
  9
$DIMTOH
 70
0
  9
$DIMSE1
 70
0
  9
$DIMSE2
 70
0
  9
$DIMTAD
 70
1
  9
$DIMZIN
 70
8
  9
$DIMBLK
  1

  9
$DIMASO
 70
1
  9
$DIMSHO
 70
1
  9
$DIMPOST
  1

  9
$DIMAPOST
  1

  9
$DIMALT
 70
0
  9
$DIMALTD
 70
3
  9
$DIMALTF
 40
0.03937007874
  9
$DIMLFAC
 40
1.0
  9
$DIMTOFL
 70
1
  9
$DIMTVP
 40
0.0
  9
$DIMTIX
 70
0
  9
$DIMSOXD
 70
0
  9
$DIMSAH
 70
0
  9
$DIMBLK1
  1

  9
$DIMBLK2
  1

  9
$DIMSTYLE
  2
ISO-25
  9
$DIMCLRD
 70
0
  9
$DIMCLRE
 70
0
  9
$DIMCLRT
 70
0
  9
$DIMTFAC
 40
1.0
  9
$DIMGAP
 40
0.625
  9
$DIMJUST
 70
0
  9
$DIMSD1
 70
0
  9
$DIMSD2
 70
0
  9
$DIMTOLJ
 70
0
  9
$DIMTZIN
 70
8
  9
$DIMALTZ
 70
0
  9
$DIMALTTZ
 70
0
  9
$DIMUPT
 70
0
  9
$DIMDEC
 70
2
  9
$DIMTDEC
 70
2
  9
$DIMALTU
 70
2
  9
$DIMALTTD
 70
3
  9
$DIMTXSTY
  7
Standard
  9
$DIMAUNIT
 70
0
  9
$DIMADEC
 70
0
  9
$DIMALTRND
 40
0.0
  9
$DIMAZIN
 70
0
  9
$DIMDSEP
 70
44
  9
$DIMATFIT
 70
3
  9
$DIMFRAC
 70
0
  9
$DIMLDRBLK
  1

  9
$DIMLUNIT
 70
2
  9
$DIMLWD
 70
-2
  9
$DIMLWE
 70
-2
  9
$DIMTMOVE
 70
0
  9
$LUNITS
 70
2
  9
$LUPREC
 70
4
  9
$SKETCHINC
 40
1.0
  9
$FILLETRAD
 40
10.0
  9
$AUNITS
 70
0
  9
$AUPREC
 70
2
  9
$MENU
  1
.
  9
$ELEVATION
 40
0.0
  9
$PELEVATION
 40
0.0
  9
$THICKNESS
 40
0.0
  9
$LIMCHECK
 70
0
  9
$CHAMFERA
 40
0.0
  9
$CHAMFERB
 40
0.0
  9
$CHAMFERC
 40
0.0
  9
$CHAMFERD
 40
0.0
  9
$SKPOLY
 70
0
  9
$TDCREATE
 40
2461028.5807175925
  9
$TDUCREATE
 40
2458532.153996898
  9
$TDUPDATE
 40
2461028.5807175925
  9
$TDUUPDATE
 40
2458532.1544311
  9
$TDINDWG
 40
0.0
  9
$TDUSRTIMER
 40
0.0
  9
$USRTIMER
 70
1
  9
$ANGBASE
 50
0.0
  9
$ANGDIR
 70
0
  9
$PDMODE
 70
0
  9
$PDSIZE
 40
0.0
  9
$PLINEWID
 40
0.0
  9
$SPLFRAME
 70
0
  9
$SPLINETYPE
 70
6
  9
$SPLINESEGS
 70
8
  9
$HANDSEED
  5
33
  9
$SURFTAB1
 70
6
  9
$SURFTAB2
 70
6
  9
$SURFTYPE
 70
6
  9
$SURFU
 70
6
  9
$SURFV
 70
6
  9
$UCSBASE
  2

  9
$UCSNAME
  2

  9
$UCSORG
 10
0.0
 20
0.0
 30
0.0
  9
$UCSXDIR
 10
1.0
 20
0.0
 30
0.0
  9
$UCSYDIR
 10
0.0
 20
1.0
 30
0.0
  9
$UCSORTHOREF
  2

  9
$UCSORTHOVIEW
 70
0
  9
$UCSORGTOP
 10
0.0
 20
0.0
 30
0.0
  9
$UCSORGBOTTOM
 10
0.0
 20
0.0
 30
0.0
  9
$UCSORGLEFT
 10
0.0
 20
0.0
 30
0.0
  9
$UCSORGRIGHT
 10
0.0
 20
0.0
 30
0.0
  9
$UCSORGFRONT
 10
0.0
 20
0.0
 30
0.0
  9
$UCSORGBACK
 10
0.0
 20
0.0
 30
0.0
  9
$PUCSBASE
  2

  9
$PUCSNAME
  2

  9
$PUCSORG
 10
0.0
 20
0.0
 30
0.0
  9
$PUCSXDIR
 10
1.0
 20
0.0
 30
0.0
  9
$PUCSYDIR
 10
0.0
 20
1.0
 30
0.0
  9
$PUCSORTHOREF
  2

  9
$PUCSORTHOVIEW
 70
0
  9
$PUCSORGTOP
 10
0.0
 20
0.0
 30
0.0
  9
$PUCSORGBOTTOM
 10
0.0
 20
0.0
 30
0.0
  9
$PUCSORGLEFT
 10
0.0
 20
0.0
 30
0.0
  9
$PUCSORGRIGHT
 10
0.0
 20
0.0
 30
0.0
  9
$PUCSORGFRONT
 10
0.0
 20
0.0
 30
0.0
  9
$PUCSORGBACK
 10
0.0
 20
0.0
 30
0.0
  9
$USERI1
 70
0
  9
$USERI2
 70
0
  9
$USERI3
 70
0
  9
$USERI4
 70
0
  9
$USERI5
 70
0
  9
$USERR1
 40
0.0
  9
$USERR2
 40
0.0
  9
$USERR3
 40
0.0
  9
$USERR4
 40
0.0
  9
$USERR5
 40
0.0
  9
$WORLDVIEW
 70
1
  9
$SHADEDGE
 70
3
  9
$SHADEDIF
 70
70
  9
$TILEMODE
 70
1
  9
$MAXACTVP
 70
64
  9
$PINSBASE
 10
0.0
 20
0.0
 30
0.0
  9
$PLIMCHECK
 70
0
  9
$PEXTMIN
 10
1e+20
 20
1e+20
 30
1e+20
  9
$PEXTMAX
 10
-1e+20
 20
-1e+20
 30
-1e+20
  9
$PLIMMIN
 10
0.0
 20
0.0
  9
$PLIMMAX
 10
420.0
 20
297.0
  9
$UNITMODE
 70
0
  9
$VISRETAIN
 70
1
  9
$PLINEGEN
 70
0
  9
$PSLTSCALE
 70
1
  9
$TREEDEPTH
 70
3020
  9
$CMLSTYLE
  2
Standard
  9
$CMLJUST
 70
0
  9
$CMLSCALE
 40
20.0
  9
$PROXYGRAPHICS
 70
1
  9
$MEASUREMENT
 70
1
  9
$CELWEIGHT
370
-1
  9
$ENDCAPS
280
0
  9
$JOINSTYLE
280
0
  9
$LWDISPLAY
290
0
  9
$INSUNITS
 70
6
  9
$HYPERLINKBASE
  1

  9
$STYLESHEET
  1

  9
$XEDIT
290
1
  9
$CEPSNTYPE
380
0
  9
$PSTYLEMODE
290
1
  9
$FINGERPRINTGUID
  2
{7D8E8339-2589-4174-B58E-365B586D4211}
  9
$VERSIONGUID
  2
{33144534-7695-4497-8BFA-59D2AA97351C}
  9
$EXTNAMES
290
1
  9
$PSVPSCALE
 40
0.0
  9
$OLESTARTUP
290
0
  0
ENDSEC
  0
SECTION
  2
CLASSES
  0
CLASS
  1
ACDBDICTIONARYWDFLT
  2
AcDbDictionaryWithDefault
  3
ObjectDBX Classes
 90
0
280
0
281
0
  0
CLASS
  1
SUN
  2
AcDbSun
  3
SCENEOE
 90
1153
280
0
281
0
  0
CLASS
  1
VISUALSTYLE
  2
AcDbVisualStyle
  3
ObjectDBX Classes
 90
4095
280
0
281
0
  0
CLASS
  1
MATERIAL
  2
AcDbMaterial
  3
ObjectDBX Classes
 90
1153
280
0
281
0
  0
CLASS
  1
SCALE
  2
AcDbScale
  3
ObjectDBX Classes
 90
1153
280
0
281
0
  0
CLASS
  1
TABLESTYLE
  2
AcDbTableStyle
  3
ObjectDBX Classes
 90
4095
280
0
281
0
  0
CLASS
  1
MLEADERSTYLE
  2
AcDbMLeaderStyle
  3
ACDB_MLEADERSTYLE_CLASS
 90
4095
280
0
281
0
  0
CLASS
  1
DICTIONARYVAR
  2
AcDbDictionaryVar
  3
ObjectDBX Classes
 90
0
280
0
281
0
  0
CLASS
  1
CELLSTYLEMAP
  2
AcDbCellStyleMap
  3
ObjectDBX Classes
 90
1152
280
0
281
0
  0
CLASS
  1
MENTALRAYRENDERSETTINGS
  2
AcDbMentalRayRenderSettings
  3
SCENEOE
 90
1024
280
0
281
0
  0
CLASS
  1
ACDBDETAILVIEWSTYLE
  2
AcDbDetailViewStyle
  3
ObjectDBX Classes
 90
1025
280
0
281
0
  0
CLASS
  1
ACDBSECTIONVIEWSTYLE
  2
AcDbSectionViewStyle
  3
ObjectDBX Classes
 90
1025
280
0
281
0
  0
CLASS
  1
RASTERVARIABLES
  2
AcDbRasterVariables
  3
ISM
 90
0
280
0
281
0
  0
CLASS
  1
ACDBPLACEHOLDER
  2
AcDbPlaceHolder
  3
ObjectDBX Classes
 90
0
280
0
281
0
  0
CLASS
  1
LAYOUT
  2
AcDbLayout
  3
ObjectDBX Classes
 90
0
280
0
281
0
  0
ENDSEC
  0
SECTION
  2
TABLES
  0
TABLE
  2
VPORT
  5
8
330
0
100
AcDbSymbolTable
 70
1
  0
VPORT
  5
23
330
8
100
AcDbSymbolTableRecord
100
AcDbViewportTableRecord
  2
*Active
 70
0
 10
0.0
 20
0.0
 11
1.0
 21
1.0
 12
0.0
 22
0.0
 13
0.0
 23
0.0
 14
0.5
 24
0.5
 15
0.5
 25
0.5
 16
0.0
 26
0.0
 36
1.0
 17
0.0
 27
0.0
 37
0.0
 40
1000.0
 41
1.34
 42
50.0
 43
0.0
 44
0.0
 50
0.0
 51
0.0
 71
0
 72
1000
 73
1
 74
3
 75
0
 76
0
 77
0
 78
0
281
0
 65
0
146
0.0
  0
ENDTAB
  0
TABLE
  2
LTYPE
  5
2
330
0
100
AcDbSymbolTable
 70
3
  0
LTYPE
  5
24
330
2
100
AcDbSymbolTableRecord
100
AcDbLinetypeTableRecord
  2
ByBlock
 70
0
  3

 72
65
 73
0
 40
0.0
  0
LTYPE
  5
25
330
2
100
AcDbSymbolTableRecord
100
AcDbLinetypeTableRecord
  2
ByLayer
 70
0
  3

 72
65
 73
0
 40
0.0
  0
LTYPE
  5
26
330
2
100
AcDbSymbolTableRecord
100
AcDbLinetypeTableRecord
  2
Continuous
 70
0
  3

 72
65
 73
0
 40
0.0
  0
ENDTAB
  0
TABLE
  2
LAYER
  5
1
330
0
100
AcDbSymbolTable
 70
2
  0
LAYER
  5
27
330
1
100
AcDbSymbolTableRecord
100
AcDbLayerTableRecord
  2
0
 70
0
 62
7
  6
Continuous
370
-3
390
13
  0
LAYER
  5
28
330
1
100
AcDbSymbolTableRecord
100
AcDbLayerTableRecord
  2
Defpoints
 70
0
 62
7
  6
Continuous
290
0
370
-3
390
13
  0
ENDTAB
  0
TABLE
  2
STYLE
  5
5
330
0
100
AcDbSymbolTable
 70
1
  0
STYLE
  5
29
330
5
100
AcDbSymbolTableRecord
100
AcDbTextStyleTableRecord
  2
Standard
 70
0
 40
0.0
 41
1.0
 50
0.0
 71
0
 42
2.5
  3
txt
  4

  0
ENDTAB
  0
TABLE
  2
VIEW
  5
7
330
0
100
AcDbSymbolTable
 70
0
  0
ENDTAB
  0
TABLE
  2
UCS
  5
6
330
0
100
AcDbSymbolTable
 70
0
  0
ENDTAB
  0
TABLE
  2
APPID
  5
3
330
0
100
AcDbSymbolTable
 70
3
  0
APPID
  5
2A
330
3
100
AcDbSymbolTableRecord
100
AcDbRegAppTableRecord
  2
ACAD
 70
0
  0
APPID
  5
30
330
3
100
AcDbSymbolTableRecord
100
AcDbRegAppTableRecord
  2
HATCHBACKGROUNDCOLOR
 70
0
  0
APPID
  5
31
330
3
100
AcDbSymbolTableRecord
100
AcDbRegAppTableRecord
  2
EZDXF
 70
0
  0
ENDTAB
  0
TABLE
  2
DIMSTYLE
  5
4
330
0
100
AcDbSymbolTable
 70
1
100
AcDbDimStyleTable
  0
DIMSTYLE
105
2B
330
4
100
AcDbSymbolTableRecord
100
AcDbDimStyleTableRecord
  2
Standard
 70
0
  3

  4

 40
1.0
 41
2.5
 42
0.625
 43
3.75
 44
1.25
 45
0.0
 46
0.0
 47
0.0
 48
0.0
140
2.5
141
2.5
142
0.0
143
0.03937007874
144
1.0
145
0.0
146
1.0
147
0.625
148
0.0
 71
0
 72
0
 73
0
 74
0
 75
0
 76
0
 77
1
 78
8
 79
3
170
0
171
3
172
1
173
0
174
0
175
0
176
0
177
0
178
0
179
2
271
2
272
2
273
2
274
3
275
0
276
0
277
2
278
44
279
0
280
0
281
0
282
0
283
0
284
8
285
0
286
0
288
0
289
3
371
-2
372
-2
  0
ENDTAB
  0
TABLE
  2
BLOCK_RECORD
  5
9
330
0
100
AcDbSymbolTable
 70
2
  0
BLOCK_RECORD
  5
17
330
9
100
AcDbSymbolTableRecord
100
AcDbBlockTableRecord
  2
*Model_Space
340
1A
  0
BLOCK_RECORD
  5
1B
330
9
100
AcDbSymbolTableRecord
100
AcDbBlockTableRecord
  2
*Paper_Space
340
1E
  0
ENDTAB
  0
ENDSEC
  0
SECTION
  2
BLOCKS
  0
BLOCK
  5
18
330
17
100
AcDbEntity
  8
0
100
AcDbBlockBegin
  2
*Model_Space
 70
0
 10
0.0
 20
0.0
 30
0.0
  3
*Model_Space
  1

  0
ENDBLK
  5
19
330
17
100
AcDbEntity
  8
0
100
AcDbBlockEnd
  0
BLOCK
  5
1C
330
1B
100
AcDbEntity
  8
0
100
AcDbBlockBegin
  2
*Paper_Space
 70
0
 10
0.0
 20
0.0
 30
0.0
  3
*Paper_Space
  1

  0
ENDBLK
  5
1D
330
1B
100
AcDbEntity
  8
0
100
AcDbBlockEnd
  0
ENDSEC
  0
SECTION
  2
ENTITIES
  0
LWPOLYLINE
  5
2F
330
17
100
AcDbEntity
  8
0
100
AcDbPolyline
 90
3601
 70
1
 10
271.65726098860614
 20
0.0
 10
271.6510158144497
 20
-0.09753671031573051
 10
271.61930304379985
 20
-0.5804924145401494
 10
271.5868042102209
 20
-1.0633958602880602
 10
271.55351969039236
 20
-1.5462457881983718
 10
271.51944993128086
 20
-2.02904094528358
 10
271.4845953534304
 20
-2.511780078397175
 10
271.44895642362707
 20
-2.994461939426128
 10
271.412533544124
 20
-3.477085277214472
 10
271.37532719104945
 20
-3.9596488478070664
 10
271.3373377746418
 20
-4.442151403923592
 10
271.29856575366614
 20
-4.924591703699823
 10
271.2590115560746
 20
-5.406968504507662
 10
271.21867562222286
 20
-5.889280566338228
 10
271.1775583980294
 20
-6.37152665130638
 10
271.1356603054359
 20
-6.853705521095781
 10
271.09298180823333
 20
-7.335815942636785
 10
271.04952330994564
 20
-7.817856679141219
 10
271.0052852838312
 20
-8.299826501649388
 10
270.9602680108571
 20
-8.781724164954534
 10
270.91447154276017
 20
-9.263548402883107
 10
270.86789585887743
 20
-9.745297941960459
 10
270.8205409550772
 20
-10.226971509635487
 10
270.772406828741
 20
-10.708567832895444
 10
270.7234934575657
 20
-11.190085636094166
 10
270.67380085700756
 20
-11.671523646758702
 10
270.62332898660964
 20
-12.152880585986663
 10
270.5720778732603
 20
-12.634155181206081
 10
270.520047478397
 20
-13.115346152253055
 10
270.4672378179474
 20
-13.596452224079213
 10
270.41364886912714
 20
-14.077472116735848
 10
270.3592806297445
 20
-14.558404551794114
 10
270.304133095227
 20
-15.039248249852784
 10
270.2482062452734
 20
-15.5200019289449
 10
270.19150029704116
 20
-16.000664334390986
 10
270.13401641055776
 20
-16.48123432465703
 10
270.0757561136423
 20
-16.961710807670116
 10
270.0167208685996
 20
-17.442092690075768
 10
269.9569121940614
 20
-17.92237889196445
 10
269.89633156617754
 20
-18.402568334763345
 10
269.8349804843307
 20
-18.88265994932981
 10
269.7728604414732
 20
-19.36265267226605
 10
269.70997291769015
 20
-19.842545445001374
 10
269.6463194223832
 20
-20.322337219295125
 10
269.5819014163035
 20
-20.802026946941012
 10
269.5167204201608
 20
-21.281613594200206
 10
269.45077788969616
 20
-21.761096124992022
 10
269.3840753382068
 20
-22.240473517504817
 10
269.31661423322566
 20
-22.719744750016197
 10
269.2483956238462
 20
-23.19890874729479
 10
269.1794168876732
 20
-23.677963909385813
 10
269.1096735943262
 20
-24.156908360027522
 10
269.03916132949354
 20
-24.63574020282231
 10
268.9678756373835
 20
-25.114457512577037
 10
268.8958121236058
 20
-25.593058350362053
 10
268.8229663315188
 20
-26.07154074492529
 10
268.74933387084263
 20
-26.549902711895214
 10
268.67491030451623
 20
-27.028142236466074
 10
268.59969123123653
 20
-27.506257285876455
 10
268.5236722399999
 20
-27.984245802266038
 10
268.44684891888613
 20
-28.462105703831874
 10
268.3692168842859
 20
-28.93983488941595
 10
268.2907717141202
 20
-29.417431227540177
 10
268.2115091942952
 20
-29.894892596987702
 10
268.1314307357948
 20
-30.372217798327362
 10
268.05054525666543
 20
-30.84940690955909
 10
267.9688621163839
 20
-31.32646012929396
 10
267.88639070302577
 20
-31.803377708210427
 10
267.80314038075335
 20
-32.28015993959855
 10
267.71912050465704
 20
-32.75680716129895
 10
267.63434044141064
 20
-33.2333197588295
 10
267.5488095130189
 20
-33.70969815485035
 10
267.46253708483346
 20
-34.185942824331356
 10
267.3755324512231
 20
-34.66205427342099
 10
267.2878049626947
 20
-35.13803306193187
 10
267.19936390665856
 20
-35.61387978103891
 10
267.11021859880844
 20
-36.08959506949262
 10
267.02037832472985
 20
-36.56517960228134
 10
266.92985236556115
 20
-37.04063409480929
 10
266.83865000368013
 20
-37.51595930348233
 10
266.7467804859829
 20
-37.991156018093726
 10
266.6542530904645
 20
-38.466225074096734
 10
266.6542530904645
 20
-38.466225074096734
 10
266.5610723297919
 20
-38.94116640959147
 10
266.46722397852056
 20
-39.415976277928706
 10
266.3726890686882
 20
-39.89064992650702
 10
266.2774486899379
 20
-40.36518252785896
 10
266.1814839239657
 20
-40.83956916424421
 10
266.08477588036055
 20
-41.31380483237043
 10
265.9873056973391
 20
-41.78788444120819
 10
265.88905450753623
 20
-42.26180280253464
 10
265.79000351303023
 20
-42.735554644045735
 10
265.69013387347377
 20
-43.20913458367931
 10
265.5894305858259
 20
-43.68253795389219
 10
265.4878961360221
 20
-44.15576375585197
 10
265.385538201704
 20
-44.62881212385657
 10
265.2823644242222
 20
-45.10168322455655
 10
265.17838244567616
 20
-45.574377264511064
 10
265.073599909591
 20
-46.04689449004993
 10
264.96802442180086
 20
-46.51923517821093
 10
264.8616636261469
 20
-46.9913996532319
 10
264.7545250922411
 20
-47.4633882610106
 10
264.64661645396393
 20
-47.93520139996379
 10
264.5379452704728
 20
-48.40683948913795
 10
264.42851913862035
 20
-48.87830299346613
 10
264.3183456152778
 20
-49.34959240556702
 10
264.2074322597395
 20
-49.820708255133646
 10
264.0957866216672
 20
-50.29165110579147
 10
263.98341400708136
 20
-50.762421020683526
 10
263.8703138357837
 20
-51.23301667333456
 10
263.75648449474335
 20
-51.703436483633304
 10
263.641924438107
 20
-52.17367887855939
 10
263.52663206103205
 20
-52.64374226163816
 10
263.41060581061106
 20
-53.11362503988526
 10
263.2938441023988
 20
-53.583325603367214
 10
263.17634537156306
 20
-54.0528423377313
 10
263.0581080562454
 20
-54.52217362011245
 10
262.9391305797793
 20
-54.99131781458153
 10
262.8194114034208
 20
-55.4602732854748
 10
262.69894893878944
 20
-55.92903837508586
 10
262.57774166435513
 20
-56.39761143342352
 10
262.4557879994002
 20
-56.86599078580099
 10
262.3330864370282
 20
-57.33417476724744
 10
262.2096363917489
 20
-57.80216194681151
 10
262.0854386930418
 20
-58.26995126438107
 10
261.96049427835095
 20
-58.73754169127002
 10
261.8348040683867
 20
-59.20493219746419
 10
261.7083690162095
 20
-59.67212176479905
 10
261.5811900232142
 20
-60.139109364278006
 10
261.45326805211965
 20
-60.60589398668687
 10
261.32460400230883
 20
-61.07247460863051
 10
261.1951988258335
 20
-61.538850224272906
 10
261.0650534344701
 20
-62.00501981975543
 10
260.9341687608551
 20
-62.47098239007153
 10
260.8025457319071
 20
-62.93673693170752
 10
260.67018526087236
 20
-63.40228244031968
 10
260.53708828964574
 20
-63.8676179227545
 10
260.4032556829494
 20
-64.33274236675732
 10
260.2686879490362
 20
-64.79765465955523
 10
260.13338522572315
 20
-65.26235358148881
 10
259.9973476994501
 20
-65.72683792611339
 10
259.86057551473516
 20
-66.19110647385428
 10
259.72306884146485
 20
-66.65515801163119
 10
259.58482784197525
 20
-67.11899132322564
 10
259.44585266963793
 20
-67.58260518877813
 10
259.3061435046421
 20
-68.04599839551803
 10
259.16570048388616
 20
-68.50916971666379
 10
259.02452380133036
 20
-68.972117941726
 10
258.8826135897897
 20
-69.43484184063439
 10
258.7399700402128
 20
-69.89734020008665
 10
258.5965932989022
 20
-70.35961179207355
 10
258.4524835404234
 20
-70.82165539628184
 10
258.3076409502291
 20
-71.28346979485481
 10
258.1620658296921
 20
-71.74505380556263
 10
258.01575854752673
 20
-72.20640626718668
 10
257.8687194317642
 20
-72.66752600553482
 10
257.72094886487844
 20
-73.12841186365901
 10
257.57244716799863
 20
-73.58906266489363
 10
257.4232147219526
 20
-74.04947725164729
 10
257.27325185984483
 20
-74.50965445081606
 10
257.1225589454219
 20
-74.96959309909806
 10
256.9711363289038
 20
-75.42929202866581
 10
256.81898435700793
 20
-75.88875007036468
 10
256.66610339704977
 20
-76.34796606171756
 10
256.5124937787686
 20
-76.8069388275746
 10
256.3581558839259
 20
-77.26566720999591
 10
256.20309003319494
 20
-77.72415003034553
 10
256.04729658150717
 20
-78.18238612125478
 10
255.89077575579532
 20
-78.64037427142746
 10
255.73352780312754
 20
-79.09811327559677
 10
255.57555295431686
 20
-79.55560192209975
 10
255.4168514399419
 20
-80.01283899829464
 10
255.25742350832468
 20
-80.46982329683503
 10
255.0972693736127
 20
-80.92655359756331
 10
254.93638929978562
 20
-81.38302869687631
 10
254.77478349022184
 20
-81.8392473689399
 10
254.61245221236433
 20
-82.29520840962961
 10
254.4493956805737
 20
-82.75091059507014
 10
254.28561414596072
 20
-83.20635271353123
 10
254.1211078405035
 20
-83.6615335454989
 10
253.95587699904303
 20
-84.11645187149833
 10
253.78992187136788
 20
-84.57110647652941
 10
253.62324269039777
 20
-85.02549613847968
 10
253.4558397606444
 20
-85.47961966060632
 10
253.28771332850124
 20
-85.93347582398148
 10
253.11886370643077
 20
-86.3870634332943
 10
252.94929115087422
 20
-86.8403812716571
 10
252.7789959578778
 20
-87.29342813611493
 10
252.60797840129024
 20
-87.7462028145944
 10
252.43623876080594
 20
-88.1987040963571
 10
252.2637773276899
 20
-88.6509307742289
 10
252.0905943653498
 20
-89.10288162954826
 10
251.91669018215194
 20
-89.554555460001
 10
251.74206502625614
 20
-90.00595103923904
 10
251.56671921408073
 20
-90.45706716636607
 10
251.39065300318657
 20
-90.9079026167922
 10
251.2138666932958
 20
-91.35845618140903
 10
251.03636053748033
 20
-91.80872663188676
 10
250.8581347690793
 20
-92.25871273097326
 10
250.67918962790586
 20
-92.70841324277508
 10
250.49952532928143
 20
-93.15782692039497
 10
250.3191421306072
 20
-93.60695253248967
 10
250.13804023127733
 20
-94.05578882316856
 10
249.95621989840177
 20
-94.50433456251875
 10
249.77368133923665
 20
-94.9525884951533
 10
249.59042480644897
 20
-95.40054938279835
 10
249.40645052452564
 20
-95.84821597439124
 10
249.22175873034038
 20
-96.29558702258629
 10
249.0363496661136
 20
-96.74266128093018
 10
248.8502235530015
 20
-97.18943749286869
 10
248.6633806509853
 20
-97.63591441665244
 10
248.47582116520553
 20
-98.08209078622448
 10
248.28754534783084
 20
-98.52796535381061
 10
248.09855336554452
 20
-98.97353683406811
 10
247.90884543088677
 20
-99.4188039593659
 10
247.71842172508354
 20
-99.86376544710465
 10
247.52728244512542
 20
-100.30842001968361
 10
247.3354277900935
 20
-100.75276639871753
 10
247.14285794151206
 20
-101.19680329649898
 10
246.9495731163603
 20
-101.64052943895615
 10
246.75557348078027
 20
-102.08394352813797
 10
246.56085926350602
 20
-102.5270442916626
 10
246.36543063394228
 20
-102.96983042937269
 10
246.16928781193556
 20
-103.41230066151235
 10
245.97243098280427
 20
-103.85445369128334
 10
245.77486035118426
 20
-104.29628822862256
 10
245.57657612046933
 20
-104.73780298111828
 10
245.377578475428
 20
-105.17899664612413
 10
245.17786762175922
 20
-105.61986792853531
 10
244.9774437164112
 20
-106.06041550921677
 10
244.77630697617698
 20
-106.50063809423209
 10
244.57445755868036
 20
-106.94053436068282
 10
244.37189567458344
 20
-107.38010300792686
 10
244.16862149656157
 20
-107.8193427158655
 10
243.96463522020616
 20
-108.2582521729147
 10
243.7599370363077
 20
-108.69683006324773
 10
243.55452712547978
 20
-109.13507506420302
 10
243.34840569668106
 20
-109.57298586433306
 10
243.14157291564146
 20
-110.01056112976353
 10
242.9340290051999
 20
-110.44779955146964
 10
242.72577412932122
 20
-110.88469979042465
 10
242.51680850784072
 20
-111.32126053202943
 10
242.30713231612089
 20
-111.7574804383204
 10
242.0967457339977
 20
-112.19335817120123
 10
241.88564892285495
 20
-112.62889238137095
 10
241.67384203773636
 20
-113.06408171402914
 10
241.46132525822227
 20
-113.49892482391134
 10
241.24809872467992
 20
-113.93342034416561
 10
241.0341626316468
 20
-114.36756693204406
 10
240.81951711496987
 20
-114.80136321347116
 10
240.60416236928322
 20
-115.23480784091136
 10
240.3880985439933
 20
-115.66789944194801
 10
240.1713258192822
 20
-116.10063665694794
 10
239.95384436306793
 20
-116.53301811766123
 10
239.73565434118618
 20
-116.9650424522238
 10
239.51675594013383
 20
-117.39670829666946
 10
239.29714931150804
 20
-117.82801426677112
 10
239.07683465812977
 20
-118.25895900177537
 10
238.85581212473568
 20
-118.68954110868526
 10
238.6340819186341
 20
-119.1197592239424
 10
238.41164419799244
 20
-119.54961195612748
 10
238.1884991558118
 20
-119.97909792914162
 10
237.9646469686688
 20
-120.40821575575255
 10
237.74008781525373
 20
-120.83696404712634
 10
237.5148218906217
 20
-121.26534142033425
 10
237.28884935926547
 20
-121.69334647367354
 10
237.0621704335627
 20
-122.12097782798602
 10
236.83478526760481
 20
-122.54823407052214
 10
236.606694080545
 20
-122.97511382033528
 10
236.37789703822602
 20
-123.40161566532076
 10
236.14839434584945
 20
-123.82773821163012
 10
235.91818618802913
 20
-124.25348005158655
 10
235.68727275613307
 20
-124.67883977830957
 10
235.45565425358225
 20
-125.1038159886548
 10
235.22333085384233
 20
-125.5284072602874
 10
234.99030276682458
 20
-125.95261218789624
 10
234.756570143353
 20
-126.37642933077927
 10
234.5221332026139
 20
-126.79985728287907
 10
234.28699210602804
 20
-127.22289460325256
 10
234.0511470589402
 20
-127.6455398722698
 10
233.81459824150176
 20
-128.067791653269
 10
233.57734584534091
 20
-128.48964851291518
 10
233.33939006942063
 20
-128.91110901895445
 10
233.10073109177722
 20
-129.3321717242148
 10
232.86136913026712
 20
-129.7528352009789
 10
232.62130434946053
 20
-130.17309798810615
 10
232.3805369792247
 20
-130.59295865854477
 10
232.1390671916863
 20
-131.0124157490609
 10
231.8968952067912
 20
-131.4314678206854
 10
231.6540212146729
 20
-131.85011341409356
 10
231.41044542590933
 20
-132.2683510785626
 10
231.16616806918535
 20
-132.686179370777
 10
230.92118936126275
 20
-133.10359683731878
 10
230.67550955348668
 20
-133.52060204195206
 10
230.4291288490519
 20
-133.9371935169598
 10
230.18204751236172
 20
-134.35336982761626
 10
229.93426575010722
 20
-134.76912950184314
 10
229.68578382050518
 20
-135.1844710949968
 10
229.4366019467071
 20
-135.59939313832515
 10
229.1867203736497
 20
-136.01389417286993
 10
228.9361393434355
 20
-136.42797273475915
 10
228.68485908785553
 20
-136.84162735059022
 10
228.43287986804523
 20
-137.25485656150553
 10
228.1802019027869
 20
-137.6676588795297
 10
227.9268254680727
 20
-138.08003284833467
 10
227.6727507825851
 20
-138.4919769731069
 10
227.41797812091323
 20
-138.90348979006933
 10
227.1625077262905
 20
-139.31456981276295
 10
226.9063398822488
 20
-139.72521557639482
 10
226.6494748648627
 20
-140.1354256083059
 10
226.3919129454554
 20
-140.54519842955187
 10
226.13365441883838
 20
-140.95453257266456
 10
225.87469954323228
 20
-141.36342654377623
 10
225.61504862948368
 20
-141.77187887897088
 10
225.35470193119178
 20
-142.17988807463766
 10
225.09365976181175
 20
-142.58745266189368
 10
224.83192238875327
 20
-142.99457113905734
 10
224.56949011266818
 20
-143.40124202231803
 10
224.30636322004403
 20
-143.80746381533893
 10
224.04254199887424
 20
-144.21323501925494
 10
223.77802675480572
 20
-144.61855414321312
 10
223.51281776332186
 20
-145.0234196731695
 10
223.24691534806774
 20
-145.42783012307848
 10
222.98031977604745
 20
-145.83178396615074
 10
222.71303139100425
 20
-146.23527972262832
 10
222.44505050552635
 20
-146.63831588877096
 10
222.17637747339953
 20
-147.04089098478426
 10
221.90701262791816
 20
-147.4430035138943
 10
221.6369563100236
 20
-147.84465198100906
 10
221.36620887175525
 20
-148.24583489511156
 10
221.09477064136468
 20
-148.64655074568532
 10
220.82264198971157
 20
-149.0467980476052
 10
220.54982323251093
 20
-149.44657527480348
 10
220.276314752075
 20
-149.84588094307674
 10
220.0021168740711
 20
-150.24471352600568
 10
219.72722996962705
 20
-150.64307152478432
 10
219.45165438310207
 20
-151.0409534186417
 10
219.1753904733975
 20
-151.43835769322996
 10
218.8984386040414
 20
-151.8352828338408
 10
218.62079912186698
 20
-152.23172731046392
 10
218.3424724096468
 20
-152.6276896145968
 10
218.06345880709068
 20
-153.0231682038269
 10
217.7837587518082
 20
-153.41816160117966
 10
217.50337264169633
 20
-153.81266829828647
 10
217.22230092494553
 20
-154.2066868191365
 10
216.94054401592703
 20
-154.6002156603655
 10
216.6581023502456
 20
-154.9932533304051
 10
216.37497636081807
 20
-155.38579833243966
 10
216.09116647082476
 20
-155.77784915921842
 10
215.80667313179435
 20
-156.16940432060937
 10
215.52149675464258
 20
-156.5604622935541
 10
215.23563780575628
 20
-156.9510215919392
 10
214.94909669541468
 20
-157.34108068518307
 10
214.66187388958616
 20
-157.73063808001783
 10
214.37396981352933
 20
-158.11969224973325
 10
214.0853849212558
 20
-158.50824168526879
 10
213.79611965697234
 20
-158.896284866767
 10
213.50617446289843
 20
-159.28382026925598
 10
213.21554980225568
 20
-159.67084637987367
 10
212.92424611289357
 20
-160.05736166309381
 10
212.63226393560754
 20
-160.44336465749092
 10
212.33960377890222
 20
-160.82885387413523
 10
212.04626621212248
 20
-161.21382786717788
 10
211.75225175617268
 20
-161.59828515093227
 10
211.45756096788043
 20
-161.98222426403032
 10
211.16219438624165
 20
-162.3656437283996
 10
210.8661525557311
 20
-162.74854206703
 10
210.56943603348532
 20
-163.1309178095922
 10
210.27204535179075
 20
-163.51276946330916
 10
209.9739810859759
 20
-163.89409556572684
 10
209.67524375630185
 20
-164.2748946081781
 10
209.37583394890146
 20
-164.6551651303495
 10
209.07575219449694
 20
-165.0349056251684
 10
208.77499906766937
 20
-165.41411461683765
 10
208.47357511746782
 20
-165.79279060608977
 10
208.17148090674488
 20
-166.17093210125566
 10
207.86871700304135
 20
-166.54853761109973
 10
207.56528395802172
 20
-166.92560562826444
 10
207.26118238035383
 20
-167.30213468793852
 10
206.95641286680646
 20
-167.67812331259356
 10
206.65097607606918
 20
-168.0535700718804
 10
206.3448726115385
 20
-168.4284734876236
 10
206.0381031261636
 20
-168.80283211903338
 10
205.73066823888325
 20
-169.17664449455046
 10
205.42256859053126
 20
-169.54990915752654
 10
205.11380481781035
 20
-169.9226246449099
 10
204.80437754960872
 20
-170.29478948407126
 10
204.4942874404358
 20
-170.6664022205948
 10
204.18353510740226
 20
-171.03746136574844
 10
203.87212121980195
 20
-171.40796547130319
 10
203.56004639233626
 20
-171.77791304004802
 10
203.24731129562974
 20
-172.1473026186454
 10
202.9339165581087
 20
-172.51613271491885
 10
202.6198628389074
 20
-172.88440185944395
 10
202.30515078455116
 20
-173.25210856883487
 10
201.98978104285837
 20
-173.61925135746506
 10
201.67375427991357
 20
-173.9858287520998
 10
201.3570711911697
 20
-174.3518393016898
 10
201.03973259280272
 20
-174.71728165699994
 10
200.72173925147237
 20
-175.08215442372162
 10
200.40309199532592
 20
-175.44645625891988
 10
200.0837916011313
 20
-175.8101857727113
 10
199.76383888443232
 20
-176.17334160698323
 10
199.4432346386166
 20
-176.535922381999
 10
199.12197966679037
 20
-176.89792672434314
 10
198.8000747789691
 20
-177.25935326453265
 10
198.47752076598653
 20
-177.62020061372388
 10
198.1543184544962
 20
-177.98046741279683
 10
197.8304686232238
 20
-178.34015225735516
 10
197.50597210979646
 20
-178.69925379361527
 10
197.18082969802597
 20
-179.05777061691919
 10
196.85504221802753
 20
-179.41570136210478
 10
196.52861046894668
 20
-179.77304463350936
 10
196.20153526903303
 20
-180.12979905040754
 10
195.87381743428406
 20
-180.48596322760065
 10
195.54545777125423
 20
-180.84153576868368
 10
195.2164571294579
 20
-181.1965153144856
 10
194.88681638020014
 20
-181.5509005238774
 10
194.5565364590796
 20
-181.90469011371695
 10
194.2256182480773
 20
-182.25788274921226
 10
193.89406268160064
 20
-182.61047714287426
 10
193.5618706536103
 20
-182.96247196756678
 10
193.22904308599558
 20
-183.31386592065772
 10
192.89558088851916
 20
-183.66465768631713
 10
192.56148497071644
 20
-184.01484594664333
 10
192.22675625814531
 20
-184.36442939721027
 10
191.89139564815068
 20
-184.71340670471952
 10
191.5554040812608
 20
-185.0617765754564
 10
191.21878244525485
 20
-185.40953766297733
 10
190.88153168703585
 20
-185.75668867602548
 10
190.5436527041932
 20
-186.10322827361202
 10
190.20514643165302
 20
-186.44915514905165
 10
189.86601378298298
 20
-186.79446797283546
 10
189.52625568129852
 20
-187.1391654227269
 10
189.185873056143
 20
-187.48324618080142
 10
188.84486682009737
 20
-187.82670891025296
 10
188.50323797859446
 20
-188.16955236459685
 10
188.1609875781398
 20
-188.5117753371048
 10
187.8181167275426
 20
-188.8533766827147
 10
187.4746264829789
 20
-189.19435520314036
 10
187.1305179446926
 20
-189.53470974382796
 10
186.78579218150486
 20
-189.87443911799699
 10
186.44045028048978
 20
-190.21354215671542
 10
186.0944933246569
 20
-190.55201768635698
 10
185.74792238806657
 20
-190.88986452347717
 10
185.40073856787458
 20
-191.22708150767113
 10
185.05294292528285
 20
-191.56366744084755
 10
184.7045365687814
 20
-191.89962117301081
 10
184.35552055518767
 20
-192.2349414999316
 10
184.005895992046
 20
-192.5696272693053
 10
183.65566394648548
 20
-192.90367728595234
 10
183.30482551334916
 20
-193.23709038283934
 10
182.9533817740112
 20
-193.5698653780057
 10
182.6013338107701
 20
-193.90200108955693
 10
182.24868271920994
 20
-194.23349634882575
 10
181.89542957111223
 20
-194.56434996092474
 10
181.54157552898937
 20
-194.89456082713076
 10
181.1871217606077
 20
-195.22412785426414
 10
180.8320694931397
 20
-195.55305001323373
 10
180.47641990396366
 20
-195.88132622166302
 10
180.12017420666857
 20
-196.20895543657286
 10
179.76333359157968
 20
-196.53593659005557
 10
179.405899258851
 20
-196.8622686251037
 10
179.04787241168995
 20
-197.18795048832334
 10
178.6892542369657
 20
-197.51298110853875
 10
178.33004595070483
 20
-197.83735944691563
 10
177.9702487266417
 20
-198.16108441797167
 10
177.6098637890891
 20
-198.4841549924818
 10
177.2488923122117
 20
-198.80657008550983
 10
176.88733551317932
 20
-199.12832866022458
 10
176.52519457707277
 20
-199.44942964391535
 10
176.16247070804974
 20
-199.7698719853279
 10
175.79916510405533
 20
-200.08965462625375
 10
175.43527895638795
 20
-200.40877650087958
 10
175.0708134757991
 20
-200.7272365655507
 10
174.70576984154266
 20
-201.0450337405201
 10
174.34014928990106
 20
-201.3621670114841
 10
173.97395302164333
 20
-201.6786353234108
 10
173.60718228712997
 20
-201.99443767876005
 10
173.23983829598336
 20
-202.30957303303293
 10
172.87192228563654
 20
-202.6240403742224
 10
172.5034354782242
 20
-202.93783867267527
 10
172.1343790984049
 20
-203.25096690178242
 10
171.76475438076338
 20
-203.5634240467834
 10
171.39456253733835
 20
-203.8752090663328
 10
171.02380481510306
 20
-204.18632096061083
 10
170.65248241363096
 20
-204.49675867340326
 10
170.28059658622203
 20
-204.80652121266073
 10
169.90814853814604
 20
-205.11560752882482
 10
169.53513951081584
 20
-205.4240166157234
 10
169.16157072180167
 20
-205.73174743840158
 10
168.78744340017974
 20
-206.03879897571053
 10
168.41275877596397
 20
-206.3451702075919
 10
168.0375180660527
 20
-206.65086009779074
 10
167.6617225128462
 20
-206.95586764119767
 10
167.2853733221989
 20
-207.2601917875302
 10
166.9084717628158
 20
-207.56383156403973
 10
166.53101907034974
 20
-207.8667859571386
 10
166.15301652279328
 20
-208.16905400604224
 10
165.7744653658992
 20
-208.47063470994294
 10
165.39536686533376
 20
-208.77152709306273
 10
165.01572227885072
 20
-209.07173016984336
 10
164.6355328599488
 20
-209.37124294938513
 10
164.25479987832017
 20
-209.67006446142486
 10
163.87352457545538
 20
-209.96819369981404
 10
163.49170823146173
 20
-210.26562970775186
 10
163.1093520803659
 20
-210.562371469352
 10
162.72645740378562
 20
-210.85841802987912
 10
162.34302544328662
 20
-211.15376838288546
 10
161.95905746861175
 20
-211.44842155828408
 10
161.57455473332166
 20
-211.74237656487958
 10
161.18951849544735
 20
-212.03563241710913
 10
160.80395002048513
 20
-212.3281881390808
 10
160.41785055491724
 20
-212.6200427296335
 10
160.03122137611797
 20
-212.91119522823013
 10
159.64406372066654
 20
-213.20164461996697
 10
159.2563788945101
 20
-213.49138998214522
 10
158.86816817350456
 20
-213.78043035205366
 10
158.47943286897925
 20
-214.0687648147112
 10
158.09017426791021
 20
-214.3563924226334
 10
157.70039366983536
 20
-214.64331224542354
 10
157.3100923731218
 20
-214.92952335131173
 10
156.91927166567908
 20
-215.21502479436256
 10
156.52793285719918
 20
-215.4998156585638
 10
156.13607722412772
 20
-215.7838949823194
 10
155.74370608445034
 20
-216.0672618613009
 10
155.35082071221575
 20
-216.3499153304816
 10
154.9574224220746
 20
-216.6318544811254
 10
154.56351249679926
 20
-216.91307836012913
 10
154.1690922397122
 20
-217.19358604299674
 10
153.7741629449675
 20
-217.47337659233895
 10
153.37872590472597
 20
-217.7524490677819
 10
152.9827824244615
 20
-218.03080254769822
 10
152.586333785341
 20
-218.30843607571882
 10
152.18938130320075
 20
-218.58534874473816
 10
151.79192625269053
 20
-218.8615395884722
 10
151.39396997248636
 20
-219.13700773251875
 10
150.9955137735902
 20
-219.41175226277227
 10
150.59655899510747
 20
-219.68577230596023
 10
150.19710695910797
 20
-219.95906696431155
 10
149.7971589935134
 20
-220.2316353486925
 10
149.39671643121162
 20
-220.5034765774442
 10
148.99578058910797
 20
-220.774589745455
 10
148.59435281084325
 20
-221.0449739872184
 10
148.19243440247473
 20
-221.31462838152936
 10
147.7900267140194
 20
-221.58355207261357
 10
147.38713105378707
 20
-221.85174414244545
 10
146.98374876415488
 20
-222.11920372399317
 10
146.57988116322798
 20
-222.38592991369413
 10
146.17552958267552
 20
-222.65192182832976
 10
145.77069535141365
 20
-222.91717858045118
 10
145.36537979057525
 20
-223.1816992705405
 10
144.95958423982498
 20
-223.4454830273086
 10
144.55331000993016
 20
-223.70852893482848
 10
144.14655844893448
 20
-223.97083613443183
 10
143.73933086640994
 20
-224.23240370766248
 10
143.33162863033914
 20
-224.49323082672313
 10
142.92345308798437
 20
-224.75331663172423
 10
142.51480560733944
 20
-225.01266029542705
 10
142.10568754603864
 20
-225.27126097458833
 10
141.69610026147694
 20
-225.52911782571124
 10
141.28604512148266
 20
-225.78623002206737
 10
140.8755234730239
 20
-226.04259670379108
 10
140.46453669365542
 20
-226.29821706006138
 10
140.05308612129096
 20
-226.5530902164691
 10
139.64117313725905
 20
-226.8072153685864
 10
139.22879908504672
 20
-227.06059165085352
 10
138.81596533569657
 20
-227.31321824238194
 10
138.40267324294692
 20
-227.56509429408425
 10
137.9889241677283
 20
-227.81621896850493
 10
137.5747194739653
 20
-228.06659143307044
 10
137.160060512652
 20
-228.31621083365243
 10
136.74494865783416
 20
-228.56507635423517
 10
136.32938525074476
 20
-228.81318712391283
 10
135.91337167193686
 20
-229.06054233728773
 10
135.4969092660918
 20
-229.30714112855247
 10
135.07999942919895
 20
-229.55298271827704
 10
134.6626435419768
 20
-229.7980663014532
 10
134.2448429991567
 20
-230.04239109708703
 10
133.8265991911431
 20
-230.28595631711272
 10
133.40791350267756
 20
-230.52876116389885
 10
132.98878733372882
 20
-230.77080486626775
 10
132.56922205922373
 20
-231.01208660984668
 10
132.14921908691292
 20
-231.25260563738362
 10
131.72877978722371
 20
-231.49236112665386
 10
131.30790556742164
 20
-231.73135231992444
 10
130.88659780450277
 20
-231.9695784063647
 10
130.46485789606237
 20
-232.20703861141308
 10
130.0426872287193
 20
-232.44373214108631
 10
129.62008719057584
 20
-232.67965820389418
 10
129.1970591778065
 20
-232.91481602274033
 10
128.77360456919968
 20
-233.1492047891061
 10
128.34972477041933
 20
-233.3828237428231
 10
127.92542115111898
 20
-233.61567205824656
 10
127.50069512176557
 20
-233.84774898370304
 10
127.07554805932608
 20
-234.07905370617576
 10
126.64998138339824
 20
-234.30958549070675
 10
126.22399650258099
 20
-234.5393435823136
 10
125.79759483347829
 20
-234.76832724096744
 10
125.37077779376648
 20
-234.99653572889056
 10
124.94354679074894
 20
-235.22396828902535
 10
124.51590325109012
 20
-235.45062420079802
 10
124.08784857297243
 20
-235.67650269002482
 10
123.65938418912488
 20
-235.9016030479258
 10
123.23051149735092
 20
-236.12592449942815
 10
122.80123192621312
 20
-236.34946632807163
 10
122.37154688097075
 20
-236.57222777277227
 10
121.94145778121398
 20
-236.79420809986536
 10
121.51096604125179
 20
-237.01540656543594
 10
121.08007307188362
 20
-237.23582241852228
 10
120.64878029640099
 20
-237.4554549324165
 10
120.21708911699542
 20
-237.67430333876803
 10
119.7850009646855
 20
-237.8923669257579
 10
119.35251723680061
 20
-238.10964491463048
 10
118.91963936532133
 20
-238.32613659509258
 10
118.48636875571549
 20
-238.54184120370348
 10
118.05270684619616
 20
-238.75675804239867
 10
117.61865506794831
 20
-238.9708863990574
 10
117.18421485490502
 20
-239.1842255670837
 10
116.74938764680373
 20
-239.39677485177037
 10
116.31417486905778
 20
-239.60853352906844
 10
115.87857796988395
 20
-239.8195009217078
 10
115.44259836636047
 20
-240.02967628809705
 10
115.00623751130155
 20
-240.23905896047575
 10
114.56949682507191
 20
-240.44764820351136
 10
114.13237775326085
 20
-240.65544333428204
 10
113.69488172446822
 20
-240.86244363404543
 10
113.25701017610368
 20
-241.06864840226905
 10
112.81876454531444
 20
-241.2740569376277
 10
112.38014626151569
 20
-241.47866852189318
 10
111.94115677033675
 20
-241.6824824711971
 10
111.50179749338436
 20
-241.88549804953118
 10
111.06206988248556
 20
-242.0877145856935
 10
110.62197535827711
 20
-242.28913134031018
 10
110.18151537028572
 20
-242.48974763637617
 10
109.74069135176552
 20
-242.68956276084168
 10
109.29950477936724
 20
-242.88857609609974
 10
108.85795713241146
 20
-243.0867870310981
 10
108.41604988813462
 20
-243.28419495076255
 10
107.97378453328713
 20
-243.4807992620127
 10
107.5311625367702
 20
-243.67659933225218
 10
107.08818539195845
 20
-243.87159458473073
 10
106.64485456178245
 20
-244.06578437420495
 10
106.20117154084849
 20
-244.2591681280649
 10
105.75713779643878
 20
-244.45174521173055
 10
105.31275481497077
 20
-244.64351503498463
 10
104.86802407120481
 20
-244.83447698115313
 10
104.42294704355706
 20
-245.02463044232724
 10
103.97752521419075
 20
-245.21397481976226
 10
103.53176005370685
 20
-245.40250948777526
 10
103.0856530515992
 20
-245.59023386557467
 10
102.63920567084087
 20
-245.77714730962163
 10
102.19241940511475
 20
-245.96324924972026
 10
101.74529571915771
 20
-246.14853904654606
 10
101.29783610096993
 20
-246.33301611677538
 10
100.85004202344328
 20
-246.51667984069604
 10
100.40191497429485
 20
-246.69952963471982
 10
99.95345644114848
 20
-246.8815649153834
 10
99.50466790582095
 20
-247.062785085115
 10
99.05555086303139
 20
-247.24318957851892
 10
98.60610678727548
 20
-247.4227777800602
 10
98.15633717864046
 20
-247.60154913826514
 10
97.7062435094496
 20
-247.77950303207226
 10
97.25582727825153
 20
-247.95663890657636
 10
96.8050899626609
 20
-248.1329561538853
 10
96.3540330540594
 20
-248.3084542010641
 10
95.90265803722184
 20
-248.48313245825958
 10
95.450966396552
 20
-248.6569903344328
 10
94.99895962391344
 20
-248.8300272578001
 10
94.54663919692342
 20
-249.00224261914568
 10
94.09400661411415
 20
-249.17363586386472
 10
93.64106334755121
 20
-249.34420636725957
 10
93.18781089827772
 20
-249.51395358100032
 10
92.73425074247976
 20
-249.68287689027002
 10
92.28038437457366
 20
-249.8509757285115
 10
91.82621328178594
 20
-250.01824950951865
 10
91.37173897020942
 20
-250.184697698018
 10
90.91696295140366
 20
-250.35031977403187
 10
90.46188672791254
 20
-250.5151151931383
 10
90.00651181766628
 20
-250.6790834536935
 10
89.55083971651385
 20
-250.8422239930576
 10
89.09487194627604
 20
-251.00453632116913
 10
88.63861000351186
 20
-251.16601987741953
 10
88.18205540586303
 20
-251.32667416064112
 10
87.7252096555449
 20
-251.48649862613436
 10
87.26807426366267
 20
-251.64549275445282
 10
86.81065073886506
 20
-251.80365601919834
 10
86.35294058591269
 20
-251.960987882579
 10
85.89494531981504
 20
-252.1174878365238
 10
85.43666643918172
 20
-252.2731553248291
 10
84.97810546413531
 20
-252.42798985428928
 10
84.51926389085216
 20
-252.58199086069294
 10
84.06014323909741
 20
-252.7351578495367
 10
83.60074500960793
 20
-252.8874902691959
 10
83.14107071616165
 20
-253.03898760671336
 10
82.68112186984385
 20
-253.18964934075402
 10
82.22089999474333
 20
-253.33947498947308
 10
81.76040662261836
 20
-253.48846409501755
 10
81.29964327376986
 20
-253.63661616453354
 10
80.83861148556514
 20
-253.78393075856732
 10
80.37731277243918
 20
-253.93040736632761
 10
79.91574867427464
 20
-254.07604555718484
 10
79.4539207084588
 20
-254.22084482977667
 10
78.99183040881081
 20
-254.36480473503508
 10
78.52947929851973
 20
-254.50792479011375
 10
78.06686890553644
 20
-254.65020452744412
 10
77.60400075877708
 20
-254.79164348271755
 10
77.14087638051872
 20
-254.93224116980443
 10
76.67749730533077
 20
-255.07199714295697
 10
76.21386505001266
 20
-255.210910897425
 10
75.74998115289992
 20
-255.34898199993387
 10
75.28584713094891
 20
-255.4862099453913
 10
74.82146451985858
 20
-255.6225942914773
 10
74.35683484142413
 20
-255.7581345484361
 10
73.89195962603526
 20
-255.89283025530756
 10
73.42684040496754
 20
-256.0266809539584
 10
72.96147871720744
 20
-256.15968621288783
 10
72.49587611104448
 20
-256.2918456335844
 10
72.03003412164846
 20
-256.4231587717773
 10
71.56395430152284
 20
-256.5536252449503
 10
71.09763818283602
 20
-256.6832445984658
 10
70.63108731812383
 20
-256.8120164509296
 10
70.16430324289664
 20
-256.9399403598249
 10
69.69728750433879
 20
-257.0670159251001
 10
69.23004164308641
 20
-257.1932427229522
 10
68.76256720117075
 20
-257.3186203346172
 10
68.29486572427885
 20
-257.44314835502536
 10
67.82693874948488
 20
-257.5668263466472
 10
67.35878782745245
 20
-257.6896539231669
 10
66.8904144904959
 20
-257.81163062823776
 10
66.42182029191902
 20
-257.93275608553773
 10
65.95300676626032
 20
-258.0530298461996
 10
65.48397546251189
 20
-258.17245151693885
 10
65.01472792017348
 20
-258.2910206669975
 10
64.54526568365895
 20
-258.40873688430264
 10
64.07559030149235
 20
-258.52559977285523
 10
63.605703326660034
 20
-258.6416089544735
 10
63.13560632265068
 20
-258.756764094024
 10
62.66530083891995
 20
-258.871064799706
 10
62.1947884419204
 20
-258.9845107499118
 10
61.72407068037364
 20
-259.0971015502263
 10
61.25314911880754
 20
-259.20883687231276
 10
60.78202530944466
 20
-259.31971633661357
 10
60.310700812144205
 20
-259.42973959595014
 10
59.839177183533714
 20
-259.5389062896589
 10
59.36745597900221
 20
-259.64721605167153
 10
58.89553875950682
 20
-259.75466854023495
 10
58.423427076166
 20
-259.86126337034455
 10
57.95112249374245
 20
-259.96700021716595
 10
57.47862656062652
 20
-260.0718786827421
 10
57.00594084234642
 20
-260.175898445677
 10
56.53306689007755
 20
-260.2790591194392
 10
56.06000626524192
 20
-260.3813603636632
 10
55.58676052341493
 20
-260.4828018107196
 10
55.1133312221429
 20
-260.58338310137503
 10
54.639719925309
 20
-260.68310390587186
 10
54.165928198396976
 20
-260.7819639020848
 10
53.69195761783864
 20
-260.87996282102966
 10
53.21780974588992
 20
-260.9771003260384
 10
52.743486160860165
 20
-261.07337615913156
 10
52.26898842594754
 20
-261.1687899889438
 10
51.794318116131414
 20
-261.26334154279306
 10
51.31947679805306
 20
-261.3570305069514
 10
50.84446604268942
 20
-261.44985658975014
 10
50.36928742033754
 20
-261.5418194965238
 10
49.89394249817289
 20
-261.6329189165769
 10
49.41843285007155
 20
-261.72315457431836
 10
48.942760039607606
 20
-261.81252613998663
 10
48.46692564329464
 20
-261.90103335240104
 10
47.990931223902216
 20
-261.98867587672896
 10
47.51477835705932
 20
-262.07545344731005
 10
47.03846860834365
 20
-262.16136574349883
 10
46.56200354994862
 20
-262.24641248054127
 10
46.08538475110036
 20
-262.3305933568552
 10
45.608613780778796
 20
-262.4139080686793
 10
45.13169221344936
 20
-262.4963563431695
 10
44.65462161944192
 20
-262.5779378832555
 10
44.177403579377305
 20
-262.65865245188377
 10
43.700039661351475
 20
-262.7384997381138
 10
43.222531446909926
 20
-262.8174795107615
 10
42.74488050613285
 20
-262.895591469644
 10
42.267088417395364
 20
-262.97283536442285
 10
41.78915675411685
 20
-263.04921091401894
 10
41.31108709170455
 20
-263.1247178489074
 10
40.83288100684194
 20
-263.19935590712987
 10
40.354540072169975
 20
-263.2731247999447
 10
39.876065867560676
 20
-263.3460242845326
 10
39.39745996309194
 20
-263.41805405290586
 10
38.918723940660826
 20
-263.4892138740416
 10
38.4398593712459
 20
-263.5595034427665
 10
37.96086783516316
 20
-263.62892251553825
 10
37.48175090639051
 20
-263.6974708040804
 10
37.00251016284862
 20
-263.7651480455954
 10
36.52314718177835
 20
-263.8319539709637
 10
36.04366353899514
 20
-263.89788829874306
 10
35.564060819836044
 20
-263.9629508152811
 10
35.084340609976465
 20
-264.027141309438
 10
34.604504504480204
 20
-264.0904596413479
 10
34.1245540883541
 20
-264.1529055968551
 10
33.64449095591412
 20
-264.21447903407886
 10
33.16431669369516
 20
-264.2751797524205
 10
32.68403289315556
 20
-264.33500759079215
 10
32.20364114304953
 20
-264.39396236787456
 10
31.723143032180534
 20
-264.45204390334493
 10
31.242540151446292
 20
-264.50925203516636
 10
30.76183408719686
 20
-264.5655865637548
 10
30.28102643234819
 20
-264.62104734594385
 10
29.800118771143275
 20
-264.67563416411025
 10
29.319112697276438
 20
-264.7293468834888
 10
28.838009796192097
 20
-264.7821852964937
 10
28.35681165929915
 20
-264.83414924907504
 10
27.87551987425477
 20
-264.88523855291385
 10
27.394136030385347
 20
-264.9354530346529
 10
26.912661717484465
 20
-264.98479252525
 10
26.431098523050757
 20
-265.0332568325284
 10
25.949448041139394
 20
-265.08084582910686
 10
25.46771186248743
 20
-265.12755935501986
 10
24.985891585193308
 20
-265.17339732745205
 10
24.503988800008457
 20
-265.21835958900715
 10
24.02200510363602
 20
-265.26244604684564
 10
23.539942088144116
 20
-265.3056565598414
 10
23.05780134813916
 20
-265.3479910158645
 10
22.575584477230265
 20
-265.3894492931409
 10
22.093293068130293
 20
-265.4300312602295
 10
21.610928715910376
 20
-265.46973681471013
 10
21.128493011593456
 20
-265.50856580581103
 10
20.64598755139517
 20
-265.5465181473791
 10
20.163413925572268
 20
-265.5835936785649
 10
19.680773730221798
 20
-265.6197923136288
 10
19.198068556674446
 20
-265.65511390447836
 10
18.715299999504342
 20
-265.68955834602707
 10
18.23246965157579
 20
-265.72312550952756
 10
17.749579106143234
 20
-265.75581527053197
 10
17.266629957526597
 20
-265.78762751964604
 10
16.783623797904898
 20
-265.81856211367415
 10
16.3005622242654
 20
-265.8486189834312
 10
15.817446830472543
 20
-265.8777980106668
 10
15.334279215464003
 20
-265.90609916181444
 10
14.851060973588872
 20
-265.93352232851566
 10
14.36779370240677
 20
-265.96006745906493
 10
13.88447899726292
 20
-265.9857344640799
 10
13.401118454467294
 20
-266.01052327248783
 10
12.917713670307734
 20
-266.0344338142878
 10
12.43426624005018
 20
-266.05746599902835
 10
11.950777760847462
 20
-266.079619776092
 10
11.467249827124467
 20
-266.10089503563745
 10
10.983684036582929
 20
-266.1212917406477
 10
10.50008198372782
 20
-266.1408097792449
 10
10.016445265910102
 20
-266.1594491067443
 10
9.532775478472427
 20
-266.1772096267413
 10
9.049074218093637
 20
-266.19409127515695
 10
8.56534308105271
 20
-266.21009397497295
 10
8.08158366355912
 20
-266.22521764271085
 10
7.59779756275096
 20
-266.2394622207469
 10
7.1139863746050995
 20
-266.2528276073438
 10
6.630151697722948
 20
-266.2653137911481
 10
6.146295129445968
 20
-266.2769207148734
 10
5.66241826896633
 20
-266.28764840032665
 10
5.178522713809508
 20
-266.2974968035562
 10
4.694610062424147
 20
-266.3064659269724
 10
4.21068191261541
 20
-266.3145557460289
 10
3.7267398622914327
 20
-266.32176624373363
 10
3.2427855094605533
 20
-266.3280974149424
 10
2.758820451694778
 20
-266.33354922325657
 10
2.274846287127311
 20
-266.3381216829331
 10
1.7908646131988393
 20
-266.3418147381634
 10
1.3068770280481603
 20
-266.344628414119
 10
0.822885129313723
 20
-266.3465626610402
 10
0.3388905149982726
 20
-266.3476174883375
 10
-0.14510521699723428
 20
-266.34779286443614
 10
-0.6291004686333248
 20
-266.34708877933826
 10
-1.113093641812885
 20
-266.34550522087403
 10
-1.5970831382553325
 20
-266.3430421596383
 10
-2.08106735974487
 20
-266.3396996028715
 10
-2.5650447075709657
 20
-266.3354775033481
 10
-3.049013583769546
 20
-266.3303759146351
 10
-3.532972389990277
 20
-266.32439484262557
 10
-4.016919528810363
 20
-266.3175343638755
 10
-4.50085340223859
 20
-266.3097944999393
 10
-4.984772412894945
 20
-266.30117530796474
 10
-5.468674963255273
 20
-266.29167682891017
 10
-5.952559455776797
 20
-266.2812991005164
 10
-6.4364242934792175
 20
-266.27004218314
 10
-6.920267878453898
 20
-266.2579060951174
 10
-7.404088614301448
 20
-266.2448909147215
 10
-7.887884902665548
 20
-266.23099664532003
 10
-8.371655147412294
 20
-266.2162233704469
 10
-8.855397750382416
 20
-266.2005711046456
 10
-9.339111114907386
 20
-266.18403991204923
 10
-9.82279364330131
 20
-266.16662982659886
 10
-10.306443738156952
 20
-266.1483408930338
 10
-10.790059802339478
 20
-266.1291731646932
 10
-11.27364023749856
 20
-266.1091266669315
 10
-11.757183447127941
 20
-266.08820147248747
 10
-12.240687831818423
 20
-266.066397589265
 10
-12.724151796889126
 20
-266.0437151331103
 10
-13.207573745364588
 20
-266.0201541680288
 10
-13.690952083336038
 20
-265.9957148201771
 10
-14.17428521484531
 20
-265.970397171529
 10
-14.657571545267823
 20
-265.94420132884545
 10
-15.140809479803941
 20
-265.91712739347213
 10
-15.623997422909653
 20
-265.8891754527834
 10
-16.107133781020536
 20
-265.860345627489
 10
-16.59021695746915
 20
-265.83063798558675
 10
-17.073245359736354
 20
-265.80005266298207
 10
-17.55621739062869
 20
-265.7685897207946
 10
-18.03913145754336
 20
-265.73624929211616
 10
-18.521985964039573
 20
-265.7030314519161
 10
-19.004779316222308
 20
-265.66893631392065
 10
-19.48750991881557
 20
-265.63396397246805
 10
-19.970176176429312
 20
-265.5981145219337
 10
-20.452776495029845
 20
-265.5613880760234
 10
-20.935309277527686
 20
-265.52378470977794
 10
-21.417772931156303
 20
-265.4853045556062
 10
-21.900165857316097
 20
-265.44594767405147
 10
-22.382486466847123
 20
-265.4057142432133
 10
-22.864733166737967
 20
-265.3646043929998
 10
-23.346904368570453
 20
-265.3226183064424
 10
-23.828998481222282
 20
-265.2797561332292
 10
-24.311013914883638
 20
-265.2360180370343
 10
-24.792949080361513
 20
-265.1914041868598
 10
-25.274802386252244
 20
-265.1459147270386
 10
-25.756572245367803
 20
-265.0995498458747
 10
-26.23825706450618
 20
-265.0523096683771
 10
-26.71985525787353
 20
-265.0041943953108
 10
-27.20136523233273
 20
-264.9552041528713
 10
-27.68278540115064
 20
-264.905339130966
 10
-28.16411417277323
 20
-264.8545994722794
 10
-28.64534995850165
 20
-264.80298534740933
 10
-29.1264911687168
 20
-264.7504969183458
 10
-29.607536212550823
 20
-264.6971343363997
 10
-30.08848350239716
 20
-264.6428977828609
 10
-30.569331445016036
 20
-264.58778738977674
 10
-31.05007845449908
 20
-264.5318033543939
 10
-31.530722936552554
 20
-264.4749458024366
 10
-32.01126330901187
 20
-264.41721496337004
 10
-32.491697984611626
 20
-264.3586110229887
 10
-32.97202538124181
 20
-264.29913420907775
 10
-33.452243914153826
 20
-264.2387847269037
 10
-33.93235199904381
 20
-264.17756278497086
 10
-34.412348053730106
 20
-264.1154686077834
 10
-34.89223049151196
 20
-264.0525023845888
 10
-35.371997732851455
 20
-263.9886643591165
 10
-35.8516481884491
 20
-263.9239547013831
 10
-36.3311802801836
 20
-263.85837366486095
 10
-36.810592419864435
 20
-263.7919214287735
 10
-37.28988302686455
 20
-263.7245982277835
 10
-37.76905051547123
 20
-263.6564042602169
 10
-38.248093302291394
 20
-263.58733974153
 10
-38.72700980418652
 20
-263.5174048892857
 10
-39.205798434795504
 20
-263.44659989976407
 10
-39.684457613632034
 20
-263.3749250097582
 10
-40.16298575116473
 20
-263.302380396404
 10
-40.64138126871317
 20
-263.22896630973526
 10
-41.119642576705786
 20
-263.15468292931325
 10
-41.59776810036422
 20
-263.07953053111464
 10
-42.07575625958329
 20
-263.00350935657445
 10
-42.55360547919807
 20
-262.9266196781759
 10
-43.031314182248806
 20
-262.8488617566244
 10
-43.5088807905763
 20
-262.770235845222
 10
-43.986303730422264
 20
-262.6907422238071
 10
-44.46358142043094
 20
-262.6103811265329
 10
-44.94071228969402
 20
-262.5291528498493
 10
-45.41769475474602
 20
-262.44705761631826
 10
-45.89452724506392
 20
-262.3640957244169
 10
-46.37120817905597
 20
-262.2802674088053
 10
-46.8477359828365
 20
-262.19557294884237
 10
-47.32410907794666
 20
-262.11001259833665
 10
-47.800325886938396
 20
-262.02358661756625
 10
-48.276384834562066
 20
-261.9362952794798
 10
-48.752284339605886
 20
-261.84813882531245
 10
-49.22802283010788
 20
-261.75911754714633
 10
-49.703598720891506
 20
-261.6692316672134
 10
-50.17901044171438
 20
-261.5784814881401
 10
-50.65425640942023
 20
-261.4868672453843
 10
-51.129335060911835
 20
-261.39438927938744
 10
-51.604244829760205
 20
-261.30104791258424
 10
-52.07898415364024
 20
-261.20684348769817
 10
-52.553551470182946
 20
-261.1117763462564
 10
-53.02794521355573
 20
-261.015846811892
 10
-53.5021638255048
 20
-260.9190552451015
 10
-53.97620573648875
 20
-260.8214019504656
 10
-54.45006939137671
 20
-260.7228873023126
 10
-54.92375321992215
 20
-260.6235116015569
 10
-55.39725566601845
 20
-260.5232752166207
 10
-55.87057516248801
 20
-260.42217846302236
 10
-56.34371014934834
 20
-260.3202216901598
 10
-56.81665906346633
 20
-260.2174052325238
 10
-57.289420340784254
 20
-260.1137294205303
 10
-57.761992422288664
 20
-260.0091946076265
 10
-58.23437373964686
 20
-259.9038011052898
 10
-58.70656273766312
 20
-259.79754928423733
 10
-59.178557844663835
 20
-259.69043944206635
 10
-59.650357506412725
 20
-259.5824719539519
 10
-60.12196015478203
 20
-259.4736471343207
 10
-60.59336424087406
 20
-259.36396538135034
 10
-61.064568212680825
 20
-259.25342707903263
 10
-61.53557052057703
 20
-259.14203262098414
 10
-62.006369617307996
 20
-259.02978241006434
 10
-62.47696394902895
 20
-258.91667682095243
 10
-62.94735197330341
 20
-258.8027162753142
 10
-63.41753213186719
 20
-258.6879011289365
 10
-63.88750288528011
 20
-258.57223181459193
 10
-64.35726267635006
 20
-258.45570869224883
 10
-64.82680996252431
 20
-258.33833218100796
 10
-65.29614319085877
 20
-258.2201026579269
 10
-65.76526081421665
 20
-258.1010205232468
 10
-66.23416128440138
 20
-257.9810861728392
 10
-66.70284304949338
 20
-257.86029998813564
 10
-67.17130456611946
 20
-257.7386623838019
 10
-67.63954427737922
 20
-257.616173722511
 10
-68.10756064367246
 20
-257.49283443345155
 10
-68.57535210629693
 20
-257.3686448733518
 10
-69.04291712471982
 20
-257.2436054680307
 10
-69.51025414513406
 20
-257.117716593672
 10
-69.97736163206478
 20
-256.99097869487497
 10
-70.4442380482874
 20
-256.8633922092318
 10
-70.91088185643368
 20
-256.73495757346836
 10
-71.37729152464117
 20
-256.6056752438447
 10
-71.84346551053348
 20
-256.47554563833955
 10
-72.3094022874385
 20
-256.34456923098327
 10
-72.77510030850307
 20
-256.2127464236446
 10
-73.2405580491611
 20
-256.0800776970501
 10
-73.70577396541424
 20
-255.94656346327287
 10
-74.17074652752494
 20
-255.8122041843325
 10
-74.63547419678311
 20
-255.67700029097054
 10
-75.09995543808385
 20
-255.54095222655582
 10
-75.56418871808111
 20
-255.40406044047702
 10
-76.02817249610574
 20
-255.26632535750986
 10
-76.49190524425047
 20
-255.12774744567065
 10
-76.95538541608605
 20
-254.9883271112008
 10
-77.41861148715837
 20
-254.84806483393834
 10
-77.88158191126924
 20
-254.70696102201322
 10
-78.34429516048903
 20
-254.5650161442251
 10
-78.80674969560197
 20
-254.42223063274724
 10
-79.26894399670623
 20
-254.27860498265977
 10
-79.73087654509592
 20
-254.13413969243277
 10
-80.19254581868044
 20
-253.98883524937753
 10
-80.65395030480836
 20
-253.8426921704085
 10
-81.11508847568516
 20
-253.69571092428794
 10
-81.57595882368636
 20
-253.54789204292774
 10
-82.03655981841673
 20
-253.39923598685098
 10
-82.49688995213522
 20
-253.24974328688538
 10
-82.95694769850519
 20
-253.09941441620762
 10
-83.41673154391943
 20
-252.94824988714282
 10
-83.87623996802448
 20
-252.79625019132325
 10
-84.33547145115439
 20
-252.6434158226341
 10
-84.79442447901265
 20
-252.48974729113968
 10
-85.25309752567937
 20
-252.3352450723502
 10
-85.71148908296261
 20
-252.17990969465995
 10
-86.16959761857679
 20
-252.02374161550864
 10
-86.62742162729913
 20
-251.86674137226402
 10
-87.08495957969973
 20
-251.70890943173245
 10
-87.54220996414553
 20
-251.55024631296683
 10
-87.99917126046148
 20
-251.39075251057005
 10
-88.45584196680029
 20
-251.23042857190862
 10
-88.91222058571486
 20
-251.06927505646578
 10
-89.36830561239749
 20
-250.90729250252946
 10
-89.82409555615203
 20
-250.74448148778453
 10
-90.27958890579055
 20
-250.58084253219337
 10
-90.73478417529839
 20
-250.416376225704
 10
-91.18967985333609
 20
-250.25108308774185
 10
-91.64427445100094
 20
-250.08496369957112
 10
-92.09856646240814
 20
-249.91801859564177
 10
-92.55255439211493
 20
-249.75024833894403
 10
-93.00623674091717
 20
-249.581653482144
 10
-93.45961200664017
 20
-249.41223457002792
 10
-93.91267869683246
 20
-249.2419921734516
 10
-94.36543530239632
 20
-249.07092681906917
 10
-94.8178803367181
 20
-248.89903909330383
 10
-95.27001228655277
 20
-248.72632951253917
 10
-95.72182966572339
 20
-248.55279866449757
 10
-96.17333096515942
 20
-248.37844707732947
 10
-96.62451469160631
 20
-248.20327532069211
 10
-97.07537934660698
 20
-248.0272839509958
 10
-97.52592344699605
 20
-247.85047356401867
 10
-97.9761455176077
 20
-247.6728447755917
 10
-98.4260440711905
 20
-247.49439817060897
 10
-98.87561763997427
 20
-247.31513438284642
 10
-99.32486472961696
 20
-247.13505397913335
 10
-99.77378387645108
 20
-246.95415760283524
 10
-100.22237358894154
 20
-246.77244582775907
 10
-100.67063239717241
 20
-246.58991928121145
 10
-101.11855881659345
 20
-246.40657855431917
 10
-101.56615137004113
 20
-246.22242425638277
 10
-102.01340858029167
 20
-246.03745699649315
 10
-102.46032896274465
 20
-245.85167736602205
 10
-102.90691104757484
 20
-245.66508599199653
 10
-103.35315334255587
 20
-245.47768344793818
 10
-103.79905438320124
 20
-245.2894703737439
 10
-104.24461267586871
 20
-245.10044734028162
 10
-104.68982675338671
 20
-244.91061498129864
 10
-105.13469512774255
 20
-244.71997388175942
 10
-105.57921632399196
 20
-244.5285246576458
 10
-106.02338886715427
 20
-244.33626792503907
 10
-106.46721129664888
 20
-244.1432043334118
 10
-106.9106821648235
 20
-243.94933456160066
 10
-107.35380000654172
 20
-243.75465924807762
 10
-107.79656338146943
 20
-243.55917908751857
 10
-108.23897081915449
 20
-243.36289470598666
 10
-108.68102088109086
 20
-243.16580680150548
 10
-109.12271210162761
 20
-242.96791601077803
 10
-109.56404303458343
 20
-242.7692230140004
 10
-110.00501222228255
 20
-242.5697284655659
 10
-110.44561821068274
 20
-242.36943302792548
 10
-110.88585955015273
 20
-242.168337373129
 10
-111.32573477860294
 20
-241.96644214596589
 10
-111.76524245451746
 20
-241.76374803610966
 10
-112.20438110757235
 20
-241.56025567077432
 10
-112.64314930098529
 20
-241.35596574982517
 10
-113.08154556637453
 20
-241.15087890518606
 10
-113.51956846069223
 20
-240.94499582331932
 10
-113.95721652289409
 20
-240.73831715244347
 10
-114.39448830156385
 20
-240.53084356155114
 10
-114.83138234906434
 20
-240.32257572773943
 10
-115.2678972241097
 20
-240.11351434152095
 10
-115.70403150279814
 20
-239.9036601295019
 10
-116.13978373757557
 20
-239.69301376889473
 10
-116.57515251116561
 20
-239.48157599948038
 10
-117.01013637366833
 20
-239.26934749358125
 10
-117.44473390612711
 20
-239.0563289870338
 10
-117.87894366491268
 20
-238.84252116508077
 10
-118.31276422263372
 20
-238.62792474607838
 10
-118.74619414419047
 20
-238.41254043269626
 10
-119.17923199357386
 20
-238.19636892590069
 10
-119.61187634428423
 20
-237.97941094575435
 10
-120.04412575151174
 20
-237.76166717592486
 10
-120.47597879690419
 20
-237.5431383528056
 10
-120.90743402823676
 20
-237.32382514594875
 10
-121.33849002990692
 20
-237.10372829734987
 10
-121.7691453543212
 20
-236.8828484863892
 10
-122.1993985769301
 20
-236.66118643784603
 10
-122.62924825868215
 20
-236.43874284853692
 10
-123.0586929659452
 20
-236.215518426208
 10
-123.48773127644546
 20
-235.99151390070173
 10
-123.91636177291092
 20
-235.76673001154157
 10
-124.34458306183481
 20
-235.54116754337684
 10
-124.77239371927725
 20
-235.31482722281226
 10
-125.19979235760316
 20
-235.08770984502908
 10
-125.62677755414786
 20
-234.85981613895478
 10
-126.05334791568735
 20
-234.631146888748
 10
-126.47950202758551
 20
-234.4017028383816
 10
-126.90523848755629
 20
-234.17148475484873
 10
-127.33055589015757
 20
-233.94049339920835
 10
-127.75545282386105
 20
-233.7087295213853
 10
-128.17992789248717
 20
-233.47619389948758
 10
-128.60397967508547
 20
-233.24288726647015
 10
-129.02760678294612
 20
-233.0088104140929
 10
-129.4508077911022
 20
-232.77396406852452
 10
-129.87358130991734
 20
-232.53834901995359
 10
-130.29592592073928
 20
-232.30196600653576
 10
-130.7178402243656
 20
-232.06481580157717
 10
-131.13932281134868
 20
-231.82689916032626
 10
-131.56037227282692
 20
-231.5882168394554
 10
-131.98098721789466
 20
-231.348769627532
 10
-132.4011662544239
 20
-231.108558311029
 10
-132.8209080203478
 20
-230.8675837288425
 10
-133.24021111639448
 20
-230.62584665479727
 10
-133.65907418508385
 20
-230.3833479351951
 10
-134.07749583218703
 20
-230.14008835252972
 10
-134.49547469069617
 20
-229.89606873618564
 10
-134.9130093761351
 20
-229.6512898854261
 10
-135.33009851179088
 20
-229.4057526128204
 10
-135.7467407230083
 20
-229.15945773435993
 10
-136.16293462319373
 20
-228.91240604590132
 10
-136.57867884757607
 20
-228.66459838012742
 10
-136.99397199950658
 20
-228.41603551628575
 10
-137.40881272080523
 20
-228.16671829812535
 10
-137.8231996146825
 20
-227.91664750514846
 10
-138.23713131783038
 20
-227.66582397268036
 10
-138.6506064415892
 20
-227.4142484942625
 10
-139.06362361245405
 20
-227.1619218887025
 10
-139.47618145159652
 20
-226.90884496627984
 10
-139.88827857533494
 20
-226.65501852971224
 10
-140.2999136297945
 20
-226.40044343029638
 10
-140.7110852607712
 20
-226.1451205186964
 10
-141.12179215069153
 20
-225.88905070421768
 10
-141.53203294256193
 20
-225.6322348324214
 10
-141.94180631962473
 20
-225.3746738129069
 10
-142.35111093188667
 20
-225.11636850187023
 10
-142.75994545265047
 20
-224.8573197922392
 10
-143.16830854251103
 20
-224.59752855648512
 10
-143.57619886465926
 20
-224.33699567096932
 10
-143.98361509033825
 20
-224.07572202439053
 10
-144.3905558724512
 20
-223.813708476653
 10
-144.7970198929533
 20
-223.55095593263442
 10
-145.2030057942871
 20
-223.28746523589038
 10
-145.60851226414894
 20
-223.0232372997246
 10
-146.01353794944612
 20
-222.75827297457766
 10
-146.4180815282542
 20
-222.49257315863187
 10
-146.82214165779456
 20
-222.2261387181656
 10
-147.22571700553803
 20
-221.95897053510146
 10
-147.62880623935354
 20
-221.69106949193085
 10
-148.03140801607537
 20
-221.42243645463293
 10
-148.43352102166068
 20
-221.15307233287052
 10
-148.83514392000112
 20
-220.88297800326683
 10
-149.2362754164158
 20
-220.61215440395893
 10
-149.63691417442953
 20
-220.34060241089512
 10
-150.03705889545512
 20
-220.0683229559347
 10
-150.43670825168903
 20
-219.7953169277549
 10
-150.83586093377082
 20
-219.52158524207476
 10
-151.23451562486338
 20
-219.24712880358052
 10
-151.63267100466564
 20
-218.97194851196426
 10
-152.03032576736936
 20
-218.6960452878774
 10
-152.4274785815635
 20
-218.41942001510162
 10
-152.82412815127483
 20
-218.14207362841358
 10
-153.22027313759122
 20
-217.86400700118955
 10
-153.61591224632033
 20
-217.5852210707738
 10
-154.01104414517283
 20
-217.30571672043024
 10
-154.40566752871158
 20
-217.02549487169173
 10
-154.79978107562377
 20
-216.74455642383475
 10
-155.19338346906162
 20
-216.46290228270013
 10
-155.58647339875643
 20
-216.1805333635373
 10
-155.97904953670817
 20
-215.89745055720263
 10
-156.37111060005478
 20
-215.61365481737235
 10
-156.76265528535157
 20
-215.32914706922188
 10
-157.1536823379752
 20
-215.04392830501124
 10
-157.54419045932048
 20
-214.75799945632855
 10
-157.9341783859219
 20
-214.4713615027182
 10
-158.32364482995814
 20
-214.18401539030447
 10
-158.71258851665016
 20
-213.8959620828581
 10
-159.10100816978772
 20
-213.6072025420494
 10
-159.488902503116
 20
-213.31773771599399
 10
-159.87627025209736
 20
-213.02756858185893
 10
-160.26311011883337
 20
-212.73669607222885
 10
-160.64942084757112
 20
-212.44512117581928
 10
-161.03520113745546
 20
-212.15284482150656
 10
-161.4204497297864
 20
-211.8598679940003
 10
-161.80516533237443
 20
-211.56619163391318
 10
-162.18934667474323
 20
-211.27181671052617
 10
-162.57299247632102
 20
-210.9767441799929
 10
-162.95610145469445
 20
-210.68097499629005
 10
-163.3386723409729
 20
-210.38451013106982
 10
-163.72070384121776
 20
-210.08735052386396
 10
-164.10219471397713
 20
-209.78949718186212
 10
-164.4831436894385
 20
-209.49095107581056
 10
-164.86354954840075
 20
-209.19171324095248
 10
-165.2434110289292
 20
-208.8917846578563
 10
-165.62272690008314
 20
-208.5911663463095
 10
-166.00149591204743
 20
-208.28985930204078
 10
-166.3797168219822
 20
-207.987864529506
 10
-166.7573883922496
 20
-207.68518303954292
 10
-167.13450936794766
 20
-207.38181582140348
 10
-167.51107852367633
 20
-207.07776390098314
 10
-167.88709459231373
 20
-206.7730282524559
 10
-168.26255635596476
 20
-206.46760991084886
 10
-168.6374625495004
 20
-206.161509853021
 10
-169.01181194683272
 20
-205.85472910384377
 10
-169.38560329362144
 20
-205.54726865368045
 10
-169.75883535142853
 20
-205.23912951243267
 10
-170.13150687809804
 20
-204.93031268556936
 10
-170.50361662268483
 20
-204.62081916815342
 10
-170.87516335527997
 20
-204.31064998071432
 10
-171.24614581310334
 20
-203.99980610459292
 10
-171.61656279459845
 20
-203.68828859439589
 10
-171.98641306723596
 20
-203.37609846775382
 10
-172.35569544592408
 20
-203.06323679842848
 10
-172.72440870783055
 20
-202.74970461532678
 10
-173.09255165554424
 20
-202.43550297721075
 10
-173.46012307889694
 20
-202.12063292769218
 10
-173.82712176800172
 20
-201.80509551066476
 10
-174.1935465254123
 20
-201.4888917843909
 10
-174.5593961286096
 20
-201.1720227780282
 10
-174.92466939254896
 20
-200.85448956400583
 10
-175.28936508305367
 20
-200.53629315817605
 10
-175.65348202038604
 20
-200.21743463892568
 10
-176.01701897700727
 20
-199.89791502994746
 10
-176.37997476042003
 20
-199.57773539500238
 10
-176.74234815575244
 20
-199.25689677248155
 10
-177.10413795759635
 20
-198.93540021165452
 10
-177.46534296380764
 20
-198.61324676556197
 10
-177.82596195591353
 20
-198.2904374691203
 10
-178.18599374456096
 20
-197.96697338997117
 10
-178.54543709934984
 20
-197.64285555024136
 10
-178.90429086252567
 20
-197.31808505282822
 10
-179.26255384458673
 20
-196.9926629653406
 10
-179.62022489990457
 20
-196.666590403587
 10
-179.97730285077768
 20
-196.3398684478736
 10
-180.3337865387491
 20
-196.0124981994449
 10
-180.68967479936467
 20
-195.68448075279437
 10
-181.04496646118452
 20
-195.355817194741
 10
-181.39966037305578
 20
-195.02650863390852
 10
-181.7537553504064
 20
-194.69655614282576
 10
-182.107250253204
 20
-194.36596084180795
 10
-182.46014389029642
 20
-194.03472379638617
 10
-182.81243512168942
 20
-193.7028461266962
 10
-183.1641227650384
 20
-193.37032890778528
 10
-183.5152056670926
 20
-193.03717324561197
 10
-183.86568265875164
 20
-192.70338022940138
 10
-184.21555257336004
 20
-192.36895095107562
 10
-184.5648142551219
 20
-192.03388651398384
 10
-184.91346652382862
 20
-191.69818799615433
 10
-185.26150823704657
 20
-191.36185651501077
 10
-185.60893820221864
 20
-191.02489313622067
 10
-185.95575530364746
 20
-190.6872990049008
 10
-186.30195838695266
 20
-190.34907522623092
 10
-186.6475463373704
 20
-190.01022294591712
 10
-186.99251801429867
 20
-189.67074328309636
 10
-187.33687228953394
 20
-189.33063736947844
 10
-187.68060803616675
 20
-188.98990633795836
 10
-188.02372411240913
 20
-188.64855130639035
 10
-188.3662194050985
 20
-188.30657342137008
 10
-188.70809275871645
 20
-187.96397378704023
 10
-189.04934306966635
 20
-187.6207535594439
 10
-189.38996918125477
 20
-187.27691384175716
 10
-189.72996998411546
 20
-186.932455784218
 10
-190.0693443325508
 20
-186.5873805011661
 10
-190.40809110334837
 20
-186.24168912924853
 10
-190.7462091645088
 20
-185.8953827965583
 10
-191.08369737883115
 20
-185.54846262629871
 10
-191.4205546280707
 20
-185.2009297602657
 10
-191.75677976089835
 20
-184.85278530836558
 10
-192.09237167111164
 20
-184.50403042434198
 10
-192.42732920079138
 20
-184.1546662123232
 10
-192.76165127427072
 20
-183.80469385553866
 10
-193.0953367856841
 20
-183.4541145081637
 10
-193.42838466256663
 20
-183.10292935608902
 10
-193.76079381347796
 20
-182.75113956696944
 10
-194.0925631520198
 20
-182.39874631314362
 10
-194.42369160096493
 20
-182.04575077543365
 10
-194.75417805983946
 20
-181.69215411277324
 10
-195.08402146567767
 20
-181.3379575190948
 10
-195.41322070379076
 20
-180.98316214007332
 10
-195.74177471916985
 20
-180.6277691768278
 10
-196.06968240183926
 20
-180.2717797795226
 10
-196.39694268490902
 20
-179.915195138143
 10
-196.723554471794
 20
-179.5580164153572
 10
-197.0495166812698
 20
-179.20024478801207
 10
-197.3748282309681
 20
-178.84188143194385
 10
-197.69948802518945
 20
-178.48292751101164
 10
-198.0234949958409
 20
-178.1233842141666
 10
-198.34684803260694
 20
-177.76325269243128
 10
-198.66954607787585
 20
-177.40253414437933
 10
-198.99158803108097
 20
-177.04122973019193
 10
-199.31297295740873
 20
-176.67934075758768
 10
-199.6336999415914
 20
-176.316868550359
 10
-199.9537680957125
 20
-175.95381445501994
 10
-200.2731765211392
 20
-175.59017980702168
 10
-200.5919243169604
 20
-175.22596593833168
 10
-200.91001060067646
 20
-174.86117419550888
 10
-201.22743445822846
 20
-174.49580589611023
 10
-201.54419502195898
 20
-174.12986239658406
 10
-201.86029136840673
 20
-173.76334500358342
 10
-202.17572263480065
 20
-173.3962550748001
 10
-202.49048790761952
 20
-173.02859392279962
 10
-202.8045863107551
 20
-172.6603628909258
 10
-203.11801694665837
 20
-172.29156330281162
 10
-203.43077892573342
 20
-171.92219648759138
 10
-203.74287136641652
 20
-171.55226377987566
 10
-204.05429336547107
 20
-171.1817664947305
 10
-204.3650440573328
 20
-170.81070597765793
 10
-204.67512252497124
 20
-170.43908352979597
 10
-204.98452791267624
 20
-170.06690050233655
 10
-205.29325932622575
 20
-169.6941582130891
 10
-205.6013160044264
 20
-169.32085808857005
 10
-205.90869717978754
 20
-168.94700154785795
 10
-206.2154021038077
 20
-168.57259002342798
 10
-206.5214300263295
 20
-168.19762494407956
 10
-206.82678018616085
 20
-167.82210772739143
 10
-207.13145185045946
 20
-167.44603981176854
 10
-207.43544424518248
 20
-167.0694226000224
 10
-207.73875665110796
 20
-166.69225753709918
 10
-208.04138829221736
 20
-166.31454602003464
 10
-208.34333844795665
 20
-165.93628948828282
 10
-208.64460635555645
 20
-165.55748934538443
 10
-208.94519128137665
 20
-165.17814701605764
 10
-209.24509247974697
 20
-164.7982639133655
 10
-209.54430920378502
 20
-164.41784144742613
 10
-209.84284072490564
 20
-164.03688104071878
 10
-210.14068628282703
 20
-163.6553840888976
 10
-210.43784516483984
 20
-163.27335202282728
 10
-210.73431660069554
 20
-162.8907862266196
 10
-211.03009988487452
 20
-162.50768813272734
 10
-211.3251943043686
 20
-162.1240591656452
 10
-211.6195992403114
 20
-161.73990081997277
 10
-211.91331405535928
 20
-161.35521457335273
 10
-212.2063381213292
 20
-160.97000190775725
 10
-212.49867081901613
 20
-160.58426430925786
 10
-212.79031150753102
 20
-160.19800324483202
 10
-213.08125958577185
 20
-159.8112202088588
 10
-213.3715143999828
 20
-159.4239166534497
 10
-213.66107536061662
 20
-159.03609407631683
 10
-213.94994182042652
 20
-158.64775392939612
 10
-214.23811318058824
 20
-158.25889769819014
 10
-214.52558881050282
 20
-157.86952684202987
 10
-214.81236809821576
 20
-157.47964283157089
 10
-215.09845043097326
 20
-157.08924713434408
 10
-215.3838351835339
 20
-156.69834120629184
 10
-215.66852176095554
 20
-156.30692652303028
 10
-215.9525095245513
 20
-155.91500452592376
 10
-216.2357978929672
 20
-155.52257669554015
 10
-216.51838622703843
 20
-155.12964446825464
 10
-216.80027398538454
 20
-154.7362093483797
 10
-217.08146065655203
 20
-154.34227285871816
 10
-217.3619457646354
 20
-153.9478365442871
 10
-217.64172882405455
 20
-153.55290193991036
 10
-217.92080934643533
 20
-153.15747057523618
 10
-218.1991868651455
 20
-152.76154399202835
 10
-218.47686087917876
 20
-152.36512370468955
 10
-218.75383093883195
 20
-151.9682112604277
 10
-219.03009653617613
 20
-151.57080816261902
 10
-219.30565722654373
 20
-151.1729159555923
 10
-219.58051251476155
 20
-150.7745361454907
 10
-219.854661943231
 20
-150.375670261399
 10
-220.12810503540953
 20
-149.97631981626114
 10
-220.40084132060903
 20
-149.57648632405213
 10
-220.67287034085746
 20
-149.17617130438805
 10
-220.94419161221802
 20
-148.7753762562684
 10
-221.21480469523283
 20
-148.37410270585605
 10
-221.48470909255676
 20
-147.97235213730698
 10
-221.75390437884036
 20
-147.57012608030564
 10
-222.02239011604667
 20
-147.1674260528862
 10
-222.29016594579335
 20
-146.76425362296882
 10
-222.5572314830474
 20
-146.36061033721697
 10
-222.82358635759581
 20
-145.9564977486963
 10
-223.08923020379297
 20
-145.55191741000795
 10
-223.35416263870317
 20
-145.1468708589997
 10
-223.61838331599446
 20
-144.74135965407118
 10
-223.88189183984807
 20
-144.33538531798305
 10
-224.1446878774325
 20
-143.92894941109316
 10
-224.40677103710183
 20
-143.52205345231192
 10
-224.66814097990908
 20
-143.11469899127974
 10
-224.92879733094517
 20
-142.70688755119255
 10
-225.18873973807032
 20
-142.29862066660553
 10
-225.4479678453449
 20
-141.88989986636716
 10
-225.7064812872809
 20
-141.4807266700828
 10
-225.96427972683543
 20
-141.07110261212483
 10
-226.22136278501674
 20
-140.66102919728147
 10
-226.4777301410427
 20
-140.2505079637223
 10
-226.7333814519444
 20
-139.839540432455
 10
-226.98831647665673
 20
-139.42812818448698
 10
-227.24253493284712
 20
-139.01627277148367
 10
-227.49603656916628
 20
-138.6039757606368
 10
-227.74882112301637
 20
-138.19123870851985
 10
-228.0008883302085
 20
-137.7780631671398
 10
-228.25223794779038
 20
-137.36445069783633
 10
-228.50286969857973
 20
-136.95040283756035
 10
-228.75278335723206
 20
-136.53592115110703
 10
-229.00197863925501
 20
-136.1210071640146
 10
-229.2504553247623
 20
-135.70566243718605
 10
-229.498213142414
 20
-135.2898884971428
 10
-229.7452518590069
 20
-134.8736868897363
 10
-229.99157122247115
 20
-134.4570591461002
 10
-230.23717098613747
 20
-134.04000679716813
 10
-230.48205091711824
 20
-133.62253137855373
 10
-230.7262107551243
 20
-133.20463440641103
 10
-230.96965029105746
 20
-132.78631742343066
 10
-231.21236929665722
 20
-132.36758195763582
 10
-231.45436763379786
 20
-131.94842958570135
 10
-231.69564510610175
 20
-131.5288618468032
 10
-231.93620156265285
 20
-131.1088803026119
 10
-232.17603682694102
 20
-130.6884864963528
 10
-232.4151507349667
 20
-130.26768197473945
 10
-232.6535431299881
 20
-129.84646828490293
 10
-232.8912138347736
 20
-129.42484695873347
 10
-233.12816271224716
 20
-129.00281954712807
 10
-233.36438957180064
 20
-128.58038756728766
 10
-233.59989428913687
 20
-128.15755256996508
 10
-233.83467668048075
 20
-127.73431606912051
 10
-234.0687366123812
 20
-127.31067960315927
 10
-234.30207391897255
 20
-126.88664468897218
 10
-234.53468845310246
 20
-126.46221285028747
 10
-234.76658006818664
 20
-126.03738560761614
 10
-234.99774860504067
 20
-125.61216447113318
 10
-235.22819396707263
 20
-125.18655098150474
 10
-235.45791603363915
 20
-124.76054666267963
 10
-235.68691474665212
 20
-124.33415306862466
 10
-235.91518998870086
 20
-123.90737171761519
 10
-236.14274169755518
 20
-123.48020415378987
 10
-236.36956977263156
 20
-123.05265189706115
 10
-236.5956741383095
 20
-122.62471647695344
 10
-236.8210547137589
 20
-122.19639941651674
 10
-237.04571140983109
 20
-121.76770223079446
 10
-237.2696441653381
 20
-121.3386264458376
 10
-237.49285287746724
 20
-120.90917356234493
 10
-237.71533750073243
 20
-120.47934510725315
 10
-237.9370979300143
 20
-120.04914257298914
 10
-238.15813411943364
 20
-119.61856747903843
 10
-238.37844597873993
 20
-119.18762131848203
 10
-238.59803344806613
 20
-118.75630559648084
 10
-238.81689646018103
 20
-118.32462181088466
 10
-239.03503496651285
 20
-117.89257146548549
 10
-239.25244894864719
 20
-117.4601560756486
 10
-239.46913835215992
 20
-117.02737713497818
 10
-239.68510317600044
 20
-116.59423616019706
 10
-239.90034335962676
 20
-116.16073463469779
 10
-240.11485890588958
 20
-115.72687406982449
 10
-240.32864976807147
 20
-115.29265594874344
 10
-240.54171593523043
 20
-114.85808176874251
 10
-240.75405738021587
 20
-114.42315301556594
 10
-240.9656740781654
 20
-113.98787117258303
 10
-241.1765660213835
 20
-113.55223772798273
 10
-241.386733170962
 20
-113.11625415135337
 10
-241.59617553730456
 20
-112.67992193260353
 10
-241.80489307106458
 20
-112.24324252946849
 10
-242.0128857897771
 20
-111.80621742828555
 10
-242.22015365705917
 20
-111.36884808622139
 10
-242.42669668926064
 20
-110.93113598207401
 10
-242.63251489039794
 20
-110.49308258528784
 10
-242.8376082719176
 20
-110.0546893653407
 10
-243.04197685770487
 20
-109.61595779402504
 10
-243.24562064528922
 20
-109.17688932739604
 10
-243.44853967803627
 20
-108.73748543933233
 10
-243.65073393970215
 20
-108.2977475727246
 10
-243.85220348445364
 20
-107.85767719949227
 10
-244.0529483071522
 20
-107.41727576091327
 10
-244.25296844774402
 20
-106.97654471551272
 10
-244.45226392038543
 20
-106.53548550668614
 10
-244.6508347506867
 20
-106.09409957970182
 10
-244.84868097198805
 20
-105.65238837994929
 10
-245.045802595447
 20
-105.21035333957967
 10
-245.24219967348148
 20
-104.76799590585303
 10
-245.43787220529327
 20
-104.32531749909529
 10
-245.63282027799065
 20
-103.88231957522937
 10
-245.827043928739
 20
-103.43900356472166
 10
-246.0205432432027
 20
-102.9953709159392
 10
-246.21331827715207
 20
-102.55142306074151
 10
-246.40536910209244
 20
-102.10716143447797
 10
-246.59669579322667
 20
-101.66258747069384
 10
-246.78729840778888
 20
-101.2177025918551
 10
-246.97717704030148
 20
-100.77250823306595
 10
-247.16633173361632
 20
-100.32700580404783
 10
-247.35476259503687
 20
-99.88119673863014
 10
-247.5424696721989
 20
-99.43508244205437
 10
-247.7294530638119
 20
-98.98866433784525
 10
-247.9157128345746
 20
-98.54194383195534
 10
-248.10124906852863
 20
-98.09492233520746
 10
-248.28606184919684
 20
-97.64760125494422
 10
-248.4701512377222
 20
-97.19998198608455
 10
-248.65351731559707
 20
-96.7520659287862
 10
-248.83616011524182
 20
-96.30385446004044
 10
-249.01807973063393
 20
-95.85534897892937
 10
-249.19927619616067
 20
-95.40655085726654
 10
-249.37974959994125
 20
-94.95746148561858
 10
-249.5594999924897
 20
-94.50808223637165
 10
-249.7385274472103
 20
-94.05841448813572
 10
-249.91683203356084
 20
-93.60845961494313
 10
-250.09441381013275
 20
-93.15821898358593
 10
-250.2712728652255
 20
-92.70769396962565
 10
-250.4474092425214
 20
-92.25688592817389
 10
-250.62282304440515
 20
-91.80579623440462
 10
-250.79751431351738
 20
-91.35442623730106
 10
-250.97148314848621
 20
-90.90277730470166
 10
-251.14472960505344
 20
-90.45085078499116
 10
-251.31725376106243
 20
-89.99864803224287
 10
-251.4890556865353
 20
-89.5461703947007
 10
-251.66013544392948
 20
-89.09341921496633
 10
-251.8304931221409
 20
-88.64039584284635
 10
-252.00012876871875
 20
-88.18710160982415
 10
-252.16904248746897
 20
-87.73353786571649
 10
-252.33723432255243
 20
-87.27970593533716
 10
-252.50470437641454
 20
-86.82560716244097
 10
-252.67145270730094
 20
-86.37124287169887
 10
-252.8374794025123
 20
-85.91661439580058
 10
-253.00278453885068
 20
-85.46172306087557
 10
-253.16736818838518
 20
-85.00657018868607
 10
-253.33123044637986
 20
-84.55115710671498
 10
-253.49437136921287
 20
-84.09548512580182
 10
-253.65679104751436
 20
-83.63955556649084
 10
-253.81848948348443
 20
-83.18336971531022
 10
-253.97946673736374
 20
-82.72692887708264
 10
-254.13972282224515
 20
-82.27023433760698
 10
-254.29925778306574
 20
-81.81328739160479
 10
-254.45807165134693
 20
-81.35608932677295
 10
-254.6161644566429
 20
-80.89864142786584
 10
-254.77353624882625
 20
-80.44094498437275
 10
-254.9301870419911
 20
-79.9830012712174
 10
-255.08611690183074
 20
-79.52481157874665
 10
-255.24132583425956
 20
-79.06637717468537
 10
-255.39581390736635
 20
-78.60769934564405
 10
-255.54958113923814
 20
-78.14877935910393
 10
-255.70262758230714
 20
-77.68961849191078
 10
-255.85495326937172
 20
-77.2302180121399
 10
-256.0065582057596
 20
-76.770579176679
 10
-256.15744240052254
 20
-76.31070324164571
 10
-256.30760582940053
 20
-75.85059145030809
 10
-256.45704851768414
 20
-75.39024506021696
 10
-256.6057704308562
 20
-74.9296653075763
 10
-256.75377159840593
 20
-74.46885344743286
 10
-256.90105199723047
 20
-74.00781071599067
 10
-257.04761164102695
 20
-73.54653835940663
 10
-257.19345052468503
 20
-73.08503761596083
 10
-257.3385686460434
 20
-72.62330972305568
 10
-257.4829660179221
 20
-72.16135592095341
 10
-257.62664262223564
 20
-71.69917743843749
 10
-257.76959848846747
 20
-71.23677551728395
 10
-257.9118335860098
 20
-70.7741513788633
 10
-258.05334794325506
 20
-70.31130626097045
 10
-258.19414152434064
 20
-69.84824137995186
 10
-258.3342143319045
 20
-69.38495796223688
 10
-258.4735663473832
 20
-68.92145722612662
 10
-258.6121975575013
 20
-68.45774038988392
 10
-258.75010796161115
 20
-67.99380867387765
 10
-258.88729753046266
 20
-67.52966328833735
 10
-259.02376628063035
 20
-67.06530545542007
 10
-259.159514168746
 20
-66.6007363780182
 10
-259.2945412188073
 20
-66.1359572771586
 10
-259.4288473973948
 20
-65.67096935550973
 10
-259.5624327123868
 20
-65.20577382614296
 10
-259.6952971480877
 20
-64.74037189373082
 10
-259.8274406961415
 20
-64.27476476350924
 10
-259.95886333537
 20
-63.80895363554174
 10
-260.0895649595629
 20
-63.342939684569444
 10
-260.21954549742463
 20
-62.8767240940155
 10
-260.34880481757335
 20
-62.41030802945444
 10
-260.4773428575351
 20
-61.94369267454918
 10
-260.60515949508823
 20
-61.476879195371
 10
-260.7322546513815
 20
-61.00986876888165
 10
-260.8586282217079
 20
-60.54266256392101
 10
-260.9842801107891
 20
-60.075261750885524
 10
-261.1092102314045
 20
-59.60766750129793
 10
-261.23341847179995
 20
-59.13988097912436
 10
-261.3569047622138
 20
-58.67190335848616
 10
-261.4796689743679
 20
-58.20373579705315
 10
-261.6017110478681
 20
-57.735379469368084
 10
-261.72303085859136
 20
-57.26683553232777
 10
-261.8436283156833
 20
-56.79810515057962
 10
-261.9635032978216
 20
-56.32918948000334
 10
-262.0826556951565
 20
-55.860089678591855
 10
-262.20108540383274
 20
-55.39080690498683
 10
-262.31879229744754
 20
-54.921342311310326
 10
-262.4357762895917
 20
-54.451697058883774
 10
-262.55203723726584
 20
-53.98187229409192
 10
-262.66757506391195
 20
-53.51186917899759
 10
-262.78238963261316
 20
-53.04168885994928
 10
-262.8964808529804
 20
-52.57133249392474
 10
-263.0098486045313
 20
-52.100801229762325
 10
-263.1224927802
 20
-51.63009621879205
 10
-263.23441327685197
 20
-51.15921861249109
 10
-263.3456099367143
 20
-50.688169548668625
 10
-263.4560825183623
 20
-50.21695014499753
 10
-263.5658306982775
 20
-49.745561499935356
 10
-263.674854217782
 20
-49.274004727237894
 10
-263.7831527574941
 20
-48.80228092672084
 10
-263.8907260459455
 20
-48.33039120943266
 10
-263.9975737793034
 20
-47.858336679168325
 10
-264.1036956689722
 20
-47.386118443398296
 10
-264.20909142812985
 20
-46.913737610161725
 10
-264.3137607510231
 20
-46.44119528349101
 10
-264.4177033678675
 20
-45.96849257559698
 10
-264.5209189557246
 20
-45.49563058720615
 10
-264.6234072552475
 20
-45.02261043320181
 10
-264.725167946164
 20
-44.54943321543651
 10
-264.82620076188005
 20
-44.0761000476059
 10
-264.92650541555884
 20
-43.60261203923886
 10
-265.026081640688
 20
-43.12897030437907
 10
-265.1249291705432
 20
-42.65517595716656
 10
-265.22304772137056
 20
-42.18123010837475
 10
-265.320437043511
 20
-41.70713387601903
 10
-265.4170968359431
 20
-41.23288836774019
 10
-265.51302685994847
 20
-40.758494704120004
 10
-265.60822681565736
 20
-40.28395399352013
 10
-265.70269645441954
 20
-39.809267354855066
 10
-265.7964354909956
 20
-39.334435899923704
 10
-265.88944365946014
 20
-38.85946074461464
 10
-265.9817206916696
 20
-38.384343004591955
 10
-266.07326630439974
 20
-37.90908379285606
 10
-266.1640802597697
 20
-37.433684231371274
 10
-266.25416231547877
 20
-36.95814544137507
 10
-266.34351229996236
 20
-36.48246855753047
 10
-266.43212998038774
 20
-36.006654702888994
 10
-266.52001517687177
 20
-35.530705010389084
 10
-266.6071676709051
 20
-35.05462060575382
 10
-266.69358726541793
 20
-34.57840261865576
 10
-266.7792737591839
 20
-34.10205217797169
 10
-266.86422693792275
 20
-33.625570410246794
 10
-266.9484466177023
 20
-33.148958447438204
 10
-267.0319325670093
 20
-32.672217413099695
 10
-267.1146846140427
 20
-32.195348441301064
 10
-267.19670252555744
 20
-31.71835265542629
 10
-267.2779861229051
 20
-31.241231188344333
 10
-267.3585351121799
 20
-30.763985153424613
 10
-267.43834894916694
 20
-30.286615622672088
 10
-267.5174270201591
 20
-29.809123658235805
 10
-267.59576870001786
 20
-29.331510322414584
 10
-267.6733733915908
 20
-28.853776684125982
 10
-267.75024045164895
 20
-28.37592380684081
 10
-267.82636929503843
 20
-27.897952765458058
 10
-267.90175927444193
 20
-27.419864626985852
 10
-267.97640979877394
 20
-26.941660469432637
 10
-268.0503202334141
 20
-26.46334136602868
 10
-268.1234899693112
 20
-25.98490839609402
 10
-268.19591838866927
 20
-25.50636263967451
 10
-268.26760486447034
 20
-25.02770517755021
 10
-268.3385487958588
 20
-24.548937096527855
 10
-268.408749590947
 20
-24.070059486756804
 10
-268.47820698478034
 20
-23.591073487788325
 10
-268.54692073562535
 20
-23.11198024299634
 10
-268.61489066029714
 20
-22.632780904419544
 10
-268.6821165298943
 20
-22.153476617766483
 10
-268.7485981436766
 20
-21.674068532969734
 10
-268.8143352901404
 20
-21.19455779866933
 10
-268.8793277509762
 20
-20.71494556283629
 10
-268.9435753320971
 20
-20.235232976965285
 10
-269.0070777976106
 20
-19.755421187209954
 10
-269.0698349672765
 20
-19.275511347382338
 10
-269.1318465983757
 20
-18.795504603358058
 10
-269.1931125085961
 20
-18.31540210916027
 10
-269.25363246747895
 20
-17.83520501289737
 10
-269.3134062566307
 20
-17.3549144645893
 10
-269.3724334569671
 20
-16.874531589958522
 10
-269.43071353573737
 20
-16.3940575022222
 10
-269.488245980548
 20
-15.91349331887576
 10
-269.545030239226
 20
-15.432840154485758
 10
-269.60106581348504
 20
-14.952099131854474
 10
-269.6563521420786
 20
-14.471271368259046
 10
-269.7108887261216
 20
-13.990357990069867
 10
-269.76467501572785
 20
-13.509360119677794
 10
-269.81771049406007
 20
-13.028278885106133
 10
-269.86999462848064
 20
-12.547115414487733
 10
-269.9215268842056
 20
-12.065870837648404
 10
-269.97230674594874
 20
-11.584546288399205
 10
-270.02233366098744
 20
-11.103142898519003
 10
-270.07160712868455
 20
-10.621661807149122
 10
-270.12012656560387
 20
-10.14010414689444
 10
-270.1678914253283
 20
-9.658471056230026
 10
-270.21490110538986
 20
-9.176763670185931
 10
-270.2611550390344
 20
-8.694983129534783
 10
-270.3066526409249
 20
-8.213130575435343
 10
-270.3513933260702
 20
-7.731207151329647
 10
-270.39537652637966
 20
-7.24921400444659
 10
-270.43860163863906
 20
-6.767152281053724
 10
-270.4810681103965
 20
-6.285023134239044
 10
-270.5227753254031
 20
-5.802827713701865
 10
-270.563722734606
 20
-5.320567177283816
 10
-270.6039097320163
 20
-4.8382426802012635
 10
-270.6433357505194
 20
-4.355855383262942
 10
-270.68200020166483
 20
-3.8734064477895176
 10
-270.71990252531003
 20
-3.3908970396615645
 10
-270.7570423359365
 20
-2.9083283403990654
 10
-270.79341927881796
 20
-2.4257015352632263
 10
-270.82903304839
 20
-1.9430178143876502
 10
-270.8638832749326
 20
-1.4602783643120463
 10
-270.89796965851923
 20
-0.9774843778449648
 10
-270.9312918390874
 20
-0.49463704465825303
 10
-270.96384949860885
 20
-0.011737558579297355
 10
-270.9956422946573
 20
0.4712128870547678
 10
-271.0266698911074
 20
0.9542130972430758
 10
-271.05693196323534
 20
1.437261875052899
 10
-271.0864281568239
 20
1.9203580241603917
 10
-271.115158164665
 20
2.403500344121985
 10
-271.1431216152157
 20
2.8866876370920065
 10
-271.17031820935995
 20
3.369918699714963
 10
-271.196747579331
 20
3.8531923312997955
 10
-271.22240938882675
 20
4.336507328041867
 10
-271.2473032718264
 20
4.81986248638376
 10
-271.2714288717649
 20
5.303256600843254
 10
-271.29478584052987
 20
5.786688464129658
 10
-271.3173738035399
 20
6.270156868805122
 10
-271.33919243066424
 20
6.7536606039162
 10
-271.3602413293203
 20
7.237198459913446
 10
-271.38052017894967
 20
7.720769222608509
 10
-271.4000285944279
 20
8.204371679138754
 10
-271.418766238866
 20
8.688004613165836
 10
-271.4367327446955
 20
9.171666808116454
 10
-271.4539277571599
 20
9.655357045418427
 10
-271.47035092683126
 20
10.139074104838762
 10
-271.48600187867277
 20
10.622816765495873
 10
-271.5008799761893
 20
11.106583812862723
 10
-271.5149839312035
 20
11.590374048595402
 10
-271.528312456219
 20
12.074186268355842
 10
-271.5408641981072
 20
12.558019263486985
 10
-271.55263785466934
 20
13.041871817725378
 10
-271.5636320884954
 20
13.525742709479871
 10
-271.5738455785368
 20
14.009630710483552
 10
-271.58327700483045
 20
14.4935345861917
 10
-271.5919250275432
 20
14.977453096127645
 10
-271.59978834449265
 20
15.461384992818465
 10
-271.6068655971231
 20
15.945329023375827
 10
-271.61315549462387
 20
16.42928392750705
 10
-271.6186566800344
 20
16.913248439461018
 10
-271.6233678515036
 20
17.397221286384244
 10
-271.6272876680338
 20
17.88120118944116
 10
-271.63041532988615
 20
18.365186859969977
 10
-271.63275187164436
 20
18.8491769965551
 10
-271.63429871720547
 20
19.333170301463745
 10
-271.63505732530695
 20
19.81716548391217
 10
-271.6350291021436
 20
20.301161260248236
 10
-271.634215519408
 20
20.785156353795674
 10
-271.6326179830389
 20
21.269149494821896
 10
-271.63023795653436
 20
21.753139420688733
 10
-271.6270768610502
 20
22.23712487556321
 10
-271.62313614188326
 20
22.721104610645998
 10
-271.61841723833373
 20
23.2050773840281
 10
-271.61292157743634
 20
23.689041960542447
 10
-271.6066506162535
 20
24.172997112226465
 10
-271.59960576349994
 20
24.6569416173386
 10
-271.5917884889144
 20
25.14087426180334
 10
-271.5831999400388
 20
25.624793832648724
 10
-271.57383909979296
 20
26.108699080199937
 10
-271.56370376465884
 20
26.592588725298416
 10
-271.5527917499038
 20
27.076461478506182
 10
-271.54110086044045
 20
27.560316039483414
 10
-271.528628893473
 20
28.04415109694052
 10
-271.515373672178
 20
28.52796532947614
 10
-271.5013329758206
 20
29.01175740366566
 10
-271.4865046427306
 20
29.49552597689936
 10
-271.4708864454161
 20
29.97926969368446
 10
-271.4544762213181
 20
30.46298718960844
 10
-271.4372717567313
 20
30.946677087602076
 10
-271.419270871969
 20
31.43033800071253
 10
-271.40047137316543
 20
31.91396853042644
 10
-271.3808710636698
 20
32.397567266976296
 10
-271.36046777465737
 20
32.88113279058998
 10
-271.3392600997744
 20
33.364663704093495
 10
-271.31724840134507
 20
33.84815868337235
 10
-271.294433193828
 20
34.33161641288612
 10
-271.2708150602787
 20
34.81503558270748
 10
-271.24639452691144
 20
35.29841488263568
 10
-271.22117215780537
 20
35.781753006734945
 10
-271.19514849740597
 20
36.26504865049395
 10
-271.1683240908183
 20
36.74830051179529
 10
-271.1406995005655
 20
37.23150729187938
 10
-271.1122752527794
 20
37.714667692269764
 10
-271.0830519264743
 20
38.19778041993615
 10
-271.0530300331199
 20
38.68084418013235
 10
-271.022210156007
 20
39.16385768483942
 10
-270.9905928166521
 20
39.64681964448986
 10
-270.95817857923794
 20
40.12972877454287
 10
-270.9249679789624
 20
40.61258379084202
 10
-270.89096120260336
 20
41.09538338679213
 10
-270.85615782285583
 20
41.578126212083355
 10
-270.82055731798386
 20
42.06081090687265
 10
-270.784159215353
 20
42.54343611195286
 10
-270.7469629753858
 20
43.02600046010297
 10
-270.7089681349311
 20
43.508502586925204
 10
-270.670174164168
 20
43.9909411198404
 10
-270.6305805820766
 20
44.47331468709053
 10
-270.5901868778844
 20
44.95562191148764
 10
-270.5489925527539
 20
45.4378614137445
 10
-270.5069971151183
 20
45.920031812149546
 10
-270.46420004837756
 20
46.40213171971484
 10
-270.4206008803258
 20
46.88415975029108
 10
-270.37619907666266
 20
47.366114509021585
 10
-270.33099417665426
 20
47.84799460464773
 10
-270.28498565268677
 20
48.32979863657851
 10
-270.23817309259357
 20
48.81152521215181
 10
-270.1905561987779
 20
49.29317294729403
 10
-270.1421347127907
 20
49.77474045967814
 10
-270.0929083778462
 20
50.2562263651665
 10
-270.04287691709686
 20
50.73762927554092
 10
-269.9920400925142
 20
51.21894780457997
 10
-269.9403976089126
 20
51.700180557997975
 10
-269.8879492404673
 20
52.181326146844
 10
-269.83469469363075
 20
52.66238317278121
 10
-269.78063373230356
 20
53.143350241678355
 10
-269.72576607922247
 20
53.62422595274601
 10
-269.67009148014597
 20
54.105008905654856
 10
-269.61360967683225
 20
54.58569769752484
 10
-269.556320396952
 20
55.06629092166295
 10
-269.4982234013823
 20
55.546787173185706
 10
-269.4393183997624
 20
56.02718503886276
 10
-269.3796051896235
 20
56.50748311407266
 10
-269.3190836741446
 20
56.98768000562795
 10
-269.2577538988766
 20
57.467774337125974
 10
-269.19561586242816
 20
57.947764725443015
 10
-269.1326695923621
 20
58.42764979034002
 10
-269.0689151060526
 20
58.90742814946185
 10
-269.0043524126756
 20
59.38709841850796
 10
-268.93898154839763
 20
59.86665921597459
 10
-268.8728025040485
 20
60.346109153327376
 10
-268.8058153309939
 20
60.825446849489474
 10
-268.7380200126212
 20
61.3046709130546
 10
-268.66941659900124
 20
61.78377996108547
 10
-268.60000508672493
 20
62.26277260216245
 10
-268.52978550761884
 20
62.741647448991515
 10
-268.45875787717074
 20
63.22040311100026
 10
-268.3869222090088
 20
63.69903819636847
 10
-268.3142785373452
 20
64.17755131542545
 10
-268.24082679230366
 20
64.65594106159884
 10
-268.16656680145127
 20
65.13420601096567
 10
-268.09149830079593
 20
65.612344723248
 10
-268.01562109799346
 20
66.0903557670584
 10
-267.9389349408515
 20
66.56823769928842
 10
-267.8614396190649
 20
67.04598908116591
 10
-267.78313489959015
 20
67.52360846795064
 10
-267.70402055422835
 20
68.00109441331219
 10
-267.6240963691899
 20
68.47844547096787
 10
-267.5433620984477
 20
68.95566018685906
 10
-267.4618175472147
 20
69.43273711319213
 10
-267.379462452779
 20
69.90967478818881
 10
-267.29629662945297
 20
70.3864717608865
 10
-267.2123198250735
 20
70.86312656638559
 10
-267.12753183634555
 20
71.33963774587575
 10
-267.04193243068795
 20
71.81600383293332
 10
-266.9555213888009
 20
72.29222336100935
 10
-266.8682986031209
 20
72.76829488159011
 10
-266.7802641088296
 20
73.24421697063148
 10
-266.69141800117757
 20
73.71998821414519
 10
-266.60176031243117
 20
74.19560718540316
 10
-266.5112911487414
 20
74.6710724705334
 10
-266.4200105479291
 20
75.14638264171782
 10
-266.32791860192134
 20
75.62153628041358
 10
-266.23501536609524
 20
76.09653196000691
 10
-266.141300914185
 20
76.57136825635666
 10
-266.04677532049885
 20
77.04604374439056
 10
-265.95143864063454
 20
77.52055699419914
 10
-265.85529096786513
 20
77.9949065823364
 10
-265.75833233971036
 20
78.46909107295289
 10
-265.66056286229986
 20
78.94310904304506
 10
-265.5619825735607
 20
79.41695905446863
 10
-265.46259157097666
 20
79.89063968023376
 10
-265.36238990827354
 20
80.36414948306945
 10
-265.26137763922287
 20
80.8374870244177
 10
-265.1595547563634
 20
81.31065085126022
 10
-265.0569212338493
 20
81.78363950494683
 10
-264.9534770762212
 20
82.25645153173004
 10
-264.8492222396954
 20
82.7290854655867
 10
-264.74415674361046
 20
83.20153985265355
 10
-264.6382805391526
 20
83.67381322222965
 10
-264.5315936427231
 20
84.14590411640359
 10
-264.4240960197203
 20
84.61781106404696
 10
-264.31578766878346
 20
85.08953259975752
 10
-264.2066685745576
 20
85.56106725316764
 10
-264.0967387179901
 20
86.03241355120817
 10
-263.9859981030449
 20
86.50357002436523
 10
-263.8744466930471
 20
86.97453519173335
 10
-263.76208450895865
 20
87.44530758417663
 10
-263.64891150373643
 20
87.91588571450119
 10
-263.5349277013828
 20
88.386268110642
 10
-263.42013309928745
 20
88.85645329234609
 10
-263.30452791026056
 20
89.32643983047201
 10
-263.1881123849367
 20
89.7962263045239
 10
-263.07088677758327
 20
90.26581129438698
 10
-262.9528513575468
 20
90.73519338323426
 10
-262.83400636087293
 20
91.20437114535069
 10
-262.71435207509984
 20
91.67334316752732
 10
-262.59388871951273
 20
92.14210801863601
 10
-262.4726165897058
 20
92.61066428653575
 10
-262.3505359149317
 20
93.07901054144637
 10
-262.227646972657
 20
93.54714536549801
 10
-262.10395001085095
 20
94.01506733254959
 10
-261.97944528891463
 20
94.48277501883132
 10
-261.85413307353616
 20
94.9502670019221
 10
-261.72801360611453
 20
95.41754185198054
 10
-261.6010871720587
 20
95.88459815039037
 10
-261.47335399483217
 20
96.35143446106515
 10
-261.3448143685416
 20
96.81804936650627
 10
-261.2154684107679
 20
97.28444139974067
 10
-261.085316142895
 20
97.75060906546118
 10
-260.9543575379849
 20
98.21655085274644
 10
-260.8225925888999
 20
98.68226525393007
 10
-260.69002128799303
 20
99.14775075896432
 10
-260.5566436108602
 20
99.61300585071812
 10
-260.4224595692327
 20
100.07802902011464
 10
-260.28746912152917
 20
100.54281874038766
 10
-260.15167229337806
 20
101.00737350190117
 10
-260.0150690428259
 20
101.47169177298122
 10
-259.8776593891954
 20
101.93577203753082
 10
-259.7394433065619
 20
102.39961276374648
 10
-259.60042079729607
 20
102.86321242579105
 10
-259.46059185517584
 20
103.32656949287347
 10
-259.31995646571244
 20
103.78968242924648
 10
-259.17851464247985
 20
104.25254970524001
 10
-259.03626635422575
 20
104.71516977502671
 10
-258.893211650338
 20
105.17754111510358
 10
-258.7493507691387
 20
105.63966225862656
 10
-258.6046841972111
 20
106.10153181531561
 10
-258.459212370729
 20
106.56314837928777
 10
-258.31293576171095
 20
107.02451055598598
 10
-258.16585482450216
 20
107.4856169453881
 10
-258.01797001279647
 20
107.94646614730111
 10
-257.8692817990749
 20
108.40705676763673
 10
-257.7197906187694
 20
108.86738740039063
 10
-257.5694969611083
 20
109.32745665703632
 10
-257.4184012473912
 20
109.7872631269131
 10
-257.26650397178554
 20
110.24680542322926
 10
-257.1138055660107
 20
110.70608213863521
 10
-256.96030650603336
 20
111.16509188038688
 10
-256.80600724169875
 20
111.62383324702286
 10
-256.65090823083705
 20
112.0823048396694
 10
-256.4950099413926
 20
112.54050526282772
 10
-256.3383128131235
 20
112.998433111318
 10
-256.1808173229286
 20
113.45608699253626
 10
-256.02252379153157
 20
113.91346545980211
 10
-255.8634325607463
 20
114.37056707285701
 10
-255.70354390450544
 20
114.8273903668672
 10
-255.54285814898475
 20
115.28393389413088
 10
-255.38137558599126
 20
115.74019619384087
 10
-255.21909652433246
 20
116.19617581005743
 10
-255.05602127453471
 20
116.65187128637362
 10
-254.89215012811817
 20
117.10728115843808
 10
-254.7274834143533
 20
117.56240397433913
 10
-254.5620214075546
 20
118.01723826114238
 10
-254.39576444976908
 20
118.4717825693265
 10
-254.22871281616827
 20
118.92603542379878
 10
-254.06086684064203
 20
119.3799953697747
 10
-253.89222681423914
 20
119.83366093549026
 10
-253.72279305379215
 20
120.28703065747004
 10
-253.55256586924637
 20
120.74010306845955
 10
-253.3815455604685
 20
121.1928766961258
 10
-253.2097324557356
 20
121.64535007759343
 10
-253.03712683009715
 20
122.09752172847145
 10
-252.8637290145408
 20
122.5493901843131
 10
-252.689539273246
 20
123.00095395369304
 10
-252.51455793552014
 20
123.45221156880598
 10
-252.33878527906134
 20
123.90316154048331
 10
-252.16222161614357
 20
124.35380239150794
 10
-251.9848672431977
 20
124.8041326370358
 10
-251.80672245556144
 20
125.25415079026834
 10
-251.62778756843463
 20
125.7038553707823
 10
-251.44806286031434
 20
126.15324488202805
 10
-251.2675486637306
 20
126.60231784750573
 10
-251.08624524486785
 20
127.0510727625312
 10
-250.90415294177987
 20
127.49950814981067
 10
-250.72127203215595
 20
127.94762250604599
 10
-250.53760283738504
 20
128.39541434408932
 10
-250.35314565413213
 20
128.8428821650928
 10
-250.1679007872192
 20
129.29002447188816
 10
-249.9818685552195
 20
129.73683977138512
 10
-249.7950493627518
 20
130.183326604928
 10
-249.60744380834885
 20
130.6294835942965
 10
-249.41905243711201
 20
131.07530933878377
 10
-249.22987586717704
 20
131.52080246845856
 10
-249.03991465015173
 20
131.96596158520939
 10
-248.84916938887937
 20
132.410785312654
 10
-248.65764065191806
 20
132.8552722597216
 10
-248.46532902449115
 20
133.29942104239262
 10
-248.27223509287668
 20
133.74323027704662
 10
-248.07835942476032
 20
134.1866985718534
 10
-247.88370262410575
 20
134.62982455071946
 10
-247.68826524114561
 20
135.07260681382942
 10
-247.492047891821
 20
135.5150439901626
 10
-247.29505112602823
 20
135.95713467932123
 10
-247.09727555155237
 20
136.39887750643493
 10
-246.89872173292497
 20
136.84027107715195
 10
-246.699390260567
 20
137.28131400848812
 10
-246.4992817167135
 20
137.72200491357611
 10
-246.29839664667418
 20
138.1623423884343
 10
-246.09673550957945
 20
138.6023249890957
 10
-245.89429869217517
 20
139.0419512372024
 10
-245.69108663986043
 20
139.4812196799861
 10
-245.48709973275768
 20
139.920128833147
 10
-245.28233841601258
 20
140.35867724110727
 10
-245.07680308273316
 20
140.79686342265487
 10
-244.87049416164356
 20
141.23468591175967
 10
-244.66341206429112
 20
141.67214323288812
 10
-244.45555720308067
 20
142.1092339093917
 10
-244.24693000803256
 20
142.54595647151453
 10
-244.0375308753353
 20
142.98230943182114
 10
-243.82736025260064
 20
143.4182913259953
 10
-243.6164185226496
 20
143.85390065697413
 10
-243.40470614023047
 20
144.28913596087241
 10
-243.19222349905363
 20
144.72399574262883
 10
-242.97897103782012
 20
145.15847852747353
 10
-242.76494916892833
 20
145.59258282616992
 10
-242.550158322412
 20
146.02630715650776
 10
-242.3345991316003
 20
146.45965013586013
 10
-242.11827241677423
 20
146.89261047466246
 10
-241.90117905063192
 20
147.32518691060207
 10
-241.68331984612564
 20
147.75737815252074
 10
-241.46469568513052
 20
148.18918294502814
 10
-241.2453073842562
 20
148.62060000086717
 10
-241.02515581153463
 20
149.05162805990662
 10
-240.80424179859062
 20
149.4822658445495
 10
-240.5825661954764
 20
149.9125120876289
 10
-240.360129850151
 20
150.34236552195827
 10
-240.1369335947682
 20
150.77182487315682
 10
-239.91297829353567
 20
151.20088888449433
 10
-239.68826476078993
 20
151.62955627420234
 10
-239.4627938721232
 20
152.0578257935279
 10
-239.2365664384798
 20
152.48569616070625
 10
-239.0095833287339
 20
152.91316612544173
 10
-238.78184536633475
 20
153.34023441431984
 10
-238.55335340236698
 20
153.76689976949143
 10
-238.32410822922964
 20
154.19316090247466
 10
-238.0941103558261
 20
154.61901637218023
 10
-237.86336021321614
 20
155.0444646939394
 10
-237.63185819354877
 20
155.46950435990314
 10
-237.3996047438193
 20
155.89413388995527
 10
-237.16660024810747
 20
156.31835176750437
 10
-236.93284515639897
 20
156.7421565099263
 10
-236.69833986532657
 20
157.16554660311235
 10
-236.46308480980267
 20
157.58852055189007
 10
-236.22708040512933
 20
158.01107684804418
 10
-235.99032707126838
 20
158.43321398369497
 10
-235.75282524224687
 20
158.85493045663813
 10
-235.51457532319907
 20
159.27622474613128
 10
-235.27557776693166
 20
159.69709535609852
 10
-235.03583296388229
 20
160.11754075278176
 10
-234.79534137731065
 20
160.53755944154685
 10
-234.55410340821552
 20
160.95714988988422
 10
-234.31211950525693
 20
161.37631059023698
 10
-234.06939008880053
 20
161.7950400164114
 10
-233.82591570132305
 20
162.2133367108602
 10
-233.5816971483026
 20
162.63119936810273
 10
-233.33673525267693
 20
163.04862669310486
 10
-233.09103087420044
 20
163.46561741287948
 10
-232.84458481879767
 20
163.88217022317585
 10
-232.5973979564298
 20
164.29828385798024
 10
-232.34947109399414
 20
164.71395701430578
 10
-232.1008050914171
 20
165.12918842108303
 10
-231.85140076951518
 20
165.54397678427313
 10
-231.6012589712756
 20
165.95832082344847
 10
-231.3503805337095
 20
166.3722192549518
 10
-231.09876628296738
 20
166.7856707888295
 10
-230.8464170721974
 20
167.19867415186172
 10
-230.59333371081541
 20
167.61122804440083
 10
-230.33951706453655
 20
168.023331201554
 10
-230.0849679366874
 20
168.43498232031885
 10
-229.8296871902996
 20
168.8461801347507
 10
-229.57367564018813
 20
169.2569233492844
 10
-229.31693413212741
 20
169.66721068776346
 10
-229.05946346393276
 20
170.07704084415826
 10
-228.80126438381993
 20
170.486412481045
 10
-228.542337653555
 20
170.89532426909244
 10
-228.28268400153544
 20
171.30377485732728
 10
-228.0223042051178
 20
171.71176292534426
 10
-227.76119898027244
 20
172.11928711305944
 10
-227.49936910963058
 20
172.52634610244192
 10
-227.23681531894886
 20
172.9329385384066
 10
-226.97353837514274
 20
173.33906309174938
 10
-226.70953902076926
 20
173.7447184169282
 10
-226.4448180071409
 20
174.1499031734064
 10
-226.17937609359686
 20
174.55461602526645
 10
-225.91321401596093
 20
174.95885562048002
 10
-225.64633255033687
 20
175.36262063283652
 10
-225.37873241717423
 20
175.7659096986598
 10
-225.11041440255235
 20
176.1687214970115
 10
-224.841379231978
 20
176.571054665964
 10
-224.5716276799508
 20
176.97290787548653
 10
-224.30116048906095
 20
177.3742797734336
 10
-224.02997846046568
 20
177.77516904638796
 10
-223.75808243845904
 20
178.17557440976273
 10
-223.4854732554231
 20
178.57549457069732
 10
-223.21215177401538
 20
178.97492825680473
 10
-222.93811881084895
 20
179.37387416402655
 10
-222.66337524022657
 20
179.77233102767397
 10
-222.3879218762067
 20
180.17029754138
 10
-222.11175958805953
 20
180.56777243665977
 10
-221.83488920239668
 20
180.96475441523145
 10
-221.55731157283066
 20
181.36124219729186
 10
-221.27902754206983
 20
181.75723449516875
 10
-221.0000379481863
 20
182.15273001758354
 10
-220.72034364994946
 20
182.54772748754414
 10
-220.4399454700095
 20
182.94222560213913
 10
-220.15884428117644
 20
183.33622309370742
 10
-219.87704089675597
 20
183.72971865181023
 10
-219.59453619176634
 20
184.1227110097038
 10
-219.3113309897938
 20
184.5151988633645
 10
-219.02742615149432
 20
184.90718093498774
 10
-218.74282253789818
 20
185.29865594671912
 10
-218.4575210344417
 20
185.6896226381422
 10
-218.17152253845575
 20
186.0800797573885
 10
-217.88482792075806
 20
186.47002603298833
 10
-217.59743809436452
 20
186.85946022429107
 10
-217.30935391478536
 20
187.24838104803555
 10
-217.0205763032955
 20
187.63678726935333
 10
-216.73110612237727
 20
188.02467760954082
 10
-216.4409442790505
 20
188.41205082275965
 10
-216.15009165122027
 20
188.7989056411628
 10
-215.85854913071128
 20
189.18524080700095
 10
-215.5663176111662
 20
189.57105506361725
 10
-215.2733979693375
 20
189.95634714119717
 10
-214.97979111456976
 20
190.34111579434338
 10
-214.68549790866587
 20
190.72535974102348
 10
-214.39051927162893
 20
191.10907774331645
 10
-214.0948560654579
 20
191.4922685183877
 10
-213.79850920315016
 20
191.87493082221502
 10
-213.50147956092587
 20
192.2570633819402
 10
-213.20376806130085
 20
192.63866496022436
 10
-212.9053756420211
 20
193.01973433143417
 10
-212.60630323409242
 20
193.4002702645197
 10
-212.30655179146638
 20
193.78027154635612
 10
-212.0061222301197
 20
194.15973693373584
 10
-211.70501551656002
 20
194.53866522325376
 10
-211.40323255986854
 20
194.91705516576502
 10
-211.10077432620088
 20
195.29490555735208
 10
-210.79764173510134
 20
195.67221515668035
 10
-210.4938357378103
 20
196.04898274755516
 10
-210.18935726918863
 20
196.42520710039003
 10
-209.88420726568722
 20
196.80088698656388
 10
-209.5783866774435
 20
197.17602118830413
 10
-209.2718964262467
 20
197.55060846441256
 10
-208.9647374770913
 20
197.9246476086882
 10
-208.65691073836837
 20
198.29813736814216
 10
-208.34841718169787
 20
198.67107654142774
 10
-208.03925772375143
 20
199.04346388148178
 10
-207.72943332241655
 20
199.41529817494643
 10
-207.41894493246795
 20
199.78657820560574
 10
-207.1077935432432
 20
200.15730278590786
 10
-206.79598014970975
 20
200.52747073302294
 10
-206.48350572768655
 20
200.89708084792457
 10
-206.17037128692235
 20
201.2661319601906
 10
-205.85657778861923
 20
201.63462285814865
 10
-205.5421262517778
 20
202.00255237915584
 10
-205.22701763955092
 20
202.36991931281872
 10
-204.91125296188912
 20
202.7367224886263
 10
-204.59483319495615
 20
203.10296070691228
 10
-204.27775933419855
 20
203.4686327844036
 10
-203.96003237060668
 20
203.8337375338072
 10
-203.64165328525425
 20
204.19827375894056
 10
-203.32262308391304
 20
204.56224028494836
 10
-203.00294273341717
 20
204.92563590259192
 10
-202.68261325107503
 20
205.2884594466906
 10
-202.36163559921346
 20
205.65070970329336
 10
-202.04001079303202
 20
206.01238550486374
 10
-201.71773980615149
 20
206.37348564665567
 10
-201.39482365958185
 20
206.73400896583027
 10
-201.07126338743547
 20
207.09395431123207
 10
-200.74706002455167
 20
207.45332053235066
 10
-200.42221462121518
 20
207.81210649266967
 10
-200.09672819792817
 20
208.17031102871815
 10
-199.77060181825073
 20
208.52793301611558
 10
-199.44383649140238
 20
208.88497128095773
 10
-199.11643328511246
 20
209.24142470273478
 10
-198.78839321681582
 20
209.5972921148111
 10
-198.45971734001625
 20
209.9525723835986
 10
-198.13040668649012
 20
210.30726435539034
 10
-197.80046229564977
 20
210.6613668833769
 10
-197.46988521356138
 20
211.0148788268419
 10
-197.13867646568323
 20
211.36779902561014
 10
-196.80683711232453
 20
211.72012635201455
 10
-196.47436816512496
 20
212.07185963237308
 10
-196.14127069277075
 20
212.42299774660756
 10
-195.80754571066643
 20
212.7735395239639
 10
-195.47319427737207
 20
213.12348383438732
 10
-195.13821743359233
 20
213.4728295306193
 10
-194.80261625760642
 20
213.82157550123296
 10
-194.46639182786012
 20
214.16972063503255
 10
-194.12954521093855
 20
214.51726380934662
 10
-193.79207749915338
 20
214.8642039264422
 10
-193.4539897452939
 20
215.21053985013103
 10
-193.11528305187556
 20
215.55627049265135
 10
-192.77595846886433
 20
215.90139471479048
 10
-192.43601709483949
 20
216.24591142492886
 10
-192.09545999043655
 20
216.58981949400803
 10
-191.75428824055882
 20
216.93311781677872
 10
-191.41250291974978
 20
217.2758052776079
 10
-191.07010509937737
 20
217.61788075747916
 10
-190.72709586784097
 20
217.95934315424444
 10
-190.38347628311564
 20
218.3001913349827
 10
-190.03924744593982
 20
218.6404242096036
 10
-189.69441040543964
 20
218.980040635603
 10
-189.34896626495154
 20
219.3190395251345
 10
-189.00291608222187
 20
219.65741974371804
 10
-188.65626094605375
 20
219.99518018819575
 10
-188.3090019235687
 20
220.33231973286848
 10
-187.96114008666788
 20
220.6688372564783
 10
-187.61267651580454
 20
221.00473164619694
 10
-187.2636122698984
 20
221.34000176637497
 10
-186.91394844320834
 20
221.67464651764402
 10
-186.56368608182063
 20
222.0086647498303
 10
-186.21282628772866
 20
222.34205537074388
 10
-185.861370112407
 20
222.67481723460898
 10
-185.50931864688923
 20
223.00694923672066
 10
-185.15667295594972
 20
223.33845024403846
 10
-184.80343411793112
 20
223.6693191372439
 10
-184.4496032114926
 20
223.99955479675856
 10
-184.09518130243396
 20
224.32915608852142
 10
-183.7401694832614
 20
224.65812190648543
 10
-183.38456880738087
 20
224.98645110171907
 10
-183.0283803772077
 20
225.31414257753804
 10
-182.67160524560106
 20
225.64119518273577
 10
-182.31424451054554
 20
225.96760781441733
 10
-181.95629925638931
 20
226.29337935416493
 10
-181.59777067459592
 20
226.6185088008906
 10
-181.2386599711082
 20
226.94299517001184
 10
-180.87896834663323
 20
227.26683747175173
 10
-180.51869701943517
 20
227.59003473647923
 10
-180.1578471767258
 20
227.91258596055795
 10
-179.79642004718565
 20
228.23449018728118
 10
-179.43441681017282
 20
228.55574640519885
 10
-179.07183869465584
 20
228.87635365919365
 10
-178.7086868877811
 20
229.1963109474991
 10
-178.34496260512742
 20
229.5156173010045
 10
-177.98066704616673
 20
229.83427173281302
 10
-177.61580141322705
 20
230.15227325969133
 10
-177.25036691803842
 20
230.46962090964948
 10
-176.8843647498305
 20
230.78631368519092
 10
-176.5177961325197
 20
231.10235062927623
 10
-176.15066224238242
 20
231.4177307300124
 10
-175.78296430934387
 20
231.73245303819982
 10
-175.41470351520468
 20
232.0465165488742
 10
-175.04588107781586
 20
232.35992029951717
 10
-174.67649819463657
 20
232.67266330401276
 10
-174.30655607520197
 20
232.98474459072628
 10
-173.93605593060747
 20
233.2961631902214
 10
-173.56499895770278
 20
233.6069181163596
 10
-173.19338637974852
 20
233.91700841477876
 10
-172.8212193810534
 20
234.2264330846947
 10
-172.44849919288671
 20
234.53519118192315
 10
-172.07522699942933
 20
234.84328170574096
 10
-171.70140402560563
 20
235.15070370481612
 10
-171.3270314657786
 20
235.45745619091454
 10
-170.9521105324499
 20
235.7635381979463
 10
-170.57664243217866
 20
236.06894875270626
 10
-170.2006283651918
 20
236.37368687422475
 10
-169.82406955017987
 20
236.6777516043734
 10
-169.44696717525164
 20
236.98114194717687
 10
-169.06932246902736
 20
237.2838569569519
 10
-168.69113661407476
 20
237.58589563062765
 10
-168.3124108385984
 20
237.88725702209274
 10
-167.9331463324531
 20
238.18794013710735
 10
-167.5533442974835
 20
238.48794399625007
 10
-167.17300591318883
 20
238.7872675915321
 10
-166.79213236032263
 20
239.08590991602327
 10
-166.41072483055717
 20
239.3838699762387
 10
-166.0287844932277
 20
239.68114674955868
 10
-165.6463125520655
 20
239.9777392569665
 10
-165.26331016591044
 20
240.27364646103103
 10
-164.87977854410474
 20
240.56886738894528
 10
-164.49571885230256
 20
240.86340101066898
 10
-164.11113228857215
 20
241.1572463376314
 10
-163.72602003101366
 20
241.4504023545364
 10
-163.34038326658487
 20
241.74286805693052
 10
-162.95422318578468
 20
242.0346424443302
 10
-162.56754096462268
 20
242.3257244962815
 10
-162.18033780594922
 20
242.61611322718477
 10
-161.792614874986
 20
242.90580760047027
 10
-161.4043733826647
 20
243.19480663979638
 10
-161.01561449626942
 20
243.4831093094448
 10
-160.62633942355137
 20
243.77071462724
 10
-160.23654942537368
 20
244.05762168258534
 10
-159.84624586435842
 20
244.3438297037341
 10
-159.4554301028079
 20
244.62933792018714
 10
-159.06410349476653
 20
244.91414555176365
 10
-158.67226741243164
 20
245.19825184485276
 10
-158.27992319705078
 20
245.48165600479746
 10
-157.8870722282097
 20
245.76435729153462
 10
-157.49371584172738
 20
246.04635490585292
 10
-157.09985541408193
 20
246.3276481066626
 10
-156.70549228778754
 20
246.6082361069981
 10
-156.31062782661297
 20
246.8881181511417
 10
-155.91526338292834
 20
247.1672934688675
 10
-155.51940030794654
 20
247.4457612897074
 10
-155.1230399637982
 20
247.72352086018162
 10
-154.72618368929884
 20
248.00057139494658
 10
-154.32883285560663
 20
248.27691215634505
 10
-153.9309887912223
 20
248.55254234682263
 10
-153.5326528694913
 20
248.8274612347595
 10
-153.13382642281297
 20
249.1016680306888
 10
-152.73451073924784
 20
249.3751618813322
 10
-152.33470697267956
 20
249.64794173705351
 10
-151.93441627346945
 20
249.92000654099175
 10
-151.5336397974797
 20
250.1913552422571
 10
-151.1323786862132
 20
250.46198676653827
 10
-150.7306341082799
 20
250.73190007747627
 10
-150.3284071965004
 20
251.00109408321592
 10
-149.92569912791924
 20
251.26956775556923
 10
-149.5225110397338
 20
251.5373200044095
 10
-149.1188441035016
 20
251.80434978883034
 10
-148.7146994683021
 20
252.0706560316792
 10
-148.31007829720505
 20
252.336237674497
 10
-147.90498175220776
 20
252.60109365479164
 10
-147.49941098806815
 20
252.86522289645956
 10
-147.09336717967952
 20
253.12862435177584
 10
-146.68685147366725
 20
253.39129692690025
 10
-146.27986505521463
 20
253.65323958496157
 10
-145.8724090707462
 20
253.91445122635685
 10
-145.464484705446
 20
254.17493080911063
 10
-145.05609318062793
 20
254.43467734575907
 10
-144.64723591057086
 20
254.69369015161027
 10
-144.237914329103
 20
254.9519685747328
 10
-143.82812986725253
 20
255.20951196090917
 10
-143.41788396722234
 20
255.46631967589994
 10
-143.00717804785458
 20
255.72239105031878
 10
-142.59601355868224
 20
255.97772546608834
 10
-142.18439190934384
 20
256.2323222430885
 10
-141.772314549665
 20
256.4861807681144
 10
-141.359782893532
 20
256.73930037187273
 10
-140.94679837867972
 20
256.9916804258306
 10
-140.53336242732794
 20
257.24332027820344
 10
-140.11947646528085
 20
257.4942192850132
 10
-139.70514192299316
 20
257.7443768119749
 10
-139.29036021450386
 20
257.99379219954596
 10
-138.87513277841077
 20
258.2424648309322
 10
-138.4594610171488
 20
258.49039403090745
 10
-138.0433463730835
 20
258.7375791929358
 10
-137.6267902500597
 20
258.9840196476722
 10
-137.2097940702378
 20
259.2297147582967
 10
-136.79235918524455
 20
259.47466376965434
 10
-136.37448694236383
 20
259.71886591953097
 10
-135.95617868809595
 20
259.96232044462994
 10
-135.53743575987758
 20
260.2050265661994
 10
-135.11825951377975
 20
260.4469835377744
 10
-134.69865127756134
 20
260.6881905639642
 10
-134.2786124141115
 20
260.9286469104775
 10
-133.85814424973023
 20
261.1683517792811
 10
-133.43724814394605
 20
261.4073044304877
 10
-133.01592543062836
 20
261.64550407915965
 10
-132.5941774597619
 20
261.88294996868035
 10
-132.1720055748385
 20
262.1196413309262
 10
-131.74941111646493
 20
262.35557739245615
 10
-131.32639543769105
 20
262.5907574020006
 10
-130.90295986991683
 20
262.8251805691991
 10
-130.47910577449596
 20
263.05884615752626
 10
-130.05483447735085
 20
263.29175336606585
 10
-129.6301473410833
 20
263.52390146029006
 10
-129.20504569615412
 20
263.7552896467604
 10
-128.77953088280032
 20
263.9859171493761
 10
-128.3536042244793
 20
264.21578316049846
 10
-127.92726704773393
 20
264.44488687729336
 10
-127.50052068585559
 20
264.67322750867584
 10
-127.07336645699539
 20
264.90080423435575
 10
-126.6458057042426
 20
265.1276162798924
 10
-126.21783973753584
 20
265.35366280745535
 10
-125.78946990545018
 20
265.5789430512057
 10
-125.36069752264325
 20
265.80345617998836
 10
-124.93152393018585
 20
266.02720141183374
 10
-124.50195045242869
 20
266.2501779317482
 10
-124.0719784223968
 20
266.47238494018666
 10
-123.64160917432106
 20
266.6938216388278
 10
-123.21084403335674
 20
266.91448721047334
 10
-122.77968434355301
 20
267.13438087353614
 10
-122.34813142238606
 20
267.35350179308216
 10
-121.91618662089213
 20
267.57184919882513
 10
-121.48385125736212
 20
267.78942225450413
 10
-121.05112668200361
 20
268.00622018571914
 10
-120.61801424942203
 20
268.22224222588966
 10
-120.18451534533258
 20
268.43748767007867
 10
-119.7506313511889
 20
268.65195580457623
 10
-119.31636364462746
 20
268.8656459075789
 10
-118.88171361584459
 20
269.0785572824806
 10
-118.44668263424771
 20
269.29068918985917
 10
-118.01127209735675
 20
269.5020409474497
 10
-117.57548337059475
 20
269.7126118065356
 10
-117.13931785185723
 20
269.9224010849122
 10
-116.70277691257166
 20
270.13140804503485
 10
-116.26586194255455
 20
270.33963198702247
 10
-115.82857432205199
 20
270.5470721904351
 10
-115.39091543298538
 20
270.7537279376272
 10
-114.95288666435646
 20
270.95959852531587
 10
-114.51448939037108
 20
271.1646832180039
 10
-114.07572500868898
 20
271.3689813295339
 10
-113.63659488609976
 20
271.57249210672416
 10
-113.19710042473095
 20
271.77521487162863
 10
-112.75724299918318
 20
271.9771488860235
 10
-112.31702409291302
 20
272.17829364878656
 10
-111.87644527113267
 20
272.3786488405835
 10
-111.43550810882545
 20
272.57821416831075
 10
-110.9942141808536
 20
272.77698934364224
 10
-110.55256505062808
 20
272.9749740577363
 10
-110.11056229730272
 20
273.1721680418118
 10
-109.66820747287512
 20
273.3685709711733
 10
-109.22550215792575
 20
273.56418259026316
 10
-108.78244790147441
 20
273.75900257717666
 10
-108.33904627606147
 20
273.9530306681579
 10
-107.89529883389493
 20
274.1462665580289
 10
-107.4512071361914
 20
274.3387099669643
 10
-107.0067727393886
 20
274.53036060902906
 10
-106.56199719354801
 20
274.72121818822467
 10
-106.1168820592227
 20
274.91128243779065
 10
-105.67142887549502
 20
275.1005530454494
 10
-105.22563920542615
 20
275.28902975999534
 10
-104.77951458178204
 20
275.4767122634247
 10
-104.33305656124396
 20
275.6636002990349
 10
-103.88626657001915
 20
275.8496933017618
 10
-103.43914589459173
 20
276.0349903699253
 10
-102.99169580355141
 20
276.2194905537703
 10
-102.54391756746853
 20
276.40319290280996
 10
-102.09581246603528
 20
276.58609648333373
 10
-101.64738176639396
 20
276.76820032530145
 10
-101.19862675899135
 20
276.9495035103736
 10
-100.74954870871572
 20
277.1300050513334
 10
-100.30014891252104
 20
277.3097040347673
 10
-99.85042864331217
 20
277.4885994815264
 10
-99.40038919483654
 20
277.6666904587346
 10
-98.95003185129454
 20
277.8439760035675
 10
-98.49935790342664
 20
278.0204551636432
 10
-98.04836864670503
 20
278.19612699260466
 10
-97.59706536906288
 20
278.37099051852397
 10
-97.14544937721529
 20
278.545044811655
 10
-96.6935219564907
 20
278.71828888048805
 10
-96.24128442210635
 20
278.89072180488836
 10
-95.78873806573422
 20
279.0623425967454
 10
-95.33588427405049
 20
279.23315051290024
 10
-94.88272455673591
 20
279.40314513487095
 10
-94.42926044672551
 20
279.5723261085491
 10
-93.97549347435933
 20
279.74069307604185
 10
-93.52142516381097
 20
279.90824566579965
 10
-93.06705705014491
 20
280.0749835388048
 10
-92.61239064895906
 20
280.240906305987
 10
-92.15742749836654
 20
280.4060136427953
 10
-91.70216911032426
 20
280.57030515568425
 10
-91.24661701949526
 20
280.7337805166863
 10
-90.79077274092998
 20
280.89643934626156
 10
-90.33463780085039
 20
281.0582812988002
 10
-89.87821371903604
 20
281.2193060134569
 10
-89.42150201345542
 20
281.3795131268978
 10
-88.964504208529
 20
281.5389022969503
 10
-88.50722181414822
 20
281.6974731424761
 10
-88.04965635876482
 20
281.85522533842794
 10
-87.59180934596066
 20
282.01215849036225
 10
-87.13368230398287
 20
282.1682722781451
 10
-86.6752767366023
 20
282.32356631261536
 10
-86.21659415627508
 20
282.47804023230765
 10
-85.7576360645415
 20
282.63169364558934
 10
-85.29840396533228
 20
282.78452616977853
 10
-84.83889936519431
 20
282.9365374320803
 10
-84.37912376089261
 20
283.08772703198184
 10
-83.91907866390115
 20
283.2380946155263
 10
-83.45876556399838
 20
283.387639764293
 10
-82.99818597495171
 20
283.5363621352614
 10
-82.53734138737117
 20
283.6842613157401
 10
-82.07623330924902
 20
283.8313369486285
 10
-81.61486323581072
 20
283.9775886387075
 10
-81.15323266820091
 20
284.123016010869
 10
-80.691343106598
 20
284.2676186886496
 10
-80.22919604547793
 20
284.4113962788689
 10
-79.76679298988667
 20
284.5543484238184
 10
-79.30413542782509
 20
284.69647471217803
 10
-78.84122486755945
 20
284.8377747998648
 10
-78.37806279547803
 20
284.97824827274604
 10
-77.91465070676219
 20
285.11789474645934
 10
-77.45099003835766
 20
285.2567136433789
 10
-76.98708222607729
 20
285.39470437947114
 10
-76.52292870268079
 20
285.53186635758163
 10
-76.0585309001107
 20
285.66819897460124
 10
-75.59389025823538
 20
285.8037016512982
 10
-75.12900820532359
 20
285.93837376544786
 10
-74.66388618763091
 20
286.072214753498
 10
-74.19852563193383
 20
286.2052239809984
 10
-73.7329279868651
 20
286.3374008862298
 10
-73.26709468444537
 20
286.46874484574886
 10
-72.8010271698154
 20
286.5992552787497
 10
-72.33472688220037
 20
286.7289315798285
 10
-71.86819526344306
 20
286.8577731490553
 10
-71.40143375991572
 20
286.98577939913906
 10
-70.9344438103567
 20
287.11294971099005
 10
-70.46722686822099
 20
287.2392835155059
 10
-69.99978436934224
 20
287.36478017440186
 10
-69.53211777185845
 20
287.4894391280152
 10
-69.0642285255778
 20
287.61325978187836
 10
-68.59611815164446
 20
287.7362418087718
 10
-68.12778818159846
 20
287.8583849227828
 10
-67.65924015090408
 20
287.9796888554962
 10
-67.19047559474154
 20
288.1001533401564
 10
-66.72149604248368
 20
288.21977808992847
 10
-66.25230303283402
 20
288.33856285709254
 10
-65.78289808926492
 20
288.45650733633613
 10
-65.31328275244259
 20
288.5736112929962
 10
-64.84345854457231
 20
288.6898744211122
 10
-64.37342700295788
 20
288.8052964777551
 10
-63.90318965258872
 20
288.91987717249435
 10
-63.43274802502002
 20
289.03361624383723
 10
-62.96210364880309
 20
289.1465134202867
 10
-62.4912580499303
 20
289.25856842173056
 10
-62.02021276043412
 20
289.3697809955989
 10
-61.54896930093826
 20
289.48015084310066
 10
-61.07752920616641
 20
289.58967772751237
 10
-60.60589399369773
 20
289.6983613405368
 10
-60.1340651981826
 20
289.8062014495559
 10
-59.66204434780412
 20
289.9131977963042
 10
-59.18983298334627
 20
290.0193501806509
 10
-58.71743264004274
 20
290.12465838115384
 10
-58.24484485315557
 20
290.22912217941865
 10
-57.772071160840675
 20
290.33274137328266
 10
-57.299113092989224
 20
290.43551572588206
 10
-56.82597219054334
 20
290.5374450540958
 10
-56.35264997835549
 20
290.63852910321015
 10
-55.87914799798612
 20
290.73876769923436
 10
-55.4054677753155
 20
290.83816059744083
 10
-54.93161084667689
 20
290.93670760528244
 10
-54.45757874090095
 20
291.03440849721545
 10
-53.98337298928367
 20
291.13126306208846
 10
-53.50899512352801
 20
291.2272710935244
 10
-53.0344466700821
 20
291.322432361723
 10
-52.559729163432884
 20
291.41674667945904
 10
-52.084844125378126
 20
291.5102137982388
 10
-51.60979309178081
 20
291.6028335431624
 10
-51.134577580937446
 20
291.69460565182953
 10
-50.659199089206076
 20
291.78552974786265
 10
-50.18365908401927
 20
291.87560529990856
 10
-49.707959038644624
 20
291.9648318004664
 10
-49.23210042621442
 20
292.05320873477456
 10
-48.75608471890035
 20
292.14073557577456
 10
-48.27991339581034
 20
292.2274118270762
 10
-47.80358792821805
 20
292.31323694205054
 10
-47.3271098004464
 20
292.39821043884825
 10
-46.85048048516064
 20
292.48233176299453
 10
-46.37370146880713
 20
292.5656004299151
 10
-45.896774229170724
 20
292.6480158980226
 10
-45.41970025198962
 20
292.7295776632463
 10
-44.942481021120116
 20
292.8102852025602
 10
-44.46511802178838
 20
292.89013799238495
 10
-43.98761274385843
 20
292.9691355283464
 10
-43.50996667224703
 20
293.0472772673449
 10
-43.03218130259946
 20
293.12456272272976
 10
-42.554258120215295
 20
293.2009913349308
 10
-42.076198627192134
 20
293.27656263979065
 10
-41.59800435921154
 20
293.35127638077455
 10
-41.11967689542863
 20
293.42513258190746
 10
-40.641217810017494
 20
293.49813124409945
 10
-40.1626286776014
 20
293.5702723798
 10
-39.68391107264197
 20
293.6415560095362
 10
-39.205066564299706
 20
293.71198212705184
 10
-38.726096727233056
 20
293.78155077242974
 10
-38.24700312533391
 20
293.8502619206587
 10
-37.767787332297594
 20
293.9181156236401
 10
-37.28845091017615
 20
293.9851118605865
 10
-36.80899542817215
 20
294.05125067024454
 10
-36.329422448383525
 20
294.11653204934413
 10
-35.84973353489295
 20
294.1809560177564
 10
-35.36993025003544
 20
294.24452259156385
 10
-34.89001415297223
 20
294.30723177171467
 10
-34.409986806190034
 20
294.3690835935914
 10
-33.92984976412131
 20
294.4300780391718
 10
-33.449604588732605
 20
294.4902151583693
 10
-32.96925283127263
 20
294.5494949249097
 10
-32.488796038749065
 20
294.6079172847908
 10
-32.00823573811795
 20
294.66548202287254
 10
-31.527573459943003
 20
294.7221889532208
 10
-31.046810732988547
 20
294.77803787424995
 10
-30.565949085750983
 20
294.833028580924
 10
-30.084990049424423
 20
294.88716089087524
 10
-29.603935150633585
 20
294.94043457993894
 10
-29.12278592272457
 20
294.99284948316875
 10
-28.64154389122909
 20
295.0444053627014
 10
-28.160210590188587
 20
295.0951020577936
 10
-27.67878754682669
 20
295.14493934203404
 10
-27.197276293470157
 20
295.1939170355406
 10
-26.715678359828253
 20
295.24203493114703
 10
-26.23399527670054
 20
295.2892928298178
 10
-25.75222857620581
 20
295.3356905436497
 10
-25.27037978781775
 20
295.38122785444085
 10
-24.788450445982352
 20
295.4259045935693
 10
-24.30644207904069
 20
295.4697205236578
 10
-23.82435622286313
 20
295.51267548605836
 10
-23.342194404329078
 20
295.55476921778506
 10
-22.85995815239083
 20
295.59600147210887
 10
-22.377648993096948
 20
295.6363719603628
 10
-21.895268454969724
 20
295.6758804135559
 10
-21.412818067230646
 20
295.71452656196766
 10
-20.93029935841565
 20
295.7523101171021
 10
-20.447713860845973
 20
295.7892308282298
 10
-19.965063103276428
 20
295.8252883873503
 10
-19.482348620648988
 20
295.8604825571859
 10
-18.99957194334534
 20
295.8948130269968
 10
-18.51673460741314
 20
295.9282795521873
 10
-18.033838146172847
 20
295.9608818370355
 10
-17.550884096060017
 20
295.99261961749954
 10
-17.067873993568707
 20
296.0234926169742
 10
-16.584809375722863
 20
296.0535005519707
 10
-16.101691782111562
 20
296.0826431650597
 10
-15.618522750547257
 20
296.11092015330615
 10
-15.135303823494219
 20
296.1383312758674
 10
-14.652036540297004
 20
296.16487622015967
 10
-14.168722453786215
 20
296.1905549054092
 10
-13.68536312760578
 20
296.21536746133364
 10
-13.201960127825515
 20
296.2393140889449
 10
-12.71851501784392
 20
296.2623949651266
 10
-12.235029359944086
 20
296.28461027182004
 10
-11.751504715672803
 20
296.3059602054915
 10
-11.267942643727084
 20
296.3264449289774
 10
-10.784344703716148
 20
296.3460646582552
 10
-10.30071245094663
 20
296.3648195370255
 10
-9.81704744267254
 20
296.38270979133466
 10
-9.333351232025148
 20
296.3997355738308
 10
-8.84962537286615
 20
296.4158970921782
 10
-8.365871416510851
 20
296.4311945181201
 10
-7.882090913591452
 20
296.44562804007666
 10
-7.398285413538468
 20
296.4591978490957
 10
-6.914456463957179
 20
296.4719041143279
 10
-6.430605612318315
 20
296.4837470460594
 10
-5.9467344033918215
 20
296.494726794146
 10
-5.462844382472779
 20
296.5048435811875
 10
-4.97893709008934
 20
296.5140974505865
 10
-4.495014063324464
 20
296.5224882705372
 10
-4.011076838532748
 20
296.53001582864965
 10
-3.5271269534713654
 20
296.53667994100203
 10
-3.0431659466434344
 20
296.54248041439166
 10
-2.5591953573847586
 20
296.5474170455681
 10
-2.0752167262670467
 20
296.5514896605696
 10
-1.5912315944006807
 20
296.5546980368279
 10
-1.107241504337766
 20
296.5570420162294
 10
-0.623247999202678
 20
296.5585213672443
 10
-0.13925262342612374
 20
296.5591359311065
 10
0.34474307770566154
 20
296.55888548942465
 10
0.8287375578237032
 20
296.55776986418925
 10
1.3127292695159363
 20
296.55578885640654
 10
1.7967166642756043
 20
296.55294226884064
 10
2.280698192643653
 20
296.5492299219528
 10
2.764672303781166
 20
296.5446515993015
 10
3.248637446254148
 20
296.5392071403289
 10
3.7325920667168795
 20
296.53289631107253
 10
4.216534612632393
 20
296.52571902222473
 10
4.700463532650771
 20
296.5176752916676
 10
5.184377276901218
 20
296.50876522088765
 10
5.668274295258855
 20
296.4989888785482
 10
6.152153038092528
 20
296.4883463467229
 10
6.636011956183904
 20
296.47683771332737
 10
7.119849499941384
 20
296.46446304102705
 10
7.603664121130521
 20
296.4512224369705
 10
8.087454270003734
 20
296.43711594441874
 10
8.571218399156923
 20
296.4221436825136
 10
9.054954959172099
 20
296.40630569678706
 10
9.5386624027271
 20
296.38960209426057
 10
10.02233918118025
 20
296.37203293724946
 10
10.505983746885954
 20
296.35359831336206
 10
10.989594552123648
 20
296.33429830412047
 10
11.473170048722658
 20
296.3141329777225
 10
11.956708689963717
 20
296.29310243489124
 10
12.440208926953009
 20
296.2712067244157
 10
12.923669213843734
 20
296.24844596196704
 10
13.40708800283081
 20
296.2248202180589
 10
13.890463755406083
 20
296.20032974717026
 10
14.37379493254482
 20
296.1749747757901
 10
14.85707999801799
 20
296.1487555675739
 10
15.340317415586398
 20
296.12167236838934
 10
15.823505649778614
 20
296.093725422634
 10
16.30664316721349
 20
296.0649149955063
 10
16.789728432980283
 20
296.03524131213874
 10
17.272759916553273
 20
296.00470465568054
 10
17.75573608364239
 20
295.9733052359848
 10
18.238655405822186
 20
295.94104334181327
 10
18.721516351023855
 20
295.90791919396554
 10
19.204317391221387
 20
295.8739330618817
 10
19.68705699714672
 20
295.83908518556854
 10
20.169733640972016
 20
295.80337581514857
 10
20.65234579630545
 20
295.7668052097848
 10
21.134891935323374
 20
295.7293736002881
 10
21.617370534584705
 20
295.6910812649279
 10
22.09978006607147
 20
295.65192841521065
 10
22.58211900451038
 20
295.61191529027064
 10
23.064385797635065
 20
295.5710418035558
 10
23.546578890263522
 20
295.5293078480025
 10
24.028696722306503
 20
295.4867132754122
 10
24.510737734123353
 20
295.44325795958366
 10
24.992700364411316
 20
295.3989417716152
 10
25.474583048871278
 20
295.353764566241
 10
25.95638422507352
 20
295.3077262339268
 10
26.43810232386395
 20
295.2608266103849
 10
26.9197357812595
 20
295.2130656004924
 10
27.40128302456818
 20
295.16444303607614
 10
27.882742486317284
 20
295.1149588168198
 10
28.364112592114775
 20
295.0646127895021
 10
28.84539176947807
 20
295.0134048349212
 10
29.32657844284626
 20
294.9613348194653
 10
29.807671034529495
 20
294.9084026050925
 10
30.288667967879977
 20
294.8546080778812
 10
30.76956765980813
 20
294.79995108099746
 10
31.250368532423895
 20
294.74443151818105
 10
31.731069003637913
 20
294.68804926992635
 10
32.21166754142524
 20
294.6308046505055
 10
32.692162625443515
 20
294.5726980652799
 10
33.1725527421997
 20
294.5137299656915
 10
33.65283637635259
 20
294.45390077675586
 10
34.133012014702906
 20
294.39321093040144
 10
34.61307814690643
 20
294.33166087056094
 10
35.093033259858686
 20
294.2692510096543
 10
35.572875848273746
 20
294.2059818104494
 10
36.05260439894649
 20
294.14185366586406
 10
36.532217410524716
 20
294.07686704868365
 10
37.011713373074215
 20
294.011022358543
 10
37.49109078549226
 20
293.94432005114305
 10
37.97034814263908
 20
293.876760544016
 10
38.44948394312846
 20
293.80834427328784
 10
38.92849668679204
 20
293.73907167514693
 10
39.40738487175737
 20
293.66894316615134
 10
39.886147002893445
 20
293.5979592010765
 10
40.36478157764115
 20
293.52612017691723
 10
40.84328710361176
 20
293.4534265515098
 10
41.32166206192825
 20
293.37987860239207
 10
41.7999049336626
 20
293.3054766051253
 10
42.27801419215943
 20
293.2302207847312
 10
42.75598831554613
 20
293.1541113967765
 10
43.23382578020116
 20
293.077148685441
 10
43.71152506126301
 20
292.9993328873285
 10
44.18908463822335
 20
292.92066426576946
 10
44.6665029830372
 20
292.84114303843126
 10
45.1437785779106
 20
292.76076948494
 10
45.62090989286811
 20
292.67954381259426
 10
46.09789541028788
 20
292.59746630210407
 10
46.574733602072854
 20
292.5145371732728
 10
47.051422947264776
 20
292.4307566879018
 10
47.527961920835416
 20
292.34612508496366
 10
48.00434899829592
 20
292.26064260738934
 10
48.480582657759626
 20
292.17430951331016
 10
48.9566613710205
 20
292.0871260268277
 10
49.43258361941991
 20
291.99909242521807
 10
49.90834786971322
 20
291.9102089078022
 10
50.38395258689385
 20
291.82047566709076
 10
50.85939620887848
 20
291.7298927560229
 10
51.33467718223332
 20
291.63846027930833
 10
51.80979394582865
 20
291.5461783073284
 10
52.28474494035164
 20
291.4530469261039
 10
52.759528606038856
 20
291.3590662252383
 10
53.234143377509724
 20
291.2642362721251
 10
53.708587696446465
 20
291.16855717563556
 10
54.1828599912076
 20
291.07202898459684
 10
54.65695870367424
 20
290.9746518207101
 10
55.1308822597628
 20
290.87642573375325
 10
55.60462909695351
 20
290.7773508358732
 10
56.07819764189238
 20
290.67742719327975
 10
56.55158632565084
 20
290.57665489968514
 10
57.02479357630003
 20
290.47503404076593
 10
57.49781781831203
 20
290.3725646918601
 10
57.97065748127127
 20
290.2692469581677
 10
58.443310982863856
 20
290.1650808967137
 10
58.915776755428375
 20
290.06006663743915
 10
59.38805326883026
 20
289.954204482645
 10
59.86013906986717
 20
289.8474950761933
 10
60.33203269704805
 20
289.73993901808683
 10
60.80373269915752
 20
289.63153694680636
 10
61.27523762197448
 20
289.5222894807009
 10
61.74654601294293
 20
289.41219723877634
 10
62.217656425171604
 20
289.30126085762896
 10
62.68856740456454
 20
289.1894809368101
 10
63.15927751145461
 20
289.0768581303936
 10
63.629785290489195
 20
288.963393020515
 10
64.10008930666966
 20
288.84908626790633
 10
64.57018810973534
 20
288.73393846410414
 10
65.04008026295894
 20
288.6179502503134
 10
65.50976432329675
 20
288.5011222361129
 10
65.97923885209003
 20
288.38345504320773
 10
66.44850241356845
 20
288.2649492991272
 10
66.91755356694178
 20
288.14560560610164
 10
67.38639088376496
 20
288.0254246095246
 10
67.8550129204596
 20
287.90440689039895
 10
68.32341822329667
 20
287.78255298653926
 10
68.79160527187999
 20
287.6598631779234
 10
69.2595725563819
 20
287.5363377869386
 10
69.72731855528392
 20
287.41197709347034
 10
70.19484175286446
 20
287.28678140154574
 10
70.66214063146916
 20
287.16075101000075
 10
71.1292136692917
 20
287.0338862045578
 10
71.5960593526328
 20
286.9061873030153
 10
72.0626761534098
 20
286.77765457284903
 10
72.52906256078411
 20
286.6482883466114
 10
72.9952170437416
 20
286.5180888862602
 10
73.46113808940207
 20
286.3870565213735
 10
73.92682416919583
 20
286.255191527889
 10
74.39227376382537
 20
286.1224942172267
 10
74.85748534865141
 20
285.98896488439885
 10
75.32245739777727
 20
285.85460382273254
 10
75.78718839057468
 20
285.71941134632874
 10
76.25167679436578
 20
285.5833877304907
 10
76.71592109225635
 20
285.44653330717665
 10
77.17991975324748
 20
285.30884836285935
 10
77.64367128366605
 20
285.1703333119987
 10
78.10717417214904
 20
285.03098851073145
 10
78.57042692086696
 20
284.890814361668
 10
79.03342802325282
 20
284.74981123956957
 10
79.49617597518795
 20
284.60797952866113
 10
79.95866927498183
 20
284.46531962231927
 10
80.42090641203968
 20
284.3218318864523
 10
80.88288588962442
 20
284.1775167330468
 10
81.34460619047704
 20
284.0323745097627
 10
81.80606582043686
 20
283.88640563945006
 10
82.26726326276841
 20
283.7396104748189
 10
82.7281970180694
 20
283.591989424898
 10
83.18886557397491
 20
283.4435428596191
 10
83.64926742427512
 20
283.2942711698485
 10
84.10940106152198
 20
283.14417474421145
 10
84.56926497250872
 20
282.9932539554811
 10
85.02885765478631
 20
282.8415092109811
 10
85.48817758797034
 20
282.6889408654731
 10
85.94722329149388
 20
282.5355493951917
 10
86.40599332200914
 20
282.38133538738185
 10
86.86448627096627
 20
282.22629953062176
 10
87.32270071375484
 20
282.07044246286046
 10
87.78063523745034
 20
281.913764853802
 10
88.23828842535147
 20
281.75626735921276
 10
88.69565885996872
 20
281.59795062996915
 10
89.15274513256931
 20
281.4388153395848
 10
89.60954582090264
 20
281.27886212015954
 10
90.0660595235516
 20
281.11809166085396
 10
90.5222848154637
 20
280.95650458113084
 10
90.97822029790134
 20
280.7941015725829
 10
91.43386455115244
 20
280.6308832652992
 10
91.88921617154146
 20
280.4668503320861
 10
92.34427374723091
 20
280.3020034206836
 10
92.7990358694192
 20
280.13634318516455
 10
93.25350113420036
 20
279.96987029085795
 10
93.70766812745248
 20
279.80258537315837
 10
94.16153545326324
 20
279.6344891149221
 10
94.61510168524163
 20
279.4655821148056
 10
95.0683653916772
 20
279.2958649562675
 10
95.52132510458637
 20
279.1253381256805
 10
95.97397937574303
 20
278.9540021625356
 10
96.42632674331118
 20
278.7818575706516
 10
96.87836575196589
 20
278.6089048716092
 10
97.33009494639101
 20
278.43514458744386
 10
97.7815128639862
 20
278.26057722189375
 10
98.2326180560288
 20
278.08520331519674
 10
98.68340905246112
 20
277.90902335332044
 10
99.13388440908302
 20
277.7320378892267
 10
99.58404265464843
 20
277.55424740757485
 10
100.03388234166412
 20
277.3756524541441
 10
100.48340200399
 20
277.1962535283372
 10
100.93260018653312
 20
277.016051158245
 10
101.38147542971282
 20
276.83504586152634
 10
101.83002627065865
 20
276.65323814866355
 10
102.27825125642777
 20
276.4706285555556
 10
102.72614891619278
 20
276.2872175751599
 10
103.17371780152831
 20
276.10300575626746
 10
103.62095642792768
 20
275.91799356104474
 10
104.0678633353971
 20
275.7321815125577
 10
104.51443703965317
 20
275.5455700767959
 10
104.96067607219473
 20
275.3581597592899
 10
105.40657895493506
 20
275.169951044244
 10
105.85214421069837
 20
274.9809444197779
 10
106.2973703676774
 20
274.7911403883101
 10
106.7422559398469
 20
274.6005394206379
 10
107.18679946175916
 20
274.40914203739766
 10
107.63099943835789
 20
274.2169486921555
 10
108.07485440682223
 20
274.023959914991
 10
108.51836287436348
 20
273.8301761686567
 10
108.96152336929065
 20
273.63559796628954
 10
109.4043344050384
 20
273.4402257888935
 10
109.84679450075937
 20
273.24406013249256
 10
110.28890217624162
 20
273.0471014964353
 10
110.73065594130084
 20
272.8493503597259
 10
111.17205432216747
 20
272.6508072400681
 10
111.61309582599755
 20
272.4514726146749
 10
112.05377907617898
 20
272.25134721894085
 10
112.49410272521162
 20
272.0504318508334
 10
112.93406545410666
 20
271.84872736836166
 10
113.37366592521184
 20
271.64623458602233
 10
113.81290281352987
 20
271.4429543433469
 10
114.25177479144224
 20
271.2388874715778
 10
114.69028052775542
 20
271.0340347918344
 10
115.12841870493284
 20
270.82839715201925
 10
115.5661879853918
 20
270.6219753549099
 10
116.00358706018164
 20
270.41477026173794
 10
116.44061458977198
 20
270.2067826667495
 10
116.8772692665785
 20
269.9980134292285
 10
117.31354975840186
 20
269.78846335456313
 10
117.74945475108733
 20
269.57813328369093
 10
118.1849829223979
 20
269.36702403855344
 10
118.6201329514194
 20
269.15513644181283
 10
119.05490352592504
 20
268.9424713318879
 10
119.48929331805685
 20
268.7290295132342
 10
119.92330102407757
 20
268.51481183749934
 10
120.35692527777172
 20
268.29981902809743
 10
120.79016471821927
 20
268.0840518185308
 10
121.22301795159015
 20
267.86751087587686
 10
121.65548360717703
 20
267.6501969135562
 10
122.08756029978579
 20
267.4321106159838
 10
122.51924665011668
 20
267.21325267936896
 10
122.95054128168279
 20
266.99362380543204
 10
123.38144280641673
 20
266.77322467325644
 10
123.81194985661024
 20
266.5520560018364
 10
124.24206103525292
 20
266.33011845321647
 10
124.67177498011955
 20
266.1074127571422
 10
125.10109029519501
 20
265.8839395781769
 10
125.530005612562
 20
265.6596996352662
 10
125.95851954379914
 20
265.4346936082301
 10
126.38663071190865
 20
265.20892219905704
 10
126.81433773720774
 20
264.9823861048743
 10
127.24163923344808
 20
264.7550860108089
 10
127.6685338297596
 20
264.5270226312613
 10
128.09502013003717
 20
264.2981966337889
 10
128.5210967526004
 20
264.0686087135227
 10
128.94676225804963
 20
263.8382594593934
 10
129.37201523810597
 20
263.6071495194554
 10
129.79685425712566
 20
263.375279492747
 10
130.22127789634672
 20
263.1426500109225
 10
130.64528472796965
 20
262.9092616905997
 10
131.06887332258694
 20
262.6751151471403
 10
131.49204226032464
 20
262.44021101474056
 10
131.91479010096182
 20
262.2045498925793
 10
132.33711543196978
 20
261.96813243123006
 10
132.759016804162
 20
261.7309592173935
 10
133.1804928063355
 20
261.49303090721264
 10
133.60154199311913
 20
261.25434809786117
 10
134.02216294238275
 20
261.01491142943917
 10
134.44235421669288
 20
260.77472151683656
 10
134.86211438282672
 20
260.53377898422053
 10
135.28144201137798
 20
260.2920844642038
 10
135.70033565786676
 20
260.0496385651309
 10
136.11879390152822
 20
259.8064419382306
 10
136.53681534730995
 20
259.5624952803217
 10
136.9543987555928
 20
259.31779955459297
 10
137.37154286355585
 20
259.07235568263104
 10
137.7882464391971
 20
258.8261646365659
 10
138.20450823040912
 20
258.5792273523812
 10
138.62032699713268
 20
258.33154478454765
 10
139.03570149881807
 20
258.08311788474595
 10
139.45063048716938
 20
257.83394758987504
 10
139.86511273323873
 20
257.5840348672245
 10
140.27914698031066
 20
257.3333806362134
 10
140.6927320084316
 20
257.0819858753077
 10
141.10586656023622
 20
256.8298514995764
 10
141.51854941444168
 20
256.57697848167106
 10
141.9307793227564
 20
256.3233677483518
 10
142.3425550553039
 20
256.0690202548127
 10
142.75387537526777
 20
255.81393694333795
 10
143.16473904400019
 20
255.55811875175604
 10
143.5751448362045
 20
255.3015666377965
 10
143.9850915042657
 20
255.044281521983
 10
144.3945778153317
 20
254.78626434710435
 10
144.80360244631012
 20
254.527515911875
 10
145.21216410597378
 20
254.2680370654739
 10
145.62026146821856
 20
254.0078286021146
 10
146.02789323144188
 20
253.74689135471462
 10
146.43505807972517
 20
253.48522613388366
 10
146.84175470092148
 20
253.22283375638193
 10
147.24798178936499
 20
252.95971504918322
 10
147.65373802220302
 20
252.69587081299193
 10
148.05902210409286
 20
252.43130189111358
 10
148.46383270130895
 20
252.1660090683033
 10
148.86816852406588
 20
251.89999319682147
 10
149.27202824211787
 20
251.6332550676114
 10
149.6754105562595
 20
251.36579551913883
 10
150.07831414599838
 20
251.0976153580493
 10
150.4807377011233
 20
250.82871540695672
 10
150.8826799114439
 20
250.5590964888997
 10
151.2841394555832
 20
250.28875941074944
 10
151.68511503372648
 20
250.01770501190765
 10
152.08560532889024
 20
249.7459341067647
 10
152.48560912237414
 20
249.47344765460048
 10
152.88512516793108
 20
249.20024657339636
 10
153.2841522566472
 20
248.92633183500357
 10
153.68268915180067
 20
248.65170436978119
 10
154.0807346343914
 20
248.3763651331091
 10
154.4782874793966
 20
248.10031507079609
 10
154.87534645756762
 20
247.82355512185367
 10
155.27191035563493
 20
247.54608624747257
 10
155.6679779339289
 20
247.26790937040874
 10
156.06354798927958
 20
246.98902546475927
 10
156.45861927655085
 20
246.7094354443628
 10
156.85319059370747
 20
246.42914028348372
 10
157.24726070338647
 20
246.14814090589834
 10
157.64082839299007
 20
245.866438269683
 10
158.033892436824
 20
245.58403331397957
 10
158.4264516115661
 20
245.30092698078735
 10
158.81850470324358
 20
245.01712022455357
 10
159.21005047764507
 20
244.73261397131438
 10
159.60108772212348
 20
244.4474091764443
 10
159.99161513438904
 20
244.1615066723572
 10
160.38163144793782
 20
243.87490734101476
 10
160.7711353525373
 20
243.58761200542668
 10
161.16012556962397
 20
243.29962153241826
 10
161.54860079960577
 20
243.01093676106083
 10
161.93655975170662
 20
242.72155854316654
 10
162.32400113704904
 20
242.43148773384542
 10
162.71092365249248
 20
242.14072517001807
 10
163.0973260199545
 20
241.84927172280848
 10
163.48320692377496
 20
241.55712821437078
 10
163.86856509267423
 20
241.26429552647002
 10
164.25339921053472
 20
240.97077448266955
 10
164.63770799891745
 20
240.676565956998
 10
165.021490150657
 20
240.38167078681565
 10
165.40474437468833
 20
240.08608983151896
 10
165.78746937465104
 20
239.7898239445861
 10
166.16966384670718
 20
239.4928739709064
 10
166.55132650538465
 20
239.19524078005503
 10
166.9324560525853
 20
238.89692522637043
 10
167.31305133273813
 20
238.59792834668247
 10
167.69311118019354
 20
238.29825116418723
 10
168.07263447423497
 20
237.99789475814603
 10
168.45162005853715
 20
237.69686016166466
 10
168.8300668014449
 20
237.39514843802138
 10
169.20797355958072
 20
237.0927606347383
 10
169.58533919018953
 20
236.78969779922696
 10
169.9621625628818
 20
236.48596099335094
 10
170.3384425236418
 20
236.18155124877177
 10
170.71417795455957
 20
235.87646964094438
 10
171.08936769185098
 20
235.57071718792557
 10
171.46401062290684
 20
235.2642949698744
 10
171.83810559127298
 20
234.95720401239865
 10
172.2116514729256
 20
234.6494453799766
 10
172.58464712430117
 20
234.341020112534
 10
172.95709140980517
 20
234.03192925898375
 10
173.32898319881335
 20
233.72217387349963
 10
173.70032134399443
 20
233.4117549895529
 10
174.07110472782657
 20
233.10067367564025
 10
174.44133219198503
 20
232.78893095097078
 10
174.8110026282187
 20
232.47652789371094
 10
175.18011488128428
 20
232.1634655257108
 10
175.5486678351343
 20
231.84974491460045
 10
175.91666034618274
 20
231.53536709501216
 10
176.28409128645586
 20
231.2203331194268
 10
176.65095952540113
 20
230.90464403677228
 10
177.0172639229619
 20
230.58830088450253
 10
177.38300336166904
 20
230.27130472577983
 10
177.74817668922964
 20
229.95365658315296
 10
178.11278279822116
 20
229.63535753041972
 10
178.4768205332355
 20
229.3164085859528
 10
178.84028878436987
 20
228.99681081982985
 10
179.2031864059406
 20
228.6765652609877
 10
179.56551227567215
 20
228.35567296468523
 10
179.92726526090468
 20
228.034134974106
 10
180.2884442268354
 20
227.71195232981944
 10
180.6490480538853
 20
227.38912608919503
 10
181.00907559675048
 20
227.06565728065124
 10
181.36852576413924
 20
226.74154699248032
 10
181.72739742160053
 20
226.4167962646743
 10
182.0856894868343
 20
226.09140619455138
 10
182.44340083343465
 20
225.76537783034988
 10
182.80053036657938
 20
225.43871225470662
 10
183.15707697317035
 20
225.11141052985528
 10
183.5130395457143
 20
224.7834737238797
 10
183.8684169844709
 20
224.45490291294846
 10
184.22320816912966
 20
224.12569915072095
 10
184.5774120133599
 20
223.79586352723962
 10
184.93102738388748
 20
223.46539708186933
 10
185.28405320195046
 20
223.13430091219877
 10
185.6364883388378
 20
222.80257606224123
 10
185.98833170497832
 20
222.47022361754412
 10
186.3395821842542
 20
222.1372446353154
 10
186.6902386740006
 20
221.803640186912
 10
187.04030007146156
 20
221.46941134343973
 10
187.38976526073753
 20
221.13455916219468
 10
187.73863315761997
 20
220.79908473346373
 10
188.08690266666989
 20
220.46298913563194
 10
188.43457275199458
 20
220.12627350844096
 10
188.78164232707005
 20
219.78893893877782
 10
189.1281103512768
 20
219.4509865604142
 10
189.4739757492149
 20
219.1124174709268
 10
189.8192374672745
 20
218.77323278982252
 10
190.1638944439315
 20
218.43343362810518
 10
190.50794561244098
 20
218.09302109115012
 10
190.85138992519896
 20
217.75199630332642
 10
191.19422630218287
 20
217.410360356011
 10
191.53645370769928
 20
217.06811438481373
 10
191.8780710544862
 20
216.72525947342
 10
192.2190773078313
 20
216.38179675772395
 10
192.5594713895398
 20
216.03772733008222
 10
192.89925225149327
 20
215.69305231249126
 10
193.23841882936287
 20
215.34777281069108
 10
193.5769700614835
 20
215.00188993291633
 10
193.914904897443
 20
214.65540479823096
 10
194.2522222687288
 20
214.3083185078815
 10
194.58892117466365
 20
213.96063222878098
 10
194.92500056995746
 20
213.6123470841042
 10
195.2604594689245
 20
213.26346425412618
 10
195.5952968337365
 20
212.91398486834706
 10
195.92951166538867
 20
212.5639100930929
 10
196.26310294040906
 20
212.2132410707856
 10
196.59606964632965
 20
211.86197895394218
 10
196.92841077407925
 20
211.51012489783676
 10
197.2601252975888
 20
211.15768004131198
 10
197.59121222222947
 20
210.80464555242898
 10
197.92167050819327
 20
210.45102255649334
 10
198.25149917027008
 20
210.0968122295802
 10
198.5806971699739
 20
209.74201569772262
 10
198.90926351433032
 20
209.38663412900397
 10
199.2371971772026
 20
209.0306686604662
 10
199.56449715175066
 20
208.67412044675865
 10
199.89116242622273
 20
208.31699063772876
 10
200.21719197978982
 20
207.95928037474164
 10
200.54258482464226
 20
207.6009908290141
 10
200.8673399619607
 20
207.24212316140682
 10
201.19145644682058
 20
206.88267858108838
 10
201.514933280367
 20
206.5226582479848
 10
201.83776951625708
 20
206.16206336880018
 10
202.15996416631975
 20
205.80089511219677
 10
202.48151627039024
 20
205.4391546714363
 10
202.80242485511627
 20
205.0768432275455
 10
203.1226889463737
 20
204.71396196048667
 10
203.4423075856663
 20
204.35051206358494
 10
203.76127978477933
 20
203.98649470364066
 10
204.07960459910154
 20
203.6219110853241
 10
204.39728102923277
 20
203.25676236506845
 10
204.71430813517165
 20
202.89104975075452
 10
205.0306849260401
 20
202.52477440572702
 10
205.34641044761975
 20
202.1579375248099
 10
205.66148372382978
 20
201.79054028366363
 10
205.97590378610505
 20
201.42258386419743
 10
206.28966967346676
 20
201.05406945454402
 10
206.6027804210252
 20
200.6849982392371
 10
206.9152351298323
 20
200.31537145832695
 10
207.22703285256034
 20
199.945190310326
 10
207.5381727020684
 20
199.57445604391398
 10
207.84865373570952
 20
199.20316986048545
 10
208.15847505548905
 20
198.83133299830791
 10
208.46763573297667
 20
198.45894666964972
 10
208.7761348559522
 20
198.0860120997743
 10
209.0839715113163
 20
197.71253051266225
 10
209.39114477249203
 20
197.33850312071738
 10
209.69765374174762
 20
196.96393115955814
 10
210.00349747801727
 20
196.58881582887705
 10
210.3086750947147
 20
196.21315837240647
 10
210.61318564893483
 20
195.8369599876232
 10
210.91702824924477
 20
195.46022191337855
 10
211.2202019647891
 20
195.0829453562471
 10
211.5227058895252
 20
194.70513154246854
 10
211.82453910789886
 20
194.32678169027096
 10
212.1257007002325
 20
193.94789701430759
 10
212.42618978589766
 20
193.56847875988433
 10
212.72600546423087
 20
193.18852815595176
 10
213.02514688385543
 20
192.80804646981923
 10
213.3236131364622
 20
192.42703492342852
 10
213.62140337233467
 20
192.04549478418537
 10
213.91851669338766
 20
191.66342728111854
 10
214.21495223527836
 20
191.28083366909843
 10
214.51070911556462
 20
190.89771518842696
 10
214.8057864551491
 20
190.5140730815908
 10
215.10018338726726
 20
190.1299086000914
 10
215.39389901794695
 20
189.7452229741743
 10
215.68693249608276
 20
189.36001746642933
 10
215.97928291286001
 20
188.97429329513275
 10
216.2709494250777
 20
188.58805172801846
 10
216.56193113190798
 20
188.2012939888406
 10
216.85222717515327
 20
187.81402133320242
 10
217.14183666960133
 20
187.42623499607714
 10
217.4307587419343
 20
187.03793622108984
 10
217.71899252957596
 20
186.64912625952311
 10
218.00653718893258
 20
186.25980637634154
 10
218.2933919241691
 20
185.86997787115246
 10
218.57955588966576
 20
185.47964200622297
 10
218.8650283001816
 20
185.08880008748233
 10
219.14980831215541
 20
184.69745337751243
 10
219.43389513181296
 20
184.3056031745867
 10
219.71728792960963
 20
183.91325075034732
 10
219.99998589681027
 20
183.5203973909354
 10
220.28198822001752
 20
183.12704437851366
 10
220.56329407541267
 20
182.73319298724408
 10
220.843902665773
 20
182.33884450973267
 10
221.1238131520793
 20
181.94400020830844
 10
221.40302474974175
 20
181.54866138343502
 10
221.68153661512005
 20
181.15282929330562
 10
221.95934796126892
 20
180.75650523563326
 10
222.23645795633638
 20
180.35969047609976
 10
222.5128657980529
 20
179.96238630069297
 10
222.78857067086918
 20
179.56459398569228
 10
223.06357177277334
 20
179.16631481635054
 10
223.3378683462225
 20
178.7675501080398
 10
223.6114596027566
 20
178.36830115417627
 10
223.88434480251885
 20
177.96856928081365
 10
224.15652314610267
 20
177.5683557726328
 10
224.4279938979823
 20
177.16766195719413
 10
224.69875626871192
 20
176.766489124779
 10
224.96880950749656
 20
176.36483859122507
 10
225.2381528413698
 20
175.9627116567935
 10
225.50678550414824
 20
175.56010962575604
 10
225.77470673937043
 20
175.15703380827247
 10
226.04191576535052
 20
174.75348549720053
 10
226.30841184215384
 20
174.34946601252472
 10
226.57419417247726
 20
173.94497663584377
 10
226.83926202561608
 20
173.54001869210043
 10
227.10361461051096
 20
173.1345934661481
 10
227.36725118298483
 20
172.72870227304085
 10
227.63017096769184
 20
172.32234640707324
 10
227.89237320911616
 20
171.9155271749829
 10
228.15385718654278
 20
171.50824590537178
 10
228.41462217816562
 20
171.10050392545284
 10
228.67466749587567
 20
170.69230258322042
 10
228.93399240246737
 20
170.28364319460624
 10
229.19259622158938
 20
169.87452711348521
 10
229.4504782161193
 20
169.4649556545082
 10
229.7076377028751
 20
169.05493016566928
 10
229.9640739587028
 20
168.6444519691237
 10
230.21978628480136
 20
168.2335224016357
 10
230.47477397489587
 20
167.82214279461593
 10
230.7290363144563
 20
167.41031447375258
 10
230.98257261410365
 20
166.99803877963313
 10
231.23538214347
 20
166.58531702702498
 10
231.48746422698213
 20
166.17215056371947
 10
231.7388181276488
 20
165.7585406994037
 10
231.98944316928734
 20
165.34448878025145
 10
232.2393386266215
 20
164.92999612209414
 10
232.48850380771006
 20
164.51506406042003
 10
232.73693801372312
 20
164.09969392599692
 10
232.984640559356
 20
163.68388705713917
 10
233.23161077700883
 20
163.26764480206336
 10
233.47784796643302
 20
162.85096848899047
 10
233.7233514761676
 20
162.4338594743971
 10
233.9681205928364
 20
162.01631907768558
 10
234.2121546709045
 20
161.5983486575457
 10
234.45545300669676
 20
161.1799495380624
 10
234.6980149386265
 20
160.76112306734814
 10
234.9398397800324
 20
160.34187057840452
 10
235.1809268531711
 20
159.92219340892626
 10
235.42127548841512
 20
159.50209290075588
 10
235.6608849917611
 20
159.0815703813293
 10
235.89975471063983
 20
158.66062720124884
 10
236.1378839346823
 20
158.23926467785523
 10
236.3752720212195
 20
157.81748416640465
 10
236.61191826495795
 20
157.39528698639995
 10
236.84782201040136
 20
156.9726744849641
 10
237.08298258903025
 20
156.54964800144006
 10
237.3173994223093
 20
156.12620892458898
 10
237.5510719471173
 20
155.70235865066545
 10
237.78399958467062
 20
155.27809856623148
 10
238.01618178963966
 20
154.85343007516744
 10
238.2476179673348
 20
154.42835455330595
 10
238.47830758512325
 20
154.00287340930726
 10
238.7082500475806
 20
153.57698801669895
 10
238.93744481613248
 20
153.15069977880432
 10
239.16589130968575
 20
152.72401007503095
 10
239.39358897361592
 20
152.29692029807234
 10
239.62053724449663
 20
151.86943183493966
 10
239.84673555155004
 20
151.44154606785654
 10
240.07218334901447
 20
151.01326439135235
 10
240.2968800498571
 20
150.58458817733947
 10
240.52082512299452
 20
150.15551882621995
 10
240.74401797399995
 20
149.72605770442746
 10
240.96645807198522
 20
149.29620621065635
 10
241.18814483289032
 20
148.86596571517978
 10
241.40907769677824
 20
148.43533760000818
 10
241.6292560818264
 20
148.00432323517074
 10
241.84867940726323
 20
147.57292399060984
 10
242.06734710887503
 20
147.14114124403082
 10
242.2852585893473
 20
146.70897635574977
 10
242.50241330121813
 20
146.27643071062732
 10
242.71881063318241
 20
145.84350566083916
 10
242.93445004420522
 20
145.41020259318174
 10
243.14933093284787
 20
144.97652286373065
 10
243.36345274141607
 20
144.54246784976846
 10
243.57681488601904
 20
144.10803891505495
 10
243.78941679220804
 20
143.67323742752353
 10
244.0012578936541
 20
143.2380647585423
 10
244.21233759906252
 20
142.80252226685548
 10
244.42265535968198
 20
142.3666113313633
 10
244.6322105672794
 20
141.93033330178343
 10
244.84100268328322
 20
141.49368956093042
 10
245.0490311131215
 20
141.05668146429284
 10
245.25629538635172
 20
140.61931042591038
 10
245.46279503529183
 20
140.18157786007797
 10
245.66852961075224
 20
139.74348518873063
 10
245.8734986636324
 20
139.3050338326858
 10
246.07770172836277
 20
138.86622520396833
 10
246.28113837411283
 20
138.427060729679
 10
246.48380811883422
 20
137.98754181209765
 10
246.6857105445736
 20
137.54766988205046
 10
246.8868451688517
 20
137.10744633962844
 10
247.08721156711152
 20
136.666872610433
 10
247.28680927171106
 20
136.22595009938038
 10
247.48563784147814
 20
135.7846802224319
 10
247.68369682690079
 20
135.34306439076818
 10
247.88098577010064
 20
134.90110401087526
 10
248.07750423968812
 20
134.45880050010058
 10
248.27325176098617
 20
134.01615525562434
 10
248.46822791739348
 20
133.57316969941516
 10
248.6624322162923
 20
133.12984521906034
 10
248.85586414215814
 20
132.68618319156124
 10
249.04852308599857
 20
132.24218495288432
 10
249.24040847314075
 20
131.79785185397392
 10
249.4315197117929
 20
131.35318523835144
 10
249.62185620971803
 20
130.9081864494284
 10
249.8114173926115
 20
130.46285683832429
 10
250.00020265059655
 20
130.01719774108722
 10
250.18821142563073
 20
129.57121051582834
 10
250.3754430939127
 20
129.12489649300085
 10
250.5618971023527
 20
128.67825703290964
 10
250.74757283708212
 20
128.2312934705194
 10
250.93246972730753
 20
127.78400715891384
 10
251.11658717666012
 20
127.33639944069837
 10
251.29992459657086
 20
126.8884716619023
 10
251.48248140821255
 20
126.44022517270493
 10
251.66425700516564
 20
125.99166131225701
 10
251.84525082618927
 20
125.54278143824082
 10
252.0254622900625
 20
125.09358690037392
 10
252.20489112382856
 20
124.64407917160914
 10
252.38353706892968
 20
124.19425972899636
 10
252.56139991837745
 20
123.7441300682484
 10
252.7384794320525
 20
123.29369167003652
 10
252.9147753865624
 20
122.84294601979136
 10
253.0902875608873
 20
122.39189460198742
 10
253.26501571513487
 20
121.94053889193391
 10
253.43895964732906
 20
121.48888037780422
 10
253.61211910098015
 20
121.03692052495563
 10
253.7844938870061
 20
120.58466082283459
 10
253.956083750518
 20
120.132102733961
 10
254.12688849416276
 20
119.67924774099566
 10
254.29690787910818
 20
119.22609730913707
 10
254.46614169121648
 20
118.77265291118809
 10
254.63458971046794
 20
118.31891601600888
 10
254.80225170584467
 20
117.86488808670863
 10
254.9691274760393
 20
117.41057059569069
 10
255.1352167489538
 20
116.95596498774523
 10
255.30051925231106
 20
116.50107270624868
 10
255.46503463802867
 20
116.04589516586489
 10
255.62876262158676
 20
115.59043380325332
 10
255.79170286876848
 20
115.13469003609278
 10
255.95385507795805
 20
114.67866529275341
 10
256.11521893361817
 20
114.22236099560607
 10
256.2757941169537
 20
113.76577856489979
 10
256.4355803310926
 20
113.30891942760432
 10
256.59457723998145
 20
112.85178499601349
 10
256.752784563211
 20
112.39437670084827
 10
256.91020195395197
 20
111.93669594887727
 10
257.06682913487236
 20
111.4787441699222
 10
257.22266577090437
 20
111.02052277305617
 10
257.37771156734067
 20
110.56203318025867
 10
257.5319662076486
 20
110.10327680519283
 10
257.6854293796748
 20
109.64425506216563
 10
257.83810077890837
 20
109.18496936718215
 10
257.9899799630779
 20
108.72542108988316
 10
258.1410664531442
 20
108.26561158773426
 10
258.2913597003792
 20
107.80554219560612
 10
258.44085923122753
 20
107.34521427335935
 10
258.58956450587715
 20
106.8846291596093
 10
258.7374750324299
 20
106.42378820891412
 10
258.88459028879623
 20
105.96269276647458
 10
259.0309097646819
 20
105.50134418171854
 10
259.1764329557686
 20
105.0397438063627
 10
259.32115933331033
 20
104.57789298488177
 10
259.465088410809
 20
104.11579307544652
 10
259.6082196410134
 20
103.65344541774881
 10
259.75055254790374
 20
103.19085137407885
 10
259.8920865878506
 20
102.72801228633124
 10
260.0328212714557
 20
102.26492951357368
 10
260.1727560712371
 20
101.80160440375121
 10
260.3118904793683
 20
101.33803831133176
 10
260.45022412877483
 20
100.87423263321558
 10
260.5877570589639
 20
100.4101888865694
 10
260.7244894236226
 20
99.94590861967802
 10
260.86042132410785
 20
99.48139336236413
 10
260.9955529287108
 20
99.01664466106202
 10
261.1298843390455
 20
98.5516640397461
 10
261.2634157176507
 20
98.08645303707777
 10
261.39614718256377
 20
97.62101317589861
 10
261.52807887974444
 20
97.15534598411274
 10
261.65921094710404
 20
96.68945298436348
 10
261.78954351393133
 20
96.2233356939698
 10
261.9190767378831
 20
95.75699563526723
 10
262.0478107314873
 20
95.2904343151594
 10
262.1757456683312
 20
94.82365325455305
 10
262.3028816551642
 20
94.35665395312718
 10
262.42921886489853
 20
93.889437925806
 10
262.55475741833385
 20
93.42200667051131
 10
262.6794974165476
 20
92.95436167726129
 10
262.80343851060024
 20
92.48650431433224
 10
262.9265801429546
 20
92.01843589498128
 10
263.04892177464404
 20
91.55015773838737
 10
263.1704628280007
 20
91.08167115468706
 10
263.29120277990694
 20
90.61297746927472
 10
263.41114103929
 20
90.14407799109284
 10
263.5302770861281
 20
89.6749740484379
 10
263.648610339735
 20
89.20566695523249
 10
263.76614026124275
 20
88.73615803714877
 10
263.8828662877382
 20
88.26644861493008
 10
263.9987878614692
 20
87.79654001180366
 10
264.11390443738225
 20
87.32643355527354
 10
264.2282154388055
 20
86.85613056629494
 10
264.3417203385721
 20
86.3856323790615
 10
264.45441854123453
 20
85.9149403124769
 10
264.56630952823787
 20
85.4440557051467
 10
264.6773927417739
 20
84.972979887417
 10
264.78766810032647
 20
84.5017143022683
 10
264.8971358183926
 20
84.03026046016849
 10
265.00579613197726
 20
83.5586198736419
 10
265.1136492838688
 20
83.08679405375126
 10
265.2206954930812
 20
82.61478450315097
 10
265.3269350222966
 20
82.14259273143347
 10
265.4323680734542
 20
81.67022023155019
 10
265.53699492143494
 20
81.1976685098536
 10
265.64081577369984
 20
80.7249390547647
 10
265.7438308928681
 20
80.25203336398671
 10
265.84604050434484
 20
79.77895292416089
 10
265.94744485342454
 20
79.30569922339873
 10
266.04804418498543
 20
78.8322737468307
 10
266.1478387269179
 20
78.35867797315039
 10
266.2468287434449
 20
77.88491338587734
 10
266.34501444497107
 20
77.41098145446358
 10
266.44239609160513
 20
76.9368836559462
 10
266.5389735769398
 20
76.462621389911
 10
266.6347466040451
 20
75.98819601650985
 10
266.7297148234975
 20
75.51360888548433
 10
266.82387791215064
 20
75.03886135219345
 10
266.9172355389046
 20
74.56395477069381
 10
267.0097873620762
 20
74.08889049331492
 10
267.10153306892977
 20
73.61366987835636
 10
267.1924722992077
 20
73.13829427528697
 10
267.2826047544694
 20
72.6627650457993
 10
267.371930068179
 20
72.1870835390028
 10
267.4604479387449
 20
71.71125111665856
 10
267.5481580128937
 20
71.2352691312361
 10
267.63505997044285
 20
70.75913894177636
 10
267.7211534765582
 20
70.28286190502446
 10
267.8064381924346
 20
69.8064393774748
 10
267.8909138017182
 20
69.32987272007455
 10
267.97457997194124
 20
68.85316329131476
 10
268.0574366881982
 20
68.3763125052936
 10
268.1394840223564
 20
67.89932178990686
 10
268.22072211873126
 20
67.42219258376934
 10
268.30115106371875
 20
66.94492631373834
 10
268.3807709837195
 20
66.46752441168395
 10
268.4595819843302
 20
65.98998830417321
 10
268.53758417398126
 20
65.51231941650097
 10
268.6147776773911
 20
65.03451917485252
 10
268.6911625849653
 20
64.55658899812317
 10
268.7667390395946
 20
64.07853031188448
 10
268.84150711622203
 20
63.60034452921736
 10
268.9154669648198
 20
63.122033073296734
 10
268.98861867088215
 20
62.64359735555153
 10
269.0609623661981
 20
62.165038792882726
 10
269.13249815514547
 20
61.6863587963293
 10
269.2032261512739
 20
61.20755877668975
 10
269.27314646546574
 20
60.72864014273831
 10
269.3422591246123
 20
60.24960428953022
 10
269.4105641864681
 20
59.7704526153462
 10
269.478061643857
 20
59.29118650802839
 10
269.54475156497585
 20
58.811807364940506
 10
269.61063395015873
 20
58.3323165727875
 10
269.6757088516257
 20
57.85271552434889
 10
269.73997628791767
 20
57.373005606662815
 10
269.80343629304235
 20
56.89318820777838
 10
269.8660889044361
 20
56.413264715085056
 10
269.92793413785006
 20
55.933236512074885
 10
269.9889720495749
 20
55.45310498640248
 10
270.0492026370635
 20
54.97287151717045
 10
270.10862596840104
 20
54.49253749135244
 10
270.16724204375714
 20
54.012104286419515
 10
270.2250509196495
 20
53.53157328577068
 10
270.28205261300735
 20
53.05094586697293
 10
270.33824717305214
 20
52.570223410462624
 10
270.39363466076253
 20
52.089407296954874
 10
270.4482151224997
 20
51.6084989044018
 10
270.50198863914295
 20
51.12749961358025
 10
270.55495523878886
 20
50.646410798273344
 10
270.60711501565214
 20
50.16523383851903
 10
270.65846799610625
 20
49.683970105887965
 10
270.7090142673175
 20
49.20262097745897
 10
270.75875387070715
 20
48.7211878244082
 10
270.80768687507225
 20
48.239672019776016
 10
270.8558133406002
 20
47.75807493468307
 10
270.9031333176847
 20
47.27639793829531
 10
270.94964688523794
 20
46.794642401593315
 10
270.9953540752156
 20
46.312809690045135
 10
271.04025498115385
 20
45.83090117403372
 10
271.0843496287201
 20
45.348918216615836
 10
271.1276381159341
 20
44.86686218659008
 10
271.1701205201908
 20
44.384734449813
 10
271.21179696029964
 20
43.90253637473302
 10
271.2526675407227
 20
43.420269327385654
 10
271.29273236196974
 20
42.937934672370226
 10
271.3319915473374
 20
42.45553377505859
 10
271.37044517900046
 20
41.97306799637222
 10
271.40809339640543
 20
41.490538700735016
 10
271.44493627127156
 20
41.0079472461665
 10
271.4809739445898
 20
40.52529499497814
 10
271.5162065001678
 20
40.0425833040778
 10
271.55063406056075
 20
39.55981353222442
 10
271.58425672826866
 20
39.076987035669966
 10
271.6170746073809
 20
38.59410516978984
 10
271.64908781904484
 20
38.11116929009802
 10
271.68029644885445
 20
37.62818074875909
 10
271.71070063716724
 20
37.14514090050495
 10
271.74030047486593
 20
36.662051095906214
 10
271.76909613656807
 20
36.17891268965681
 10
271.7970877343798
 20
35.69572703154251
 10
271.8242754246689
 20
35.21249547288871
 10
271.8506593382889
 20
34.729219362457776
 10
271.8762396132083
 20
34.245900048366174
 10
271.9010163989805
 20
33.76253887827094
 10
271.924989815147
 20
33.2791371972504
 10
271.9481600299129
 20
32.795696351774694
 10
271.97052714436734
 20
32.3122176840482
 10
271.99209133616097
 20
31.82870253887815
 10
272.0128527153816
 20
31.345152256965424
 10
272.03281144149616
 20
30.86156818022256
 10
272.0519676430478
 20
30.37795164824792
 10
272.070321460957
 20
29.894304000214248
 10
272.0878730464905
 20
29.41062657469676
 10
272.1046225915926
 20
28.9269207106758
 10
272.12057038319637
 20
28.443187749076273
 10
272.1357166480095
 20
27.959429027297578
 10
272.15006168527145
 20
27.47564588354563
 10
272.1636057268917
 20
26.99183965244668
 10
272.176349058011
 20
26.508011668693637
 10
272.1882919277934
 20
26.024163264487246
 10
272.1994346029731
 20
25.54029577103651
 10
272.2097773513225
 20
25.05641051808224
 10
272.2193204211429
 20
24.57250883351459
 10
272.2280640987422
 20
24.088592044539855
 10
272.2360086139637
 20
23.604661475899
 10
272.2431542650348
 20
23.12071845208971
 10
272.24950128295046
 20
22.63676429514423
 10
272.25504995546964
 20
22.152800326517514
 10
272.2598005260296
 20
21.66882786571758
 10
272.26375321574693
 20
21.184848230815323
 10
272.2669082093055
 20
20.700862738471614
 10
272.2692656762876
 20
20.216872704320128
 10
272.2708258191988
 20
19.73287944322137
 10
272.2715887892364
 20
19.248884268929892
 10
272.27155480210797
 20
18.76488849443574
 10
272.2707240065063
 20
18.28089343176844
 10
272.2690966114777
 20
17.796900392030842
 10
272.26667278026065
 20
17.31291068553317
 10
272.26345270343734
 20
16.82892562163138
 10
272.2594365626784
 20
16.344946508844238
 10
272.25462453008805
 20
15.860974654948615
 10
272.2490168057272
 20
15.377011366595768
 10
272.24261354320845
 20
14.893057950142953
 10
272.23541495684816
 20
14.40911571036239
 10
272.2274212037592
 20
13.925185952002328
 10
272.2186325752872
 20
13.441269976695501
 10
272.20904934339165
 20
12.957369085136506
 10
272.1986718122205
 20
12.473484576120539
 10
272.1875002723395
 20
11.989617747383218
 10
272.175535009498
 20
11.505769895497899
 10
272.1627763326659
 20
11.021942315164472
 10
272.149224509178
 20
10.538136300899428
 10
272.1348798634132
 20
10.054353144379466
 10
272.11974265306105
 20
9.570594137961839
 10
272.1038132028053
 20
9.086860570725317
 10
272.087091782368
 20
8.60315373224784
 10
272.06957869792177
 20
8.119474909685048
 10
272.0512742374244
 20
7.635825389596195
 10
272.03217868852465
 20
7.152206457379088
 10
272.01229235735474
 20
6.668619396495804
 10
271.99161551393297
 20
6.185065490712894
 10
271.9701484841594
 20
5.701546020249249
 10
271.9478915279212
 20
5.218062267040891
 10
271.9248449752865
 20
4.734615508693721
 10
271.9010090970593
 20
4.251207024401361
 10
271.8763842048876
 20
3.767838090262381
 10
271.8509705878183
 20
3.2845099823437964
 10
271.8247685390688
 20
2.801223975401256
 10
271.7977783658696
 20
2.3179813422988107
 10
271.77000034299743
 20
1.834783356612519
 10
271.7414347951184
 20
1.3516312879722303
 10
271.7120819806302
 20
0.868526408812288
 10
271.6819422310593
 20
0.38546998611568867
 10
271.65726098860614
 20
0.0
  0
ENDSEC
  0
SECTION
  2
OBJECTS
  0
DICTIONARY
  5
A
330
0
100
AcDbDictionary
280
0
281
1
  3
ACAD_COLOR
350
B
  3
ACAD_GROUP
350
C
  3
ACAD_LAYOUT
350
D
  3
ACAD_MATERIAL
350
E
  3
ACAD_MLEADERSTYLE
350
F
  3
ACAD_MLINESTYLE
350
10
  3
ACAD_PLOTSETTINGS
350
11
  3
ACAD_PLOTSTYLENAME
350
12
  3
ACAD_SCALELIST
350
14
  3
ACAD_TABLESTYLE
350
15
  3
ACAD_VISUALSTYLE
350
16
  3
EZDXF_META
350
2D
  0
DICTIONARY
  5
B
330
A
100
AcDbDictionary
280
0
281
1
  0
DICTIONARY
  5
C
330
A
100
AcDbDictionary
280
0
281
1
  0
DICTIONARY
  5
D
330
A
100
AcDbDictionary
280
0
281
1
  3
Model
350
1A
  3
Layout1
350
1E
  0
DICTIONARY
  5
E
330
A
100
AcDbDictionary
280
0
281
1
  3
ByBlock
350
1F
  3
ByLayer
350
20
  3
Global
350
21
  0
DICTIONARY
  5
F
330
A
100
AcDbDictionary
280
0
281
1
  3
Standard
350
2C
  0
DICTIONARY
  5
10
330
A
100
AcDbDictionary
280
0
281
1
  3
Standard
350
22
  0
DICTIONARY
  5
11
330
A
100
AcDbDictionary
280
0
281
1
  0
ACDBDICTIONARYWDFLT
  5
12
330
A
100
AcDbDictionary
280
0
281
1
  3
Normal
350
13
100
AcDbDictionaryWithDefault
340
13
  0
ACDBPLACEHOLDER
  5
13
330
12
  0
DICTIONARY
  5
14
330
A
100
AcDbDictionary
280
0
281
1
  0
DICTIONARY
  5
15
330
A
100
AcDbDictionary
280
0
281
1
  0
DICTIONARY
  5
16
330
A
100
AcDbDictionary
280
0
281
1
  0
LAYOUT
  5
1A
330
D
100
AcDbPlotSettings
  1

  4
A3
  6

 40
7.5
 41
20.0
 42
7.5
 43
20.0
 44
420.0
 45
297.0
 46
0.0
 47
0.0
 48
0.0
 49
0.0
140
0.0
141
0.0
142
1.0
143
1.0
 70
1024
 72
1
 73
0
 74
5
  7

 75
16
 76
0
 77
2
 78
300
147
1.0
148
0.0
149
0.0
100
AcDbLayout
  1
Model
 70
1
 71
0
 10
0.0
 20
0.0
 11
420.0
 21
297.0
 12
0.0
 22
0.0
 32
0.0
 14
1e+20
 24
1e+20
 34
1e+20
 15
-1e+20
 25
-1e+20
 35
-1e+20
146
0.0
 13
0.0
 23
0.0
 33
0.0
 16
1.0
 26
0.0
 36
0.0
 17
0.0
 27
1.0
 37
0.0
 76
1
330
17
  0
LAYOUT
  5
1E
330
D
100
AcDbPlotSettings
  1

  4
A3
  6

 40
7.5
 41
20.0
 42
7.5
 43
20.0
 44
420.0
 45
297.0
 46
0.0
 47
0.0
 48
0.0
 49
0.0
140
0.0
141
0.0
142
1.0
143
1.0
 70
0
 72
1
 73
0
 74
5
  7

 75
16
 76
0
 77
2
 78
300
147
1.0
148
0.0
149
0.0
100
AcDbLayout
  1
Layout1
 70
1
 71
1
 10
0.0
 20
0.0
 11
420.0
 21
297.0
 12
0.0
 22
0.0
 32
0.0
 14
1e+20
 24
1e+20
 34
1e+20
 15
-1e+20
 25
-1e+20
 35
-1e+20
146
0.0
 13
0.0
 23
0.0
 33
0.0
 16
1.0
 26
0.0
 36
0.0
 17
0.0
 27
1.0
 37
0.0
 76
1
330
1B
  0
MATERIAL
  5
1F
102
{ACAD_REACTORS
330
E
102
}
330
E
100
AcDbMaterial
  1
ByBlock
  2

 70
0
 40
1.0
 71
1
 41
1.0
 91
-1023410177
 42
1.0
 72
1
  3

 73
1
 74
1
 75
1
 44
0.5
 73
0
 45
1.0
 46
1.0
 77
1
  4

 78
1
 79
1
170
1
 48
1.0
171
1
  6

172
1
173
1
174
1
140
1.0
141
1.0
175
1
  7

176
1
177
1
178
1
143
1.0
179
1
  8

270
1
271
1
272
1
145
1.0
146
1.0
273
1
  9

274
1
275
1
276
1
 42
1.0
 72
1
  3

 73
1
 74
1
 75
1
 94
63
  0
MATERIAL
  5
20
102
{ACAD_REACTORS
330
E
102
}
330
E
100
AcDbMaterial
  1
ByLayer
  2

 70
0
 40
1.0
 71
1
 41
1.0
 91
-1023410177
 42
1.0
 72
1
  3

 73
1
 74
1
 75
1
 44
0.5
 73
0
 45
1.0
 46
1.0
 77
1
  4

 78
1
 79
1
170
1
 48
1.0
171
1
  6

172
1
173
1
174
1
140
1.0
141
1.0
175
1
  7

176
1
177
1
178
1
143
1.0
179
1
  8

270
1
271
1
272
1
145
1.0
146
1.0
273
1
  9

274
1
275
1
276
1
 42
1.0
 72
1
  3

 73
1
 74
1
 75
1
 94
63
  0
MATERIAL
  5
21
102
{ACAD_REACTORS
330
E
102
}
330
E
100
AcDbMaterial
  1
Global
  2

 70
0
 40
1.0
 71
1
 41
1.0
 91
-1023410177
 42
1.0
 72
1
  3

 73
1
 74
1
 75
1
 44
0.5
 73
0
 45
1.0
 46
1.0
 77
1
  4

 78
1
 79
1
170
1
 48
1.0
171
1
  6

172
1
173
1
174
1
140
1.0
141
1.0
175
1
  7

176
1
177
1
178
1
143
1.0
179
1
  8

270
1
271
1
272
1
145
1.0
146
1.0
273
1
  9

274
1
275
1
276
1
 42
1.0
 72
1
  3

 73
1
 74
1
 75
1
 94
63
  0
MLINESTYLE
  5
22
102
{ACAD_REACTORS
330
10
102
}
330
10
100
AcDbMlineStyle
  2
Standard
 70
0
  3

 62
256
 51
90.0
 52
90.0
 71
2
 49
0.5
 62
256
  6
BYLAYER
 49
-0.5
 62
256
  6
BYLAYER
  0
MLEADERSTYLE
  5
2C
102
{ACAD_REACTORS
330
F
102
}
330
F
100
AcDbMLeaderStyle
179
2
170
2
171
1
172
0
 90
2
 40
0.0
 41
0.0
173
1
 91
-1056964608
 92
-2
290
1
 42
2.0
291
1
 43
8.0
  3
Standard
 44
4.0
300

342
29
174
1
175
1
176
0
178
1
 93
-1056964608
 45
4.0
292
0
297
0
 46
4.0
 94
-1056964608
 47
1.0
 49
1.0
140
1.0
294
1
141
0.0
177
0
142
1.0
295
0
296
0
143
3.75
271
0
272
9
273
9
  0
DICTIONARY
  5
2D
330
A
100
AcDbDictionary
281
1
  3
CREATED_BY_EZDXF
350
2E
  3
WRITTEN_BY_EZDXF
350
32
  0
DICTIONARYVAR
  5
2E
330
2D
100
DictionaryVariables
280
0
  1
1.3.2 @ 2025-12-18T05:56:14.467662+00:00
  0
DICTIONARYVAR
  5
32
330
2D
100
DictionaryVariables
280
0
  1
1.3.2 @ 2025-12-18T05:56:14.487168+00:00
  0
ENDSEC
  0
EOF
