  0
SECTION
  2
HEADER
  9
$ACADVER
  1
AC1015
  9
$ACADMAINTVER
 70
6
  9
$DWGCODEPAGE
  3
ANSI_1252
  9
$INSBASE
 10
0.0
 20
0.0
 30
0.0
  9
$EXTMIN
 10
1e+20
 20
1e+20
 30
1e+20
  9
$EXTMAX
 10
-1e+20
 20
-1e+20
 30
-1e+20
  9
$LIMMIN
 10
0.0
 20
0.0
  9
$LIMMAX
 10
420.0
 20
297.0
  9
$ORTHOMODE
 70
0
  9
$REGENMODE
 70
1
  9
$FILLMODE
 70
1
  9
$QTEXTMODE
 70
0
  9
$MIRRTEXT
 70
1
  9
$LTSCALE
 40
1.0
  9
$ATTMODE
 70
1
  9
$TEXTSIZE
 40
2.5
  9
$TRACEWID
 40
1.0
  9
$TEXTSTYLE
  7
Standard
  9
$CLAYER
  8
0
  9
$CELTYPE
  6
ByLayer
  9
$CECOLOR
 62
256
  9
$CELTSCALE
 40
1.0
  9
$DISPSILH
 70
0
  9
$DIMSCALE
 40
1.0
  9
$DIMASZ
 40
2.5
  9
$DIMEXO
 40
0.625
  9
$DIMDLI
 40
3.75
  9
$DIMRND
 40
0.0
  9
$DIMDLE
 40
0.0
  9
$DIMEXE
 40
1.25
  9
$DIMTP
 40
0.0
  9
$DIMTM
 40
0.0
  9
$DIMTXT
 40
2.5
  9
$DIMCEN
 40
2.5
  9
$DIMTSZ
 40
0.0
  9
$DIMTOL
 70
0
  9
$DIMLIM
 70
0
  9
$DIMTIH
 70
0
  9
$DIMTOH
 70
0
  9
$DIMSE1
 70
0
  9
$DIMSE2
 70
0
  9
$DIMTAD
 70
1
  9
$DIMZIN
 70
8
  9
$DIMBLK
  1

  9
$DIMASO
 70
1
  9
$DIMSHO
 70
1
  9
$DIMPOST
  1

  9
$DIMAPOST
  1

  9
$DIMALT
 70
0
  9
$DIMALTD
 70
3
  9
$DIMALTF
 40
0.03937007874
  9
$DIMLFAC
 40
1.0
  9
$DIMTOFL
 70
1
  9
$DIMTVP
 40
0.0
  9
$DIMTIX
 70
0
  9
$DIMSOXD
 70
0
  9
$DIMSAH
 70
0
  9
$DIMBLK1
  1

  9
$DIMBLK2
  1

  9
$DIMSTYLE
  2
ISO-25
  9
$DIMCLRD
 70
0
  9
$DIMCLRE
 70
0
  9
$DIMCLRT
 70
0
  9
$DIMTFAC
 40
1.0
  9
$DIMGAP
 40
0.625
  9
$DIMJUST
 70
0
  9
$DIMSD1
 70
0
  9
$DIMSD2
 70
0
  9
$DIMTOLJ
 70
0
  9
$DIMTZIN
 70
8
  9
$DIMALTZ
 70
0
  9
$DIMALTTZ
 70
0
  9
$DIMUPT
 70
0
  9
$DIMDEC
 70
2
  9
$DIMTDEC
 70
2
  9
$DIMALTU
 70
2
  9
$DIMALTTD
 70
3
  9
$DIMTXSTY
  7
Standard
  9
$DIMAUNIT
 70
0
  9
$DIMADEC
 70
0
  9
$DIMALTRND
 40
0.0
  9
$DIMAZIN
 70
0
  9
$DIMDSEP
 70
44
  9
$DIMATFIT
 70
3
  9
$DIMFRAC
 70
0
  9
$DIMLDRBLK
  1

  9
$DIMLUNIT
 70
2
  9
$DIMLWD
 70
-2
  9
$DIMLWE
 70
-2
  9
$DIMTMOVE
 70
0
  9
$LUNITS
 70
2
  9
$LUPREC
 70
4
  9
$SKETCHINC
 40
1.0
  9
$FILLETRAD
 40
10.0
  9
$AUNITS
 70
0
  9
$AUPREC
 70
2
  9
$MENU
  1
.
  9
$ELEVATION
 40
0.0
  9
$PELEVATION
 40
0.0
  9
$THICKNESS
 40
0.0
  9
$LIMCHECK
 70
0
  9
$CHAMFERA
 40
0.0
  9
$CHAMFERB
 40
0.0
  9
$CHAMFERC
 40
0.0
  9
$CHAMFERD
 40
0.0
  9
$SKPOLY
 70
0
  9
$TDCREATE
 40
2461034.449305556
  9
$TDUCREATE
 40
2458532.153996898
  9
$TDUPDATE
 40
2461034.449305556
  9
$TDUUPDATE
 40
2458532.1544311
  9
$TDINDWG
 40
0.0
  9
$TDUSRTIMER
 40
0.0
  9
$USRTIMER
 70
1
  9
$ANGBASE
 50
0.0
  9
$ANGDIR
 70
0
  9
$PDMODE
 70
0
  9
$PDSIZE
 40
0.0
  9
$PLINEWID
 40
0.0
  9
$SPLFRAME
 70
0
  9
$SPLINETYPE
 70
6
  9
$SPLINESEGS
 70
8
  9
$HANDSEED
  5
33
  9
$SURFTAB1
 70
6
  9
$SURFTAB2
 70
6
  9
$SURFTYPE
 70
6
  9
$SURFU
 70
6
  9
$SURFV
 70
6
  9
$UCSBASE
  2

  9
$UCSNAME
  2

  9
$UCSORG
 10
0.0
 20
0.0
 30
0.0
  9
$UCSXDIR
 10
1.0
 20
0.0
 30
0.0
  9
$UCSYDIR
 10
0.0
 20
1.0
 30
0.0
  9
$UCSORTHOREF
  2

  9
$UCSORTHOVIEW
 70
0
  9
$UCSORGTOP
 10
0.0
 20
0.0
 30
0.0
  9
$UCSORGBOTTOM
 10
0.0
 20
0.0
 30
0.0
  9
$UCSORGLEFT
 10
0.0
 20
0.0
 30
0.0
  9
$UCSORGRIGHT
 10
0.0
 20
0.0
 30
0.0
  9
$UCSORGFRONT
 10
0.0
 20
0.0
 30
0.0
  9
$UCSORGBACK
 10
0.0
 20
0.0
 30
0.0
  9
$PUCSBASE
  2

  9
$PUCSNAME
  2

  9
$PUCSORG
 10
0.0
 20
0.0
 30
0.0
  9
$PUCSXDIR
 10
1.0
 20
0.0
 30
0.0
  9
$PUCSYDIR
 10
0.0
 20
1.0
 30
0.0
  9
$PUCSORTHOREF
  2

  9
$PUCSORTHOVIEW
 70
0
  9
$PUCSORGTOP
 10
0.0
 20
0.0
 30
0.0
  9
$PUCSORGBOTTOM
 10
0.0
 20
0.0
 30
0.0
  9
$PUCSORGLEFT
 10
0.0
 20
0.0
 30
0.0
  9
$PUCSORGRIGHT
 10
0.0
 20
0.0
 30
0.0
  9
$PUCSORGFRONT
 10
0.0
 20
0.0
 30
0.0
  9
$PUCSORGBACK
 10
0.0
 20
0.0
 30
0.0
  9
$USERI1
 70
0
  9
$USERI2
 70
0
  9
$USERI3
 70
0
  9
$USERI4
 70
0
  9
$USERI5
 70
0
  9
$USERR1
 40
0.0
  9
$USERR2
 40
0.0
  9
$USERR3
 40
0.0
  9
$USERR4
 40
0.0
  9
$USERR5
 40
0.0
  9
$WORLDVIEW
 70
1
  9
$SHADEDGE
 70
3
  9
$SHADEDIF
 70
70
  9
$TILEMODE
 70
1
  9
$MAXACTVP
 70
64
  9
$PINSBASE
 10
0.0
 20
0.0
 30
0.0
  9
$PLIMCHECK
 70
0
  9
$PEXTMIN
 10
1e+20
 20
1e+20
 30
1e+20
  9
$PEXTMAX
 10
-1e+20
 20
-1e+20
 30
-1e+20
  9
$PLIMMIN
 10
0.0
 20
0.0
  9
$PLIMMAX
 10
420.0
 20
297.0
  9
$UNITMODE
 70
0
  9
$VISRETAIN
 70
1
  9
$PLINEGEN
 70
0
  9
$PSLTSCALE
 70
1
  9
$TREEDEPTH
 70
3020
  9
$CMLSTYLE
  2
Standard
  9
$CMLJUST
 70
0
  9
$CMLSCALE
 40
20.0
  9
$PROXYGRAPHICS
 70
1
  9
$MEASUREMENT
 70
1
  9
$CELWEIGHT
370
-1
  9
$ENDCAPS
280
0
  9
$JOINSTYLE
280
0
  9
$LWDISPLAY
290
0
  9
$INSUNITS
 70
6
  9
$HYPERLINKBASE
  1

  9
$STYLESHEET
  1

  9
$XEDIT
290
1
  9
$CEPSNTYPE
380
0
  9
$PSTYLEMODE
290
1
  9
$FINGERPRINTGUID
  2
{B0472985-503C-4EFE-9679-93A81A61A096}
  9
$VERSIONGUID
  2
{3DA0F395-2711-4C1E-82FA-4D70E9BB7AC9}
  9
$EXTNAMES
290
1
  9
$PSVPSCALE
 40
0.0
  9
$OLESTARTUP
290
0
  0
ENDSEC
  0
SECTION
  2
CLASSES
  0
CLASS
  1
ACDBDICTIONARYWDFLT
  2
AcDbDictionaryWithDefault
  3
ObjectDBX Classes
 90
0
280
0
281
0
  0
CLASS
  1
SUN
  2
AcDbSun
  3
SCENEOE
 90
1153
280
0
281
0
  0
CLASS
  1
VISUALSTYLE
  2
AcDbVisualStyle
  3
ObjectDBX Classes
 90
4095
280
0
281
0
  0
CLASS
  1
MATERIAL
  2
AcDbMaterial
  3
ObjectDBX Classes
 90
1153
280
0
281
0
  0
CLASS
  1
SCALE
  2
AcDbScale
  3
ObjectDBX Classes
 90
1153
280
0
281
0
  0
CLASS
  1
TABLESTYLE
  2
AcDbTableStyle
  3
ObjectDBX Classes
 90
4095
280
0
281
0
  0
CLASS
  1
MLEADERSTYLE
  2
AcDbMLeaderStyle
  3
ACDB_MLEADERSTYLE_CLASS
 90
4095
280
0
281
0
  0
CLASS
  1
DICTIONARYVAR
  2
AcDbDictionaryVar
  3
ObjectDBX Classes
 90
0
280
0
281
0
  0
CLASS
  1
CELLSTYLEMAP
  2
AcDbCellStyleMap
  3
ObjectDBX Classes
 90
1152
280
0
281
0
  0
CLASS
  1
MENTALRAYRENDERSETTINGS
  2
AcDbMentalRayRenderSettings
  3
SCENEOE
 90
1024
280
0
281
0
  0
CLASS
  1
ACDBDETAILVIEWSTYLE
  2
AcDbDetailViewStyle
  3
ObjectDBX Classes
 90
1025
280
0
281
0
  0
CLASS
  1
ACDBSECTIONVIEWSTYLE
  2
AcDbSectionViewStyle
  3
ObjectDBX Classes
 90
1025
280
0
281
0
  0
CLASS
  1
RASTERVARIABLES
  2
AcDbRasterVariables
  3
ISM
 90
0
280
0
281
0
  0
CLASS
  1
ACDBPLACEHOLDER
  2
AcDbPlaceHolder
  3
ObjectDBX Classes
 90
0
280
0
281
0
  0
CLASS
  1
LAYOUT
  2
AcDbLayout
  3
ObjectDBX Classes
 90
0
280
0
281
0
  0
ENDSEC
  0
SECTION
  2
TABLES
  0
TABLE
  2
VPORT
  5
8
330
0
100
AcDbSymbolTable
 70
1
  0
VPORT
  5
23
330
8
100
AcDbSymbolTableRecord
100
AcDbViewportTableRecord
  2
*Active
 70
0
 10
0.0
 20
0.0
 11
1.0
 21
1.0
 12
0.0
 22
0.0
 13
0.0
 23
0.0
 14
0.5
 24
0.5
 15
0.5
 25
0.5
 16
0.0
 26
0.0
 36
1.0
 17
0.0
 27
0.0
 37
0.0
 40
1000.0
 41
1.34
 42
50.0
 43
0.0
 44
0.0
 50
0.0
 51
0.0
 71
0
 72
1000
 73
1
 74
3
 75
0
 76
0
 77
0
 78
0
281
0
 65
0
146
0.0
  0
ENDTAB
  0
TABLE
  2
LTYPE
  5
2
330
0
100
AcDbSymbolTable
 70
3
  0
LTYPE
  5
24
330
2
100
AcDbSymbolTableRecord
100
AcDbLinetypeTableRecord
  2
ByBlock
 70
0
  3

 72
65
 73
0
 40
0.0
  0
LTYPE
  5
25
330
2
100
AcDbSymbolTableRecord
100
AcDbLinetypeTableRecord
  2
ByLayer
 70
0
  3

 72
65
 73
0
 40
0.0
  0
LTYPE
  5
26
330
2
100
AcDbSymbolTableRecord
100
AcDbLinetypeTableRecord
  2
Continuous
 70
0
  3

 72
65
 73
0
 40
0.0
  0
ENDTAB
  0
TABLE
  2
LAYER
  5
1
330
0
100
AcDbSymbolTable
 70
2
  0
LAYER
  5
27
330
1
100
AcDbSymbolTableRecord
100
AcDbLayerTableRecord
  2
0
 70
0
 62
7
  6
Continuous
370
-3
390
13
  0
LAYER
  5
28
330
1
100
AcDbSymbolTableRecord
100
AcDbLayerTableRecord
  2
Defpoints
 70
0
 62
7
  6
Continuous
290
0
370
-3
390
13
  0
ENDTAB
  0
TABLE
  2
STYLE
  5
5
330
0
100
AcDbSymbolTable
 70
1
  0
STYLE
  5
29
330
5
100
AcDbSymbolTableRecord
100
AcDbTextStyleTableRecord
  2
Standard
 70
0
 40
0.0
 41
1.0
 50
0.0
 71
0
 42
2.5
  3
txt
  4

  0
ENDTAB
  0
TABLE
  2
VIEW
  5
7
330
0
100
AcDbSymbolTable
 70
0
  0
ENDTAB
  0
TABLE
  2
UCS
  5
6
330
0
100
AcDbSymbolTable
 70
0
  0
ENDTAB
  0
TABLE
  2
APPID
  5
3
330
0
100
AcDbSymbolTable
 70
3
  0
APPID
  5
2A
330
3
100
AcDbSymbolTableRecord
100
AcDbRegAppTableRecord
  2
ACAD
 70
0
  0
APPID
  5
30
330
3
100
AcDbSymbolTableRecord
100
AcDbRegAppTableRecord
  2
HATCHBACKGROUNDCOLOR
 70
0
  0
APPID
  5
31
330
3
100
AcDbSymbolTableRecord
100
AcDbRegAppTableRecord
  2
EZDXF
 70
0
  0
ENDTAB
  0
TABLE
  2
DIMSTYLE
  5
4
330
0
100
AcDbSymbolTable
 70
1
100
AcDbDimStyleTable
  0
DIMSTYLE
105
2B
330
4
100
AcDbSymbolTableRecord
100
AcDbDimStyleTableRecord
  2
Standard
 70
0
  3

  4

 40
1.0
 41
2.5
 42
0.625
 43
3.75
 44
1.25
 45
0.0
 46
0.0
 47
0.0
 48
0.0
140
2.5
141
2.5
142
0.0
143
0.03937007874
144
1.0
145
0.0
146
1.0
147
0.625
148
0.0
 71
0
 72
0
 73
0
 74
0
 75
0
 76
0
 77
1
 78
8
 79
3
170
0
171
3
172
1
173
0
174
0
175
0
176
0
177
0
178
0
179
2
271
2
272
2
273
2
274
3
275
0
276
0
277
2
278
44
279
0
280
0
281
0
282
0
283
0
284
8
285
0
286
0
288
0
289
3
371
-2
372
-2
  0
ENDTAB
  0
TABLE
  2
BLOCK_RECORD
  5
9
330
0
100
AcDbSymbolTable
 70
2
  0
BLOCK_RECORD
  5
17
330
9
100
AcDbSymbolTableRecord
100
AcDbBlockTableRecord
  2
*Model_Space
340
1A
  0
BLOCK_RECORD
  5
1B
330
9
100
AcDbSymbolTableRecord
100
AcDbBlockTableRecord
  2
*Paper_Space
340
1E
  0
ENDTAB
  0
ENDSEC
  0
SECTION
  2
BLOCKS
  0
BLOCK
  5
18
330
17
100
AcDbEntity
  8
0
100
AcDbBlockBegin
  2
*Model_Space
 70
0
 10
0.0
 20
0.0
 30
0.0
  3
*Model_Space
  1

  0
ENDBLK
  5
19
330
17
100
AcDbEntity
  8
0
100
AcDbBlockEnd
  0
BLOCK
  5
1C
330
1B
100
AcDbEntity
  8
0
100
AcDbBlockBegin
  2
*Paper_Space
 70
0
 10
0.0
 20
0.0
 30
0.0
  3
*Paper_Space
  1

  0
ENDBLK
  5
1D
330
1B
100
AcDbEntity
  8
0
100
AcDbBlockEnd
  0
ENDSEC
  0
SECTION
  2
ENTITIES
  0
LWPOLYLINE
  5
2F
330
17
100
AcDbEntity
  8
0
100
AcDbPolyline
 90
3601
 70
1
 10
266.33921367198053
 20
0.0
 10
266.3392116224737
 20
-0.10821148706160581
 10
266.33839108828056
 20
-0.5922065096189505
 10
266.33676597310676
 20
-1.0761995003098597
 10
266.3343429995461
 20
-1.5601891552964484
 10
266.3311289258734
 20
-2.0441742041869366
 10
266.327130492154
 20
-2.5281534095571927
 10
266.32235442444477
 20
-3.0121255665561324
 10
266.3168074797976
 20
-3.496089503069764
 10
266.3168074797976
 20
-3.496089503069764
 10
266.31049251149267
 20
-3.9800440267581334
 10
266.30339707847673
 20
-4.463987734769928
 10
266.29550483958
 20
-4.947919101897551
 10
266.28679949226586
 20
-5.431836522781799
 10
266.27726472323934
 20
-5.9157383095421885
 10
266.26688421173225
 20
-6.399622690076843
 10
266.25564167711116
 20
-6.883487807455492
 10
266.2435207825968
 20
-7.36733171609078
 10
266.2305052744171
 20
-7.851152383398044
 10
266.21657883578763
 20
-8.334947684526218
 10
266.2017252097452
 20
-8.818715403944234
 10
266.1859281214487
 20
-9.302453231690468
 10
266.16917198960886
 20
-9.786158786646647
 10
266.1514530842941
 20
-10.269830031456777
 10
266.13277763272947
 20
-10.753465287831455
 10
266.11315224919076
 20
-11.237062929523963
 10
266.0925834720044
 20
-11.720621365660767
 10
266.071077900842
 20
-12.204139045972646
 10
266.04864209247006
 20
-12.68761445618362
 10
266.02528261383867
 20
-13.171046119949835
 10
266.00100604412546
 20
-13.654432598798508
 10
265.9758189165976
 20
-14.137772488898348
 10
265.94972782418944
 20
-14.621064426166841
 10
265.92273928662826
 20
-15.104307079026
 10
265.89485988133856
 20
-15.587499155140652
 10
265.8660961408087
 20
-16.070639395491675
 10
265.8364546056404
 20
-16.55372657701507
 10
265.8059418263339
 20
-17.03675951253897
 10
265.77456430629
 20
-17.519737046869075
 10
265.7423286048704
 20
-18.002658063089903
 10
265.7092412104606
 20
-18.485521474005264
 10
265.67530865477704
 20
-18.968326229400752
 10
265.64053537840573
 20
-19.45107116163416
 10
265.6049209180744
 20
-19.933754764399314
 10
265.5684641090574
 20
-20.41637547578798
 10
265.53116374391385
 20
-20.89893172386891
 10
265.4930186782926
 20
-21.38142193474007
 10
265.454027703924
 20
-21.863844522677912
 10
265.41418966880656
 20
-22.346197899575827
 10
265.3735033874747
 20
-22.82848046776148
 10
265.3319676848416
 20
-23.310690623485687
 10
265.289581403711
 20
-23.79282675764977
 10
265.2463433461959
 20
-24.27488725062745
 10
265.202252376852
 20
-24.75687048139652
 10
265.1573072955528
 20
-25.238774816094228
 10
265.11150696259296
 20
-25.720598619410623
 10
265.0648502005929
 20
-26.202340245507845
 10
265.0173358478759
 20
-26.68399804296321
 10
264.96896275613676
 20
-27.16557035463969
 10
264.91972974189264
 20
-27.647055512765295
 10
264.8696356839405
 20
-28.128451848809892
 10
264.81868004404265
 20
-28.609757749254232
 10
264.7668638033002
 20
-29.09097176024533
 10
264.71418809502944
 20
-29.572092448931166
 10
264.6606540716985
 20
-30.053118389820774
 10
264.6062628909078
 20
-30.534048163342664
 10
264.5510156779742
 20
-31.01488035154395
 10
264.4949136104197
 20
-31.495613547719586
 10
264.4379577986702
 20
-31.97624634262343
 10
264.3801494188761
 20
-32.45677733994765
 10
264.32148959665415
 20
-32.93720514259964
 10
264.2619794805259
 20
-33.417528361398865
 10
264.20162021976455
 20
-33.897745612463716
 10
264.14041293519773
 20
-34.37785551345655
 10
264.0783587962501
 20
-34.85785669334373
 10
264.01545890571026
 20
-35.3377477776112
 10
263.9517144336804
 20
-35.81752740557123
 10
263.8871264965824
 20
-36.29719421455137
 10
263.8216962365133
 20
-36.776746850300505
 10
263.75542476615726
 20
-37.25618395954914
 10
263.68831287597163
 20
-37.735504148737526
 10
263.6203612167074
 20
-38.21470600769971
 10
263.5515703711237
 20
-38.69378811887919
 10
263.4819409925728
 20
-39.17274907697981
 10
263.41147367855734
 20
-39.65158747086333
 10
263.34016905704254
 20
-40.1303018959716
 10
263.26802775039454
 20
-40.60889094911777
 10
263.1950503612335
 20
-41.08735322625447
 10
263.12123753543716
 20
-41.56568733206282
 10
263.04658985385447
 20
-42.043891863327296
 10
262.97110797090016
 20
-42.521965430348416
 10
262.8947924806826
 20
-42.999906636092554
 10
262.8176440122216
 20
-43.47771409110063
 10
262.73966318405087
 20
-43.955386406336025
 10
262.6608505998233
 20
-44.43292219235057
 10
262.5812069023483
 20
-44.91032006820237
 10
262.5007326699375
 20
-45.38757864422423
 10
262.41942856749154
 20
-45.86469654731347
 10
262.33729532428174
 20
-46.341672417738806
 10
262.2543337976766
 20
-46.81850492060883
 10
262.1705448309853
 20
-47.29519272183506
 10
262.0859292577367
 20
-47.77173448875933
 10
262.00048794494165
 20
-48.24812889785247
 10
261.9142217005721
 20
-48.72437461816152
 10
261.8271314042749
 20
-49.20047033479895
 10
261.73921787107105
 20
-49.67641472427401
 10
261.65048195909395
 20
-50.152206474094804
 10
261.56092450535084
 20
-50.62784427098977
 10
261.4705463422556
 20
-51.103326803866665
 10
261.3793483300129
 20
-51.57865277000278
 10
261.28733127532996
 20
-52.05382085946975
 10
261.19449605195047
 20
-52.528829778309856
 10
261.1008434692835
 20
-53.00367822309822
 10
261.00637438336463
 20
-53.47836490253997
 10
260.9110896237741
 20
-53.95288852313709
 10
260.81499002390245
 20
-54.42724779509972
 10
260.7180764490797
 20
-54.90144143813095
 10
260.6203497190104
 20
-55.3754681656318
 10
260.5218107161062
 20
-55.849326706907
 10
260.4224602590796
 20
-56.323015781090845
 10
260.3222992173812
 20
-56.796534120876494
 10
260.22132842878096
 20
-57.26988045530523
 10
260.1195487375987
 20
-57.743053517731894
 10
260.01696100452966
 20
-58.2160520480129
 10
259.91356604878683
 20
-58.68887477994046
 10
259.80936474732647
 20
-59.16152046282624
 10
259.7043579136919
 20
-59.63398783497321
 10
259.59854641606006
 20
-60.10627564965247
 10
259.4919310851119
 20
-60.5783826546945
 10
259.38451276379925
 20
-61.05030760351807
 10
259.2762923052427
 20
-61.52204925474631
 10
259.1672705271995
 20
-61.993606361722144
 10
259.05744830581096
 20
-62.46497769410596
 10
258.9468264774152
 20
-62.936162015221576
 10
258.8354059431683
 20
-63.40715810650604
 10
258.72318756103306
 20
-63.87796474223608
 10
258.61017220739194
 20
-64.34858070398496
 10
258.4963607626643
 20
-64.81900477728531
 10
258.381754078489
 20
-65.28923574362997
 10
258.2663530542492
 20
-65.75927239906162
 10
258.15015852676606
 20
-66.22911352721464
 10
258.0331713958983
 20
-66.69875793014516
 10
257.91539251218046
 20
-67.16820440059676
 10
257.79682275061026
 20
-67.6374517402618
 10
257.6774629837046
 20
-68.10649875311125
 10
257.55731406163153
 20
-68.57534424025633
 10
257.43637687702903
 20
-69.04398701652472
 10
257.3146522602972
 20
-69.51242588353185
 10
257.1921411091287
 20
-69.98065966312234
 10
257.0688442704948
 20
-70.44868716676757
 10
256.9447626297681
 20
-70.91650721880839
 10
256.8198970642183
 20
-71.38411864432439
 10
256.69424843558807
 20
-71.85152026705207
 10
256.56781764301826
 20
-72.31871092360703
 10
256.44060552400157
 20
-72.78568943674206
 10
256.31261298784915
 20
-73.25245465150417
 10
256.1838408823047
 20
-73.71900539893606
 10
256.0542900922653
 20
-74.1853405230309
 10
255.92396148708428
 20
-74.65145886627612
 10
255.7928559272802
 20
-75.11735927140134
 10
255.66097430363726
 20
-75.58304059239997
 10
255.52831745233235
 20
-76.04850167052946
 10
255.39488627567857
 20
-76.513741368551
 10
255.2606816147244
 20
-76.97875853443523
 10
255.1257043523408
 20
-77.44355203083364
 10
254.98995534828302
 20
-77.9081207164151
 10
254.85343545740787
 20
-78.37246345102723
 10
254.7161455572434
 20
-78.83657910382887
 10
254.57808647812158
 20
-79.30046653263192
 10
254.43925911099842
 20
-79.76412461584853
 10
254.29966428615788
 20
-80.22755221638542
 10
254.15930288073233
 20
-80.6907482137684
 10
254.01817574289612
 20
-81.15371148138105
 10
253.87628372586056
 20
-81.6164408966528
 10
253.73362769890133
 20
-82.07893534450788
 10
253.5902084913503
 20
-82.54119370007787
 10
253.44602698731933
 20
-83.00321485797893
 10
253.30108401059897
 20
-83.4649976965698
 10
253.15538043662315
 20
-83.92654111284689
 10
253.0089171049456
 20
-84.38784399503741
 10
252.86169486704998
 20
-84.84890523757849
 10
252.71371458329284
 20
-85.30972374023386
 10
252.56497708176292
 20
-85.77029839484564
 10
252.4154832397669
 20
-86.230628111571
 10
252.26523387486316
 20
-86.69071178363905
 10
252.11422986133272
 20
-87.15054832515504
 10
251.96247203082754
 20
-87.61013663871292
 10
251.80996123413627
 20
-88.06947563556591
 10
251.65669832368144
 20
-88.528564229935
 10
251.50268412680566
 20
-88.9874013300272
 10
251.3479195141188
 20
-89.44598586092891
 10
251.19240529683913
 20
-89.90431673006856
 10
251.03614234779292
 20
-90.362392868056
 10
250.87913149016694
 20
-90.82021319098423
 10
250.72137357328035
 20
-91.27777662616514
 10
250.56286944072318
 20
-91.7350821012891
 10
250.40361991792798
 20
-92.19212854002619
 10
250.2436258527445
 20
-92.64891487611321
 10
250.0828880156609
 20
-93.10544001836949
 10
249.92140724278192
 20
-93.56170290073143
 10
249.75918431381706
 20
-94.01770243933012
 10
249.596220041892
 20
-94.47343756416608
 10
249.43251522727604
 20
-94.92890720273572
 10
249.2680706601694
 20
-95.38411028091745
 10
249.10288716125905
 20
-95.83904573763562
 10
248.93696549787316
 20
-96.29371249446007
 10
248.77030650145636
 20
-96.74810949830432
 10
248.60291094507934
 20
-97.20223567674545
 10
248.43477964102635
 20
-97.65608997372256
 10
248.26591338134313
 20
-98.10967132770358
 10
248.09631295540743
 20
-98.56297867808377
 10
247.92597917536972
 20
-99.01601097474311
 10
247.7549128078046
 20
-99.46876715236486
 10
247.58311467751216
 20
-99.92124616951502
 10
247.41058555147103
 20
-100.37344696479222
 10
247.23732624125935
 20
-100.82536849564856
 10
247.0633375310118
 20
-101.27700971097585
 10
246.88862020977848
 20
-101.72836956340228
 10
246.7131750818273
 20
-102.17944701334797
 10
246.53700291373775
 20
-102.63024100843654
 10
246.3601045241241
 20
-103.08075051845306
 10
246.18248067411537
 20
-103.53097449251246
 10
246.0041321746623
 20
-103.98091190115409
 10
245.82505980190572
 20
-104.43056170301638
 10
245.64526434430027
 20
-104.87992286340636
 10
245.46474659783334
 20
-105.32899435248247
 10
245.28350732852374
 20
-105.77777513013935
 10
245.10154733957074
 20
-106.22626417303266
 10
244.91886731510021
 20
-106.6744604111531
 10
244.73546796777194
 20
-107.12236278738278
 10
244.55134996833527
 20
-107.56997022872773
 10
244.36651400753868
 20
-108.01728167155898
 10
244.1809607763526
 20
-108.46429605356447
 10
243.9946909437854
 20
-108.91101230447408
 10
243.80770521910455
 20
-109.35742937196606
 10
243.62000425511405
 20
-109.80354618125283
 10
243.43158876521065
 20
-110.24936168412397
 10
243.242459413679
 20
-110.69487481283534
 10
243.05261689219245
 20
-111.14008451233202
 10
242.86206188505844
 20
-111.58498972558128
 10
242.67079506229447
 20
-112.0295893905114
 10
242.47881712813378
 20
-112.47388246087392
 10
242.28612873426425
 20
-112.9178678688245
 10
242.0927306238504
 20
-113.36154458730529
 10
241.89862349655954
 20
-113.80491157164388
 10
241.7038080868059
 20
-114.24796779360484
 10
241.50828511409523
 20
-114.69071221973778
 10
241.3120552912892
 20
-115.13314381490343
 10
241.11511935762482
 20
-115.57526155694228
 10
240.91747800447868
 20
-116.01706440364067
 10
240.7191319824111
 20
-116.4585513404601
 10
240.52008198629457
 20
-116.89972132915987
 10
240.32032875106685
 20
-117.34057335073459
 10
240.11987298925888
 20
-117.7811063773059
 10
239.91871541433767
 20
-118.22131938259047
 10
239.71685675836386
 20
-118.66121135002177
 10
239.51429771340347
 20
-119.10078124586921
 10
239.3110390169376
 20
-119.54002805845354
 10
239.1070813042107
 20
-119.97895072988038
 10
238.90242523826828
 20
-120.41754821592087
 10
238.6970714525371
 20
-120.85581945932324
 10
238.49102058914121
 20
-121.29376340758242
 10
238.28427330134232
 20
-121.73137901417215
 10
238.07683021045148
 20
-122.16866521816311
 10
237.86869198505747
 20
-122.60562098172043
 10
237.65985923901735
 20
-123.04224524166747
 10
237.45033263721183
 20
-123.47853695983498
 10
237.24011280756451
 20
-123.9144950810419
 10
237.02920039419087
 20
-124.35011855851023
 10
236.81759604471551
 20
-124.78540634783803
 10
236.60530038256385
 20
-125.22035739347474
 10
236.39231407247038
 20
-125.65497066064262
 10
236.17863772250416
 20
-126.08924508743353
 10
235.96427198886028
 20
-126.52317963612472
 10
235.74921748168484
 20
-126.95677324685442
 10
235.5334748348102
 20
-127.39002487195408
 10
235.31704467809314
 20
-127.82293346231664
 10
235.0999276249422
 20
-128.25549796107705
 10
234.88212432423535
 20
-128.68771732965325
 10
234.66363537089293
 20
-129.11959050276027
 10
234.4444614215307
 20
-129.55111644672016
 10
234.22460308134785
 20
-129.9822941022789
 10
234.00406098659744
 20
-130.41312242638497
 10
233.78283576208256
 20
-130.84360037060478
 10
233.56092802377282
 20
-131.27372688235218
 10
233.33833841600824
 20
-131.70350092409734
 10
233.11506753455043
 20
-132.1329214335575
 10
232.8911160340738
 20
-132.56198737941244
 10
232.66648451486256
 20
-132.99069770240968
 10
232.44117361423227
 20
-133.41905136298746
 10
232.2151839506942
 20
-133.8470473121006
 10
231.98851614150482
 20
-134.27468450034206
 10
231.76117082468915
 20
-134.70196188966025
 10
231.53314859752635
 20
-135.12887842064418
 10
231.30445011075264
 20
-135.55543306270158
 10
231.0750759619682
 20
-135.98162475711896
 10
230.84502679126345
 20
-136.40745246826842
 10
230.6143032126145
 20
-136.83291514675903
 10
230.3829058462063
 20
-137.25801174678864
 10
230.15083532544386
 20
-137.6827412300355
 10
229.91809225068926
 20
-138.10710254036562
 10
229.68467726700356
 20
-138.53109464636023
 10
229.45059091025865
 20
-138.9547164566239
 10
229.21583371267297
 20
-139.37796687742966
 10
228.98040617153046
 20
-139.80084479526414
 10
228.74430879798734
 20
-140.2233491037775
 10
228.5075421092884
 20
-140.64547869954094
 10
228.27010659752204
 20
-141.06723246447464
 10
228.03200279688403
 20
-141.48860930365046
 10
227.79323118942926
 20
-141.90960809216728
 10
227.55379231059905
 20
-142.33022773477475
 10
227.3136866556854
 20
-142.75046711287834
 10
227.0729147411793
 20
-143.1703251193513
 10
226.83147708234452
 20
-143.58980064581198
 10
226.58937417681312
 20
-144.00889257310342
 10
226.34660655865733
 20
-144.42759980250236
 10
226.10317471432208
 20
-144.84592120707902
 10
225.8590792206864
 20
-145.26385571192287
 10
225.6143206219773
 20
-145.68140222274985
 10
225.36889949073853
 20
-146.09855966146682
 10
225.12281639087422
 20
-146.51532694460053
 10
224.87607187588657
 20
-146.93170298214736
 10
224.62866652924058
 20
-147.34768670149896
 10
224.38060088549005
 20
-147.76327700058692
 10
224.13187553868954
 20
-148.1784728124057
 10
223.88249103133947
 20
-148.59327303875338
 10
223.6324479406003
 20
-149.00767660177567
 10
223.38174682788255
 20
-149.42168241374722
 10
223.13038825151406
 20
-149.8352893846006
 10
222.87837279245616
 20
-150.24849643759094
 10
222.62570099030074
 20
-150.66130247028607
 10
222.3723734610248
 20
-151.0737064265501
 10
222.1183908561627
 20
-151.48570727202002
 10
221.8637538876916
 20
-151.89730400977865
 10
221.60846324444367
 20
-152.30849562900926
 10
221.35251961905755
 20
-152.71928112155442
 10
221.09592371915613
 20
-153.12965948894924
 10
220.8386762181314
 20
-153.53962971164222
 10
220.58077783708467
 20
-153.94919080029487
 10
220.32222924598494
 20
-154.35834173373198
 10
220.0630311594079
 20
-154.76708151918245
 10
219.80318426185116
 20
-155.17540914515624
 10
219.5426892487218
 20
-155.58332360731967
 10
219.2815468232267
 20
-155.99082390661056
 10
219.01975766169542
 20
-156.3979090269788
 10
218.7573224819346
 20
-156.8045779792604
 10
218.49424183841427
 20
-157.2108296688501
 10
218.23051609069654
 20
-157.61666287377798
 10
217.96614553038327
 20
-158.02207632572194
 10
217.70113046805093
 20
-158.4270687662152
 10
217.43547121624982
 20
-158.8316389356532
 10
217.16916806892263
 20
-159.23578555970585
 10
216.90222135790356
 20
-159.63950738650186
 10
216.63463136574015
 20
-160.0428031290939
 10
216.36639843080175
 20
-160.4456715349694
 10
216.0975228490684
 20
-160.84811132093728
 10
215.82800494250327
 20
-161.25012121853072
 10
215.55784502824622
 20
-161.65169995351994
 10
215.28704341197354
 20
-162.05284624134015
 10
215.01560043202682
 20
-162.45355881687362
 10
214.74351638093074
 20
-162.85383638136585
 10
214.47079180403034
 20
-163.25367780575036
 10
214.19742750131164
 20
-163.65308213412288
 10
213.92342433094302
 20
-164.05204845121239
 10
213.64878313768267
 20
-164.4505758336259
 10
213.37350476014896
 20
-164.84866335472165
 10
213.0975900607717
 20
-165.246310105347
 10
212.82103985871382
 20
-165.64351514733235
 10
212.54385502647915
 20
-166.0402775805782
 10
212.26603638638014
 20
-166.43659647098326
 10
211.98758479668518
 20
-166.83247091053795
 10
211.7085010955733
 20
-167.22789997812544
 10
211.42878612191348
 20
-167.62288275401417
 10
211.14844073141268
 20
-168.0174183313539
 10
210.8674657436375
 20
-168.41150577853537
 10
210.58586202209923
 20
-168.80514419613814
 10
210.3036301923055
 20
-169.19833251489328
 10
210.02077065181285
 20
-169.59106950073266
 10
209.73728375248552
 20
-169.9833538842453
 10
209.45316985514967
 20
-170.3751843997989
 10
209.16842933243026
 20
-170.76655978768738
 10
208.88306252932767
 20
-171.15747876541965
 10
208.59706983516787
 20
-171.54794008013965
 10
208.3104515915447
 20
-171.93794244137547
 10
208.0232081872062
 20
-172.327484590505
 10
207.73533997963355
 20
-172.71656524319206
 10
207.44684734198793
 20
-173.1051831238781
 10
207.15773065272165
 20
-173.49333695819487
 10
206.86799026953656
 20
-173.88102545350714
 10
206.57762658946712
 20
-174.26824734375003
 10
206.2866399638695
 20
-174.65500132582454
 10
205.9950309142905
 20
-175.0412862221232
 10
205.70280011705393
 20
-175.42710097047402
 10
205.40994828734807
 20
-175.81244453760095
 10
205.11647613783794
 20
-176.19731588798237
 10
204.82238436590285
 20
-176.58171397402452
 10
204.52767370185356
 20
-176.96563777292567
 10
204.23234482774012
 20
-177.34908622444564
 10
203.93639848087753
 20
-177.7320583104044
 10
203.63983535356766
 20
-178.1145529775002
 10
203.3426561654435
 20
-178.49656919308543
 10
203.04486162727852
 20
-178.87810591720964
 10
202.74645244113802
 20
-179.25916210260965
 10
202.44742933621987
 20
-179.63973672278624
 10
202.14779299713686
 20
-180.0198287157135
 10
201.84754416327408
 20
-180.39943706195487
 10
201.54668350436555
 20
-180.77856068648015
 10
201.24521166515675
 20
-181.1571984934764
 10
200.94312926626043
 20
-181.53534936677315
 10
200.64043692631694
 20
-181.9130121873007
 10
200.33713528500346
 20
-182.2901858515748
 10
200.03322494440155
 20
-182.66686922457205
 10
199.7287065567007
 20
-183.04306121031834
 10
199.42358072714
 20
-183.41876067357998
 10
199.11784809848396
 20
-183.7939665081611
 10
198.81150929275623
 20
-184.16867758967243
 10
198.50456493634027
 20
-184.5428927958512
 10
198.19701567038422
 20
-184.91661101517556
 10
197.88886210501545
 20
-185.28983110917557
 10
197.58010489554889
 20
-185.6625519752228
 10
197.27074465079517
 20
-186.03477247079084
 10
196.96078202264147
 20
-186.40649148761673
 10
196.65021764278615
 20
-186.77770789924202
 10
196.33905215578213
 20
-187.14842058847896
 10
196.02728621467037
 20
-187.51862844387907
 10
195.7149204477852
 20
-187.88833033173597
 10
195.40195552369522
 20
-188.25752515085819
 10
195.08839206479445
 20
-188.62621175949684
 10
194.7742307396527
 20
-188.99438905360714
 10
194.45947218429674
 20
-189.3620558999697
 10
194.14411705125667
 20
-189.7292111779052
 10
193.82816599556335
 20
-190.09585376739565
 10
193.51161965383739
 20
-190.46198253098697
 10
193.19447869822832
 20
-190.8275963603677
 10
192.87674375517688
 20
-191.1926941060348
 10
192.5584155015229
 20
-191.55727466066753
 10
192.23949457584635
 20
-191.9213368820319
 10
191.9199816362038
 20
-192.28487964323554
 10
191.59987733411253
 20
-192.647901810015
 10
191.27918230861104
 20
-193.0104022353571
 10
190.9578972296071
 20
-193.37237979782788
 10
190.6360227217084
 20
-193.73383333405692
 10
190.31355946395635
 20
-194.09476172729822
 10
189.9905080917448
 20
-194.4551638201407
 10
189.66686926858034
 20
-194.8150384784801
 10
189.34264364889728
 20
-195.17438455829878
 10
189.01783188080452
 20
-195.53320090799627
 10
188.6924346377626
 20
-195.89148639708114
 10
188.36645255262107
 20
-196.2492398563196
 10
188.0398863103475
 20
-196.60646016200917
 10
187.7127365511844
 20
-196.96314614776145
 10
187.38500394806408
 20
-197.31929667515607
 10
187.056689169391
 20
-197.67491059977894
 10
186.72779293265506
 20
-198.0299868207719
 10
186.3983159897994
 20
-198.3845242678181
 10
186.06825905784927
 20
-198.73852183684477
 10
185.73762290094183
 20
-199.09197846632378
 10
185.40640823856006
 20
-199.44489305170475
 10
185.07461582647625
 20
-199.79726452104518
 10
184.74224640005295
 20
-200.14909178189214
 10
184.40930069946066
 20
-200.50037374488505
 10
184.07577947836776
 20
-200.8511093320775
 10
183.7416834614835
 20
-201.20129743655264
 10
183.40701341614667
 20
-201.5509369905784
 10
183.07177006555517
 20
-201.90002688278543
 10
182.73595417309906
 20
-202.24856603883353
 10
182.39956647654273
 20
-202.59655335829072
 10
182.06260772406537
 20
-202.94398774921243
 10
181.72507867948053
 20
-203.29086813335704
 10
181.38698009842216
 20
-203.63719342308124
 10
181.04831277635344
 20
-203.98296256825515
 10
180.70907746493504
 20
-204.32817447455682
 10
180.36927495961297
 20
-204.6728280892374
 10
180.0289060249661
 20
-205.01692232783773
 10
179.68797144112483
 20
-205.3604561198036
 10
179.3464719906986
 20
-205.70342839567374
 10
179.0044084386458
 20
-206.0458380669529
 10
178.66178158372006
 20
-206.38768407744064
 10
178.31859218140445
 20
-206.728965326139
 10
177.9748410346237
 20
-207.0696807581779
 10
177.63052891053977
 20
-207.40982928121437
 10
177.28565659709997
 20
-207.7494098223329
 10
176.9402248795419
 20
-208.08842130438313
 10
176.59423453070696
 20
-208.4268626359886
 10
176.2476863437687
 20
-208.7647327449445
 10
175.90058105782475
 20
-209.10203050187667
 10
175.5529194622851
 20
-209.43875482726733
 10
175.20470230608694
 20
-209.77490459808152
 10
174.85593036404967
 20
-210.11047871612237
 10
174.50660440329506
 20
-210.44547607336716
 10
174.1567251842034
 20
-210.77989555280683
 10
173.80629349205506
 20
-211.11373606156315
 10
173.45531007294372
 20
-211.44699646368267
 10
173.10377572293334
 20
-211.7796756737852
 10
172.75169119603245
 20
-212.11177256017933
 10
172.39905727631466
 20
-212.44328602093148
 10
172.0458747353051
 20
-212.7742149388064
 10
171.69214434300804
 20
-213.1045581928402
 10
171.33786688918426
 20
-213.43431468117345
 10
170.98304313073513
 20
-213.76348326455815
 10
170.62767389405388
 20
-214.09206287657972
 10
170.27175999062362
 20
-214.42005243301833
 10
169.9153022665977
 20
-214.74745088557702
 10
169.55830155050776
 20
-215.07425716525884
 10
169.2007586740415
 20
-215.40047020482783
 10
168.84267448327577
 20
-215.72608895120723
 10
168.4840497955876
 20
-216.0511123180897
 10
168.12488546979716
 20
-216.37553926315903
 10
167.7651823234205
 20
-216.69936869675647
 10
167.4049412105592
 20
-217.0225995680342
 10
167.04416296318146
 20
-217.34523079983308
 10
166.68284842128944
 20
-217.6672613221387
 10
166.3209984344456
 20
-217.9886900739193
 10
165.95861382871038
 20
-218.30951596586542
 10
165.59569546767403
 20
-218.62973794919412
 10
165.23224417446298
 20
-218.9493549274903
 10
164.86826082918995
 20
-219.26836586725028
 10
164.5037463127276
 20
-219.586769734357
 10
164.13870152083945
 20
-219.90456551027117
 10
163.7731273538269
 20
-220.22175218033357
 10
163.40702469319413
 20
-220.5383287067908
 10
163.0403944538177
 20
-220.8542940890356
 10
162.67323751010522
 20
-221.16964727811225
 10
162.30555477906074
 20
-221.48438727309048
 10
161.937347146675
 20
-221.79851303544618
 10
161.5686155158984
 20
-222.1120235449328
 10
161.19936078970383
 20
-222.42491777986297
 10
160.8295838571489
 20
-222.7371947005467
 10
160.459285636962
 20
-223.04885330084994
 10
160.0884670080043
 20
-223.35989252571883
 10
159.71712889471186
 20
-223.67031137271954
 10
159.34527218648566
 20
-223.98010879600935
 10
158.97289779711576
 20
-224.28928377727678
 10
158.60000664660348
 20
-224.59783530416806
 10
158.22659964792766
 20
-224.90576235427866
 10
157.852677739979
 20
-225.2130639351136
 10
157.47824182222953
 20
-225.51973900469073
 10
157.1032928423969
 20
-225.8257865782678
 10
156.7278317091557
 20
-226.13120562182786
 10
156.35185935657398
 20
-226.43599513084644
 10
155.97537671002624
 20
-226.74015408852588
 10
155.59838469009742
 20
-227.04368147043493
 10
155.22088423881175
 20
-227.34657627711385
 10
154.84287626343834
 20
-227.6488374641011
 10
154.46436171614508
 20
-227.95046404127837
 10
154.08534151042096
 20
-228.25145496837914
 10
153.7058165882026
 20
-228.55180923907662
 10
153.325787878694
 20
-228.85152582926258
 10
152.94525631175264
 20
-229.15060371378965
 10
152.5642228478857
 20
-229.44904190478434
 10
152.182688427208
 20
-229.74683938671254
 10
151.8006540310975
 20
-230.0439951952793
 10
151.4181206026688
 20
-230.34050831553887
 10
151.03508911613093
 20
-230.6363777709443
 10
150.6515605288675
 20
-230.93160256165115
 10
150.26753580193747
 20
-231.2261816908743
 10
149.88301590898948
 20
-231.52011417660984
 10
149.49800179810487
 20
-231.81339900171068
 10
149.11249445490068
 20
-232.10603519653554
 10
148.72649482737566
 20
-232.3980217402471
 10
148.3400038973499
 20
-232.68935765484315
 10
147.95302262611727
 20
-232.98004193342373
 10
147.56555198273796
 20
-233.2700735775359
 10
147.17759294479424
 20
-233.5594515983301
 10
146.78914646875435
 20
-233.84817497677759
 10
146.40021353277115
 20
-234.13624272103124
 10
146.01079503613389
 20
-234.4236537305692
 10
145.62089190598815
 20
-234.7104069397589
 10
145.23050504577117
 20
-234.99650124799282
 10
144.83963537089681
 20
-235.28193556801904
 10
144.44828380178174
 20
-235.56670881657462
 10
144.05645124228934
 20
-235.85081988467238
 10
143.66413862756986
 20
-236.13426770346814
 10
143.2713468567705
 20
-236.4170511513444
 10
142.87807686825354
 20
-236.69916915800226
 10
142.48432957337025
 20
-236.98062061256286
 10
142.0901058992002
 20
-237.26140442294877
 10
141.69540677415966
 20
-237.5415194959051
 10
141.30023311423298
 20
-237.82096471746857
 10
140.90458586361544
 20
-238.09973901037637
 10
140.50846593114144
 20
-238.37784124401395
 10
140.1118742686356
 20
-238.65527034565116
 10
139.71481189407507
 20
-238.9320253346128
 10
139.3172800029342
 20
-239.20810548374385
 10
138.91927980136663
 20
-239.48351008208365
 10
138.5208124851262
 20
-239.75823840449524
 10
138.1218792730701
 20
-240.032289760234
 10
137.72248134739633
 20
-240.30566340608206
 10
137.3226199320841
 20
-240.57835866058662
 10
136.92229621584576
 20
-240.85037479157074
 10
136.52151140815602
 20
-241.12171109808443
 10
136.12026671073244
 20
-241.39236686859536
 10
135.71856331871427
 20
-241.66234138252653
 10
135.3164024467174
 20
-241.93163394904298
 10
134.91378527571507
 20
-242.20024382780957
 10
134.51071302695487
 20
-242.4681703394556
 10
134.1071868858988
 20
-242.73541275161855
 10
133.70320806133432
 20
-243.00197036768716
 10
133.29877774654133
 20
-243.26784246826185
 10
132.8938969862431
 20
-243.53302810750853
 10
132.48856666866993
 20
-243.7975260978734
 10
132.0827876446815
 20
-244.06133518957893
 10
131.67656080482243
 20
-244.32445418865638
 10
131.26988700705766
 20
-244.5868818458
 10
130.86276713739343
 20
-244.8486169498016
 10
130.45520207037183
 20
-245.10965826647734
 10
130.04719268348805
 20
-245.37000456086903
 10
129.6387398692506
 20
-245.62965461624498
 10
129.22984449685202
 20
-245.8886071738064
 10
128.82050747239995
 20
-246.14686102754143
 10
128.41072967007577
 20
-246.4044149154974
 10
128.00051199436516
 20
-246.66126761828787
 10
127.5898553354042
 20
-246.91741788818786
 10
127.17876058970955
 20
-247.17286448201767
 10
126.76722866554991
 20
-247.42760616992462
 10
126.3552604559898
 20
-247.681641691842
 10
125.94285706425053
 20
-247.9349701240813
 10
125.53001979435717
 20
-248.18759086891257
 10
125.11674999540836
 20
-248.4395034042054
 10
124.70304899565681
 20
-248.69070717607056
 10
124.28891812936061
 20
-248.9412016426854
 10
123.87435873557337
 20
-249.19098627247902
 10
123.45937213388785
 20
-249.4400605038035
 10
123.04395967140114
 20
-249.68842382301634
 10
122.62812266109813
 20
-249.93607566171838
 10
122.21186244648648
 20
-250.1830155048129
 10
121.79518034761568
 20
-250.42924279998542
 10
121.37807769348203
 20
-250.67475701209761
 10
120.96055581477225
 20
-250.91955761108576
 10
120.54261602614955
 20
-251.16364404163858
 10
120.12425966696833
 20
-251.4070157927853
 10
119.70548804326467
 20
-251.6496722984315
 10
119.28630249259683
 20
-251.89161304879326
 10
118.8667042252438
 20
-252.13283731492177
 10
118.44669424279904
 20
-252.3733440032035
 10
118.02627351941732
 20
-252.61313196733877
 10
117.60544301954077
 20
-252.85220003859405
 10
117.18420373291019
 20
-253.09054708734797
 10
116.76255661978982
 20
-253.3281719264865
 10
116.34050267722735
 20
-253.56507342852564
 10
115.91804287738763
 20
-253.80125041628853
 10
115.49517820991055
 20
-254.0367017381203
 10
115.07190966381562
 20
-254.27142623570919
 10
114.64823822155084
 20
-254.50542273315085
 10
114.22416488856462
 20
-254.73869009045706
 10
113.79969064153138
 20
-254.97122710958485
 10
113.37481649557618
 20
-255.20303265671072
 10
112.94954343879503
 20
-255.43410554278927
 10
112.52387247944625
 20
-255.6644446098025
 10
112.09780462261045
 20
-255.89404868799525
 10
111.67134090436333
 20
-256.12291665937977
 10
111.24448257769329
 20
-256.3510478064754
 10
110.81723093616444
 20
-256.5784414874442
 10
110.38958730861901
 20
-256.80509712748045
 10
109.96155299300749
 20
-257.0310140945532
 10
109.53312930659047
 20
-257.2561917938846
 10
109.10431755798177
 20
-257.48062961517815
 10
108.67511905217862
 20
-257.7043269419299
 10
108.24553510863792
 20
-257.9272831861684
 10
107.81556702028658
 20
-258.1494977095483
 10
107.38521611255068
 20
-258.3709699371921
 10
106.95448368077089
 20
-258.59169923662677
 10
106.5233710410915
 20
-258.81168501645976
 10
106.09187949877341
 20
-259.0309266647348
 10
105.66001035809792
 20
-259.2494235680707
 10
105.22776493506119
 20
-259.4671751368587
 10
104.7951445222779
 20
-259.6841807356228
 10
104.36215044149118
 20
-259.9004397873592
 10
103.9287839524983
 20
-260.115951591347
 10
103.49504629502945
 20
-260.3307154055951
 10
103.06093869380963
 20
-260.5447304563796
 10
102.62646237592004
 20
-260.75799597297913
 10
102.19161857842579
 20
-260.97051120335385
 10
101.75640851886561
 20
-261.18227535375866
 10
101.32083344319173
 20
-261.3932876869727
 10
100.88489456969377
 20
-261.6035474070076
 10
100.44859314103712
 20
-261.8130537663919
 10
100.01193038582225
 20
-262.0218059866398
 10
99.57490753742007
 20
-262.2298032971994
 10
99.13752583672556
 20
-262.43704494143105
 10
98.6997865080202
 20
-262.6435301256124
 10
98.26169080169795
 20
-262.84925810927194
 10
97.82323994127711
 20
-263.0542280927603
 10
97.38443517591313
 20
-263.25843932898596
 10
96.94527773886472
 20
-263.4618910347281
 10
96.5057688656796
 20
-263.6645824293228
 10
96.0659097640221
 20
-263.8665126690121
 10
95.62570161398175
 20
-264.06768084643085
 10
95.18514562003844
 20
-264.26808610366146
 10
94.74424296109152
 20
-264.46772752274876
 10
94.30299484332298
 20
-264.66660424184647
 10
93.86140245588395
 20
-264.86471535750223
 10
93.41946699758896
 20
-265.06205998358666
 10
92.9771896708697
 20
-265.25863723804565
 10
92.53457166739045
 20
-265.45444621038837
 10
92.09161420126524
 20
-265.6494860366112
 10
91.64831846182031
 20
-265.8437557922426
 10
91.20468566671826
 20
-266.0372546129679
 10
90.7607170151123
 20
-266.2299815878763
 10
90.31641371780321
 20
-266.4219358282984
 10
89.87177698724349
 20
-266.61311644501575
 10
89.42680802759294
 20
-266.80352252493117
 10
88.98150806355311
 20
-266.9931531983511
 10
88.53587832703305
 20
-267.1820076083779
 10
88.0899201805142
 20
-267.37008520356943
 10
87.64363498561175
 20
-267.55738543068543
 10
87.1970241155021
 20
-267.7439077643856
 10
86.7500889412054
 20
-267.9296516747935
 10
86.30283082585527
 20
-268.1146166134546
 10
85.8552511492816
 20
-268.2988020727243
 10
85.40735126622992
 20
-268.4822074844607
 10
84.95913255952182
 20
-268.6648323492731
 10
84.51059638897871
 20
-268.84667611191077
 10
84.0617441276086
 20
-269.02773824974815
 10
83.61257714453427
 20
-269.2080182309348
 10
83.16309680315999
 20
-269.3875155095189
 10
82.71330448178173
 20
-269.56622957705844
 10
82.2632015344546
 20
-269.744159864295
 10
81.8127893439033
 20
-269.9213058744328
 10
81.36206926882613
 20
-270.0976670499476
 10
80.91104268252477
 20
-270.27324287047304
 10
80.45971093803082
 20
-270.44803276349944
 10
80.00807534993747
 20
-270.62203605610097
 10
79.55613724125993
 20
-270.7952520951266
 10
79.10389791401069
 20
-270.9676801703258
 10
78.65135869761407
 20
-271.1393196407983
 10
78.198520898978
 20
-271.3101698041144
 10
77.74538584134754
 20
-271.4802299984523
 10
77.29195484181398
 20
-271.6494995432385
 10
76.83822921641026
 20
-271.81797775238147
 10
76.38421029273177
 20
-271.98566396834696
 10
75.92989937981991
 20
-272.1525574807037
 10
75.47529781216642
 20
-272.3186576454106
 10
75.02040690257736
 20
-272.48396375654164
 10
74.5652279810653
 20
-272.6484751524557
 10
74.10976237016396
 20
-272.81219114811995
 10
73.65401139316073
 20
-272.97511105752886
 10
73.19797638304216
 20
-273.1372342188723
 10
72.74165865665033
 20
-273.29855992187896
 10
72.2850595668444
 20
-273.4590875551415
 10
71.82818047312188
 20
-273.61881652422045
 10
71.37102275605827
 20
-273.7777462934876
 10
70.9135877868534
 20
-273.9358762994022
 10
70.45587693845302
 20
-274.0932059821241
 10
69.99789159106318
 20
-274.2497348017642
 10
69.5396331102195
 20
-274.4054621741949
 10
69.0811028825074
 20
-274.56038757576175
 10
68.6223022738353
 20
-274.7145104204246
 10
68.16323266803867
 20
-274.86783017382317
 10
67.70389543852063
 20
-275.02034626909216
 10
67.24429196196128
 20
-275.1720581475217
 10
66.78442362069354
 20
-275.3229652660137
 10
66.32429178446493
 20
-275.47306704143824
 10
65.86389784235483
 20
-275.622362948115
 10
65.40324316362573
 20
-275.7708523976825
 10
64.94232913600554
 20
-275.91853485700574
 10
64.48115713586657
 20
-276.06540975589246
 10
64.01972854226693
 20
-276.2114765304267
 10
63.558044732684024
 20
-276.3567346096052
 10
63.09610707302984
 20
-276.5011833831163
 10
62.633916947054665
 20
-276.644822294996
 10
62.17147571967782
 20
-276.78765072618404
 10
61.70878477484815
 20
-276.92966811624535
 10
61.24584548450033
 20
-277.07087386308103
 10
60.78265922664306
 20
-277.2112673814298
 10
60.31922738224803
 20
-277.35084809300145
 10
59.8555513236102
 20
-277.4896153876489
 10
59.39163243935157
 20
-277.62756870665004
 10
58.92747210012784
 20
-277.76470742788837
 10
58.46307169598221
 20
-277.90103099141265
 10
57.9984326042823
 20
-278.0365387911281
 10
57.53355620963072
 20
-278.1712302421817
 10
57.06844389836679
 20
-278.30510476246025
 10
56.603097049880006
 20
-278.4381617421528
 10
56.13751705845229
 20
-278.57040061994235
 10
55.67170530592207
 20
-278.70182078735746
 10
55.205663219312484
 20
-278.83242179308036
 10
54.73939222059735
 20
-278.9622031667029
 10
54.27289373927947
 20
-279.0911644636092
 10
53.806169204726416
 20
-279.2193052378137
 10
53.33922004020501
 20
-279.3466250198998
 10
52.87204768175215
 20
-279.47312338609385
 10
52.40465354843445
 20
-279.598799848821
 10
51.93703907836267
 20
-279.7236539897571
 10
51.46920569525415
 20
-279.8476853356757
 10
51.00115483124454
 20
-279.9708934433963
 10
50.532887917347125
 20
-280.09327786417725
 10
50.06440637995175
 20
-280.2148381299233
 10
49.59571165694411
 20
-280.3355738152271
 10
49.12680517012528
 20
-280.4554844306397
 10
48.657688360390104
 20
-280.5745695593368
 10
48.18836265395301
 20
-280.6928287252364
 10
47.71882948622662
 20
-280.8102614865558
 10
47.24909029064256
 20
-280.92686739184404
 10
46.779146497548446
 20
-281.04264597506983
 10
46.308999547736924
 20
-281.15759681053936
 10
45.838650866788036
 20
-281.27171940824843
 10
45.368101899316656
 20
-281.3850133541177
 10
44.89735407506876
 20
-281.497478170445
 10
44.42640883363217
 20
-281.6091134179936
 10
43.95526761183185
 20
-281.7199186436587
 10
43.48393184445951
 20
-281.8298933829966
 10
43.01240297530686
 20
-281.9390372075617
 10
42.54068243460382
 20
-282.04734962765514
 10
42.068771670347616
 20
-282.15483022788436
 10
41.596672116378016
 20
-282.26147852825744
 10
41.12438521674185
 20
-282.3672940906358
 10
40.651912412082034
 20
-282.47227645892224
 10
40.17925514215402
 20
-282.5764251697061
 10
39.70641485448173
 20
-282.679739791679
 10
39.23339298476279
 20
-282.7822198361132
 10
38.760190985009174
 20
-282.88386488589714
 10
38.28681029845446
 20
-282.9846744801957
 10
37.81325239026927
 20
-283.0846482582024
 10
37.33951872312442
 20
-283.18378584593626
 10
36.86561075937584
 20
-283.28208686613823
 10
36.391529967557055
 20
-283.3795509697898
 10
35.91727780553902
 20
-283.4761777542932
 10
35.442855745642454
 20
-283.5719668858941
 10
34.96826524736498
 20
-283.66691796584877
 10
34.49350778032456
 20
-283.7610306436087
 10
34.0185848093218
 20
-283.8543045425891
 10
33.54349779976099
 20
-283.94673928686944
 10
33.0682482222102
 20
-284.0383345249184
 10
32.5928375380938
 20
-284.1290898554012
 10
32.11726722197509
 20
-284.2190049430943
 10
31.64153873649969
 20
-284.3080793875956
 10
31.16565355449457
 20
-284.3963128397939
 10
30.68961314365959
 20
-284.48370492055403
 10
30.213418973114294
 20
-284.57025525532885
 10
29.73707251654576
 20
-284.6559634918999
 10
29.26057524408961
 20
-284.7408292555136
 10
28.783928640603254
 20
-284.8248522515684
 10
28.30713417976636
 20
-284.908032120454
 10
27.83019334518467
 20
-284.9903685569017
 10
27.35310761489982
 20
-285.0718612216579
 10
26.87587846884704
 20
-285.15250978392373
 10
26.39850739017553
 20
-285.2323139296686
 10
25.92099585538716
 20
-285.3112733025262
 10
25.443345351492386
 20
-285.38938760681737
 10
24.965557355173875
 20
-285.4666564813259
 10
24.487633352935248
 20
-285.5430796222038
 10
24.009574825622533
 20
-285.61865668771
 10
23.531383256581943
 20
-285.693387348414
 10
23.0530601316674
 20
-285.7672712878915
 10
22.574606931303396
 20
-285.840308151098
 10
22.096025145336142
 20
-285.91249764099183
 10
21.617316254197252
 20
-285.983839394834
 10
21.138481747964146
 20
-286.0543331102828
 10
20.659523113046617
 20
-286.12397845691436
 10
20.180441846015984
 20
-286.19277517080207
 10
19.701239446641875
 20
-286.2607230088378
 10
19.22191740997406
 20
-286.32782169300776
 10
18.742477239057948
 20
-286.3940710006213
 10
18.262920428036836
 20
-286.4594706431597
 10
17.783248480028764
 20
-286.5240203954729
 10
17.30346289219748
 20
-286.58771998678617
 10
16.8235651647076
 20
-286.65056916628333
 10
16.343556798710022
 20
-286.71256768869324
 10
15.863439291654359
 20
-286.773715277504
 10
15.383214148040834
 20
-286.8340117088467
 10
14.90288286438996
 20
-286.89345669289605
 10
14.422446945860358
 20
-286.95205000612174
 10
13.941907891865055
 20
-287.0097913755642
 10
13.461267205122324
 20
-287.0666805519842
 10
12.980526388927677
 20
-287.12271728800033
 10
12.499686943798142
 20
-287.17790130863887
 10
12.018750376458557
 20
-287.23223238917615
 10
11.537718188100419
 20
-287.2857102525633
 10
11.05659189028246
 20
-287.3383347111846
 10
10.575372989112788
 20
-287.3901055258222
 10
10.094062994015646
 20
-287.44102248468573
 10
9.612663414485649
 20
-287.49108537416646
 10
9.131175757868938
 20
-287.54029395665384
 10
8.649601536691982
 20
-287.58864804186106
 10
8.167942257157367
 20
-287.6361473732952
 10
7.686199433011565
 20
-287.68279176650475
 10
7.204374572773215
 20
-287.7285809800957
 10
6.722469188388021
 20
-287.77351480379076
 10
6.240484791655597
 20
-287.81759302187794
 10
5.758422892961807
 20
-287.8608153982351
 10
5.276285007140291
 20
-287.9031817414482
 10
4.794072643628502
 20
-287.9446917937951
 10
4.311787318852572
 20
-287.9853453724512
 10
3.829430544509504
 20
-288.0251422339527
 10
3.3470038357418876
 20
-288.064082169636
 10
2.864508707642124
 20
-288.10216496462243
 10
2.3819466776617526
 20
-288.1393904280778
 10
1.8993192691300962
 20
-288.1757584420884
 10
1.4166280005688496
 20
-288.2112688230929
 10
0.9338743964522044
 20
-288.24592146523065
 10
0.45105997671519954
 20
-288.2797161983312
 10
-0.03181373574218698
 20
-288.31265289064015
 10
-0.5147452187278194
 20
-288.34473139779055
 10
-0.9977329506745457
 20
-288.375951562118
 10
-1.4807754072584305
 20
-288.4063132650818
 10
-1.9638710680030689
 20
-288.435816323093
 10
-2.447018407313016
 20
-288.4644606308726
 10
-2.930215903354101
 20
-288.4922460166588
 10
-3.413462031519834
 20
-288.5191723503289
 10
-3.8967552678517907
 20
-288.54523948562115
 10
-4.380094088555522
 20
-288.5704472664898
 10
-4.863476967650865
 20
-288.5947955725556
 10
-5.346902381914222
 20
-288.6182842218396
 10
-5.830368804006954
 20
-288.64091310814587
 10
-6.313874709229591
 20
-288.66268206297485
 10
-6.797418569075207
 20
-288.68359099355195
 10
-7.280998855137643
 20
-288.7036398015542
 10
-7.764614039068719
 20
-288.7228283824149
 10
-8.248262591083472
 20
-288.7411566637773
 10
-8.731942983417062
 20
-288.75862451509425
 10
-9.215653685398143
 20
-288.7752318790526
 10
-9.69939316851226
 20
-288.7909786317334
 10
-10.183159902403034
 20
-288.80586469615986
 10
-10.666952357243067
 20
-288.8198899722332
 10
-11.150769002981614
 20
-288.8330543569995
 10
-11.634608308526207
 20
-288.8453577763028
 10
-12.118468743888446
 20
-288.8568001012074
 10
-12.602348777047085
 20
-288.86738127349906
 10
-13.086246877202123
 20
-288.8771011683227
 10
-13.57016151214126
 20
-288.88595971039217
 10
-14.054091149858053
 20
-288.89395679786446
 10
-14.538034257924416
 20
-288.9010923294868
 10
-15.021989303181858
 20
-288.9073662294173
 10
-15.505954752653503
 20
-288.9127783787536
 10
-15.989929071810746
 20
-288.91732876710824
 10
-16.473910726569567
 20
-288.9210173295889
 10
-16.95789818225524
 20
-288.92384405344586
 10
-17.4418899043144
 20
-288.9258088959358
 10
-17.925884357984792
 20
-288.9269118182832
 10
-18.40988000832384
 20
-288.927152803723
 10
-18.893875320237118
 20
-288.9265317874541
 10
-19.377868758486844
 20
-288.92504877036356
 10
-19.86185878750236
 20
-288.92270368663594
 10
-20.345843871682785
 20
-288.9194965251433
 10
-20.8298224750525
 20
-288.9154272414031
 10
-21.31379306139984
 20
-288.9104957982751
 10
-21.797754094473014
 20
-288.9047021772903
 10
-22.281704037204783
 20
-288.8980463153009
 10
-22.765641353071576
 20
-288.89052821236487
 10
-23.249564504276304
 20
-288.88214780183665
 10
-23.733471953617197
 20
-288.8729050743043
 10
-24.2173621629375
 20
-288.862799983661
 10
-24.70123359420126
 20
-288.85183250752397
 10
-25.18508471063787
 20
-288.8400026869976
 10
-25.668913974692778
 20
-288.8273105329772
 10
-26.152719850367937
 20
-288.81375611705266
 10
-26.636500799837737
 20
-288.79933944410215
 10
-27.120255286944605
 20
-288.7840605787185
 10
-27.603981774300262
 20
-288.7679195454589
 10
-28.08767872486194
 20
-288.7509163828979
 10
-28.57134460196593
 20
-288.7330511416145
 10
-29.054977867440446
 20
-288.7143238341735
 10
-29.538576985232297
 20
-288.69473453133736
 10
-30.022140416520795
 20
-288.67428323718934
 10
-30.505666624901288
 20
-288.65297001799246
 10
-30.989154071994694
 20
-288.6307948966984
 10
-31.472601219987467
 20
-288.607757913577
 10
-31.956006531340627
 20
-288.58385911762156
 10
-32.43936846658755
 20
-288.5590985231208
 10
-32.92268548888622
 20
-288.533476200095
 10
-33.405956057685735
 20
-288.50699215192674
 10
-33.88917863557211
 20
-288.47964644505595
 10
-34.37235168203091
 20
-288.4514390943636
 10
-34.85547365731909
 20
-288.42237013429207
 10
-35.338543021739376
 20
-288.3924396047434
 10
-35.82155823328785
 20
-288.361647514156
 10
-36.30451775298689
 20
-288.3299939242463
 10
-36.78742003716589
 20
-288.2974788301094
 10
-37.27026354620873
 20
-288.264102293857
 10
-37.75304673675225
 20
-288.2298643278478
 10
-38.23576806663985
 20
-288.1947649682323
 10
-38.71842599349623
 20
-288.15880425344074
 10
-39.2010189723797
 20
-288.1219821936845
 10
-39.68354546176222
 20
-288.0842988500687
 10
-40.16600391448187
 20
-288.0457542171296
 10
-40.64839278836214
 20
-288.006348358835
 10
-41.13071053649621
 20
-287.9660812862529
 10
-41.612955613644786
 20
-287.92495303746546
 10
-42.09512647400969
 20
-287.88296364968454
 10
-42.57722156904587
 20
-287.8401131351362
 10
-43.059239355455986
 20
-287.79640157107036
 10
-43.5411782883881
 20
-287.7518290215669
 10
-44.02303683034529
 20
-287.7063956331946
 10
-44.504813438467394
 20
-287.6601014964256
 10
-44.98650657252396
 20
-287.61294673179486
 10
-45.468114691735195
 20
-287.56493145576525
 10
-45.94963625289102
 20
-287.51605576286136
 10
-46.43106971722655
 20
-287.46631979368874
 10
-46.91241353888555
 20
-287.4157236223371
 10
-47.39366617945318
 20
-287.3642673968645
 10
-47.87482609401818
 20
-287.3119512062309
 10
-48.3558917409056
 20
-287.25877517252945
 10
-48.83686157740116
 20
-287.2047394107416
 10
-49.31773405832418
 20
-287.14984401702645
 10
-49.798507643157436
 20
-287.09408913131017
 10
-50.27918078335049
 20
-287.03747482709207
 10
-50.759751938892066
 20
-286.9800012541072
 10
-51.2402195620676
 20
-286.9216685000047
 10
-51.7205821090831
 20
-286.8624766886469
 10
-52.200838038301725
 20
-286.80242596373563
 10
-52.6809858205843
 20
-286.7415165696058
 10
-53.161023936017756
 20
-286.67974882014755
 10
-53.64095085665405
 20
-286.6171229628408
 10
-54.12076506517883
 20
-286.55363932352924
 10
-54.600465036226765
 20
-286.4892981628886
 10
-55.0800492500522
 20
-286.4240997807472
 10
-55.55951618559123
 20
-286.35804446359873
 10
-56.03886432042212
 20
-286.29113248528256
 10
-56.518092137905924
 20
-286.22336415806984
 10
-56.99719811269972
 20
-286.1547397298372
 10
-57.476180730893994
 20
-286.08525952613724
 10
-57.95503846943619
 20
-286.0149238062849
 10
-58.43376981165622
 20
-285.94373287125245
 10
-58.912373238840814
 20
-285.8716870056321
 10
-59.390847231115096
 20
-285.79878648444446
 10
-59.869190274295555
 20
-285.72503161799034
 10
-60.3474008450575
 20
-285.6504226553698
 10
-60.82547743201747
 20
-285.57495992088775
 10
-61.30341851212985
 20
-285.49864366286295
 10
-61.78122256192265
 20
-285.42147412682823
 10
-62.258888052551015
 20
-285.3434515252856
 10
-62.73641345390077
 20
-285.2645760642876
 10
-63.213797241014085
 20
-285.18484798214354
 10
-63.691037879053994
 20
-285.1042674591974
 10
-64.16813384520867
 20
-285.02283474866704
 10
-64.64508360528254
 20
-284.94055003790186
 10
-65.12188563270571
 20
-284.85741356038
 10
-65.59853839682678
 20
-284.77342552729914
 10
-66.07504036607814
 20
-284.6885861464959
 10
-66.55139001381261
 20
-284.6028956549907
 10
-67.02758580322401
 20
-284.5163542350268
 10
-67.5036262099352
 20
-284.4289621393362
 10
-67.97950969725144
 20
-284.3407195549307
 10
-68.45523473701226
 20
-284.2516267172062
 10
-68.93079979602484
 20
-284.16168383628604
 10
-69.40620334061752
 20
-284.07089112205034
 10
-69.88144384172395
 20
-283.97924881047504
 10
-70.35651976226538
 20
-283.8867570979876
 10
-70.83142959139151
 20
-283.7934163172021
 10
-71.306171810179
 20
-283.6992267590597
 10
-71.78074490976805
 20
-283.60418876503644
 10
-72.255147375791
 20
-283.5083026482214
 10
-72.72937769447137
 20
-283.4115687244384
 10
-73.20343435679732
 20
-283.31398733237717
 10
-73.67731584383444
 20
-283.21555876225466
 10
-74.15102065025455
 20
-283.11628336980385
 10
-74.62454725711186
 20
-283.016161445274
 10
-75.09789415652739
 20
-282.91519333157873
 10
-75.57105983401642
 20
-282.81337934031046
 10
-76.04404277626446
 20
-282.71071978882543
 10
-76.51684147425522
 20
-282.6072150142978
 10
-76.98945440899705
 20
-282.50286530857556
 10
-77.4618800753313
 20
-282.3976710266254
 10
-77.93411695355933
 20
-282.2916324581396
 10
-78.40616353610584
 20
-282.18474994757486
 10
-78.8780183076318
 20
-282.0770238052257
 10
-79.34967975303489
 20
-281.96845434327616
 10
-79.82114634899318
 20
-281.8590418392767
 10
-80.29241655639366
 20
-281.748786505006
 10
-80.76348884966525
 20
-281.63768861297706
 10
-81.23436168731621
 20
-281.52574837067294
 10
-81.70503354062936
 20
-281.4129660424394
 10
-82.17550287145728
 20
-281.2993418557647
 10
-82.64576814370662
 20
-281.1848760497673
 10
-83.11582782403568
 20
-281.06956887765705
 10
-83.58568036873636
 20
-280.9534205533933
 10
-84.0553242478287
 20
-280.83643134960744
 10
-84.524757914483
 20
-280.71860147409456
 10
-84.99397983581174
 20
-280.5999311936008
 10
-85.4629884682133
 20
-280.48042073530917
 10
-85.93178227092271
 20
-280.3600703409342
 10
-86.40035970528031
 20
-280.23888026346276
 10
-86.86871922240451
 20
-280.11685071965206
 10
-87.33685928724509
 20
-279.99398198273224
 10
-87.80477834697187
 20
-279.8702742612932
 10
-88.27247486791323
 20
-279.74572783990703
 10
-88.73994735409462
 20
-279.62034314598566
 10
-89.20719434816026
 20
-279.4941207495367
 10
-89.67421439651848
 20
-279.367061230854
 10
-90.14100603735355
 20
-279.23916513659725
 10
-90.60756782445094
 20
-279.11043306706915
 10
-91.07389829466516
 20
-278.98086555772306
 10
-91.53999600303914
 20
-278.8504632065365
 10
-92.00585949285906
 20
-278.71922656598036
 10
-92.47148731377992
 20
-278.58715620831197
 10
-92.93687801776277
 20
-278.45425271075675
 10
-93.4020301488343
 20
-278.320516619906
 10
-93.86694226654998
 20
-278.1859485335701
 10
-94.33161291262981
 20
-278.0505489850065
 10
-94.79604064824929
 20
-277.9143185717996
 10
-95.26022402133232
 20
-277.7772578433965
 10
-95.72416158713126
 20
-277.6393673717401
 10
-96.1878519023159
 20
-277.50064773088195
 10
-96.65129351597655
 20
-277.361099467186
 10
-97.11448499203681
 20
-277.22072317397124
 10
-97.57742486298999
 20
-277.0795193387545
 10
-98.04011166948584
 20
-276.9374884748815
 10
-98.50254393642285
 20
-276.79463104350737
 10
-98.96472019664971
 20
-276.65094753127653
 10
-99.42663898303722
 20
-276.5064384243212
 10
-99.88829882090603
 20
-276.3611041843404
 10
-100.34969825038704
 20
-276.2149453197735
 10
-100.81083579153966
 20
-276.067962275312
 10
-101.2717099861977
 20
-275.9201555639819
 10
-101.7323193592898
 20
-275.77152564559776
 10
-102.19266244485546
 20
-275.62207300832193
 10
-102.65273777590157
 20
-275.47179813689263
 10
-103.11254387844066
 20
-275.320701494682
 10
-103.5720792930581
 20
-275.16878358943427
 10
-104.03134253937183
 20
-275.01604486543965
 10
-104.4903321602593
 20
-274.86248583726945
 10
-104.94904667995944
 20
-274.70810696361053
 10
-105.4074846330536
 20
-274.55290873432443
 10
-105.8656445513891
 20
-274.3968916312847
 10
-106.32352493924763
 20
-274.24005605623495
 10
-106.78112428817413
 20
-274.0824023755718
 10
-107.23844106535974
 20
-273.9239308877757
 10
-107.69547376196077
 20
-273.76464196365873
 10
-108.15222084789562
 20
-273.60453591576
 10
-108.60868080388691
 20
-273.44361309068705
 10
-109.06485210654895
 20
-273.2818738262618
 10
-109.52073322593952
 20
-273.11931844498145
 10
-109.97632264533154
 20
-272.9559473094856
 10
-110.43161882440673
 20
-272.79176071969727
 10
-110.8866202484112
 20
-272.6267590498062
 10
-111.34132537952071
 20
-272.4609426132633
 10
-111.79573269207178
 20
-272.29431176032267
 10
-112.24984065509337
 20
-272.12686682983866
 10
-112.70364773178534
 20
-271.9586081482318
 10
-113.1571523981704
 20
-271.7895360797747
 10
-113.61035310608482
 20
-271.61965092715764
 10
-114.06324833412734
 20
-271.44895306802147
 10
-114.51583653665105
 20
-271.27744281875624
 10
-114.9681162300517
 20
-271.10512066227585
 10
-115.42008601752582
 20
-270.93198730928214
 10
-115.87174450969734
 20
-270.7580434873621
 10
-116.32309033146257
 20
-270.5832899582369
 10
-116.7741220858721
 20
-270.40772742434154
 10
-117.22483840489086
 20
-270.23135665979606
 10
-117.67523789706186
 20
-270.0541783758663
 10
-118.12531918777506
 20
-269.8761933241997
 10
-118.575080896573
 20
-269.69740223886913
 10
-119.0245216409759
 20
-269.5178058463981
 10
-119.47364005197927
 20
-269.33740490447934
 10
-119.92243473899444
 20
-269.15620011459083
 10
-120.37090434027068
 20
-268.97419224738894
 10
-120.81904746976629
 20
-268.7913820110705
 10
-121.26686275947078
 20
-268.6077701559436
 10
-121.7143488341088
 20
-268.42335741216783
 10
-122.16150431726896
 20
-268.2381445050534
 10
-122.60832784517372
 20
-268.0521321882057
 10
-123.05481803277385
 20
-267.865321162014
 10
-123.50097351636397
 20
-267.677712176082
 10
-123.94679288449267
 20
-267.4893058647488
 10
-124.39227474037476
 20
-267.3001028963977
 10
-124.83741767808475
 20
-267.11010391700455
 10
-125.28222029116658
 20
-266.91930957074896
 10
-125.72668118449248
 20
-266.7277205275275
 10
-126.17079894171344
 20
-266.53533740741244
 10
-126.61457217465032
 20
-266.34216089508357
 10
-127.05799946871115
 20
-266.14819161381547
 10
-127.50107942956099
 20
-265.9534302329217
 10
-127.94381065212487
 20
-265.7578773966629
 10
-128.38619173191344
 20
-265.56153375034734
 10
-128.82822127474017
 20
-265.36439996207304
 10
-129.2698978657365
 20
-265.16647665323904
 10
-129.7112201179659
 20
-264.96776450740356
 10
-130.15218661721653
 20
-264.76826414710956
 10
-130.5927959709592
 20
-264.5679762428038
 10
-131.03304677425174
 20
-264.3669014372675
 10
-131.472937623922
 20
-264.1650403771394
 10
-131.91246711514265
 20
-263.9623937054135
 10
-132.35163377727625
 20
-263.75896192308613
 10
-132.790436154728
 20
-263.55474556549655
 10
-133.22887276293935
 20
-263.3497451076394
 10
-133.66694213966332
 20
-263.1439610745089
 10
-134.1046428077056
 20
-262.9373939612327
 10
-134.5419732920344
 20
-262.7300442697901
 10
-134.97893212493096
 20
-262.5219125196969
 10
-135.41551781835886
 20
-262.3129991900348
 10
-135.85172891088345
 20
-262.10330481779636
 10
-136.28756391122803
 20
-261.8928298800046
 10
-136.7230213519662
 20
-261.681574905534
 10
-137.15809974898175
 20
-261.46954039098887
 10
-137.59279762161785
 20
-261.2567268425397
 10
-138.0271134953964
 20
-261.0431347812715
 10
-138.46104587621522
 20
-260.82876469077337
 10
-138.89459329629003
 20
-260.61361711039854
 10
-139.3277542571182
 20
-260.3976925199043
 10
-139.76052728566282
 20
-260.18099145277387
 10
-140.1929109072149
 20
-259.9635144412627
 10
-140.62490376271052
 20
-259.745262248731
 10
-141.05650454400478
 20
-259.5262357381017
 10
-141.48771192605662
 20
-259.30643573705805
 10
-141.9185246115643
 20
-259.08586312583
 10
-142.348941273482
 20
-258.864518724533
 10
-142.77896061362674
 20
-258.6424034077227
 10
-143.20858131521206
 20
-258.4195180119377
 10
-143.637802069518
 20
-258.19586338762315
 10
-144.06662157325192
 20
-257.9714403938213
 10
-144.49503850692943
 20
-257.7462498569704
 10
-144.92305157829506
 20
-257.5202926537001
 10
-145.35065946452343
 20
-257.29356960099886
 10
-145.77786087320456
 20
-257.06608157180506
 10
-146.20465449139917
 20
-256.8378293987692
 10
-146.63103901565216
 20
-256.60881393090636
 10
-147.05701314655727
 20
-256.379036023211
 10
-147.48257556939166
 20
-256.1484965008872
 10
-147.90772499611535
 20
-255.91719623703622
 10
-148.3324601068307
 20
-255.68513604475135
 10
-148.7567796086707
 20
-255.45231678548203
 10
-149.18068218312916
 20
-255.21873927262664
 10
-149.60416652264433
 20
-254.98440433852608
 10
-150.0272313222144
 20
-254.74931281903702
 10
-150.44987526250753
 20
-254.51346552328005
 10
-150.87209705023812
 20
-254.2768633061257
 10
-151.29389535987855
 20
-254.0395069639035
 10
-151.7152688996491
 20
-253.8013973521761
 10
-152.1362163530963
 20
-253.5625352817986
 10
-152.55673641641235
 20
-253.32292158522569
 10
-152.97682778675667
 20
-253.08255709572657
 10
-153.39648914807805
 20
-252.8414426227622
 10
-153.81571920966675
 20
-252.59957901919444
 10
-154.23451664776357
 20
-252.35696707982626
 10
-154.65288017413778
 20
-252.11360766027525
 10
-155.07080847369565
 20
-251.86950156915393
 10
-155.48830024570347
 20
-251.62464963919382
 10
-155.90535418876124
 20
-251.37905270132626
 10
-156.32196898470562
 20
-251.13271155756337
 10
-156.7381432654036
 20
-250.88562692556863
 10
-157.1538755684877
 20
-250.63779936571717
 10
-157.56916446594926
 20
-250.38922949856496
 10
-157.984008499394
 20
-250.13991789615966
 10
-158.39840622519628
 20
-249.88986515773956
 10
-158.81235619613827
 20
-249.63907187898877
 10
-159.22585695277064
 20
-249.38753863797078
 10
-159.6389070583106
 20
-249.1352660525522
 10
-160.05150503994724
 20
-248.88225468412455
 10
-160.46364946281395
 20
-248.62850515868095
 10
-160.87533885941792
 20
-248.3740180516366
 10
-161.28657177887513
 20
-248.11879396805224
 10
-161.697346765068
 20
-247.86283350710116
 10
-162.1076623508978
 20
-247.60613725306197
 10
-162.5175170912582
 20
-247.34870582805365
 10
-162.9269095041675
 20
-247.09053979815968
 10
-163.3358381476268
 20
-246.8316397957399
 10
-163.744301544652
 20
-246.57200640045608
 10
-164.15229824124935
 20
-246.31164023102508
 10
-164.5598269106988
 20
-246.05054210726937
 10
-164.96688637366952
 20
-245.78871307851972
 10
-165.3734754832102
 20
-245.52615424180533
 10
-165.77959305723087
 20
-245.26286663699793
 10
-166.1852379581531
 20
-244.9988513700846
 10
-166.5904090135283
 20
-244.7341094906373
 10
-166.99510507397034
 20
-244.46864208106507
 10
-167.39932498372244
 20
-244.2024502113877
 10
-167.80306758136808
 20
-243.9355349405532
 10
-168.2063317279071
 20
-243.66789735889517
 10
-168.6091162496701
 20
-243.39953850201815
 10
-169.01142001749773
 20
-243.13045947002252
 10
-169.41324186618573
 20
-242.86066130653506
 10
-169.8145806551617
 20
-242.59014508964782
 10
-170.2154352355818
 20
-242.31891188273943
 10
-170.61580445432122
 20
-242.04696274063275
 10
-171.01568717926264
 20
-241.77429874678958
 10
-171.41508224451294
 20
-241.50092093289103
 10
-171.81398852741995
 20
-241.22683039171267
 10
-172.2124048206488
 20
-240.95202809077156
 10
-172.61032986222318
 20
-240.67651491759224
 10
-173.00776237133476
 20
-240.40029173245267
 10
-173.40470106338407
 20
-240.12335939043237
 10
-173.80114467235504
 20
-239.8457187734308
 10
-174.19709189847453
 20
-239.56737071536773
 10
-174.59254148426024
 20
-239.28831611068767
 10
-174.98749213366432
 20
-239.008555799308
 10
-175.38194257750828
 20
-238.72809065953038
 10
-175.7758915333646
 20
-238.44692155124065
 10
-176.169337716665
 20
-238.165049331761
 10
-176.56227985987985
 20
-237.88247488253933
 10
-176.95471666285442
 20
-237.59919904006316
 10
-177.3466468670483
 20
-237.3152226989895
 10
-177.73806917458143
 20
-237.03054669998625
 10
-178.1289823162404
 20
-236.74517192375276
 10
-178.51938500740602
 20
-236.45909923026926
 10
-178.90927596306088
 20
-236.17232947957365
 10
-179.2986539135279
 20
-235.8848635530702
 10
-179.6875175445175
 20
-235.59670227238342
 10
-180.07586555495058
 20
-235.30784647797626
 10
-180.46369659981278
 20
-235.0182969523487
 10
-180.85100936415117
 20
-234.7280545197078
 10
-181.23780251504755
 20
-234.43711998149266
 10
-181.62407472050216
 20
-234.14549414180243
 10
-182.0098246619557
 20
-233.8531778238653
 10
-182.39505099016992
 20
-233.56017181182747
 10
-182.77975239574616
 20
-233.26647694370413
 10
-183.16392752799996
 20
-232.97209400474648
 10
-183.54757506814312
 20
-232.6770238234245
 10
-183.93069367727176
 20
-232.38126720341342
 10
-184.31328201917094
 20
-232.08482495346007
 10
-184.6953387694631
 20
-231.78769789907273
 10
-185.07686257431862
 20
-231.48988682944187
 10
-185.4578521190594
 20
-231.19139258554952
 10
-185.83830604693637
 20
-230.8922159561548
 10
-186.21822303502285
 20
-230.59235777476712
 10
-186.59760173806487
 20
-230.29181884811157
 10
-186.97644088022102
 20
-229.9906000719076
 10
-187.35473939112597
 20
-229.68870260014094
 10
-187.73249621061572
 20
-229.3861275975694
 10
-188.10971031886373
 20
-229.08287627699684
 10
-188.48638065526777
 20
-228.77894979805254
 10
-188.86250619699382
 20
-228.47434936498172
 10
-189.2380858984862
 20
-228.1690761515613
 10
-189.6131187227418
 20
-227.86313133991652
 10
-189.9876036429544
 20
-227.55651612239407
 10
-190.3615396077419
 20
-227.24923165913978
 10
-190.73492560497561
 20
-226.94127915594186
 10
-191.10776058105446
 20
-226.6326597660691
 10
-191.48004352195582
 20
-226.32337468861056
 10
-191.8517733885394
 20
-226.0134250902045
 10
-192.22294915211288
 20
-225.70281214805433
 10
-192.59356979223602
 20
-225.3915370471413
 10
-192.9636342653412
 20
-225.07960094292744
 10
-193.3331415660405
 20
-224.76700503423513
 10
-193.70209064678687
 20
-224.45375046802315
 10
-194.07048046131015
 20
-224.13983839117296
 10
-194.43830976989705
 20
-223.8252697227366
 10
-194.8055773011192
 20
-223.51004534566354
 10
-195.17228178836487
 20
-223.1941661497576
 10
-195.53842194184054
 20
-222.87763299926615
 10
-195.90399650743512
 20
-222.56044680108744
 10
-196.26900418661694
 20
-222.2426084122189
 10
-196.63344372274815
 20
-221.92411873926804
 10
-196.99731382770582
 20
-221.6049786540906
 10
-197.36061322632156
 20
-221.2851890448388
 10
-197.72334064628552
 20
-220.96475080429374
 10
-198.08549479372826
 20
-220.6436648023252
 10
-198.44707440947855
 20
-220.32193194945
 10
-198.8080781892003
 20
-219.99955310686727
 10
-199.1685048726389
 20
-219.67652918677547
 10
-199.5283531654569
 20
-219.35286106474945
 10
-199.88762178854034
 20
-219.02854963495236
 10
-200.24630946355288
 20
-218.7035957939261
 10
-200.60441489234654
 20
-218.37800041797234
 10
-200.96193683234583
 20
-218.05176444604285
 10
-201.31887411216644
 20
-217.72488889595704
 10
-201.67522564631537
 20
-217.39737487933638
 10
-202.03099031354222
 20
-217.0692234683452
 10
-202.3861670110669
 20
-216.7404357548862
 10
-202.7407546357105
 20
-216.41101282999318
 10
-203.0947520671936
 20
-216.08095576598234
 10
-203.44815821866112
 20
-215.75026567070643
 10
-203.80097195765063
 20
-215.4189436029311
 10
-204.15319220104956
 20
-215.086990673807
 10
-204.50481782735096
 20
-214.75440795334586
 10
-204.85584773571736
 20
-214.42119653329306
 10
-205.20628082277656
 20
-214.08735750243736
 10
-205.55611596978568
 20
-213.75289193328746
 10
-205.90535209024807
 20
-213.41780093191525
 10
-206.2539880513712
 20
-213.08208555596354
 10
-206.602022771818
 20
-212.7457469164955
 10
-206.94945512920742
 20
-212.40878608186114
 10
-207.29628402409097
 20
-212.07120414408703
 10
-207.64250836240626
 20
-211.73300220055833
 10
-207.9881271140249
 20
-211.39418141370737
 10
-208.33313931610357
 20
-211.05474301352498
 10
-208.67754395978778
 20
-210.7146881818646
 10
-209.02134009062365
 20
-210.37401815446466
 10
-209.36452671111917
 20
-210.0327341221904
 10
-209.70710284985796
 20
-209.69083730097182
 10
-210.04906752909093
 20
-209.34832889906494
 10
-210.39041976025803
 20
-209.00521011275515
 10
-210.73115858513546
 20
-208.66148216729655
 10
-211.07128299865107
 20
-208.3171462402988
 10
-211.4107920523112
 20
-207.97220356420632
 10
-211.74968475173833
 20
-207.6266553250195
 10
-212.08796013104882
 20
-207.28050273568874
 10
-212.42561721559804
 20
-206.9337469994347
 10
-212.76265502192888
 20
-206.58638930987854
 10
-213.0990725951915
 20
-206.23843088734134
 10
-213.43486893417239
 20
-205.88987290628086
 10
-213.7700430947369
 20
-205.54071659524172
 10
-214.10459406865877
 20
-205.1909631202009
 10
-214.43852071816335
 20
-204.84061352312833
 10
-214.77182180338934
 20
-204.48966874973343
 10
-215.1044960752083
 20
-204.13812973878558
 10
-215.43654230978933
 20
-203.78599745481094
 10
-215.76795923701198
 20
-203.4332728205268
 10
-216.0987456414826
 20
-203.07995681203553
 10
-216.4289002581183
 20
-202.72605036067142
 10
-216.75842185302508
 20
-202.3715544288873
 10
-217.08730917741164
 20
-202.01646996712674
 10
-217.4155609762726
 20
-201.6607979220766
 10
-217.74317601806987
 20
-201.30453926402163
 10
-218.0701530265347
 20
-200.94769492408307
 10
-218.39649077923968
 20
-200.5902658847935
 10
-218.72218800336415
 20
-200.23225308456753
 10
-219.04724345941568
 20
-199.8736574942779
 10
-219.3716558905365
 20
-199.51448007101737
 10
-219.69542403586658
 20
-199.1547217703876
 10
-220.01854665604378
 20
-198.79438356939445
 10
-220.34102248462145
 20
-198.433466422783
 10
-220.66285053096664
 20
-198.07197153298432
 10
-220.98402991859845
 20
-197.70990020332408
 10
-221.30455981225336
 20
-197.34725377206328
 10
-221.62443935861606
 20
-196.98403355967315
 10
-221.94366770455457
 20
-196.62024088512882
 10
-222.26224401815003
 20
-196.25587708429688
 10
-222.58016742822
 20
-195.89094345703944
 10
-222.89743711697855
 20
-195.5254413481539
 10
-223.21405221690387
 20
-195.15937205752996
 10
-223.5300118998403
 20
-194.7927369176078
 10
-223.84531531697306
 20
-194.4255372413476
 10
-224.1599616218301
 20
-194.05777434222523
 10
-224.47394998692516
 20
-193.68944954839418
 10
-224.78727954729294
 20
-193.3205641545439
 10
-225.09994949000932
 20
-192.95111949813904
 10
-225.4119589518379
 20
-192.58111687249382
 10
-225.72330711082145
 20
-192.2105576043894
 10
-226.03399312176924
 20
-191.83944299956556
 10
-226.34401614081816
 20
-191.46777436355245
 10
-226.6533752708541
 20
-191.09555295631364
 10
-226.9620695102965
 20
-190.7227799504791
 10
-227.2700979048815
 20
-190.34945655786612
 10
-227.57745944890553
 20
-189.97558394774512
 10
-227.88415317947315
 20
-189.6011633246892
 10
-228.19017810725995
 20
-189.22619587154978
 10
-228.49553324924292
 20
-188.8506827764368
 10
-228.800217636338
 20
-188.47462523881796
 10
-229.10423026524415
 20
-188.09802443053158
 10
-229.4075701814687
 20
-187.72088156296192
 10
-229.7102363784718
 20
-187.3431978056677
 10
-230.0122278947552
 20
-186.96497436454177
 10
-230.31354373958754
 20
-186.58621242218626
 10
-230.61418293102426
 20
-186.20691316844375
 10
-230.91414449865846
 20
-185.82707780245045
 10
-231.2134274399467
 20
-185.44670749818792
 10
-231.5120307997291
 20
-185.06580346718758
 10
-231.8099535702174
 20
-184.68436687989507
 10
-232.10719478931784
 20
-184.30239894281578
 10
-232.40375341571303
 20
-183.91990080114883
 10
-232.69962836539818
 20
-183.53687356792796
 10
-232.99481856007628
 20
-183.15331836175338
 10
-233.2893228907869
 20
-182.76923627888226
 10
-233.58314029404588
 20
-182.38462845173203
 10
-233.87626965258963
 20
-181.99949597284248
 10
-234.16870989815615
 20
-181.61383997343776
 10
-234.46045992712592
 20
-181.22766155913408
 10
-234.7515186490595
 20
-180.84096184691253
 10
-235.04188497985814
 20
-180.45374195982097
 10
-235.33155780676947
 20
-180.06600300080382
 10
-235.62053606124925
 20
-179.67774610724075
 10
-235.90881862036085
 20
-179.28897237736365
 10
-236.19640441250417
 20
-178.89968294897773
 10
-236.48329232792966
 20
-178.5098789330297
 10
-236.76948127262585
 20
-178.1195614535769
 10
-237.05497015656235
 20
-177.72873163901255
 10
-237.3397578631861
 20
-177.33739059985842
 10
-237.62384332146823
 20
-176.94553948127626
 10
-237.90722556191034
 20
-176.5531795029773
 10
-238.1899039103498
 20
-176.16031209770046
 10
-238.47187767366285
 20
-175.76693868267165
 10
-238.75314617878993
 20
-175.3730606877162
 10
-239.0337087557572
 20
-174.9786795429654
 10
-239.31356471200027
 20
-174.58379666067847
 10
-239.59271339780776
 20
-174.1884134816963
 10
-239.87115410963006
 20
-173.79253140702102
 10
-240.14888620151055
 20
-173.39615187649179
 10
-240.42590898513623
 20
-172.99927629841338
 10
-240.7022217947833
 20
-172.6019060952244
 10
-240.97782396516988
 20
-172.20404268791492
 10
-241.25271481064325
 20
-171.80568748171274
 10
-241.52689368666773
 20
-171.4068419085718
 10
-241.8003598943866
 20
-171.00750736142558
 10
-242.07311279462928
 20
-170.60768527255468
 10
-242.34515170298639
 20
-170.20737704166675
 10
-242.61647596010573
 20
-169.80658408401047
 10
-242.8870849038581
 20
-169.40530781134248
 10
-243.15697776160803
 20
-169.0035495596843
 10
-243.42615361173029
 20
-168.60131056463965
 10
-243.69461145391455
 20
-168.19859200984692
 10
-243.96235034869474
 20
-167.7953951204724
 10
-244.2293693074392
 20
-167.3917210898089
 10
-244.49566736815174
 20
-166.98757112977177
 10
-244.76124356311112
 20
-166.5829464493694
 10
-245.02609690766704
 20
-166.1778482474813
 10
-245.2902264540403
 20
-165.7722777480481
 10
-245.55363119802666
 20
-165.36623613921807
 10
-245.81631019876576
 20
-164.9597246513132
 10
-246.07826246316938
 20
-164.55274448179563
 10
-246.33948702762964
 20
-164.1452968482247
 10
-246.59998292013137
 20
-163.737382963748
 10
-246.8597491541978
 20
-163.3290040333754
 10
-247.1187847785821
 20
-162.9201612855945
 10
-247.37708878506857
 20
-162.51085591387212
 10
-247.6346602313775
 20
-162.1010891544789
 10
-247.89149811993488
 20
-161.69086220992938
 10
-248.1476015233445
 20
-161.28017632779802
 10
-248.4029695986043
 20
-160.8690328088661
 10
-248.65760150596495
 20
-160.45743295613
 10
-248.91149643935853
 20
-160.04537809349893
 10
-249.16465353656022
 20
-159.63286951037088
 10
-249.4170720027507
 20
-159.21990853771638
 10
-249.6687509859349
 20
-158.806496471575
 10
-249.9196896694948
 20
-158.39263462978056
 10
-250.169887223332
 20
-157.97832432209725
 10
-250.41934280820337
 20
-157.56356685300298
 10
-250.66805561621422
 20
-157.14836354602764
 10
-250.91602478536817
 20
-156.73271569250775
 10
-251.16324951965265
 20
-156.31662462346875
 10
-251.40972896538614
 20
-155.90009163581766
 10
-251.65546230640217
 20
-155.4831180490356
 10
-251.90044871036406
 20
-155.06570517329925
 10
-252.1446873382221
 20
-154.64785431520568
 10
-252.38817737992852
 20
-154.22956679861747
 10
-252.6309179734322
 20
-153.81084391746552
 10
-252.87290835828296
 20
-153.39168702490653
 10
-253.11414785191855
 20
-152.97209751874976
 10
-253.35463584324106
 20
-152.5520768370957
 10
-253.5943717029008
 20
-152.13162640647732
 10
-253.83335479806075
 20
-151.71074765046455
 10
-254.0715845230713
 20
-151.28944200703663
 10
-254.3090602232257
 20
-150.86771088544094
 10
-254.54578130737536
 20
-150.44555572981207
 10
-254.78174712645972
 20
-150.0229779507565
 10
-255.01695707397548
 20
-149.59997898180256
 10
-255.25141052228523
 20
-149.1765602437359
 10
-255.48510684282084
 20
-148.7527231559805
 10
-255.71804543158427
 20
-148.32846915060375
 10
-255.95022563781367
 20
-147.90379963313342
 10
-256.1816468725709
 20
-147.47871604211434
 10
-256.4123084885791
 20
-147.05321978340987
 10
-256.6422098832657
 20
-146.62731228640325
 10
-256.8713504300471
 20
-146.2009949666433
 10
-257.0997295039717
 20
-145.77426923984015
 10
-257.32734647593475
 20
-145.34713651877448
 10
-257.55420054253716
 20
-144.9195981230946
 10
-257.78029091984473
 20
-144.49165538324797
 10
-258.0056167646028
 20
-144.06330959890215
 10
-258.2301772799653
 20
-143.63456209488214
 10
-258.45397164165655
 20
-143.20541418224005
 10
-258.67699902915666
 20
-142.77586717473594
 10
-258.89925864081215
 20
-142.3459223966032
 10
-259.1207496323263
 20
-141.91558115075577
 10
-259.34147121739113
 20
-141.484844770743
 10
-259.5614225499297
 20
-141.05371456016064
 10
-259.7806028326598
 20
-140.62219184835655
 10
-259.99901123791994
 20
-140.19027794995213
 10
-260.21664694456524
 20
-139.75797418372474
 10
-260.4335091477084
 20
-139.32528187742273
 10
-260.6495970022376
 20
-138.89220233947466
 10
-260.86490971939935
 20
-138.45873690732265
 10
-261.0794464502283
 20
-138.0248868892891
 10
-261.29320639695794
 20
-137.59065361998455
 10
-261.50618873317154
 20
-137.15603842070976
 10
-261.7183926739466
 20
-136.72104263396838
 10
-261.9298174616099
 20
-136.28566761618018
 10
-262.14046230065065
 20
-135.8499147060095
 10
-262.3503264502924
 20
-135.41378526924106
 10
-262.55940910909834
 20
-134.9772806430433
 10
-262.767709529094
 20
-134.540402190936
 10
-262.97522692611943
 20
-134.10315125977274
 10
-263.18196052787175
 20
-133.66552920278997
 10
-263.38790957323124
 20
-133.22753737917557
 10
-263.5930732654688
 20
-132.78917713211118
 10
-263.79745086104975
 20
-132.3504498304468
 10
-264.001041555343
 20
-131.9113568152672
 10
-264.2038445994688
 20
-131.47189945436304
 10
-264.40585920552905
 20
-131.03207909821785
 10
-264.60708460015314
 20
-130.59189710485947
 10
-264.8075200186123
 20
-130.1513548370468
 10
-265.00716466295813
 20
-129.71045364328057
 10
-265.2060177868179
 20
-129.2691948962947
 10
-265.404078606057
 20
-128.82757995255272
 10
-265.6013466895063
 20
-128.38561032694514
 10
-265.79782176401875
 20
-127.94328760328621
 10
-265.9935035789986
 20
-127.50061337305175
 10
-266.1883918910594
 20
-127.0575892284362
 10
-266.3824864276608
 20
-126.61421674641925
 10
-266.57578696719025
 20
-126.17049752390867
 10
-266.76829322757385
 20
-125.72643312905234
 10
-266.9600049885443
 20
-125.28202515452205
 10
-267.15092198602304
 20
-124.83727517166447
 10
-267.3410439775282
 20
-124.39218475885065
 10
-267.5303707247305
 20
-123.9467554938864
 10
-267.7189019628008
 20
-123.50098894105886
 10
-267.90663747561814
 20
-123.05488668301494
 10
-268.09357698632596
 20
-122.60845027455697
 10
-268.2797202819453
 20
-122.16168129509877
 10
-268.4650671026332
 20
-121.71458130222472
 10
-268.64961721279286
 20
-121.26715186146518
 10
-268.8333703780828
 20
-120.81939453665541
 10
-269.01632632088894
 20
-120.3713108718052
 10
-269.1984844592378
 20
-119.92290228546581
 10
-269.37984384297556
 20
-119.47417004732546
 10
-269.5604035761685
 20
-119.02511545119484
 10
-269.7401627115954
 20
-118.57573977235329
 10
-269.9191203275084
 20
-118.12604429855803
 10
-270.0972754992628
 20
-117.67603031858626
 10
-270.27462727923444
 20
-117.22569911438669
 10
-270.45117476334036
 20
-116.77505198731579
 10
-270.62691698451727
 20
-116.32409021629779
 10
-270.801853042865
 20
-115.87281510879535
 10
-270.9759819840927
 20
-115.42122795338408
 10
-271.14930288248064
 20
-114.96933005205447
 10
-271.32181480664684
 20
-114.51712270690327
 10
-271.49351680499643
 20
-114.0646072146928
 10
-271.6644079677675
 20
-113.61178489042149
 10
-271.8344873217753
 20
-113.1586570275048
 10
-272.003753963857
 20
-112.70522494810936
 10
-272.1722069331549
 20
-112.25148995516626
 10
-272.3398453086832
 20
-111.79745336888845
 10
-272.5066683958939
 20
-111.34311659488202
 10
-272.67267575093746
 20
-110.88848113131891
 10
-272.83786698529934
 20
-110.4335484958987
 10
-273.0022416475719
 20
-109.9783201827401
 10
-273.16579935985294
 20
-109.52279771187365
 10
-273.32853968419
 20
-109.06698258096621
 10
-273.4904622183725
 20
-108.61087629985714
 10
-273.65156654952665
 20
-108.1544803738819
 10
-273.8118522510323
 20
-107.69779630291967
 10
-273.9713189350638
 20
-107.24082559983088
 10
-274.1299661506345
 20
-106.7835697548121
 10
-274.28779352247614
 20
-106.32603028381486
 10
-274.4448006122908
 20
-105.86820868036494
 10
-274.6009870202515
 20
-105.41010645070784
 10
-274.7563523331064
 20
-104.95172509590961
 10
-274.91089612637927
 20
-104.49306611274527
 10
-275.0646180118776
 20
-104.03413100969432
 10
-275.2175175403909
 20
-103.57492127429398
 10
-275.3695943369439
 20
-103.11543841839726
 10
-275.5208479626453
 20
-102.65568393213512
 10
-275.67127801842173
 20
-102.19565931838954
 10
-275.8208840890496
 20
-101.73536607427484
 10
-275.9696657507351
 20
-101.27480569375976
 10
-276.1176226134816
 20
-100.81397968132656
 10
-276.2647542287912
 20
-100.35288952229737
 10
-276.41106022070295
 20
-99.89153672484905
 10
-276.55654014955974
 20
-99.42992277652012
 10
-276.70119361852437
 20
-98.968049178105
 10
-276.8450202118353
 20
-98.50591742409547
 10
-276.9880195078521
 20
-98.043529006906
 10
-277.13019111601096
 20
-97.58088542826586
 10
-277.2715345897952
 20
-97.11798817244306
 10
-277.4120495533237
 20
-96.6548387450901
 10
-277.55173556673833
 20
-96.19143863212499
 10
-277.690592235238
 20
-95.72778933291922
 10
-277.82861914213606
 20
-95.26389234002033
 10
-277.96581586766314
 20
-94.79974914492269
 10
-278.1021820203245
 20
-94.33536124728997
 10
-278.23771716093546
 20
-93.87073013261443
 10
-278.3724209358689
 20
-93.4058573112028
 10
-278.50629293047075
 20
-92.94074427533016
 10
-278.6393327775256
 20
-92.47539253075973
 10
-278.7715400849792
 20
-92.00980357583911
 10
-278.90291446065146
 20
-91.54397890870713
 10
-279.0334555378319
 20
-91.07792003445516
 10
-279.16316289930586
 20
-90.61162844383334
 10
-279.2920361945919
 20
-90.14510564603115
 10
-279.4200750087923
 20
-89.67835313219744
 10
-279.5472789767677
 20
-89.2113724070676
 10
-279.67364770548295
 20
-88.74416496757212
 10
-279.799180804671
 20
-88.27673231132492
 10
-279.9238779066566
 20
-87.80907594188214
 10
-280.04773859597526
 20
-87.3411973499725
 10
-280.1707625218933
 20
-86.87309804343963
 10
-280.29294926903276
 20
-86.40477951300228
 10
-280.41429847405334
 20
-85.93624326300102
 10
-280.53480974273634
 20
-85.46749078967669
 10
-280.65448265907366
 20
-84.99852358377859
 10
-280.77331670476605
 20
-84.5293431103227
 10
-280.89131128203707
 20
-84.0599508151214
 10
-281.008465855599
 20
-83.59034816082382
 10
-281.1247798249182
 20
-83.12053659482908
 10
-281.2402526434023
 20
-82.65051757908711
 10
-281.35488373036435
 20
-82.18029256822246
 10
-281.46867251311267
 20
-81.70986302001319
 10
-281.5816184358141
 20
-81.2392303974436
 10
-281.693720899636
 20
-80.76839615436575
 10
-281.80497936653836
 20
-80.29736176033538
 10
-281.9153932329596
 20
-79.82612867057178
 10
-282.0249619516419
 20
-79.35469835479174
 10
-282.1336849383609
 20
-78.88307227527743
 10
-282.24156161974736
 20
-78.41125189812453
 10
-282.3485914366262
 20
-77.93923869391007
 10
-282.45477378948175
 20
-77.46703412535835
 10
-282.56010813781666
 20
-76.9946396697965
 10
-282.6645938753315
 20
-76.52205679113237
 10
-282.76823049430476
 20
-76.0492869763801
 10
-282.871017770231
 20
-75.57633177503054
 10
-282.972955650019
 20
-75.103192772961
 10
-283.0740440935911
 20
-74.62987155725703
 10
-283.1742830240015
 20
-74.1563697055932
 10
-283.27367242186733
 20
-73.6826888063262
 10
-283.37221220247847
 20
-73.20883043253001
 10
-283.46990234277047
 20
-72.73479616867972
 10
-283.5667427772653
 20
-72.26058758893625
 10
-283.6627334578233
 20
-71.78620626959741
 10
-283.75787434525336
 20
-71.31165378728237
 10
-283.85216536626575
 20
-70.83693171035111
 10
-283.94560650287826
 20
-70.36204161675467
 10
-284.0381976716646
 20
-69.88698507011286
 10
-284.12993885288023
 20
-69.41176364514756
 10
-284.2208299814241
 20
-68.93637890636647
 10
-284.31087101223255
 20
-68.4608324208177
 10
-284.4000619063097
 20
-67.98512575531947
 10
-284.4884025932065
 20
-67.5092604694895
 10
-284.5758930434278
 20
-67.03323812929185
 10
-284.66253296864153
 20
-66.55706025224366
 10
-284.7483219916185
 20
-66.08072833987187
 10
-284.8332596823164
 20
-65.60424388484005
 10
-284.91734563314134
 20
-65.12760838465283
 10
-285.0005794395029
 20
-64.65082333809008
 10
-285.08296066772397
 20
-64.17389023967758
 10
-285.1644889350686
 20
-63.69681059357181
 10
-285.24516379272455
 20
-63.21958589343116
 10
-285.324984859639
 20
-62.74221764529115
 10
-285.4039517032785
 20
-62.26470734735014
 10
-285.48206391653343
 20
-61.78705650295852
 10
-285.5593210924528
 20
-61.30926661633866
 10
-285.63572279784665
 20
-60.831339188402225
 10
-285.7112686484864
 20
-60.35327572881745
 10
-285.7859581938596
 20
-59.87507773768183
 10
-285.8597910537213
 20
-59.39674672709581
 10
-285.9327667932221
 20
-58.91828420160001
 10
-286.00488500606696
 20
-58.439691671145496
 10
-286.0761452872201
 20
-57.96097064681066
 10
-286.1465473378822
 20
-57.48212265623192
 10
-286.2160910594352
 20
-57.00314925652122
 10
-286.2847762958474
 20
-56.52405199588138
 10
-286.35260296398604
 20
-56.044832432473946
 10
-286.41957092313953
 20
-55.565492115657634
 10
-286.485680064377
 20
-55.08603259876941
 10
-286.55093027309147
 20
-54.606455433790124
 10
-286.61532141450806
 20
-54.12676216947842
 10
-286.67885339866996
 20
-53.646954360117995
 10
-286.74152606925446
 20
-53.167033550702634
 10
-286.8033393450543
 20
-52.68700129565118
 10
-286.8642930842644
 20
-52.206859141030236
 10
-286.92438717975125
 20
-51.72660863695565
 10
-286.9836215157664
 20
-51.246251331997726
 10
-287.0419959592107
 20
-50.76578877221681
 10
-287.09951041965087
 20
-50.28522250846882
 10
-287.156164740193
 20
-49.80455408326654
 10
-287.2119588412265
 20
-49.32378504795231
 10
-287.2668925793369
 20
-48.84291694602196
 10
-287.3209658219325
 20
-48.36195132202378
 10
-287.3741783757563
 20
-47.880889713549664
 10
-287.4265300276929
 20
-47.39973365615676
 10
-287.4780206051823
 20
-46.91848468996996
 10
-287.5286498690854
 20
-46.437144348155975
 10
-287.5784176597787
 20
-45.955714172512664
 10
-287.6273237511275
 20
-45.47419569806388
 10
-287.675367957429
 20
-44.9925904642493
 10
-287.7225500785744
 20
-44.51090000924966
 10
-287.76886990276205
 20
-44.02912587039284
 10
-287.81432725593436
 20
-43.54726958888967
 10
-287.8589219001718
 20
-43.06533270020155
 10
-287.902653675153
 20
-42.58331674733564
 10
-287.9455223538473
 20
-42.10122326745805
 10
-287.9875277519539
 20
-41.619053801947324
 10
-288.0286696678134
 20
-41.13680989095044
 10
-288.06894789100585
 20
-40.654493074263755
 10
-288.1083622459824
 20
-40.17210489495378
 10
-288.14691249620336
 20
-39.689646891483
 10
-288.1845985012025
 20
-39.20712061040999
 10
-288.2214201142893
 20
-38.724527597912704
 10
-288.2573772448835
 20
-38.2418694045098
 10
-288.2924697820823
 20
-37.75914757908937
 10
-288.32669760913393
 20
-37.276363670121924
 10
-288.3600606412663
 20
-36.79351922830424
 10
-288.392558735536
 20
-36.310615800302955
 10
-288.4241918223996
 20
-35.8276549377905
 10
-288.45495976544015
 20
-35.344638187994015
 10
-288.484862475437
 20
-34.86156710126533
 10
-288.5138998399343
 20
-34.37844322650653
 10
-288.5420717435003
 20
-33.89526811255211
 10
-288.5693780998245
 20
-33.41204331000069
 10
-288.5958187672503
 20
-32.92877036641781
 10
-288.62139367542323
 20
-32.44545083343837
 10
-288.64610268705536
 20
-31.96208625920047
 10
-288.66994571425573
 20
-31.47867819458939
 10
-288.69292264299725
 20
-30.99522818929371
 10
-288.7150333591603
 20
-30.51173779321678
 10
-288.73627779077907
 20
-30.028208558321076
 10
-288.75665589420714
 20
-29.544642037782243
 10
-288.77616772065005
 20
-29.061039788486617
 10
-288.794813254397
 20
-28.577403364116417
 10
-288.8125925313902
 20
-28.09373432001376
 10
-288.82950555855655
 20
-27.61003420998783
 10
-288.84555234568904
 20
-27.12630458761881
 10
-288.8607329259548
 20
-26.642547006871133
 10
-288.875047282984
 20
-26.15876301980737
 10
-288.88849546742006
 20
-25.674954180182883
 10
-288.9010774629592
 20
-25.19112203949664
 10
-288.9127933071146
 20
-24.707268150422223
 10
-288.9236430054357
 20
-24.223394064493306
 10
-288.9336265692411
 20
-23.739501333151285
 10
-288.942744030271
 20
-23.2555915079706
 10
-288.9509953736408
 20
-22.771666139406086
 10
-288.95838064925556
 20
-22.287726778827906
 10
-288.9648998400612
 20
-21.80377497629989
 10
-288.97055298499356
 20
-21.319812282518143
 10
-288.97534008894223
 20
-20.835840247516746
 10
-288.979261172835
 20
-20.351860421354058
 10
-288.98231627880995
 20
-19.86787435402525
 10
-288.9845054053751
 20
-19.3838835950534
 10
-288.98582861362775
 20
-18.899889694090508
 10
-288.9862858977309
 20
-18.415894200365916
 10
-288.98587731006626
 20
-17.931898663082208
 10
-288.98460286517076
 20
-17.447904631248345
 10
-288.98246258925474
 20
-16.963913653770167
 10
-288.97945652303844
 20
-16.479927279339968
 10
-288.9755846665606
 20
-15.995947056813208
 10
-288.9708470801929
 20
-15.511974534507647
 10
-288.96524375737573
 20
-15.028011261265785
 10
-288.95877475199353
 20
-14.544058785251432
 10
-288.95144007709587
 20
-14.060118655051744
 10
-288.94323976039544
 20
-13.57619241906383
 10
-288.9341738411092
 20
-13.092281625443018
 10
-288.9242423207824
 20
-12.608387823066833
 10
-288.9134452590264
 20
-12.124512559665648
 10
-288.9017826510066
 20
-11.640657384381493
 10
-288.88925458782916
 20
-11.156823844090713
 10
-288.8758611405696
 20
-10.673013485937714
 10
-288.86160239850045
 20
-10.189227856382425
 10
-288.8464784593738
 20
-9.705468501367537
 10
-288.8304893863106
 20
-9.221736967718709
 10
-288.8136352981959
 20
-8.738034800240385
 10
-288.795916247031
 20
-8.254363545832218
 10
-288.77733234973255
 20
-7.7707247489228335
 10
-288.75788367637523
 20
-7.287119955496171
 10
-288.73757031772044
 20
-6.803550710629096
 10
-288.7163923699671
 20
-6.320018559002069
 10
-288.6943498977299
 20
-5.836525046587242
 10
-288.67144301907143
 20
-5.353071716840103
 10
-288.6476717852132
 20
-4.869660116258236
 10
-288.6230363145157
 20
-4.386291788048566
 10
-288.5975366754983
 20
-3.9029682778134567
 10
-288.5711729603828
 20
-3.4196911299372945
 10
-288.5439452637932
 20
-2.936461888607116
 10
-288.51585365289617
 20
-2.4532820995696083
 10
-288.4868982680554
 20
-1.9701533042849557
 10
-288.45707920356875
 20
-1.4870770468026542
 10
-288.4263966239038
 20
-1.0040548667148963
 10
-288.39485064068754
 20
-0.5210883066914536
 10
-288.3624413922697
 20
-0.038178907553550884
 10
-288.3291690163522
 20
0.4446717900408577
 10
-288.2950336251811
 20
0.9274622437970969
 10
-288.26003537979705
 20
1.4101909149925376
 10
-288.22417437451406
 20
1.8928562602137111
 10
-288.1874507752268
 20
2.3754567413891845
 10
-288.1498646919896
 20
2.857990816378294
 10
-288.11141626460716
 20
3.340456945354987
 10
-288.0721056291799
 20
3.822853588299571
 10
-288.03193289944176
 20
4.305179203384994
 10
-287.99089823557665
 20
4.787432252672351
 10
-287.9490017311148
 20
5.269611192589305
 10
-287.9062435533981
 20
5.751714485897029
 10
-287.8626238109233
 20
6.233740590218808
 10
-287.81814264622096
 20
6.71568796614731
 10
-287.7728002325047
 20
7.197555077193364
 10
-287.72659676706365
 20
7.67934038931848
 10
-287.67953249367014
 20
8.161042373310517
 10
-287.63160758951
 20
8.642659493835128
 10
-287.5828223077778
 20
9.124190223396337
 10
-287.5331768397899
 20
9.605633028663998
 10
-287.4826714126848
 20
10.086986380240047
 10
-287.43130624371014
 20
10.568248748047596
 10
-287.3790815339697
 20
11.049418600542428
 10
-287.32599752621746
 20
11.53049441098126
 10
-287.27205439672855
 20
12.0114746455613
 10
-287.21725239997545
 20
12.49235777941898
 10
-287.1615917255481
 20
12.973142280632059
 10
-287.105072601898
 20
13.453826621908638
 10
-287.0476952444902
 20
13.934409274686855
 10
-286.98945985578143
 20
14.414888709001328
 10
-286.9303666770853
 20
14.895263399777345
 10
-286.87041588489154
 20
15.375531814130706
 10
-286.80960773425574
 20
15.855692429055138
 10
-286.74794243260135
 20
16.335743715784794
 10
-286.6854202532661
 20
16.815684154189327
 10
-286.6220414551364
 20
17.29551222265231
 10
-286.5578062872575
 20
17.775226398543204
 10
-286.4927150343181
 20
18.254825164332836
 10
-286.4267679194643
 20
18.734306994442846
 10
-286.35996524140984
 20
19.213670373907625
 10
-286.29230723265687
 20
19.69291377889692
 10
-286.22379416952845
 20
20.17203569194006
 10
-286.1544263091257
 20
20.651034593117757
 10
-286.08420390189485
 20
21.129908961728876
 10
-286.01312723067684
 20
21.60865728204849
 10
-285.94119652007356
 20
22.08727802990253
 10
-285.86841206771373
 20
22.56576969221286
 10
-285.7947741051553
 20
23.0441307461049
 10
-285.720282910071
 20
23.52235967587191
 10
-285.64493873777667
 20
24.00045496252294
 10
-285.56874184013316
 20
24.47841508659969
 10
-285.49169249876326
 20
24.956238533512035
 10
-285.4137909642595
 20
25.433923783812936
 10
-285.33503758875145
 20
25.911469334820193
 10
-285.2554326604979
 20
26.38887367377152
 10
-285.17497651613957
 20
26.866135296251723
 10
-285.09366946678523
 20
27.343252693958412
 10
-285.0115118232714
 20
27.820224358827282
 10
-284.92850392227234
 20
28.29704878758429
 10
-284.84464604885875
 20
28.773724468274345
 10
-284.759938555963
 20
29.25024990111729
 10
-284.67438173073054
 20
29.726623574995262
 10
-284.587975910978
 20
30.202843988064046
 10
-284.5007214058337
 20
30.678909633590433
 10
-284.41261852738114
 20
31.154819005562985
 10
-284.32366761024605
 20
31.630570602379308
 10
-284.23386894082324
 20
32.106162913615215
 10
-284.1432228707688
 20
32.58159444130667
 10
-284.0517296861225
 20
33.05686367522271
 10
-283.9593897259135
 20
33.53196911540745
 10
-283.86620329890866
 20
34.00690925623913
 10
-283.77217076669325
 20
34.481682602637775
 10
-283.67729256269666
 20
34.956287674243804
 10
-283.5815690783538
 20
35.43072298295158
 10
-283.4850007676611
 20
35.90498705389678
 10
-283.38758801914923
 20
36.379078399593446
 10
-283.2893312766381
 20
36.852995544462416
 10
-283.1902309487941
 20
37.32673700632544
 10
-283.09028745379715
 20
37.80030130553745
 10
-282.98950122555715
 20
38.273686966385554
 10
-282.8878726566565
 20
38.74689250491637
 10
-282.7854021994866
 20
39.21991645054124
 10
-282.6820902411895
 20
39.69275731913667
 10
-282.5779372265019
 20
40.16541363960902
 10
-282.4729435617703
 20
40.63788393299501
 10
-282.3671096661506
 20
41.110166723613425
 10
-282.26043597113073
 20
41.58226053906065
 10
-282.1529228703304
 20
42.05416389882809
 10
-282.04457081447066
 20
42.52587533583851
 10
-281.93538018599287
 20
42.99739336781363
 10
-281.8253513723951
 20
43.46871651385606
 10
-281.71448467415854
 20
43.939843272845835
 10
-281.60278040653606
 20
44.41077214688202
 10
-281.4902388939073
 20
44.88150164005107
 10
-281.37686042628826
 20
45.3520302479773
 10
-281.26264534829926
 20
45.8223564791723
 10
-281.14759393984787
 20
46.29247882622375
 10
-281.0317065431338
 20
46.762395796607386
 10
-280.9149834557702
 20
47.232105886601744
 10
-280.79742499481245
 20
47.70160759694226
 10
-280.679031483157
 20
48.17089942954547
 10
-280.5598032127837
 20
48.63997987817189
 10
-280.4397405276863
 20
49.10884744943114
 10
-280.31884370733985
 20
49.577500633089116
 10
-280.19711309593026
 20
50.04593793514105
 10
-280.07454898982655
 20
50.51415784885064
 10
-279.95115170825346
 20
50.982158872978964
 10
-279.826921572864
 20
51.44993950654365
 10
-279.7018589107561
 20
51.91749824962139
 10
-279.57596438750807
 20
52.38483369312799
 10
-279.4492387547235
 20
52.85194445279236
 10
-279.32168283195847
 20
53.318829164921716
 10
-279.1932973870236
 20
53.785486453990444
 10
-279.0640832135418
 20
54.25191495369527
 10
-278.93404110333785
 20
54.7181132994658
 10
-278.8031718241387
 20
55.18408012214867
 10
-278.671476189305
 20
55.64981406755441
 10
-278.53895494769256
 20
56.11531376542122
 10
-278.4056089169942
 20
56.580577867130934
 10
-278.2714388597694
 20
57.045605010471
 10
-278.1364455677371
 20
57.51039384365842
 10
-278.0006298271336
 20
57.97494301544749
 10
-277.86399240374135
 20
58.43925117064814
 10
-277.72653410589965
 20
58.90331696864269
 10
-277.58825567779735
 20
59.36713905186755
 10
-277.4491579345442
 20
59.83071608584909
 10
-277.309241632874
 20
60.29404672070083
 10
-277.16850746596856
 20
60.75712958902846
 10
-277.0269557904794
 20
61.21996322201016
 10
-276.8845868769353
 20
61.682546123860654
 10
-276.7414010364164
 20
62.14487681036457
 10
-276.5973985169827
 20
62.60695377687662
 10
-276.4525796408119
 20
63.068775540827886
 10
-276.3069446693187
 20
63.530340599741784
 10
-276.16049390062415
 20
63.99164746165826
 10
-276.01322762125204
 20
64.45269463000447
 10
-275.86514610535835
 20
64.9134806032101
 10
-275.71624966458273
 20
65.37400389073694
 10
-275.5665385492092
 20
65.83426298118111
 10
-275.41601308412675
 20
66.29425638627825
 10
-275.264673531464
 20
66.75398259626041
 10
-275.11252019340446
 20
67.21344011337172
 10
-274.95955335691497
 20
67.67262743377819
 10
-274.8057733004795
 20
68.13154304965997
 10
-274.6511803362792
 20
68.59018546336867
 10
-274.4957747270516
 20
69.04855315946917
 10
-274.33955702383395
 20
69.5066447195742
 10
-274.1825279534545
 20
69.96445878591186
 10
-274.02468829707675
 20
70.42199402083126
 10
-273.8660388160226
 20
70.879249081517
 10
-273.7065802661957
 20
71.33622262482868
 10
-273.54631343230113
 20
71.79291331927952
 10
-273.3852390450401
 20
72.24931981600378
 10
-273.22335790253226
 20
72.70544079142614
 10
-273.0606707398848
 20
73.16127490123937
 10
-272.8971783367403
 20
73.6168208184734
 10
-272.7328814491935
 20
74.07207720928764
 10
-272.56778083166665
 20
74.52704274068789
 10
-272.40187726339406
 20
74.98171609018891
 10
-272.23517147364026
 20
75.43609591853821
 10
-272.0676642558014
 20
75.89018091141334
 10
-271.89935634064074
 20
76.34396973290795
 10
-271.7302485058748
 20
76.79746106586983
 10
-271.56034150210115
 20
77.25065358451586
 10
-271.3896360554165
 20
77.70354595515292
 10
-271.2181327866287
 20
78.15613680538408
 10
-271.0458322333014
 20
78.6084247316498
 10
-270.87273499444433
 20
79.06040835394761
 10
-270.69884160727435
 20
79.51208626887066
 10
-270.524152658985
 20
79.96345709233667
 10
-270.34866870656424
 20
80.41451942880407
 10
-270.172390313228
 20
80.8652718852375
 10
-269.9953180597601
 20
81.31571307562331
 10
-269.81745248549
 20
81.76584159775427
 10
-269.6387941880611
 20
82.21565607251847
 10
-269.45934370364205
 20
82.66515509653468
 10
-269.2791016210634
 20
83.11433728742757
 10
-269.09806849525086
 20
83.56320124934577
 10
-268.9162448912563
 20
84.01174559049753
 10
-268.73363138772834
 20
84.45996892465345
 10
-268.55022852603275
 20
84.90786985038744
 10
-268.36603690263973
 20
85.3554469887922
 10
-268.18105706033083
 20
85.80269893892242
 10
-267.99528973779866
 20
86.24962438110344
 10
-267.80873576088715
 20
86.69622203305858
 10
-267.6213959733762
 20
87.14249062156385
 10
-267.4332712279988
 20
87.58842887882818
 10
-267.2443623439133
 20
88.0340355245001
 10
-267.0546701914287
 20
88.47930930149548
 10
-266.8641955795514
 20
88.92424892825798
 10
-266.6729393747475
 20
89.36885314932728
 10
-266.4809024014407
 20
89.81312069280882
 10
-266.28808550148506
 20
90.25705029582632
 10
-266.09448952154514
 20
90.70064069916678
 10
-265.9001152789423
 20
91.14389063231201
 10
-265.7049636387018
 20
91.58679884714944
 10
-265.5090354049627
 20
92.02936407027397
 10
-265.3123314418675
 20
92.47158505624157
 10
-265.1148525677641
 20
92.91346054079355
 10
-264.9165996222915
 20
93.35498927056034
 10
-264.7175734457579
 20
93.79616999394943
 10
-264.5177748513652
 20
94.23700144852866
 10
-264.31720469330236
 20
94.67748239181495
 10
-264.11586376514555
 20
95.11761155511273
 10
-263.9137529232964
 20
95.55738769972713
 10
-263.71087297473866
 20
95.99680956567373
 10
-263.5072247519309
 20
96.43587590596255
 10
-263.3028090840038
 20
96.87458547340798
 10
-263.0976267795605
 20
97.31293701251258
 10
-262.8916786881488
 20
97.7509292882086
 10
-262.6849655994445
 20
98.18856103855875
 10
-262.47748836865446
 20
98.62583103373886
 10
-262.26924779763885
 20
99.06273801994432
 10
-262.06024471779057
 20
99.49928075857605
 10
-261.85047995289733
 20
99.93545800864612
 10
-261.63995431062625
 20
100.37126852256604
 10
-261.42866863604996
 20
100.80671107198853
 10
-261.21662371480016
 20
101.24178440089901
 10
-261.003820400347
 20
101.67648728740451
 10
-260.7902594417312
 20
102.11081845960489
 10
-260.5759415294469
 20
102.54477661733891
 10
-260.36086733186283
 20
102.97836044975082
 10
-260.145037506006
 20
103.41156864042418
 10
-259.92845274272923
 20
103.8443998898949
 10
-259.7111136764067
 20
104.27685287052248
 10
-259.49302100959216
 20
104.7089262889154
 10
-259.2741753862789
 20
105.14061882227547
 10
-259.05457748799864
 20
105.57192916677268
 10
-258.8342279806815
 20
106.00285601071161
 10
-258.61312752333146
 20
106.43339803881062
 10
-258.39127680429266
 20
106.86355395085386
 10
-258.16867646015226
 20
107.29332241990512
 10
-257.94532719204574
 20
107.72270215234995
 10
-257.7212296429414
 20
108.15169182434911
 10
-257.496384496444
 20
108.58029013312782
 10
-257.270792416308
 20
109.00849576547236
 10
-257.04445406639366
 20
109.43630740807454
 10
-256.81737028984656
 20
109.86372384279854
 10
-256.5895421235346
 20
110.29074395583766
 10
-256.3609706850426
 20
110.71736667894473
 10
-256.13165703317793
 20
111.14359091511295
 10
-255.90160226941654
 20
111.56941559283672
 10
-255.6708074699645
 20
111.99483962964894
 10
-255.43927371209492
 20
112.41986194621293
 10
-255.20700209196514
 20
112.84448147609598
 10
-254.9739936627311
 20
113.2686971319139
 10
-254.74024953319255
 20
113.69250785936254
 10
-254.50577075389236
 20
114.11591257463223
 10
-254.27055842091625
 20
114.53891022158282
 10
-254.03461360073416
 20
114.96149973020874
 10
-253.79793736530138
 20
115.38368003601326
 10
-253.56053080068455
 20
115.80545008493418
 10
-253.3223949548006
 20
116.22680880390463
 10
-253.0835309272002
 20
116.64775515146243
 10
-252.84393975137343
 20
117.06828805115202
 10
-252.60362238339295
 20
117.48840638438635
 10
-252.36257964844123
 20
117.90810895909848
 10
-252.12081237987394
 20
118.32739458866232
 10
-251.8783214213201
 20
118.74626209319165
 10
-251.63510758396575
 20
119.16471027477094
 10
-251.39117172759947
 20
119.58273796445721
 10
-251.14651465558123
 20
120.00034396117418
 10
-250.90113722356557
 20
120.41752709512502
 10
-250.65504024983062
 20
120.83428617532849
 10
-250.40822456796465
 20
121.2506200204711
 10
-250.16069101708163
 20
121.66652745324005
 10
-249.91244040881543
 20
122.08200728061463
 10
-249.66347359950083
 20
122.49705833691479
 10
-249.4137913894961
 20
122.9116794235678
 10
-249.1633946346061
 20
123.32586937593392
 10
-248.9122841488235
 20
123.73962700480172
 10
-248.66046076613205
 20
124.152951133612
 10
-248.40792536921714
 20
124.56584061624588
 10
-248.15467896718133
 20
124.97829438513256
 10
-247.90072263815665
 20
125.39031141707784
 10
-247.6460574041667
 20
125.80189065648486
 10
-247.39068434519123
 20
126.21303108566629
 10
-247.1346044943096
 20
126.62373166002666
 10
-246.8778189085931
 20
127.03399135195481
 10
-246.62032864031207
 20
127.44380913297839
 10
-246.36213472373123
 20
127.85318396536185
 10
-246.10323822911857
 20
128.26211483614028
 10
-245.84364017116644
 20
128.6706006992406
 10
-245.58334162551
 20
129.078640549275
 10
-245.3223436164746
 20
129.4862333502587
 10
-245.06064719692228
 20
129.8933780864023
 10
-244.79825341008026
 20
130.3000737377808
 10
-244.53516328614307
 20
130.70631927800798
 10
-244.2713778870962
 20
131.11211370325825
 10
-244.00689821492062
 20
131.5174559726581
 10
-243.74172528896213
 20
131.92234505836103
 10
-243.47586005193077
 20
132.32677988395486
 10
-243.20930347966325
 20
132.73075939608754
 10
-242.9420565339506
 20
133.1342825335699
 10
-242.67412016891956
 20
133.5373482314375
 10
-242.40549536563503
 20
133.9399554439884
 10
-242.13618305662723
 20
134.34210309446422
 10
-241.86618423333678
 20
134.74379014680105
 10
-241.59549983313772
 20
135.1450155299854
 10
-241.32413083005767
 20
135.54577819892458
 10
-241.05207817924102
 20
135.94607709707486
 10
-240.7793428332043
 20
136.3459111673148
 10
-240.50592576614517
 20
136.74527936857223
 10
-240.23182790919086
 20
137.14418063150995
 10
-239.95705024804408
 20
137.54261392545084
 10
-239.68159371485106
 20
137.94057818406313
 10
-239.40545929466631
 20
138.33807237877784
 10
-239.12864808941396
 20
138.73509556394038
 10
-238.85116128987437
 20
139.13164685829693
 10
-238.57300010376755
 20
139.52772539544117
 10
-238.294165700586
 20
139.92333028508506
 10
-238.0146592992288
 20
140.3184606746667
 10
-237.73448206488854
 20
140.71311567665333
 10
-237.45363520547272
 20
141.1072944366744
 10
-237.17211989950155
 20
141.50099608242417
 10
-236.88993733231786
 20
141.89421974931372
 10
-236.6070886994887
 20
142.28696458301204
 10
-236.32357516390076
 20
142.67922970851876
 10
-236.03939793329226
 20
143.0710142860826
 10
-235.75455816229228
 20
143.46231744034054
 10
-235.46905705148944
 20
143.85313833213607
 10
-235.1828957672456
 20
144.2434761002244
 10
-234.89607548771585
 20
144.63332989474782
 10
-234.60859737671652
 20
145.02269885807578
 10
-234.3204624458017
 20
145.41158202243165
 10
-234.03167169753706
 20
145.79997841489404
 10
-233.74222608269778
 20
146.18788702531424
 10
-233.45212660220707
 20
146.57530688209536
 10
-233.1613742188267
 20
146.96223698637385
 10
-232.86996991303445
 20
147.34867635370844
 10
-232.5779146658157
 20
147.73462400127235
 10
-232.285209437324
 20
148.1200789316132
 10
-231.991855224647
 20
148.50504017647205
 10
-231.6978529737441
 20
148.88950672979914
 10
-231.40320368414936
 20
149.27347762755514
 10
-231.10790831236685
 20
149.65695187390202
 10
-230.81196783770568
 20
150.0399284915751
 10
-230.51538323470024
 20
150.42240650076417
 10
-230.2181554625577
 20
150.8043849108123
 10
-229.92028551349523
 20
151.1858627578055
 10
-229.6217743896861
 20
151.56683908687424
 10
-229.3226232733031
 20
151.9473130859405
 10
-229.02283331297022
 20
152.32728391921523
 10
-228.72240568444545
 20
152.70675077485328
 10
-228.42134155272404
 20
153.08571283516724
 10
-228.11964207223286
 20
153.46416927663574
 10
-227.8173084241722
 20
153.8421192996899
 10
-227.51434174175242
 20
154.21956206896004
 10
-227.21074321359094
 20
154.59649679604127
 10
-226.90651397769224
 20
154.97292265442496
 10
-226.6016552034306
 20
155.34883884540488
 10
-226.29616804418237
 20
155.72424455989875
 10
-225.99005364816134
 20
156.09913898709002
 10
-225.6833131846363
 20
156.47352133587523
 10
-225.3759477807856
 20
156.84739078316102
 10
-225.06795861443615
 20
157.22074654990175
 10
-224.7593468367362
 20
157.59358783768621
 10
-224.4501137767927
 20
157.96591399837794
 10
-224.14026079614553
 20
158.3377244148161
 10
-223.82978925614677
 20
158.7090184739204
 10
-223.5187005327704
 20
159.0797955791385
 10
-223.20699596534058
 20
159.45005510743917
 10
-222.89467693827294
 20
159.81979647795498
 10
-222.5817447859855
 20
160.1890190719168
 10
-222.26820088082815
 20
160.55772230684943
 10
-221.95404656794736
 20
160.92590558145167
 10
-221.6392831976434
 20
161.29356830297573
 10
-221.3239121289516
 20
161.66070989038354
 10
-221.00793469023037
 20
162.02732974046657
 10
-220.69135224997947
 20
162.39342728875945
 10
-220.37416612739622
 20
162.75900193238957
 10
-220.05637768296396
 20
163.12405310837948
 10
-219.737988180044
 20
163.48858017319128
 10
-219.4189983427126
 20
163.85258201405685
 10
-219.09940862373534
 20
164.21605727858878
 10
-218.77921945240575
 20
164.57900459003957
 10
-218.45843129747666
 20
164.94142260271207
 10
-218.13704458266105
 20
165.3033099273243
 10
-217.81505978031703
 20
165.6646652139249
 10
-217.49247732937263
 20
166.0254870790671
 10
-217.16929768812147
 20
166.38577415269262
 10
-216.84552131669858
 20
166.74552506259278
 10
-216.5211486595032
 20
167.10473841848477
 10
-216.19618019640544
 20
167.4634128581978
 10
-215.87061636261652
 20
167.82154697520173
 10
-215.54445764604105
 20
168.17913940682158
 10
-215.21770449602738
 20
168.53618875135052
 10
-214.89035738694994
 20
168.89269362588675
 10
-214.56241700234307
 20
169.24865283646045
 10
-214.23388545279187
 20
169.60406650632396
 10
-213.90476546775378
 20
169.95893534344248
 10
-213.57505972470145
 20
170.31326002425882
 10
-213.24477094752032
 20
170.66704128496556
 10
-212.9139018064241
 20
171.02027982838374
 10
-212.58245499204634
 20
171.37297639293374
 10
-212.25043317549222
 20
171.72513171529081
 10
-211.91783901427596
 20
172.07674653576635
 10
-211.5846751799353
 20
172.42782162440804
 10
-211.2509442970044
 20
172.77835772308072
 10
-210.9166490301647
 20
173.12835562818748
 10
-210.58179199163607
 20
173.4778161024552
 10
-210.2463758170223
 20
173.82673994722344
 10
-209.91040311703077
 20
174.17512795622608
 10
-209.57387647933723
 20
174.52298091708124
 10
-209.23679746569294
 20
174.87029863722037
 10
-208.8991659093043
 20
175.21707924810147
 10
-208.5609815343
 20
175.5633207653197
 10
-208.2222440268487
 20
175.909021156674
 10
-207.88295311355856
 20
176.25417841863327
 10
-207.54310850482915
 20
176.5987905209073
 10
-207.20270992189745
 20
176.94285543286733
 10
-206.86175710235048
 20
177.28637112906972
 10
-206.52024976229546
 20
177.62933555167334
 10
-206.17818766275315
 20
177.971746676385
 10
-205.8355705269981
 20
178.31360243009362
 10
-205.4923981236045
 20
178.6549007737573
 10
-205.14867019955565
 20
178.99563963543275
 10
-204.80438651895906
 20
179.3358169490261
 10
-204.45954685690128
 20
179.6754306481991
 10
-204.1141513602662
 20
180.01447903426376
 10
-203.76820157774145
 20
180.35296183342874
 10
-203.42169931162135
 20
180.69087903793942
 10
-203.07464640356545
 20
181.02823068934467
 10
-202.7270446575778
 20
181.365016799587
 10
-202.3788958901744
 20
181.7012374024453
 10
-202.030201912375
 20
182.03689253505567
 10
-201.6809645156672
 20
182.37198222321288
 10
-201.3311855167511
 20
182.70650652793975
 10
-200.98086668538915
 20
183.04046547016935
 10
-200.6300098337116
 20
183.37385912412037
 10
-200.2786167313034
 20
183.70668752827166
 10
-199.92668916519932
 20
184.0389507483352
 10
-199.57422891141178
 20
184.37064884730063
 10
-199.2212377320211
 20
184.70178188218654
 10
-198.86771736561624
 20
185.0323498936364
 10
-198.5136692115975
 20
185.36235256690875
 10
-198.15909459288386
 20
185.69178951014243
 10
-197.80399478884576
 20
186.02066028879088
 10
-197.44837110368255
 20
186.34896449908948
 10
-197.0922248280277
 20
186.67670172670046
 10
-196.73555724699224
 20
187.0038715552826
 10
-196.37836966258246
 20
187.3304735909718
 10
-196.02066334094744
 20
187.65650740472165
 10
-195.66243958944222
 20
187.98197261664717
 10
-195.30369967290662
 20
188.3068688041795
 10
-194.9444448847224
 20
188.6311955801709
 10
-194.58467649923395
 20
188.9549525404605
 10
-194.2243957909021
 20
189.27813928493904
 10
-193.86360404509477
 20
189.60075542965907
 10
-193.50230245914256
 20
189.92280049591415
 10
-193.14049199683322
 20
190.24427374529296
 10
-192.77817350371475
 20
190.56517430659
 10
-192.41534785970734
 20
190.8855013468696
 10
-192.05201592253334
 20
191.2052540076999
 10
-191.68817855773105
 20
191.52443143898424
 10
-191.32383663820465
 20
191.84303279858062
 10
-190.95899101524523
 20
192.16105721911987
 10
-190.59364257395336
 20
192.47850387147054
 10
-190.2277921602607
 20
192.79537188095676
 10
-189.86144065828745
 20
193.1116604163528
 10
-189.49458892474536
 20
193.42736861423506
 10
-189.1272378296714
 20
193.74249562600727
 10
-188.7593882449033
 20
194.0570406046323
 10
-188.39104102814733
 20
194.3710026859256
 10
-188.02219723243084
 20
194.68438123498464
 10
-187.65285817904336
 20
194.99717593503854
 10
-187.2830252619983
 20
195.30938655992762
 10
-186.91269984001
 20
195.62101284691667
 10
-186.54188328772418
 20
195.93205455722398
 10
-186.1705769732497
 20
196.24251144943347
 10
-185.7987822519934
 20
196.5523832720016
 10
-185.42650050117769
 20
196.86166980464904
 10
-185.0537330573657
 20
197.17037078324682
 10
-184.68048129950301
 20
197.47848599982808
 10
-184.3067465663476
 20
197.78601520292463
 10
-183.93253021763815
 20
198.0929581715141
 10
-183.55783360116595
 20
198.39931467511497
 10
-183.18265805759344
 20
198.70508447951832
 10
-182.8070049272385
 20
199.01026735503933
 10
-182.4308753695758
 20
199.31486285360322
 10
-182.05427050618653
 20
199.61887048311016
 10
-181.6771914196456
 20
199.9222897054007
 10
-181.2996392187273
 20
200.22512001692522
 10
-180.9216149965618
 20
200.5273608968377
 10
-180.54311984616393
 20
200.82901182621302
 10
-180.164154872351
 20
201.13007230307628
 10
-179.78472115250793
 20
201.43054179301828
 10
-179.40481979881486
 20
201.7304198076116
 10
-179.02445188574967
 20
202.0297058128286
 10
-178.64361851760788
 20
202.3283993145162
 10
-178.2623207778785
 20
202.6264997941454
 10
-177.88055975532362
 20
202.92400674190824
 10
-177.49833654416688
 20
203.22091965708347
 10
-177.1156521896919
 20
203.5172379778233
 10
-176.73250773309903
 20
203.81296113851363
 10
-176.34890417669607
 20
204.1080885244358
 10
-175.96484255656142
 20
204.40261956586156
 10
-175.58032388337315
 20
204.69655366121694
 10
-175.1953491787538
 20
204.98989022433543
 10
-174.80991946553615
 20
205.28262867184355
 10
-174.42403575102165
 20
205.5747684010305
 10
-174.03769906867183
 20
205.86630884486104
 10
-173.6509104158686
 20
206.15724938964473
 10
-173.26367082722655
 20
206.44758947220063
 10
-172.87598130707784
 20
206.73732849017406
 10
-172.48784287583035
 20
207.02646586370741
 10
-172.09925655001095
 20
207.3150010088626
 10
-171.71022337375018
 20
207.6029333801026
 10
-171.3207444962042
 20
207.89026257568136
 10
-170.93082104155977
 20
208.17698816269638
 10
-170.54045417380243
 20
208.46310976504188
 10
-170.14964502113452
 20
208.748626960684
 10
-169.75839473203024
 20
209.03353935798145
 10
-169.36670444497142
 20
209.31784655438238
 10
-168.97457529305228
 20
209.60154814260284
 10
-168.58200842489714
 20
209.8846437395607
 10
-168.18900495835692
 20
210.1671329222185
 10
-167.79556604696734
 20
210.44901531981753
 10
-167.40169280876756
 20
210.73029051485588
 10
-167.00738638562962
 20
211.01095812578728
 10
-166.61264790442343
 20
211.29101775274788
 10
-166.217478463351
 20
211.57046895790324
 10
-165.82187908588136
 20
211.84931119965077
 10
-165.42585075535533
 20
212.1275438804576
 10
-165.0293944872362
 20
212.40516644929795
 10
-164.63251126301174
 20
212.6821783075334
 10
-164.2352020923216
 20
212.95857889756354
 10
-163.83746796589762
 20
213.2343676355027
 10
-163.43930988029408
 20
213.5095439465752
 10
-163.0407288378527
 20
213.7841072651871
 10
-162.6417258221786
 20
214.05805699929044
 10
-162.24230184470872
 20
214.33139259807888
 10
-161.84245788349008
 20
214.6041134627593
 10
-161.4421949480664
 20
214.8762190413313
 10
-161.04151402437736
 20
215.1477087478867
 10
-160.64041609439627
 20
215.4185819911903
 10
-160.23890209431937
 20
215.68883811251396
 10
-159.83697293816604
 20
215.95847641987606
 10
-159.4346295640992
 20
216.2274962568861
 10
-159.0318728779562
 20
216.49589691843806
 10
-158.628703820798
 20
216.76367775175876
 10
-158.2251233060249
 20
217.0308380621231
 10
-157.8211322631031
 20
217.29737717851782
 10
-157.4167316177991
 20
217.5632944239197
 10
-157.01192228812405
 20
217.82858910898523
 10
-156.6067052121326
 20
218.0932605744612
 10
-156.20108129652246
 20
218.35730811258412
 10
-155.79505148578684
 20
218.62073107302135
 10
-155.38861669277995
 20
218.88352875626356
 10
-154.98177787114963
 20
219.14570052534194
 10
-154.57453602902405
 20
219.40724582796338
 10
-154.1668921835191
 20
219.6681641265474
 10
-153.7588473660053
 20
219.92845490669677
 10
-153.35040258122024
 20
220.1881176131528
 10
-152.9415588668118
 20
220.4471517432225
 10
-152.53231722869987
 20
220.70555674511195
 10
-152.12267869604355
 20
220.96333210455745
 10
-151.71264428428776
 20
221.2204772864384
 10
-151.30221501033355
 20
221.47699175870076
 10
-150.89139190035792
 20
221.7328750049724
 10
-150.4801759591432
 20
221.9881264753172
 10
-150.0685682202747
 20
222.24274566692935
 10
-149.65656968620792
 20
222.49673202753
 10
-149.2441813562875
 20
222.7500850002353
 10
-148.8314041216833
 20
223.00280385193477
 10
-148.41823886335212
 20
223.25488783138613
 10
-148.00468646778268
 20
223.50633619484674
 10
-147.5907478061435
 20
223.7571481717234
 10
-147.17642377552625
 20
224.0073230325211
 10
-146.76171524351014
 20
224.25685999726176
 10
-146.34662310814957
 20
224.5057583348099
 10
-145.9311482461696
 20
224.7540172768704
 10
-145.5152915460093
 20
225.00163607291555
 10
-145.09905389705503
 20
225.24861397231643
 10
-144.68243617827034
 20
225.49495020507507
 10
-144.26543929079025
 20
225.7406440368767
 10
-143.84806410680974
 20
225.98569468251242
 10
-143.43031153163457
 20
226.23010141121327
 10
-143.0121824439713
 20
226.4738634450186
 10
-142.59367773838025
 20
226.71698003113457
 10
-142.1747983059136
 20
226.9594504088702
 10
-141.75554503191205
 20
227.2012738056576
 10
-141.33591881995082
 20
227.4424494785735
 10
-140.9159205462967
 20
227.6829766351957
 10
-140.4955511218882
 20
227.92285454150505
 10
-140.0748114293803
 20
228.1620824120294
 10
-139.65370237148028
 20
228.40065949435473
 10
-139.23222484314422
 20
228.6385850203899
 10
-138.8103797381861
 20
228.87585821783077
 10
-138.38816796407554
 20
229.11247833654065
 10
-137.96559040588048
 20
229.34844458424675
 10
-137.5426479742883
 20
229.583756212244
 10
-137.11934152885254
 20
229.8184123775732
 10
-136.69567194585298
 20
230.0524122644836
 10
-136.27164009000245
 20
230.28575503343214
 10
-135.84724682951168
 20
230.51843984816142
 10
-135.4224930421067
 20
230.75046588679555
 10
-134.9973795880821
 20
230.98183229249486
 10
-134.57190735530583
 20
231.21253825595178
 10
-134.14607720478466
 20
231.44258291532543
 10
-133.71989002367175
 20
231.67196545391693
 10
-133.29334668367164
 20
231.90068502330058
 10
-132.86644806421953
 20
232.12874078618646
 10
-132.43919505005653
 20
232.3561319120624
 10
-132.01158851305678
 20
232.58285754297088
 10
-131.58362934711545
 20
232.80891685916825
 10
-131.15531840102852
 20
233.0343089521219
 10
-130.72665654261326
 20
233.25903294547842
 10
-130.29764462064506
 20
233.48308792268426
 10
-129.86828349589368
 20
233.70647298597177
 10
-129.43857403061816
 20
233.92918723641588
 10
-129.00851707879036
 20
234.1512297549384
 10
-128.57811351539266
 20
234.37259965897496
 10
-128.14736418993942
 20
234.5932960122897
 10
-127.71626998364735
 20
234.81331793617932
 10
-127.28483175528088
 20
235.03266450383603
 10
-126.85305037948332
 20
235.25133481525913
 10
-126.42092672855466
 20
235.4693279615764
 10
-125.98846167072281
 20
235.6866430214204
 10
-125.55565609178068
 20
235.90327910397875
 10
-125.12251085312514
 20
236.11923526528517
 10
-124.68902684789843
 20
236.33451062042383
 10
-124.25520494435936
 20
236.54910423000658
 10
-123.82104603003194
 20
236.76301518885643
 10
-123.38655098638179
 20
236.97624257498808
 10
-122.95172069476757
 20
237.18878546146271
 10
-122.5165560500863
 20
237.40064294437002
 10
-122.08105792769918
 20
237.61181407493848
 10
-121.64522723225744
 20
237.82229795992896
 10
-121.20906484421583
 20
238.032093651331
 10
-120.77257166587272
 20
238.24120024155144
 10
-120.33574859001602
 20
238.4496167983751
 10
-119.89859651317593
 20
238.65734239240342
 10
-119.46111634163265
 20
238.8643761098324
 10
-119.023308964044
 20
239.07071699456915
 10
-118.58517527525935
 20
239.2763640982868
 10
-118.1467161363424
 20
239.4813163950509
 10
-117.70793243279556
 20
239.68557290505478
 10
-117.26882503759208
 20
239.88913261567134
 10
-116.82939483134211
 20
240.09199452454797
 10
-116.38964270107377
 20
240.2941576371484
 10
-115.94956952268606
 20
240.49562092850596
 10
-115.50917619548899
 20
240.69638341850703
 10
-115.06846359608912
 20
240.89644407103833
 10
-114.62743262793073
 20
241.0958019026215
 10
-114.18608417887727
 20
241.29445588908223
 10
-113.74441914791277
 20
241.49240502438792
 10
-113.30243843705155
 20
241.68964830286092
 10
-112.86014294099309
 20
241.8861846958516
 10
-112.4175335750643
 20
242.08201321452376
 10
-111.97461123282149
 20
242.27713281426466
 10
-111.53137683683639
 20
242.47154250949865
 10
-111.08783129112915
 20
242.66524126580762
 10
-110.64397551401434
 20
242.85822807457834
 10
-110.19981042354766
 20
243.0505019198522
 10
-109.75533693397213
 20
243.24206176991254
 10
-109.31055597730263
 20
243.43290662733324
 10
-108.86546846403853
 20
243.62303543757153
 10
-108.42007533557927
 20
243.81244721119546
 10
-107.97437751212975
 20
244.00114090204292
 10
-107.52837593127913
 20
244.1891154976494
 10
-107.08207152737245
 20
244.37636997074375
 10
-106.6354652343707
 20
244.56290328577083
 10
-106.18855800072727
 20
244.74871443454415
 10
-105.74135075669801
 20
244.9338023577098
 10
-105.29384445860043
 20
245.11816605124753
 10
-104.84604004081187
 20
245.3018044504547
 10
-104.39793845717003
 20
245.48471653018282
 10
-103.94954065543011
 20
245.66690124274336
 10
-103.5008475861272
 20
245.8483575393338
 10
-103.05186021110458
 20
246.02908439125966
 10
-102.60257947778258
 20
246.20908072600756
 10
-102.15300635924305
 20
246.3883455269611
 10
-101.7031418084745
 20
246.56687771917336
 10
-101.25298679988188
 20
246.74467627329693
 10
-100.80254229923038
 20
246.92174013003603
 10
-100.35180927809286
 20
247.09806823642018
 10
-99.90078871643185
 20
247.27365955262067
 10
-99.44948158317759
 20
247.44851300199085
 10
-98.99788887042497
 20
247.6226275590728
 10
-98.54601155325958
 20
247.79600214588268
 10
-98.09385063425938
 20
247.9686357473718
 10
-97.64140710526941
 20
248.14052731211555
 10
-97.18868196655994
 20
248.31167580217974
 10
-96.73567622387718
 20
248.4820801855954
 10
-96.28239087490974
 20
248.65173940025477
 10
-95.82882693791775
 20
248.82065243020233
 10
-95.37498541227629
 20
248.9888182000462
 10
-94.92086732198061
 20
249.15623569173022
 10
-94.46647367770196
 20
249.3229038422953
 10
-94.01180550114063
 20
249.48882160960815
 10
-93.55686381697673
 20
249.6539879506572
 10
-93.10164964481969
 20
249.8184017991822
 10
-92.64616402262857
 20
249.98206213039947
 10
-92.19040797020257
 20
250.14496785966514
 10
-91.73438253352256
 20
250.30711796592965
 10
-91.27808874704272
 20
250.4685113864882
 10
-90.82152766319437
 20
250.6291470998565
 10
-90.36470033514925
 20
250.7890240774488
 10
-89.90760781356138
 20
250.94814127399226
 10
-89.45025116512234
 20
251.10649768079858
 10
-88.9926314388778
 20
251.26409222865354
 10
-88.53474971098913
 20
251.42092391721863
 10
-88.07660704046152
 20
251.57699168657135
 10
-87.61820450167704
 20
251.73229451183644
 10
-87.1595431673865
 20
251.88683135353804
 10
-86.700624110399
 20
252.04060116222132
 10
-86.24144841717562
 20
252.1936029190679
 10
-85.78201715916482
 20
252.345835549999
 10
-85.32233143322463
 20
252.49729804711538
 10
-84.86239231946496
 20
252.64798934153495
 10
-84.40220091488551
 20
252.79790840516276
 10
-83.9417583157598
 20
252.94705419730965
 10
-83.48106562805192
 20
253.09542569663552
 10
-83.02012397002285
 20
253.24302190977278
 10
-82.558934447425
 20
253.3898417939817
 10
-82.09749818904176
 20
253.53588436830955
 10
-81.6358163074063
 20
253.68114859016566
 10
-81.17388993288262
 20
253.82563346276996
 10
-80.71172019039635
 20
253.96933796143827
 10
-80.24930820918213
 20
254.11226106435714
 10
-79.7866551274913
 20
254.25440176801564
 10
-79.32376207364827
 20
254.39575902552804
 10
-78.86063019707926
 20
254.53633184780867
 10
-78.39726063174139
 20
254.67611918374635
 10
-77.93365453050627
 20
254.81512003329814
 10
-77.46981303936391
 20
254.9533333621983
 10
-77.0057373105804
 20
255.09075814545395
 10
-76.54142850378369
 20
255.22739337130326
 10
-76.07688777909853
 20
255.36323801801208
 10
-75.61211632565758
 20
255.49829115168941
 10
-75.14711531812598
 20
255.63255177794275
 10
-74.68188595056306
 20
255.76601895832374
 10
-74.21642940848385
 20
255.89869171376202
 10
-73.7507468849924
 20
256.03056908039514
 10
-73.28483957822881
 20
256.16165010091004
 10
-72.81870868057084
 20
256.2919337859896
 10
-72.35235540158754
 20
256.4214191961687
 10
-71.88578093657509
 20
256.55010532899536
 10
-71.4189865009664
 20
256.67799124290855
 10
-70.95197330063182
 20
256.8050759497939
 10
-70.48474255058564
 20
256.9313584827588
 10
-70.01729546939141
 20
257.0568378759725
 10
-69.54963327186717
 20
257.18151313717823
 10
-69.08175718848707
 20
257.30538332029755
 10
-68.61366843630577
 20
257.42844741604114
 10
-68.1453682585217
 20
257.5507045016507
 10
-67.67685789931956
 20
257.672153646311
 10
-67.20813861442338
 20
257.7927939517813
 10
-66.73921166136255
 20
257.9126245153036
 10
-66.2700782952722
 20
258.0316444128077
 10
-65.80073978508824
 20
258.14985276260774
 10
-65.33119738668626
 20
258.26724861912254
 10
-64.86145237661692
 20
258.38383110688847
 10
-64.3915060199961
 20
258.4995992923193
 10
-63.921359593097925
 20
258.6145522742305
 10
-63.45101437292222
 20
258.7286891418704
 10
-62.98047163570339
 20
258.84200896830447
 10
-62.509732670209175
 20
258.9545108656252
 10
-62.03879875300768
 20
259.06619388170515
 10
-61.56767118160388
 20
259.17705713904377
 10
-61.09635124165453
 20
259.2870996966688
 10
-60.62484023093514
 20
259.3963206514554
 10
-60.153139447522214
 20
259.50471908798056
 10
-59.68125020080495
 20
259.6122941263165
 10
-59.209173821189175
 20
259.71904496604213
 10
-58.736911628495555
 20
259.8249707478544
 10
-58.26446496164662
 20
259.9300706850915
 10
-57.791835147823946
 20
260.03434392633056
 10
-57.319023526273234
 20
260.13778966188045
 10
-56.846031434743
 20
260.2404070627209
 10
-56.37286021236142
 20
260.3421952930749
 10
-55.8995112075905
 20
260.4431535475223
 10
-55.42598575967994
 20
260.54328096417396
 10
-54.952285225573185
 20
260.64257675105955
 10
-54.47841095135852
 20
260.74104005116703
 10
-54.004364295531765
 20
260.83867005296366
 10
-53.530146614535695
 20
260.9354659211985
 10
-53.055759267300715
 20
261.03142681834584
 10
-52.58120362099585
 20
261.12655193324775
 10
-52.10648103522791
 20
261.22084040236086
 10
-51.63159288607937
 20
261.31429142998843
 10
-51.156540546853286
 20
261.40690419205134
 10
-50.68132541499052
 20
261.49867797415556
 10
-50.20594888597256
 20
261.58961203943977
 10
-49.73041235810143
 20
261.67970565277653
 10
-49.25471723635793
 20
261.76895810143475
 10
-48.77886491903521
 20
261.8573686238595
 10
-48.30285681897865
 20
261.94493652316686
 10
-47.8266943393636
 20
262.0316610367152
 10
-47.35037889546141
 20
262.11754145399607
 10
-46.87391189923954
 20
262.20257703254214
 10
-46.397294766272694
 20
262.28676703551645
 10
-45.92052891802068
 20
262.3701107450251
 10
-45.443615770612055
 20
262.4526073978836
 10
-44.966556753608835
 20
262.5342562933446
 10
-44.4893532878219
 20
262.61505666466246
 10
-44.012006806126266
 20
262.6950078003884
 10
-43.53451873799717
 20
262.7741089534621
 10
-43.0568905171745
 20
262.8523593861996
 10
-42.579123583490635
 20
262.9297583820808
 10
-42.10121938500403
 20
263.00630525988373
 10
-41.62317939073653
 20
263.08199945557254
 10
-41.14500506129314
 20
263.1568403400672
 10
-40.66669786840515
 20
263.230827342334
 10
-40.18825927963121
 20
263.3039598521737
 10
-39.70969076651004
 20
263.37623727199446
 10
-39.2309938044328
 20
263.4476590166879
 10
-38.75216986499478
 20
263.51822446208075
 10
-38.273220430436844
 20
263.587933042213
 10
-37.79414697530416
 20
263.65678412456606
 10
-37.31495098501095
 20
263.72477713730643
 10
-36.83563394097526
 20
263.7919114663646
 10
-36.35619732898067
 20
263.85818651341077
 10
-35.87664263822863
 20
263.92360168983834
 10
-35.39697135512206
 20
263.9881563708071
 10
-34.91718497583021
 20
264.05184998791316
 10
-34.43728498976563
 20
264.1146819060109
 10
-33.957272896870506
 20
264.17665155316456
 10
-33.477150193625484
 20
264.23775831439565
 10
-32.99691838814753
 20
264.2980016493144
 10
-32.51657899882889
 20
264.3573810853502
 10
-32.036133541856294
 20
264.4158961192075
 10
-31.555583541679017
 20
264.47354630221093
 10
-31.074930516252085
 20
264.5303311186249
 10
-30.594175992934876
 20
264.5862501179858
 10
-30.113321495060497
 20
264.6413028019485
 10
-29.632368550096423
 20
264.6954886932924
 10
-29.151318687661373
 20
264.74880731949656
 10
-28.67017343558523
 20
264.8012581765702
 10
-28.18893432920664
 20
264.8528408136866
 10
-27.70760289833071
 20
264.9035547128127
 10
-27.226180681657656
 20
264.95339942323227
 10
-26.7446692143394
 20
265.0023744439951
 10
-26.263070035750612
 20
265.05047929769427
 10
-25.781384687252974
 20
265.097713509514
 10
-25.299614709151815
 20
265.1440765753491
 10
-24.8177616485557
 20
265.1895680429146
 10
-24.335827047998883
 20
265.2341873925791
 10
-23.853812460865562
 20
265.277934201921
 10
-23.37171944958355
 20
265.3208081333071
 10
-22.889549583589773
 20
265.36280891693184
 10
-22.40730443307551
 20
265.4039362835391
 10
-21.924985566679155
 20
265.4441899364957
 10
-21.442594558046654
 20
265.4835696296132
 10
-20.960132976070653
 20
265.522075049183
 10
-20.47760239618871
 20
265.55970595231
 10
-19.995004390319686
 20
265.59646204161766
 10
-19.5123405334086
 20
265.632343047387
 10
-19.029612401120183
 20
265.6673486986713
 10
-18.546821568168465
 20
265.70147869891554
 10
-18.06396961364923
 20
265.7347328008325
 10
-17.58105811287951
 20
265.7671106895241
 10
-17.098088647024863
 20
265.7986121224083
 10
-16.615062794421352
 20
265.82923680062004
 10
-16.131982136311272
 20
265.8589844547811
 10
-15.64884825467521
 20
265.887854812623
 10
-15.165662731084064
 20
265.91584757796716
 10
-14.682427150914117
 20
265.9429625028532
 10
-14.199143099414352
 20
265.96919932147995
 10
-13.715812173979318
 20
265.9945579808059
 10
-13.232435970108803
 20
266.0190383938069
 10
-12.749016084865984
 20
266.0426405047097
 10
-12.265554114958555
 20
266.0653642532302
 10
-11.782051656014145
 20
266.0872095568152
 10
-11.298510305737093
 20
266.1081763799037
 10
-10.814931658832975
 20
266.128264619214
 10
-10.331317313187903
 20
266.1474742464803
 10
-9.84766886421015
 20
266.1658051738012
 10
-9.36398790864917
 20
266.1832573461083
 10
-8.88027604301022
 20
266.1998307022501
 10
-8.396534863166574
 20
266.21552516034393
 10
-7.912765966543698
 20
266.23034068435624
 10
-7.428970948540993
 20
266.24427717050156
 10
-6.945151406927295
 20
266.2573345911952
 10
-6.461308937825557
 20
266.2695128576565
 10
-5.977445138428642
 20
266.2808119154807
 10
-5.493561605840265
 20
266.2912317026567
 10
-5.0096599369452335
 20
266.30077213803594
 10
-4.5257417299911165
 20
266.3094332033071
 10
-4.041808582748179
 20
266.31721485328455
 10
-3.557862094271575
 20
266.3241171257891
 10
-3.073903862483422
 20
266.3301399959247
 10
-2.5899354857219357
 20
266.3352834747183
 10
-2.1059585620708656
 20
266.3395475640845
 10
-1.6219746894072131
 20
266.3429322482521
 10
-1.137985465839919
 20
266.3454375550611
 10
-0.6539924890566489
 20
266.34706344458215
 10
-0.16999735704694258
 20
266.3478099554144
 10
0.313998332427002
 20
266.3476770619109
 10
0.7979929815330594
 20
266.34666477586705
 10
1.2819849924643916
 20
266.34477309843845
 10
1.7659727672896548
 20
266.3420020146171
 10
2.249954708287235
 20
266.3383515518618
 10
2.733929217178669
 20
266.3338216698621
 10
3.2178946962840573
 20
266.32841240798155
 10
3.7018495472071153
 20
266.32212373981474
 10
4.185792171865173
 20
266.3149556779283
 10
4.6697209719375605
 20
266.3069082228702
 10
5.153634349007731
 20
266.29798137772724
 10
5.6375307060465145
 20
266.28817522023616
 10
6.121408444852889
 20
266.27748976419656
 10
6.605265969047987
 20
266.2659251042124
 10
7.089101680850065
 20
266.2534812675995
 10
7.5729139835129775
 20
266.2401583221562
 10
8.056701280038133
 20
266.2259563219899
 10
8.540461973053311
 20
266.2108753080985
 10
9.024194466474512
 20
266.1949153613738
 10
9.507897162047557
 20
266.17807649602076
 10
9.991568464243556
 20
266.1603588065798
 10
10.475206775142937
 20
266.1417623198616
 10
10.958810498314481
 20
266.122287104402
 10
11.442378036732375
 20
266.10193321353415
 10
11.925907792779892
 20
266.0807006890126
 10
12.40939817046135
 20
266.05858961095333
 10
12.892847570717342
 20
266.0355999943417
 10
13.3762543980743
 20
266.01173193333136
 10
13.859617053696049
 20
265.98698545438435
 10
14.34293394072603
 20
265.9613606271077
 10
14.826203462515219
 20
265.93485752581864
 10
15.309424023793254
 20
265.9074762506846
 10
15.79259403171724
 20
265.87921694211127
 10
16.27571188986321
 20
265.8500796769259
 10
16.75877600655263
 20
265.8200646099195
 10
17.241784786103295
 20
265.78917182822613
 10
17.724736635639047
 20
265.75740146293185
 10
18.207629961217723
 20
265.724753626892
 10
18.690463168325916
 20
265.6912284244354
 10
19.173234664947806
 20
265.65682599514935
 10
19.65594285467407
 20
265.62154641662295
 10
20.138586146644904
 20
265.5853898432015
 10
20.621162945020604
 20
265.5483563616412
 10
21.10367165730349
 20
265.5104461037533
 10
21.586110689467375
 20
265.4716591816259
 10
22.06847844681938
 20
265.4319957003535
 10
22.550773337380026
 20
265.3914557987499
 10
23.032993764000782
 20
265.3500395552144
 10
23.515138135853245
 20
265.30774712370754
 10
23.997204856193978
 20
265.2645785910964
 10
24.479192334145193
 20
265.22053411168616
 10
24.961098979789636
 20
265.1756138494635
 10
25.442923203003165
 20
265.1298179653621
 10
25.924663416848684
 20
265.0831466524667
 10
26.406318028789922
 20
265.0356000450163
 10
26.88788545365101
 20
264.98717835156515
 10
27.369364099630175
 20
264.9378817132184
 10
27.850752379727705
 20
264.8877103183006
 10
28.332048704679476
 20
264.8366643324223
 10
28.813251484776167
 20
264.7847439172374
 10
29.29435913362931
 20
264.731949265002
 10
29.77537005856018
 20
264.67828051072723
 10
30.256282674957312
 20
264.62373786251464
 10
30.73709539061688
 20
264.5683214611193
 10
31.217806618755713
 20
264.5120314955973
 10
31.698414769753537
 20
264.4548681308236
 10
32.17891825356038
 20
264.39683152924846
 10
32.65931548355071
 20
264.33792188238647
 10
33.13960486614872
 20
264.2781393261142
 10
33.61978481662236
 20
264.2174840689016
 10
34.09985374503857
 20
264.1559562781202
 10
34.5798100719594
 20
264.0935562034661
 10
35.059652215102865
 20
264.030284071058
 10
35.539378592149255
 20
263.9661401060797
 10
36.01898762459857
 20
263.90112456119067
 10
36.498477726729156
 20
263.8352376349863
 10
36.9778473225556
 20
263.7684795966459
 10
37.45709482690061
 20
263.70085064820086
 10
37.936218661672854
 20
263.632351042074
 10
38.41521724501645
 20
263.5629810035531
 10
38.894088995137594
 20
263.4927407585088
 10
39.372832334078915
 20
263.4216305587415
 10
39.851445676089156
 20
263.34965060360645
 10
40.329927445768504
 20
263.2768011617955
 10
40.808276057565664
 20
263.2030824349926
 10
41.28648993371132
 20
263.1284946763246
 10
41.76456749199326
 20
263.0530381103451
 10
42.2425071503911
 20
262.9767129637131
 10
42.72030733070354
 20
262.89951948748364
 10
43.197966446552385
 20
262.82145788282725
 10
43.67548292671755
 20
262.7425284444155
 10
44.15285519363496
 20
262.66273142780443
 10
44.63008167879962
 20
262.582067142411
 10
45.107160808834806
 20
262.5005358676027
 10
45.58409101103419
 20
262.41813788633306
 10
46.060870716756874
 20
262.33487350435934
 10
46.53749834884198
 20
262.25074297821334
 10
47.013972341930945
 20
262.1657466312077
 10
47.49029111889297
 20
262.0798847199187
 10
47.966453112183785
 20
261.9931575543963
 10
48.44245674861927
 20
261.9055654132185
 10
48.918300455902916
 20
261.81710858006176
 10
49.393982665701934
 20
261.7277873598666
 10
49.86950180071316
 20
261.6376020099828
 10
50.34485629596231
 20
261.5465528532786
 10
50.82004457374625
 20
261.4546401460633
 10
51.29506506673187
 20
261.36186419913923
 10
51.76991620115304
 20
261.268225290438
 10
52.24459640437545
 20
261.17372370449425
 10
52.719104107736115
 20
261.0783597462567
 10
53.193437736011845
 20
260.98213368863884
 10
53.66759572960143
 20
260.88504588203057
 10
54.141576515465324
 20
260.7870966109297
 10
54.61537853190563
 20
260.68828621527933
 10
55.08900021010944
 20
260.58861500073857
 10
55.56243998283271
 20
260.48808328100216
 10
56.03569628664664
 20
260.38669138797746
 10
56.50876754850423
 20
260.2844396091662
 10
56.98165220882405
 20
260.1813282950622
 10
57.454348693524054
 20
260.07735772994374
 10
57.92685544070504
 20
259.97252825451415
 10
58.39917088048584
 20
259.8668401738512
 10
58.87129344487052
 20
259.76029380253914
 10
59.34322156948164
 20
259.65288947189885
 10
59.81495367998211
 20
259.5446274704535
 10
60.28648821594153
 20
259.43550814849704
 10
60.75782360148006
 20
259.3255317903109
 10
61.22895827377064
 20
259.21469873759287
 10
61.69989066109895
 20
259.1030092950789
 10
62.17061919476491
 20
258.99046378167424
 10
62.641142322805685
 20
258.87706258686194
 10
63.111458494701765
 20
258.7628061057959
 10
63.581566175198276
 20
258.64769479550637
 10
64.05146381322236
 20
258.53172904709226
 10
64.5211498722301
 20
258.4149093098835
 10
64.99062280643126
 20
258.2972359947747
 10
65.45988107326448
 20
258.1787095249587
 10
65.92892313383845
 20
258.05933033724784
 10
66.39774743932537
 20
257.93909882875687
 10
66.86635245618179
 20
257.8180154556969
 10
67.33473663409724
 20
257.6960806085952
 10
67.80289843819963
 20
257.5732947371113
 10
68.27083632339964
 20
257.44965825117043
 10
68.73854874826453
 20
257.32517157441737
 10
69.20603417470987
 20
257.1998351426456
 10
69.67329105448684
 20
257.07364935355196
 10
70.14031785498072
 20
256.9466146626652
 10
70.60711302587181
 20
256.8187314600818
 10
71.0736750332141
 20
256.6900001959277
 10
71.54000233217415
 20
256.56042128053656
 10
72.00609338704514
 20
256.4299951572385
 10
72.47194666904898
 20
256.29872229361445
 10
72.93756063933192
 20
256.1666031210578
 10
73.40293377518003
 20
256.03363812749706
 10
73.86806453541917
 20
255.89982773565427
 10
74.33295139639836
 20
255.7651724291364
 10
74.79759282237576
 20
255.62967264923662
 10
75.26198728242358
 20
255.493328853767
 10
75.72613324839377
 20
255.3561415097311
 10
76.19002918183187
 20
255.21811104921858
 10
76.65367356070973
 20
255.07923795957845
 10
77.11706484359827
 20
254.93952266322745
 10
77.58020150758917
 20
254.79896564435748
 10
78.04308201660143
 20
254.65756734358064
 10
78.50570483991385
 20
254.51532821945344
 10
78.96806844915135
 20
254.37224873826446
 10
79.43017130552884
 20
254.22832933301274
 10
79.8920118869493
 20
254.0835704906884
 10
80.35358865098178
 20
253.93797263363155
 10
80.81490007554576
 20
253.79153624937064
 10
81.27594463398604
 20
253.64426181096917
 10
81.7367208122385
 20
253.49614983093414
 10
82.19722709851655
 20
253.34720082831893
 10
82.6574619708564
 20
253.1974152904142
 10
83.11742392449736
 20
253.0467937571304
 10
83.57711143370811
 20
252.89533670392967
 10
84.03652299363917
 20
252.74304466970756
 10
84.49565708428476
 20
252.5899181471982
 10
84.95451219249372
 20
252.43595764980637
 10
85.41308680676656
 20
252.2811636956796
 10
85.87137940540673
 20
252.12553677281275
 10
86.32938848411375
 20
251.96907742054682
 10
86.78711251669205
 20
251.81178611408473
 10
87.24454999890125
 20
251.65366339290455
 10
87.70169941015517
 20
251.49470974911898
 10
88.15855923738084
 20
251.33492569689668
 10
88.61512796861201
 20
251.17431175373088
 10
89.07140408170022
 20
251.01286840856653
 10
89.5273860720693
 20
250.8505962004378
 10
89.98307241350903
 20
250.68749560787734
 10
90.43846161477579
 20
250.52356720753426
 10
90.8935521740991
 20
250.35881154635683
 10
91.34834259829738
 20
250.1932291948444
 10
91.80283139501931
 20
250.02682072530146
 10
92.25701706208716
 20
249.85958668297692
 10
92.71089811533528
 20
249.69152766183038
 10
93.16447304716385
 20
249.52264419222823
 10
93.61774037444751
 20
249.3529368703396
 10
94.07069859554508
 20
249.18240624251075
 10
94.52334621804893
 20
249.01105287976074
 10
94.97568174976206
 20
248.838877353517
 10
95.42770368875465
 20
248.66588020973865
 10
95.87941055121435
 20
248.49206204183358
 10
96.33080082898418
 20
248.31742337996013
 10
96.78187303952282
 20
248.14196482086746
 10
97.2326256804907
 20
247.96568691034253
 10
97.68305725954392
 20
247.78859022018594
 10
98.1331662838955
 20
247.61067532123167
 10
98.5829512511591
 20
247.43194276042738
 10
99.03241067877721
 20
247.25239313498722
 10
99.48154307251113
 20
247.0720270129653
 10
99.93034697185792
 20
246.89084504641394
 10
100.37882089554344
 20
246.70884783530414
 10
100.82696337338739
 20
246.52603600682968
 10
101.27477293437273
 20
246.34241018573096
 10
101.7222480983524
 20
246.15797097431889
 10
102.1693874037254
 20
245.97271901972638
 10
102.61618936302926
 20
245.78665490644215
 10
103.06265251707673
 20
245.59977928694167
 10
103.50877538450939
 20
245.41209276040914
 10
103.95455649589398
 20
245.22359595454813
 10
104.39999438023116
 20
245.0342894932605
 10
104.8450875576024
 20
244.84417397957853
 10
105.28983456665553
 20
244.65325006010818
 10
105.73423391927699
 20
244.46151831918996
 10
106.17828415684144
 20
244.26897940988022
 10
106.62198379716972
 20
244.07563393087761
 10
107.06533137087533
 20
243.88148251068984
 10
107.50832540625515
 20
243.68652577269302
 10
107.9509644249768
 20
243.4907643255845
 10
108.39324698167374
 20
243.29419885273202
 10
108.83517160967591
 20
243.0968299893189
 10
109.27673687333866
 20
242.89865843988596
 10
109.71794131232666
 20
242.69968485344967
 10
110.15878348027583
 20
242.49990990997827
 10
110.59926192798532
 20
242.29933428287003
 10
111.03937519813243
 20
242.09795862762732
 10
111.47912185219727
 20
241.89578364072503
 10
111.91850042338899
 20
241.6928099570434
 10
112.35750947717618
 20
241.48903828143784
 10
112.79614755289195
 20
241.28446926222847
 10
113.23441320477089
 20
241.07910357992918
 10
113.67230498338496
 20
240.8729419071891
 10
114.10982143150486
 20
240.66598490028827
 10
114.54696111063382
 20
240.4582332552564
 10
114.9837225531261
 20
240.24968760693642
 10
115.42010432487136
 20
240.04034866081824
 10
115.85610496415191
 20
239.83021706486446
 10
116.29172302512497
 20
239.6192935004663
 10
116.7269570605303
 20
239.40757864626158
 10
117.16180563410582
 20
239.1950732036756
 10
117.59626733521664
 20
238.9817779263107
 10
118.03034072352494
 20
238.7676935068757
 10
118.46402439385214
 20
238.55282070922019
 10
118.89731691222174
 20
238.33716023854745
 10
119.33021686184695
 20
238.12071283454804
 10
119.76272282083498
 20
237.9034792263545
 10
120.19483336056354
 20
237.68546012961
 10
120.62654707123251
 20
237.4666562971119
 10
121.05786251245927
 20
237.24706842118132
 10
121.48877828033608
 20
237.02669726588547
 10
121.91929294062413
 20
236.80554353570957
 10
122.34940507730573
 20
236.5836079708077
 10
122.77911326832634
 20
236.36089129953606
 10
123.20841608532892
 20
236.1373942382534
 10
123.63731211856037
 20
235.91311753912854
 10
124.06579992709833
 20
235.68806189484246
 10
124.49387810741383
 20
235.46222806960677
 10
124.9215452243676
 20
235.23561676768676
 10
125.34879986458297
 20
235.00822873482076
 10
125.77564062045134
 20
234.78006472755558
 10
126.20206608266791
 20
234.551125499253
 10
126.6280748603622
 20
234.32141183746023
 10
127.05366553156301
 20
234.0909244719149
 10
127.4788367121536
 20
233.85966420234894
 10
127.90358698574312
 20
233.62763176889908
 10
128.32791495626486
 20
233.39482794909523
 10
128.75181921985913
 20
233.16125350616085
 10
129.175298367523
 20
232.92690919414355
 10
129.5983510082971
 20
232.69179579975952
 10
130.020975720019
 20
232.45591405369794
 10
130.44317111862546
 20
232.21926475521667
 10
130.86493578691994
 20
231.98184864445003
 10
131.28626832897515
 20
231.7436664997105
 10
131.70716734004134
 20
231.50471908384435
 10
132.12763141077005
 20
231.26500715196053
 10
132.54765914942067
 20
231.0245314903552
 10
132.96724913299877
 20
230.7832928310638
 10
133.38639997682645
 20
230.54129197328783
 10
133.80511026769537
 20
230.29852966697626
 10
134.22337863812976
 20
230.0550067412789
 10
134.6412037173503
 20
229.81072401936217
 10
135.058584130875
 20
229.5656823178905
 10
135.47551852169448
 20
229.31988248303887
 10
135.89200550185456
 20
229.07332530828972
 10
136.30804372222158
 20
228.8260116526714
 10
136.7236317991624
 20
228.5779423168637
 10
137.1387683725801
 20
228.32911814104196
 10
137.5534520717441
 20
228.0795399474591
 10
137.96768152282158
 20
227.82920855325835
 10
138.38145536895175
 20
227.5781248036312
 10
138.79477222234098
 20
227.32628949282366
 10
139.2076307341705
 20
227.0737034792148
 10
139.62002952028323
 20
226.8203675633409
 10
140.03196722105622
 20
226.5662825859486
 10
140.44344246512617
 20
226.31144936877763
 10
140.85445387865323
 20
226.05586872983744
 10
141.26500010424422
 20
225.79954151375483
 10
141.6750797536307
 20
225.54246851593575
 10
142.08469148308907
 20
225.28465060318663
 10
142.49383393326426
 20
225.02608861736078
 10
142.902505775388
 20
224.76678344868014
 10
143.31070566808245
 20
224.5067359671314
 10
143.71843226842324
 20
224.24594704016224
 10
144.1256842496316
 20
223.9844175602495
 10
144.53246025441103
 20
223.72214837220216
 10
144.9387589649148
 20
223.45914038201158
 10
145.34457902657553
 20
223.19539443869326
 10
145.7499191116746
 20
222.9309114326745
 10
146.15477787871288
 20
222.66569223311333
 10
146.5591539853419
 20
222.39973770796115
 10
146.96304610475536
 20
222.13304874879688
 10
147.36645287976006
 20
221.8656262012372
 10
147.76937299267496
 20
221.59747097069527
 10
148.17180508828062
 20
221.3285839061426
 10
148.57374783926664
 20
221.05896589861948
 10
148.97519990334555
 20
220.78861781688585
 10
149.37615993811525
 20
220.51754052981883
 10
149.7766266160838
 20
220.24573492854617
 10
150.1765985875721
 20
219.97320187170735
 10
150.57607456895718
 20
219.69994231497242
 10
150.97505324397358
 20
219.4259571658517
 10
151.37353332567545
 20
219.15124737435463
 10
151.77151351122805
 20
218.8758138670016
 10
152.16899249877085
 20
218.59965757152912
 10
152.5659690009958
 20
218.32277943632184
 10
152.96244170091617
 20
218.04518036698767
 10
153.3584093213993
 20
217.76686132594605
 10
153.75387054648522
 20
217.48782322006412
 10
154.14882409062483
 20
217.2080669993119
 10
154.5432686511175
 20
216.9275935891986
 10
154.93720292703514
 20
216.64640391773332
 10
155.33062563129062
 20
216.36449893220964
 10
155.72353544736643
 20
216.08187953882455
 10
156.11593109856483
 20
215.79854669920735
 10
156.50781126856273
 20
215.51450132000437
 10
156.89917467257087
 20
215.22974435155402
 10
157.29002000736025
 20
214.9442767187939
 10
157.68034597231286
 20
214.65809935043777
 10
158.07015128555113
 20
214.37121320080217
 10
158.45943465211602
 20
214.0836192064285
 10
158.84819481979653
 20
213.79531836163238
 10
159.2364304961544
 20
213.50631160618946
 10
159.62414042160933
 20
213.21659992401052
 10
160.01132331700214
 20
212.92618427256218
 10
160.3979779068331
 20
212.63506561419024
 10
160.78410292810716
 20
212.34324492774144
 10
161.16969708919936
 20
212.05072315414995
 10
161.55475913832788
 20
211.75750128693352
 10
161.93928778270202
 20
211.46358026565613
 10
162.32328176355188
 20
211.1689610745657
 10
162.70673980118139
 20
210.8736446705761
 10
163.08966062045516
 20
210.57763201670798
 10
163.47204295793634
 20
210.2809240911842
 10
163.85388552191887
 20
209.9835218359579
 10
164.23518706042412
 20
209.68542624422318
 10
164.61594627969134
 20
209.38663825581227
 10
164.9961619211707
 20
209.08715885578408
 10
165.37583270404406
 20
208.7869890010391
 10
165.75495736345027
 20
208.4861296689659
 10
166.1335346708828
 20
208.1845818827524
 10
166.51156337401034
 20
207.88234663549082
 10
166.889042260348
 20
207.57942496996526
 10
167.26597007513826
 20
207.27581787598146
 10
167.64234560030633
 20
206.9715263888613
 10
168.0181675943391
 20
206.6665515146756
 10
168.39343482246008
 20
206.36089426777644
 10
168.76814606014077
 20
206.0545556749671
 10
169.14230005569922
 20
205.74753672979344
 10
169.5158955971157
 20
205.4398384741577
 10
169.8889314293379
 20
205.13146189760354
 10
170.26140633521027
 20
204.82240803566555
 10
170.6333190727171
 20
204.51267789382436
 10
171.0046684075664
 20
204.20227248699754
 10
171.37545311481665
 20
203.89119284132434
 10
171.7456719428408
 20
203.5794399512716
 10
172.1153236794713
 20
203.2670148583569
 10
172.48440706875664
 20
202.95391855236213
 10
172.85292089395452
 20
202.6401520696001
 10
173.22086392291112
 20
202.32571642831118
 10
173.58823495508926
 20
202.01061268382304
 10
173.9550328014406
 20
201.69484190463214
 10
174.32125624698006
 20
201.3784051289275
 10
174.68690411617968
 20
201.06130344045232
 10
175.05197518922046
 20
200.7435378716509
 10
175.416468286906
 20
200.42510950164663
 10
175.7803822024861
 20
200.106019377803
 10
176.1437157392422
 20
199.78626855895604
 10
176.50646770814294
 20
199.46585811257808
 10
176.86863689475396
 20
199.14478907738726
 10
177.23022212383367
 20
198.8230625363606
 10
177.59122217511552
 20
198.5006795218221
 10
177.95163587022378
 20
198.17764111317473
 10
178.3114620017298
 20
197.8539483573555
 10
178.6706993733149
 20
197.52960231385356
 10
179.02934679535846
 20
197.20460404963998
 10
179.38740305341082
 20
196.87895460446083
 10
179.7448669719322
 20
196.55265506105323
 10
180.10173732977162
 20
196.22570645230098
 10
180.45801296194531
 20
195.89810987267066
 10
180.81369269639004
 20
195.56986640879038
 10
181.16877537593228
 20
195.24097716335493
 10
181.52325984930826
 20
194.91144324519635
 10
181.87714494126453
 20
194.5812657372203
 10
182.23042951537076
 20
194.25044576384448
 10
182.58311238895956
 20
193.91898439993432
 10
182.93519242406904
 20
193.58688276795803
 10
183.2866684508475
 20
193.25414195638405
 10
183.63753931302878
 20
192.92076306809338
 10
183.98780385919656
 20
192.58674721100613
 10
184.33746091459147
 20
192.25209546859483
 10
184.68650934292913
 20
191.91680896459843
 10
185.03494796098025
 20
191.5808887738739
 10
185.3827756315369
 20
191.2443360192052
 10
185.7299911839316
 20
190.9071517887705
 10
186.07659346224798
 20
190.56933718615576
 10
186.42258131434627
 20
190.23089331891148
 10
186.76795356541453
 20
189.89182127160967
 10
187.11270907901576
 20
189.55212216812342
 10
187.45684668678905
 20
189.21179710000882
 10
187.8003652923572
 20
188.87084723170068
 10
188.14326376664746
 20
188.5292736943688
 10
188.4855409967654
 20
188.18707763533274
 10
188.82719587272203
 20
187.84426020459338
 10
189.16822726280137
 20
187.50082253038656
 10
189.50863407323732
 20
187.1567657785314
 10
189.84841516216323
 20
186.81209106710284
 10
190.18756943664192
 20
186.46679956244324
 10
190.52609576731197
 20
186.12089239493713
 10
190.86399304220012
 20
185.7743707120514
 10
191.2012601511034
 20
185.42723566291085
 10
191.5378959628313
 20
185.0794883762923
 10
191.8738993837176
 20
184.73113001735393
 10
192.2092692713156
 20
184.382161704206
 10
192.54400453346193
 20
184.03258460347263
 10
192.87810403994294
 20
183.6823998453094
 10
193.21156667917268
 20
183.33160857786757
 10
193.5443913401811
 20
182.98021194996485
 10
193.8765768921408
 20
182.62821109180987
 10
194.20812225666916
 20
182.27560718324509
 10
194.53902632678367
 20
181.92240137714646
 10
194.86928804882072
 20
181.56859487631016
 10
195.19890632961298
 20
181.21418884638044
 10
195.52788009607792
 20
180.85918447167725
 10
195.8562082747617
 20
180.50358293601118
 10
196.18388977298878
 20
180.14738540541143
 10
196.51092353488838
 20
179.79059307972722
 10
196.83730845466556
 20
179.43320711297588
 10
197.1630434797585
 20
179.07522870788569
 10
197.48812751643177
 20
178.7166590295992
 10
197.81255949232101
 20
178.35749926277938
 10
198.13633833348032
 20
177.9977505906482
 10
198.45946294757428
 20
177.6374141799895
 10
198.78193227857946
 20
177.2764912302589
 10
199.10374521989326
 20
176.91498289580176
 10
199.42490071954194
 20
176.55289037984042
 10
199.74539768269537
 20
176.1902148476108
 10
200.06523503721024
 20
175.82695748468723
 10
200.38441170864937
 20
175.46311947475837
 10
200.70292662129924
 20
175.09870200058836
 10
201.020778754528
 20
174.73370629312365
 10
201.33796703775107
 20
174.3681335396899
 10
201.6544904565914
 20
174.00198497641335
 10
201.97034795228558
 20
173.63526180087084
 10
202.28553849025627
 20
173.2679652315464
 10
202.6000610320408
 20
172.9000964835173
 10
202.913914522692
 20
172.53165675782145
 10
203.2270979427052
 20
172.1626472857257
 10
203.53961022088333
 20
171.7930692546507
 10
203.85145034364336
 20
171.42292390090898
 10
204.16261725130806
 20
171.0522124219504
 10
204.47310990973287
 20
170.68093603687169
 10
204.78292727962227
 20
170.30909596053954
 10
205.0920683061035
 20
169.93669339503631
 10
205.400531969198
 20
169.5637295715941
 10
205.70831719660598
 20
169.19020567834093
 10
206.01542297507197
 20
168.81612295237633
 10
206.32184824352237
 20
168.441482591651
 10
206.62759196895345
 20
168.06628581743655
 10
206.93265314129923
 20
167.69053386979806
 10
207.23703076690907
 20
167.31422800210433
 10
207.54072388819492
 20
166.93736949666106
 10
207.84373149490787
 20
166.5599595930813
 10
208.14605263754865
 20
166.1819995796449
 10
208.44768631733672
 20
165.8034907048921
 10
208.74863156405826
 20
165.42443424006632
 10
209.04888740002295
 20
165.04483145026524
 10
209.3484528341373
 20
164.66468358990022
 10
209.64732690929407
 20
164.2839919400567
 10
209.9455086151209
 20
163.90275773989325
 10
210.24299700341217
 20
163.52098227723093
 10
210.5397910749328
 20
163.13866679994712
 10
210.83588986041104
 20
162.75581257925907
 10
211.13129238176447
 20
162.37242087950597
 10
211.42599764849209
 20
161.98849295551148
 10
211.72000470345526
 20
161.60403008774077
 10
212.0133125356512
 20
161.21903351550392
 10
212.30592019768778
 20
160.833504526747
 10
212.59782669044932
 20
160.4474443701166
 10
212.8890310683406
 20
160.06085433486916
 10
213.17953239650873
 20
159.67373571816728
 10
213.46932972969003
 20
159.28608980919066
 10
213.75842215552535
 20
158.8979179214918
 10
214.0468087074173
 20
158.50922132803268
 10
214.33448848398533
 20
158.12000135008873
 10
214.62146052948125
 20
157.73025926846924
 10
214.9077239211753
 20
157.33999638827646
 10
215.19327772498139
 20
156.94921400610275
 10
215.47812099664836
 20
156.5579134110723
 10
215.76225282383226
 20
156.16609591545628
 10
216.04567224060938
 20
155.77376279260614
 10
216.3283783458825
 20
155.3809153627706
 10
216.61037018361316
 20
154.98755490651996
 10
216.89164683194434
 20
154.5936827290467
 10
217.17220735625597
 20
154.1993001263831
 10
217.45205081284124
 20
153.80440838819464
 10
217.73117628888963
 20
153.40900882609637
 10
218.0095828186935
 20
153.01310271444044
 10
218.28726950214806
 20
152.6166913739
 10
218.56423540304
 20
152.2197760997881
 10
218.84047963654808
 20
151.8223582233216
 10
219.11600130426783
 20
151.42443906607542
 10
219.3907994999579
 20
151.02601994412984
 10
219.6648733473746
 20
150.6271021941394
 10
219.93822191823682
 20
150.22768711693033
 10
220.21084434839875
 20
149.82777605723774
 10
220.4827397177901
 20
149.42737032151865
 10
220.75390714303953
 20
149.02647124123422
 10
221.024345725276
 20
148.62508013728478
 10
221.29405455891978
 20
148.22319832612058
 10
221.5630327673176
 20
147.82082714362903
 10
221.8312794225374
 20
147.4179678914641
 10
222.0987936603195
 20
147.01462191383675
 10
222.3655745599378
 20
146.61079051748152
 10
222.6316212385754
 20
146.20647503439636
 10
222.8969327964507
 20
145.80167678546866
 10
223.1615083282316
 20
145.39639708815636
 10
223.42534695643042
 20
144.99063727824287
 10
223.6884477552866
 20
144.58439866029858
 10
223.95080989188662
 20
144.17768259921132
 10
224.21243249751132
 20
143.7704904365922
 10
224.47331474321862
 20
143.36282353954488
 10
224.73345578179757
 20
142.9546832632591
 10
224.99285476185986
 20
142.5460709601857
 10
225.25151085892318
 20
142.1369879997255
 10
225.50942319901336
 20
141.7274357198921
 10
225.76659097102637
 20
141.31741549828877
 10
226.02301330651548
 20
140.9069286763927
 10
226.27868937757938
 20
140.49597662107504
 10
226.533618336548
 20
140.0845606868111
 10
226.78779933277076
 20
139.6726822262876
 10
227.04123154136312
 20
139.2603426080886
 10
227.29391408878914
 20
138.84754317093623
 10
227.54584616385068
 20
138.4342852918384
 10
227.79702689749485
 20
138.02057031250254
 10
228.04745546245215
 20
137.60639960020146
 10
228.29713101017265
 20
137.1917745093715
 10
228.5460526903484
 20
136.77669639358223
 10
228.79421967984987
 20
136.3611666228157
 10
229.0416311358327
 20
135.9451865553551
 10
229.28828629464178
 20
135.52875759657817
 10
229.53418433467345
 20
135.1118811172847
 10
229.77932447751593
 20
134.69455851372103
 10
230.02370592210198
 20
134.27679116862825
 10
230.26732786700805
 20
133.85858046450502
 10
230.5101895343884
 20
133.43992779748015
 10
230.7522900996767
 20
133.0208345365268
 10
230.99362879966637
 20
132.60130208608362
 10
231.23420481245634
 20
132.18133181670748
 10
231.47401736058603
 20
131.76092512451018
 10
231.71306564239444
 20
131.34008339172718
 10
231.95134885712724
 20
130.91880800120413
 10
232.1888662264005
 20
130.4971003484624
 10
232.42561692603746
 20
130.07496180330884
 10
232.66160019262338
 20
129.65239376976862
 10
232.89681520356436
 20
129.2293976188349
 10
233.13126118197974
 20
128.80597474714014
 10
233.36493732522885
 20
128.38212653711028
 10
233.59784283628278
 20
127.95785437447755
 10
233.8299769702843
 20
127.53315967365731
 10
234.06133895418188
 20
127.10804383358246
 10
234.29192807537174
 20
126.68250828598812
 10
234.5217435617503
 20
126.25655443015253
 10
234.7507846883534
 20
125.83018369076812
 10
234.9790507030324
 20
125.40339747774549
 10
235.20654085729106
 20
124.97619720293464
 10
235.43325442267542
 20
124.54858428877196
 10
235.65919062703466
 20
124.1205601344925
 10
235.8843487578533
 20
123.69212617083812
 10
236.10872804265793
 20
123.26328379695545
 10
236.3323277573882
 20
122.83403443742705
 10
236.5551471492136
 20
122.40437950179768
 10
236.77718547027843
 20
121.9743204023019
 10
236.99844199150152
 20
121.54385856090542
 10
237.2189159411146
 20
121.11299537772284
 10
237.43860660631833
 20
120.68173228319954
 10
237.65751321390664
 20
120.25007067704536
 10
237.87563504038067
 20
119.81801198441093
 10
238.09297133646626
 20
119.3855576174886
 10
238.30952139416732
 20
118.95270900933673
 10
238.52528453915522
 20
118.51946760972037
 10
238.7402600556929
 20
118.08583484761864
 10
238.95444728647666
 20
117.65181218087092
 10
239.16784551351026
 20
117.21740103715516
 10
239.3804540699498
 20
116.78260286925152
 10
239.59227225712496
 20
116.34741911418865
 10
239.8032993841996
 20
115.91185121279254
 10
240.01353477666134
 20
115.47590061369957
 10
240.2229777195687
 20
115.03956874601157
 10
240.43162755568574
 20
114.60285706654616
 10
240.63948356666106
 20
114.16576700283495
 10
240.84654508658843
 20
113.72830000744767
 10
241.05281141611502
 20
113.29045751705412
 10
241.25828186509733
 20
112.85224097277347
 10
241.4629557583893
 20
112.41365182277833
 10
241.66683238150154
 20
111.9746914969698
 10
241.86991107692185
 20
111.53536145184508
 10
242.07219112560435
 20
111.09566311549831
 10
242.27367186659598
 20
110.6555979429567
 10
242.4743526316098
 20
110.21516738585092
 10
242.67423277398177
 20
109.77437290566104
 10
242.8733116608333
 20
109.3332159699834
 10
243.07158862116742
 20
108.8916980291377
 10
243.26906304031525
 20
108.44982055871066
 10
243.46573424178013
 20
108.007585006539
 10
243.6616016042398
 20
107.56499284505182
 10
243.85666446975873
 20
107.12204553036885
 10
244.05092219252862
 20
106.67874452402047
 10
244.2443741391379
 20
106.23509129294666
 10
244.4370196391889
 20
105.79108728801336
 10
244.62885807783823
 20
105.34673398427748
 10
244.81988877802212
 20
104.90203282993798
 10
245.01011111916594
 20
104.45698529763806
 10
245.1995244424373
 20
104.01159284367931
 10
245.38812810255655
 20
103.5658569303181
 10
245.57592146527193
 20
103.11977902457559
 10
245.76290386049772
 20
102.67336057856213
 10
245.94907467292902
 20
102.22660306753482
 10
246.1344332297178
 20
101.77950794288724
 10
246.3189789434965
 20
101.3320766916506
 10
246.50271119645086
 20
100.88431078821127
 10
246.6856293858428
 20
100.43621171317753
 10
246.86773291867024
 20
99.98778095108263
 10
247.0490211673375
 20
99.53901997243818
 10
247.22949355831918
 20
99.08993026964879
 10
247.40914945519575
 20
98.64051330982693
 10
247.58798828074498
 20
98.1907705838965
 10
247.7660094162894
 20
97.74070356627278
 10
247.94321225963935
 20
97.29031373806266
 10
248.1195962169694
 20
96.8396025837257
 10
248.29516066103113
 20
96.38857157478719
 10
248.46990501784853
 20
95.93722220367934
 10
248.64382865018925
 20
95.48555593844685
 10
248.81693098133636
 20
95.0335742707015
 10
248.98921139147353
 20
94.58127867564679
 10
249.16066927872748
 20
94.12867063559956
 10
249.3313040481965
 20
93.67575163571017
 10
249.50111507276102
 20
93.2225231492464
 10
249.6701017911693
 20
92.76898667440985
 10
249.83826364325006
 20
92.31514370980793
 10
250.00560015032417
 20
91.86099578410776
 10
250.1721107891553
 20
91.40654440917021
 10
250.33779505612105
 20
90.95179110383899
 10
250.50265245334631
 20
90.49673738874561
 10
250.66668245216968
 20
90.04138477314804
 10
250.82988457571463
 20
89.58573478475587
 10
250.9922582833693
 20
89.12978892818936
 10
251.15380309785758
 20
88.6735487305211
 10
251.3145184956803
 20
88.21701570218049
 10
251.47440397440567
 20
87.76019136093257
 10
251.6334590359048
 20
87.30307722586086
 10
251.79168315250203
 20
86.84567480566614
 10
251.9490758474183
 20
86.38798562656778
 10
252.10563657982
 20
85.93001119262075
 10
252.2613648735004
 20
85.47175302998377
 10
252.4162602043693
 20
85.01321264838879
 10
252.57032207087187
 20
84.55439156521345
 10
252.72354997431307
 20
84.09529129872855
 10
252.87594339186697
 20
83.63591335915345
 10
253.02750186830139
 20
83.17625927910099
 10
253.1782248887109
 20
82.71633057135585
 10
253.32811200418632
 20
82.25612877029008
 10
253.47716271632424
 20
81.79565539396519
 10
253.62537655080868
 20
81.3349119682287
 10
253.7727530347792
 20
80.87390001928527
 10
253.91929166843397
 20
80.41262106470123
 10
254.0649920011223
 20
79.95107663763757
 10
254.2098535175875
 20
79.48926825080781
 10
254.35387576988518
 20
79.02719743812015
 10
254.49705825889023
 20
78.5648657174502
 10
254.6394005110814
 20
78.10227461471227
 10
254.7809020529082
 20
77.63942565581293
 10
254.92156238519658
 20
77.17632035892008
 10
255.06138105699415
 20
76.71296025694232
 10
255.20035755245314
 20
76.24934686326579
 10
255.33849142437683
 20
75.78548171205709
 10
255.47578217268887
 20
75.32136632176743
 10
255.61222932446154
 20
74.85700221910288
 10
255.74783241560206
 20
74.39239093346116
 10
255.88259099497296
 20
73.92753399809169
 10
256.0165046671416
 20
73.46243296230685
 10
256.1495729715825
 20
72.99708935652913
 10
256.2817955178355
 20
72.53150473119985
 10
256.41317186094517
 20
72.06568062109348
 10
256.5437015847187
 20
71.59961856911497
 10
256.6733842700122
 20
71.13332011723831
 10
256.80221947483
 20
70.6667868010777
 10
256.9302068035687
 20
70.20002016905259
 10
257.05734579527166
 20
69.7330217516269
 10
257.1836360603608
 20
69.26579309879415
 10
257.3090771530724
 20
68.79833574529074
 10
257.43366865794434
 20
68.33065123411443
 10
257.5574101550558
 20
67.86274110708841
 10
257.68030120299545
 20
67.39460690046174
 10
257.8023414057796
 20
66.9262501625117
 10
257.92353030181397
 20
66.45767242450692
 10
258.0438675022148
 20
65.98887523673224
 10
258.1633525602262
 20
65.5198601346557
 10
258.28198507481403
 20
65.0506286656088
 10
258.399764681368
 20
64.5811823860945
 10
258.51669100333527
 20
64.11152284951157
 10
258.6327637087008
 20
63.64165162018416
 10
258.74798239969516
 20
63.17157024602721
 10
258.862346752679
 20
62.70128029307337
 10
258.9758563845252
 20
62.23078331267459
 10
259.0885109456274
 20
61.76008086425614
 10
259.2003100789533
 20
61.28917450533144
 10
259.31125340886877
 20
60.81806578896479
 10
259.4213406032541
 20
60.34675627842314
 10
259.53057126401137
 20
59.87524752151104
 10
259.6389450684807
 20
59.40354108356889
 10
259.7464616328181
 20
58.93163851578246
 10
259.8531206082623
 20
58.459541377426106
 10
259.95892163708965
 20
57.98725122572974
 10
260.0638643443783
 20
57.5147696141585
 10
260.16794839771364
 20
57.042098105676786
 10
260.27117339848724
 20
56.56923824874134
 10
260.3735390248527
 20
56.09619160874035
 10
260.47504490055434
 20
55.62295973927634
 10
260.57569070808796
 20
55.14954420668021
 10
260.6754761230598
 20
54.67594657573147
 10
260.7744008052913
 20
54.20216840788619
 10
260.8724644561257
 20
53.72821127325236
 10
260.9696667105294
 20
53.25407672818804
 10
261.0660072815063
 20
52.77976634514556
 10
261.16148581757295
 20
52.305281683403315
 10
261.25610200542604
 20
51.83062431005982
 10
261.34985551979906
 20
51.3557957898361
 10
261.44274602103224
 20
50.880797684733366
 10
261.5347732099877
 20
50.4056315647656
 10
261.62593672095113
 20
49.93029898715552
 10
261.7162362675392
 20
49.454801524548074
 10
261.80567149721946
 20
48.97914073706506
 10
261.8942420972087
 20
48.50331819255243
 10
261.9819477412234
 20
48.02733545646357
 10
262.06878809003905
 20
47.551194092099564
 10
262.1547628436517
 20
47.07489567012011
 10
262.2398716365312
 20
46.598441749570846
 10
262.32411422084493
 20
46.12183391075235
 10
262.4074903688164
 20
45.6450737372902
 10
262.4899999058339
 20
45.168162821751196
 10
262.57164264235576
 20
44.691102753575684
 10
262.652418377641
 20
44.21389511986246
 10
262.732326948814
 20
43.73654151366078
 10
262.8113681289545
 20
43.25904351685653
 10
262.8895417693079
 20
42.78140272392506
 10
262.96684765435765
 20
42.303620717916246
 10
263.0432856111505
 20
41.8256990884662
 10
263.1188554501264
 20
41.34763942212201
 10
263.19355697206646
 20
40.86944330359251
 10
263.26739001404326
 20
40.39111232290998
 10
263.3403543505221
 20
39.91264806010783
 10
263.4124498330332
 20
39.43405210673799
 10
263.48367624622773
 20
38.95532604388734
 10
263.55403341847216
 20
38.47647145896037
 10
263.6235211599741
 20
37.99748993636924
 10
263.6921392726967
 20
37.51838305913647
 10
263.7598875928515
 20
37.039152414944894
 10
263.82676582025874
 20
36.559799572152606
 10
263.89277358555876
 20
36.080326090008064
 10
263.95791043547575
 20
35.60073351717683
 10
264.02217596113957
 20
35.121023409603126
 10
264.0855697338524
 20
34.64119732168304
 10
264.14809131756454
 20
34.161256808074214
 10
264.20974030964925
 20
33.681203428977355
 10
264.270516246861
 20
33.20103873803492
 10
264.3304187411119
 20
32.720764299700896
 10
264.3894473367916
 20
32.240381671168635
 10
264.4476016238521
 20
31.759892416592876
 10
264.50488117113986
 20
31.2792980988006
 10
264.56128554149245
 20
30.79860028124875
 10
264.6168143300077
 20
30.31780053248599
 10
264.6714670724115
 20
29.836900415542445
 10
264.7252433788615
 20
29.355901503327708
 10
264.7781427917736
 20
28.87480536245293
 10
264.8301649005478
 20
28.393613566170806
 10
264.88130927186097
 20
27.91232768661579
 10
264.9315754736743
 20
27.43094929751431
 10
264.98096351255987
 20
26.94948001889553
 10
265.0294740174431
 20
26.46792153263924
 10
265.0771077557691
 20
25.9862755299867
 10
265.12386542811845
 20
25.504543690571516
 10
265.1697477845029
 20
25.022727694023583
 10
265.2147555510512
 20
24.540829212764386
 10
265.25888945256
 20
24.058849914293393
 10
265.30215024300367
 20
23.576791463936186
 10
265.34453862185444
 20
23.094655517323606
 10
265.38605536048163
 20
22.612443731677306
 10
265.4267011635158
 20
22.130157753625205
 10
265.4664767858533
 20
21.647799229370385
 10
265.5053829564518
 20
21.165369798186795
 10
265.5434204044417
 20
20.682871094709938
 10
265.58058988592944
 20
20.200304751000182
 10
265.6168921041693
 20
19.717672390387808
 10
265.65232783238235
 20
19.234975636879792
 10
265.68689777723233
 20
18.752216104898746
 10
265.7206026960343
 20
18.269395407981115
 10
265.75344328538415
 20
17.78651515086101
 10
265.78541850224326
 20
17.303576819276127
 10
265.8165247695446
 20
16.820581740410205
 10
265.8467582513948
 20
16.337531243972425
 10
265.87611517935693
 20
15.854426684103425
 10
265.90459171573895
 20
15.371269430905127
 10
265.93218407339265
 20
14.88806087791036
 10
265.95888843455515
 20
14.40480243728672
 10
265.9847009825071
 20
13.9214955418778
 10
266.00961792425375
 20
13.438141646431905
 10
266.0336354138438
 20
12.954742223736725
 10
266.0567496748253
 20
12.4712987709509
 10
266.0789568604871
 20
11.987812802754593
 10
266.10025317946736
 20
11.504285857526325
 10
266.1206348076253
 20
11.02071949328019
 10
266.14009792611205
 20
10.537115289577303
 10
266.1586387389453
 20
10.053474848228793
 10
266.17625340015445
 20
9.569799790592752
 10
266.1929381343991
 20
9.086091762202576
 10
266.2086892300529
 20
8.602352431997863
 10
266.22350758635633
 20
8.118583630037394
 10
266.2373996141716
 20
7.634787340209364
 10
266.2503720711386
 20
7.150965518780438
 10
266.26243173711566
 20
6.667120083718883
 10
266.27358534564587
 20
6.1832529132917795
 10
266.2838396987384
 20
5.699365849132378
 10
266.29320153062775
 20
5.21546069340973
 10
266.3016776325661
 20
4.731539211835476
 10
266.30927476254215
 20
4.247603132124089
 10
266.3159996840307
 20
3.76365414509438
 10
266.32185918224667
 20
3.2796939051161744
 10
266.326859992185
 20
2.7957240295344232
 10
266.33100891466216
 20
2.311746100313785
 10
266.33431268486345
 20
1.8277616629721336
 10
266.33677808458447
 20
1.3437722279288467
 10
266.3384118691402
 20
0.8597792702134389
 10
266.3392207892688
 20
0.37578423000485617
 10
266.33921367198053
 20
0.0
  0
ENDSEC
  0
SECTION
  2
OBJECTS
  0
DICTIONARY
  5
A
330
0
100
AcDbDictionary
280
0
281
1
  3
ACAD_COLOR
350
B
  3
ACAD_GROUP
350
C
  3
ACAD_LAYOUT
350
D
  3
ACAD_MATERIAL
350
E
  3
ACAD_MLEADERSTYLE
350
F
  3
ACAD_MLINESTYLE
350
10
  3
ACAD_PLOTSETTINGS
350
11
  3
ACAD_PLOTSTYLENAME
350
12
  3
ACAD_SCALELIST
350
14
  3
ACAD_TABLESTYLE
350
15
  3
ACAD_VISUALSTYLE
350
16
  3
EZDXF_META
350
2D
  0
DICTIONARY
  5
B
330
A
100
AcDbDictionary
280
0
281
1
  0
DICTIONARY
  5
C
330
A
100
AcDbDictionary
280
0
281
1
  0
DICTIONARY
  5
D
330
A
100
AcDbDictionary
280
0
281
1
  3
Model
350
1A
  3
Layout1
350
1E
  0
DICTIONARY
  5
E
330
A
100
AcDbDictionary
280
0
281
1
  3
ByBlock
350
1F
  3
ByLayer
350
20
  3
Global
350
21
  0
DICTIONARY
  5
F
330
A
100
AcDbDictionary
280
0
281
1
  3
Standard
350
2C
  0
DICTIONARY
  5
10
330
A
100
AcDbDictionary
280
0
281
1
  3
Standard
350
22
  0
DICTIONARY
  5
11
330
A
100
AcDbDictionary
280
0
281
1
  0
ACDBDICTIONARYWDFLT
  5
12
330
A
100
AcDbDictionary
280
0
281
1
  3
Normal
350
13
100
AcDbDictionaryWithDefault
340
13
  0
ACDBPLACEHOLDER
  5
13
330
12
  0
DICTIONARY
  5
14
330
A
100
AcDbDictionary
280
0
281
1
  0
DICTIONARY
  5
15
330
A
100
AcDbDictionary
280
0
281
1
  0
DICTIONARY
  5
16
330
A
100
AcDbDictionary
280
0
281
1
  0
LAYOUT
  5
1A
330
D
100
AcDbPlotSettings
  1

  4
A3
  6

 40
7.5
 41
20.0
 42
7.5
 43
20.0
 44
420.0
 45
297.0
 46
0.0
 47
0.0
 48
0.0
 49
0.0
140
0.0
141
0.0
142
1.0
143
1.0
 70
1024
 72
1
 73
0
 74
5
  7

 75
16
 76
0
 77
2
 78
300
147
1.0
148
0.0
149
0.0
100
AcDbLayout
  1
Model
 70
1
 71
0
 10
0.0
 20
0.0
 11
420.0
 21
297.0
 12
0.0
 22
0.0
 32
0.0
 14
1e+20
 24
1e+20
 34
1e+20
 15
-1e+20
 25
-1e+20
 35
-1e+20
146
0.0
 13
0.0
 23
0.0
 33
0.0
 16
1.0
 26
0.0
 36
0.0
 17
0.0
 27
1.0
 37
0.0
 76
1
330
17
  0
LAYOUT
  5
1E
330
D
100
AcDbPlotSettings
  1

  4
A3
  6

 40
7.5
 41
20.0
 42
7.5
 43
20.0
 44
420.0
 45
297.0
 46
0.0
 47
0.0
 48
0.0
 49
0.0
140
0.0
141
0.0
142
1.0
143
1.0
 70
0
 72
1
 73
0
 74
5
  7

 75
16
 76
0
 77
2
 78
300
147
1.0
148
0.0
149
0.0
100
AcDbLayout
  1
Layout1
 70
1
 71
1
 10
0.0
 20
0.0
 11
420.0
 21
297.0
 12
0.0
 22
0.0
 32
0.0
 14
1e+20
 24
1e+20
 34
1e+20
 15
-1e+20
 25
-1e+20
 35
-1e+20
146
0.0
 13
0.0
 23
0.0
 33
0.0
 16
1.0
 26
0.0
 36
0.0
 17
0.0
 27
1.0
 37
0.0
 76
1
330
1B
  0
MATERIAL
  5
1F
102
{ACAD_REACTORS
330
E
102
}
330
E
100
AcDbMaterial
  1
ByBlock
  2

 70
0
 40
1.0
 71
1
 41
1.0
 91
-1023410177
 42
1.0
 72
1
  3

 73
1
 74
1
 75
1
 44
0.5
 73
0
 45
1.0
 46
1.0
 77
1
  4

 78
1
 79
1
170
1
 48
1.0
171
1
  6

172
1
173
1
174
1
140
1.0
141
1.0
175
1
  7

176
1
177
1
178
1
143
1.0
179
1
  8

270
1
271
1
272
1
145
1.0
146
1.0
273
1
  9

274
1
275
1
276
1
 42
1.0
 72
1
  3

 73
1
 74
1
 75
1
 94
63
  0
MATERIAL
  5
20
102
{ACAD_REACTORS
330
E
102
}
330
E
100
AcDbMaterial
  1
ByLayer
  2

 70
0
 40
1.0
 71
1
 41
1.0
 91
-1023410177
 42
1.0
 72
1
  3

 73
1
 74
1
 75
1
 44
0.5
 73
0
 45
1.0
 46
1.0
 77
1
  4

 78
1
 79
1
170
1
 48
1.0
171
1
  6

172
1
173
1
174
1
140
1.0
141
1.0
175
1
  7

176
1
177
1
178
1
143
1.0
179
1
  8

270
1
271
1
272
1
145
1.0
146
1.0
273
1
  9

274
1
275
1
276
1
 42
1.0
 72
1
  3

 73
1
 74
1
 75
1
 94
63
  0
MATERIAL
  5
21
102
{ACAD_REACTORS
330
E
102
}
330
E
100
AcDbMaterial
  1
Global
  2

 70
0
 40
1.0
 71
1
 41
1.0
 91
-1023410177
 42
1.0
 72
1
  3

 73
1
 74
1
 75
1
 44
0.5
 73
0
 45
1.0
 46
1.0
 77
1
  4

 78
1
 79
1
170
1
 48
1.0
171
1
  6

172
1
173
1
174
1
140
1.0
141
1.0
175
1
  7

176
1
177
1
178
1
143
1.0
179
1
  8

270
1
271
1
272
1
145
1.0
146
1.0
273
1
  9

274
1
275
1
276
1
 42
1.0
 72
1
  3

 73
1
 74
1
 75
1
 94
63
  0
MLINESTYLE
  5
22
102
{ACAD_REACTORS
330
10
102
}
330
10
100
AcDbMlineStyle
  2
Standard
 70
0
  3

 62
256
 51
90.0
 52
90.0
 71
2
 49
0.5
 62
256
  6
BYLAYER
 49
-0.5
 62
256
  6
BYLAYER
  0
MLEADERSTYLE
  5
2C
102
{ACAD_REACTORS
330
F
102
}
330
F
100
AcDbMLeaderStyle
179
2
170
2
171
1
172
0
 90
2
 40
0.0
 41
0.0
173
1
 91
-1056964608
 92
-2
290
1
 42
2.0
291
1
 43
8.0
  3
Standard
 44
4.0
300

342
29
174
1
175
1
176
0
178
1
 93
-1056964608
 45
4.0
292
0
297
0
 46
4.0
 94
-1056964608
 47
1.0
 49
1.0
140
1.0
294
1
141
0.0
177
0
142
1.0
295
0
296
0
143
3.75
271
0
272
9
273
9
  0
DICTIONARY
  5
2D
330
A
100
AcDbDictionary
281
1
  3
CREATED_BY_EZDXF
350
2E
  3
WRITTEN_BY_EZDXF
350
32
  0
DICTIONARYVAR
  5
2E
330
2D
100
DictionaryVariables
280
0
  1
1.3.2 @ 2025-12-24T02:47:00.268871+00:00
  0
DICTIONARYVAR
  5
32
330
2D
100
DictionaryVariables
280
0
  1
1.3.2 @ 2025-12-24T02:47:00.335455+00:00
  0
ENDSEC
  0
EOF
