  0
SECTION
  2
HEADER
  9
$ACADVER
  1
AC1015
  9
$ACADMAINTVER
 70
6
  9
$DWGCODEPAGE
  3
ANSI_1252
  9
$INSBASE
 10
0.0
 20
0.0
 30
0.0
  9
$EXTMIN
 10
1e+20
 20
1e+20
 30
1e+20
  9
$EXTMAX
 10
-1e+20
 20
-1e+20
 30
-1e+20
  9
$LIMMIN
 10
0.0
 20
0.0
  9
$LIMMAX
 10
420.0
 20
297.0
  9
$ORTHOMODE
 70
0
  9
$REGENMODE
 70
1
  9
$FILLMODE
 70
1
  9
$QTEXTMODE
 70
0
  9
$MIRRTEXT
 70
1
  9
$LTSCALE
 40
1.0
  9
$ATTMODE
 70
1
  9
$TEXTSIZE
 40
2.5
  9
$TRACEWID
 40
1.0
  9
$TEXTSTYLE
  7
Standard
  9
$CLAYER
  8
0
  9
$CELTYPE
  6
ByLayer
  9
$CECOLOR
 62
256
  9
$CELTSCALE
 40
1.0
  9
$DISPSILH
 70
0
  9
$DIMSCALE
 40
1.0
  9
$DIMASZ
 40
2.5
  9
$DIMEXO
 40
0.625
  9
$DIMDLI
 40
3.75
  9
$DIMRND
 40
0.0
  9
$DIMDLE
 40
0.0
  9
$DIMEXE
 40
1.25
  9
$DIMTP
 40
0.0
  9
$DIMTM
 40
0.0
  9
$DIMTXT
 40
2.5
  9
$DIMCEN
 40
2.5
  9
$DIMTSZ
 40
0.0
  9
$DIMTOL
 70
0
  9
$DIMLIM
 70
0
  9
$DIMTIH
 70
0
  9
$DIMTOH
 70
0
  9
$DIMSE1
 70
0
  9
$DIMSE2
 70
0
  9
$DIMTAD
 70
1
  9
$DIMZIN
 70
8
  9
$DIMBLK
  1

  9
$DIMASO
 70
1
  9
$DIMSHO
 70
1
  9
$DIMPOST
  1

  9
$DIMAPOST
  1

  9
$DIMALT
 70
0
  9
$DIMALTD
 70
3
  9
$DIMALTF
 40
0.03937007874
  9
$DIMLFAC
 40
1.0
  9
$DIMTOFL
 70
1
  9
$DIMTVP
 40
0.0
  9
$DIMTIX
 70
0
  9
$DIMSOXD
 70
0
  9
$DIMSAH
 70
0
  9
$DIMBLK1
  1

  9
$DIMBLK2
  1

  9
$DIMSTYLE
  2
ISO-25
  9
$DIMCLRD
 70
0
  9
$DIMCLRE
 70
0
  9
$DIMCLRT
 70
0
  9
$DIMTFAC
 40
1.0
  9
$DIMGAP
 40
0.625
  9
$DIMJUST
 70
0
  9
$DIMSD1
 70
0
  9
$DIMSD2
 70
0
  9
$DIMTOLJ
 70
0
  9
$DIMTZIN
 70
8
  9
$DIMALTZ
 70
0
  9
$DIMALTTZ
 70
0
  9
$DIMUPT
 70
0
  9
$DIMDEC
 70
2
  9
$DIMTDEC
 70
2
  9
$DIMALTU
 70
2
  9
$DIMALTTD
 70
3
  9
$DIMTXSTY
  7
Standard
  9
$DIMAUNIT
 70
0
  9
$DIMADEC
 70
0
  9
$DIMALTRND
 40
0.0
  9
$DIMAZIN
 70
0
  9
$DIMDSEP
 70
44
  9
$DIMATFIT
 70
3
  9
$DIMFRAC
 70
0
  9
$DIMLDRBLK
  1

  9
$DIMLUNIT
 70
2
  9
$DIMLWD
 70
-2
  9
$DIMLWE
 70
-2
  9
$DIMTMOVE
 70
0
  9
$LUNITS
 70
2
  9
$LUPREC
 70
4
  9
$SKETCHINC
 40
1.0
  9
$FILLETRAD
 40
10.0
  9
$AUNITS
 70
0
  9
$AUPREC
 70
2
  9
$MENU
  1
.
  9
$ELEVATION
 40
0.0
  9
$PELEVATION
 40
0.0
  9
$THICKNESS
 40
0.0
  9
$LIMCHECK
 70
0
  9
$CHAMFERA
 40
0.0
  9
$CHAMFERB
 40
0.0
  9
$CHAMFERC
 40
0.0
  9
$CHAMFERD
 40
0.0
  9
$SKPOLY
 70
0
  9
$TDCREATE
 40
2461034.38912037
  9
$TDUCREATE
 40
2458532.153996898
  9
$TDUPDATE
 40
2461034.38912037
  9
$TDUUPDATE
 40
2458532.1544311
  9
$TDINDWG
 40
0.0
  9
$TDUSRTIMER
 40
0.0
  9
$USRTIMER
 70
1
  9
$ANGBASE
 50
0.0
  9
$ANGDIR
 70
0
  9
$PDMODE
 70
0
  9
$PDSIZE
 40
0.0
  9
$PLINEWID
 40
0.0
  9
$SPLFRAME
 70
0
  9
$SPLINETYPE
 70
6
  9
$SPLINESEGS
 70
8
  9
$HANDSEED
  5
5D2
  9
$SURFTAB1
 70
6
  9
$SURFTAB2
 70
6
  9
$SURFTYPE
 70
6
  9
$SURFU
 70
6
  9
$SURFV
 70
6
  9
$UCSBASE
  2

  9
$UCSNAME
  2

  9
$UCSORG
 10
0.0
 20
0.0
 30
0.0
  9
$UCSXDIR
 10
1.0
 20
0.0
 30
0.0
  9
$UCSYDIR
 10
0.0
 20
1.0
 30
0.0
  9
$UCSORTHOREF
  2

  9
$UCSORTHOVIEW
 70
0
  9
$UCSORGTOP
 10
0.0
 20
0.0
 30
0.0
  9
$UCSORGBOTTOM
 10
0.0
 20
0.0
 30
0.0
  9
$UCSORGLEFT
 10
0.0
 20
0.0
 30
0.0
  9
$UCSORGRIGHT
 10
0.0
 20
0.0
 30
0.0
  9
$UCSORGFRONT
 10
0.0
 20
0.0
 30
0.0
  9
$UCSORGBACK
 10
0.0
 20
0.0
 30
0.0
  9
$PUCSBASE
  2

  9
$PUCSNAME
  2

  9
$PUCSORG
 10
0.0
 20
0.0
 30
0.0
  9
$PUCSXDIR
 10
1.0
 20
0.0
 30
0.0
  9
$PUCSYDIR
 10
0.0
 20
1.0
 30
0.0
  9
$PUCSORTHOREF
  2

  9
$PUCSORTHOVIEW
 70
0
  9
$PUCSORGTOP
 10
0.0
 20
0.0
 30
0.0
  9
$PUCSORGBOTTOM
 10
0.0
 20
0.0
 30
0.0
  9
$PUCSORGLEFT
 10
0.0
 20
0.0
 30
0.0
  9
$PUCSORGRIGHT
 10
0.0
 20
0.0
 30
0.0
  9
$PUCSORGFRONT
 10
0.0
 20
0.0
 30
0.0
  9
$PUCSORGBACK
 10
0.0
 20
0.0
 30
0.0
  9
$USERI1
 70
0
  9
$USERI2
 70
0
  9
$USERI3
 70
0
  9
$USERI4
 70
0
  9
$USERI5
 70
0
  9
$USERR1
 40
0.0
  9
$USERR2
 40
0.0
  9
$USERR3
 40
0.0
  9
$USERR4
 40
0.0
  9
$USERR5
 40
0.0
  9
$WORLDVIEW
 70
1
  9
$SHADEDGE
 70
3
  9
$SHADEDIF
 70
70
  9
$TILEMODE
 70
1
  9
$MAXACTVP
 70
64
  9
$PINSBASE
 10
0.0
 20
0.0
 30
0.0
  9
$PLIMCHECK
 70
0
  9
$PEXTMIN
 10
1e+20
 20
1e+20
 30
1e+20
  9
$PEXTMAX
 10
-1e+20
 20
-1e+20
 30
-1e+20
  9
$PLIMMIN
 10
0.0
 20
0.0
  9
$PLIMMAX
 10
420.0
 20
297.0
  9
$UNITMODE
 70
0
  9
$VISRETAIN
 70
1
  9
$PLINEGEN
 70
0
  9
$PSLTSCALE
 70
1
  9
$TREEDEPTH
 70
3020
  9
$CMLSTYLE
  2
Standard
  9
$CMLJUST
 70
0
  9
$CMLSCALE
 40
20.0
  9
$PROXYGRAPHICS
 70
1
  9
$MEASUREMENT
 70
1
  9
$CELWEIGHT
370
-1
  9
$ENDCAPS
280
0
  9
$JOINSTYLE
280
0
  9
$LWDISPLAY
290
0
  9
$INSUNITS
 70
6
  9
$HYPERLINKBASE
  1

  9
$STYLESHEET
  1

  9
$XEDIT
290
1
  9
$CEPSNTYPE
380
0
  9
$PSTYLEMODE
290
1
  9
$FINGERPRINTGUID
  2
{D45AEDAB-2689-4716-A267-E029CB3977E5}
  9
$VERSIONGUID
  2
{7C0A1D8A-D668-425A-B40C-EC04A2D86282}
  9
$EXTNAMES
290
1
  9
$PSVPSCALE
 40
0.0
  9
$OLESTARTUP
290
0
  0
ENDSEC
  0
SECTION
  2
CLASSES
  0
CLASS
  1
ACDBDICTIONARYWDFLT
  2
AcDbDictionaryWithDefault
  3
ObjectDBX Classes
 90
0
280
0
281
0
  0
CLASS
  1
SUN
  2
AcDbSun
  3
SCENEOE
 90
1153
280
0
281
0
  0
CLASS
  1
VISUALSTYLE
  2
AcDbVisualStyle
  3
ObjectDBX Classes
 90
4095
280
0
281
0
  0
CLASS
  1
MATERIAL
  2
AcDbMaterial
  3
ObjectDBX Classes
 90
1153
280
0
281
0
  0
CLASS
  1
SCALE
  2
AcDbScale
  3
ObjectDBX Classes
 90
1153
280
0
281
0
  0
CLASS
  1
TABLESTYLE
  2
AcDbTableStyle
  3
ObjectDBX Classes
 90
4095
280
0
281
0
  0
CLASS
  1
MLEADERSTYLE
  2
AcDbMLeaderStyle
  3
ACDB_MLEADERSTYLE_CLASS
 90
4095
280
0
281
0
  0
CLASS
  1
DICTIONARYVAR
  2
AcDbDictionaryVar
  3
ObjectDBX Classes
 90
0
280
0
281
0
  0
CLASS
  1
CELLSTYLEMAP
  2
AcDbCellStyleMap
  3
ObjectDBX Classes
 90
1152
280
0
281
0
  0
CLASS
  1
MENTALRAYRENDERSETTINGS
  2
AcDbMentalRayRenderSettings
  3
SCENEOE
 90
1024
280
0
281
0
  0
CLASS
  1
ACDBDETAILVIEWSTYLE
  2
AcDbDetailViewStyle
  3
ObjectDBX Classes
 90
1025
280
0
281
0
  0
CLASS
  1
ACDBSECTIONVIEWSTYLE
  2
AcDbSectionViewStyle
  3
ObjectDBX Classes
 90
1025
280
0
281
0
  0
CLASS
  1
RASTERVARIABLES
  2
AcDbRasterVariables
  3
ISM
 90
0
280
0
281
0
  0
CLASS
  1
ACDBPLACEHOLDER
  2
AcDbPlaceHolder
  3
ObjectDBX Classes
 90
0
280
0
281
0
  0
CLASS
  1
LAYOUT
  2
AcDbLayout
  3
ObjectDBX Classes
 90
0
280
0
281
0
  0
ENDSEC
  0
SECTION
  2
TABLES
  0
TABLE
  2
VPORT
  5
8
330
0
100
AcDbSymbolTable
 70
1
  0
VPORT
  5
23
330
8
100
AcDbSymbolTableRecord
100
AcDbViewportTableRecord
  2
*Active
 70
0
 10
0.0
 20
0.0
 11
1.0
 21
1.0
 12
0.0
 22
0.0
 13
0.0
 23
0.0
 14
0.5
 24
0.5
 15
0.5
 25
0.5
 16
0.0
 26
0.0
 36
1.0
 17
0.0
 27
0.0
 37
0.0
 40
1000.0
 41
1.34
 42
50.0
 43
0.0
 44
0.0
 50
0.0
 51
0.0
 71
0
 72
1000
 73
1
 74
3
 75
0
 76
0
 77
0
 78
0
281
0
 65
0
146
0.0
  0
ENDTAB
  0
TABLE
  2
LTYPE
  5
2
330
0
100
AcDbSymbolTable
 70
3
  0
LTYPE
  5
24
330
2
100
AcDbSymbolTableRecord
100
AcDbLinetypeTableRecord
  2
ByBlock
 70
0
  3

 72
65
 73
0
 40
0.0
  0
LTYPE
  5
25
330
2
100
AcDbSymbolTableRecord
100
AcDbLinetypeTableRecord
  2
ByLayer
 70
0
  3

 72
65
 73
0
 40
0.0
  0
LTYPE
  5
26
330
2
100
AcDbSymbolTableRecord
100
AcDbLinetypeTableRecord
  2
Continuous
 70
0
  3

 72
65
 73
0
 40
0.0
  0
ENDTAB
  0
TABLE
  2
LAYER
  5
1
330
0
100
AcDbSymbolTable
 70
2
  0
LAYER
  5
27
330
1
100
AcDbSymbolTableRecord
100
AcDbLayerTableRecord
  2
0
 70
0
 62
7
  6
Continuous
370
-3
390
13
  0
LAYER
  5
28
330
1
100
AcDbSymbolTableRecord
100
AcDbLayerTableRecord
  2
Defpoints
 70
0
 62
7
  6
Continuous
290
0
370
-3
390
13
  0
ENDTAB
  0
TABLE
  2
STYLE
  5
5
330
0
100
AcDbSymbolTable
 70
1
  0
STYLE
  5
29
330
5
100
AcDbSymbolTableRecord
100
AcDbTextStyleTableRecord
  2
Standard
 70
0
 40
0.0
 41
1.0
 50
0.0
 71
0
 42
2.5
  3
txt
  4

  0
ENDTAB
  0
TABLE
  2
VIEW
  5
7
330
0
100
AcDbSymbolTable
 70
0
  0
ENDTAB
  0
TABLE
  2
UCS
  5
6
330
0
100
AcDbSymbolTable
 70
0
  0
ENDTAB
  0
TABLE
  2
APPID
  5
3
330
0
100
AcDbSymbolTable
 70
3
  0
APPID
  5
2A
330
3
100
AcDbSymbolTableRecord
100
AcDbRegAppTableRecord
  2
ACAD
 70
0
  0
APPID
  5
5CF
330
3
100
AcDbSymbolTableRecord
100
AcDbRegAppTableRecord
  2
HATCHBACKGROUNDCOLOR
 70
0
  0
APPID
  5
5D0
330
3
100
AcDbSymbolTableRecord
100
AcDbRegAppTableRecord
  2
EZDXF
 70
0
  0
ENDTAB
  0
TABLE
  2
DIMSTYLE
  5
4
330
0
100
AcDbSymbolTable
 70
1
100
AcDbDimStyleTable
  0
DIMSTYLE
105
2B
330
4
100
AcDbSymbolTableRecord
100
AcDbDimStyleTableRecord
  2
Standard
 70
0
  3

  4

 40
1.0
 41
2.5
 42
0.625
 43
3.75
 44
1.25
 45
0.0
 46
0.0
 47
0.0
 48
0.0
140
2.5
141
2.5
142
0.0
143
0.03937007874
144
1.0
145
0.0
146
1.0
147
0.625
148
0.0
 71
0
 72
0
 73
0
 74
0
 75
0
 76
0
 77
1
 78
8
 79
3
170
0
171
3
172
1
173
0
174
0
175
0
176
0
177
0
178
0
179
2
271
2
272
2
273
2
274
3
275
0
276
0
277
2
278
44
279
0
280
0
281
0
282
0
283
0
284
8
285
0
286
0
288
0
289
3
371
-2
372
-2
  0
ENDTAB
  0
TABLE
  2
BLOCK_RECORD
  5
9
330
0
100
AcDbSymbolTable
 70
2
  0
BLOCK_RECORD
  5
17
330
9
100
AcDbSymbolTableRecord
100
AcDbBlockTableRecord
  2
*Model_Space
340
1A
  0
BLOCK_RECORD
  5
1B
330
9
100
AcDbSymbolTableRecord
100
AcDbBlockTableRecord
  2
*Paper_Space
340
1E
  0
ENDTAB
  0
ENDSEC
  0
SECTION
  2
BLOCKS
  0
BLOCK
  5
18
330
17
100
AcDbEntity
  8
0
100
AcDbBlockBegin
  2
*Model_Space
 70
0
 10
0.0
 20
0.0
 30
0.0
  3
*Model_Space
  1

  0
ENDBLK
  5
19
330
17
100
AcDbEntity
  8
0
100
AcDbBlockEnd
  0
BLOCK
  5
1C
330
1B
100
AcDbEntity
  8
0
100
AcDbBlockBegin
  2
*Paper_Space
 70
0
 10
0.0
 20
0.0
 30
0.0
  3
*Paper_Space
  1

  0
ENDBLK
  5
1D
330
1B
100
AcDbEntity
  8
0
100
AcDbBlockEnd
  0
ENDSEC
  0
SECTION
  2
ENTITIES
  0
POINT
  5
2F
330
17
100
AcDbEntity
  8
0
100
AcDbPoint
 10
65.4573350365446
 20
26.44648002804249
 30
0.0
  0
POINT
  5
30
330
17
100
AcDbEntity
  8
0
100
AcDbPoint
 10
65.57247762556878
 20
26.160765901868796
 30
0.0
  0
POINT
  5
31
330
17
100
AcDbEntity
  8
0
100
AcDbPoint
 10
65.68683831140902
 20
25.87473372088897
 30
0.0
  0
POINT
  5
32
330
17
100
AcDbEntity
  8
0
100
AcDbPoint
 10
65.80041729695277
 20
25.588382833836494
 30
0.0
  0
POINT
  5
33
330
17
100
AcDbEntity
  8
0
100
AcDbPoint
 10
65.91320541981132
 20
25.301708994567008
 30
0.0
  0
POINT
  5
34
330
17
100
AcDbEntity
  8
0
100
AcDbPoint
 10
66.02522147988086
 20
25.01471873782874
 30
0.0
  0
POINT
  5
35
330
17
100
AcDbEntity
  8
0
100
AcDbPoint
 10
66.13644690451004
 20
24.72740425315651
 30
0.0
  0
POINT
  5
36
330
17
100
AcDbEntity
  8
0
100
AcDbPoint
 10
66.24688173248323
 20
24.439764968904253
 30
0.0
  0
POINT
  5
37
330
17
100
AcDbEntity
  8
0
100
AcDbPoint
 10
66.35653537069003
 20
24.1518037239636
 30
0.0
  0
POINT
  5
38
330
17
100
AcDbEntity
  8
0
100
AcDbPoint
 10
66.46540784467771
 20
23.863519804537454
 30
0.0
  0
POINT
  5
39
330
17
100
AcDbEntity
  8
0
100
AcDbPoint
 10
66.57348972349043
 20
23.574909149269516
 30
0.0
  0
POINT
  5
3A
330
17
100
AcDbEntity
  8
0
100
AcDbPoint
 10
66.68079036986767
 20
23.285974446062255
 30
0.0
  0
POINT
  5
3B
330
17
100
AcDbEntity
  8
0
100
AcDbPoint
 10
66.78730026416038
 20
22.99671169801853
 30
0.0
  0
POINT
  5
3C
330
17
100
AcDbEntity
  8
0
100
AcDbPoint
 10
66.89301926919067
 20
22.707120279156612
 30
0.0
  0
POINT
  5
3D
330
17
100
AcDbEntity
  8
0
100
AcDbPoint
 10
66.9979567016414
 20
22.417202728571763
 30
0.0
  0
POINT
  5
3E
330
17
100
AcDbEntity
  8
0
100
AcDbPoint
 10
67.10210290977126
 20
22.12695514876293
 30
0.0
  0
POINT
  5
3F
330
17
100
AcDbEntity
  8
0
100
AcDbPoint
 10
67.20545766748074
 20
21.83637689051126
 30
0.0
  0
POINT
  5
40
330
17
100
AcDbEntity
  8
0
100
AcDbPoint
 10
67.30802071904563
 20
21.54546729748326
 30
0.0
  0
POINT
  5
41
330
17
100
AcDbEntity
  8
0
100
AcDbPoint
 10
67.40979177903903
 20
21.25422570651547
 30
0.0
  0
POINT
  5
42
330
17
100
AcDbEntity
  8
0
100
AcDbPoint
 10
67.51078008245409
 20
20.96265441331607
 30
0.0
  0
POINT
  5
43
330
17
100
AcDbEntity
  8
0
100
AcDbPoint
 10
67.61096619668047
 20
20.67074676938956
 30
0.0
  0
POINT
  5
44
330
17
100
AcDbEntity
  8
0
100
AcDbPoint
 10
67.71035928390243
 20
20.37850509985821
 30
0.0
  0
POINT
  5
45
330
17
100
AcDbEntity
  8
0
100
AcDbPoint
 10
67.80895893913925
 20
20.08592871710259
 30
0.0
  0
POINT
  5
46
330
17
100
AcDbEntity
  8
0
100
AcDbPoint
 10
67.90677432784543
 20
19.793019726397834
 30
0.0
  0
POINT
  5
47
330
17
100
AcDbEntity
  8
0
100
AcDbPoint
 10
68.0037857959692
 20
19.499771791124534
 30
0.0
  0
POINT
  5
48
330
17
100
AcDbEntity
  8
0
100
AcDbPoint
 10
68.09999281178959
 20
19.206184334091578
 30
0.0
  0
POINT
  5
49
330
17
100
AcDbEntity
  8
0
100
AcDbPoint
 10
68.19541408703887
 20
18.912262118659918
 30
0.0
  0
POINT
  5
4A
330
17
100
AcDbEntity
  8
0
100
AcDbPoint
 10
68.29002980529326
 20
18.617999046435163
 30
0.0
  0
POINT
  5
4B
330
17
100
AcDbEntity
  8
0
100
AcDbPoint
 10
68.38384900535134
 20
18.323397116315743
 30
0.0
  0
POINT
  5
4C
330
17
100
AcDbEntity
  8
0
100
AcDbPoint
 10
68.47686140057495
 20
18.028453063115254
 30
0.0
  0
POINT
  5
4D
330
17
100
AcDbEntity
  8
0
100
AcDbPoint
 10
68.5690759927323
 20
17.733168794755887
 30
0.0
  0
POINT
  5
4E
330
17
100
AcDbEntity
  8
0
100
AcDbPoint
 10
68.66049210519024
 20
17.437543585766626
 30
0.0
  0
POINT
  5
4F
330
17
100
AcDbEntity
  8
0
100
AcDbPoint
 10
68.75109932778128
 20
17.141574288668814
 30
0.0
  0
POINT
  5
50
330
17
100
AcDbEntity
  8
0
100
AcDbPoint
 10
68.84089689128126
 20
16.845260299786986
 30
0.0
  0
POINT
  5
51
330
17
100
AcDbEntity
  8
0
100
AcDbPoint
 10
68.9298937206067
 20
16.548603347967546
 30
0.0
  0
POINT
  5
52
330
17
100
AcDbEntity
  8
0
100
AcDbPoint
 10
69.01807928386351
 20
16.251600406603927
 30
0.0
  0
POINT
  5
53
330
17
100
AcDbEntity
  8
0
100
AcDbPoint
 10
69.10546246617749
 20
15.954253116461874
 30
0.0
  0
POINT
  5
54
330
17
100
AcDbEntity
  8
0
100
AcDbPoint
 10
69.19202290162093
 20
15.656556326167768
 30
0.0
  0
POINT
  5
55
330
17
100
AcDbEntity
  8
0
100
AcDbPoint
 10
69.27777916898913
 20
15.358513881521153
 30
0.0
  0
POINT
  5
56
330
17
100
AcDbEntity
  8
0
100
AcDbPoint
 10
69.3627205763264
 20
15.060122921788107
 30
0.0
  0
POINT
  5
57
330
17
100
AcDbEntity
  8
0
100
AcDbPoint
 10
69.44685592708298
 20
14.761384914654151
 30
0.0
  0
POINT
  5
58
330
17
100
AcDbEntity
  8
0
100
AcDbPoint
 10
69.53016465946136
 20
14.462295047833507
 30
0.0
  0
POINT
  5
59
330
17
100
AcDbEntity
  8
0
100
AcDbPoint
 10
69.6126555081241
 20
14.162854832117674
 30
0.0
  0
POINT
  5
5A
330
17
100
AcDbEntity
  8
0
100
AcDbPoint
 10
69.69432740557502
 20
13.863063657175898
 30
0.0
  0
POINT
  5
5B
330
17
100
AcDbEntity
  8
0
100
AcDbPoint
 10
69.77517925444907
 20
13.562920913619546
 30
0.0
  0
POINT
  5
5C
330
17
100
AcDbEntity
  8
0
100
AcDbPoint
 10
69.85520992749281
 20
13.26242599329047
 30
0.0
  0
POINT
  5
5D
330
17
100
AcDbEntity
  8
0
100
AcDbPoint
 10
69.93441826754746
 20
12.96157828954968
 30
0.0
  0
POINT
  5
5E
330
17
100
AcDbEntity
  8
0
100
AcDbPoint
 10
70.01280308753365
 20
12.66037719756563
 30
0.0
  0
POINT
  5
5F
330
17
100
AcDbEntity
  8
0
100
AcDbPoint
 10
70.0903533223612
 20
12.358820378121436
 30
0.0
  0
POINT
  5
60
330
17
100
AcDbEntity
  8
0
100
AcDbPoint
 10
70.16708741374526
 20
12.056910746817945
 30
0.0
  0
POINT
  5
61
330
17
100
AcDbEntity
  8
0
100
AcDbPoint
 10
70.24297451865718
 20
11.754642625591757
 30
0.0
  0
POINT
  5
62
330
17
100
AcDbEntity
  8
0
100
AcDbPoint
 10
70.31804289747309
 20
11.452020500310493
 30
0.0
  0
POINT
  5
63
330
17
100
AcDbEntity
  8
0
100
AcDbPoint
 10
70.39227148148011
 20
11.149040521767017
 30
0.0
  0
POINT
  5
64
330
17
100
AcDbEntity
  8
0
100
AcDbPoint
 10
70.4656588842485
 20
10.845702231466163
 30
0.0
  0
POINT
  5
65
330
17
100
AcDbEntity
  8
0
100
AcDbPoint
 10
70.53821358067054
 20
10.54200665300987
 30
0.0
  0
POINT
  5
66
330
17
100
AcDbEntity
  8
0
100
AcDbPoint
 10
70.60993414571202
 20
10.237953206687006
 30
0.0
  0
POINT
  5
67
330
17
100
AcDbEntity
  8
0
100
AcDbPoint
 10
70.68080922169912
 20
9.933539925458073
 30
0.0
  0
POINT
  5
68
330
17
100
AcDbEntity
  8
0
100
AcDbPoint
 10
70.75083730575145
 20
9.628766368371862
 30
0.0
  0
POINT
  5
69
330
17
100
AcDbEntity
  8
0
100
AcDbPoint
 10
70.82001686617605
 20
9.32363209961354
 30
0.0
  0
POINT
  5
6A
330
17
100
AcDbEntity
  8
0
100
AcDbPoint
 10
70.88835626252853
 20
9.018137950776254
 30
0.0
  0
POINT
  5
6B
330
17
100
AcDbEntity
  8
0
100
AcDbPoint
 10
70.95584399630249
 20
8.712282148581002
 30
0.0
  0
POINT
  5
6C
330
17
100
AcDbEntity
  8
0
100
AcDbPoint
 10
71.02247844887839
 20
8.406064274243056
 30
0.0
  0
POINT
  5
6D
330
17
100
AcDbEntity
  8
0
100
AcDbPoint
 10
71.08826790860105
 20
8.099485047276781
 30
0.0
  0
POINT
  5
6E
330
17
100
AcDbEntity
  8
0
100
AcDbPoint
 10
71.15319083277026
 20
7.792541754285075
 30
0.0
  0
POINT
  5
6F
330
17
100
AcDbEntity
  8
0
100
AcDbPoint
 10
71.21725544725017
 20
7.4852351715035805
 30
0.0
  0
POINT
  5
70
330
17
100
AcDbEntity
  8
0
100
AcDbPoint
 10
71.28046996821729
 20
7.177565908786415
 30
0.0
  0
POINT
  5
71
330
17
100
AcDbEntity
  8
0
100
AcDbPoint
 10
71.34281273840716
 20
6.869531534316451
 30
0.0
  0
POINT
  5
72
330
17
100
AcDbEntity
  8
0
100
AcDbPoint
 10
71.40429191223387
 20
6.561132716421147
 30
0.0
  0
POINT
  5
73
330
17
100
AcDbEntity
  8
0
100
AcDbPoint
 10
71.46490567028884
 20
6.252369086099764
 30
0.0
  0
POINT
  5
74
330
17
100
AcDbEntity
  8
0
100
AcDbPoint
 10
71.52465216459221
 20
5.943240282589534
 30
0.0
  0
POINT
  5
75
330
17
100
AcDbEntity
  8
0
100
AcDbPoint
 10
71.5835295186272
 20
5.633745953646425
 30
0.0
  0
POINT
  5
76
330
17
100
AcDbEntity
  8
0
100
AcDbPoint
 10
71.64152585487491
 20
5.323885014741564
 30
0.0
  0
POINT
  5
77
330
17
100
AcDbEntity
  8
0
100
AcDbPoint
 10
71.69864920608104
 20
5.013657959637331
 30
0.0
  0
POINT
  5
78
330
17
100
AcDbEntity
  8
0
100
AcDbPoint
 10
71.75489761091548
 20
4.7030644633722645
 30
0.0
  0
POINT
  5
79
330
17
100
AcDbEntity
  8
0
100
AcDbPoint
 10
71.81025909832209
 20
4.39210360013855
 30
0.0
  0
POINT
  5
7A
330
17
100
AcDbEntity
  8
0
100
AcDbPoint
 10
71.86474162646994
 20
4.080775762133547
 30
0.0
  0
POINT
  5
7B
330
17
100
AcDbEntity
  8
0
100
AcDbPoint
 10
71.9183331633062
 20
3.7690801308267683
 30
0.0
  0
POINT
  5
7C
330
17
100
AcDbEntity
  8
0
100
AcDbPoint
 10
71.97103162827051
 20
3.457016552258216
 30
0.0
  0
POINT
  5
7D
330
17
100
AcDbEntity
  8
0
100
AcDbPoint
 10
72.02284490423963
 20
3.1445853194725957
 30
0.0
  0
POINT
  5
7E
330
17
100
AcDbEntity
  8
0
100
AcDbPoint
 10
72.0737608697505
 20
2.8317857770176773
 30
0.0
  0
POINT
  5
7F
330
17
100
AcDbEntity
  8
0
100
AcDbPoint
 10
72.12378735660734
 20
2.518618153151928
 30
0.0
  0
POINT
  5
80
330
17
100
AcDbEntity
  8
0
100
AcDbPoint
 10
72.17291218477429
 20
2.205081902551215
 30
0.0
  0
POINT
  5
81
330
17
100
AcDbEntity
  8
0
100
AcDbPoint
 10
72.22113313787837
 20
1.8911769279862756
 30
0.0
  0
POINT
  5
82
330
17
100
AcDbEntity
  8
0
100
AcDbPoint
 10
72.26844797278885
 20
1.5769031443985286
 30
0.0
  0
POINT
  5
83
330
17
100
AcDbEntity
  8
0
100
AcDbPoint
 10
72.3175540084577
 20
1.2623076006674703
 30
0.0
  0
POINT
  5
84
330
17
100
AcDbEntity
  8
0
100
AcDbPoint
 10
72.36035018210076
 20
0.9472488723934568
 30
0.0
  0
POINT
  5
85
330
17
100
AcDbEntity
  8
0
100
AcDbPoint
 10
72.40493293703436
 20
0.631868277140252
 30
0.0
  0
POINT
  5
86
330
17
100
AcDbEntity
  8
0
100
AcDbPoint
 10
72.4486003349759
 20
0.31611865973031655
 30
0.0
  0
POINT
  5
87
330
17
100
AcDbEntity
  8
0
100
AcDbPoint
 10
72.49135
 20
-2.0867973301501444e-14
 30
0.0
  0
POINT
  5
88
330
17
100
AcDbEntity
  8
0
100
AcDbPoint
 10
72.53317952983527
 20
-0.3164877084296043
 30
0.0
  0
POINT
  5
89
330
17
100
AcDbEntity
  8
0
100
AcDbPoint
 10
72.57407649632067
 20
-0.6333443706197931
 30
0.0
  0
POINT
  5
8A
330
17
100
AcDbEntity
  8
0
100
AcDbPoint
 10
72.61404844529284
 20
-0.9505699645818697
 30
0.0
  0
POINT
  5
8B
330
17
100
AcDbEntity
  8
0
100
AcDbPoint
 10
72.65309289647523
 20
-1.2681644537438115
 30
0.0
  0
POINT
  5
8C
330
17
100
AcDbEntity
  8
0
100
AcDbPoint
 10
72.69119734593957
 20
-1.5861275685353777
 30
0.0
  0
POINT
  5
8D
330
17
100
AcDbEntity
  8
0
100
AcDbPoint
 10
72.72836926114421
 20
-1.9044593733272286
 30
0.0
  0
POINT
  5
8E
330
17
100
AcDbEntity
  8
0
100
AcDbPoint
 10
72.76460608454188
 20
-2.223159786216087
 30
0.0
  0
POINT
  5
8F
330
17
100
AcDbEntity
  8
0
100
AcDbPoint
 10
72.79989523890228
 20
-2.542228360661088
 30
0.0
  0
POINT
  5
90
330
17
100
AcDbEntity
  8
0
100
AcDbPoint
 10
72.83423412007186
 20
-2.8616648523993296
 30
0.0
  0
POINT
  5
91
330
17
100
AcDbEntity
  8
0
100
AcDbPoint
 10
72.8676200994448
 20
-3.18146900104103
 30
0.0
  0
POINT
  5
92
330
17
100
AcDbEntity
  8
0
100
AcDbPoint
 10
72.90006051254015
 20
-3.5016410095959065
 30
0.0
  0
POINT
  5
93
330
17
100
AcDbEntity
  8
0
100
AcDbPoint
 10
72.93154268926818
 20
-3.822180192030848
 30
0.0
  0
POINT
  5
94
330
17
100
AcDbEntity
  8
0
100
AcDbPoint
 10
72.96206392766283
 20
-4.143086238016634
 30
0.0
  0
POINT
  5
95
330
17
100
AcDbEntity
  8
0
100
AcDbPoint
 10
72.99162150169026
 20
-4.464358820075814
 30
0.0
  0
POINT
  5
96
330
17
100
AcDbEntity
  8
0
100
AcDbPoint
 10
73.02021266134973
 20
-4.785997593329951
 30
0.0
  0
POINT
  5
97
330
17
100
AcDbEntity
  8
0
100
AcDbPoint
 10
73.04784460841694
 20
-5.108002892811575
 30
0.0
  0
POINT
  5
98
330
17
100
AcDbEntity
  8
0
100
AcDbPoint
 10
73.07449459084805
 20
-5.430372986473189
 30
0.0
  0
POINT
  5
99
330
17
100
AcDbEntity
  8
0
100
AcDbPoint
 10
73.1001597967821
 20
-5.753107345159096
 30
0.0
  0
POINT
  5
9A
330
17
100
AcDbEntity
  8
0
100
AcDbPoint
 10
73.1248573232629
 20
-6.076207077556078
 30
0.0
  0
POINT
  5
9B
330
17
100
AcDbEntity
  8
0
100
AcDbPoint
 10
73.14856436758672
 20
-6.399670135360206
 30
0.0
  0
POINT
  5
9C
330
17
100
AcDbEntity
  8
0
100
AcDbPoint
 10
73.17128800791946
 20
-6.723496848642222
 30
0.0
  0
POINT
  5
9D
330
17
100
AcDbEntity
  8
0
100
AcDbPoint
 10
73.19302533004611
 20
-7.047686743728451
 30
0.0
  0
POINT
  5
9E
330
17
100
AcDbEntity
  8
0
100
AcDbPoint
 10
73.21376344697508
 20
-7.372238325663048
 30
0.0
  0
POINT
  5
9F
330
17
100
AcDbEntity
  8
0
100
AcDbPoint
 10
73.23349941182505
 20
-7.697150951509245
 30
0.0
  0
POINT
  5
A0
330
17
100
AcDbEntity
  8
0
100
AcDbPoint
 10
73.25224019656054
 20
-8.022425047222471
 30
0.0
  0
POINT
  5
A1
330
17
100
AcDbEntity
  8
0
100
AcDbPoint
 10
73.26997286073282
 20
-8.348058928132676
 30
0.0
  0
POINT
  5
A2
330
17
100
AcDbEntity
  8
0
100
AcDbPoint
 10
73.28669439210474
 20
-8.674051891194928
 30
0.0
  0
POINT
  5
A3
330
17
100
AcDbEntity
  8
0
100
AcDbPoint
 10
73.3024116825514
 20
-9.000404431566002
 30
0.0
  0
POINT
  5
A4
330
17
100
AcDbEntity
  8
0
100
AcDbPoint
 10
73.31710182092837
 20
-9.327113410890947
 30
0.0
  0
POINT
  5
A5
330
17
100
AcDbEntity
  8
0
100
AcDbPoint
 10
73.33078157646489
 20
-9.654180544577416
 30
0.0
  0
POINT
  5
A6
330
17
100
AcDbEntity
  8
0
100
AcDbPoint
 10
73.34342801760525
 20
-9.981602478923746
 30
0.0
  0
POINT
  5
A7
330
17
100
AcDbEntity
  8
0
100
AcDbPoint
 10
73.35479047699924
 20
-10.309343483056553
 30
0.0
  0
POINT
  5
A8
330
17
100
AcDbEntity
  8
0
100
AcDbPoint
 10
73.36564812185297
 20
-10.637512717400156
 30
0.0
  0
POINT
  5
A9
330
17
100
AcDbEntity
  8
0
100
AcDbPoint
 10
73.37520558472421
 20
-10.965997948835145
 30
0.0
  0
POINT
  5
AA
330
17
100
AcDbEntity
  8
0
100
AcDbPoint
 10
73.38371717498373
 20
-11.294834359320987
 30
0.0
  0
POINT
  5
AB
330
17
100
AcDbEntity
  8
0
100
AcDbPoint
 10
73.39118959002911
 20
-11.624022487968722
 30
0.0
  0
POINT
  5
AC
330
17
100
AcDbEntity
  8
0
100
AcDbPoint
 10
73.39760974063236
 20
-11.953559808953603
 30
0.0
  0
POINT
  5
AD
330
17
100
AcDbEntity
  8
0
100
AcDbPoint
 10
73.40298427170238
 20
-12.283446902389061
 30
0.0
  0
POINT
  5
AE
330
17
100
AcDbEntity
  8
0
100
AcDbPoint
 10
73.40730006911048
 20
-12.613681110622437
 30
0.0
  0
POINT
  5
AF
330
17
100
AcDbEntity
  8
0
100
AcDbPoint
 10
73.41056372509915
 20
-12.944263053753108
 30
0.0
  0
POINT
  5
B0
330
17
100
AcDbEntity
  8
0
100
AcDbPoint
 10
73.41275226156436
 20
-13.275188162096835
 30
0.0
  0
POINT
  5
B1
330
17
100
AcDbEntity
  8
0
100
AcDbPoint
 10
73.41388207404215
 20
-13.606458788319305
 30
0.0
  0
POINT
  5
B2
330
17
100
AcDbEntity
  8
0
100
AcDbPoint
 10
73.41393017866996
 20
-13.938070143684591
 30
0.0
  0
POINT
  5
B3
330
17
100
AcDbEntity
  8
0
100
AcDbPoint
 10
73.4129129034131
 20
-14.270024704865838
 30
0.0
  0
POINT
  5
B4
330
17
100
AcDbEntity
  8
0
100
AcDbPoint
 10
73.41080726075418
 20
-14.602317463488445
 30
0.0
  0
POINT
  5
B5
330
17
100
AcDbEntity
  8
0
100
AcDbPoint
 10
73.40761971095623
 20
-14.934949025414543
 30
0.0
  0
POINT
  5
B6
330
17
100
AcDbEntity
  8
0
100
AcDbPoint
 10
73.40333708179345
 20
-15.267916070266613
 30
0.0
  0
POINT
  5
B7
330
17
100
AcDbEntity
  8
0
100
AcDbPoint
 10
73.3979657825351
 20
-15.601219240309579
 30
0.0
  0
POINT
  5
B8
330
17
100
AcDbEntity
  8
0
100
AcDbPoint
 10
73.39149262507368
 20
-15.934855080127212
 30
0.0
  0
POINT
  5
B9
330
17
100
AcDbEntity
  8
0
100
AcDbPoint
 10
73.3839239675744
 20
-16.268824267406572
 30
0.0
  0
POINT
  5
BA
330
17
100
AcDbEntity
  8
0
100
AcDbPoint
 10
73.37524660743553
 20
-16.60312321102627
 30
0.0
  0
POINT
  5
BB
330
17
100
AcDbEntity
  8
0
100
AcDbPoint
 10
73.36544736422111
 20
-16.937748124095478
 30
0.0
  0
POINT
  5
BC
330
17
100
AcDbEntity
  8
0
100
AcDbPoint
 10
73.35454228306031
 20
-17.272701900186785
 30
0.0
  0
POINT
  5
BD
330
17
100
AcDbEntity
  8
0
100
AcDbPoint
 10
73.34251814307056
 20
-17.60798074359927
 30
0.0
  0
POINT
  5
BE
330
17
100
AcDbEntity
  8
0
100
AcDbPoint
 10
73.32937146168136
 20
-17.94358303963705
 30
0.0
  0
POINT
  5
BF
330
17
100
AcDbEntity
  8
0
100
AcDbPoint
 10
73.31508903842293
 20
-18.279504728219973
 30
0.0
  0
POINT
  5
C0
330
17
100
AcDbEntity
  8
0
100
AcDbPoint
 10
73.29967708526522
 20
-18.61574647671816
 30
0.0
  0
POINT
  5
C1
330
17
100
AcDbEntity
  8
0
100
AcDbPoint
 10
73.28312239440295
 20
-18.952304087697513
 30
0.0
  0
POINT
  5
C2
330
17
100
AcDbEntity
  8
0
100
AcDbPoint
 10
73.26543112859204
 20
-19.289178260142027
 30
0.0
  0
POINT
  5
C3
330
17
100
AcDbEntity
  8
0
100
AcDbPoint
 10
73.24659007412187
 20
-19.626364658694452
 30
0.0
  0
POINT
  5
C4
330
17
100
AcDbEntity
  8
0
100
AcDbPoint
 10
73.22659569662108
 20
-19.963861382700845
 30
0.0
  0
POINT
  5
C5
330
17
100
AcDbEntity
  8
0
100
AcDbPoint
 10
73.20544444892488
 20
-20.301666504495955
 30
0.0
  0
POINT
  5
C6
330
17
100
AcDbEntity
  8
0
100
AcDbPoint
 10
73.18313277125296
 20
-20.63977806922253
 30
0.0
  0
POINT
  5
C7
330
17
100
AcDbEntity
  8
0
100
AcDbPoint
 10
73.15965709138878
 20
-20.978194094652373
 30
0.0
  0
POINT
  5
C8
330
17
100
AcDbEntity
  8
0
100
AcDbPoint
 10
73.13500422436175
 20
-21.316909772717715
 30
0.0
  0
POINT
  5
C9
330
17
100
AcDbEntity
  8
0
100
AcDbPoint
 10
73.10918019872771
 20
-21.655925780477666
 30
0.0
  0
POINT
  5
CA
330
17
100
AcDbEntity
  8
0
100
AcDbPoint
 10
73.08218140659972
 20
-21.99524005268754
 30
0.0
  0
POINT
  5
CB
330
17
100
AcDbEntity
  8
0
100
AcDbPoint
 10
73.05398510229038
 20
-22.334844648594103
 30
0.0
  0
POINT
  5
CC
330
17
100
AcDbEntity
  8
0
100
AcDbPoint
 10
73.02460683217653
 20
-22.67474312726907
 30
0.0
  0
POINT
  5
CD
330
17
100
AcDbEntity
  8
0
100
AcDbPoint
 10
72.99403341773807
 20
-23.01493033200487
 30
0.0
  0
POINT
  5
CE
330
17
100
AcDbEntity
  8
0
100
AcDbPoint
 10
72.96225172215786
 20
-23.355400911167692
 30
0.0
  0
POINT
  5
CF
330
17
100
AcDbEntity
  8
0
100
AcDbPoint
 10
72.92927718402115
 20
-23.696158589117598
 30
0.0
  0
POINT
  5
D0
330
17
100
AcDbEntity
  8
0
100
AcDbPoint
 10
72.89508713676874
 20
-24.037194867190554
 30
0.0
  0
POINT
  5
D1
330
17
100
AcDbEntity
  8
0
100
AcDbPoint
 10
72.85967797978265
 20
-24.378507232463523
 30
0.0
  0
POINT
  5
D2
330
17
100
AcDbEntity
  8
0
100
AcDbPoint
 10
72.82305557353821
 20
-24.720096357881875
 30
0.0
  0
POINT
  5
D3
330
17
100
AcDbEntity
  8
0
100
AcDbPoint
 10
72.78520680366039
 20
-25.061956541499093
 30
0.0
  0
POINT
  5
D4
330
17
100
AcDbEntity
  8
0
100
AcDbPoint
 10
72.74612804494193
 20
-25.404085184178836
 30
0.0
  0
POINT
  5
D5
330
17
100
AcDbEntity
  8
0
100
AcDbPoint
 10
72.70581566454585
 20
-25.746479657809086
 30
0.0
  0
POINT
  5
D6
330
17
100
AcDbEntity
  8
0
100
AcDbPoint
 10
72.6642660222006
 20
-26.08913730515563
 30
0.0
  0
POINT
  5
D7
330
17
100
AcDbEntity
  8
0
100
AcDbPoint
 10
72.62146607346968
 20
-26.432052019515822
 30
0.0
  0
POINT
  5
D8
330
17
100
AcDbEntity
  8
0
100
AcDbPoint
 10
72.5774122088404
 20
-26.775220962069827
 30
0.0
  0
POINT
  5
D9
330
17
100
AcDbEntity
  8
0
100
AcDbPoint
 10
72.53211017975134
 20
-27.118644766912887
 30
0.0
  0
POINT
  5
DA
330
17
100
AcDbEntity
  8
0
100
AcDbPoint
 10
72.48554696788408
 20
-27.46231711637367
 30
0.0
  0
POINT
  5
DB
330
17
100
AcDbEntity
  8
0
100
AcDbPoint
 10
72.43771894647234
 20
-27.806235083554242
 30
0.0
  0
POINT
  5
DC
330
17
100
AcDbEntity
  8
0
100
AcDbPoint
 10
72.38862248357506
 20
-28.150395711997522
 30
0.0
  0
POINT
  5
DD
330
17
100
AcDbEntity
  8
0
100
AcDbPoint
 10
72.33824463810163
 20
-28.49479235054468
 30
0.0
  0
POINT
  5
DE
330
17
100
AcDbEntity
  8
0
100
AcDbPoint
 10
72.28659110470065
 20
-28.83942556711926
 30
0.0
  0
POINT
  5
DF
330
17
100
AcDbEntity
  8
0
100
AcDbPoint
 10
72.2336489658074
 20
-29.18428856995678
 30
0.0
  0
POINT
  5
E0
330
17
100
AcDbEntity
  8
0
100
AcDbPoint
 10
72.17941462062986
 20
-29.529378162028845
 30
0.0
  0
POINT
  5
E1
330
17
100
AcDbEntity
  8
0
100
AcDbPoint
 10
72.12388446527183
 20
-29.87469111654577
 30
0.0
  0
POINT
  5
E2
330
17
100
AcDbEntity
  8
0
100
AcDbPoint
 10
72.06705489293644
 20
-30.22022417684033
 30
0.0
  0
POINT
  5
E3
330
17
100
AcDbEntity
  8
0
100
AcDbPoint
 10
72.00891308908173
 20
-30.56597014894138
 30
0.0
  0
POINT
  5
E4
330
17
100
AcDbEntity
  8
0
100
AcDbPoint
 10
71.94946468104435
 20
-30.911929543139994
 30
0.0
  0
POINT
  5
E5
330
17
100
AcDbEntity
  8
0
100
AcDbPoint
 10
71.88868771387811
 20
-31.25809103769628
 30
0.0
  0
POINT
  5
E6
330
17
100
AcDbEntity
  8
0
100
AcDbPoint
 10
71.82659698290497
 20
-31.604459070601806
 30
0.0
  0
POINT
  5
E7
330
17
100
AcDbEntity
  8
0
100
AcDbPoint
 10
71.7631797360223
 20
-31.951026167429394
 30
0.0
  0
POINT
  5
E8
330
17
100
AcDbEntity
  8
0
100
AcDbPoint
 10
71.69842329080066
 20
-32.29778466392504
 30
0.0
  0
POINT
  5
E9
330
17
100
AcDbEntity
  8
0
100
AcDbPoint
 10
71.63232413604294
 20
-32.64473085361527
 30
0.0
  0
POINT
  5
EA
330
17
100
AcDbEntity
  8
0
100
AcDbPoint
 10
71.56488784282
 20
-32.99186518682284
 30
0.0
  0
POINT
  5
EB
330
17
100
AcDbEntity
  8
0
100
AcDbPoint
 10
71.4961199098291
 20
-33.33918824232137
 30
0.0
  0
POINT
  5
EC
330
17
100
AcDbEntity
  8
0
100
AcDbPoint
 10
71.42599862822051
 20
-33.68668792938008
 30
0.0
  0
POINT
  5
ED
330
17
100
AcDbEntity
  8
0
100
AcDbPoint
 10
71.35449341227158
 20
-34.03434750572562
 30
0.0
  0
POINT
  5
EE
330
17
100
AcDbEntity
  8
0
100
AcDbPoint
 10
71.28162794626772
 20
-34.3821757935411
 30
0.0
  0
POINT
  5
EF
330
17
100
AcDbEntity
  8
0
100
AcDbPoint
 10
71.20738075125325
 20
-34.73016013880369
 30
0.0
  0
POINT
  5
F0
330
17
100
AcDbEntity
  8
0
100
AcDbPoint
 10
71.13176637897006
 20
-35.0783052353164
 30
0.0
  0
POINT
  5
F1
330
17
100
AcDbEntity
  8
0
100
AcDbPoint
 10
71.05476343305858
 20
-35.4265982123105
 30
0.0
  0
POINT
  5
F2
330
17
100
AcDbEntity
  8
0
100
AcDbPoint
 10
70.97636853567495
 20
-35.77503485846171
 30
0.0
  0
POINT
  5
F3
330
17
100
AcDbEntity
  8
0
100
AcDbPoint
 10
70.89658722379666
 20
-36.123615472825996
 30
0.0
  0
POINT
  5
F4
330
17
100
AcDbEntity
  8
0
100
AcDbPoint
 10
70.81540717944517
 20
-36.47233132272989
 30
0.0
  0
POINT
  5
F5
330
17
100
AcDbEntity
  8
0
100
AcDbPoint
 10
70.73281616904762
 20
-36.82117349033998
 30
0.0
  0
POINT
  5
F6
330
17
100
AcDbEntity
  8
0
100
AcDbPoint
 10
70.64881974508948
 20
-37.17014218576457
 30
0.0
  0
POINT
  5
F7
330
17
100
AcDbEntity
  8
0
100
AcDbPoint
 10
70.56340572609972
 20
-37.51922835472283
 30
0.0
  0
POINT
  5
F8
330
17
100
AcDbEntity
  8
0
100
AcDbPoint
 10
70.47657082758222
 20
-37.86842749238058
 30
0.0
  0
POINT
  5
F9
330
17
100
AcDbEntity
  8
0
100
AcDbPoint
 10
70.38831177205024
 20
-38.217735064562014
 30
0.0
  0
POINT
  5
FA
330
17
100
AcDbEntity
  8
0
100
AcDbPoint
 10
70.29862528923286
 20
-38.567146507701715
 30
0.0
  0
POINT
  5
FB
330
17
100
AcDbEntity
  8
0
100
AcDbPoint
 10
70.20749062388772
 20
-38.91664753260636
 30
0.0
  0
POINT
  5
FC
330
17
100
AcDbEntity
  8
0
100
AcDbPoint
 10
70.11492209813922
 20
-39.2662430605217
 30
0.0
  0
POINT
  5
FD
330
17
100
AcDbEntity
  8
0
100
AcDbPoint
 10
70.02090776204821
 20
-39.61592351576364
 30
0.0
  0
POINT
  5
FE
330
17
100
AcDbEntity
  8
0
100
AcDbPoint
 10
69.92542707800712
 20
-39.965674179204214
 30
0.0
  0
POINT
  5
FF
330
17
100
AcDbEntity
  8
0
100
AcDbPoint
 10
69.82850299279711
 20
-40.31550499999998
 30
0.0
  0
POINT
  5
100
330
17
100
AcDbEntity
  8
0
100
AcDbPoint
 10
69.7300977333566
 20
-40.665391088080476
 30
0.0
  0
POINT
  5
101
330
17
100
AcDbEntity
  8
0
100
AcDbPoint
 10
69.6302342023487
 20
-41.01534244908931
 30
0.0
  0
POINT
  5
102
330
17
100
AcDbEntity
  8
0
100
AcDbPoint
 10
69.52889207820252
 20
-41.36534394719529
 30
0.0
  0
POINT
  5
103
330
17
100
AcDbEntity
  8
0
100
AcDbPoint
 10
69.4260683718884
 20
-41.71539041858264
 30
0.0
  0
POINT
  5
104
330
17
100
AcDbEntity
  8
0
100
AcDbPoint
 10
69.32176010660963
 20
-42.06547667143765
 30
0.0
  0
POINT
  5
105
330
17
100
AcDbEntity
  8
0
100
AcDbPoint
 10
69.21595579160059
 20
-42.41559226095153
 30
0.0
  0
POINT
  5
106
330
17
100
AcDbEntity
  8
0
100
AcDbPoint
 10
69.10865254376886
 20
-42.76573182782014
 30
0.0
  0
POINT
  5
107
330
17
100
AcDbEntity
  8
0
100
AcDbPoint
 10
68.99985597430873
 20
-43.11589528450326
 30
0.0
  0
POINT
  5
108
330
17
100
AcDbEntity
  8
0
100
AcDbPoint
 10
68.8895462437713
 20
-43.46606665540593
 30
0.0
  0
POINT
  5
109
330
17
100
AcDbEntity
  8
0
100
AcDbPoint
 10
68.77772058068054
 20
-43.81624038807909
 30
0.0
  0
POINT
  5
10A
330
17
100
AcDbEntity
  8
0
100
AcDbPoint
 10
68.66437622892306
 20
-44.166410903256626
 30
0.0
  0
POINT
  5
10B
330
17
100
AcDbEntity
  8
0
100
AcDbPoint
 10
68.54950206123605
 20
-44.516567148475104
 30
0.0
  0
POINT
  5
10C
330
17
100
AcDbEntity
  8
0
100
AcDbPoint
 10
68.43310378720632
 20
-44.86670886417174
 30
0.0
  0
POINT
  5
10D
330
17
100
AcDbEntity
  8
0
100
AcDbPoint
 10
68.31517035959024
 20
-45.21682487163669
 30
0.0
  0
POINT
  5
10E
330
17
100
AcDbEntity
  8
0
100
AcDbPoint
 10
68.19569915862547
 20
-45.56690937576465
 30
0.0
  0
POINT
  5
10F
330
17
100
AcDbEntity
  8
0
100
AcDbPoint
 10
68.07467929145487
 20
-45.91695096340308
 30
0.0
  0
POINT
  5
110
330
17
100
AcDbEntity
  8
0
100
AcDbPoint
 10
67.95210824650309
 20
-46.266943678872124
 30
0.0
  0
POINT
  5
111
330
17
100
AcDbEntity
  8
0
100
AcDbPoint
 10
67.82797528953887
 20
-46.61687587700083
 30
0.0
  0
POINT
  5
112
330
17
100
AcDbEntity
  8
0
100
AcDbPoint
 10
67.70228623723165
 20
-46.96674714353607
 30
0.0
  0
POINT
  5
113
330
17
100
AcDbEntity
  8
0
100
AcDbPoint
 10
67.57503044333076
 20
-47.316545711170875
 30
0.0
  0
POINT
  5
114
330
17
100
AcDbEntity
  8
0
100
AcDbPoint
 10
67.4461973811676
 20
-47.666259644521936
 30
0.0
  0
POINT
  5
115
330
17
100
AcDbEntity
  8
0
100
AcDbPoint
 10
67.31579292770694
 20
-48.01588845532362
 30
0.0
  0
POINT
  5
116
330
17
100
AcDbEntity
  8
0
100
AcDbPoint
 10
67.18380664816569
 20
-48.3654200882613
 30
0.0
  0
POINT
  5
117
330
17
100
AcDbEntity
  8
0
100
AcDbPoint
 10
67.05022823068327
 20
-48.71484232205708
 30
0.0
  0
POINT
  5
118
330
17
100
AcDbEntity
  8
0
100
AcDbPoint
 10
66.91505555249003
 20
-49.06414868373111
 30
0.0
  0
POINT
  5
119
330
17
100
AcDbEntity
  8
0
100
AcDbPoint
 10
66.77828651366332
 20
-49.41333267721064
 30
0.0
  0
POINT
  5
11A
330
17
100
AcDbEntity
  8
0
100
AcDbPoint
 10
66.63991102476166
 20
-49.76238180014547
 30
0.0
  0
POINT
  5
11B
330
17
100
AcDbEntity
  8
0
100
AcDbPoint
 10
66.49992711062222
 20
-50.11128940574999
 30
0.0
  0
POINT
  5
11C
330
17
100
AcDbEntity
  8
0
100
AcDbPoint
 10
66.35833282035757
 20
-50.4600488250215
 30
0.0
  0
POINT
  5
11D
330
17
100
AcDbEntity
  8
0
100
AcDbPoint
 10
66.21511829398933
 20
-50.808647279197444
 30
0.0
  0
POINT
  5
11E
330
17
100
AcDbEntity
  8
0
100
AcDbPoint
 10
66.07028170959487
 20
-51.157077951381
 30
0.0
  0
POINT
  5
11F
330
17
100
AcDbEntity
  8
0
100
AcDbPoint
 10
65.92381339082301
 20
-51.50532784676108
 30
0.0
  0
POINT
  5
120
330
17
100
AcDbEntity
  8
0
100
AcDbPoint
 10
65.77571950125474
 20
-51.85339619388836
 30
0.0
  0
POINT
  5
121
330
17
100
AcDbEntity
  8
0
100
AcDbPoint
 10
65.62598264477445
 20
-52.20126366227319
 30
0.0
  0
POINT
  5
122
330
17
100
AcDbEntity
  8
0
100
AcDbPoint
 10
65.4746012670109
 20
-52.548923146139096
 30
0.0
  0
POINT
  5
123
330
17
100
AcDbEntity
  8
0
100
AcDbPoint
 10
65.32157384169663
 20
-52.89636752017454
 30
0.0
  0
POINT
  5
124
330
17
100
AcDbEntity
  8
0
100
AcDbPoint
 10
65.16689112689153
 20
-53.2435833125783
 30
0.0
  0
POINT
  5
125
330
17
100
AcDbEntity
  8
0
100
AcDbPoint
 10
65.01055173602799
 20
-53.590563258078646
 30
0.0
  0
POINT
  5
126
330
17
100
AcDbEntity
  8
0
100
AcDbPoint
 10
64.85255431197344
 20
-53.93730007289423
 30
0.0
  0
POINT
  5
127
330
17
100
AcDbEntity
  8
0
100
AcDbPoint
 10
64.69288986673024
 20
-54.28378002696579
 30
0.0
  0
POINT
  5
128
330
17
100
AcDbEntity
  8
0
100
AcDbPoint
 10
64.53154955450313
 20
-54.62998923848609
 30
0.0
  0
POINT
  5
129
330
17
100
AcDbEntity
  8
0
100
AcDbPoint
 10
64.36853988141472
 20
-54.97592666420114
 30
0.0
  0
POINT
  5
12A
330
17
100
AcDbEntity
  8
0
100
AcDbPoint
 10
64.2038445447438
 20
-55.32157179394645
 30
0.0
  0
POINT
  5
12B
330
17
100
AcDbEntity
  8
0
100
AcDbPoint
 10
64.03746259540489
 20
-55.66691695758818
 30
0.0
  0
POINT
  5
12C
330
17
100
AcDbEntity
  8
0
100
AcDbPoint
 10
63.86940063558319
 20
-56.01196106286107
 30
0.0
  0
POINT
  5
12D
330
17
100
AcDbEntity
  8
0
100
AcDbPoint
 10
63.69963522687
 20
-56.35667662820974
 30
0.0
  0
POINT
  5
12E
330
17
100
AcDbEntity
  8
0
100
AcDbPoint
 10
63.528180613795065
 20
-56.701069058686485
 30
0.0
  0
POINT
  5
12F
330
17
100
AcDbEntity
  8
0
100
AcDbPoint
 10
63.35502111704583
 20
-57.04511724036313
 30
0.0
  0
POINT
  5
130
330
17
100
AcDbEntity
  8
0
100
AcDbPoint
 10
63.18015612917842
 20
-57.38881323269841
 30
0.0
  0
POINT
  5
131
330
17
100
AcDbEntity
  8
0
100
AcDbPoint
 10
63.003577705160296
 20
-57.73214232586755
 30
0.0
  0
POINT
  5
132
330
17
100
AcDbEntity
  8
0
100
AcDbPoint
 10
62.825292739899304
 20
-58.07510324440632
 30
0.0
  0
POINT
  5
133
330
17
100
AcDbEntity
  8
0
100
AcDbPoint
 10
62.64528610518668
 20
-58.4176743684966
 30
0.0
  0
POINT
  5
134
330
17
100
AcDbEntity
  8
0
100
AcDbPoint
 10
62.46355023065846
 20
-58.7598406624491
 30
0.0
  0
POINT
  5
135
330
17
100
AcDbEntity
  8
0
100
AcDbPoint
 10
62.280099464336736
 20
-59.10160760313396
 30
0.0
  0
POINT
  5
136
330
17
100
AcDbEntity
  8
0
100
AcDbPoint
 10
62.09491183343005
 20
-59.44294633418292
 30
0.0
  0
POINT
  5
137
330
17
100
AcDbEntity
  8
0
100
AcDbPoint
 10
61.90799453829704
 20
-59.78385539645116
 30
0.0
  0
POINT
  5
138
330
17
100
AcDbEntity
  8
0
100
AcDbPoint
 10
61.71934037096981
 20
-60.124319491134166
 30
0.0
  0
POINT
  5
139
330
17
100
AcDbEntity
  8
0
100
AcDbPoint
 10
61.5289422840325
 20
-60.464323184921994
 30
0.0
  0
POINT
  5
13A
330
17
100
AcDbEntity
  8
0
100
AcDbPoint
 10
61.33680049392276
 20
-60.80385795165318
 30
0.0
  0
POINT
  5
13B
330
17
100
AcDbEntity
  8
0
100
AcDbPoint
 10
61.14291525736893
 20
-61.14291525736895
 30
0.0
  0
POINT
  5
13C
330
17
100
AcDbEntity
  8
0
100
AcDbPoint
 10
60.947272791172125
 20
-61.48147235679095
 30
0.0
  0
POINT
  5
13D
330
17
100
AcDbEntity
  8
0
100
AcDbPoint
 10
60.74988062829043
 20
-61.8195276495224
 30
0.0
  0
POINT
  5
13E
330
17
100
AcDbEntity
  8
0
100
AcDbPoint
 10
60.55072528533419
 20
-62.15705816255778
 30
0.0
  0
POINT
  5
13F
330
17
100
AcDbEntity
  8
0
100
AcDbPoint
 10
60.34981441061518
 20
-62.49406225382699
 30
0.0
  0
POINT
  5
140
330
17
100
AcDbEntity
  8
0
100
AcDbPoint
 10
60.14714173940822
 20
-62.830523950553975
 30
0.0
  0
POINT
  5
141
330
17
100
AcDbEntity
  8
0
100
AcDbPoint
 10
59.942701175628386
 20
-63.16642715453297
 30
0.0
  0
POINT
  5
142
330
17
100
AcDbEntity
  8
0
100
AcDbPoint
 10
59.73648679320045
 20
-63.501755643709494
 30
0.0
  0
POINT
  5
143
330
17
100
AcDbEntity
  8
0
100
AcDbPoint
 10
59.5285064773828
 20
-63.83650770084695
 30
0.0
  0
POINT
  5
144
330
17
100
AcDbEntity
  8
0
100
AcDbPoint
 10
59.31874766631212
 20
-64.17065969588663
 30
0.0
  0
POINT
  5
145
330
17
100
AcDbEntity
  8
0
100
AcDbPoint
 10
59.1072116108401
 20
-64.50420250541019
 30
0.0
  0
POINT
  5
146
330
17
100
AcDbEntity
  8
0
100
AcDbPoint
 10
58.89389288380477
 20
-64.83711960319512
 30
0.0
  0
POINT
  5
147
330
17
100
AcDbEntity
  8
0
100
AcDbPoint
 10
58.67879292448221
 20
-65.16940177700066
 30
0.0
  0
POINT
  5
148
330
17
100
AcDbEntity
  8
0
100
AcDbPoint
 10
58.46191321862573
 20
-65.50103981526075
 30
0.0
  0
POINT
  5
149
330
17
100
AcDbEntity
  8
0
100
AcDbPoint
 10
58.243242046086166
 20
-65.83200952820002
 30
0.0
  0
POINT
  5
14A
330
17
100
AcDbEntity
  8
0
100
AcDbPoint
 10
58.02278118208805
 20
-66.16230153324798
 30
0.0
  0
POINT
  5
14B
330
17
100
AcDbEntity
  8
0
100
AcDbPoint
 10
57.80052588930994
 20
-66.4918989038222
 30
0.0
  0
POINT
  5
14C
330
17
100
AcDbEntity
  8
0
100
AcDbPoint
 10
57.57648466564621
 20
-66.82079975374964
 30
0.0
  0
POINT
  5
14D
330
17
100
AcDbEntity
  8
0
100
AcDbPoint
 10
57.35064644188141
 20
-67.14897950275055
 30
0.0
  0
POINT
  5
14E
330
17
100
AcDbEntity
  8
0
100
AcDbPoint
 10
57.123006924020075
 20
-67.47642098056144
 30
0.0
  0
POINT
  5
14F
330
17
100
AcDbEntity
  8
0
100
AcDbPoint
 10
56.89356842893016
 20
-67.80311457068208
 30
0.0
  0
POINT
  5
150
330
17
100
AcDbEntity
  8
0
100
AcDbPoint
 10
56.662333323734714
 20
-68.12905066353768
 30
0.0
  0
POINT
  5
151
330
17
100
AcDbEntity
  8
0
100
AcDbPoint
 10
56.42929766500965
 20
-68.45421194049155
 30
0.0
  0
POINT
  5
152
330
17
100
AcDbEntity
  8
0
100
AcDbPoint
 10
56.19445769446097
 20
-68.77858097962647
 30
0.0
  0
POINT
  5
153
330
17
100
AcDbEntity
  8
0
100
AcDbPoint
 10
55.95781613331078
 20
-69.10214802893671
 30
0.0
  0
POINT
  5
154
330
17
100
AcDbEntity
  8
0
100
AcDbPoint
 10
55.71936949514995
 20
-69.42489554730747
 30
0.0
  0
POINT
  5
155
330
17
100
AcDbEntity
  8
0
100
AcDbPoint
 10
55.47911448148857
 20
-69.74680589468085
 30
0.0
  0
POINT
  5
156
330
17
100
AcDbEntity
  8
0
100
AcDbPoint
 10
55.23705417384121
 20
-70.06786918698349
 30
0.0
  0
POINT
  5
157
330
17
100
AcDbEntity
  8
0
100
AcDbPoint
 10
54.9931855500055
 20
-70.38806767237091
 30
0.0
  0
POINT
  5
158
330
17
100
AcDbEntity
  8
0
100
AcDbPoint
 10
54.74750577838942
 20
-70.70738350446024
 30
0.0
  0
POINT
  5
159
330
17
100
AcDbEntity
  8
0
100
AcDbPoint
 10
54.50002439434902
 20
-71.02581461118034
 30
0.0
  0
POINT
  5
15A
330
17
100
AcDbEntity
  8
0
100
AcDbPoint
 10
54.25073268983951
 20
-71.34333516133078
 30
0.0
  0
POINT
  5
15B
330
17
100
AcDbEntity
  8
0
100
AcDbPoint
 10
53.999628306635834
 20
-71.659927113748
 30
0.0
  0
POINT
  5
15C
330
17
100
AcDbEntity
  8
0
100
AcDbPoint
 10
53.746715064035534
 20
-71.97558035154336
 30
0.0
  0
POINT
  5
15D
330
17
100
AcDbEntity
  8
0
100
AcDbPoint
 10
53.49199683659739
 20
-72.2902847755039
 30
0.0
  0
POINT
  5
15E
330
17
100
AcDbEntity
  8
0
100
AcDbPoint
 10
53.2354657278577
 20
-72.60401417549643
 30
0.0
  0
POINT
  5
15F
330
17
100
AcDbEntity
  8
0
100
AcDbPoint
 10
52.97712593408823
 20
-72.91675833420364
 30
0.0
  0
POINT
  5
160
330
17
100
AcDbEntity
  8
0
100
AcDbPoint
 10
52.7169817078888
 20
-73.2285070547189
 30
0.0
  0
POINT
  5
161
330
17
100
AcDbEntity
  8
0
100
AcDbPoint
 10
52.45502574401942
 20
-73.53923387854036
 30
0.0
  0
POINT
  5
162
330
17
100
AcDbEntity
  8
0
100
AcDbPoint
 10
52.19126262087464
 20
-73.84892849893284
 30
0.0
  0
POINT
  5
163
330
17
100
AcDbEntity
  8
0
100
AcDbPoint
 10
51.92569697416492
 20
-74.1575806323487
 30
0.0
  0
POINT
  5
164
330
17
100
AcDbEntity
  8
0
100
AcDbPoint
 10
51.65832779682234
 20
-74.46517180227043
 30
0.0
  0
POINT
  5
165
330
17
100
AcDbEntity
  8
0
100
AcDbPoint
 10
51.38914861839811
 20
-74.77167521555934
 30
0.0
  0
POINT
  5
166
330
17
100
AcDbEntity
  8
0
100
AcDbPoint
 10
51.1181701982731
 20
-75.07708870474721
 30
0.0
  0
POINT
  5
167
330
17
100
AcDbEntity
  8
0
100
AcDbPoint
 10
50.84539202621348
 20
-75.381393646793
 30
0.0
  0
POINT
  5
168
330
17
100
AcDbEntity
  8
0
100
AcDbPoint
 10
50.570813794823266
 20
-75.68457134801591
 30
0.0
  0
POINT
  5
169
330
17
100
AcDbEntity
  8
0
100
AcDbPoint
 10
50.29443540045316
 20
-75.98660304599582
 30
0.0
  0
POINT
  5
16A
330
17
100
AcDbEntity
  8
0
100
AcDbPoint
 10
50.01626242702591
 20
-76.28747827434378
 30
0.0
  0
POINT
  5
16B
330
17
100
AcDbEntity
  8
0
100
AcDbPoint
 10
49.73629507142315
 20
-76.58717821042845
 30
0.0
  0
POINT
  5
16C
330
17
100
AcDbEntity
  8
0
100
AcDbPoint
 10
49.45453914602826
 20
-76.88569237806249
 30
0.0
  0
POINT
  5
16D
330
17
100
AcDbEntity
  8
0
100
AcDbPoint
 10
49.17098977684782
 20
-77.18299346530961
 30
0.0
  0
POINT
  5
16E
330
17
100
AcDbEntity
  8
0
100
AcDbPoint
 10
48.88565311641576
 20
-77.47907092029091
 30
0.0
  0
POINT
  5
16F
330
17
100
AcDbEntity
  8
0
100
AcDbPoint
 10
48.59853537772755
 20
-77.77391422580045
 30
0.0
  0
POINT
  5
170
330
17
100
AcDbEntity
  8
0
100
AcDbPoint
 10
48.30963230975818
 20
-78.0674958925984
 30
0.0
  0
POINT
  5
171
330
17
100
AcDbEntity
  8
0
100
AcDbPoint
 10
48.018955693721345
 20
-78.35981386296184
 30
0.0
  0
POINT
  5
172
330
17
100
AcDbEntity
  8
0
100
AcDbPoint
 10
47.72650165966043
 20
-78.65084056031016
 30
0.0
  0
POINT
  5
173
330
17
100
AcDbEntity
  8
0
100
AcDbPoint
 10
47.4322718470382
 20
-78.9405568362978
 30
0.0
  0
POINT
  5
174
330
17
100
AcDbEntity
  8
0
100
AcDbPoint
 10
47.13627833216183
 20
-79.2289606804347
 30
0.0
  0
POINT
  5
175
330
17
100
AcDbEntity
  8
0
100
AcDbPoint
 10
46.83851787653177
 20
-79.5160243628837
 30
0.0
  0
POINT
  5
176
330
17
100
AcDbEntity
  8
0
100
AcDbPoint
 10
46.53899767898939
 20
-79.80173729399077
 30
0.0
  0
POINT
  5
177
330
17
100
AcDbEntity
  8
0
100
AcDbPoint
 10
46.237719999999996
 20
-80.08608026614364
 30
0.0
  0
POINT
  5
178
330
17
100
AcDbEntity
  8
0
100
AcDbPoint
 10
45.93468731273846
 20
-80.36903402743773
 30
0.0
  0
POINT
  5
179
330
17
100
AcDbEntity
  8
0
100
AcDbPoint
 10
45.62990230377847
 20
-80.65057928367614
 30
0.0
  0
POINT
  5
17A
330
17
100
AcDbEntity
  8
0
100
AcDbPoint
 10
45.32337764618967
 20
-80.93071415029631
 30
0.0
  0
POINT
  5
17B
330
17
100
AcDbEntity
  8
0
100
AcDbPoint
 10
45.015116226647045
 20
-81.2094193819649
 30
0.0
  0
POINT
  5
17C
330
17
100
AcDbEntity
  8
0
100
AcDbPoint
 10
44.70511152630966
 20
-81.4866581605622
 30
0.0
  0
POINT
  5
17D
330
17
100
AcDbEntity
  8
0
100
AcDbPoint
 10
44.39338140557236
 20
-81.76243740536226
 30
0.0
  0
POINT
  5
17E
330
17
100
AcDbEntity
  8
0
100
AcDbPoint
 10
44.0799292811574
 20
-82.03673782555083
 30
0.0
  0
POINT
  5
17F
330
17
100
AcDbEntity
  8
0
100
AcDbPoint
 10
43.76475409064798
 20
-82.30953126765581
 30
0.0
  0
POINT
  5
180
330
17
100
AcDbEntity
  8
0
100
AcDbPoint
 10
43.447864454371086
 20
-82.58080716520695
 30
0.0
  0
POINT
  5
181
330
17
100
AcDbEntity
  8
0
100
AcDbPoint
 10
43.12926443781389
 20
-82.85054613445358
 30
0.0
  0
POINT
  5
182
330
17
100
AcDbEntity
  8
0
100
AcDbPoint
 10
42.80896748125137
 20
-83.11874654492308
 30
0.0
  0
POINT
  5
183
330
17
100
AcDbEntity
  8
0
100
AcDbPoint
 10
42.486968772520314
 20
-83.38537126001769
 30
0.0
  0
POINT
  5
184
330
17
100
AcDbEntity
  8
0
100
AcDbPoint
 10
42.16328203210603
 20
-83.6504186795092
 30
0.0
  0
POINT
  5
185
330
17
100
AcDbEntity
  8
0
100
AcDbPoint
 10
41.83790750141018
 20
-83.9138604906713
 30
0.0
  0
POINT
  5
186
330
17
100
AcDbEntity
  8
0
100
AcDbPoint
 10
41.5108590652366
 20
-84.17569518854575
 30
0.0
  0
POINT
  5
187
330
17
100
AcDbEntity
  8
0
100
AcDbPoint
 10
41.18213736322556
 20
-84.43589444026766
 30
0.0
  0
POINT
  5
188
330
17
100
AcDbEntity
  8
0
100
AcDbPoint
 10
40.85175644425212
 20
-84.69445683998158
 30
0.0
  0
POINT
  5
189
330
17
100
AcDbEntity
  8
0
100
AcDbPoint
 10
40.51971304181867
 20
-84.95134501471456
 30
0.0
  0
POINT
  5
18A
330
17
100
AcDbEntity
  8
0
100
AcDbPoint
 10
40.18602148682801
 20
-85.20655760545839
 30
0.0
  0
POINT
  5
18B
330
17
100
AcDbEntity
  8
0
100
AcDbPoint
 10
39.850687562456436
 20
-85.46007526475199
 30
0.0
  0
POINT
  5
18C
330
17
100
AcDbEntity
  8
0
100
AcDbPoint
 10
39.513721458596635
 20
-85.71188771607669
 30
0.0
  0
POINT
  5
18D
330
17
100
AcDbEntity
  8
0
100
AcDbPoint
 10
39.17512513314162
 20
-85.96196654800943
 30
0.0
  0
POINT
  5
18E
330
17
100
AcDbEntity
  8
0
100
AcDbPoint
 10
38.83490913777695
 20
-86.21030150498667
 30
0.0
  0
POINT
  5
18F
330
17
100
AcDbEntity
  8
0
100
AcDbPoint
 10
38.49308408618774
 20
-86.4568823985649
 30
0.0
  0
POINT
  5
190
330
17
100
AcDbEntity
  8
0
100
AcDbPoint
 10
38.14965662617203
 20
-86.70168995466678
 30
0.0
  0
POINT
  5
191
330
17
100
AcDbEntity
  8
0
100
AcDbPoint
 10
37.80463761408094
 20
-86.94471406771153
 30
0.0
  0
POINT
  5
192
330
17
100
AcDbEntity
  8
0
100
AcDbPoint
 10
37.4580300725773
 20
-87.18592632553717
 30
0.0
  0
POINT
  5
193
330
17
100
AcDbEntity
  8
0
100
AcDbPoint
 10
37.10984522072016
 20
-87.42531665858688
 30
0.0
  0
POINT
  5
194
330
17
100
AcDbEntity
  8
0
100
AcDbPoint
 10
36.760094338780604
 20
-87.66287506936075
 30
0.0
  0
POINT
  5
195
330
17
100
AcDbEntity
  8
0
100
AcDbPoint
 10
36.40878494095456
 20
-87.89858239397789
 30
0.0
  0
POINT
  5
196
330
17
100
AcDbEntity
  8
0
100
AcDbPoint
 10
36.055928549620816
 20
-88.13242873029336
 30
0.0
  0
POINT
  5
197
330
17
100
AcDbEntity
  8
0
100
AcDbPoint
 10
35.701529255305665
 20
-88.36438570666438
 30
0.0
  0
POINT
  5
198
330
17
100
AcDbEntity
  8
0
100
AcDbPoint
 10
35.345602649003865
 20
-88.59445276021086
 30
0.0
  0
POINT
  5
199
330
17
100
AcDbEntity
  8
0
100
AcDbPoint
 10
34.98749718741948
 20
-88.82093610940335
 30
0.0
  0
POINT
  5
19A
330
17
100
AcDbEntity
  8
0
100
AcDbPoint
 10
34.62920035790238
 20
-89.04884099188408
 30
0.0
  0
POINT
  5
19B
330
17
100
AcDbEntity
  8
0
100
AcDbPoint
 10
34.26874165657658
 20
-89.2731241503646
 30
0.0
  0
POINT
  5
19C
330
17
100
AcDbEntity
  8
0
100
AcDbPoint
 10
33.90679669643412
 20
-89.49546005367863
 30
0.0
  0
POINT
  5
19D
330
17
100
AcDbEntity
  8
0
100
AcDbPoint
 10
33.54337427980843
 20
-89.71582982760782
 30
0.0
  0
POINT
  5
19E
330
17
100
AcDbEntity
  8
0
100
AcDbPoint
 10
33.17848343077937
 20
-89.93421461698043
 30
0.0
  0
POINT
  5
19F
330
17
100
AcDbEntity
  8
0
100
AcDbPoint
 10
32.8121333953286
 20
-90.15059558779832
 30
0.0
  0
POINT
  5
1A0
330
17
100
AcDbEntity
  8
0
100
AcDbPoint
 10
32.44434039981137
 20
-90.36497275288731
 30
0.0
  0
POINT
  5
1A1
330
17
100
AcDbEntity
  8
0
100
AcDbPoint
 10
32.075110549747734
 20
-90.57731798850286
 30
0.0
  0
POINT
  5
1A2
330
17
100
AcDbEntity
  8
0
100
AcDbPoint
 10
31.704460227524862
 20
-90.78763146108722
 30
0.0
  0
POINT
  5
1A3
330
17
100
AcDbEntity
  8
0
100
AcDbPoint
 10
31.33239594066237
 20
-90.99588511451746
 30
0.0
  0
POINT
  5
1A4
330
17
100
AcDbEntity
  8
0
100
AcDbPoint
 10
30.9589342263188
 20
-91.20207927271649
 30
0.0
  0
POINT
  5
1A5
330
17
100
AcDbEntity
  8
0
100
AcDbPoint
 10
30.58408199347638
 20
-91.40618595319856
 30
0.0
  0
POINT
  5
1A6
330
17
100
AcDbEntity
  8
0
100
AcDbPoint
 10
30.20785593273603
 20
-91.60820564122335
 30
0.0
  0
POINT
  5
1A7
330
17
100
AcDbEntity
  8
0
100
AcDbPoint
 10
29.830266444088064
 20
-91.80811994452131
 30
0.0
  0
POINT
  5
1A8
330
17
100
AcDbEntity
  8
0
100
AcDbPoint
 10
29.451324148311272
 20
-92.005910505799
 30
0.0
  0
POINT
  5
1A9
330
17
100
AcDbEntity
  8
0
100
AcDbPoint
 10
29.071045901107066
 20
-92.2015780792136
 30
0.0
  0
POINT
  5
1AA
330
17
100
AcDbEntity
  8
0
100
AcDbPoint
 10
28.68943954959932
 20
-92.3950949118122
 30
0.0
  0
POINT
  5
1AB
330
17
100
AcDbEntity
  8
0
100
AcDbPoint
 10
28.306519175253673
 20
-92.58645236455006
 30
0.0
  0
POINT
  5
1AC
330
17
100
AcDbEntity
  8
0
100
AcDbPoint
 10
27.922301794909288
 20
-92.7756514671932
 30
0.0
  0
POINT
  5
1AD
330
17
100
AcDbEntity
  8
0
100
AcDbPoint
 10
27.536795790525677
 20
-92.96266462826345
 30
0.0
  0
POINT
  5
1AE
330
17
100
AcDbEntity
  8
0
100
AcDbPoint
 10
27.150015527447202
 20
-93.14748345150005
 30
0.0
  0
POINT
  5
1AF
330
17
100
AcDbEntity
  8
0
100
AcDbPoint
 10
26.76197542296723
 20
-93.33009963577129
 30
0.0
  0
POINT
  5
1B0
330
17
100
AcDbEntity
  8
0
100
AcDbPoint
 10
26.372687231316842
 20
-93.51049535082967
 30
0.0
  0
POINT
  5
1B1
330
17
100
AcDbEntity
  8
0
100
AcDbPoint
 10
25.982168270311913
 20
-93.68867208776787
 30
0.0
  0
POINT
  5
1B2
330
17
100
AcDbEntity
  8
0
100
AcDbPoint
 10
25.590427848975025
 20
-93.86460253747417
 30
0.0
  0
POINT
  5
1B3
330
17
100
AcDbEntity
  8
0
100
AcDbPoint
 10
25.197483427382952
 20
-94.03828837386801
 30
0.0
  0
POINT
  5
1B4
330
17
100
AcDbEntity
  8
0
100
AcDbPoint
 10
24.803347254377282
 20
-94.20971207359024
 30
0.0
  0
POINT
  5
1B5
330
17
100
AcDbEntity
  8
0
100
AcDbPoint
 10
24.408036803843043
 20
-94.37887553019024
 30
0.0
  0
POINT
  5
1B6
330
17
100
AcDbEntity
  8
0
100
AcDbPoint
 10
24.011559582691902
 20
-94.54574201072852
 30
0.0
  0
POINT
  5
1B7
330
17
100
AcDbEntity
  8
0
100
AcDbPoint
 10
23.61393574900967
 20
-94.71032326786843
 30
0.0
  0
POINT
  5
1B8
330
17
100
AcDbEntity
  8
0
100
AcDbPoint
 10
23.215180415796418
 20
-94.87261181333852
 30
0.0
  0
POINT
  5
1B9
330
17
100
AcDbEntity
  8
0
100
AcDbPoint
 10
22.815304073460982
 20
-95.03258081173011
 30
0.0
  0
POINT
  5
1BA
330
17
100
AcDbEntity
  8
0
100
AcDbPoint
 10
22.41432447369847
 20
-95.19023264879996
 30
0.0
  0
POINT
  5
1BB
330
17
100
AcDbEntity
  8
0
100
AcDbPoint
 10
22.012254744769006
 20
-95.34555036556397
 30
0.0
  0
POINT
  5
1BC
330
17
100
AcDbEntity
  8
0
100
AcDbPoint
 10
21.609110436696287
 20
-95.49852681975551
 30
0.0
  0
POINT
  5
1BD
330
17
100
AcDbEntity
  8
0
100
AcDbPoint
 10
21.204909308144558
 20
-95.64916473563042
 30
0.0
  0
POINT
  5
1BE
330
17
100
AcDbEntity
  8
0
100
AcDbPoint
 10
20.799662625553434
 20
-95.79743766173893
 30
0.0
  0
POINT
  5
1BF
330
17
100
AcDbEntity
  8
0
100
AcDbPoint
 10
20.393388276669576
 20
-95.94334852070462
 30
0.0
  0
POINT
  5
1C0
330
17
100
AcDbEntity
  8
0
100
AcDbPoint
 10
19.986099948103412
 20
-96.08688079560767
 30
0.0
  0
POINT
  5
1C1
330
17
100
AcDbEntity
  8
0
100
AcDbPoint
 10
19.577815526366802
 20
-96.22803763743678
 30
0.0
  0
POINT
  5
1C2
330
17
100
AcDbEntity
  8
0
100
AcDbPoint
 10
19.16854886621095
 20
-96.3668027218465
 30
0.0
  0
POINT
  5
1C3
330
17
100
AcDbEntity
  8
0
100
AcDbPoint
 10
18.758317850070867
 20
-96.50317942842977
 30
0.0
  0
POINT
  5
1C4
330
17
100
AcDbEntity
  8
0
100
AcDbPoint
 10
18.347134633060843
 20
-96.63714180262544
 30
0.0
  0
POINT
  5
1C5
330
17
100
AcDbEntity
  8
0
100
AcDbPoint
 10
17.935017219347756
 20
-96.76869342870039
 30
0.0
  0
POINT
  5
1C6
330
17
100
AcDbEntity
  8
0
100
AcDbPoint
 10
17.521981700633702
 20
-96.89782818996285
 30
0.0
  0
POINT
  5
1C7
330
17
100
AcDbEntity
  8
0
100
AcDbPoint
 10
17.10804420637694
 20
-97.02454007684166
 30
0.0
  0
POINT
  5
1C8
330
17
100
AcDbEntity
  8
0
100
AcDbPoint
 10
16.693220903108344
 20
-97.14882318710828
 30
0.0
  0
POINT
  5
1C9
330
17
100
AcDbEntity
  8
0
100
AcDbPoint
 10
16.277526343270907
 20
-97.2706618632387
 30
0.0
  0
POINT
  5
1CA
330
17
100
AcDbEntity
  8
0
100
AcDbPoint
 10
15.860978502062475
 20
-97.39006026698007
 30
0.0
  0
POINT
  5
1CB
330
17
100
AcDbEntity
  8
0
100
AcDbPoint
 10
15.443593653210906
 20
-97.50701281998644
 30
0.0
  0
POINT
  5
1CC
330
17
100
AcDbEntity
  8
0
100
AcDbPoint
 10
15.02538810476743
 20
-97.62151405210183
 30
0.0
  0
POINT
  5
1CD
330
17
100
AcDbEntity
  8
0
100
AcDbPoint
 10
14.60637672032286
 20
-97.73354871140262
 30
0.0
  0
POINT
  5
1CE
330
17
100
AcDbEntity
  8
0
100
AcDbPoint
 10
14.18657743893544
 20
-97.84312142216021
 30
0.0
  0
POINT
  5
1CF
330
17
100
AcDbEntity
  8
0
100
AcDbPoint
 10
13.766005275835777
 20
-97.95021713786325
 30
0.0
  0
POINT
  5
1D0
330
17
100
AcDbEntity
  8
0
100
AcDbPoint
 10
13.344679496224758
 20
-98.05485062303414
 30
0.0
  0
POINT
  5
1D1
330
17
100
AcDbEntity
  8
0
100
AcDbPoint
 10
12.922613829292063
 20
-98.15699714100411
 30
0.0
  0
POINT
  5
1D2
330
17
100
AcDbEntity
  8
0
100
AcDbPoint
 10
12.49982616638836
 20
-98.25666177864822
 30
0.0
  0
POINT
  5
1D3
330
17
100
AcDbEntity
  8
0
100
AcDbPoint
 10
12.076334255294286
 20
-98.35384975513315
 30
0.0
  0
POINT
  5
1D4
330
17
100
AcDbEntity
  8
0
100
AcDbPoint
 10
11.652152173160944
 20
-98.44853662814648
 30
0.0
  0
POINT
  5
1D5
330
17
100
AcDbEntity
  8
0
100
AcDbPoint
 10
11.227298899941138
 20
-98.54073776669362
 30
0.0
  0
POINT
  5
1D6
330
17
100
AcDbEntity
  8
0
100
AcDbPoint
 10
10.8017909188494
 20
-98.63044880855942
 30
0.0
  0
POINT
  5
1D7
330
17
100
AcDbEntity
  8
0
100
AcDbPoint
 10
10.375643694365106
 20
-98.71765555534624
 30
0.0
  0
POINT
  5
1D8
330
17
100
AcDbEntity
  8
0
100
AcDbPoint
 10
9.94887489420237
 20
-98.80236379935204
 30
0.0
  0
POINT
  5
1D9
330
17
100
AcDbEntity
  8
0
100
AcDbPoint
 10
9.521500120746357
 20
-98.88455955253443
 30
0.0
  0
POINT
  5
1DA
330
17
100
AcDbEntity
  8
0
100
AcDbPoint
 10
9.093537919662745
 20
-98.96425879413515
 30
0.0
  0
POINT
  5
1DB
330
17
100
AcDbEntity
  8
0
100
AcDbPoint
 10
8.665004769708784
 20
-99.04145772144776
 30
0.0
  0
POINT
  5
1DC
330
17
100
AcDbEntity
  8
0
100
AcDbPoint
 10
8.235916344532777
 20
-99.11614267473668
 30
0.0
  0
POINT
  5
1DD
330
17
100
AcDbEntity
  8
0
100
AcDbPoint
 10
7.806289298623818
 20
-99.18831005812424
 30
0.0
  0
POINT
  5
1DE
330
17
100
AcDbEntity
  8
0
100
AcDbPoint
 10
7.376141790326713
 20
-99.25797633076094
 30
0.0
  0
POINT
  5
1DF
330
17
100
AcDbEntity
  8
0
100
AcDbPoint
 10
6.945490255683451
 20
-99.3251381357741
 30
0.0
  0
POINT
  5
1E0
330
17
100
AcDbEntity
  8
0
100
AcDbPoint
 10
6.514349842803825
 20
-99.38977226710233
 30
0.0
  0
POINT
  5
1E1
330
17
100
AcDbEntity
  8
0
100
AcDbPoint
 10
6.082739120039176
 20
-99.45190551145838
 30
0.0
  0
POINT
  5
1E2
330
17
100
AcDbEntity
  8
0
100
AcDbPoint
 10
5.650673884243052
 20
-99.51152486120809
 30
0.0
  0
POINT
  5
1E3
330
17
100
AcDbEntity
  8
0
100
AcDbPoint
 10
5.218171171270463
 20
-99.5686373789745
 30
0.0
  0
POINT
  5
1E4
330
17
100
AcDbEntity
  8
0
100
AcDbPoint
 10
4.785246900493349
 20
-99.62323026759077
 30
0.0
  0
POINT
  5
1E5
330
17
100
AcDbEntity
  8
0
100
AcDbPoint
 10
4.351918490867998
 20
-99.675320800724
 30
0.0
  0
POINT
  5
1E6
330
17
100
AcDbEntity
  8
0
100
AcDbPoint
 10
3.9182018508160392
 20
-99.72489639825083
 30
0.0
  0
POINT
  5
1E7
330
17
100
AcDbEntity
  8
0
100
AcDbPoint
 10
3.4841137764114816
 20
-99.77196456781546
 30
0.0
  0
POINT
  5
1E8
330
17
100
AcDbEntity
  8
0
100
AcDbPoint
 10
3.049670598523832
 20
-99.81652293508574
 30
0.0
  0
POINT
  5
1E9
330
17
100
AcDbEntity
  8
0
100
AcDbPoint
 10
2.6148889236981794
 20
-99.85857922889157
 30
0.0
  0
POINT
  5
1EA
330
17
100
AcDbEntity
  8
0
100
AcDbPoint
 10
2.1797851972325866
 20
-99.8981412889165
 30
0.0
  0
POINT
  5
1EB
330
17
100
AcDbEntity
  8
0
100
AcDbPoint
 10
1.744375178893128
 20
-99.9351870684363
 30
0.0
  0
POINT
  5
1EC
330
17
100
AcDbEntity
  8
0
100
AcDbPoint
 10
1.3086756438064717
 20
-99.9697446156356
 30
0.0
  0
POINT
  5
1ED
330
17
100
AcDbEntity
  8
0
100
AcDbPoint
 10
0.8727025057015472
 20
-100.0018020928055
 30
0.0
  0
POINT
  5
1EE
330
17
100
AcDbEntity
  8
0
100
AcDbPoint
 10
0.43647195063073313
 20
-100.03136776441035
 30
0.0
  0
POINT
  5
1EF
330
17
100
AcDbEntity
  8
0
100
AcDbPoint
 10
-2.566447188478594e-14
 20
-100.05843999999999
 30
0.0
  0
POINT
  5
1F0
330
17
100
AcDbEntity
  8
0
100
AcDbPoint
 10
-0.43669735918838865
 20
-100.08302727264437
 30
0.0
  0
POINT
  5
1F1
330
17
100
AcDbEntity
  8
0
100
AcDbPoint
 10
-0.8736043058799663
 20
-100.10513815793495
 30
0.0
  0
POINT
  5
1F2
330
17
100
AcDbEntity
  8
0
100
AcDbPoint
 10
-1.310704923807913
 20
-100.12476133383942
 30
0.0
  0
POINT
  5
1F3
330
17
100
AcDbEntity
  8
0
100
AcDbPoint
 10
-1.7479834639240406
 20
-100.1419055794099
 30
0.0
  0
POINT
  5
1F4
330
17
100
AcDbEntity
  8
0
100
AcDbPoint
 10
-2.185424563162919
 20
-100.15658977053694
 30
0.0
  0
POINT
  5
1F5
330
17
100
AcDbEntity
  8
0
100
AcDbPoint
 10
-2.6230121542970877
 20
-100.16879288997801
 30
0.0
  0
POINT
  5
1F6
330
17
100
AcDbEntity
  8
0
100
AcDbPoint
 10
-3.0607313426233245
 20
-100.17854400635088
 30
0.0
  0
POINT
  5
1F7
330
17
100
AcDbEntity
  8
0
100
AcDbPoint
 10
-3.4985663559859765
 20
-100.18583229710056
 30
0.0
  0
POINT
  5
1F8
330
17
100
AcDbEntity
  8
0
100
AcDbPoint
 10
-3.9365020287358212
 20
-100.19066702891372
 30
0.0
  0
POINT
  5
1F9
330
17
100
AcDbEntity
  8
0
100
AcDbPoint
 10
-4.374523365982406
 20
-100.19305756059437
 30
0.0
  0
POINT
  5
1FA
330
17
100
AcDbEntity
  8
0
100
AcDbPoint
 10
-4.812615064345802
 20
-100.1930033526934
 30
0.0
  0
POINT
  5
1FB
330
17
100
AcDbEntity
  8
0
100
AcDbPoint
 10
-5.250761817942082
 20
-100.19050396285688
 30
0.0
  0
POINT
  5
1FC
330
17
100
AcDbEntity
  8
0
100
AcDbPoint
 10
-5.688949452838641
 20
-100.18557901366816
 30
0.0
  0
POINT
  5
1FD
330
17
100
AcDbEntity
  8
0
100
AcDbPoint
 10
-6.127162921287921
 20
-100.178228241574
 30
0.0
  0
POINT
  5
1FE
330
17
100
AcDbEntity
  8
0
100
AcDbPoint
 10
-6.565387828729878
 20
-100.1684614564408
 30
0.0
  0
POINT
  5
1FF
330
17
100
AcDbEntity
  8
0
100
AcDbPoint
 10
-7.0036092569128625
 20
-100.15627857552909
 30
0.0
  0
POINT
  5
200
330
17
100
AcDbEntity
  8
0
100
AcDbPoint
 10
-7.441812287828477
 20
-100.14167960978497
 30
0.0
  0
POINT
  5
201
330
17
100
AcDbEntity
  8
0
100
AcDbPoint
 10
-7.879984358059125
 20
-100.12469457135307
 30
0.0
  0
POINT
  5
202
330
17
100
AcDbEntity
  8
0
100
AcDbPoint
 10
-8.318109287063178
 20
-100.10530369555089
 30
0.0
  0
POINT
  5
203
330
17
100
AcDbEntity
  8
0
100
AcDbPoint
 10
-8.75617403440998
 20
-100.08352718538663
 30
0.0
  0
POINT
  5
204
330
17
100
AcDbEntity
  8
0
100
AcDbPoint
 10
-9.19416499475546
 20
-100.05937534713682
 30
0.0
  0
POINT
  5
205
330
17
100
AcDbEntity
  8
0
100
AcDbPoint
 10
-9.632067780853705
 20
-100.03284860697079
 30
0.0
  0
POINT
  5
206
330
17
100
AcDbEntity
  8
0
100
AcDbPoint
 10
-10.069869010569477
 20
-100.00395742978812
 30
0.0
  0
POINT
  5
207
330
17
100
AcDbEntity
  8
0
100
AcDbPoint
 10
-10.507554433870375
 20
-99.97270240642519
 30
0.0
  0
POINT
  5
208
330
17
100
AcDbEntity
  8
0
100
AcDbPoint
 10
-10.945111982254534
 20
-99.93910409670234
 30
0.0
  0
POINT
  5
209
330
17
100
AcDbEntity
  8
0
100
AcDbPoint
 10
-11.382527674788312
 20
-99.90316323807158
 30
0.0
  0
POINT
  5
20A
330
17
100
AcDbEntity
  8
0
100
AcDbPoint
 10
-11.81978753553726
 20
-99.86488065350929
 30
0.0
  0
POINT
  5
20B
330
17
100
AcDbEntity
  8
0
100
AcDbPoint
 10
-12.256880031468723
 20
-99.82427710240522
 30
0.0
  0
POINT
  5
20C
330
17
100
AcDbEntity
  8
0
100
AcDbPoint
 10
-12.693790195981077
 20
-99.78134362615747
 30
0.0
  0
POINT
  5
20D
330
17
100
AcDbEntity
  8
0
100
AcDbPoint
 10
-13.130508116688645
 20
-99.73611102950863
 30
0.0
  0
POINT
  5
20E
330
17
100
AcDbEntity
  8
0
100
AcDbPoint
 10
-13.567019013041522
 20
-99.68857049732766
 30
0.0
  0
POINT
  5
20F
330
17
100
AcDbEntity
  8
0
100
AcDbPoint
 10
-14.003310722013813
 20
-99.63873312455519
 30
0.0
  0
POINT
  5
210
330
17
100
AcDbEntity
  8
0
100
AcDbPoint
 10
-14.439372695875974
 20
-99.58661995986203
 30
0.0
  0
POINT
  5
211
330
17
100
AcDbEntity
  8
0
100
AcDbPoint
 10
-14.87519030587374
 20
-99.53222241130578
 30
0.0
  0
POINT
  5
212
330
17
100
AcDbEntity
  8
0
100
AcDbPoint
 10
-15.310753322453383
 20
-99.47556164235807
 30
0.0
  0
POINT
  5
213
330
17
100
AcDbEntity
  8
0
100
AcDbPoint
 10
-15.746048740953707
 20
-99.41663908834329
 30
0.0
  0
POINT
  5
214
330
17
100
AcDbEntity
  8
0
100
AcDbPoint
 10
-16.181065172949392
 20
-99.35546613171147
 30
0.0
  0
POINT
  5
215
330
17
100
AcDbEntity
  8
0
100
AcDbPoint
 10
-16.615789761006322
 20
-99.29204434073323
 30
0.0
  0
POINT
  5
216
330
17
100
AcDbEntity
  8
0
100
AcDbPoint
 10
-17.050213044212178
 20
-99.22639507072388
 30
0.0
  0
POINT
  5
217
330
17
100
AcDbEntity
  8
0
100
AcDbPoint
 10
-17.484324179045206
 20
-99.15852984492133
 30
0.0
  0
POINT
  5
218
330
17
100
AcDbEntity
  8
0
100
AcDbPoint
 10
-17.918108944954902
 20
-99.08844054862114
 30
0.0
  0
POINT
  5
219
330
17
100
AcDbEntity
  8
0
100
AcDbPoint
 10
-18.35155842703093
 20
-99.01614866856654
 30
0.0
  0
POINT
  5
21A
330
17
100
AcDbEntity
  8
0
100
AcDbPoint
 10
-18.784662199086192
 20
-98.94166587606621
 30
0.0
  0
POINT
  5
21B
330
17
100
AcDbEntity
  8
0
100
AcDbPoint
 10
-19.217408109126797
 20
-98.8649940643485
 30
0.0
  0
POINT
  5
21C
330
17
100
AcDbEntity
  8
0
100
AcDbPoint
 10
-19.64978596714103
 20
-98.78614500442836
 30
0.0
  0
POINT
  5
21D
330
17
100
AcDbEntity
  8
0
100
AcDbPoint
 10
-20.081785765703998
 20
-98.70513050276548
 30
0.0
  0
POINT
  5
21E
330
17
100
AcDbEntity
  8
0
100
AcDbPoint
 10
-20.51339564358322
 20
-98.62195260887619
 30
0.0
  0
POINT
  5
21F
330
17
100
AcDbEntity
  8
0
100
AcDbPoint
 10
-20.944607909599455
 20
-98.5366330027221
 30
0.0
  0
POINT
  5
220
330
17
100
AcDbEntity
  8
0
100
AcDbPoint
 10
-21.375408860726736
 20
-98.44916404143645
 30
0.0
  0
POINT
  5
221
330
17
100
AcDbEntity
  8
0
100
AcDbPoint
 10
-21.80579329315181
 20
-98.3595772365169
 30
0.0
  0
POINT
  5
222
330
17
100
AcDbEntity
  8
0
100
AcDbPoint
 10
-22.235747698824596
 20
-98.26786503749136
 30
0.0
  0
POINT
  5
223
330
17
100
AcDbEntity
  8
0
100
AcDbPoint
 10
-22.665262910913277
 20
-98.17403948292838
 30
0.0
  0
POINT
  5
224
330
17
100
AcDbEntity
  8
0
100
AcDbPoint
 10
-23.094329945510555
 20
-98.07811263555593
 30
0.0
  0
POINT
  5
225
330
17
100
AcDbEntity
  8
0
100
AcDbPoint
 10
-23.522940001556528
 20
-97.98009658033395
 30
0.0
  0
POINT
  5
226
330
17
100
AcDbEntity
  8
0
100
AcDbPoint
 10
-23.951084460745335
 20
-97.88000342252876
 30
0.0
  0
POINT
  5
227
330
17
100
AcDbEntity
  8
0
100
AcDbPoint
 10
-24.378897621333746
 20
-97.77841776026767
 30
0.0
  0
POINT
  5
228
330
17
100
AcDbEntity
  8
0
100
AcDbPoint
 10
-24.80593564382337
 20
-97.67360523329776
 30
0.0
  0
POINT
  5
229
330
17
100
AcDbEntity
  8
0
100
AcDbPoint
 10
-25.232623286395704
 20
-97.56731488015308
 30
0.0
  0
POINT
  5
22A
330
17
100
AcDbEntity
  8
0
100
AcDbPoint
 10
-25.658809800347917
 20
-97.45898642834108
 30
0.0
  0
POINT
  5
22B
330
17
100
AcDbEntity
  8
0
100
AcDbPoint
 10
-26.084484765044262
 20
-97.34862243240154
 30
0.0
  0
POINT
  5
22C
330
17
100
AcDbEntity
  8
0
100
AcDbPoint
 10
-26.509640403829177
 20
-97.23623515018548
 30
0.0
  0
POINT
  5
22D
330
17
100
AcDbEntity
  8
0
100
AcDbPoint
 10
-26.934269122301018
 20
-97.12183684863234
 30
0.0
  0
POINT
  5
22E
330
17
100
AcDbEntity
  8
0
100
AcDbPoint
 10
-27.3583580792939
 20
-97.00542055275434
 30
0.0
  0
POINT
  5
22F
330
17
100
AcDbEntity
  8
0
100
AcDbPoint
 10
-27.78190530520266
 20
-96.88701783878402
 30
0.0
  0
POINT
  5
230
330
17
100
AcDbEntity
  8
0
100
AcDbPoint
 10
-28.204898154800407
 20
-96.76662178957285
 30
0.0
  0
POINT
  5
231
330
17
100
AcDbEntity
  8
0
100
AcDbPoint
 10
-28.627329509585344
 20
-96.64424476423684
 30
0.0
  0
POINT
  5
232
330
17
100
AcDbEntity
  8
0
100
AcDbPoint
 10
-29.049192432753852
 20
-96.51989912364412
 30
0.0
  0
POINT
  5
233
330
17
100
AcDbEntity
  8
0
100
AcDbPoint
 10
-29.470480168925377
 20
-96.39359722851448
 30
0.0
  0
POINT
  5
234
330
17
100
AcDbEntity
  8
0
100
AcDbPoint
 10
-29.89118021301934
 20
-96.26533233712384
 30
0.0
  0
POINT
  5
235
330
17
100
AcDbEntity
  8
0
100
AcDbPoint
 10
-30.31129193587247
 20
-96.13513595672714
 30
0.0
  0
POINT
  5
236
330
17
100
AcDbEntity
  8
0
100
AcDbPoint
 10
-30.730803027615952
 20
-96.00300138940588
 30
0.0
  0
POINT
  5
237
330
17
100
AcDbEntity
  8
0
100
AcDbPoint
 10
-31.14970720667027
 20
-95.86894105779834
 30
0.0
  0
POINT
  5
238
330
17
100
AcDbEntity
  8
0
100
AcDbPoint
 10
-31.567995240332397
 20
-95.73295788012584
 30
0.0
  0
POINT
  5
239
330
17
100
AcDbEntity
  8
0
100
AcDbPoint
 10
-31.985664256516156
 20
-95.59507378679263
 30
0.0
  0
POINT
  5
23A
330
17
100
AcDbEntity
  8
0
100
AcDbPoint
 10
-32.4027052998852
 20
-95.45529170375413
 30
0.0
  0
POINT
  5
23B
330
17
100
AcDbEntity
  8
0
100
AcDbPoint
 10
-32.81910617367254
 20
-95.3136051451775
 30
0.0
  0
POINT
  5
23C
330
17
100
AcDbEntity
  8
0
100
AcDbPoint
 10
-33.23486771830252
 20
-95.17004548929947
 30
0.0
  0
POINT
  5
23D
330
17
100
AcDbEntity
  8
0
100
AcDbPoint
 10
-33.64997793092676
 20
-95.02460627932662
 30
0.0
  0
POINT
  5
23E
330
17
100
AcDbEntity
  8
0
100
AcDbPoint
 10
-34.064428037603456
 20
-94.87729056987153
 30
0.0
  0
POINT
  5
23F
330
17
100
AcDbEntity
  8
0
100
AcDbPoint
 10
-34.47821611951098
 20
-94.72812025143268
 30
0.0
  0
POINT
  5
240
330
17
100
AcDbEntity
  8
0
100
AcDbPoint
 10
-34.891333678162205
 20
-94.57709837254019
 30
0.0
  0
POINT
  5
241
330
17
100
AcDbEntity
  8
0
100
AcDbPoint
 10
-35.30377222940685
 20
-94.42422802146841
 30
0.0
  0
POINT
  5
242
330
17
100
AcDbEntity
  8
0
100
AcDbPoint
 10
-35.71552684653045
 20
-94.26952167751973
 30
0.0
  0
POINT
  5
243
330
17
100
AcDbEntity
  8
0
100
AcDbPoint
 10
-36.12658919692984
 20
-94.11298246160713
 30
0.0
  0
POINT
  5
244
330
17
100
AcDbEntity
  8
0
100
AcDbPoint
 10
-36.536954586875204
 20
-93.95462285319184
 30
0.0
  0
POINT
  5
245
330
17
100
AcDbEntity
  8
0
100
AcDbPoint
 10
-36.94661116981288
 20
-93.79443669817287
 30
0.0
  0
POINT
  5
246
330
17
100
AcDbEntity
  8
0
100
AcDbPoint
 10
-37.35555806809848
 20
-93.63244580832557
 30
0.0
  0
POINT
  5
247
330
17
100
AcDbEntity
  8
0
100
AcDbPoint
 10
-37.76378350485149
 20
-93.4686440881171
 30
0.0
  0
POINT
  5
248
330
17
100
AcDbEntity
  8
0
100
AcDbPoint
 10
-38.171286915321936
 20
-93.30305331003787
 30
0.0
  0
POINT
  5
249
330
17
100
AcDbEntity
  8
0
100
AcDbPoint
 10
-38.57805659199072
 20
-93.1356674343807
 30
0.0
  0
POINT
  5
24A
330
17
100
AcDbEntity
  8
0
100
AcDbPoint
 10
-38.98408454759244
 20
-92.96648974547637
 30
0.0
  0
POINT
  5
24B
330
17
100
AcDbEntity
  8
0
100
AcDbPoint
 10
-39.38936671701532
 20
-92.79553276857989
 30
0.0
  0
POINT
  5
24C
330
17
100
AcDbEntity
  8
0
100
AcDbPoint
 10
-39.793895263222716
 20
-92.62279980829645
 30
0.0
  0
POINT
  5
24D
330
17
100
AcDbEntity
  8
0
100
AcDbPoint
 10
-40.1976663513848
 20
-92.44830337452196
 30
0.0
  0
POINT
  5
24E
330
17
100
AcDbEntity
  8
0
100
AcDbPoint
 10
-40.600664239046104
 20
-92.27202848248837
 30
0.0
  0
POINT
  5
24F
330
17
100
AcDbEntity
  8
0
100
AcDbPoint
 10
-41.00289321595129
 20
-92.09400599949431
 30
0.0
  0
POINT
  5
250
330
17
100
AcDbEntity
  8
0
100
AcDbPoint
 10
-41.40433752940719
 20
-91.91422102626188
 30
0.0
  0
POINT
  5
251
330
17
100
AcDbEntity
  8
0
100
AcDbPoint
 10
-41.804993563959606
 20
-91.7326861387526
 30
0.0
  0
POINT
  5
252
330
17
100
AcDbEntity
  8
0
100
AcDbPoint
 10
-42.20485369169511
 20
-91.54940479312909
 30
0.0
  0
POINT
  5
253
330
17
100
AcDbEntity
  8
0
100
AcDbPoint
 10
-42.603910299853354
 20
-91.36438047880392
 30
0.0
  0
POINT
  5
254
330
17
100
AcDbEntity
  8
0
100
AcDbPoint
 10
-43.00215579097166
 20
-91.17761671837339
 30
0.0
  0
POINT
  5
255
330
17
100
AcDbEntity
  8
0
100
AcDbPoint
 10
-43.39958258303003
 20
-90.9891170675502
 30
0.0
  0
POINT
  5
256
330
17
100
AcDbEntity
  8
0
100
AcDbPoint
 10
-43.79618310959517
 20
-90.79888511509604
 30
0.0
  0
POINT
  5
257
330
17
100
AcDbEntity
  8
0
100
AcDbPoint
 10
-44.191949819964684
 20
-90.60692448275309
 30
0.0
  0
POINT
  5
258
330
17
100
AcDbEntity
  8
0
100
AcDbPoint
 10
-44.58687517931101
 20
-90.41323882517503
 30
0.0
  0
POINT
  5
259
330
17
100
AcDbEntity
  8
0
100
AcDbPoint
 10
-44.98095166882447
 20
-90.21783182985764
 30
0.0
  0
POINT
  5
25A
330
17
100
AcDbEntity
  8
0
100
AcDbPoint
 10
-45.37417178585685
 20
-90.0207072170684
 30
0.0
  0
POINT
  5
25B
330
17
100
AcDbEntity
  8
0
100
AcDbPoint
 10
-45.766528044063875
 20
-89.82186873977581
 30
0.0
  0
POINT
  5
25C
330
17
100
AcDbEntity
  8
0
100
AcDbPoint
 10
-46.15801297354794
 20
-89.62132018357785
 30
0.0
  0
POINT
  5
25D
330
17
100
AcDbEntity
  8
0
100
AcDbPoint
 10
-46.54861912100037
 20
-89.41906536662995
 30
0.0
  0
POINT
  5
25E
330
17
100
AcDbEntity
  8
0
100
AcDbPoint
 10
-46.93833904984308
 20
-89.21510813957228
 30
0.0
  0
POINT
  5
25F
330
17
100
AcDbEntity
  8
0
100
AcDbPoint
 10
-47.327165340370506
 20
-89.00945238545643
 30
0.0
  0
POINT
  5
260
330
17
100
AcDbEntity
  8
0
100
AcDbPoint
 10
-47.71509058989045
 20
-88.80210201967152
 30
0.0
  0
POINT
  5
261
330
17
100
AcDbEntity
  8
0
100
AcDbPoint
 10
-48.102107412865365
 20
-88.59306098986963
 30
0.0
  0
POINT
  5
262
330
17
100
AcDbEntity
  8
0
100
AcDbPoint
 10
-48.48820844105288
 20
-88.38233327589064
 30
0.0
  0
POINT
  5
263
330
17
100
AcDbEntity
  8
0
100
AcDbPoint
 10
-48.873386323645924
 20
-88.16992288968646
 30
0.0
  0
POINT
  5
264
330
17
100
AcDbEntity
  8
0
100
AcDbPoint
 10
-49.25763372741278
 20
-87.9558338752447
 30
0.0
  0
POINT
  5
265
330
17
100
AcDbEntity
  8
0
100
AcDbPoint
 10
-49.64094333683687
 20
-87.74007030851153
 30
0.0
  0
POINT
  5
266
330
17
100
AcDbEntity
  8
0
100
AcDbPoint
 10
-50.02330785425568
 20
-87.5226362973143
 30
0.0
  0
POINT
  5
267
330
17
100
AcDbEntity
  8
0
100
AcDbPoint
 10
-50.40472
 20
-87.30353598128312
 30
0.0
  0
POINT
  5
268
330
17
100
AcDbEntity
  8
0
100
AcDbPoint
 10
-50.78517251253238
 20
-87.08277353177219
 30
0.0
  0
POINT
  5
269
330
17
100
AcDbEntity
  8
0
100
AcDbPoint
 10
-51.164658148585325
 20
-86.86035315178034
 30
0.0
  0
POINT
  5
26A
330
17
100
AcDbEntity
  8
0
100
AcDbPoint
 10
-51.543169683299425
 20
-86.63627907587099
 30
0.0
  0
POINT
  5
26B
330
17
100
AcDbEntity
  8
0
100
AcDbPoint
 10
-51.92069991036061
 20
-86.41055557009153
 30
0.0
  0
POINT
  5
26C
330
17
100
AcDbEntity
  8
0
100
AcDbPoint
 10
-52.29724164213759
 20
-86.18318693189215
 30
0.0
  0
POINT
  5
26D
330
17
100
AcDbEntity
  8
0
100
AcDbPoint
 10
-52.67278770981858
 20
-85.95417749004399
 30
0.0
  0
POINT
  5
26E
330
17
100
AcDbEntity
  8
0
100
AcDbPoint
 10
-53.047330963547715
 20
-85.72353160455668
 30
0.0
  0
POINT
  5
26F
330
17
100
AcDbEntity
  8
0
100
AcDbPoint
 10
-53.42086427256143
 20
-85.49125366659544
 30
0.0
  0
POINT
  5
270
330
17
100
AcDbEntity
  8
0
100
AcDbPoint
 10
-53.793380525323876
 20
-85.2573480983974
 30
0.0
  0
POINT
  5
271
330
17
100
AcDbEntity
  8
0
100
AcDbPoint
 10
-54.16487262966263
 20
-85.02181935318735
 30
0.0
  0
POINT
  5
272
330
17
100
AcDbEntity
  8
0
100
AcDbPoint
 10
-54.53533351290352
 20
-84.78467191509311
 30
0.0
  0
POINT
  5
273
330
17
100
AcDbEntity
  8
0
100
AcDbPoint
 10
-54.90475612200525
 20
-84.54591029906015
 30
0.0
  0
POINT
  5
274
330
17
100
AcDbEntity
  8
0
100
AcDbPoint
 10
-55.27313342369399
 20
-84.30553905076536
 30
0.0
  0
POINT
  5
275
330
17
100
AcDbEntity
  8
0
100
AcDbPoint
 10
-55.640458404596835
 20
-84.06356274653085
 30
0.0
  0
POINT
  5
276
330
17
100
AcDbEntity
  8
0
100
AcDbPoint
 10
-56.0067240713756
 20
-83.81998599323667
 30
0.0
  0
POINT
  5
277
330
17
100
AcDbEntity
  8
0
100
AcDbPoint
 10
-56.37192345086006
 20
-83.5748134282331
 30
0.0
  0
POINT
  5
278
330
17
100
AcDbEntity
  8
0
100
AcDbPoint
 10
-56.73604959018035
 20
-83.32804971925238
 30
0.0
  0
POINT
  5
279
330
17
100
AcDbEntity
  8
0
100
AcDbPoint
 10
-57.09909555689972
 20
-83.07969956431975
 30
0.0
  0
POINT
  5
27A
330
17
100
AcDbEntity
  8
0
100
AcDbPoint
 10
-57.46105443914627
 20
-82.82976769166424
 30
0.0
  0
POINT
  5
27B
330
17
100
AcDbEntity
  8
0
100
AcDbPoint
 10
-57.8219193457446
 20
-82.57825885962846
 30
0.0
  0
POINT
  5
27C
330
17
100
AcDbEntity
  8
0
100
AcDbPoint
 10
-58.18168340634711
 20
-82.32517785657794
 30
0.0
  0
POINT
  5
27D
330
17
100
AcDbEntity
  8
0
100
AcDbPoint
 10
-58.540339771564625
 20
-82.07052950081027
 30
0.0
  0
POINT
  5
27E
330
17
100
AcDbEntity
  8
0
100
AcDbPoint
 10
-58.897881613097034
 20
-81.81431864046297
 30
0.0
  0
POINT
  5
27F
330
17
100
AcDbEntity
  8
0
100
AcDbPoint
 10
-59.25430212386294
 20
-81.55655015342158
 30
0.0
  0
POINT
  5
280
330
17
100
AcDbEntity
  8
0
100
AcDbPoint
 10
-59.60959451812964
 20
-81.29722894722653
 30
0.0
  0
POINT
  5
281
330
17
100
AcDbEntity
  8
0
100
AcDbPoint
 10
-59.96375203164213
 20
-81.03635995897972
 30
0.0
  0
POINT
  5
282
330
17
100
AcDbEntity
  8
0
100
AcDbPoint
 10
-60.31676792175179
 20
-80.77394815525071
 30
0.0
  0
POINT
  5
283
330
17
100
AcDbEntity
  8
0
100
AcDbPoint
 10
-60.668635467545016
 20
-80.50999853198195
 30
0.0
  0
POINT
  5
284
330
17
100
AcDbEntity
  8
0
100
AcDbPoint
 10
-61.01934796997091
 20
-80.2445161143938
 30
0.0
  0
POINT
  5
285
330
17
100
AcDbEntity
  8
0
100
AcDbPoint
 10
-61.36889875196888
 20
-79.97750595688885
 30
0.0
  0
POINT
  5
286
330
17
100
AcDbEntity
  8
0
100
AcDbPoint
 10
-61.71728115859602
 20
-79.70897314295554
 30
0.0
  0
POINT
  5
287
330
17
100
AcDbEntity
  8
0
100
AcDbPoint
 10
-62.064488557153446
 20
-79.43892278507161
 30
0.0
  0
POINT
  5
288
330
17
100
AcDbEntity
  8
0
100
AcDbPoint
 10
-62.41051433731275
 20
-79.1673600246066
 30
0.0
  0
POINT
  5
289
330
17
100
AcDbEntity
  8
0
100
AcDbPoint
 10
-62.75535191124191
 20
-78.89429003172398
 30
0.0
  0
POINT
  5
28A
330
17
100
AcDbEntity
  8
0
100
AcDbPoint
 10
-63.09899471373057
 20
-78.61971800528288
 30
0.0
  0
POINT
  5
28B
330
17
100
AcDbEntity
  8
0
100
AcDbPoint
 10
-63.44143620231514
 20
-78.34364917273881
 30
0.0
  0
POINT
  5
28C
330
17
100
AcDbEntity
  8
0
100
AcDbPoint
 10
-63.78266985740326
 20
-78.06608879004442
 30
0.0
  0
POINT
  5
28D
330
17
100
AcDbEntity
  8
0
100
AcDbPoint
 10
-64.12268918239802
 20
-77.78704214154935
 30
0.0
  0
POINT
  5
28E
330
17
100
AcDbEntity
  8
0
100
AcDbPoint
 10
-64.46148770382166
 20
-77.50651453989947
 30
0.0
  0
POINT
  5
28F
330
17
100
AcDbEntity
  8
0
100
AcDbPoint
 10
-64.7990589714386
 20
-77.22451132593604
 30
0.0
  0
POINT
  5
290
330
17
100
AcDbEntity
  8
0
100
AcDbPoint
 10
-65.13539655837857
 20
-76.94103786859364
 30
0.0
  0
POINT
  5
291
330
17
100
AcDbEntity
  8
0
100
AcDbPoint
 10
-65.47049406125876
 20
-76.65609956479835
 30
0.0
  0
POINT
  5
292
330
17
100
AcDbEntity
  8
0
100
AcDbPoint
 10
-65.80434510030567
 20
-76.36970183936478
 30
0.0
  0
POINT
  5
293
330
17
100
AcDbEntity
  8
0
100
AcDbPoint
 10
-66.13694331947681
 20
-76.08185014489268
 30
0.0
  0
POINT
  5
294
330
17
100
AcDbEntity
  8
0
100
AcDbPoint
 10
-66.46828238658148
 20
-75.79254996166351
 30
0.0
  0
POINT
  5
295
330
17
100
AcDbEntity
  8
0
100
AcDbPoint
 10
-66.7983559934015
 20
-75.50180679753566
 30
0.0
  0
POINT
  5
296
330
17
100
AcDbEntity
  8
0
100
AcDbPoint
 10
-67.12715785581115
 20
-75.20962618783986
 30
0.0
  0
POINT
  5
297
330
17
100
AcDbEntity
  8
0
100
AcDbPoint
 10
-67.45468171389692
 20
-74.91601369527385
 30
0.0
  0
POINT
  5
298
330
17
100
AcDbEntity
  8
0
100
AcDbPoint
 10
-67.78092133207673
 20
-74.62097490979616
 30
0.0
  0
POINT
  5
299
330
17
100
AcDbEntity
  8
0
100
AcDbPoint
 10
-68.10587049921845
 20
-74.32451544851996
 30
0.0
  0
POINT
  5
29A
330
17
100
AcDbEntity
  8
0
100
AcDbPoint
 10
-68.42952302875835
 20
-74.02664095560617
 30
0.0
  0
POINT
  5
29B
330
17
100
AcDbEntity
  8
0
100
AcDbPoint
 10
-68.75187275881886
 20
-73.72735710215565
 30
0.0
  0
POINT
  5
29C
330
17
100
AcDbEntity
  8
0
100
AcDbPoint
 10
-69.07291355232567
 20
-73.42666958610162
 30
0.0
  0
POINT
  5
29D
330
17
100
AcDbEntity
  8
0
100
AcDbPoint
 10
-69.39263929712496
 20
-73.12458413210095
 30
0.0
  0
POINT
  5
29E
330
17
100
AcDbEntity
  8
0
100
AcDbPoint
 10
-69.71104390609935
 20
-72.8211064914252
 30
0.0
  0
POINT
  5
29F
330
17
100
AcDbEntity
  8
0
100
AcDbPoint
 10
-70.02812131728405
 20
-72.51624244185122
 30
0.0
  0
POINT
  5
2A0
330
17
100
AcDbEntity
  8
0
100
AcDbPoint
 10
-70.34386549398226
 20
-72.20999778755106
 30
0.0
  0
POINT
  5
2A1
330
17
100
AcDbEntity
  8
0
100
AcDbPoint
 10
-70.65827042487996
 20
-71.90237835898151
 30
0.0
  0
POINT
  5
2A2
330
17
100
AcDbEntity
  8
0
100
AcDbPoint
 10
-70.97133012416049
 20
-71.59339001277303
 30
0.0
  0
POINT
  5
2A3
330
17
100
AcDbEntity
  8
0
100
AcDbPoint
 10
-71.28303863161841
 20
-71.28303863161835
 30
0.0
  0
POINT
  5
2A4
330
17
100
AcDbEntity
  8
0
100
AcDbPoint
 10
-71.59339001277304
 20
-70.97133012416046
 30
0.0
  0
POINT
  5
2A5
330
17
100
AcDbEntity
  8
0
100
AcDbPoint
 10
-71.90237835898152
 20
-70.65827042487994
 30
0.0
  0
POINT
  5
2A6
330
17
100
AcDbEntity
  8
0
100
AcDbPoint
 10
-72.20999778755106
 20
-70.34386549398226
 30
0.0
  0
POINT
  5
2A7
330
17
100
AcDbEntity
  8
0
100
AcDbPoint
 10
-72.51624244185122
 20
-70.02812131728405
 30
0.0
  0
POINT
  5
2A8
330
17
100
AcDbEntity
  8
0
100
AcDbPoint
 10
-72.82110649142521
 20
-69.71104390609932
 30
0.0
  0
POINT
  5
2A9
330
17
100
AcDbEntity
  8
0
100
AcDbPoint
 10
-73.12458413210095
 20
-69.39263929712496
 30
0.0
  0
POINT
  5
2AA
330
17
100
AcDbEntity
  8
0
100
AcDbPoint
 10
-73.42666958610162
 20
-69.07291355232567
 30
0.0
  0
POINT
  5
2AB
330
17
100
AcDbEntity
  8
0
100
AcDbPoint
 10
-73.7273571021557
 20
-68.75187275881882
 30
0.0
  0
POINT
  5
2AC
330
17
100
AcDbEntity
  8
0
100
AcDbPoint
 10
-74.02664095560617
 20
-68.42952302875835
 30
0.0
  0
POINT
  5
2AD
330
17
100
AcDbEntity
  8
0
100
AcDbPoint
 10
-74.32451544851999
 20
-68.10587049921841
 30
0.0
  0
POINT
  5
2AE
330
17
100
AcDbEntity
  8
0
100
AcDbPoint
 10
-74.62097490979615
 20
-67.78092133207672
 30
0.0
  0
POINT
  5
2AF
330
17
100
AcDbEntity
  8
0
100
AcDbPoint
 10
-74.91601369527385
 20
-67.45468171389692
 30
0.0
  0
POINT
  5
2B0
330
17
100
AcDbEntity
  8
0
100
AcDbPoint
 10
-75.20962618783992
 20
-67.12715785581112
 30
0.0
  0
POINT
  5
2B1
330
17
100
AcDbEntity
  8
0
100
AcDbPoint
 10
-75.50180679753565
 20
-66.79835599340149
 30
0.0
  0
POINT
  5
2B2
330
17
100
AcDbEntity
  8
0
100
AcDbPoint
 10
-75.79254996166351
 20
-66.46828238658146
 30
0.0
  0
POINT
  5
2B3
330
17
100
AcDbEntity
  8
0
100
AcDbPoint
 10
-76.0818501448927
 20
-66.13694331947681
 30
0.0
  0
POINT
  5
2B4
330
17
100
AcDbEntity
  8
0
100
AcDbPoint
 10
-76.3697018393648
 20
-65.80434510030565
 30
0.0
  0
POINT
  5
2B5
330
17
100
AcDbEntity
  8
0
100
AcDbPoint
 10
-76.6560995647984
 20
-65.47049406125872
 30
0.0
  0
POINT
  5
2B6
330
17
100
AcDbEntity
  8
0
100
AcDbPoint
 10
-76.94103786859364
 20
-65.13539655837859
 30
0.0
  0
POINT
  5
2B7
330
17
100
AcDbEntity
  8
0
100
AcDbPoint
 10
-77.22451132593604
 20
-64.79905897143858
 30
0.0
  0
POINT
  5
2B8
330
17
100
AcDbEntity
  8
0
100
AcDbPoint
 10
-77.50651453989948
 20
-64.46148770382165
 30
0.0
  0
POINT
  5
2B9
330
17
100
AcDbEntity
  8
0
100
AcDbPoint
 10
-77.78704214154935
 20
-64.12268918239802
 30
0.0
  0
POINT
  5
2BA
330
17
100
AcDbEntity
  8
0
100
AcDbPoint
 10
-78.06608879004446
 20
-63.78266985740323
 30
0.0
  0
POINT
  5
2BB
330
17
100
AcDbEntity
  8
0
100
AcDbPoint
 10
-78.34364917273881
 20
-63.441436202315124
 30
0.0
  0
POINT
  5
2BC
330
17
100
AcDbEntity
  8
0
100
AcDbPoint
 10
-78.61971800528288
 20
-63.09899471373054
 30
0.0
  0
POINT
  5
2BD
330
17
100
AcDbEntity
  8
0
100
AcDbPoint
 10
-78.89429003172403
 20
-62.755351911241874
 30
0.0
  0
POINT
  5
2BE
330
17
100
AcDbEntity
  8
0
100
AcDbPoint
 10
-79.1673600246066
 20
-62.41051433731274
 30
0.0
  0
POINT
  5
2BF
330
17
100
AcDbEntity
  8
0
100
AcDbPoint
 10
-79.43892278507163
 20
-62.064488557153396
 30
0.0
  0
POINT
  5
2C0
330
17
100
AcDbEntity
  8
0
100
AcDbPoint
 10
-79.70897314295554
 20
-61.71728115859601
 30
0.0
  0
POINT
  5
2C1
330
17
100
AcDbEntity
  8
0
100
AcDbPoint
 10
-79.97750595688886
 20
-61.36889875196887
 30
0.0
  0
POINT
  5
2C2
330
17
100
AcDbEntity
  8
0
100
AcDbPoint
 10
-80.24451611439385
 20
-61.01934796997085
 30
0.0
  0
POINT
  5
2C3
330
17
100
AcDbEntity
  8
0
100
AcDbPoint
 10
-80.50999853198196
 20
-60.668635467545
 30
0.0
  0
POINT
  5
2C4
330
17
100
AcDbEntity
  8
0
100
AcDbPoint
 10
-80.77394815525071
 20
-60.316767921751804
 30
0.0
  0
POINT
  5
2C5
330
17
100
AcDbEntity
  8
0
100
AcDbPoint
 10
-81.03635995897973
 20
-59.96375203164213
 30
0.0
  0
POINT
  5
2C6
330
17
100
AcDbEntity
  8
0
100
AcDbPoint
 10
-81.29722894722654
 20
-59.60959451812964
 30
0.0
  0
POINT
  5
2C7
330
17
100
AcDbEntity
  8
0
100
AcDbPoint
 10
-81.55655015342161
 20
-59.2543021238629
 30
0.0
  0
POINT
  5
2C8
330
17
100
AcDbEntity
  8
0
100
AcDbPoint
 10
-81.81431864046297
 20
-58.89788161309701
 30
0.0
  0
POINT
  5
2C9
330
17
100
AcDbEntity
  8
0
100
AcDbPoint
 10
-82.07052950081027
 20
-58.54033977156461
 30
0.0
  0
POINT
  5
2CA
330
17
100
AcDbEntity
  8
0
100
AcDbPoint
 10
-82.32517785657795
 20
-58.18168340634711
 30
0.0
  0
POINT
  5
2CB
330
17
100
AcDbEntity
  8
0
100
AcDbPoint
 10
-82.57825885962845
 20
-57.8219193457446
 30
0.0
  0
POINT
  5
2CC
330
17
100
AcDbEntity
  8
0
100
AcDbPoint
 10
-82.82976769166429
 20
-57.46105443914624
 30
0.0
  0
POINT
  5
2CD
330
17
100
AcDbEntity
  8
0
100
AcDbPoint
 10
-83.07969956431975
 20
-57.09909555689972
 30
0.0
  0
POINT
  5
2CE
330
17
100
AcDbEntity
  8
0
100
AcDbPoint
 10
-83.32804971925239
 20
-56.73604959018034
 30
0.0
  0
POINT
  5
2CF
330
17
100
AcDbEntity
  8
0
100
AcDbPoint
 10
-83.57481342823311
 20
-56.37192345086001
 30
0.0
  0
POINT
  5
2D0
330
17
100
AcDbEntity
  8
0
100
AcDbPoint
 10
-83.8199859932367
 20
-56.006724071375594
 30
0.0
  0
POINT
  5
2D1
330
17
100
AcDbEntity
  8
0
100
AcDbPoint
 10
-84.06356274653088
 20
-55.64045840459679
 30
0.0
  0
POINT
  5
2D2
330
17
100
AcDbEntity
  8
0
100
AcDbPoint
 10
-84.30553905076535
 20
-55.27313342369398
 30
0.0
  0
POINT
  5
2D3
330
17
100
AcDbEntity
  8
0
100
AcDbPoint
 10
-84.54591029906015
 20
-54.90475612200526
 30
0.0
  0
POINT
  5
2D4
330
17
100
AcDbEntity
  8
0
100
AcDbPoint
 10
-84.78467191509316
 20
-54.53533351290347
 30
0.0
  0
POINT
  5
2D5
330
17
100
AcDbEntity
  8
0
100
AcDbPoint
 10
-85.02181935318735
 20
-54.16487262966262
 30
0.0
  0
POINT
  5
2D6
330
17
100
AcDbEntity
  8
0
100
AcDbPoint
 10
-85.2573480983974
 20
-53.793380525323855
 30
0.0
  0
POINT
  5
2D7
330
17
100
AcDbEntity
  8
0
100
AcDbPoint
 10
-85.49125366659544
 20
-53.42086427256142
 30
0.0
  0
POINT
  5
2D8
330
17
100
AcDbEntity
  8
0
100
AcDbPoint
 10
-85.7235316045567
 20
-53.047330963547715
 30
0.0
  0
POINT
  5
2D9
330
17
100
AcDbEntity
  8
0
100
AcDbPoint
 10
-85.95417749004399
 20
-52.672787709818536
 30
0.0
  0
POINT
  5
2DA
330
17
100
AcDbEntity
  8
0
100
AcDbPoint
 10
-86.18318693189217
 20
-52.29724164213759
 30
0.0
  0
POINT
  5
2DB
330
17
100
AcDbEntity
  8
0
100
AcDbPoint
 10
-86.41055557009155
 20
-51.92069991036059
 30
0.0
  0
POINT
  5
2DC
330
17
100
AcDbEntity
  8
0
100
AcDbPoint
 10
-86.63627907587102
 20
-51.543169683299375
 30
0.0
  0
POINT
  5
2DD
330
17
100
AcDbEntity
  8
0
100
AcDbPoint
 10
-86.86035315178034
 20
-51.164658148585325
 30
0.0
  0
POINT
  5
2DE
330
17
100
AcDbEntity
  8
0
100
AcDbPoint
 10
-87.08277353177222
 20
-50.78517251253234
 30
0.0
  0
POINT
  5
2DF
330
17
100
AcDbEntity
  8
0
100
AcDbPoint
 10
-87.30353598128313
 20
-50.40472
 30
0.0
  0
POINT
  5
2E0
330
17
100
AcDbEntity
  8
0
100
AcDbPoint
 10
-87.52263629731434
 20
-50.02330785425566
 30
0.0
  0
POINT
  5
2E1
330
17
100
AcDbEntity
  8
0
100
AcDbPoint
 10
-87.74007030851158
 20
-49.64094333683682
 30
0.0
  0
POINT
  5
2E2
330
17
100
AcDbEntity
  8
0
100
AcDbPoint
 10
-87.95583387524472
 20
-49.25763372741279
 30
0.0
  0
POINT
  5
2E3
330
17
100
AcDbEntity
  8
0
100
AcDbPoint
 10
-88.1699228896865
 20
-48.87338632364587
 30
0.0
  0
POINT
  5
2E4
330
17
100
AcDbEntity
  8
0
100
AcDbPoint
 10
-88.38233327589064
 20
-48.488208441052876
 30
0.0
  0
POINT
  5
2E5
330
17
100
AcDbEntity
  8
0
100
AcDbPoint
 10
-88.59306098986964
 20
-48.102107412865365
 30
0.0
  0
POINT
  5
2E6
330
17
100
AcDbEntity
  8
0
100
AcDbPoint
 10
-88.80210201967154
 20
-47.71509058989041
 30
0.0
  0
POINT
  5
2E7
330
17
100
AcDbEntity
  8
0
100
AcDbPoint
 10
-89.00945238545643
 20
-47.32716534037048
 30
0.0
  0
POINT
  5
2E8
330
17
100
AcDbEntity
  8
0
100
AcDbPoint
 10
-89.21510813957227
 20
-46.93833904984307
 30
0.0
  0
POINT
  5
2E9
330
17
100
AcDbEntity
  8
0
100
AcDbPoint
 10
-89.41906536662994
 20
-46.54861912100037
 30
0.0
  0
POINT
  5
2EA
330
17
100
AcDbEntity
  8
0
100
AcDbPoint
 10
-89.62132018357786
 20
-46.158012973547926
 30
0.0
  0
POINT
  5
2EB
330
17
100
AcDbEntity
  8
0
100
AcDbPoint
 10
-89.82186873977581
 20
-45.76652804406383
 30
0.0
  0
POINT
  5
2EC
330
17
100
AcDbEntity
  8
0
100
AcDbPoint
 10
-90.02070721706839
 20
-45.37417178585683
 30
0.0
  0
POINT
  5
2ED
330
17
100
AcDbEntity
  8
0
100
AcDbPoint
 10
-90.21783182985764
 20
-44.98095166882447
 30
0.0
  0
POINT
  5
2EE
330
17
100
AcDbEntity
  8
0
100
AcDbPoint
 10
-90.41323882517506
 20
-44.586875179310965
 30
0.0
  0
POINT
  5
2EF
330
17
100
AcDbEntity
  8
0
100
AcDbPoint
 10
-90.60692448275309
 20
-44.191949819964684
 30
0.0
  0
POINT
  5
2F0
330
17
100
AcDbEntity
  8
0
100
AcDbPoint
 10
-90.79888511509607
 20
-43.79618310959511
 30
0.0
  0
POINT
  5
2F1
330
17
100
AcDbEntity
  8
0
100
AcDbPoint
 10
-90.98911706755021
 20
-43.399582583030025
 30
0.0
  0
POINT
  5
2F2
330
17
100
AcDbEntity
  8
0
100
AcDbPoint
 10
-91.17761671837337
 20
-43.00215579097166
 30
0.0
  0
POINT
  5
2F3
330
17
100
AcDbEntity
  8
0
100
AcDbPoint
 10
-91.36438047880395
 20
-42.6039102998533
 30
0.0
  0
POINT
  5
2F4
330
17
100
AcDbEntity
  8
0
100
AcDbPoint
 10
-91.54940479312909
 20
-42.2048536916951
 30
0.0
  0
POINT
  5
2F5
330
17
100
AcDbEntity
  8
0
100
AcDbPoint
 10
-91.73268613875263
 20
-41.80499356395955
 30
0.0
  0
POINT
  5
2F6
330
17
100
AcDbEntity
  8
0
100
AcDbPoint
 10
-91.91422102626188
 20
-41.40433752940719
 30
0.0
  0
POINT
  5
2F7
330
17
100
AcDbEntity
  8
0
100
AcDbPoint
 10
-92.09400599949431
 20
-41.00289321595129
 30
0.0
  0
POINT
  5
2F8
330
17
100
AcDbEntity
  8
0
100
AcDbPoint
 10
-92.27203763560316
 20
-40.60066826651295
 30
0.0
  0
POINT
  5
2F9
330
17
100
AcDbEntity
  8
0
100
AcDbPoint
 10
-92.4483125451227
 20
-40.19767033887546
 30
0.0
  0
POINT
  5
2FA
330
17
100
AcDbEntity
  8
0
100
AcDbPoint
 10
-92.62282737203276
 20
-39.793907105538395
 30
0.0
  0
POINT
  5
2FB
330
17
100
AcDbEntity
  8
0
100
AcDbPoint
 10
-92.79557879382256
 20
-39.389386253571736
 30
0.0
  0
POINT
  5
2FC
330
17
100
AcDbEntity
  8
0
100
AcDbPoint
 10
-92.96656352155411
 20
-38.984115484469356
 30
0.0
  0
POINT
  5
2FD
330
17
100
AcDbEntity
  8
0
100
AcDbPoint
 10
-93.13577829992462
 20
-38.57810251400255
 30
0.0
  0
POINT
  5
2FE
330
17
100
AcDbEntity
  8
0
100
AcDbPoint
 10
-93.30321990732861
 20
-38.171355072073055
 30
0.0
  0
POINT
  5
2FF
330
17
100
AcDbEntity
  8
0
100
AcDbPoint
 10
-93.46888515591928
 20
-37.763880902565774
 30
0.0
  0
POINT
  5
300
330
17
100
AcDbEntity
  8
0
100
AcDbPoint
 10
-93.63277089166908
 20
-37.35568776320155
 30
0.0
  0
POINT
  5
301
330
17
100
AcDbEntity
  8
0
100
AcDbPoint
 10
-93.79487399442984
 20
-36.946783425389434
 30
0.0
  0
POINT
  5
302
330
17
100
AcDbEntity
  8
0
100
AcDbPoint
 10
-93.95519137799214
 20
-36.5371756740785
 30
0.0
  0
POINT
  5
303
330
17
100
AcDbEntity
  8
0
100
AcDbPoint
 10
-94.11371999014405
 20
-36.12687230760997
 30
0.0
  0
POINT
  5
304
330
17
100
AcDbEntity
  8
0
100
AcDbPoint
 10
-94.2704568127294
 20
-35.71588113756844
 30
0.0
  0
POINT
  5
305
330
17
100
AcDbEntity
  8
0
100
AcDbPoint
 10
-94.42539886170499
 20
-35.304209988633374
 30
0.0
  0
POINT
  5
306
330
17
100
AcDbEntity
  8
0
100
AcDbPoint
 10
-94.5785431871975
 20
-34.89186669843009
 30
0.0
  0
POINT
  5
307
330
17
100
AcDbEntity
  8
0
100
AcDbPoint
 10
-94.72988687355979
 20
-34.47885911738038
 30
0.0
  0
POINT
  5
308
330
17
100
AcDbEntity
  8
0
100
AcDbPoint
 10
-94.87942703942618
 20
-34.06519510855332
 30
0.0
  0
POINT
  5
309
330
17
100
AcDbEntity
  8
0
100
AcDbPoint
 10
-95.02716083776748
 20
-33.65088254751526
 30
0.0
  0
POINT
  5
30A
330
17
100
AcDbEntity
  8
0
100
AcDbPoint
 10
-95.17308545594514
 20
-33.23592932218023
 30
0.0
  0
POINT
  5
30B
330
17
100
AcDbEntity
  8
0
100
AcDbPoint
 10
-95.3171981157648
 20
-32.82034333265947
 30
0.0
  0
POINT
  5
30C
330
17
100
AcDbEntity
  8
0
100
AcDbPoint
 10
-95.45949607352907
 20
-32.404132491111135
 30
0.0
  0
POINT
  5
30D
330
17
100
AcDbEntity
  8
0
100
AcDbPoint
 10
-95.59997662009003
 20
-31.987304721589727
 30
0.0
  0
POINT
  5
30E
330
17
100
AcDbEntity
  8
0
100
AcDbPoint
 10
-95.73863708090053
 20
-31.56986795989515
 30
0.0
  0
POINT
  5
30F
330
17
100
AcDbEntity
  8
0
100
AcDbPoint
 10
-95.8754748160653
 20
-31.15183015342159
 30
0.0
  0
POINT
  5
310
330
17
100
AcDbEntity
  8
0
100
AcDbPoint
 10
-96.0104872203911
 20
-30.733199261006284
 30
0.0
  0
POINT
  5
311
330
17
100
AcDbEntity
  8
0
100
AcDbPoint
 10
-96.14367172343633
 20
-30.313983252778034
 30
0.0
  0
POINT
  5
312
330
17
100
AcDbEntity
  8
0
100
AcDbPoint
 10
-96.27502578956009
 20
-29.894190110005315
 30
0.0
  0
POINT
  5
313
330
17
100
AcDbEntity
  8
0
100
AcDbPoint
 10
-96.40454691797026
 20
-29.47382782494444
 30
0.0
  0
POINT
  5
314
330
17
100
AcDbEntity
  8
0
100
AcDbPoint
 10
-96.53223264277129
 20
-29.052904400687385
 30
0.0
  0
POINT
  5
315
330
17
100
AcDbEntity
  8
0
100
AcDbPoint
 10
-96.65808053301102
 20
-28.631427851009388
 30
0.0
  0
POINT
  5
316
330
17
100
AcDbEntity
  8
0
100
AcDbPoint
 10
-96.78208819272702
 20
-28.209406200216442
 30
0.0
  0
POINT
  5
317
330
17
100
AcDbEntity
  8
0
100
AcDbPoint
 10
-96.90425326099219
 20
-27.786847482992425
 30
0.0
  0
POINT
  5
318
330
17
100
AcDbEntity
  8
0
100
AcDbPoint
 10
-97.02457341195975
 20
-27.363759744246206
 30
0.0
  0
POINT
  5
319
330
17
100
AcDbEntity
  8
0
100
AcDbPoint
 10
-97.14304635490748
 20
-26.940151038958447
 30
0.0
  0
POINT
  5
31A
330
17
100
AcDbEntity
  8
0
100
AcDbPoint
 10
-97.2596698342813
 20
-26.51602943202833
 30
0.0
  0
POINT
  5
31B
330
17
100
AcDbEntity
  8
0
100
AcDbPoint
 10
-97.37444162973824
 20
-26.091402998119854
 30
0.0
  0
POINT
  5
31C
330
17
100
AcDbEntity
  8
0
100
AcDbPoint
 10
-97.4873595561888
 20
-25.666279821508233
 30
0.0
  0
POINT
  5
31D
330
17
100
AcDbEntity
  8
0
100
AcDbPoint
 10
-97.5984214638384
 20
-25.240667995925964
 30
0.0
  0
POINT
  5
31E
330
17
100
AcDbEntity
  8
0
100
AcDbPoint
 10
-97.70762523822847
 20
-24.81457562440867
 30
0.0
  0
POINT
  5
31F
330
17
100
AcDbEntity
  8
0
100
AcDbPoint
 10
-97.81496880027649
 20
-24.388010819140952
 30
0.0
  0
POINT
  5
320
330
17
100
AcDbEntity
  8
0
100
AcDbPoint
 10
-97.92045010631577
 20
-23.960981701301794
 30
0.0
  0
POINT
  5
321
330
17
100
AcDbEntity
  8
0
100
AcDbPoint
 10
-98.02406714813434
 20
-23.533496400910064
 30
0.0
  0
POINT
  5
322
330
17
100
AcDbEntity
  8
0
100
AcDbPoint
 10
-98.12581795301305
 20
-23.105563056669627
 30
0.0
  0
POINT
  5
323
330
17
100
AcDbEntity
  8
0
100
AcDbPoint
 10
-98.22570058376328
 20
-22.677189815814575
 30
0.0
  0
POINT
  5
324
330
17
100
AcDbEntity
  8
0
100
AcDbPoint
 10
-98.32371313876367
 20
-22.248384833953903
 30
0.0
  0
POINT
  5
325
330
17
100
AcDbEntity
  8
0
100
AcDbPoint
 10
-98.41985375199648
 20
-21.81915627491633
 30
0.0
  0
POINT
  5
326
330
17
100
AcDbEntity
  8
0
100
AcDbPoint
 10
-98.51412059308304
 20
-21.38951231059494
 30
0.0
  0
POINT
  5
327
330
17
100
AcDbEntity
  8
0
100
AcDbPoint
 10
-98.60651186731852
 20
-20.95946112079144
 30
0.0
  0
POINT
  5
328
330
17
100
AcDbEntity
  8
0
100
AcDbPoint
 10
-98.6970258157063
 20
-20.529010893060637
 30
0.0
  0
POINT
  5
329
330
17
100
AcDbEntity
  8
0
100
AcDbPoint
 10
-98.78566071499125
 20
-20.098169822554368
 30
0.0
  0
POINT
  5
32A
330
17
100
AcDbEntity
  8
0
100
AcDbPoint
 10
-98.87241487769262
 20
-19.666946111865553
 30
0.0
  0
POINT
  5
32B
330
17
100
AcDbEntity
  8
0
100
AcDbPoint
 10
-98.95728665213625
 20
-19.23534797087205
 30
0.0
  0
POINT
  5
32C
330
17
100
AcDbEntity
  8
0
100
AcDbPoint
 10
-99.0402744224859
 20
-18.803383616580362
 30
0.0
  0
POINT
  5
32D
330
17
100
AcDbEntity
  8
0
100
AcDbPoint
 10
-99.12137660877403
 20
-18.3710612729691
 30
0.0
  0
POINT
  5
32E
330
17
100
AcDbEntity
  8
0
100
AcDbPoint
 10
-99.20059166693189
 20
-17.938389170832522
 30
0.0
  0
POINT
  5
32F
330
17
100
AcDbEntity
  8
0
100
AcDbPoint
 10
-99.27791808881899
 20
-17.50537554762376
 30
0.0
  0
POINT
  5
330
330
17
100
AcDbEntity
  8
0
100
AcDbPoint
 10
-99.35335440225175
 20
-17.072028647298
 30
0.0
  0
POINT
  5
331
330
17
100
AcDbEntity
  8
0
100
AcDbPoint
 10
-99.42689917103141
 20
-16.638356720155617
 30
0.0
  0
POINT
  5
332
330
17
100
AcDbEntity
  8
0
100
AcDbPoint
 10
-99.49855099497171
 20
-16.204368022684967
 30
0.0
  0
POINT
  5
333
330
17
100
AcDbEntity
  8
0
100
AcDbPoint
 10
-99.5683085099251
 20
-15.770070817405248
 30
0.0
  0
POINT
  5
334
330
17
100
AcDbEntity
  8
0
100
AcDbPoint
 10
-99.63617038780909
 20
-15.335473372709213
 30
0.0
  0
POINT
  5
335
330
17
100
AcDbEntity
  8
0
100
AcDbPoint
 10
-99.70213533663134
 20
-14.900583962705795
 30
0.0
  0
POINT
  5
336
330
17
100
AcDbEntity
  8
0
100
AcDbPoint
 10
-99.76620210051433
 20
-14.465410867062463
 30
0.0
  0
POINT
  5
337
330
17
100
AcDbEntity
  8
0
100
AcDbPoint
 10
-99.82836945971921
 20
-14.029962370847652
 30
0.0
  0
POINT
  5
338
330
17
100
AcDbEntity
  8
0
100
AcDbPoint
 10
-99.88863623066905
 20
-13.594246764373063
 30
0.0
  0
POINT
  5
339
330
17
100
AcDbEntity
  8
0
100
AcDbPoint
 10
-99.94700126597144
 20
-13.158272343035737
 30
0.0
  0
POINT
  5
33A
330
17
100
AcDbEntity
  8
0
100
AcDbPoint
 10
-100.00346345444024
 20
-12.722047407160273
 30
0.0
  0
POINT
  5
33B
330
17
100
AcDbEntity
  8
0
100
AcDbPoint
 10
-100.05802172111675
 20
-12.285580261840606
 30
0.0
  0
POINT
  5
33C
330
17
100
AcDbEntity
  8
0
100
AcDbPoint
 10
-100.11067502729021
 20
-11.848879216782036
 30
0.0
  0
POINT
  5
33D
330
17
100
AcDbEntity
  8
0
100
AcDbPoint
 10
-100.1614223705176
 20
-11.411952586142945
 30
0.0
  0
POINT
  5
33E
330
17
100
AcDbEntity
  8
0
100
AcDbPoint
 10
-100.21026278464262
 20
-10.97480868837661
 30
0.0
  0
POINT
  5
33F
330
17
100
AcDbEntity
  8
0
100
AcDbPoint
 10
-100.25719533981422
 20
-10.537455846072707
 30
0.0
  0
POINT
  5
340
330
17
100
AcDbEntity
  8
0
100
AcDbPoint
 10
-100.30221914250416
 20
-10.0999023857989
 30
0.0
  0
POINT
  5
341
330
17
100
AcDbEntity
  8
0
100
AcDbPoint
 10
-100.3453333355242
 20
-9.66215663794237
 30
0.0
  0
POINT
  5
342
330
17
100
AcDbEntity
  8
0
100
AcDbPoint
 10
-100.3865370980422
 20
-9.224226936551121
 30
0.0
  0
POINT
  5
343
330
17
100
AcDbEntity
  8
0
100
AcDbPoint
 10
-100.42582964559791
 20
-8.786121619175475
 30
0.0
  0
POINT
  5
344
330
17
100
AcDbEntity
  8
0
100
AcDbPoint
 10
-100.46321023011791
 20
-8.347849026709104
 30
0.0
  0
POINT
  5
345
330
17
100
AcDbEntity
  8
0
100
AcDbPoint
 10
-100.49867813992974
 20
-7.909417503230441
 30
0.0
  0
POINT
  5
346
330
17
100
AcDbEntity
  8
0
100
AcDbPoint
 10
-100.5322326997755
 20
-7.4708353958436735
 30
0.0
  0
POINT
  5
347
330
17
100
AcDbEntity
  8
0
100
AcDbPoint
 10
-100.56387327082473
 20
-7.03211105451996
 30
0.0
  0
POINT
  5
348
330
17
100
AcDbEntity
  8
0
100
AcDbPoint
 10
-100.5935992506866
 20
-6.593252831938347
 30
0.0
  0
POINT
  5
349
330
17
100
AcDbEntity
  8
0
100
AcDbPoint
 10
-100.62141007342127
 20
-6.154269083326776
 30
0.0
  0
POINT
  5
34A
330
17
100
AcDbEntity
  8
0
100
AcDbPoint
 10
-100.64730520955082
 20
-5.7151681663030525
 30
0.0
  0
POINT
  5
34B
330
17
100
AcDbEntity
  8
0
100
AcDbPoint
 10
-100.67128416606913
 20
-5.275958440715653
 30
0.0
  0
POINT
  5
34C
330
17
100
AcDbEntity
  8
0
100
AcDbPoint
 10
-100.69334648645145
 20
-4.836648268484697
 30
0.0
  0
POINT
  5
34D
330
17
100
AcDbEntity
  8
0
100
AcDbPoint
 10
-100.71349175066298
 20
-4.3972460134425955
 30
0.0
  0
POINT
  5
34E
330
17
100
AcDbEntity
  8
0
100
AcDbPoint
 10
-100.73171957516696
 20
-3.9577600411748817
 30
0.0
  0
POINT
  5
34F
330
17
100
AcDbEntity
  8
0
100
AcDbPoint
 10
-100.74802961293192
 20
-3.5181987188609485
 30
0.0
  0
POINT
  5
350
330
17
100
AcDbEntity
  8
0
100
AcDbPoint
 10
-100.76242155343814
 20
-3.0785704151148097
 30
0.0
  0
POINT
  5
351
330
17
100
AcDbEntity
  8
0
100
AcDbPoint
 10
-100.77489512268392
 20
-2.6388834998256288
 30
0.0
  0
POINT
  5
352
330
17
100
AcDbEntity
  8
0
100
AcDbPoint
 10
-100.78545008319047
 20
-2.199146343998482
 30
0.0
  0
POINT
  5
353
330
17
100
AcDbEntity
  8
0
100
AcDbPoint
 10
-100.7940862340065
 20
-1.7593673195949513
 30
0.0
  0
POINT
  5
354
330
17
100
AcDbEntity
  8
0
100
AcDbPoint
 10
-100.80080341071219
 20
-1.3195547993736954
 30
0.0
  0
POINT
  5
355
330
17
100
AcDbEntity
  8
0
100
AcDbPoint
 10
-100.80560148542219
 20
-0.8797171567311851
 30
0.0
  0
POINT
  5
356
330
17
100
AcDbEntity
  8
0
100
AcDbPoint
 10
-100.80848036678803
 20
-0.4398627655420976
 30
0.0
  0
POINT
  5
357
330
17
100
AcDbEntity
  8
0
100
AcDbPoint
 10
-100.80943999999998
 20
1.8856089613213614e-15
 30
0.0
  0
POINT
  5
358
330
17
100
AcDbEntity
  8
0
100
AcDbPoint
 10
-100.80848036678802
 20
0.43986276554211995
 30
0.0
  0
POINT
  5
359
330
17
100
AcDbEntity
  8
0
100
AcDbPoint
 10
-100.80560148542219
 20
0.8797171567312072
 30
0.0
  0
POINT
  5
35A
330
17
100
AcDbEntity
  8
0
100
AcDbPoint
 10
-100.8008034107122
 20
1.3195547993737171
 30
0.0
  0
POINT
  5
35B
330
17
100
AcDbEntity
  8
0
100
AcDbPoint
 10
-100.7940862340065
 20
1.7593673195949535
 30
0.0
  0
POINT
  5
35C
330
17
100
AcDbEntity
  8
0
100
AcDbPoint
 10
-100.78545008319045
 20
2.1991463439985046
 30
0.0
  0
POINT
  5
35D
330
17
100
AcDbEntity
  8
0
100
AcDbPoint
 10
-100.77489512268394
 20
2.6388834998256554
 30
0.0
  0
POINT
  5
35E
330
17
100
AcDbEntity
  8
0
100
AcDbPoint
 10
-100.76242155343816
 20
3.0785704151148305
 30
0.0
  0
POINT
  5
35F
330
17
100
AcDbEntity
  8
0
100
AcDbPoint
 10
-100.7480296129319
 20
3.5181987188609716
 30
0.0
  0
POINT
  5
360
330
17
100
AcDbEntity
  8
0
100
AcDbPoint
 10
-100.73171957516698
 20
3.9577600411748852
 30
0.0
  0
POINT
  5
361
330
17
100
AcDbEntity
  8
0
100
AcDbPoint
 10
-100.713491750663
 20
4.397246013442619
 30
0.0
  0
POINT
  5
362
330
17
100
AcDbEntity
  8
0
100
AcDbPoint
 10
-100.69334648645143
 20
4.836648268484726
 30
0.0
  0
POINT
  5
363
330
17
100
AcDbEntity
  8
0
100
AcDbPoint
 10
-100.67128416606911
 20
5.275958440715678
 30
0.0
  0
POINT
  5
364
330
17
100
AcDbEntity
  8
0
100
AcDbPoint
 10
-100.64730520955081
 20
5.715168166303058
 30
0.0
  0
POINT
  5
365
330
17
100
AcDbEntity
  8
0
100
AcDbPoint
 10
-100.62141007342127
 20
6.154269083326808
 30
0.0
  0
POINT
  5
366
330
17
100
AcDbEntity
  8
0
100
AcDbPoint
 10
-100.59359925068661
 20
6.593252831938366
 30
0.0
  0
POINT
  5
367
330
17
100
AcDbEntity
  8
0
100
AcDbPoint
 10
-100.56387327082473
 20
7.032111054519986
 30
0.0
  0
POINT
  5
368
330
17
100
AcDbEntity
  8
0
100
AcDbPoint
 10
-100.53223269977549
 20
7.470835395843691
 30
0.0
  0
POINT
  5
369
330
17
100
AcDbEntity
  8
0
100
AcDbPoint
 10
-100.49867813992974
 20
7.909417503230435
 30
0.0
  0
POINT
  5
36A
330
17
100
AcDbEntity
  8
0
100
AcDbPoint
 10
-100.46321023011792
 20
8.34784902670913
 30
0.0
  0
POINT
  5
36B
330
17
100
AcDbEntity
  8
0
100
AcDbPoint
 10
-100.42582964559793
 20
8.786121619175493
 30
0.0
  0
POINT
  5
36C
330
17
100
AcDbEntity
  8
0
100
AcDbPoint
 10
-100.3865370980422
 20
9.224226936551158
 30
0.0
  0
POINT
  5
36D
330
17
100
AcDbEntity
  8
0
100
AcDbPoint
 10
-100.3453333355242
 20
9.662156637942378
 30
0.0
  0
POINT
  5
36E
330
17
100
AcDbEntity
  8
0
100
AcDbPoint
 10
-100.30221914250417
 20
10.099902385798929
 30
0.0
  0
POINT
  5
36F
330
17
100
AcDbEntity
  8
0
100
AcDbPoint
 10
-100.25719533981422
 20
10.537455846072731
 30
0.0
  0
POINT
  5
370
330
17
100
AcDbEntity
  8
0
100
AcDbPoint
 10
-100.21026278464262
 20
10.974808688376648
 30
0.0
  0
POINT
  5
371
330
17
100
AcDbEntity
  8
0
100
AcDbPoint
 10
-100.16142237051758
 20
11.411952586142974
 30
0.0
  0
POINT
  5
372
330
17
100
AcDbEntity
  8
0
100
AcDbPoint
 10
-100.11067502729021
 20
11.848879216782041
 30
0.0
  0
POINT
  5
373
330
17
100
AcDbEntity
  8
0
100
AcDbPoint
 10
-100.05802172111675
 20
12.285580261840627
 30
0.0
  0
POINT
  5
374
330
17
100
AcDbEntity
  8
0
100
AcDbPoint
 10
-100.00346345444024
 20
12.722047407160302
 30
0.0
  0
POINT
  5
375
330
17
100
AcDbEntity
  8
0
100
AcDbPoint
 10
-99.94700126597145
 20
13.158272343035767
 30
0.0
  0
POINT
  5
376
330
17
100
AcDbEntity
  8
0
100
AcDbPoint
 10
-99.88863623066905
 20
13.594246764373068
 30
0.0
  0
POINT
  5
377
330
17
100
AcDbEntity
  8
0
100
AcDbPoint
 10
-99.82836945971918
 20
14.029962370847676
 30
0.0
  0
POINT
  5
378
330
17
100
AcDbEntity
  8
0
100
AcDbPoint
 10
-99.7662021005143
 20
14.46541086706249
 30
0.0
  0
POINT
  5
379
330
17
100
AcDbEntity
  8
0
100
AcDbPoint
 10
-99.70213533663134
 20
14.900583962705825
 30
0.0
  0
POINT
  5
37A
330
17
100
AcDbEntity
  8
0
100
AcDbPoint
 10
-99.63617038780909
 20
15.335473372709242
 30
0.0
  0
POINT
  5
37B
330
17
100
AcDbEntity
  8
0
100
AcDbPoint
 10
-99.56830850992509
 20
15.770070817405252
 30
0.0
  0
POINT
  5
37C
330
17
100
AcDbEntity
  8
0
100
AcDbPoint
 10
-99.4985509949717
 20
16.20436802268499
 30
0.0
  0
POINT
  5
37D
330
17
100
AcDbEntity
  8
0
100
AcDbPoint
 10
-99.42689917103142
 20
16.638356720155638
 30
0.0
  0
POINT
  5
37E
330
17
100
AcDbEntity
  8
0
100
AcDbPoint
 10
-99.35335440225172
 20
17.07202864729802
 30
0.0
  0
POINT
  5
37F
330
17
100
AcDbEntity
  8
0
100
AcDbPoint
 10
-99.27791808881899
 20
17.50537554762376
 30
0.0
  0
POINT
  5
380
330
17
100
AcDbEntity
  8
0
100
AcDbPoint
 10
-99.20059166693189
 20
17.938389170832544
 30
0.0
  0
POINT
  5
381
330
17
100
AcDbEntity
  8
0
100
AcDbPoint
 10
-99.12137660877401
 20
18.371061272969122
 30
0.0
  0
POINT
  5
382
330
17
100
AcDbEntity
  8
0
100
AcDbPoint
 10
-99.0402744224859
 20
18.803383616580387
 30
0.0
  0
POINT
  5
383
330
17
100
AcDbEntity
  8
0
100
AcDbPoint
 10
-98.95728665213625
 20
19.235347970872077
 30
0.0
  0
POINT
  5
384
330
17
100
AcDbEntity
  8
0
100
AcDbPoint
 10
-98.87241487769263
 20
19.666946111865563
 30
0.0
  0
POINT
  5
385
330
17
100
AcDbEntity
  8
0
100
AcDbPoint
 10
-98.78566071499122
 20
20.09816982255439
 30
0.0
  0
POINT
  5
386
330
17
100
AcDbEntity
  8
0
100
AcDbPoint
 10
-98.69702581570628
 20
20.529010893060665
 30
0.0
  0
POINT
  5
387
330
17
100
AcDbEntity
  8
0
100
AcDbPoint
 10
-98.60651186731852
 20
20.959461120791467
 30
0.0
  0
POINT
  5
388
330
17
100
AcDbEntity
  8
0
100
AcDbPoint
 10
-98.51412059308302
 20
21.38951231059494
 30
0.0
  0
POINT
  5
389
330
17
100
AcDbEntity
  8
0
100
AcDbPoint
 10
-98.41985375199648
 20
21.819156274916363
 30
0.0
  0
POINT
  5
38A
330
17
100
AcDbEntity
  8
0
100
AcDbPoint
 10
-98.32371313876368
 20
22.24838483395393
 30
0.0
  0
POINT
  5
38B
330
17
100
AcDbEntity
  8
0
100
AcDbPoint
 10
-98.22570058376328
 20
22.677189815814604
 30
0.0
  0
POINT
  5
38C
330
17
100
AcDbEntity
  8
0
100
AcDbPoint
 10
-98.12581795301307
 20
23.105563056669656
 30
0.0
  0
POINT
  5
38D
330
17
100
AcDbEntity
  8
0
100
AcDbPoint
 10
-98.02406714813434
 20
23.533496400910057
 30
0.0
  0
POINT
  5
38E
330
17
100
AcDbEntity
  8
0
100
AcDbPoint
 10
-97.92045010631577
 20
23.96098170130182
 30
0.0
  0
POINT
  5
38F
330
17
100
AcDbEntity
  8
0
100
AcDbPoint
 10
-97.81496880027649
 20
24.388010819140973
 30
0.0
  0
POINT
  5
390
330
17
100
AcDbEntity
  8
0
100
AcDbPoint
 10
-97.70762523822847
 20
24.8145756244087
 30
0.0
  0
POINT
  5
391
330
17
100
AcDbEntity
  8
0
100
AcDbPoint
 10
-97.59842146383842
 20
25.24066799592597
 30
0.0
  0
POINT
  5
392
330
17
100
AcDbEntity
  8
0
100
AcDbPoint
 10
-97.4873595561888
 20
25.66627982150827
 30
0.0
  0
POINT
  5
393
330
17
100
AcDbEntity
  8
0
100
AcDbPoint
 10
-97.37444162973823
 20
26.09140299811987
 30
0.0
  0
POINT
  5
394
330
17
100
AcDbEntity
  8
0
100
AcDbPoint
 10
-97.2596698342813
 20
26.51602943202835
 30
0.0
  0
POINT
  5
395
330
17
100
AcDbEntity
  8
0
100
AcDbPoint
 10
-97.14304635490748
 20
26.94015103895848
 30
0.0
  0
POINT
  5
396
330
17
100
AcDbEntity
  8
0
100
AcDbPoint
 10
-97.02457341195976
 20
27.363759744246206
 30
0.0
  0
POINT
  5
397
330
17
100
AcDbEntity
  8
0
100
AcDbPoint
 10
-96.90425326099219
 20
27.786847482992446
 30
0.0
  0
POINT
  5
398
330
17
100
AcDbEntity
  8
0
100
AcDbPoint
 10
-96.782088192727
 20
28.209406200216463
 30
0.0
  0
POINT
  5
399
330
17
100
AcDbEntity
  8
0
100
AcDbPoint
 10
-96.658080533011
 20
28.631427851009406
 30
0.0
  0
POINT
  5
39A
330
17
100
AcDbEntity
  8
0
100
AcDbPoint
 10
-96.53223264277129
 20
29.052904400687385
 30
0.0
  0
POINT
  5
39B
330
17
100
AcDbEntity
  8
0
100
AcDbPoint
 10
-96.40454691797026
 20
29.473827824944454
 30
0.0
  0
POINT
  5
39C
330
17
100
AcDbEntity
  8
0
100
AcDbPoint
 10
-96.27502578956008
 20
29.894190110005326
 30
0.0
  0
POINT
  5
39D
330
17
100
AcDbEntity
  8
0
100
AcDbPoint
 10
-96.14367172343631
 20
30.313983252778055
 30
0.0
  0
POINT
  5
39E
330
17
100
AcDbEntity
  8
0
100
AcDbPoint
 10
-96.01048722039107
 20
30.733199261006316
 30
0.0
  0
POINT
  5
39F
330
17
100
AcDbEntity
  8
0
100
AcDbPoint
 10
-95.8754748160653
 20
31.1518301534216
 30
0.0
  0
POINT
  5
3A0
330
17
100
AcDbEntity
  8
0
100
AcDbPoint
 10
-95.73863708090053
 20
31.56986795989517
 30
0.0
  0
POINT
  5
3A1
330
17
100
AcDbEntity
  8
0
100
AcDbPoint
 10
-95.59997662009002
 20
31.98730472158976
 30
0.0
  0
POINT
  5
3A2
330
17
100
AcDbEntity
  8
0
100
AcDbPoint
 10
-95.45949607352907
 20
32.404132491111156
 30
0.0
  0
POINT
  5
3A3
330
17
100
AcDbEntity
  8
0
100
AcDbPoint
 10
-95.31719811576478
 20
32.82034333265947
 30
0.0
  0
POINT
  5
3A4
330
17
100
AcDbEntity
  8
0
100
AcDbPoint
 10
-95.17308545594516
 20
33.235929322180255
 30
0.0
  0
POINT
  5
3A5
330
17
100
AcDbEntity
  8
0
100
AcDbPoint
 10
-95.02716083776745
 20
33.65088254751528
 30
0.0
  0
POINT
  5
3A6
330
17
100
AcDbEntity
  8
0
100
AcDbPoint
 10
-94.87942703942616
 20
34.065195108553326
 30
0.0
  0
POINT
  5
3A7
330
17
100
AcDbEntity
  8
0
100
AcDbPoint
 10
-94.72988687355976
 20
34.4788591173804
 30
0.0
  0
POINT
  5
3A8
330
17
100
AcDbEntity
  8
0
100
AcDbPoint
 10
-94.57854318719751
 20
34.8918666984301
 30
0.0
  0
POINT
  5
3A9
330
17
100
AcDbEntity
  8
0
100
AcDbPoint
 10
-94.42539886170498
 20
35.30420998863343
 30
0.0
  0
POINT
  5
3AA
330
17
100
AcDbEntity
  8
0
100
AcDbPoint
 10
-94.27045681272939
 20
35.71588113756847
 30
0.0
  0
POINT
  5
3AB
330
17
100
AcDbEntity
  8
0
100
AcDbPoint
 10
-94.11371999014405
 20
36.12687230760998
 30
0.0
  0
POINT
  5
3AC
330
17
100
AcDbEntity
  8
0
100
AcDbPoint
 10
-93.95519137799212
 20
36.53717567407852
 30
0.0
  0
POINT
  5
3AD
330
17
100
AcDbEntity
  8
0
100
AcDbPoint
 10
-93.79487399442982
 20
36.94678342538946
 30
0.0
  0
POINT
  5
3AE
330
17
100
AcDbEntity
  8
0
100
AcDbPoint
 10
-93.63277089166905
 20
37.35568776320159
 30
0.0
  0
POINT
  5
3AF
330
17
100
AcDbEntity
  8
0
100
AcDbPoint
 10
-93.46888515591927
 20
37.76388090256579
 30
0.0
  0
POINT
  5
3B0
330
17
100
AcDbEntity
  8
0
100
AcDbPoint
 10
-93.30321990732863
 20
38.171355072073055
 30
0.0
  0
POINT
  5
3B1
330
17
100
AcDbEntity
  8
0
100
AcDbPoint
 10
-93.1357782999246
 20
38.578102514002566
 30
0.0
  0
POINT
  5
3B2
330
17
100
AcDbEntity
  8
0
100
AcDbPoint
 10
-92.96656352155411
 20
38.98411548446938
 30
0.0
  0
POINT
  5
3B3
330
17
100
AcDbEntity
  8
0
100
AcDbPoint
 10
-92.79557879382254
 20
39.389386253571736
 30
0.0
  0
POINT
  5
3B4
330
17
100
AcDbEntity
  8
0
100
AcDbPoint
 10
-92.62282737203275
 20
39.79390710553841
 30
0.0
  0
POINT
  5
3B5
330
17
100
AcDbEntity
  8
0
100
AcDbPoint
 10
-92.44831254512269
 20
40.19767033887547
 30
0.0
  0
POINT
  5
3B6
330
17
100
AcDbEntity
  8
0
100
AcDbPoint
 10
-92.27203763560314
 20
40.60066826651299
 30
0.0
  0
POINT
  5
3B7
330
17
100
AcDbEntity
  8
0
100
AcDbPoint
 10
-92.09400599949429
 20
41.00289321595131
 30
0.0
  0
POINT
  5
3B8
330
17
100
AcDbEntity
  8
0
100
AcDbPoint
 10
-91.91422102626187
 20
41.404337529407194
 30
0.0
  0
POINT
  5
3B9
330
17
100
AcDbEntity
  8
0
100
AcDbPoint
 10
-91.73268613875263
 20
41.80499356395958
 30
0.0
  0
POINT
  5
3BA
330
17
100
AcDbEntity
  8
0
100
AcDbPoint
 10
-91.5494047931291
 20
42.2048536916951
 30
0.0
  0
POINT
  5
3BB
330
17
100
AcDbEntity
  8
0
100
AcDbPoint
 10
-91.36438047880392
 20
42.60391029985334
 30
0.0
  0
POINT
  5
3BC
330
17
100
AcDbEntity
  8
0
100
AcDbPoint
 10
-91.17761671837339
 20
43.002155790971685
 30
0.0
  0
POINT
  5
3BD
330
17
100
AcDbEntity
  8
0
100
AcDbPoint
 10
-90.98911706755018
 20
43.39958258303002
 30
0.0
  0
POINT
  5
3BE
330
17
100
AcDbEntity
  8
0
100
AcDbPoint
 10
-90.79888511509604
 20
43.79618310959513
 30
0.0
  0
POINT
  5
3BF
330
17
100
AcDbEntity
  8
0
100
AcDbPoint
 10
-90.60692448275309
 20
44.191949819964705
 30
0.0
  0
POINT
  5
3C0
330
17
100
AcDbEntity
  8
0
100
AcDbPoint
 10
-90.41323882517503
 20
44.586875179311
 30
0.0
  0
POINT
  5
3C1
330
17
100
AcDbEntity
  8
0
100
AcDbPoint
 10
-90.21782288051403
 20
44.98094720684637
 30
0.0
  0
POINT
  5
3C2
330
17
100
AcDbEntity
  8
0
100
AcDbPoint
 10
-90.02068042770011
 20
45.37415828290361
 30
0.0
  0
POINT
  5
3C3
330
17
100
AcDbEntity
  8
0
100
AcDbPoint
 10
-89.8218241894496
 20
45.76650534453886
 30
0.0
  0
POINT
  5
3C4
330
17
100
AcDbEntity
  8
0
100
AcDbPoint
 10
-89.62124906220653
 20
46.15797634363475
 30
0.0
  0
POINT
  5
3C5
330
17
100
AcDbEntity
  8
0
100
AcDbPoint
 10
-89.41895892532996
 20
46.54856371116677
 30
0.0
  0
POINT
  5
3C6
330
17
100
AcDbEntity
  8
0
100
AcDbPoint
 10
-89.21495769167387
 20
46.93825989537465
 30
0.0
  0
POINT
  5
3C7
330
17
100
AcDbEntity
  8
0
100
AcDbPoint
 10
-89.00924047803414
 20
47.32705266719543
 30
0.0
  0
POINT
  5
3C8
330
17
100
AcDbEntity
  8
0
100
AcDbPoint
 10
-88.8018113257279
 20
47.71493439440028
 30
0.0
  0
POINT
  5
3C9
330
17
100
AcDbEntity
  8
0
100
AcDbPoint
 10
-88.59266552216893
 20
48.101892691423274
 30
0.0
  0
POINT
  5
3CA
330
17
100
AcDbEntity
  8
0
100
AcDbPoint
 10
-88.38181600710477
 20
48.48792465767922
 30
0.0
  0
POINT
  5
3CB
330
17
100
AcDbEntity
  8
0
100
AcDbPoint
 10
-88.16925817870906
 20
48.873017868334514
 30
0.0
  0
POINT
  5
3CC
330
17
100
AcDbEntity
  8
0
100
AcDbPoint
 10
-87.95499627907792
 20
49.25716465102095
 30
0.0
  0
POINT
  5
3CD
330
17
100
AcDbEntity
  8
0
100
AcDbPoint
 10
-87.73902588167643
 20
49.640352428564746
 30
0.0
  0
POINT
  5
3CE
330
17
100
AcDbEntity
  8
0
100
AcDbPoint
 10
-87.52134268108072
 20
50.022568491665204
 30
0.0
  0
POINT
  5
3CF
330
17
100
AcDbEntity
  8
0
100
AcDbPoint
 10
-87.30195981504825
 20
50.40381
 30
0.0
  0
POINT
  5
3D0
330
17
100
AcDbEntity
  8
0
100
AcDbPoint
 10
-87.08087309366076
 20
50.784064209782855
 30
0.0
  0
POINT
  5
3D1
330
17
100
AcDbEntity
  8
0
100
AcDbPoint
 10
-86.85807845079678
 20
51.16331824730713
 30
0.0
  0
POINT
  5
3D2
330
17
100
AcDbEntity
  8
0
100
AcDbPoint
 10
-86.633589133803
 20
51.54156933594
 30
0.0
  0
POINT
  5
3D3
330
17
100
AcDbEntity
  8
0
100
AcDbPoint
 10
-86.40738405107895
 20
51.91879426948346
 30
0.0
  0
POINT
  5
3D4
330
17
100
AcDbEntity
  8
0
100
AcDbPoint
 10
-86.17948516349216
 20
52.29499535392976
 30
0.0
  0
POINT
  5
3D5
330
17
100
AcDbEntity
  8
0
100
AcDbPoint
 10
-85.94988018361565
 20
52.670154317052386
 30
0.0
  0
POINT
  5
3D6
330
17
100
AcDbEntity
  8
0
100
AcDbPoint
 10
-85.7185655475627
 20
53.04425787423361
 30
0.0
  0
POINT
  5
3D7
330
17
100
AcDbEntity
  8
0
100
AcDbPoint
 10
-85.48555478338926
 20
53.417303215105775
 30
0.0
  0
POINT
  5
3D8
330
17
100
AcDbEntity
  8
0
100
AcDbPoint
 10
-85.25084445144849
 20
53.78927702969651
 30
0.0
  0
POINT
  5
3D9
330
17
100
AcDbEntity
  8
0
100
AcDbPoint
 10
-85.01443124412202
 20
54.16016588509352
 30
0.0
  0
POINT
  5
3DA
330
17
100
AcDbEntity
  8
0
100
AcDbPoint
 10
-84.77631198730425
 20
54.529956226658115
 30
0.0
  0
POINT
  5
3DB
330
17
100
AcDbEntity
  8
0
100
AcDbPoint
 10
-84.5364920285821
 20
54.89863982564206
 30
0.0
  0
POINT
  5
3DC
330
17
100
AcDbEntity
  8
0
100
AcDbPoint
 10
-84.29497675661699
 20
55.26620848020515
 30
0.0
  0
POINT
  5
3DD
330
17
100
AcDbEntity
  8
0
100
AcDbPoint
 10
-84.05175492329039
 20
55.6326429768848
 30
0.0
  0
POINT
  5
3DE
330
17
100
AcDbEntity
  8
0
100
AcDbPoint
 10
-83.80683214397007
 20
55.99793495028924
 30
0.0
  0
POINT
  5
3DF
330
17
100
AcDbEntity
  8
0
100
AcDbPoint
 10
-83.56020578620469
 20
56.36207047190091
 30
0.0
  0
POINT
  5
3E0
330
17
100
AcDbEntity
  8
0
100
AcDbPoint
 10
-83.31188162375943
 20
56.72504112579463
 30
0.0
  0
POINT
  5
3E1
330
17
100
AcDbEntity
  8
0
100
AcDbPoint
 10
-83.0618572323361
 20
57.0868328618703
 30
0.0
  0
POINT
  5
3E2
330
17
100
AcDbEntity
  8
0
100
AcDbPoint
 10
-82.81013032984745
 20
57.4474315165202
 30
0.0
  0
POINT
  5
3E3
330
17
100
AcDbEntity
  8
0
100
AcDbPoint
 10
-82.5567069693432
 20
57.80682854970423
 30
0.0
  0
POINT
  5
3E4
330
17
100
AcDbEntity
  8
0
100
AcDbPoint
 10
-82.30158508204933
 20
58.16500968180693
 30
0.0
  0
POINT
  5
3E5
330
17
100
AcDbEntity
  8
0
100
AcDbPoint
 10
-82.04476274465426
 20
58.52196052301638
 30
0.0
  0
POINT
  5
3E6
330
17
100
AcDbEntity
  8
0
100
AcDbPoint
 10
-81.78624629642681
 20
58.87767241716261
 30
0.0
  0
POINT
  5
3E7
330
17
100
AcDbEntity
  8
0
100
AcDbPoint
 10
-81.52603403239378
 20
59.23213086414646
 30
0.0
  0
POINT
  5
3E8
330
17
100
AcDbEntity
  8
0
100
AcDbPoint
 10
-81.26411633177528
 20
59.585315343967864
 30
0.0
  0
POINT
  5
3E9
330
17
100
AcDbEntity
  8
0
100
AcDbPoint
 10
-81.00050794299621
 20
59.937222935353034
 30
0.0
  0
POINT
  5
3EA
330
17
100
AcDbEntity
  8
0
100
AcDbPoint
 10
-80.73520753340709
 20
60.28783892731424
 30
0.0
  0
POINT
  5
3EB
330
17
100
AcDbEntity
  8
0
100
AcDbPoint
 10
-80.4682139220963
 20
60.63714850553371
 30
0.0
  0
POINT
  5
3EC
330
17
100
AcDbEntity
  8
0
100
AcDbPoint
 10
-80.19952608121056
 20
60.9851367537667
 30
0.0
  0
POINT
  5
3ED
330
17
100
AcDbEntity
  8
0
100
AcDbPoint
 10
-79.92914313726469
 20
61.33178865525651
 30
0.0
  0
POINT
  5
3EE
330
17
100
AcDbEntity
  8
0
100
AcDbPoint
 10
-79.65707227933498
 20
61.67709521633455
 30
0.0
  0
POINT
  5
3EF
330
17
100
AcDbEntity
  8
0
100
AcDbPoint
 10
-79.3833128661896
 20
62.02104132683971
 30
0.0
  0
POINT
  5
3F0
330
17
100
AcDbEntity
  8
0
100
AcDbPoint
 10
-79.10786441392307
 20
62.36361177971305
 30
0.0
  0
POINT
  5
3F1
330
17
100
AcDbEntity
  8
0
100
AcDbPoint
 10
-78.83073442330603
 20
62.70479749760057
 30
0.0
  0
POINT
  5
3F2
330
17
100
AcDbEntity
  8
0
100
AcDbPoint
 10
-78.55191484832278
 20
63.04457692705889
 30
0.0
  0
POINT
  5
3F3
330
17
100
AcDbEntity
  8
0
100
AcDbPoint
 10
-78.271421227081
 20
63.382947165170954
 30
0.0
  0
POINT
  5
3F4
330
17
100
AcDbEntity
  8
0
100
AcDbPoint
 10
-77.98923806404572
 20
63.71988018059672
 30
0.0
  0
POINT
  5
3F5
330
17
100
AcDbEntity
  8
0
100
AcDbPoint
 10
-77.70538111188944
 20
64.05537302434604
 30
0.0
  0
POINT
  5
3F6
330
17
100
AcDbEntity
  8
0
100
AcDbPoint
 10
-77.41985068858816
 20
64.38941013951842
 30
0.0
  0
POINT
  5
3F7
330
17
100
AcDbEntity
  8
0
100
AcDbPoint
 10
-77.13264727631719
 20
64.72197588128499
 30
0.0
  0
POINT
  5
3F8
330
17
100
AcDbEntity
  8
0
100
AcDbPoint
 10
-76.84377152264457
 20
65.05305451841288
 30
0.0
  0
POINT
  5
3F9
330
17
100
AcDbEntity
  8
0
100
AcDbPoint
 10
-76.55322424171234
 20
65.38263023480016
 30
0.0
  0
POINT
  5
3FA
330
17
100
AcDbEntity
  8
0
100
AcDbPoint
 10
-76.2610139910552
 20
65.71069365861985
 30
0.0
  0
POINT
  5
3FB
330
17
100
AcDbEntity
  8
0
100
AcDbPoint
 10
-75.96714183579465
 20
66.03722890766055
 30
0.0
  0
POINT
  5
3FC
330
17
100
AcDbEntity
  8
0
100
AcDbPoint
 10
-75.67160901023244
 20
66.36222001876449
 30
0.0
  0
POINT
  5
3FD
330
17
100
AcDbEntity
  8
0
100
AcDbPoint
 10
-75.37442440854386
 20
66.68565757560097
 30
0.0
  0
POINT
  5
3FE
330
17
100
AcDbEntity
  8
0
100
AcDbPoint
 10
-75.0755895198363
 20
67.00752555569744
 30
0.0
  0
POINT
  5
3FF
330
17
100
AcDbEntity
  8
0
100
AcDbPoint
 10
-74.77509857346682
 20
67.32780116831918
 30
0.0
  0
POINT
  5
400
330
17
100
AcDbEntity
  8
0
100
AcDbPoint
 10
-74.47296829520515
 20
67.64648158893016
 30
0.0
  0
POINT
  5
401
330
17
100
AcDbEntity
  8
0
100
AcDbPoint
 10
-74.16919323197419
 20
67.96354391018006
 30
0.0
  0
POINT
  5
402
330
17
100
AcDbEntity
  8
0
100
AcDbPoint
 10
-73.86378290946351
 20
68.27897859941406
 30
0.0
  0
POINT
  5
403
330
17
100
AcDbEntity
  8
0
100
AcDbPoint
 10
-73.55674691064196
 20
68.59277618138347
 30
0.0
  0
POINT
  5
404
330
17
100
AcDbEntity
  8
0
100
AcDbPoint
 10
-73.24807302428647
 20
68.90490668309765
 30
0.0
  0
POINT
  5
405
330
17
100
AcDbEntity
  8
0
100
AcDbPoint
 10
-72.93778572407786
 20
69.21537422679229
 30
0.0
  0
POINT
  5
406
330
17
100
AcDbEntity
  8
0
100
AcDbPoint
 10
-72.62587318339929
 20
69.52414867251306
 30
0.0
  0
POINT
  5
407
330
17
100
AcDbEntity
  8
0
100
AcDbPoint
 10
-72.31234557544524
 20
69.83122040217745
 30
0.0
  0
POINT
  5
408
330
17
100
AcDbEntity
  8
0
100
AcDbPoint
 10
-71.99721313223733
 20
70.13657985998171
 30
0.0
  0
POINT
  5
409
330
17
100
AcDbEntity
  8
0
100
AcDbPoint
 10
-71.68047901174515
 20
70.44021054366364
 30
0.0
  0
POINT
  5
40A
330
17
100
AcDbEntity
  8
0
100
AcDbPoint
 10
-71.36214655261635
 20
70.74209588973035
 30
0.0
  0
POINT
  5
40B
330
17
100
AcDbEntity
  8
0
100
AcDbPoint
 10
-71.04222634621749
 20
71.0422263462175
 30
0.0
  0
POINT
  5
40C
330
17
100
AcDbEntity
  8
0
100
AcDbPoint
 10
-70.72071496254863
 20
71.34057822275868
 30
0.0
  0
POINT
  5
40D
330
17
100
AcDbEntity
  8
0
100
AcDbPoint
 10
-70.3976303058574
 20
71.63714904695904
 30
0.0
  0
POINT
  5
40E
330
17
100
AcDbEntity
  8
0
100
AcDbPoint
 10
-70.07296928166251
 20
71.93191504707475
 30
0.0
  0
POINT
  5
40F
330
17
100
AcDbEntity
  8
0
100
AcDbPoint
 10
-69.74674299774593
 20
72.22486666232606
 30
0.0
  0
POINT
  5
410
330
17
100
AcDbEntity
  8
0
100
AcDbPoint
 10
-69.41895570646746
 20
72.51598717749079
 30
0.0
  0
POINT
  5
411
330
17
100
AcDbEntity
  8
0
100
AcDbPoint
 10
-69.08961872935879
 20
72.80526708023764
 30
0.0
  0
POINT
  5
412
330
17
100
AcDbEntity
  8
0
100
AcDbPoint
 10
-68.75873659577132
 20
73.09268964528147
 30
0.0
  0
POINT
  5
413
330
17
100
AcDbEntity
  8
0
100
AcDbPoint
 10
-68.4263140216594
 20
73.37823809915074
 30
0.0
  0
POINT
  5
414
330
17
100
AcDbEntity
  8
0
100
AcDbPoint
 10
-68.09236269845213
 20
73.66190296516947
 30
0.0
  0
POINT
  5
415
330
17
100
AcDbEntity
  8
0
100
AcDbPoint
 10
-67.7568876215725
 20
73.94366746741737
 30
0.0
  0
POINT
  5
416
330
17
100
AcDbEntity
  8
0
100
AcDbPoint
 10
-67.41990069849274
 20
74.22352218842336
 30
0.0
  0
POINT
  5
417
330
17
100
AcDbEntity
  8
0
100
AcDbPoint
 10
-67.08140720513963
 20
74.50145035438128
 30
0.0
  0
POINT
  5
418
330
17
100
AcDbEntity
  8
0
100
AcDbPoint
 10
-66.74141260669685
 20
74.77743515046667
 30
0.0
  0
POINT
  5
419
330
17
100
AcDbEntity
  8
0
100
AcDbPoint
 10
-66.39992918460985
 20
75.05146721218244
 30
0.0
  0
POINT
  5
41A
330
17
100
AcDbEntity
  8
0
100
AcDbPoint
 10
-66.0569626867476
 20
75.3235297345639
 30
0.0
  0
POINT
  5
41B
330
17
100
AcDbEntity
  8
0
100
AcDbPoint
 10
-65.71252561244226
 20
75.593613423255
 30
0.0
  0
POINT
  5
41C
330
17
100
AcDbEntity
  8
0
100
AcDbPoint
 10
-65.36663052069426
 20
75.86170906343624
 30
0.0
  0
POINT
  5
41D
330
17
100
AcDbEntity
  8
0
100
AcDbPoint
 10
-65.01927704072038
 20
76.12779231207845
 30
0.0
  0
POINT
  5
41E
330
17
100
AcDbEntity
  8
0
100
AcDbPoint
 10
-64.67047804882648
 20
76.39185394496164
 30
0.0
  0
POINT
  5
41F
330
17
100
AcDbEntity
  8
0
100
AcDbPoint
 10
-64.32024648098309
 20
76.6538848202567
 30
0.0
  0
POINT
  5
420
330
17
100
AcDbEntity
  8
0
100
AcDbPoint
 10
-63.968588937924935
 20
76.91386819048232
 30
0.0
  0
POINT
  5
421
330
17
100
AcDbEntity
  8
0
100
AcDbPoint
 10
-63.615518574241754
 20
77.171794996231
 30
0.0
  0
POINT
  5
422
330
17
100
AcDbEntity
  8
0
100
AcDbPoint
 10
-63.26104860337645
 20
77.42765626248378
 30
0.0
  0
POINT
  5
423
330
17
100
AcDbEntity
  8
0
100
AcDbPoint
 10
-62.9051815986549
 20
77.68142988749999
 30
0.0
  0
POINT
  5
424
330
17
100
AcDbEntity
  8
0
100
AcDbPoint
 10
-62.547925429585
 20
77.93309990752309
 30
0.0
  0
POINT
  5
425
330
17
100
AcDbEntity
  8
0
100
AcDbPoint
 10
-62.18930557729367
 20
78.1826722607797
 30
0.0
  0
POINT
  5
426
330
17
100
AcDbEntity
  8
0
100
AcDbPoint
 10
-61.82932131957965
 20
78.43012019623438
 30
0.0
  0
POINT
  5
427
330
17
100
AcDbEntity
  8
0
100
AcDbPoint
 10
-61.467986466939905
 20
78.67543492611713
 30
0.0
  0
POINT
  5
428
330
17
100
AcDbEntity
  8
0
100
AcDbPoint
 10
-61.105314887646365
 20
78.91860775193695
 30
0.0
  0
POINT
  5
429
330
17
100
AcDbEntity
  8
0
100
AcDbPoint
 10
-60.741314419575204
 20
79.15962213131583
 30
0.0
  0
POINT
  5
42A
330
17
100
AcDbEntity
  8
0
100
AcDbPoint
 10
-60.375999148899716
 20
79.39846946595986
 30
0.0
  0
POINT
  5
42B
330
17
100
AcDbEntity
  8
0
100
AcDbPoint
 10
-60.00938321858335
 20
79.63514124885577
 30
0.0
  0
POINT
  5
42C
330
17
100
AcDbEntity
  8
0
100
AcDbPoint
 10
-59.64147484456374
 20
79.8696210520951
 30
0.0
  0
POINT
  5
42D
330
17
100
AcDbEntity
  8
0
100
AcDbPoint
 10
-59.27228838672729
 20
80.10190047421801
 30
0.0
  0
POINT
  5
42E
330
17
100
AcDbEntity
  8
0
100
AcDbPoint
 10
-58.901832347617336
 20
80.33196314259462
 30
0.0
  0
POINT
  5
42F
330
17
100
AcDbEntity
  8
0
100
AcDbPoint
 10
-58.530127181628494
 20
80.55980885567189
 30
0.0
  0
POINT
  5
430
330
17
100
AcDbEntity
  8
0
100
AcDbPoint
 10
-58.15718157199516
 20
80.78542137760738
 30
0.0
  0
POINT
  5
431
330
17
100
AcDbEntity
  8
0
100
AcDbPoint
 10
-57.78300439781509
 20
81.0087844652355
 30
0.0
  0
POINT
  5
432
330
17
100
AcDbEntity
  8
0
100
AcDbPoint
 10
-57.40761627746915
 20
81.2298982027951
 30
0.0
  0
POINT
  5
433
330
17
100
AcDbEntity
  8
0
100
AcDbPoint
 10
-57.03102626918886
 20
81.44874648879924
 30
0.0
  0
POINT
  5
434
330
17
100
AcDbEntity
  8
0
100
AcDbPoint
 10
-56.65324932722714
 20
81.66532143474325
 30
0.0
  0
POINT
  5
435
330
17
100
AcDbEntity
  8
0
100
AcDbPoint
 10
-56.274294794689766
 20
81.8796070084484
 30
0.0
  0
POINT
  5
436
330
17
100
AcDbEntity
  8
0
100
AcDbPoint
 10
-55.89418346713695
 20
82.09160370891794
 30
0.0
  0
POINT
  5
437
330
17
100
AcDbEntity
  8
0
100
AcDbPoint
 10
-55.51292486412248
 20
82.30129565152843
 30
0.0
  0
POINT
  5
438
330
17
100
AcDbEntity
  8
0
100
AcDbPoint
 10
-55.13053425688039
 20
82.50867526767436
 30
0.0
  0
POINT
  5
439
330
17
100
AcDbEntity
  8
0
100
AcDbPoint
 10
-54.747026967732474
 20
82.7137350886343
 30
0.0
  0
POINT
  5
43A
330
17
100
AcDbEntity
  8
0
100
AcDbPoint
 10
-54.362418369461395
 20
82.91646774590222
 30
0.0
  0
POINT
  5
43B
330
17
100
AcDbEntity
  8
0
100
AcDbPoint
 10
-53.976718438291414
 20
83.11685758480954
 30
0.0
  0
POINT
  5
43C
330
17
100
AcDbEntity
  8
0
100
AcDbPoint
 10
-53.58994275597493
 20
83.31489736720697
 30
0.0
  0
POINT
  5
43D
330
17
100
AcDbEntity
  8
0
100
AcDbPoint
 10
-53.202112326446375
 20
83.51058839100754
 30
0.0
  0
POINT
  5
43E
330
17
100
AcDbEntity
  8
0
100
AcDbPoint
 10
-52.813232046344915
 20
83.70390677821331
 30
0.0
  0
POINT
  5
43F
330
17
100
AcDbEntity
  8
0
100
AcDbPoint
 10
-52.42332305279826
 20
83.89485400846677
 30
0.0
  0
POINT
  5
440
330
17
100
AcDbEntity
  8
0
100
AcDbPoint
 10
-52.032406382582636
 20
84.083431757641
 30
0.0
  0
POINT
  5
441
330
17
100
AcDbEntity
  8
0
100
AcDbPoint
 10
-51.64048207052361
 20
84.26960779092798
 30
0.0
  0
POINT
  5
442
330
17
100
AcDbEntity
  8
0
100
AcDbPoint
 10
-51.2475817702385
 20
84.45340099836606
 30
0.0
  0
POINT
  5
443
330
17
100
AcDbEntity
  8
0
100
AcDbPoint
 10
-50.8537109817117
 20
84.634787788246
 30
0.0
  0
POINT
  5
444
330
17
100
AcDbEntity
  8
0
100
AcDbPoint
 10
-50.45888577444839
 20
84.81376168119222
 30
0.0
  0
POINT
  5
445
330
17
100
AcDbEntity
  8
0
100
AcDbPoint
 10
-50.06312733791719
 20
84.9903249197077
 30
0.0
  0
POINT
  5
446
330
17
100
AcDbEntity
  8
0
100
AcDbPoint
 10
-49.666451717186895
 20
85.16447130207492
 30
0.0
  0
POINT
  5
447
330
17
100
AcDbEntity
  8
0
100
AcDbPoint
 10
-49.26886999999999
 20
85.33618607150602
 30
0.0
  0
POINT
  5
448
330
17
100
AcDbEntity
  8
0
100
AcDbPoint
 10
-48.8703984296167
 20
85.50546317173027
 30
0.0
  0
POINT
  5
449
330
17
100
AcDbEntity
  8
0
100
AcDbPoint
 10
-48.47105329121425
 20
85.67229665321149
 30
0.0
  0
POINT
  5
44A
330
17
100
AcDbEntity
  8
0
100
AcDbPoint
 10
-48.070855797427726
 20
85.8366893983861
 30
0.0
  0
POINT
  5
44B
330
17
100
AcDbEntity
  8
0
100
AcDbPoint
 10
-47.669822200903354
 20
85.99863573572759
 30
0.0
  0
POINT
  5
44C
330
17
100
AcDbEntity
  8
0
100
AcDbPoint
 10
-47.26796398374282
 20
86.1581213329985
 30
0.0
  0
POINT
  5
44D
330
17
100
AcDbEntity
  8
0
100
AcDbPoint
 10
-46.86529759150965
 20
86.31514066933644
 30
0.0
  0
POINT
  5
44E
330
17
100
AcDbEntity
  8
0
100
AcDbPoint
 10
-46.46184424151174
 20
86.46969714086607
 30
0.0
  0
POINT
  5
44F
330
17
100
AcDbEntity
  8
0
100
AcDbPoint
 10
-46.05762034028486
 20
86.62178550484731
 30
0.0
  0
POINT
  5
450
330
17
100
AcDbEntity
  8
0
100
AcDbPoint
 10
-45.652637674869354
 20
86.77139177624558
 30
0.0
  0
POINT
  5
451
330
17
100
AcDbEntity
  8
0
100
AcDbPoint
 10
-45.246917457887854
 20
86.91851973714223
 30
0.0
  0
POINT
  5
452
330
17
100
AcDbEntity
  8
0
100
AcDbPoint
 10
-44.84047620405973
 20
87.06316446878122
 30
0.0
  0
POINT
  5
453
330
17
100
AcDbEntity
  8
0
100
AcDbPoint
 10
-44.4333304627187
 20
87.20532116071378
 30
0.0
  0
POINT
  5
454
330
17
100
AcDbEntity
  8
0
100
AcDbPoint
 10
-44.02550131811668
 20
87.34499404082071
 30
0.0
  0
POINT
  5
455
330
17
100
AcDbEntity
  8
0
100
AcDbPoint
 10
-43.61699634579789
 20
87.48216067593813
 30
0.0
  0
POINT
  5
456
330
17
100
AcDbEntity
  8
0
100
AcDbPoint
 10
-43.207841157642655
 20
87.6168344607132
 30
0.0
  0
POINT
  5
457
330
17
100
AcDbEntity
  8
0
100
AcDbPoint
 10
-42.79805231709652
 20
87.74901107785472
 30
0.0
  0
POINT
  5
458
330
17
100
AcDbEntity
  8
0
100
AcDbPoint
 10
-42.3876464183014
 20
87.87868631847634
 30
0.0
  0
POINT
  5
459
330
17
100
AcDbEntity
  8
0
100
AcDbPoint
 10
-41.976635780304385
 20
88.00584705645284
 30
0.0
  0
POINT
  5
45A
330
17
100
AcDbEntity
  8
0
100
AcDbPoint
 10
-41.56504570624365
 20
88.13050733333762
 30
0.0
  0
POINT
  5
45B
330
17
100
AcDbEntity
  8
0
100
AcDbPoint
 10
-41.15288853381018
 20
88.25265425971443
 30
0.0
  0
POINT
  5
45C
330
17
100
AcDbEntity
  8
0
100
AcDbPoint
 10
-40.74018097311516
 20
88.37228406236552
 30
0.0
  0
POINT
  5
45D
330
17
100
AcDbEntity
  8
0
100
AcDbPoint
 10
-40.32694805541663
 20
88.48941127670716
 30
0.0
  0
POINT
  5
45E
330
17
100
AcDbEntity
  8
0
100
AcDbPoint
 10
-39.91319809186278
 20
88.60401422133268
 30
0.0
  0
POINT
  5
45F
330
17
100
AcDbEntity
  8
0
100
AcDbPoint
 10
-39.498956006613504
 20
88.71610772167874
 30
0.0
  0
POINT
  5
460
330
17
100
AcDbEntity
  8
0
100
AcDbPoint
 10
-39.08423434745616
 20
88.82567939507825
 30
0.0
  0
POINT
  5
461
330
17
100
AcDbEntity
  8
0
100
AcDbPoint
 10
-38.66905780816916
 20
88.93274440876584
 30
0.0
  0
POINT
  5
462
330
17
100
AcDbEntity
  8
0
100
AcDbPoint
 10
-38.253434995753054
 20
89.0372814260751
 30
0.0
  0
POINT
  5
463
330
17
100
AcDbEntity
  8
0
100
AcDbPoint
 10
-37.837386581967195
 20
89.13929669571536
 30
0.0
  0
POINT
  5
464
330
17
100
AcDbEntity
  8
0
100
AcDbPoint
 10
-37.420933099792926
 20
89.23879664381924
 30
0.0
  0
POINT
  5
465
330
17
100
AcDbEntity
  8
0
100
AcDbPoint
 10
-37.00409111517603
 20
89.33577863354776
 30
0.0
  0
POINT
  5
466
330
17
100
AcDbEntity
  8
0
100
AcDbPoint
 10
-36.58688100033092
 20
89.4302493912419
 30
0.0
  0
POINT
  5
467
330
17
100
AcDbEntity
  8
0
100
AcDbPoint
 10
-36.169315492767865
 20
89.52219727321612
 30
0.0
  0
POINT
  5
468
330
17
100
AcDbEntity
  8
0
100
AcDbPoint
 10
-35.75141492111836
 20
89.61162925394301
 30
0.0
  0
POINT
  5
469
330
17
100
AcDbEntity
  8
0
100
AcDbPoint
 10
-35.33319580451491
 20
89.69854317622675
 30
0.0
  0
POINT
  5
46A
330
17
100
AcDbEntity
  8
0
100
AcDbPoint
 10
-34.91467467875655
 20
89.78293699012465
 30
0.0
  0
POINT
  5
46B
330
17
100
AcDbEntity
  8
0
100
AcDbPoint
 10
-34.49587526299839
 20
89.86482742467854
 30
0.0
  0
POINT
  5
46C
330
17
100
AcDbEntity
  8
0
100
AcDbPoint
 10
-34.07681033683809
 20
89.94420338675063
 30
0.0
  0
POINT
  5
46D
330
17
100
AcDbEntity
  8
0
100
AcDbPoint
 10
-33.65749986121325
 20
90.02107256064009
 30
0.0
  0
POINT
  5
46E
330
17
100
AcDbEntity
  8
0
100
AcDbPoint
 10
-33.23795672469701
 20
90.095424034232
 30
0.0
  0
POINT
  5
46F
330
17
100
AcDbEntity
  8
0
100
AcDbPoint
 10
-32.81820767307408
 20
90.16728452874347
 30
0.0
  0
POINT
  5
470
330
17
100
AcDbEntity
  8
0
100
AcDbPoint
 10
-32.398262076144434
 20
90.23663399144696
 30
0.0
  0
POINT
  5
471
330
17
100
AcDbEntity
  8
0
100
AcDbPoint
 10
-31.978139657140332
 20
90.30348063534056
 30
0.0
  0
POINT
  5
472
330
17
100
AcDbEntity
  8
0
100
AcDbPoint
 10
-31.557859985202334
 20
90.36783283727935
 30
0.0
  0
POINT
  5
473
330
17
100
AcDbEntity
  8
0
100
AcDbPoint
 10
-31.137439218410332
 20
90.4296896810771
 30
0.0
  0
POINT
  5
474
330
17
100
AcDbEntity
  8
0
100
AcDbPoint
 10
-30.716893523340193
 20
90.48905035450798
 30
0.0
  0
POINT
  5
475
330
17
100
AcDbEntity
  8
0
100
AcDbPoint
 10
-30.296245420511625
 20
90.54593311585135
 30
0.0
  0
POINT
  5
476
330
17
100
AcDbEntity
  8
0
100
AcDbPoint
 10
-29.87550771146708
 20
90.60032794655031
 30
0.0
  0
POINT
  5
477
330
17
100
AcDbEntity
  8
0
100
AcDbPoint
 10
-29.454699549804545
 20
90.65224389687683
 30
0.0
  0
POINT
  5
478
330
17
100
AcDbEntity
  8
0
100
AcDbPoint
 10
-29.033836879936324
 20
90.7016806498515
 30
0.0
  0
POINT
  5
479
330
17
100
AcDbEntity
  8
0
100
AcDbPoint
 10
-28.612938657910295
 20
90.74864752776573
 30
0.0
  0
POINT
  5
47A
330
17
100
AcDbEntity
  8
0
100
AcDbPoint
 10
-28.19202071173529
 20
90.79314445697973
 30
0.0
  0
POINT
  5
47B
330
17
100
AcDbEntity
  8
0
100
AcDbPoint
 10
-27.77110179611198
 20
90.83518102800251
 30
0.0
  0
POINT
  5
47C
330
17
100
AcDbEntity
  8
0
100
AcDbPoint
 10
-27.350197619110958
 20
90.87475740743233
 30
0.0
  0
POINT
  5
47D
330
17
100
AcDbEntity
  8
0
100
AcDbPoint
 10
-26.929326730352237
 20
90.91188345014328
 30
0.0
  0
POINT
  5
47E
330
17
100
AcDbEntity
  8
0
100
AcDbPoint
 10
-26.508504714491025
 20
90.94655955982176
 30
0.0
  0
POINT
  5
47F
330
17
100
AcDbEntity
  8
0
100
AcDbPoint
 10
-26.08774715602393
 20
90.97878623918746
 30
0.0
  0
POINT
  5
480
330
17
100
AcDbEntity
  8
0
100
AcDbPoint
 10
-25.667077781892576
 20
91.0085929636684
 30
0.0
  0
POINT
  5
481
330
17
100
AcDbEntity
  8
0
100
AcDbPoint
 10
-25.246503779108664
 20
91.03595163095706
 30
0.0
  0
POINT
  5
482
330
17
100
AcDbEntity
  8
0
100
AcDbPoint
 10
-24.826048618511557
 20
91.0608919829347
 30
0.0
  0
POINT
  5
483
330
17
100
AcDbEntity
  8
0
100
AcDbPoint
 10
-24.405727498319386
 20
91.08341501940886
 30
0.0
  0
POINT
  5
484
330
17
100
AcDbEntity
  8
0
100
AcDbPoint
 10
-23.985558158682714
 20
91.10353150642048
 30
0.0
  0
POINT
  5
485
330
17
100
AcDbEntity
  8
0
100
AcDbPoint
 10
-23.565553158600572
 20
91.12123298689319
 30
0.0
  0
POINT
  5
486
330
17
100
AcDbEntity
  8
0
100
AcDbPoint
 10
-23.14573014366002
 20
91.1365304396896
 30
0.0
  0
POINT
  5
487
330
17
100
AcDbEntity
  8
0
100
AcDbPoint
 10
-22.726109003567398
 20
91.14944468496543
 30
0.0
  0
POINT
  5
488
330
17
100
AcDbEntity
  8
0
100
AcDbPoint
 10
-22.306702151865178
 20
91.15996758093968
 30
0.0
  0
POINT
  5
489
330
17
100
AcDbEntity
  8
0
100
AcDbPoint
 10
-21.88752683279575
 20
91.16811048449202
 30
0.0
  0
POINT
  5
48A
330
17
100
AcDbEntity
  8
0
100
AcDbPoint
 10
-21.468600112678306
 20
91.17388488633303
 30
0.0
  0
POINT
  5
48B
330
17
100
AcDbEntity
  8
0
100
AcDbPoint
 10
-21.049938878901937
 20
91.17730240911985
 30
0.0
  0
POINT
  5
48C
330
17
100
AcDbEntity
  8
0
100
AcDbPoint
 10
-20.631555424986384
 20
91.17835529871832
 30
0.0
  0
POINT
  5
48D
330
17
100
AcDbEntity
  8
0
100
AcDbPoint
 10
-20.21346869737057
 20
91.17706514173626
 30
0.0
  0
POINT
  5
48E
330
17
100
AcDbEntity
  8
0
100
AcDbPoint
 10
-19.79569092532719
 20
91.17342437373414
 30
0.0
  0
POINT
  5
48F
330
17
100
AcDbEntity
  8
0
100
AcDbPoint
 10
-19.378242813316596
 20
91.16746460831375
 30
0.0
  0
POINT
  5
490
330
17
100
AcDbEntity
  8
0
100
AcDbPoint
 10
-18.961134359099706
 20
91.15916870440772
 30
0.0
  0
POINT
  5
491
330
17
100
AcDbEntity
  8
0
100
AcDbPoint
 10
-18.54438585727722
 20
91.14856853329357
 30
0.0
  0
POINT
  5
492
330
17
100
AcDbEntity
  8
0
100
AcDbPoint
 10
-18.128009271996074
 20
91.13565692672942
 30
0.0
  0
POINT
  5
493
330
17
100
AcDbEntity
  8
0
100
AcDbPoint
 10
-17.712020540103513
 20
91.12044640053817
 30
0.0
  0
POINT
  5
494
330
17
100
AcDbEntity
  8
0
100
AcDbPoint
 10
-17.296433546781483
 20
91.10293976521379
 30
0.0
  0
POINT
  5
495
330
17
100
AcDbEntity
  8
0
100
AcDbPoint
 10
-16.881265806163
 20
91.08315958139887
 30
0.0
  0
POINT
  5
496
330
17
100
AcDbEntity
  8
0
100
AcDbPoint
 10
-16.46653091388109
 20
91.06110887675759
 30
0.0
  0
POINT
  5
497
330
17
100
AcDbEntity
  8
0
100
AcDbPoint
 10
-16.052244184862452
 20
91.0368006096746
 30
0.0
  0
POINT
  5
498
330
17
100
AcDbEntity
  8
0
100
AcDbPoint
 10
-15.638419050909516
 20
91.01023799546206
 30
0.0
  0
POINT
  5
499
330
17
100
AcDbEntity
  8
0
100
AcDbPoint
 10
-15.225068925455169
 20
90.98142433077227
 30
0.0
  0
POINT
  5
49A
330
17
100
AcDbEntity
  8
0
100
AcDbPoint
 10
-14.81221202535466
 20
90.95039260339418
 30
0.0
  0
POINT
  5
49B
330
17
100
AcDbEntity
  8
0
100
AcDbPoint
 10
-14.399858209428565
 20
90.91712658088548
 30
0.0
  0
POINT
  5
49C
330
17
100
AcDbEntity
  8
0
100
AcDbPoint
 10
-13.988023745959568
 20
90.88164958907475
 30
0.0
  0
POINT
  5
49D
330
17
100
AcDbEntity
  8
0
100
AcDbPoint
 10
-13.576721581452894
 20
90.84396530563717
 30
0.0
  0
POINT
  5
49E
330
17
100
AcDbEntity
  8
0
100
AcDbPoint
 10
-13.1659675109823
 20
90.80409727872504
 30
0.0
  0
POINT
  5
49F
330
17
100
AcDbEntity
  8
0
100
AcDbPoint
 10
-12.755772787124844
 20
90.76203947512057
 30
0.0
  0
POINT
  5
4A0
330
17
100
AcDbEntity
  8
0
100
AcDbPoint
 10
-12.346152858354857
 20
90.71781563863041
 30
0.0
  0
POINT
  5
4A1
330
17
100
AcDbEntity
  8
0
100
AcDbPoint
 10
-11.937120193839915
 20
90.67142980645401
 30
0.0
  0
POINT
  5
4A2
330
17
100
AcDbEntity
  8
0
100
AcDbPoint
 10
-11.528687239197426
 20
90.62288608937791
 30
0.0
  0
POINT
  5
4A3
330
17
100
AcDbEntity
  8
0
100
AcDbPoint
 10
-11.120868853450439
 20
90.57220852257306
 30
0.0
  0
POINT
  5
4A4
330
17
100
AcDbEntity
  8
0
100
AcDbPoint
 10
-10.713677173906792
 20
90.519401394959
 30
0.0
  0
POINT
  5
4A5
330
17
100
AcDbEntity
  8
0
100
AcDbPoint
 10
-10.307125444796602
 20
90.46447900210794
 30
0.0
  0
POINT
  5
4A6
330
17
100
AcDbEntity
  8
0
100
AcDbPoint
 10
-9.901226711373967
 20
90.40745572977028
 30
0.0
  0
POINT
  5
4A7
330
17
100
AcDbEntity
  8
0
100
AcDbPoint
 10
-9.495991728728605
 20
90.3483261614072
 30
0.0
  0
POINT
  5
4A8
330
17
100
AcDbEntity
  8
0
100
AcDbPoint
 10
-9.091434404627142
 20
90.28711477992006
 30
0.0
  0
POINT
  5
4A9
330
17
100
AcDbEntity
  8
0
100
AcDbPoint
 10
-8.687567314133442
 20
90.22383621770526
 30
0.0
  0
POINT
  5
4AA
330
17
100
AcDbEntity
  8
0
100
AcDbPoint
 10
-8.284401001032716
 20
90.15848527423299
 30
0.0
  0
POINT
  5
4AB
330
17
100
AcDbEntity
  8
0
100
AcDbPoint
 10
-7.881949641205294
 20
90.09109664670757
 30
0.0
  0
POINT
  5
4AC
330
17
100
AcDbEntity
  8
0
100
AcDbPoint
 10
-7.480223548253762
 20
90.02166528073256
 30
0.0
  0
POINT
  5
4AD
330
17
100
AcDbEntity
  8
0
100
AcDbPoint
 10
-7.079235534606453
 20
89.9502160783128
 30
0.0
  0
POINT
  5
4AE
330
17
100
AcDbEntity
  8
0
100
AcDbPoint
 10
-6.678995812209567
 20
89.87674411451157
 30
0.0
  0
POINT
  5
4AF
330
17
100
AcDbEntity
  8
0
100
AcDbPoint
 10
-6.279516830071447
 20
89.80127444025753
 30
0.0
  0
POINT
  5
4B0
330
17
100
AcDbEntity
  8
0
100
AcDbPoint
 10
-5.880809350890179
 20
89.72381223536694
 30
0.0
  0
POINT
  5
4B1
330
17
100
AcDbEntity
  8
0
100
AcDbPoint
 10
-5.482884717365214
 20
89.64437272103689
 30
0.0
  0
POINT
  5
4B2
330
17
100
AcDbEntity
  8
0
100
AcDbPoint
 10
-5.085754067144787
 20
89.56297118860573
 30
0.0
  0
POINT
  5
4B3
330
17
100
AcDbEntity
  8
0
100
AcDbPoint
 10
-4.689427809022302
 20
89.47961301118859
 30
0.0
  0
POINT
  5
4B4
330
17
100
AcDbEntity
  8
0
100
AcDbPoint
 10
-4.293917279744831
 20
89.39432359611435
 30
0.0
  0
POINT
  5
4B5
330
17
100
AcDbEntity
  8
0
100
AcDbPoint
 10
-3.8992321268518317
 20
89.3070984523253
 30
0.0
  0
POINT
  5
4B6
330
17
100
AcDbEntity
  8
0
100
AcDbPoint
 10
-3.5053829251186417
 20
89.21795312072781
 30
0.0
  0
POINT
  5
4B7
330
17
100
AcDbEntity
  8
0
100
AcDbPoint
 10
-3.1123803913049395
 20
89.12691319818845
 30
0.0
  0
POINT
  5
4B8
330
17
100
AcDbEntity
  8
0
100
AcDbPoint
 10
-2.7202339441918073
 20
89.03397436124743
 30
0.0
  0
POINT
  5
4B9
330
17
100
AcDbEntity
  8
0
100
AcDbPoint
 10
-2.328953929019558
 20
88.93916232301159
 30
0.0
  0
POINT
  5
4BA
330
17
100
AcDbEntity
  8
0
100
AcDbPoint
 10
-1.9385500903526223
 20
88.8424928600993
 30
0.0
  0
POINT
  5
4BB
330
17
100
AcDbEntity
  8
0
100
AcDbPoint
 10
-1.5490316153090553
 20
88.74396180588948
 30
0.0
  0
POINT
  5
4BC
330
17
100
AcDbEntity
  8
0
100
AcDbPoint
 10
-1.160408224018406
 20
88.64359503748554
 30
0.0
  0
POINT
  5
4BD
330
17
100
AcDbEntity
  8
0
100
AcDbPoint
 10
-0.7726890786003526
 20
88.54139848647473
 30
0.0
  0
POINT
  5
4BE
330
17
100
AcDbEntity
  8
0
100
AcDbPoint
 10
-0.38588335008554564
 20
88.43738813179087
 30
0.0
  0
POINT
  5
4BF
330
17
100
AcDbEntity
  8
0
100
AcDbPoint
 10
9.20178088234068e-15
 20
88.33157999999999
 30
0.0
  0
POINT
  5
4C0
330
17
100
AcDbEntity
  8
0
100
AcDbPoint
 10
0.3849522198841944
 20
88.22399016320506
 30
0.0
  0
POINT
  5
4C1
330
17
100
AcDbEntity
  8
0
100
AcDbPoint
 10
0.768964593249655
 20
88.11461473771097
 30
0.0
  0
POINT
  5
4C2
330
17
100
AcDbEntity
  8
0
100
AcDbPoint
 10
1.1520287885174718
 20
88.00348988154576
 30
0.0
  0
POINT
  5
4C3
330
17
100
AcDbEntity
  8
0
100
AcDbPoint
 10
1.534136335462979
 20
87.8906117950274
 30
0.0
  0
POINT
  5
4C4
330
17
100
AcDbEntity
  8
0
100
AcDbPoint
 10
1.9152790617420177
 20
87.77599671771179
 30
0.0
  0
POINT
  5
4C5
330
17
100
AcDbEntity
  8
0
100
AcDbPoint
 10
2.295401887295436
 20
87.65786154329741
 30
0.0
  0
POINT
  5
4C6
330
17
100
AcDbEntity
  8
0
100
AcDbPoint
 10
2.674638111658768
 20
87.54161073811277
 30
0.0
  0
POINT
  5
4C7
330
17
100
AcDbEntity
  8
0
100
AcDbPoint
 10
3.0528390579707456
 20
87.42187249602772
 30
0.0
  0
POINT
  5
4C8
330
17
100
AcDbEntity
  8
0
100
AcDbPoint
 10
3.4300441238733153
 20
87.3004525847626
 30
0.0
  0
POINT
  5
4C9
330
17
100
AcDbEntity
  8
0
100
AcDbPoint
 10
3.8062460616419185
 20
87.17736741548597
 30
0.0
  0
POINT
  5
4CA
330
17
100
AcDbEntity
  8
0
100
AcDbPoint
 10
4.181436875458126
 20
87.05261345035518
 30
0.0
  0
POINT
  5
4CB
330
17
100
AcDbEntity
  8
0
100
AcDbPoint
 10
4.555610525864302
 20
86.92622714006994
 30
0.0
  0
POINT
  5
4CC
330
17
100
AcDbEntity
  8
0
100
AcDbPoint
 10
4.928759832896419
 20
86.79821499058161
 30
0.0
  0
POINT
  5
4CD
330
17
100
AcDbEntity
  8
0
100
AcDbPoint
 10
5.300877654022973
 20
86.66858353976187
 30
0.0
  0
POINT
  5
4CE
330
17
100
AcDbEntity
  8
0
100
AcDbPoint
 10
5.671956884288291
 20
86.53733935719988
 30
0.0
  0
POINT
  5
4CF
330
17
100
AcDbEntity
  8
0
100
AcDbPoint
 10
6.0419925491490325
 20
86.40451897092031
 30
0.0
  0
POINT
  5
4D0
330
17
100
AcDbEntity
  8
0
100
AcDbPoint
 10
6.41097726982361
 20
86.27011901258629
 30
0.0
  0
POINT
  5
4D1
330
17
100
AcDbEntity
  8
0
100
AcDbPoint
 10
6.778905100433674
 20
86.13415609320911
 30
0.0
  0
POINT
  5
4D2
330
17
100
AcDbEntity
  8
0
100
AcDbPoint
 10
7.145770307014807
 20
85.99664683834936
 30
0.0
  0
POINT
  5
4D3
330
17
100
AcDbEntity
  8
0
100
AcDbPoint
 10
7.511566495922867
 20
85.857597924068
 30
0.0
  0
POINT
  5
4D4
330
17
100
AcDbEntity
  8
0
100
AcDbPoint
 10
7.8762891415349605
 20
85.7170359684616
 30
0.0
  0
POINT
  5
4D5
330
17
100
AcDbEntity
  8
0
100
AcDbPoint
 10
8.239931228478024
 20
85.57495772077513
 30
0.0
  0
POINT
  5
4D6
330
17
100
AcDbEntity
  8
0
100
AcDbPoint
 10
8.602487609422383
 20
85.43137986998532
 30
0.0
  0
POINT
  5
4D7
330
17
100
AcDbEntity
  8
0
100
AcDbPoint
 10
8.963954394111868
 20
85.28632905661014
 30
0.0
  0
POINT
  5
4D8
330
17
100
AcDbEntity
  8
0
100
AcDbPoint
 10
9.324324811502175
 20
85.13980208507948
 30
0.0
  0
POINT
  5
4D9
330
17
100
AcDbEntity
  8
0
100
AcDbPoint
 10
9.683594219138044
 20
84.9918156710114
 30
0.0
  0
POINT
  5
4DA
330
17
100
AcDbEntity
  8
0
100
AcDbPoint
 10
10.041759361477418
 20
84.84239646187676
 30
0.0
  0
POINT
  5
4DB
330
17
100
AcDbEntity
  8
0
100
AcDbPoint
 10
10.398813711563315
 20
84.69154130694402
 30
0.0
  0
POINT
  5
4DC
330
17
100
AcDbEntity
  8
0
100
AcDbPoint
 10
10.754754393116315
 20
84.5392768547741
 30
0.0
  0
POINT
  5
4DD
330
17
100
AcDbEntity
  8
0
100
AcDbPoint
 10
11.109574998331361
 20
84.38559998420376
 30
0.0
  0
POINT
  5
4DE
330
17
100
AcDbEntity
  8
0
100
AcDbPoint
 10
11.463273029778366
 20
84.2305373391667
 30
0.0
  0
POINT
  5
4DF
330
17
100
AcDbEntity
  8
0
100
AcDbPoint
 10
11.815843590363938
 20
84.07409572730268
 30
0.0
  0
POINT
  5
4E0
330
17
100
AcDbEntity
  8
0
100
AcDbPoint
 10
12.167283255669473
 20
83.91629186719587
 30
0.0
  0
POINT
  5
4E1
330
17
100
AcDbEntity
  8
0
100
AcDbPoint
 10
12.517587333627235
 20
83.75713257608281
 30
0.0
  0
POINT
  5
4E2
330
17
100
AcDbEntity
  8
0
100
AcDbPoint
 10
12.86675269103091
 20
83.59663456771898
 30
0.0
  0
POINT
  5
4E3
330
17
100
AcDbEntity
  8
0
100
AcDbPoint
 10
13.214777969103777
 20
83.43482441852315
 30
0.0
  0
POINT
  5
4E4
330
17
100
AcDbEntity
  8
0
100
AcDbPoint
 10
13.561655761490437
 20
83.27168918108322
 30
0.0
  0
POINT
  5
4E5
330
17
100
AcDbEntity
  8
0
100
AcDbPoint
 10
13.907384956449514
 20
83.10725542520352
 30
0.0
  0
POINT
  5
4E6
330
17
100
AcDbEntity
  8
0
100
AcDbPoint
 10
14.251963130372786
 20
82.94153981775654
 30
0.0
  0
POINT
  5
4E7
330
17
100
AcDbEntity
  8
0
100
AcDbPoint
 10
14.595386332208461
 20
82.77454915615054
 30
0.0
  0
POINT
  5
4E8
330
17
100
AcDbEntity
  8
0
100
AcDbPoint
 10
14.937650647782572
 20
82.60629024502252
 30
0.0
  0
POINT
  5
4E9
330
17
100
AcDbEntity
  8
0
100
AcDbPoint
 10
15.278755844484783
 20
82.43678956114631
 30
0.0
  0
POINT
  5
4EA
330
17
100
AcDbEntity
  8
0
100
AcDbPoint
 10
15.618696473891937
 20
82.26604405027226
 30
0.0
  0
POINT
  5
4EB
330
17
100
AcDbEntity
  8
0
100
AcDbPoint
 10
15.957474584917579
 20
82.09408996058184
 30
0.0
  0
POINT
  5
4EC
330
17
100
AcDbEntity
  8
0
100
AcDbPoint
 10
16.295083022267587
 20
81.92091440531536
 30
0.0
  0
POINT
  5
4ED
330
17
100
AcDbEntity
  8
0
100
AcDbPoint
 10
16.631520305321292
 20
81.74653396610331
 30
0.0
  0
POINT
  5
4EE
330
17
100
AcDbEntity
  8
0
100
AcDbPoint
 10
16.966787197065994
 20
81.57097498372246
 30
0.0
  0
POINT
  5
4EF
330
17
100
AcDbEntity
  8
0
100
AcDbPoint
 10
17.3008806798095
 20
81.3942441667259
 30
0.0
  0
POINT
  5
4F0
330
17
100
AcDbEntity
  8
0
100
AcDbPoint
 10
17.633797771288158
 20
81.21634822380844
 30
0.0
  0
POINT
  5
4F1
330
17
100
AcDbEntity
  8
0
100
AcDbPoint
 10
17.96553768899015
 20
81.037303626589
 30
0.0
  0
POINT
  5
4F2
330
17
100
AcDbEntity
  8
0
100
AcDbPoint
 10
18.296097649024908
 20
80.85711705490273
 30
0.0
  0
POINT
  5
4F3
330
17
100
AcDbEntity
  8
0
100
AcDbPoint
 10
18.625477151968482
 20
80.67580493078206
 30
0.0
  0
POINT
  5
4F4
330
17
100
AcDbEntity
  8
0
100
AcDbPoint
 10
18.953675903243056
 20
80.49338363494992
 30
0.0
  0
POINT
  5
4F5
330
17
100
AcDbEntity
  8
0
100
AcDbPoint
 10
19.280691478143282
 20
80.30985978109446
 30
0.0
  0
POINT
  5
4F6
330
17
100
AcDbEntity
  8
0
100
AcDbPoint
 10
19.606521486131122
 20
80.12523997866077
 30
0.0
  0
POINT
  5
4F7
330
17
100
AcDbEntity
  8
0
100
AcDbPoint
 10
19.931168409171775
 20
79.93955023859799
 30
0.0
  0
POINT
  5
4F8
330
17
100
AcDbEntity
  8
0
100
AcDbPoint
 10
20.25462771710642
 20
79.75278740516549
 30
0.0
  0
POINT
  5
4F9
330
17
100
AcDbEntity
  8
0
100
AcDbPoint
 10
20.576899751604852
 20
79.5649677219491
 30
0.0
  0
POINT
  5
4FA
330
17
100
AcDbEntity
  8
0
100
AcDbPoint
 10
20.897985056677424
 20
79.37610738245475
 30
0.0
  0
POINT
  5
4FB
330
17
100
AcDbEntity
  8
0
100
AcDbPoint
 10
21.21788178988662
 20
79.1862128688473
 30
0.0
  0
POINT
  5
4FC
330
17
100
AcDbEntity
  8
0
100
AcDbPoint
 10
21.5365907717487
 20
78.99530030262451
 30
0.0
  0
POINT
  5
4FD
330
17
100
AcDbEntity
  8
0
100
AcDbPoint
 10
21.854110351193537
 20
78.80337611400896
 30
0.0
  0
POINT
  5
4FE
330
17
100
AcDbEntity
  8
0
100
AcDbPoint
 10
22.17044162362969
 20
78.61045634782455
 30
0.0
  0
POINT
  5
4FF
330
17
100
AcDbEntity
  8
0
100
AcDbPoint
 10
22.485583127903034
 20
78.4165473784345
 30
0.0
  0
POINT
  5
500
330
17
100
AcDbEntity
  8
0
100
AcDbPoint
 10
22.799533434338407
 20
78.22165556885182
 30
0.0
  0
POINT
  5
501
330
17
100
AcDbEntity
  8
0
100
AcDbPoint
 10
23.112296824897005
 20
78.0258064469875
 30
0.0
  0
POINT
  5
502
330
17
100
AcDbEntity
  8
0
100
AcDbPoint
 10
23.423869301305754
 20
77.8289967020997
 30
0.0
  0
POINT
  5
503
330
17
100
AcDbEntity
  8
0
100
AcDbPoint
 10
23.734255499796067
 20
77.63125174927941
 30
0.0
  0
POINT
  5
504
330
17
100
AcDbEntity
  8
0
100
AcDbPoint
 10
24.043451524479085
 20
77.43256823721478
 30
0.0
  0
POINT
  5
505
330
17
100
AcDbEntity
  8
0
100
AcDbPoint
 10
24.351459356713537
 20
77.23296192571166
 30
0.0
  0
POINT
  5
506
330
17
100
AcDbEntity
  8
0
100
AcDbPoint
 10
24.65827812542278
 20
77.03243898338737
 30
0.0
  0
POINT
  5
507
330
17
100
AcDbEntity
  8
0
100
AcDbPoint
 10
24.96391007905067
 20
76.8310150738175
 30
0.0
  0
POINT
  5
508
330
17
100
AcDbEntity
  8
0
100
AcDbPoint
 10
25.268357661086583
 20
76.62870579054501
 30
0.0
  0
POINT
  5
509
330
17
100
AcDbEntity
  8
0
100
AcDbPoint
 10
25.57161716319857
 20
76.42550768866967
 30
0.0
  0
POINT
  5
50A
330
17
100
AcDbEntity
  8
0
100
AcDbPoint
 10
25.873694382935142
 20
76.22144576877672
 30
0.0
  0
POINT
  5
50B
330
17
100
AcDbEntity
  8
0
100
AcDbPoint
 10
26.174585709356442
 20
76.01651653577106
 30
0.0
  0
POINT
  5
50C
330
17
100
AcDbEntity
  8
0
100
AcDbPoint
 10
26.474293987766362
 20
75.81073541403893
 30
0.0
  0
POINT
  5
50D
330
17
100
AcDbEntity
  8
0
100
AcDbPoint
 10
26.77282225562081
 20
75.60411775154734
 30
0.0
  0
POINT
  5
50E
330
17
100
AcDbEntity
  8
0
100
AcDbPoint
 10
27.070170362528536
 20
75.39666940617258
 30
0.0
  0
POINT
  5
50F
330
17
100
AcDbEntity
  8
0
100
AcDbPoint
 10
27.36633818443426
 20
75.18839621489192
 30
0.0
  0
POINT
  5
510
330
17
100
AcDbEntity
  8
0
100
AcDbPoint
 10
27.66132908457613
 20
74.979313375589
 30
0.0
  0
POINT
  5
511
330
17
100
AcDbEntity
  8
0
100
AcDbPoint
 10
27.955139611567823
 20
74.76941727082438
 30
0.0
  0
POINT
  5
512
330
17
100
AcDbEntity
  8
0
100
AcDbPoint
 10
28.247780347614608
 20
74.55874172775798
 30
0.0
  0
POINT
  5
513
330
17
100
AcDbEntity
  8
0
100
AcDbPoint
 10
28.539244471233694
 20
74.34727368663395
 30
0.0
  0
POINT
  5
514
330
17
100
AcDbEntity
  8
0
100
AcDbPoint
 10
28.829535732513914
 20
74.13502814911588
 30
0.0
  0
POINT
  5
515
330
17
100
AcDbEntity
  8
0
100
AcDbPoint
 10
29.118658068699315
 20
73.922020030672
 30
0.0
  0
POINT
  5
516
330
17
100
AcDbEntity
  8
0
100
AcDbPoint
 10
29.406611897694944
 20
73.708254870613
 30
0.0
  0
POINT
  5
517
330
17
100
AcDbEntity
  8
0
100
AcDbPoint
 10
29.693397660738693
 20
73.4937381833564
 30
0.0
  0
POINT
  5
518
330
17
100
AcDbEntity
  8
0
100
AcDbPoint
 10
29.97901960864869
 20
73.27848471374567
 30
0.0
  0
POINT
  5
519
330
17
100
AcDbEntity
  8
0
100
AcDbPoint
 10
30.26347834965708
 20
73.06249987632667
 30
0.0
  0
POINT
  5
51A
330
17
100
AcDbEntity
  8
0
100
AcDbPoint
 10
30.546774514175322
 20
72.84578905944412
 30
0.0
  0
POINT
  5
51B
330
17
100
AcDbEntity
  8
0
100
AcDbPoint
 10
30.828912661858258
 20
72.62836683021254
 30
0.0
  0
POINT
  5
51C
330
17
100
AcDbEntity
  8
0
100
AcDbPoint
 10
31.10989358711671
 20
72.41023847293403
 30
0.0
  0
POINT
  5
51D
330
17
100
AcDbEntity
  8
0
100
AcDbPoint
 10
31.389722092839133
 20
72.19141841503343
 30
0.0
  0
POINT
  5
51E
330
17
100
AcDbEntity
  8
0
100
AcDbPoint
 10
31.668395107616885
 20
71.9719026802152
 30
0.0
  0
POINT
  5
51F
330
17
100
AcDbEntity
  8
0
100
AcDbPoint
 10
31.945921622558803
 20
71.75171474052887
 30
0.0
  0
POINT
  5
520
330
17
100
AcDbEntity
  8
0
100
AcDbPoint
 10
32.22229453881469
 20
71.5308414271912
 30
0.0
  0
POINT
  5
521
330
17
100
AcDbEntity
  8
0
100
AcDbPoint
 10
32.497527193269576
 20
71.30931518371989
 30
0.0
  0
POINT
  5
522
330
17
100
AcDbEntity
  8
0
100
AcDbPoint
 10
32.771612485501784
 20
71.08712280050236
 30
0.0
  0
POINT
  5
523
330
17
100
AcDbEntity
  8
0
100
AcDbPoint
 10
33.04455992114884
 20
70.8642874360965
 30
0.0
  0
POINT
  5
524
330
17
100
AcDbEntity
  8
0
100
AcDbPoint
 10
33.31636654352202
 20
70.64080493824575
 30
0.0
  0
POINT
  5
525
330
17
100
AcDbEntity
  8
0
100
AcDbPoint
 10
33.58703786591987
 20
70.41668925012638
 30
0.0
  0
POINT
  5
526
330
17
100
AcDbEntity
  8
0
100
AcDbPoint
 10
33.85657523222809
 20
70.19194520237048
 30
0.0
  0
POINT
  5
527
330
17
100
AcDbEntity
  8
0
100
AcDbPoint
 10
34.124984386949905
 20
69.96658658239677
 30
0.0
  0
POINT
  5
528
330
17
100
AcDbEntity
  8
0
100
AcDbPoint
 10
34.392262402143906
 20
69.74060913212386
 30
0.0
  0
POINT
  5
529
330
17
100
AcDbEntity
  8
0
100
AcDbPoint
 10
34.6584151333044
 20
69.5140265374373
 30
0.0
  0
POINT
  5
52A
330
17
100
AcDbEntity
  8
0
100
AcDbPoint
 10
34.92344410703447
 20
69.28684344495166
 30
0.0
  0
POINT
  5
52B
330
17
100
AcDbEntity
  8
0
100
AcDbPoint
 10
35.18735540511813
 20
69.05907337902822
 30
0.0
  0
POINT
  5
52C
330
17
100
AcDbEntity
  8
0
100
AcDbPoint
 10
35.45015070092705
 20
68.83072086193535
 30
0.0
  0
POINT
  5
52D
330
17
100
AcDbEntity
  8
0
100
AcDbPoint
 10
35.711831682015074
 20
68.6017903825536
 30
0.0
  0
POINT
  5
52E
330
17
100
AcDbEntity
  8
0
100
AcDbPoint
 10
35.97240004982546
 20
68.37228639635592
 30
0.0
  0
POINT
  5
52F
330
17
100
AcDbEntity
  8
0
100
AcDbPoint
 10
36.23185751939825
 20
68.14221332538975
 30
0.0
  0
POINT
  5
530
330
17
100
AcDbEntity
  8
0
100
AcDbPoint
 10
36.4902105522751
 20
67.91158436716842
 30
0.0
  0
POINT
  5
531
330
17
100
AcDbEntity
  8
0
100
AcDbPoint
 10
36.74746100498647
 20
67.6804038146338
 30
0.0
  0
POINT
  5
532
330
17
100
AcDbEntity
  8
0
100
AcDbPoint
 10
37.00361074623853
 20
67.44867592625714
 30
0.0
  0
POINT
  5
533
330
17
100
AcDbEntity
  8
0
100
AcDbPoint
 10
37.25866650471073
 20
67.21641367222999
 30
0.0
  0
POINT
  5
534
330
17
100
AcDbEntity
  8
0
100
AcDbPoint
 10
37.51262540070081
 20
66.98361245339562
 30
0.0
  0
POINT
  5
535
330
17
100
AcDbEntity
  8
0
100
AcDbPoint
 10
37.76549426160684
 20
66.75028512784527
 30
0.0
  0
POINT
  5
536
330
17
100
AcDbEntity
  8
0
100
AcDbPoint
 10
38.017275115358466
 20
66.51643575092734
 30
0.0
  0
POINT
  5
537
330
17
100
AcDbEntity
  8
0
100
AcDbPoint
 10
38.267974999999986
 20
66.28207700277561
 30
0.0
  0
POINT
  5
538
330
17
100
AcDbEntity
  8
0
100
AcDbPoint
 10
38.517586001125274
 20
66.04719552540304
 30
0.0
  0
POINT
  5
539
330
17
100
AcDbEntity
  8
0
100
AcDbPoint
 10
38.76612021364177
 20
65.81181256606123
 30
0.0
  0
POINT
  5
53A
330
17
100
AcDbEntity
  8
0
100
AcDbPoint
 10
39.013584929682715
 20
65.57594056566808
 30
0.0
  0
POINT
  5
53B
330
17
100
AcDbEntity
  8
0
100
AcDbPoint
 10
39.25997214835271
 20
65.33956612415614
 30
0.0
  0
POINT
  5
53C
330
17
100
AcDbEntity
  8
0
100
AcDbPoint
 10
39.505289140554815
 20
65.10270163188899
 30
0.0
  0
POINT
  5
53D
330
17
100
AcDbEntity
  8
0
100
AcDbPoint
 10
39.74954333448841
 20
64.86535935298384
 30
0.0
  0
POINT
  5
53E
330
17
100
AcDbEntity
  8
0
100
AcDbPoint
 10
39.99273179007341
 20
64.62753441666526
 30
0.0
  0
POINT
  5
53F
330
17
100
AcDbEntity
  8
0
100
AcDbPoint
 10
40.23485672468339
 20
64.38923048753028
 30
0.0
  0
POINT
  5
540
330
17
100
AcDbEntity
  8
0
100
AcDbPoint
 10
40.47593103474702
 20
64.15046810846202
 30
0.0
  0
POINT
  5
541
330
17
100
AcDbEntity
  8
0
100
AcDbPoint
 10
40.715951798968774
 20
63.911242297452254
 30
0.0
  0
POINT
  5
542
330
17
100
AcDbEntity
  8
0
100
AcDbPoint
 10
40.95492136372524
 20
63.67155653885009
 30
0.0
  0
POINT
  5
543
330
17
100
AcDbEntity
  8
0
100
AcDbPoint
 10
41.192842080611705
 20
63.431414279880954
 30
0.0
  0
POINT
  5
544
330
17
100
AcDbEntity
  8
0
100
AcDbPoint
 10
41.42971630612928
 20
63.19081893068997
 30
0.0
  0
POINT
  5
545
330
17
100
AcDbEntity
  8
0
100
AcDbPoint
 10
41.6655574401117
 20
62.94979054210388
 30
0.0
  0
POINT
  5
546
330
17
100
AcDbEntity
  8
0
100
AcDbPoint
 10
41.900356954523836
 20
62.70831567588134
 30
0.0
  0
POINT
  5
547
330
17
100
AcDbEntity
  8
0
100
AcDbPoint
 10
42.13412281000417
 20
62.46640592063454
 30
0.0
  0
POINT
  5
548
330
17
100
AcDbEntity
  8
0
100
AcDbPoint
 10
42.36685748727578
 20
62.22406446428394
 30
0.0
  0
POINT
  5
549
330
17
100
AcDbEntity
  8
0
100
AcDbPoint
 10
42.59856346976131
 20
61.98129445697886
 30
0.0
  0
POINT
  5
54A
330
17
100
AcDbEntity
  8
0
100
AcDbPoint
 10
42.82924324326678
 20
61.738099011158305
 30
0.0
  0
POINT
  5
54B
330
17
100
AcDbEntity
  8
0
100
AcDbPoint
 10
43.05890503143015
 20
61.494489393134884
 30
0.0
  0
POINT
  5
54C
330
17
100
AcDbEntity
  8
0
100
AcDbPoint
 10
43.287545659487954
 20
61.250460398389215
 30
0.0
  0
POINT
  5
54D
330
17
100
AcDbEntity
  8
0
100
AcDbPoint
 10
43.51517342520421
 20
61.006023167307006
 30
0.0
  0
POINT
  5
54E
330
17
100
AcDbEntity
  8
0
100
AcDbPoint
 10
43.74179092683643
 20
60.76118058543078
 30
0.0
  0
POINT
  5
54F
330
17
100
AcDbEntity
  8
0
100
AcDbPoint
 10
43.967394884931146
 20
60.515927409835925
 30
0.0
  0
POINT
  5
550
330
17
100
AcDbEntity
  8
0
100
AcDbPoint
 10
44.19199961817102
 20
60.27028265561372
 30
0.0
  0
POINT
  5
551
330
17
100
AcDbEntity
  8
0
100
AcDbPoint
 10
44.41559593355866
 20
60.0242329393458
 30
0.0
  0
POINT
  5
552
330
17
100
AcDbEntity
  8
0
100
AcDbPoint
 10
44.63819828944623
 20
59.77779709703662
 30
0.0
  0
POINT
  5
553
330
17
100
AcDbEntity
  8
0
100
AcDbPoint
 10
44.859803368523366
 20
59.530969759108736
 30
0.0
  0
POINT
  5
554
330
17
100
AcDbEntity
  8
0
100
AcDbPoint
 10
45.08041376513195
 20
59.28375358255076
 30
0.0
  0
POINT
  5
555
330
17
100
AcDbEntity
  8
0
100
AcDbPoint
 10
45.30003815946901
 20
59.03615912009479
 30
0.0
  0
POINT
  5
556
330
17
100
AcDbEntity
  8
0
100
AcDbPoint
 10
45.51867312354694
 20
58.78818096643309
 30
0.0
  0
POINT
  5
557
330
17
100
AcDbEntity
  8
0
100
AcDbPoint
 10
45.73632740175478
 20
58.539829545119055
 30
0.0
  0
POINT
  5
558
330
17
100
AcDbEntity
  8
0
100
AcDbPoint
 10
45.95299749120108
 20
58.29109942810967
 30
0.0
  0
POINT
  5
559
330
17
100
AcDbEntity
  8
0
100
AcDbPoint
 10
46.168692198740835
 20
58.042000909572586
 30
0.0
  0
POINT
  5
55A
330
17
100
AcDbEntity
  8
0
100
AcDbPoint
 10
46.38341420502335
 20
57.79253633858042
 30
0.0
  0
POINT
  5
55B
330
17
100
AcDbEntity
  8
0
100
AcDbPoint
 10
46.59716618634945
 20
57.542708026114205
 30
0.0
  0
POINT
  5
55C
330
17
100
AcDbEntity
  8
0
100
AcDbPoint
 10
46.80995081435679
 20
57.29251824517402
 30
0.0
  0
POINT
  5
55D
330
17
100
AcDbEntity
  8
0
100
AcDbPoint
 10
47.02177075570578
 20
57.041969230891326
 30
0.0
  0
POINT
  5
55E
330
17
100
AcDbEntity
  8
0
100
AcDbPoint
 10
47.23262867176734
 20
56.79106318064349
 30
0.0
  0
POINT
  5
55F
330
17
100
AcDbEntity
  8
0
100
AcDbPoint
 10
47.44253364618708
 20
56.53980991461508
 30
0.0
  0
POINT
  5
560
330
17
100
AcDbEntity
  8
0
100
AcDbPoint
 10
47.65147550643389
 20
56.28819620601935
 30
0.0
  0
POINT
  5
561
330
17
100
AcDbEntity
  8
0
100
AcDbPoint
 10
47.8594697850135
 20
56.03623943215926
 30
0.0
  0
POINT
  5
562
330
17
100
AcDbEntity
  8
0
100
AcDbPoint
 10
48.06651269078467
 20
55.78393397970634
 30
0.0
  0
POINT
  5
563
330
17
100
AcDbEntity
  8
0
100
AcDbPoint
 10
48.27260685364196
 20
55.53128185863007
 30
0.0
  0
POINT
  5
564
330
17
100
AcDbEntity
  8
0
100
AcDbPoint
 10
48.477761489791924
 20
55.27829256027856
 30
0.0
  0
POINT
  5
565
330
17
100
AcDbEntity
  8
0
100
AcDbPoint
 10
48.68197268655765
 20
55.024960444632335
 30
0.0
  0
POINT
  5
566
330
17
100
AcDbEntity
  8
0
100
AcDbPoint
 10
48.88524305110173
 20
54.771287410565854
 30
0.0
  0
POINT
  5
567
330
17
100
AcDbEntity
  8
0
100
AcDbPoint
 10
49.087588565137416
 20
54.517290183228
 30
0.0
  0
POINT
  5
568
330
17
100
AcDbEntity
  8
0
100
AcDbPoint
 10
49.288991842570965
 20
54.26294820623897
 30
0.0
  0
POINT
  5
569
330
17
100
AcDbEntity
  8
0
100
AcDbPoint
 10
49.48947563571325
 20
54.00828547471439
 30
0.0
  0
POINT
  5
56A
330
17
100
AcDbEntity
  8
0
100
AcDbPoint
 10
49.68902913390598
 20
53.75328887770349
 30
0.0
  0
POINT
  5
56B
330
17
100
AcDbEntity
  8
0
100
AcDbPoint
 10
49.88765489983451
 20
53.49796013109208
 30
0.0
  0
POINT
  5
56C
330
17
100
AcDbEntity
  8
0
100
AcDbPoint
 10
50.08536233844827
 20
53.242308198559996
 30
0.0
  0
POINT
  5
56D
330
17
100
AcDbEntity
  8
0
100
AcDbPoint
 10
50.282154088152566
 20
52.98633463441004
 30
0.0
  0
POINT
  5
56E
330
17
100
AcDbEntity
  8
0
100
AcDbPoint
 10
50.47803277641042
 20
52.730040956494946
 30
0.0
  0
POINT
  5
56F
330
17
100
AcDbEntity
  8
0
100
AcDbPoint
 10
50.67300101944285
 20
52.47342864637344
 30
0.0
  0
POINT
  5
570
330
17
100
AcDbEntity
  8
0
100
AcDbPoint
 10
50.86705444402612
 20
52.21649198644889
 30
0.0
  0
POINT
  5
571
330
17
100
AcDbEntity
  8
0
100
AcDbPoint
 10
51.06020255853297
 20
51.95923961021737
 30
0.0
  0
POINT
  5
572
330
17
100
AcDbEntity
  8
0
100
AcDbPoint
 10
51.2524479440756
 20
51.701672891719085
 30
0.0
  0
POINT
  5
573
330
17
100
AcDbEntity
  8
0
100
AcDbPoint
 10
51.44379316934213
 20
51.44379316934209
 30
0.0
  0
POINT
  5
574
330
17
100
AcDbEntity
  8
0
100
AcDbPoint
 10
51.634233688449896
 20
51.18559470584127
 30
0.0
  0
POINT
  5
575
330
17
100
AcDbEntity
  8
0
100
AcDbPoint
 10
51.823786217418494
 20
50.92709288014979
 30
0.0
  0
POINT
  5
576
330
17
100
AcDbEntity
  8
0
100
AcDbPoint
 10
52.01243905182555
 20
50.66827487573097
 30
0.0
  0
POINT
  5
577
330
17
100
AcDbEntity
  8
0
100
AcDbPoint
 10
52.20020181001085
 20
50.409148930591364
 30
0.0
  0
POINT
  5
578
330
17
100
AcDbEntity
  8
0
100
AcDbPoint
 10
52.38707699458821
 20
50.14971620778613
 30
0.0
  0
POINT
  5
579
330
17
100
AcDbEntity
  8
0
100
AcDbPoint
 10
52.57306709401325
 20
49.88997783574253
 30
0.0
  0
POINT
  5
57A
330
17
100
AcDbEntity
  8
0
100
AcDbPoint
 10
52.7581745822986
 20
49.629934908438095
 30
0.0
  0
POINT
  5
57B
330
17
100
AcDbEntity
  8
0
100
AcDbPoint
 10
52.942394605194075
 20
49.369581665596634
 30
0.0
  0
POINT
  5
57C
330
17
100
AcDbEntity
  8
0
100
AcDbPoint
 10
53.12574420436489
 20
49.10893280478094
 30
0.0
  0
POINT
  5
57D
330
17
100
AcDbEntity
  8
0
100
AcDbPoint
 10
53.30821115231975
 20
48.84797570997382
 30
0.0
  0
POINT
  5
57E
330
17
100
AcDbEntity
  8
0
100
AcDbPoint
 10
53.48980517644151
 20
48.58671815954162
 30
0.0
  0
POINT
  5
57F
330
17
100
AcDbEntity
  8
0
100
AcDbPoint
 10
53.67052867473428
 20
48.32516107833397
 30
0.0
  0
POINT
  5
580
330
17
100
AcDbEntity
  8
0
100
AcDbPoint
 10
53.85038402908473
 20
48.0633053578569
 30
0.0
  0
POINT
  5
581
330
17
100
AcDbEntity
  8
0
100
AcDbPoint
 10
54.02937360498752
 20
47.801151856464486
 30
0.0
  0
POINT
  5
582
330
17
100
AcDbEntity
  8
0
100
AcDbPoint
 10
54.20749223287469
 20
47.5386948060938
 30
0.0
  0
POINT
  5
583
330
17
100
AcDbEntity
  8
0
100
AcDbPoint
 10
54.38474970564308
 20
47.275941658570424
 30
0.0
  0
POINT
  5
584
330
17
100
AcDbEntity
  8
0
100
AcDbPoint
 10
54.56115591406193
 20
47.01289970193207
 30
0.0
  0
POINT
  5
585
330
17
100
AcDbEntity
  8
0
100
AcDbPoint
 10
54.73669803288914
 20
46.74955657593674
 30
0.0
  0
POINT
  5
586
330
17
100
AcDbEntity
  8
0
100
AcDbPoint
 10
54.91137825680458
 20
46.48591307583651
 30
0.0
  0
POINT
  5
587
330
17
100
AcDbEntity
  8
0
100
AcDbPoint
 10
55.085214084243084
 20
46.22198282140985
 30
0.0
  0
POINT
  5
588
330
17
100
AcDbEntity
  8
0
100
AcDbPoint
 10
55.25819246636536
 20
45.95775355595856
 30
0.0
  0
POINT
  5
589
330
17
100
AcDbEntity
  8
0
100
AcDbPoint
 10
55.4303232610444
 20
45.69323234170483
 30
0.0
  0
POINT
  5
58A
330
17
100
AcDbEntity
  8
0
100
AcDbPoint
 10
55.60160867504129
 20
45.42841974828063
 30
0.0
  0
POINT
  5
58B
330
17
100
AcDbEntity
  8
0
100
AcDbPoint
 10
55.772043124611415
 20
45.1633100209737
 30
0.0
  0
POINT
  5
58C
330
17
100
AcDbEntity
  8
0
100
AcDbPoint
 10
55.94163649485608
 20
44.89791002848892
 30
0.0
  0
POINT
  5
58D
330
17
100
AcDbEntity
  8
0
100
AcDbPoint
 10
56.11038310899264
 20
44.63221402288456
 30
0.0
  0
POINT
  5
58E
330
17
100
AcDbEntity
  8
0
100
AcDbPoint
 10
56.278300721585076
 20
44.366234935362
 30
0.0
  0
POINT
  5
58F
330
17
100
AcDbEntity
  8
0
100
AcDbPoint
 10
56.44536788300021
 20
44.099954609871965
 30
0.0
  0
POINT
  5
590
330
17
100
AcDbEntity
  8
0
100
AcDbPoint
 10
56.61161024230976
 20
43.83339200593206
 30
0.0
  0
POINT
  5
591
330
17
100
AcDbEntity
  8
0
100
AcDbPoint
 10
56.77701408181492
 20
43.56653520183802
 30
0.0
  0
POINT
  5
592
330
17
100
AcDbEntity
  8
0
100
AcDbPoint
 10
56.94158137025284
 20
43.29938462883478
 30
0.0
  0
POINT
  5
593
330
17
100
AcDbEntity
  8
0
100
AcDbPoint
 10
57.10532204257272
 20
43.03194670760499
 30
0.0
  0
POINT
  5
594
330
17
100
AcDbEntity
  8
0
100
AcDbPoint
 10
57.26823009299762
 20
42.76421572422885
 30
0.0
  0
POINT
  5
595
330
17
100
AcDbEntity
  8
0
100
AcDbPoint
 10
57.43031546723175
 20
42.496197972357976
 30
0.0
  0
POINT
  5
596
330
17
100
AcDbEntity
  8
0
100
AcDbPoint
 10
57.59157206474072
 20
42.2278877508771
 30
0.0
  0
POINT
  5
597
330
17
100
AcDbEntity
  8
0
100
AcDbPoint
 10
57.752009840423334
 20
41.959291226851605
 30
0.0
  0
POINT
  5
598
330
17
100
AcDbEntity
  8
0
100
AcDbPoint
 10
57.91161448291449
 20
41.6903968708369
 30
0.0
  0
POINT
  5
599
330
17
100
AcDbEntity
  8
0
100
AcDbPoint
 10
58.07040401966597
 20
41.42121663720614
 30
0.0
  0
POINT
  5
59A
330
17
100
AcDbEntity
  8
0
100
AcDbPoint
 10
58.22838032652684
 20
41.151750626332316
 30
0.0
  0
POINT
  5
59B
330
17
100
AcDbEntity
  8
0
100
AcDbPoint
 10
58.385528873363135
 20
40.881987439489514
 30
0.0
  0
POINT
  5
59C
330
17
100
AcDbEntity
  8
0
100
AcDbPoint
 10
58.54186777315515
 20
40.611938736864296
 30
0.0
  0
POINT
  5
59D
330
17
100
AcDbEntity
  8
0
100
AcDbPoint
 10
58.697390591914846
 20
40.34159887342451
 30
0.0
  0
POINT
  5
59E
330
17
100
AcDbEntity
  8
0
100
AcDbPoint
 10
58.85209903938699
 20
40.070967949384304
 30
0.0
  0
POINT
  5
59F
330
17
100
AcDbEntity
  8
0
100
AcDbPoint
 10
59.00599480241407
 20
39.80004603898825
 30
0.0
  0
POINT
  5
5A0
330
17
100
AcDbEntity
  8
0
100
AcDbPoint
 10
59.15907954471835
 20
39.528833190749324
 30
0.0
  0
POINT
  5
5A1
330
17
100
AcDbEntity
  8
0
100
AcDbPoint
 10
59.31135490668578
 20
39.25732942768852
 30
0.0
  0
POINT
  5
5A2
330
17
100
AcDbEntity
  8
0
100
AcDbPoint
 10
59.46282250515183
 20
38.985534747575414
 30
0.0
  0
POINT
  5
5A3
330
17
100
AcDbEntity
  8
0
100
AcDbPoint
 10
59.61348393318892
 20
38.7134491231707
 30
0.0
  0
POINT
  5
5A4
330
17
100
AcDbEntity
  8
0
100
AcDbPoint
 10
59.763340759896
 20
38.44107250246997
 30
0.0
  0
POINT
  5
5A5
330
17
100
AcDbEntity
  8
0
100
AcDbPoint
 10
59.912394530189495
 20
38.168404808949234
 30
0.0
  0
POINT
  5
5A6
330
17
100
AcDbEntity
  8
0
100
AcDbPoint
 10
60.06064676459663
 20
37.89544594181135
 30
0.0
  0
POINT
  5
5A7
330
17
100
AcDbEntity
  8
0
100
AcDbPoint
 10
60.20809047856932
 20
37.62219047704172
 30
0.0
  0
POINT
  5
5A8
330
17
100
AcDbEntity
  8
0
100
AcDbPoint
 10
60.354735577641065
 20
37.34864363934286
 30
0.0
  0
POINT
  5
5A9
330
17
100
AcDbEntity
  8
0
100
AcDbPoint
 10
60.50058350843388
 20
37.074805256894045
 30
0.0
  0
POINT
  5
5AA
330
17
100
AcDbEntity
  8
0
100
AcDbPoint
 10
60.64562714325432
 20
36.80066994686748
 30
0.0
  0
POINT
  5
5AB
330
17
100
AcDbEntity
  8
0
100
AcDbPoint
 10
60.78987638214346
 20
36.52624275358357
 30
0.0
  0
POINT
  5
5AC
330
17
100
AcDbEntity
  8
0
100
AcDbPoint
 10
60.93848044043687
 20
36.254586082040625
 30
0.0
  0
POINT
  5
5AD
330
17
100
AcDbEntity
  8
0
100
AcDbPoint
 10
61.07597989748523
 20
35.97650158161546
 30
0.0
  0
POINT
  5
5AE
330
17
100
AcDbEntity
  8
0
100
AcDbPoint
 10
61.21784538836242
 20
35.70119224279427
 30
0.0
  0
POINT
  5
5AF
330
17
100
AcDbEntity
  8
0
100
AcDbPoint
 10
61.358913107849894
 20
35.425584999999984
 30
0.0
  0
POINT
  5
5B0
330
17
100
AcDbEntity
  8
0
100
AcDbPoint
 10
61.49918425789974
 20
35.14967963793974
 30
0.0
  0
POINT
  5
5B1
330
17
100
AcDbEntity
  8
0
100
AcDbPoint
 10
61.63866871847634
 20
34.87348084464792
 30
0.0
  0
POINT
  5
5B2
330
17
100
AcDbEntity
  8
0
100
AcDbPoint
 10
61.777358979511654
 20
34.59698336298916
 30
0.0
  0
POINT
  5
5B3
330
17
100
AcDbEntity
  8
0
100
AcDbPoint
 10
61.91525616528739
 20
34.32018691543566
 30
0.0
  0
POINT
  5
5B4
330
17
100
AcDbEntity
  8
0
100
AcDbPoint
 10
62.05236137400454
 20
34.043091204325826
 30
0.0
  0
POINT
  5
5B5
330
17
100
AcDbEntity
  8
0
100
AcDbPoint
 10
62.18867567760921
 20
33.76569591212414
 30
0.0
  0
POINT
  5
5B6
330
17
100
AcDbEntity
  8
0
100
AcDbPoint
 10
62.32420893052761
 20
33.48800543487837
 30
0.0
  0
POINT
  5
5B7
330
17
100
AcDbEntity
  8
0
100
AcDbPoint
 10
62.45895338391067
 20
33.210014605929885
 30
0.0
  0
POINT
  5
5B8
330
17
100
AcDbEntity
  8
0
100
AcDbPoint
 10
62.59290117953268
 20
32.93171839327787
 30
0.0
  0
POINT
  5
5B9
330
17
100
AcDbEntity
  8
0
100
AcDbPoint
 10
62.72607096163109
 20
32.65312575319583
 30
0.0
  0
POINT
  5
5BA
330
17
100
AcDbEntity
  8
0
100
AcDbPoint
 10
62.85845483834823
 20
32.374231577736914
 30
0.0
  0
POINT
  5
5BB
330
17
100
AcDbEntity
  8
0
100
AcDbPoint
 10
62.99004480997586
 20
32.09503089547714
 30
0.0
  0
POINT
  5
5BC
330
17
100
AcDbEntity
  8
0
100
AcDbPoint
 10
63.120850630066045
 20
31.81552787462422
 30
0.0
  0
POINT
  5
5BD
330
17
100
AcDbEntity
  8
0
100
AcDbPoint
 10
63.25088210382721
 20
31.535726510124185
 30
0.0
  0
POINT
  5
5BE
330
17
100
AcDbEntity
  8
0
100
AcDbPoint
 10
63.38011321135788
 20
31.255612931527335
 30
0.0
  0
POINT
  5
5BF
330
17
100
AcDbEntity
  8
0
100
AcDbPoint
 10
63.508571600928036
 20
30.975200023040973
 30
0.0
  0
POINT
  5
5C0
330
17
100
AcDbEntity
  8
0
100
AcDbPoint
 10
63.63624008840818
 20
30.69447845956777
 30
0.0
  0
POINT
  5
5C1
330
17
100
AcDbEntity
  8
0
100
AcDbPoint
 10
63.763128387043075
 20
30.413452128911008
 30
0.0
  0
POINT
  5
5C2
330
17
100
AcDbEntity
  8
0
100
AcDbPoint
 10
63.88922816845803
 20
30.13211621390556
 30
0.0
  0
POINT
  5
5C3
330
17
100
AcDbEntity
  8
0
100
AcDbPoint
 10
64.01454912784155
 20
29.850474491651898
 30
0.0
  0
POINT
  5
5C4
330
17
100
AcDbEntity
  8
0
100
AcDbPoint
 10
64.13908284333799
 20
29.568522192355633
 30
0.0
  0
POINT
  5
5C5
330
17
100
AcDbEntity
  8
0
100
AcDbPoint
 10
64.26283899082051
 20
29.286262983179995
 30
0.0
  0
POINT
  5
5C6
330
17
100
AcDbEntity
  8
0
100
AcDbPoint
 10
64.3858090550789
 20
29.003692143120656
 30
0.0
  0
POINT
  5
5C7
330
17
100
AcDbEntity
  8
0
100
AcDbPoint
 10
64.50800269142543
 20
28.720813230182873
 30
0.0
  0
POINT
  5
5C8
330
17
100
AcDbEntity
  8
0
100
AcDbPoint
 10
64.62940213832609
 20
28.43761754610662
 30
0.0
  0
POINT
  5
5C9
330
17
100
AcDbEntity
  8
0
100
AcDbPoint
 10
64.75002614744275
 20
28.15411264795213
 30
0.0
  0
POINT
  5
5CA
330
17
100
AcDbEntity
  8
0
100
AcDbPoint
 10
64.86986601783562
 20
27.870293916788054
 30
0.0
  0
POINT
  5
5CB
330
17
100
AcDbEntity
  8
0
100
AcDbPoint
 10
64.98893136053714
 20
27.586164694922577
 30
0.0
  0
POINT
  5
5CC
330
17
100
AcDbEntity
  8
0
100
AcDbPoint
 10
65.10720415973957
 20
27.301716549367203
 30
0.0
  0
POINT
  5
5CD
330
17
100
AcDbEntity
  8
0
100
AcDbPoint
 10
65.22469395190457
 20
27.01695283651327
 30
0.0
  0
POINT
  5
5CE
330
17
100
AcDbEntity
  8
0
100
AcDbPoint
 10
65.3414103120876
 20
26.73187673919494
 30
0.0
  0
ENDSEC
  0
SECTION
  2
OBJECTS
  0
DICTIONARY
  5
A
330
0
100
AcDbDictionary
280
0
281
1
  3
ACAD_COLOR
350
B
  3
ACAD_GROUP
350
C
  3
ACAD_LAYOUT
350
D
  3
ACAD_MATERIAL
350
E
  3
ACAD_MLEADERSTYLE
350
F
  3
ACAD_MLINESTYLE
350
10
  3
ACAD_PLOTSETTINGS
350
11
  3
ACAD_PLOTSTYLENAME
350
12
  3
ACAD_SCALELIST
350
14
  3
ACAD_TABLESTYLE
350
15
  3
ACAD_VISUALSTYLE
350
16
  3
EZDXF_META
350
2D
  0
DICTIONARY
  5
B
330
A
100
AcDbDictionary
280
0
281
1
  0
DICTIONARY
  5
C
330
A
100
AcDbDictionary
280
0
281
1
  0
DICTIONARY
  5
D
330
A
100
AcDbDictionary
280
0
281
1
  3
Model
350
1A
  3
Layout1
350
1E
  0
DICTIONARY
  5
E
330
A
100
AcDbDictionary
280
0
281
1
  3
ByBlock
350
1F
  3
ByLayer
350
20
  3
Global
350
21
  0
DICTIONARY
  5
F
330
A
100
AcDbDictionary
280
0
281
1
  3
Standard
350
2C
  0
DICTIONARY
  5
10
330
A
100
AcDbDictionary
280
0
281
1
  3
Standard
350
22
  0
DICTIONARY
  5
11
330
A
100
AcDbDictionary
280
0
281
1
  0
ACDBDICTIONARYWDFLT
  5
12
330
A
100
AcDbDictionary
280
0
281
1
  3
Normal
350
13
100
AcDbDictionaryWithDefault
340
13
  0
ACDBPLACEHOLDER
  5
13
330
12
  0
DICTIONARY
  5
14
330
A
100
AcDbDictionary
280
0
281
1
  0
DICTIONARY
  5
15
330
A
100
AcDbDictionary
280
0
281
1
  0
DICTIONARY
  5
16
330
A
100
AcDbDictionary
280
0
281
1
  0
LAYOUT
  5
1A
330
D
100
AcDbPlotSettings
  1

  4
A3
  6

 40
7.5
 41
20.0
 42
7.5
 43
20.0
 44
420.0
 45
297.0
 46
0.0
 47
0.0
 48
0.0
 49
0.0
140
0.0
141
0.0
142
1.0
143
1.0
 70
1024
 72
1
 73
0
 74
5
  7

 75
16
 76
0
 77
2
 78
300
147
1.0
148
0.0
149
0.0
100
AcDbLayout
  1
Model
 70
1
 71
0
 10
0.0
 20
0.0
 11
420.0
 21
297.0
 12
0.0
 22
0.0
 32
0.0
 14
1e+20
 24
1e+20
 34
1e+20
 15
-1e+20
 25
-1e+20
 35
-1e+20
146
0.0
 13
0.0
 23
0.0
 33
0.0
 16
1.0
 26
0.0
 36
0.0
 17
0.0
 27
1.0
 37
0.0
 76
1
330
17
  0
LAYOUT
  5
1E
330
D
100
AcDbPlotSettings
  1

  4
A3
  6

 40
7.5
 41
20.0
 42
7.5
 43
20.0
 44
420.0
 45
297.0
 46
0.0
 47
0.0
 48
0.0
 49
0.0
140
0.0
141
0.0
142
1.0
143
1.0
 70
0
 72
1
 73
0
 74
5
  7

 75
16
 76
0
 77
2
 78
300
147
1.0
148
0.0
149
0.0
100
AcDbLayout
  1
Layout1
 70
1
 71
1
 10
0.0
 20
0.0
 11
420.0
 21
297.0
 12
0.0
 22
0.0
 32
0.0
 14
1e+20
 24
1e+20
 34
1e+20
 15
-1e+20
 25
-1e+20
 35
-1e+20
146
0.0
 13
0.0
 23
0.0
 33
0.0
 16
1.0
 26
0.0
 36
0.0
 17
0.0
 27
1.0
 37
0.0
 76
1
330
1B
  0
MATERIAL
  5
1F
102
{ACAD_REACTORS
330
E
102
}
330
E
100
AcDbMaterial
  1
ByBlock
  2

 70
0
 40
1.0
 71
1
 41
1.0
 91
-1023410177
 42
1.0
 72
1
  3

 73
1
 74
1
 75
1
 44
0.5
 73
0
 45
1.0
 46
1.0
 77
1
  4

 78
1
 79
1
170
1
 48
1.0
171
1
  6

172
1
173
1
174
1
140
1.0
141
1.0
175
1
  7

176
1
177
1
178
1
143
1.0
179
1
  8

270
1
271
1
272
1
145
1.0
146
1.0
273
1
  9

274
1
275
1
276
1
 42
1.0
 72
1
  3

 73
1
 74
1
 75
1
 94
63
  0
MATERIAL
  5
20
102
{ACAD_REACTORS
330
E
102
}
330
E
100
AcDbMaterial
  1
ByLayer
  2

 70
0
 40
1.0
 71
1
 41
1.0
 91
-1023410177
 42
1.0
 72
1
  3

 73
1
 74
1
 75
1
 44
0.5
 73
0
 45
1.0
 46
1.0
 77
1
  4

 78
1
 79
1
170
1
 48
1.0
171
1
  6

172
1
173
1
174
1
140
1.0
141
1.0
175
1
  7

176
1
177
1
178
1
143
1.0
179
1
  8

270
1
271
1
272
1
145
1.0
146
1.0
273
1
  9

274
1
275
1
276
1
 42
1.0
 72
1
  3

 73
1
 74
1
 75
1
 94
63
  0
MATERIAL
  5
21
102
{ACAD_REACTORS
330
E
102
}
330
E
100
AcDbMaterial
  1
Global
  2

 70
0
 40
1.0
 71
1
 41
1.0
 91
-1023410177
 42
1.0
 72
1
  3

 73
1
 74
1
 75
1
 44
0.5
 73
0
 45
1.0
 46
1.0
 77
1
  4

 78
1
 79
1
170
1
 48
1.0
171
1
  6

172
1
173
1
174
1
140
1.0
141
1.0
175
1
  7

176
1
177
1
178
1
143
1.0
179
1
  8

270
1
271
1
272
1
145
1.0
146
1.0
273
1
  9

274
1
275
1
276
1
 42
1.0
 72
1
  3

 73
1
 74
1
 75
1
 94
63
  0
MLINESTYLE
  5
22
102
{ACAD_REACTORS
330
10
102
}
330
10
100
AcDbMlineStyle
  2
Standard
 70
0
  3

 62
256
 51
90.0
 52
90.0
 71
2
 49
0.5
 62
256
  6
BYLAYER
 49
-0.5
 62
256
  6
BYLAYER
  0
MLEADERSTYLE
  5
2C
102
{ACAD_REACTORS
330
F
102
}
330
F
100
AcDbMLeaderStyle
179
2
170
2
171
1
172
0
 90
2
 40
0.0
 41
0.0
173
1
 91
-1056964608
 92
-2
290
1
 42
2.0
291
1
 43
8.0
  3
Standard
 44
4.0
300

342
29
174
1
175
1
176
0
178
1
 93
-1056964608
 45
4.0
292
0
297
0
 46
4.0
 94
-1056964608
 47
1.0
 49
1.0
140
1.0
294
1
141
0.0
177
0
142
1.0
295
0
296
0
143
3.75
271
0
272
9
273
9
  0
DICTIONARY
  5
2D
330
A
100
AcDbDictionary
281
1
  3
CREATED_BY_EZDXF
350
2E
  3
WRITTEN_BY_EZDXF
350
5D1
  0
DICTIONARYVAR
  5
2E
330
2D
100
DictionaryVariables
280
0
  1
1.3.2 @ 2025-12-24T01:20:20.285375+00:00
  0
DICTIONARYVAR
  5
5D1
330
2D
100
DictionaryVariables
280
0
  1
1.3.2 @ 2025-12-24T01:20:20.300791+00:00
  0
ENDSEC
  0
EOF
