  0
SECTION
  2
HEADER
  9
$ACADVER
  1
AC1015
  9
$ACADMAINTVER
 70
6
  9
$DWGCODEPAGE
  3
ANSI_1252
  9
$INSBASE
 10
0.0
 20
0.0
 30
0.0
  9
$EXTMIN
 10
1e+20
 20
1e+20
 30
1e+20
  9
$EXTMAX
 10
-1e+20
 20
-1e+20
 30
-1e+20
  9
$LIMMIN
 10
0.0
 20
0.0
  9
$LIMMAX
 10
420.0
 20
297.0
  9
$ORTHOMODE
 70
0
  9
$REGENMODE
 70
1
  9
$FILLMODE
 70
1
  9
$QTEXTMODE
 70
0
  9
$MIRRTEXT
 70
1
  9
$LTSCALE
 40
1.0
  9
$ATTMODE
 70
1
  9
$TEXTSIZE
 40
2.5
  9
$TRACEWID
 40
1.0
  9
$TEXTSTYLE
  7
Standard
  9
$CLAYER
  8
0
  9
$CELTYPE
  6
ByLayer
  9
$CECOLOR
 62
256
  9
$CELTSCALE
 40
1.0
  9
$DISPSILH
 70
0
  9
$DIMSCALE
 40
1.0
  9
$DIMASZ
 40
2.5
  9
$DIMEXO
 40
0.625
  9
$DIMDLI
 40
3.75
  9
$DIMRND
 40
0.0
  9
$DIMDLE
 40
0.0
  9
$DIMEXE
 40
1.25
  9
$DIMTP
 40
0.0
  9
$DIMTM
 40
0.0
  9
$DIMTXT
 40
2.5
  9
$DIMCEN
 40
2.5
  9
$DIMTSZ
 40
0.0
  9
$DIMTOL
 70
0
  9
$DIMLIM
 70
0
  9
$DIMTIH
 70
0
  9
$DIMTOH
 70
0
  9
$DIMSE1
 70
0
  9
$DIMSE2
 70
0
  9
$DIMTAD
 70
1
  9
$DIMZIN
 70
8
  9
$DIMBLK
  1

  9
$DIMASO
 70
1
  9
$DIMSHO
 70
1
  9
$DIMPOST
  1

  9
$DIMAPOST
  1

  9
$DIMALT
 70
0
  9
$DIMALTD
 70
3
  9
$DIMALTF
 40
0.03937007874
  9
$DIMLFAC
 40
1.0
  9
$DIMTOFL
 70
1
  9
$DIMTVP
 40
0.0
  9
$DIMTIX
 70
0
  9
$DIMSOXD
 70
0
  9
$DIMSAH
 70
0
  9
$DIMBLK1
  1

  9
$DIMBLK2
  1

  9
$DIMSTYLE
  2
ISO-25
  9
$DIMCLRD
 70
0
  9
$DIMCLRE
 70
0
  9
$DIMCLRT
 70
0
  9
$DIMTFAC
 40
1.0
  9
$DIMGAP
 40
0.625
  9
$DIMJUST
 70
0
  9
$DIMSD1
 70
0
  9
$DIMSD2
 70
0
  9
$DIMTOLJ
 70
0
  9
$DIMTZIN
 70
8
  9
$DIMALTZ
 70
0
  9
$DIMALTTZ
 70
0
  9
$DIMUPT
 70
0
  9
$DIMDEC
 70
2
  9
$DIMTDEC
 70
2
  9
$DIMALTU
 70
2
  9
$DIMALTTD
 70
3
  9
$DIMTXSTY
  7
Standard
  9
$DIMAUNIT
 70
0
  9
$DIMADEC
 70
0
  9
$DIMALTRND
 40
0.0
  9
$DIMAZIN
 70
0
  9
$DIMDSEP
 70
44
  9
$DIMATFIT
 70
3
  9
$DIMFRAC
 70
0
  9
$DIMLDRBLK
  1

  9
$DIMLUNIT
 70
2
  9
$DIMLWD
 70
-2
  9
$DIMLWE
 70
-2
  9
$DIMTMOVE
 70
0
  9
$LUNITS
 70
2
  9
$LUPREC
 70
4
  9
$SKETCHINC
 40
1.0
  9
$FILLETRAD
 40
10.0
  9
$AUNITS
 70
0
  9
$AUPREC
 70
2
  9
$MENU
  1
.
  9
$ELEVATION
 40
0.0
  9
$PELEVATION
 40
0.0
  9
$THICKNESS
 40
0.0
  9
$LIMCHECK
 70
0
  9
$CHAMFERA
 40
0.0
  9
$CHAMFERB
 40
0.0
  9
$CHAMFERC
 40
0.0
  9
$CHAMFERD
 40
0.0
  9
$SKPOLY
 70
0
  9
$TDCREATE
 40
2461036.630914352
  9
$TDUCREATE
 40
2458532.153996898
  9
$TDUPDATE
 40
2461036.630914352
  9
$TDUUPDATE
 40
2458532.1544311
  9
$TDINDWG
 40
0.0
  9
$TDUSRTIMER
 40
0.0
  9
$USRTIMER
 70
1
  9
$ANGBASE
 50
0.0
  9
$ANGDIR
 70
0
  9
$PDMODE
 70
0
  9
$PDSIZE
 40
0.0
  9
$PLINEWID
 40
0.0
  9
$SPLFRAME
 70
0
  9
$SPLINETYPE
 70
6
  9
$SPLINESEGS
 70
8
  9
$HANDSEED
  5
41B
  9
$SURFTAB1
 70
6
  9
$SURFTAB2
 70
6
  9
$SURFTYPE
 70
6
  9
$SURFU
 70
6
  9
$SURFV
 70
6
  9
$UCSBASE
  2

  9
$UCSNAME
  2

  9
$UCSORG
 10
0.0
 20
0.0
 30
0.0
  9
$UCSXDIR
 10
1.0
 20
0.0
 30
0.0
  9
$UCSYDIR
 10
0.0
 20
1.0
 30
0.0
  9
$UCSORTHOREF
  2

  9
$UCSORTHOVIEW
 70
0
  9
$UCSORGTOP
 10
0.0
 20
0.0
 30
0.0
  9
$UCSORGBOTTOM
 10
0.0
 20
0.0
 30
0.0
  9
$UCSORGLEFT
 10
0.0
 20
0.0
 30
0.0
  9
$UCSORGRIGHT
 10
0.0
 20
0.0
 30
0.0
  9
$UCSORGFRONT
 10
0.0
 20
0.0
 30
0.0
  9
$UCSORGBACK
 10
0.0
 20
0.0
 30
0.0
  9
$PUCSBASE
  2

  9
$PUCSNAME
  2

  9
$PUCSORG
 10
0.0
 20
0.0
 30
0.0
  9
$PUCSXDIR
 10
1.0
 20
0.0
 30
0.0
  9
$PUCSYDIR
 10
0.0
 20
1.0
 30
0.0
  9
$PUCSORTHOREF
  2

  9
$PUCSORTHOVIEW
 70
0
  9
$PUCSORGTOP
 10
0.0
 20
0.0
 30
0.0
  9
$PUCSORGBOTTOM
 10
0.0
 20
0.0
 30
0.0
  9
$PUCSORGLEFT
 10
0.0
 20
0.0
 30
0.0
  9
$PUCSORGRIGHT
 10
0.0
 20
0.0
 30
0.0
  9
$PUCSORGFRONT
 10
0.0
 20
0.0
 30
0.0
  9
$PUCSORGBACK
 10
0.0
 20
0.0
 30
0.0
  9
$USERI1
 70
0
  9
$USERI2
 70
0
  9
$USERI3
 70
0
  9
$USERI4
 70
0
  9
$USERI5
 70
0
  9
$USERR1
 40
0.0
  9
$USERR2
 40
0.0
  9
$USERR3
 40
0.0
  9
$USERR4
 40
0.0
  9
$USERR5
 40
0.0
  9
$WORLDVIEW
 70
1
  9
$SHADEDGE
 70
3
  9
$SHADEDIF
 70
70
  9
$TILEMODE
 70
1
  9
$MAXACTVP
 70
64
  9
$PINSBASE
 10
0.0
 20
0.0
 30
0.0
  9
$PLIMCHECK
 70
0
  9
$PEXTMIN
 10
1e+20
 20
1e+20
 30
1e+20
  9
$PEXTMAX
 10
-1e+20
 20
-1e+20
 30
-1e+20
  9
$PLIMMIN
 10
0.0
 20
0.0
  9
$PLIMMAX
 10
420.0
 20
297.0
  9
$UNITMODE
 70
0
  9
$VISRETAIN
 70
1
  9
$PLINEGEN
 70
0
  9
$PSLTSCALE
 70
1
  9
$TREEDEPTH
 70
3020
  9
$CMLSTYLE
  2
Standard
  9
$CMLJUST
 70
0
  9
$CMLSCALE
 40
20.0
  9
$PROXYGRAPHICS
 70
1
  9
$MEASUREMENT
 70
1
  9
$CELWEIGHT
370
-1
  9
$ENDCAPS
280
0
  9
$JOINSTYLE
280
0
  9
$LWDISPLAY
290
0
  9
$INSUNITS
 70
6
  9
$HYPERLINKBASE
  1

  9
$STYLESHEET
  1

  9
$XEDIT
290
1
  9
$CEPSNTYPE
380
0
  9
$PSTYLEMODE
290
1
  9
$FINGERPRINTGUID
  2
{3B54EEC1-75CD-4EC6-ACBA-A9392D0453DB}
  9
$VERSIONGUID
  2
{0178804A-6740-4DC0-B1E0-21C91C4826F5}
  9
$EXTNAMES
290
1
  9
$PSVPSCALE
 40
0.0
  9
$OLESTARTUP
290
0
  0
ENDSEC
  0
SECTION
  2
CLASSES
  0
CLASS
  1
ACDBDICTIONARYWDFLT
  2
AcDbDictionaryWithDefault
  3
ObjectDBX Classes
 90
0
280
0
281
0
  0
CLASS
  1
SUN
  2
AcDbSun
  3
SCENEOE
 90
1153
280
0
281
0
  0
CLASS
  1
VISUALSTYLE
  2
AcDbVisualStyle
  3
ObjectDBX Classes
 90
4095
280
0
281
0
  0
CLASS
  1
MATERIAL
  2
AcDbMaterial
  3
ObjectDBX Classes
 90
1153
280
0
281
0
  0
CLASS
  1
SCALE
  2
AcDbScale
  3
ObjectDBX Classes
 90
1153
280
0
281
0
  0
CLASS
  1
TABLESTYLE
  2
AcDbTableStyle
  3
ObjectDBX Classes
 90
4095
280
0
281
0
  0
CLASS
  1
MLEADERSTYLE
  2
AcDbMLeaderStyle
  3
ACDB_MLEADERSTYLE_CLASS
 90
4095
280
0
281
0
  0
CLASS
  1
DICTIONARYVAR
  2
AcDbDictionaryVar
  3
ObjectDBX Classes
 90
0
280
0
281
0
  0
CLASS
  1
CELLSTYLEMAP
  2
AcDbCellStyleMap
  3
ObjectDBX Classes
 90
1152
280
0
281
0
  0
CLASS
  1
MENTALRAYRENDERSETTINGS
  2
AcDbMentalRayRenderSettings
  3
SCENEOE
 90
1024
280
0
281
0
  0
CLASS
  1
ACDBDETAILVIEWSTYLE
  2
AcDbDetailViewStyle
  3
ObjectDBX Classes
 90
1025
280
0
281
0
  0
CLASS
  1
ACDBSECTIONVIEWSTYLE
  2
AcDbSectionViewStyle
  3
ObjectDBX Classes
 90
1025
280
0
281
0
  0
CLASS
  1
RASTERVARIABLES
  2
AcDbRasterVariables
  3
ISM
 90
0
280
0
281
0
  0
CLASS
  1
ACDBPLACEHOLDER
  2
AcDbPlaceHolder
  3
ObjectDBX Classes
 90
0
280
0
281
0
  0
CLASS
  1
LAYOUT
  2
AcDbLayout
  3
ObjectDBX Classes
 90
0
280
0
281
0
  0
ENDSEC
  0
SECTION
  2
TABLES
  0
TABLE
  2
VPORT
  5
8
330
0
100
AcDbSymbolTable
 70
1
  0
VPORT
  5
23
330
8
100
AcDbSymbolTableRecord
100
AcDbViewportTableRecord
  2
*Active
 70
0
 10
0.0
 20
0.0
 11
1.0
 21
1.0
 12
0.0
 22
0.0
 13
0.0
 23
0.0
 14
0.5
 24
0.5
 15
0.5
 25
0.5
 16
0.0
 26
0.0
 36
1.0
 17
0.0
 27
0.0
 37
0.0
 40
1000.0
 41
1.34
 42
50.0
 43
0.0
 44
0.0
 50
0.0
 51
0.0
 71
0
 72
1000
 73
1
 74
3
 75
0
 76
0
 77
0
 78
0
281
0
 65
0
146
0.0
  0
ENDTAB
  0
TABLE
  2
LTYPE
  5
2
330
0
100
AcDbSymbolTable
 70
3
  0
LTYPE
  5
24
330
2
100
AcDbSymbolTableRecord
100
AcDbLinetypeTableRecord
  2
ByBlock
 70
0
  3

 72
65
 73
0
 40
0.0
  0
LTYPE
  5
25
330
2
100
AcDbSymbolTableRecord
100
AcDbLinetypeTableRecord
  2
ByLayer
 70
0
  3

 72
65
 73
0
 40
0.0
  0
LTYPE
  5
26
330
2
100
AcDbSymbolTableRecord
100
AcDbLinetypeTableRecord
  2
Continuous
 70
0
  3

 72
65
 73
0
 40
0.0
  0
ENDTAB
  0
TABLE
  2
LAYER
  5
1
330
0
100
AcDbSymbolTable
 70
2
  0
LAYER
  5
27
330
1
100
AcDbSymbolTableRecord
100
AcDbLayerTableRecord
  2
0
 70
0
 62
7
  6
Continuous
370
-3
390
13
  0
LAYER
  5
28
330
1
100
AcDbSymbolTableRecord
100
AcDbLayerTableRecord
  2
Defpoints
 70
0
 62
7
  6
Continuous
290
0
370
-3
390
13
  0
ENDTAB
  0
TABLE
  2
STYLE
  5
5
330
0
100
AcDbSymbolTable
 70
1
  0
STYLE
  5
29
330
5
100
AcDbSymbolTableRecord
100
AcDbTextStyleTableRecord
  2
Standard
 70
0
 40
0.0
 41
1.0
 50
0.0
 71
0
 42
2.5
  3
txt
  4

  0
ENDTAB
  0
TABLE
  2
VIEW
  5
7
330
0
100
AcDbSymbolTable
 70
0
  0
ENDTAB
  0
TABLE
  2
UCS
  5
6
330
0
100
AcDbSymbolTable
 70
0
  0
ENDTAB
  0
TABLE
  2
APPID
  5
3
330
0
100
AcDbSymbolTable
 70
3
  0
APPID
  5
2A
330
3
100
AcDbSymbolTableRecord
100
AcDbRegAppTableRecord
  2
ACAD
 70
0
  0
APPID
  5
418
330
3
100
AcDbSymbolTableRecord
100
AcDbRegAppTableRecord
  2
HATCHBACKGROUNDCOLOR
 70
0
  0
APPID
  5
419
330
3
100
AcDbSymbolTableRecord
100
AcDbRegAppTableRecord
  2
EZDXF
 70
0
  0
ENDTAB
  0
TABLE
  2
DIMSTYLE
  5
4
330
0
100
AcDbSymbolTable
 70
1
100
AcDbDimStyleTable
  0
DIMSTYLE
105
2B
330
4
100
AcDbSymbolTableRecord
100
AcDbDimStyleTableRecord
  2
Standard
 70
0
  3

  4

 40
1.0
 41
2.5
 42
0.625
 43
3.75
 44
1.25
 45
0.0
 46
0.0
 47
0.0
 48
0.0
140
2.5
141
2.5
142
0.0
143
0.03937007874
144
1.0
145
0.0
146
1.0
147
0.625
148
0.0
 71
0
 72
0
 73
0
 74
0
 75
0
 76
0
 77
1
 78
8
 79
3
170
0
171
3
172
1
173
0
174
0
175
0
176
0
177
0
178
0
179
2
271
2
272
2
273
2
274
3
275
0
276
0
277
2
278
44
279
0
280
0
281
0
282
0
283
0
284
8
285
0
286
0
288
0
289
3
371
-2
372
-2
  0
ENDTAB
  0
TABLE
  2
BLOCK_RECORD
  5
9
330
0
100
AcDbSymbolTable
 70
2
  0
BLOCK_RECORD
  5
17
330
9
100
AcDbSymbolTableRecord
100
AcDbBlockTableRecord
  2
*Model_Space
340
1A
  0
BLOCK_RECORD
  5
1B
330
9
100
AcDbSymbolTableRecord
100
AcDbBlockTableRecord
  2
*Paper_Space
340
1E
  0
ENDTAB
  0
ENDSEC
  0
SECTION
  2
BLOCKS
  0
BLOCK
  5
18
330
17
100
AcDbEntity
  8
0
100
AcDbBlockBegin
  2
*Model_Space
 70
0
 10
0.0
 20
0.0
 30
0.0
  3
*Model_Space
  1

  0
ENDBLK
  5
19
330
17
100
AcDbEntity
  8
0
100
AcDbBlockEnd
  0
BLOCK
  5
1C
330
1B
100
AcDbEntity
  8
0
100
AcDbBlockBegin
  2
*Paper_Space
 70
0
 10
0.0
 20
0.0
 30
0.0
  3
*Paper_Space
  1

  0
ENDBLK
  5
1D
330
1B
100
AcDbEntity
  8
0
100
AcDbBlockEnd
  0
ENDSEC
  0
SECTION
  2
ENTITIES
  0
POINT
  5
2F
330
17
100
AcDbEntity
  8
0
100
AcDbPoint
 10
0.360410146706613
 20
0.00015727669639176156
 30
0.0
  0
POINT
  5
30
330
17
100
AcDbEntity
  8
0
100
AcDbPoint
 10
0.7187521849835434
 20
9.653161905021079e-05
 30
0.0
  0
POINT
  5
31
330
17
100
AcDbEntity
  8
0
100
AcDbPoint
 10
1.0822220875145376
 20
0.0001652852534732574
 30
0.0
  0
POINT
  5
32
330
17
100
AcDbEntity
  8
0
100
AcDbPoint
 10
1.4377650792288819
 20
0.0001924312621852664
 30
0.0
  0
POINT
  5
33
330
17
100
AcDbEntity
  8
0
100
AcDbPoint
 10
1.8016696796555038
 20
0.00014708238925464912
 30
0.0
  0
POINT
  5
34
330
17
100
AcDbEntity
  8
0
100
AcDbPoint
 10
2.1618250727916575
 20
0.0002747847969715167
 30
0.0
  0
POINT
  5
35
330
17
100
AcDbEntity
  8
0
100
AcDbPoint
 10
2.5204541487581196
 20
0.00023200546365842456
 30
0.0
  0
POINT
  5
36
330
17
100
AcDbEntity
  8
0
100
AcDbPoint
 10
2.883907066521374
 20
0.00032575272842194636
 30
0.0
  0
POINT
  5
37
330
17
100
AcDbEntity
  8
0
100
AcDbPoint
 10
3.2394679329251517
 20
0.0003700941075663877
 30
0.0
  0
POINT
  5
38
330
17
100
AcDbEntity
  8
0
100
AcDbPoint
 10
3.603379685323489
 20
0.0003501583008116427
 30
0.0
  0
POINT
  5
39
330
17
100
AcDbEntity
  8
0
100
AcDbPoint
 10
3.9632567931852236
 20
0.0004953181109357274
 30
0.0
  0
POINT
  5
3A
330
17
100
AcDbEntity
  8
0
100
AcDbPoint
 10
4.322176556827287
 20
0.00047050553227734326
 30
0.0
  0
POINT
  5
3B
330
17
100
AcDbEntity
  8
0
100
AcDbPoint
 10
4.685612396224315
 20
0.0005892952783526084
 30
0.0
  0
POINT
  5
3C
330
17
100
AcDbEntity
  8
0
100
AcDbPoint
 10
5.041190918398115
 20
0.0006508006967465008
 30
0.0
  0
POINT
  5
3D
330
17
100
AcDbEntity
  8
0
100
AcDbPoint
 10
5.405110020214124
 20
0.0006563241151980037
 30
0.0
  0
POINT
  5
3E
330
17
100
AcDbEntity
  8
0
100
AcDbPoint
 10
5.764706343675186
 20
0.000818882373025076
 30
0.0
  0
POINT
  5
3F
330
17
100
AcDbEntity
  8
0
100
AcDbPoint
 10
6.123919102669049
 20
0.000812050063593972
 30
0.0
  0
POINT
  5
40
330
17
100
AcDbEntity
  8
0
100
AcDbPoint
 10
6.487337872688045
 20
0.0009559114608421737
 30
0.0
  0
POINT
  5
41
330
17
100
AcDbEntity
  8
0
100
AcDbPoint
 10
6.842933615220261
 20
0.001034564570922214
 30
0.0
  0
POINT
  5
42
330
17
100
AcDbEntity
  8
0
100
AcDbPoint
 10
7.206861930721857
 20
0.0010655684775287
 30
0.0
  0
POINT
  5
43
330
17
100
AcDbEntity
  8
0
100
AcDbPoint
 10
7.566178405995288
 20
0.0012455246207849768
 30
0.0
  0
POINT
  5
44
330
17
100
AcDbEntity
  8
0
100
AcDbPoint
 10
7.925684498263877
 20
0.0012567477897249546
 30
0.0
  0
POINT
  5
45
330
17
100
AcDbEntity
  8
0
100
AcDbPoint
 10
8.289086372117936
 20
0.0014257176854854947
 30
0.0
  0
POINT
  5
46
330
17
100
AcDbEntity
  8
0
100
AcDbPoint
 10
8.644699270080878
 20
0.001521567918032929
 30
0.0
  0
POINT
  5
47
330
17
100
AcDbEntity
  8
0
100
AcDbPoint
 10
9.008633575784586
 20
0.0015780888536482962
 30
0.0
  0
POINT
  5
48
330
17
100
AcDbEntity
  8
0
100
AcDbPoint
 10
9.367667065643047
 20
0.0017753773235682502
 30
0.0
  0
POINT
  5
49
330
17
100
AcDbEntity
  8
0
100
AcDbPoint
 10
9.727466417949415
 20
0.0018046437715497632
 30
0.0
  0
POINT
  5
4A
330
17
100
AcDbEntity
  8
0
100
AcDbPoint
 10
10.090851488202759
 20
0.0019986844633024248
 30
0.0
  0
POINT
  5
4B
330
17
100
AcDbEntity
  8
0
100
AcDbPoint
 10
10.446481020850626
 20
0.0021116928844833183
 30
0.0
  0
POINT
  5
4C
330
17
100
AcDbEntity
  8
0
100
AcDbPoint
 10
10.81042307882393
 20
0.002193682957233989
 30
0.0
  0
POINT
  5
4D
330
17
100
AcDbEntity
  8
0
100
AcDbPoint
 10
11.169174759806879
 20
0.00240827808653421
 30
0.0
  0
POINT
  5
4E
330
17
100
AcDbEntity
  8
0
100
AcDbPoint
 10
11.529263227638125
 20
0.0024555987907532995
 30
0.0
  0
POINT
  5
4F
330
17
100
AcDbEntity
  8
0
100
AcDbPoint
 10
11.892615228979594
 20
0.002674599031387004
 30
0.0
  0
POINT
  5
50
330
17
100
AcDbEntity
  8
0
100
AcDbPoint
 10
12.248248661544153
 20
0.0028043322132518256
 30
0.0
  0
POINT
  5
51
330
17
100
AcDbEntity
  8
0
100
AcDbPoint
 10
12.612158715993303
 20
0.0029113451803439716
 30
0.0
  0
POINT
  5
52
330
17
100
AcDbEntity
  8
0
100
AcDbPoint
 10
12.970560483086786
 20
0.0031417435281255734
 30
0.0
  0
POINT
  5
53
330
17
100
AcDbEntity
  8
0
100
AcDbPoint
 10
13.330930102404295
 20
0.0032049878493651818
 30
0.0
  0
POINT
  5
54
330
17
100
AcDbEntity
  8
0
100
AcDbPoint
 10
13.694200835178549
 20
0.0034472609352036443
 30
0.0
  0
POINT
  5
55
330
17
100
AcDbEntity
  8
0
100
AcDbPoint
 10
14.049824481727455
 20
0.0035903613952896762
 30
0.0
  0
POINT
  5
56
330
17
100
AcDbEntity
  8
0
100
AcDbPoint
 10
14.4136811605307
 20
0.003720385352060873
 30
0.0
  0
POINT
  5
57
330
17
100
AcDbEntity
  8
0
100
AcDbPoint
 10
14.771657858627805
 20
0.003962610292873592
 30
0.0
  0
POINT
  5
58
330
17
100
AcDbEntity
  8
0
100
AcDbPoint
 10
15.132375291550318
 20
0.004037962642328807
 30
0.0
  0
POINT
  5
59
330
17
100
AcDbEntity
  8
0
100
AcDbPoint
 10
15.495559146057644
 20
0.004301270859627948
 30
0.0
  0
POINT
  5
5A
330
17
100
AcDbEntity
  8
0
100
AcDbPoint
 10
15.85117504272813
 20
0.004453771486446101
 30
0.0
  0
POINT
  5
5B
330
17
100
AcDbEntity
  8
0
100
AcDbPoint
 10
16.214978880598665
 20
0.004604646485184105
 30
0.0
  0
POINT
  5
5C
330
17
100
AcDbEntity
  8
0
100
AcDbPoint
 10
16.57246191494636
 20
0.004854666206753677
 30
0.0
  0
POINT
  5
5D
330
17
100
AcDbEntity
  8
0
100
AcDbPoint
 10
16.933595142002503
 20
0.004938322852147792
 30
0.0
  0
POINT
  5
5E
330
17
100
AcDbEntity
  8
0
100
AcDbPoint
 10
17.296686818364776
 20
0.005220401861045332
 30
0.0
  0
POINT
  5
5F
330
17
100
AcDbEntity
  8
0
100
AcDbPoint
 10
17.652296896067867
 20
0.0053783574810282175
 30
0.0
  0
POINT
  5
60
330
17
100
AcDbEntity
  8
0
100
AcDbPoint
 10
18.016048386128887
 20
0.005547893799928261
 30
0.0
  0
POINT
  5
61
330
17
100
AcDbEntity
  8
0
100
AcDbPoint
 10
18.372971038192645
 20
0.005801705950815972
 30
0.0
  0
POINT
  5
62
330
17
100
AcDbEntity
  8
0
100
AcDbPoint
 10
18.73458617747815
 20
0.005889872703754406
 30
0.0
  0
POINT
  5
63
330
17
100
AcDbEntity
  8
0
100
AcDbPoint
 10
19.097580484579282
 20
0.006188433071834254
 30
0.0
  0
POINT
  5
64
330
17
100
AcDbEntity
  8
0
100
AcDbPoint
 10
19.45318665216405
 20
0.006347918269362651
 30
0.0
  0
POINT
  5
65
330
17
100
AcDbEntity
  8
0
100
AcDbPoint
 10
19.81688625056273
 20
0.0065338998640456225
 30
0.0
  0
POINT
  5
66
330
17
100
AcDbEntity
  8
0
100
AcDbPoint
 10
20.17318369522735
 20
0.006787533562196302
 30
0.0
  0
POINT
  5
67
330
17
100
AcDbEntity
  8
0
100
AcDbPoint
 10
20.53534650660157
 20
0.006876426610368469
 30
0.0
  0
POINT
  5
68
330
17
100
AcDbEntity
  8
0
100
AcDbPoint
 10
20.898240185275483
 20
0.0071891918536834964
 30
0.0
  0
POINT
  5
69
330
17
100
AcDbEntity
  8
0
100
AcDbPoint
 10
21.253844080152362
 20
0.007346350592811746
 30
0.0
  0
POINT
  5
6A
330
17
100
AcDbEntity
  8
0
100
AcDbPoint
 10
21.617491786458288
 20
0.007546564950843049
 30
0.0
  0
POINT
  5
6B
330
17
100
AcDbEntity
  8
0
100
AcDbPoint
 10
21.973150977311263
 20
0.007796147115172403
 30
0.0
  0
POINT
  5
6C
330
17
100
AcDbEntity
  8
0
100
AcDbPoint
 10
22.335871325092853
 20
0.00788326901233205
 30
0.0
  0
POINT
  5
6D
330
17
100
AcDbEntity
  8
0
100
AcDbPoint
 10
22.698607460535527
 20
0.008206547480476445
 30
0.0
  0
POINT
  5
6E
330
17
100
AcDbEntity
  8
0
100
AcDbPoint
 10
23.054264936823017
 20
0.008357527430248979
 30
0.0
  0
POINT
  5
6F
330
17
100
AcDbEntity
  8
0
100
AcDbPoint
 10
23.417872605136324
 20
0.008569772683827637
 30
0.0
  0
POINT
  5
70
330
17
100
AcDbEntity
  8
0
100
AcDbPoint
 10
23.7734743931087
 20
0.008811990628174726
 30
0.0
  0
POINT
  5
71
330
17
100
AcDbEntity
  8
0
100
AcDbPoint
 10
24.13623425885163
 20
0.008909789953328584
 30
0.0
  0
POINT
  5
72
330
17
100
AcDbEntity
  8
0
100
AcDbPoint
 10
24.498250852306114
 20
0.009226219305915606
 30
0.0
  0
POINT
  5
73
330
17
100
AcDbEntity
  8
0
100
AcDbPoint
 10
24.854597703493766
 20
0.00936993763293259
 30
0.0
  0
POINT
  5
74
330
17
100
AcDbEntity
  8
0
100
AcDbPoint
 10
25.21820624016533
 20
0.009593484103284311
 30
0.0
  0
POINT
  5
75
330
17
100
AcDbEntity
  8
0
100
AcDbPoint
 10
25.57376618441407
 20
0.009827888646960048
 30
0.0
  0
POINT
  5
76
330
17
100
AcDbEntity
  8
0
100
AcDbPoint
 10
25.9365853371811
 20
0.009936029624839193
 30
0.0
  0
POINT
  5
77
330
17
100
AcDbEntity
  8
0
100
AcDbPoint
 10
26.297901808293886
 20
0.01024567497112372
 30
0.0
  0
POINT
  5
78
330
17
100
AcDbEntity
  8
0
100
AcDbPoint
 10
26.654928074520285
 20
0.01038226551835919
 30
0.0
  0
POINT
  5
79
330
17
100
AcDbEntity
  8
0
100
AcDbPoint
 10
27.018537303241487
 20
0.010616901966592707
 30
0.0
  0
POINT
  5
7A
330
17
100
AcDbEntity
  8
0
100
AcDbPoint
 10
27.37405616254142
 20
0.01084364091322243
 30
0.0
  0
POINT
  5
7B
330
17
100
AcDbEntity
  8
0
100
AcDbPoint
 10
27.736933549776438
 20
0.010961930080533477
 30
0.0
  0
POINT
  5
7C
330
17
100
AcDbEntity
  8
0
100
AcDbPoint
 10
28.097564333703417
 20
0.011264932120660376
 30
0.0
  0
POINT
  5
7D
330
17
100
AcDbEntity
  8
0
100
AcDbPoint
 10
28.455258726405134
 20
0.011394551687949672
 30
0.0
  0
POINT
  5
7E
330
17
100
AcDbEntity
  8
0
100
AcDbPoint
 10
28.818870682285194
 20
0.011640113297360699
 30
0.0
  0
POINT
  5
7F
330
17
100
AcDbEntity
  8
0
100
AcDbPoint
 10
29.174349107707997
 20
0.011859413526586593
 30
0.0
  0
POINT
  5
80
330
17
100
AcDbEntity
  8
0
100
AcDbPoint
 10
29.537283418382174
 20
0.011987699141073449
 30
0.0
  0
POINT
  5
81
330
17
100
AcDbEntity
  8
0
100
AcDbPoint
 10
29.897241076083162
 20
0.012284270042655976
 30
0.0
  0
POINT
  5
82
330
17
100
AcDbEntity
  8
0
100
AcDbPoint
 10
30.2555858378131
 20
0.01240706558132132
 30
0.0
  0
POINT
  5
83
330
17
100
AcDbEntity
  8
0
100
AcDbPoint
 10
30.619196493789673
 20
0.012663290988371045
 30
0.0
  0
POINT
  5
84
330
17
100
AcDbEntity
  8
0
100
AcDbPoint
 10
30.974635433468507
 20
0.012875219707616736
 30
0.0
  0
POINT
  5
85
330
17
100
AcDbEntity
  8
0
100
AcDbPoint
 10
31.33762573957233
 20
0.01301326569721084
 30
0.0
  0
POINT
  5
86
330
17
100
AcDbEntity
  8
0
100
AcDbPoint
 10
31.696923182892192
 20
0.01330346581415398
 30
0.0
  0
POINT
  5
87
330
17
100
AcDbEntity
  8
0
100
AcDbPoint
 10
32.05590851056559
 20
0.013419515932525883
 30
0.0
  0
POINT
  5
88
330
17
100
AcDbEntity
  8
0
100
AcDbPoint
 10
32.419519911517966
 20
0.013686199823077061
 30
0.0
  0
POINT
  5
89
330
17
100
AcDbEntity
  8
0
100
AcDbPoint
 10
32.774919931393015
 20
0.013890904421572259
 30
0.0
  0
POINT
  5
8A
330
17
100
AcDbEntity
  8
0
100
AcDbPoint
 10
33.13796514520641
 20
0.014038517053236887
 30
0.0
  0
POINT
  5
8B
330
17
100
AcDbEntity
  8
0
100
AcDbPoint
 10
33.4966156890938
 20
0.01432248355732213
 30
0.0
  0
POINT
  5
8C
330
17
100
AcDbEntity
  8
0
100
AcDbPoint
 10
33.85622862126121
 20
0.014431917191011223
 30
0.0
  0
POINT
  5
8D
330
17
100
AcDbEntity
  8
0
100
AcDbPoint
 10
34.21984078492005
 20
0.014708849134528634
 30
0.0
  0
POINT
  5
8E
330
17
100
AcDbEntity
  8
0
100
AcDbPoint
 10
34.57520260805762
 20
0.014906477267309981
 30
0.0
  0
POINT
  5
8F
330
17
100
AcDbEntity
  8
0
100
AcDbPoint
 10
34.93830164687171
 20
0.01506346275214554
 30
0.0
  0
POINT
  5
90
330
17
100
AcDbEntity
  8
0
100
AcDbPoint
 10
35.296318773442295
 20
0.015341332663552976
 30
0.0
  0
POINT
  5
91
330
17
100
AcDbEntity
  8
0
100
AcDbPoint
 10
35.65654721727253
 20
0.015444284018826693
 30
0.0
  0
POINT
  5
92
330
17
100
AcDbEntity
  8
0
100
AcDbPoint
 10
36.02016278145908
 20
0.015731277898005658
 30
0.0
  0
POINT
  5
93
330
17
100
AcDbEntity
  8
0
100
AcDbPoint
 10
36.37548777825566
 20
0.015922048135770694
 30
0.0
  0
POINT
  5
94
330
17
100
AcDbEntity
  8
0
100
AcDbPoint
 10
36.738639527453586
 20
0.016088251638912254
 30
0.0
  0
POINT
  5
95
330
17
100
AcDbEntity
  8
0
100
AcDbPoint
 10
37.09603758575042
 20
0.016360231786975987
 30
0.0
  0
POINT
  5
96
330
17
100
AcDbEntity
  8
0
100
AcDbPoint
 10
37.45686550706807
 20
0.01645689393063776
 30
0.0
  0
POINT
  5
97
330
17
100
AcDbEntity
  8
0
100
AcDbPoint
 10
37.82047923858278
 20
0.016753727639077454
 30
0.0
  0
POINT
  5
98
330
17
100
AcDbEntity
  8
0
100
AcDbPoint
 10
38.1757669165861
 20
0.01693771800261601
 30
0.0
  0
POINT
  5
99
330
17
100
AcDbEntity
  8
0
100
AcDbPoint
 10
38.53896885194803
 20
0.017112905274494494
 30
0.0
  0
POINT
  5
9A
330
17
100
AcDbEntity
  8
0
100
AcDbPoint
 10
38.8958846349189
 20
0.017379087300930962
 30
0.0
  0
POINT
  5
9B
330
17
100
AcDbEntity
  8
0
100
AcDbPoint
 10
39.2571796442644
 20
0.01747265362788397
 30
0.0
  0
POINT
  5
9C
330
17
100
AcDbEntity
  8
0
100
AcDbPoint
 10
39.620668675450474
 20
0.01777584673993715
 30
0.0
  0
POINT
  5
9D
330
17
100
AcDbEntity
  8
0
100
AcDbPoint
 10
39.97604461138428
 20
0.017953298139403273
 30
0.0
  0
POINT
  5
9E
330
17
100
AcDbEntity
  8
0
100
AcDbPoint
 10
40.33929126559565
 20
0.01813727263415643
 30
0.0
  0
POINT
  5
9F
330
17
100
AcDbEntity
  8
0
100
AcDbPoint
 10
40.69611856530935
 20
0.01839787506627033
 30
0.0
  0
POINT
  5
A0
330
17
100
AcDbEntity
  8
0
100
AcDbPoint
 10
41.05749652768918
 20
0.01849803684982021
 30
0.0
  0
POINT
  5
A1
330
17
100
AcDbEntity
  8
0
100
AcDbPoint
 10
41.42047800409898
 20
0.018797446971674958
 30
0.0
  0
POINT
  5
A2
330
17
100
AcDbEntity
  8
0
100
AcDbPoint
 10
41.77632204921446
 20
0.01896879758272263
 30
0.0
  0
POINT
  5
A3
330
17
100
AcDbEntity
  8
0
100
AcDbPoint
 10
42.13961089912027
 20
0.019161365024153554
 30
0.0
  0
POINT
  5
A4
330
17
100
AcDbEntity
  8
0
100
AcDbPoint
 10
42.496351610815964
 20
0.019416512665920038
 30
0.0
  0
POINT
  5
A5
330
17
100
AcDbEntity
  8
0
100
AcDbPoint
 10
42.85781068470345
 20
0.019523123160929856
 30
0.0
  0
POINT
  5
A6
330
17
100
AcDbEntity
  8
0
100
AcDbPoint
 10
43.22029611178789
 20
0.01981884072047535
 30
0.0
  0
POINT
  5
A7
330
17
100
AcDbEntity
  8
0
100
AcDbPoint
 10
43.5765975332306
 20
0.019984225300042624
 30
0.0
  0
POINT
  5
A8
330
17
100
AcDbEntity
  8
0
100
AcDbPoint
 10
43.93992986645139
 20
0.020185190335723746
 30
0.0
  0
POINT
  5
A9
330
17
100
AcDbEntity
  8
0
100
AcDbPoint
 10
44.296587579467655
 20
0.0204350659429835
 30
0.0
  0
POINT
  5
AA
330
17
100
AcDbEntity
  8
0
100
AcDbPoint
 10
44.658126081965406
 20
0.020548018365332155
 30
0.0
  0
POINT
  5
AB
330
17
100
AcDbEntity
  8
0
100
AcDbPoint
 10
45.02012798418815
 20
0.02084019561170436
 30
0.0
  0
POINT
  5
AC
330
17
100
AcDbEntity
  8
0
100
AcDbPoint
 10
45.37687534952454
 20
0.020999813783355137
 30
0.0
  0
POINT
  5
AD
330
17
100
AcDbEntity
  8
0
100
AcDbPoint
 10
45.740245706255735
 20
0.021209020270013923
 30
0.0
  0
POINT
  5
AE
330
17
100
AcDbEntity
  8
0
100
AcDbPoint
 10
46.096819172607184
 20
0.021453697052479015
 30
0.0
  0
POINT
  5
AF
330
17
100
AcDbEntity
  8
0
100
AcDbPoint
 10
46.45843471138602
 20
0.021572803867790924
 30
0.0
  0
POINT
  5
B0
330
17
100
AcDbEntity
  8
0
100
AcDbPoint
 10
46.81995364311592
 20
0.021861459431505637
 30
0.0
  0
POINT
  5
B1
330
17
100
AcDbEntity
  8
0
100
AcDbPoint
 10
47.17714710274976
 20
0.022015133686181798
 30
0.0
  0
POINT
  5
B2
330
17
100
AcDbEntity
  8
0
100
AcDbPoint
 10
47.44056247479142
 20
0.02234667254427336
 30
0.0
  0
POINT
  5
B3
330
17
100
AcDbEntity
  8
0
100
AcDbPoint
 10
47.64053812821129
 20
0.022473503211614343
 30
0.0
  0
POINT
  5
B4
330
17
100
AcDbEntity
  8
0
100
AcDbPoint
 10
47.897049306968995
 20
0.02247176031906406
 30
0.0
  0
POINT
  5
B5
330
17
100
AcDbEntity
  8
0
100
AcDbPoint
 10
48.25875782818895
 20
0.022597319342239075
 30
0.0
  0
POINT
  5
B6
330
17
100
AcDbEntity
  8
0
100
AcDbPoint
 10
48.619807868343344
 20
0.022882549997845558
 30
0.0
  0
POINT
  5
B7
330
17
100
AcDbEntity
  8
0
100
AcDbPoint
 10
48.977417031428956
 20
0.023030905689950032
 30
0.0
  0
POINT
  5
B8
330
17
100
AcDbEntity
  8
0
100
AcDbPoint
 10
49.340865289247574
 20
0.023255937945982907
 30
0.0
  0
POINT
  5
B9
330
17
100
AcDbEntity
  8
0
100
AcDbPoint
 10
49.69727897883956
 20
0.02349057576677893
 30
0.0
  0
POINT
  5
BA
330
17
100
AcDbEntity
  8
0
100
AcDbPoint
 10
50.05904391570732
 20
0.02362155042773395
 30
0.0
  0
POINT
  5
BB
330
17
100
AcDbEntity
  8
0
100
AcDbPoint
 10
50.419660795329946
 20
0.02390345254823245
 30
0.0
  0
POINT
  5
BC
330
17
100
AcDbEntity
  8
0
100
AcDbPoint
 10
50.77768505448222
 20
0.02404638001595316
 30
0.0
  0
POINT
  5
BD
330
17
100
AcDbEntity
  8
0
100
AcDbPoint
 10
51.141170869864254
 20
0.024279033710534748
 30
0.0
  0
POINT
  5
BE
330
17
100
AcDbEntity
  8
0
100
AcDbPoint
 10
51.49750754451725
 20
0.024508839244163028
 30
0.0
  0
POINT
  5
BF
330
17
100
AcDbEntity
  8
0
100
AcDbPoint
 10
51.859344396469965
 20
0.02464552722980784
 30
0.0
  0
POINT
  5
C0
330
17
100
AcDbEntity
  8
0
100
AcDbPoint
 10
52.21952260727346
 20
0.024924182273345252
 30
0.0
  0
POINT
  5
C1
330
17
100
AcDbEntity
  8
0
100
AcDbPoint
 10
52.577951357707775
 20
0.025061818381153955
 30
0.0
  0
POINT
  5
C2
330
17
100
AcDbEntity
  8
0
100
AcDbPoint
 10
52.94147585960587
 20
0.025301903373446066
 30
0.0
  0
POINT
  5
C3
330
17
100
AcDbEntity
  8
0
100
AcDbPoint
 10
53.29773873446959
 20
0.025527055655743425
 30
0.0
  0
POINT
  5
C4
330
17
100
AcDbEntity
  8
0
100
AcDbPoint
 10
53.65964569965507
 20
0.02566934583821734
 30
0.0
  0
POINT
  5
C5
330
17
100
AcDbEntity
  8
0
100
AcDbPoint
 10
54.019397588367156
 20
0.025944897396769306
 30
0.0
  0
POINT
  5
C6
330
17
100
AcDbEntity
  8
0
100
AcDbPoint
 10
54.378219080104714
 20
0.026077435030458673
 30
0.0
  0
POINT
  5
C7
330
17
100
AcDbEntity
  8
0
100
AcDbPoint
 10
54.74177713747429
 20
0.0263247801800901
 30
0.0
  0
POINT
  5
C8
330
17
100
AcDbEntity
  8
0
100
AcDbPoint
 10
55.09796568881296
 20
0.02654535296447591
 30
0.0
  0
POINT
  5
C9
330
17
100
AcDbEntity
  8
0
100
AcDbPoint
 10
55.459940676286465
 20
0.026693061375937077
 30
0.0
  0
POINT
  5
CA
330
17
100
AcDbEntity
  8
0
100
AcDbPoint
 10
55.81927675879729
 20
0.026965540785603537
 30
0.0
  0
POINT
  5
CB
330
17
100
AcDbEntity
  8
0
100
AcDbPoint
 10
56.17848141849288
 20
0.027093056303421292
 30
0.0
  0
POINT
  5
CC
330
17
100
AcDbEntity
  8
0
100
AcDbPoint
 10
56.54207425402808
 20
0.027347439066375046
 30
0.0
  0
POINT
  5
CD
330
17
100
AcDbEntity
  8
0
100
AcDbPoint
 10
56.898191529280666
 20
0.027563552407222858
 30
0.0
  0
POINT
  5
CE
330
17
100
AcDbEntity
  8
0
100
AcDbPoint
 10
57.26023291370973
 20
0.02771653183188505
 30
0.0
  0
POINT
  5
CF
330
17
100
AcDbEntity
  8
0
100
AcDbPoint
 10
57.61916466446587
 20
0.02798602687809648
 30
0.0
  0
POINT
  5
D0
330
17
100
AcDbEntity
  8
0
100
AcDbPoint
 10
57.978741870780595
 20
0.028108656668408116
 30
0.0
  0
POINT
  5
D1
330
17
100
AcDbEntity
  8
0
100
AcDbPoint
 10
58.342368557076895
 20
0.028369882496832588
 30
0.0
  0
POINT
  5
D2
330
17
100
AcDbEntity
  8
0
100
AcDbPoint
 10
58.698416470780785
 20
0.028581661160863803
 30
0.0
  0
POINT
  5
D3
330
17
100
AcDbEntity
  8
0
100
AcDbPoint
 10
59.06052241235369
 20
0.028739764252549094
 30
0.0
  0
POINT
  5
D4
330
17
100
AcDbEntity
  8
0
100
AcDbPoint
 10
59.41906130295786
 20
0.029006362424240706
 30
0.0
  0
POINT
  5
D5
330
17
100
AcDbEntity
  8
0
100
AcDbPoint
 10
59.77900043559595
 20
0.029124243113471948
 30
0.0
  0
POINT
  5
D6
330
17
100
AcDbEntity
  8
0
100
AcDbPoint
 10
60.14266004571084
 20
0.029392117403745033
 30
0.0
  0
POINT
  5
D7
330
17
100
AcDbEntity
  8
0
100
AcDbPoint
 10
60.49864054055172
 20
0.029599686172680606
 30
0.0
  0
POINT
  5
D8
330
17
100
AcDbEntity
  8
0
100
AcDbPoint
 10
60.860806086741036
 20
0.029762764406477515
 30
0.0
  0
POINT
  5
D9
330
17
100
AcDbEntity
  8
0
100
AcDbPoint
 10
61.21925076359565
 20
0.030026625644026694
 30
0.0
  0
POINT
  5
DA
330
17
100
AcDbEntity
  8
0
100
AcDbPoint
 10
61.57926236778451
 20
0.03014710227237316
 30
0.0
  0
POINT
  5
DB
330
17
100
AcDbEntity
  8
0
100
AcDbPoint
 10
61.94266379702833
 20
0.03041396278252506
 30
0.0
  0
POINT
  5
DC
330
17
100
AcDbEntity
  8
0
100
AcDbPoint
 10
62.29886373113504
 20
0.030617633789219667
 30
0.0
  0
POINT
  5
DD
330
17
100
AcDbEntity
  8
0
100
AcDbPoint
 10
62.66108723540407
 20
0.030785540754109775
 30
0.0
  0
POINT
  5
DE
330
17
100
AcDbEntity
  8
0
100
AcDbPoint
 10
63.019449910761864
 20
0.031046754136980326
 30
0.0
  0
POINT
  5
DF
330
17
100
AcDbEntity
  8
0
100
AcDbPoint
 10
63.37952542398659
 20
0.03116998822027739
 30
0.0
  0
POINT
  5
E0
330
17
100
AcDbEntity
  8
0
100
AcDbPoint
 10
63.74266897586489
 20
0.031435698893282904
 30
0.0
  0
POINT
  5
E1
330
17
100
AcDbEntity
  8
0
100
AcDbPoint
 10
64.09908920463914
 20
0.03163564583015699
 30
0.0
  0
POINT
  5
E2
330
17
100
AcDbEntity
  8
0
100
AcDbPoint
 10
64.4613684397894
 20
0.03180826372858547
 30
0.0
  0
POINT
  5
E3
330
17
100
AcDbEntity
  8
0
100
AcDbPoint
 10
64.81964931978763
 20
0.032066948246473714
 30
0.0
  0
POINT
  5
E4
330
17
100
AcDbEntity
  8
0
100
AcDbPoint
 10
65.17978349942382
 20
0.0321928241215943
 30
0.0
  0
POINT
  5
E5
330
17
100
AcDbEntity
  8
0
100
AcDbPoint
 10
65.54267638601152
 20
0.03245737637526247
 30
0.0
  0
POINT
  5
E6
330
17
100
AcDbEntity
  8
0
100
AcDbPoint
 10
65.89931051591537
 20
0.0326536654113454
 30
0.0
  0
POINT
  5
E7
330
17
100
AcDbEntity
  8
0
100
AcDbPoint
 10
66.26164405775023
 20
0.032830815568139826
 30
0.0
  0
POINT
  5
E8
330
17
100
AcDbEntity
  8
0
100
AcDbPoint
 10
66.61984671102516
 20
0.033087009418515834
 30
0.0
  0
POINT
  5
E9
330
17
100
AcDbEntity
  8
0
100
AcDbPoint
 10
66.98003937644017
 20
0.03321543988301556
 30
0.0
  0
POINT
  5
EA
330
17
100
AcDbEntity
  8
0
100
AcDbPoint
 10
67.34268986576257
 20
0.03347887230442126
 30
0.0
  0
POINT
  5
EB
330
17
100
AcDbEntity
  8
0
100
AcDbPoint
 10
67.6995309183327
 20
0.03367162145509184
 30
0.0
  0
POINT
  5
EC
330
17
100
AcDbEntity
  8
0
100
AcDbPoint
 10
68.06191702453833
 20
0.033853156213147884
 30
0.0
  0
POINT
  5
ED
330
17
100
AcDbEntity
  8
0
100
AcDbPoint
 10
68.42004396390018
 20
0.03410694118810653
 30
0.0
  0
POINT
  5
EE
330
17
100
AcDbEntity
  8
0
100
AcDbPoint
 10
68.78029319350657
 20
0.03423784178058753
 30
0.0
  0
POINT
  5
EF
330
17
100
AcDbEntity
  8
0
100
AcDbPoint
 10
69.14270940691335
 20
0.03450019258587389
 30
0.0
  0
POINT
  5
F0
330
17
100
AcDbEntity
  8
0
100
AcDbPoint
 10
69.49975041019763
 20
0.034689519951285774
 30
0.0
  0
POINT
  5
F1
330
17
100
AcDbEntity
  8
0
100
AcDbPoint
 10
69.86218733863035
 20
0.03487529159376379
 30
0.0
  0
POINT
  5
F2
330
17
100
AcDbEntity
  8
0
100
AcDbPoint
 10
70.22024107662662
 20
0.03512674947121752
 30
0.0
  0
POINT
  5
F3
330
17
100
AcDbEntity
  8
0
100
AcDbPoint
 10
70.58054494903047
 20
0.03526003567871072
 30
0.0
  0
POINT
  5
F4
330
17
100
AcDbEntity
  8
0
100
AcDbPoint
 10
70.94273500710693
 20
0.035521342945457945
 30
0.0
  0
POINT
  5
F5
330
17
100
AcDbEntity
  8
0
100
AcDbPoint
 10
71.29996898977913
 20
0.03570736670334895
 30
0.0
  0
POINT
  5
F6
330
17
100
AcDbEntity
  8
0
100
AcDbPoint
 10
71.66245499846622
 20
0.035897227453716596
 30
0.0
  0
POINT
  5
F7
330
17
100
AcDbEntity
  8
0
100
AcDbPoint
 10
72.02043804738315
 20
0.03614643999726752
 30
0.0
  0
POINT
  5
F8
330
17
100
AcDbEntity
  8
0
100
AcDbPoint
 10
72.38079464136206
 20
0.036282027255012395
 30
0.0
  0
POINT
  5
F9
330
17
100
AcDbEntity
  8
0
100
AcDbPoint
 10
72.74276666396253
 20
0.03654232892600362
 30
0.0
  0
POINT
  5
FA
330
17
100
AcDbEntity
  8
0
100
AcDbPoint
 10
73.10018665531345
 20
0.03672516732800091
 30
0.0
  0
POINT
  5
FB
330
17
100
AcDbEntity
  8
0
100
AcDbPoint
 10
73.46272000243971
 20
0.0369189693503813
 30
0.0
  0
POINT
  5
FC
330
17
100
AcDbEntity
  8
0
100
AcDbPoint
 10
73.820634875309
 20
0.037166018309100934
 30
0.0
  0
POINT
  5
FD
330
17
100
AcDbEntity
  8
0
100
AcDbPoint
 10
74.18104229806801
 20
0.037303822042140666
 30
0.0
  0
POINT
  5
FE
330
17
100
AcDbEntity
  8
0
100
AcDbPoint
 10
74.54280465460329
 20
0.03756315680706024
 30
0.0
  0
POINT
  5
FF
330
17
100
AcDbEntity
  8
0
100
AcDbPoint
 10
74.90040466276497
 20
0.03774293509533777
 30
0.0
  0
POINT
  5
100
330
17
100
AcDbEntity
  8
0
100
AcDbPoint
 10
75.26298491859325
 20
0.03794055715067657
 30
0.0
  0
POINT
  5
101
330
17
100
AcDbEntity
  8
0
100
AcDbPoint
 10
75.62083428006099
 20
0.038185564004074024
 30
0.0
  0
POINT
  5
102
330
17
100
AcDbEntity
  8
0
100
AcDbPoint
 10
75.98129042114806
 20
0.038325528899981975
 30
0.0
  0
POINT
  5
103
330
17
100
AcDbEntity
  8
0
100
AcDbPoint
 10
76.34285120921777
 20
0.03858396945537379
 30
0.0
  0
POINT
  5
104
330
17
100
AcDbEntity
  8
0
100
AcDbPoint
 10
76.70062187937128
 20
0.038760833273279616
 30
0.0
  0
POINT
  5
105
330
17
100
AcDbEntity
  8
0
100
AcDbPoint
 10
77.06324456004
 20
0.03896209939753703
 30
0.0
  0
POINT
  5
106
330
17
100
AcDbEntity
  8
0
100
AcDbPoint
 10
77.42103075629097
 20
0.03920510470014449
 30
0.0
  0
POINT
  5
107
330
17
100
AcDbEntity
  8
0
100
AcDbPoint
 10
77.78153386418563
 20
0.039347115764449825
 30
0.0
  0
POINT
  5
108
330
17
100
AcDbEntity
  8
0
100
AcDbPoint
 10
78.14290094962251
 20
0.03960466253714401
 30
0.0
  0
POINT
  5
109
330
17
100
AcDbEntity
  8
0
100
AcDbPoint
 10
78.50083673867732
 20
0.03977869474005047
 30
0.0
  0
POINT
  5
10A
330
17
100
AcDbEntity
  8
0
100
AcDbPoint
 10
78.86350153782377
 20
0.03998345755746158
 30
0.0
  0
POINT
  5
10B
330
17
100
AcDbEntity
  8
0
100
AcDbPoint
 10
79.22122708461643
 20
0.040224543085749076
 30
0.0
  0
POINT
  5
10C
330
17
100
AcDbEntity
  8
0
100
AcDbPoint
 10
79.58177523595822
 20
0.040368515545551986
 30
0.0
  0
POINT
  5
10D
330
17
100
AcDbEntity
  8
0
100
AcDbPoint
 10
79.9429567359989
 20
0.04062520597911856
 30
0.0
  0
POINT
  5
10E
330
17
100
AcDbEntity
  8
0
100
AcDbPoint
 10
80.30105067542411
 20
0.04079652507751064
 30
0.0
  0
POINT
  5
10F
330
17
100
AcDbEntity
  8
0
100
AcDbPoint
 10
80.66375585181584
 20
0.041004636515012294
 30
0.0
  0
POINT
  5
110
330
17
100
AcDbEntity
  8
0
100
AcDbPoint
 10
81.02142326028468
 20
0.04124388395456435
 30
0.0
  0
POINT
  5
111
330
17
100
AcDbEntity
  8
0
100
AcDbPoint
 10
81.38201453465405
 20
0.0413897329890176
 30
0.0
  0
POINT
  5
112
330
17
100
AcDbEntity
  8
0
100
AcDbPoint
 10
81.74301856582895
 20
0.04164560441024889
 30
0.0
  0
POINT
  5
113
330
17
100
AcDbEntity
  8
0
100
AcDbPoint
 10
82.10126368766623
 20
0.04181432896981363
 30
0.0
  0
POINT
  5
114
330
17
100
AcDbEntity
  8
0
100
AcDbPoint
 10
82.46400750020968
 20
0.04202564089711558
 30
0.0
  0
POINT
  5
115
330
17
100
AcDbEntity
  8
0
100
AcDbPoint
 10
82.82161928125379
 20
0.04226313191546183
 30
0.0
  0
POINT
  5
116
330
17
100
AcDbEntity
  8
0
100
AcDbPoint
 10
83.18225175841144
 20
0.0424107726537315
 30
0.0
  0
POINT
  5
117
330
17
100
AcDbEntity
  8
0
100
AcDbPoint
 10
83.54308643657919
 20
0.04266586227677749
 30
0.0
  0
POINT
  5
118
330
17
100
AcDbEntity
  8
0
100
AcDbPoint
 10
83.90147577340258
 20
0.04283211091458128
 30
0.0
  0
POINT
  5
119
330
17
100
AcDbEntity
  8
0
100
AcDbPoint
 10
84.26425648116685
 20
0.04304647514420168
 30
0.0
  0
POINT
  5
11A
330
17
100
AcDbEntity
  8
0
100
AcDbPoint
 10
84.62181514546455
 20
0.0432822913907529
 30
0.0
  0
POINT
  5
11B
330
17
100
AcDbEntity
  8
0
100
AcDbPoint
 10
84.98248690530727
 20
0.04343163891229551
 30
0.0
  0
POINT
  5
11C
330
17
100
AcDbEntity
  8
0
100
AcDbPoint
 10
85.34316034568508
 20
0.04368598384171918
 30
0.0
  0
POINT
  5
11D
330
17
100
AcDbEntity
  8
0
100
AcDbPoint
 10
85.70168693061862
 20
0.0438498752228611
 30
0.0
  0
POINT
  5
11E
330
17
100
AcDbEntity
  8
0
100
AcDbPoint
 10
86.06450279279721
 20
0.04406714351072338
 30
0.0
  0
POINT
  5
11F
330
17
100
AcDbEntity
  8
0
100
AcDbPoint
 10
86.42201085081041
 20
0.0443013666156844
 30
0.0
  0
POINT
  5
120
330
17
100
AcDbEntity
  8
0
100
AcDbPoint
 10
86.78271997339806
 20
0.04445233595069453
 30
0.0
  0
POINT
  5
121
330
17
100
AcDbEntity
  8
0
100
AcDbPoint
 10
87.14324029054768
 20
0.04470597318540115
 30
0.0
  0
POINT
  5
122
330
17
100
AcDbEntity
  8
0
100
AcDbPoint
 10
87.50189715725185
 20
0.044867626018863405
 30
0.0
  0
POINT
  5
123
330
17
100
AcDbEntity
  8
0
100
AcDbPoint
 10
87.86474643318746
 20
0.045087650064893126
 30
0.0
  0
POINT
  5
124
330
17
100
AcDbEntity
  8
0
100
AcDbPoint
 10
88.22220639515075
 20
0.04532036163891462
 30
0.0
  0
POINT
  5
125
330
17
100
AcDbEntity
  8
0
100
AcDbPoint
 10
88.58295096068883
 20
0.04547286776849546
 30
0.0
  0
POINT
  5
126
330
17
100
AcDbEntity
  8
0
100
AcDbPoint
 10
88.94332626860432
 20
0.0457258342051432
 30
0.0
  0
POINT
  5
127
330
17
100
AcDbEntity
  8
0
100
AcDbPoint
 10
89.3021064727555
 20
0.04588536725323422
 30
0.0
  0
POINT
  5
128
330
17
100
AcDbEntity
  8
0
100
AcDbPoint
 10
89.66498754579749
 20
0.04610799933252707
 30
0.0
  0
POINT
  5
129
330
17
100
AcDbEntity
  8
0
100
AcDbPoint
 10
90.02240267649063
 20
0.046339284529459235
 30
0.0
  0
POINT
  5
12A
330
17
100
AcDbEntity
  8
0
100
AcDbPoint
 10
90.38318169961485
 20
0.046493262806016844
 30
0.0
  0
POINT
  5
12B
330
17
100
AcDbEntity
  8
0
100
AcDbPoint
 10
90.7434205406098
 20
0.04674562247165426
 30
0.0
  0
POINT
  5
12C
330
17
100
AcDbEntity
  8
0
100
AcDbPoint
 10
91.10231674836933
 20
0.04690318494790091
 30
0.0
  0
POINT
  5
12D
330
17
100
AcDbEntity
  8
0
100
AcDbPoint
 10
91.46522753729107
 20
0.047128293992372505
 30
0.0
  0
POINT
  5
12E
330
17
100
AcDbEntity
  8
0
100
AcDbPoint
 10
91.82259893957871
 20
0.04735825541320082
 30
0.0
  0
POINT
  5
12F
330
17
100
AcDbEntity
  8
0
100
AcDbPoint
 10
92.18340853491236
 20
0.04751360080877731
 30
0.0
  0
POINT
  5
130
330
17
100
AcDbEntity
  8
0
100
AcDbPoint
 10
92.5435184950116
 20
0.047765361841619836
 30
0.0
  0
POINT
  5
131
330
17
100
AcDbEntity
  8
0
100
AcDbPoint
 10
92.90252410883437
 20
0.04792104071924541
 30
0.0
  0
POINT
  5
132
330
17
100
AcDbEntity
  8
0
100
AcDbPoint
 10
93.26546309453727
 20
0.04814845953849556
 30
0.0
  0
POINT
  5
133
330
17
100
AcDbEntity
  8
0
100
AcDbPoint
 10
93.62279392864275
 20
0.04837715282182131
 30
0.0
  0
POINT
  5
134
330
17
100
AcDbEntity
  8
0
100
AcDbPoint
 10
93.98363320806993
 20
0.04853377888470334
 30
0.0
  0
POINT
  5
135
330
17
100
AcDbEntity
  8
0
100
AcDbPoint
 10
94.34363817588314
 20
0.04878498673757292
 30
0.0
  0
POINT
  5
136
330
17
100
AcDbEntity
  8
0
100
AcDbPoint
 10
94.70273071944604
 20
0.0489392946102285
 30
0.0
  0
POINT
  5
137
330
17
100
AcDbEntity
  8
0
100
AcDbPoint
 10
95.06568022447425
 20
0.0491684639140928
 30
0.0
  0
POINT
  5
138
330
17
100
AcDbEntity
  8
0
100
AcDbPoint
 10
95.42298869538178
 20
0.04939597871612733
 30
0.0
  0
POINT
  5
139
330
17
100
AcDbEntity
  8
0
100
AcDbPoint
 10
95.78385579170526
 20
0.04955380078279603
 30
0.0
  0
POINT
  5
13A
330
17
100
AcDbEntity
  8
0
100
AcDbPoint
 10
96.14382617435257
 20
0.04980452644423394
 30
0.0
  0
POINT
  5
13B
330
17
100
AcDbEntity
  8
0
100
AcDbPoint
 10
96.50293714314842
 20
0.049959144832897096
 30
0.0
  0
POINT
  5
13C
330
17
100
AcDbEntity
  8
0
100
AcDbPoint
 10
96.86583218716015
 20
0.05018828602183589
 30
0.0
  0
POINT
  5
13D
330
17
100
AcDbEntity
  8
0
100
AcDbPoint
 10
97.22318300445113
 20
0.05041473603300517
 30
0.0
  0
POINT
  5
13E
330
17
100
AcDbEntity
  8
0
100
AcDbPoint
 10
97.58407628555352
 20
0.0505736690159182
 30
0.0
  0
POINT
  5
13F
330
17
100
AcDbEntity
  8
0
100
AcDbPoint
 10
97.94401448434235
 20
0.05082394554173675
 30
0.0
  0
POINT
  5
140
330
17
100
AcDbEntity
  8
0
100
AcDbPoint
 10
98.30314255285566
 20
0.05097885056611062
 30
0.0
  0
POINT
  5
141
330
17
100
AcDbEntity
  8
0
100
AcDbPoint
 10
98.66598718972278
 20
0.05120796420453644
 30
0.0
  0
POINT
  5
142
330
17
100
AcDbEntity
  8
0
100
AcDbPoint
 10
99.0233771619462
 20
0.05143342794054462
 30
0.0
  0
POINT
  5
143
330
17
100
AcDbEntity
  8
0
100
AcDbPoint
 10
99.38429468450943
 20
0.05159338646493694
 30
0.0
  0
POINT
  5
144
330
17
100
AcDbEntity
  8
0
100
AcDbPoint
 10
99.74420310340349
 20
0.05184324688116959
 30
0.0
  0
POINT
  5
145
330
17
100
AcDbEntity
  8
0
100
AcDbPoint
 10
100.10334694624134
 20
0.05199841462139432
 30
0.0
  0
POINT
  5
146
330
17
100
AcDbEntity
  8
0
100
AcDbPoint
 10
100.46614522956844
 20
0.05222750122400299
 30
0.0
  0
POINT
  5
147
330
17
100
AcDbEntity
  8
0
100
AcDbPoint
 10
100.82357116548542
 20
0.05245205718068746
 30
0.0
  0
POINT
  5
148
330
17
100
AcDbEntity
  8
0
100
AcDbPoint
 10
101.18451098631192
 20
0.05261295582481296
 30
0.0
  0
POINT
  5
149
330
17
100
AcDbEntity
  8
0
100
AcDbPoint
 10
101.54439202910925
 20
0.05286243312667693
 30
0.0
  0
POINT
  5
14A
330
17
100
AcDbEntity
  8
0
100
AcDbPoint
 10
101.90355032096454
 20
0.05301783962383411
 30
0.0
  0
POINT
  5
14B
330
17
100
AcDbEntity
  8
0
100
AcDbPoint
 10
102.26630630406481
 20
0.05324689965656404
 30
0.0
  0
POINT
  5
14C
330
17
100
AcDbEntity
  8
0
100
AcDbPoint
 10
102.62376501264077
 20
0.05347062630878696
 30
0.0
  0
POINT
  5
14D
330
17
100
AcDbEntity
  8
0
100
AcDbPoint
 10
102.9847251886606
 20
0.05363237960420264
 30
0.0
  0
POINT
  5
14E
330
17
100
AcDbEntity
  8
0
100
AcDbPoint
 10
103.34458125898414
 20
0.05388150675574366
 30
0.0
  0
POINT
  5
14F
330
17
100
AcDbEntity
  8
0
100
AcDbPoint
 10
103.70375267463328
 20
0.05403712801155791
 30
0.0
  0
POINT
  5
150
330
17
100
AcDbEntity
  8
0
100
AcDbPoint
 10
104.06647041055356
 20
0.05426616189254929
 30
0.0
  0
POINT
  5
151
330
17
100
AcDbEntity
  8
0
100
AcDbPoint
 10
104.42395870095231
 20
0.05448913769333075
 30
0.0
  0
POINT
  5
152
330
17
100
AcDbEntity
  8
0
100
AcDbPoint
 10
104.78493728922251
 20
0.054651660125230705
 30
0.0
  0
POINT
  5
153
330
17
100
AcDbEntity
  8
0
100
AcDbPoint
 10
105.14477079052728
 20
0.054900470059081385
 30
0.0
  0
POINT
  5
154
330
17
100
AcDbEntity
  8
0
100
AcDbPoint
 10
105.50395400481756
 20
0.055056282036019866
 30
0.0
  0
POINT
  5
155
330
17
100
AcDbEntity
  8
0
100
AcDbPoint
 10
105.86663754634145
 20
0.05528529013641048
 30
0.0
  0
POINT
  5
156
330
17
100
AcDbEntity
  8
0
100
AcDbPoint
 10
106.22415222792563
 20
0.05550759351611134
 30
0.0
  0
POINT
  5
157
330
17
100
AcDbEntity
  8
0
100
AcDbPoint
 10
106.58514728561704
 20
0.05567079952362519
 30
0.0
  0
POINT
  5
158
330
17
100
AcDbEntity
  8
0
100
AcDbPoint
 10
106.94496062119862
 20
0.055919325140393994
 30
0.0
  0
POINT
  5
159
330
17
100
AcDbEntity
  8
0
100
AcDbPoint
 10
107.30415430906487
 20
0.056075303761879525
 30
0.0
  0
POINT
  5
15A
330
17
100
AcDbEntity
  8
0
100
AcDbPoint
 10
107.66680770871278
 20
0.05630428640692742
 30
0.0
  0
POINT
  5
15B
330
17
100
AcDbEntity
  8
0
100
AcDbPoint
 10
108.02434559102824
 20
0.056525995772290116
 30
0.0
  0
POINT
  5
15C
330
17
100
AcDbEntity
  8
0
100
AcDbPoint
 10
108.38535517542925
 20
0.05668979974878141
 30
0.0
  0
POINT
  5
15D
330
17
100
AcDbEntity
  8
0
100
AcDbPoint
 10
108.74515074842168
 20
0.05693807391679684
 30
0.0
  0
POINT
  5
15E
330
17
100
AcDbEntity
  8
0
100
AcDbPoint
 10
109.10435358487047
 20
0.05709419506706581
 30
0.0
  0
POINT
  5
15F
330
17
100
AcDbEntity
  8
0
100
AcDbPoint
 10
109.4669808949161
 20
0.057323152536838506
 30
0.0
  0
POINT
  5
160
330
17
100
AcDbEntity
  8
0
100
AcDbPoint
 10
109.8245387876961
 20
0.05754434627023386
 30
0.0
  0
POINT
  5
161
330
17
100
AcDbEntity
  8
0
100
AcDbPoint
 10
110.18556095620363
 20
0.05770866256360563
 30
0.0
  0
POINT
  5
162
330
17
100
AcDbEntity
  8
0
100
AcDbPoint
 10
110.5453411695911
 20
0.05795671811851122
 30
0.0
  0
POINT
  5
163
330
17
100
AcDbEntity
  8
0
100
AcDbPoint
 10
110.90455182969816
 20
0.05811295764281965
 30
0.0
  0
POINT
  5
164
330
17
100
AcDbEntity
  8
0
100
AcDbPoint
 10
111.26715710216558
 20
0.05834189017308944
 30
0.0
  0
POINT
  5
165
330
17
100
AcDbEntity
  8
0
100
AcDbPoint
 10
111.62473181533073
 20
0.05856264663155741
 30
0.0
  0
POINT
  5
166
330
17
100
AcDbEntity
  8
0
100
AcDbPoint
 10
111.98576462545242
 20
0.0587273895446927
 30
0.0
  0
POINT
  5
167
330
17
100
AcDbEntity
  8
0
100
AcDbPoint
 10
112.34553188206104
 20
0.05897525928903491
 30
0.0
  0
POINT
  5
168
330
17
100
AcDbEntity
  8
0
100
AcDbPoint
 10
112.70474904097506
 20
0.05913159299356607
 30
0.0
  0
POINT
  5
169
330
17
100
AcDbEntity
  8
0
100
AcDbPoint
 10
113.06733632765639
 20
0.05936050077686872
 30
0.0
  0
POINT
  5
16A
330
17
100
AcDbEntity
  8
0
100
AcDbPoint
 10
113.42492467129443
 20
0.05958089829135815
 30
0.0
  0
POINT
  5
16B
330
17
100
AcDbEntity
  8
0
100
AcDbPoint
 10
113.78596618063614
 20
0.05974598208219817
 30
0.0
  0
POINT
  5
16C
330
17
100
AcDbEntity
  8
0
100
AcDbPoint
 10
114.14572288315554
 20
0.05999369878501426
 30
0.0
  0
POINT
  5
16D
330
17
100
AcDbEntity
  8
0
100
AcDbPoint
 10
114.5049452160955
 20
0.06015010243712737
 30
0.0
  0
POINT
  5
16E
330
17
100
AcDbEntity
  8
0
100
AcDbPoint
 10
114.86751856853493
 20
0.060378985623522397
 30
0.0
  0
POINT
  5
16F
330
17
100
AcDbEntity
  8
0
100
AcDbPoint
 10
115.2251173589508
 20
0.06059910250092315
 30
0.0
  0
POINT
  5
170
330
17
100
AcDbEntity
  8
0
100
AcDbPoint
 10
115.58616565155239
 20
0.06076444155323202
 30
0.0
  0
POINT
  5
171
330
17
100
AcDbEntity
  8
0
100
AcDbPoint
 10
115.9459144194451
 20
0.06101203874502659
 30
0.0
  0
POINT
  5
172
330
17
100
AcDbEntity
  8
0
100
AcDbPoint
 10
116.30514092914632
 20
0.06116849395316848
 30
0.0
  0
POINT
  5
173
330
17
100
AcDbEntity
  8
0
100
AcDbPoint
 10
116.6677045857644
 20
0.06139736184748301
 30
0.0
  0
POINT
  5
174
330
17
100
AcDbEntity
  8
0
100
AcDbPoint
 10
117.02531056763871
 20
0.061617286719965136
 30
0.0
  0
POINT
  5
175
330
17
100
AcDbEntity
  8
0
100
AcDbPoint
 10
117.38636360058536
 20
0.06178280245739387
 30
0.0
  0
POINT
  5
176
330
17
100
AcDbEntity
  8
0
100
AcDbPoint
 10
117.74610642578267
 20
0.06203032044999901
 30
0.0
  0
POINT
  5
177
330
17
100
AcDbEntity
  8
0
100
AcDbPoint
 10
118.10533509684342
 20
0.062186799251975344
 30
0.0
  0
POINT
  5
178
330
17
100
AcDbEntity
  8
0
100
AcDbPoint
 10
118.46789277568911
 20
0.062415641851480075
 30
0.0
  0
POINT
  5
179
330
17
100
AcDbEntity
  8
0
100
AcDbPoint
 10
118.82550281340065
 20
0.06263544131492438
 30
0.0
  0
POINT
  5
17A
330
17
100
AcDbEntity
  8
0
100
AcDbPoint
 10
119.18655872317015
 20
0.06280103950474825
 30
0.0
  0
POINT
  5
17B
330
17
100
AcDbEntity
  8
0
100
AcDbPoint
 10
119.54629819604537
 20
0.06304850137065898
 30
0.0
  0
POINT
  5
17C
330
17
100
AcDbEntity
  8
0
100
AcDbPoint
 10
119.90552806982646
 20
0.0632049761266984
 30
0.0
  0
POINT
  5
17D
330
17
100
AcDbEntity
  8
0
100
AcDbPoint
 10
120.26808395881187
 20
0.0634337932081479
 30
0.0
  0
POINT
  5
17E
330
17
100
AcDbEntity
  8
0
100
AcDbPoint
 10
120.62569487567401
 20
0.06365354549345881
 30
0.0
  0
POINT
  5
17F
330
17
100
AcDbEntity
  8
0
100
AcDbPoint
 10
120.98675172007785
 20
0.06381914021546464
 30
0.0
  0
POINT
  5
180
330
17
100
AcDbEntity
  8
0
100
AcDbPoint
 10
121.34649024283618
 20
0.06406657858690323
 30
0.0
  0
POINT
  5
181
330
17
100
AcDbEntity
  8
0
100
AcDbPoint
 10
121.70571999477431
 20
0.06422302490867082
 30
0.0
  0
POINT
  5
182
330
17
100
AcDbEntity
  8
0
100
AcDbPoint
 10
122.06827814468653
 20
0.06445181646150644
 30
0.0
  0
POINT
  5
183
330
17
100
AcDbEntity
  8
0
100
AcDbPoint
 10
122.42588675150802
 20
0.06467159975773029
 30
0.0
  0
POINT
  5
184
330
17
100
AcDbEntity
  8
0
100
AcDbPoint
 10
122.78694258858167
 20
0.06483710504861051
 30
0.0
  0
POINT
  5
185
330
17
100
AcDbEntity
  8
0
100
AcDbPoint
 10
123.14668256330094
 20
0.06508455252227208
 30
0.0
  0
POINT
  5
186
330
17
100
AcDbEntity
  8
0
100
AcDbPoint
 10
123.50591086888465
 20
0.06524094598272967
 30
0.0
  0
POINT
  5
187
330
17
100
AcDbEntity
  8
0
100
AcDbPoint
 10
123.86847533030726
 20
0.0654697119581229
 30
0.0
  0
POINT
  5
188
330
17
100
AcDbEntity
  8
0
100
AcDbPoint
 10
124.22607843805423
 20
0.0656896044229569
 30
0.0
  0
POINT
  5
189
330
17
100
AcDbEntity
  8
0
100
AcDbPoint
 10
124.58713132592243
 20
0.06585493427665057
 30
0.0
  0
POINT
  5
18A
330
17
100
AcDbEntity
  8
0
100
AcDbPoint
 10
124.94687515455604
 20
0.0661024234133265
 30
0.0
  0
POINT
  5
18B
330
17
100
AcDbEntity
  8
0
100
AcDbPoint
 10
125.30610068933225
 20
0.0662587395469032
 30
0.0
  0
POINT
  5
18C
330
17
100
AcDbEntity
  8
0
100
AcDbPoint
 10
125.66867551265545
 20
0.06648747985894232
 30
0.0
  0
POINT
  5
18D
330
17
100
AcDbEntity
  8
0
100
AcDbPoint
 10
126.02626993242711
 20
0.06670755961796004
 30
0.0
  0
POINT
  5
18E
330
17
100
AcDbEntity
  8
0
100
AcDbPoint
 10
126.38731792929559
 20
0.06687262798578786
 30
0.0
  0
POINT
  5
18F
330
17
100
AcDbEntity
  8
0
100
AcDbPoint
 10
126.747068013682
 20
0.06712019131002478
 30
0.0
  0
POINT
  5
190
330
17
100
AcDbEntity
  8
0
100
AcDbPoint
 10
127.10628945324567
 20
0.06727640561262405
 30
0.0
  0
POINT
  5
191
330
17
100
AcDbEntity
  8
0
100
AcDbPoint
 10
127.46887868867469
 20
0.06750512013891097
 30
0.0
  0
POINT
  5
192
330
17
100
AcDbEntity
  8
0
100
AcDbPoint
 10
127.82646123170775
 20
0.06772546528480916
 30
0.0
  0
POINT
  5
193
330
17
100
AcDbEntity
  8
0
100
AcDbPoint
 10
128.1875023958571
 20
0.06789018607587138
 30
0.0
  0
POINT
  5
194
330
17
100
AcDbEntity
  8
0
100
AcDbPoint
 10
128.54726113772324
 20
0.06813785607544531
 30
0.0
  0
POINT
  5
195
330
17
100
AcDbEntity
  8
0
100
AcDbPoint
 10
128.90647715772184
 20
0.06829394400451605
 30
0.0
  0
POINT
  5
196
330
17
100
AcDbEntity
  8
0
100
AcDbPoint
 10
129.26908485528077
 20
0.06852263258722502
 30
0.0
  0
POINT
  5
197
330
17
100
AcDbEntity
  8
0
100
AcDbPoint
 10
129.62665233294047
 20
0.06874332117882176
 30
0.0
  0
POINT
  5
198
330
17
100
AcDbEntity
  8
0
100
AcDbPoint
 10
129.9876847227266
 20
0.06890760826033926
 30
0.0
  0
POINT
  5
199
330
17
100
AcDbEntity
  8
0
100
AcDbPoint
 10
130.34745452368907
 20
0.06915541738592879
 30
0.0
  0
POINT
  5
19A
330
17
100
AcDbEntity
  8
0
100
AcDbPoint
 10
130.7066637998181
 20
0.06931135436051505
 30
0.0
  0
POINT
  5
19B
330
17
100
AcDbEntity
  8
0
100
AcDbPoint
 10
131.06929400935326
 20
0.06954001680714583
 30
0.0
  0
POINT
  5
19C
330
17
100
AcDbEntity
  8
0
100
AcDbPoint
 10
131.42684323313551
 20
0.0697611268685634
 30
0.0
  0
POINT
  5
19D
330
17
100
AcDbEntity
  8
0
100
AcDbPoint
 10
131.78786490698883
 20
0.06992489406634661
 30
0.0
  0
POINT
  5
19E
330
17
100
AcDbEntity
  8
0
100
AcDbPoint
 10
132.14764816855626
 20
0.07017287473101419
 30
0.0
  0
POINT
  5
19F
330
17
100
AcDbEntity
  8
0
100
AcDbPoint
 10
132.50684937655808
 20
0.07032863613189022
 30
0.0
  0
POINT
  5
1A0
330
17
100
AcDbEntity
  8
0
100
AcDbPoint
 10
132.86950614774895
 20
0.07055727221616337
 30
0.0
  0
POINT
  5
1A1
330
17
100
AcDbEntity
  8
0
100
AcDbPoint
 10
133.2270339292652
 20
0.07077888173608926
 30
0.0
  0
POINT
  5
1A2
330
17
100
AcDbEntity
  8
0
100
AcDbPoint
 10
133.58804294567898
 20
0.07094204283461636
 30
0.0
  0
POINT
  5
1A3
330
17
100
AcDbEntity
  8
0
100
AcDbPoint
 10
133.9478420692638
 20
0.07119022741345304
 30
0.0
  0
POINT
  5
1A4
330
17
100
AcDbEntity
  8
0
100
AcDbPoint
 10
134.30703388492464
 20
0.07134578858310903
 30
0.0
  0
POINT
  5
1A5
330
17
100
AcDbEntity
  8
0
100
AcDbPoint
 10
134.66972126728712
 20
0.07157439804576171
 30
0.0
  0
POINT
  5
1A6
330
17
100
AcDbEntity
  8
0
100
AcDbPoint
 10
135.02722441826586
 20
0.07179658497650365
 30
0.0
  0
POINT
  5
1A7
330
17
100
AcDbEntity
  8
0
100
AcDbPoint
 10
135.38821883580306
 20
0.07195905371943212
 30
0.0
  0
POINT
  5
1A8
330
17
100
AcDbEntity
  8
0
100
AcDbPoint
 10
135.74803622272395
 20
0.07220747454916676
 30
0.0
  0
POINT
  5
1A9
330
17
100
AcDbEntity
  8
0
100
AcDbPoint
 10
136.1072173218672
 20
0.07236281079202911
 30
0.0
  0
POINT
  5
1AA
330
17
100
AcDbEntity
  8
0
100
AcDbPoint
 10
136.46993936475997
 20
0.0725913933416038
 30
0.0
  0
POINT
  5
1AB
330
17
100
AcDbEntity
  8
0
100
AcDbPoint
 10
136.82741469704717
 20
0.0728142355984005
 30
0.0
  0
POINT
  5
1AC
330
17
100
AcDbEntity
  8
0
100
AcDbPoint
 10
137.18839257432376
 20
0.07297592568897926
 30
0.0
  0
POINT
  5
1AD
330
17
100
AcDbEntity
  8
0
100
AcDbPoint
 10
137.54823062580124
 20
0.07322461506735323
 30
0.0
  0
POINT
  5
1AE
330
17
100
AcDbEntity
  8
0
100
AcDbPoint
 10
137.90739968429364
 20
0.07337970164972774
 30
0.0
  0
POINT
  5
1AF
330
17
100
AcDbEntity
  8
0
100
AcDbPoint
 10
138.27016043692942
 20
0.07360825696343909
 30
0.0
  0
POINT
  5
1B0
330
17
100
AcDbEntity
  8
0
100
AcDbPoint
 10
138.62760476246996
 20
0.07383183242361469
 30
0.0
  0
POINT
  5
1B1
330
17
100
AcDbEntity
  8
0
100
AcDbPoint
 10
138.98856415816817
 20
0.07399265752466277
 30
0.0
  0
POINT
  5
1B2
330
17
100
AcDbEntity
  8
0
100
AcDbPoint
 10
139.3484252753393
 20
0.0742416477104868
 30
0.0
  0
POINT
  5
1B3
330
17
100
AcDbEntity
  8
0
100
AcDbPoint
 10
139.7075809690793
 20
0.07439645986048049
 30
0.0
  0
POINT
  5
1B4
330
17
100
AcDbEntity
  8
0
100
AcDbPoint
 10
140.07038448052867
 20
0.07462498758528113
 30
0.0
  0
POINT
  5
1B5
330
17
100
AcDbEntity
  8
0
100
AcDbPoint
 10
140.42779461136945
 20
0.07484937408725756
 30
0.0
  0
POINT
  5
1B6
330
17
100
AcDbEntity
  8
0
100
AcDbPoint
 10
140.78873358421907
 20
0.07500924782199547
 30
0.0
  0
POINT
  5
1B7
330
17
100
AcDbEntity
  8
0
100
AcDbPoint
 10
141.14862016813652
 20
0.07525857103406253
 30
0.0
  0
POINT
  5
1B8
330
17
100
AcDbEntity
  8
0
100
AcDbPoint
 10
141.50776117306089
 20
0.0754130839420668
 30
0.0
  0
POINT
  5
1B9
330
17
100
AcDbEntity
  8
0
100
AcDbPoint
 10
141.87061149225377
 20
0.07564158369503104
 30
0.0
  0
POINT
  5
1BA
330
17
100
AcDbEntity
  8
0
100
AcDbPoint
 10
142.22798424054156
 20
0.07586685903772405
 30
0.0
  0
POINT
  5
1BB
330
17
100
AcDbEntity
  8
0
100
AcDbPoint
 10
142.58890084932625
 20
0.07602569498973821
 30
0.0
  0
POINT
  5
1BC
330
17
100
AcDbEntity
  8
0
100
AcDbPoint
 10
142.9488153009628
 20
0.07627538340691586
 30
0.0
  0
POINT
  5
1BD
330
17
100
AcDbEntity
  8
0
100
AcDbPoint
 10
143.30794029303877
 20
0.07642957222532942
 30
0.0
  0
POINT
  5
1BE
330
17
100
AcDbEntity
  8
0
100
AcDbPoint
 10
143.67084146877528
 20
0.07665804359486827
 30
0.0
  0
POINT
  5
1BF
330
17
100
AcDbEntity
  8
0
100
AcDbPoint
 10
144.0281736467441
 20
0.07688428553664295
 30
0.0
  0
POINT
  5
1C0
330
17
100
AcDbEntity
  8
0
100
AcDbPoint
 10
144.38906595029874
 20
0.07704199725047545
 30
0.0
  0
POINT
  5
1C1
330
17
100
AcDbEntity
  8
0
100
AcDbPoint
 10
144.74901067054873
 20
0.07729208301102375
 30
0.0
  0
POINT
  5
1C2
330
17
100
AcDbEntity
  8
0
100
AcDbPoint
 10
145.1081183257735
 20
0.07744592285439467
 30
0.0
  0
POINT
  5
1C3
330
17
100
AcDbEntity
  8
0
100
AcDbPoint
 10
145.47107440680014
 20
0.07767436540093797
 30
0.0
  0
POINT
  5
1C4
330
17
100
AcDbEntity
  8
0
100
AcDbPoint
 10
145.82836283889822
 20
0.07790165166719021
 30
0.0
  0
POINT
  5
1C5
330
17
100
AcDbEntity
  8
0
100
AcDbPoint
 10
146.1892288866773
 20
0.07805815295476748
 30
0.0
  0
POINT
  5
1C6
330
17
100
AcDbEntity
  8
0
100
AcDbPoint
 10
146.54924458935034
 20
0.07830868947014835
 30
0.0
  0
POINT
  5
1C7
330
17
100
AcDbEntity
  8
0
100
AcDbPoint
 10
146.90829585632696
 20
0.07846311755498903
 30
0.0
  0
POINT
  5
1C8
330
17
100
AcDbEntity
  8
0
100
AcDbPoint
 10
147.2712724033873
 20
0.0786905307159671
 30
0.0
  0
POINT
  5
1C9
330
17
100
AcDbEntity
  8
0
100
AcDbPoint
 10
147.62855238445616
 20
0.07891896921228891
 30
0.0
  0
POINT
  5
1CA
330
17
100
AcDbEntity
  8
0
100
AcDbPoint
 10
147.9893904084384
 20
0.07907418262429644
 30
0.0
  0
POINT
  5
1CB
330
17
100
AcDbEntity
  8
0
100
AcDbPoint
 10
148.34952870326748
 20
0.07932524014049136
 30
0.0
  0
POINT
  5
1CC
330
17
100
AcDbEntity
  8
0
100
AcDbPoint
 10
148.70847345847267
 20
0.07948147549929274
 30
0.0
  0
POINT
  5
1CD
330
17
100
AcDbEntity
  8
0
100
AcDbPoint
 10
149.07142391107908
 20
0.07970657520255742
 30
0.0
  0
POINT
  5
1CE
330
17
100
AcDbEntity
  8
0
100
AcDbPoint
 10
149.42874086455458
 20
0.0799362604005367
 30
0.0
  0
POINT
  5
1CF
330
17
100
AcDbEntity
  8
0
100
AcDbPoint
 10
149.7895490947688
 20
0.08009009197341754
 30
0.0
  0
POINT
  5
1D0
330
17
100
AcDbEntity
  8
0
100
AcDbPoint
 10
150.1498179512257
 20
0.08034169632531984
 30
0.0
  0
POINT
  5
1D1
330
17
100
AcDbEntity
  8
0
100
AcDbPoint
 10
150.50864943502154
 20
0.08049984626188689
 30
0.0
  0
POINT
  5
1D2
330
17
100
AcDbEntity
  8
0
100
AcDbPoint
 10
150.87157244410912
 20
0.08072247813679923
 30
0.0
  0
POINT
  5
1D3
330
17
100
AcDbEntity
  8
0
100
AcDbPoint
 10
151.22892905284584
 20
0.08095348985770556
 30
0.0
  0
POINT
  5
1D4
330
17
100
AcDbEntity
  8
0
100
AcDbPoint
 10
151.58970560517082
 20
0.08110585306787499
 30
0.0
  0
POINT
  5
1D5
330
17
100
AcDbEntity
  8
0
100
AcDbPoint
 10
151.9501131229418
 20
0.0813580397757363
 30
0.0
  0
POINT
  5
1D6
330
17
100
AcDbEntity
  8
0
100
AcDbPoint
 10
152.3088243812606
 20
0.0815182221923223
 30
0.0
  0
POINT
  5
1D7
330
17
100
AcDbEntity
  8
0
100
AcDbPoint
 10
152.671718209039
 20
0.08173823618862741
 30
0.0
  0
POINT
  5
1D8
330
17
100
AcDbEntity
  8
0
100
AcDbPoint
 10
153.02911697845798
 20
0.08197065492916522
 30
0.0
  0
POINT
  5
1D9
330
17
100
AcDbEntity
  8
0
100
AcDbPoint
 10
153.3898599362401
 20
0.08212146319775826
 30
0.0
  0
POINT
  5
1DA
330
17
100
AcDbEntity
  8
0
100
AcDbPoint
 10
153.7504142148307
 20
0.08237426780336676
 30
0.0
  0
POINT
  5
1DB
330
17
100
AcDbEntity
  8
0
100
AcDbPoint
 10
154.1089982937674
 20
0.08253660051469325
 30
0.0
  0
POINT
  5
1DC
330
17
100
AcDbEntity
  8
0
100
AcDbPoint
 10
154.47186120247625
 20
0.08275384654184137
 30
0.0
  0
POINT
  5
1DD
330
17
100
AcDbEntity
  8
0
100
AcDbPoint
 10
154.82930463794128
 20
0.08298775275567039
 30
0.0
  0
POINT
  5
1DE
330
17
100
AcDbEntity
  8
0
100
AcDbPoint
 10
155.19001208455245
 20
0.083136919466817
 30
0.0
  0
POINT
  5
1DF
330
17
100
AcDbEntity
  8
0
100
AcDbPoint
 10
155.55072122329034
 20
0.08339037753685119
 30
0.0
  0
POINT
  5
1E0
330
17
100
AcDbEntity
  8
0
100
AcDbPoint
 10
155.90917116908292
 20
0.08355497826688918
 30
0.0
  0
POINT
  5
1E1
330
17
100
AcDbEntity
  8
0
100
AcDbPoint
 10
156.2720014209773
 20
0.08376930619414935
 30
0.0
  0
POINT
  5
1E2
330
17
100
AcDbEntity
  8
0
100
AcDbPoint
 10
156.62949202780533
 20
0.08400478029125225
 30
0.0
  0
POINT
  5
1E3
330
17
100
AcDbEntity
  8
0
100
AcDbPoint
 10
156.9901620466403
 20
0.08415221879229051
 30
0.0
  0
POINT
  5
1E4
330
17
100
AcDbEntity
  8
0
100
AcDbPoint
 10
157.35103414468472
 20
0.08440636592153083
 30
0.0
  0
POINT
  5
1E5
330
17
100
AcDbEntity
  8
0
100
AcDbPoint
 10
157.7093430037179
 20
0.08457335229998364
 30
0.0
  0
POINT
  5
1E6
330
17
100
AcDbEntity
  8
0
100
AcDbPoint
 10
158.07213886106638
 20
0.08478461195723952
 30
0.0
  0
POINT
  5
1E7
330
17
100
AcDbEntity
  8
0
100
AcDbPoint
 10
158.42967914453016
 20
0.08502173430307636
 30
0.0
  0
POINT
  5
1E8
330
17
100
AcDbEntity
  8
0
100
AcDbPoint
 10
158.7903098190077
 20
0.08516735790523455
 30
0.0
  0
POINT
  5
1E9
330
17
100
AcDbEntity
  8
0
100
AcDbPoint
 10
159.15135297535164
 20
0.08542222971986035
 30
0.0
  0
POINT
  5
1EA
330
17
100
AcDbEntity
  8
0
100
AcDbPoint
 10
159.50951379413334
 20
0.0855917192786606
 30
0.0
  0
POINT
  5
1EB
330
17
100
AcDbEntity
  8
0
100
AcDbPoint
 10
159.87227351922752
 20
0.08579976045667337
 30
0.0
  0
POINT
  5
1EC
330
17
100
AcDbEntity
  8
0
100
AcDbPoint
 10
160.22986598455543
 20
0.08603861137174107
 30
0.0
  0
POINT
  5
1ED
330
17
100
AcDbEntity
  8
0
100
AcDbPoint
 10
160.59045539810768
 20
0.08618233335005954
 30
0.0
  0
POINT
  5
1EE
330
17
100
AcDbEntity
  8
0
100
AcDbPoint
 10
160.95167771160743
 20
0.08643796551098148
 30
0.0
  0
POINT
  5
1EF
330
17
100
AcDbEntity
  8
0
100
AcDbPoint
 10
161.309683536762
 20
0.08661007568104395
 30
0.0
  0
POINT
  5
1F0
330
17
100
AcDbEntity
  8
0
100
AcDbPoint
 10
161.67240539190436
 20
0.08681474813188572
 30
0.0
  0
POINT
  5
1F1
330
17
100
AcDbEntity
  8
0
100
AcDbPoint
 10
162.03005254429274
 20
0.08705540789097199
 30
0.0
  0
POINT
  5
1F2
330
17
100
AcDbEntity
  8
0
100
AcDbPoint
 10
162.39059878035778
 20
0.08719714148501367
 30
0.0
  0
POINT
  5
1F3
330
17
100
AcDbEntity
  8
0
100
AcDbPoint
 10
162.7520083497352
 20
0.08745356969095042
 30
0.0
  0
POINT
  5
1F4
330
17
100
AcDbEntity
  8
0
100
AcDbPoint
 10
163.109852228004
 20
0.08762841779873298
 30
0.0
  0
POINT
  5
1F5
330
17
100
AcDbEntity
  8
0
100
AcDbPoint
 10
163.4725344754944
 20
0.08782957123644763
 30
0.0
  0
POINT
  5
1F6
330
17
100
AcDbEntity
  8
0
100
AcDbPoint
 10
163.83023882010468
 20
0.0880721200676291
 30
0.0
  0
POINT
  5
1F7
330
17
100
AcDbEntity
  8
0
100
AcDbPoint
 10
164.19073996214524
 20
0.08821177848172823
 30
0.0
  0
POINT
  5
1F8
330
17
100
AcDbEntity
  8
0
100
AcDbPoint
 10
164.55234488599672
 20
0.08846903847270227
 30
0.0
  0
POINT
  5
1F9
330
17
100
AcDbEntity
  8
0
100
AcDbPoint
 10
164.9100198642078
 20
0.08864674173669584
 30
0.0
  0
POINT
  5
1FA
330
17
100
AcDbEntity
  8
0
100
AcDbPoint
 10
165.2726607663634
 20
0.0888442258375548
 30
0.0
  0
POINT
  5
1FB
330
17
100
AcDbEntity
  8
0
100
AcDbPoint
 10
165.6304248083311
 20
0.0890887439219128
 30
0.0
  0
POINT
  5
1FC
330
17
100
AcDbEntity
  8
0
100
AcDbPoint
 10
165.9908789398013
 20
0.08922624032550885
 30
0.0
  0
POINT
  5
1FD
330
17
100
AcDbEntity
  8
0
100
AcDbPoint
 10
166.3526873166254
 20
0.08948436788580949
 30
0.0
  0
POINT
  5
1FE
330
17
100
AcDbEntity
  8
0
100
AcDbPoint
 10
166.7101864417043
 20
0.08966504341341164
 30
0.0
  0
POINT
  5
1FF
330
17
100
AcDbEntity
  8
0
100
AcDbPoint
 10
167.0727842608361
 20
0.08985870781649652
 30
0.0
  0
POINT
  5
200
330
17
100
AcDbEntity
  8
0
100
AcDbPoint
 10
167.43061050527115
 20
0.09010527528726442
 30
0.0
  0
POINT
  5
201
330
17
100
AcDbEntity
  8
0
100
AcDbPoint
 10
167.7910157096344
 20
0.09024052281527162
 30
0.0
  0
POINT
  5
202
330
17
100
AcDbEntity
  8
0
100
AcDbPoint
 10
168.1530356378271
 20
0.09049955377696506
 30
0.0
  0
POINT
  5
203
330
17
100
AcDbEntity
  8
0
100
AcDbPoint
 10
168.51035195676855
 20
0.09068331856080647
 30
0.0
  0
POINT
  5
204
330
17
100
AcDbEntity
  8
0
100
AcDbPoint
 10
168.8729049551863
 20
0.0908730128684212
 30
0.0
  0
POINT
  5
205
330
17
100
AcDbEntity
  8
0
100
AcDbPoint
 10
169.23079590718748
 20
0.09112170981008916
 30
0.0
  0
POINT
  5
206
330
17
100
AcDbEntity
  8
0
100
AcDbPoint
 10
169.59115026791312
 20
0.09125462156346487
 30
0.0
  0
POINT
  5
207
330
17
100
AcDbEntity
  8
0
100
AcDbPoint
 10
169.9533898457804
 20
0.09151459180948507
 30
0.0
  0
POINT
  5
208
330
17
100
AcDbEntity
  8
0
100
AcDbPoint
 10
170.3105164056476
 20
0.09170156272408292
 30
0.0
  0
POINT
  5
209
330
17
100
AcDbEntity
  8
0
100
AcDbPoint
 10
170.6730228456679
 20
0.09188713650232216
 30
0.0
  0
POINT
  5
20A
330
17
100
AcDbEntity
  8
0
100
AcDbPoint
 10
171.0309810103064
 20
0.09213804295033867
 30
0.0
  0
POINT
  5
20B
330
17
100
AcDbEntity
  8
0
100
AcDbPoint
 10
171.39128261084466
 20
0.09226853199600527
 30
0.0
  0
POINT
  5
20C
330
17
100
AcDbEntity
  8
0
100
AcDbPoint
 10
171.75374993664184
 20
0.09252947746327322
 30
0.0
  0
POINT
  5
20D
330
17
100
AcDbEntity
  8
0
100
AcDbPoint
 10
172.11067978549272
 20
0.09271977126250164
 30
0.0
  0
POINT
  5
20E
330
17
100
AcDbEntity
  8
0
100
AcDbPoint
 10
172.47313795422394
 20
0.09290107408063619
 30
0.0
  0
POINT
  5
20F
330
17
100
AcDbEntity
  8
0
100
AcDbPoint
 10
172.83116584899255
 20
0.09315427066194815
 30
0.0
  0
POINT
  5
210
330
17
100
AcDbEntity
  8
0
100
AcDbPoint
 10
173.19141369721638
 20
0.09328225087028841
 30
0.0
  0
POINT
  5
211
330
17
100
AcDbEntity
  8
0
100
AcDbPoint
 10
173.554118102424
 20
0.09354423279432211
 30
0.0
  0
POINT
  5
212
330
17
100
AcDbEntity
  8
0
100
AcDbPoint
 10
173.91084409930488
 20
0.09373799757054257
 30
0.0
  0
POINT
  5
213
330
17
100
AcDbEntity
  8
0
100
AcDbPoint
 10
174.27325215258452
 20
0.09391489838950662
 30
0.0
  0
POINT
  5
214
330
17
100
AcDbEntity
  8
0
100
AcDbPoint
 10
174.631352394783
 20
0.09417049399497301
 30
0.0
  0
POINT
  5
215
330
17
100
AcDbEntity
  8
0
100
AcDbPoint
 10
174.99154265801417
 20
0.09429589941946404
 30
0.0
  0
POINT
  5
216
330
17
100
AcDbEntity
  8
0
100
AcDbPoint
 10
175.3544901834165
 20
0.09455893232357226
 30
0.0
  0
POINT
  5
217
330
17
100
AcDbEntity
  8
0
100
AcDbPoint
 10
175.711005437734
 20
0.09475625429226398
 30
0.0
  0
POINT
  5
218
330
17
100
AcDbEntity
  8
0
100
AcDbPoint
 10
176.0733617172233
 20
0.0949285839750047
 30
0.0
  0
POINT
  5
219
330
17
100
AcDbEntity
  8
0
100
AcDbPoint
 10
176.43153669102696
 20
0.09518663011697015
 30
0.0
  0
POINT
  5
21A
330
17
100
AcDbEntity
  8
0
100
AcDbPoint
 10
176.79166844190752
 20
0.09530935282678854
 30
0.0
  0
POINT
  5
21B
330
17
100
AcDbEntity
  8
0
100
AcDbPoint
 10
177.1548680210975
 20
0.09557347031442731
 30
0.0
  0
POINT
  5
21C
330
17
100
AcDbEntity
  8
0
100
AcDbPoint
 10
177.5111656956734
 20
0.09577446591340077
 30
0.0
  0
POINT
  5
21D
330
17
100
AcDbEntity
  8
0
100
AcDbPoint
 10
177.87346846364767
 20
0.09594207388816756
 30
0.0
  0
POINT
  5
21E
330
17
100
AcDbEntity
  8
0
100
AcDbPoint
 10
178.2317206740853
 20
0.09620265039631448
 30
0.0
  0
POINT
  5
21F
330
17
100
AcDbEntity
  8
0
100
AcDbPoint
 10
178.59179199606365
 20
0.09632260332892173
 30
0.0
  0
POINT
  5
220
330
17
100
AcDbEntity
  8
0
100
AcDbPoint
 10
178.95525172693056
 20
0.09658784158666833
 30
0.0
  0
POINT
  5
221
330
17
100
AcDbEntity
  8
0
100
AcDbPoint
 10
179.31132486918443
 20
0.0967926270452466
 30
0.0
  0
POINT
  5
222
330
17
100
AcDbEntity
  8
0
100
AcDbPoint
 10
179.67357238791647
 20
0.09695536270689331
 30
0.0
  0
POINT
  5
223
330
17
100
AcDbEntity
  8
0
100
AcDbPoint
 10
180.03190434000206
 20
0.09721854935801133
 30
0.0
  0
POINT
  5
224
330
17
100
AcDbEntity
  8
0
100
AcDbPoint
 10
180.39191331651534
 20
0.09733564541894424
 30
0.0
  0
POINT
  5
225
330
17
100
AcDbEntity
  8
0
100
AcDbPoint
 10
180.75564129730012
 20
0.09760204070395417
 30
0.0
  0
POINT
  5
226
330
17
100
AcDbEntity
  8
0
100
AcDbPoint
 10
181.1114829818109
 20
0.0978107321362458
 30
0.0
  0
POINT
  5
227
330
17
100
AcDbEntity
  8
0
100
AcDbPoint
 10
181.47367053444822
 20
0.0979684437952244
 30
0.0
  0
POINT
  5
228
330
17
100
AcDbEntity
  8
0
100
AcDbPoint
 10
181.83235956222123
 20
0.09823439078768104
 30
0.0
  0
POINT
  5
229
330
17
100
AcDbEntity
  8
0
100
AcDbPoint
 10
182.19203743175788
 20
0.09835545883865393
 30
0.0
  0
POINT
  5
22A
330
17
100
AcDbEntity
  8
0
100
AcDbPoint
 10
182.55576405559316
 20
0.09861588137907518
 30
0.0
  0
POINT
  5
22B
330
17
100
AcDbEntity
  8
0
100
AcDbPoint
 10
182.9116400055585
 20
0.09882877501801346
 30
0.0
  0
POINT
  5
22C
330
17
100
AcDbEntity
  8
0
100
AcDbPoint
 10
183.27376546556096
 20
0.0989813122753489
 30
0.0
  0
POINT
  5
22D
330
17
100
AcDbEntity
  8
0
100
AcDbPoint
 10
183.6328513313372
 20
0.0992501117762501
 30
0.0
  0
POINT
  5
22E
330
17
100
AcDbEntity
  8
0
100
AcDbPoint
 10
183.9921599878608
 20
0.0993760002373989
 30
0.0
  0
POINT
  5
22F
330
17
100
AcDbEntity
  8
0
100
AcDbPoint
 10
184.3558556895268
 20
0.09962951286426858
 30
0.0
  0
POINT
  5
230
330
17
100
AcDbEntity
  8
0
100
AcDbPoint
 10
184.71179593371878
 20
0.09984675007410004
 30
0.0
  0
POINT
  5
231
330
17
100
AcDbEntity
  8
0
100
AcDbPoint
 10
185.073857468542
 20
0.09999396226986335
 30
0.0
  0
POINT
  5
232
330
17
100
AcDbEntity
  8
0
100
AcDbPoint
 10
185.43335160365834
 20
0.10026569953677722
 30
0.0
  0
POINT
  5
233
330
17
100
AcDbEntity
  8
0
100
AcDbPoint
 10
185.79228046173446
 20
0.10039654317614577
 30
0.0
  0
POINT
  5
234
330
17
100
AcDbEntity
  8
0
100
AcDbPoint
 10
186.1559443164738
 20
0.10064294765457049
 30
0.0
  0
POINT
  5
235
330
17
100
AcDbEntity
  8
0
100
AcDbPoint
 10
186.51195076220287
 20
0.10086465120952681
 30
0.0
  0
POINT
  5
236
330
17
100
AcDbEntity
  8
0
100
AcDbPoint
 10
186.87394653770824
 20
0.10100638761300473
 30
0.0
  0
POINT
  5
237
330
17
100
AcDbEntity
  8
0
100
AcDbPoint
 10
187.23386037635203
 20
0.10128114812665245
 30
0.0
  0
POINT
  5
238
330
17
100
AcDbEntity
  8
0
100
AcDbPoint
 10
187.59239886514678
 20
0.1014170814702382
 30
0.0
  0
POINT
  5
239
330
17
100
AcDbEntity
  8
0
100
AcDbPoint
 10
187.95603018810732
 20
0.10165618005117238
 30
0.0
  0
POINT
  5
23A
330
17
100
AcDbEntity
  8
0
100
AcDbPoint
 10
188.31210569603547
 20
0.10188247931352379
 30
0.0
  0
POINT
  5
23B
330
17
100
AcDbEntity
  8
0
100
AcDbPoint
 10
188.67403521783518
 20
0.10201861482624253
 30
0.0
  0
POINT
  5
23C
330
17
100
AcDbEntity
  8
0
100
AcDbPoint
 10
189.03438098052865
 20
0.10229652521090316
 30
0.0
  0
POINT
  5
23D
330
17
100
AcDbEntity
  8
0
100
AcDbPoint
 10
189.3925178345745
 20
0.10243772668086137
 30
0.0
  0
POINT
  5
23E
330
17
100
AcDbEntity
  8
0
100
AcDbPoint
 10
189.75611518886788
 20
0.1026693437717725
 30
0.0
  0
POINT
  5
23F
330
17
100
AcDbEntity
  8
0
100
AcDbPoint
 10
190.11225990164698
 20
0.1029003918330531
 30
0.0
  0
POINT
  5
240
330
17
100
AcDbEntity
  8
0
100
AcDbPoint
 10
190.47411856425796
 20
0.10303075132519268
 30
0.0
  0
POINT
  5
241
330
17
100
AcDbEntity
  8
0
100
AcDbPoint
 10
190.83490686585878
 20
0.10331185776207974
 30
0.0
  0
POINT
  5
242
330
17
100
AcDbEntity
  8
0
100
AcDbPoint
 10
191.1926321559198
 20
0.10345841822201152
 30
0.0
  0
POINT
  5
243
330
17
100
AcDbEntity
  8
0
100
AcDbPoint
 10
191.55619488785513
 20
0.10368233306599706
 30
0.0
  0
POINT
  5
244
330
17
100
AcDbEntity
  8
0
100
AcDbPoint
 10
191.91241152687115
 20
0.10391821675095514
 30
0.0
  0
POINT
  5
245
330
17
100
AcDbEntity
  8
0
100
AcDbPoint
 10
192.27419892546226
 20
0.10404264901939797
 30
0.0
  0
POINT
  5
246
330
17
100
AcDbEntity
  8
0
100
AcDbPoint
 10
192.63544124202718
 20
0.10432703780828234
 30
0.0
  0
POINT
  5
247
330
17
100
AcDbEntity
  8
0
100
AcDbPoint
 10
192.9927443793868
 20
0.10447909084541607
 30
0.0
  0
POINT
  5
248
330
17
100
AcDbEntity
  8
0
100
AcDbPoint
 10
193.35627156414884
 20
0.10469510502709056
 30
0.0
  0
POINT
  5
249
330
17
100
AcDbEntity
  8
0
100
AcDbPoint
 10
193.71256203677873
 20
0.10493594690502306
 30
0.0
  0
POINT
  5
24A
330
17
100
AcDbEntity
  8
0
100
AcDbPoint
 10
194.0742763370745
 20
0.10505430110795544
 30
0.0
  0
POINT
  5
24B
330
17
100
AcDbEntity
  8
0
100
AcDbPoint
 10
194.4359841014681
 20
0.10534205868585644
 30
0.0
  0
POINT
  5
24C
330
17
100
AcDbEntity
  8
0
100
AcDbPoint
 10
194.79285450072675
 20
0.10549973758011788
 30
0.0
  0
POINT
  5
24D
330
17
100
AcDbEntity
  8
0
100
AcDbPoint
 10
195.15634521345115
 20
0.10570765263813087
 30
0.0
  0
POINT
  5
24E
330
17
100
AcDbEntity
  8
0
100
AcDbPoint
 10
195.51271142710704
 20
0.10595357522651483
 30
0.0
  0
POINT
  5
24F
330
17
100
AcDbEntity
  8
0
100
AcDbPoint
 10
195.87435079476705
 20
0.1060657004948169
 30
0.0
  0
POINT
  5
250
330
17
100
AcDbEntity
  8
0
100
AcDbPoint
 10
196.23653543996184
 20
0.10635691355478372
 30
0.0
  0
POINT
  5
251
330
17
100
AcDbEntity
  8
0
100
AcDbPoint
 10
196.592962515629
 20
0.10652035126904025
 30
0.0
  0
POINT
  5
252
330
17
100
AcDbEntity
  8
0
100
AcDbPoint
 10
196.95641583140957
 20
0.10671996869649547
 30
0.0
  0
POINT
  5
253
330
17
100
AcDbEntity
  8
0
100
AcDbPoint
 10
197.3128596935364
 20
0.1069710944597162
 30
0.0
  0
POINT
  5
254
330
17
100
AcDbEntity
  8
0
100
AcDbPoint
 10
197.67442229418074
 20
0.1070768398975872
 30
0.0
  0
POINT
  5
255
330
17
100
AcDbEntity
  8
0
100
AcDbPoint
 10
198.03709525325937
 20
0.107371595395648
 30
0.0
  0
POINT
  5
256
330
17
100
AcDbEntity
  8
0
100
AcDbPoint
 10
198.39306841973735
 20
0.10754092456854636
 30
0.0
  0
POINT
  5
257
330
17
100
AcDbEntity
  8
0
100
AcDbPoint
 10
198.75648341365482
 20
0.10773204581330731
 30
0.0
  0
POINT
  5
258
330
17
100
AcDbEntity
  8
0
100
AcDbPoint
 10
199.1130068332544
 20
0.10798849716324099
 30
0.0
  0
POINT
  5
259
330
17
100
AcDbEntity
  8
0
100
AcDbPoint
 10
199.47449084960502
 20
0.1080877118974044
 30
0.0
  0
POINT
  5
25A
330
17
100
AcDbEntity
  8
0
100
AcDbPoint
 10
199.8376639954907
 20
0.1083860977919926
 30
0.0
  0
POINT
  5
25B
330
17
100
AcDbEntity
  8
0
100
AcDbPoint
 10
200.19317377724653
 20
0.1085614625422835
 30
0.0
  0
POINT
  5
25C
330
17
100
AcDbEntity
  8
0
100
AcDbPoint
 10
200.5565511221558
 20
0.10874391905311853
 30
0.0
  0
POINT
  5
25D
330
17
100
AcDbEntity
  8
0
100
AcDbPoint
 10
200.91315612602037
 20
0.10900587021104968
 30
0.0
  0
POINT
  5
25E
330
17
100
AcDbEntity
  8
0
100
AcDbPoint
 10
201.2745595759218
 20
0.10909843499048577
 30
0.0
  0
POINT
  5
25F
330
17
100
AcDbEntity
  8
0
100
AcDbPoint
 10
201.63824436614658
 20
0.10940058751752701
 30
0.0
  0
POINT
  5
260
330
17
100
AcDbEntity
  8
0
100
AcDbPoint
 10
201.99327716765805
 20
0.10958214970654723
 30
0.0
  0
POINT
  5
261
330
17
100
AcDbEntity
  8
0
100
AcDbPoint
 10
202.35660804678434
 20
0.10975570887368491
 30
0.0
  0
POINT
  5
262
330
17
100
AcDbEntity
  8
0
100
AcDbPoint
 10
202.71373949147608
 20
0.11002333422026567
 30
0.0
  0
POINT
  5
263
330
17
100
AcDbEntity
  8
0
100
AcDbPoint
 10
203.0746284900121
 20
0.11012023357269385
 30
0.0
  0
POINT
  5
264
330
17
100
AcDbEntity
  8
0
100
AcDbPoint
 10
203.4383901030588
 20
0.11041458086352662
 30
0.0
  0
POINT
  5
265
330
17
100
AcDbEntity
  8
0
100
AcDbPoint
 10
203.79337866665338
 20
0.11060277722705081
 30
0.0
  0
POINT
  5
266
330
17
100
AcDbEntity
  8
0
100
AcDbPoint
 10
204.15666109655228
 20
0.11076724157563689
 30
0.0
  0
POINT
  5
267
330
17
100
AcDbEntity
  8
0
100
AcDbPoint
 10
204.5144061335392
 20
0.11104069026732333
 30
0.0
  0
POINT
  5
268
330
17
100
AcDbEntity
  8
0
100
AcDbPoint
 10
204.87469562139498
 20
0.11114391727568318
 30
0.0
  0
POINT
  5
269
330
17
100
AcDbEntity
  8
0
100
AcDbPoint
 10
205.23845964096657
 20
0.11142830560299188
 30
0.0
  0
POINT
  5
26A
330
17
100
AcDbEntity
  8
0
100
AcDbPoint
 10
205.59347839000822
 20
0.11162333871969565
 30
0.0
  0
POINT
  5
26B
330
17
100
AcDbEntity
  8
0
100
AcDbPoint
 10
205.95671097914826
 20
0.11177850946812384
 30
0.0
  0
POINT
  5
26C
330
17
100
AcDbEntity
  8
0
100
AcDbPoint
 10
206.31508285018157
 20
0.11205791453220826
 30
0.0
  0
POINT
  5
26D
330
17
100
AcDbEntity
  8
0
100
AcDbPoint
 10
206.67475996346977
 20
0.11216759683689048
 30
0.0
  0
POINT
  5
26E
330
17
100
AcDbEntity
  8
0
100
AcDbPoint
 10
207.0385257899842
 20
0.11244181121733732
 30
0.0
  0
POINT
  5
26F
330
17
100
AcDbEntity
  8
0
100
AcDbPoint
 10
207.39357547409355
 20
0.11264381041444693
 30
0.0
  0
POINT
  5
270
330
17
100
AcDbEntity
  8
0
100
AcDbPoint
 10
207.7567463486309
 20
0.1127894841588244
 30
0.0
  0
POINT
  5
271
330
17
100
AcDbEntity
  8
0
100
AcDbPoint
 10
208.11572961542603
 20
0.11307467035931751
 30
0.0
  0
POINT
  5
272
330
17
100
AcDbEntity
  8
0
100
AcDbPoint
 10
208.47476855857144
 20
0.11319019681192799
 30
0.0
  0
POINT
  5
273
330
17
100
AcDbEntity
  8
0
100
AcDbPoint
 10
208.8384890411333
 20
0.11345336417127783
 30
0.0
  0
POINT
  5
274
330
17
100
AcDbEntity
  8
0
100
AcDbPoint
 10
209.1935411158592
 20
0.11366053586301206
 30
0.0
  0
POINT
  5
275
330
17
100
AcDbEntity
  8
0
100
AcDbPoint
 10
209.5566048294775
 20
0.11379511563563227
 30
0.0
  0
POINT
  5
276
330
17
100
AcDbEntity
  8
0
100
AcDbPoint
 10
209.9161247343677
 20
0.11408309101297931
 30
0.0
  0
POINT
  5
277
330
17
100
AcDbEntity
  8
0
100
AcDbPoint
 10
210.2745554726229
 20
0.11420102738215832
 30
0.0
  0
POINT
  5
278
330
17
100
AcDbEntity
  8
0
100
AcDbPoint
 10
210.63821602431935
 20
0.11445093881295776
 30
0.0
  0
POINT
  5
279
330
17
100
AcDbEntity
  8
0
100
AcDbPoint
 10
210.99326599991608
 20
0.11465949635125128
 30
0.0
  0
POINT
  5
27A
330
17
100
AcDbEntity
  8
0
100
AcDbPoint
 10
211.35622498967203
 20
0.11478069726911855
 30
0.0
  0
POINT
  5
27B
330
17
100
AcDbEntity
  8
0
100
AcDbPoint
 10
211.7162140847245
 20
0.11506766421631909
 30
0.0
  0
POINT
  5
27C
330
17
100
AcDbEntity
  8
0
100
AcDbPoint
 10
212.074093934626
 20
0.11518409306052035
 30
0.0
  0
POINT
  5
27D
330
17
100
AcDbEntity
  8
0
100
AcDbPoint
 10
212.43769356116348
 20
0.1154184536825511
 30
0.0
  0
POINT
  5
27E
330
17
100
AcDbEntity
  8
0
100
AcDbPoint
 10
212.79273707298003
 20
0.11562444561779728
 30
0.0
  0
POINT
  5
27F
330
17
100
AcDbEntity
  8
0
100
AcDbPoint
 10
213.15559641322943
 20
0.115729896601934
 30
0.0
  0
POINT
  5
280
330
17
100
AcDbEntity
  8
0
100
AcDbPoint
 10
213.51599302621779
 20
0.11601195059528635
 30
0.0
  0
POINT
  5
281
330
17
100
AcDbEntity
  8
0
100
AcDbPoint
 10
213.873384030777
 20
0.11612303003937541
 30
0.0
  0
POINT
  5
282
330
17
100
AcDbEntity
  8
0
100
AcDbPoint
 10
214.2369221405409
 20
0.11633956935354917
 30
0.0
  0
POINT
  5
283
330
17
100
AcDbEntity
  8
0
100
AcDbPoint
 10
214.5919550415792
 20
0.1165391140052634
 30
0.0
  0
POINT
  5
284
330
17
100
AcDbEntity
  8
0
100
AcDbPoint
 10
214.95471917562034
 20
0.11662647351555222
 30
0.0
  0
POINT
  5
285
330
17
100
AcDbEntity
  8
0
100
AcDbPoint
 10
215.31546064265103
 20
0.11689975531584196
 30
0.0
  0
POINT
  5
286
330
17
100
AcDbEntity
  8
0
100
AcDbPoint
 10
215.67242240225082
 20
0.11700165335332713
 30
0.0
  0
POINT
  5
287
330
17
100
AcDbEntity
  8
0
100
AcDbPoint
 10
216.035898326122
 20
0.11719809373479961
 30
0.0
  0
POINT
  5
288
330
17
100
AcDbEntity
  8
0
100
AcDbPoint
 10
216.3909166553869
 20
0.11738730948974307
 30
0.0
  0
POINT
  5
289
330
17
100
AcDbEntity
  8
0
100
AcDbPoint
 10
216.75359346832633
 20
0.11745423566901536
 30
0.0
  0
POINT
  5
28A
330
17
100
AcDbEntity
  8
0
100
AcDbPoint
 10
217.1146212362151
 20
0.1177149717964241
 30
0.0
  0
POINT
  5
28B
330
17
100
AcDbEntity
  8
0
100
AcDbPoint
 10
217.47121181497823
 20
0.11780396241464075
 30
0.0
  0
POINT
  5
28C
330
17
100
AcDbEntity
  8
0
100
AcDbPoint
 10
217.8346247897824
 20
0.11797807661972826
 30
0.0
  0
POINT
  5
28D
330
17
100
AcDbEntity
  8
0
100
AcDbPoint
 10
218.18962447298307
 20
0.11815318003218067
 30
0.0
  0
POINT
  5
28E
330
17
100
AcDbEntity
  8
0
100
AcDbPoint
 10
218.55221137900847
 20
0.11819737315702383
 30
0.0
  0
POINT
  5
28F
330
17
100
AcDbEntity
  8
0
100
AcDbPoint
 10
218.91345704411796
 20
0.1184416138290203
 30
0.0
  0
POINT
  5
290
330
17
100
AcDbEntity
  8
0
100
AcDbPoint
 10
219.2697370511989
 20
0.11851376957289261
 30
0.0
  0
POINT
  5
291
330
17
100
AcDbEntity
  8
0
100
AcDbPoint
 10
219.63308611200807
 20
0.11866322660207373
 30
0.0
  0
POINT
  5
292
330
17
100
AcDbEntity
  8
0
100
AcDbPoint
 10
219.98806306412047
 20
0.118820225197517
 30
0.0
  0
POINT
  5
293
330
17
100
AcDbEntity
  8
0
100
AcDbPoint
 10
220.3505678636556
 20
0.11883928789993092
 30
0.0
  0
POINT
  5
294
330
17
100
AcDbEntity
  8
0
100
AcDbPoint
 10
220.71197027374026
 20
0.11906314474491353
 30
0.0
  0
POINT
  5
295
330
17
100
AcDbEntity
  8
0
100
AcDbPoint
 10
221.0679998212108
 20
0.11911461975786608
 30
0.0
  0
POINT
  5
296
330
17
100
AcDbEntity
  8
0
100
AcDbPoint
 10
221.431288885085
 20
0.11923713459956531
 30
0.0
  0
POINT
  5
297
330
17
100
AcDbEntity
  8
0
100
AcDbPoint
 10
221.7862422767242
 20
0.11937224414219827
 30
0.0
  0
POINT
  5
298
330
17
100
AcDbEntity
  8
0
100
AcDbPoint
 10
222.1486700909505
 20
0.11936390429353594
 30
0.0
  0
POINT
  5
299
330
17
100
AcDbEntity
  8
0
100
AcDbPoint
 10
222.51016858978173
 20
0.11956363496881295
 30
0.0
  0
POINT
  5
29A
330
17
100
AcDbEntity
  8
0
100
AcDbPoint
 10
222.86600619626435
 20
0.11959071371497032
 30
0.0
  0
POINT
  5
29B
330
17
100
AcDbEntity
  8
0
100
AcDbPoint
 10
223.2292250202448
 20
0.11968409669920277
 30
0.0
  0
POINT
  5
29C
330
17
100
AcDbEntity
  8
0
100
AcDbPoint
 10
223.5841448451844
 20
0.11979330546244427
 30
0.0
  0
POINT
  5
29D
330
17
100
AcDbEntity
  8
0
100
AcDbPoint
 10
223.9464985133675
 20
0.11975515403796066
 30
0.0
  0
POINT
  5
29E
330
17
100
AcDbEntity
  8
0
100
AcDbPoint
 10
224.30802586490458
 20
0.11992673722409819
 30
0.0
  0
POINT
  5
29F
330
17
100
AcDbEntity
  8
0
100
AcDbPoint
 10
224.66373468628703
 20
0.11992539748413122
 30
0.0
  0
POINT
  5
2A0
330
17
100
AcDbEntity
  8
0
100
AcDbPoint
 10
225.0268933424105
 20
0.11998729948710007
 30
0.0
  0
POINT
  5
2A1
330
17
100
AcDbEntity
  8
0
100
AcDbPoint
 10
225.38178320306773
 20
0.12006681774487049
 30
0.0
  0
POINT
  5
2A2
330
17
100
AcDbEntity
  8
0
100
AcDbPoint
 10
225.74407906732174
 20
0.11999663180178999
 30
0.0
  0
POINT
  5
2A3
330
17
100
AcDbEntity
  8
0
100
AcDbPoint
 10
226.10560038092282
 20
0.1201366328876432
 30
0.0
  0
POINT
  5
2A4
330
17
100
AcDbEntity
  8
0
100
AcDbPoint
 10
226.46125197692038
 20
0.12010384106814342
 30
0.0
  0
POINT
  5
2A5
330
17
100
AcDbEntity
  8
0
100
AcDbPoint
 10
226.8240560655306
 20
0.12013266440565928
 30
0.0
  0
POINT
  5
2A6
330
17
100
AcDbEntity
  8
0
100
AcDbPoint
 10
227.18324885594996
 20
0.12017187600674362
 30
0.0
  0
POINT
  5
2A7
330
17
100
AcDbEntity
  8
0
100
AcDbPoint
 10
227.54069574642946
 20
0.12017955530763658
 30
0.0
  0
POINT
  5
2A8
330
17
100
AcDbEntity
  8
0
100
AcDbPoint
 10
227.8980830972808
 20
0.12015345899892083
 30
0.0
  0
POINT
  5
2A9
330
17
100
AcDbEntity
  8
0
100
AcDbPoint
 10
228.25892557432843
 20
0.12009418505391523
 30
0.0
  0
POINT
  5
2AA
330
17
100
AcDbEntity
  8
0
100
AcDbPoint
 10
228.62184468652563
 20
0.12008982299629167
 30
0.0
  0
POINT
  5
2AB
330
17
100
AcDbEntity
  8
0
100
AcDbPoint
 10
228.97671550304824
 20
0.12010591367013745
 30
0.0
  0
POINT
  5
2AC
330
17
100
AcDbEntity
  8
0
100
AcDbPoint
 10
229.33899475698874
 20
0.11996942531578014
 30
0.0
  0
POINT
  5
2AD
330
17
100
AcDbEntity
  8
0
100
AcDbPoint
 10
229.7005677293765
 20
0.12004469620934799
 30
0.0
  0
POINT
  5
2AE
330
17
100
AcDbEntity
  8
0
100
AcDbPoint
 10
230.05614389048935
 20
0.11994844438826391
 30
0.0
  0
POINT
  5
2AF
330
17
100
AcDbEntity
  8
0
100
AcDbPoint
 10
230.4192726026155
 20
0.11991066103902881
 30
0.0
  0
POINT
  5
2B0
330
17
100
AcDbEntity
  8
0
100
AcDbPoint
 10
230.77413995645526
 20
0.11989520743426851
 30
0.0
  0
POINT
  5
2B1
330
17
100
AcDbEntity
  8
0
100
AcDbPoint
 10
231.1364124674504
 20
0.11972546397641537
 30
0.0
  0
POINT
  5
2B2
330
17
100
AcDbEntity
  8
0
100
AcDbPoint
 10
231.49802377026563
 20
0.11976857051292455
 30
0.0
  0
POINT
  5
2B3
330
17
100
AcDbEntity
  8
0
100
AcDbPoint
 10
231.85354971456331
 20
0.11964081284199324
 30
0.0
  0
POINT
  5
2B4
330
17
100
AcDbEntity
  8
0
100
AcDbPoint
 10
232.21666768407076
 20
0.1195696000975488
 30
0.0
  0
POINT
  5
2B5
330
17
100
AcDbEntity
  8
0
100
AcDbPoint
 10
232.57152591528083
 20
0.11952258929042614
 30
0.0
  0
POINT
  5
2B6
330
17
100
AcDbEntity
  8
0
100
AcDbPoint
 10
232.93378700130174
 20
0.11931941802696144
 30
0.0
  0
POINT
  5
2B7
330
17
100
AcDbEntity
  8
0
100
AcDbPoint
 10
233.29544174642436
 20
0.11933021650952469
 30
0.0
  0
POINT
  5
2B8
330
17
100
AcDbEntity
  8
0
100
AcDbPoint
 10
233.6509200724564
 20
0.11917091932807722
 30
0.0
  0
POINT
  5
2B9
330
17
100
AcDbEntity
  8
0
100
AcDbPoint
 10
234.01403593924627
 20
0.11906620906108856
 30
0.0
  0
POINT
  5
2BA
330
17
100
AcDbEntity
  8
0
100
AcDbPoint
 10
234.36888974580802
 20
0.11898781909701484
 30
0.0
  0
POINT
  5
2BB
330
17
100
AcDbEntity
  8
0
100
AcDbPoint
 10
234.73114061997572
 20
0.11875127516614015
 30
0.0
  0
POINT
  5
2BC
330
17
100
AcDbEntity
  8
0
100
AcDbPoint
 10
235.09283752169307
 20
0.11872996910426536
 30
0.0
  0
POINT
  5
2BD
330
17
100
AcDbEntity
  8
0
100
AcDbPoint
 10
235.44825466333754
 20
0.1185391638014579
 30
0.0
  0
POINT
  5
2BE
330
17
100
AcDbEntity
  8
0
100
AcDbPoint
 10
235.81136114732465
 20
0.11840082153725717
 30
0.0
  0
POINT
  5
2BF
330
17
100
AcDbEntity
  8
0
100
AcDbPoint
 10
236.16621138393435
 20
0.11829088667582965
 30
0.0
  0
POINT
  5
2C0
330
17
100
AcDbEntity
  8
0
100
AcDbPoint
 10
236.52845845963782
 20
0.11802085518727523
 30
0.0
  0
POINT
  5
2C1
330
17
100
AcDbEntity
  8
0
100
AcDbPoint
 10
236.89020592445877
 20
0.11796743025221446
 30
0.0
  0
POINT
  5
2C2
330
17
100
AcDbEntity
  8
0
100
AcDbPoint
 10
237.24556595801442
 20
0.11774522746231497
 30
0.0
  0
POINT
  5
2C3
330
17
100
AcDbEntity
  8
0
100
AcDbPoint
 10
237.60866612552735
 20
0.11757335613012998
 30
0.0
  0
POINT
  5
2C4
330
17
100
AcDbEntity
  8
0
100
AcDbPoint
 10
237.96351325265843
 20
0.1174320552040129
 30
0.0
  0
POINT
  5
2C5
330
17
100
AcDbEntity
  8
0
100
AcDbPoint
 10
238.3257433180243
 20
0.117128658263006
 30
0.0
  0
POINT
  5
2C6
330
17
100
AcDbEntity
  8
0
100
AcDbPoint
 10
238.68752883416707
 20
0.11704295167304224
 30
0.0
  0
POINT
  5
2C7
330
17
100
AcDbEntity
  8
0
100
AcDbPoint
 10
239.04283535240205
 20
0.1167891548691955
 30
0.0
  0
POINT
  5
2C8
330
17
100
AcDbEntity
  8
0
100
AcDbPoint
 10
239.40593440655027
 20
0.11658368665860763
 30
0.0
  0
POINT
  5
2C9
330
17
100
AcDbEntity
  8
0
100
AcDbPoint
 10
239.7607827288723
 20
0.11641094459526613
 30
0.0
  0
POINT
  5
2CA
330
17
100
AcDbEntity
  8
0
100
AcDbPoint
 10
240.12300413147477
 20
0.11607422689596802
 30
0.0
  0
POINT
  5
2CB
330
17
100
AcDbEntity
  8
0
100
AcDbPoint
 10
240.48483159221072
 20
0.11595637026908179
 30
0.0
  0
POINT
  5
2CC
330
17
100
AcDbEntity
  8
0
100
AcDbPoint
 10
240.840086033087
 20
0.11567113194389833
 30
0.0
  0
POINT
  5
2CD
330
17
100
AcDbEntity
  8
0
100
AcDbPoint
 10
241.20317297384366
 20
0.11543225266196089
 30
0.0
  0
POINT
  5
2CE
330
17
100
AcDbEntity
  8
0
100
AcDbPoint
 10
241.5580148618019
 20
0.11522793693317368
 30
0.0
  0
POINT
  5
2CF
330
17
100
AcDbEntity
  8
0
100
AcDbPoint
 10
241.92022425196615
 20
0.11485788588678503
 30
0.0
  0
POINT
  5
2D0
330
17
100
AcDbEntity
  8
0
100
AcDbPoint
 10
242.2820873122667
 20
0.11470765059674193
 30
0.0
  0
POINT
  5
2D1
330
17
100
AcDbEntity
  8
0
100
AcDbPoint
 10
242.63730375286795
 20
0.11439079348895831
 30
0.0
  0
POINT
  5
2D2
330
17
100
AcDbEntity
  8
0
100
AcDbPoint
 10
243.00040157495005
 20
0.11411862771065273
 30
0.0
  0
POINT
  5
2D3
330
17
100
AcDbEntity
  8
0
100
AcDbPoint
 10
243.3552520378612
 20
0.11388313336961886
 30
0.0
  0
POINT
  5
2D4
330
17
100
AcDbEntity
  8
0
100
AcDbPoint
 10
243.71748635967853
 20
0.11348024682293811
 30
0.0
  0
POINT
  5
2D5
330
17
100
AcDbEntity
  8
0
100
AcDbPoint
 10
244.07944562110964
 20
0.11329894393058737
 30
0.0
  0
POINT
  5
2D6
330
17
100
AcDbEntity
  8
0
100
AcDbPoint
 10
244.434627865758
 20
0.11295251891010594
 30
0.0
  0
POINT
  5
2D7
330
17
100
AcDbEntity
  8
0
100
AcDbPoint
 10
244.7977765117937
 20
0.1126484919394386
 30
0.0
  0
POINT
  5
2D8
330
17
100
AcDbEntity
  8
0
100
AcDbPoint
 10
245.1526574515177
 20
0.11238485462241243
 30
0.0
  0
POINT
  5
2D9
330
17
100
AcDbEntity
  8
0
100
AcDbPoint
 10
245.51493741285685
 20
0.11195111310941286
 30
0.0
  0
POINT
  5
2DA
330
17
100
AcDbEntity
  8
0
100
AcDbPoint
 10
245.87706726787815
 20
0.11174229726440643
 30
0.0
  0
POINT
  5
2DB
330
17
100
AcDbEntity
  8
0
100
AcDbPoint
 10
246.23216301368655
 20
0.1113701868179433
 30
0.0
  0
POINT
  5
2DC
330
17
100
AcDbEntity
  8
0
100
AcDbPoint
 10
246.59537191397453
 20
0.11103656225987635
 30
0.0
  0
POINT
  5
2DD
330
17
100
AcDbEntity
  8
0
100
AcDbPoint
 10
246.95028937104053
 20
0.11074883650735501
 30
0.0
  0
POINT
  5
2DE
330
17
100
AcDbEntity
  8
0
100
AcDbPoint
 10
247.31260965551797
 20
0.11028664211800532
 30
0.0
  0
POINT
  5
2DF
330
17
100
AcDbEntity
  8
0
100
AcDbPoint
 10
247.6749762489622
 20
0.1100542162501057
 30
0.0
  0
POINT
  5
2E0
330
17
100
AcDbEntity
  8
0
100
AcDbPoint
 10
248.02991995527097
 20
0.10966050445960462
 30
0.0
  0
POINT
  5
2E1
330
17
100
AcDbEntity
  8
0
100
AcDbPoint
 10
248.39317917302787
 20
0.10929957518646205
 30
0.0
  0
POINT
  5
2E2
330
17
100
AcDbEntity
  8
0
100
AcDbPoint
 10
248.7483152292042
 20
0.10899130746100383
 30
0.0
  0
POINT
  5
2E3
330
17
100
AcDbEntity
  8
0
100
AcDbPoint
 10
249.11049309682383
 20
0.10850779376669806
 30
0.0
  0
POINT
  5
2E4
330
17
100
AcDbEntity
  8
0
100
AcDbPoint
 10
249.47297533121773
 20
0.10825092003486247
 30
0.0
  0
POINT
  5
2E5
330
17
100
AcDbEntity
  8
0
100
AcDbPoint
 10
249.82789254206298
 20
0.10783929856836494
 30
0.0
  0
POINT
  5
2E6
330
17
100
AcDbEntity
  8
0
100
AcDbPoint
 10
250.19120474215697
 20
0.10745333610271501
 30
0.0
  0
POINT
  5
2E7
330
17
100
AcDbEntity
  8
0
100
AcDbPoint
 10
250.54666314725307
 20
0.10712823399846627
 30
0.0
  0
POINT
  5
2E8
330
17
100
AcDbEntity
  8
0
100
AcDbPoint
 10
250.9085978769723
 20
0.10662844469091937
 30
0.0
  0
POINT
  5
2E9
330
17
100
AcDbEntity
  8
0
100
AcDbPoint
 10
251.27115722005772
 20
0.10634845003798432
 30
0.0
  0
POINT
  5
2EA
330
17
100
AcDbEntity
  8
0
100
AcDbPoint
 10
251.6260894369479
 20
0.10592274332909568
 30
0.0
  0
POINT
  5
2EB
330
17
100
AcDbEntity
  8
0
100
AcDbPoint
 10
251.98945452367306
 20
0.1055140912319743
 30
0.0
  0
POINT
  5
2EC
330
17
100
AcDbEntity
  8
0
100
AcDbPoint
 10
252.3452951625033
 20
0.10517591035194584
 30
0.0
  0
POINT
  5
2ED
330
17
100
AcDbEntity
  8
0
100
AcDbPoint
 10
252.70693095786277
 20
0.10466378447436853
 30
0.0
  0
POINT
  5
2EE
330
17
100
AcDbEntity
  8
0
100
AcDbPoint
 10
253.0695717593427
 20
0.10436312502800149
 30
0.0
  0
POINT
  5
2EF
330
17
100
AcDbEntity
  8
0
100
AcDbPoint
 10
253.42451749044398
 20
0.10392722516515818
 30
0.0
  0
POINT
  5
2F0
330
17
100
AcDbEntity
  8
0
100
AcDbPoint
 10
253.787933360313
 20
0.10349829452408699
 30
0.0
  0
POINT
  5
2F1
330
17
100
AcDbEntity
  8
0
100
AcDbPoint
 10
254.14420690904615
 20
0.10315078315482396
 30
0.0
  0
POINT
  5
2F2
330
17
100
AcDbEntity
  8
0
100
AcDbPoint
 10
254.5054865989777
 20
0.10263008595451595
 30
0.0
  0
POINT
  5
2F3
330
17
100
AcDbEntity
  8
0
100
AcDbPoint
 10
254.8682130845244
 20
0.10231116326372813
 30
0.0
  0
POINT
  5
2F4
330
17
100
AcDbEntity
  8
0
100
AcDbPoint
 10
255.22317102827054
 20
0.10186878789111375
 30
0.0
  0
POINT
  5
2F5
330
17
100
AcDbEntity
  8
0
100
AcDbPoint
 10
255.58663825760368
 20
0.10142193790987619
 30
0.0
  0
POINT
  5
2F6
330
17
100
AcDbEntity
  8
0
100
AcDbPoint
 10
255.94339956652493
 20
0.10106873976925357
 30
0.0
  0
POINT
  5
2F7
330
17
100
AcDbEntity
  8
0
100
AcDbPoint
 10
256.3042726810362
 20
0.1005432817604941
 30
0.0
  0
POINT
  5
2F8
330
17
100
AcDbEntity
  8
0
100
AcDbPoint
 10
256.6670890889603
 20
0.10020856362979202
 30
0.0
  0
POINT
  5
2F9
330
17
100
AcDbEntity
  8
0
100
AcDbPoint
 10
257.02205787268247
 20
0.09976348811240143
 30
0.0
  0
POINT
  5
2FA
330
17
100
AcDbEntity
  8
0
100
AcDbPoint
 10
257.38557615320246
 20
0.09930114271058699
 30
0.0
  0
POINT
  5
2FB
330
17
100
AcDbEntity
  8
0
100
AcDbPoint
 10
257.7428770262461
 20
0.09894594991043704
 30
0.0
  0
POINT
  5
2FC
330
17
100
AcDbEntity
  8
0
100
AcDbPoint
 10
258.10329243507744
 20
0.09841951725248776
 30
0.0
  0
POINT
  5
2FD
330
17
100
AcDbEntity
  8
0
100
AcDbPoint
 10
258.4662028751752
 20
0.0980714922532755
 30
0.0
  0
POINT
  5
2FE
330
17
100
AcDbEntity
  8
0
100
AcDbPoint
 10
258.82118114197476
 20
0.09762747197312649
 30
0.0
  0
POINT
  5
2FF
330
17
100
AcDbEntity
  8
0
100
AcDbPoint
 10
259.1847502235251
 20
0.09715207550049598
 30
0.0
  0
POINT
  5
300
330
17
100
AcDbEntity
  8
0
100
AcDbPoint
 10
259.54264111911004
 20
0.09679857602409925
 30
0.0
  0
POINT
  5
301
330
17
100
AcDbEntity
  8
0
100
AcDbPoint
 10
259.9025490308037
 20
0.09627492650544411
 30
0.0
  0
POINT
  5
302
330
17
100
AcDbEntity
  8
0
100
AcDbPoint
 10
260.2655571143387
 20
0.09591610167955622
 30
0.0
  0
POINT
  5
303
330
17
100
AcDbEntity
  8
0
100
AcDbPoint
 10
260.6205424761127
 20
0.09547686524991406
 30
0.0
  0
POINT
  5
304
330
17
100
AcDbEntity
  8
0
100
AcDbPoint
 10
260.9841495415037
 20
0.0949908671210622
 30
0.0
  0
POINT
  5
305
330
17
100
AcDbEntity
  8
0
100
AcDbPoint
 10
261.3426510356223
 20
0.09464245082349265
 30
0.0
  0
POINT
  5
306
330
17
100
AcDbEntity
  8
0
100
AcDbPoint
 10
261.701987291735
 20
0.09412457147617914
 30
0.0
  0
POINT
  5
307
330
17
100
AcDbEntity
  8
0
100
AcDbPoint
 10
262.065046571246
 20
0.09375679102701184
 30
0.0
  0
POINT
  5
308
330
17
100
AcDbEntity
  8
0
100
AcDbPoint
 10
262.4200136782775
 20
0.09332405916576647
 30
0.0
  0
POINT
  5
309
330
17
100
AcDbEntity
  8
0
100
AcDbPoint
 10
262.7836102288767
 20
0.09282864431269644
 30
0.0
  0
POINT
  5
30A
330
17
100
AcDbEntity
  8
0
100
AcDbPoint
 10
263.1426811262538
 20
0.09248582683253659
 30
0.0
  0
POINT
  5
30B
330
17
100
AcDbEntity
  8
0
100
AcDbPoint
 10
263.5014447282671
 20
0.09197376664743473
 30
0.0
  0
POINT
  5
30C
330
17
100
AcDbEntity
  8
0
100
AcDbPoint
 10
263.8645416923385
 20
0.09159748825365455
 30
0.0
  0
POINT
  5
30D
330
17
100
AcDbEntity
  8
0
100
AcDbPoint
 10
264.21949086762174
 20
0.09117096368517252
 30
0.0
  0
POINT
  5
30E
330
17
100
AcDbEntity
  8
0
100
AcDbPoint
 10
264.5830776458097
 20
0.09066658480167433
 30
0.0
  0
POINT
  5
30F
330
17
100
AcDbEntity
  8
0
100
AcDbPoint
 10
264.9426914505911
 20
0.09032912253913139
 30
0.0
  0
POINT
  5
310
330
17
100
AcDbEntity
  8
0
100
AcDbPoint
 10
265.30091003159555
 20
0.08982261583174989
 30
0.0
  0
POINT
  5
311
330
17
100
AcDbEntity
  8
0
100
AcDbPoint
 10
265.6640426710734
 20
0.08943827369002122
 30
0.0
  0
POINT
  5
312
330
17
100
AcDbEntity
  8
0
100
AcDbPoint
 10
266.0189752945148
 20
0.08901767177960096
 30
0.0
  0
POINT
  5
313
330
17
100
AcDbEntity
  8
0
100
AcDbPoint
 10
266.3825510331238
 20
0.08850480153189011
 30
0.0
  0
POINT
  5
314
330
17
100
AcDbEntity
  8
0
100
AcDbPoint
 10
266.74267851945024
 20
0.0881724156325916
 30
0.0
  0
POINT
  5
315
330
17
100
AcDbEntity
  8
0
100
AcDbPoint
 10
267.100380085858
 20
0.08767114525053898
 30
0.0
  0
POINT
  5
316
330
17
100
AcDbEntity
  8
0
100
AcDbPoint
 10
267.46354636704564
 20
0.08727914537912085
 30
0.0
  0
POINT
  5
317
330
17
100
AcDbEntity
  8
0
100
AcDbPoint
 10
267.81846365530436
 20
0.08686412961461798
 30
0.0
  0
POINT
  5
318
330
17
100
AcDbEntity
  8
0
100
AcDbPoint
 10
268.18202955174235
 20
0.08634320560029352
 30
0.0
  0
POINT
  5
319
330
17
100
AcDbEntity
  8
0
100
AcDbPoint
 10
268.54264377372755
 20
0.08601562436601284
 30
0.0
  0
POINT
  5
31A
330
17
100
AcDbEntity
  8
0
100
AcDbPoint
 10
268.8998564859943
 20
0.08551930051749679
 30
0.0
  0
POINT
  5
31B
330
17
100
AcDbEntity
  8
0
100
AcDbPoint
 10
269.2630544115866
 20
0.08512006343967471
 30
0.0
  0
POINT
  5
31C
330
17
100
AcDbEntity
  8
0
100
AcDbPoint
 10
269.6179576241416
 20
0.08471032460715833
 30
0.0
  0
POINT
  5
31D
330
17
100
AcDbEntity
  8
0
100
AcDbPoint
 10
269.981514038083
 20
0.0841818008469204
 30
0.0
  0
POINT
  5
31E
330
17
100
AcDbEntity
  8
0
100
AcDbPoint
 10
270.3425874580069
 20
0.08385875858006386
 30
0.0
  0
POINT
  5
31F
330
17
100
AcDbEntity
  8
0
100
AcDbPoint
 10
270.6993392286241
 20
0.08336709277950405
 30
0.0
  0
POINT
  5
320
330
17
100
AcDbEntity
  8
0
100
AcDbPoint
 10
271.0625661822733
 20
0.08296103935786903
 30
0.0
  0
POINT
  5
321
330
17
100
AcDbEntity
  8
0
100
AcDbPoint
 10
271.41760504179354
 20
0.08255605881402062
 30
0.0
  0
POINT
  5
322
330
17
100
AcDbEntity
  8
0
100
AcDbPoint
 10
271.78100465917635
 20
0.08202439047020249
 30
0.0
  0
POINT
  5
323
330
17
100
AcDbEntity
  8
0
100
AcDbPoint
 10
272.14236129933613
 20
0.08170195450605178
 30
0.0
  0
POINT
  5
324
330
17
100
AcDbEntity
  8
0
100
AcDbPoint
 10
272.4988298783467
 20
0.08121453040875792
 30
0.0
  0
POINT
  5
325
330
17
100
AcDbEntity
  8
0
100
AcDbPoint
 10
272.86208143769386
 20
0.08080208349087314
 30
0.0
  0
POINT
  5
326
330
17
100
AcDbEntity
  8
0
100
AcDbPoint
 10
273.2174616134191
 20
0.08040126527699698
 30
0.0
  0
POINT
  5
327
330
17
100
AcDbEntity
  8
0
100
AcDbPoint
 10
273.58050147140153
 20
0.07987241238235043
 30
0.0
  0
POINT
  5
328
330
17
100
AcDbEntity
  8
0
100
AcDbPoint
 10
273.9419094145512
 20
0.07954526628525826
 30
0.0
  0
POINT
  5
329
330
17
100
AcDbEntity
  8
0
100
AcDbPoint
 10
274.2983290318503
 20
0.07906162213848233
 30
0.0
  0
POINT
  5
32A
330
17
100
AcDbEntity
  8
0
100
AcDbPoint
 10
274.66160110970964
 20
0.07864320442509154
 30
0.0
  0
POINT
  5
32B
330
17
100
AcDbEntity
  8
0
100
AcDbPoint
 10
275.01729996682883
 20
0.07824627460138345
 30
0.0
  0
POINT
  5
32C
330
17
100
AcDbEntity
  8
0
100
AcDbPoint
 10
275.38000419187694
 20
0.07772004307388158
 30
0.0
  0
POINT
  5
32D
330
17
100
AcDbEntity
  8
0
100
AcDbPoint
 10
275.7414597788521
 20
0.07738850705252531
 30
0.0
  0
POINT
  5
32E
330
17
100
AcDbEntity
  8
0
100
AcDbPoint
 10
276.09783425245064
 20
0.07690837967602704
 30
0.0
  0
POINT
  5
32F
330
17
100
AcDbEntity
  8
0
100
AcDbPoint
 10
276.4611251875253
 20
0.0764844106480993
 30
0.0
  0
POINT
  5
330
330
17
100
AcDbEntity
  8
0
100
AcDbPoint
 10
276.8171200883993
 20
0.0760910946908595
 30
0.0
  0
POINT
  5
331
330
17
100
AcDbEntity
  8
0
100
AcDbPoint
 10
277.17951280995806
 20
0.07556729073297674
 30
0.0
  0
POINT
  5
332
330
17
100
AcDbEntity
  8
0
100
AcDbPoint
 10
277.54101238105443
 20
0.07523168483757559
 30
0.0
  0
POINT
  5
333
330
17
100
AcDbEntity
  8
0
100
AcDbPoint
 10
277.897345529462
 20
0.07475481087038816
 30
0.0
  0
POINT
  5
334
330
17
100
AcDbEntity
  8
0
100
AcDbPoint
 10
278.2606536601722
 20
0.07432570981666942
 30
0.0
  0
POINT
  5
335
330
17
100
AcDbEntity
  8
0
100
AcDbPoint
 10
278.6169219642025
 20
0.073935732647044
 30
0.0
  0
POINT
  5
336
330
17
100
AcDbEntity
  8
0
100
AcDbPoint
 10
278.9790273148075
 20
0.07341416271562906
 30
0.0
  0
POINT
  5
337
330
17
100
AcDbEntity
  8
0
100
AcDbPoint
 10
279.340567209776
 20
0.0730748068329703
 30
0.0
  0
POINT
  5
338
330
17
100
AcDbEntity
  8
0
100
AcDbPoint
 10
279.69686285198475
 20
0.07260092273777019
 30
0.0
  0
POINT
  5
339
330
17
100
AcDbEntity
  8
0
100
AcDbPoint
 10
280.06018651649424
 20
0.07216710875070476
 30
0.0
  0
POINT
  5
33A
330
17
100
AcDbEntity
  8
0
100
AcDbPoint
 10
280.41670558020775
 20
0.0717801947688983
 30
0.0
  0
POINT
  5
33B
330
17
100
AcDbEntity
  8
0
100
AcDbPoint
 10
280.77854769542654
 20
0.07126066554474164
 30
0.0
  0
POINT
  5
33C
330
17
100
AcDbEntity
  8
0
100
AcDbPoint
 10
281.14012425348204
 20
0.07091787939441474
 30
0.0
  0
POINT
  5
33D
330
17
100
AcDbEntity
  8
0
100
AcDbPoint
 10
281.496386208936
 20
0.07044672146183473
 30
0.0
  0
POINT
  5
33E
330
17
100
AcDbEntity
  8
0
100
AcDbPoint
 10
281.85972374515484
 20
0.07000861343442466
 30
0.0
  0
POINT
  5
33F
330
17
100
AcDbEntity
  8
0
100
AcDbPoint
 10
282.2164709222526
 20
0.06962448655335862
 30
0.0
  0
POINT
  5
340
330
17
100
AcDbEntity
  8
0
100
AcDbPoint
 10
282.57807394059694
 20
0.06910680491056098
 30
0.0
  0
POINT
  5
341
330
17
100
AcDbEntity
  8
0
100
AcDbPoint
 10
282.93968350044514
 20
0.06876090803979196
 30
0.0
  0
POINT
  5
342
330
17
100
AcDbEntity
  8
0
100
AcDbPoint
 10
283.2959155890605
 20
0.06829221239299699
 30
0.0
  0
POINT
  5
343
330
17
100
AcDbEntity
  8
0
100
AcDbPoint
 10
283.65926533463573
 20
0.06785022901560467
 30
0.0
  0
POINT
  5
344
330
17
100
AcDbEntity
  8
0
100
AcDbPoint
 10
284.01621797605674
 20
0.06746861269468951
 30
0.0
  0
POINT
  5
345
330
17
100
AcDbEntity
  8
0
100
AcDbPoint
 10
284.37760603894316
 20
0.06695258567022222
 30
0.0
  0
POINT
  5
346
330
17
100
AcDbEntity
  8
0
100
AcDbPoint
 10
284.7392449387799
 20
0.06660389745006512
 30
0.0
  0
POINT
  5
347
330
17
100
AcDbEntity
  8
0
100
AcDbPoint
 10
285.09545098089677
 20
0.06613740004907243
 30
0.0
  0
POINT
  5
348
330
17
100
AcDbEntity
  8
0
100
AcDbPoint
 10
285.4588112732442
 20
0.06569195980563336
 30
0.0
  0
POINT
  5
349
330
17
100
AcDbEntity
  8
0
100
AcDbPoint
 10
285.81594672723526
 20
0.06531257708535776
 30
0.0
  0
POINT
  5
34A
330
17
100
AcDbEntity
  8
0
100
AcDbPoint
 10
286.17714397887414
 20
0.06479801184824652
 30
0.0
  0
POINT
  5
34B
330
17
100
AcDbEntity
  8
0
100
AcDbPoint
 10
286.53880855640597
 20
0.06444685146853146
 30
0.0
  0
POINT
  5
34C
330
17
100
AcDbEntity
  8
0
100
AcDbPoint
 10
286.89499237281916
 20
0.06398228811451645
 30
0.0
  0
POINT
  5
34D
330
17
100
AcDbEntity
  8
0
100
AcDbPoint
 10
287.25836154910877
 20
0.06353380927979657
 30
0.0
  0
POINT
  5
34E
330
17
100
AcDbEntity
  8
0
100
AcDbPoint
 10
287.6156571612564
 20
0.06315638281547109
 30
0.0
  0
POINT
  5
34F
330
17
100
AcDbEntity
  8
0
100
AcDbPoint
 10
287.9766877486309
 20
0.06264308663558182
 30
0.0
  0
POINT
  5
350
330
17
100
AcDbEntity
  8
0
100
AcDbPoint
 10
288.3383743411032
 20
0.062289773101369406
 30
0.0
  0
POINT
  5
351
330
17
100
AcDbEntity
  8
0
100
AcDbPoint
 10
288.6945397529851
 20
0.06182687944126286
 30
0.0
  0
POINT
  5
352
330
17
100
AcDbEntity
  8
0
100
AcDbPoint
 10
289.0579161501554
 20
0.061375780076502906
 30
0.0
  0
POINT
  5
353
330
17
100
AcDbEntity
  8
0
100
AcDbPoint
 10
289.41534926351164
 20
0.061000032172806584
 30
0.0
  0
POINT
  5
354
330
17
100
AcDbEntity
  8
0
100
AcDbPoint
 10
289.77623733626757
 20
0.060487812390775275
 30
0.0
  0
POINT
  5
355
330
17
100
AcDbEntity
  8
0
100
AcDbPoint
 10
290.1379422804458
 20
0.060132664517141166
 30
0.0
  0
POINT
  5
356
330
17
100
AcDbEntity
  8
0
100
AcDbPoint
 10
290.4940931093889
 20
0.05967117604785699
 30
0.0
  0
POINT
  5
357
330
17
100
AcDbEntity
  8
0
100
AcDbPoint
 10
290.8574750641469
 20
0.05921787399820744
 30
0.0
  0
POINT
  5
358
330
17
100
AcDbEntity
  8
0
100
AcDbPoint
 10
291.21502301923806
 20
0.05884352664340753
 30
0.0
  0
POINT
  5
359
330
17
100
AcDbEntity
  8
0
100
AcDbPoint
 10
291.5757927296489
 20
0.058332190638694215
 30
0.0
  0
POINT
  5
35A
330
17
100
AcDbEntity
  8
0
100
AcDbPoint
 10
291.9375123618569
 20
0.05797552704716935
 30
0.0
  0
POINT
  5
35B
330
17
100
AcDbEntity
  8
0
100
AcDbPoint
 10
292.2936524298198
 20
0.0575151791198536
 30
0.0
  0
POINT
  5
35C
330
17
100
AcDbEntity
  8
0
100
AcDbPoint
 10
292.65703827866395
 20
0.05706009201054485
 30
0.0
  0
POINT
  5
35D
330
17
100
AcDbEntity
  8
0
100
AcDbPoint
 10
293.01467841357265
 20
0.05668686691133473
 30
0.0
  0
POINT
  5
35E
330
17
100
AcDbEntity
  8
0
100
AcDbPoint
 10
293.3753539164404
 20
0.05617622207133621
 30
0.0
  0
POINT
  5
35F
330
17
100
AcDbEntity
  8
0
100
AcDbPoint
 10
293.7370845725799
 20
0.055818361185011156
 30
0.0
  0
POINT
  5
360
330
17
100
AcDbEntity
  8
0
100
AcDbPoint
 10
294.09321770188984
 20
0.055358889009625045
 30
0.0
  0
POINT
  5
361
330
17
100
AcDbEntity
  8
0
100
AcDbPoint
 10
294.4566057810986
 20
0.054902434242684706
 30
0.0
  0
POINT
  5
362
330
17
100
AcDbEntity
  8
0
100
AcDbPoint
 10
294.81431543153946
 20
0.05453005285860968
 30
0.0
  0
POINT
  5
363
330
17
100
AcDbEntity
  8
0
100
AcDbPoint
 10
295.1749208841351
 20
0.054019906547580376
 30
0.0
  0
POINT
  5
364
330
17
100
AcDbEntity
  8
0
100
AcDbPoint
 10
295.5366588996661
 20
0.053661166586969955
 30
0.0
  0
POINT
  5
365
330
17
100
AcDbEntity
  8
0
100
AcDbPoint
 10
295.89278891303763
 20
0.0532023052360131
 30
0.0
  0
POINT
  5
366
330
17
100
AcDbEntity
  8
0
100
AcDbPoint
 10
296.25617755968267
 20
0.0527448999866067
 30
0.0
  0
POINT
  5
367
330
17
100
AcDbEntity
  8
0
100
AcDbPoint
 10
296.61393412843273
 20
0.052373083504882345
 30
0.0
  0
POINT
  5
368
330
17
100
AcDbEntity
  8
0
100
AcDbPoint
 10
296.97449414777526
 20
0.05186324426181699
 30
0.0
  0
POINT
  5
369
330
17
100
AcDbEntity
  8
0
100
AcDbPoint
 10
297.3362367957961
 20
0.05150395393626184
 30
0.0
  0
POINT
  5
36A
330
17
100
AcDbEntity
  8
0
100
AcDbPoint
 10
297.6923676307032
 20
0.05104546373735275
 30
0.0
  0
POINT
  5
36B
330
17
100
AcDbEntity
  8
0
100
AcDbPoint
 10
298.05575529478733
 20
0.05058753950903849
 30
0.0
  0
POINT
  5
36C
330
17
100
AcDbEntity
  8
0
100
AcDbPoint
 10
298.4135364500954
 20
0.05021603707201194
 30
0.0
  0
POINT
  5
36D
330
17
100
AcDbEntity
  8
0
100
AcDbPoint
 10
298.77407385779543
 20
0.04970633672909486
 30
0.0
  0
POINT
  5
36E
330
17
100
AcDbEntity
  8
0
100
AcDbPoint
 10
299.13581571580045
 20
0.04934681005754271
 30
0.0
  0
POINT
  5
36F
330
17
100
AcDbEntity
  8
0
100
AcDbPoint
 10
299.49195091895524
 20
0.04888840435214803
 30
0.0
  0
POINT
  5
370
330
17
100
AcDbEntity
  8
0
100
AcDbPoint
 10
299.85533578762806
 20
0.04843036509814169
 30
0.0
  0
POINT
  5
371
330
17
100
AcDbEntity
  8
0
100
AcDbPoint
 10
300.2131184885432
 20
0.04805887246374141
 30
0.0
  0
POINT
  5
372
330
17
100
AcDbEntity
  8
0
100
AcDbPoint
 10
300.5736582903173
 20
0.04754909499466464
 30
0.0
  0
POINT
  5
373
330
17
100
AcDbEntity
  8
0
100
AcDbPoint
 10
300.93539651849323
 20
0.04718964448073848
 30
0.0
  0
POINT
  5
374
330
17
100
AcDbEntity
  8
0
100
AcDbPoint
 10
301.2915400697549
 20
0.04673105684014445
 30
0.0
  0
POINT
  5
375
330
17
100
AcDbEntity
  8
0
100
AcDbPoint
 10
301.6549205151519
 20
0.04627331891122566
 30
0.0
  0
POINT
  5
376
330
17
100
AcDbEntity
  8
0
100
AcDbPoint
 10
302.0126820914307
 20
0.045901556886569495
 30
0.0
  0
POINT
  5
377
330
17
100
AcDbEntity
  8
0
100
AcDbPoint
 10
302.37324845432994
 20
0.045391509245163775
 30
0.0
  0
POINT
  5
378
330
17
100
AcDbEntity
  8
0
100
AcDbPoint
 10
302.7349793865151
 20
0.045032452264692324
 30
0.0
  0
POINT
  5
379
330
17
100
AcDbEntity
  8
0
100
AcDbPoint
 10
303.0911351099285
 20
0.04457341725053965
 30
0.0
  0
POINT
  5
37A
330
17
100
AcDbEntity
  8
0
100
AcDbPoint
 10
303.4545094673155
 20
0.04411639689364932
 30
0.0
  0
POINT
  5
37B
330
17
100
AcDbEntity
  8
0
100
AcDbPoint
 10
303.81222724317854
 20
0.043744086216548794
 30
0.0
  0
POINT
  5
37C
330
17
100
AcDbEntity
  8
0
100
AcDbPoint
 10
304.17284433639077
 20
0.04323357517584725
 30
0.0
  0
POINT
  5
37D
330
17
100
AcDbEntity
  8
0
100
AcDbPoint
 10
304.5345643060559
 20
0.042875228880795646
 30
0.0
  0
POINT
  5
37E
330
17
100
AcDbEntity
  8
0
100
AcDbPoint
 10
304.8907360259595
 20
0.04241548093862235
 30
0.0
  0
POINT
  5
37F
330
17
100
AcDbEntity
  8
0
100
AcDbPoint
 10
305.25410263044415
 20
0.04195959415783079
 30
0.0
  0
POINT
  5
380
330
17
100
AcDbEntity
  8
0
100
AcDbPoint
 10
305.61175392809673
 20
0.04158645552845286
 30
0.0
  0
POINT
  5
381
330
17
100
AcDbEntity
  8
0
100
AcDbPoint
 10
305.9724459228688
 20
0.04107528764848212
 30
0.0
  0
POINT
  5
382
330
17
100
AcDbEntity
  8
0
100
AcDbPoint
 10
306.3341512631596
 20
0.040717968962951545
 30
0.0
  0
POINT
  5
383
330
17
100
AcDbEntity
  8
0
100
AcDbPoint
 10
306.6903428041515
 20
0.04025724242689677
 30
0.0
  0
POINT
  5
384
330
17
100
AcDbEntity
  8
0
100
AcDbPoint
 10
307.0536999906564
 20
0.03980290497983674
 30
0.0
  0
POINT
  5
385
330
17
100
AcDbEntity
  8
0
100
AcDbPoint
 10
307.4112621303783
 20
0.039428659095669616
 30
0.0
  0
POINT
  5
386
330
17
100
AcDbEntity
  8
0
100
AcDbPoint
 10
307.77205319995113
 20
0.038916640691809334
 30
0.0
  0
POINT
  5
387
330
17
100
AcDbEntity
  8
0
100
AcDbPoint
 10
308.1337402436772
 20
0.038560666307567715
 30
0.0
  0
POINT
  5
388
330
17
100
AcDbEntity
  8
0
100
AcDbPoint
 10
308.48995543060227
 20
0.038098695404322314
 30
0.0
  0
POINT
  5
389
330
17
100
AcDbEntity
  8
0
100
AcDbPoint
 10
308.8533015338999
 20
0.037646322798636334
 30
0.0
  0
POINT
  5
38A
330
17
100
AcDbEntity
  8
0
100
AcDbPoint
 10
309.2107518341153
 20
0.03727069039039321
 30
0.0
  0
POINT
  5
38B
330
17
100
AcDbEntity
  8
0
100
AcDbPoint
 10
309.57166615363377
 20
0.036757627501174284
 30
0.0
  0
POINT
  5
38C
330
17
100
AcDbEntity
  8
0
100
AcDbPoint
 10
309.9333312332915
 20
0.03640331387347828
 30
0.0
  0
POINT
  5
38D
330
17
100
AcDbEntity
  8
0
100
AcDbPoint
 10
310.2895738912406
 20
0.03593983272659074
 30
0.0
  0
POINT
  5
38E
330
17
100
AcDbEntity
  8
0
100
AcDbPoint
 10
310.65290724596133
 20
0.03548984021697521
 30
0.0
  0
POINT
  5
38F
330
17
100
AcDbEntity
  8
0
100
AcDbPoint
 10
311.01022302129815
 20
0.03511254208681436
 30
0.0
  0
POINT
  5
390
330
17
100
AcDbEntity
  8
0
100
AcDbPoint
 10
311.3712847990689
 20
0.03459824035295611
 30
0.0
  0
POINT
  5
391
330
17
100
AcDbEntity
  8
0
100
AcDbPoint
 10
311.73292516735074
 20
0.03424590345263567
 30
0.0
  0
POINT
  5
392
330
17
100
AcDbEntity
  8
0
100
AcDbPoint
 10
312.0892001744194
 20
0.03378066814292424
 30
0.0
  0
POINT
  5
393
330
17
100
AcDbEntity
  8
0
100
AcDbPoint
 10
312.4525202414409
 20
0.03333349725623691
 30
0.0
  0
POINT
  5
394
330
17
100
AcDbEntity
  8
0
100
AcDbPoint
 10
312.8096796223715
 20
0.03295430519663256
 30
0.0
  0
POINT
  5
395
330
17
100
AcDbEntity
  8
0
100
AcDbPoint
 10
313.170912179519
 20
0.03243861935146697
 30
0.0
  0
POINT
  5
396
330
17
100
AcDbEntity
  8
0
100
AcDbPoint
 10
313.53252250755725
 20
0.032088607246677725
 30
0.0
  0
POINT
  5
397
330
17
100
AcDbEntity
  8
0
100
AcDbPoint
 10
313.88883148067555
 20
0.03162135983624381
 30
0.0
  0
POINT
  5
398
330
17
100
AcDbEntity
  8
0
100
AcDbPoint
 10
314.25213445339045
 20
0.03117740117761514
 30
0.0
  0
POINT
  5
399
330
17
100
AcDbEntity
  8
0
100
AcDbPoint
 10
314.6091140002048
 20
0.03079598833971886
 30
0.0
  0
POINT
  5
39A
330
17
100
AcDbEntity
  8
0
100
AcDbPoint
 10
314.9705422994742
 20
0.030278676851267505
 30
0.0
  0
POINT
  5
39B
330
17
100
AcDbEntity
  8
0
100
AcDbPoint
 10
315.33211978919013
 20
0.029931275247314204
 30
0.0
  0
POINT
  5
39C
330
17
100
AcDbEntity
  8
0
100
AcDbPoint
 10
315.6884678880186
 20
0.029461725066795452
 30
0.0
  0
POINT
  5
39D
330
17
100
AcDbEntity
  8
0
100
AcDbPoint
 10
316.05176052866904
 20
0.029021388786347302
 30
0.0
  0
POINT
  5
39E
330
17
100
AcDbEntity
  8
0
100
AcDbPoint
 10
316.4085568405713
 20
0.028637643885325303
 30
0.0
  0
POINT
  5
39F
330
17
100
AcDbEntity
  8
0
100
AcDbPoint
 10
316.77022266787407
 20
0.02811898973001803
 30
0.0
  0
POINT
  5
3A0
330
17
100
AcDbEntity
  8
0
100
AcDbPoint
 10
317.1318073195604
 20
0.027775107017291134
 30
0.0
  0
POINT
  5
3A1
330
17
100
AcDbEntity
  8
0
100
AcDbPoint
 10
317.48822274192
 20
0.02730455825829381
 30
0.0
  0
POINT
  5
3A2
330
17
100
AcDbEntity
  8
0
100
AcDbPoint
 10
317.8515587312086
 20
0.026869462057703686
 30
0.0
  0
POINT
  5
3A3
330
17
100
AcDbEntity
  8
0
100
AcDbPoint
 10
318.2082268741548
 20
0.026486012695656314
 30
0.0
  0
POINT
  5
3A4
330
17
100
AcDbEntity
  8
0
100
AcDbPoint
 10
318.5701270398023
 20
0.025969093864155468
 30
0.0
  0
POINT
  5
3A5
330
17
100
AcDbEntity
  8
0
100
AcDbPoint
 10
318.9317417455105
 20
0.025631334883968293
 30
0.0
  0
POINT
  5
3A6
330
17
100
AcDbEntity
  8
0
100
AcDbPoint
 10
319.2882220329598
 20
0.025163394440035347
 30
0.0
  0
POINT
  5
3A7
330
17
100
AcDbEntity
  8
0
100
AcDbPoint
 10
319.6516060424503
 20
0.024736096380543415
 30
0.0
  0
POINT
  5
3A8
330
17
100
AcDbEntity
  8
0
100
AcDbPoint
 10
320.00818469512024
 20
0.024356606818109583
 30
0.0
  0
POINT
  5
3A9
330
17
100
AcDbEntity
  8
0
100
AcDbPoint
 10
320.37027943124394
 20
0.0238449967024863
 30
0.0
  0
POINT
  5
3AA
330
17
100
AcDbEntity
  8
0
100
AcDbPoint
 10
320.7319308829924
 20
0.023516077170356198
 30
0.0
  0
POINT
  5
3AB
330
17
100
AcDbEntity
  8
0
100
AcDbPoint
 10
321.08847041460575
 20
0.023054385427016655
 30
0.0
  0
POINT
  5
3AC
330
17
100
AcDbEntity
  8
0
100
AcDbPoint
 10
321.45190577840833
 20
0.02263745593966604
 30
0.0
  0
POINT
  5
3AD
330
17
100
AcDbEntity
  8
0
100
AcDbPoint
 10
321.80843316292595
 20
0.022265584583720965
 30
0.0
  0
POINT
  5
3AE
330
17
100
AcDbEntity
  8
0
100
AcDbPoint
 10
322.1706830867705
 20
0.021762856932042496
 30
0.0
  0
POINT
  5
3AF
330
17
100
AcDbEntity
  8
0
100
AcDbPoint
 10
322.53237794538575
 20
0.021445498592441936
 30
0.0
  0
POINT
  5
3B0
330
17
100
AcDbEntity
  8
0
100
AcDbPoint
 10
322.88897110485607
 20
0.02099369359086012
 30
0.0
  0
POINT
  5
3B1
330
17
100
AcDbEntity
  8
0
100
AcDbPoint
 10
323.25246116596617
 20
0.02058970945429195
 30
0.0
  0
POINT
  5
3B2
330
17
100
AcDbEntity
  8
0
100
AcDbPoint
 10
323.60897528206726
 20
0.020229113008689126
 30
0.0
  0
POINT
  5
3B3
330
17
100
AcDbEntity
  8
0
100
AcDbPoint
 10
323.9713412221078
 20
0.019738841450433142
 30
0.0
  0
POINT
  5
3B4
330
17
100
AcDbEntity
  8
0
100
AcDbPoint
 10
324.3330861435411
 20
0.019435770233492633
 30
0.0
  0
POINT
  5
3B5
330
17
100
AcDbEntity
  8
0
100
AcDbPoint
 10
324.689727288291
 20
0.01899748961915293
 30
0.0
  0
POINT
  5
3B6
330
17
100
AcDbEntity
  8
0
100
AcDbPoint
 10
325.05327540869536
 20
0.018609031151605393
 30
0.0
  0
POINT
  5
3B7
330
17
100
AcDbEntity
  8
0
100
AcDbPoint
 10
325.4098142037875
 20
0.018263369040859345
 30
0.0
  0
POINT
  5
3B8
330
17
100
AcDbEntity
  8
0
100
AcDbPoint
 10
325.77225701412027
 20
0.01778912650498654
 30
0.0
  0
POINT
  5
3B9
330
17
100
AcDbEntity
  8
0
100
AcDbPoint
 10
326.13405867461637
 20
0.017503070585888736
 30
0.0
  0
POINT
  5
3BA
330
17
100
AcDbEntity
  8
0
100
AcDbPoint
 10
326.49074210579147
 20
0.017081953402211525
 30
0.0
  0
POINT
  5
3BB
330
17
100
AcDbEntity
  8
0
100
AcDbPoint
 10
326.8543515081477
 20
0.01671160173994224
 30
0.0
  0
POINT
  5
3BC
330
17
100
AcDbEntity
  8
0
100
AcDbPoint
 10
327.2109508592088
 20
0.016384538498186885
 30
0.0
  0
POINT
  5
3BD
330
17
100
AcDbEntity
  8
0
100
AcDbPoint
 10
327.57342521472583
 20
0.01592984634957162
 30
0.0
  0
POINT
  5
3BE
330
17
100
AcDbEntity
  8
0
100
AcDbPoint
 10
327.9352701479406
 20
0.015663394316923984
 30
0.0
  0
POINT
  5
3BF
330
17
100
AcDbEntity
  8
0
100
AcDbPoint
 10
328.29197465449397
 20
0.015262530538052488
 30
0.0
  0
POINT
  5
3C0
330
17
100
AcDbEntity
  8
0
100
AcDbPoint
 10
328.6556036733939
 20
0.014912350881886027
 30
0.0
  0
POINT
  5
3C1
330
17
100
AcDbEntity
  8
0
100
AcDbPoint
 10
329.0122336599496
 20
0.01460592153147644
 30
0.0
  0
POINT
  5
3C2
330
17
100
AcDbEntity
  8
0
100
AcDbPoint
 10
329.3746930417744
 20
0.014172056865312754
 30
0.0
  0
POINT
  5
3C3
330
17
100
AcDbEntity
  8
0
100
AcDbPoint
 10
329.73654183136915
 20
0.013926075602320509
 30
0.0
  0
POINT
  5
3C4
330
17
100
AcDbEntity
  8
0
100
AcDbPoint
 10
330.0932552819476
 20
0.0135456819946711
 30
0.0
  0
POINT
  5
3C5
330
17
100
AcDbEntity
  8
0
100
AcDbPoint
 10
330.4568853908054
 20
0.013216208290366183
 30
0.0
  0
POINT
  5
3C6
330
17
100
AcDbEntity
  8
0
100
AcDbPoint
 10
330.81351960241926
 20
0.012930170921855222
 30
0.0
  0
POINT
  5
3C7
330
17
100
AcDbEntity
  8
0
100
AcDbPoint
 10
331.1759868588251
 20
0.012516949926336451
 30
0.0
  0
POINT
  5
3C8
330
17
100
AcDbEntity
  8
0
100
AcDbPoint
 10
331.5378361070407
 20
0.012291758539589637
 30
0.0
  0
POINT
  5
3C9
330
17
100
AcDbEntity
  8
0
100
AcDbPoint
 10
331.8945627954467
 20
0.011931581863194651
 30
0.0
  0
POINT
  5
3CA
330
17
100
AcDbEntity
  8
0
100
AcDbPoint
 10
332.25819375745505
 20
0.011623243169104569
 30
0.0
  0
POINT
  5
3CB
330
17
100
AcDbEntity
  8
0
100
AcDbPoint
 10
332.61481068110703
 20
0.011357357620930486
 30
0.0
  0
POINT
  5
3CC
330
17
100
AcDbEntity
  8
0
100
AcDbPoint
 10
332.9773085441498
 20
0.010964641421807642
 30
0.0
  0
POINT
  5
3CD
330
17
100
AcDbEntity
  8
0
100
AcDbPoint
 10
333.3391545336962
 20
0.010760565860778115
 30
0.0
  0
POINT
  5
3CE
330
17
100
AcDbEntity
  8
0
100
AcDbPoint
 10
333.6958960661771
 20
0.010420388424790872
 30
0.0
  0
POINT
  5
3CF
330
17
100
AcDbEntity
  8
0
100
AcDbPoint
 10
334.0595240584265
 20
0.010133554316176685
 30
0.0
  0
POINT
  5
3D0
330
17
100
AcDbEntity
  8
0
100
AcDbPoint
 10
334.416102240418
 20
0.009887518733805223
 30
0.0
  0
POINT
  5
3D1
330
17
100
AcDbEntity
  8
0
100
AcDbPoint
 10
334.7786534136524
 20
0.009515111862526737
 30
0.0
  0
POINT
  5
3D2
330
17
100
AcDbEntity
  8
0
100
AcDbPoint
 10
335.140493040078
 20
0.009332417640933954
 30
0.0
  0
POINT
  5
3D3
330
17
100
AcDbEntity
  8
0
100
AcDbPoint
 10
335.49725342246063
 20
0.009011976456477555
 30
0.0
  0
POINT
  5
3D4
330
17
100
AcDbEntity
  8
0
100
AcDbPoint
 10
335.86087828899576
 20
0.008747015645234058
 30
0.0
  0
POINT
  5
3D5
330
17
100
AcDbEntity
  8
0
100
AcDbPoint
 10
336.21739777838854
 20
0.008520572712285457
 30
0.0
  0
POINT
  5
3D6
330
17
100
AcDbEntity
  8
0
100
AcDbPoint
 10
336.5800232814065
 20
0.008168325698953538
 30
0.0
  0
POINT
  5
3D7
330
17
100
AcDbEntity
  8
0
100
AcDbPoint
 10
336.94185351178896
 20
0.008007284147574012
 30
0.0
  0
POINT
  5
3D8
330
17
100
AcDbEntity
  8
0
100
AcDbPoint
 10
337.2986356840134
 20
0.007706360060453221
 30
0.0
  0
POINT
  5
3D9
330
17
100
AcDbEntity
  8
0
100
AcDbPoint
 10
337.6622561793119
 20
0.007463620709195595
 30
0.0
  0
POINT
  5
3DA
330
17
100
AcDbEntity
  8
0
100
AcDbPoint
 10
338.0186981671756
 20
0.007256523904487722
 30
0.0
  0
POINT
  5
3DB
330
17
100
AcDbEntity
  8
0
100
AcDbPoint
 10
338.38141784924807
 20
0.006924299433009651
 30
0.0
  0
POINT
  5
3DC
330
17
100
AcDbEntity
  8
0
100
AcDbPoint
 10
338.74323582643115
 20
0.006785166183917113
 30
0.0
  0
POINT
  5
3DD
330
17
100
AcDbEntity
  8
0
100
AcDbPoint
 10
339.10004254532726
 20
0.006503553113745397
 30
0.0
  0
POINT
  5
3DE
330
17
100
AcDbEntity
  8
0
100
AcDbPoint
 10
339.46365750378374
 20
0.006283363210386028
 30
0.0
  0
POINT
  5
3DF
330
17
100
AcDbEntity
  8
0
100
AcDbPoint
 10
339.82000426803256
 20
0.006095376813796349
 30
0.0
  0
POINT
  5
3E0
330
17
100
AcDbEntity
  8
0
100
AcDbPoint
 10
340.1828368202909
 20
0.005783049446343114
 30
0.0
  0
POINT
  5
3E1
330
17
100
AcDbEntity
  8
0
100
AcDbPoint
 10
340.54463986296713
 20
0.005666064496104184
 30
0.0
  0
POINT
  5
3E2
330
17
100
AcDbEntity
  8
0
100
AcDbPoint
 10
340.9014737022199
 20
0.005403569410127318
 30
0.0
  0
POINT
  5
3E3
330
17
100
AcDbEntity
  8
0
100
AcDbPoint
 10
341.26508203812693
 20
0.005206236811574172
 30
0.0
  0
POINT
  5
3E4
330
17
100
AcDbEntity
  8
0
100
AcDbPoint
 10
341.6213169437176
 20
0.005037136176618162
 30
0.0
  0
POINT
  5
3E5
330
17
100
AcDbEntity
  8
0
100
AcDbPoint
 10
341.9842798989297
 20
0.00474459209408451
 30
0.0
  0
POINT
  5
3E6
330
17
100
AcDbEntity
  8
0
100
AcDbPoint
 10
342.34606550166757
 20
0.0046499798662154035
 30
0.0
  0
POINT
  5
3E7
330
17
100
AcDbEntity
  8
0
100
AcDbPoint
 10
342.70292885173586
 20
0.004406422752097683
 30
0.0
  0
POINT
  5
3E8
330
17
100
AcDbEntity
  8
0
100
AcDbPoint
 10
343.06652955928735
 20
0.004232235225636316
 30
0.0
  0
POINT
  5
3E9
330
17
100
AcDbEntity
  8
0
100
AcDbPoint
 10
343.422637058433
 20
0.004081807047924713
 30
0.0
  0
POINT
  5
3EA
330
17
100
AcDbEntity
  8
0
100
AcDbPoint
 10
343.78574679079225
 20
0.003808943793039532
 30
0.0
  0
POINT
  5
3EB
330
17
100
AcDbEntity
  8
0
100
AcDbPoint
 10
344.14751262400165
 20
0.003736913200000913
 30
0.0
  0
POINT
  5
3EC
330
17
100
AcDbEntity
  8
0
100
AcDbPoint
 10
344.50440767338824
 20
0.003512127045311786
 30
0.0
  0
POINT
  5
3ED
330
17
100
AcDbEntity
  8
0
100
AcDbPoint
 10
344.8680005662487
 20
0.003361351539169277
 30
0.0
  0
POINT
  5
3EE
330
17
100
AcDbEntity
  8
0
100
AcDbPoint
 10
345.2239679588445
 20
0.0032294119956688405
 30
0.0
  0
POINT
  5
3EF
330
17
100
AcDbEntity
  8
0
100
AcDbPoint
 10
345.5872400895778
 20
0.0029761827400633933
 30
0.0
  0
POINT
  5
3F0
330
17
100
AcDbEntity
  8
0
100
AcDbPoint
 10
345.94898415775737
 20
0.0029269563800014
 30
0.0
  0
POINT
  5
3F1
330
17
100
AcDbEntity
  8
0
100
AcDbPoint
 10
346.3059128652145
 20
0.002720835173619207
 30
0.0
  0
POINT
  5
3F2
330
17
100
AcDbEntity
  8
0
100
AcDbPoint
 10
346.66949569503925
 20
0.0025937473855108806
 30
0.0
  0
POINT
  5
3F3
330
17
100
AcDbEntity
  8
0
100
AcDbPoint
 10
347.02530686359137
 20
0.002480120319745538
 30
0.0
  0
POINT
  5
3F4
330
17
100
AcDbEntity
  8
0
100
AcDbPoint
 10
347.3887538494174
 20
0.0022464019003720637
 30
0.0
  0
POINT
  5
3F5
330
17
100
AcDbEntity
  8
0
100
AcDbPoint
 10
347.7504740008647
 20
0.0022201295860142523
 30
0.0
  0
POINT
  5
3F6
330
17
100
AcDbEntity
  8
0
100
AcDbPoint
 10
348.1074382826504
 20
0.002032484953282676
 30
0.0
  0
POINT
  5
3F7
330
17
100
AcDbEntity
  8
0
100
AcDbPoint
 10
348.47101094437147
 20
0.0019292860704851478
 30
0.0
  0
POINT
  5
3F8
330
17
100
AcDbEntity
  8
0
100
AcDbPoint
 10
348.82665459063395
 20
0.0018337629998512739
 30
0.0
  0
POINT
  5
3F9
330
17
100
AcDbEntity
  8
0
100
AcDbPoint
 10
349.19029051676335
 20
0.0016194843778123413
 30
0.0
  0
POINT
  5
3FA
330
17
100
AcDbEntity
  8
0
100
AcDbPoint
 10
349.55198496401874
 20
0.0016163285879500222
 30
0.0
  0
POINT
  5
3FB
330
17
100
AcDbEntity
  8
0
100
AcDbPoint
 10
349.90898648413247
 20
0.0014470321503097239
 30
0.0
  0
POINT
  5
3FC
330
17
100
AcDbEntity
  8
0
100
AcDbPoint
 10
350.27254829142953
 20
0.0013679299037079318
 30
0.0
  0
POINT
  5
3FD
330
17
100
AcDbEntity
  8
0
100
AcDbPoint
 10
350.62801321552627
 20
0.001290345338112786
 30
0.0
  0
POINT
  5
3FE
330
17
100
AcDbEntity
  8
0
100
AcDbPoint
 10
350.9918498223849
 20
0.0010954468474437817
 30
0.0
  0
POINT
  5
3FF
330
17
100
AcDbEntity
  8
0
100
AcDbPoint
 10
351.3535169391137
 20
0.0011155549517596342
 30
0.0
  0
POINT
  5
400
330
17
100
AcDbEntity
  8
0
100
AcDbPoint
 10
351.7105571621037
 20
0.0009644911993476057
 30
0.0
  0
POINT
  5
401
330
17
100
AcDbEntity
  8
0
100
AcDbPoint
 10
352.0741067898764
 20
0.000909673286471957
 30
0.0
  0
POINT
  5
402
330
17
100
AcDbEntity
  8
0
100
AcDbPoint
 10
352.42955927462305
 20
0.0008497989881206536
 30
0.0
  0
POINT
  5
403
330
17
100
AcDbEntity
  8
0
100
AcDbPoint
 10
352.79343168284566
 20
0.0006787993128725134
 30
0.0
  0
POINT
  5
404
330
17
100
AcDbEntity
  8
0
100
AcDbPoint
 10
353.1548936648361
 20
0.0007177853318793836
 30
0.0
  0
POINT
  5
405
330
17
100
AcDbEntity
  8
0
100
AcDbPoint
 10
353.51215190124736
 20
0.0005848765288121172
 30
0.0
  0
POINT
  5
406
330
17
100
AcDbEntity
  8
0
100
AcDbPoint
 10
353.8756867873678
 20
0.0005545112174658584
 30
0.0
  0
POINT
  5
407
330
17
100
AcDbEntity
  8
0
100
AcDbPoint
 10
354.23115733384304
 20
0.0005122119324667551
 30
0.0
  0
POINT
  5
408
330
17
100
AcDbEntity
  8
0
100
AcDbPoint
 10
354.5950356487256
 20
0.00036607344065942016
 30
0.0
  0
POINT
  5
409
330
17
100
AcDbEntity
  8
0
100
AcDbPoint
 10
354.95625170579416
 20
0.0004230208024296189
 30
0.0
  0
POINT
  5
40A
330
17
100
AcDbEntity
  8
0
100
AcDbPoint
 10
355.3137689529282
 20
0.00030820404481346486
 30
0.0
  0
POINT
  5
40B
330
17
100
AcDbEntity
  8
0
100
AcDbPoint
 10
355.677288244484
 20
0.0003024392124828523
 30
0.0
  0
POINT
  5
40C
330
17
100
AcDbEntity
  8
0
100
AcDbPoint
 10
356.0327770136417
 20
0.00027761043527618767
 30
0.0
  0
POINT
  5
40D
330
17
100
AcDbEntity
  8
0
100
AcDbPoint
 10
356.39666338460376
 20
0.00015648813313617893
 30
0.0
  0
POINT
  5
40E
330
17
100
AcDbEntity
  8
0
100
AcDbPoint
 10
356.7576263425397
 20
0.00023131802090858855
 30
0.0
  0
POINT
  5
40F
330
17
100
AcDbEntity
  8
0
100
AcDbPoint
 10
357.1154108039928
 20
0.00013459273663585236
 30
0.0
  0
POINT
  5
410
330
17
100
AcDbEntity
  8
0
100
AcDbPoint
 10
357.4789140221445
 20
0.00015358453175196018
 30
0.0
  0
POINT
  5
411
330
17
100
AcDbEntity
  8
0
100
AcDbPoint
 10
357.8344208500286
 20
0.00014618630850549152
 30
0.0
  0
POINT
  5
412
330
17
100
AcDbEntity
  8
0
100
AcDbPoint
 10
358.19831180831454
 20
5.023528771630481e-05
 30
0.0
  0
POINT
  5
413
330
17
100
AcDbEntity
  8
0
100
AcDbPoint
 10
358.5590109792484
 20
0.0001427889709475494
 30
0.0
  0
POINT
  5
414
330
17
100
AcDbEntity
  8
0
100
AcDbPoint
 10
358.9170709722469
 20
6.406637912448332e-05
 30
0.0
  0
POINT
  5
415
330
17
100
AcDbEntity
  8
0
100
AcDbPoint
 10
359.2805576692803
 20
0.00010789494488250284
 30
0.0
  0
POINT
  5
416
330
17
100
AcDbEntity
  8
0
100
AcDbPoint
 10
359.63608262797925
 20
0.0001177993807459643
 30
0.0
  0
POINT
  5
417
330
17
100
AcDbEntity
  8
0
100
AcDbPoint
 10
359.9999802912573
 20
4.7104978179390855e-05
 30
0.0
  0
ENDSEC
  0
SECTION
  2
OBJECTS
  0
DICTIONARY
  5
A
330
0
100
AcDbDictionary
280
0
281
1
  3
ACAD_COLOR
350
B
  3
ACAD_GROUP
350
C
  3
ACAD_LAYOUT
350
D
  3
ACAD_MATERIAL
350
E
  3
ACAD_MLEADERSTYLE
350
F
  3
ACAD_MLINESTYLE
350
10
  3
ACAD_PLOTSETTINGS
350
11
  3
ACAD_PLOTSTYLENAME
350
12
  3
ACAD_SCALELIST
350
14
  3
ACAD_TABLESTYLE
350
15
  3
ACAD_VISUALSTYLE
350
16
  3
EZDXF_META
350
2D
  0
DICTIONARY
  5
B
330
A
100
AcDbDictionary
280
0
281
1
  0
DICTIONARY
  5
C
330
A
100
AcDbDictionary
280
0
281
1
  0
DICTIONARY
  5
D
330
A
100
AcDbDictionary
280
0
281
1
  3
Model
350
1A
  3
Layout1
350
1E
  0
DICTIONARY
  5
E
330
A
100
AcDbDictionary
280
0
281
1
  3
ByBlock
350
1F
  3
ByLayer
350
20
  3
Global
350
21
  0
DICTIONARY
  5
F
330
A
100
AcDbDictionary
280
0
281
1
  3
Standard
350
2C
  0
DICTIONARY
  5
10
330
A
100
AcDbDictionary
280
0
281
1
  3
Standard
350
22
  0
DICTIONARY
  5
11
330
A
100
AcDbDictionary
280
0
281
1
  0
ACDBDICTIONARYWDFLT
  5
12
330
A
100
AcDbDictionary
280
0
281
1
  3
Normal
350
13
100
AcDbDictionaryWithDefault
340
13
  0
ACDBPLACEHOLDER
  5
13
330
12
  0
DICTIONARY
  5
14
330
A
100
AcDbDictionary
280
0
281
1
  0
DICTIONARY
  5
15
330
A
100
AcDbDictionary
280
0
281
1
  0
DICTIONARY
  5
16
330
A
100
AcDbDictionary
280
0
281
1
  0
LAYOUT
  5
1A
330
D
100
AcDbPlotSettings
  1

  4
A3
  6

 40
7.5
 41
20.0
 42
7.5
 43
20.0
 44
420.0
 45
297.0
 46
0.0
 47
0.0
 48
0.0
 49
0.0
140
0.0
141
0.0
142
1.0
143
1.0
 70
1024
 72
1
 73
0
 74
5
  7

 75
16
 76
0
 77
2
 78
300
147
1.0
148
0.0
149
0.0
100
AcDbLayout
  1
Model
 70
1
 71
0
 10
0.0
 20
0.0
 11
420.0
 21
297.0
 12
0.0
 22
0.0
 32
0.0
 14
1e+20
 24
1e+20
 34
1e+20
 15
-1e+20
 25
-1e+20
 35
-1e+20
146
0.0
 13
0.0
 23
0.0
 33
0.0
 16
1.0
 26
0.0
 36
0.0
 17
0.0
 27
1.0
 37
0.0
 76
1
330
17
  0
LAYOUT
  5
1E
330
D
100
AcDbPlotSettings
  1

  4
A3
  6

 40
7.5
 41
20.0
 42
7.5
 43
20.0
 44
420.0
 45
297.0
 46
0.0
 47
0.0
 48
0.0
 49
0.0
140
0.0
141
0.0
142
1.0
143
1.0
 70
0
 72
1
 73
0
 74
5
  7

 75
16
 76
0
 77
2
 78
300
147
1.0
148
0.0
149
0.0
100
AcDbLayout
  1
Layout1
 70
1
 71
1
 10
0.0
 20
0.0
 11
420.0
 21
297.0
 12
0.0
 22
0.0
 32
0.0
 14
1e+20
 24
1e+20
 34
1e+20
 15
-1e+20
 25
-1e+20
 35
-1e+20
146
0.0
 13
0.0
 23
0.0
 33
0.0
 16
1.0
 26
0.0
 36
0.0
 17
0.0
 27
1.0
 37
0.0
 76
1
330
1B
  0
MATERIAL
  5
1F
102
{ACAD_REACTORS
330
E
102
}
330
E
100
AcDbMaterial
  1
ByBlock
  2

 70
0
 40
1.0
 71
1
 41
1.0
 91
-1023410177
 42
1.0
 72
1
  3

 73
1
 74
1
 75
1
 44
0.5
 73
0
 45
1.0
 46
1.0
 77
1
  4

 78
1
 79
1
170
1
 48
1.0
171
1
  6

172
1
173
1
174
1
140
1.0
141
1.0
175
1
  7

176
1
177
1
178
1
143
1.0
179
1
  8

270
1
271
1
272
1
145
1.0
146
1.0
273
1
  9

274
1
275
1
276
1
 42
1.0
 72
1
  3

 73
1
 74
1
 75
1
 94
63
  0
MATERIAL
  5
20
102
{ACAD_REACTORS
330
E
102
}
330
E
100
AcDbMaterial
  1
ByLayer
  2

 70
0
 40
1.0
 71
1
 41
1.0
 91
-1023410177
 42
1.0
 72
1
  3

 73
1
 74
1
 75
1
 44
0.5
 73
0
 45
1.0
 46
1.0
 77
1
  4

 78
1
 79
1
170
1
 48
1.0
171
1
  6

172
1
173
1
174
1
140
1.0
141
1.0
175
1
  7

176
1
177
1
178
1
143
1.0
179
1
  8

270
1
271
1
272
1
145
1.0
146
1.0
273
1
  9

274
1
275
1
276
1
 42
1.0
 72
1
  3

 73
1
 74
1
 75
1
 94
63
  0
MATERIAL
  5
21
102
{ACAD_REACTORS
330
E
102
}
330
E
100
AcDbMaterial
  1
Global
  2

 70
0
 40
1.0
 71
1
 41
1.0
 91
-1023410177
 42
1.0
 72
1
  3

 73
1
 74
1
 75
1
 44
0.5
 73
0
 45
1.0
 46
1.0
 77
1
  4

 78
1
 79
1
170
1
 48
1.0
171
1
  6

172
1
173
1
174
1
140
1.0
141
1.0
175
1
  7

176
1
177
1
178
1
143
1.0
179
1
  8

270
1
271
1
272
1
145
1.0
146
1.0
273
1
  9

274
1
275
1
276
1
 42
1.0
 72
1
  3

 73
1
 74
1
 75
1
 94
63
  0
MLINESTYLE
  5
22
102
{ACAD_REACTORS
330
10
102
}
330
10
100
AcDbMlineStyle
  2
Standard
 70
0
  3

 62
256
 51
90.0
 52
90.0
 71
2
 49
0.5
 62
256
  6
BYLAYER
 49
-0.5
 62
256
  6
BYLAYER
  0
MLEADERSTYLE
  5
2C
102
{ACAD_REACTORS
330
F
102
}
330
F
100
AcDbMLeaderStyle
179
2
170
2
171
1
172
0
 90
2
 40
0.0
 41
0.0
173
1
 91
-1056964608
 92
-2
290
1
 42
2.0
291
1
 43
8.0
  3
Standard
 44
4.0
300

342
29
174
1
175
1
176
0
178
1
 93
-1056964608
 45
4.0
292
0
297
0
 46
4.0
 94
-1056964608
 47
1.0
 49
1.0
140
1.0
294
1
141
0.0
177
0
142
1.0
295
0
296
0
143
3.75
271
0
272
9
273
9
  0
DICTIONARY
  5
2D
330
A
100
AcDbDictionary
281
1
  3
CREATED_BY_EZDXF
350
2E
  3
WRITTEN_BY_EZDXF
350
41A
  0
DICTIONARYVAR
  5
2E
330
2D
100
DictionaryVariables
280
0
  1
1.3.2 @ 2025-12-26T07:08:31.674136+00:00
  0
DICTIONARYVAR
  5
41A
330
2D
100
DictionaryVariables
280
0
  1
1.3.2 @ 2025-12-26T07:08:31.685137+00:00
  0
ENDSEC
  0
EOF
