  0
SECTION
  2
HEADER
  9
$ACADVER
  1
AC1015
  9
$ACADMAINTVER
 70
6
  9
$DWGCODEPAGE
  3
ANSI_1252
  9
$INSBASE
 10
0.0
 20
0.0
 30
0.0
  9
$EXTMIN
 10
1e+20
 20
1e+20
 30
1e+20
  9
$EXTMAX
 10
-1e+20
 20
-1e+20
 30
-1e+20
  9
$LIMMIN
 10
0.0
 20
0.0
  9
$LIMMAX
 10
420.0
 20
297.0
  9
$ORTHOMODE
 70
0
  9
$REGENMODE
 70
1
  9
$FILLMODE
 70
1
  9
$QTEXTMODE
 70
0
  9
$MIRRTEXT
 70
1
  9
$LTSCALE
 40
1.0
  9
$ATTMODE
 70
1
  9
$TEXTSIZE
 40
2.5
  9
$TRACEWID
 40
1.0
  9
$TEXTSTYLE
  7
Standard
  9
$CLAYER
  8
0
  9
$CELTYPE
  6
ByLayer
  9
$CECOLOR
 62
256
  9
$CELTSCALE
 40
1.0
  9
$DISPSILH
 70
0
  9
$DIMSCALE
 40
1.0
  9
$DIMASZ
 40
2.5
  9
$DIMEXO
 40
0.625
  9
$DIMDLI
 40
3.75
  9
$DIMRND
 40
0.0
  9
$DIMDLE
 40
0.0
  9
$DIMEXE
 40
1.25
  9
$DIMTP
 40
0.0
  9
$DIMTM
 40
0.0
  9
$DIMTXT
 40
2.5
  9
$DIMCEN
 40
2.5
  9
$DIMTSZ
 40
0.0
  9
$DIMTOL
 70
0
  9
$DIMLIM
 70
0
  9
$DIMTIH
 70
0
  9
$DIMTOH
 70
0
  9
$DIMSE1
 70
0
  9
$DIMSE2
 70
0
  9
$DIMTAD
 70
1
  9
$DIMZIN
 70
8
  9
$DIMBLK
  1

  9
$DIMASO
 70
1
  9
$DIMSHO
 70
1
  9
$DIMPOST
  1

  9
$DIMAPOST
  1

  9
$DIMALT
 70
0
  9
$DIMALTD
 70
3
  9
$DIMALTF
 40
0.03937007874
  9
$DIMLFAC
 40
1.0
  9
$DIMTOFL
 70
1
  9
$DIMTVP
 40
0.0
  9
$DIMTIX
 70
0
  9
$DIMSOXD
 70
0
  9
$DIMSAH
 70
0
  9
$DIMBLK1
  1

  9
$DIMBLK2
  1

  9
$DIMSTYLE
  2
ISO-25
  9
$DIMCLRD
 70
0
  9
$DIMCLRE
 70
0
  9
$DIMCLRT
 70
0
  9
$DIMTFAC
 40
1.0
  9
$DIMGAP
 40
0.625
  9
$DIMJUST
 70
0
  9
$DIMSD1
 70
0
  9
$DIMSD2
 70
0
  9
$DIMTOLJ
 70
0
  9
$DIMTZIN
 70
8
  9
$DIMALTZ
 70
0
  9
$DIMALTTZ
 70
0
  9
$DIMUPT
 70
0
  9
$DIMDEC
 70
2
  9
$DIMTDEC
 70
2
  9
$DIMALTU
 70
2
  9
$DIMALTTD
 70
3
  9
$DIMTXSTY
  7
Standard
  9
$DIMAUNIT
 70
0
  9
$DIMADEC
 70
0
  9
$DIMALTRND
 40
0.0
  9
$DIMAZIN
 70
0
  9
$DIMDSEP
 70
44
  9
$DIMATFIT
 70
3
  9
$DIMFRAC
 70
0
  9
$DIMLDRBLK
  1

  9
$DIMLUNIT
 70
2
  9
$DIMLWD
 70
-2
  9
$DIMLWE
 70
-2
  9
$DIMTMOVE
 70
0
  9
$LUNITS
 70
2
  9
$LUPREC
 70
4
  9
$SKETCHINC
 40
1.0
  9
$FILLETRAD
 40
10.0
  9
$AUNITS
 70
0
  9
$AUPREC
 70
2
  9
$MENU
  1
.
  9
$ELEVATION
 40
0.0
  9
$PELEVATION
 40
0.0
  9
$THICKNESS
 40
0.0
  9
$LIMCHECK
 70
0
  9
$CHAMFERA
 40
0.0
  9
$CHAMFERB
 40
0.0
  9
$CHAMFERC
 40
0.0
  9
$CHAMFERD
 40
0.0
  9
$SKPOLY
 70
0
  9
$TDCREATE
 40
2461028.556076389
  9
$TDUCREATE
 40
2458532.153996898
  9
$TDUPDATE
 40
2461028.556076389
  9
$TDUUPDATE
 40
2458532.1544311
  9
$TDINDWG
 40
0.0
  9
$TDUSRTIMER
 40
0.0
  9
$USRTIMER
 70
1
  9
$ANGBASE
 50
0.0
  9
$ANGDIR
 70
0
  9
$PDMODE
 70
0
  9
$PDSIZE
 40
0.0
  9
$PLINEWID
 40
0.0
  9
$SPLFRAME
 70
0
  9
$SPLINETYPE
 70
6
  9
$SPLINESEGS
 70
8
  9
$HANDSEED
  5
5D2
  9
$SURFTAB1
 70
6
  9
$SURFTAB2
 70
6
  9
$SURFTYPE
 70
6
  9
$SURFU
 70
6
  9
$SURFV
 70
6
  9
$UCSBASE
  2

  9
$UCSNAME
  2

  9
$UCSORG
 10
0.0
 20
0.0
 30
0.0
  9
$UCSXDIR
 10
1.0
 20
0.0
 30
0.0
  9
$UCSYDIR
 10
0.0
 20
1.0
 30
0.0
  9
$UCSORTHOREF
  2

  9
$UCSORTHOVIEW
 70
0
  9
$UCSORGTOP
 10
0.0
 20
0.0
 30
0.0
  9
$UCSORGBOTTOM
 10
0.0
 20
0.0
 30
0.0
  9
$UCSORGLEFT
 10
0.0
 20
0.0
 30
0.0
  9
$UCSORGRIGHT
 10
0.0
 20
0.0
 30
0.0
  9
$UCSORGFRONT
 10
0.0
 20
0.0
 30
0.0
  9
$UCSORGBACK
 10
0.0
 20
0.0
 30
0.0
  9
$PUCSBASE
  2

  9
$PUCSNAME
  2

  9
$PUCSORG
 10
0.0
 20
0.0
 30
0.0
  9
$PUCSXDIR
 10
1.0
 20
0.0
 30
0.0
  9
$PUCSYDIR
 10
0.0
 20
1.0
 30
0.0
  9
$PUCSORTHOREF
  2

  9
$PUCSORTHOVIEW
 70
0
  9
$PUCSORGTOP
 10
0.0
 20
0.0
 30
0.0
  9
$PUCSORGBOTTOM
 10
0.0
 20
0.0
 30
0.0
  9
$PUCSORGLEFT
 10
0.0
 20
0.0
 30
0.0
  9
$PUCSORGRIGHT
 10
0.0
 20
0.0
 30
0.0
  9
$PUCSORGFRONT
 10
0.0
 20
0.0
 30
0.0
  9
$PUCSORGBACK
 10
0.0
 20
0.0
 30
0.0
  9
$USERI1
 70
0
  9
$USERI2
 70
0
  9
$USERI3
 70
0
  9
$USERI4
 70
0
  9
$USERI5
 70
0
  9
$USERR1
 40
0.0
  9
$USERR2
 40
0.0
  9
$USERR3
 40
0.0
  9
$USERR4
 40
0.0
  9
$USERR5
 40
0.0
  9
$WORLDVIEW
 70
1
  9
$SHADEDGE
 70
3
  9
$SHADEDIF
 70
70
  9
$TILEMODE
 70
1
  9
$MAXACTVP
 70
64
  9
$PINSBASE
 10
0.0
 20
0.0
 30
0.0
  9
$PLIMCHECK
 70
0
  9
$PEXTMIN
 10
1e+20
 20
1e+20
 30
1e+20
  9
$PEXTMAX
 10
-1e+20
 20
-1e+20
 30
-1e+20
  9
$PLIMMIN
 10
0.0
 20
0.0
  9
$PLIMMAX
 10
420.0
 20
297.0
  9
$UNITMODE
 70
0
  9
$VISRETAIN
 70
1
  9
$PLINEGEN
 70
0
  9
$PSLTSCALE
 70
1
  9
$TREEDEPTH
 70
3020
  9
$CMLSTYLE
  2
Standard
  9
$CMLJUST
 70
0
  9
$CMLSCALE
 40
20.0
  9
$PROXYGRAPHICS
 70
1
  9
$MEASUREMENT
 70
1
  9
$CELWEIGHT
370
-1
  9
$ENDCAPS
280
0
  9
$JOINSTYLE
280
0
  9
$LWDISPLAY
290
0
  9
$INSUNITS
 70
6
  9
$HYPERLINKBASE
  1

  9
$STYLESHEET
  1

  9
$XEDIT
290
1
  9
$CEPSNTYPE
380
0
  9
$PSTYLEMODE
290
1
  9
$FINGERPRINTGUID
  2
{558E521D-944D-4956-A7C6-347BA25C8981}
  9
$VERSIONGUID
  2
{5C525F84-F978-4E2F-9F49-621B78BC24BE}
  9
$EXTNAMES
290
1
  9
$PSVPSCALE
 40
0.0
  9
$OLESTARTUP
290
0
  0
ENDSEC
  0
SECTION
  2
CLASSES
  0
CLASS
  1
ACDBDICTIONARYWDFLT
  2
AcDbDictionaryWithDefault
  3
ObjectDBX Classes
 90
0
280
0
281
0
  0
CLASS
  1
SUN
  2
AcDbSun
  3
SCENEOE
 90
1153
280
0
281
0
  0
CLASS
  1
VISUALSTYLE
  2
AcDbVisualStyle
  3
ObjectDBX Classes
 90
4095
280
0
281
0
  0
CLASS
  1
MATERIAL
  2
AcDbMaterial
  3
ObjectDBX Classes
 90
1153
280
0
281
0
  0
CLASS
  1
SCALE
  2
AcDbScale
  3
ObjectDBX Classes
 90
1153
280
0
281
0
  0
CLASS
  1
TABLESTYLE
  2
AcDbTableStyle
  3
ObjectDBX Classes
 90
4095
280
0
281
0
  0
CLASS
  1
MLEADERSTYLE
  2
AcDbMLeaderStyle
  3
ACDB_MLEADERSTYLE_CLASS
 90
4095
280
0
281
0
  0
CLASS
  1
DICTIONARYVAR
  2
AcDbDictionaryVar
  3
ObjectDBX Classes
 90
0
280
0
281
0
  0
CLASS
  1
CELLSTYLEMAP
  2
AcDbCellStyleMap
  3
ObjectDBX Classes
 90
1152
280
0
281
0
  0
CLASS
  1
MENTALRAYRENDERSETTINGS
  2
AcDbMentalRayRenderSettings
  3
SCENEOE
 90
1024
280
0
281
0
  0
CLASS
  1
ACDBDETAILVIEWSTYLE
  2
AcDbDetailViewStyle
  3
ObjectDBX Classes
 90
1025
280
0
281
0
  0
CLASS
  1
ACDBSECTIONVIEWSTYLE
  2
AcDbSectionViewStyle
  3
ObjectDBX Classes
 90
1025
280
0
281
0
  0
CLASS
  1
RASTERVARIABLES
  2
AcDbRasterVariables
  3
ISM
 90
0
280
0
281
0
  0
CLASS
  1
ACDBPLACEHOLDER
  2
AcDbPlaceHolder
  3
ObjectDBX Classes
 90
0
280
0
281
0
  0
CLASS
  1
LAYOUT
  2
AcDbLayout
  3
ObjectDBX Classes
 90
0
280
0
281
0
  0
ENDSEC
  0
SECTION
  2
TABLES
  0
TABLE
  2
VPORT
  5
8
330
0
100
AcDbSymbolTable
 70
1
  0
VPORT
  5
23
330
8
100
AcDbSymbolTableRecord
100
AcDbViewportTableRecord
  2
*Active
 70
0
 10
0.0
 20
0.0
 11
1.0
 21
1.0
 12
0.0
 22
0.0
 13
0.0
 23
0.0
 14
0.5
 24
0.5
 15
0.5
 25
0.5
 16
0.0
 26
0.0
 36
1.0
 17
0.0
 27
0.0
 37
0.0
 40
1000.0
 41
1.34
 42
50.0
 43
0.0
 44
0.0
 50
0.0
 51
0.0
 71
0
 72
1000
 73
1
 74
3
 75
0
 76
0
 77
0
 78
0
281
0
 65
0
146
0.0
  0
ENDTAB
  0
TABLE
  2
LTYPE
  5
2
330
0
100
AcDbSymbolTable
 70
3
  0
LTYPE
  5
24
330
2
100
AcDbSymbolTableRecord
100
AcDbLinetypeTableRecord
  2
ByBlock
 70
0
  3

 72
65
 73
0
 40
0.0
  0
LTYPE
  5
25
330
2
100
AcDbSymbolTableRecord
100
AcDbLinetypeTableRecord
  2
ByLayer
 70
0
  3

 72
65
 73
0
 40
0.0
  0
LTYPE
  5
26
330
2
100
AcDbSymbolTableRecord
100
AcDbLinetypeTableRecord
  2
Continuous
 70
0
  3

 72
65
 73
0
 40
0.0
  0
ENDTAB
  0
TABLE
  2
LAYER
  5
1
330
0
100
AcDbSymbolTable
 70
2
  0
LAYER
  5
27
330
1
100
AcDbSymbolTableRecord
100
AcDbLayerTableRecord
  2
0
 70
0
 62
7
  6
Continuous
370
-3
390
13
  0
LAYER
  5
28
330
1
100
AcDbSymbolTableRecord
100
AcDbLayerTableRecord
  2
Defpoints
 70
0
 62
7
  6
Continuous
290
0
370
-3
390
13
  0
ENDTAB
  0
TABLE
  2
STYLE
  5
5
330
0
100
AcDbSymbolTable
 70
1
  0
STYLE
  5
29
330
5
100
AcDbSymbolTableRecord
100
AcDbTextStyleTableRecord
  2
Standard
 70
0
 40
0.0
 41
1.0
 50
0.0
 71
0
 42
2.5
  3
txt
  4

  0
ENDTAB
  0
TABLE
  2
VIEW
  5
7
330
0
100
AcDbSymbolTable
 70
0
  0
ENDTAB
  0
TABLE
  2
UCS
  5
6
330
0
100
AcDbSymbolTable
 70
0
  0
ENDTAB
  0
TABLE
  2
APPID
  5
3
330
0
100
AcDbSymbolTable
 70
3
  0
APPID
  5
2A
330
3
100
AcDbSymbolTableRecord
100
AcDbRegAppTableRecord
  2
ACAD
 70
0
  0
APPID
  5
5CF
330
3
100
AcDbSymbolTableRecord
100
AcDbRegAppTableRecord
  2
HATCHBACKGROUNDCOLOR
 70
0
  0
APPID
  5
5D0
330
3
100
AcDbSymbolTableRecord
100
AcDbRegAppTableRecord
  2
EZDXF
 70
0
  0
ENDTAB
  0
TABLE
  2
DIMSTYLE
  5
4
330
0
100
AcDbSymbolTable
 70
1
100
AcDbDimStyleTable
  0
DIMSTYLE
105
2B
330
4
100
AcDbSymbolTableRecord
100
AcDbDimStyleTableRecord
  2
Standard
 70
0
  3

  4

 40
1.0
 41
2.5
 42
0.625
 43
3.75
 44
1.25
 45
0.0
 46
0.0
 47
0.0
 48
0.0
140
2.5
141
2.5
142
0.0
143
0.03937007874
144
1.0
145
0.0
146
1.0
147
0.625
148
0.0
 71
0
 72
0
 73
0
 74
0
 75
0
 76
0
 77
1
 78
8
 79
3
170
0
171
3
172
1
173
0
174
0
175
0
176
0
177
0
178
0
179
2
271
2
272
2
273
2
274
3
275
0
276
0
277
2
278
44
279
0
280
0
281
0
282
0
283
0
284
8
285
0
286
0
288
0
289
3
371
-2
372
-2
  0
ENDTAB
  0
TABLE
  2
BLOCK_RECORD
  5
9
330
0
100
AcDbSymbolTable
 70
2
  0
BLOCK_RECORD
  5
17
330
9
100
AcDbSymbolTableRecord
100
AcDbBlockTableRecord
  2
*Model_Space
340
1A
  0
BLOCK_RECORD
  5
1B
330
9
100
AcDbSymbolTableRecord
100
AcDbBlockTableRecord
  2
*Paper_Space
340
1E
  0
ENDTAB
  0
ENDSEC
  0
SECTION
  2
BLOCKS
  0
BLOCK
  5
18
330
17
100
AcDbEntity
  8
0
100
AcDbBlockBegin
  2
*Model_Space
 70
0
 10
0.0
 20
0.0
 30
0.0
  3
*Model_Space
  1

  0
ENDBLK
  5
19
330
17
100
AcDbEntity
  8
0
100
AcDbBlockEnd
  0
BLOCK
  5
1C
330
1B
100
AcDbEntity
  8
0
100
AcDbBlockBegin
  2
*Paper_Space
 70
0
 10
0.0
 20
0.0
 30
0.0
  3
*Paper_Space
  1

  0
ENDBLK
  5
1D
330
1B
100
AcDbEntity
  8
0
100
AcDbBlockEnd
  0
ENDSEC
  0
SECTION
  2
ENTITIES
  0
POINT
  5
2F
330
17
100
AcDbEntity
  8
0
100
AcDbPoint
 10
0.0
 20
1.8933499999999839
 30
0.0
  0
POINT
  5
30
330
17
100
AcDbEntity
  8
0
100
AcDbPoint
 10
0.25
 20
1.8512900000000059
 30
0.0
  0
POINT
  5
31
330
17
100
AcDbEntity
  8
0
100
AcDbPoint
 10
0.5
 20
1.8096900000000176
 30
0.0
  0
POINT
  5
32
330
17
100
AcDbEntity
  8
0
100
AcDbPoint
 10
0.75
 20
1.7685500000000047
 30
0.0
  0
POINT
  5
33
330
17
100
AcDbEntity
  8
0
100
AcDbPoint
 10
1.0
 20
1.7305700000000002
 30
0.0
  0
POINT
  5
34
330
17
100
AcDbEntity
  8
0
100
AcDbPoint
 10
1.25
 20
1.6876500000000192
 30
0.0
  0
POINT
  5
35
330
17
100
AcDbEntity
  8
0
100
AcDbPoint
 10
1.5
 20
1.6478900000000039
 30
0.0
  0
POINT
  5
36
330
17
100
AcDbEntity
  8
0
100
AcDbPoint
 10
1.75
 20
1.6085900000000066
 30
0.0
  0
POINT
  5
37
330
17
100
AcDbEntity
  8
0
100
AcDbPoint
 10
2.0
 20
1.569749999999999
 30
0.0
  0
POINT
  5
38
330
17
100
AcDbEntity
  8
0
100
AcDbPoint
 10
2.25
 20
1.5313699999999955
 30
0.0
  0
POINT
  5
39
330
17
100
AcDbEntity
  8
0
100
AcDbPoint
 10
2.5
 20
1.493459999999999
 30
0.0
  0
POINT
  5
3A
330
17
100
AcDbEntity
  8
0
100
AcDbPoint
 10
2.75
 20
1.4560100000000062
 30
0.0
  0
POINT
  5
3B
330
17
100
AcDbEntity
  8
0
100
AcDbPoint
 10
3.0
 20
1.4190300000000065
 30
0.0
  0
POINT
  5
3C
330
17
100
AcDbEntity
  8
0
100
AcDbPoint
 10
3.25
 20
1.3825099999999821
 30
0.0
  0
POINT
  5
3D
330
17
100
AcDbEntity
  8
0
100
AcDbPoint
 10
3.5
 20
1.3464500000000044
 30
0.0
  0
POINT
  5
3E
330
17
100
AcDbEntity
  8
0
100
AcDbPoint
 10
3.75
 20
1.3108600000000052
 30
0.0
  0
POINT
  5
3F
330
17
100
AcDbEntity
  8
0
100
AcDbPoint
 10
4.0
 20
1.27573000000001
 30
0.0
  0
POINT
  5
40
330
17
100
AcDbEntity
  8
0
100
AcDbPoint
 10
4.25
 20
1.2410700000000077
 30
0.0
  0
POINT
  5
41
330
17
100
AcDbEntity
  8
0
100
AcDbPoint
 10
4.5
 20
1.2068799999999982
 30
0.0
  0
POINT
  5
42
330
17
100
AcDbEntity
  8
0
100
AcDbPoint
 10
4.75
 20
1.1731500000000068
 30
0.0
  0
POINT
  5
43
330
17
100
AcDbEntity
  8
0
100
AcDbPoint
 10
5.0
 20
1.139889999999994
 30
0.0
  0
POINT
  5
44
330
17
100
AcDbEntity
  8
0
100
AcDbPoint
 10
5.25
 20
1.1071000000000026
 30
0.0
  0
POINT
  5
45
330
17
100
AcDbEntity
  8
0
100
AcDbPoint
 10
5.5
 20
1.074780000000004
 30
0.0
  0
POINT
  5
46
330
17
100
AcDbEntity
  8
0
100
AcDbPoint
 10
5.75
 20
1.0429299999999984
 30
0.0
  0
POINT
  5
47
330
17
100
AcDbEntity
  8
0
100
AcDbPoint
 10
6.0
 20
1.0115399999999823
 30
0.0
  0
POINT
  5
48
330
17
100
AcDbEntity
  8
0
100
AcDbPoint
 10
6.25
 20
0.9806299999999908
 30
0.0
  0
POINT
  5
49
330
17
100
AcDbEntity
  8
0
100
AcDbPoint
 10
6.5
 20
0.9501900000000063
 30
0.0
  0
POINT
  5
4A
330
17
100
AcDbEntity
  8
0
100
AcDbPoint
 10
6.75
 20
0.9202100000000115
 30
0.0
  0
POINT
  5
4B
330
17
100
AcDbEntity
  8
0
100
AcDbPoint
 10
7.0
 20
0.8907099999999986
 30
0.0
  0
POINT
  5
4C
330
17
100
AcDbEntity
  8
0
100
AcDbPoint
 10
7.25
 20
0.8616800000000069
 30
0.0
  0
POINT
  5
4D
330
17
100
AcDbEntity
  8
0
100
AcDbPoint
 10
7.5
 20
0.8331200000000081
 30
0.0
  0
POINT
  5
4E
330
17
100
AcDbEntity
  8
0
100
AcDbPoint
 10
7.75
 20
0.8050400000000195
 30
0.0
  0
POINT
  5
4F
330
17
100
AcDbEntity
  8
0
100
AcDbPoint
 10
8.0
 20
0.7774299999999954
 30
0.0
  0
POINT
  5
50
330
17
100
AcDbEntity
  8
0
100
AcDbPoint
 10
8.25
 20
0.7502900000000068
 30
0.0
  0
POINT
  5
51
330
17
100
AcDbEntity
  8
0
100
AcDbPoint
 10
8.5
 20
0.7236199999999968
 30
0.0
  0
POINT
  5
52
330
17
100
AcDbEntity
  8
0
100
AcDbPoint
 10
8.75
 20
0.6974299999999971
 30
0.0
  0
POINT
  5
53
330
17
100
AcDbEntity
  8
0
100
AcDbPoint
 10
9.0
 20
0.6717200000000219
 30
0.0
  0
POINT
  5
54
330
17
100
AcDbEntity
  8
0
100
AcDbPoint
 10
9.25
 20
0.646480000000011
 30
0.0
  0
POINT
  5
55
330
17
100
AcDbEntity
  8
0
100
AcDbPoint
 10
9.5
 20
0.6217100000000073
 30
0.0
  0
POINT
  5
56
330
17
100
AcDbEntity
  8
0
100
AcDbPoint
 10
9.75
 20
0.597430000000017
 30
0.0
  0
POINT
  5
57
330
17
100
AcDbEntity
  8
0
100
AcDbPoint
 10
10.0
 20
0.573609999999988
 30
0.0
  0
POINT
  5
58
330
17
100
AcDbEntity
  8
0
100
AcDbPoint
 10
10.25
 20
0.5502800000000008
 30
0.0
  0
POINT
  5
59
330
17
100
AcDbEntity
  8
0
100
AcDbPoint
 10
10.5
 20
0.5274200000000064
 30
0.0
  0
POINT
  5
5A
330
17
100
AcDbEntity
  8
0
100
AcDbPoint
 10
10.75
 20
0.5050399999999939
 30
0.0
  0
POINT
  5
5B
330
17
100
AcDbEntity
  8
0
100
AcDbPoint
 10
11.0
 20
0.4831400000000059
 30
0.0
  0
POINT
  5
5C
330
17
100
AcDbEntity
  8
0
100
AcDbPoint
 10
11.25
 20
0.4617199999999997
 30
0.0
  0
POINT
  5
5D
330
17
100
AcDbEntity
  8
0
100
AcDbPoint
 10
11.5
 20
0.4407800000000037
 30
0.0
  0
POINT
  5
5E
330
17
100
AcDbEntity
  8
0
100
AcDbPoint
 10
11.75
 20
0.4203200000000038
 30
0.0
  0
POINT
  5
5F
330
17
100
AcDbEntity
  8
0
100
AcDbPoint
 10
12.0
 20
0.4003399999999999
 30
0.0
  0
POINT
  5
60
330
17
100
AcDbEntity
  8
0
100
AcDbPoint
 10
12.25
 20
0.3808300000000173
 30
0.0
  0
POINT
  5
61
330
17
100
AcDbEntity
  8
0
100
AcDbPoint
 10
12.5
 20
0.3618100000000055
 30
0.0
  0
POINT
  5
62
330
17
100
AcDbEntity
  8
0
100
AcDbPoint
 10
12.75
 20
0.34326999999998975
 30
0.0
  0
POINT
  5
63
330
17
100
AcDbEntity
  8
0
100
AcDbPoint
 10
13.0
 20
0.3252200000000016
 30
0.0
  0
POINT
  5
64
330
17
100
AcDbEntity
  8
0
100
AcDbPoint
 10
13.25
 20
0.30764000000000635
 30
0.0
  0
POINT
  5
65
330
17
100
AcDbEntity
  8
0
100
AcDbPoint
 10
13.5
 20
0.2905499999999961
 30
0.0
  0
POINT
  5
66
330
17
100
AcDbEntity
  8
0
100
AcDbPoint
 10
13.75
 20
0.2739399999999961
 30
0.0
  0
POINT
  5
67
330
17
100
AcDbEntity
  8
0
100
AcDbPoint
 10
14.0
 20
0.2578200000000095
 30
0.0
  0
POINT
  5
68
330
17
100
AcDbEntity
  8
0
100
AcDbPoint
 10
14.25
 20
0.24218000000000472
 30
0.0
  0
POINT
  5
69
330
17
100
AcDbEntity
  8
0
100
AcDbPoint
 10
14.5
 20
0.2270199999999818
 30
0.0
  0
POINT
  5
6A
330
17
100
AcDbEntity
  8
0
100
AcDbPoint
 10
14.75
 20
0.21235000000001492
 30
0.0
  0
POINT
  5
6B
330
17
100
AcDbEntity
  8
0
100
AcDbPoint
 10
15.0
 20
0.1981699999999904
 30
0.0
  0
POINT
  5
6C
330
17
100
AcDbEntity
  8
0
100
AcDbPoint
 10
15.25
 20
0.18447000000000457
 30
0.0
  0
POINT
  5
6D
330
17
100
AcDbEntity
  8
0
100
AcDbPoint
 10
15.5
 20
0.17125999999998953
 30
0.0
  0
POINT
  5
6E
330
17
100
AcDbEntity
  8
0
100
AcDbPoint
 10
15.75
 20
0.15852999999999895
 30
0.0
  0
POINT
  5
6F
330
17
100
AcDbEntity
  8
0
100
AcDbPoint
 10
16.0
 20
0.14629999999999654
 30
0.0
  0
POINT
  5
70
330
17
100
AcDbEntity
  8
0
100
AcDbPoint
 10
16.25
 20
0.1345500000000044
 30
0.0
  0
POINT
  5
71
330
17
100
AcDbEntity
  8
0
100
AcDbPoint
 10
16.5
 20
0.12327999999999406
 30
0.0
  0
POINT
  5
72
330
17
100
AcDbEntity
  8
0
100
AcDbPoint
 10
16.75
 20
0.11251000000000033
 30
0.0
  0
POINT
  5
73
330
17
100
AcDbEntity
  8
0
100
AcDbPoint
 10
17.0
 20
0.1022299999999916
 30
0.0
  0
POINT
  5
74
330
17
100
AcDbEntity
  8
0
100
AcDbPoint
 10
17.25
 20
0.0924399999999963
 30
0.0
  0
POINT
  5
75
330
17
100
AcDbEntity
  8
0
100
AcDbPoint
 10
17.5
 20
0.08312999999998283
 30
0.0
  0
POINT
  5
76
330
17
100
AcDbEntity
  8
0
100
AcDbPoint
 10
17.75
 20
0.07431999999998595
 30
0.0
  0
POINT
  5
77
330
17
100
AcDbEntity
  8
0
100
AcDbPoint
 10
18.0
 20
0.0660000000000025
 30
0.0
  0
POINT
  5
78
330
17
100
AcDbEntity
  8
0
100
AcDbPoint
 10
18.25
 20
0.05816999999998984
 30
0.0
  0
POINT
  5
79
330
17
100
AcDbEntity
  8
0
100
AcDbPoint
 10
18.5
 20
0.05083000000001903
 30
0.0
  0
POINT
  5
7A
330
17
100
AcDbEntity
  8
0
100
AcDbPoint
 10
18.75
 20
0.04398000000000479
 30
0.0
  0
POINT
  5
7B
330
17
100
AcDbEntity
  8
0
100
AcDbPoint
 10
19.0
 20
0.03763000000002137
 30
0.0
  0
POINT
  5
7C
330
17
100
AcDbEntity
  8
0
100
AcDbPoint
 10
19.25
 20
0.031769999999994525
 30
0.0
  0
POINT
  5
7D
330
17
100
AcDbEntity
  8
0
100
AcDbPoint
 10
19.5
 20
0.026399999999995316
 30
0.0
  0
POINT
  5
7E
330
17
100
AcDbEntity
  8
0
100
AcDbPoint
 10
19.75
 20
0.021529999999998495
 30
0.0
  0
POINT
  5
7F
330
17
100
AcDbEntity
  8
0
100
AcDbPoint
 10
20.0
 20
0.017150000000000887
 30
0.0
  0
POINT
  5
80
330
17
100
AcDbEntity
  8
0
100
AcDbPoint
 10
20.25
 20
0.013270000000005666
 30
0.0
  0
POINT
  5
81
330
17
100
AcDbEntity
  8
0
100
AcDbPoint
 10
20.5
 20
0.009889999999998622
 30
0.0
  0
POINT
  5
82
330
17
100
AcDbEntity
  8
0
100
AcDbPoint
 10
20.75
 20
0.007000000000005002
 30
0.0
  0
POINT
  5
83
330
17
100
AcDbEntity
  8
0
100
AcDbPoint
 10
21.0
 20
0.004599999999996385
 30
0.0
  0
POINT
  5
84
330
17
100
AcDbEntity
  8
0
100
AcDbPoint
 10
21.25
 20
0.0027100000000075397
 30
0.0
  0
POINT
  5
85
330
17
100
AcDbEntity
  8
0
100
AcDbPoint
 10
21.5
 20
0.001310000000003697
 30
0.0
  0
POINT
  5
86
330
17
100
AcDbEntity
  8
0
100
AcDbPoint
 10
21.75
 20
0.00041000000001645276
 30
0.0
  0
POINT
  5
87
330
17
100
AcDbEntity
  8
0
100
AcDbPoint
 10
22.0
 20
1.0000000017384991e-05
 30
0.0
  0
POINT
  5
88
330
17
100
AcDbEntity
  8
0
100
AcDbPoint
 10
22.25
 20
0.00011000000000649379
 30
0.0
  0
POINT
  5
89
330
17
100
AcDbEntity
  8
0
100
AcDbPoint
 10
22.5
 20
0.0006999999999948159
 30
0.0
  0
POINT
  5
8A
330
17
100
AcDbEntity
  8
0
100
AcDbPoint
 10
22.75
 20
0.0018000000000029104
 30
0.0
  0
POINT
  5
8B
330
17
100
AcDbEntity
  8
0
100
AcDbPoint
 10
23.0
 20
0.0033999999999991815
 30
0.0
  0
POINT
  5
8C
330
17
100
AcDbEntity
  8
0
100
AcDbPoint
 10
23.25
 20
0.005489999999980455
 30
0.0
  0
POINT
  5
8D
330
17
100
AcDbEntity
  8
0
100
AcDbPoint
 10
23.5
 20
0.008089999999995712
 30
0.0
  0
POINT
  5
8E
330
17
100
AcDbEntity
  8
0
100
AcDbPoint
 10
23.75
 20
0.011189999999999145
 30
0.0
  0
POINT
  5
8F
330
17
100
AcDbEntity
  8
0
100
AcDbPoint
 10
24.0
 20
0.014799999999993929
 30
0.0
  0
POINT
  5
90
330
17
100
AcDbEntity
  8
0
100
AcDbPoint
 10
24.25
 20
0.018900000000002137
 30
0.0
  0
POINT
  5
91
330
17
100
AcDbEntity
  8
0
100
AcDbPoint
 10
24.5
 20
0.023510000000001696
 30
0.0
  0
POINT
  5
92
330
17
100
AcDbEntity
  8
0
100
AcDbPoint
 10
24.75
 20
0.028620000000003643
 30
0.0
  0
POINT
  5
93
330
17
100
AcDbEntity
  8
0
100
AcDbPoint
 10
25.0
 20
0.03423999999999694
 30
0.0
  0
POINT
  5
94
330
17
100
AcDbEntity
  8
0
100
AcDbPoint
 10
25.25
 20
0.040360000000006835
 30
0.0
  0
POINT
  5
95
330
17
100
AcDbEntity
  8
0
100
AcDbPoint
 10
25.5
 20
0.04699000000000808
 30
0.0
  0
POINT
  5
96
330
17
100
AcDbEntity
  8
0
100
AcDbPoint
 10
25.75
 20
0.0541199999999975
 30
0.0
  0
POINT
  5
97
330
17
100
AcDbEntity
  8
0
100
AcDbPoint
 10
26.0
 20
0.0617600000000067
 30
0.0
  0
POINT
  5
98
330
17
100
AcDbEntity
  8
0
100
AcDbPoint
 10
26.25
 20
0.06990000000000407
 30
0.0
  0
POINT
  5
99
330
17
100
AcDbEntity
  8
0
100
AcDbPoint
 10
26.5
 20
0.07855999999998176
 30
0.0
  0
POINT
  5
9A
330
17
100
AcDbEntity
  8
0
100
AcDbPoint
 10
26.75
 20
0.08771000000000129
 30
0.0
  0
POINT
  5
9B
330
17
100
AcDbEntity
  8
0
100
AcDbPoint
 10
27.0
 20
0.09738000000000113
 30
0.0
  0
POINT
  5
9C
330
17
100
AcDbEntity
  8
0
100
AcDbPoint
 10
27.25
 20
0.10756000000000654
 30
0.0
  0
POINT
  5
9D
330
17
100
AcDbEntity
  8
0
100
AcDbPoint
 10
27.5
 20
0.11824000000000012
 30
0.0
  0
POINT
  5
9E
330
17
100
AcDbEntity
  8
0
100
AcDbPoint
 10
27.75
 20
0.12942999999999927
 30
0.0
  0
POINT
  5
9F
330
17
100
AcDbEntity
  8
0
100
AcDbPoint
 10
28.0
 20
0.14114000000000715
 30
0.0
  0
POINT
  5
A0
330
17
100
AcDbEntity
  8
0
100
AcDbPoint
 10
28.25
 20
0.1533500000000032
 30
0.0
  0
POINT
  5
A1
330
17
100
AcDbEntity
  8
0
100
AcDbPoint
 10
28.5
 20
0.16606999999999061
 30
0.0
  0
POINT
  5
A2
330
17
100
AcDbEntity
  8
0
100
AcDbPoint
 10
28.75
 20
0.17931000000000097
 30
0.0
  0
POINT
  5
A3
330
17
100
AcDbEntity
  8
0
100
AcDbPoint
 10
29.0
 20
0.19306000000000267
 30
0.0
  0
POINT
  5
A4
330
17
100
AcDbEntity
  8
0
100
AcDbPoint
 10
29.25
 20
0.20731999999999573
 30
0.0
  0
POINT
  5
A5
330
17
100
AcDbEntity
  8
0
100
AcDbPoint
 10
29.5
 20
0.22208999999999435
 30
0.0
  0
POINT
  5
A6
330
17
100
AcDbEntity
  8
0
100
AcDbPoint
 10
29.75
 20
0.23736999999999853
 30
0.0
  0
POINT
  5
A7
330
17
100
AcDbEntity
  8
0
100
AcDbPoint
 10
30.0
 20
0.25316999999999723
 30
0.0
  0
POINT
  5
A8
330
17
100
AcDbEntity
  8
0
100
AcDbPoint
 10
30.25
 20
0.2694799999999873
 30
0.0
  0
POINT
  5
A9
330
17
100
AcDbEntity
  8
0
100
AcDbPoint
 10
30.5
 20
0.2862999999999971
 30
0.0
  0
POINT
  5
AA
330
17
100
AcDbEntity
  8
0
100
AcDbPoint
 10
30.75
 20
0.3096400000000017
 30
0.0
  0
POINT
  5
AB
330
17
100
AcDbEntity
  8
0
100
AcDbPoint
 10
31.0
 20
0.32150000000000034
 30
0.0
  0
POINT
  5
AC
330
17
100
AcDbEntity
  8
0
100
AcDbPoint
 10
31.25
 20
0.3398700000000048
 30
0.0
  0
POINT
  5
AD
330
17
100
AcDbEntity
  8
0
100
AcDbPoint
 10
31.5
 20
0.35876000000000374
 30
0.0
  0
POINT
  5
AE
330
17
100
AcDbEntity
  8
0
100
AcDbPoint
 10
31.75
 20
0.37815999999999406
 30
0.0
  0
POINT
  5
AF
330
17
100
AcDbEntity
  8
0
100
AcDbPoint
 10
32.0
 20
0.3980799999999931
 30
0.0
  0
POINT
  5
B0
330
17
100
AcDbEntity
  8
0
100
AcDbPoint
 10
32.25
 20
0.4185200000000009
 30
0.0
  0
POINT
  5
B1
330
17
100
AcDbEntity
  8
0
100
AcDbPoint
 10
32.5
 20
0.43947
 30
0.0
  0
POINT
  5
B2
330
17
100
AcDbEntity
  8
0
100
AcDbPoint
 10
32.75
 20
0.4609400000000079
 30
0.0
  0
POINT
  5
B3
330
17
100
AcDbEntity
  8
0
100
AcDbPoint
 10
33.0
 20
0.4829299999999961
 30
0.0
  0
POINT
  5
B4
330
17
100
AcDbEntity
  8
0
100
AcDbPoint
 10
33.25
 20
0.5054400000000072
 30
0.0
  0
POINT
  5
B5
330
17
100
AcDbEntity
  8
0
100
AcDbPoint
 10
33.5
 20
0.5284699999999987
 30
0.0
  0
POINT
  5
B6
330
17
100
AcDbEntity
  8
0
100
AcDbPoint
 10
33.75
 20
0.5520199999999988
 30
0.0
  0
POINT
  5
B7
330
17
100
AcDbEntity
  8
0
100
AcDbPoint
 10
34.0
 20
0.5760900000000078
 30
0.0
  0
POINT
  5
B8
330
17
100
AcDbEntity
  8
0
100
AcDbPoint
 10
34.25
 20
0.600679999999997
 30
0.0
  0
POINT
  5
B9
330
17
100
AcDbEntity
  8
0
100
AcDbPoint
 10
34.5
 20
0.625789999999995
 30
0.0
  0
POINT
  5
BA
330
17
100
AcDbEntity
  8
0
100
AcDbPoint
 10
34.75
 20
0.6514200000000017
 30
0.0
  0
POINT
  5
BB
330
17
100
AcDbEntity
  8
0
100
AcDbPoint
 10
35.0
 20
0.6775700000000029
 30
0.0
  0
POINT
  5
BC
330
17
100
AcDbEntity
  8
0
100
AcDbPoint
 10
35.25
 20
0.7042500000000018
 30
0.0
  0
POINT
  5
BD
330
17
100
AcDbEntity
  8
0
100
AcDbPoint
 10
35.5
 20
0.7314400000000063
 30
0.0
  0
POINT
  5
BE
330
17
100
AcDbEntity
  8
0
100
AcDbPoint
 10
35.75
 20
0.7591599999999943
 30
0.0
  0
POINT
  5
BF
330
17
100
AcDbEntity
  8
0
100
AcDbPoint
 10
36.0
 20
0.7874099999999942
 30
0.0
  0
POINT
  5
C0
330
17
100
AcDbEntity
  8
0
100
AcDbPoint
 10
36.25
 20
0.8161699999999996
 30
0.0
  0
POINT
  5
C1
330
17
100
AcDbEntity
  8
0
100
AcDbPoint
 10
36.5
 20
0.845460000000017
 30
0.0
  0
POINT
  5
C2
330
17
100
AcDbEntity
  8
0
100
AcDbPoint
 10
36.75
 20
0.8752700000000004
 30
0.0
  0
POINT
  5
C3
330
17
100
AcDbEntity
  8
0
100
AcDbPoint
 10
37.0
 20
0.9056099999999958
 30
0.0
  0
POINT
  5
C4
330
17
100
AcDbEntity
  8
0
100
AcDbPoint
 10
37.25
 20
0.9364699999999999
 30
0.0
  0
POINT
  5
C5
330
17
100
AcDbEntity
  8
0
100
AcDbPoint
 10
37.5
 20
0.9678600000000017
 30
0.0
  0
POINT
  5
C6
330
17
100
AcDbEntity
  8
0
100
AcDbPoint
 10
37.75
 20
0.999769999999998
 30
0.0
  0
POINT
  5
C7
330
17
100
AcDbEntity
  8
0
100
AcDbPoint
 10
38.0
 20
1.0322000000000031
 30
0.0
  0
POINT
  5
C8
330
17
100
AcDbEntity
  8
0
100
AcDbPoint
 10
38.25
 20
1.065170000000009
 30
0.0
  0
POINT
  5
C9
330
17
100
AcDbEntity
  8
0
100
AcDbPoint
 10
38.5
 20
1.0986499999999921
 30
0.0
  0
POINT
  5
CA
330
17
100
AcDbEntity
  8
0
100
AcDbPoint
 10
38.75
 20
1.1326700000000045
 30
0.0
  0
POINT
  5
CB
330
17
100
AcDbEntity
  8
0
100
AcDbPoint
 10
39.0
 20
1.1672099999999972
 30
0.0
  0
POINT
  5
CC
330
17
100
AcDbEntity
  8
0
100
AcDbPoint
 10
39.25
 20
1.2022800000000018
 30
0.0
  0
POINT
  5
CD
330
17
100
AcDbEntity
  8
0
100
AcDbPoint
 10
39.5
 20
1.2378700000000151
 30
0.0
  0
POINT
  5
CE
330
17
100
AcDbEntity
  8
0
100
AcDbPoint
 10
39.75
 20
1.2739899999999835
 30
0.0
  0
POINT
  5
CF
330
17
100
AcDbEntity
  8
0
100
AcDbPoint
 10
40.0
 20
1.3106400000000065
 30
0.0
  0
POINT
  5
D0
330
17
100
AcDbEntity
  8
0
100
AcDbPoint
 10
40.25
 20
1.3478100000000097
 30
0.0
  0
POINT
  5
D1
330
17
100
AcDbEntity
  8
0
100
AcDbPoint
 10
40.5
 20
1.3855199999999996
 30
0.0
  0
POINT
  5
D2
330
17
100
AcDbEntity
  8
0
100
AcDbPoint
 10
40.75
 20
1.4237499999999983
 30
0.0
  0
POINT
  5
D3
330
17
100
AcDbEntity
  8
0
100
AcDbPoint
 10
41.0
 20
1.4625000000000057
 30
0.0
  0
POINT
  5
D4
330
17
100
AcDbEntity
  8
0
100
AcDbPoint
 10
41.25
 20
1.5017899999999997
 30
0.0
  0
POINT
  5
D5
330
17
100
AcDbEntity
  8
0
100
AcDbPoint
 10
41.5
 20
1.5416100000000057
 30
0.0
  0
POINT
  5
D6
330
17
100
AcDbEntity
  8
0
100
AcDbPoint
 10
41.75
 20
1.5819500000000062
 30
0.0
  0
POINT
  5
D7
330
17
100
AcDbEntity
  8
0
100
AcDbPoint
 10
42.0
 20
1.6228200000000044
 30
0.0
  0
POINT
  5
D8
330
17
100
AcDbEntity
  8
0
100
AcDbPoint
 10
42.25
 20
1.6642200000000003
 30
0.0
  0
POINT
  5
D9
330
17
100
AcDbEntity
  8
0
100
AcDbPoint
 10
42.5
 20
1.706150000000008
 30
0.0
  0
POINT
  5
DA
330
17
100
AcDbEntity
  8
0
100
AcDbPoint
 10
42.74999999999994
 20
1.7486099999999993
 30
0.0
  0
POINT
  5
DB
330
17
100
AcDbEntity
  8
0
100
AcDbPoint
 10
43.0
 20
1.7915899999999993
 30
0.0
  0
POINT
  5
DC
330
17
100
AcDbEntity
  8
0
100
AcDbPoint
 10
43.25
 20
1.8351100000000145
 30
0.0
  0
POINT
  5
DD
330
17
100
AcDbEntity
  8
0
100
AcDbPoint
 10
43.5
 20
1.8791500000000099
 30
0.0
  0
POINT
  5
DE
330
17
100
AcDbEntity
  8
0
100
AcDbPoint
 10
43.75
 20
1.923720000000003
 30
0.0
  0
POINT
  5
DF
330
17
100
AcDbEntity
  8
0
100
AcDbPoint
 10
44.0
 20
1.9688200000000222
 30
0.0
  0
POINT
  5
E0
330
17
100
AcDbEntity
  8
0
100
AcDbPoint
 10
44.25
 20
2.0144499999999965
 30
0.0
  0
POINT
  5
E1
330
17
100
AcDbEntity
  8
0
100
AcDbPoint
 10
44.5
 20
2.060609999999997
 30
0.0
  0
POINT
  5
E2
330
17
100
AcDbEntity
  8
0
100
AcDbPoint
 10
44.75
 20
2.107289999999992
 30
0.0
  0
POINT
  5
E3
330
17
100
AcDbEntity
  8
0
100
AcDbPoint
 10
45.0
 20
2.1545099999999877
 30
0.0
  0
POINT
  5
E4
330
17
100
AcDbEntity
  8
0
100
AcDbPoint
 10
45.25
 20
2.2022500000000065
 30
0.0
  0
POINT
  5
E5
330
17
100
AcDbEntity
  8
0
100
AcDbPoint
 10
45.5
 20
2.2505200000000087
 30
0.0
  0
POINT
  5
E6
330
17
100
AcDbEntity
  8
0
100
AcDbPoint
 10
45.75
 20
2.2993199999999945
 30
0.0
  0
POINT
  5
E7
330
17
100
AcDbEntity
  8
0
100
AcDbPoint
 10
46.0
 20
2.3486500000000206
 30
0.0
  0
POINT
  5
E8
330
17
100
AcDbEntity
  8
0
100
AcDbPoint
 10
46.25
 20
2.3984999999999985
 30
0.0
  0
POINT
  5
E9
330
17
100
AcDbEntity
  8
0
100
AcDbPoint
 10
46.5
 20
2.4488800000000026
 30
0.0
  0
POINT
  5
EA
330
17
100
AcDbEntity
  8
0
100
AcDbPoint
 10
46.75
 20
2.4997900000000044
 30
0.0
  0
POINT
  5
EB
330
17
100
AcDbEntity
  8
0
100
AcDbPoint
 10
47.0
 20
2.551230000000004
 30
0.0
  0
POINT
  5
EC
330
17
100
AcDbEntity
  8
0
100
AcDbPoint
 10
47.25
 20
2.603200000000001
 30
0.0
  0
POINT
  5
ED
330
17
100
AcDbEntity
  8
0
100
AcDbPoint
 10
47.5
 20
2.655690000000021
 30
0.0
  0
POINT
  5
EE
330
17
100
AcDbEntity
  8
0
100
AcDbPoint
 10
47.75
 20
2.7087000000000074
 30
0.0
  0
POINT
  5
EF
330
17
100
AcDbEntity
  8
0
100
AcDbPoint
 10
48.0
 20
2.7622499999999803
 30
0.0
  0
POINT
  5
F0
330
17
100
AcDbEntity
  8
0
100
AcDbPoint
 10
48.25
 20
2.8163100000000014
 30
0.0
  0
POINT
  5
F1
330
17
100
AcDbEntity
  8
0
100
AcDbPoint
 10
48.5
 20
2.870909999999995
 30
0.0
  0
POINT
  5
F2
330
17
100
AcDbEntity
  8
0
100
AcDbPoint
 10
48.75
 20
2.9260300000000115
 30
0.0
  0
POINT
  5
F3
330
17
100
AcDbEntity
  8
0
100
AcDbPoint
 10
49.0
 20
2.981669999999994
 30
0.0
  0
POINT
  5
F4
330
17
100
AcDbEntity
  8
0
100
AcDbPoint
 10
49.25
 20
3.0378400000000028
 30
0.0
  0
POINT
  5
F5
330
17
100
AcDbEntity
  8
0
100
AcDbPoint
 10
49.5
 20
3.094530000000006
 30
0.0
  0
POINT
  5
F6
330
17
100
AcDbEntity
  8
0
100
AcDbPoint
 10
49.75
 20
3.1517400000000038
 30
0.0
  0
POINT
  5
F7
330
17
100
AcDbEntity
  8
0
100
AcDbPoint
 10
50.0
 20
3.2094799999999992
 30
0.0
  0
POINT
  5
F8
330
17
100
AcDbEntity
  8
0
100
AcDbPoint
 10
50.25
 20
3.2677300000000002
 30
0.0
  0
POINT
  5
F9
330
17
100
AcDbEntity
  8
0
100
AcDbPoint
 10
50.5
 20
3.326509999999999
 30
0.0
  0
POINT
  5
FA
330
17
100
AcDbEntity
  8
0
100
AcDbPoint
 10
50.75
 20
3.3858100000000064
 30
0.0
  0
POINT
  5
FB
330
17
100
AcDbEntity
  8
0
100
AcDbPoint
 10
51.0
 20
3.445629999999994
 30
0.0
  0
POINT
  5
FC
330
17
100
AcDbEntity
  8
0
100
AcDbPoint
 10
51.25
 20
3.505970000000005
 30
0.0
  0
POINT
  5
FD
330
17
100
AcDbEntity
  8
0
100
AcDbPoint
 10
51.5
 20
3.566829999999996
 30
0.0
  0
POINT
  5
FE
330
17
100
AcDbEntity
  8
0
100
AcDbPoint
 10
51.75
 20
3.6282099999999957
 30
0.0
  0
POINT
  5
FF
330
17
100
AcDbEntity
  8
0
100
AcDbPoint
 10
52.0
 20
3.690110000000004
 30
0.0
  0
POINT
  5
100
330
17
100
AcDbEntity
  8
0
100
AcDbPoint
 10
52.25
 20
3.752520000000004
 30
0.0
  0
POINT
  5
101
330
17
100
AcDbEntity
  8
0
100
AcDbPoint
 10
52.5
 20
3.8154499999999985
 30
0.0
  0
POINT
  5
102
330
17
100
AcDbEntity
  8
0
100
AcDbPoint
 10
52.75
 20
3.878889999999984
 30
0.0
  0
POINT
  5
103
330
17
100
AcDbEntity
  8
0
100
AcDbPoint
 10
53.0
 20
3.942850000000007
 30
0.0
  0
POINT
  5
104
330
17
100
AcDbEntity
  8
0
100
AcDbPoint
 10
53.25
 20
4.007320000000007
 30
0.0
  0
POINT
  5
105
330
17
100
AcDbEntity
  8
0
100
AcDbPoint
 10
53.5
 20
4.0722999999999985
 30
0.0
  0
POINT
  5
106
330
17
100
AcDbEntity
  8
0
100
AcDbPoint
 10
53.75
 20
4.137799999999999
 30
0.0
  0
POINT
  5
107
330
17
100
AcDbEntity
  8
0
100
AcDbPoint
 10
54.0
 20
4.203800000000001
 30
0.0
  0
POINT
  5
108
330
17
100
AcDbEntity
  8
0
100
AcDbPoint
 10
54.25
 20
4.270320000000012
 30
0.0
  0
POINT
  5
109
330
17
100
AcDbEntity
  8
0
100
AcDbPoint
 10
54.5
 20
4.337339999999983
 30
0.0
  0
POINT
  5
10A
330
17
100
AcDbEntity
  8
0
100
AcDbPoint
 10
54.75
 20
4.4048700000000025
 30
0.0
  0
POINT
  5
10B
330
17
100
AcDbEntity
  8
0
100
AcDbPoint
 10
55.0
 20
4.472909999999999
 30
0.0
  0
POINT
  5
10C
330
17
100
AcDbEntity
  8
0
100
AcDbPoint
 10
55.25
 20
4.5414499999999975
 30
0.0
  0
POINT
  5
10D
330
17
100
AcDbEntity
  8
0
100
AcDbPoint
 10
55.5
 20
4.610500000000002
 30
0.0
  0
POINT
  5
10E
330
17
100
AcDbEntity
  8
0
100
AcDbPoint
 10
55.75
 20
4.6800500000000085
 30
0.0
  0
POINT
  5
10F
330
17
100
AcDbEntity
  8
0
100
AcDbPoint
 10
56.0
 20
4.750100000000003
 30
0.0
  0
POINT
  5
110
330
17
100
AcDbEntity
  8
0
100
AcDbPoint
 10
56.25
 20
4.8206500000000005
 30
0.0
  0
POINT
  5
111
330
17
100
AcDbEntity
  8
0
100
AcDbPoint
 10
56.5
 20
4.8917
 30
0.0
  0
POINT
  5
112
330
17
100
AcDbEntity
  8
0
100
AcDbPoint
 10
56.75
 20
4.963239999999999
 30
0.0
  0
POINT
  5
113
330
17
100
AcDbEntity
  8
0
100
AcDbPoint
 10
57.0
 20
5.035290000000003
 30
0.0
  0
POINT
  5
114
330
17
100
AcDbEntity
  8
0
100
AcDbPoint
 10
57.25
 20
5.107830000000021
 30
0.0
  0
POINT
  5
115
330
17
100
AcDbEntity
  8
0
100
AcDbPoint
 10
57.5
 20
5.180859999999996
 30
0.0
  0
POINT
  5
116
330
17
100
AcDbEntity
  8
0
100
AcDbPoint
 10
57.75
 20
5.254379999999998
 30
0.0
  0
POINT
  5
117
330
17
100
AcDbEntity
  8
0
100
AcDbPoint
 10
58.0
 20
5.328389999999999
 30
0.0
  0
POINT
  5
118
330
17
100
AcDbEntity
  8
0
100
AcDbPoint
 10
58.25
 20
5.4029000000000025
 30
0.0
  0
POINT
  5
119
330
17
100
AcDbEntity
  8
0
100
AcDbPoint
 10
58.5
 20
5.477890000000002
 30
0.0
  0
POINT
  5
11A
330
17
100
AcDbEntity
  8
0
100
AcDbPoint
 10
58.75
 20
5.553359999999998
 30
0.0
  0
POINT
  5
11B
330
17
100
AcDbEntity
  8
0
100
AcDbPoint
 10
59.0
 20
5.629320000000007
 30
0.0
  0
POINT
  5
11C
330
17
100
AcDbEntity
  8
0
100
AcDbPoint
 10
59.25
 20
5.705759999999998
 30
0.0
  0
POINT
  5
11D
330
17
100
AcDbEntity
  8
0
100
AcDbPoint
 10
59.5
 20
5.78267000000001
 30
0.0
  0
POINT
  5
11E
330
17
100
AcDbEntity
  8
0
100
AcDbPoint
 10
59.75
 20
5.860070000000007
 30
0.0
  0
POINT
  5
11F
330
17
100
AcDbEntity
  8
0
100
AcDbPoint
 10
60.0
 20
5.937950000000001
 30
0.0
  0
POINT
  5
120
330
17
100
AcDbEntity
  8
0
100
AcDbPoint
 10
60.25
 20
6.016289999999998
 30
0.0
  0
POINT
  5
121
330
17
100
AcDbEntity
  8
0
100
AcDbPoint
 10
60.5
 20
6.095110000000005
 30
0.0
  0
POINT
  5
122
330
17
100
AcDbEntity
  8
0
100
AcDbPoint
 10
60.75
 20
6.17440000000002
 30
0.0
  0
POINT
  5
123
330
17
100
AcDbEntity
  8
0
100
AcDbPoint
 10
61.0
 20
6.254159999999999
 30
0.0
  0
POINT
  5
124
330
17
100
AcDbEntity
  8
0
100
AcDbPoint
 10
61.25
 20
6.334379999999996
 30
0.0
  0
POINT
  5
125
330
17
100
AcDbEntity
  8
0
100
AcDbPoint
 10
61.5
 20
6.41507
 30
0.0
  0
POINT
  5
126
330
17
100
AcDbEntity
  8
0
100
AcDbPoint
 10
61.75
 20
6.496220000000008
 30
0.0
  0
POINT
  5
127
330
17
100
AcDbEntity
  8
0
100
AcDbPoint
 10
62.0
 20
6.577830000000006
 30
0.0
  0
POINT
  5
128
330
17
100
AcDbEntity
  8
0
100
AcDbPoint
 10
62.25
 20
6.6599000000000075
 30
0.0
  0
POINT
  5
129
330
17
100
AcDbEntity
  8
0
100
AcDbPoint
 10
62.5
 20
6.742419999999996
 30
0.0
  0
POINT
  5
12A
330
17
100
AcDbEntity
  8
0
100
AcDbPoint
 10
62.75
 20
6.825389999999999
 30
0.0
  0
POINT
  5
12B
330
17
100
AcDbEntity
  8
0
100
AcDbPoint
 10
63.0
 20
6.908810000000017
 30
0.0
  0
POINT
  5
12C
330
17
100
AcDbEntity
  8
0
100
AcDbPoint
 10
63.25
 20
6.992680000000021
 30
0.0
  0
POINT
  5
12D
330
17
100
AcDbEntity
  8
0
100
AcDbPoint
 10
63.5
 20
7.077000000000027
 30
0.0
  0
POINT
  5
12E
330
17
100
AcDbEntity
  8
0
100
AcDbPoint
 10
63.75
 20
7.161760000000001
 30
0.0
  0
POINT
  5
12F
330
17
100
AcDbEntity
  8
0
100
AcDbPoint
 10
63.99999999999994
 20
7.246959999999987
 30
0.0
  0
POINT
  5
130
330
17
100
AcDbEntity
  8
0
100
AcDbPoint
 10
64.25
 20
7.332589999999996
 30
0.0
  0
POINT
  5
131
330
17
100
AcDbEntity
  8
0
100
AcDbPoint
 10
64.5
 20
7.418660000000003
 30
0.0
  0
POINT
  5
132
330
17
100
AcDbEntity
  8
0
100
AcDbPoint
 10
64.75
 20
7.505160000000004
 30
0.0
  0
POINT
  5
133
330
17
100
AcDbEntity
  8
0
100
AcDbPoint
 10
65.0
 20
7.592090000000013
 30
0.0
  0
POINT
  5
134
330
17
100
AcDbEntity
  8
0
100
AcDbPoint
 10
65.25
 20
7.67944
 30
0.0
  0
POINT
  5
135
330
17
100
AcDbEntity
  8
0
100
AcDbPoint
 10
65.5
 20
7.767219999999995
 30
0.0
  0
POINT
  5
136
330
17
100
AcDbEntity
  8
0
100
AcDbPoint
 10
65.75
 20
7.85541000000002
 30
0.0
  0
POINT
  5
137
330
17
100
AcDbEntity
  8
0
100
AcDbPoint
 10
66.0
 20
7.944029999999998
 30
0.0
  0
POINT
  5
138
330
17
100
AcDbEntity
  8
0
100
AcDbPoint
 10
66.25
 20
8.033050000000003
 30
0.0
  0
POINT
  5
139
330
17
100
AcDbEntity
  8
0
100
AcDbPoint
 10
66.5
 20
8.122489999999999
 30
0.0
  0
POINT
  5
13A
330
17
100
AcDbEntity
  8
0
100
AcDbPoint
 10
66.75
 20
8.212330000000023
 30
0.0
  0
POINT
  5
13B
330
17
100
AcDbEntity
  8
0
100
AcDbPoint
 10
67.0
 20
8.30258000000002
 30
0.0
  0
POINT
  5
13C
330
17
100
AcDbEntity
  8
0
100
AcDbPoint
 10
67.25
 20
8.393230000000003
 30
0.0
  0
POINT
  5
13D
330
17
100
AcDbEntity
  8
0
100
AcDbPoint
 10
67.5
 20
8.484279999999998
 30
0.0
  0
POINT
  5
13E
330
17
100
AcDbEntity
  8
0
100
AcDbPoint
 10
67.75
 20
8.575720000000018
 30
0.0
  0
POINT
  5
13F
330
17
100
AcDbEntity
  8
0
100
AcDbPoint
 10
68.0
 20
8.667550000000006
 30
0.0
  0
POINT
  5
140
330
17
100
AcDbEntity
  8
0
100
AcDbPoint
 10
68.25
 20
8.759770000000017
 30
0.0
  0
POINT
  5
141
330
17
100
AcDbEntity
  8
0
100
AcDbPoint
 10
68.5
 20
8.852369999999993
 30
0.0
  0
POINT
  5
142
330
17
100
AcDbEntity
  8
0
100
AcDbPoint
 10
68.75
 20
8.945350000000019
 30
0.0
  0
POINT
  5
143
330
17
100
AcDbEntity
  8
0
100
AcDbPoint
 10
69.0
 20
9.038709999999995
 30
0.0
  0
POINT
  5
144
330
17
100
AcDbEntity
  8
0
100
AcDbPoint
 10
69.25
 20
9.132440000000003
 30
0.0
  0
POINT
  5
145
330
17
100
AcDbEntity
  8
0
100
AcDbPoint
 10
69.5
 20
9.226529999999997
 30
0.0
  0
POINT
  5
146
330
17
100
AcDbEntity
  8
0
100
AcDbPoint
 10
69.75
 20
9.320999999999998
 30
0.0
  0
POINT
  5
147
330
17
100
AcDbEntity
  8
0
100
AcDbPoint
 10
70.0
 20
9.415819999999997
 30
0.0
  0
POINT
  5
148
330
17
100
AcDbEntity
  8
0
100
AcDbPoint
 10
70.25
 20
9.510999999999981
 30
0.0
  0
POINT
  5
149
330
17
100
AcDbEntity
  8
0
100
AcDbPoint
 10
70.5
 20
9.606530000000006
 30
0.0
  0
POINT
  5
14A
330
17
100
AcDbEntity
  8
0
100
AcDbPoint
 10
70.75
 20
9.70241
 30
0.0
  0
POINT
  5
14B
330
17
100
AcDbEntity
  8
0
100
AcDbPoint
 10
71.0
 20
9.79864000000002
 30
0.0
  0
POINT
  5
14C
330
17
100
AcDbEntity
  8
0
100
AcDbPoint
 10
71.25
 20
9.895210000000006
 30
0.0
  0
POINT
  5
14D
330
17
100
AcDbEntity
  8
0
100
AcDbPoint
 10
71.5
 20
9.992110000000011
 30
0.0
  0
POINT
  5
14E
330
17
100
AcDbEntity
  8
0
100
AcDbPoint
 10
71.75
 20
10.089349999999996
 30
0.0
  0
POINT
  5
14F
330
17
100
AcDbEntity
  8
0
100
AcDbPoint
 10
72.0
 20
10.186909999999997
 30
0.0
  0
POINT
  5
150
330
17
100
AcDbEntity
  8
0
100
AcDbPoint
 10
72.25
 20
10.284800000000004
 30
0.0
  0
POINT
  5
151
330
17
100
AcDbEntity
  8
0
100
AcDbPoint
 10
72.5
 20
10.383009999999999
 30
0.0
  0
POINT
  5
152
330
17
100
AcDbEntity
  8
0
100
AcDbPoint
 10
72.75
 20
10.481530000000006
 30
0.0
  0
POINT
  5
153
330
17
100
AcDbEntity
  8
0
100
AcDbPoint
 10
73.0
 20
10.580359999999999
 30
0.0
  0
POINT
  5
154
330
17
100
AcDbEntity
  8
0
100
AcDbPoint
 10
73.25
 20
10.679490000000001
 30
0.0
  0
POINT
  5
155
330
17
100
AcDbEntity
  8
0
100
AcDbPoint
 10
73.5
 20
10.778930000000003
 30
0.0
  0
POINT
  5
156
330
17
100
AcDbEntity
  8
0
100
AcDbPoint
 10
73.75
 20
10.878659999999996
 30
0.0
  0
POINT
  5
157
330
17
100
AcDbEntity
  8
0
100
AcDbPoint
 10
74.0
 20
10.97869
 30
0.0
  0
POINT
  5
158
330
17
100
AcDbEntity
  8
0
100
AcDbPoint
 10
74.25
 20
11.079000000000022
 30
0.0
  0
POINT
  5
159
330
17
100
AcDbEntity
  8
0
100
AcDbPoint
 10
74.5
 20
11.179590000000005
 30
0.0
  0
POINT
  5
15A
330
17
100
AcDbEntity
  8
0
100
AcDbPoint
 10
74.75
 20
11.280460000000005
 30
0.0
  0
POINT
  5
15B
330
17
100
AcDbEntity
  8
0
100
AcDbPoint
 10
75.0
 20
11.381600000000006
 30
0.0
  0
POINT
  5
15C
330
17
100
AcDbEntity
  8
0
100
AcDbPoint
 10
75.25
 20
11.483009999999993
 30
0.0
  0
POINT
  5
15D
330
17
100
AcDbEntity
  8
0
100
AcDbPoint
 10
75.5
 20
11.584680000000006
 30
0.0
  0
POINT
  5
15E
330
17
100
AcDbEntity
  8
0
100
AcDbPoint
 10
75.75
 20
11.686610000000002
 30
0.0
  0
POINT
  5
15F
330
17
100
AcDbEntity
  8
0
100
AcDbPoint
 10
76.0
 20
11.788790000000006
 30
0.0
  0
POINT
  5
160
330
17
100
AcDbEntity
  8
0
100
AcDbPoint
 10
76.25
 20
11.891210000000001
 30
0.0
  0
POINT
  5
161
330
17
100
AcDbEntity
  8
0
100
AcDbPoint
 10
76.5
 20
11.993880000000004
 30
0.0
  0
POINT
  5
162
330
17
100
AcDbEntity
  8
0
100
AcDbPoint
 10
76.75
 20
12.096779999999995
 30
0.0
  0
POINT
  5
163
330
17
100
AcDbEntity
  8
0
100
AcDbPoint
 10
77.0
 20
12.199910000000003
 30
0.0
  0
POINT
  5
164
330
17
100
AcDbEntity
  8
0
100
AcDbPoint
 10
77.25
 20
12.303269999999998
 30
0.0
  0
POINT
  5
165
330
17
100
AcDbEntity
  8
0
100
AcDbPoint
 10
77.5
 20
12.406850000000006
 30
0.0
  0
POINT
  5
166
330
17
100
AcDbEntity
  8
0
100
AcDbPoint
 10
77.75
 20
12.51064000000001
 30
0.0
  0
POINT
  5
167
330
17
100
AcDbEntity
  8
0
100
AcDbPoint
 10
78.0
 20
12.614639999999994
 30
0.0
  0
POINT
  5
168
330
17
100
AcDbEntity
  8
0
100
AcDbPoint
 10
78.25
 20
12.718840000000014
 30
0.0
  0
POINT
  5
169
330
17
100
AcDbEntity
  8
0
100
AcDbPoint
 10
78.5
 20
12.823239999999998
 30
0.0
  0
POINT
  5
16A
330
17
100
AcDbEntity
  8
0
100
AcDbPoint
 10
78.75
 20
12.92783999999999
 30
0.0
  0
POINT
  5
16B
330
17
100
AcDbEntity
  8
0
100
AcDbPoint
 10
79.0
 20
13.03261999999998
 30
0.0
  0
POINT
  5
16C
330
17
100
AcDbEntity
  8
0
100
AcDbPoint
 10
79.25
 20
13.137569999999997
 30
0.0
  0
POINT
  5
16D
330
17
100
AcDbEntity
  8
0
100
AcDbPoint
 10
79.5
 20
13.242710000000002
 30
0.0
  0
POINT
  5
16E
330
17
100
AcDbEntity
  8
0
100
AcDbPoint
 10
79.75
 20
13.348010000000002
 30
0.0
  0
POINT
  5
16F
330
17
100
AcDbEntity
  8
0
100
AcDbPoint
 10
80.0
 20
13.453480000000013
 30
0.0
  0
POINT
  5
170
330
17
100
AcDbEntity
  8
0
100
AcDbPoint
 10
80.25
 20
13.559099999999987
 30
0.0
  0
POINT
  5
171
330
17
100
AcDbEntity
  8
0
100
AcDbPoint
 10
80.5
 20
13.664870000000008
 30
0.0
  0
POINT
  5
172
330
17
100
AcDbEntity
  8
0
100
AcDbPoint
 10
80.75
 20
13.770790000000005
 30
0.0
  0
POINT
  5
173
330
17
100
AcDbEntity
  8
0
100
AcDbPoint
 10
81.0
 20
13.876849999999976
 30
0.0
  0
POINT
  5
174
330
17
100
AcDbEntity
  8
0
100
AcDbPoint
 10
81.25
 20
13.983030000000014
 30
0.0
  0
POINT
  5
175
330
17
100
AcDbEntity
  8
0
100
AcDbPoint
 10
81.5
 20
14.089349999999982
 30
0.0
  0
POINT
  5
176
330
17
100
AcDbEntity
  8
0
100
AcDbPoint
 10
81.75
 20
14.195789999999988
 30
0.0
  0
POINT
  5
177
330
17
100
AcDbEntity
  8
0
100
AcDbPoint
 10
82.0
 20
14.302340000000001
 30
0.0
  0
POINT
  5
178
330
17
100
AcDbEntity
  8
0
100
AcDbPoint
 10
82.25
 20
14.409000000000006
 30
0.0
  0
POINT
  5
179
330
17
100
AcDbEntity
  8
0
100
AcDbPoint
 10
82.5
 20
14.515760000000014
 30
0.0
  0
POINT
  5
17A
330
17
100
AcDbEntity
  8
0
100
AcDbPoint
 10
82.75
 20
14.622620000000012
 30
0.0
  0
POINT
  5
17B
330
17
100
AcDbEntity
  8
0
100
AcDbPoint
 10
83.0
 20
14.729560000000006
 30
0.0
  0
POINT
  5
17C
330
17
100
AcDbEntity
  8
0
100
AcDbPoint
 10
83.25
 20
14.836590000000015
 30
0.0
  0
POINT
  5
17D
330
17
100
AcDbEntity
  8
0
100
AcDbPoint
 10
83.5
 20
14.943690000000004
 30
0.0
  0
POINT
  5
17E
330
17
100
AcDbEntity
  8
0
100
AcDbPoint
 10
83.75
 20
15.050870000000018
 30
0.0
  0
POINT
  5
17F
330
17
100
AcDbEntity
  8
0
100
AcDbPoint
 10
84.0
 20
15.158110000000008
 30
0.0
  0
POINT
  5
180
330
17
100
AcDbEntity
  8
0
100
AcDbPoint
 10
84.25
 20
15.2654
 30
0.0
  0
POINT
  5
181
330
17
100
AcDbEntity
  8
0
100
AcDbPoint
 10
84.5
 20
15.37275000000001
 30
0.0
  0
POINT
  5
182
330
17
100
AcDbEntity
  8
0
100
AcDbPoint
 10
84.75
 20
15.480140000000006
 30
0.0
  0
POINT
  5
183
330
17
100
AcDbEntity
  8
0
100
AcDbPoint
 10
85.0
 20
15.587559999999996
 30
0.0
  0
POINT
  5
184
330
17
100
AcDbEntity
  8
0
100
AcDbPoint
 10
85.25
 20
15.695020000000014
 30
0.0
  0
POINT
  5
185
330
17
100
AcDbEntity
  8
0
100
AcDbPoint
 10
85.5
 20
15.802500000000009
 30
0.0
  0
POINT
  5
186
330
17
100
AcDbEntity
  8
0
100
AcDbPoint
 10
85.75
 20
15.909999999999997
 30
0.0
  0
POINT
  5
187
330
17
100
AcDbEntity
  8
0
100
AcDbPoint
 10
86.0
 20
16.017510000000016
 30
0.0
  0
POINT
  5
188
330
17
100
AcDbEntity
  8
0
100
AcDbPoint
 10
86.25
 20
16.12502000000002
 30
0.0
  0
POINT
  5
189
330
17
100
AcDbEntity
  8
0
100
AcDbPoint
 10
86.5
 20
16.23254
 30
0.0
  0
POINT
  5
18A
330
17
100
AcDbEntity
  8
0
100
AcDbPoint
 10
86.75
 20
16.340040000000002
 30
0.0
  0
POINT
  5
18B
330
17
100
AcDbEntity
  8
0
100
AcDbPoint
 10
87.0
 20
16.447519999999997
 30
0.0
  0
POINT
  5
18C
330
17
100
AcDbEntity
  8
0
100
AcDbPoint
 10
87.25
 20
16.55498
 30
0.0
  0
POINT
  5
18D
330
17
100
AcDbEntity
  8
0
100
AcDbPoint
 10
87.5
 20
16.66242000000001
 30
0.0
  0
POINT
  5
18E
330
17
100
AcDbEntity
  8
0
100
AcDbPoint
 10
87.75
 20
16.769810000000007
 30
0.0
  0
POINT
  5
18F
330
17
100
AcDbEntity
  8
0
100
AcDbPoint
 10
88.0
 20
16.877160000000003
 30
0.0
  0
POINT
  5
190
330
17
100
AcDbEntity
  8
0
100
AcDbPoint
 10
88.25
 20
16.98446
 30
0.0
  0
POINT
  5
191
330
17
100
AcDbEntity
  8
0
100
AcDbPoint
 10
88.5
 20
17.08990999999999
 30
0.0
  0
POINT
  5
192
330
17
100
AcDbEntity
  8
0
100
AcDbPoint
 10
88.75
 20
17.19888999999999
 30
0.0
  0
POINT
  5
193
330
17
100
AcDbEntity
  8
0
100
AcDbPoint
 10
89.0
 20
17.305999999999983
 30
0.0
  0
POINT
  5
194
330
17
100
AcDbEntity
  8
0
100
AcDbPoint
 10
89.25
 20
17.413030000000006
 30
0.0
  0
POINT
  5
195
330
17
100
AcDbEntity
  8
0
100
AcDbPoint
 10
89.5
 20
17.51997
 30
0.0
  0
POINT
  5
196
330
17
100
AcDbEntity
  8
0
100
AcDbPoint
 10
89.75
 20
17.626829999999998
 30
0.0
  0
POINT
  5
197
330
17
100
AcDbEntity
  8
0
100
AcDbPoint
 10
90.0
 20
17.733580000000003
 30
0.0
  0
POINT
  5
198
330
17
100
AcDbEntity
  8
0
100
AcDbPoint
 10
90.25
 20
17.840230000000005
 30
0.0
  0
POINT
  5
199
330
17
100
AcDbEntity
  8
0
100
AcDbPoint
 10
90.5
 20
17.946769999999987
 30
0.0
  0
POINT
  5
19A
330
17
100
AcDbEntity
  8
0
100
AcDbPoint
 10
90.75
 20
18.05319
 30
0.0
  0
POINT
  5
19B
330
17
100
AcDbEntity
  8
0
100
AcDbPoint
 10
91.0
 20
18.159479999999988
 30
0.0
  0
POINT
  5
19C
330
17
100
AcDbEntity
  8
0
100
AcDbPoint
 10
91.25
 20
18.265640000000005
 30
0.0
  0
POINT
  5
19D
330
17
100
AcDbEntity
  8
0
100
AcDbPoint
 10
91.5
 20
18.371650000000002
 30
0.0
  0
POINT
  5
19E
330
17
100
AcDbEntity
  8
0
100
AcDbPoint
 10
91.75
 20
18.477520000000013
 30
0.0
  0
POINT
  5
19F
330
17
100
AcDbEntity
  8
0
100
AcDbPoint
 10
92.0
 20
18.58323999999999
 30
0.0
  0
POINT
  5
1A0
330
17
100
AcDbEntity
  8
0
100
AcDbPoint
 10
92.25
 20
18.688789999999997
 30
0.0
  0
POINT
  5
1A1
330
17
100
AcDbEntity
  8
0
100
AcDbPoint
 10
92.5
 20
18.794179999999997
 30
0.0
  0
POINT
  5
1A2
330
17
100
AcDbEntity
  8
0
100
AcDbPoint
 10
92.75
 20
18.899389999999997
 30
0.0
  0
POINT
  5
1A3
330
17
100
AcDbEntity
  8
0
100
AcDbPoint
 10
93.0
 20
19.004410000000007
 30
0.0
  0
POINT
  5
1A4
330
17
100
AcDbEntity
  8
0
100
AcDbPoint
 10
93.25
 20
19.109250000000017
 30
0.0
  0
POINT
  5
1A5
330
17
100
AcDbEntity
  8
0
100
AcDbPoint
 10
93.5
 20
19.213890000000006
 30
0.0
  0
POINT
  5
1A6
330
17
100
AcDbEntity
  8
0
100
AcDbPoint
 10
93.75
 20
19.318330000000003
 30
0.0
  0
POINT
  5
1A7
330
17
100
AcDbEntity
  8
0
100
AcDbPoint
 10
94.0
 20
19.422560000000004
 30
0.0
  0
POINT
  5
1A8
330
17
100
AcDbEntity
  8
0
100
AcDbPoint
 10
94.25
 20
19.526570000000007
 30
0.0
  0
POINT
  5
1A9
330
17
100
AcDbEntity
  8
0
100
AcDbPoint
 10
94.5
 20
19.630359999999996
 30
0.0
  0
POINT
  5
1AA
330
17
100
AcDbEntity
  8
0
100
AcDbPoint
 10
94.75
 20
19.73391000000001
 30
0.0
  0
POINT
  5
1AB
330
17
100
AcDbEntity
  8
0
100
AcDbPoint
 10
95.0
 20
19.837230000000005
 30
0.0
  0
POINT
  5
1AC
330
17
100
AcDbEntity
  8
0
100
AcDbPoint
 10
95.25
 20
19.940300000000008
 30
0.0
  0
POINT
  5
1AD
330
17
100
AcDbEntity
  8
0
100
AcDbPoint
 10
95.5
 20
20.04313000000002
 30
0.0
  0
POINT
  5
1AE
330
17
100
AcDbEntity
  8
0
100
AcDbPoint
 10
95.75
 20
20.145689999999988
 30
0.0
  0
POINT
  5
1AF
330
17
100
AcDbEntity
  8
0
100
AcDbPoint
 10
96.0
 20
20.247990000000016
 30
0.0
  0
POINT
  5
1B0
330
17
100
AcDbEntity
  8
0
100
AcDbPoint
 10
96.25
 20
20.350020000000015
 30
0.0
  0
POINT
  5
1B1
330
17
100
AcDbEntity
  8
0
100
AcDbPoint
 10
96.5
 20
20.451760000000007
 30
0.0
  0
POINT
  5
1B2
330
17
100
AcDbEntity
  8
0
100
AcDbPoint
 10
96.75
 20
20.553219999999996
 30
0.0
  0
POINT
  5
1B3
330
17
100
AcDbEntity
  8
0
100
AcDbPoint
 10
97.0
 20
20.654390000000006
 30
0.0
  0
POINT
  5
1B4
330
17
100
AcDbEntity
  8
0
100
AcDbPoint
 10
97.25
 20
20.755259999999993
 30
0.0
  0
POINT
  5
1B5
330
17
100
AcDbEntity
  8
0
100
AcDbPoint
 10
97.5
 20
20.855829999999997
 30
0.0
  0
POINT
  5
1B6
330
17
100
AcDbEntity
  8
0
100
AcDbPoint
 10
97.75
 20
20.95608
 30
0.0
  0
POINT
  5
1B7
330
17
100
AcDbEntity
  8
0
100
AcDbPoint
 10
98.0
 20
21.05601
 30
0.0
  0
POINT
  5
1B8
330
17
100
AcDbEntity
  8
0
100
AcDbPoint
 10
98.25
 20
21.155620000000013
 30
0.0
  0
POINT
  5
1B9
330
17
100
AcDbEntity
  8
0
100
AcDbPoint
 10
98.5
 20
21.25488999999999
 30
0.0
  0
POINT
  5
1BA
330
17
100
AcDbEntity
  8
0
100
AcDbPoint
 10
98.75
 20
21.353830000000002
 30
0.0
  0
POINT
  5
1BB
330
17
100
AcDbEntity
  8
0
100
AcDbPoint
 10
99.0
 20
21.452420000000004
 30
0.0
  0
POINT
  5
1BC
330
17
100
AcDbEntity
  8
0
100
AcDbPoint
 10
99.25
 20
21.550660000000022
 30
0.0
  0
POINT
  5
1BD
330
17
100
AcDbEntity
  8
0
100
AcDbPoint
 10
99.5
 20
21.648530000000022
 30
0.0
  0
POINT
  5
1BE
330
17
100
AcDbEntity
  8
0
100
AcDbPoint
 10
99.75
 20
21.746049999999983
 30
0.0
  0
POINT
  5
1BF
330
17
100
AcDbEntity
  8
0
100
AcDbPoint
 10
100.0
 20
21.84319000000002
 30
0.0
  0
POINT
  5
1C0
330
17
100
AcDbEntity
  8
0
100
AcDbPoint
 10
100.25
 20
21.93995000000001
 30
0.0
  0
POINT
  5
1C1
330
17
100
AcDbEntity
  8
0
100
AcDbPoint
 10
100.5
 20
22.036330000000007
 30
0.0
  0
POINT
  5
1C2
330
17
100
AcDbEntity
  8
0
100
AcDbPoint
 10
100.75
 20
22.13232000000002
 30
0.0
  0
POINT
  5
1C3
330
17
100
AcDbEntity
  8
0
100
AcDbPoint
 10
101.0
 20
22.227919999999997
 30
0.0
  0
POINT
  5
1C4
330
17
100
AcDbEntity
  8
0
100
AcDbPoint
 10
101.25
 20
22.32311
 30
0.0
  0
POINT
  5
1C5
330
17
100
AcDbEntity
  8
0
100
AcDbPoint
 10
101.5
 20
22.41789
 30
0.0
  0
POINT
  5
1C6
330
17
100
AcDbEntity
  8
0
100
AcDbPoint
 10
101.75
 20
22.512249999999995
 30
0.0
  0
POINT
  5
1C7
330
17
100
AcDbEntity
  8
0
100
AcDbPoint
 10
102.0
 20
22.6062
 30
0.0
  0
POINT
  5
1C8
330
17
100
AcDbEntity
  8
0
100
AcDbPoint
 10
102.25
 20
22.699709999999996
 30
0.0
  0
POINT
  5
1C9
330
17
100
AcDbEntity
  8
0
100
AcDbPoint
 10
102.5
 20
22.792800000000014
 30
0.0
  0
POINT
  5
1CA
330
17
100
AcDbEntity
  8
0
100
AcDbPoint
 10
102.75
 20
22.88543999999999
 30
0.0
  0
POINT
  5
1CB
330
17
100
AcDbEntity
  8
0
100
AcDbPoint
 10
103.0
 20
22.977639999999994
 30
0.0
  0
POINT
  5
1CC
330
17
100
AcDbEntity
  8
0
100
AcDbPoint
 10
103.25
 20
23.06938000000001
 30
0.0
  0
POINT
  5
1CD
330
17
100
AcDbEntity
  8
0
100
AcDbPoint
 10
103.5
 20
23.160669999999982
 30
0.0
  0
POINT
  5
1CE
330
17
100
AcDbEntity
  8
0
100
AcDbPoint
 10
103.75
 20
23.251500000000007
 30
0.0
  0
POINT
  5
1CF
330
17
100
AcDbEntity
  8
0
100
AcDbPoint
 10
104.0
 20
23.341859999999997
 30
0.0
  0
POINT
  5
1D0
330
17
100
AcDbEntity
  8
0
100
AcDbPoint
 10
104.25
 20
23.431740000000005
 30
0.0
  0
POINT
  5
1D1
330
17
100
AcDbEntity
  8
0
100
AcDbPoint
 10
104.5
 20
23.521150000000006
 30
0.0
  0
POINT
  5
1D2
330
17
100
AcDbEntity
  8
0
100
AcDbPoint
 10
104.75
 20
23.61007000000002
 30
0.0
  0
POINT
  5
1D3
330
17
100
AcDbEntity
  8
0
100
AcDbPoint
 10
105.0
 20
23.69849000000002
 30
0.0
  0
POINT
  5
1D4
330
17
100
AcDbEntity
  8
0
100
AcDbPoint
 10
105.25
 20
23.786420000000007
 30
0.0
  0
POINT
  5
1D5
330
17
100
AcDbEntity
  8
0
100
AcDbPoint
 10
105.5
 20
23.873850000000004
 30
0.0
  0
POINT
  5
1D6
330
17
100
AcDbEntity
  8
0
100
AcDbPoint
 10
105.75
 20
23.960780000000014
 30
0.0
  0
POINT
  5
1D7
330
17
100
AcDbEntity
  8
0
100
AcDbPoint
 10
106.0
 20
24.047179999999997
 30
0.0
  0
POINT
  5
1D8
330
17
100
AcDbEntity
  8
0
100
AcDbPoint
 10
106.25
 20
24.133080000000007
 30
0.0
  0
POINT
  5
1D9
330
17
100
AcDbEntity
  8
0
100
AcDbPoint
 10
106.5
 20
24.21845000000002
 30
0.0
  0
POINT
  5
1DA
330
17
100
AcDbEntity
  8
0
100
AcDbPoint
 10
106.75
 20
24.30328999999999
 30
0.0
  0
POINT
  5
1DB
330
17
100
AcDbEntity
  8
0
100
AcDbPoint
 10
107.0
 20
24.387600000000006
 30
0.0
  0
POINT
  5
1DC
330
17
100
AcDbEntity
  8
0
100
AcDbPoint
 10
107.25
 20
24.471370000000007
 30
0.0
  0
POINT
  5
1DD
330
17
100
AcDbEntity
  8
0
100
AcDbPoint
 10
107.5
 20
24.554599999999994
 30
0.0
  0
POINT
  5
1DE
330
17
100
AcDbEntity
  8
0
100
AcDbPoint
 10
107.75
 20
24.63727999999999
 30
0.0
  0
POINT
  5
1DF
330
17
100
AcDbEntity
  8
0
100
AcDbPoint
 10
108.0
 20
24.71941000000001
 30
0.0
  0
POINT
  5
1E0
330
17
100
AcDbEntity
  8
0
100
AcDbPoint
 10
108.25
 20
24.80097999999998
 30
0.0
  0
POINT
  5
1E1
330
17
100
AcDbEntity
  8
0
100
AcDbPoint
 10
108.5
 20
24.881990000000002
 30
0.0
  0
POINT
  5
1E2
330
17
100
AcDbEntity
  8
0
100
AcDbPoint
 10
108.75
 20
24.962429999999998
 30
0.0
  0
POINT
  5
1E3
330
17
100
AcDbEntity
  8
0
100
AcDbPoint
 10
109.0
 20
25.04231
 30
0.0
  0
POINT
  5
1E4
330
17
100
AcDbEntity
  8
0
100
AcDbPoint
 10
109.25
 20
25.121610000000018
 30
0.0
  0
POINT
  5
1E5
330
17
100
AcDbEntity
  8
0
100
AcDbPoint
 10
109.5
 20
25.200330000000008
 30
0.0
  0
POINT
  5
1E6
330
17
100
AcDbEntity
  8
0
100
AcDbPoint
 10
109.75
 20
25.278469999999984
 30
0.0
  0
POINT
  5
1E7
330
17
100
AcDbEntity
  8
0
100
AcDbPoint
 10
110.0
 20
25.35602
 30
0.0
  0
POINT
  5
1E8
330
17
100
AcDbEntity
  8
0
100
AcDbPoint
 10
110.25
 20
25.43297000000001
 30
0.0
  0
POINT
  5
1E9
330
17
100
AcDbEntity
  8
0
100
AcDbPoint
 10
110.5
 20
25.50933999999998
 30
0.0
  0
POINT
  5
1EA
330
17
100
AcDbEntity
  8
0
100
AcDbPoint
 10
110.75
 20
25.585099999999997
 30
0.0
  0
POINT
  5
1EB
330
17
100
AcDbEntity
  8
0
100
AcDbPoint
 10
111.0
 20
25.660260000000022
 30
0.0
  0
POINT
  5
1EC
330
17
100
AcDbEntity
  8
0
100
AcDbPoint
 10
111.25
 20
25.73481000000001
 30
0.0
  0
POINT
  5
1ED
330
17
100
AcDbEntity
  8
0
100
AcDbPoint
 10
111.5
 20
25.808760000000007
 30
0.0
  0
POINT
  5
1EE
330
17
100
AcDbEntity
  8
0
100
AcDbPoint
 10
111.75
 20
25.882090000000005
 30
0.0
  0
POINT
  5
1EF
330
17
100
AcDbEntity
  8
0
100
AcDbPoint
 10
112.0
 20
25.95479999999999
 30
0.0
  0
POINT
  5
1F0
330
17
100
AcDbEntity
  8
0
100
AcDbPoint
 10
112.25
 20
26.02689000000001
 30
0.0
  0
POINT
  5
1F1
330
17
100
AcDbEntity
  8
0
100
AcDbPoint
 10
112.5
 20
26.098349999999996
 30
0.0
  0
POINT
  5
1F2
330
17
100
AcDbEntity
  8
0
100
AcDbPoint
 10
112.75
 20
26.169190000000015
 30
0.0
  0
POINT
  5
1F3
330
17
100
AcDbEntity
  8
0
100
AcDbPoint
 10
113.0
 20
26.239400000000018
 30
0.0
  0
POINT
  5
1F4
330
17
100
AcDbEntity
  8
0
100
AcDbPoint
 10
113.25
 20
26.308980000000005
 30
0.0
  0
POINT
  5
1F5
330
17
100
AcDbEntity
  8
0
100
AcDbPoint
 10
113.5
 20
26.377920000000003
 30
0.0
  0
POINT
  5
1F6
330
17
100
AcDbEntity
  8
0
100
AcDbPoint
 10
113.75
 20
26.446210000000008
 30
0.0
  0
POINT
  5
1F7
330
17
100
AcDbEntity
  8
0
100
AcDbPoint
 10
114.0
 20
26.513869999999997
 30
0.0
  0
POINT
  5
1F8
330
17
100
AcDbEntity
  8
0
100
AcDbPoint
 10
114.25
 20
26.580880000000022
 30
0.0
  0
POINT
  5
1F9
330
17
100
AcDbEntity
  8
0
100
AcDbPoint
 10
114.5
 20
26.64725
 30
0.0
  0
POINT
  5
1FA
330
17
100
AcDbEntity
  8
0
100
AcDbPoint
 10
114.75
 20
26.712959999999995
 30
0.0
  0
POINT
  5
1FB
330
17
100
AcDbEntity
  8
0
100
AcDbPoint
 10
115.0
 20
26.77803
 30
0.0
  0
POINT
  5
1FC
330
17
100
AcDbEntity
  8
0
100
AcDbPoint
 10
115.25
 20
26.84244000000001
 30
0.0
  0
POINT
  5
1FD
330
17
100
AcDbEntity
  8
0
100
AcDbPoint
 10
115.5
 20
26.906189999999995
 30
0.0
  0
POINT
  5
1FE
330
17
100
AcDbEntity
  8
0
100
AcDbPoint
 10
115.75
 20
26.969289999999987
 30
0.0
  0
POINT
  5
1FF
330
17
100
AcDbEntity
  8
0
100
AcDbPoint
 10
116.0
 20
27.031720000000007
 30
0.0
  0
POINT
  5
200
330
17
100
AcDbEntity
  8
0
100
AcDbPoint
 10
116.25
 20
27.093490000000003
 30
0.0
  0
POINT
  5
201
330
17
100
AcDbEntity
  8
0
100
AcDbPoint
 10
116.5
 20
27.154600000000002
 30
0.0
  0
POINT
  5
202
330
17
100
AcDbEntity
  8
0
100
AcDbPoint
 10
116.75
 20
27.215050000000005
 30
0.0
  0
POINT
  5
203
330
17
100
AcDbEntity
  8
0
100
AcDbPoint
 10
117.0
 20
27.27481999999999
 30
0.0
  0
POINT
  5
204
330
17
100
AcDbEntity
  8
0
100
AcDbPoint
 10
117.25
 20
27.33393000000001
 30
0.0
  0
POINT
  5
205
330
17
100
AcDbEntity
  8
0
100
AcDbPoint
 10
117.5
 20
27.39237
 30
0.0
  0
POINT
  5
206
330
17
100
AcDbEntity
  8
0
100
AcDbPoint
 10
117.75
 20
27.450140000000005
 30
0.0
  0
POINT
  5
207
330
17
100
AcDbEntity
  8
0
100
AcDbPoint
 10
118.0
 20
27.507239999999996
 30
0.0
  0
POINT
  5
208
330
17
100
AcDbEntity
  8
0
100
AcDbPoint
 10
118.25
 20
27.563659999999985
 30
0.0
  0
POINT
  5
209
330
17
100
AcDbEntity
  8
0
100
AcDbPoint
 10
118.5
 20
27.619410000000016
 30
0.0
  0
POINT
  5
20A
330
17
100
AcDbEntity
  8
0
100
AcDbPoint
 10
118.75
 20
27.674490000000006
 30
0.0
  0
POINT
  5
20B
330
17
100
AcDbEntity
  8
0
100
AcDbPoint
 10
119.0
 20
27.728890000000007
 30
0.0
  0
POINT
  5
20C
330
17
100
AcDbEntity
  8
0
100
AcDbPoint
 10
119.25
 20
27.782610000000005
 30
0.0
  0
POINT
  5
20D
330
17
100
AcDbEntity
  8
0
100
AcDbPoint
 10
119.5
 20
27.835660000000004
 30
0.0
  0
POINT
  5
20E
330
17
100
AcDbEntity
  8
0
100
AcDbPoint
 10
119.75
 20
27.888040000000004
 30
0.0
  0
POINT
  5
20F
330
17
100
AcDbEntity
  8
0
100
AcDbPoint
 10
120.0
 20
27.939739999999986
 30
0.0
  0
POINT
  5
210
330
17
100
AcDbEntity
  8
0
100
AcDbPoint
 10
120.25
 20
27.990759999999995
 30
0.0
  0
POINT
  5
211
330
17
100
AcDbEntity
  8
0
100
AcDbPoint
 10
120.5
 20
28.0411
 30
0.0
  0
POINT
  5
212
330
17
100
AcDbEntity
  8
0
100
AcDbPoint
 10
120.75
 20
28.09077000000002
 30
0.0
  0
POINT
  5
213
330
17
100
AcDbEntity
  8
0
100
AcDbPoint
 10
121.0
 20
28.13977
 30
0.0
  0
POINT
  5
214
330
17
100
AcDbEntity
  8
0
100
AcDbPoint
 10
121.25
 20
28.18808999999999
 30
0.0
  0
POINT
  5
215
330
17
100
AcDbEntity
  8
0
100
AcDbPoint
 10
121.5
 20
28.235730000000004
 30
0.0
  0
POINT
  5
216
330
17
100
AcDbEntity
  8
0
100
AcDbPoint
 10
121.75
 20
28.282709999999994
 30
0.0
  0
POINT
  5
217
330
17
100
AcDbEntity
  8
0
100
AcDbPoint
 10
122.0
 20
28.329000000000008
 30
0.0
  0
POINT
  5
218
330
17
100
AcDbEntity
  8
0
100
AcDbPoint
 10
122.25
 20
28.374629999999996
 30
0.0
  0
POINT
  5
219
330
17
100
AcDbEntity
  8
0
100
AcDbPoint
 10
122.5
 20
28.41959
 30
0.0
  0
POINT
  5
21A
330
17
100
AcDbEntity
  8
0
100
AcDbPoint
 10
122.75
 20
28.46387
 30
0.0
  0
POINT
  5
21B
330
17
100
AcDbEntity
  8
0
100
AcDbPoint
 10
123.0
 20
28.50748999999999
 30
0.0
  0
POINT
  5
21C
330
17
100
AcDbEntity
  8
0
100
AcDbPoint
 10
123.25
 20
28.550439999999995
 30
0.0
  0
POINT
  5
21D
330
17
100
AcDbEntity
  8
0
100
AcDbPoint
 10
123.5
 20
28.59272
 30
0.0
  0
POINT
  5
21E
330
17
100
AcDbEntity
  8
0
100
AcDbPoint
 10
123.75
 20
28.63434000000001
 30
0.0
  0
POINT
  5
21F
330
17
100
AcDbEntity
  8
0
100
AcDbPoint
 10
124.0
 20
28.67530000000002
 30
0.0
  0
POINT
  5
220
330
17
100
AcDbEntity
  8
0
100
AcDbPoint
 10
124.25
 20
28.715599999999995
 30
0.0
  0
POINT
  5
221
330
17
100
AcDbEntity
  8
0
100
AcDbPoint
 10
124.5
 20
28.75524
 30
0.0
  0
POINT
  5
222
330
17
100
AcDbEntity
  8
0
100
AcDbPoint
 10
124.75
 20
28.794230000000013
 30
0.0
  0
POINT
  5
223
330
17
100
AcDbEntity
  8
0
100
AcDbPoint
 10
125.0
 20
28.832559999999987
 30
0.0
  0
POINT
  5
224
330
17
100
AcDbEntity
  8
0
100
AcDbPoint
 10
125.25
 20
28.87023999999998
 30
0.0
  0
POINT
  5
225
330
17
100
AcDbEntity
  8
0
100
AcDbPoint
 10
125.5
 20
28.907269999999997
 30
0.0
  0
POINT
  5
226
330
17
100
AcDbEntity
  8
0
100
AcDbPoint
 10
125.75
 20
28.94365999999998
 30
0.0
  0
POINT
  5
227
330
17
100
AcDbEntity
  8
0
100
AcDbPoint
 10
126.0
 20
28.9794
 30
0.0
  0
POINT
  5
228
330
17
100
AcDbEntity
  8
0
100
AcDbPoint
 10
126.25
 20
29.014500000000012
 30
0.0
  0
POINT
  5
229
330
17
100
AcDbEntity
  8
0
100
AcDbPoint
 10
126.5
 20
29.048969999999983
 30
0.0
  0
POINT
  5
22A
330
17
100
AcDbEntity
  8
0
100
AcDbPoint
 10
126.75
 20
29.082800000000006
 30
0.0
  0
POINT
  5
22B
330
17
100
AcDbEntity
  8
0
100
AcDbPoint
 10
127.0
 20
29.116
 30
0.0
  0
POINT
  5
22C
330
17
100
AcDbEntity
  8
0
100
AcDbPoint
 10
127.25
 20
29.148570000000007
 30
0.0
  0
POINT
  5
22D
330
17
100
AcDbEntity
  8
0
100
AcDbPoint
 10
127.5
 20
29.18052
 30
0.0
  0
POINT
  5
22E
330
17
100
AcDbEntity
  8
0
100
AcDbPoint
 10
127.75
 20
29.21185
 30
0.0
  0
POINT
  5
22F
330
17
100
AcDbEntity
  8
0
100
AcDbPoint
 10
128.0
 20
29.24256000000001
 30
0.0
  0
POINT
  5
230
330
17
100
AcDbEntity
  8
0
100
AcDbPoint
 10
128.25
 20
29.272659999999988
 30
0.0
  0
POINT
  5
231
330
17
100
AcDbEntity
  8
0
100
AcDbPoint
 10
128.5
 20
29.302149999999997
 30
0.0
  0
POINT
  5
232
330
17
100
AcDbEntity
  8
0
100
AcDbPoint
 10
128.75
 20
29.33103
 30
0.0
  0
POINT
  5
233
330
17
100
AcDbEntity
  8
0
100
AcDbPoint
 10
129.0
 20
29.359323000000003
 30
0.0
  0
POINT
  5
234
330
17
100
AcDbEntity
  8
0
100
AcDbPoint
 10
129.25
 20
29.387010000000018
 30
0.0
  0
POINT
  5
235
330
17
100
AcDbEntity
  8
0
100
AcDbPoint
 10
129.5
 20
29.414100000000005
 30
0.0
  0
POINT
  5
236
330
17
100
AcDbEntity
  8
0
100
AcDbPoint
 10
129.75
 20
29.44061000000002
 30
0.0
  0
POINT
  5
237
330
17
100
AcDbEntity
  8
0
100
AcDbPoint
 10
130.0
 20
29.466539999999995
 30
0.0
  0
POINT
  5
238
330
17
100
AcDbEntity
  8
0
100
AcDbPoint
 10
130.25
 20
29.491890000000026
 30
0.0
  0
POINT
  5
239
330
17
100
AcDbEntity
  8
0
100
AcDbPoint
 10
130.5
 20
29.516670000000005
 30
0.0
  0
POINT
  5
23A
330
17
100
AcDbEntity
  8
0
100
AcDbPoint
 10
130.75
 20
29.54088
 30
0.0
  0
POINT
  5
23B
330
17
100
AcDbEntity
  8
0
100
AcDbPoint
 10
131.0
 20
29.564519999999987
 30
0.0
  0
POINT
  5
23C
330
17
100
AcDbEntity
  8
0
100
AcDbPoint
 10
131.25
 20
29.587609999999998
 30
0.0
  0
POINT
  5
23D
330
17
100
AcDbEntity
  8
0
100
AcDbPoint
 10
131.5
 20
29.61014999999999
 30
0.0
  0
POINT
  5
23E
330
17
100
AcDbEntity
  8
0
100
AcDbPoint
 10
131.75
 20
29.632140000000007
 30
0.0
  0
POINT
  5
23F
330
17
100
AcDbEntity
  8
0
100
AcDbPoint
 10
132.0
 20
29.65358999999998
 30
0.0
  0
POINT
  5
240
330
17
100
AcDbEntity
  8
0
100
AcDbPoint
 10
132.25
 20
29.67450000000001
 30
0.0
  0
POINT
  5
241
330
17
100
AcDbEntity
  8
0
100
AcDbPoint
 10
132.5
 20
29.694879999999998
 30
0.0
  0
POINT
  5
242
330
17
100
AcDbEntity
  8
0
100
AcDbPoint
 10
132.75
 20
29.714740000000006
 30
0.0
  0
POINT
  5
243
330
17
100
AcDbEntity
  8
0
100
AcDbPoint
 10
133.0
 20
29.73407999999999
 30
0.0
  0
POINT
  5
244
330
17
100
AcDbEntity
  8
0
100
AcDbPoint
 10
133.25
 20
29.752909999999986
 30
0.0
  0
POINT
  5
245
330
17
100
AcDbEntity
  8
0
100
AcDbPoint
 10
133.5
 20
29.77122999999999
 30
0.0
  0
POINT
  5
246
330
17
100
AcDbEntity
  8
0
100
AcDbPoint
 10
133.75
 20
29.789050000000003
 30
0.0
  0
POINT
  5
247
330
17
100
AcDbEntity
  8
0
100
AcDbPoint
 10
134.0
 20
29.806380000000004
 30
0.0
  0
POINT
  5
248
330
17
100
AcDbEntity
  8
0
100
AcDbPoint
 10
134.25
 20
29.823220000000006
 30
0.0
  0
POINT
  5
249
330
17
100
AcDbEntity
  8
0
100
AcDbPoint
 10
134.5
 20
29.839579999999998
 30
0.0
  0
POINT
  5
24A
330
17
100
AcDbEntity
  8
0
100
AcDbPoint
 10
134.75
 20
29.855460000000022
 30
0.0
  0
POINT
  5
24B
330
17
100
AcDbEntity
  8
0
100
AcDbPoint
 10
135.0
 20
29.87088
 30
0.0
  0
POINT
  5
24C
330
17
100
AcDbEntity
  8
0
100
AcDbPoint
 10
135.25
 20
29.88583
 30
0.0
  0
POINT
  5
24D
330
17
100
AcDbEntity
  8
0
100
AcDbPoint
 10
135.5
 20
29.900329999999997
 30
0.0
  0
POINT
  5
24E
330
17
100
AcDbEntity
  8
0
100
AcDbPoint
 10
135.75
 20
29.91438000000001
 30
0.0
  0
POINT
  5
24F
330
17
100
AcDbEntity
  8
0
100
AcDbPoint
 10
136.0
 20
29.92799000000001
 30
0.0
  0
POINT
  5
250
330
17
100
AcDbEntity
  8
0
100
AcDbPoint
 10
136.25
 20
29.941169999999985
 30
0.0
  0
POINT
  5
251
330
17
100
AcDbEntity
  8
0
100
AcDbPoint
 10
136.5
 20
29.953919999999997
 30
0.0
  0
POINT
  5
252
330
17
100
AcDbEntity
  8
0
100
AcDbPoint
 10
136.75
 20
29.966240000000013
 30
0.0
  0
POINT
  5
253
330
17
100
AcDbEntity
  8
0
100
AcDbPoint
 10
137.0
 20
29.978160000000003
 30
0.0
  0
POINT
  5
254
330
17
100
AcDbEntity
  8
0
100
AcDbPoint
 10
137.25
 20
29.98966
 30
0.0
  0
POINT
  5
255
330
17
100
AcDbEntity
  8
0
100
AcDbPoint
 10
137.5
 20
30.000770000000003
 30
0.0
  0
POINT
  5
256
330
17
100
AcDbEntity
  8
0
100
AcDbPoint
 10
137.75
 20
30.011489999999995
 30
0.0
  0
POINT
  5
257
330
17
100
AcDbEntity
  8
0
100
AcDbPoint
 10
138.0
 20
30.021820000000005
 30
0.0
  0
POINT
  5
258
330
17
100
AcDbEntity
  8
0
100
AcDbPoint
 10
138.25
 20
30.031779999999998
 30
0.0
  0
POINT
  5
259
330
17
100
AcDbEntity
  8
0
100
AcDbPoint
 10
138.5
 20
30.041359999999997
 30
0.0
  0
POINT
  5
25A
330
17
100
AcDbEntity
  8
0
100
AcDbPoint
 10
138.75
 20
30.05058000000001
 30
0.0
  0
POINT
  5
25B
330
17
100
AcDbEntity
  8
0
100
AcDbPoint
 10
139.0
 20
30.05945
 30
0.0
  0
POINT
  5
25C
330
17
100
AcDbEntity
  8
0
100
AcDbPoint
 10
139.25
 20
30.06796999999999
 30
0.0
  0
POINT
  5
25D
330
17
100
AcDbEntity
  8
0
100
AcDbPoint
 10
139.5
 20
30.07615
 30
0.0
  0
POINT
  5
25E
330
17
100
AcDbEntity
  8
0
100
AcDbPoint
 10
139.75
 20
30.084000000000003
 30
0.0
  0
POINT
  5
25F
330
17
100
AcDbEntity
  8
0
100
AcDbPoint
 10
140.0
 20
30.091520000000003
 30
0.0
  0
POINT
  5
260
330
17
100
AcDbEntity
  8
0
100
AcDbPoint
 10
140.25
 20
30.098720000000014
 30
0.0
  0
POINT
  5
261
330
17
100
AcDbEntity
  8
0
100
AcDbPoint
 10
140.5
 20
30.10561
 30
0.0
  0
POINT
  5
262
330
17
100
AcDbEntity
  8
0
100
AcDbPoint
 10
140.75
 20
30.1122
 30
0.0
  0
POINT
  5
263
330
17
100
AcDbEntity
  8
0
100
AcDbPoint
 10
141.0
 20
30.118499999999997
 30
0.0
  0
POINT
  5
264
330
17
100
AcDbEntity
  8
0
100
AcDbPoint
 10
141.25
 20
30.124499999999998
 30
0.0
  0
POINT
  5
265
330
17
100
AcDbEntity
  8
0
100
AcDbPoint
 10
141.5
 20
30.130229999999997
 30
0.0
  0
POINT
  5
266
330
17
100
AcDbEntity
  8
0
100
AcDbPoint
 10
141.75
 20
30.135680000000008
 30
0.0
  0
POINT
  5
267
330
17
100
AcDbEntity
  8
0
100
AcDbPoint
 10
142.0
 20
30.140870000000007
 30
0.0
  0
POINT
  5
268
330
17
100
AcDbEntity
  8
0
100
AcDbPoint
 10
142.25
 20
30.145799999999994
 30
0.0
  0
POINT
  5
269
330
17
100
AcDbEntity
  8
0
100
AcDbPoint
 10
142.5
 20
30.15048
 30
0.0
  0
POINT
  5
26A
330
17
100
AcDbEntity
  8
0
100
AcDbPoint
 10
142.75
 20
30.154920000000004
 30
0.0
  0
POINT
  5
26B
330
17
100
AcDbEntity
  8
0
100
AcDbPoint
 10
143.0
 20
30.159120000000016
 30
0.0
  0
POINT
  5
26C
330
17
100
AcDbEntity
  8
0
100
AcDbPoint
 10
143.25
 20
30.16309000000001
 30
0.0
  0
POINT
  5
26D
330
17
100
AcDbEntity
  8
0
100
AcDbPoint
 10
143.5
 20
30.166840000000008
 30
0.0
  0
POINT
  5
26E
330
17
100
AcDbEntity
  8
0
100
AcDbPoint
 10
143.75
 20
30.170379999999994
 30
0.0
  0
POINT
  5
26F
330
17
100
AcDbEntity
  8
0
100
AcDbPoint
 10
144.0
 20
30.173720000000003
 30
0.0
  0
POINT
  5
270
330
17
100
AcDbEntity
  8
0
100
AcDbPoint
 10
144.25
 20
30.17685
 30
0.0
  0
POINT
  5
271
330
17
100
AcDbEntity
  8
0
100
AcDbPoint
 10
144.5
 20
30.179789999999997
 30
0.0
  0
POINT
  5
272
330
17
100
AcDbEntity
  8
0
100
AcDbPoint
 10
144.75
 20
30.182549999999992
 30
0.0
  0
POINT
  5
273
330
17
100
AcDbEntity
  8
0
100
AcDbPoint
 10
145.0
 20
30.18513
 30
0.0
  0
POINT
  5
274
330
17
100
AcDbEntity
  8
0
100
AcDbPoint
 10
145.25
 20
30.18754
 30
0.0
  0
POINT
  5
275
330
17
100
AcDbEntity
  8
0
100
AcDbPoint
 10
145.5
 20
30.189790000000002
 30
0.0
  0
POINT
  5
276
330
17
100
AcDbEntity
  8
0
100
AcDbPoint
 10
145.75
 20
30.191879999999983
 30
0.0
  0
POINT
  5
277
330
17
100
AcDbEntity
  8
0
100
AcDbPoint
 10
146.0
 20
30.193820000000002
 30
0.0
  0
POINT
  5
278
330
17
100
AcDbEntity
  8
0
100
AcDbPoint
 10
146.25
 20
30.19562000000002
 30
0.0
  0
POINT
  5
279
330
17
100
AcDbEntity
  8
0
100
AcDbPoint
 10
146.5
 20
30.197280000000006
 30
0.0
  0
POINT
  5
27A
330
17
100
AcDbEntity
  8
0
100
AcDbPoint
 10
146.75
 20
30.19881000000001
 30
0.0
  0
POINT
  5
27B
330
17
100
AcDbEntity
  8
0
100
AcDbPoint
 10
147.0
 20
30.20021
 30
0.0
  0
POINT
  5
27C
330
17
100
AcDbEntity
  8
0
100
AcDbPoint
 10
147.25
 20
30.201499999999996
 30
0.0
  0
POINT
  5
27D
330
17
100
AcDbEntity
  8
0
100
AcDbPoint
 10
147.5
 20
30.20268
 30
0.0
  0
POINT
  5
27E
330
17
100
AcDbEntity
  8
0
100
AcDbPoint
 10
147.75
 20
30.20375
 30
0.0
  0
POINT
  5
27F
330
17
100
AcDbEntity
  8
0
100
AcDbPoint
 10
148.0
 20
30.20471999999998
 30
0.0
  0
POINT
  5
280
330
17
100
AcDbEntity
  8
0
100
AcDbPoint
 10
148.25
 20
30.205600000000004
 30
0.0
  0
POINT
  5
281
330
17
100
AcDbEntity
  8
0
100
AcDbPoint
 10
148.5
 20
30.206400000000002
 30
0.0
  0
POINT
  5
282
330
17
100
AcDbEntity
  8
0
100
AcDbPoint
 10
148.75
 20
30.207110000000014
 30
0.0
  0
POINT
  5
283
330
17
100
AcDbEntity
  8
0
100
AcDbPoint
 10
149.0
 20
30.207740000000015
 30
0.0
  0
POINT
  5
284
330
17
100
AcDbEntity
  8
0
100
AcDbPoint
 10
149.25
 20
30.208309999999997
 30
0.0
  0
POINT
  5
285
330
17
100
AcDbEntity
  8
0
100
AcDbPoint
 10
149.5
 20
30.208799999999997
 30
0.0
  0
POINT
  5
286
330
17
100
AcDbEntity
  8
0
100
AcDbPoint
 10
149.75
 20
30.209239999999994
 30
0.0
  0
POINT
  5
287
330
17
100
AcDbEntity
  8
0
100
AcDbPoint
 10
150.0
 20
30.20962
 30
0.0
  0
POINT
  5
288
330
17
100
AcDbEntity
  8
0
100
AcDbPoint
 10
150.25
 20
30.209950000000006
 30
0.0
  0
POINT
  5
289
330
17
100
AcDbEntity
  8
0
100
AcDbPoint
 10
150.5
 20
30.210240000000013
 30
0.0
  0
POINT
  5
28A
330
17
100
AcDbEntity
  8
0
100
AcDbPoint
 10
150.75
 20
30.210480000000004
 30
0.0
  0
POINT
  5
28B
330
17
100
AcDbEntity
  8
0
100
AcDbPoint
 10
151.0
 20
30.210679999999996
 30
0.0
  0
POINT
  5
28C
330
17
100
AcDbEntity
  8
0
100
AcDbPoint
 10
151.25
 20
30.210849999999994
 30
0.0
  0
POINT
  5
28D
330
17
100
AcDbEntity
  8
0
100
AcDbPoint
 10
151.5
 20
30.21099000000001
 30
0.0
  0
POINT
  5
28E
330
17
100
AcDbEntity
  8
0
100
AcDbPoint
 10
151.75
 20
30.211110000000005
 30
0.0
  0
POINT
  5
28F
330
17
100
AcDbEntity
  8
0
100
AcDbPoint
 10
152.0
 20
30.21120000000002
 30
0.0
  0
POINT
  5
290
330
17
100
AcDbEntity
  8
0
100
AcDbPoint
 10
152.25
 20
30.211269999999985
 30
0.0
  0
POINT
  5
291
330
17
100
AcDbEntity
  8
0
100
AcDbPoint
 10
152.5
 20
30.21132
 30
0.0
  0
POINT
  5
292
330
17
100
AcDbEntity
  8
0
100
AcDbPoint
 10
152.75
 20
30.211360000000013
 30
0.0
  0
POINT
  5
293
330
17
100
AcDbEntity
  8
0
100
AcDbPoint
 10
153.0
 20
30.211389999999994
 30
0.0
  0
POINT
  5
294
330
17
100
AcDbEntity
  8
0
100
AcDbPoint
 10
153.25
 20
30.21141
 30
0.0
  0
POINT
  5
295
330
17
100
AcDbEntity
  8
0
100
AcDbPoint
 10
153.5
 20
30.21143000000002
 30
0.0
  0
POINT
  5
296
330
17
100
AcDbEntity
  8
0
100
AcDbPoint
 10
153.75
 20
30.211439999999996
 30
0.0
  0
POINT
  5
297
330
17
100
AcDbEntity
  8
0
100
AcDbPoint
 10
154.0
 20
30.211439999999996
 30
0.0
  0
POINT
  5
298
330
17
100
AcDbEntity
  8
0
100
AcDbPoint
 10
154.25
 20
30.211439999999982
 30
0.0
  0
POINT
  5
299
330
17
100
AcDbEntity
  8
0
100
AcDbPoint
 10
154.5
 20
30.211439999999996
 30
0.0
  0
POINT
  5
29A
330
17
100
AcDbEntity
  8
0
100
AcDbPoint
 10
154.75
 20
30.21144000000001
 30
0.0
  0
POINT
  5
29B
330
17
100
AcDbEntity
  8
0
100
AcDbPoint
 10
155.0
 20
30.211439999999996
 30
0.0
  0
POINT
  5
29C
330
17
100
AcDbEntity
  8
0
100
AcDbPoint
 10
155.25
 20
30.211439999999996
 30
0.0
  0
POINT
  5
29D
330
17
100
AcDbEntity
  8
0
100
AcDbPoint
 10
155.5
 20
30.21144000000001
 30
0.0
  0
POINT
  5
29E
330
17
100
AcDbEntity
  8
0
100
AcDbPoint
 10
155.75
 20
30.21144000000001
 30
0.0
  0
POINT
  5
29F
330
17
100
AcDbEntity
  8
0
100
AcDbPoint
 10
156.0
 20
30.211439999999996
 30
0.0
  0
POINT
  5
2A0
330
17
100
AcDbEntity
  8
0
100
AcDbPoint
 10
156.25
 20
30.211439999999982
 30
0.0
  0
POINT
  5
2A1
330
17
100
AcDbEntity
  8
0
100
AcDbPoint
 10
156.5
 20
30.211439999999982
 30
0.0
  0
POINT
  5
2A2
330
17
100
AcDbEntity
  8
0
100
AcDbPoint
 10
156.75
 20
30.21144000000001
 30
0.0
  0
POINT
  5
2A3
330
17
100
AcDbEntity
  8
0
100
AcDbPoint
 10
157.0
 20
30.211439999999996
 30
0.0
  0
POINT
  5
2A4
330
17
100
AcDbEntity
  8
0
100
AcDbPoint
 10
157.25
 20
30.211439999999996
 30
0.0
  0
POINT
  5
2A5
330
17
100
AcDbEntity
  8
0
100
AcDbPoint
 10
157.5
 20
30.211439999999996
 30
0.0
  0
POINT
  5
2A6
330
17
100
AcDbEntity
  8
0
100
AcDbPoint
 10
157.75
 20
30.21144000000001
 30
0.0
  0
POINT
  5
2A7
330
17
100
AcDbEntity
  8
0
100
AcDbPoint
 10
158.0
 20
30.211439999999996
 30
0.0
  0
POINT
  5
2A8
330
17
100
AcDbEntity
  8
0
100
AcDbPoint
 10
158.25
 20
30.211439999999996
 30
0.0
  0
POINT
  5
2A9
330
17
100
AcDbEntity
  8
0
100
AcDbPoint
 10
158.5
 20
30.21144000000001
 30
0.0
  0
POINT
  5
2AA
330
17
100
AcDbEntity
  8
0
100
AcDbPoint
 10
158.75
 20
30.21144000000001
 30
0.0
  0
POINT
  5
2AB
330
17
100
AcDbEntity
  8
0
100
AcDbPoint
 10
159.0
 20
30.211439999999996
 30
0.0
  0
POINT
  5
2AC
330
17
100
AcDbEntity
  8
0
100
AcDbPoint
 10
159.25
 20
30.211439999999996
 30
0.0
  0
POINT
  5
2AD
330
17
100
AcDbEntity
  8
0
100
AcDbPoint
 10
159.5
 20
30.211439999999996
 30
0.0
  0
POINT
  5
2AE
330
17
100
AcDbEntity
  8
0
100
AcDbPoint
 10
159.75
 20
30.211439999999996
 30
0.0
  0
POINT
  5
2AF
330
17
100
AcDbEntity
  8
0
100
AcDbPoint
 10
160.0
 20
30.211439999999982
 30
0.0
  0
POINT
  5
2B0
330
17
100
AcDbEntity
  8
0
100
AcDbPoint
 10
160.25
 20
30.211439999999996
 30
0.0
  0
POINT
  5
2B1
330
17
100
AcDbEntity
  8
0
100
AcDbPoint
 10
160.5
 20
30.211439999999996
 30
0.0
  0
POINT
  5
2B2
330
17
100
AcDbEntity
  8
0
100
AcDbPoint
 10
160.75
 20
30.21144000000001
 30
0.0
  0
POINT
  5
2B3
330
17
100
AcDbEntity
  8
0
100
AcDbPoint
 10
161.0
 20
30.21144000000001
 30
0.0
  0
POINT
  5
2B4
330
17
100
AcDbEntity
  8
0
100
AcDbPoint
 10
161.25
 20
30.211439999999996
 30
0.0
  0
POINT
  5
2B5
330
17
100
AcDbEntity
  8
0
100
AcDbPoint
 10
161.5
 20
30.211439999999996
 30
0.0
  0
POINT
  5
2B6
330
17
100
AcDbEntity
  8
0
100
AcDbPoint
 10
161.75
 20
30.21144000000001
 30
0.0
  0
POINT
  5
2B7
330
17
100
AcDbEntity
  8
0
100
AcDbPoint
 10
162.0
 20
30.211439999999996
 30
0.0
  0
POINT
  5
2B8
330
17
100
AcDbEntity
  8
0
100
AcDbPoint
 10
162.25
 20
30.211439999999996
 30
0.0
  0
POINT
  5
2B9
330
17
100
AcDbEntity
  8
0
100
AcDbPoint
 10
162.5
 20
30.211439999999996
 30
0.0
  0
POINT
  5
2BA
330
17
100
AcDbEntity
  8
0
100
AcDbPoint
 10
162.75
 20
30.21144000000001
 30
0.0
  0
POINT
  5
2BB
330
17
100
AcDbEntity
  8
0
100
AcDbPoint
 10
163.0
 20
30.21144000000001
 30
0.0
  0
POINT
  5
2BC
330
17
100
AcDbEntity
  8
0
100
AcDbPoint
 10
163.25
 20
30.211439999999996
 30
0.0
  0
POINT
  5
2BD
330
17
100
AcDbEntity
  8
0
100
AcDbPoint
 10
163.5
 20
30.211439999999982
 30
0.0
  0
POINT
  5
2BE
330
17
100
AcDbEntity
  8
0
100
AcDbPoint
 10
163.75
 20
30.21144000000001
 30
0.0
  0
POINT
  5
2BF
330
17
100
AcDbEntity
  8
0
100
AcDbPoint
 10
164.0
 20
30.21144000000001
 30
0.0
  0
POINT
  5
2C0
330
17
100
AcDbEntity
  8
0
100
AcDbPoint
 10
164.25
 20
30.211439999999982
 30
0.0
  0
POINT
  5
2C1
330
17
100
AcDbEntity
  8
0
100
AcDbPoint
 10
164.5
 20
30.21144000000001
 30
0.0
  0
POINT
  5
2C2
330
17
100
AcDbEntity
  8
0
100
AcDbPoint
 10
164.75
 20
30.21144000000001
 30
0.0
  0
POINT
  5
2C3
330
17
100
AcDbEntity
  8
0
100
AcDbPoint
 10
165.0
 20
30.211439999999996
 30
0.0
  0
POINT
  5
2C4
330
17
100
AcDbEntity
  8
0
100
AcDbPoint
 10
165.25
 20
30.211439999999996
 30
0.0
  0
POINT
  5
2C5
330
17
100
AcDbEntity
  8
0
100
AcDbPoint
 10
165.5
 20
30.21144000000001
 30
0.0
  0
POINT
  5
2C6
330
17
100
AcDbEntity
  8
0
100
AcDbPoint
 10
165.75
 20
30.21144000000001
 30
0.0
  0
POINT
  5
2C7
330
17
100
AcDbEntity
  8
0
100
AcDbPoint
 10
166.0
 20
30.21144000000001
 30
0.0
  0
POINT
  5
2C8
330
17
100
AcDbEntity
  8
0
100
AcDbPoint
 10
166.25
 20
30.211439999999996
 30
0.0
  0
POINT
  5
2C9
330
17
100
AcDbEntity
  8
0
100
AcDbPoint
 10
166.5
 20
30.211439999999996
 30
0.0
  0
POINT
  5
2CA
330
17
100
AcDbEntity
  8
0
100
AcDbPoint
 10
166.75
 20
30.211439999999996
 30
0.0
  0
POINT
  5
2CB
330
17
100
AcDbEntity
  8
0
100
AcDbPoint
 10
167.0
 20
30.21144000000001
 30
0.0
  0
POINT
  5
2CC
330
17
100
AcDbEntity
  8
0
100
AcDbPoint
 10
167.25
 20
30.21144000000001
 30
0.0
  0
POINT
  5
2CD
330
17
100
AcDbEntity
  8
0
100
AcDbPoint
 10
167.5
 20
30.211439999999982
 30
0.0
  0
POINT
  5
2CE
330
17
100
AcDbEntity
  8
0
100
AcDbPoint
 10
167.75
 20
30.211439999999982
 30
0.0
  0
POINT
  5
2CF
330
17
100
AcDbEntity
  8
0
100
AcDbPoint
 10
168.0
 20
30.211439999999996
 30
0.0
  0
POINT
  5
2D0
330
17
100
AcDbEntity
  8
0
100
AcDbPoint
 10
168.25
 20
30.211439999999982
 30
0.0
  0
POINT
  5
2D1
330
17
100
AcDbEntity
  8
0
100
AcDbPoint
 10
168.5
 20
30.211439999999996
 30
0.0
  0
POINT
  5
2D2
330
17
100
AcDbEntity
  8
0
100
AcDbPoint
 10
168.75
 20
30.211439999999996
 30
0.0
  0
POINT
  5
2D3
330
17
100
AcDbEntity
  8
0
100
AcDbPoint
 10
169.0
 20
30.211439999999982
 30
0.0
  0
POINT
  5
2D4
330
17
100
AcDbEntity
  8
0
100
AcDbPoint
 10
169.25
 20
30.211439999999996
 30
0.0
  0
POINT
  5
2D5
330
17
100
AcDbEntity
  8
0
100
AcDbPoint
 10
169.5
 20
30.211439999999982
 30
0.0
  0
POINT
  5
2D6
330
17
100
AcDbEntity
  8
0
100
AcDbPoint
 10
169.75
 20
30.211439999999996
 30
0.0
  0
POINT
  5
2D7
330
17
100
AcDbEntity
  8
0
100
AcDbPoint
 10
170.0
 20
30.211439999999996
 30
0.0
  0
POINT
  5
2D8
330
17
100
AcDbEntity
  8
0
100
AcDbPoint
 10
170.25
 20
30.211439999999996
 30
0.0
  0
POINT
  5
2D9
330
17
100
AcDbEntity
  8
0
100
AcDbPoint
 10
170.5
 20
30.211439999999996
 30
0.0
  0
POINT
  5
2DA
330
17
100
AcDbEntity
  8
0
100
AcDbPoint
 10
170.75
 20
30.21144000000001
 30
0.0
  0
POINT
  5
2DB
330
17
100
AcDbEntity
  8
0
100
AcDbPoint
 10
171.0
 20
30.211439999999982
 30
0.0
  0
POINT
  5
2DC
330
17
100
AcDbEntity
  8
0
100
AcDbPoint
 10
171.25
 20
30.211439999999996
 30
0.0
  0
POINT
  5
2DD
330
17
100
AcDbEntity
  8
0
100
AcDbPoint
 10
171.5
 20
30.211439999999982
 30
0.0
  0
POINT
  5
2DE
330
17
100
AcDbEntity
  8
0
100
AcDbPoint
 10
171.75
 20
30.211439999999982
 30
0.0
  0
POINT
  5
2DF
330
17
100
AcDbEntity
  8
0
100
AcDbPoint
 10
172.0
 20
30.211439999999996
 30
0.0
  0
POINT
  5
2E0
330
17
100
AcDbEntity
  8
0
100
AcDbPoint
 10
172.25
 20
30.21144000000001
 30
0.0
  0
POINT
  5
2E1
330
17
100
AcDbEntity
  8
0
100
AcDbPoint
 10
172.5
 20
30.21144000000001
 30
0.0
  0
POINT
  5
2E2
330
17
100
AcDbEntity
  8
0
100
AcDbPoint
 10
172.75
 20
30.211439999999982
 30
0.0
  0
POINT
  5
2E3
330
17
100
AcDbEntity
  8
0
100
AcDbPoint
 10
173.0
 20
30.211439999999982
 30
0.0
  0
POINT
  5
2E4
330
17
100
AcDbEntity
  8
0
100
AcDbPoint
 10
173.25
 20
30.21144000000001
 30
0.0
  0
POINT
  5
2E5
330
17
100
AcDbEntity
  8
0
100
AcDbPoint
 10
173.5
 20
30.211439999999996
 30
0.0
  0
POINT
  5
2E6
330
17
100
AcDbEntity
  8
0
100
AcDbPoint
 10
173.75
 20
30.21144000000001
 30
0.0
  0
POINT
  5
2E7
330
17
100
AcDbEntity
  8
0
100
AcDbPoint
 10
174.0
 20
30.21144000000001
 30
0.0
  0
POINT
  5
2E8
330
17
100
AcDbEntity
  8
0
100
AcDbPoint
 10
174.25
 20
30.211439999999996
 30
0.0
  0
POINT
  5
2E9
330
17
100
AcDbEntity
  8
0
100
AcDbPoint
 10
174.5
 20
30.211439999999982
 30
0.0
  0
POINT
  5
2EA
330
17
100
AcDbEntity
  8
0
100
AcDbPoint
 10
174.75
 20
30.211439999999996
 30
0.0
  0
POINT
  5
2EB
330
17
100
AcDbEntity
  8
0
100
AcDbPoint
 10
175.0
 20
30.211439999999996
 30
0.0
  0
POINT
  5
2EC
330
17
100
AcDbEntity
  8
0
100
AcDbPoint
 10
175.25
 20
30.211439999999996
 30
0.0
  0
POINT
  5
2ED
330
17
100
AcDbEntity
  8
0
100
AcDbPoint
 10
175.5
 20
30.211439999999996
 30
0.0
  0
POINT
  5
2EE
330
17
100
AcDbEntity
  8
0
100
AcDbPoint
 10
175.75
 20
30.211439999999996
 30
0.0
  0
POINT
  5
2EF
330
17
100
AcDbEntity
  8
0
100
AcDbPoint
 10
176.0
 20
30.21144000000001
 30
0.0
  0
POINT
  5
2F0
330
17
100
AcDbEntity
  8
0
100
AcDbPoint
 10
176.25
 20
30.21144000000001
 30
0.0
  0
POINT
  5
2F1
330
17
100
AcDbEntity
  8
0
100
AcDbPoint
 10
176.5
 20
30.211439999999982
 30
0.0
  0
POINT
  5
2F2
330
17
100
AcDbEntity
  8
0
100
AcDbPoint
 10
176.75
 20
30.211439999999996
 30
0.0
  0
POINT
  5
2F3
330
17
100
AcDbEntity
  8
0
100
AcDbPoint
 10
177.0
 20
30.211439999999996
 30
0.0
  0
POINT
  5
2F4
330
17
100
AcDbEntity
  8
0
100
AcDbPoint
 10
177.25
 20
30.211439999999996
 30
0.0
  0
POINT
  5
2F5
330
17
100
AcDbEntity
  8
0
100
AcDbPoint
 10
177.5
 20
30.211439999999996
 30
0.0
  0
POINT
  5
2F6
330
17
100
AcDbEntity
  8
0
100
AcDbPoint
 10
177.75
 20
30.21144000000001
 30
0.0
  0
POINT
  5
2F7
330
17
100
AcDbEntity
  8
0
100
AcDbPoint
 10
178.0
 20
30.211439999999996
 30
0.0
  0
POINT
  5
2F8
330
17
100
AcDbEntity
  8
0
100
AcDbPoint
 10
178.25
 20
30.211439999999982
 30
0.0
  0
POINT
  5
2F9
330
17
100
AcDbEntity
  8
0
100
AcDbPoint
 10
178.5
 20
30.21144000000001
 30
0.0
  0
POINT
  5
2FA
330
17
100
AcDbEntity
  8
0
100
AcDbPoint
 10
178.75
 20
30.211439999999982
 30
0.0
  0
POINT
  5
2FB
330
17
100
AcDbEntity
  8
0
100
AcDbPoint
 10
179.0
 20
30.211439999999982
 30
0.0
  0
POINT
  5
2FC
330
17
100
AcDbEntity
  8
0
100
AcDbPoint
 10
179.25
 20
30.211439999999996
 30
0.0
  0
POINT
  5
2FD
330
17
100
AcDbEntity
  8
0
100
AcDbPoint
 10
179.5
 20
30.211439999999996
 30
0.0
  0
POINT
  5
2FE
330
17
100
AcDbEntity
  8
0
100
AcDbPoint
 10
179.75
 20
30.211439999999982
 30
0.0
  0
POINT
  5
2FF
330
17
100
AcDbEntity
  8
0
100
AcDbPoint
 10
180.0
 20
30.211439999999996
 30
0.0
  0
POINT
  5
300
330
17
100
AcDbEntity
  8
0
100
AcDbPoint
 10
180.24999999999997
 20
30.21144000000001
 30
0.0
  0
POINT
  5
301
330
17
100
AcDbEntity
  8
0
100
AcDbPoint
 10
180.5
 20
30.21144000000001
 30
0.0
  0
POINT
  5
302
330
17
100
AcDbEntity
  8
0
100
AcDbPoint
 10
180.74999999999997
 20
30.211439999999996
 30
0.0
  0
POINT
  5
303
330
17
100
AcDbEntity
  8
0
100
AcDbPoint
 10
181.0
 20
30.211439999999982
 30
0.0
  0
POINT
  5
304
330
17
100
AcDbEntity
  8
0
100
AcDbPoint
 10
181.25
 20
30.211439999999996
 30
0.0
  0
POINT
  5
305
330
17
100
AcDbEntity
  8
0
100
AcDbPoint
 10
181.49999999999997
 20
30.211439999999982
 30
0.0
  0
POINT
  5
306
330
17
100
AcDbEntity
  8
0
100
AcDbPoint
 10
181.75
 20
30.211439999999982
 30
0.0
  0
POINT
  5
307
330
17
100
AcDbEntity
  8
0
100
AcDbPoint
 10
181.99999999999997
 20
30.21144000000001
 30
0.0
  0
POINT
  5
308
330
17
100
AcDbEntity
  8
0
100
AcDbPoint
 10
182.25
 20
30.211439999999996
 30
0.0
  0
POINT
  5
309
330
17
100
AcDbEntity
  8
0
100
AcDbPoint
 10
182.5
 20
30.211439999999996
 30
0.0
  0
POINT
  5
30A
330
17
100
AcDbEntity
  8
0
100
AcDbPoint
 10
182.74999999999997
 20
30.211439999999996
 30
0.0
  0
POINT
  5
30B
330
17
100
AcDbEntity
  8
0
100
AcDbPoint
 10
183.0
 20
30.211439999999996
 30
0.0
  0
POINT
  5
30C
330
17
100
AcDbEntity
  8
0
100
AcDbPoint
 10
183.25
 20
30.211439999999996
 30
0.0
  0
POINT
  5
30D
330
17
100
AcDbEntity
  8
0
100
AcDbPoint
 10
183.5
 20
30.211439999999996
 30
0.0
  0
POINT
  5
30E
330
17
100
AcDbEntity
  8
0
100
AcDbPoint
 10
183.75
 20
30.211439999999982
 30
0.0
  0
POINT
  5
30F
330
17
100
AcDbEntity
  8
0
100
AcDbPoint
 10
183.99999999999997
 20
30.21144000000001
 30
0.0
  0
POINT
  5
310
330
17
100
AcDbEntity
  8
0
100
AcDbPoint
 10
184.25
 20
30.211439999999996
 30
0.0
  0
POINT
  5
311
330
17
100
AcDbEntity
  8
0
100
AcDbPoint
 10
184.5
 20
30.21144000000001
 30
0.0
  0
POINT
  5
312
330
17
100
AcDbEntity
  8
0
100
AcDbPoint
 10
184.74999999999997
 20
30.211439999999996
 30
0.0
  0
POINT
  5
313
330
17
100
AcDbEntity
  8
0
100
AcDbPoint
 10
185.0
 20
30.211439999999982
 30
0.0
  0
POINT
  5
314
330
17
100
AcDbEntity
  8
0
100
AcDbPoint
 10
185.24999999999997
 20
30.21144000000001
 30
0.0
  0
POINT
  5
315
330
17
100
AcDbEntity
  8
0
100
AcDbPoint
 10
185.5
 20
30.21144000000001
 30
0.0
  0
POINT
  5
316
330
17
100
AcDbEntity
  8
0
100
AcDbPoint
 10
185.75
 20
30.211439999999982
 30
0.0
  0
POINT
  5
317
330
17
100
AcDbEntity
  8
0
100
AcDbPoint
 10
185.99999999999997
 20
30.21144000000001
 30
0.0
  0
POINT
  5
318
330
17
100
AcDbEntity
  8
0
100
AcDbPoint
 10
186.25
 20
30.21144000000001
 30
0.0
  0
POINT
  5
319
330
17
100
AcDbEntity
  8
0
100
AcDbPoint
 10
186.49999999999997
 20
30.211439999999996
 30
0.0
  0
POINT
  5
31A
330
17
100
AcDbEntity
  8
0
100
AcDbPoint
 10
186.75
 20
30.211439999999982
 30
0.0
  0
POINT
  5
31B
330
17
100
AcDbEntity
  8
0
100
AcDbPoint
 10
187.0
 20
30.211439999999982
 30
0.0
  0
POINT
  5
31C
330
17
100
AcDbEntity
  8
0
100
AcDbPoint
 10
187.24999999999997
 20
30.21144000000001
 30
0.0
  0
POINT
  5
31D
330
17
100
AcDbEntity
  8
0
100
AcDbPoint
 10
187.5
 20
30.211439999999996
 30
0.0
  0
POINT
  5
31E
330
17
100
AcDbEntity
  8
0
100
AcDbPoint
 10
187.75
 20
30.211439999999982
 30
0.0
  0
POINT
  5
31F
330
17
100
AcDbEntity
  8
0
100
AcDbPoint
 10
188.0
 20
30.21144000000001
 30
0.0
  0
POINT
  5
320
330
17
100
AcDbEntity
  8
0
100
AcDbPoint
 10
188.25
 20
30.21144000000001
 30
0.0
  0
POINT
  5
321
330
17
100
AcDbEntity
  8
0
100
AcDbPoint
 10
188.49999999999997
 20
30.21144000000001
 30
0.0
  0
POINT
  5
322
330
17
100
AcDbEntity
  8
0
100
AcDbPoint
 10
188.75
 20
30.211439999999996
 30
0.0
  0
POINT
  5
323
330
17
100
AcDbEntity
  8
0
100
AcDbPoint
 10
189.0
 20
30.21144000000001
 30
0.0
  0
POINT
  5
324
330
17
100
AcDbEntity
  8
0
100
AcDbPoint
 10
189.24999999999997
 20
30.21144000000001
 30
0.0
  0
POINT
  5
325
330
17
100
AcDbEntity
  8
0
100
AcDbPoint
 10
189.5
 20
30.211439999999982
 30
0.0
  0
POINT
  5
326
330
17
100
AcDbEntity
  8
0
100
AcDbPoint
 10
189.74999999999997
 20
30.21144000000001
 30
0.0
  0
POINT
  5
327
330
17
100
AcDbEntity
  8
0
100
AcDbPoint
 10
190.00000000000003
 20
30.211439999999996
 30
0.0
  0
POINT
  5
328
330
17
100
AcDbEntity
  8
0
100
AcDbPoint
 10
190.25
 20
30.211439999999982
 30
0.0
  0
POINT
  5
329
330
17
100
AcDbEntity
  8
0
100
AcDbPoint
 10
190.49999999999997
 20
30.211439999999996
 30
0.0
  0
POINT
  5
32A
330
17
100
AcDbEntity
  8
0
100
AcDbPoint
 10
190.75
 20
30.211439999999996
 30
0.0
  0
POINT
  5
32B
330
17
100
AcDbEntity
  8
0
100
AcDbPoint
 10
190.99999999999997
 20
30.211439999999982
 30
0.0
  0
POINT
  5
32C
330
17
100
AcDbEntity
  8
0
100
AcDbPoint
 10
191.25
 20
30.211439999999982
 30
0.0
  0
POINT
  5
32D
330
17
100
AcDbEntity
  8
0
100
AcDbPoint
 10
191.5
 20
30.21144000000001
 30
0.0
  0
POINT
  5
32E
330
17
100
AcDbEntity
  8
0
100
AcDbPoint
 10
191.74999999999997
 20
30.21144000000001
 30
0.0
  0
POINT
  5
32F
330
17
100
AcDbEntity
  8
0
100
AcDbPoint
 10
192.0
 20
30.211439999999996
 30
0.0
  0
POINT
  5
330
330
17
100
AcDbEntity
  8
0
100
AcDbPoint
 10
192.25
 20
30.21144000000001
 30
0.0
  0
POINT
  5
331
330
17
100
AcDbEntity
  8
0
100
AcDbPoint
 10
192.5
 20
30.211439999999982
 30
0.0
  0
POINT
  5
332
330
17
100
AcDbEntity
  8
0
100
AcDbPoint
 10
192.75
 20
30.211439999999996
 30
0.0
  0
POINT
  5
333
330
17
100
AcDbEntity
  8
0
100
AcDbPoint
 10
192.99999999999997
 20
30.21144000000001
 30
0.0
  0
POINT
  5
334
330
17
100
AcDbEntity
  8
0
100
AcDbPoint
 10
193.25
 20
30.211439999999996
 30
0.0
  0
POINT
  5
335
330
17
100
AcDbEntity
  8
0
100
AcDbPoint
 10
193.5
 20
30.21144000000001
 30
0.0
  0
POINT
  5
336
330
17
100
AcDbEntity
  8
0
100
AcDbPoint
 10
193.74999999999997
 20
30.211439999999996
 30
0.0
  0
POINT
  5
337
330
17
100
AcDbEntity
  8
0
100
AcDbPoint
 10
194.0
 20
30.21144000000001
 30
0.0
  0
POINT
  5
338
330
17
100
AcDbEntity
  8
0
100
AcDbPoint
 10
194.24999999999997
 20
30.211439999999996
 30
0.0
  0
POINT
  5
339
330
17
100
AcDbEntity
  8
0
100
AcDbPoint
 10
194.5
 20
30.211439999999982
 30
0.0
  0
POINT
  5
33A
330
17
100
AcDbEntity
  8
0
100
AcDbPoint
 10
194.75
 20
30.211439999999996
 30
0.0
  0
POINT
  5
33B
330
17
100
AcDbEntity
  8
0
100
AcDbPoint
 10
195.0
 20
30.211439999999996
 30
0.0
  0
POINT
  5
33C
330
17
100
AcDbEntity
  8
0
100
AcDbPoint
 10
195.25
 20
30.21144000000001
 30
0.0
  0
POINT
  5
33D
330
17
100
AcDbEntity
  8
0
100
AcDbPoint
 10
195.49999999999997
 20
30.21144000000001
 30
0.0
  0
POINT
  5
33E
330
17
100
AcDbEntity
  8
0
100
AcDbPoint
 10
195.75
 20
30.211439999999996
 30
0.0
  0
POINT
  5
33F
330
17
100
AcDbEntity
  8
0
100
AcDbPoint
 10
196.0
 20
30.211439999999996
 30
0.0
  0
POINT
  5
340
330
17
100
AcDbEntity
  8
0
100
AcDbPoint
 10
196.24999999999997
 20
30.21144000000001
 30
0.0
  0
POINT
  5
341
330
17
100
AcDbEntity
  8
0
100
AcDbPoint
 10
196.5
 20
30.211439999999996
 30
0.0
  0
POINT
  5
342
330
17
100
AcDbEntity
  8
0
100
AcDbPoint
 10
196.75
 20
30.211439999999996
 30
0.0
  0
POINT
  5
343
330
17
100
AcDbEntity
  8
0
100
AcDbPoint
 10
197.0
 20
30.21144000000001
 30
0.0
  0
POINT
  5
344
330
17
100
AcDbEntity
  8
0
100
AcDbPoint
 10
197.25
 20
30.211439999999996
 30
0.0
  0
POINT
  5
345
330
17
100
AcDbEntity
  8
0
100
AcDbPoint
 10
197.49999999999997
 20
30.211439999999996
 30
0.0
  0
POINT
  5
346
330
17
100
AcDbEntity
  8
0
100
AcDbPoint
 10
197.75
 20
30.21144000000001
 30
0.0
  0
POINT
  5
347
330
17
100
AcDbEntity
  8
0
100
AcDbPoint
 10
198.0
 20
30.21144000000001
 30
0.0
  0
POINT
  5
348
330
17
100
AcDbEntity
  8
0
100
AcDbPoint
 10
198.24999999999997
 20
30.211439999999982
 30
0.0
  0
POINT
  5
349
330
17
100
AcDbEntity
  8
0
100
AcDbPoint
 10
198.5
 20
30.211439999999982
 30
0.0
  0
POINT
  5
34A
330
17
100
AcDbEntity
  8
0
100
AcDbPoint
 10
198.74999999999997
 20
30.211439999999996
 30
0.0
  0
POINT
  5
34B
330
17
100
AcDbEntity
  8
0
100
AcDbPoint
 10
199.0
 20
30.21144000000001
 30
0.0
  0
POINT
  5
34C
330
17
100
AcDbEntity
  8
0
100
AcDbPoint
 10
199.25
 20
30.211439999999982
 30
0.0
  0
POINT
  5
34D
330
17
100
AcDbEntity
  8
0
100
AcDbPoint
 10
199.49999999999997
 20
30.211439999999996
 30
0.0
  0
POINT
  5
34E
330
17
100
AcDbEntity
  8
0
100
AcDbPoint
 10
199.75
 20
30.21144000000001
 30
0.0
  0
POINT
  5
34F
330
17
100
AcDbEntity
  8
0
100
AcDbPoint
 10
199.99999999999997
 20
30.21144000000001
 30
0.0
  0
POINT
  5
350
330
17
100
AcDbEntity
  8
0
100
AcDbPoint
 10
200.25
 20
30.21144000000001
 30
0.0
  0
POINT
  5
351
330
17
100
AcDbEntity
  8
0
100
AcDbPoint
 10
200.49999999999997
 20
30.211439999999996
 30
0.0
  0
POINT
  5
352
330
17
100
AcDbEntity
  8
0
100
AcDbPoint
 10
200.74999999999997
 20
30.211439999999996
 30
0.0
  0
POINT
  5
353
330
17
100
AcDbEntity
  8
0
100
AcDbPoint
 10
201.0
 20
30.21144000000001
 30
0.0
  0
POINT
  5
354
330
17
100
AcDbEntity
  8
0
100
AcDbPoint
 10
201.24999999999997
 20
30.211439999999996
 30
0.0
  0
POINT
  5
355
330
17
100
AcDbEntity
  8
0
100
AcDbPoint
 10
201.5
 20
30.21144000000001
 30
0.0
  0
POINT
  5
356
330
17
100
AcDbEntity
  8
0
100
AcDbPoint
 10
201.74999999999997
 20
30.21144000000001
 30
0.0
  0
POINT
  5
357
330
17
100
AcDbEntity
  8
0
100
AcDbPoint
 10
202.0
 20
30.211439999999996
 30
0.0
  0
POINT
  5
358
330
17
100
AcDbEntity
  8
0
100
AcDbPoint
 10
202.25
 20
30.21144000000001
 30
0.0
  0
POINT
  5
359
330
17
100
AcDbEntity
  8
0
100
AcDbPoint
 10
202.49999999999997
 20
30.211439999999996
 30
0.0
  0
POINT
  5
35A
330
17
100
AcDbEntity
  8
0
100
AcDbPoint
 10
202.74999999999997
 20
30.211439999999996
 30
0.0
  0
POINT
  5
35B
330
17
100
AcDbEntity
  8
0
100
AcDbPoint
 10
203.0
 20
30.21144000000001
 30
0.0
  0
POINT
  5
35C
330
17
100
AcDbEntity
  8
0
100
AcDbPoint
 10
203.24999999999997
 20
30.21144000000001
 30
0.0
  0
POINT
  5
35D
330
17
100
AcDbEntity
  8
0
100
AcDbPoint
 10
203.5
 20
30.21144000000001
 30
0.0
  0
POINT
  5
35E
330
17
100
AcDbEntity
  8
0
100
AcDbPoint
 10
203.75
 20
30.211439999999996
 30
0.0
  0
POINT
  5
35F
330
17
100
AcDbEntity
  8
0
100
AcDbPoint
 10
204.0
 20
30.211439999999996
 30
0.0
  0
POINT
  5
360
330
17
100
AcDbEntity
  8
0
100
AcDbPoint
 10
204.25
 20
30.211439999999996
 30
0.0
  0
POINT
  5
361
330
17
100
AcDbEntity
  8
0
100
AcDbPoint
 10
204.5
 20
30.211439999999996
 30
0.0
  0
POINT
  5
362
330
17
100
AcDbEntity
  8
0
100
AcDbPoint
 10
204.75
 20
30.211439999999982
 30
0.0
  0
POINT
  5
363
330
17
100
AcDbEntity
  8
0
100
AcDbPoint
 10
204.99999999999997
 20
30.21144000000001
 30
0.0
  0
POINT
  5
364
330
17
100
AcDbEntity
  8
0
100
AcDbPoint
 10
205.25
 20
30.211439999999996
 30
0.0
  0
POINT
  5
365
330
17
100
AcDbEntity
  8
0
100
AcDbPoint
 10
205.5
 20
30.21144000000001
 30
0.0
  0
POINT
  5
366
330
17
100
AcDbEntity
  8
0
100
AcDbPoint
 10
205.74999999999997
 20
30.21144000000001
 30
0.0
  0
POINT
  5
367
330
17
100
AcDbEntity
  8
0
100
AcDbPoint
 10
206.0
 20
30.21144000000001
 30
0.0
  0
POINT
  5
368
330
17
100
AcDbEntity
  8
0
100
AcDbPoint
 10
206.24999999999997
 20
30.211439999999996
 30
0.0
  0
POINT
  5
369
330
17
100
AcDbEntity
  8
0
100
AcDbPoint
 10
206.49999999999997
 20
30.21144000000001
 30
0.0
  0
POINT
  5
36A
330
17
100
AcDbEntity
  8
0
100
AcDbPoint
 10
206.75
 20
30.211439999999982
 30
0.0
  0
POINT
  5
36B
330
17
100
AcDbEntity
  8
0
100
AcDbPoint
 10
207.0
 20
30.21144000000001
 30
0.0
  0
POINT
  5
36C
330
17
100
AcDbEntity
  8
0
100
AcDbPoint
 10
207.24999999999997
 20
30.211439999999996
 30
0.0
  0
POINT
  5
36D
330
17
100
AcDbEntity
  8
0
100
AcDbPoint
 10
207.50000000000003
 20
30.211439999999996
 30
0.0
  0
POINT
  5
36E
330
17
100
AcDbEntity
  8
0
100
AcDbPoint
 10
207.74999999999997
 20
30.211439999999982
 30
0.0
  0
POINT
  5
36F
330
17
100
AcDbEntity
  8
0
100
AcDbPoint
 10
208.0
 20
30.211439999999982
 30
0.0
  0
POINT
  5
370
330
17
100
AcDbEntity
  8
0
100
AcDbPoint
 10
208.24999999999997
 20
30.21144000000001
 30
0.0
  0
POINT
  5
371
330
17
100
AcDbEntity
  8
0
100
AcDbPoint
 10
208.5
 20
30.211439999999982
 30
0.0
  0
POINT
  5
372
330
17
100
AcDbEntity
  8
0
100
AcDbPoint
 10
208.75
 20
30.211439999999996
 30
0.0
  0
POINT
  5
373
330
17
100
AcDbEntity
  8
0
100
AcDbPoint
 10
208.99999999999997
 20
30.211439999999982
 30
0.0
  0
POINT
  5
374
330
17
100
AcDbEntity
  8
0
100
AcDbPoint
 10
209.25
 20
30.21144000000001
 30
0.0
  0
POINT
  5
375
330
17
100
AcDbEntity
  8
0
100
AcDbPoint
 10
209.49999999999997
 20
30.211439999999982
 30
0.0
  0
POINT
  5
376
330
17
100
AcDbEntity
  8
0
100
AcDbPoint
 10
209.74999999999997
 20
30.21144000000001
 30
0.0
  0
POINT
  5
377
330
17
100
AcDbEntity
  8
0
100
AcDbPoint
 10
210.0
 20
30.211439999999996
 30
0.0
  0
POINT
  5
378
330
17
100
AcDbEntity
  8
0
100
AcDbPoint
 10
210.25
 20
30.21144000000001
 30
0.0
  0
POINT
  5
379
330
17
100
AcDbEntity
  8
0
100
AcDbPoint
 10
210.5
 20
30.211439999999996
 30
0.0
  0
POINT
  5
37A
330
17
100
AcDbEntity
  8
0
100
AcDbPoint
 10
210.74999999999997
 20
30.211439999999996
 30
0.0
  0
POINT
  5
37B
330
17
100
AcDbEntity
  8
0
100
AcDbPoint
 10
210.99999999999997
 20
30.211439999999996
 30
0.0
  0
POINT
  5
37C
330
17
100
AcDbEntity
  8
0
100
AcDbPoint
 10
211.25000000000003
 20
30.211439999999982
 30
0.0
  0
POINT
  5
37D
330
17
100
AcDbEntity
  8
0
100
AcDbPoint
 10
211.5
 20
30.211439999999982
 30
0.0
  0
POINT
  5
37E
330
17
100
AcDbEntity
  8
0
100
AcDbPoint
 10
211.74999999999997
 20
30.21144000000001
 30
0.0
  0
POINT
  5
37F
330
17
100
AcDbEntity
  8
0
100
AcDbPoint
 10
212.0
 20
30.211439999999996
 30
0.0
  0
POINT
  5
380
330
17
100
AcDbEntity
  8
0
100
AcDbPoint
 10
212.24999999999997
 20
30.211439999999982
 30
0.0
  0
POINT
  5
381
330
17
100
AcDbEntity
  8
0
100
AcDbPoint
 10
212.5
 20
30.211439999999982
 30
0.0
  0
POINT
  5
382
330
17
100
AcDbEntity
  8
0
100
AcDbPoint
 10
212.74999999999997
 20
30.21144000000001
 30
0.0
  0
POINT
  5
383
330
17
100
AcDbEntity
  8
0
100
AcDbPoint
 10
212.99999999999997
 20
30.21144000000001
 30
0.0
  0
POINT
  5
384
330
17
100
AcDbEntity
  8
0
100
AcDbPoint
 10
213.25
 20
30.211439999999996
 30
0.0
  0
POINT
  5
385
330
17
100
AcDbEntity
  8
0
100
AcDbPoint
 10
213.5
 20
30.211439999999982
 30
0.0
  0
POINT
  5
386
330
17
100
AcDbEntity
  8
0
100
AcDbPoint
 10
213.75
 20
30.211439999999996
 30
0.0
  0
POINT
  5
387
330
17
100
AcDbEntity
  8
0
100
AcDbPoint
 10
213.99999999999997
 20
30.211439999999982
 30
0.0
  0
POINT
  5
388
330
17
100
AcDbEntity
  8
0
100
AcDbPoint
 10
214.24999999999997
 20
30.21144000000001
 30
0.0
  0
POINT
  5
389
330
17
100
AcDbEntity
  8
0
100
AcDbPoint
 10
214.50000000000003
 20
30.211439999999996
 30
0.0
  0
POINT
  5
38A
330
17
100
AcDbEntity
  8
0
100
AcDbPoint
 10
214.75
 20
30.21144000000001
 30
0.0
  0
POINT
  5
38B
330
17
100
AcDbEntity
  8
0
100
AcDbPoint
 10
215.0
 20
30.211439999999996
 30
0.0
  0
POINT
  5
38C
330
17
100
AcDbEntity
  8
0
100
AcDbPoint
 10
215.25000000000003
 20
30.211439999999996
 30
0.0
  0
POINT
  5
38D
330
17
100
AcDbEntity
  8
0
100
AcDbPoint
 10
215.49999999999997
 20
30.211439999999982
 30
0.0
  0
POINT
  5
38E
330
17
100
AcDbEntity
  8
0
100
AcDbPoint
 10
215.75
 20
30.21144000000001
 30
0.0
  0
POINT
  5
38F
330
17
100
AcDbEntity
  8
0
100
AcDbPoint
 10
215.99999999999997
 20
30.211439999999982
 30
0.0
  0
POINT
  5
390
330
17
100
AcDbEntity
  8
0
100
AcDbPoint
 10
216.24999999999997
 20
30.211439999999996
 30
0.0
  0
POINT
  5
391
330
17
100
AcDbEntity
  8
0
100
AcDbPoint
 10
216.5
 20
30.211439999999982
 30
0.0
  0
POINT
  5
392
330
17
100
AcDbEntity
  8
0
100
AcDbPoint
 10
216.75
 20
30.211439999999982
 30
0.0
  0
POINT
  5
393
330
17
100
AcDbEntity
  8
0
100
AcDbPoint
 10
217.0
 20
30.211439999999996
 30
0.0
  0
POINT
  5
394
330
17
100
AcDbEntity
  8
0
100
AcDbPoint
 10
217.24999999999997
 20
30.211439999999982
 30
0.0
  0
POINT
  5
395
330
17
100
AcDbEntity
  8
0
100
AcDbPoint
 10
217.49999999999997
 20
30.211439999999982
 30
0.0
  0
POINT
  5
396
330
17
100
AcDbEntity
  8
0
100
AcDbPoint
 10
217.75
 20
30.211439999999996
 30
0.0
  0
POINT
  5
397
330
17
100
AcDbEntity
  8
0
100
AcDbPoint
 10
217.99999999999997
 20
30.211439999999996
 30
0.0
  0
POINT
  5
398
330
17
100
AcDbEntity
  8
0
100
AcDbPoint
 10
218.25
 20
30.211439999999996
 30
0.0
  0
POINT
  5
399
330
17
100
AcDbEntity
  8
0
100
AcDbPoint
 10
218.49999999999997
 20
30.211439999999996
 30
0.0
  0
POINT
  5
39A
330
17
100
AcDbEntity
  8
0
100
AcDbPoint
 10
218.74999999999997
 20
30.21144000000001
 30
0.0
  0
POINT
  5
39B
330
17
100
AcDbEntity
  8
0
100
AcDbPoint
 10
219.0
 20
30.21144000000001
 30
0.0
  0
POINT
  5
39C
330
17
100
AcDbEntity
  8
0
100
AcDbPoint
 10
219.24999999999997
 20
30.21144000000001
 30
0.0
  0
POINT
  5
39D
330
17
100
AcDbEntity
  8
0
100
AcDbPoint
 10
219.5
 20
30.211439999999982
 30
0.0
  0
POINT
  5
39E
330
17
100
AcDbEntity
  8
0
100
AcDbPoint
 10
219.75
 20
30.21144000000001
 30
0.0
  0
POINT
  5
39F
330
17
100
AcDbEntity
  8
0
100
AcDbPoint
 10
219.99999999999997
 20
30.21144000000001
 30
0.0
  0
POINT
  5
3A0
330
17
100
AcDbEntity
  8
0
100
AcDbPoint
 10
220.25
 20
30.211439999999982
 30
0.0
  0
POINT
  5
3A1
330
17
100
AcDbEntity
  8
0
100
AcDbPoint
 10
220.5
 20
30.21144000000001
 30
0.0
  0
POINT
  5
3A2
330
17
100
AcDbEntity
  8
0
100
AcDbPoint
 10
220.74999999999997
 20
30.211439999999996
 30
0.0
  0
POINT
  5
3A3
330
17
100
AcDbEntity
  8
0
100
AcDbPoint
 10
221.00000000000003
 20
30.21144000000001
 30
0.0
  0
POINT
  5
3A4
330
17
100
AcDbEntity
  8
0
100
AcDbPoint
 10
221.25
 20
30.211439999999982
 30
0.0
  0
POINT
  5
3A5
330
17
100
AcDbEntity
  8
0
100
AcDbPoint
 10
221.50000000000003
 20
30.211439999999996
 30
0.0
  0
POINT
  5
3A6
330
17
100
AcDbEntity
  8
0
100
AcDbPoint
 10
221.75
 20
30.21144000000001
 30
0.0
  0
POINT
  5
3A7
330
17
100
AcDbEntity
  8
0
100
AcDbPoint
 10
222.0
 20
30.211439999999982
 30
0.0
  0
POINT
  5
3A8
330
17
100
AcDbEntity
  8
0
100
AcDbPoint
 10
222.25
 20
30.211439999999982
 30
0.0
  0
POINT
  5
3A9
330
17
100
AcDbEntity
  8
0
100
AcDbPoint
 10
222.49999999999997
 20
30.211439999999996
 30
0.0
  0
POINT
  5
3AA
330
17
100
AcDbEntity
  8
0
100
AcDbPoint
 10
222.75
 20
30.21144000000001
 30
0.0
  0
POINT
  5
3AB
330
17
100
AcDbEntity
  8
0
100
AcDbPoint
 10
222.99999999999997
 20
30.211439999999996
 30
0.0
  0
POINT
  5
3AC
330
17
100
AcDbEntity
  8
0
100
AcDbPoint
 10
223.24999999999997
 20
30.211439999999996
 30
0.0
  0
POINT
  5
3AD
330
17
100
AcDbEntity
  8
0
100
AcDbPoint
 10
223.5
 20
30.211439999999982
 30
0.0
  0
POINT
  5
3AE
330
17
100
AcDbEntity
  8
0
100
AcDbPoint
 10
223.75
 20
30.21144000000001
 30
0.0
  0
POINT
  5
3AF
330
17
100
AcDbEntity
  8
0
100
AcDbPoint
 10
224.0
 20
30.211439999999982
 30
0.0
  0
POINT
  5
3B0
330
17
100
AcDbEntity
  8
0
100
AcDbPoint
 10
224.25
 20
30.21144000000001
 30
0.0
  0
POINT
  5
3B1
330
17
100
AcDbEntity
  8
0
100
AcDbPoint
 10
224.49999999999997
 20
30.21144000000001
 30
0.0
  0
POINT
  5
3B2
330
17
100
AcDbEntity
  8
0
100
AcDbPoint
 10
224.75
 20
30.211439999999996
 30
0.0
  0
POINT
  5
3B3
330
17
100
AcDbEntity
  8
0
100
AcDbPoint
 10
224.99999999999997
 20
30.211439999999982
 30
0.0
  0
POINT
  5
3B4
330
17
100
AcDbEntity
  8
0
100
AcDbPoint
 10
225.24999999999997
 20
30.211439999999996
 30
0.0
  0
POINT
  5
3B5
330
17
100
AcDbEntity
  8
0
100
AcDbPoint
 10
225.5
 20
30.211439999999996
 30
0.0
  0
POINT
  5
3B6
330
17
100
AcDbEntity
  8
0
100
AcDbPoint
 10
225.74999999999997
 20
30.211439999999982
 30
0.0
  0
POINT
  5
3B7
330
17
100
AcDbEntity
  8
0
100
AcDbPoint
 10
226.00000000000003
 20
30.21144000000001
 30
0.0
  0
POINT
  5
3B8
330
17
100
AcDbEntity
  8
0
100
AcDbPoint
 10
226.25
 20
30.21144000000001
 30
0.0
  0
POINT
  5
3B9
330
17
100
AcDbEntity
  8
0
100
AcDbPoint
 10
226.49999999999997
 20
30.21144000000001
 30
0.0
  0
POINT
  5
3BA
330
17
100
AcDbEntity
  8
0
100
AcDbPoint
 10
226.75
 20
30.211439999999982
 30
0.0
  0
POINT
  5
3BB
330
17
100
AcDbEntity
  8
0
100
AcDbPoint
 10
226.99999999999997
 20
30.21144000000001
 30
0.0
  0
POINT
  5
3BC
330
17
100
AcDbEntity
  8
0
100
AcDbPoint
 10
227.25
 20
30.21144000000001
 30
0.0
  0
POINT
  5
3BD
330
17
100
AcDbEntity
  8
0
100
AcDbPoint
 10
227.49999999999997
 20
30.21144000000001
 30
0.0
  0
POINT
  5
3BE
330
17
100
AcDbEntity
  8
0
100
AcDbPoint
 10
227.75
 20
30.21144000000001
 30
0.0
  0
POINT
  5
3BF
330
17
100
AcDbEntity
  8
0
100
AcDbPoint
 10
228.00000000000003
 20
30.21144000000001
 30
0.0
  0
POINT
  5
3C0
330
17
100
AcDbEntity
  8
0
100
AcDbPoint
 10
228.25
 20
30.21144000000001
 30
0.0
  0
POINT
  5
3C1
330
17
100
AcDbEntity
  8
0
100
AcDbPoint
 10
228.5
 20
30.211439999999996
 30
0.0
  0
POINT
  5
3C2
330
17
100
AcDbEntity
  8
0
100
AcDbPoint
 10
228.75000000000003
 20
30.211439999999996
 30
0.0
  0
POINT
  5
3C3
330
17
100
AcDbEntity
  8
0
100
AcDbPoint
 10
228.99999999999997
 20
30.21144000000001
 30
0.0
  0
POINT
  5
3C4
330
17
100
AcDbEntity
  8
0
100
AcDbPoint
 10
229.25
 20
30.21144000000001
 30
0.0
  0
POINT
  5
3C5
330
17
100
AcDbEntity
  8
0
100
AcDbPoint
 10
229.5
 20
30.211439999999982
 30
0.0
  0
POINT
  5
3C6
330
17
100
AcDbEntity
  8
0
100
AcDbPoint
 10
229.74999999999997
 20
30.211439999999982
 30
0.0
  0
POINT
  5
3C7
330
17
100
AcDbEntity
  8
0
100
AcDbPoint
 10
230.0
 20
30.211439999999982
 30
0.0
  0
POINT
  5
3C8
330
17
100
AcDbEntity
  8
0
100
AcDbPoint
 10
230.24999999999997
 20
30.21144000000001
 30
0.0
  0
POINT
  5
3C9
330
17
100
AcDbEntity
  8
0
100
AcDbPoint
 10
230.5
 20
30.211439999999982
 30
0.0
  0
POINT
  5
3CA
330
17
100
AcDbEntity
  8
0
100
AcDbPoint
 10
230.75
 20
30.211439999999996
 30
0.0
  0
POINT
  5
3CB
330
17
100
AcDbEntity
  8
0
100
AcDbPoint
 10
230.99999999999997
 20
30.211439999999996
 30
0.0
  0
POINT
  5
3CC
330
17
100
AcDbEntity
  8
0
100
AcDbPoint
 10
231.25
 20
30.21144000000001
 30
0.0
  0
POINT
  5
3CD
330
17
100
AcDbEntity
  8
0
100
AcDbPoint
 10
231.5
 20
30.211439999999982
 30
0.0
  0
POINT
  5
3CE
330
17
100
AcDbEntity
  8
0
100
AcDbPoint
 10
231.75
 20
30.211439999999996
 30
0.0
  0
POINT
  5
3CF
330
17
100
AcDbEntity
  8
0
100
AcDbPoint
 10
231.99999999999997
 20
30.21144000000001
 30
0.0
  0
POINT
  5
3D0
330
17
100
AcDbEntity
  8
0
100
AcDbPoint
 10
232.25
 20
30.21144000000001
 30
0.0
  0
POINT
  5
3D1
330
17
100
AcDbEntity
  8
0
100
AcDbPoint
 10
232.5
 20
30.211439999999982
 30
0.0
  0
POINT
  5
3D2
330
17
100
AcDbEntity
  8
0
100
AcDbPoint
 10
232.74999999999997
 20
30.21144000000001
 30
0.0
  0
POINT
  5
3D3
330
17
100
AcDbEntity
  8
0
100
AcDbPoint
 10
233.0
 20
30.21144000000001
 30
0.0
  0
POINT
  5
3D4
330
17
100
AcDbEntity
  8
0
100
AcDbPoint
 10
233.25000000000003
 20
30.211439999999982
 30
0.0
  0
POINT
  5
3D5
330
17
100
AcDbEntity
  8
0
100
AcDbPoint
 10
233.5
 20
30.211439999999996
 30
0.0
  0
POINT
  5
3D6
330
17
100
AcDbEntity
  8
0
100
AcDbPoint
 10
233.75
 20
30.211439999999996
 30
0.0
  0
POINT
  5
3D7
330
17
100
AcDbEntity
  8
0
100
AcDbPoint
 10
233.99999999999997
 20
30.211439999999996
 30
0.0
  0
POINT
  5
3D8
330
17
100
AcDbEntity
  8
0
100
AcDbPoint
 10
234.25
 20
30.21144000000001
 30
0.0
  0
POINT
  5
3D9
330
17
100
AcDbEntity
  8
0
100
AcDbPoint
 10
234.5
 20
30.21144000000001
 30
0.0
  0
POINT
  5
3DA
330
17
100
AcDbEntity
  8
0
100
AcDbPoint
 10
234.75
 20
30.211439999999982
 30
0.0
  0
POINT
  5
3DB
330
17
100
AcDbEntity
  8
0
100
AcDbPoint
 10
235.0
 20
30.21144000000001
 30
0.0
  0
POINT
  5
3DC
330
17
100
AcDbEntity
  8
0
100
AcDbPoint
 10
235.24999999999997
 20
30.21144000000001
 30
0.0
  0
POINT
  5
3DD
330
17
100
AcDbEntity
  8
0
100
AcDbPoint
 10
235.5
 20
30.21144000000001
 30
0.0
  0
POINT
  5
3DE
330
17
100
AcDbEntity
  8
0
100
AcDbPoint
 10
235.75
 20
30.211439999999996
 30
0.0
  0
POINT
  5
3DF
330
17
100
AcDbEntity
  8
0
100
AcDbPoint
 10
235.99999999999997
 20
30.211439999999996
 30
0.0
  0
POINT
  5
3E0
330
17
100
AcDbEntity
  8
0
100
AcDbPoint
 10
236.25
 20
30.211439999999982
 30
0.0
  0
POINT
  5
3E1
330
17
100
AcDbEntity
  8
0
100
AcDbPoint
 10
236.5
 20
30.21144000000001
 30
0.0
  0
POINT
  5
3E2
330
17
100
AcDbEntity
  8
0
100
AcDbPoint
 10
236.75
 20
30.21144000000001
 30
0.0
  0
POINT
  5
3E3
330
17
100
AcDbEntity
  8
0
100
AcDbPoint
 10
237.0
 20
30.211439999999996
 30
0.0
  0
POINT
  5
3E4
330
17
100
AcDbEntity
  8
0
100
AcDbPoint
 10
237.24999999999997
 20
30.211439999999996
 30
0.0
  0
POINT
  5
3E5
330
17
100
AcDbEntity
  8
0
100
AcDbPoint
 10
237.5
 20
30.21144000000001
 30
0.0
  0
POINT
  5
3E6
330
17
100
AcDbEntity
  8
0
100
AcDbPoint
 10
237.75
 20
30.21144000000001
 30
0.0
  0
POINT
  5
3E7
330
17
100
AcDbEntity
  8
0
100
AcDbPoint
 10
238.0
 20
30.211439999999996
 30
0.0
  0
POINT
  5
3E8
330
17
100
AcDbEntity
  8
0
100
AcDbPoint
 10
238.25
 20
30.211439999999996
 30
0.0
  0
POINT
  5
3E9
330
17
100
AcDbEntity
  8
0
100
AcDbPoint
 10
238.5
 20
30.21144000000001
 30
0.0
  0
POINT
  5
3EA
330
17
100
AcDbEntity
  8
0
100
AcDbPoint
 10
238.75
 20
30.211439999999996
 30
0.0
  0
POINT
  5
3EB
330
17
100
AcDbEntity
  8
0
100
AcDbPoint
 10
239.0
 20
30.211439999999982
 30
0.0
  0
POINT
  5
3EC
330
17
100
AcDbEntity
  8
0
100
AcDbPoint
 10
239.25
 20
30.211439999999982
 30
0.0
  0
POINT
  5
3ED
330
17
100
AcDbEntity
  8
0
100
AcDbPoint
 10
239.5
 20
30.211439999999982
 30
0.0
  0
POINT
  5
3EE
330
17
100
AcDbEntity
  8
0
100
AcDbPoint
 10
239.74999999999997
 20
30.211439999999996
 30
0.0
  0
POINT
  5
3EF
330
17
100
AcDbEntity
  8
0
100
AcDbPoint
 10
240.0
 20
30.211439999999996
 30
0.0
  0
POINT
  5
3F0
330
17
100
AcDbEntity
  8
0
100
AcDbPoint
 10
240.25
 20
30.211439999999996
 30
0.0
  0
POINT
  5
3F1
330
17
100
AcDbEntity
  8
0
100
AcDbPoint
 10
240.49999999999997
 20
30.211439999999996
 30
0.0
  0
POINT
  5
3F2
330
17
100
AcDbEntity
  8
0
100
AcDbPoint
 10
240.75
 20
30.211439999999982
 30
0.0
  0
POINT
  5
3F3
330
17
100
AcDbEntity
  8
0
100
AcDbPoint
 10
240.99999999999997
 20
30.211439999999996
 30
0.0
  0
POINT
  5
3F4
330
17
100
AcDbEntity
  8
0
100
AcDbPoint
 10
241.25
 20
30.211439999999982
 30
0.0
  0
POINT
  5
3F5
330
17
100
AcDbEntity
  8
0
100
AcDbPoint
 10
241.5
 20
30.211439999999996
 30
0.0
  0
POINT
  5
3F6
330
17
100
AcDbEntity
  8
0
100
AcDbPoint
 10
241.75
 20
30.211439999999982
 30
0.0
  0
POINT
  5
3F7
330
17
100
AcDbEntity
  8
0
100
AcDbPoint
 10
242.0
 20
30.211439999999982
 30
0.0
  0
POINT
  5
3F8
330
17
100
AcDbEntity
  8
0
100
AcDbPoint
 10
242.25000000000003
 20
30.21144000000001
 30
0.0
  0
POINT
  5
3F9
330
17
100
AcDbEntity
  8
0
100
AcDbPoint
 10
242.5
 20
30.21144000000001
 30
0.0
  0
POINT
  5
3FA
330
17
100
AcDbEntity
  8
0
100
AcDbPoint
 10
242.75
 20
30.211439999999996
 30
0.0
  0
POINT
  5
3FB
330
17
100
AcDbEntity
  8
0
100
AcDbPoint
 10
243.0
 20
30.211439999999996
 30
0.0
  0
POINT
  5
3FC
330
17
100
AcDbEntity
  8
0
100
AcDbPoint
 10
243.25
 20
30.211439999999996
 30
0.0
  0
POINT
  5
3FD
330
17
100
AcDbEntity
  8
0
100
AcDbPoint
 10
243.5
 20
30.211439999999982
 30
0.0
  0
POINT
  5
3FE
330
17
100
AcDbEntity
  8
0
100
AcDbPoint
 10
243.75
 20
30.211439999999982
 30
0.0
  0
POINT
  5
3FF
330
17
100
AcDbEntity
  8
0
100
AcDbPoint
 10
244.0
 20
30.211439999999996
 30
0.0
  0
POINT
  5
400
330
17
100
AcDbEntity
  8
0
100
AcDbPoint
 10
244.25
 20
30.211439999999996
 30
0.0
  0
POINT
  5
401
330
17
100
AcDbEntity
  8
0
100
AcDbPoint
 10
244.5
 20
30.21144000000001
 30
0.0
  0
POINT
  5
402
330
17
100
AcDbEntity
  8
0
100
AcDbPoint
 10
244.75
 20
30.211439999999996
 30
0.0
  0
POINT
  5
403
330
17
100
AcDbEntity
  8
0
100
AcDbPoint
 10
244.99999999999997
 20
30.21144000000001
 30
0.0
  0
POINT
  5
404
330
17
100
AcDbEntity
  8
0
100
AcDbPoint
 10
245.25
 20
30.211439999999996
 30
0.0
  0
POINT
  5
405
330
17
100
AcDbEntity
  8
0
100
AcDbPoint
 10
245.5
 20
30.211439999999996
 30
0.0
  0
POINT
  5
406
330
17
100
AcDbEntity
  8
0
100
AcDbPoint
 10
245.75
 20
30.211439999999996
 30
0.0
  0
POINT
  5
407
330
17
100
AcDbEntity
  8
0
100
AcDbPoint
 10
246.0
 20
30.21144000000001
 30
0.0
  0
POINT
  5
408
330
17
100
AcDbEntity
  8
0
100
AcDbPoint
 10
246.25
 20
30.211430000000007
 30
0.0
  0
POINT
  5
409
330
17
100
AcDbEntity
  8
0
100
AcDbPoint
 10
246.5
 20
30.211430000000007
 30
0.0
  0
POINT
  5
40A
330
17
100
AcDbEntity
  8
0
100
AcDbPoint
 10
246.75
 20
30.211410000000015
 30
0.0
  0
POINT
  5
40B
330
17
100
AcDbEntity
  8
0
100
AcDbPoint
 10
247.0
 20
30.211389999999994
 30
0.0
  0
POINT
  5
40C
330
17
100
AcDbEntity
  8
0
100
AcDbPoint
 10
247.25
 20
30.21136
 30
0.0
  0
POINT
  5
40D
330
17
100
AcDbEntity
  8
0
100
AcDbPoint
 10
247.5
 20
30.21132
 30
0.0
  0
POINT
  5
40E
330
17
100
AcDbEntity
  8
0
100
AcDbPoint
 10
247.75
 20
30.211259999999996
 30
0.0
  0
POINT
  5
40F
330
17
100
AcDbEntity
  8
0
100
AcDbPoint
 10
248.0
 20
30.21118
 30
0.0
  0
POINT
  5
410
330
17
100
AcDbEntity
  8
0
100
AcDbPoint
 10
248.25
 20
30.211090000000013
 30
0.0
  0
POINT
  5
411
330
17
100
AcDbEntity
  8
0
100
AcDbPoint
 10
248.5
 20
30.210970000000003
 30
0.0
  0
POINT
  5
412
330
17
100
AcDbEntity
  8
0
100
AcDbPoint
 10
248.75
 20
30.21083
 30
0.0
  0
POINT
  5
413
330
17
100
AcDbEntity
  8
0
100
AcDbPoint
 10
249.0
 20
30.210650000000015
 30
0.0
  0
POINT
  5
414
330
17
100
AcDbEntity
  8
0
100
AcDbPoint
 10
249.25
 20
30.210440000000006
 30
0.0
  0
POINT
  5
415
330
17
100
AcDbEntity
  8
0
100
AcDbPoint
 10
249.5
 20
30.210189999999997
 30
0.0
  0
POINT
  5
416
330
17
100
AcDbEntity
  8
0
100
AcDbPoint
 10
249.75
 20
30.20990000000002
 30
0.0
  0
POINT
  5
417
330
17
100
AcDbEntity
  8
0
100
AcDbPoint
 10
250.0
 20
30.20956000000001
 30
0.0
  0
POINT
  5
418
330
17
100
AcDbEntity
  8
0
100
AcDbPoint
 10
250.25
 20
30.209169999999986
 30
0.0
  0
POINT
  5
419
330
17
100
AcDbEntity
  8
0
100
AcDbPoint
 10
250.5
 20
30.20872999999999
 30
0.0
  0
POINT
  5
41A
330
17
100
AcDbEntity
  8
0
100
AcDbPoint
 10
250.75
 20
30.208219999999997
 30
0.0
  0
POINT
  5
41B
330
17
100
AcDbEntity
  8
0
100
AcDbPoint
 10
251.0
 20
30.207640000000012
 30
0.0
  0
POINT
  5
41C
330
17
100
AcDbEntity
  8
0
100
AcDbPoint
 10
251.25
 20
30.206999999999994
 30
0.0
  0
POINT
  5
41D
330
17
100
AcDbEntity
  8
0
100
AcDbPoint
 10
251.5
 20
30.206270000000004
 30
0.0
  0
POINT
  5
41E
330
17
100
AcDbEntity
  8
0
100
AcDbPoint
 10
251.75
 20
30.205460000000002
 30
0.0
  0
POINT
  5
41F
330
17
100
AcDbEntity
  8
0
100
AcDbPoint
 10
252.0
 20
30.204570000000018
 30
0.0
  0
POINT
  5
420
330
17
100
AcDbEntity
  8
0
100
AcDbPoint
 10
252.25
 20
30.203580000000002
 30
0.0
  0
POINT
  5
421
330
17
100
AcDbEntity
  8
0
100
AcDbPoint
 10
252.5
 20
30.202489999999997
 30
0.0
  0
POINT
  5
422
330
17
100
AcDbEntity
  8
0
100
AcDbPoint
 10
252.75
 20
30.20129
 30
0.0
  0
POINT
  5
423
330
17
100
AcDbEntity
  8
0
100
AcDbPoint
 10
253.0
 20
30.199990000000014
 30
0.0
  0
POINT
  5
424
330
17
100
AcDbEntity
  8
0
100
AcDbPoint
 10
253.25
 20
30.19856
 30
0.0
  0
POINT
  5
425
330
17
100
AcDbEntity
  8
0
100
AcDbPoint
 10
253.5
 20
30.19700999999999
 30
0.0
  0
POINT
  5
426
330
17
100
AcDbEntity
  8
0
100
AcDbPoint
 10
253.75
 20
30.195329999999984
 30
0.0
  0
POINT
  5
427
330
17
100
AcDbEntity
  8
0
100
AcDbPoint
 10
254.0
 20
30.193510000000018
 30
0.0
  0
POINT
  5
428
330
17
100
AcDbEntity
  8
0
100
AcDbPoint
 10
254.25
 20
30.191540000000003
 30
0.0
  0
POINT
  5
429
330
17
100
AcDbEntity
  8
0
100
AcDbPoint
 10
254.5
 20
30.18943
 30
0.0
  0
POINT
  5
42A
330
17
100
AcDbEntity
  8
0
100
AcDbPoint
 10
254.75
 20
30.18714999999999
 30
0.0
  0
POINT
  5
42B
330
17
100
AcDbEntity
  8
0
100
AcDbPoint
 10
255.0
 20
30.184709999999995
 30
0.0
  0
POINT
  5
42C
330
17
100
AcDbEntity
  8
0
100
AcDbPoint
 10
255.25
 20
30.182100000000005
 30
0.0
  0
POINT
  5
42D
330
17
100
AcDbEntity
  8
0
100
AcDbPoint
 10
255.5
 20
30.17931
 30
0.0
  0
POINT
  5
42E
330
17
100
AcDbEntity
  8
0
100
AcDbPoint
 10
255.75
 20
30.176339999999996
 30
0.0
  0
POINT
  5
42F
330
17
100
AcDbEntity
  8
0
100
AcDbPoint
 10
256.0
 20
30.173770000000005
 30
0.0
  0
POINT
  5
430
330
17
100
AcDbEntity
  8
0
100
AcDbPoint
 10
256.25
 20
30.169799999999995
 30
0.0
  0
POINT
  5
431
330
17
100
AcDbEntity
  8
0
100
AcDbPoint
 10
256.5
 20
30.166219999999996
 30
0.0
  0
POINT
  5
432
330
17
100
AcDbEntity
  8
0
100
AcDbPoint
 10
256.75
 20
30.16243
 30
0.0
  0
POINT
  5
433
330
17
100
AcDbEntity
  8
0
100
AcDbPoint
 10
257.0
 20
30.158420000000007
 30
0.0
  0
POINT
  5
434
330
17
100
AcDbEntity
  8
0
100
AcDbPoint
 10
257.25
 20
30.154179999999997
 30
0.0
  0
POINT
  5
435
330
17
100
AcDbEntity
  8
0
100
AcDbPoint
 10
257.5
 20
30.149699999999996
 30
0.0
  0
POINT
  5
436
330
17
100
AcDbEntity
  8
0
100
AcDbPoint
 10
257.75
 20
30.144970000000015
 30
0.0
  0
POINT
  5
437
330
17
100
AcDbEntity
  8
0
100
AcDbPoint
 10
258.0
 20
30.14
 30
0.0
  0
POINT
  5
438
330
17
100
AcDbEntity
  8
0
100
AcDbPoint
 10
258.25
 20
30.134760000000014
 30
0.0
  0
POINT
  5
439
330
17
100
AcDbEntity
  8
0
100
AcDbPoint
 10
258.5
 20
30.129260000000002
 30
0.0
  0
POINT
  5
43A
330
17
100
AcDbEntity
  8
0
100
AcDbPoint
 10
258.75
 20
30.123480000000015
 30
0.0
  0
POINT
  5
43B
330
17
100
AcDbEntity
  8
0
100
AcDbPoint
 10
259.0
 20
30.117419999999996
 30
0.0
  0
POINT
  5
43C
330
17
100
AcDbEntity
  8
0
100
AcDbPoint
 10
259.25
 20
30.111069999999998
 30
0.0
  0
POINT
  5
43D
330
17
100
AcDbEntity
  8
0
100
AcDbPoint
 10
259.5
 20
30.10442000000002
 30
0.0
  0
POINT
  5
43E
330
17
100
AcDbEntity
  8
0
100
AcDbPoint
 10
259.75
 20
30.097469999999987
 30
0.0
  0
POINT
  5
43F
330
17
100
AcDbEntity
  8
0
100
AcDbPoint
 10
260.0
 20
30.090210000000013
 30
0.0
  0
POINT
  5
440
330
17
100
AcDbEntity
  8
0
100
AcDbPoint
 10
260.25
 20
30.08261999999999
 30
0.0
  0
POINT
  5
441
330
17
100
AcDbEntity
  8
0
100
AcDbPoint
 10
260.5
 20
30.074709999999996
 30
0.0
  0
POINT
  5
442
330
17
100
AcDbEntity
  8
0
100
AcDbPoint
 10
260.75
 20
30.06647000000001
 30
0.0
  0
POINT
  5
443
330
17
100
AcDbEntity
  8
0
100
AcDbPoint
 10
261.0
 20
30.057879999999997
 30
0.0
  0
POINT
  5
444
330
17
100
AcDbEntity
  8
0
100
AcDbPoint
 10
261.25
 20
30.048939999999988
 30
0.0
  0
POINT
  5
445
330
17
100
AcDbEntity
  8
0
100
AcDbPoint
 10
261.5
 20
30.03964000000002
 30
0.0
  0
POINT
  5
446
330
17
100
AcDbEntity
  8
0
100
AcDbPoint
 10
261.75
 20
30.02998000000001
 30
0.0
  0
POINT
  5
447
330
17
100
AcDbEntity
  8
0
100
AcDbPoint
 10
262.0
 20
30.019940000000005
 30
0.0
  0
POINT
  5
448
330
17
100
AcDbEntity
  8
0
100
AcDbPoint
 10
262.25
 20
30.009529999999998
 30
0.0
  0
POINT
  5
449
330
17
100
AcDbEntity
  8
0
100
AcDbPoint
 10
262.5
 20
29.998729999999995
 30
0.0
  0
POINT
  5
44A
330
17
100
AcDbEntity
  8
0
100
AcDbPoint
 10
262.75
 20
29.98753000000002
 30
0.0
  0
POINT
  5
44B
330
17
100
AcDbEntity
  8
0
100
AcDbPoint
 10
263.0
 20
29.975939999999994
 30
0.0
  0
POINT
  5
44C
330
17
100
AcDbEntity
  8
0
100
AcDbPoint
 10
263.25
 20
29.96392999999999
 30
0.0
  0
POINT
  5
44D
330
17
100
AcDbEntity
  8
0
100
AcDbPoint
 10
263.5
 20
29.95151
 30
0.0
  0
POINT
  5
44E
330
17
100
AcDbEntity
  8
0
100
AcDbPoint
 10
263.75
 20
29.93866
 30
0.0
  0
POINT
  5
44F
330
17
100
AcDbEntity
  8
0
100
AcDbPoint
 10
264.0
 20
29.925380000000004
 30
0.0
  0
POINT
  5
450
330
17
100
AcDbEntity
  8
0
100
AcDbPoint
 10
264.25
 20
29.911670000000015
 30
0.0
  0
POINT
  5
451
330
17
100
AcDbEntity
  8
0
100
AcDbPoint
 10
264.5
 20
29.897509999999983
 30
0.0
  0
POINT
  5
452
330
17
100
AcDbEntity
  8
0
100
AcDbPoint
 10
264.75
 20
29.882900000000006
 30
0.0
  0
POINT
  5
453
330
17
100
AcDbEntity
  8
0
100
AcDbPoint
 10
265.0
 20
29.867829999999998
 30
0.0
  0
POINT
  5
454
330
17
100
AcDbEntity
  8
0
100
AcDbPoint
 10
265.25
 20
29.8523
 30
0.0
  0
POINT
  5
455
330
17
100
AcDbEntity
  8
0
100
AcDbPoint
 10
265.5
 20
29.836299999999994
 30
0.0
  0
POINT
  5
456
330
17
100
AcDbEntity
  8
0
100
AcDbPoint
 10
265.75
 20
29.819810000000004
 30
0.0
  0
POINT
  5
457
330
17
100
AcDbEntity
  8
0
100
AcDbPoint
 10
266.0
 20
29.80285000000002
 30
0.0
  0
POINT
  5
458
330
17
100
AcDbEntity
  8
0
100
AcDbPoint
 10
266.25
 20
29.78539000000002
 30
0.0
  0
POINT
  5
459
330
17
100
AcDbEntity
  8
0
100
AcDbPoint
 10
266.5
 20
29.767430000000004
 30
0.0
  0
POINT
  5
45A
330
17
100
AcDbEntity
  8
0
100
AcDbPoint
 10
266.75
 20
29.748969999999986
 30
0.0
  0
POINT
  5
45B
330
17
100
AcDbEntity
  8
0
100
AcDbPoint
 10
267.0
 20
29.730000000000004
 30
0.0
  0
POINT
  5
45C
330
17
100
AcDbEntity
  8
0
100
AcDbPoint
 10
267.25
 20
29.710520000000002
 30
0.0
  0
POINT
  5
45D
330
17
100
AcDbEntity
  8
0
100
AcDbPoint
 10
267.5
 20
29.690510000000017
 30
0.0
  0
POINT
  5
45E
330
17
100
AcDbEntity
  8
0
100
AcDbPoint
 10
267.75
 20
29.669970000000006
 30
0.0
  0
POINT
  5
45F
330
17
100
AcDbEntity
  8
0
100
AcDbPoint
 10
268.0
 20
29.648899999999983
 30
0.0
  0
POINT
  5
460
330
17
100
AcDbEntity
  8
0
100
AcDbPoint
 10
268.25
 20
29.627289999999988
 30
0.0
  0
POINT
  5
461
330
17
100
AcDbEntity
  8
0
100
AcDbPoint
 10
268.5
 20
29.60512999999999
 30
0.0
  0
POINT
  5
462
330
17
100
AcDbEntity
  8
0
100
AcDbPoint
 10
268.75
 20
29.582429999999988
 30
0.0
  0
POINT
  5
463
330
17
100
AcDbEntity
  8
0
100
AcDbPoint
 10
269.0
 20
29.55915999999999
 30
0.0
  0
POINT
  5
464
330
17
100
AcDbEntity
  8
0
100
AcDbPoint
 10
269.25
 20
29.53533999999999
 30
0.0
  0
POINT
  5
465
330
17
100
AcDbEntity
  8
0
100
AcDbPoint
 10
269.5
 20
29.510949999999994
 30
0.0
  0
POINT
  5
466
330
17
100
AcDbEntity
  8
0
100
AcDbPoint
 10
269.75
 20
29.485980000000012
 30
0.0
  0
POINT
  5
467
330
17
100
AcDbEntity
  8
0
100
AcDbPoint
 10
270.0
 20
29.460440000000006
 30
0.0
  0
POINT
  5
468
330
17
100
AcDbEntity
  8
0
100
AcDbPoint
 10
270.25
 20
29.43432
 30
0.0
  0
POINT
  5
469
330
17
100
AcDbEntity
  8
0
100
AcDbPoint
 10
270.5
 20
29.407610000000005
 30
0.0
  0
POINT
  5
46A
330
17
100
AcDbEntity
  8
0
100
AcDbPoint
 10
270.75
 20
29.380309999999994
 30
0.0
  0
POINT
  5
46B
330
17
100
AcDbEntity
  8
0
100
AcDbPoint
 10
271.0
 20
29.352410000000006
 30
0.0
  0
POINT
  5
46C
330
17
100
AcDbEntity
  8
0
100
AcDbPoint
 10
271.25
 20
29.32392
 30
0.0
  0
POINT
  5
46D
330
17
100
AcDbEntity
  8
0
100
AcDbPoint
 10
271.5
 20
29.29481
 30
0.0
  0
POINT
  5
46E
330
17
100
AcDbEntity
  8
0
100
AcDbPoint
 10
271.75
 20
29.265100000000004
 30
0.0
  0
POINT
  5
46F
330
17
100
AcDbEntity
  8
0
100
AcDbPoint
 10
272.0
 20
29.23478000000003
 30
0.0
  0
POINT
  5
470
330
17
100
AcDbEntity
  8
0
100
AcDbPoint
 10
272.25
 20
29.20384
 30
0.0
  0
POINT
  5
471
330
17
100
AcDbEntity
  8
0
100
AcDbPoint
 10
272.5
 20
29.17228
 30
0.0
  0
POINT
  5
472
330
17
100
AcDbEntity
  8
0
100
AcDbPoint
 10
272.75
 20
29.140089999999987
 30
0.0
  0
POINT
  5
473
330
17
100
AcDbEntity
  8
0
100
AcDbPoint
 10
273.0
 20
29.107280000000003
 30
0.0
  0
POINT
  5
474
330
17
100
AcDbEntity
  8
0
100
AcDbPoint
 10
273.25
 20
29.07383
 30
0.0
  0
POINT
  5
475
330
17
100
AcDbEntity
  8
0
100
AcDbPoint
 10
273.5
 20
29.039749999999998
 30
0.0
  0
POINT
  5
476
330
17
100
AcDbEntity
  8
0
100
AcDbPoint
 10
273.75
 20
29.00502999999999
 30
0.0
  0
POINT
  5
477
330
17
100
AcDbEntity
  8
0
100
AcDbPoint
 10
274.0
 20
28.969679999999997
 30
0.0
  0
POINT
  5
478
330
17
100
AcDbEntity
  8
0
100
AcDbPoint
 10
274.25
 20
28.933670000000006
 30
0.0
  0
POINT
  5
479
330
17
100
AcDbEntity
  8
0
100
AcDbPoint
 10
274.5
 20
28.897019999999998
 30
0.0
  0
POINT
  5
47A
330
17
100
AcDbEntity
  8
0
100
AcDbPoint
 10
274.75
 20
28.85973
 30
0.0
  0
POINT
  5
47B
330
17
100
AcDbEntity
  8
0
100
AcDbPoint
 10
275.0
 20
28.821780000000004
 30
0.0
  0
POINT
  5
47C
330
17
100
AcDbEntity
  8
0
100
AcDbPoint
 10
275.25
 20
28.783170000000013
 30
0.0
  0
POINT
  5
47D
330
17
100
AcDbEntity
  8
0
100
AcDbPoint
 10
275.5
 20
28.74391
 30
0.0
  0
POINT
  5
47E
330
17
100
AcDbEntity
  8
0
100
AcDbPoint
 10
275.75
 20
28.704000000000008
 30
0.0
  0
POINT
  5
47F
330
17
100
AcDbEntity
  8
0
100
AcDbPoint
 10
276.0
 20
28.663420000000002
 30
0.0
  0
POINT
  5
480
330
17
100
AcDbEntity
  8
0
100
AcDbPoint
 10
276.25
 20
28.622179999999986
 30
0.0
  0
POINT
  5
481
330
17
100
AcDbEntity
  8
0
100
AcDbPoint
 10
276.5
 20
28.580270000000013
 30
0.0
  0
POINT
  5
482
330
17
100
AcDbEntity
  8
0
100
AcDbPoint
 10
276.75
 20
28.5377
 30
0.0
  0
POINT
  5
483
330
17
100
AcDbEntity
  8
0
100
AcDbPoint
 10
277.0
 20
28.494470000000007
 30
0.0
  0
POINT
  5
484
330
17
100
AcDbEntity
  8
0
100
AcDbPoint
 10
277.25
 20
28.450559999999996
 30
0.0
  0
POINT
  5
485
330
17
100
AcDbEntity
  8
0
100
AcDbPoint
 10
277.5
 20
28.405990000000003
 30
0.0
  0
POINT
  5
486
330
17
100
AcDbEntity
  8
0
100
AcDbPoint
 10
277.75
 20
28.360749999999996
 30
0.0
  0
POINT
  5
487
330
17
100
AcDbEntity
  8
0
100
AcDbPoint
 10
278.0
 20
28.31483
 30
0.0
  0
POINT
  5
488
330
17
100
AcDbEntity
  8
0
100
AcDbPoint
 10
278.25
 20
28.268249999999995
 30
0.0
  0
POINT
  5
489
330
17
100
AcDbEntity
  8
0
100
AcDbPoint
 10
278.5
 20
28.220990000000015
 30
0.0
  0
POINT
  5
48A
330
17
100
AcDbEntity
  8
0
100
AcDbPoint
 10
278.75
 20
28.173060000000007
 30
0.0
  0
POINT
  5
48B
330
17
100
AcDbEntity
  8
0
100
AcDbPoint
 10
279.0
 20
28.124449999999996
 30
0.0
  0
POINT
  5
48C
330
17
100
AcDbEntity
  8
0
100
AcDbPoint
 10
279.25
 20
28.07517
 30
0.0
  0
POINT
  5
48D
330
17
100
AcDbEntity
  8
0
100
AcDbPoint
 10
279.5
 20
28.025220000000004
 30
0.0
  0
POINT
  5
48E
330
17
100
AcDbEntity
  8
0
100
AcDbPoint
 10
279.75
 20
27.97460000000001
 30
0.0
  0
POINT
  5
48F
330
17
100
AcDbEntity
  8
0
100
AcDbPoint
 10
280.0
 20
27.923299999999998
 30
0.0
  0
POINT
  5
490
330
17
100
AcDbEntity
  8
0
100
AcDbPoint
 10
280.25
 20
27.871330000000015
 30
0.0
  0
POINT
  5
491
330
17
100
AcDbEntity
  8
0
100
AcDbPoint
 10
280.5
 20
27.818690000000018
 30
0.0
  0
POINT
  5
492
330
17
100
AcDbEntity
  8
0
100
AcDbPoint
 10
280.75
 20
27.765380000000007
 30
0.0
  0
POINT
  5
493
330
17
100
AcDbEntity
  8
0
100
AcDbPoint
 10
281.0
 20
27.711399999999998
 30
0.0
  0
POINT
  5
494
330
17
100
AcDbEntity
  8
0
100
AcDbPoint
 10
281.25
 20
27.656740000000013
 30
0.0
  0
POINT
  5
495
330
17
100
AcDbEntity
  8
0
100
AcDbPoint
 10
281.5
 20
27.60142000000002
 30
0.0
  0
POINT
  5
496
330
17
100
AcDbEntity
  8
0
100
AcDbPoint
 10
281.75
 20
27.545429999999982
 30
0.0
  0
POINT
  5
497
330
17
100
AcDbEntity
  8
0
100
AcDbPoint
 10
282.0
 20
27.488780000000006
 30
0.0
  0
POINT
  5
498
330
17
100
AcDbEntity
  8
0
100
AcDbPoint
 10
282.25
 20
27.43146
 30
0.0
  0
POINT
  5
499
330
17
100
AcDbEntity
  8
0
100
AcDbPoint
 10
282.5
 20
27.37348
 30
0.0
  0
POINT
  5
49A
330
17
100
AcDbEntity
  8
0
100
AcDbPoint
 10
282.75
 20
27.31483
 30
0.0
  0
POINT
  5
49B
330
17
100
AcDbEntity
  8
0
100
AcDbPoint
 10
283.0
 20
27.255530000000007
 30
0.0
  0
POINT
  5
49C
330
17
100
AcDbEntity
  8
0
100
AcDbPoint
 10
283.25
 20
27.195570000000004
 30
0.0
  0
POINT
  5
49D
330
17
100
AcDbEntity
  8
0
100
AcDbPoint
 10
283.5
 20
27.134950000000003
 30
0.0
  0
POINT
  5
49E
330
17
100
AcDbEntity
  8
0
100
AcDbPoint
 10
283.75
 20
27.073679999999996
 30
0.0
  0
POINT
  5
49F
330
17
100
AcDbEntity
  8
0
100
AcDbPoint
 10
284.0
 20
27.011750000000006
 30
0.0
  0
POINT
  5
4A0
330
17
100
AcDbEntity
  8
0
100
AcDbPoint
 10
284.25
 20
26.949180000000013
 30
0.0
  0
POINT
  5
4A1
330
17
100
AcDbEntity
  8
0
100
AcDbPoint
 10
284.5
 20
26.88597
 30
0.0
  0
POINT
  5
4A2
330
17
100
AcDbEntity
  8
0
100
AcDbPoint
 10
284.75
 20
26.822099999999992
 30
0.0
  0
POINT
  5
4A3
330
17
100
AcDbEntity
  8
0
100
AcDbPoint
 10
285.0
 20
26.757599999999996
 30
0.0
  0
POINT
  5
4A4
330
17
100
AcDbEntity
  8
0
100
AcDbPoint
 10
285.25
 20
26.692459999999997
 30
0.0
  0
POINT
  5
4A5
330
17
100
AcDbEntity
  8
0
100
AcDbPoint
 10
285.5
 20
26.626689999999996
 30
0.0
  0
POINT
  5
4A6
330
17
100
AcDbEntity
  8
0
100
AcDbPoint
 10
285.75
 20
26.56027999999999
 30
0.0
  0
POINT
  5
4A7
330
17
100
AcDbEntity
  8
0
100
AcDbPoint
 10
286.0
 20
26.493250000000003
 30
0.0
  0
POINT
  5
4A8
330
17
100
AcDbEntity
  8
0
100
AcDbPoint
 10
286.25
 20
26.425589999999985
 30
0.0
  0
POINT
  5
4A9
330
17
100
AcDbEntity
  8
0
100
AcDbPoint
 10
286.5
 20
26.35731
 30
0.0
  0
POINT
  5
4AA
330
17
100
AcDbEntity
  8
0
100
AcDbPoint
 10
286.75
 20
26.28841
 30
0.0
  0
POINT
  5
4AB
330
17
100
AcDbEntity
  8
0
100
AcDbPoint
 10
287.0
 20
26.218890000000002
 30
0.0
  0
POINT
  5
4AC
330
17
100
AcDbEntity
  8
0
100
AcDbPoint
 10
287.25
 20
26.148770000000013
 30
0.0
  0
POINT
  5
4AD
330
17
100
AcDbEntity
  8
0
100
AcDbPoint
 10
287.5
 20
26.07804
 30
0.0
  0
POINT
  5
4AE
330
17
100
AcDbEntity
  8
0
100
AcDbPoint
 10
287.75
 20
26.006699999999995
 30
0.0
  0
POINT
  5
4AF
330
17
100
AcDbEntity
  8
0
100
AcDbPoint
 10
288.0
 20
25.93477
 30
0.0
  0
POINT
  5
4B0
330
17
100
AcDbEntity
  8
0
100
AcDbPoint
 10
288.25
 20
25.86224
 30
0.0
  0
POINT
  5
4B1
330
17
100
AcDbEntity
  8
0
100
AcDbPoint
 10
288.5
 20
25.78912000000001
 30
0.0
  0
POINT
  5
4B2
330
17
100
AcDbEntity
  8
0
100
AcDbPoint
 10
288.75
 20
25.715419999999995
 30
0.0
  0
POINT
  5
4B3
330
17
100
AcDbEntity
  8
0
100
AcDbPoint
 10
289.0
 20
25.641130000000004
 30
0.0
  0
POINT
  5
4B4
330
17
100
AcDbEntity
  8
0
100
AcDbPoint
 10
289.25
 20
25.566270000000003
 30
0.0
  0
POINT
  5
4B5
330
17
100
AcDbEntity
  8
0
100
AcDbPoint
 10
289.5
 20
25.49082999999999
 30
0.0
  0
POINT
  5
4B6
330
17
100
AcDbEntity
  8
0
100
AcDbPoint
 10
289.75
 20
25.414829999999995
 30
0.0
  0
POINT
  5
4B7
330
17
100
AcDbEntity
  8
0
100
AcDbPoint
 10
290.0
 20
25.338260000000005
 30
0.0
  0
POINT
  5
4B8
330
17
100
AcDbEntity
  8
0
100
AcDbPoint
 10
290.25
 20
25.261139999999997
 30
0.0
  0
POINT
  5
4B9
330
17
100
AcDbEntity
  8
0
100
AcDbPoint
 10
290.5
 20
25.183459999999982
 30
0.0
  0
POINT
  5
4BA
330
17
100
AcDbEntity
  8
0
100
AcDbPoint
 10
290.75
 20
25.105230000000006
 30
0.0
  0
POINT
  5
4BB
330
17
100
AcDbEntity
  8
0
100
AcDbPoint
 10
291.0
 20
25.02646
 30
0.0
  0
POINT
  5
4BC
330
17
100
AcDbEntity
  8
0
100
AcDbPoint
 10
291.25
 20
24.947159999999982
 30
0.0
  0
POINT
  5
4BD
330
17
100
AcDbEntity
  8
0
100
AcDbPoint
 10
291.5
 20
24.865520000000004
 30
0.0
  0
POINT
  5
4BE
330
17
100
AcDbEntity
  8
0
100
AcDbPoint
 10
291.75
 20
24.78695000000002
 30
0.0
  0
POINT
  5
4BF
330
17
100
AcDbEntity
  8
0
100
AcDbPoint
 10
292.0
 20
24.706059999999994
 30
0.0
  0
POINT
  5
4C0
330
17
100
AcDbEntity
  8
0
100
AcDbPoint
 10
292.25
 20
24.624660000000006
 30
0.0
  0
POINT
  5
4C1
330
17
100
AcDbEntity
  8
0
100
AcDbPoint
 10
292.5
 20
24.542739999999995
 30
0.0
  0
POINT
  5
4C2
330
17
100
AcDbEntity
  8
0
100
AcDbPoint
 10
292.75
 20
24.460319999999996
 30
0.0
  0
POINT
  5
4C3
330
17
100
AcDbEntity
  8
0
100
AcDbPoint
 10
293.0
 20
24.37739999999998
 30
0.0
  0
POINT
  5
4C4
330
17
100
AcDbEntity
  8
0
100
AcDbPoint
 10
293.25
 20
24.293990000000008
 30
0.0
  0
POINT
  5
4C5
330
17
100
AcDbEntity
  8
0
100
AcDbPoint
 10
293.5
 20
24.210090000000022
 30
0.0
  0
POINT
  5
4C6
330
17
100
AcDbEntity
  8
0
100
AcDbPoint
 10
293.75
 20
24.125699999999995
 30
0.0
  0
POINT
  5
4C7
330
17
100
AcDbEntity
  8
0
100
AcDbPoint
 10
294.0
 20
24.040840000000003
 30
0.0
  0
POINT
  5
4C8
330
17
100
AcDbEntity
  8
0
100
AcDbPoint
 10
294.25
 20
23.955510000000004
 30
0.0
  0
POINT
  5
4C9
330
17
100
AcDbEntity
  8
0
100
AcDbPoint
 10
294.5
 20
23.86972
 30
0.0
  0
POINT
  5
4CA
330
17
100
AcDbEntity
  8
0
100
AcDbPoint
 10
294.75
 20
23.783469999999994
 30
0.0
  0
POINT
  5
4CB
330
17
100
AcDbEntity
  8
0
100
AcDbPoint
 10
295.0
 20
23.696759999999983
 30
0.0
  0
POINT
  5
4CC
330
17
100
AcDbEntity
  8
0
100
AcDbPoint
 10
295.25
 20
23.609610000000018
 30
0.0
  0
POINT
  5
4CD
330
17
100
AcDbEntity
  8
0
100
AcDbPoint
 10
295.5
 20
23.522019999999998
 30
0.0
  0
POINT
  5
4CE
330
17
100
AcDbEntity
  8
0
100
AcDbPoint
 10
295.75
 20
23.43400000000001
 30
0.0
  0
POINT
  5
4CF
330
17
100
AcDbEntity
  8
0
100
AcDbPoint
 10
296.0
 20
23.345540000000014
 30
0.0
  0
POINT
  5
4D0
330
17
100
AcDbEntity
  8
0
100
AcDbPoint
 10
296.25
 20
23.25667
 30
0.0
  0
POINT
  5
4D1
330
17
100
AcDbEntity
  8
0
100
AcDbPoint
 10
296.5
 20
23.16738000000001
 30
0.0
  0
POINT
  5
4D2
330
17
100
AcDbEntity
  8
0
100
AcDbPoint
 10
296.75
 20
23.07768999999999
 30
0.0
  0
POINT
  5
4D3
330
17
100
AcDbEntity
  8
0
100
AcDbPoint
 10
297.0
 20
22.98759000000001
 30
0.0
  0
POINT
  5
4D4
330
17
100
AcDbEntity
  8
0
100
AcDbPoint
 10
297.25
 20
22.897099999999995
 30
0.0
  0
POINT
  5
4D5
330
17
100
AcDbEntity
  8
0
100
AcDbPoint
 10
297.5
 20
22.80621000000002
 30
0.0
  0
POINT
  5
4D6
330
17
100
AcDbEntity
  8
0
100
AcDbPoint
 10
297.75
 20
22.71495
 30
0.0
  0
POINT
  5
4D7
330
17
100
AcDbEntity
  8
0
100
AcDbPoint
 10
298.0
 20
22.623310000000004
 30
0.0
  0
POINT
  5
4D8
330
17
100
AcDbEntity
  8
0
100
AcDbPoint
 10
298.25
 20
22.5313
 30
0.0
  0
POINT
  5
4D9
330
17
100
AcDbEntity
  8
0
100
AcDbPoint
 10
298.5
 20
22.438919999999996
 30
0.0
  0
POINT
  5
4DA
330
17
100
AcDbEntity
  8
0
100
AcDbPoint
 10
298.75
 20
22.346190000000007
 30
0.0
  0
POINT
  5
4DB
330
17
100
AcDbEntity
  8
0
100
AcDbPoint
 10
299.0
 20
22.25311999999998
 30
0.0
  0
POINT
  5
4DC
330
17
100
AcDbEntity
  8
0
100
AcDbPoint
 10
299.25
 20
22.159689999999998
 30
0.0
  0
POINT
  5
4DD
330
17
100
AcDbEntity
  8
0
100
AcDbPoint
 10
299.5
 20
22.06592999999998
 30
0.0
  0
POINT
  5
4DE
330
17
100
AcDbEntity
  8
0
100
AcDbPoint
 10
299.75
 20
21.971850000000003
 30
0.0
  0
POINT
  5
4DF
330
17
100
AcDbEntity
  8
0
100
AcDbPoint
 10
300.0
 20
21.877440000000007
 30
0.0
  0
POINT
  5
4E0
330
17
100
AcDbEntity
  8
0
100
AcDbPoint
 10
300.25
 20
21.782709999999994
 30
0.0
  0
POINT
  5
4E1
330
17
100
AcDbEntity
  8
0
100
AcDbPoint
 10
300.5
 20
21.68767000000001
 30
0.0
  0
POINT
  5
4E2
330
17
100
AcDbEntity
  8
0
100
AcDbPoint
 10
300.75
 20
21.592330000000004
 30
0.0
  0
POINT
  5
4E3
330
17
100
AcDbEntity
  8
0
100
AcDbPoint
 10
301.0
 20
21.496689999999987
 30
0.0
  0
POINT
  5
4E4
330
17
100
AcDbEntity
  8
0
100
AcDbPoint
 10
301.25
 20
21.40076999999998
 30
0.0
  0
POINT
  5
4E5
330
17
100
AcDbEntity
  8
0
100
AcDbPoint
 10
301.5
 20
21.304559999999995
 30
0.0
  0
POINT
  5
4E6
330
17
100
AcDbEntity
  8
0
100
AcDbPoint
 10
301.75
 20
21.208070000000006
 30
0.0
  0
POINT
  5
4E7
330
17
100
AcDbEntity
  8
0
100
AcDbPoint
 10
302.0
 20
21.11132000000002
 30
0.0
  0
POINT
  5
4E8
330
17
100
AcDbEntity
  8
0
100
AcDbPoint
 10
302.25
 20
21.014300000000006
 30
0.0
  0
POINT
  5
4E9
330
17
100
AcDbEntity
  8
0
100
AcDbPoint
 10
302.5
 20
20.917029999999983
 30
0.0
  0
POINT
  5
4EA
330
17
100
AcDbEntity
  8
0
100
AcDbPoint
 10
302.75
 20
20.819509999999994
 30
0.0
  0
POINT
  5
4EB
330
17
100
AcDbEntity
  8
0
100
AcDbPoint
 10
303.0
 20
20.721739999999997
 30
0.0
  0
POINT
  5
4EC
330
17
100
AcDbEntity
  8
0
100
AcDbPoint
 10
303.25
 20
20.623739999999998
 30
0.0
  0
POINT
  5
4ED
330
17
100
AcDbEntity
  8
0
100
AcDbPoint
 10
303.5
 20
20.525509999999997
 30
0.0
  0
POINT
  5
4EE
330
17
100
AcDbEntity
  8
0
100
AcDbPoint
 10
303.75
 20
20.427059999999997
 30
0.0
  0
POINT
  5
4EF
330
17
100
AcDbEntity
  8
0
100
AcDbPoint
 10
304.0
 20
20.32839
 30
0.0
  0
POINT
  5
4F0
330
17
100
AcDbEntity
  8
0
100
AcDbPoint
 10
304.25
 20
20.22950999999999
 30
0.0
  0
POINT
  5
4F1
330
17
100
AcDbEntity
  8
0
100
AcDbPoint
 10
304.5
 20
20.130430000000004
 30
0.0
  0
POINT
  5
4F2
330
17
100
AcDbEntity
  8
0
100
AcDbPoint
 10
304.75
 20
20.03116
 30
0.0
  0
POINT
  5
4F3
330
17
100
AcDbEntity
  8
0
100
AcDbPoint
 10
305.0
 20
19.931690000000003
 30
0.0
  0
POINT
  5
4F4
330
17
100
AcDbEntity
  8
0
100
AcDbPoint
 10
305.25
 20
19.83204000000002
 30
0.0
  0
POINT
  5
4F5
330
17
100
AcDbEntity
  8
0
100
AcDbPoint
 10
305.5
 20
19.732220000000012
 30
0.0
  0
POINT
  5
4F6
330
17
100
AcDbEntity
  8
0
100
AcDbPoint
 10
305.75
 20
19.632230000000007
 30
0.0
  0
POINT
  5
4F7
330
17
100
AcDbEntity
  8
0
100
AcDbPoint
 10
306.0
 20
19.532070000000004
 30
0.0
  0
POINT
  5
4F8
330
17
100
AcDbEntity
  8
0
100
AcDbPoint
 10
306.25
 20
19.431759999999997
 30
0.0
  0
POINT
  5
4F9
330
17
100
AcDbEntity
  8
0
100
AcDbPoint
 10
306.5
 20
19.3313
 30
0.0
  0
POINT
  5
4FA
330
17
100
AcDbEntity
  8
0
100
AcDbPoint
 10
306.75
 20
19.23069000000001
 30
0.0
  0
POINT
  5
4FB
330
17
100
AcDbEntity
  8
0
100
AcDbPoint
 10
307.0
 20
19.129950000000008
 30
0.0
  0
POINT
  5
4FC
330
17
100
AcDbEntity
  8
0
100
AcDbPoint
 10
307.25
 20
19.029080000000008
 30
0.0
  0
POINT
  5
4FD
330
17
100
AcDbEntity
  8
0
100
AcDbPoint
 10
307.5
 20
18.92807999999998
 30
0.0
  0
POINT
  5
4FE
330
17
100
AcDbEntity
  8
0
100
AcDbPoint
 10
307.75
 20
18.82696
 30
0.0
  0
POINT
  5
4FF
330
17
100
AcDbEntity
  8
0
100
AcDbPoint
 10
308.0
 20
18.725740000000002
 30
0.0
  0
POINT
  5
500
330
17
100
AcDbEntity
  8
0
100
AcDbPoint
 10
308.25
 20
18.624409999999983
 30
0.0
  0
POINT
  5
501
330
17
100
AcDbEntity
  8
0
100
AcDbPoint
 10
308.5
 20
18.522980000000018
 30
0.0
  0
POINT
  5
502
330
17
100
AcDbEntity
  8
0
100
AcDbPoint
 10
308.75
 20
18.421459999999996
 30
0.0
  0
POINT
  5
503
330
17
100
AcDbEntity
  8
0
100
AcDbPoint
 10
309.0
 20
18.319850000000002
 30
0.0
  0
POINT
  5
504
330
17
100
AcDbEntity
  8
0
100
AcDbPoint
 10
309.25
 20
18.218159999999997
 30
0.0
  0
POINT
  5
505
330
17
100
AcDbEntity
  8
0
100
AcDbPoint
 10
309.5
 20
18.1164
 30
0.0
  0
POINT
  5
506
330
17
100
AcDbEntity
  8
0
100
AcDbPoint
 10
309.75
 20
18.014570000000006
 30
0.0
  0
POINT
  5
507
330
17
100
AcDbEntity
  8
0
100
AcDbPoint
 10
310.0
 20
17.912679999999995
 30
0.0
  0
POINT
  5
508
330
17
100
AcDbEntity
  8
0
100
AcDbPoint
 10
310.25
 20
17.810739999999996
 30
0.0
  0
POINT
  5
509
330
17
100
AcDbEntity
  8
0
100
AcDbPoint
 10
310.5
 20
17.70875000000001
 30
0.0
  0
POINT
  5
50A
330
17
100
AcDbEntity
  8
0
100
AcDbPoint
 10
310.75
 20
17.606710000000007
 30
0.0
  0
POINT
  5
50B
330
17
100
AcDbEntity
  8
0
100
AcDbPoint
 10
311.0
 20
17.50462999999999
 30
0.0
  0
POINT
  5
50C
330
17
100
AcDbEntity
  8
0
100
AcDbPoint
 10
311.25
 20
17.402530000000013
 30
0.0
  0
POINT
  5
50D
330
17
100
AcDbEntity
  8
0
100
AcDbPoint
 10
311.5
 20
17.300399999999996
 30
0.0
  0
POINT
  5
50E
330
17
100
AcDbEntity
  8
0
100
AcDbPoint
 10
311.75
 20
17.19825
 30
0.0
  0
POINT
  5
50F
330
17
100
AcDbEntity
  8
0
100
AcDbPoint
 10
312.0
 20
17.09608
 30
0.0
  0
POINT
  5
510
330
17
100
AcDbEntity
  8
0
100
AcDbPoint
 10
312.25
 20
16.99391
 30
0.0
  0
POINT
  5
511
330
17
100
AcDbEntity
  8
0
100
AcDbPoint
 10
312.5
 20
16.89174
 30
0.0
  0
POINT
  5
512
330
17
100
AcDbEntity
  8
0
100
AcDbPoint
 10
312.75
 20
16.789569999999998
 30
0.0
  0
POINT
  5
513
330
17
100
AcDbEntity
  8
0
100
AcDbPoint
 10
313.0
 20
16.68741
 30
0.0
  0
POINT
  5
514
330
17
100
AcDbEntity
  8
0
100
AcDbPoint
 10
313.25
 20
16.585260000000005
 30
0.0
  0
POINT
  5
515
330
17
100
AcDbEntity
  8
0
100
AcDbPoint
 10
313.5
 20
16.483140000000006
 30
0.0
  0
POINT
  5
516
330
17
100
AcDbEntity
  8
0
100
AcDbPoint
 10
313.75
 20
16.38104
 30
0.0
  0
POINT
  5
517
330
17
100
AcDbEntity
  8
0
100
AcDbPoint
 10
314.0
 20
16.27897
 30
0.0
  0
POINT
  5
518
330
17
100
AcDbEntity
  8
0
100
AcDbPoint
 10
314.25
 20
16.176940000000002
 30
0.0
  0
POINT
  5
519
330
17
100
AcDbEntity
  8
0
100
AcDbPoint
 10
314.5
 20
16.07496000000002
 30
0.0
  0
POINT
  5
51A
330
17
100
AcDbEntity
  8
0
100
AcDbPoint
 10
314.75
 20
15.973020000000005
 30
0.0
  0
POINT
  5
51B
330
17
100
AcDbEntity
  8
0
100
AcDbPoint
 10
315.0
 20
15.871139999999997
 30
0.0
  0
POINT
  5
51C
330
17
100
AcDbEntity
  8
0
100
AcDbPoint
 10
315.25
 20
15.769310000000004
 30
0.0
  0
POINT
  5
51D
330
17
100
AcDbEntity
  8
0
100
AcDbPoint
 10
315.5
 20
15.667549999999991
 30
0.0
  0
POINT
  5
51E
330
17
100
AcDbEntity
  8
0
100
AcDbPoint
 10
315.75
 20
15.565859999999986
 30
0.0
  0
POINT
  5
51F
330
17
100
AcDbEntity
  8
0
100
AcDbPoint
 10
316.0
 20
15.46423999999999
 30
0.0
  0
POINT
  5
520
330
17
100
AcDbEntity
  8
0
100
AcDbPoint
 10
316.25
 20
15.362700000000018
 30
0.0
  0
POINT
  5
521
330
17
100
AcDbEntity
  8
0
100
AcDbPoint
 10
316.5
 20
15.261250000000004
 30
0.0
  0
POINT
  5
522
330
17
100
AcDbEntity
  8
0
100
AcDbPoint
 10
316.75
 20
15.159880000000001
 30
0.0
  0
POINT
  5
523
330
17
100
AcDbEntity
  8
0
100
AcDbPoint
 10
317.0
 20
15.058620000000005
 30
0.0
  0
POINT
  5
524
330
17
100
AcDbEntity
  8
0
100
AcDbPoint
 10
317.25
 20
14.957449999999994
 30
0.0
  0
POINT
  5
525
330
17
100
AcDbEntity
  8
0
100
AcDbPoint
 10
317.5
 20
14.856380000000001
 30
0.0
  0
POINT
  5
526
330
17
100
AcDbEntity
  8
0
100
AcDbPoint
 10
317.75
 20
14.755430000000018
 30
0.0
  0
POINT
  5
527
330
17
100
AcDbEntity
  8
0
100
AcDbPoint
 10
318.0
 20
14.654589999999999
 30
0.0
  0
POINT
  5
528
330
17
100
AcDbEntity
  8
0
100
AcDbPoint
 10
318.25
 20
14.553870000000018
 30
0.0
  0
POINT
  5
529
330
17
100
AcDbEntity
  8
0
100
AcDbPoint
 10
318.49999999999994
 20
14.453270000000003
 30
0.0
  0
POINT
  5
52A
330
17
100
AcDbEntity
  8
0
100
AcDbPoint
 10
318.75
 20
14.352810000000005
 30
0.0
  0
POINT
  5
52B
330
17
100
AcDbEntity
  8
0
100
AcDbPoint
 10
319.0
 20
14.252470000000002
 30
0.0
  0
POINT
  5
52C
330
17
100
AcDbEntity
  8
0
100
AcDbPoint
 10
319.25
 20
14.152280000000005
 30
0.0
  0
POINT
  5
52D
330
17
100
AcDbEntity
  8
0
100
AcDbPoint
 10
319.5
 20
14.052229999999994
 30
0.0
  0
POINT
  5
52E
330
17
100
AcDbEntity
  8
0
100
AcDbPoint
 10
319.75
 20
13.95232
 30
0.0
  0
POINT
  5
52F
330
17
100
AcDbEntity
  8
0
100
AcDbPoint
 10
320.0
 20
13.85257
 30
0.0
  0
POINT
  5
530
330
17
100
AcDbEntity
  8
0
100
AcDbPoint
 10
320.25
 20
13.752970000000005
 30
0.0
  0
POINT
  5
531
330
17
100
AcDbEntity
  8
0
100
AcDbPoint
 10
320.5
 20
13.653530000000018
 30
0.0
  0
POINT
  5
532
330
17
100
AcDbEntity
  8
0
100
AcDbPoint
 10
320.75
 20
13.554260000000014
 30
0.0
  0
POINT
  5
533
330
17
100
AcDbEntity
  8
0
100
AcDbPoint
 10
321.0
 20
13.45516000000002
 30
0.0
  0
POINT
  5
534
330
17
100
AcDbEntity
  8
0
100
AcDbPoint
 10
321.25
 20
13.356229999999996
 30
0.0
  0
POINT
  5
535
330
17
100
AcDbEntity
  8
0
100
AcDbPoint
 10
321.5
 20
13.257480000000001
 30
0.0
  0
POINT
  5
536
330
17
100
AcDbEntity
  8
0
100
AcDbPoint
 10
321.75
 20
13.158910000000006
 30
0.0
  0
POINT
  5
537
330
17
100
AcDbEntity
  8
0
100
AcDbPoint
 10
322.0
 20
13.060519999999997
 30
0.0
  0
POINT
  5
538
330
17
100
AcDbEntity
  8
0
100
AcDbPoint
 10
322.25
 20
12.962329999999994
 30
0.0
  0
POINT
  5
539
330
17
100
AcDbEntity
  8
0
100
AcDbPoint
 10
322.5
 20
12.864329999999995
 30
0.0
  0
POINT
  5
53A
330
17
100
AcDbEntity
  8
0
100
AcDbPoint
 10
322.75
 20
12.766530000000003
 30
0.0
  0
POINT
  5
53B
330
17
100
AcDbEntity
  8
0
100
AcDbPoint
 10
323.0
 20
12.668930000000003
 30
0.0
  0
POINT
  5
53C
330
17
100
AcDbEntity
  8
0
100
AcDbPoint
 10
323.25
 20
12.571540000000013
 30
0.0
  0
POINT
  5
53D
330
17
100
AcDbEntity
  8
0
100
AcDbPoint
 10
323.5
 20
12.474360000000004
 30
0.0
  0
POINT
  5
53E
330
17
100
AcDbEntity
  8
0
100
AcDbPoint
 10
323.75
 20
12.377390000000005
 30
0.0
  0
POINT
  5
53F
330
17
100
AcDbEntity
  8
0
100
AcDbPoint
 10
324.0
 20
12.280639999999991
 30
0.0
  0
POINT
  5
540
330
17
100
AcDbEntity
  8
0
100
AcDbPoint
 10
324.25
 20
12.184110000000004
 30
0.0
  0
POINT
  5
541
330
17
100
AcDbEntity
  8
0
100
AcDbPoint
 10
324.5
 20
12.087800000000001
 30
0.0
  0
POINT
  5
542
330
17
100
AcDbEntity
  8
0
100
AcDbPoint
 10
324.75
 20
11.991719999999987
 30
0.0
  0
POINT
  5
543
330
17
100
AcDbEntity
  8
0
100
AcDbPoint
 10
325.0
 20
11.895880000000005
 30
0.0
  0
POINT
  5
544
330
17
100
AcDbEntity
  8
0
100
AcDbPoint
 10
325.25
 20
11.800269999999998
 30
0.0
  0
POINT
  5
545
330
17
100
AcDbEntity
  8
0
100
AcDbPoint
 10
325.5
 20
11.70489999999998
 30
0.0
  0
POINT
  5
546
330
17
100
AcDbEntity
  8
0
100
AcDbPoint
 10
325.75
 20
11.60978
 30
0.0
  0
POINT
  5
547
330
17
100
AcDbEntity
  8
0
100
AcDbPoint
 10
326.0
 20
11.514899999999997
 30
0.0
  0
POINT
  5
548
330
17
100
AcDbEntity
  8
0
100
AcDbPoint
 10
326.25
 20
11.420270000000002
 30
0.0
  0
POINT
  5
549
330
17
100
AcDbEntity
  8
0
100
AcDbPoint
 10
326.5
 20
11.325890000000001
 30
0.0
  0
POINT
  5
54A
330
17
100
AcDbEntity
  8
0
100
AcDbPoint
 10
326.75
 20
11.231769999999997
 30
0.0
  0
POINT
  5
54B
330
17
100
AcDbEntity
  8
0
100
AcDbPoint
 10
327.0
 20
11.137910000000005
 30
0.0
  0
POINT
  5
54C
330
17
100
AcDbEntity
  8
0
100
AcDbPoint
 10
327.25
 20
11.044319999999999
 30
0.0
  0
POINT
  5
54D
330
17
100
AcDbEntity
  8
0
100
AcDbPoint
 10
327.5
 20
10.950990000000019
 30
0.0
  0
POINT
  5
54E
330
17
100
AcDbEntity
  8
0
100
AcDbPoint
 10
327.75
 20
10.857929999999982
 30
0.0
  0
POINT
  5
54F
330
17
100
AcDbEntity
  8
0
100
AcDbPoint
 10
328.0
 20
10.765140000000002
 30
0.0
  0
POINT
  5
550
330
17
100
AcDbEntity
  8
0
100
AcDbPoint
 10
328.25
 20
10.672619999999995
 30
0.0
  0
POINT
  5
551
330
17
100
AcDbEntity
  8
0
100
AcDbPoint
 10
328.5
 20
10.580389999999994
 30
0.0
  0
POINT
  5
552
330
17
100
AcDbEntity
  8
0
100
AcDbPoint
 10
328.75
 20
10.488439999999997
 30
0.0
  0
POINT
  5
553
330
17
100
AcDbEntity
  8
0
100
AcDbPoint
 10
329.0
 20
10.396770000000018
 30
0.0
  0
POINT
  5
554
330
17
100
AcDbEntity
  8
0
100
AcDbPoint
 10
329.25
 20
10.305390000000003
 30
0.0
  0
POINT
  5
555
330
17
100
AcDbEntity
  8
0
100
AcDbPoint
 10
329.5
 20
10.214299999999994
 30
0.0
  0
POINT
  5
556
330
17
100
AcDbEntity
  8
0
100
AcDbPoint
 10
329.75
 20
10.123499999999993
 30
0.0
  0
POINT
  5
557
330
17
100
AcDbEntity
  8
0
100
AcDbPoint
 10
330.0
 20
10.033010000000004
 30
0.0
  0
POINT
  5
558
330
17
100
AcDbEntity
  8
0
100
AcDbPoint
 10
330.25
 20
9.942800000000005
 30
0.0
  0
POINT
  5
559
330
17
100
AcDbEntity
  8
0
100
AcDbPoint
 10
330.5
 20
9.85290999999998
 30
0.0
  0
POINT
  5
55A
330
17
100
AcDbEntity
  8
0
100
AcDbPoint
 10
330.74999999999994
 20
9.763310000000004
 30
0.0
  0
POINT
  5
55B
330
17
100
AcDbEntity
  8
0
100
AcDbPoint
 10
331.0
 20
9.674020000000013
 30
0.0
  0
POINT
  5
55C
330
17
100
AcDbEntity
  8
0
100
AcDbPoint
 10
331.25
 20
9.585049999999995
 30
0.0
  0
POINT
  5
55D
330
17
100
AcDbEntity
  8
0
100
AcDbPoint
 10
331.5
 20
9.496380000000002
 30
0.0
  0
POINT
  5
55E
330
17
100
AcDbEntity
  8
0
100
AcDbPoint
 10
331.75
 20
9.408029999999997
 30
0.0
  0
POINT
  5
55F
330
17
100
AcDbEntity
  8
0
100
AcDbPoint
 10
332.0
 20
9.320000000000007
 30
0.0
  0
POINT
  5
560
330
17
100
AcDbEntity
  8
0
100
AcDbPoint
 10
332.25
 20
9.232290000000006
 30
0.0
  0
POINT
  5
561
330
17
100
AcDbEntity
  8
0
100
AcDbPoint
 10
332.5
 20
9.144900000000007
 30
0.0
  0
POINT
  5
562
330
17
100
AcDbEntity
  8
0
100
AcDbPoint
 10
332.75
 20
9.057840000000013
 30
0.0
  0
POINT
  5
563
330
17
100
AcDbEntity
  8
0
100
AcDbPoint
 10
333.0
 20
8.971100000000007
 30
0.0
  0
POINT
  5
564
330
17
100
AcDbEntity
  8
0
100
AcDbPoint
 10
333.25
 20
8.884689999999992
 30
0.0
  0
POINT
  5
565
330
17
100
AcDbEntity
  8
0
100
AcDbPoint
 10
333.5
 20
8.79862
 30
0.0
  0
POINT
  5
566
330
17
100
AcDbEntity
  8
0
100
AcDbPoint
 10
333.75
 20
8.712879999999998
 30
0.0
  0
POINT
  5
567
330
17
100
AcDbEntity
  8
0
100
AcDbPoint
 10
334.0
 20
8.627470000000002
 30
0.0
  0
POINT
  5
568
330
17
100
AcDbEntity
  8
0
100
AcDbPoint
 10
334.25
 20
8.542410000000004
 30
0.0
  0
POINT
  5
569
330
17
100
AcDbEntity
  8
0
100
AcDbPoint
 10
334.5
 20
8.457679999999996
 30
0.0
  0
POINT
  5
56A
330
17
100
AcDbEntity
  8
0
100
AcDbPoint
 10
334.75
 20
8.373300000000015
 30
0.0
  0
POINT
  5
56B
330
17
100
AcDbEntity
  8
0
100
AcDbPoint
 10
335.0
 20
8.289240000000007
 30
0.0
  0
POINT
  5
56C
330
17
100
AcDbEntity
  8
0
100
AcDbPoint
 10
335.25
 20
8.205529999999996
 30
0.0
  0
POINT
  5
56D
330
17
100
AcDbEntity
  8
0
100
AcDbPoint
 10
335.5
 20
8.122190000000003
 30
0.0
  0
POINT
  5
56E
330
17
100
AcDbEntity
  8
0
100
AcDbPoint
 10
335.75
 20
8.039210000000011
 30
0.0
  0
POINT
  5
56F
330
17
100
AcDbEntity
  8
0
100
AcDbPoint
 10
336.0
 20
7.956580000000002
 30
0.0
  0
POINT
  5
570
330
17
100
AcDbEntity
  8
0
100
AcDbPoint
 10
336.25
 20
7.874300000000005
 30
0.0
  0
POINT
  5
571
330
17
100
AcDbEntity
  8
0
100
AcDbPoint
 10
336.5
 20
7.792379999999994
 30
0.0
  0
POINT
  5
572
330
17
100
AcDbEntity
  8
0
100
AcDbPoint
 10
336.75
 20
7.710829999999987
 30
0.0
  0
POINT
  5
573
330
17
100
AcDbEntity
  8
0
100
AcDbPoint
 10
337.0
 20
7.629630000000006
 30
0.0
  0
POINT
  5
574
330
17
100
AcDbEntity
  8
0
100
AcDbPoint
 10
337.25
 20
7.548799999999986
 30
0.0
  0
POINT
  5
575
330
17
100
AcDbEntity
  8
0
100
AcDbPoint
 10
337.5
 20
7.468329999999995
 30
0.0
  0
POINT
  5
576
330
17
100
AcDbEntity
  8
0
100
AcDbPoint
 10
337.75
 20
7.388230000000021
 30
0.0
  0
POINT
  5
577
330
17
100
AcDbEntity
  8
0
100
AcDbPoint
 10
338.0
 20
7.308499999999995
 30
0.0
  0
POINT
  5
578
330
17
100
AcDbEntity
  8
0
100
AcDbPoint
 10
338.25
 20
7.229140000000001
 30
0.0
  0
POINT
  5
579
330
17
100
AcDbEntity
  8
0
100
AcDbPoint
 10
338.5
 20
7.150149999999982
 30
0.0
  0
POINT
  5
57A
330
17
100
AcDbEntity
  8
0
100
AcDbPoint
 10
338.75
 20
7.071539999999999
 30
0.0
  0
POINT
  5
57B
330
17
100
AcDbEntity
  8
0
100
AcDbPoint
 10
339.0
 20
6.993300000000005
 30
0.0
  0
POINT
  5
57C
330
17
100
AcDbEntity
  8
0
100
AcDbPoint
 10
339.25
 20
6.915440000000004
 30
0.0
  0
POINT
  5
57D
330
17
100
AcDbEntity
  8
0
100
AcDbPoint
 10
339.5
 20
6.837959999999995
 30
0.0
  0
POINT
  5
57E
330
17
100
AcDbEntity
  8
0
100
AcDbPoint
 10
339.75
 20
6.760860000000008
 30
0.0
  0
POINT
  5
57F
330
17
100
AcDbEntity
  8
0
100
AcDbPoint
 10
340.0
 20
6.6841500000000025
 30
0.0
  0
POINT
  5
580
330
17
100
AcDbEntity
  8
0
100
AcDbPoint
 10
340.25
 20
6.60781999999999
 30
0.0
  0
POINT
  5
581
330
17
100
AcDbEntity
  8
0
100
AcDbPoint
 10
340.5
 20
6.531869999999984
 30
0.0
  0
POINT
  5
582
330
17
100
AcDbEntity
  8
0
100
AcDbPoint
 10
340.75
 20
6.456310000000002
 30
0.0
  0
POINT
  5
583
330
17
100
AcDbEntity
  8
0
100
AcDbPoint
 10
341.0
 20
6.381140000000016
 30
0.0
  0
POINT
  5
584
330
17
100
AcDbEntity
  8
0
100
AcDbPoint
 10
341.25
 20
6.306359999999998
 30
0.0
  0
POINT
  5
585
330
17
100
AcDbEntity
  8
0
100
AcDbPoint
 10
341.5
 20
6.231970000000004
 30
0.0
  0
POINT
  5
586
330
17
100
AcDbEntity
  8
0
100
AcDbPoint
 10
341.75
 20
6.157979999999995
 30
0.0
  0
POINT
  5
587
330
17
100
AcDbEntity
  8
0
100
AcDbPoint
 10
342.0
 20
6.084379999999996
 30
0.0
  0
POINT
  5
588
330
17
100
AcDbEntity
  8
0
100
AcDbPoint
 10
342.25
 20
6.011169999999993
 30
0.0
  0
POINT
  5
589
330
17
100
AcDbEntity
  8
0
100
AcDbPoint
 10
342.5
 20
5.938370000000006
 30
0.0
  0
POINT
  5
58A
330
17
100
AcDbEntity
  8
0
100
AcDbPoint
 10
342.75
 20
5.865960000000001
 30
0.0
  0
POINT
  5
58B
330
17
100
AcDbEntity
  8
0
100
AcDbPoint
 10
343.0
 20
5.7939500000000095
 30
0.0
  0
POINT
  5
58C
330
17
100
AcDbEntity
  8
0
100
AcDbPoint
 10
343.25
 20
5.722349999999992
 30
0.0
  0
POINT
  5
58D
330
17
100
AcDbEntity
  8
0
100
AcDbPoint
 10
343.5
 20
5.651139999999998
 30
0.0
  0
POINT
  5
58E
330
17
100
AcDbEntity
  8
0
100
AcDbPoint
 10
343.75
 20
5.5803399999999925
 30
0.0
  0
POINT
  5
58F
330
17
100
AcDbEntity
  8
0
100
AcDbPoint
 10
344.0
 20
5.5099500000000035
 30
0.0
  0
POINT
  5
590
330
17
100
AcDbEntity
  8
0
100
AcDbPoint
 10
344.25
 20
5.439959999999985
 30
0.0
  0
POINT
  5
591
330
17
100
AcDbEntity
  8
0
100
AcDbPoint
 10
344.5
 20
5.370379999999997
 30
0.0
  0
POINT
  5
592
330
17
100
AcDbEntity
  8
0
100
AcDbPoint
 10
344.75
 20
5.3012099999999975
 30
0.0
  0
POINT
  5
593
330
17
100
AcDbEntity
  8
0
100
AcDbPoint
 10
345.0
 20
5.232449999999986
 30
0.0
  0
POINT
  5
594
330
17
100
AcDbEntity
  8
0
100
AcDbPoint
 10
345.25
 20
5.164100000000005
 30
0.0
  0
POINT
  5
595
330
17
100
AcDbEntity
  8
0
100
AcDbPoint
 10
345.5
 20
5.096159999999998
 30
0.0
  0
POINT
  5
596
330
17
100
AcDbEntity
  8
0
100
AcDbPoint
 10
345.75
 20
5.028639999999996
 30
0.0
  0
POINT
  5
597
330
17
100
AcDbEntity
  8
0
100
AcDbPoint
 10
346.0
 20
4.961529999999996
 30
0.0
  0
POINT
  5
598
330
17
100
AcDbEntity
  8
0
100
AcDbPoint
 10
346.25
 20
4.894839999999988
 30
0.0
  0
POINT
  5
599
330
17
100
AcDbEntity
  8
0
100
AcDbPoint
 10
346.5
 20
4.828559999999996
 30
0.0
  0
POINT
  5
59A
330
17
100
AcDbEntity
  8
0
100
AcDbPoint
 10
346.75
 20
4.7627000000000095
 30
0.0
  0
POINT
  5
59B
330
17
100
AcDbEntity
  8
0
100
AcDbPoint
 10
347.0
 20
4.69726
 30
0.0
  0
POINT
  5
59C
330
17
100
AcDbEntity
  8
0
100
AcDbPoint
 10
347.25
 20
4.632249999999999
 30
0.0
  0
POINT
  5
59D
330
17
100
AcDbEntity
  8
0
100
AcDbPoint
 10
347.5
 20
4.56765
 30
0.0
  0
POINT
  5
59E
330
17
100
AcDbEntity
  8
0
100
AcDbPoint
 10
347.75
 20
4.503470000000007
 30
0.0
  0
POINT
  5
59F
330
17
100
AcDbEntity
  8
0
100
AcDbPoint
 10
348.0
 20
4.439720000000008
 30
0.0
  0
POINT
  5
5A0
330
17
100
AcDbEntity
  8
0
100
AcDbPoint
 10
348.25
 20
4.3763899999999865
 30
0.0
  0
POINT
  5
5A1
330
17
100
AcDbEntity
  8
0
100
AcDbPoint
 10
348.5
 20
4.313489999999987
 30
0.0
  0
POINT
  5
5A2
330
17
100
AcDbEntity
  8
0
100
AcDbPoint
 10
348.75
 20
4.251010000000008
 30
0.0
  0
POINT
  5
5A3
330
17
100
AcDbEntity
  8
0
100
AcDbPoint
 10
349.0
 20
4.1889599999999945
 30
0.0
  0
POINT
  5
5A4
330
17
100
AcDbEntity
  8
0
100
AcDbPoint
 10
349.25
 20
4.127330000000001
 30
0.0
  0
POINT
  5
5A5
330
17
100
AcDbEntity
  8
0
100
AcDbPoint
 10
349.5
 20
4.066140000000004
 30
0.0
  0
POINT
  5
5A6
330
17
100
AcDbEntity
  8
0
100
AcDbPoint
 10
349.75
 20
4.005369999999999
 30
0.0
  0
POINT
  5
5A7
330
17
100
AcDbEntity
  8
0
100
AcDbPoint
 10
350.0
 20
3.945040000000006
 30
0.0
  0
POINT
  5
5A8
330
17
100
AcDbEntity
  8
0
100
AcDbPoint
 10
350.25
 20
3.8851300000000037
 30
0.0
  0
POINT
  5
5A9
330
17
100
AcDbEntity
  8
0
100
AcDbPoint
 10
350.5
 20
3.825659999999999
 30
0.0
  0
POINT
  5
5AA
330
17
100
AcDbEntity
  8
0
100
AcDbPoint
 10
350.75
 20
3.766620000000003
 30
0.0
  0
POINT
  5
5AB
330
17
100
AcDbEntity
  8
0
100
AcDbPoint
 10
351.0
 20
3.7080200000000048
 30
0.0
  0
POINT
  5
5AC
330
17
100
AcDbEntity
  8
0
100
AcDbPoint
 10
351.25
 20
3.6498500000000007
 30
0.0
  0
POINT
  5
5AD
330
17
100
AcDbEntity
  8
0
100
AcDbPoint
 10
351.5
 20
3.592119999999994
 30
0.0
  0
POINT
  5
5AE
330
17
100
AcDbEntity
  8
0
100
AcDbPoint
 10
351.75
 20
3.534819999999982
 30
0.0
  0
POINT
  5
5AF
330
17
100
AcDbEntity
  8
0
100
AcDbPoint
 10
352.0
 20
3.4776899999999955
 30
0.0
  0
POINT
  5
5B0
330
17
100
AcDbEntity
  8
0
100
AcDbPoint
 10
352.25
 20
3.42152999999999
 30
0.0
  0
POINT
  5
5B1
330
17
100
AcDbEntity
  8
0
100
AcDbPoint
 10
352.5
 20
3.365550000000013
 30
0.0
  0
POINT
  5
5B2
330
17
100
AcDbEntity
  8
0
100
AcDbPoint
 10
352.75
 20
3.3100000000000165
 30
0.0
  0
POINT
  5
5B3
330
17
100
AcDbEntity
  8
0
100
AcDbPoint
 10
353.0
 20
3.2549000000000063
 30
0.0
  0
POINT
  5
5B4
330
17
100
AcDbEntity
  8
0
100
AcDbPoint
 10
353.25
 20
3.2002299999999906
 30
0.0
  0
POINT
  5
5B5
330
17
100
AcDbEntity
  8
0
100
AcDbPoint
 10
353.5
 20
3.146010000000004
 30
0.0
  0
POINT
  5
5B6
330
17
100
AcDbEntity
  8
0
100
AcDbPoint
 10
353.75
 20
3.092230000000015
 30
0.0
  0
POINT
  5
5B7
330
17
100
AcDbEntity
  8
0
100
AcDbPoint
 10
354.0
 20
3.038889999999995
 30
0.0
  0
POINT
  5
5B8
330
17
100
AcDbEntity
  8
0
100
AcDbPoint
 10
354.25
 20
2.986000000000004
 30
0.0
  0
POINT
  5
5B9
330
17
100
AcDbEntity
  8
0
100
AcDbPoint
 10
354.5
 20
2.9335499999999968
 30
0.0
  0
POINT
  5
5BA
330
17
100
AcDbEntity
  8
0
100
AcDbPoint
 10
354.75
 20
2.881540000000001
 30
0.0
  0
POINT
  5
5BB
330
17
100
AcDbEntity
  8
0
100
AcDbPoint
 10
355.0
 20
2.829980000000006
 30
0.0
  0
POINT
  5
5BC
330
17
100
AcDbEntity
  8
0
100
AcDbPoint
 10
355.25
 20
2.778870000000012
 30
0.0
  0
POINT
  5
5BD
330
17
100
AcDbEntity
  8
0
100
AcDbPoint
 10
355.5
 20
2.728200000000001
 30
0.0
  0
POINT
  5
5BE
330
17
100
AcDbEntity
  8
0
100
AcDbPoint
 10
355.75
 20
2.67798999999998
 30
0.0
  0
POINT
  5
5BF
330
17
100
AcDbEntity
  8
0
100
AcDbPoint
 10
356.0
 20
2.628219999999999
 30
0.0
  0
POINT
  5
5C0
330
17
100
AcDbEntity
  8
0
100
AcDbPoint
 10
356.25
 20
2.578889999999987
 30
0.0
  0
POINT
  5
5C1
330
17
100
AcDbEntity
  8
0
100
AcDbPoint
 10
356.5
 20
2.5300200000000075
 30
0.0
  0
POINT
  5
5C2
330
17
100
AcDbEntity
  8
0
100
AcDbPoint
 10
356.75
 20
2.4816000000000145
 30
0.0
  0
POINT
  5
5C3
330
17
100
AcDbEntity
  8
0
100
AcDbPoint
 10
357.0
 20
2.433630000000022
 30
0.0
  0
POINT
  5
5C4
330
17
100
AcDbEntity
  8
0
100
AcDbPoint
 10
357.25
 20
2.386109999999988
 30
0.0
  0
POINT
  5
5C5
330
17
100
AcDbEntity
  8
0
100
AcDbPoint
 10
357.5
 20
2.339039999999997
 30
0.0
  0
POINT
  5
5C6
330
17
100
AcDbEntity
  8
0
100
AcDbPoint
 10
357.75
 20
2.292429999999996
 30
0.0
  0
POINT
  5
5C7
330
17
100
AcDbEntity
  8
0
100
AcDbPoint
 10
358.0
 20
2.2462699999999813
 30
0.0
  0
POINT
  5
5C8
330
17
100
AcDbEntity
  8
0
100
AcDbPoint
 10
358.25
 20
2.200559999999996
 30
0.0
  0
POINT
  5
5C9
330
17
100
AcDbEntity
  8
0
100
AcDbPoint
 10
358.5
 20
2.155299999999997
 30
0.0
  0
POINT
  5
5CA
330
17
100
AcDbEntity
  8
0
100
AcDbPoint
 10
358.75
 20
2.110500000000002
 30
0.0
  0
POINT
  5
5CB
330
17
100
AcDbEntity
  8
0
100
AcDbPoint
 10
359.0
 20
2.0661599999999822
 30
0.0
  0
POINT
  5
5CC
330
17
100
AcDbEntity
  8
0
100
AcDbPoint
 10
359.25
 20
2.022270000000006
 30
0.0
  0
POINT
  5
5CD
330
17
100
AcDbEntity
  8
0
100
AcDbPoint
 10
359.5
 20
1.9788400000000053
 30
0.0
  0
POINT
  5
5CE
330
17
100
AcDbEntity
  8
0
100
AcDbPoint
 10
359.75
 20
1.9358700000000084
 30
0.0
  0
ENDSEC
  0
SECTION
  2
OBJECTS
  0
DICTIONARY
  5
A
330
0
100
AcDbDictionary
280
0
281
1
  3
ACAD_COLOR
350
B
  3
ACAD_GROUP
350
C
  3
ACAD_LAYOUT
350
D
  3
ACAD_MATERIAL
350
E
  3
ACAD_MLEADERSTYLE
350
F
  3
ACAD_MLINESTYLE
350
10
  3
ACAD_PLOTSETTINGS
350
11
  3
ACAD_PLOTSTYLENAME
350
12
  3
ACAD_SCALELIST
350
14
  3
ACAD_TABLESTYLE
350
15
  3
ACAD_VISUALSTYLE
350
16
  3
EZDXF_META
350
2D
  0
DICTIONARY
  5
B
330
A
100
AcDbDictionary
280
0
281
1
  0
DICTIONARY
  5
C
330
A
100
AcDbDictionary
280
0
281
1
  0
DICTIONARY
  5
D
330
A
100
AcDbDictionary
280
0
281
1
  3
Model
350
1A
  3
Layout1
350
1E
  0
DICTIONARY
  5
E
330
A
100
AcDbDictionary
280
0
281
1
  3
ByBlock
350
1F
  3
ByLayer
350
20
  3
Global
350
21
  0
DICTIONARY
  5
F
330
A
100
AcDbDictionary
280
0
281
1
  3
Standard
350
2C
  0
DICTIONARY
  5
10
330
A
100
AcDbDictionary
280
0
281
1
  3
Standard
350
22
  0
DICTIONARY
  5
11
330
A
100
AcDbDictionary
280
0
281
1
  0
ACDBDICTIONARYWDFLT
  5
12
330
A
100
AcDbDictionary
280
0
281
1
  3
Normal
350
13
100
AcDbDictionaryWithDefault
340
13
  0
ACDBPLACEHOLDER
  5
13
330
12
  0
DICTIONARY
  5
14
330
A
100
AcDbDictionary
280
0
281
1
  0
DICTIONARY
  5
15
330
A
100
AcDbDictionary
280
0
281
1
  0
DICTIONARY
  5
16
330
A
100
AcDbDictionary
280
0
281
1
  0
LAYOUT
  5
1A
330
D
100
AcDbPlotSettings
  1

  4
A3
  6

 40
7.5
 41
20.0
 42
7.5
 43
20.0
 44
420.0
 45
297.0
 46
0.0
 47
0.0
 48
0.0
 49
0.0
140
0.0
141
0.0
142
1.0
143
1.0
 70
1024
 72
1
 73
0
 74
5
  7

 75
16
 76
0
 77
2
 78
300
147
1.0
148
0.0
149
0.0
100
AcDbLayout
  1
Model
 70
1
 71
0
 10
0.0
 20
0.0
 11
420.0
 21
297.0
 12
0.0
 22
0.0
 32
0.0
 14
1e+20
 24
1e+20
 34
1e+20
 15
-1e+20
 25
-1e+20
 35
-1e+20
146
0.0
 13
0.0
 23
0.0
 33
0.0
 16
1.0
 26
0.0
 36
0.0
 17
0.0
 27
1.0
 37
0.0
 76
1
330
17
  0
LAYOUT
  5
1E
330
D
100
AcDbPlotSettings
  1

  4
A3
  6

 40
7.5
 41
20.0
 42
7.5
 43
20.0
 44
420.0
 45
297.0
 46
0.0
 47
0.0
 48
0.0
 49
0.0
140
0.0
141
0.0
142
1.0
143
1.0
 70
0
 72
1
 73
0
 74
5
  7

 75
16
 76
0
 77
2
 78
300
147
1.0
148
0.0
149
0.0
100
AcDbLayout
  1
Layout1
 70
1
 71
1
 10
0.0
 20
0.0
 11
420.0
 21
297.0
 12
0.0
 22
0.0
 32
0.0
 14
1e+20
 24
1e+20
 34
1e+20
 15
-1e+20
 25
-1e+20
 35
-1e+20
146
0.0
 13
0.0
 23
0.0
 33
0.0
 16
1.0
 26
0.0
 36
0.0
 17
0.0
 27
1.0
 37
0.0
 76
1
330
1B
  0
MATERIAL
  5
1F
102
{ACAD_REACTORS
330
E
102
}
330
E
100
AcDbMaterial
  1
ByBlock
  2

 70
0
 40
1.0
 71
1
 41
1.0
 91
-1023410177
 42
1.0
 72
1
  3

 73
1
 74
1
 75
1
 44
0.5
 73
0
 45
1.0
 46
1.0
 77
1
  4

 78
1
 79
1
170
1
 48
1.0
171
1
  6

172
1
173
1
174
1
140
1.0
141
1.0
175
1
  7

176
1
177
1
178
1
143
1.0
179
1
  8

270
1
271
1
272
1
145
1.0
146
1.0
273
1
  9

274
1
275
1
276
1
 42
1.0
 72
1
  3

 73
1
 74
1
 75
1
 94
63
  0
MATERIAL
  5
20
102
{ACAD_REACTORS
330
E
102
}
330
E
100
AcDbMaterial
  1
ByLayer
  2

 70
0
 40
1.0
 71
1
 41
1.0
 91
-1023410177
 42
1.0
 72
1
  3

 73
1
 74
1
 75
1
 44
0.5
 73
0
 45
1.0
 46
1.0
 77
1
  4

 78
1
 79
1
170
1
 48
1.0
171
1
  6

172
1
173
1
174
1
140
1.0
141
1.0
175
1
  7

176
1
177
1
178
1
143
1.0
179
1
  8

270
1
271
1
272
1
145
1.0
146
1.0
273
1
  9

274
1
275
1
276
1
 42
1.0
 72
1
  3

 73
1
 74
1
 75
1
 94
63
  0
MATERIAL
  5
21
102
{ACAD_REACTORS
330
E
102
}
330
E
100
AcDbMaterial
  1
Global
  2

 70
0
 40
1.0
 71
1
 41
1.0
 91
-1023410177
 42
1.0
 72
1
  3

 73
1
 74
1
 75
1
 44
0.5
 73
0
 45
1.0
 46
1.0
 77
1
  4

 78
1
 79
1
170
1
 48
1.0
171
1
  6

172
1
173
1
174
1
140
1.0
141
1.0
175
1
  7

176
1
177
1
178
1
143
1.0
179
1
  8

270
1
271
1
272
1
145
1.0
146
1.0
273
1
  9

274
1
275
1
276
1
 42
1.0
 72
1
  3

 73
1
 74
1
 75
1
 94
63
  0
MLINESTYLE
  5
22
102
{ACAD_REACTORS
330
10
102
}
330
10
100
AcDbMlineStyle
  2
Standard
 70
0
  3

 62
256
 51
90.0
 52
90.0
 71
2
 49
0.5
 62
256
  6
BYLAYER
 49
-0.5
 62
256
  6
BYLAYER
  0
MLEADERSTYLE
  5
2C
102
{ACAD_REACTORS
330
F
102
}
330
F
100
AcDbMLeaderStyle
179
2
170
2
171
1
172
0
 90
2
 40
0.0
 41
0.0
173
1
 91
-1056964608
 92
-2
290
1
 42
2.0
291
1
 43
8.0
  3
Standard
 44
4.0
300

342
29
174
1
175
1
176
0
178
1
 93
-1056964608
 45
4.0
292
0
297
0
 46
4.0
 94
-1056964608
 47
1.0
 49
1.0
140
1.0
294
1
141
0.0
177
0
142
1.0
295
0
296
0
143
3.75
271
0
272
9
273
9
  0
DICTIONARY
  5
2D
330
A
100
AcDbDictionary
281
1
  3
CREATED_BY_EZDXF
350
2E
  3
WRITTEN_BY_EZDXF
350
5D1
  0
DICTIONARYVAR
  5
2E
330
2D
100
DictionaryVariables
280
0
  1
1.3.2 @ 2025-12-18T05:20:45.381923+00:00
  0
DICTIONARYVAR
  5
5D1
330
2D
100
DictionaryVariables
280
0
  1
1.3.2 @ 2025-12-18T05:20:45.396558+00:00
  0
ENDSEC
  0
EOF
